<?xml version="1.0" encoding="UTF-8" standalone="no"?>
<!DOCTYPE svg PUBLIC "-//W3C//DTD SVG 1.1//EN"
 "http://www.w3.org/Graphics/SVG/1.1/DTD/svg11.dtd">
<!-- Generated by graphviz version 2.43.0 (0)
 -->
<!-- Title: CartaMiriadImage.cc Pages: 1 -->
<svg width="808pt" height="151pt"
 viewBox="0.00 0.00 808.00 151.00" xmlns="http://www.w3.org/2000/svg" xmlns:xlink="http://www.w3.org/1999/xlink">
<g id="graph0" class="graph" transform="scale(1 1) rotate(0) translate(4 147)">
<title>CartaMiriadImage.cc</title>
<!-- Node1 -->
<g id="node1" class="node">
<title>Node1</title>
<g id="a_node1"><a xlink:title=" ">
<polygon fill="#bfbfbf" stroke="black" points="433.5,-123.5 433.5,-142.5 551.5,-142.5 551.5,-123.5 433.5,-123.5"/>
<text text-anchor="middle" x="492.5" y="-130.5" font-family="Helvetica,sans-Serif" font-size="10.00">CartaMiriadImage.cc</text>
</a>
</g>
</g>
<!-- Node2 -->
<g id="node2" class="node">
<title>Node2</title>
<g id="a_node2"><a xlink:href="CartaMiriadImage_8h.html" target="_top" xlink:title=" ">
<polygon fill="none" stroke="black" points="214,-67.5 214,-86.5 327,-86.5 327,-67.5 214,-67.5"/>
<text text-anchor="middle" x="270.5" y="-74.5" font-family="Helvetica,sans-Serif" font-size="10.00">CartaMiriadImage.h</text>
</a>
</g>
</g>
<!-- Node1&#45;&gt;Node2 -->
<g id="edge1" class="edge">
<title>Node1&#45;&gt;Node2</title>
<path fill="none" stroke="midnightblue" d="M457.32,-123.44C418.92,-114.1 357.32,-99.12 315.44,-88.93"/>
<polygon fill="midnightblue" stroke="midnightblue" points="316.06,-85.48 305.51,-86.52 314.4,-92.28 316.06,-85.48"/>
</g>
<!-- Node6 -->
<g id="node6" class="node">
<title>Node6</title>
<g id="a_node6"><a xlink:title=" ">
<polygon fill="none" stroke="#bfbfbf" points="345,-67.5 345,-86.5 480,-86.5 480,-67.5 345,-67.5"/>
<text text-anchor="middle" x="412.5" y="-74.5" font-family="Helvetica,sans-Serif" font-size="10.00">casacore/casa/OS/Path.h</text>
</a>
</g>
</g>
<!-- Node1&#45;&gt;Node6 -->
<g id="edge5" class="edge">
<title>Node1&#45;&gt;Node6</title>
<path fill="none" stroke="midnightblue" d="M479.65,-123.32C467.28,-114.98 448.37,-102.21 433.76,-92.35"/>
<polygon fill="midnightblue" stroke="midnightblue" points="435.57,-89.35 425.32,-86.65 431.65,-95.15 435.57,-89.35"/>
</g>
<!-- Node7 -->
<g id="node7" class="node">
<title>Node7</title>
<g id="a_node7"><a xlink:title=" ">
<polygon fill="none" stroke="#bfbfbf" points="498,-67.5 498,-86.5 647,-86.5 647,-67.5 498,-67.5"/>
<text text-anchor="middle" x="572.5" y="-74.5" font-family="Helvetica,sans-Serif" font-size="10.00">casacore/mirlib/maxdimc.h</text>
</a>
</g>
</g>
<!-- Node1&#45;&gt;Node7 -->
<g id="edge6" class="edge">
<title>Node1&#45;&gt;Node7</title>
<path fill="none" stroke="midnightblue" d="M505.35,-123.32C517.72,-114.98 536.63,-102.21 551.24,-92.35"/>
<polygon fill="midnightblue" stroke="midnightblue" points="553.35,-95.15 559.68,-86.65 549.43,-89.35 553.35,-95.15"/>
</g>
<!-- Node8 -->
<g id="node8" class="node">
<title>Node8</title>
<g id="a_node8"><a xlink:title=" ">
<polygon fill="none" stroke="#bfbfbf" points="665,-67.5 665,-86.5 800,-86.5 800,-67.5 665,-67.5"/>
<text text-anchor="middle" x="732.5" y="-74.5" font-family="Helvetica,sans-Serif" font-size="10.00">casacore/mirlib/miriad.h</text>
</a>
</g>
</g>
<!-- Node1&#45;&gt;Node8 -->
<g id="edge7" class="edge">
<title>Node1&#45;&gt;Node8</title>
<path fill="none" stroke="midnightblue" d="M530.53,-123.44C572.31,-114.04 639.48,-98.93 684.77,-88.74"/>
<polygon fill="midnightblue" stroke="midnightblue" points="685.66,-92.13 694.65,-86.52 684.12,-85.3 685.66,-92.13"/>
</g>
<!-- Node3 -->
<g id="node3" class="node">
<title>Node3</title>
<g id="a_node3"><a xlink:title=" ">
<polygon fill="none" stroke="#bfbfbf" points="0,-0.5 0,-30.5 183,-30.5 183,-0.5 0,-0.5"/>
<text text-anchor="start" x="8" y="-18.5" font-family="Helvetica,sans-Serif" font-size="10.00">casacore/coordinates</text>
<text text-anchor="middle" x="91.5" y="-7.5" font-family="Helvetica,sans-Serif" font-size="10.00">/Coordinates/SpectralCoordinate.h</text>
</a>
</g>
</g>
<!-- Node2&#45;&gt;Node3 -->
<g id="edge2" class="edge">
<title>Node2&#45;&gt;Node3</title>
<path fill="none" stroke="midnightblue" d="M244.85,-67.48C218.46,-58.7 176.6,-44.79 143.28,-33.71"/>
<polygon fill="midnightblue" stroke="midnightblue" points="144.28,-30.36 133.69,-30.52 142.07,-37 144.28,-30.36"/>
</g>
<!-- Node4 -->
<g id="node4" class="node">
<title>Node4</title>
<g id="a_node4"><a xlink:title=" ">
<polygon fill="none" stroke="#bfbfbf" points="201.5,-0.5 201.5,-30.5 339.5,-30.5 339.5,-0.5 201.5,-0.5"/>
<text text-anchor="start" x="209.5" y="-18.5" font-family="Helvetica,sans-Serif" font-size="10.00">casacore/images/Images</text>
<text text-anchor="middle" x="270.5" y="-7.5" font-family="Helvetica,sans-Serif" font-size="10.00">/MIRIADImage.h</text>
</a>
</g>
</g>
<!-- Node2&#45;&gt;Node4 -->
<g id="edge3" class="edge">
<title>Node2&#45;&gt;Node4</title>
<path fill="none" stroke="midnightblue" d="M270.5,-67.48C270.5,-60.47 270.5,-50.19 270.5,-40.7"/>
<polygon fill="midnightblue" stroke="midnightblue" points="274,-40.52 270.5,-30.52 267,-40.52 274,-40.52"/>
</g>
<!-- Node5 -->
<g id="node5" class="node">
<title>Node5</title>
<g id="a_node5"><a xlink:title=" ">
<polygon fill="none" stroke="#bfbfbf" points="357.5,-0.5 357.5,-30.5 495.5,-30.5 495.5,-0.5 357.5,-0.5"/>
<text text-anchor="start" x="365.5" y="-18.5" font-family="Helvetica,sans-Serif" font-size="10.00">casacore/images/Images</text>
<text text-anchor="middle" x="426.5" y="-7.5" font-family="Helvetica,sans-Serif" font-size="10.00">/MaskSpecifier.h</text>
</a>
</g>
</g>
<!-- Node2&#45;&gt;Node5 -->
<g id="edge4" class="edge">
<title>Node2&#45;&gt;Node5</title>
<path fill="none" stroke="midnightblue" d="M292.85,-67.48C315.56,-58.81 351.4,-45.15 380.25,-34.14"/>
<polygon fill="midnightblue" stroke="midnightblue" points="381.64,-37.36 389.73,-30.52 379.14,-30.82 381.64,-37.36"/>
</g>
</g>
</svg>
