<?xml version="1.0" encoding="UTF-8" standalone="no"?>
<!DOCTYPE svg PUBLIC "-//W3C//DTD SVG 1.1//EN"
 "http://www.w3.org/Graphics/SVG/1.1/DTD/svg11.dtd">
<!-- Generated by graphviz version 2.43.0 (0)
 -->
<!-- Title: CartaFitsImage.cc Pages: 1 -->
<!--zoomable 296 -->
<svg id="main" version="1.1" xmlns="http://www.w3.org/2000/svg" xmlns:xlink="http://www.w3.org/1999/xlink" xml:space="preserve" onload="init(evt)">
<style type="text/css"><![CDATA[
.edge:hover path { stroke: red; }
.edge:hover polygon { stroke: red; fill: red; }
]]></style>
<script type="text/javascript"><![CDATA[
var edges = document.getElementsByTagName('g');
if (edges && edges.length) {
  for (var i=0;i<edges.length;i++) {
    if (edges[i].id.substr(0,4)=='edge') {
      edges[i].setAttribute('class','edge');
    }
  }
}
]]></script>
        <defs>
                <circle id="rim" cx="0" cy="0" r="7"/>
                <circle id="rim2" cx="0" cy="0" r="3.5"/>
                <g id="zoomPlus">
                        <use xlink:href="#rim" fill="#404040">
                                <set attributeName="fill" to="#808080" begin="zoomplus.mouseover" end="zoomplus.mouseout"/>
                        </use>
                        <path d="M-4,0h8M0,-4v8" fill="none" stroke="white" stroke-width="1.5" pointer-events="none"/>
                </g>
                <g id="zoomMin">
                        <use xlink:href="#rim" fill="#404040">
                                <set attributeName="fill" to="#808080" begin="zoomminus.mouseover" end="zoomminus.mouseout"/>
                        </use>
                        <path d="M-4,0h8" fill="none" stroke="white" stroke-width="1.5" pointer-events="none"/>
                </g>
                <g id="dirArrow">
                        <path fill="none" stroke="white" stroke-width="1.5" d="M0,-3.0v7 M-2.5,-0.5L0,-3.0L2.5,-0.5"/>
                </g>
               <g id="resetDef">
                       <use xlink:href="#rim2" fill="#404040">
                               <set attributeName="fill" to="#808080" begin="reset.mouseover" end="reset.mouseout"/>
                       </use>
               </g>
        </defs>

<script type="text/javascript">
var viewWidth = 2822;
var viewHeight = 296;
var sectionId = 'dynsection-0';
</script>
<script xlink:href="svgpan.js"/>
<svg id="graph" class="graph">
<g id="viewport">
<title>CartaFitsImage.cc</title>
<!-- Node1 -->
<g id="node1" class="node">
<title>Node1</title>
<g id="a_node1"><a xlink:title=" ">
<polygon fill="#bfbfbf" stroke="black" points="1713.5,-268.5 1713.5,-287.5 1817.5,-287.5 1817.5,-268.5 1713.5,-268.5"/>
<text text-anchor="middle" x="1765.5" y="-275.5" font-family="Helvetica,sans-Serif" font-size="10.00">CartaFitsImage.cc</text>
</a>
</g>
</g>
<!-- Node2 -->
<g id="node2" class="node">
<title>Node2</title>
<g id="a_node2"><a xlink:href="CartaFitsImage_8h.html" target="_top" xlink:title=" ">
<polygon fill="none" stroke="black" points="477.5,-201.5 477.5,-220.5 577.5,-220.5 577.5,-201.5 477.5,-201.5"/>
<text text-anchor="middle" x="527.5" y="-208.5" font-family="Helvetica,sans-Serif" font-size="10.00">CartaFitsImage.h</text>
</a>
</g>
</g>
<!-- Node1&#45;&gt;Node2 -->
<g id="edge1" class="edge">
<title>Node1&#45;&gt;Node2</title>
<path fill="none" stroke="midnightblue" d="M1713.24,-277C1514.7,-276.71 807.32,-272.75 586.5,-232 576.81,-230.21 566.55,-227.17 557.35,-223.98"/>
<polygon fill="midnightblue" stroke="midnightblue" points="558.46,-220.66 547.86,-220.53 556.06,-227.24 558.46,-220.66"/>
</g>
<!-- Node19 -->
<g id="node19" class="node">
<title>Node19</title>
<g id="a_node19"><a xlink:title=" ">
<polygon fill="none" stroke="#bfbfbf" points="595.5,-196 595.5,-226 721.5,-226 721.5,-196 595.5,-196"/>
<text text-anchor="start" x="603.5" y="-214" font-family="Helvetica,sans-Serif" font-size="10.00">casacore/casa/BasicSL</text>
<text text-anchor="middle" x="658.5" y="-203" font-family="Helvetica,sans-Serif" font-size="10.00">/Constants.h</text>
</a>
</g>
</g>
<!-- Node1&#45;&gt;Node19 -->
<g id="edge18" class="edge">
<title>Node1&#45;&gt;Node19</title>
<path fill="none" stroke="midnightblue" d="M1713.29,-276.27C1531.03,-273.49 923.77,-262.13 731.5,-232 725.68,-231.09 719.66,-229.88 713.68,-228.51"/>
<polygon fill="midnightblue" stroke="midnightblue" points="714.26,-225.05 703.72,-226.08 712.6,-231.85 714.26,-225.05"/>
</g>
<!-- Node20 -->
<g id="node20" class="node">
<title>Node20</title>
<g id="a_node20"><a xlink:title=" ">
<polygon fill="none" stroke="#bfbfbf" points="740,-201.5 740,-220.5 871,-220.5 871,-201.5 740,-201.5"/>
<text text-anchor="middle" x="805.5" y="-208.5" font-family="Helvetica,sans-Serif" font-size="10.00">casacore/casa/OS/File.h</text>
</a>
</g>
</g>
<!-- Node1&#45;&gt;Node20 -->
<g id="edge19" class="edge">
<title>Node1&#45;&gt;Node20</title>
<path fill="none" stroke="midnightblue" d="M1713.26,-275.78C1548.73,-271.72 1042.55,-257.44 880.5,-232 867.71,-229.99 853.95,-226.67 841.76,-223.31"/>
<polygon fill="midnightblue" stroke="midnightblue" points="842.51,-219.89 831.94,-220.5 840.59,-226.62 842.51,-219.89"/>
</g>
<!-- Node21 -->
<g id="node21" class="node">
<title>Node21</title>
<g id="a_node21"><a xlink:title=" ">
<polygon fill="none" stroke="#bfbfbf" points="889.5,-196 889.5,-226 1013.5,-226 1013.5,-196 889.5,-196"/>
<text text-anchor="start" x="897.5" y="-214" font-family="Helvetica,sans-Serif" font-size="10.00">casacore/casa/Quanta</text>
<text text-anchor="middle" x="951.5" y="-203" font-family="Helvetica,sans-Serif" font-size="10.00">/UnitMap.h</text>
</a>
</g>
</g>
<!-- Node1&#45;&gt;Node21 -->
<g id="edge20" class="edge">
<title>Node1&#45;&gt;Node21</title>
<path fill="none" stroke="midnightblue" d="M1713.27,-277.66C1591.36,-278.36 1278.93,-275.37 1022.5,-232 1017.05,-231.08 1011.43,-229.9 1005.84,-228.58"/>
<polygon fill="midnightblue" stroke="midnightblue" points="1006.41,-225.11 995.86,-226.07 1004.7,-231.9 1006.41,-225.11"/>
</g>
<!-- Node22 -->
<g id="node22" class="node">
<title>Node22</title>
<g id="a_node22"><a xlink:title=" ">
<polygon fill="none" stroke="#bfbfbf" points="1031.5,-196 1031.5,-226 1219.5,-226 1219.5,-196 1031.5,-196"/>
<text text-anchor="start" x="1039.5" y="-214" font-family="Helvetica,sans-Serif" font-size="10.00">casacore/coordinates</text>
<text text-anchor="middle" x="1125.5" y="-203" font-family="Helvetica,sans-Serif" font-size="10.00">/Coordinates/DirectionCoordinate.h</text>
</a>
</g>
</g>
<!-- Node1&#45;&gt;Node22 -->
<g id="edge21" class="edge">
<title>Node1&#45;&gt;Node22</title>
<path fill="none" stroke="midnightblue" d="M1713.18,-274.46C1617.04,-269.37 1405.96,-256.3 1229.5,-232 1220.83,-230.81 1211.79,-229.36 1202.82,-227.81"/>
<polygon fill="midnightblue" stroke="midnightblue" points="1203.2,-224.32 1192.74,-226.01 1201.97,-231.21 1203.2,-224.32"/>
</g>
<!-- Node23 -->
<g id="node23" class="node">
<title>Node23</title>
<g id="a_node23"><a xlink:title=" ">
<polygon fill="none" stroke="#bfbfbf" points="1238,-190.5 1238,-231.5 1393,-231.5 1393,-190.5 1238,-190.5"/>
<text text-anchor="start" x="1246" y="-219.5" font-family="Helvetica,sans-Serif" font-size="10.00">casacore/coordinates</text>
<text text-anchor="start" x="1246" y="-208.5" font-family="Helvetica,sans-Serif" font-size="10.00">/Coordinates/FITSCoordinate</text>
<text text-anchor="middle" x="1315.5" y="-197.5" font-family="Helvetica,sans-Serif" font-size="10.00">Util.h</text>
</a>
</g>
</g>
<!-- Node1&#45;&gt;Node23 -->
<g id="edge22" class="edge">
<title>Node1&#45;&gt;Node23</title>
<path fill="none" stroke="midnightblue" d="M1713.25,-272.22C1644.5,-265.56 1519.73,-252.18 1403.36,-232.06"/>
<polygon fill="midnightblue" stroke="midnightblue" points="1403.66,-228.56 1393.21,-230.28 1402.45,-235.45 1403.66,-228.56"/>
</g>
<!-- Node24 -->
<g id="node24" class="node">
<title>Node24</title>
<g id="a_node24"><a xlink:title=" ">
<polygon fill="none" stroke="#bfbfbf" points="1411,-196 1411,-226 1594,-226 1594,-196 1411,-196"/>
<text text-anchor="start" x="1419" y="-214" font-family="Helvetica,sans-Serif" font-size="10.00">casacore/coordinates</text>
<text text-anchor="middle" x="1502.5" y="-203" font-family="Helvetica,sans-Serif" font-size="10.00">/Coordinates/SpectralCoordinate.h</text>
</a>
</g>
</g>
<!-- Node1&#45;&gt;Node24 -->
<g id="edge23" class="edge">
<title>Node1&#45;&gt;Node24</title>
<path fill="none" stroke="midnightblue" d="M1730.85,-268.44C1689.83,-258.3 1620.61,-241.19 1569.11,-228.46"/>
<polygon fill="midnightblue" stroke="midnightblue" points="1569.93,-225.06 1559.39,-226.06 1568.25,-231.86 1569.93,-225.06"/>
</g>
<!-- Node25 -->
<g id="node25" class="node">
<title>Node25</title>
<g id="a_node25"><a xlink:title=" ">
<polygon fill="none" stroke="#bfbfbf" points="1612.5,-196 1612.5,-226 1750.5,-226 1750.5,-196 1612.5,-196"/>
<text text-anchor="start" x="1620.5" y="-214" font-family="Helvetica,sans-Serif" font-size="10.00">casacore/images/Images</text>
<text text-anchor="middle" x="1681.5" y="-203" font-family="Helvetica,sans-Serif" font-size="10.00">/ImageFITSConverter.h</text>
</a>
</g>
</g>
<!-- Node1&#45;&gt;Node25 -->
<g id="edge24" class="edge">
<title>Node1&#45;&gt;Node25</title>
<path fill="none" stroke="midnightblue" d="M1754.17,-268.23C1742.38,-259.11 1723.5,-244.5 1707.94,-232.46"/>
<polygon fill="midnightblue" stroke="midnightblue" points="1709.76,-229.44 1699.71,-226.09 1705.47,-234.98 1709.76,-229.44"/>
</g>
<!-- Node26 -->
<g id="node26" class="node">
<title>Node26</title>
<g id="a_node26"><a xlink:title=" ">
<polygon fill="none" stroke="#bfbfbf" points="1769,-196 1769,-226 1930,-226 1930,-196 1769,-196"/>
<text text-anchor="start" x="1777" y="-214" font-family="Helvetica,sans-Serif" font-size="10.00">casacore/measures/Measures</text>
<text text-anchor="middle" x="1849.5" y="-203" font-family="Helvetica,sans-Serif" font-size="10.00">/MDirection.h</text>
</a>
</g>
</g>
<!-- Node1&#45;&gt;Node26 -->
<g id="edge25" class="edge">
<title>Node1&#45;&gt;Node26</title>
<path fill="none" stroke="midnightblue" d="M1776.83,-268.23C1788.62,-259.11 1807.5,-244.5 1823.06,-232.46"/>
<polygon fill="midnightblue" stroke="midnightblue" points="1825.53,-234.98 1831.29,-226.09 1821.24,-229.44 1825.53,-234.98"/>
</g>
<!-- Node27 -->
<g id="node27" class="node">
<title>Node27</title>
<g id="a_node27"><a xlink:title=" ">
<polygon fill="none" stroke="#bfbfbf" points="1948,-196 1948,-226 2109,-226 2109,-196 1948,-196"/>
<text text-anchor="start" x="1956" y="-214" font-family="Helvetica,sans-Serif" font-size="10.00">casacore/measures/Measures</text>
<text text-anchor="middle" x="2028.5" y="-203" font-family="Helvetica,sans-Serif" font-size="10.00">/Stokes.h</text>
</a>
</g>
</g>
<!-- Node1&#45;&gt;Node27 -->
<g id="edge26" class="edge">
<title>Node1&#45;&gt;Node27</title>
<path fill="none" stroke="midnightblue" d="M1800.15,-268.44C1841.17,-258.3 1910.39,-241.19 1961.89,-228.46"/>
<polygon fill="midnightblue" stroke="midnightblue" points="1962.75,-231.86 1971.61,-226.06 1961.07,-225.06 1962.75,-231.86"/>
</g>
<!-- Node28 -->
<g id="node28" class="node">
<title>Node28</title>
<g id="a_node28"><a xlink:title=" ">
<polygon fill="none" stroke="#bfbfbf" points="2127.5,-196 2127.5,-226 2267.5,-226 2267.5,-196 2127.5,-196"/>
<text text-anchor="start" x="2135.5" y="-214" font-family="Helvetica,sans-Serif" font-size="10.00">casacore/tables/DataMan</text>
<text text-anchor="middle" x="2197.5" y="-203" font-family="Helvetica,sans-Serif" font-size="10.00">/TiledFileAccess.h</text>
</a>
</g>
</g>
<!-- Node1&#45;&gt;Node28 -->
<g id="edge27" class="edge">
<title>Node1&#45;&gt;Node28</title>
<path fill="none" stroke="midnightblue" d="M1817.55,-272.36C1886.68,-265.73 2012.43,-252.11 2118.5,-232 2124.2,-230.92 2130.1,-229.67 2135.99,-228.34"/>
<polygon fill="midnightblue" stroke="midnightblue" points="2136.92,-231.72 2145.86,-226.03 2135.32,-224.9 2136.92,-231.72"/>
</g>
<!-- Node29 -->
<g id="node29" class="node">
<title>Node29</title>
<g id="a_node29"><a xlink:title=" ">
<polygon fill="none" stroke="#bfbfbf" points="2286,-201.5 2286,-220.5 2375,-220.5 2375,-201.5 2286,-201.5"/>
<text text-anchor="middle" x="2330.5" y="-208.5" font-family="Helvetica,sans-Serif" font-size="10.00">wcslib/fitshdr.h</text>
</a>
</g>
</g>
<!-- Node1&#45;&gt;Node29 -->
<g id="edge28" class="edge">
<title>Node1&#45;&gt;Node29</title>
<path fill="none" stroke="midnightblue" d="M1817.7,-276.97C1910.96,-275.9 2111.85,-269.04 2276.5,-232 2284.96,-230.1 2293.89,-227.19 2301.99,-224.17"/>
<polygon fill="midnightblue" stroke="midnightblue" points="2303.34,-227.4 2311.38,-220.5 2300.8,-220.88 2303.34,-227.4"/>
</g>
<!-- Node30 -->
<g id="node30" class="node">
<title>Node30</title>
<g id="a_node30"><a xlink:title=" ">
<polygon fill="none" stroke="#bfbfbf" points="2393.5,-201.5 2393.5,-220.5 2471.5,-220.5 2471.5,-201.5 2393.5,-201.5"/>
<text text-anchor="middle" x="2432.5" y="-208.5" font-family="Helvetica,sans-Serif" font-size="10.00">wcslib/wcs.h</text>
</a>
</g>
</g>
<!-- Node1&#45;&gt;Node30 -->
<g id="edge29" class="edge">
<title>Node1&#45;&gt;Node30</title>
<path fill="none" stroke="midnightblue" d="M1817.56,-275.37C1946.38,-270.98 2277.32,-257.51 2384.5,-232 2391.7,-230.29 2399.21,-227.62 2406.09,-224.79"/>
<polygon fill="midnightblue" stroke="midnightblue" points="2407.87,-227.83 2415.62,-220.61 2405.06,-221.42 2407.87,-227.83"/>
</g>
<!-- Node31 -->
<g id="node31" class="node">
<title>Node31</title>
<g id="a_node31"><a xlink:title=" ">
<polygon fill="none" stroke="#bfbfbf" points="2489.5,-201.5 2489.5,-220.5 2579.5,-220.5 2579.5,-201.5 2489.5,-201.5"/>
<text text-anchor="middle" x="2534.5" y="-208.5" font-family="Helvetica,sans-Serif" font-size="10.00">wcslib/wcsfix.h</text>
</a>
</g>
</g>
<!-- Node1&#45;&gt;Node31 -->
<g id="edge30" class="edge">
<title>Node1&#45;&gt;Node31</title>
<path fill="none" stroke="midnightblue" d="M1817.62,-275.69C1960.09,-271.79 2353.8,-258.84 2480.5,-232 2488.98,-230.2 2497.92,-227.33 2506.02,-224.31"/>
<polygon fill="midnightblue" stroke="midnightblue" points="2507.38,-227.54 2515.41,-220.62 2504.82,-221.02 2507.38,-227.54"/>
</g>
<!-- Node32 -->
<g id="node32" class="node">
<title>Node32</title>
<g id="a_node32"><a xlink:title=" ">
<polygon fill="none" stroke="#bfbfbf" points="2598,-201.5 2598,-220.5 2691,-220.5 2691,-201.5 2598,-201.5"/>
<text text-anchor="middle" x="2644.5" y="-208.5" font-family="Helvetica,sans-Serif" font-size="10.00">wcslib/wcshdr.h</text>
</a>
</g>
</g>
<!-- Node1&#45;&gt;Node32 -->
<g id="edge31" class="edge">
<title>Node1&#45;&gt;Node32</title>
<path fill="none" stroke="midnightblue" d="M1817.73,-276.11C1974.63,-273.12 2440.07,-261.91 2588.5,-232 2597.45,-230.2 2606.89,-227.25 2615.43,-224.17"/>
<polygon fill="midnightblue" stroke="midnightblue" points="2616.84,-227.38 2624.94,-220.55 2614.35,-220.84 2616.84,-227.38"/>
</g>
<!-- Node33 -->
<g id="node33" class="node">
<title>Node33</title>
<g id="a_node33"><a xlink:title=" ">
<polygon fill="none" stroke="#bfbfbf" points="2709.5,-201.5 2709.5,-220.5 2813.5,-220.5 2813.5,-201.5 2709.5,-201.5"/>
<text text-anchor="middle" x="2761.5" y="-208.5" font-family="Helvetica,sans-Serif" font-size="10.00">wcslib/wcsmath.h</text>
</a>
</g>
</g>
<!-- Node1&#45;&gt;Node33 -->
<g id="edge32" class="edge">
<title>Node1&#45;&gt;Node33</title>
<path fill="none" stroke="midnightblue" d="M1817.73,-276.33C1988.5,-273.85 2529.1,-263.63 2700.5,-232 2710.51,-230.15 2721.13,-227.08 2730.66,-223.89"/>
<polygon fill="midnightblue" stroke="midnightblue" points="2731.85,-227.18 2740.13,-220.57 2729.53,-220.58 2731.85,-227.18"/>
</g>
<!-- Node3 -->
<g id="node3" class="node">
<title>Node3</title>
<g id="a_node3"><a xlink:title=" ">
<polygon fill="none" stroke="#bfbfbf" points="0,-123.5 0,-153.5 127,-153.5 127,-123.5 0,-123.5"/>
<text text-anchor="start" x="8" y="-141.5" font-family="Helvetica,sans-Serif" font-size="10.00">casacore/casa/Utilities</text>
<text text-anchor="middle" x="63.5" y="-130.5" font-family="Helvetica,sans-Serif" font-size="10.00">/DataType.h</text>
</a>
</g>
</g>
<!-- Node2&#45;&gt;Node3 -->
<g id="edge2" class="edge">
<title>Node2&#45;&gt;Node3</title>
<path fill="none" stroke="midnightblue" d="M477.37,-203.7C404.74,-194.37 265.79,-175.81 137.19,-154.06"/>
<polygon fill="midnightblue" stroke="midnightblue" points="137.61,-150.58 127.16,-152.36 136.44,-157.48 137.61,-150.58"/>
</g>
<!-- Node4 -->
<g id="node4" class="node">
<title>Node4</title>
<g id="a_node4"><a xlink:title=" ">
<polygon fill="none" stroke="#bfbfbf" points="145.5,-123.5 145.5,-153.5 283.5,-153.5 283.5,-123.5 145.5,-123.5"/>
<text text-anchor="start" x="153.5" y="-141.5" font-family="Helvetica,sans-Serif" font-size="10.00">casacore/images/Images</text>
<text text-anchor="middle" x="214.5" y="-130.5" font-family="Helvetica,sans-Serif" font-size="10.00">/ImageInfo.h</text>
</a>
</g>
</g>
<!-- Node2&#45;&gt;Node4 -->
<g id="edge3" class="edge">
<title>Node2&#45;&gt;Node4</title>
<path fill="none" stroke="midnightblue" d="M489.74,-201.5C439.59,-190.2 349.94,-170.01 286.61,-155.74"/>
<polygon fill="midnightblue" stroke="midnightblue" points="287.21,-152.29 276.68,-153.51 285.67,-159.12 287.21,-152.29"/>
</g>
<!-- Node5 -->
<g id="node5" class="node">
<title>Node5</title>
<g id="a_node5"><a xlink:title=" ">
<polygon fill="none" stroke="#bfbfbf" points="301.5,-123.5 301.5,-153.5 439.5,-153.5 439.5,-123.5 301.5,-123.5"/>
<text text-anchor="start" x="309.5" y="-141.5" font-family="Helvetica,sans-Serif" font-size="10.00">casacore/images/Images</text>
<text text-anchor="middle" x="370.5" y="-130.5" font-family="Helvetica,sans-Serif" font-size="10.00">/ImageInterface.h</text>
</a>
</g>
</g>
<!-- Node2&#45;&gt;Node5 -->
<g id="edge4" class="edge">
<title>Node2&#45;&gt;Node5</title>
<path fill="none" stroke="midnightblue" d="M508.56,-201.5C484.54,-190.71 442.47,-171.82 411.06,-157.71"/>
<polygon fill="midnightblue" stroke="midnightblue" points="412.25,-154.41 401.69,-153.51 409.38,-160.8 412.25,-154.41"/>
</g>
<!-- Node6 -->
<g id="node6" class="node">
<title>Node6</title>
<g id="a_node6"><a xlink:title=" ">
<polygon fill="none" stroke="#bfbfbf" points="457.5,-123.5 457.5,-153.5 597.5,-153.5 597.5,-123.5 457.5,-123.5"/>
<text text-anchor="start" x="465.5" y="-141.5" font-family="Helvetica,sans-Serif" font-size="10.00">casacore/lattices/Lattices</text>
<text text-anchor="middle" x="527.5" y="-130.5" font-family="Helvetica,sans-Serif" font-size="10.00">/TiledShape.h</text>
</a>
</g>
</g>
<!-- Node2&#45;&gt;Node6 -->
<g id="edge5" class="edge">
<title>Node2&#45;&gt;Node6</title>
<path fill="none" stroke="midnightblue" d="M527.5,-201.36C527.5,-192.05 527.5,-176.83 527.5,-163.81"/>
<polygon fill="midnightblue" stroke="midnightblue" points="531,-163.58 527.5,-153.58 524,-163.58 531,-163.58"/>
</g>
<!-- Node7 -->
<g id="node7" class="node">
<title>Node7</title>
<g id="a_node7"><a xlink:title=" ">
<polygon fill="none" stroke="#bfbfbf" points="615.5,-129 615.5,-148 665.5,-148 665.5,-129 615.5,-129"/>
<text text-anchor="middle" x="640.5" y="-136" font-family="Helvetica,sans-Serif" font-size="10.00">fitsio.h</text>
</a>
</g>
</g>
<!-- Node2&#45;&gt;Node7 -->
<g id="edge6" class="edge">
<title>Node2&#45;&gt;Node7</title>
<path fill="none" stroke="midnightblue" d="M541.36,-201.36C560.42,-189.46 594.96,-167.91 617.82,-153.65"/>
<polygon fill="midnightblue" stroke="midnightblue" points="619.9,-156.48 626.53,-148.22 616.19,-150.54 619.9,-156.48"/>
</g>
<!-- Node8 -->
<g id="node8" class="node">
<title>Node8</title>
<g id="a_node8"><a xlink:href="Logger_8h.html" target="_top" xlink:title=" ">
<polygon fill="none" stroke="black" points="684,-129 684,-148 787,-148 787,-129 684,-129"/>
<text text-anchor="middle" x="735.5" y="-136" font-family="Helvetica,sans-Serif" font-size="10.00">../Logger/Logger.h</text>
</a>
</g>
</g>
<!-- Node2&#45;&gt;Node8 -->
<g id="edge7" class="edge">
<title>Node2&#45;&gt;Node8</title>
<path fill="none" stroke="midnightblue" d="M552.59,-201.5C589.6,-188.95 658.96,-165.44 700.82,-151.26"/>
<polygon fill="midnightblue" stroke="midnightblue" points="701.97,-154.56 710.32,-148.03 699.73,-147.93 701.97,-154.56"/>
</g>
<!-- Node18 -->
<g id="node18" class="node">
<title>Node18</title>
<g id="a_node18"><a xlink:href="CartaFitsImage_8tcc.html" target="_top" xlink:title=" ">
<polygon fill="none" stroke="black" points="805.5,-129 805.5,-148 913.5,-148 913.5,-129 805.5,-129"/>
<text text-anchor="middle" x="859.5" y="-136" font-family="Helvetica,sans-Serif" font-size="10.00">CartaFitsImage.tcc</text>
</a>
</g>
</g>
<!-- Node2&#45;&gt;Node18 -->
<g id="edge17" class="edge">
<title>Node2&#45;&gt;Node18</title>
<path fill="none" stroke="midnightblue" d="M549.94,-201.46C560.86,-197.55 574.23,-193.11 586.5,-190 678.29,-166.73 703.66,-172.63 796.5,-154 802.21,-152.85 808.19,-151.58 814.11,-150.27"/>
<polygon fill="midnightblue" stroke="midnightblue" points="814.94,-153.67 823.93,-148.06 813.4,-146.84 814.94,-153.67"/>
</g>
<!-- Node9 -->
<g id="node9" class="node">
<title>Node9</title>
<g id="a_node9"><a xlink:title=" ">
<polygon fill="none" stroke="#bfbfbf" points="288.5,-62 288.5,-81 348.5,-81 348.5,-62 288.5,-62"/>
<text text-anchor="middle" x="318.5" y="-69" font-family="Helvetica,sans-Serif" font-size="10.00">iostream</text>
</a>
</g>
</g>
<!-- Node8&#45;&gt;Node9 -->
<g id="edge8" class="edge">
<title>Node8&#45;&gt;Node9</title>
<path fill="none" stroke="midnightblue" d="M702.73,-128.94C693.63,-126.78 683.72,-124.61 674.5,-123 534.83,-98.56 495.41,-119.95 357.5,-87 354.51,-86.28 351.43,-85.41 348.37,-84.44"/>
<polygon fill="midnightblue" stroke="midnightblue" points="349.45,-81.1 338.85,-81.13 347.15,-87.72 349.45,-81.1"/>
</g>
<!-- Node10 -->
<g id="node10" class="node">
<title>Node10</title>
<g id="a_node10"><a xlink:title=" ">
<polygon fill="none" stroke="#bfbfbf" points="366.5,-62 366.5,-81 470.5,-81 470.5,-62 366.5,-62"/>
<text text-anchor="middle" x="418.5" y="-69" font-family="Helvetica,sans-Serif" font-size="10.00">spdlog/common.h</text>
</a>
</g>
</g>
<!-- Node8&#45;&gt;Node10 -->
<g id="edge9" class="edge">
<title>Node8&#45;&gt;Node10</title>
<path fill="none" stroke="midnightblue" d="M701.05,-128.99C692.4,-126.95 683.13,-124.82 674.5,-123 588.7,-104.85 566.33,-104.99 480.5,-87 475.09,-85.87 469.43,-84.62 463.82,-83.35"/>
<polygon fill="midnightblue" stroke="midnightblue" points="464.38,-79.89 453.85,-81.06 462.81,-86.71 464.38,-79.89"/>
</g>
<!-- Node11 -->
<g id="node11" class="node">
<title>Node11</title>
<g id="a_node11"><a xlink:title=" ">
<polygon fill="none" stroke="#bfbfbf" points="489,-56.5 489,-86.5 592,-86.5 592,-56.5 489,-56.5"/>
<text text-anchor="start" x="497" y="-74.5" font-family="Helvetica,sans-Serif" font-size="10.00">spdlog/details/log</text>
<text text-anchor="middle" x="540.5" y="-63.5" font-family="Helvetica,sans-Serif" font-size="10.00">_msg.h</text>
</a>
</g>
</g>
<!-- Node8&#45;&gt;Node11 -->
<g id="edge10" class="edge">
<title>Node8&#45;&gt;Node11</title>
<path fill="none" stroke="midnightblue" d="M709.61,-128.87C679.84,-118.95 630.23,-102.41 592.42,-89.81"/>
<polygon fill="midnightblue" stroke="midnightblue" points="593.18,-86.37 582.58,-86.53 590.96,-93.01 593.18,-86.37"/>
</g>
<!-- Node12 -->
<g id="node12" class="node">
<title>Node12</title>
<g id="a_node12"><a xlink:title=" ">
<polygon fill="none" stroke="#bfbfbf" points="610,-56.5 610,-86.5 729,-86.5 729,-56.5 610,-56.5"/>
<text text-anchor="start" x="618" y="-74.5" font-family="Helvetica,sans-Serif" font-size="10.00">spdlog/sinks/rotating</text>
<text text-anchor="middle" x="669.5" y="-63.5" font-family="Helvetica,sans-Serif" font-size="10.00">_file_sink.h</text>
</a>
</g>
</g>
<!-- Node8&#45;&gt;Node12 -->
<g id="edge11" class="edge">
<title>Node8&#45;&gt;Node12</title>
<path fill="none" stroke="midnightblue" d="M726.6,-128.73C717.51,-119.78 703.05,-105.54 690.96,-93.63"/>
<polygon fill="midnightblue" stroke="midnightblue" points="693.39,-91.11 683.81,-86.59 688.47,-96.1 693.39,-91.11"/>
</g>
<!-- Node13 -->
<g id="node13" class="node">
<title>Node13</title>
<g id="a_node13"><a xlink:title=" ">
<polygon fill="none" stroke="#bfbfbf" points="747,-56.5 747,-86.5 858,-86.5 858,-56.5 747,-56.5"/>
<text text-anchor="start" x="755" y="-74.5" font-family="Helvetica,sans-Serif" font-size="10.00">spdlog/sinks/stdout</text>
<text text-anchor="middle" x="802.5" y="-63.5" font-family="Helvetica,sans-Serif" font-size="10.00">_color_sinks.h</text>
</a>
</g>
</g>
<!-- Node8&#45;&gt;Node13 -->
<g id="edge12" class="edge">
<title>Node8&#45;&gt;Node13</title>
<path fill="none" stroke="midnightblue" d="M744.54,-128.73C753.76,-119.78 768.44,-105.54 780.72,-93.63"/>
<polygon fill="midnightblue" stroke="midnightblue" points="783.24,-96.06 787.98,-86.59 778.36,-91.04 783.24,-96.06"/>
</g>
<!-- Node14 -->
<g id="node14" class="node">
<title>Node14</title>
<g id="a_node14"><a xlink:title=" ">
<polygon fill="none" stroke="#bfbfbf" points="876,-62 876,-81 969,-81 969,-62 876,-62"/>
<text text-anchor="middle" x="922.5" y="-69" font-family="Helvetica,sans-Serif" font-size="10.00">spdlog/spdlog.h</text>
</a>
</g>
</g>
<!-- Node8&#45;&gt;Node14 -->
<g id="edge13" class="edge">
<title>Node8&#45;&gt;Node14</title>
<path fill="none" stroke="midnightblue" d="M760.33,-128.87C793.12,-117.47 851,-97.35 888.01,-84.49"/>
<polygon fill="midnightblue" stroke="midnightblue" points="889.57,-87.65 897.86,-81.06 887.27,-81.04 889.57,-87.65"/>
</g>
<!-- Node15 -->
<g id="node15" class="node">
<title>Node15</title>
<g id="a_node15"><a xlink:title=" ">
<polygon fill="none" stroke="#bfbfbf" points="987.5,-62 987.5,-81 1133.5,-81 1133.5,-62 987.5,-62"/>
<text text-anchor="middle" x="1060.5" y="-69" font-family="Helvetica,sans-Serif" font-size="10.00">carta&#45;protobuf/enums.pb.h</text>
</a>
</g>
</g>
<!-- Node8&#45;&gt;Node15 -->
<g id="edge14" class="edge">
<title>Node8&#45;&gt;Node15</title>
<path fill="none" stroke="midnightblue" d="M770.28,-128.95C778.84,-126.93 787.99,-124.83 796.5,-123 867.01,-107.88 948.6,-92.61 1002.19,-82.89"/>
<polygon fill="midnightblue" stroke="midnightblue" points="1002.98,-86.3 1012.2,-81.08 1001.73,-79.41 1002.98,-86.3"/>
</g>
<!-- Node16 -->
<g id="node16" class="node">
<title>Node16</title>
<g id="a_node16"><a xlink:href="FileSystem_8h.html" target="_top" xlink:title=" ">
<polygon fill="none" stroke="black" points="1151.5,-62 1151.5,-81 1251.5,-81 1251.5,-62 1151.5,-62"/>
<text text-anchor="middle" x="1201.5" y="-69" font-family="Helvetica,sans-Serif" font-size="10.00">Util/FileSystem.h</text>
</a>
</g>
</g>
<!-- Node8&#45;&gt;Node16 -->
<g id="edge15" class="edge">
<title>Node8&#45;&gt;Node16</title>
<path fill="none" stroke="midnightblue" d="M767.95,-128.96C777.13,-126.77 787.16,-124.59 796.5,-123 948.92,-97.07 990.18,-113.51 1142.5,-87 1148.29,-85.99 1154.36,-84.74 1160.31,-83.39"/>
<polygon fill="midnightblue" stroke="midnightblue" points="1161.21,-86.77 1170.13,-81.06 1159.59,-79.96 1161.21,-86.77"/>
</g>
<!-- Node17 -->
<g id="node17" class="node">
<title>Node17</title>
<g id="a_node17"><a xlink:title=" ">
<polygon fill="none" stroke="#bfbfbf" points="1167.5,-0.5 1167.5,-19.5 1235.5,-19.5 1235.5,-0.5 1167.5,-0.5"/>
<text text-anchor="middle" x="1201.5" y="-7.5" font-family="Helvetica,sans-Serif" font-size="10.00">filesystem</text>
</a>
</g>
</g>
<!-- Node16&#45;&gt;Node17 -->
<g id="edge16" class="edge">
<title>Node16&#45;&gt;Node17</title>
<path fill="none" stroke="midnightblue" d="M1201.5,-61.98C1201.5,-53.58 1201.5,-40.48 1201.5,-29.66"/>
<polygon fill="midnightblue" stroke="midnightblue" points="1205,-29.51 1201.5,-19.51 1198,-29.51 1205,-29.51"/>
</g>
</g>
</svg>
        <g id="navigator" transform="translate(0 0)" fill="#404254">
                <rect fill="#f2f5e9" fill-opacity="0.5" stroke="#606060" stroke-width=".5" x="0" y="0" width="60" height="60"/>
                <use id="zoomplus" xlink:href="#zoomPlus" x="17" y="9" onmousedown="handleZoom(evt,'in')"/>
                <use id="zoomminus" xlink:href="#zoomMin" x="42" y="9" onmousedown="handleZoom(evt,'out')"/>
                <use id="reset" xlink:href="#resetDef" x="30" y="36" onmousedown="handleReset()"/>
                <g id="arrowUp" xlink:href="#dirArrow" transform="translate(30 24)" onmousedown="handlePan(0,-1)">
                  <use xlink:href="#rim" fill="#404040">
                        <set attributeName="fill" to="#808080" begin="arrowUp.mouseover" end="arrowUp.mouseout"/>
                  </use>
                  <path fill="none" stroke="white" stroke-width="1.5" d="M0,-3.0v7 M-2.5,-0.5L0,-3.0L2.5,-0.5"/>
                </g>
                <g id="arrowRight" xlink:href="#dirArrow" transform="rotate(90) translate(36 -43)" onmousedown="handlePan(1,0)">
                  <use xlink:href="#rim" fill="#404040">
                        <set attributeName="fill" to="#808080" begin="arrowRight.mouseover" end="arrowRight.mouseout"/>
                  </use>
                  <path fill="none" stroke="white" stroke-width="1.5" d="M0,-3.0v7 M-2.5,-0.5L0,-3.0L2.5,-0.5"/>
                </g>
                <g id="arrowDown" xlink:href="#dirArrow" transform="rotate(180) translate(-30 -48)" onmousedown="handlePan(0,1)">
                  <use xlink:href="#rim" fill="#404040">
                        <set attributeName="fill" to="#808080" begin="arrowDown.mouseover" end="arrowDown.mouseout"/>
                  </use>
                  <path fill="none" stroke="white" stroke-width="1.5" d="M0,-3.0v7 M-2.5,-0.5L0,-3.0L2.5,-0.5"/>
                </g>
                <g id="arrowLeft" xlink:href="#dirArrow" transform="rotate(270) translate(-36 17)" onmousedown="handlePan(-1,0)">
                  <use xlink:href="#rim" fill="#404040">
                        <set attributeName="fill" to="#808080" begin="arrowLeft.mouseover" end="arrowLeft.mouseout"/>
                  </use>
                  <path fill="none" stroke="white" stroke-width="1.5" d="M0,-3.0v7 M-2.5,-0.5L0,-3.0L2.5,-0.5"/>
                </g>
        </g>
        <svg viewBox="0 0 15 15" width="100%" height="30px" preserveAspectRatio="xMaxYMin meet">
         <g id="arrow_out" transform="scale(0.3 0.3)">
          <a xlink:href="CartaFitsImage_8cc__incl_org.svg" target="_base">
           <rect id="button" ry="5" rx="5" y="6" x="6" height="38" width="38"
                fill="#f2f5e9" fill-opacity="0.5" stroke="#606060" stroke-width="1.0"/>
           <path id="arrow"
             d="M 11.500037,31.436501 C 11.940474,20.09759 22.043105,11.32322 32.158766,21.979434 L 37.068811,17.246167 C 37.068811,17.246167 37.088388,32 37.088388,32 L 22.160133,31.978069 C 22.160133,31.978069 26.997745,27.140456 26.997745,27.140456 C 18.528582,18.264221 13.291696,25.230495 11.500037,31.436501 z"
             style="fill:#404040;"/>
          </a>
         </g>
        </svg>
</svg>
