<?xml version="1.0" encoding="UTF-8" standalone="no"?>
<!DOCTYPE svg PUBLIC "-//W3C//DTD SVG 1.1//EN"
 "http://www.w3.org/Graphics/SVG/1.1/DTD/svg11.dtd">
<!-- Generated by graphviz version 2.43.0 (0)
 -->
<!-- Title: CartaHdf5Image.h Pages: 1 -->
<svg width="1200pt" height="95pt"
 viewBox="0.00 0.00 1199.50 95.00" xmlns="http://www.w3.org/2000/svg" xmlns:xlink="http://www.w3.org/1999/xlink">
<g id="graph0" class="graph" transform="scale(1 1) rotate(0) translate(4 91)">
<title>CartaHdf5Image.h</title>
<!-- Node1 -->
<g id="node1" class="node">
<title>Node1</title>
<g id="a_node1"><a xlink:title=" ">
<polygon fill="#bfbfbf" stroke="black" points="521.5,-67.5 521.5,-86.5 627.5,-86.5 627.5,-67.5 521.5,-67.5"/>
<text text-anchor="middle" x="574.5" y="-74.5" font-family="Helvetica,sans-Serif" font-size="10.00">CartaHdf5Image.h</text>
</a>
</g>
</g>
<!-- Node2 -->
<g id="node2" class="node">
<title>Node2</title>
<g id="a_node2"><a xlink:title=" ">
<polygon fill="none" stroke="#bfbfbf" points="0,-0.5 0,-30.5 141,-30.5 141,-0.5 0,-0.5"/>
<text text-anchor="start" x="8" y="-18.5" font-family="Helvetica,sans-Serif" font-size="10.00">casacore/casa/Containers</text>
<text text-anchor="middle" x="70.5" y="-7.5" font-family="Helvetica,sans-Serif" font-size="10.00">/Record.h</text>
</a>
</g>
</g>
<!-- Node1&#45;&gt;Node2 -->
<g id="edge1" class="edge">
<title>Node1&#45;&gt;Node2</title>
<path fill="none" stroke="midnightblue" d="M521.46,-71.63C442.92,-64.89 290.83,-50.77 151.16,-31.02"/>
<polygon fill="midnightblue" stroke="midnightblue" points="151.52,-27.54 141.12,-29.59 150.53,-34.47 151.52,-27.54"/>
</g>
<!-- Node3 -->
<g id="node3" class="node">
<title>Node3</title>
<g id="a_node3"><a xlink:title=" ">
<polygon fill="none" stroke="#bfbfbf" points="159.5,-0.5 159.5,-30.5 275.5,-30.5 275.5,-0.5 159.5,-0.5"/>
<text text-anchor="start" x="167.5" y="-18.5" font-family="Helvetica,sans-Serif" font-size="10.00">casacore/casa/HDF5</text>
<text text-anchor="middle" x="217.5" y="-7.5" font-family="Helvetica,sans-Serif" font-size="10.00">/HDF5File.h</text>
</a>
</g>
</g>
<!-- Node1&#45;&gt;Node3 -->
<g id="edge2" class="edge">
<title>Node1&#45;&gt;Node3</title>
<path fill="none" stroke="midnightblue" d="M521.42,-68.73C465.25,-60.81 373.81,-47.32 285.48,-31.12"/>
<polygon fill="midnightblue" stroke="midnightblue" points="286.03,-27.66 275.56,-29.29 284.76,-34.54 286.03,-27.66"/>
</g>
<!-- Node4 -->
<g id="node4" class="node">
<title>Node4</title>
<g id="a_node4"><a xlink:title=" ">
<polygon fill="none" stroke="#bfbfbf" points="293.5,-0.5 293.5,-30.5 409.5,-30.5 409.5,-0.5 293.5,-0.5"/>
<text text-anchor="start" x="301.5" y="-18.5" font-family="Helvetica,sans-Serif" font-size="10.00">casacore/casa/HDF5</text>
<text text-anchor="middle" x="351.5" y="-7.5" font-family="Helvetica,sans-Serif" font-size="10.00">/HDF5Group.h</text>
</a>
</g>
</g>
<!-- Node1&#45;&gt;Node4 -->
<g id="edge3" class="edge">
<title>Node1&#45;&gt;Node4</title>
<path fill="none" stroke="midnightblue" d="M542.55,-67.48C509.1,-58.55 455.72,-44.31 413.88,-33.14"/>
<polygon fill="midnightblue" stroke="midnightblue" points="414.62,-29.72 404.06,-30.52 412.82,-36.48 414.62,-29.72"/>
</g>
<!-- Node5 -->
<g id="node5" class="node">
<title>Node5</title>
<g id="a_node5"><a xlink:title=" ">
<polygon fill="none" stroke="#bfbfbf" points="427.5,-0.5 427.5,-30.5 565.5,-30.5 565.5,-0.5 427.5,-0.5"/>
<text text-anchor="start" x="435.5" y="-18.5" font-family="Helvetica,sans-Serif" font-size="10.00">casacore/images/Images</text>
<text text-anchor="middle" x="496.5" y="-7.5" font-family="Helvetica,sans-Serif" font-size="10.00">/ImageInterface.h</text>
</a>
</g>
</g>
<!-- Node1&#45;&gt;Node5 -->
<g id="edge4" class="edge">
<title>Node1&#45;&gt;Node5</title>
<path fill="none" stroke="midnightblue" d="M563.32,-67.48C552.86,-59.49 536.82,-47.25 523.07,-36.77"/>
<polygon fill="midnightblue" stroke="midnightblue" points="524.96,-33.81 514.88,-30.52 520.71,-39.37 524.96,-33.81"/>
</g>
<!-- Node6 -->
<g id="node6" class="node">
<title>Node6</title>
<g id="a_node6"><a xlink:title=" ">
<polygon fill="none" stroke="#bfbfbf" points="583.5,-0.5 583.5,-30.5 721.5,-30.5 721.5,-0.5 583.5,-0.5"/>
<text text-anchor="start" x="591.5" y="-18.5" font-family="Helvetica,sans-Serif" font-size="10.00">casacore/images/Images</text>
<text text-anchor="middle" x="652.5" y="-7.5" font-family="Helvetica,sans-Serif" font-size="10.00">/MaskSpecifier.h</text>
</a>
</g>
</g>
<!-- Node1&#45;&gt;Node6 -->
<g id="edge5" class="edge">
<title>Node1&#45;&gt;Node6</title>
<path fill="none" stroke="midnightblue" d="M585.68,-67.48C596.14,-59.49 612.18,-47.25 625.93,-36.77"/>
<polygon fill="midnightblue" stroke="midnightblue" points="628.29,-39.37 634.12,-30.52 624.04,-33.81 628.29,-39.37"/>
</g>
<!-- Node7 -->
<g id="node7" class="node">
<title>Node7</title>
<g id="a_node7"><a xlink:title=" ">
<polygon fill="none" stroke="#bfbfbf" points="740,-0.5 740,-30.5 881,-30.5 881,-0.5 740,-0.5"/>
<text text-anchor="start" x="748" y="-18.5" font-family="Helvetica,sans-Serif" font-size="10.00">casacore/images/Regions</text>
<text text-anchor="middle" x="810.5" y="-7.5" font-family="Helvetica,sans-Serif" font-size="10.00">/RegionHandlerHDF5.h</text>
</a>
</g>
</g>
<!-- Node1&#45;&gt;Node7 -->
<g id="edge6" class="edge">
<title>Node1&#45;&gt;Node7</title>
<path fill="none" stroke="midnightblue" d="M608.31,-67.48C643.86,-58.51 700.68,-44.19 745.04,-33"/>
<polygon fill="midnightblue" stroke="midnightblue" points="746.04,-36.36 754.88,-30.52 744.33,-29.57 746.04,-36.36"/>
</g>
<!-- Node8 -->
<g id="node8" class="node">
<title>Node8</title>
<g id="a_node8"><a xlink:title=" ">
<polygon fill="none" stroke="#bfbfbf" points="899.5,-0.5 899.5,-30.5 1039.5,-30.5 1039.5,-0.5 899.5,-0.5"/>
<text text-anchor="start" x="907.5" y="-18.5" font-family="Helvetica,sans-Serif" font-size="10.00">casacore/lattices/Lattices</text>
<text text-anchor="middle" x="969.5" y="-7.5" font-family="Helvetica,sans-Serif" font-size="10.00">/HDF5Lattice.h</text>
</a>
</g>
</g>
<!-- Node1&#45;&gt;Node8 -->
<g id="edge7" class="edge">
<title>Node1&#45;&gt;Node8</title>
<path fill="none" stroke="midnightblue" d="M627.71,-69.08C688.51,-61.03 791.24,-46.99 889.24,-31.17"/>
<polygon fill="midnightblue" stroke="midnightblue" points="890,-34.59 899.31,-29.53 888.88,-27.68 890,-34.59"/>
</g>
<!-- Node9 -->
<g id="node9" class="node">
<title>Node9</title>
<g id="a_node9"><a xlink:title=" ">
<polygon fill="none" stroke="#bfbfbf" points="1057.5,-6 1057.5,-25 1191.5,-25 1191.5,-6 1057.5,-6"/>
<text text-anchor="middle" x="1124.5" y="-13" font-family="Helvetica,sans-Serif" font-size="10.00">carta&#45;protobuf/defs.pb.h</text>
</a>
</g>
</g>
<!-- Node1&#45;&gt;Node9 -->
<g id="edge8" class="edge">
<title>Node1&#45;&gt;Node9</title>
<path fill="none" stroke="midnightblue" d="M627.65,-72.59C715.52,-66.58 896.49,-52.67 1048.5,-31 1056.63,-29.84 1065.21,-28.41 1073.57,-26.9"/>
<polygon fill="midnightblue" stroke="midnightblue" points="1074.41,-30.3 1083.6,-25.03 1073.13,-23.42 1074.41,-30.3"/>
</g>
</g>
</svg>
