<?xml version="1.0" encoding="UTF-8" standalone="no"?>
<!DOCTYPE svg PUBLIC "-//W3C//DTD SVG 1.1//EN"
 "http://www.w3.org/Graphics/SVG/1.1/DTD/svg11.dtd">
<!-- Generated by graphviz version 2.43.0 (0)
 -->
<!-- Title: Casacore.h Pages: 1 -->
<svg width="1478pt" height="532pt"
 viewBox="0.00 0.00 1478.47 532.00" xmlns="http://www.w3.org/2000/svg" xmlns:xlink="http://www.w3.org/1999/xlink">
<g id="graph0" class="graph" transform="scale(1 1) rotate(0) translate(4 528)">
<title>Casacore.h</title>
<!-- Node1 -->
<g id="node1" class="node">
<title>Node1</title>
<g id="a_node1"><a xlink:title=" ">
<polygon fill="#bfbfbf" stroke="black" points="338.47,-504.5 338.47,-523.5 409.47,-523.5 409.47,-504.5 338.47,-504.5"/>
<text text-anchor="middle" x="373.97" y="-511.5" font-family="Helvetica,sans-Serif" font-size="10.00">Casacore.h</text>
</a>
</g>
</g>
<!-- Node2 -->
<g id="node2" class="node">
<title>Node2</title>
<g id="a_node2"><a xlink:href="FileExtInfoLoader_8cc.html" target="_top" xlink:title=" ">
<polygon fill="none" stroke="black" points="28.97,-336.5 28.97,-355.5 142.97,-355.5 142.97,-336.5 28.97,-336.5"/>
<text text-anchor="middle" x="85.97" y="-343.5" font-family="Helvetica,sans-Serif" font-size="10.00">FileExtInfoLoader.cc</text>
</a>
</g>
</g>
<!-- Node1&#45;&gt;Node2 -->
<g id="edge1" class="edge">
<title>Node1&#45;&gt;Node2</title>
<path fill="none" stroke="midnightblue" d="M350.15,-499.27C292.7,-466.15 147.84,-382.66 100.9,-355.61"/>
<polygon fill="midnightblue" stroke="midnightblue" points="348.48,-502.35 358.9,-504.31 351.98,-496.28 348.48,-502.35"/>
</g>
<!-- Node3 -->
<g id="node3" class="node">
<title>Node3</title>
<g id="a_node3"><a xlink:href="FileInfoLoader_8cc.html" target="_top" xlink:title=" ">
<polygon fill="none" stroke="black" points="28.97,-448.5 28.97,-467.5 126.97,-467.5 126.97,-448.5 28.97,-448.5"/>
<text text-anchor="middle" x="77.97" y="-455.5" font-family="Helvetica,sans-Serif" font-size="10.00">FileInfoLoader.cc</text>
</a>
</g>
</g>
<!-- Node1&#45;&gt;Node3 -->
<g id="edge2" class="edge">
<title>Node1&#45;&gt;Node3</title>
<path fill="none" stroke="midnightblue" d="M328.41,-504.69C273.17,-494.61 180.56,-477.71 124.77,-467.54"/>
<polygon fill="midnightblue" stroke="midnightblue" points="327.8,-508.13 338.27,-506.49 329.06,-501.25 327.8,-508.13"/>
</g>
<!-- Node4 -->
<g id="node4" class="node">
<title>Node4</title>
<g id="a_node4"><a xlink:href="FileListHandler_8cc.html" target="_top" xlink:title=" ">
<polygon fill="none" stroke="black" points="20.97,-112.5 20.97,-131.5 122.97,-131.5 122.97,-112.5 20.97,-112.5"/>
<text text-anchor="middle" x="71.97" y="-119.5" font-family="Helvetica,sans-Serif" font-size="10.00">FileListHandler.cc</text>
</a>
</g>
</g>
<!-- Node1&#45;&gt;Node4 -->
<g id="edge3" class="edge">
<title>Node1&#45;&gt;Node4</title>
<path fill="none" stroke="midnightblue" d="M328.09,-513.21C243.03,-512.66 65.38,-506.75 19.97,-468 -2.92,-448.46 0.97,-433.1 0.97,-403 0.97,-403 0.97,-403 0.97,-233 0.97,-189.13 41.33,-148.89 61.19,-131.74"/>
<polygon fill="midnightblue" stroke="midnightblue" points="328.22,-516.71 338.23,-513.26 328.25,-509.71 328.22,-516.71"/>
</g>
<!-- Node5 -->
<g id="node5" class="node">
<title>Node5</title>
<g id="a_node5"><a xlink:href="FileLoader_8h.html" target="_top" xlink:title=" ">
<polygon fill="none" stroke="black" points="555.47,-448.5 555.47,-467.5 630.47,-467.5 630.47,-448.5 555.47,-448.5"/>
<text text-anchor="middle" x="592.97" y="-455.5" font-family="Helvetica,sans-Serif" font-size="10.00">FileLoader.h</text>
</a>
</g>
</g>
<!-- Node1&#45;&gt;Node5 -->
<g id="edge4" class="edge">
<title>Node1&#45;&gt;Node5</title>
<path fill="none" stroke="midnightblue" d="M418.49,-502.02C459.86,-491.82 520.62,-476.84 558.43,-467.52"/>
<polygon fill="midnightblue" stroke="midnightblue" points="417.55,-498.65 408.67,-504.44 419.22,-505.45 417.55,-498.65"/>
</g>
<!-- Node50 -->
<g id="node47" class="node">
<title>Node50</title>
<g id="a_node47"><a xlink:href="StokesFilesConnector_8cc.html" target="_top" xlink:title=" ">
<polygon fill="none" stroke="black" points="1196.97,-336.5 1196.97,-355.5 1330.97,-355.5 1330.97,-336.5 1196.97,-336.5"/>
<text text-anchor="middle" x="1263.97" y="-343.5" font-family="Helvetica,sans-Serif" font-size="10.00">StokesFilesConnector.cc</text>
</a>
</g>
</g>
<!-- Node1&#45;&gt;Node50 -->
<g id="edge76" class="edge">
<title>Node1&#45;&gt;Node50</title>
<path fill="none" stroke="midnightblue" d="M419.56,-511.83C573.24,-507.2 1070.45,-486.68 1208.97,-412 1233.44,-398.81 1251.63,-369.94 1259.57,-355.53"/>
<polygon fill="midnightblue" stroke="midnightblue" points="419.41,-508.33 409.52,-512.12 419.61,-515.33 419.41,-508.33"/>
</g>
<!-- Node53 -->
<g id="node50" class="node">
<title>Node53</title>
<g id="a_node50"><a xlink:href="Casacore_8cc.html" target="_top" xlink:title=" ">
<polygon fill="none" stroke="black" points="1257.47,-448.5 1257.47,-467.5 1332.47,-467.5 1332.47,-448.5 1257.47,-448.5"/>
<text text-anchor="middle" x="1294.97" y="-455.5" font-family="Helvetica,sans-Serif" font-size="10.00">Casacore.cc</text>
</a>
</g>
</g>
<!-- Node1&#45;&gt;Node53 -->
<g id="edge77" class="edge">
<title>Node1&#45;&gt;Node53</title>
<path fill="none" stroke="midnightblue" d="M420.04,-512.55C549.88,-510.87 929.75,-503.09 1242.97,-468 1247.62,-467.48 1252.47,-466.81 1257.28,-466.07"/>
<polygon fill="midnightblue" stroke="midnightblue" points="419.65,-509.06 409.69,-512.68 419.73,-516.06 419.65,-509.06"/>
</g>
<!-- Node6 -->
<g id="node6" class="node">
<title>Node6</title>
<g id="a_node6"><a xlink:href="TileCache_8h.html" target="_top" xlink:title=" ">
<polygon fill="none" stroke="black" points="946.97,-392.5 946.97,-411.5 1020.97,-411.5 1020.97,-392.5 946.97,-392.5"/>
<text text-anchor="middle" x="983.97" y="-399.5" font-family="Helvetica,sans-Serif" font-size="10.00">TileCache.h</text>
</a>
</g>
</g>
<!-- Node5&#45;&gt;Node6 -->
<g id="edge5" class="edge">
<title>Node5&#45;&gt;Node6</title>
<path fill="none" stroke="midnightblue" d="M640.6,-451.35C706.44,-443.4 828.94,-428.06 932.97,-412 937.51,-411.3 942.26,-410.52 946.96,-409.73"/>
<polygon fill="midnightblue" stroke="midnightblue" points="640.04,-447.9 630.53,-452.57 640.88,-454.85 640.04,-447.9"/>
</g>
<!-- Node8 -->
<g id="node8" class="node">
<title>Node8</title>
<g id="a_node8"><a xlink:href="Frame_8h.html" target="_top" xlink:title=" ">
<polygon fill="none" stroke="black" points="950.97,-336.5 950.97,-355.5 1006.97,-355.5 1006.97,-336.5 950.97,-336.5"/>
<text text-anchor="middle" x="978.97" y="-343.5" font-family="Helvetica,sans-Serif" font-size="10.00">Frame.h</text>
</a>
</g>
</g>
<!-- Node5&#45;&gt;Node8 -->
<g id="edge53" class="edge">
<title>Node5&#45;&gt;Node8</title>
<path fill="none" stroke="midnightblue" d="M640.98,-457.79C703.33,-457.1 814.31,-449.95 899.97,-412 930.18,-398.62 958.2,-370.37 971.26,-355.92"/>
<polygon fill="midnightblue" stroke="midnightblue" points="640.64,-454.29 630.66,-457.85 640.68,-461.29 640.64,-454.29"/>
</g>
<!-- Node13 -->
<g id="node13" class="node">
<title>Node13</title>
<g id="a_node13"><a xlink:href="Hdf5Loader_8h.html" target="_top" xlink:title=" ">
<polygon fill="none" stroke="black" points="718.47,-280.5 718.47,-299.5 799.47,-299.5 799.47,-280.5 718.47,-280.5"/>
<text text-anchor="middle" x="758.97" y="-287.5" font-family="Helvetica,sans-Serif" font-size="10.00">Hdf5Loader.h</text>
</a>
</g>
</g>
<!-- Node5&#45;&gt;Node13 -->
<g id="edge65" class="edge">
<title>Node5&#45;&gt;Node13</title>
<path fill="none" stroke="midnightblue" d="M640.89,-450.28C684.02,-443.15 742.73,-430.36 756.97,-412 783.24,-378.13 768.92,-321.41 762.01,-299.76"/>
<polygon fill="midnightblue" stroke="midnightblue" points="640.18,-446.85 630.86,-451.89 641.28,-453.77 640.18,-446.85"/>
</g>
<!-- Node14 -->
<g id="node14" class="node">
<title>Node14</title>
<g id="a_node14"><a xlink:href="FileLoader_8cc.html" target="_top" xlink:title=" ">
<polygon fill="none" stroke="black" points="343.97,-224.5 343.97,-243.5 423.97,-243.5 423.97,-224.5 343.97,-224.5"/>
<text text-anchor="middle" x="383.97" y="-231.5" font-family="Helvetica,sans-Serif" font-size="10.00">FileLoader.cc</text>
</a>
</g>
</g>
<!-- Node5&#45;&gt;Node14 -->
<g id="edge62" class="edge">
<title>Node5&#45;&gt;Node14</title>
<path fill="none" stroke="midnightblue" d="M545.17,-454.18C455.46,-448.39 269.14,-433.85 249.97,-412 232.7,-392.31 251.2,-349.31 316.97,-280 331.63,-264.55 352.51,-251.58 367.04,-243.6"/>
<polygon fill="midnightblue" stroke="midnightblue" points="545.15,-457.68 555.35,-454.82 545.6,-450.7 545.15,-457.68"/>
</g>
<!-- Node41 -->
<g id="node38" class="node">
<title>Node41</title>
<g id="a_node38"><a xlink:href="FileExtInfoLoader_8h.html" target="_top" xlink:title=" ">
<polygon fill="none" stroke="black" points="454.97,-392.5 454.97,-411.5 564.97,-411.5 564.97,-392.5 454.97,-392.5"/>
<text text-anchor="middle" x="509.97" y="-399.5" font-family="Helvetica,sans-Serif" font-size="10.00">FileExtInfoLoader.h</text>
</a>
</g>
</g>
<!-- Node5&#45;&gt;Node41 -->
<g id="edge50" class="edge">
<title>Node5&#45;&gt;Node41</title>
<path fill="none" stroke="midnightblue" d="M570.87,-442.62C555.71,-432.76 536.09,-419.99 523.28,-411.65"/>
<polygon fill="midnightblue" stroke="midnightblue" points="569.35,-445.8 579.64,-448.32 573.16,-439.94 569.35,-445.8"/>
</g>
<!-- Node42 -->
<g id="node39" class="node">
<title>Node42</title>
<g id="a_node39"><a xlink:href="CasaLoader_8h.html" target="_top" xlink:title=" ">
<polygon fill="none" stroke="black" points="485.97,-280.5 485.97,-299.5 567.97,-299.5 567.97,-280.5 485.97,-280.5"/>
<text text-anchor="middle" x="526.97" y="-287.5" font-family="Helvetica,sans-Serif" font-size="10.00">CasaLoader.h</text>
</a>
</g>
</g>
<!-- Node5&#45;&gt;Node42 -->
<g id="edge54" class="edge">
<title>Node5&#45;&gt;Node42</title>
<path fill="none" stroke="midnightblue" d="M588.42,-438.72C584.96,-425.56 579.8,-407.47 573.97,-392 560.76,-356.88 540.58,-316.99 531.58,-299.72"/>
<polygon fill="midnightblue" stroke="midnightblue" points="585.04,-439.63 590.92,-448.45 591.82,-437.9 585.04,-439.63"/>
</g>
<!-- Node43 -->
<g id="node40" class="node">
<title>Node43</title>
<g id="a_node40"><a xlink:href="CompListLoader_8h.html" target="_top" xlink:title=" ">
<polygon fill="none" stroke="black" points="416.97,-336.5 416.97,-355.5 520.97,-355.5 520.97,-336.5 416.97,-336.5"/>
<text text-anchor="middle" x="468.97" y="-343.5" font-family="Helvetica,sans-Serif" font-size="10.00">CompListLoader.h</text>
</a>
</g>
</g>
<!-- Node5&#45;&gt;Node43 -->
<g id="edge56" class="edge">
<title>Node5&#45;&gt;Node43</title>
<path fill="none" stroke="midnightblue" d="M545.09,-456.32C511.44,-453.02 468.56,-442.53 445.97,-412 433.02,-394.48 450.11,-369.02 461.07,-355.76"/>
<polygon fill="midnightblue" stroke="midnightblue" points="544.96,-459.82 555.2,-457.13 545.51,-452.85 544.96,-459.82"/>
</g>
<!-- Node44 -->
<g id="node41" class="node">
<title>Node44</title>
<g id="a_node41"><a xlink:href="ConcatLoader_8h.html" target="_top" xlink:title=" ">
<polygon fill="none" stroke="black" points="337.97,-280.5 337.97,-299.5 429.97,-299.5 429.97,-280.5 337.97,-280.5"/>
<text text-anchor="middle" x="383.97" y="-287.5" font-family="Helvetica,sans-Serif" font-size="10.00">ConcatLoader.h</text>
</a>
</g>
</g>
<!-- Node5&#45;&gt;Node44 -->
<g id="edge58" class="edge">
<title>Node5&#45;&gt;Node44</title>
<path fill="none" stroke="midnightblue" d="M545.45,-452.91C512.25,-447.91 468.56,-436.77 437.97,-412 401.15,-382.17 388.62,-322 385.13,-299.63"/>
<polygon fill="midnightblue" stroke="midnightblue" points="545.01,-456.39 555.39,-454.28 545.96,-449.45 545.01,-456.39"/>
</g>
<!-- Node45 -->
<g id="node42" class="node">
<title>Node45</title>
<g id="a_node42"><a xlink:href="ExprLoader_8h.html" target="_top" xlink:title=" ">
<polygon fill="none" stroke="black" points="160.97,-336.5 160.97,-355.5 240.97,-355.5 240.97,-336.5 160.97,-336.5"/>
<text text-anchor="middle" x="200.97" y="-343.5" font-family="Helvetica,sans-Serif" font-size="10.00">ExprLoader.h</text>
</a>
</g>
</g>
<!-- Node5&#45;&gt;Node45 -->
<g id="edge60" class="edge">
<title>Node5&#45;&gt;Node45</title>
<path fill="none" stroke="midnightblue" d="M544.98,-457.8C454.75,-458.28 264.58,-454.11 216.97,-412 200.78,-397.68 199.67,-369.85 200.28,-355.71"/>
<polygon fill="midnightblue" stroke="midnightblue" points="545.24,-461.3 555.22,-457.72 545.19,-454.3 545.24,-461.3"/>
</g>
<!-- Node46 -->
<g id="node43" class="node">
<title>Node46</title>
<g id="a_node43"><a xlink:href="FitsLoader_8h.html" target="_top" xlink:title=" ">
<polygon fill="none" stroke="black" points="586.47,-280.5 586.47,-299.5 661.47,-299.5 661.47,-280.5 586.47,-280.5"/>
<text text-anchor="middle" x="623.97" y="-287.5" font-family="Helvetica,sans-Serif" font-size="10.00">FitsLoader.h</text>
</a>
</g>
</g>
<!-- Node5&#45;&gt;Node46 -->
<g id="edge63" class="edge">
<title>Node5&#45;&gt;Node46</title>
<path fill="none" stroke="midnightblue" d="M599.33,-438.93C602,-430.78 604.96,-420.99 606.97,-412 616.3,-370.39 621.46,-319.53 623.25,-299.59"/>
<polygon fill="midnightblue" stroke="midnightblue" points="595.99,-437.89 596.08,-448.49 602.61,-440.15 595.99,-437.89"/>
</g>
<!-- Node47 -->
<g id="node44" class="node">
<title>Node47</title>
<g id="a_node44"><a xlink:href="ImagePtrLoader_8h.html" target="_top" xlink:title=" ">
<polygon fill="none" stroke="black" points="258.97,-392.5 258.97,-411.5 360.97,-411.5 360.97,-392.5 258.97,-392.5"/>
<text text-anchor="middle" x="309.97" y="-399.5" font-family="Helvetica,sans-Serif" font-size="10.00">ImagePtrLoader.h</text>
</a>
</g>
</g>
<!-- Node5&#45;&gt;Node47 -->
<g id="edge66" class="edge">
<title>Node5&#45;&gt;Node47</title>
<path fill="none" stroke="midnightblue" d="M545.53,-447.95C492.35,-437.8 406.77,-421.47 354.71,-411.54"/>
<polygon fill="midnightblue" stroke="midnightblue" points="544.91,-451.39 555.39,-449.83 546.23,-444.52 544.91,-451.39"/>
</g>
<!-- Node48 -->
<g id="node45" class="node">
<title>Node48</title>
<g id="a_node45"><a xlink:href="MiriadLoader_8h.html" target="_top" xlink:title=" ">
<polygon fill="none" stroke="black" points="659.47,-392.5 659.47,-411.5 748.47,-411.5 748.47,-392.5 659.47,-392.5"/>
<text text-anchor="middle" x="703.97" y="-399.5" font-family="Helvetica,sans-Serif" font-size="10.00">MiriadLoader.h</text>
</a>
</g>
</g>
<!-- Node5&#45;&gt;Node48 -->
<g id="edge68" class="edge">
<title>Node5&#45;&gt;Node48</title>
<path fill="none" stroke="midnightblue" d="M619.98,-443.86C640.56,-433.85 668.32,-420.35 686.18,-411.65"/>
<polygon fill="midnightblue" stroke="midnightblue" points="618.27,-440.8 610.81,-448.32 621.33,-447.1 618.27,-440.8"/>
</g>
<!-- Node49 -->
<g id="node46" class="node">
<title>Node49</title>
<g id="a_node46"><a xlink:href="StokesFilesConnector_8h.html" target="_top" xlink:title=" ">
<polygon fill="none" stroke="black" points="1071.47,-392.5 1071.47,-411.5 1200.47,-411.5 1200.47,-392.5 1071.47,-392.5"/>
<text text-anchor="middle" x="1135.97" y="-399.5" font-family="Helvetica,sans-Serif" font-size="10.00">StokesFilesConnector.h</text>
</a>
</g>
</g>
<!-- Node5&#45;&gt;Node49 -->
<g id="edge70" class="edge">
<title>Node5&#45;&gt;Node49</title>
<path fill="none" stroke="midnightblue" d="M640.9,-452.23C738.58,-442.52 960.8,-420.42 1071.22,-409.44"/>
<polygon fill="midnightblue" stroke="midnightblue" points="640.33,-448.77 630.73,-453.25 641.02,-455.74 640.33,-448.77"/>
</g>
<!-- Node51 -->
<g id="node48" class="node">
<title>Node51</title>
<g id="a_node48"><a xlink:href="PvGenerator_8h.html" target="_top" xlink:title=" ">
<polygon fill="none" stroke="black" points="804.97,-392.5 804.97,-411.5 890.97,-411.5 890.97,-392.5 804.97,-392.5"/>
<text text-anchor="middle" x="847.97" y="-399.5" font-family="Helvetica,sans-Serif" font-size="10.00">PvGenerator.h</text>
</a>
</g>
</g>
<!-- Node5&#45;&gt;Node51 -->
<g id="edge73" class="edge">
<title>Node5&#45;&gt;Node51</title>
<path fill="none" stroke="midnightblue" d="M640.47,-446.94C688.6,-436.75 762.28,-421.15 807.66,-411.54"/>
<polygon fill="midnightblue" stroke="midnightblue" points="639.66,-443.54 630.6,-449.03 641.11,-450.38 639.66,-443.54"/>
</g>
<!-- Node7 -->
<g id="node7" class="node">
<title>Node7</title>
<g id="a_node7"><a xlink:href="TileCache_8cc.html" target="_top" xlink:title=" ">
<polygon fill="none" stroke="black" points="1062.97,-336.5 1062.97,-355.5 1140.97,-355.5 1140.97,-336.5 1062.97,-336.5"/>
<text text-anchor="middle" x="1101.97" y="-343.5" font-family="Helvetica,sans-Serif" font-size="10.00">TileCache.cc</text>
</a>
</g>
</g>
<!-- Node6&#45;&gt;Node7 -->
<g id="edge6" class="edge">
<title>Node6&#45;&gt;Node7</title>
<path fill="none" stroke="midnightblue" d="M1011.87,-388.23C1033.95,-378.13 1064.15,-364.31 1083.36,-355.52"/>
<polygon fill="midnightblue" stroke="midnightblue" points="1010.31,-385.1 1002.67,-392.44 1013.22,-391.46 1010.31,-385.1"/>
</g>
<!-- Node6&#45;&gt;Node8 -->
<g id="edge7" class="edge">
<title>Node6&#45;&gt;Node8</title>
<path fill="none" stroke="midnightblue" d="M982.22,-382.1C981.39,-373.14 980.44,-362.86 979.78,-355.75"/>
<polygon fill="midnightblue" stroke="midnightblue" points="978.74,-382.45 983.15,-392.08 985.71,-381.8 978.74,-382.45"/>
</g>
<!-- Node9 -->
<g id="node9" class="node">
<title>Node9</title>
<g id="a_node9"><a xlink:href="Frame_8cc.html" target="_top" xlink:title=" ">
<polygon fill="none" stroke="black" points="971.47,-280.5 971.47,-299.5 1032.47,-299.5 1032.47,-280.5 971.47,-280.5"/>
<text text-anchor="middle" x="1001.97" y="-287.5" font-family="Helvetica,sans-Serif" font-size="10.00">Frame.cc</text>
</a>
</g>
</g>
<!-- Node8&#45;&gt;Node9 -->
<g id="edge8" class="edge">
<title>Node8&#45;&gt;Node9</title>
<path fill="none" stroke="midnightblue" d="M986.77,-326.69C990.65,-317.59 995.15,-307.01 998.25,-299.75"/>
<polygon fill="midnightblue" stroke="midnightblue" points="983.47,-325.51 982.77,-336.08 989.91,-328.25 983.47,-325.51"/>
</g>
<!-- Node10 -->
<g id="node10" class="node">
<title>Node10</title>
<g id="a_node10"><a xlink:href="VectorFieldCalculator_8h.html" target="_top" xlink:title=" ">
<polygon fill="none" stroke="black" points="1244.97,-280.5 1244.97,-299.5 1372.97,-299.5 1372.97,-280.5 1244.97,-280.5"/>
<text text-anchor="middle" x="1308.97" y="-287.5" font-family="Helvetica,sans-Serif" font-size="10.00">VectorFieldCalculator.h</text>
</a>
</g>
</g>
<!-- Node8&#45;&gt;Node10 -->
<g id="edge9" class="edge">
<title>Node8&#45;&gt;Node10</title>
<path fill="none" stroke="midnightblue" d="M1017.15,-338.75C1076.29,-329.08 1190.17,-310.44 1256.84,-299.53"/>
<polygon fill="midnightblue" stroke="midnightblue" points="1016.41,-335.33 1007.11,-340.4 1017.54,-342.24 1016.41,-335.33"/>
</g>
<!-- Node8&#45;&gt;Node13 -->
<g id="edge12" class="edge">
<title>Node8&#45;&gt;Node13</title>
<path fill="none" stroke="midnightblue" d="M940.94,-335.66C899.5,-325.49 833.78,-309.36 793.69,-299.52"/>
<polygon fill="midnightblue" stroke="midnightblue" points="940.12,-339.07 950.66,-338.05 941.79,-332.27 940.12,-339.07"/>
</g>
<!-- Node16 -->
<g id="node16" class="node">
<title>Node16</title>
<g id="a_node16"><a xlink:href="RegionHandler_8h.html" target="_top" xlink:title=" ">
<polygon fill="none" stroke="black" points="817.47,-280.5 817.47,-299.5 914.47,-299.5 914.47,-280.5 817.47,-280.5"/>
<text text-anchor="middle" x="865.97" y="-287.5" font-family="Helvetica,sans-Serif" font-size="10.00">RegionHandler.h</text>
</a>
</g>
</g>
<!-- Node8&#45;&gt;Node16 -->
<g id="edge15" class="edge">
<title>Node8&#45;&gt;Node16</title>
<path fill="none" stroke="midnightblue" d="M951.97,-332.1C930.86,-322.01 902.11,-308.27 883.8,-299.52"/>
<polygon fill="midnightblue" stroke="midnightblue" points="950.54,-335.29 961.07,-336.44 953.55,-328.97 950.54,-335.29"/>
</g>
<!-- Node24 -->
<g id="node24" class="node">
<title>Node24</title>
<g id="a_node24"><a xlink:href="Session_8h.html" target="_top" xlink:title=" ">
<polygon fill="none" stroke="black" points="911.47,-224.5 911.47,-243.5 974.47,-243.5 974.47,-224.5 911.47,-224.5"/>
<text text-anchor="middle" x="942.97" y="-231.5" font-family="Helvetica,sans-Serif" font-size="10.00">Session.h</text>
</a>
</g>
</g>
<!-- Node8&#45;&gt;Node24 -->
<g id="edge49" class="edge">
<title>Node8&#45;&gt;Node24</title>
<path fill="none" stroke="midnightblue" d="M971.76,-326.86C968.61,-318.7 964.96,-308.92 961.97,-300 955.34,-280.15 948.74,-256.48 945.34,-243.9"/>
<polygon fill="midnightblue" stroke="midnightblue" points="968.61,-328.41 975.52,-336.44 975.12,-325.86 968.61,-328.41"/>
</g>
<!-- Node11 -->
<g id="node11" class="node">
<title>Node11</title>
<g id="a_node11"><a xlink:href="VectorFieldCalculator_8cc.html" target="_top" xlink:title=" ">
<polygon fill="none" stroke="black" points="1337.47,-224.5 1337.47,-243.5 1470.47,-243.5 1470.47,-224.5 1337.47,-224.5"/>
<text text-anchor="middle" x="1403.97" y="-231.5" font-family="Helvetica,sans-Serif" font-size="10.00">VectorFieldCalculator.cc</text>
</a>
</g>
</g>
<!-- Node10&#45;&gt;Node11 -->
<g id="edge10" class="edge">
<title>Node10&#45;&gt;Node11</title>
<path fill="none" stroke="midnightblue" d="M1333.29,-275.18C1350.77,-265.24 1373.8,-252.15 1388.75,-243.65"/>
<polygon fill="midnightblue" stroke="midnightblue" points="1331.2,-272.34 1324.24,-280.32 1334.66,-278.43 1331.2,-272.34"/>
</g>
<!-- Node12 -->
<g id="node12" class="node">
<title>Node12</title>
<g id="a_node12"><a xlink:href="Session_8cc.html" target="_top" xlink:title=" ">
<polygon fill="none" stroke="black" points="1299.97,-0.5 1299.97,-19.5 1367.97,-19.5 1367.97,-0.5 1299.97,-0.5"/>
<text text-anchor="middle" x="1333.97" y="-7.5" font-family="Helvetica,sans-Serif" font-size="10.00">Session.cc</text>
</a>
</g>
</g>
<!-- Node10&#45;&gt;Node12 -->
<g id="edge11" class="edge">
<title>Node10&#45;&gt;Node12</title>
<path fill="none" stroke="midnightblue" d="M1308.97,-270.25C1308.97,-248.36 1308.97,-211.05 1308.97,-179 1308.97,-179 1308.97,-179 1308.97,-121 1308.97,-82.42 1323.78,-38.08 1330.6,-19.69"/>
<polygon fill="midnightblue" stroke="midnightblue" points="1305.47,-270.44 1308.97,-280.44 1312.47,-270.44 1305.47,-270.44"/>
</g>
<!-- Node13&#45;&gt;Node14 -->
<g id="edge13" class="edge">
<title>Node13&#45;&gt;Node14</title>
<path fill="none" stroke="midnightblue" d="M708.43,-280.67C706.93,-280.44 705.44,-280.22 703.97,-280 583.78,-262.19 552.98,-262.98 432.97,-244 430.07,-243.54 427.07,-243.04 424.06,-242.53"/>
<polygon fill="midnightblue" stroke="midnightblue" points="708.03,-284.15 718.45,-282.23 709.1,-277.23 708.03,-284.15"/>
</g>
<!-- Node15 -->
<g id="node15" class="node">
<title>Node15</title>
<g id="a_node15"><a xlink:href="Hdf5Loader_8cc.html" target="_top" xlink:title=" ">
<polygon fill="none" stroke="black" points="441.97,-224.5 441.97,-243.5 527.97,-243.5 527.97,-224.5 441.97,-224.5"/>
<text text-anchor="middle" x="484.97" y="-231.5" font-family="Helvetica,sans-Serif" font-size="10.00">Hdf5Loader.cc</text>
</a>
</g>
</g>
<!-- Node13&#45;&gt;Node15 -->
<g id="edge14" class="edge">
<title>Node13&#45;&gt;Node15</title>
<path fill="none" stroke="midnightblue" d="M708.29,-279.01C656.53,-268.81 577.05,-253.15 528.19,-243.52"/>
<polygon fill="midnightblue" stroke="midnightblue" points="707.76,-282.47 718.25,-280.97 709.11,-275.61 707.76,-282.47"/>
</g>
<!-- Node17 -->
<g id="node17" class="node">
<title>Node17</title>
<g id="a_node17"><a xlink:href="RegionHandler_8cc.html" target="_top" xlink:title=" ">
<polygon fill="none" stroke="black" points="343.47,-112.5 343.47,-131.5 444.47,-131.5 444.47,-112.5 343.47,-112.5"/>
<text text-anchor="middle" x="393.97" y="-119.5" font-family="Helvetica,sans-Serif" font-size="10.00">RegionHandler.cc</text>
</a>
</g>
</g>
<!-- Node16&#45;&gt;Node17 -->
<g id="edge16" class="edge">
<title>Node16&#45;&gt;Node17</title>
<path fill="none" stroke="midnightblue" d="M807.46,-279.92C723.21,-266.84 577.66,-244.22 576.97,-244 558.04,-237.95 555.06,-232.25 536.97,-224 498.9,-206.63 483.89,-212.52 449.97,-188 427.76,-171.94 408.55,-145.39 399.5,-131.72"/>
<polygon fill="midnightblue" stroke="midnightblue" points="807,-283.39 817.42,-281.46 808.08,-276.47 807,-283.39"/>
</g>
<!-- Node18 -->
<g id="node18" class="node">
<title>Node18</title>
<g id="a_node18"><a xlink:href="RegionImportExport_8h.html" target="_top" xlink:title=" ">
<polygon fill="none" stroke="black" points="586.47,-224.5 586.47,-243.5 709.47,-243.5 709.47,-224.5 586.47,-224.5"/>
<text text-anchor="middle" x="647.97" y="-231.5" font-family="Helvetica,sans-Serif" font-size="10.00">RegionImportExport.h</text>
</a>
</g>
</g>
<!-- Node16&#45;&gt;Node18 -->
<g id="edge17" class="edge">
<title>Node16&#45;&gt;Node18</title>
<path fill="none" stroke="midnightblue" d="M821.66,-278.02C780.48,-267.82 720,-252.84 682.35,-243.52"/>
<polygon fill="midnightblue" stroke="midnightblue" points="820.88,-281.44 831.43,-280.44 822.57,-274.64 820.88,-281.44"/>
</g>
<!-- Node16&#45;&gt;Node24 -->
<g id="edge26" class="edge">
<title>Node16&#45;&gt;Node24</title>
<path fill="none" stroke="midnightblue" d="M886.87,-274.34C900.88,-264.52 918.86,-251.91 930.63,-243.65"/>
<polygon fill="midnightblue" stroke="midnightblue" points="884.52,-271.72 878.35,-280.32 888.54,-277.45 884.52,-271.72"/>
</g>
<!-- Node19 -->
<g id="node19" class="node">
<title>Node19</title>
<g id="a_node19"><a xlink:href="CrtfImportExport_8h.html" target="_top" xlink:title=" ">
<polygon fill="none" stroke="black" points="459.47,-168.5 459.47,-187.5 566.47,-187.5 566.47,-168.5 459.47,-168.5"/>
<text text-anchor="middle" x="512.97" y="-175.5" font-family="Helvetica,sans-Serif" font-size="10.00">CrtfImportExport.h</text>
</a>
</g>
</g>
<!-- Node18&#45;&gt;Node19 -->
<g id="edge18" class="edge">
<title>Node18&#45;&gt;Node19</title>
<path fill="none" stroke="midnightblue" d="M617.07,-220.64C591.73,-210.5 556.54,-196.43 534.26,-187.52"/>
<polygon fill="midnightblue" stroke="midnightblue" points="616,-223.98 626.58,-224.44 618.6,-217.48 616,-223.98"/>
</g>
<!-- Node21 -->
<g id="node21" class="node">
<title>Node21</title>
<g id="a_node21"><a xlink:href="Ds9ImportExport_8h.html" target="_top" xlink:title=" ">
<polygon fill="none" stroke="black" points="254.97,-168.5 254.97,-187.5 362.97,-187.5 362.97,-168.5 254.97,-168.5"/>
<text text-anchor="middle" x="308.97" y="-175.5" font-family="Helvetica,sans-Serif" font-size="10.00">Ds9ImportExport.h</text>
</a>
</g>
</g>
<!-- Node18&#45;&gt;Node21 -->
<g id="edge21" class="edge">
<title>Node18&#45;&gt;Node21</title>
<path fill="none" stroke="midnightblue" d="M584.28,-222.85C520.23,-212.65 422.59,-197.1 362.44,-187.52"/>
<polygon fill="midnightblue" stroke="midnightblue" points="583.83,-226.33 594.26,-224.44 584.93,-219.41 583.83,-226.33"/>
</g>
<!-- Node23 -->
<g id="node23" class="node">
<title>Node23</title>
<g id="a_node23"><a xlink:href="RegionImportExport_8cc.html" target="_top" xlink:title=" ">
<polygon fill="none" stroke="black" points="584.97,-168.5 584.97,-187.5 712.97,-187.5 712.97,-168.5 584.97,-168.5"/>
<text text-anchor="middle" x="648.97" y="-175.5" font-family="Helvetica,sans-Serif" font-size="10.00">RegionImportExport.cc</text>
</a>
</g>
</g>
<!-- Node18&#45;&gt;Node23 -->
<g id="edge25" class="edge">
<title>Node18&#45;&gt;Node23</title>
<path fill="none" stroke="midnightblue" d="M648.33,-213.8C648.49,-204.91 648.68,-194.78 648.81,-187.75"/>
<polygon fill="midnightblue" stroke="midnightblue" points="644.82,-214.02 648.14,-224.08 651.82,-214.15 644.82,-214.02"/>
</g>
<!-- Node19&#45;&gt;Node17 -->
<g id="edge20" class="edge">
<title>Node19&#45;&gt;Node17</title>
<path fill="none" stroke="midnightblue" d="M484.84,-164.23C462.58,-154.13 432.12,-140.31 412.74,-131.52"/>
<polygon fill="midnightblue" stroke="midnightblue" points="483.57,-167.5 494.12,-168.44 486.46,-161.12 483.57,-167.5"/>
</g>
<!-- Node20 -->
<g id="node20" class="node">
<title>Node20</title>
<g id="a_node20"><a xlink:href="CrtfImportExport_8cc.html" target="_top" xlink:title=" ">
<polygon fill="none" stroke="black" points="462.97,-112.5 462.97,-131.5 574.97,-131.5 574.97,-112.5 462.97,-112.5"/>
<text text-anchor="middle" x="518.97" y="-119.5" font-family="Helvetica,sans-Serif" font-size="10.00">CrtfImportExport.cc</text>
</a>
</g>
</g>
<!-- Node19&#45;&gt;Node20 -->
<g id="edge19" class="edge">
<title>Node19&#45;&gt;Node20</title>
<path fill="none" stroke="midnightblue" d="M515.07,-158.1C516.07,-149.14 517.21,-138.86 518,-131.75"/>
<polygon fill="midnightblue" stroke="midnightblue" points="511.59,-157.76 513.96,-168.08 518.55,-158.53 511.59,-157.76"/>
</g>
<!-- Node21&#45;&gt;Node4 -->
<g id="edge22" class="edge">
<title>Node21&#45;&gt;Node4</title>
<path fill="none" stroke="midnightblue" d="M261.65,-166.22C216.87,-156.01 150.54,-140.9 109.35,-131.52"/>
<polygon fill="midnightblue" stroke="midnightblue" points="260.89,-169.63 271.42,-168.44 262.45,-162.81 260.89,-169.63"/>
</g>
<!-- Node21&#45;&gt;Node17 -->
<g id="edge24" class="edge">
<title>Node21&#45;&gt;Node17</title>
<path fill="none" stroke="midnightblue" d="M331.17,-162.9C346.75,-153 367.1,-140.07 380.35,-131.65"/>
<polygon fill="midnightblue" stroke="midnightblue" points="329.19,-160.01 322.63,-168.32 332.95,-165.92 329.19,-160.01"/>
</g>
<!-- Node22 -->
<g id="node22" class="node">
<title>Node22</title>
<g id="a_node22"><a xlink:href="Ds9ImportExport_8cc.html" target="_top" xlink:title=" ">
<polygon fill="none" stroke="black" points="212.47,-112.5 212.47,-131.5 325.47,-131.5 325.47,-112.5 212.47,-112.5"/>
<text text-anchor="middle" x="268.97" y="-119.5" font-family="Helvetica,sans-Serif" font-size="10.00">Ds9ImportExport.cc</text>
</a>
</g>
</g>
<!-- Node21&#45;&gt;Node22 -->
<g id="edge23" class="edge">
<title>Node21&#45;&gt;Node22</title>
<path fill="none" stroke="midnightblue" d="M296.27,-159.86C289.35,-150.5 281.07,-139.33 275.46,-131.75"/>
<polygon fill="midnightblue" stroke="midnightblue" points="293.6,-162.13 302.37,-168.08 299.23,-157.96 293.6,-162.13"/>
</g>
<!-- Node24&#45;&gt;Node12 -->
<g id="edge42" class="edge">
<title>Node24&#45;&gt;Node12</title>
<path fill="none" stroke="midnightblue" d="M968.19,-219.03C980.19,-211.27 993.87,-200.63 1002.97,-188 1039.13,-137.83 999.59,-95.73 1046.97,-56 1088.97,-20.78 1237.02,-29.62 1290.97,-20 1293.83,-19.49 1296.78,-18.94 1299.74,-18.36"/>
<polygon fill="midnightblue" stroke="midnightblue" points="966.14,-216.18 959.44,-224.39 969.8,-222.15 966.14,-216.18"/>
</g>
<!-- Node25 -->
<g id="node25" class="node">
<title>Node25</title>
<g id="a_node25"><a xlink:href="CursorSettings_8cc.html" target="_top" xlink:title=" ">
<polygon fill="none" stroke="black" points="893.47,-168.5 893.47,-187.5 994.47,-187.5 994.47,-168.5 893.47,-168.5"/>
<text text-anchor="middle" x="943.97" y="-175.5" font-family="Helvetica,sans-Serif" font-size="10.00">CursorSettings.cc</text>
</a>
</g>
</g>
<!-- Node24&#45;&gt;Node25 -->
<g id="edge27" class="edge">
<title>Node24&#45;&gt;Node25</title>
<path fill="none" stroke="midnightblue" d="M943.33,-213.8C943.49,-204.91 943.68,-194.78 943.81,-187.75"/>
<polygon fill="midnightblue" stroke="midnightblue" points="939.82,-214.02 943.14,-224.08 946.82,-214.15 939.82,-214.02"/>
</g>
<!-- Node26 -->
<g id="node26" class="node">
<title>Node26</title>
<g id="a_node26"><a xlink:href="OnMessageTask_8h.html" target="_top" xlink:title=" ">
<polygon fill="none" stroke="black" points="788.97,-112.5 788.97,-131.5 892.97,-131.5 892.97,-112.5 788.97,-112.5"/>
<text text-anchor="middle" x="840.97" y="-119.5" font-family="Helvetica,sans-Serif" font-size="10.00">OnMessageTask.h</text>
</a>
</g>
</g>
<!-- Node24&#45;&gt;Node26 -->
<g id="edge28" class="edge">
<title>Node24&#45;&gt;Node26</title>
<path fill="none" stroke="midnightblue" d="M920.88,-218.81C909.14,-210.65 894.91,-199.7 883.97,-188 867.16,-170.01 852.52,-144.75 845.46,-131.64"/>
<polygon fill="midnightblue" stroke="midnightblue" points="919.04,-221.79 929.28,-224.48 922.95,-215.99 919.04,-221.79"/>
</g>
<!-- Node38 -->
<g id="node36" class="node">
<title>Node38</title>
<g id="a_node36"><a xlink:href="SessionManager_8h.html" target="_top" xlink:title=" ">
<polygon fill="none" stroke="black" points="731.47,-168.5 731.47,-187.5 836.47,-187.5 836.47,-168.5 731.47,-168.5"/>
<text text-anchor="middle" x="783.97" y="-175.5" font-family="Helvetica,sans-Serif" font-size="10.00">SessionManager.h</text>
</a>
</g>
</g>
<!-- Node24&#45;&gt;Node38 -->
<g id="edge43" class="edge">
<title>Node24&#45;&gt;Node38</title>
<path fill="none" stroke="midnightblue" d="M908.15,-221.17C878.21,-211 835.75,-196.59 809.05,-187.52"/>
<polygon fill="midnightblue" stroke="midnightblue" points="907.19,-224.54 917.78,-224.44 909.44,-217.91 907.19,-224.54"/>
</g>
<!-- Node26&#45;&gt;Node12 -->
<g id="edge30" class="edge">
<title>Node26&#45;&gt;Node12</title>
<path fill="none" stroke="midnightblue" d="M876.6,-109.13C901.78,-100.51 936.22,-88.24 965.97,-76 985.46,-67.98 988.72,-61.85 1008.97,-56 1130.36,-20.94 1166.37,-40.96 1290.97,-20 1293.83,-19.52 1296.79,-18.98 1299.75,-18.42"/>
<polygon fill="midnightblue" stroke="midnightblue" points="875.43,-105.83 867.09,-112.36 877.68,-112.46 875.43,-105.83"/>
</g>
<!-- Node27 -->
<g id="node27" class="node">
<title>Node27</title>
<g id="a_node27"><a xlink:href="OnMessageTask_8cc.html" target="_top" xlink:title=" ">
<polygon fill="none" stroke="black" points="706.47,-0.5 706.47,-19.5 815.47,-19.5 815.47,-0.5 706.47,-0.5"/>
<text text-anchor="middle" x="760.97" y="-7.5" font-family="Helvetica,sans-Serif" font-size="10.00">OnMessageTask.cc</text>
</a>
</g>
</g>
<!-- Node26&#45;&gt;Node27 -->
<g id="edge29" class="edge">
<title>Node26&#45;&gt;Node27</title>
<path fill="none" stroke="midnightblue" d="M828.81,-104.27C811.51,-80.49 780.46,-37.79 767.22,-19.59"/>
<polygon fill="midnightblue" stroke="midnightblue" points="825.98,-106.34 834.7,-112.37 831.65,-102.22 825.98,-106.34"/>
</g>
<!-- Node28 -->
<g id="node28" class="node">
<title>Node28</title>
<g id="a_node28"><a xlink:href="SessionManager_8cc.html" target="_top" xlink:title=" ">
<polygon fill="none" stroke="black" points="577.97,-0.5 577.97,-19.5 687.97,-19.5 687.97,-0.5 577.97,-0.5"/>
<text text-anchor="middle" x="632.97" y="-7.5" font-family="Helvetica,sans-Serif" font-size="10.00">SessionManager.cc</text>
</a>
</g>
</g>
<!-- Node26&#45;&gt;Node28 -->
<g id="edge31" class="edge">
<title>Node26&#45;&gt;Node28</title>
<path fill="none" stroke="midnightblue" d="M822.85,-105.72C805.31,-91.48 777.55,-70.34 750.97,-56 721.84,-40.28 686.02,-27.44 661.54,-19.57"/>
<polygon fill="midnightblue" stroke="midnightblue" points="821.09,-108.8 831.03,-112.46 825.54,-103.4 821.09,-108.8"/>
</g>
<!-- Node29 -->
<g id="node29" class="node">
<title>Node29</title>
<g id="a_node29"><a xlink:href="ThreadingManager_8h.html" target="_top" xlink:title=" ">
<polygon fill="none" stroke="red" points="840.97,-56.5 840.97,-75.5 956.97,-75.5 956.97,-56.5 840.97,-56.5"/>
<text text-anchor="middle" x="898.97" y="-63.5" font-family="Helvetica,sans-Serif" font-size="10.00">ThreadingManager.h</text>
</a>
</g>
</g>
<!-- Node26&#45;&gt;Node29 -->
<g id="edge32" class="edge">
<title>Node26&#45;&gt;Node29</title>
<path fill="none" stroke="midnightblue" d="M857.89,-105.25C868.18,-95.67 880.94,-83.79 889.49,-75.83"/>
<polygon fill="midnightblue" stroke="midnightblue" points="855.23,-102.95 850.29,-112.32 860,-108.07 855.23,-102.95"/>
</g>
<!-- Node29&#45;&gt;Node12 -->
<g id="edge38" class="edge">
<title>Node29&#45;&gt;Node12</title>
<path fill="none" stroke="midnightblue" d="M967.14,-56.46C968.43,-56.3 969.71,-56.15 970.97,-56 1113.09,-39.12 1149.66,-42.69 1290.97,-20 1293.84,-19.54 1296.79,-19.02 1299.76,-18.46"/>
<polygon fill="midnightblue" stroke="midnightblue" points="966.63,-52.99 957.13,-57.67 967.47,-59.94 966.63,-52.99"/>
</g>
<!-- Node29&#45;&gt;Node27 -->
<g id="edge37" class="edge">
<title>Node29&#45;&gt;Node27</title>
<path fill="none" stroke="midnightblue" d="M867.72,-52.77C841.8,-42.63 805.61,-28.47 782.74,-19.52"/>
<polygon fill="midnightblue" stroke="midnightblue" points="866.52,-56.06 877.11,-56.44 869.07,-49.54 866.52,-56.06"/>
</g>
<!-- Node29&#45;&gt;Node28 -->
<g id="edge39" class="edge">
<title>Node29&#45;&gt;Node28</title>
<path fill="none" stroke="midnightblue" d="M846.81,-54.41C796.53,-44.2 721.44,-28.96 674.93,-19.52"/>
<polygon fill="midnightblue" stroke="midnightblue" points="846.33,-57.88 856.83,-56.44 847.72,-51.02 846.33,-57.88"/>
</g>
<!-- Node30 -->
<g id="node30" class="node">
<title>Node30</title>
<g id="a_node30"><a xlink:href="Contouring_8cc.html" target="_top" xlink:title=" ">
<polygon fill="none" stroke="black" points="833.47,-0.5 833.47,-19.5 916.47,-19.5 916.47,-0.5 833.47,-0.5"/>
<text text-anchor="middle" x="874.97" y="-7.5" font-family="Helvetica,sans-Serif" font-size="10.00">Contouring.cc</text>
</a>
</g>
</g>
<!-- Node29&#45;&gt;Node30 -->
<g id="edge33" class="edge">
<title>Node29&#45;&gt;Node30</title>
<path fill="none" stroke="midnightblue" d="M890.84,-46.69C886.79,-37.59 882.09,-27.01 878.86,-19.75"/>
<polygon fill="midnightblue" stroke="midnightblue" points="887.75,-48.37 895.01,-56.08 894.15,-45.52 887.75,-48.37"/>
</g>
<!-- Node31 -->
<g id="node31" class="node">
<title>Node31</title>
<g id="a_node31"><a xlink:href="Smoothing_8cc.html" target="_top" xlink:title=" ">
<polygon fill="none" stroke="black" points="934.47,-0.5 934.47,-19.5 1017.47,-19.5 1017.47,-0.5 934.47,-0.5"/>
<text text-anchor="middle" x="975.97" y="-7.5" font-family="Helvetica,sans-Serif" font-size="10.00">Smoothing.cc</text>
</a>
</g>
</g>
<!-- Node29&#45;&gt;Node31 -->
<g id="edge34" class="edge">
<title>Node29&#45;&gt;Node31</title>
<path fill="none" stroke="midnightblue" d="M919.87,-50.34C933.88,-40.52 951.86,-27.91 963.63,-19.65"/>
<polygon fill="midnightblue" stroke="midnightblue" points="917.52,-47.72 911.35,-56.32 921.54,-53.45 917.52,-47.72"/>
</g>
<!-- Node32 -->
<g id="node32" class="node">
<title>Node32</title>
<g id="a_node32"><a xlink:href="Histogram_8cc.html" target="_top" xlink:title=" ">
<polygon fill="none" stroke="black" points="1035.47,-0.5 1035.47,-19.5 1116.47,-19.5 1116.47,-0.5 1035.47,-0.5"/>
<text text-anchor="middle" x="1075.97" y="-7.5" font-family="Helvetica,sans-Serif" font-size="10.00">Histogram.cc</text>
</a>
</g>
</g>
<!-- Node29&#45;&gt;Node32 -->
<g id="edge35" class="edge">
<title>Node29&#45;&gt;Node32</title>
<path fill="none" stroke="midnightblue" d="M936.88,-53.44C970.25,-43.26 1018.08,-28.66 1048.06,-19.52"/>
<polygon fill="midnightblue" stroke="midnightblue" points="935.56,-50.18 927.02,-56.44 937.61,-56.87 935.56,-50.18"/>
</g>
<!-- Node33 -->
<g id="node33" class="node">
<title>Node33</title>
<g id="a_node33"><a xlink:href="Main_8cc.html" target="_top" xlink:title=" ">
<polygon fill="none" stroke="black" points="505.97,-0.5 505.97,-19.5 559.97,-19.5 559.97,-0.5 505.97,-0.5"/>
<text text-anchor="middle" x="532.97" y="-7.5" font-family="Helvetica,sans-Serif" font-size="10.00">Main.cc</text>
</a>
</g>
</g>
<!-- Node29&#45;&gt;Node33 -->
<g id="edge36" class="edge">
<title>Node29&#45;&gt;Node33</title>
<path fill="none" stroke="midnightblue" d="M830.83,-57.91C763.85,-50.43 658.89,-37.32 568.97,-20 566.06,-19.44 563.04,-18.79 560.03,-18.1"/>
<polygon fill="midnightblue" stroke="midnightblue" points="830.51,-61.4 840.84,-59.02 831.28,-54.44 830.51,-61.4"/>
</g>
<!-- Node34 -->
<g id="node34" class="node">
<title>Node34</title>
<g id="a_node34"><a xlink:href="Columns_8cc.html" target="_top" xlink:title=" ">
<polygon fill="none" stroke="black" points="1134.47,-0.5 1134.47,-19.5 1207.47,-19.5 1207.47,-0.5 1134.47,-0.5"/>
<text text-anchor="middle" x="1170.97" y="-7.5" font-family="Helvetica,sans-Serif" font-size="10.00">Columns.cc</text>
</a>
</g>
</g>
<!-- Node29&#45;&gt;Node34 -->
<g id="edge40" class="edge">
<title>Node29&#45;&gt;Node34</title>
<path fill="none" stroke="midnightblue" d="M952.09,-54.46C1005.75,-43.8 1087.25,-27.62 1134.18,-18.3"/>
<polygon fill="midnightblue" stroke="midnightblue" points="951.2,-51.06 942.07,-56.44 952.56,-57.93 951.2,-51.06"/>
</g>
<!-- Node35 -->
<g id="node35" class="node">
<title>Node35</title>
<g id="a_node35"><a xlink:href="Table_8cc.html" target="_top" xlink:title=" ">
<polygon fill="none" stroke="black" points="1225.97,-0.5 1225.97,-19.5 1281.97,-19.5 1281.97,-0.5 1225.97,-0.5"/>
<text text-anchor="middle" x="1253.97" y="-7.5" font-family="Helvetica,sans-Serif" font-size="10.00">Table.cc</text>
</a>
</g>
</g>
<!-- Node29&#45;&gt;Node35 -->
<g id="edge41" class="edge">
<title>Node29&#45;&gt;Node35</title>
<path fill="none" stroke="midnightblue" d="M967.38,-56.04C1045.88,-45.62 1169.71,-28.74 1215.97,-20 1219.17,-19.4 1222.51,-18.7 1225.81,-17.97"/>
<polygon fill="midnightblue" stroke="midnightblue" points="966.55,-52.62 957.1,-57.4 967.47,-59.56 966.55,-52.62"/>
</g>
<!-- Node38&#45;&gt;Node26 -->
<g id="edge47" class="edge">
<title>Node38&#45;&gt;Node26</title>
<path fill="none" stroke="midnightblue" d="M800.6,-161.25C810.71,-151.67 823.25,-139.79 831.65,-131.83"/>
<polygon fill="midnightblue" stroke="midnightblue" points="797.98,-158.91 793.13,-168.32 802.8,-163.99 797.98,-158.91"/>
</g>
<!-- Node38&#45;&gt;Node28 -->
<g id="edge48" class="edge">
<title>Node38&#45;&gt;Node28</title>
<path fill="none" stroke="midnightblue" d="M777.66,-158.72C768.03,-133.05 747.49,-86.1 716.97,-56 699.89,-39.16 675.21,-26.96 657.02,-19.54"/>
<polygon fill="midnightblue" stroke="midnightblue" points="774.43,-160.09 781.12,-168.31 781.02,-157.71 774.43,-160.09"/>
</g>
<!-- Node38&#45;&gt;Node33 -->
<g id="edge46" class="edge">
<title>Node38&#45;&gt;Node33</title>
<path fill="none" stroke="midnightblue" d="M758.05,-163.7C741.7,-155.09 720.3,-143.4 701.97,-132 640.07,-93.51 570.64,-40.42 544.1,-19.74"/>
<polygon fill="midnightblue" stroke="midnightblue" points="756.54,-166.86 767.02,-168.39 759.78,-160.66 756.54,-166.86"/>
</g>
<!-- Node39 -->
<g id="node37" class="node">
<title>Node39</title>
<g id="a_node37"><a xlink:href="HttpServer_8h.html" target="_top" xlink:title=" ">
<polygon fill="none" stroke="red" points="631.47,-56.5 631.47,-75.5 708.47,-75.5 708.47,-56.5 631.47,-56.5"/>
<text text-anchor="middle" x="669.97" y="-63.5" font-family="Helvetica,sans-Serif" font-size="10.00">HttpServer.h</text>
</a>
</g>
</g>
<!-- Node38&#45;&gt;Node39 -->
<g id="edge44" class="edge">
<title>Node38&#45;&gt;Node39</title>
<path fill="none" stroke="midnightblue" d="M761.56,-162.49C749.54,-154.22 734.82,-143.28 722.97,-132 703.79,-113.72 685.09,-88.58 675.89,-75.57"/>
<polygon fill="midnightblue" stroke="midnightblue" points="759.87,-165.57 770.13,-168.25 763.78,-159.76 759.87,-165.57"/>
</g>
<!-- Node39&#45;&gt;Node33 -->
<g id="edge45" class="edge">
<title>Node39&#45;&gt;Node33</title>
<path fill="none" stroke="midnightblue" d="M638.95,-52.77C613.22,-42.63 577.29,-28.47 554.58,-19.52"/>
<polygon fill="midnightblue" stroke="midnightblue" points="637.68,-56.03 648.27,-56.44 640.25,-49.52 637.68,-56.03"/>
</g>
<!-- Node41&#45;&gt;Node2 -->
<g id="edge51" class="edge">
<title>Node41&#45;&gt;Node2</title>
<path fill="none" stroke="midnightblue" d="M444.51,-392.98C372.71,-384.14 254.09,-369.38 151.97,-356 149.11,-355.62 146.17,-355.24 143.21,-354.84"/>
<polygon fill="midnightblue" stroke="midnightblue" points="444.4,-396.49 454.75,-394.24 445.26,-389.55 444.4,-396.49"/>
</g>
<!-- Node41&#45;&gt;Node12 -->
<g id="edge52" class="edge">
<title>Node41&#45;&gt;Node12</title>
<path fill="none" stroke="midnightblue" d="M575.57,-396.03C710.45,-385.7 1007.11,-362.33 1015.97,-356 1062.68,-322.67 1060.97,-292.38 1060.97,-235 1060.97,-235 1060.97,-235 1060.97,-121 1060.97,-94.94 1234.33,-40.56 1304.76,-19.55"/>
<polygon fill="midnightblue" stroke="midnightblue" points="575.07,-392.56 565.36,-396.81 575.6,-399.54 575.07,-392.56"/>
</g>
<!-- Node42&#45;&gt;Node14 -->
<g id="edge55" class="edge">
<title>Node42&#45;&gt;Node14</title>
<path fill="none" stroke="midnightblue" d="M494.95,-276.91C468.06,-266.75 430.33,-252.51 406.53,-243.52"/>
<polygon fill="midnightblue" stroke="midnightblue" points="493.72,-280.19 504.31,-280.44 496.2,-273.64 493.72,-280.19"/>
</g>
<!-- Node43&#45;&gt;Node14 -->
<g id="edge57" class="edge">
<title>Node43&#45;&gt;Node14</title>
<path fill="none" stroke="midnightblue" d="M463.02,-326.58C458.01,-312.85 449.9,-294.11 438.97,-280 427.34,-264.98 409.8,-251.74 397.67,-243.58"/>
<polygon fill="midnightblue" stroke="midnightblue" points="459.81,-328.01 466.37,-336.33 466.43,-325.74 459.81,-328.01"/>
</g>
<!-- Node44&#45;&gt;Node14 -->
<g id="edge59" class="edge">
<title>Node44&#45;&gt;Node14</title>
<path fill="none" stroke="midnightblue" d="M383.97,-269.8C383.97,-260.91 383.97,-250.78 383.97,-243.75"/>
<polygon fill="midnightblue" stroke="midnightblue" points="380.47,-270.08 383.97,-280.08 387.47,-270.08 380.47,-270.08"/>
</g>
<!-- Node45&#45;&gt;Node14 -->
<g id="edge61" class="edge">
<title>Node45&#45;&gt;Node14</title>
<path fill="none" stroke="midnightblue" d="M211.6,-327.52C221.27,-312.96 236.78,-292.62 254.97,-280 281.77,-261.41 317,-249.81 343.87,-243.05"/>
<polygon fill="midnightblue" stroke="midnightblue" points="208.54,-325.8 206.12,-336.12 214.45,-329.57 208.54,-325.8"/>
</g>
<!-- Node46&#45;&gt;Node14 -->
<g id="edge64" class="edge">
<title>Node46&#45;&gt;Node14</title>
<path fill="none" stroke="midnightblue" d="M576.32,-278.28C531,-268.08 463.71,-252.94 421.91,-243.54"/>
<polygon fill="midnightblue" stroke="midnightblue" points="575.69,-281.72 586.21,-280.5 577.22,-274.89 575.69,-281.72"/>
</g>
<!-- Node47&#45;&gt;Node14 -->
<g id="edge67" class="edge">
<title>Node47&#45;&gt;Node14</title>
<path fill="none" stroke="midnightblue" d="M308.92,-382.13C308.38,-357.1 310.44,-312.33 328.97,-280 338.11,-264.05 355.25,-251.42 367.97,-243.65"/>
<polygon fill="midnightblue" stroke="midnightblue" points="305.44,-382.55 309.32,-392.4 312.43,-382.28 305.44,-382.55"/>
</g>
<!-- Node48&#45;&gt;Node14 -->
<g id="edge69" class="edge">
<title>Node48&#45;&gt;Node14</title>
<path fill="none" stroke="midnightblue" d="M704.55,-382.33C704.27,-355.4 699.44,-306.05 669.97,-280 630.06,-244.72 485.51,-252.81 432.97,-244 430.07,-243.51 427.08,-243 424.07,-242.47"/>
<polygon fill="midnightblue" stroke="midnightblue" points="701.05,-382.33 704.44,-392.36 708.05,-382.4 701.05,-382.33"/>
</g>
<!-- Node49&#45;&gt;Node24 -->
<g id="edge72" class="edge">
<title>Node49&#45;&gt;Node24</title>
<path fill="none" stroke="midnightblue" d="M1146.31,-383.41C1152.93,-369.62 1158.78,-350.43 1149.97,-336 1111.84,-273.54 1022.45,-248.77 974.57,-239.72"/>
<polygon fill="midnightblue" stroke="midnightblue" points="1143.16,-381.87 1141.55,-392.34 1149.34,-385.16 1143.16,-381.87"/>
</g>
<!-- Node49&#45;&gt;Node50 -->
<g id="edge71" class="edge">
<title>Node49&#45;&gt;Node50</title>
<path fill="none" stroke="midnightblue" d="M1165.6,-388.5C1189.59,-378.38 1222.76,-364.39 1243.79,-355.52"/>
<polygon fill="midnightblue" stroke="midnightblue" points="1164.11,-385.33 1156.26,-392.44 1166.83,-391.78 1164.11,-385.33"/>
</g>
<!-- Node51&#45;&gt;Node16 -->
<g id="edge75" class="edge">
<title>Node51&#45;&gt;Node16</title>
<path fill="none" stroke="midnightblue" d="M839.15,-383.11C833.84,-369.91 828.99,-351.62 833.97,-336 838.52,-321.75 849.41,-308.16 857.22,-299.71"/>
<polygon fill="midnightblue" stroke="midnightblue" points="836.05,-384.75 843.33,-392.45 842.44,-381.89 836.05,-384.75"/>
</g>
<!-- Node52 -->
<g id="node49" class="node">
<title>Node52</title>
<g id="a_node49"><a xlink:href="PvGenerator_8cc.html" target="_top" xlink:title=" ">
<polygon fill="none" stroke="black" points="842.97,-336.5 842.97,-355.5 932.97,-355.5 932.97,-336.5 842.97,-336.5"/>
<text text-anchor="middle" x="887.97" y="-343.5" font-family="Helvetica,sans-Serif" font-size="10.00">PvGenerator.cc</text>
</a>
</g>
</g>
<!-- Node51&#45;&gt;Node52 -->
<g id="edge74" class="edge">
<title>Node51&#45;&gt;Node52</title>
<path fill="none" stroke="midnightblue" d="M860.67,-383.86C867.6,-374.5 875.88,-363.33 881.49,-355.75"/>
<polygon fill="midnightblue" stroke="midnightblue" points="857.72,-381.96 854.58,-392.08 863.34,-386.13 857.72,-381.96"/>
</g>
</g>
</svg>
