<?xml version="1.0" encoding="UTF-8" standalone="no"?>
<!DOCTYPE svg PUBLIC "-//W3C//DTD SVG 1.1//EN"
 "http://www.w3.org/Graphics/SVG/1.1/DTD/svg11.dtd">
<!-- Generated by graphviz version 2.43.0 (0)
 -->
<!-- Title: GetResolvedFilename Pages: 1 -->
<!--zoomable 428 -->
<svg id="main" version="1.1" xmlns="http://www.w3.org/2000/svg" xmlns:xlink="http://www.w3.org/1999/xlink" xml:space="preserve" onload="init(evt)">
<style type="text/css"><![CDATA[
.edge:hover path { stroke: red; }
.edge:hover polygon { stroke: red; fill: red; }
]]></style>
<script type="text/javascript"><![CDATA[
var edges = document.getElementsByTagName('g');
if (edges && edges.length) {
  for (var i=0;i<edges.length;i++) {
    if (edges[i].id.substr(0,4)=='edge') {
      edges[i].setAttribute('class','edge');
    }
  }
}
]]></script>
        <defs>
                <circle id="rim" cx="0" cy="0" r="7"/>
                <circle id="rim2" cx="0" cy="0" r="3.5"/>
                <g id="zoomPlus">
                        <use xlink:href="#rim" fill="#404040">
                                <set attributeName="fill" to="#808080" begin="zoomplus.mouseover" end="zoomplus.mouseout"/>
                        </use>
                        <path d="M-4,0h8M0,-4v8" fill="none" stroke="white" stroke-width="1.5" pointer-events="none"/>
                </g>
                <g id="zoomMin">
                        <use xlink:href="#rim" fill="#404040">
                                <set attributeName="fill" to="#808080" begin="zoomminus.mouseover" end="zoomminus.mouseout"/>
                        </use>
                        <path d="M-4,0h8" fill="none" stroke="white" stroke-width="1.5" pointer-events="none"/>
                </g>
                <g id="dirArrow">
                        <path fill="none" stroke="white" stroke-width="1.5" d="M0,-3.0v7 M-2.5,-0.5L0,-3.0L2.5,-0.5"/>
                </g>
               <g id="resetDef">
                       <use xlink:href="#rim2" fill="#404040">
                               <set attributeName="fill" to="#808080" begin="reset.mouseover" end="reset.mouseout"/>
                       </use>
               </g>
        </defs>

<script type="text/javascript">
var viewWidth = 1412;
var viewHeight = 428;
var sectionId = 'dynsection-3';
</script>
<script xlink:href="svgpan.js"/>
<svg id="graph" class="graph">
<g id="viewport">
<title>GetResolvedFilename</title>
<!-- Node1 -->
<g id="node1" class="node">
<title>Node1</title>
<g id="a_node1"><a xlink:title=" ">
<polygon fill="#bfbfbf" stroke="black" points="1280,-132 1280,-151 1404,-151 1404,-132 1280,-132"/>
<text text-anchor="middle" x="1342" y="-139" font-family="Helvetica,sans-Serif" font-size="10.00">GetResolvedFilename</text>
</a>
</g>
</g>
<!-- Node2 -->
<g id="node2" class="node">
<title>Node2</title>
<g id="a_node2"><a xlink:href="classcarta_1_1Session.html#a1888b66423989c3c52c590cd6ca73362" target="_top" xlink:title=" ">
<polygon fill="none" stroke="black" points="1090,-208.5 1090,-238.5 1244,-238.5 1244,-208.5 1090,-208.5"/>
<text text-anchor="start" x="1098" y="-226.5" font-family="Helvetica,sans-Serif" font-size="10.00">carta::Session::CloseCached</text>
<text text-anchor="middle" x="1167" y="-215.5" font-family="Helvetica,sans-Serif" font-size="10.00">Image</text>
</a>
</g>
</g>
<!-- Node1&#45;&gt;Node2 -->
<g id="edge1" class="edge">
<title>Node1&#45;&gt;Node2</title>
<path fill="none" stroke="midnightblue" d="M1318.36,-156.68C1299.16,-169.09 1270.58,-186.48 1244,-198.5 1236.03,-202.1 1227.37,-205.45 1218.86,-208.44"/>
<polygon fill="midnightblue" stroke="midnightblue" points="1320.28,-159.61 1326.73,-151.2 1316.45,-153.75 1320.28,-159.61"/>
</g>
<!-- Node3 -->
<g id="node3" class="node">
<title>Node3</title>
<g id="a_node3"><a xlink:href="classcarta_1_1Session.html#a6c490d8acff0517270d57a70a6956dc6" target="_top" xlink:title=" ">
<polygon fill="none" stroke="black" points="1096.5,-170 1096.5,-189 1237.5,-189 1237.5,-170 1096.5,-170"/>
<text text-anchor="middle" x="1167" y="-177" font-family="Helvetica,sans-Serif" font-size="10.00">carta::Session::FillFileInfo</text>
</a>
</g>
</g>
<!-- Node1&#45;&gt;Node3 -->
<g id="edge2" class="edge">
<title>Node1&#45;&gt;Node3</title>
<path fill="none" stroke="midnightblue" d="M1287.49,-153.25C1263.03,-158.63 1234.43,-164.91 1211.34,-169.98"/>
<polygon fill="midnightblue" stroke="midnightblue" points="1288.33,-156.65 1297.34,-151.09 1286.83,-149.82 1288.33,-156.65"/>
</g>
<!-- Node8 -->
<g id="node8" class="node">
<title>Node8</title>
<g id="a_node8"><a xlink:href="classcarta_1_1Session.html#a54c5dc766deb62f608792ce551a1b885" target="_top" xlink:title=" ">
<polygon fill="none" stroke="black" points="709.5,-198 709.5,-217 856.5,-217 856.5,-198 709.5,-198"/>
<text text-anchor="middle" x="783" y="-205" font-family="Helvetica,sans-Serif" font-size="10.00">carta::Session::OnOpenFile</text>
</a>
</g>
</g>
<!-- Node1&#45;&gt;Node8 -->
<g id="edge22" class="edge">
<title>Node1&#45;&gt;Node8</title>
<path fill="none" stroke="midnightblue" d="M1269.63,-145.44C1219.32,-148.57 1150.42,-153.58 1090,-160.5 1001.22,-170.66 898.7,-187.45 837.73,-197.97"/>
<polygon fill="midnightblue" stroke="midnightblue" points="1269.99,-148.92 1279.76,-144.82 1269.56,-141.94 1269.99,-148.92"/>
</g>
<!-- Node16 -->
<g id="node16" class="node">
<title>Node16</title>
<g id="a_node16"><a xlink:href="classcarta_1_1Session.html#abd146053cf3c27be50df2ee242ae17f6" target="_top" xlink:title=" ">
<polygon fill="none" stroke="black" points="331.5,-39.5 331.5,-69.5 468.5,-69.5 468.5,-39.5 331.5,-39.5"/>
<text text-anchor="start" x="339.5" y="-57.5" font-family="Helvetica,sans-Serif" font-size="10.00">carta::Session::OnImport</text>
<text text-anchor="middle" x="400" y="-46.5" font-family="Helvetica,sans-Serif" font-size="10.00">Region</text>
</a>
</g>
</g>
<!-- Node1&#45;&gt;Node16 -->
<g id="edge20" class="edge">
<title>Node1&#45;&gt;Node16</title>
<path fill="none" stroke="midnightblue" d="M1306.91,-128.42C1243.41,-105.27 1102.25,-59.5 979,-59.5 979,-59.5 979,-59.5 782,-59.5 672.35,-59.5 544.97,-57.4 468.79,-55.93"/>
<polygon fill="midnightblue" stroke="midnightblue" points="1305.83,-131.75 1316.42,-131.93 1308.25,-125.19 1305.83,-131.75"/>
</g>
<!-- Node17 -->
<g id="node17" class="node">
<title>Node17</title>
<g id="a_node17"><a xlink:href="classcarta_1_1StokesFilesConnector.html#a293ad12a37f9da0da1f6bcd140c68bd8" target="_top" xlink:title=" ">
<polygon fill="none" stroke="black" points="1091,-0.5 1091,-30.5 1243,-30.5 1243,-0.5 1091,-0.5"/>
<text text-anchor="start" x="1099" y="-18.5" font-family="Helvetica,sans-Serif" font-size="10.00">carta::StokesFilesConnector</text>
<text text-anchor="middle" x="1167" y="-7.5" font-family="Helvetica,sans-Serif" font-size="10.00">::OpenStokesFiles</text>
</a>
</g>
</g>
<!-- Node1&#45;&gt;Node17 -->
<g id="edge23" class="edge">
<title>Node1&#45;&gt;Node17</title>
<path fill="none" stroke="midnightblue" d="M1327.09,-123.92C1309.63,-102.83 1277.83,-67.57 1244,-45.5 1235.09,-39.69 1224.88,-34.7 1214.89,-30.57"/>
<polygon fill="midnightblue" stroke="midnightblue" points="1324.44,-126.2 1333.46,-131.75 1329.87,-121.79 1324.44,-126.2"/>
</g>
<!-- Node4 -->
<g id="node4" class="node">
<title>Node4</title>
<g id="a_node4"><a xlink:href="classcarta_1_1Session.html#a3dc8e818765159809dfb28472a3c95a6" target="_top" xlink:title=" ">
<polygon fill="none" stroke="black" points="902.5,-307.5 902.5,-337.5 1053.5,-337.5 1053.5,-307.5 902.5,-307.5"/>
<text text-anchor="start" x="910.5" y="-325.5" font-family="Helvetica,sans-Serif" font-size="10.00">carta::Session::FillExtended</text>
<text text-anchor="middle" x="978" y="-314.5" font-family="Helvetica,sans-Serif" font-size="10.00">FileInfo</text>
</a>
</g>
</g>
<!-- Node3&#45;&gt;Node4 -->
<g id="edge3" class="edge">
<title>Node3&#45;&gt;Node4</title>
<path fill="none" stroke="midnightblue" d="M1103.84,-192.58C1099.01,-194.57 1094.33,-196.86 1090,-199.5 1043.57,-227.78 1005.19,-281.34 988.29,-307.44"/>
<polygon fill="midnightblue" stroke="midnightblue" points="1105.09,-195.84 1113.26,-189.1 1102.67,-189.28 1105.09,-195.84"/>
</g>
<!-- Node5 -->
<g id="node5" class="node">
<title>Node5</title>
<g id="a_node5"><a xlink:href="classcarta_1_1Session.html#a8874927da900745afae4a0d975ed0453" target="_top" xlink:title=" ">
<polygon fill="none" stroke="black" points="330,-279.5 330,-309.5 470,-309.5 470,-279.5 330,-279.5"/>
<text text-anchor="start" x="338" y="-297.5" font-family="Helvetica,sans-Serif" font-size="10.00">carta::Session::OnFileInfo</text>
<text text-anchor="middle" x="400" y="-286.5" font-family="Helvetica,sans-Serif" font-size="10.00">Request</text>
</a>
</g>
</g>
<!-- Node4&#45;&gt;Node5 -->
<g id="edge4" class="edge">
<title>Node4&#45;&gt;Node5</title>
<path fill="none" stroke="midnightblue" d="M892.04,-338.34C797.28,-353.16 639.97,-369.21 508,-341.5 479.01,-335.41 448.28,-320.98 427.23,-309.7"/>
<polygon fill="midnightblue" stroke="midnightblue" points="892.82,-341.76 902.14,-336.73 891.72,-334.85 892.82,-341.76"/>
</g>
<!-- Node4&#45;&gt;Node8 -->
<g id="edge7" class="edge">
<title>Node4&#45;&gt;Node8</title>
<path fill="none" stroke="midnightblue" d="M942.99,-302.24C900.96,-277.19 831.18,-235.61 799.96,-217.01"/>
<polygon fill="midnightblue" stroke="midnightblue" points="941.39,-305.35 951.77,-307.47 944.97,-299.34 941.39,-305.35"/>
</g>
<!-- Node13 -->
<g id="node13" class="node">
<title>Node13</title>
<g id="a_node13"><a xlink:href="classcarta_1_1Session.html#a07bfe19708d3e272d01fef6f18712aa2" target="_top" xlink:title=" ">
<polygon fill="none" stroke="black" points="508,-313 508,-332 664,-332 664,-313 508,-313"/>
<text text-anchor="middle" x="586" y="-320" font-family="Helvetica,sans-Serif" font-size="10.00">carta::Session::OnPvRequest</text>
</a>
</g>
</g>
<!-- Node4&#45;&gt;Node13 -->
<g id="edge17" class="edge">
<title>Node4&#45;&gt;Node13</title>
<path fill="none" stroke="midnightblue" d="M892.03,-322.5C824.16,-322.5 729.87,-322.5 664.15,-322.5"/>
<polygon fill="midnightblue" stroke="midnightblue" points="892.27,-326 902.27,-322.5 892.27,-319 892.27,-326"/>
</g>
<!-- Node14 -->
<g id="node14" class="node">
<title>Node14</title>
<g id="a_node14"><a xlink:href="classcarta_1_1Session.html#af8a5cb91e4f627673631d7648bbaed75" target="_top" xlink:title=" ">
<polygon fill="none" stroke="black" points="700,-392 700,-411 866,-411 866,-392 700,-392"/>
<text text-anchor="middle" x="783" y="-399" font-family="Helvetica,sans-Serif" font-size="10.00">carta::Session::SendPvPreview</text>
</a>
</g>
</g>
<!-- Node4&#45;&gt;Node14 -->
<g id="edge18" class="edge">
<title>Node4&#45;&gt;Node14</title>
<path fill="none" stroke="midnightblue" d="M938.02,-342.16C916.96,-352.43 890.35,-364.83 866,-374.5 849.7,-380.97 831.17,-387.17 815.86,-391.99"/>
<polygon fill="midnightblue" stroke="midnightblue" points="939.85,-345.17 947.28,-337.62 936.76,-338.88 939.85,-345.17"/>
</g>
<!-- Node6 -->
<g id="node6" class="node">
<title>Node6</title>
<g id="a_node6"><a xlink:href="classcarta_1_1SessionManager.html#a474c31666cb3b22fcbe8af5f945d2950" target="_top" xlink:title=" ">
<polygon fill="none" stroke="black" points="164,-132.5 164,-162.5 292,-162.5 292,-132.5 164,-132.5"/>
<text text-anchor="start" x="172" y="-150.5" font-family="Helvetica,sans-Serif" font-size="10.00">carta::SessionManager</text>
<text text-anchor="middle" x="228" y="-139.5" font-family="Helvetica,sans-Serif" font-size="10.00">::OnMessage</text>
</a>
</g>
</g>
<!-- Node5&#45;&gt;Node6 -->
<g id="edge5" class="edge">
<title>Node5&#45;&gt;Node6</title>
<path fill="none" stroke="midnightblue" d="M373.59,-272.53C338.64,-242.31 276.63,-188.68 246.46,-162.6"/>
<polygon fill="midnightblue" stroke="midnightblue" points="371.59,-275.43 381.45,-279.32 376.17,-270.13 371.59,-275.43"/>
</g>
<!-- Node7 -->
<g id="node7" class="node">
<title>Node7</title>
<g id="a_node7"><a xlink:href="classcarta_1_1SessionManager.html#ab4e4e7f0244bd6843e70ab91652debf6" target="_top" xlink:title=" ">
<polygon fill="none" stroke="black" points="0,-132.5 0,-162.5 128,-162.5 128,-132.5 0,-132.5"/>
<text text-anchor="start" x="8" y="-150.5" font-family="Helvetica,sans-Serif" font-size="10.00">carta::SessionManager</text>
<text text-anchor="middle" x="64" y="-139.5" font-family="Helvetica,sans-Serif" font-size="10.00">::RunApp</text>
</a>
</g>
</g>
<!-- Node6&#45;&gt;Node7 -->
<g id="edge6" class="edge">
<title>Node6&#45;&gt;Node7</title>
<path fill="none" stroke="midnightblue" d="M153.63,-147.5C145.14,-147.5 136.53,-147.5 128.19,-147.5"/>
<polygon fill="midnightblue" stroke="midnightblue" points="153.9,-151 163.9,-147.5 153.9,-144 153.9,-151"/>
</g>
<!-- Node8&#45;&gt;Node6 -->
<g id="edge13" class="edge">
<title>Node8&#45;&gt;Node6</title>
<path fill="none" stroke="midnightblue" d="M699.25,-199.13C608.21,-189.84 457.61,-174.21 328,-159.5 316.39,-158.18 304.02,-156.73 292.09,-155.29"/>
<polygon fill="midnightblue" stroke="midnightblue" points="698.93,-202.62 709.23,-200.15 699.64,-195.66 698.93,-202.62"/>
</g>
<!-- Node9 -->
<g id="node9" class="node">
<title>Node9</title>
<g id="a_node9"><a xlink:href="classcarta_1_1Session.html#aed12d0369de4c3391dba300cb77e9241" target="_top" xlink:title=" ">
<polygon fill="none" stroke="black" points="517,-126.5 517,-156.5 655,-156.5 655,-126.5 517,-126.5"/>
<text text-anchor="start" x="525" y="-144.5" font-family="Helvetica,sans-Serif" font-size="10.00">carta::Session::OnConcat</text>
<text text-anchor="middle" x="586" y="-133.5" font-family="Helvetica,sans-Serif" font-size="10.00">StokesFiles</text>
</a>
</g>
</g>
<!-- Node8&#45;&gt;Node9 -->
<g id="edge8" class="edge">
<title>Node8&#45;&gt;Node9</title>
<path fill="none" stroke="midnightblue" d="M744.13,-194.68C711.93,-183.78 665.64,-168.11 631.63,-156.61"/>
<polygon fill="midnightblue" stroke="midnightblue" points="743.05,-198.01 753.65,-197.9 745.3,-191.38 743.05,-198.01"/>
</g>
<!-- Node10 -->
<g id="node10" class="node">
<title>Node10</title>
<g id="a_node10"><a xlink:href="classcarta_1_1Session.html#afe5c090c017ef208f638b96a7eb1ecf0" target="_top" xlink:title=" ">
<polygon fill="none" stroke="black" points="328,-88.5 328,-118.5 472,-118.5 472,-88.5 328,-88.5"/>
<text text-anchor="start" x="336" y="-106.5" font-family="Helvetica,sans-Serif" font-size="10.00">carta::Session::OnResume</text>
<text text-anchor="middle" x="400" y="-95.5" font-family="Helvetica,sans-Serif" font-size="10.00">Session</text>
</a>
</g>
</g>
<!-- Node8&#45;&gt;Node10 -->
<g id="edge16" class="edge">
<title>Node8&#45;&gt;Node10</title>
<path fill="none" stroke="midnightblue" d="M766.36,-190.19C745.48,-168.43 706.19,-132.05 664,-116.5 602.13,-93.69 526.48,-92.46 472.22,-95.73"/>
<polygon fill="midnightblue" stroke="midnightblue" points="764.04,-192.83 773.43,-197.74 769.15,-188.05 764.04,-192.83"/>
</g>
<!-- Node11 -->
<g id="node11" class="node">
<title>Node11</title>
<g id="a_node11"><a xlink:href="classcarta_1_1Session.html#a5589e4dca9e6a51055f15da1d9ac1b3c" target="_top" xlink:title=" ">
<polygon fill="none" stroke="black" points="518.5,-263.5 518.5,-293.5 653.5,-293.5 653.5,-263.5 518.5,-263.5"/>
<text text-anchor="start" x="526.5" y="-281.5" font-family="Helvetica,sans-Serif" font-size="10.00">carta::Session::OnFitting</text>
<text text-anchor="middle" x="586" y="-270.5" font-family="Helvetica,sans-Serif" font-size="10.00">Request</text>
</a>
</g>
</g>
<!-- Node8&#45;&gt;Node11 -->
<g id="edge12" class="edge">
<title>Node8&#45;&gt;Node11</title>
<path fill="none" stroke="midnightblue" d="M750.07,-220.99C726.48,-230.77 693.46,-244.06 664,-254.5 655.42,-257.54 646.23,-260.58 637.3,-263.43"/>
<polygon fill="midnightblue" stroke="midnightblue" points="751.69,-224.11 759.57,-217.03 749,-217.65 751.69,-224.11"/>
</g>
<!-- Node12 -->
<g id="node12" class="node">
<title>Node12</title>
<g id="a_node12"><a xlink:href="classcarta_1_1Session.html#a8fe2527b0a83c67240ef4a31a86e4978" target="_top" xlink:title=" ">
<polygon fill="none" stroke="black" points="513.5,-214.5 513.5,-244.5 658.5,-244.5 658.5,-214.5 513.5,-214.5"/>
<text text-anchor="start" x="521.5" y="-232.5" font-family="Helvetica,sans-Serif" font-size="10.00">carta::Session::OnMoment</text>
<text text-anchor="middle" x="586" y="-221.5" font-family="Helvetica,sans-Serif" font-size="10.00">Request</text>
</a>
</g>
</g>
<!-- Node8&#45;&gt;Node12 -->
<g id="edge14" class="edge">
<title>Node8&#45;&gt;Node12</title>
<path fill="none" stroke="midnightblue" d="M699.18,-216.84C685.72,-218.36 671.87,-219.92 658.7,-221.41"/>
<polygon fill="midnightblue" stroke="midnightblue" points="699.84,-220.29 709.39,-215.69 699.06,-213.34 699.84,-220.29"/>
</g>
<!-- Node8&#45;&gt;Node13 -->
<g id="edge15" class="edge">
<title>Node8&#45;&gt;Node13</title>
<path fill="none" stroke="midnightblue" d="M766.02,-224.5C744.77,-246.1 705.08,-283.02 664,-303.5 656.24,-307.37 647.63,-310.49 639.07,-312.98"/>
<polygon fill="midnightblue" stroke="midnightblue" points="768.8,-226.67 773.23,-217.04 763.76,-221.8 768.8,-226.67"/>
</g>
<!-- Node9&#45;&gt;Node6 -->
<g id="edge9" class="edge">
<title>Node9&#45;&gt;Node6</title>
<path fill="none" stroke="midnightblue" d="M506.67,-142.82C442.24,-143.91 352.11,-145.43 292.21,-146.43"/>
<polygon fill="midnightblue" stroke="midnightblue" points="506.84,-146.32 516.78,-142.65 506.72,-139.32 506.84,-146.32"/>
</g>
<!-- Node9&#45;&gt;Node10 -->
<g id="edge10" class="edge">
<title>Node9&#45;&gt;Node10</title>
<path fill="none" stroke="midnightblue" d="M506.76,-125.34C495.3,-122.97 483.54,-120.55 472.22,-118.21"/>
<polygon fill="midnightblue" stroke="midnightblue" points="506.25,-128.81 516.75,-127.4 507.66,-121.95 506.25,-128.81"/>
</g>
<!-- Node10&#45;&gt;Node6 -->
<g id="edge11" class="edge">
<title>Node10&#45;&gt;Node6</title>
<path fill="none" stroke="midnightblue" d="M331.02,-121.09C316.46,-124.86 301.2,-128.81 287.06,-132.47"/>
<polygon fill="midnightblue" stroke="midnightblue" points="332.17,-124.41 340.97,-118.52 330.41,-117.64 332.17,-124.41"/>
</g>
<!-- Node15 -->
<g id="node15" class="node">
<title>Node15</title>
<g id="a_node15"><a xlink:href="classcarta_1_1PvPreviewUpdateTask.html#ad8fc7c242731d4bae2e2928f0cdf613a" target="_top" xlink:title=" ">
<polygon fill="none" stroke="black" points="508.5,-389.5 508.5,-419.5 663.5,-419.5 663.5,-389.5 508.5,-389.5"/>
<text text-anchor="start" x="516.5" y="-407.5" font-family="Helvetica,sans-Serif" font-size="10.00">carta::PvPreviewUpdateTask</text>
<text text-anchor="middle" x="586" y="-396.5" font-family="Helvetica,sans-Serif" font-size="10.00">::execute</text>
</a>
</g>
</g>
<!-- Node14&#45;&gt;Node15 -->
<g id="edge19" class="edge">
<title>Node14&#45;&gt;Node15</title>
<path fill="none" stroke="midnightblue" d="M689.71,-402.92C681.02,-403.05 672.28,-403.19 663.75,-403.32"/>
<polygon fill="midnightblue" stroke="midnightblue" points="689.92,-406.42 699.87,-402.76 689.81,-399.42 689.92,-406.42"/>
</g>
<!-- Node16&#45;&gt;Node6 -->
<g id="edge21" class="edge">
<title>Node16&#45;&gt;Node6</title>
<path fill="none" stroke="midnightblue" d="M339.08,-73.38C335.28,-75 331.56,-76.7 328,-78.5 297.89,-93.7 266.49,-117.07 247.34,-132.32"/>
<polygon fill="midnightblue" stroke="midnightblue" points="340.64,-76.52 348.62,-69.55 338.03,-70.03 340.64,-76.52"/>
</g>
<!-- Node18 -->
<g id="node18" class="node">
<title>Node18</title>
<g id="a_node18"><a xlink:href="classcarta_1_1StokesFilesConnector.html#a99f6cac79a12711d8e47b4a1c6b4f381" target="_top" xlink:title=" ">
<polygon fill="none" stroke="black" points="902,-0.5 902,-30.5 1054,-30.5 1054,-0.5 902,-0.5"/>
<text text-anchor="start" x="910" y="-18.5" font-family="Helvetica,sans-Serif" font-size="10.00">carta::StokesFilesConnector</text>
<text text-anchor="middle" x="978" y="-7.5" font-family="Helvetica,sans-Serif" font-size="10.00">::DoConcat</text>
</a>
</g>
</g>
<!-- Node17&#45;&gt;Node18 -->
<g id="edge24" class="edge">
<title>Node17&#45;&gt;Node18</title>
<path fill="none" stroke="midnightblue" d="M1080.48,-15.5C1071.67,-15.5 1062.78,-15.5 1054.1,-15.5"/>
<polygon fill="midnightblue" stroke="midnightblue" points="1080.75,-19 1090.75,-15.5 1080.75,-12 1080.75,-19"/>
</g>
</g>
</svg>
        <g id="navigator" transform="translate(0 0)" fill="#404254">
                <rect fill="#f2f5e9" fill-opacity="0.5" stroke="#606060" stroke-width=".5" x="0" y="0" width="60" height="60"/>
                <use id="zoomplus" xlink:href="#zoomPlus" x="17" y="9" onmousedown="handleZoom(evt,'in')"/>
                <use id="zoomminus" xlink:href="#zoomMin" x="42" y="9" onmousedown="handleZoom(evt,'out')"/>
                <use id="reset" xlink:href="#resetDef" x="30" y="36" onmousedown="handleReset()"/>
                <g id="arrowUp" xlink:href="#dirArrow" transform="translate(30 24)" onmousedown="handlePan(0,-1)">
                  <use xlink:href="#rim" fill="#404040">
                        <set attributeName="fill" to="#808080" begin="arrowUp.mouseover" end="arrowUp.mouseout"/>
                  </use>
                  <path fill="none" stroke="white" stroke-width="1.5" d="M0,-3.0v7 M-2.5,-0.5L0,-3.0L2.5,-0.5"/>
                </g>
                <g id="arrowRight" xlink:href="#dirArrow" transform="rotate(90) translate(36 -43)" onmousedown="handlePan(1,0)">
                  <use xlink:href="#rim" fill="#404040">
                        <set attributeName="fill" to="#808080" begin="arrowRight.mouseover" end="arrowRight.mouseout"/>
                  </use>
                  <path fill="none" stroke="white" stroke-width="1.5" d="M0,-3.0v7 M-2.5,-0.5L0,-3.0L2.5,-0.5"/>
                </g>
                <g id="arrowDown" xlink:href="#dirArrow" transform="rotate(180) translate(-30 -48)" onmousedown="handlePan(0,1)">
                  <use xlink:href="#rim" fill="#404040">
                        <set attributeName="fill" to="#808080" begin="arrowDown.mouseover" end="arrowDown.mouseout"/>
                  </use>
                  <path fill="none" stroke="white" stroke-width="1.5" d="M0,-3.0v7 M-2.5,-0.5L0,-3.0L2.5,-0.5"/>
                </g>
                <g id="arrowLeft" xlink:href="#dirArrow" transform="rotate(270) translate(-36 17)" onmousedown="handlePan(-1,0)">
                  <use xlink:href="#rim" fill="#404040">
                        <set attributeName="fill" to="#808080" begin="arrowLeft.mouseover" end="arrowLeft.mouseout"/>
                  </use>
                  <path fill="none" stroke="white" stroke-width="1.5" d="M0,-3.0v7 M-2.5,-0.5L0,-3.0L2.5,-0.5"/>
                </g>
        </g>
        <svg viewBox="0 0 15 15" width="100%" height="30px" preserveAspectRatio="xMaxYMin meet">
         <g id="arrow_out" transform="scale(0.3 0.3)">
          <a xlink:href="Casacore_8cc_adaf629920399b9ef31d6579a0693c4bb_icgraph_org.svg" target="_base">
           <rect id="button" ry="5" rx="5" y="6" x="6" height="38" width="38"
                fill="#f2f5e9" fill-opacity="0.5" stroke="#606060" stroke-width="1.0"/>
           <path id="arrow"
             d="M 11.500037,31.436501 C 11.940474,20.09759 22.043105,11.32322 32.158766,21.979434 L 37.068811,17.246167 C 37.068811,17.246167 37.088388,32 37.088388,32 L 22.160133,31.978069 C 22.160133,31.978069 26.997745,27.140456 26.997745,27.140456 C 18.528582,18.264221 13.291696,25.230495 11.500037,31.436501 z"
             style="fill:#404040;"/>
          </a>
         </g>
        </svg>
</svg>
