<?xml version="1.0" encoding="UTF-8" standalone="no"?>
<!DOCTYPE svg PUBLIC "-//W3C//DTD SVG 1.1//EN"
 "http://www.w3.org/Graphics/SVG/1.1/DTD/svg11.dtd">
<!-- Generated by graphviz version 2.43.0 (0)
 -->
<!-- Title: Casacore.h Pages: 1 -->
<svg width="1576pt" height="532pt"
 viewBox="0.00 0.00 1576.00 532.00" xmlns="http://www.w3.org/2000/svg" xmlns:xlink="http://www.w3.org/1999/xlink">
<g id="graph0" class="graph" transform="scale(1 1) rotate(0) translate(4 528)">
<title>Casacore.h</title>
<!-- Node1 -->
<g id="node1" class="node">
<title>Node1</title>
<g id="a_node1"><a xlink:title=" ">
<polygon fill="#bfbfbf" stroke="black" points="487.5,-504.5 487.5,-523.5 558.5,-523.5 558.5,-504.5 487.5,-504.5"/>
<text text-anchor="middle" x="523" y="-511.5" font-family="Helvetica,sans-Serif" font-size="10.00">Casacore.h</text>
</a>
</g>
</g>
<!-- Node2 -->
<g id="node2" class="node">
<title>Node2</title>
<g id="a_node2"><a xlink:href="FileExtInfoLoader_8cc.html" target="_top" xlink:title=" ">
<polygon fill="none" stroke="black" points="0,-336.5 0,-355.5 114,-355.5 114,-336.5 0,-336.5"/>
<text text-anchor="middle" x="57" y="-343.5" font-family="Helvetica,sans-Serif" font-size="10.00">FileExtInfoLoader.cc</text>
</a>
</g>
</g>
<!-- Node1&#45;&gt;Node2 -->
<g id="edge1" class="edge">
<title>Node1&#45;&gt;Node2</title>
<path fill="none" stroke="midnightblue" d="M476.98,-509.22C373,-499.69 124.62,-471.14 69,-412 54.53,-396.62 54.66,-369.77 55.88,-355.88"/>
<polygon fill="midnightblue" stroke="midnightblue" points="476.9,-512.72 487.17,-510.13 477.52,-505.75 476.9,-512.72"/>
</g>
<!-- Node3 -->
<g id="node3" class="node">
<title>Node3</title>
<g id="a_node3"><a xlink:href="FileInfoLoader_8cc.html" target="_top" xlink:title=" ">
<polygon fill="none" stroke="black" points="303,-448.5 303,-467.5 401,-467.5 401,-448.5 303,-448.5"/>
<text text-anchor="middle" x="352" y="-455.5" font-family="Helvetica,sans-Serif" font-size="10.00">FileInfoLoader.cc</text>
</a>
</g>
</g>
<!-- Node1&#45;&gt;Node3 -->
<g id="edge2" class="edge">
<title>Node1&#45;&gt;Node3</title>
<path fill="none" stroke="midnightblue" d="M485.96,-501.3C453.74,-491.13 407.81,-476.62 378.97,-467.52"/>
<polygon fill="midnightblue" stroke="midnightblue" points="485.31,-504.77 495.9,-504.44 487.42,-498.09 485.31,-504.77"/>
</g>
<!-- Node4 -->
<g id="node4" class="node">
<title>Node4</title>
<g id="a_node4"><a xlink:href="FileListHandler_8cc.html" target="_top" xlink:title=" ">
<polygon fill="none" stroke="black" points="419,-448.5 419,-467.5 521,-467.5 521,-448.5 419,-448.5"/>
<text text-anchor="middle" x="470" y="-455.5" font-family="Helvetica,sans-Serif" font-size="10.00">FileListHandler.cc</text>
</a>
</g>
</g>
<!-- Node1&#45;&gt;Node4 -->
<g id="edge3" class="edge">
<title>Node1&#45;&gt;Node4</title>
<path fill="none" stroke="midnightblue" d="M507.02,-496.72C497.68,-487.2 486.25,-475.56 478.59,-467.75"/>
<polygon fill="midnightblue" stroke="midnightblue" points="504.75,-499.4 514.25,-504.08 509.74,-494.49 504.75,-499.4"/>
</g>
<!-- Node5 -->
<g id="node5" class="node">
<title>Node5</title>
<g id="a_node5"><a xlink:href="FileLoader_8h.html" target="_top" xlink:title=" ">
<polygon fill="none" stroke="black" points="539.5,-448.5 539.5,-467.5 614.5,-467.5 614.5,-448.5 539.5,-448.5"/>
<text text-anchor="middle" x="577" y="-455.5" font-family="Helvetica,sans-Serif" font-size="10.00">FileLoader.h</text>
</a>
</g>
</g>
<!-- Node1&#45;&gt;Node5 -->
<g id="edge4" class="edge">
<title>Node1&#45;&gt;Node5</title>
<path fill="none" stroke="midnightblue" d="M539,-497C548.57,-487.43 560.36,-475.64 568.25,-467.75"/>
<polygon fill="midnightblue" stroke="midnightblue" points="536.51,-494.54 531.92,-504.08 541.46,-499.49 536.51,-494.54"/>
</g>
<!-- Node48 -->
<g id="node47" class="node">
<title>Node48</title>
<g id="a_node47"><a xlink:href="StokesFilesConnector_8cc.html" target="_top" xlink:title=" ">
<polygon fill="none" stroke="black" points="1070,-336.5 1070,-355.5 1204,-355.5 1204,-336.5 1070,-336.5"/>
<text text-anchor="middle" x="1137" y="-343.5" font-family="Helvetica,sans-Serif" font-size="10.00">StokesFilesConnector.cc</text>
</a>
</g>
</g>
<!-- Node1&#45;&gt;Node48 -->
<g id="edge74" class="edge">
<title>Node1&#45;&gt;Node48</title>
<path fill="none" stroke="midnightblue" d="M569.17,-511.17C693.93,-505.32 1033.91,-483.06 1116,-412 1132.68,-397.56 1136.21,-369.79 1136.89,-355.68"/>
<polygon fill="midnightblue" stroke="midnightblue" points="568.66,-507.69 558.82,-511.64 568.97,-514.68 568.66,-507.69"/>
</g>
<!-- Node51 -->
<g id="node50" class="node">
<title>Node51</title>
<g id="a_node50"><a xlink:href="Casacore_8cc.html" target="_top" xlink:title=" ">
<polygon fill="none" stroke="black" points="1163.5,-448.5 1163.5,-467.5 1238.5,-467.5 1238.5,-448.5 1163.5,-448.5"/>
<text text-anchor="middle" x="1201" y="-455.5" font-family="Helvetica,sans-Serif" font-size="10.00">Casacore.cc</text>
</a>
</g>
</g>
<!-- Node1&#45;&gt;Node51 -->
<g id="edge75" class="edge">
<title>Node1&#45;&gt;Node51</title>
<path fill="none" stroke="midnightblue" d="M568.89,-511.27C672.58,-507.01 932.81,-494.41 1149,-468 1153.64,-467.43 1158.49,-466.74 1163.29,-465.98"/>
<polygon fill="midnightblue" stroke="midnightblue" points="568.61,-507.78 558.76,-511.68 568.9,-514.77 568.61,-507.78"/>
</g>
<!-- Node6 -->
<g id="node6" class="node">
<title>Node6</title>
<g id="a_node6"><a xlink:href="TileCache_8h.html" target="_top" xlink:title=" ">
<polygon fill="none" stroke="black" points="847,-392.5 847,-411.5 921,-411.5 921,-392.5 847,-392.5"/>
<text text-anchor="middle" x="884" y="-399.5" font-family="Helvetica,sans-Serif" font-size="10.00">TileCache.h</text>
</a>
</g>
</g>
<!-- Node5&#45;&gt;Node6 -->
<g id="edge5" class="edge">
<title>Node5&#45;&gt;Node6</title>
<path fill="none" stroke="midnightblue" d="M624.81,-448.59C686.01,-437.83 790.78,-419.4 846.53,-409.59"/>
<polygon fill="midnightblue" stroke="midnightblue" points="623.89,-445.2 614.64,-450.38 625.1,-452.09 623.89,-445.2"/>
</g>
<!-- Node8 -->
<g id="node8" class="node">
<title>Node8</title>
<g id="a_node8"><a xlink:href="Frame_8h.html" target="_top" xlink:title=" ">
<polygon fill="none" stroke="black" points="958,-336.5 958,-355.5 1014,-355.5 1014,-336.5 958,-336.5"/>
<text text-anchor="middle" x="986" y="-343.5" font-family="Helvetica,sans-Serif" font-size="10.00">Frame.h</text>
</a>
</g>
</g>
<!-- Node5&#45;&gt;Node8 -->
<g id="edge51" class="edge">
<title>Node5&#45;&gt;Node8</title>
<path fill="none" stroke="midnightblue" d="M624.57,-455.13C708.34,-451.15 878.22,-439.83 930,-412 954.67,-398.74 973.3,-369.9 981.47,-355.52"/>
<polygon fill="midnightblue" stroke="midnightblue" points="624.38,-451.63 614.55,-455.59 624.7,-458.63 624.38,-451.63"/>
</g>
<!-- Node10 -->
<g id="node10" class="node">
<title>Node10</title>
<g id="a_node10"><a xlink:href="Hdf5Loader_8h.html" target="_top" xlink:title=" ">
<polygon fill="none" stroke="black" points="700.5,-280.5 700.5,-299.5 781.5,-299.5 781.5,-280.5 700.5,-280.5"/>
<text text-anchor="middle" x="741" y="-287.5" font-family="Helvetica,sans-Serif" font-size="10.00">Hdf5Loader.h</text>
</a>
</g>
</g>
<!-- Node5&#45;&gt;Node10 -->
<g id="edge63" class="edge">
<title>Node5&#45;&gt;Node10</title>
<path fill="none" stroke="midnightblue" d="M602.72,-443.63C616.92,-435.55 634.39,-424.43 648,-412 653.21,-407.24 714.13,-326.64 734.45,-299.69"/>
<polygon fill="midnightblue" stroke="midnightblue" points="600.99,-440.58 593.93,-448.48 604.38,-446.71 600.99,-440.58"/>
</g>
<!-- Node11 -->
<g id="node11" class="node">
<title>Node11</title>
<g id="a_node11"><a xlink:href="FileLoader_8cc.html" target="_top" xlink:title=" ">
<polygon fill="none" stroke="black" points="458,-224.5 458,-243.5 538,-243.5 538,-224.5 458,-224.5"/>
<text text-anchor="middle" x="498" y="-231.5" font-family="Helvetica,sans-Serif" font-size="10.00">FileLoader.cc</text>
</a>
</g>
</g>
<!-- Node5&#45;&gt;Node11 -->
<g id="edge60" class="edge">
<title>Node5&#45;&gt;Node11</title>
<path fill="none" stroke="midnightblue" d="M529.15,-448C429.57,-432.58 392.21,-460.49 309,-412 253.83,-379.85 240.2,-360.24 219,-300 216.05,-291.62 213.24,-286.77 219,-280 249.22,-244.51 388.27,-236.91 457.95,-235.35"/>
<polygon fill="midnightblue" stroke="midnightblue" points="528.87,-451.5 539.31,-449.69 530.02,-444.59 528.87,-451.5"/>
</g>
<!-- Node39 -->
<g id="node38" class="node">
<title>Node39</title>
<g id="a_node38"><a xlink:href="FileExtInfoLoader_8h.html" target="_top" xlink:title=" ">
<polygon fill="none" stroke="black" points="78,-392.5 78,-411.5 188,-411.5 188,-392.5 78,-392.5"/>
<text text-anchor="middle" x="133" y="-399.5" font-family="Helvetica,sans-Serif" font-size="10.00">FileExtInfoLoader.h</text>
</a>
</g>
</g>
<!-- Node5&#45;&gt;Node39 -->
<g id="edge48" class="edge">
<title>Node5&#45;&gt;Node39</title>
<path fill="none" stroke="midnightblue" d="M529.11,-447.98C383.24,-426.33 344.34,-429.09 202,-412 197.56,-411.47 192.97,-410.9 188.35,-410.32"/>
<polygon fill="midnightblue" stroke="midnightblue" points="528.93,-451.49 539.34,-449.51 529.96,-444.57 528.93,-451.49"/>
</g>
<!-- Node40 -->
<g id="node39" class="node">
<title>Node40</title>
<g id="a_node39"><a xlink:href="CasaLoader_8h.html" target="_top" xlink:title=" ">
<polygon fill="none" stroke="black" points="228,-280.5 228,-299.5 310,-299.5 310,-280.5 228,-280.5"/>
<text text-anchor="middle" x="269" y="-287.5" font-family="Helvetica,sans-Serif" font-size="10.00">CasaLoader.h</text>
</a>
</g>
</g>
<!-- Node5&#45;&gt;Node40 -->
<g id="edge52" class="edge">
<title>Node5&#45;&gt;Node40</title>
<path fill="none" stroke="midnightblue" d="M529.21,-448.01C438.89,-433.83 400.65,-463.66 331,-412 291.94,-383.03 275.6,-322.34 270.7,-299.73"/>
<polygon fill="midnightblue" stroke="midnightblue" points="528.85,-451.5 539.3,-449.75 530.03,-444.6 528.85,-451.5"/>
</g>
<!-- Node41 -->
<g id="node40" class="node">
<title>Node41</title>
<g id="a_node40"><a xlink:href="CompListLoader_8h.html" target="_top" xlink:title=" ">
<polygon fill="none" stroke="black" points="328,-280.5 328,-299.5 432,-299.5 432,-280.5 328,-280.5"/>
<text text-anchor="middle" x="380" y="-287.5" font-family="Helvetica,sans-Serif" font-size="10.00">CompListLoader.h</text>
</a>
</g>
</g>
<!-- Node5&#45;&gt;Node41 -->
<g id="edge54" class="edge">
<title>Node5&#45;&gt;Node41</title>
<path fill="none" stroke="midnightblue" d="M529.41,-447.84C465.5,-435.46 359.48,-414.63 356,-412 327.15,-390.21 311.82,-368.81 327,-336 334.5,-319.79 351.04,-307.28 363.67,-299.61"/>
<polygon fill="midnightblue" stroke="midnightblue" points="528.8,-451.29 539.28,-449.75 530.13,-444.41 528.8,-451.29"/>
</g>
<!-- Node42 -->
<g id="node41" class="node">
<title>Node42</title>
<g id="a_node41"><a xlink:href="ConcatLoader_8h.html" target="_top" xlink:title=" ">
<polygon fill="none" stroke="black" points="336,-336.5 336,-355.5 428,-355.5 428,-336.5 336,-336.5"/>
<text text-anchor="middle" x="382" y="-343.5" font-family="Helvetica,sans-Serif" font-size="10.00">ConcatLoader.h</text>
</a>
</g>
</g>
<!-- Node5&#45;&gt;Node42 -->
<g id="edge56" class="edge">
<title>Node5&#45;&gt;Node42</title>
<path fill="none" stroke="midnightblue" d="M529.29,-447.64C467.58,-435.43 367.61,-415.23 365,-412 351.49,-395.32 366.18,-369.04 375.52,-355.58"/>
<polygon fill="midnightblue" stroke="midnightblue" points="528.73,-451.1 539.22,-449.6 530.09,-444.23 528.73,-451.1"/>
</g>
<!-- Node43 -->
<g id="node42" class="node">
<title>Node43</title>
<g id="a_node42"><a xlink:href="ExprLoader_8h.html" target="_top" xlink:title=" ">
<polygon fill="none" stroke="black" points="602,-280.5 602,-299.5 682,-299.5 682,-280.5 602,-280.5"/>
<text text-anchor="middle" x="642" y="-287.5" font-family="Helvetica,sans-Serif" font-size="10.00">ExprLoader.h</text>
</a>
</g>
</g>
<!-- Node5&#45;&gt;Node43 -->
<g id="edge58" class="edge">
<title>Node5&#45;&gt;Node43</title>
<path fill="none" stroke="midnightblue" d="M601.44,-442.9C612.4,-435.23 624.33,-424.7 631,-412 650.9,-374.09 646.16,-320.22 643.34,-299.54"/>
<polygon fill="midnightblue" stroke="midnightblue" points="599.44,-440.03 592.99,-448.43 603.27,-445.89 599.44,-440.03"/>
</g>
<!-- Node44 -->
<g id="node43" class="node">
<title>Node44</title>
<g id="a_node43"><a xlink:href="FitsLoader_8h.html" target="_top" xlink:title=" ">
<polygon fill="none" stroke="black" points="484.5,-336.5 484.5,-355.5 559.5,-355.5 559.5,-336.5 484.5,-336.5"/>
<text text-anchor="middle" x="522" y="-343.5" font-family="Helvetica,sans-Serif" font-size="10.00">FitsLoader.h</text>
</a>
</g>
</g>
<!-- Node5&#45;&gt;Node44 -->
<g id="edge61" class="edge">
<title>Node5&#45;&gt;Node44</title>
<path fill="none" stroke="midnightblue" d="M552.67,-442.97C541.84,-435.32 530.16,-424.79 524,-412 515.08,-393.49 517.83,-368.44 520.17,-355.51"/>
<polygon fill="midnightblue" stroke="midnightblue" points="550.77,-445.91 561.05,-448.48 554.62,-440.06 550.77,-445.91"/>
</g>
<!-- Node45 -->
<g id="node44" class="node">
<title>Node45</title>
<g id="a_node44"><a xlink:href="ImagePtrLoader_8h.html" target="_top" xlink:title=" ">
<polygon fill="none" stroke="black" points="374,-392.5 374,-411.5 476,-411.5 476,-392.5 374,-392.5"/>
<text text-anchor="middle" x="425" y="-399.5" font-family="Helvetica,sans-Serif" font-size="10.00">ImagePtrLoader.h</text>
</a>
</g>
</g>
<!-- Node5&#45;&gt;Node45 -->
<g id="edge64" class="edge">
<title>Node5&#45;&gt;Node45</title>
<path fill="none" stroke="midnightblue" d="M543.33,-445.04C514.73,-434.88 474.39,-420.55 448.97,-411.52"/>
<polygon fill="midnightblue" stroke="midnightblue" points="542.32,-448.39 552.92,-448.44 544.66,-441.8 542.32,-448.39"/>
</g>
<!-- Node46 -->
<g id="node45" class="node">
<title>Node46</title>
<g id="a_node45"><a xlink:href="MiriadLoader_8h.html" target="_top" xlink:title=" ">
<polygon fill="none" stroke="black" points="532.5,-392.5 532.5,-411.5 621.5,-411.5 621.5,-392.5 532.5,-392.5"/>
<text text-anchor="middle" x="577" y="-399.5" font-family="Helvetica,sans-Serif" font-size="10.00">MiriadLoader.h</text>
</a>
</g>
</g>
<!-- Node5&#45;&gt;Node46 -->
<g id="edge66" class="edge">
<title>Node5&#45;&gt;Node46</title>
<path fill="none" stroke="midnightblue" d="M577,-437.8C577,-428.91 577,-418.78 577,-411.75"/>
<polygon fill="midnightblue" stroke="midnightblue" points="573.5,-438.08 577,-448.08 580.5,-438.08 573.5,-438.08"/>
</g>
<!-- Node47 -->
<g id="node46" class="node">
<title>Node47</title>
<g id="a_node46"><a xlink:href="StokesFilesConnector_8h.html" target="_top" xlink:title=" ">
<polygon fill="none" stroke="black" points="977.5,-392.5 977.5,-411.5 1106.5,-411.5 1106.5,-392.5 977.5,-392.5"/>
<text text-anchor="middle" x="1042" y="-399.5" font-family="Helvetica,sans-Serif" font-size="10.00">StokesFilesConnector.h</text>
</a>
</g>
</g>
<!-- Node5&#45;&gt;Node47 -->
<g id="edge68" class="edge">
<title>Node5&#45;&gt;Node47</title>
<path fill="none" stroke="midnightblue" d="M624.67,-451.46C708.56,-441.72 882.61,-421.51 977.28,-410.52"/>
<polygon fill="midnightblue" stroke="midnightblue" points="624.19,-448 614.66,-452.63 625,-454.95 624.19,-448"/>
</g>
<!-- Node49 -->
<g id="node48" class="node">
<title>Node49</title>
<g id="a_node48"><a xlink:href="PvGenerator_8h.html" target="_top" xlink:title=" ">
<polygon fill="none" stroke="black" points="718,-392.5 718,-411.5 804,-411.5 804,-392.5 718,-392.5"/>
<text text-anchor="middle" x="761" y="-399.5" font-family="Helvetica,sans-Serif" font-size="10.00">PvGenerator.h</text>
</a>
</g>
</g>
<!-- Node5&#45;&gt;Node49 -->
<g id="edge71" class="edge">
<title>Node5&#45;&gt;Node49</title>
<path fill="none" stroke="midnightblue" d="M615.95,-445.57C650.66,-435.38 700.68,-420.7 731.98,-411.52"/>
<polygon fill="midnightblue" stroke="midnightblue" points="614.77,-442.27 606.16,-448.44 616.74,-448.99 614.77,-442.27"/>
</g>
<!-- Node7 -->
<g id="node7" class="node">
<title>Node7</title>
<g id="a_node7"><a xlink:href="TileCache_8cc.html" target="_top" xlink:title=" ">
<polygon fill="none" stroke="black" points="862,-336.5 862,-355.5 940,-355.5 940,-336.5 862,-336.5"/>
<text text-anchor="middle" x="901" y="-343.5" font-family="Helvetica,sans-Serif" font-size="10.00">TileCache.cc</text>
</a>
</g>
</g>
<!-- Node6&#45;&gt;Node7 -->
<g id="edge6" class="edge">
<title>Node6&#45;&gt;Node7</title>
<path fill="none" stroke="midnightblue" d="M889.86,-382.4C892.7,-373.36 895.98,-362.94 898.25,-355.75"/>
<polygon fill="midnightblue" stroke="midnightblue" points="886.47,-381.49 886.81,-392.08 893.15,-383.6 886.47,-381.49"/>
</g>
<!-- Node6&#45;&gt;Node8 -->
<g id="edge7" class="edge">
<title>Node6&#45;&gt;Node8</title>
<path fill="none" stroke="midnightblue" d="M909.33,-387.59C928.19,-377.61 953.38,-364.27 969.65,-355.65"/>
<polygon fill="midnightblue" stroke="midnightblue" points="907.59,-384.55 900.39,-392.32 910.86,-390.74 907.59,-384.55"/>
</g>
<!-- Node9 -->
<g id="node9" class="node">
<title>Node9</title>
<g id="a_node9"><a xlink:href="Frame_8cc.html" target="_top" xlink:title=" ">
<polygon fill="none" stroke="black" points="914.5,-280.5 914.5,-299.5 975.5,-299.5 975.5,-280.5 914.5,-280.5"/>
<text text-anchor="middle" x="945" y="-287.5" font-family="Helvetica,sans-Serif" font-size="10.00">Frame.cc</text>
</a>
</g>
</g>
<!-- Node8&#45;&gt;Node9 -->
<g id="edge8" class="edge">
<title>Node8&#45;&gt;Node9</title>
<path fill="none" stroke="midnightblue" d="M972.98,-327.86C965.88,-318.5 957.4,-307.33 951.64,-299.75"/>
<polygon fill="midnightblue" stroke="midnightblue" points="970.39,-330.24 979.23,-336.08 975.97,-326 970.39,-330.24"/>
</g>
<!-- Node8&#45;&gt;Node10 -->
<g id="edge9" class="edge">
<title>Node8&#45;&gt;Node10</title>
<path fill="none" stroke="midnightblue" d="M947.96,-335.8C884.51,-321.29 821.65,-307.88 781.72,-299.49"/>
<polygon fill="midnightblue" stroke="midnightblue" points="947.21,-339.22 957.74,-338.05 948.77,-332.4 947.21,-339.22"/>
</g>
<!-- Node13 -->
<g id="node13" class="node">
<title>Node13</title>
<g id="a_node13"><a xlink:href="RegionHandler_8h.html" target="_top" xlink:title=" ">
<polygon fill="none" stroke="black" points="799.5,-280.5 799.5,-299.5 896.5,-299.5 896.5,-280.5 799.5,-280.5"/>
<text text-anchor="middle" x="848" y="-287.5" font-family="Helvetica,sans-Serif" font-size="10.00">RegionHandler.h</text>
</a>
</g>
</g>
<!-- Node8&#45;&gt;Node13 -->
<g id="edge12" class="edge">
<title>Node8&#45;&gt;Node13</title>
<path fill="none" stroke="midnightblue" d="M954.75,-332.77C928.83,-322.63 892.64,-308.47 869.76,-299.52"/>
<polygon fill="midnightblue" stroke="midnightblue" points="953.55,-336.06 964.13,-336.44 956.1,-329.54 953.55,-336.06"/>
</g>
<!-- Node21 -->
<g id="node21" class="node">
<title>Node21</title>
<g id="a_node21"><a xlink:href="Session_8h.html" target="_top" xlink:title=" ">
<polygon fill="none" stroke="black" points="972.5,-224.5 972.5,-243.5 1035.5,-243.5 1035.5,-224.5 972.5,-224.5"/>
<text text-anchor="middle" x="1004" y="-231.5" font-family="Helvetica,sans-Serif" font-size="10.00">Session.h</text>
</a>
</g>
</g>
<!-- Node8&#45;&gt;Node21 -->
<g id="edge47" class="edge">
<title>Node8&#45;&gt;Node21</title>
<path fill="none" stroke="midnightblue" d="M989.05,-326.35C992.99,-302.25 999.7,-261.31 1002.59,-243.59"/>
<polygon fill="midnightblue" stroke="midnightblue" points="985.57,-325.93 987.41,-336.37 992.48,-327.06 985.57,-325.93"/>
</g>
<!-- Node10&#45;&gt;Node11 -->
<g id="edge10" class="edge">
<title>Node10&#45;&gt;Node11</title>
<path fill="none" stroke="midnightblue" d="M692.48,-278.22C646.56,-268.01 578.55,-252.9 536.32,-243.52"/>
<polygon fill="midnightblue" stroke="midnightblue" points="691.97,-281.69 702.5,-280.44 693.49,-274.86 691.97,-281.69"/>
</g>
<!-- Node12 -->
<g id="node12" class="node">
<title>Node12</title>
<g id="a_node12"><a xlink:href="Hdf5Loader_8cc.html" target="_top" xlink:title=" ">
<polygon fill="none" stroke="black" points="610,-224.5 610,-243.5 696,-243.5 696,-224.5 610,-224.5"/>
<text text-anchor="middle" x="653" y="-231.5" font-family="Helvetica,sans-Serif" font-size="10.00">Hdf5Loader.cc</text>
</a>
</g>
</g>
<!-- Node10&#45;&gt;Node12 -->
<g id="edge11" class="edge">
<title>Node10&#45;&gt;Node12</title>
<path fill="none" stroke="midnightblue" d="M718.02,-274.9C701.89,-265 680.82,-252.07 667.1,-243.65"/>
<polygon fill="midnightblue" stroke="midnightblue" points="716.51,-278.08 726.86,-280.32 720.17,-272.11 716.51,-278.08"/>
</g>
<!-- Node14 -->
<g id="node14" class="node">
<title>Node14</title>
<g id="a_node14"><a xlink:href="RegionHandler_8cc.html" target="_top" xlink:title=" ">
<polygon fill="none" stroke="black" points="754.5,-112.5 754.5,-131.5 855.5,-131.5 855.5,-112.5 754.5,-112.5"/>
<text text-anchor="middle" x="805" y="-119.5" font-family="Helvetica,sans-Serif" font-size="10.00">RegionHandler.cc</text>
</a>
</g>
</g>
<!-- Node13&#45;&gt;Node14 -->
<g id="edge13" class="edge">
<title>Node13&#45;&gt;Node14</title>
<path fill="none" stroke="midnightblue" d="M851.9,-270.32C856.12,-245.84 860.57,-202.03 847,-168 840.98,-152.91 827.3,-139.88 817.18,-131.78"/>
<polygon fill="midnightblue" stroke="midnightblue" points="848.42,-269.9 849.98,-280.38 855.29,-271.21 848.42,-269.9"/>
</g>
<!-- Node15 -->
<g id="node15" class="node">
<title>Node15</title>
<g id="a_node15"><a xlink:href="RegionImportExport_8h.html" target="_top" xlink:title=" ">
<polygon fill="none" stroke="black" points="714.5,-224.5 714.5,-243.5 837.5,-243.5 837.5,-224.5 714.5,-224.5"/>
<text text-anchor="middle" x="776" y="-231.5" font-family="Helvetica,sans-Serif" font-size="10.00">RegionImportExport.h</text>
</a>
</g>
</g>
<!-- Node13&#45;&gt;Node15 -->
<g id="edge14" class="edge">
<title>Node13&#45;&gt;Node15</title>
<path fill="none" stroke="midnightblue" d="M828.13,-274.1C815.18,-264.38 798.7,-252.03 787.78,-243.83"/>
<polygon fill="midnightblue" stroke="midnightblue" points="826.33,-277.12 836.43,-280.32 830.53,-271.52 826.33,-277.12"/>
</g>
<!-- Node13&#45;&gt;Node21 -->
<g id="edge22" class="edge">
<title>Node13&#45;&gt;Node21</title>
<path fill="none" stroke="midnightblue" d="M882.17,-277.17C911.54,-267 953.2,-252.59 979.4,-243.52"/>
<polygon fill="midnightblue" stroke="midnightblue" points="881.02,-273.86 872.72,-280.44 883.31,-280.48 881.02,-273.86"/>
</g>
<!-- Node16 -->
<g id="node16" class="node">
<title>Node16</title>
<g id="a_node16"><a xlink:href="CrtfImportExport_8h.html" target="_top" xlink:title=" ">
<polygon fill="none" stroke="black" points="730.5,-168.5 730.5,-187.5 837.5,-187.5 837.5,-168.5 730.5,-168.5"/>
<text text-anchor="middle" x="784" y="-175.5" font-family="Helvetica,sans-Serif" font-size="10.00">CrtfImportExport.h</text>
</a>
</g>
</g>
<!-- Node15&#45;&gt;Node16 -->
<g id="edge15" class="edge">
<title>Node15&#45;&gt;Node16</title>
<path fill="none" stroke="midnightblue" d="M778.8,-214.1C780.13,-205.14 781.65,-194.86 782.7,-187.75"/>
<polygon fill="midnightblue" stroke="midnightblue" points="775.32,-213.68 777.32,-224.08 782.25,-214.7 775.32,-213.68"/>
</g>
<!-- Node18 -->
<g id="node18" class="node">
<title>Node18</title>
<g id="a_node18"><a xlink:href="Ds9ImportExport_8h.html" target="_top" xlink:title=" ">
<polygon fill="none" stroke="black" points="458,-168.5 458,-187.5 566,-187.5 566,-168.5 458,-168.5"/>
<text text-anchor="middle" x="512" y="-175.5" font-family="Helvetica,sans-Serif" font-size="10.00">Ds9ImportExport.h</text>
</a>
</g>
</g>
<!-- Node15&#45;&gt;Node18 -->
<g id="edge18" class="edge">
<title>Node15&#45;&gt;Node18</title>
<path fill="none" stroke="midnightblue" d="M724.22,-222.41C674.33,-212.2 599.8,-196.96 553.64,-187.52"/>
<polygon fill="midnightblue" stroke="midnightblue" points="723.67,-225.87 734.17,-224.44 725.07,-219.01 723.67,-225.87"/>
</g>
<!-- Node20 -->
<g id="node20" class="node">
<title>Node20</title>
<g id="a_node20"><a xlink:href="RegionImportExport_8cc.html" target="_top" xlink:title=" ">
<polygon fill="none" stroke="black" points="584,-168.5 584,-187.5 712,-187.5 712,-168.5 584,-168.5"/>
<text text-anchor="middle" x="648" y="-175.5" font-family="Helvetica,sans-Serif" font-size="10.00">RegionImportExport.cc</text>
</a>
</g>
</g>
<!-- Node15&#45;&gt;Node20 -->
<g id="edge21" class="edge">
<title>Node15&#45;&gt;Node20</title>
<path fill="none" stroke="midnightblue" d="M746.38,-220.5C722.38,-210.38 689.22,-196.39 668.19,-187.52"/>
<polygon fill="midnightblue" stroke="midnightblue" points="745.14,-223.78 755.72,-224.44 747.86,-217.33 745.14,-223.78"/>
</g>
<!-- Node16&#45;&gt;Node14 -->
<g id="edge17" class="edge">
<title>Node16&#45;&gt;Node14</title>
<path fill="none" stroke="midnightblue" d="M791.12,-158.69C794.66,-149.59 798.77,-139.01 801.6,-131.75"/>
<polygon fill="midnightblue" stroke="midnightblue" points="787.83,-157.49 787.47,-168.08 794.35,-160.03 787.83,-157.49"/>
</g>
<!-- Node17 -->
<g id="node17" class="node">
<title>Node17</title>
<g id="a_node17"><a xlink:href="CrtfImportExport_8cc.html" target="_top" xlink:title=" ">
<polygon fill="none" stroke="black" points="624,-112.5 624,-131.5 736,-131.5 736,-112.5 624,-112.5"/>
<text text-anchor="middle" x="680" y="-119.5" font-family="Helvetica,sans-Serif" font-size="10.00">CrtfImportExport.cc</text>
</a>
</g>
</g>
<!-- Node16&#45;&gt;Node17 -->
<g id="edge16" class="edge">
<title>Node16&#45;&gt;Node17</title>
<path fill="none" stroke="midnightblue" d="M758.17,-163.59C738.94,-153.61 713.26,-140.27 696.67,-131.65"/>
<polygon fill="midnightblue" stroke="midnightblue" points="756.8,-166.82 767.29,-168.32 760.03,-160.61 756.8,-166.82"/>
</g>
<!-- Node18&#45;&gt;Node14 -->
<g id="edge20" class="edge">
<title>Node18&#45;&gt;Node14</title>
<path fill="none" stroke="midnightblue" d="M568.43,-166.6C623.8,-156.4 707.23,-141.02 758.79,-131.52"/>
<polygon fill="midnightblue" stroke="midnightblue" points="567.63,-163.19 558.43,-168.44 568.9,-170.07 567.63,-163.19"/>
</g>
<!-- Node19 -->
<g id="node19" class="node">
<title>Node19</title>
<g id="a_node19"><a xlink:href="Ds9ImportExport_8cc.html" target="_top" xlink:title=" ">
<polygon fill="none" stroke="black" points="455.5,-112.5 455.5,-131.5 568.5,-131.5 568.5,-112.5 455.5,-112.5"/>
<text text-anchor="middle" x="512" y="-119.5" font-family="Helvetica,sans-Serif" font-size="10.00">Ds9ImportExport.cc</text>
</a>
</g>
</g>
<!-- Node18&#45;&gt;Node19 -->
<g id="edge19" class="edge">
<title>Node18&#45;&gt;Node19</title>
<path fill="none" stroke="midnightblue" d="M512,-157.8C512,-148.91 512,-138.78 512,-131.75"/>
<polygon fill="midnightblue" stroke="midnightblue" points="508.5,-158.08 512,-168.08 515.5,-158.08 508.5,-158.08"/>
</g>
<!-- Node22 -->
<g id="node22" class="node">
<title>Node22</title>
<g id="a_node22"><a xlink:href="CursorSettings_8cc.html" target="_top" xlink:title=" ">
<polygon fill="none" stroke="black" points="936.5,-168.5 936.5,-187.5 1037.5,-187.5 1037.5,-168.5 936.5,-168.5"/>
<text text-anchor="middle" x="987" y="-175.5" font-family="Helvetica,sans-Serif" font-size="10.00">CursorSettings.cc</text>
</a>
</g>
</g>
<!-- Node21&#45;&gt;Node22 -->
<g id="edge23" class="edge">
<title>Node21&#45;&gt;Node22</title>
<path fill="none" stroke="midnightblue" d="M998.14,-214.4C995.3,-205.36 992.02,-194.94 989.75,-187.75"/>
<polygon fill="midnightblue" stroke="midnightblue" points="994.85,-215.6 1001.19,-224.08 1001.53,-213.49 994.85,-215.6"/>
</g>
<!-- Node23 -->
<g id="node23" class="node">
<title>Node23</title>
<g id="a_node23"><a xlink:href="OnMessageTask_8h.html" target="_top" xlink:title=" ">
<polygon fill="none" stroke="black" points="1014,-112.5 1014,-131.5 1118,-131.5 1118,-112.5 1014,-112.5"/>
<text text-anchor="middle" x="1066" y="-119.5" font-family="Helvetica,sans-Serif" font-size="10.00">OnMessageTask.h</text>
</a>
</g>
</g>
<!-- Node21&#45;&gt;Node23 -->
<g id="edge24" class="edge">
<title>Node21&#45;&gt;Node23</title>
<path fill="none" stroke="midnightblue" d="M1022.41,-217.54C1030.96,-209.51 1040.61,-199.06 1047,-188 1057.7,-169.47 1062.79,-144.43 1064.84,-131.51"/>
<polygon fill="midnightblue" stroke="midnightblue" points="1019.81,-215.17 1014.7,-224.45 1024.48,-220.38 1019.81,-215.17"/>
</g>
<!-- Node25 -->
<g id="node25" class="node">
<title>Node25</title>
<g id="a_node25"><a xlink:href="Session_8cc.html" target="_top" xlink:title=" ">
<polygon fill="none" stroke="black" points="469,-0.5 469,-19.5 537,-19.5 537,-0.5 469,-0.5"/>
<text text-anchor="middle" x="503" y="-7.5" font-family="Helvetica,sans-Serif" font-size="10.00">Session.cc</text>
</a>
</g>
</g>
<!-- Node21&#45;&gt;Node25 -->
<g id="edge40" class="edge">
<title>Node21&#45;&gt;Node25</title>
<path fill="none" stroke="midnightblue" d="M976.73,-219.81C961.54,-211.77 942.78,-200.61 928,-188 894.63,-159.51 901.81,-135.87 865,-112 836.94,-93.8 621.69,-39.98 537.04,-19.26"/>
<polygon fill="midnightblue" stroke="midnightblue" points="975.16,-222.94 985.66,-224.41 978.37,-216.72 975.16,-222.94"/>
</g>
<!-- Node36 -->
<g id="node36" class="node">
<title>Node36</title>
<g id="a_node36"><a xlink:href="SessionManager_8h.html" target="_top" xlink:title=" ">
<polygon fill="none" stroke="black" points="1354.5,-168.5 1354.5,-187.5 1459.5,-187.5 1459.5,-168.5 1354.5,-168.5"/>
<text text-anchor="middle" x="1407" y="-175.5" font-family="Helvetica,sans-Serif" font-size="10.00">SessionManager.h</text>
</a>
</g>
</g>
<!-- Node21&#45;&gt;Node36 -->
<g id="edge41" class="edge">
<title>Node21&#45;&gt;Node36</title>
<path fill="none" stroke="midnightblue" d="M1045.94,-227.38C1119.92,-217.47 1273.4,-196.9 1354.37,-186.05"/>
<polygon fill="midnightblue" stroke="midnightblue" points="1045.07,-223.97 1035.62,-228.76 1046,-230.9 1045.07,-223.97"/>
</g>
<!-- Node24 -->
<g id="node24" class="node">
<title>Node24</title>
<g id="a_node24"><a xlink:href="OnMessageTask_8cc.html" target="_top" xlink:title=" ">
<polygon fill="none" stroke="black" points="555.5,-0.5 555.5,-19.5 664.5,-19.5 664.5,-0.5 555.5,-0.5"/>
<text text-anchor="middle" x="610" y="-7.5" font-family="Helvetica,sans-Serif" font-size="10.00">OnMessageTask.cc</text>
</a>
</g>
</g>
<!-- Node23&#45;&gt;Node24 -->
<g id="edge25" class="edge">
<title>Node23&#45;&gt;Node24</title>
<path fill="none" stroke="midnightblue" d="M1044.37,-106.79C1017.82,-89.61 974.11,-62.21 956,-56 836.48,-15.02 799.23,-36.8 674,-20 671,-19.6 667.92,-19.18 664.81,-18.75"/>
<polygon fill="midnightblue" stroke="midnightblue" points="1042.68,-109.87 1052.97,-112.39 1046.5,-104 1042.68,-109.87"/>
</g>
<!-- Node23&#45;&gt;Node25 -->
<g id="edge26" class="edge">
<title>Node23&#45;&gt;Node25</title>
<path fill="none" stroke="midnightblue" d="M1033.82,-108.78C1011.7,-100.15 981.78,-88.03 956,-76 938.7,-67.93 936.29,-61.47 918,-56 759.28,-8.53 710.82,-44.63 547,-20 543.76,-19.51 540.4,-18.94 537.05,-18.33"/>
<polygon fill="midnightblue" stroke="midnightblue" points="1032.81,-112.14 1043.4,-112.49 1035.33,-105.61 1032.81,-112.14"/>
</g>
<!-- Node26 -->
<g id="node26" class="node">
<title>Node26</title>
<g id="a_node26"><a xlink:href="SessionManager_8cc.html" target="_top" xlink:title=" ">
<polygon fill="none" stroke="black" points="1386,-0.5 1386,-19.5 1496,-19.5 1496,-0.5 1386,-0.5"/>
<text text-anchor="middle" x="1441" y="-7.5" font-family="Helvetica,sans-Serif" font-size="10.00">SessionManager.cc</text>
</a>
</g>
</g>
<!-- Node23&#45;&gt;Node26 -->
<g id="edge27" class="edge">
<title>Node23&#45;&gt;Node26</title>
<path fill="none" stroke="midnightblue" d="M1105.17,-109.51C1180.74,-87.34 1345.11,-39.13 1411.9,-19.53"/>
<polygon fill="midnightblue" stroke="midnightblue" points="1103.72,-106.29 1095.11,-112.46 1105.69,-113 1103.72,-106.29"/>
</g>
<!-- Node27 -->
<g id="node27" class="node">
<title>Node27</title>
<g id="a_node27"><a xlink:href="ThreadingManager_8h.html" target="_top" xlink:title=" ">
<polygon fill="none" stroke="black" points="1008,-56.5 1008,-75.5 1124,-75.5 1124,-56.5 1008,-56.5"/>
<text text-anchor="middle" x="1066" y="-63.5" font-family="Helvetica,sans-Serif" font-size="10.00">ThreadingManager.h</text>
</a>
</g>
</g>
<!-- Node23&#45;&gt;Node27 -->
<g id="edge28" class="edge">
<title>Node23&#45;&gt;Node27</title>
<path fill="none" stroke="midnightblue" d="M1066,-101.8C1066,-92.91 1066,-82.78 1066,-75.75"/>
<polygon fill="midnightblue" stroke="midnightblue" points="1062.5,-102.08 1066,-112.08 1069.5,-102.08 1062.5,-102.08"/>
</g>
<!-- Node27&#45;&gt;Node24 -->
<g id="edge33" class="edge">
<title>Node27&#45;&gt;Node24</title>
<path fill="none" stroke="midnightblue" d="M997.83,-56.46C996.55,-56.3 995.27,-56.15 994,-56 851.88,-39.12 815.99,-37.97 674,-20 670.99,-19.62 667.91,-19.22 664.8,-18.81"/>
<polygon fill="midnightblue" stroke="midnightblue" points="997.5,-59.94 1007.85,-57.67 998.34,-52.99 997.5,-59.94"/>
</g>
<!-- Node27&#45;&gt;Node25 -->
<g id="edge34" class="edge">
<title>Node27&#45;&gt;Node25</title>
<path fill="none" stroke="midnightblue" d="M997.23,-59.25C861.2,-47.84 568.92,-23.18 547,-20 543.76,-19.53 540.4,-18.97 537.04,-18.37"/>
<polygon fill="midnightblue" stroke="midnightblue" points="997.28,-62.77 1007.54,-60.11 997.87,-55.79 997.28,-62.77"/>
</g>
<!-- Node27&#45;&gt;Node26 -->
<g id="edge35" class="edge">
<title>Node27&#45;&gt;Node26</title>
<path fill="none" stroke="midnightblue" d="M1134.09,-55.2C1206.26,-44.8 1318.86,-28.59 1385.74,-18.96"/>
<polygon fill="midnightblue" stroke="midnightblue" points="1133.58,-51.73 1124.18,-56.62 1134.58,-58.66 1133.58,-51.73"/>
</g>
<!-- Node28 -->
<g id="node28" class="node">
<title>Node28</title>
<g id="a_node28"><a xlink:href="Contouring_8cc.html" target="_top" xlink:title=" ">
<polygon fill="none" stroke="black" points="1084.5,-0.5 1084.5,-19.5 1167.5,-19.5 1167.5,-0.5 1084.5,-0.5"/>
<text text-anchor="middle" x="1126" y="-7.5" font-family="Helvetica,sans-Serif" font-size="10.00">Contouring.cc</text>
</a>
</g>
</g>
<!-- Node27&#45;&gt;Node28 -->
<g id="edge29" class="edge">
<title>Node27&#45;&gt;Node28</title>
<path fill="none" stroke="midnightblue" d="M1083.18,-49.54C1093.88,-39.91 1107.26,-27.87 1116.18,-19.83"/>
<polygon fill="midnightblue" stroke="midnightblue" points="1080.73,-47.03 1075.64,-56.32 1085.41,-52.24 1080.73,-47.03"/>
</g>
<!-- Node29 -->
<g id="node29" class="node">
<title>Node29</title>
<g id="a_node29"><a xlink:href="Smoothing_8cc.html" target="_top" xlink:title=" ">
<polygon fill="none" stroke="black" points="1185.5,-0.5 1185.5,-19.5 1268.5,-19.5 1268.5,-0.5 1185.5,-0.5"/>
<text text-anchor="middle" x="1227" y="-7.5" font-family="Helvetica,sans-Serif" font-size="10.00">Smoothing.cc</text>
</a>
</g>
</g>
<!-- Node27&#45;&gt;Node29 -->
<g id="edge30" class="edge">
<title>Node27&#45;&gt;Node29</title>
<path fill="none" stroke="midnightblue" d="M1101.26,-53.17C1131.58,-43 1174.57,-28.59 1201.61,-19.52"/>
<polygon fill="midnightblue" stroke="midnightblue" points="1099.88,-49.95 1091.51,-56.44 1102.1,-56.58 1099.88,-49.95"/>
</g>
<!-- Node30 -->
<g id="node30" class="node">
<title>Node30</title>
<g id="a_node30"><a xlink:href="Histogram_8cc.html" target="_top" xlink:title=" ">
<polygon fill="none" stroke="black" points="1286.5,-0.5 1286.5,-19.5 1367.5,-19.5 1367.5,-0.5 1286.5,-0.5"/>
<text text-anchor="middle" x="1327" y="-7.5" font-family="Helvetica,sans-Serif" font-size="10.00">Histogram.cc</text>
</a>
</g>
</g>
<!-- Node27&#45;&gt;Node30 -->
<g id="edge31" class="edge">
<title>Node27&#45;&gt;Node30</title>
<path fill="none" stroke="midnightblue" d="M1117.22,-54.4C1166.7,-44.17 1240.67,-28.86 1286.27,-19.43"/>
<polygon fill="midnightblue" stroke="midnightblue" points="1116.44,-50.99 1107.36,-56.44 1117.86,-57.84 1116.44,-50.99"/>
</g>
<!-- Node31 -->
<g id="node31" class="node">
<title>Node31</title>
<g id="a_node31"><a xlink:href="Main_8cc.html" target="_top" xlink:title=" ">
<polygon fill="none" stroke="black" points="1514,-0.5 1514,-19.5 1568,-19.5 1568,-0.5 1514,-0.5"/>
<text text-anchor="middle" x="1541" y="-7.5" font-family="Helvetica,sans-Serif" font-size="10.00">Main.cc</text>
</a>
</g>
</g>
<!-- Node27&#45;&gt;Node31 -->
<g id="edge32" class="edge">
<title>Node27&#45;&gt;Node31</title>
<path fill="none" stroke="midnightblue" d="M1134.48,-61.02C1221.21,-55.28 1375.02,-42.79 1505,-20 1507.92,-19.49 1510.95,-18.87 1513.96,-18.2"/>
<polygon fill="midnightblue" stroke="midnightblue" points="1133.99,-57.54 1124.24,-61.69 1134.45,-64.53 1133.99,-57.54"/>
</g>
<!-- Node32 -->
<g id="node32" class="node">
<title>Node32</title>
<g id="a_node32"><a xlink:href="Columns_8cc.html" target="_top" xlink:title=" ">
<polygon fill="none" stroke="black" points="682.5,-0.5 682.5,-19.5 755.5,-19.5 755.5,-0.5 682.5,-0.5"/>
<text text-anchor="middle" x="719" y="-7.5" font-family="Helvetica,sans-Serif" font-size="10.00">Columns.cc</text>
</a>
</g>
</g>
<!-- Node27&#45;&gt;Node32 -->
<g id="edge36" class="edge">
<title>Node27&#45;&gt;Node32</title>
<path fill="none" stroke="midnightblue" d="M997.98,-55.72C936.89,-47.17 844.78,-33.76 765,-20 761.95,-19.47 758.8,-18.91 755.63,-18.32"/>
<polygon fill="midnightblue" stroke="midnightblue" points="997.5,-59.19 1007.89,-57.1 998.47,-52.25 997.5,-59.19"/>
</g>
<!-- Node33 -->
<g id="node33" class="node">
<title>Node33</title>
<g id="a_node33"><a xlink:href="Table_8cc.html" target="_top" xlink:title=" ">
<polygon fill="none" stroke="black" points="774,-0.5 774,-19.5 830,-19.5 830,-0.5 774,-0.5"/>
<text text-anchor="middle" x="802" y="-7.5" font-family="Helvetica,sans-Serif" font-size="10.00">Table.cc</text>
</a>
</g>
</g>
<!-- Node27&#45;&gt;Node33 -->
<g id="edge37" class="edge">
<title>Node27&#45;&gt;Node33</title>
<path fill="none" stroke="midnightblue" d="M1010.42,-54.51C964.6,-45.73 897.96,-32.63 840,-20 836.82,-19.31 833.5,-18.56 830.2,-17.8"/>
<polygon fill="midnightblue" stroke="midnightblue" points="1009.97,-57.99 1020.45,-56.43 1011.28,-51.11 1009.97,-57.99"/>
</g>
<!-- Node34 -->
<g id="node34" class="node">
<title>Node34</title>
<g id="a_node34"><a xlink:href="TableView_8cc.html" target="_top" xlink:title=" ">
<polygon fill="none" stroke="black" points="848.5,-0.5 848.5,-19.5 927.5,-19.5 927.5,-0.5 848.5,-0.5"/>
<text text-anchor="middle" x="888" y="-7.5" font-family="Helvetica,sans-Serif" font-size="10.00">TableView.cc</text>
</a>
</g>
</g>
<!-- Node27&#45;&gt;Node34 -->
<g id="edge38" class="edge">
<title>Node27&#45;&gt;Node34</title>
<path fill="none" stroke="midnightblue" d="M1027.88,-53.44C994.32,-43.26 946.23,-28.66 916.07,-19.52"/>
<polygon fill="midnightblue" stroke="midnightblue" points="1027.21,-56.89 1037.8,-56.44 1029.24,-50.19 1027.21,-56.89"/>
</g>
<!-- Node35 -->
<g id="node35" class="node">
<title>Node35</title>
<g id="a_node35"><a xlink:href="ThreadingManager_8cc.html" target="_top" xlink:title=" ">
<polygon fill="none" stroke="black" points="945.5,-0.5 945.5,-19.5 1066.5,-19.5 1066.5,-0.5 945.5,-0.5"/>
<text text-anchor="middle" x="1006" y="-7.5" font-family="Helvetica,sans-Serif" font-size="10.00">ThreadingManager.cc</text>
</a>
</g>
</g>
<!-- Node27&#45;&gt;Node35 -->
<g id="edge39" class="edge">
<title>Node27&#45;&gt;Node35</title>
<path fill="none" stroke="midnightblue" d="M1048.82,-49.54C1038.12,-39.91 1024.74,-27.87 1015.82,-19.83"/>
<polygon fill="midnightblue" stroke="midnightblue" points="1046.59,-52.24 1056.36,-56.32 1051.27,-47.03 1046.59,-52.24"/>
</g>
<!-- Node36&#45;&gt;Node23 -->
<g id="edge45" class="edge">
<title>Node36&#45;&gt;Node23</title>
<path fill="none" stroke="midnightblue" d="M1344.35,-167.08C1279.33,-156.78 1178.82,-140.87 1118.03,-131.24"/>
<polygon fill="midnightblue" stroke="midnightblue" points="1344.04,-170.57 1354.47,-168.68 1345.14,-163.66 1344.04,-170.57"/>
</g>
<!-- Node36&#45;&gt;Node26 -->
<g id="edge46" class="edge">
<title>Node36&#45;&gt;Node26</title>
<path fill="none" stroke="midnightblue" d="M1409.28,-158.28C1412.38,-134.37 1418.52,-91.79 1427,-56 1430.06,-43.1 1434.85,-28.51 1437.96,-19.53"/>
<polygon fill="midnightblue" stroke="midnightblue" points="1405.78,-158.05 1408.01,-168.41 1412.73,-158.93 1405.78,-158.05"/>
</g>
<!-- Node36&#45;&gt;Node31 -->
<g id="edge44" class="edge">
<title>Node36&#45;&gt;Node31</title>
<path fill="none" stroke="midnightblue" d="M1429.84,-162.8C1455.9,-145.45 1497.99,-113.69 1522,-76 1533.5,-57.95 1538.25,-32.71 1540.04,-19.63"/>
<polygon fill="midnightblue" stroke="midnightblue" points="1427.82,-159.94 1421.35,-168.33 1431.64,-165.81 1427.82,-159.94"/>
</g>
<!-- Node37 -->
<g id="node37" class="node">
<title>Node37</title>
<g id="a_node37"><a xlink:href="HttpServer_8h.html" target="_top" xlink:title=" ">
<polygon fill="none" stroke="red" points="1435.5,-56.5 1435.5,-75.5 1512.5,-75.5 1512.5,-56.5 1435.5,-56.5"/>
<text text-anchor="middle" x="1474" y="-63.5" font-family="Helvetica,sans-Serif" font-size="10.00">HttpServer.h</text>
</a>
</g>
</g>
<!-- Node36&#45;&gt;Node37 -->
<g id="edge42" class="edge">
<title>Node36&#45;&gt;Node37</title>
<path fill="none" stroke="midnightblue" d="M1417.57,-159.64C1432.13,-135.74 1457.78,-93.63 1468.77,-75.59"/>
<polygon fill="midnightblue" stroke="midnightblue" points="1414.47,-158.01 1412.26,-168.37 1420.45,-161.65 1414.47,-158.01"/>
</g>
<!-- Node37&#45;&gt;Node31 -->
<g id="edge43" class="edge">
<title>Node37&#45;&gt;Node31</title>
<path fill="none" stroke="midnightblue" d="M1492.83,-49.82C1504.84,-40.15 1519.97,-27.95 1530.04,-19.83"/>
<polygon fill="midnightblue" stroke="midnightblue" points="1490.35,-47.32 1484.76,-56.32 1494.75,-52.77 1490.35,-47.32"/>
</g>
<!-- Node39&#45;&gt;Node2 -->
<g id="edge49" class="edge">
<title>Node39&#45;&gt;Node2</title>
<path fill="none" stroke="midnightblue" d="M112.42,-386.38C98.69,-376.62 81.07,-364.11 69.43,-355.83"/>
<polygon fill="midnightblue" stroke="midnightblue" points="110.61,-389.38 120.79,-392.32 114.66,-383.68 110.61,-389.38"/>
</g>
<!-- Node39&#45;&gt;Node25 -->
<g id="edge50" class="edge">
<title>Node39&#45;&gt;Node25</title>
<path fill="none" stroke="midnightblue" d="M139.04,-382.45C145.55,-360.76 155,-323.67 155,-291 155,-291 155,-291 155,-121 155,-55.58 381.43,-24.13 469,-14.41"/>
<polygon fill="midnightblue" stroke="midnightblue" points="135.61,-381.69 135.97,-392.28 142.29,-383.78 135.61,-381.69"/>
</g>
<!-- Node40&#45;&gt;Node11 -->
<g id="edge53" class="edge">
<title>Node40&#45;&gt;Node11</title>
<path fill="none" stroke="midnightblue" d="M315.27,-278.09C358.54,-267.89 422.26,-252.86 461.88,-243.52"/>
<polygon fill="midnightblue" stroke="midnightblue" points="314.22,-274.74 305.29,-280.44 315.82,-281.55 314.22,-274.74"/>
</g>
<!-- Node41&#45;&gt;Node11 -->
<g id="edge55" class="edge">
<title>Node41&#45;&gt;Node11</title>
<path fill="none" stroke="midnightblue" d="M407.9,-276.23C429.97,-266.13 460.18,-252.31 479.39,-243.52"/>
<polygon fill="midnightblue" stroke="midnightblue" points="406.33,-273.1 398.7,-280.44 409.25,-279.46 406.33,-273.1"/>
</g>
<!-- Node42&#45;&gt;Node11 -->
<g id="edge57" class="edge">
<title>Node42&#45;&gt;Node11</title>
<path fill="none" stroke="midnightblue" d="M403.04,-330.52C414.68,-322.14 429.15,-311.07 441,-300 460.74,-281.56 480.9,-256.92 491.13,-243.91"/>
<polygon fill="midnightblue" stroke="midnightblue" points="400.92,-327.74 394.78,-336.37 404.96,-333.45 400.92,-327.74"/>
</g>
<!-- Node43&#45;&gt;Node11 -->
<g id="edge59" class="edge">
<title>Node43&#45;&gt;Node11</title>
<path fill="none" stroke="midnightblue" d="M609.75,-276.91C582.68,-266.75 544.68,-252.51 520.71,-243.52"/>
<polygon fill="midnightblue" stroke="midnightblue" points="608.59,-280.21 619.18,-280.44 611.05,-273.66 608.59,-280.21"/>
</g>
<!-- Node44&#45;&gt;Node11 -->
<g id="edge62" class="edge">
<title>Node44&#45;&gt;Node11</title>
<path fill="none" stroke="midnightblue" d="M519.83,-325.99C518.16,-312.96 515.54,-295.31 512,-280 509.02,-267.09 504.2,-252.5 501.07,-243.52"/>
<polygon fill="midnightblue" stroke="midnightblue" points="516.38,-326.58 521.06,-336.09 523.33,-325.74 516.38,-326.58"/>
</g>
<!-- Node45&#45;&gt;Node11 -->
<g id="edge65" class="edge">
<title>Node45&#45;&gt;Node11</title>
<path fill="none" stroke="midnightblue" d="M432.98,-382.86C448.64,-347.25 482.85,-269.45 494.23,-243.57"/>
<polygon fill="midnightblue" stroke="midnightblue" points="429.75,-381.51 428.92,-392.08 436.15,-384.33 429.75,-381.51"/>
</g>
<!-- Node46&#45;&gt;Node11 -->
<g id="edge67" class="edge">
<title>Node46&#45;&gt;Node11</title>
<path fill="none" stroke="midnightblue" d="M576.69,-381.99C575.92,-368.7 573.76,-350.78 568,-336 553.12,-297.84 521.18,-260.11 506.15,-243.63"/>
<polygon fill="midnightblue" stroke="midnightblue" points="573.2,-382.4 577.06,-392.27 580.2,-382.15 573.2,-382.4"/>
</g>
<!-- Node47&#45;&gt;Node21 -->
<g id="edge70" class="edge">
<title>Node47&#45;&gt;Node21</title>
<path fill="none" stroke="midnightblue" d="M1037.63,-381.93C1029.39,-345.92 1011.84,-269.23 1005.96,-243.57"/>
<polygon fill="midnightblue" stroke="midnightblue" points="1034.31,-383.11 1039.96,-392.08 1041.14,-381.55 1034.31,-383.11"/>
</g>
<!-- Node47&#45;&gt;Node48 -->
<g id="edge69" class="edge">
<title>Node47&#45;&gt;Node48</title>
<path fill="none" stroke="midnightblue" d="M1066.32,-387.18C1083.8,-377.24 1106.83,-364.15 1121.77,-355.65"/>
<polygon fill="midnightblue" stroke="midnightblue" points="1064.23,-384.34 1057.26,-392.32 1067.69,-390.43 1064.23,-384.34"/>
</g>
<!-- Node49&#45;&gt;Node13 -->
<g id="edge73" class="edge">
<title>Node49&#45;&gt;Node13</title>
<path fill="none" stroke="midnightblue" d="M782.72,-386.15C793.37,-378.11 805.85,-367.48 815,-356 829.36,-337.99 839.98,-312.73 844.92,-299.64"/>
<polygon fill="midnightblue" stroke="midnightblue" points="780.34,-383.55 774.31,-392.26 784.46,-389.22 780.34,-383.55"/>
</g>
<!-- Node50 -->
<g id="node49" class="node">
<title>Node50</title>
<g id="a_node49"><a xlink:href="PvGenerator_8cc.html" target="_top" xlink:title=" ">
<polygon fill="none" stroke="black" points="716,-336.5 716,-355.5 806,-355.5 806,-336.5 716,-336.5"/>
<text text-anchor="middle" x="761" y="-343.5" font-family="Helvetica,sans-Serif" font-size="10.00">PvGenerator.cc</text>
</a>
</g>
</g>
<!-- Node49&#45;&gt;Node50 -->
<g id="edge72" class="edge">
<title>Node49&#45;&gt;Node50</title>
<path fill="none" stroke="midnightblue" d="M761,-381.8C761,-372.91 761,-362.78 761,-355.75"/>
<polygon fill="midnightblue" stroke="midnightblue" points="757.5,-382.08 761,-392.08 764.5,-382.08 757.5,-382.08"/>
</g>
</g>
</svg>
