<?xml version="1.0" encoding="UTF-8" standalone="no"?>
<!DOCTYPE svg PUBLIC "-//W3C//DTD SVG 1.1//EN"
 "http://www.w3.org/Graphics/SVG/1.1/DTD/svg11.dtd">
<!-- Generated by graphviz version 2.43.0 (0)
 -->
<!-- Title: Casacore.cc Pages: 1 -->
<!--zoomable 207 -->
<svg id="main" version="1.1" xmlns="http://www.w3.org/2000/svg" xmlns:xlink="http://www.w3.org/1999/xlink" xml:space="preserve" onload="init(evt)">
<style type="text/css"><![CDATA[
.edge:hover path { stroke: red; }
.edge:hover polygon { stroke: red; fill: red; }
]]></style>
<script type="text/javascript"><![CDATA[
var edges = document.getElementsByTagName('g');
if (edges && edges.length) {
  for (var i=0;i<edges.length;i++) {
    if (edges[i].id.substr(0,4)=='edge') {
      edges[i].setAttribute('class','edge');
    }
  }
}
]]></script>
        <defs>
                <circle id="rim" cx="0" cy="0" r="7"/>
                <circle id="rim2" cx="0" cy="0" r="3.5"/>
                <g id="zoomPlus">
                        <use xlink:href="#rim" fill="#404040">
                                <set attributeName="fill" to="#808080" begin="zoomplus.mouseover" end="zoomplus.mouseout"/>
                        </use>
                        <path d="M-4,0h8M0,-4v8" fill="none" stroke="white" stroke-width="1.5" pointer-events="none"/>
                </g>
                <g id="zoomMin">
                        <use xlink:href="#rim" fill="#404040">
                                <set attributeName="fill" to="#808080" begin="zoomminus.mouseover" end="zoomminus.mouseout"/>
                        </use>
                        <path d="M-4,0h8" fill="none" stroke="white" stroke-width="1.5" pointer-events="none"/>
                </g>
                <g id="dirArrow">
                        <path fill="none" stroke="white" stroke-width="1.5" d="M0,-3.0v7 M-2.5,-0.5L0,-3.0L2.5,-0.5"/>
                </g>
               <g id="resetDef">
                       <use xlink:href="#rim2" fill="#404040">
                               <set attributeName="fill" to="#808080" begin="reset.mouseover" end="reset.mouseout"/>
                       </use>
               </g>
        </defs>

<script type="text/javascript">
var viewWidth = 1984;
var viewHeight = 207;
var sectionId = 'dynsection-0';
</script>
<script xlink:href="svgpan.js"/>
<svg id="graph" class="graph">
<g id="viewport">
<title>Casacore.cc</title>
<!-- Node1 -->
<g id="node1" class="node">
<title>Node1</title>
<g id="a_node1"><a xlink:title=" ">
<polygon fill="#bfbfbf" stroke="black" points="647.5,-179.5 647.5,-198.5 722.5,-198.5 722.5,-179.5 647.5,-179.5"/>
<text text-anchor="middle" x="685" y="-186.5" font-family="Helvetica,sans-Serif" font-size="10.00">Casacore.cc</text>
</a>
</g>
</g>
<!-- Node2 -->
<g id="node2" class="node">
<title>Node2</title>
<g id="a_node2"><a xlink:href="Casacore_8h.html" target="_top" xlink:title=" ">
<polygon fill="none" stroke="black" points="275.5,-123.5 275.5,-142.5 346.5,-142.5 346.5,-123.5 275.5,-123.5"/>
<text text-anchor="middle" x="311" y="-130.5" font-family="Helvetica,sans-Serif" font-size="10.00">Casacore.h</text>
</a>
</g>
</g>
<!-- Node1&#45;&gt;Node2 -->
<g id="edge1" class="edge">
<title>Node1&#45;&gt;Node2</title>
<path fill="none" stroke="midnightblue" d="M647.43,-182.58C578.34,-172.6 431.39,-151.38 356.67,-140.59"/>
<polygon fill="midnightblue" stroke="midnightblue" points="357.02,-137.11 346.62,-139.14 356.02,-144.04 357.02,-137.11"/>
</g>
<!-- Node6 -->
<g id="node6" class="node">
<title>Node6</title>
<g id="a_node6"><a xlink:title=" ">
<polygon fill="none" stroke="#bfbfbf" points="535.5,-123.5 535.5,-142.5 666.5,-142.5 666.5,-123.5 535.5,-123.5"/>
<text text-anchor="middle" x="601" y="-130.5" font-family="Helvetica,sans-Serif" font-size="10.00">casacore/casa/OS/File.h</text>
</a>
</g>
</g>
<!-- Node1&#45;&gt;Node6 -->
<g id="edge5" class="edge">
<title>Node1&#45;&gt;Node6</title>
<path fill="none" stroke="midnightblue" d="M671.5,-179.32C658.4,-170.9 638.29,-157.97 622.89,-148.07"/>
<polygon fill="midnightblue" stroke="midnightblue" points="624.77,-145.12 614.46,-142.65 620.98,-151.01 624.77,-145.12"/>
</g>
<!-- Node7 -->
<g id="node7" class="node">
<title>Node7</title>
<g id="a_node7"><a xlink:href="CartaMiriadImage_8h.html" target="_top" xlink:title=" ">
<polygon fill="none" stroke="black" points="685,-123.5 685,-142.5 855,-142.5 855,-123.5 685,-123.5"/>
<text text-anchor="middle" x="770" y="-130.5" font-family="Helvetica,sans-Serif" font-size="10.00">ImageData/CartaMiriadImage.h</text>
</a>
</g>
</g>
<!-- Node1&#45;&gt;Node7 -->
<g id="edge6" class="edge">
<title>Node1&#45;&gt;Node7</title>
<path fill="none" stroke="midnightblue" d="M698.66,-179.32C711.92,-170.9 732.27,-157.97 747.85,-148.07"/>
<polygon fill="midnightblue" stroke="midnightblue" points="749.81,-150.97 756.38,-142.65 746.06,-145.06 749.81,-150.97"/>
</g>
<!-- Node11 -->
<g id="node11" class="node">
<title>Node11</title>
<g id="a_node11"><a xlink:href="Logger_8h.html" target="_top" xlink:title=" ">
<polygon fill="none" stroke="black" points="1347,-123.5 1347,-142.5 1441,-142.5 1441,-123.5 1347,-123.5"/>
<text text-anchor="middle" x="1394" y="-130.5" font-family="Helvetica,sans-Serif" font-size="10.00">Logger/Logger.h</text>
</a>
</g>
</g>
<!-- Node1&#45;&gt;Node11 -->
<g id="edge10" class="edge">
<title>Node1&#45;&gt;Node11</title>
<path fill="none" stroke="midnightblue" d="M722.62,-185.13C839.5,-176.23 1196.9,-149.01 1336.9,-138.35"/>
<polygon fill="midnightblue" stroke="midnightblue" points="1337.29,-141.83 1346.99,-137.58 1336.76,-134.85 1337.29,-141.83"/>
</g>
<!-- Node3 -->
<g id="node3" class="node">
<title>Node3</title>
<g id="a_node3"><a xlink:title=" ">
<polygon fill="none" stroke="#bfbfbf" points="0,-56.5 0,-86.5 138,-86.5 138,-56.5 0,-56.5"/>
<text text-anchor="start" x="8" y="-74.5" font-family="Helvetica,sans-Serif" font-size="10.00">casacore/images/Images</text>
<text text-anchor="middle" x="69" y="-63.5" font-family="Helvetica,sans-Serif" font-size="10.00">/ImageInterface.h</text>
</a>
</g>
</g>
<!-- Node2&#45;&gt;Node3 -->
<g id="edge2" class="edge">
<title>Node2&#45;&gt;Node3</title>
<path fill="none" stroke="midnightblue" d="M276.33,-123.48C239.8,-114.49 181.37,-100.13 135.84,-88.93"/>
<polygon fill="midnightblue" stroke="midnightblue" points="136.58,-85.51 126.03,-86.52 134.91,-92.31 136.58,-85.51"/>
</g>
<!-- Node4 -->
<g id="node4" class="node">
<title>Node4</title>
<g id="a_node4"><a xlink:title=" ">
<polygon fill="none" stroke="#bfbfbf" points="156,-56.5 156,-86.5 294,-86.5 294,-56.5 156,-56.5"/>
<text text-anchor="start" x="164" y="-74.5" font-family="Helvetica,sans-Serif" font-size="10.00">casacore/images/Images</text>
<text text-anchor="middle" x="225" y="-63.5" font-family="Helvetica,sans-Serif" font-size="10.00">/ImageOpener.h</text>
</a>
</g>
</g>
<!-- Node2&#45;&gt;Node4 -->
<g id="edge3" class="edge">
<title>Node2&#45;&gt;Node4</title>
<path fill="none" stroke="midnightblue" d="M298.68,-123.48C287.03,-115.42 269.12,-103.02 253.87,-92.47"/>
<polygon fill="midnightblue" stroke="midnightblue" points="255.48,-89.33 245.27,-86.52 251.5,-95.09 255.48,-89.33"/>
</g>
<!-- Node5 -->
<g id="node5" class="node">
<title>Node5</title>
<g id="a_node5"><a xlink:title=" ">
<polygon fill="none" stroke="#bfbfbf" points="312.5,-56.5 312.5,-86.5 481.5,-86.5 481.5,-56.5 312.5,-56.5"/>
<text text-anchor="start" x="320.5" y="-74.5" font-family="Helvetica,sans-Serif" font-size="10.00">casacore/scimath/Mathematics</text>
<text text-anchor="middle" x="397" y="-63.5" font-family="Helvetica,sans-Serif" font-size="10.00">/GaussianBeam.h</text>
</a>
</g>
</g>
<!-- Node2&#45;&gt;Node5 -->
<g id="edge4" class="edge">
<title>Node2&#45;&gt;Node5</title>
<path fill="none" stroke="midnightblue" d="M323.32,-123.48C334.97,-115.42 352.88,-103.02 368.13,-92.47"/>
<polygon fill="midnightblue" stroke="midnightblue" points="370.5,-95.09 376.73,-86.52 366.52,-89.33 370.5,-95.09"/>
</g>
<!-- Node8 -->
<g id="node8" class="node">
<title>Node8</title>
<g id="a_node8"><a xlink:title=" ">
<polygon fill="none" stroke="#bfbfbf" points="499.5,-56.5 499.5,-86.5 682.5,-86.5 682.5,-56.5 499.5,-56.5"/>
<text text-anchor="start" x="507.5" y="-74.5" font-family="Helvetica,sans-Serif" font-size="10.00">casacore/coordinates</text>
<text text-anchor="middle" x="591" y="-63.5" font-family="Helvetica,sans-Serif" font-size="10.00">/Coordinates/SpectralCoordinate.h</text>
</a>
</g>
</g>
<!-- Node7&#45;&gt;Node8 -->
<g id="edge7" class="edge">
<title>Node7&#45;&gt;Node8</title>
<path fill="none" stroke="midnightblue" d="M744.35,-123.48C717.96,-114.7 676.1,-100.79 642.78,-89.71"/>
<polygon fill="midnightblue" stroke="midnightblue" points="643.78,-86.36 633.19,-86.52 641.57,-93 643.78,-86.36"/>
</g>
<!-- Node9 -->
<g id="node9" class="node">
<title>Node9</title>
<g id="a_node9"><a xlink:title=" ">
<polygon fill="none" stroke="#bfbfbf" points="701,-56.5 701,-86.5 839,-86.5 839,-56.5 701,-56.5"/>
<text text-anchor="start" x="709" y="-74.5" font-family="Helvetica,sans-Serif" font-size="10.00">casacore/images/Images</text>
<text text-anchor="middle" x="770" y="-63.5" font-family="Helvetica,sans-Serif" font-size="10.00">/MIRIADImage.h</text>
</a>
</g>
</g>
<!-- Node7&#45;&gt;Node9 -->
<g id="edge8" class="edge">
<title>Node7&#45;&gt;Node9</title>
<path fill="none" stroke="midnightblue" d="M770,-123.48C770,-116.47 770,-106.19 770,-96.7"/>
<polygon fill="midnightblue" stroke="midnightblue" points="773.5,-96.52 770,-86.52 766.5,-96.52 773.5,-96.52"/>
</g>
<!-- Node10 -->
<g id="node10" class="node">
<title>Node10</title>
<g id="a_node10"><a xlink:title=" ">
<polygon fill="none" stroke="#bfbfbf" points="857,-56.5 857,-86.5 995,-86.5 995,-56.5 857,-56.5"/>
<text text-anchor="start" x="865" y="-74.5" font-family="Helvetica,sans-Serif" font-size="10.00">casacore/images/Images</text>
<text text-anchor="middle" x="926" y="-63.5" font-family="Helvetica,sans-Serif" font-size="10.00">/MaskSpecifier.h</text>
</a>
</g>
</g>
<!-- Node7&#45;&gt;Node10 -->
<g id="edge9" class="edge">
<title>Node7&#45;&gt;Node10</title>
<path fill="none" stroke="midnightblue" d="M792.35,-123.48C815.06,-114.81 850.9,-101.15 879.75,-90.14"/>
<polygon fill="midnightblue" stroke="midnightblue" points="881.14,-93.36 889.23,-86.52 878.64,-86.82 881.14,-93.36"/>
</g>
<!-- Node12 -->
<g id="node12" class="node">
<title>Node12</title>
<g id="a_node12"><a xlink:title=" ">
<polygon fill="none" stroke="#bfbfbf" points="1013,-62 1013,-81 1073,-81 1073,-62 1013,-62"/>
<text text-anchor="middle" x="1043" y="-69" font-family="Helvetica,sans-Serif" font-size="10.00">iostream</text>
</a>
</g>
</g>
<!-- Node11&#45;&gt;Node12 -->
<g id="edge11" class="edge">
<title>Node11&#45;&gt;Node12</title>
<path fill="none" stroke="midnightblue" d="M1346.88,-128.35C1285.25,-122.86 1174.27,-110.52 1082,-87 1079.02,-86.24 1075.95,-85.33 1072.9,-84.34"/>
<polygon fill="midnightblue" stroke="midnightblue" points="1073.98,-81.01 1063.38,-81.01 1071.66,-87.62 1073.98,-81.01"/>
</g>
<!-- Node13 -->
<g id="node13" class="node">
<title>Node13</title>
<g id="a_node13"><a xlink:title=" ">
<polygon fill="none" stroke="#bfbfbf" points="1091,-62 1091,-81 1195,-81 1195,-62 1091,-62"/>
<text text-anchor="middle" x="1143" y="-69" font-family="Helvetica,sans-Serif" font-size="10.00">spdlog/common.h</text>
</a>
</g>
</g>
<!-- Node11&#45;&gt;Node13 -->
<g id="edge12" class="edge">
<title>Node11&#45;&gt;Node13</title>
<path fill="none" stroke="midnightblue" d="M1358.04,-123.48C1313.49,-112.92 1237.54,-94.91 1188.85,-83.37"/>
<polygon fill="midnightblue" stroke="midnightblue" points="1189.43,-79.91 1178.9,-81.01 1187.82,-86.72 1189.43,-79.91"/>
</g>
<!-- Node14 -->
<g id="node14" class="node">
<title>Node14</title>
<g id="a_node14"><a xlink:title=" ">
<polygon fill="none" stroke="#bfbfbf" points="1213.5,-56.5 1213.5,-86.5 1316.5,-86.5 1316.5,-56.5 1213.5,-56.5"/>
<text text-anchor="start" x="1221.5" y="-74.5" font-family="Helvetica,sans-Serif" font-size="10.00">spdlog/details/log</text>
<text text-anchor="middle" x="1265" y="-63.5" font-family="Helvetica,sans-Serif" font-size="10.00">_msg.h</text>
</a>
</g>
</g>
<!-- Node11&#45;&gt;Node14 -->
<g id="edge13" class="edge">
<title>Node11&#45;&gt;Node14</title>
<path fill="none" stroke="midnightblue" d="M1375.52,-123.48C1357.07,-114.96 1328.13,-101.62 1304.5,-90.72"/>
<polygon fill="midnightblue" stroke="midnightblue" points="1305.95,-87.53 1295.4,-86.52 1303.02,-93.89 1305.95,-87.53"/>
</g>
<!-- Node15 -->
<g id="node15" class="node">
<title>Node15</title>
<g id="a_node15"><a xlink:title=" ">
<polygon fill="none" stroke="#bfbfbf" points="1334.5,-56.5 1334.5,-86.5 1453.5,-86.5 1453.5,-56.5 1334.5,-56.5"/>
<text text-anchor="start" x="1342.5" y="-74.5" font-family="Helvetica,sans-Serif" font-size="10.00">spdlog/sinks/rotating</text>
<text text-anchor="middle" x="1394" y="-63.5" font-family="Helvetica,sans-Serif" font-size="10.00">_file_sink.h</text>
</a>
</g>
</g>
<!-- Node11&#45;&gt;Node15 -->
<g id="edge14" class="edge">
<title>Node11&#45;&gt;Node15</title>
<path fill="none" stroke="midnightblue" d="M1394,-123.48C1394,-116.47 1394,-106.19 1394,-96.7"/>
<polygon fill="midnightblue" stroke="midnightblue" points="1397.5,-96.52 1394,-86.52 1390.5,-96.52 1397.5,-96.52"/>
</g>
<!-- Node16 -->
<g id="node16" class="node">
<title>Node16</title>
<g id="a_node16"><a xlink:title=" ">
<polygon fill="none" stroke="#bfbfbf" points="1471.5,-56.5 1471.5,-86.5 1582.5,-86.5 1582.5,-56.5 1471.5,-56.5"/>
<text text-anchor="start" x="1479.5" y="-74.5" font-family="Helvetica,sans-Serif" font-size="10.00">spdlog/sinks/stdout</text>
<text text-anchor="middle" x="1527" y="-63.5" font-family="Helvetica,sans-Serif" font-size="10.00">_color_sinks.h</text>
</a>
</g>
</g>
<!-- Node11&#45;&gt;Node16 -->
<g id="edge15" class="edge">
<title>Node11&#45;&gt;Node16</title>
<path fill="none" stroke="midnightblue" d="M1413.06,-123.48C1432.08,-114.96 1461.91,-101.62 1486.28,-90.72"/>
<polygon fill="midnightblue" stroke="midnightblue" points="1487.96,-93.8 1495.65,-86.52 1485.1,-87.41 1487.96,-93.8"/>
</g>
<!-- Node17 -->
<g id="node17" class="node">
<title>Node17</title>
<g id="a_node17"><a xlink:title=" ">
<polygon fill="none" stroke="#bfbfbf" points="1600.5,-62 1600.5,-81 1693.5,-81 1693.5,-62 1600.5,-62"/>
<text text-anchor="middle" x="1647" y="-69" font-family="Helvetica,sans-Serif" font-size="10.00">spdlog/spdlog.h</text>
</a>
</g>
</g>
<!-- Node11&#45;&gt;Node17 -->
<g id="edge16" class="edge">
<title>Node11&#45;&gt;Node17</title>
<path fill="none" stroke="midnightblue" d="M1433.54,-123.43C1473.57,-114.66 1537.22,-100.44 1592,-87 1596.38,-85.93 1600.95,-84.77 1605.5,-83.6"/>
<polygon fill="midnightblue" stroke="midnightblue" points="1606.55,-86.95 1615.35,-81.04 1604.79,-80.17 1606.55,-86.95"/>
</g>
<!-- Node18 -->
<g id="node18" class="node">
<title>Node18</title>
<g id="a_node18"><a xlink:title=" ">
<polygon fill="none" stroke="#bfbfbf" points="1712,-62 1712,-81 1858,-81 1858,-62 1712,-62"/>
<text text-anchor="middle" x="1785" y="-69" font-family="Helvetica,sans-Serif" font-size="10.00">carta&#45;protobuf/enums.pb.h</text>
</a>
</g>
</g>
<!-- Node11&#45;&gt;Node18 -->
<g id="edge17" class="edge">
<title>Node11&#45;&gt;Node18</title>
<path fill="none" stroke="midnightblue" d="M1441.18,-125.58C1501.85,-117.23 1610.41,-101.92 1703,-87 1711.21,-85.68 1719.86,-84.22 1728.35,-82.75"/>
<polygon fill="midnightblue" stroke="midnightblue" points="1728.96,-86.2 1738.21,-81.03 1727.76,-79.3 1728.96,-86.2"/>
</g>
<!-- Node19 -->
<g id="node19" class="node">
<title>Node19</title>
<g id="a_node19"><a xlink:href="FileSystem_8h.html" target="_top" xlink:title=" ">
<polygon fill="none" stroke="black" points="1876,-62 1876,-81 1976,-81 1976,-62 1876,-62"/>
<text text-anchor="middle" x="1926" y="-69" font-family="Helvetica,sans-Serif" font-size="10.00">Util/FileSystem.h</text>
</a>
</g>
</g>
<!-- Node11&#45;&gt;Node19 -->
<g id="edge18" class="edge">
<title>Node11&#45;&gt;Node19</title>
<path fill="none" stroke="midnightblue" d="M1441.29,-129.79C1526.77,-125.29 1712.48,-113.19 1867,-87 1872.86,-86.01 1879,-84.75 1885.02,-83.39"/>
<polygon fill="midnightblue" stroke="midnightblue" points="1886.02,-86.75 1894.95,-81.03 1884.41,-79.93 1886.02,-86.75"/>
</g>
<!-- Node20 -->
<g id="node20" class="node">
<title>Node20</title>
<g id="a_node20"><a xlink:title=" ">
<polygon fill="none" stroke="#bfbfbf" points="1892,-0.5 1892,-19.5 1960,-19.5 1960,-0.5 1892,-0.5"/>
<text text-anchor="middle" x="1926" y="-7.5" font-family="Helvetica,sans-Serif" font-size="10.00">filesystem</text>
</a>
</g>
</g>
<!-- Node19&#45;&gt;Node20 -->
<g id="edge19" class="edge">
<title>Node19&#45;&gt;Node20</title>
<path fill="none" stroke="midnightblue" d="M1926,-61.98C1926,-53.58 1926,-40.48 1926,-29.66"/>
<polygon fill="midnightblue" stroke="midnightblue" points="1929.5,-29.51 1926,-19.51 1922.5,-29.51 1929.5,-29.51"/>
</g>
</g>
</svg>
        <g id="navigator" transform="translate(0 0)" fill="#404254">
                <rect fill="#f2f5e9" fill-opacity="0.5" stroke="#606060" stroke-width=".5" x="0" y="0" width="60" height="60"/>
                <use id="zoomplus" xlink:href="#zoomPlus" x="17" y="9" onmousedown="handleZoom(evt,'in')"/>
                <use id="zoomminus" xlink:href="#zoomMin" x="42" y="9" onmousedown="handleZoom(evt,'out')"/>
                <use id="reset" xlink:href="#resetDef" x="30" y="36" onmousedown="handleReset()"/>
                <g id="arrowUp" xlink:href="#dirArrow" transform="translate(30 24)" onmousedown="handlePan(0,-1)">
                  <use xlink:href="#rim" fill="#404040">
                        <set attributeName="fill" to="#808080" begin="arrowUp.mouseover" end="arrowUp.mouseout"/>
                  </use>
                  <path fill="none" stroke="white" stroke-width="1.5" d="M0,-3.0v7 M-2.5,-0.5L0,-3.0L2.5,-0.5"/>
                </g>
                <g id="arrowRight" xlink:href="#dirArrow" transform="rotate(90) translate(36 -43)" onmousedown="handlePan(1,0)">
                  <use xlink:href="#rim" fill="#404040">
                        <set attributeName="fill" to="#808080" begin="arrowRight.mouseover" end="arrowRight.mouseout"/>
                  </use>
                  <path fill="none" stroke="white" stroke-width="1.5" d="M0,-3.0v7 M-2.5,-0.5L0,-3.0L2.5,-0.5"/>
                </g>
                <g id="arrowDown" xlink:href="#dirArrow" transform="rotate(180) translate(-30 -48)" onmousedown="handlePan(0,1)">
                  <use xlink:href="#rim" fill="#404040">
                        <set attributeName="fill" to="#808080" begin="arrowDown.mouseover" end="arrowDown.mouseout"/>
                  </use>
                  <path fill="none" stroke="white" stroke-width="1.5" d="M0,-3.0v7 M-2.5,-0.5L0,-3.0L2.5,-0.5"/>
                </g>
                <g id="arrowLeft" xlink:href="#dirArrow" transform="rotate(270) translate(-36 17)" onmousedown="handlePan(-1,0)">
                  <use xlink:href="#rim" fill="#404040">
                        <set attributeName="fill" to="#808080" begin="arrowLeft.mouseover" end="arrowLeft.mouseout"/>
                  </use>
                  <path fill="none" stroke="white" stroke-width="1.5" d="M0,-3.0v7 M-2.5,-0.5L0,-3.0L2.5,-0.5"/>
                </g>
        </g>
        <svg viewBox="0 0 15 15" width="100%" height="30px" preserveAspectRatio="xMaxYMin meet">
         <g id="arrow_out" transform="scale(0.3 0.3)">
          <a xlink:href="Casacore_8cc__incl_org.svg" target="_base">
           <rect id="button" ry="5" rx="5" y="6" x="6" height="38" width="38"
                fill="#f2f5e9" fill-opacity="0.5" stroke="#606060" stroke-width="1.0"/>
           <path id="arrow"
             d="M 11.500037,31.436501 C 11.940474,20.09759 22.043105,11.32322 32.158766,21.979434 L 37.068811,17.246167 C 37.068811,17.246167 37.088388,32 37.088388,32 L 22.160133,31.978069 C 22.160133,31.978069 26.997745,27.140456 26.997745,27.140456 C 18.528582,18.264221 13.291696,25.230495 11.500037,31.436501 z"
             style="fill:#404040;"/>
          </a>
         </g>
        </svg>
</svg>
