<?xml version="1.0" encoding="UTF-8" standalone="no"?>
<!DOCTYPE svg PUBLIC "-//W3C//DTD SVG 1.1//EN"
 "http://www.w3.org/Graphics/SVG/1.1/DTD/svg11.dtd">
<!-- Generated by graphviz version 2.43.0 (0)
 -->
<!-- Title: carta::Frame::FillSpatialProfileData Pages: 1 -->
<svg width="707pt" height="555pt"
 viewBox="0.00 0.00 707.00 554.52" xmlns="http://www.w3.org/2000/svg" xmlns:xlink="http://www.w3.org/1999/xlink">
<g id="graph0" class="graph" transform="scale(1 1) rotate(0) translate(4 550.52)">
<title>carta::Frame::FillSpatialProfileData</title>
<!-- Node1 -->
<g id="node1" class="node">
<title>Node1</title>
<g id="a_node1"><a xlink:title=" ">
<polygon fill="#bfbfbf" stroke="black" points="0,-263 0,-293 132,-293 132,-263 0,-263"/>
<text text-anchor="start" x="8" y="-281" font-family="Helvetica,sans-Serif" font-size="10.00">carta::Frame::FillSpatial</text>
<text text-anchor="middle" x="66" y="-270" font-family="Helvetica,sans-Serif" font-size="10.00">ProfileData</text>
</a>
</g>
</g>
<!-- Node2 -->
<g id="node2" class="node">
<title>Node2</title>
<g id="a_node2"><a xlink:href="classcarta_1_1TileCache.html#a33c4defad803515b8b2213511e097044" target="_top" xlink:title="Calculate the key for the chunk that contains the given tile.">
<polygon fill="none" stroke="black" points="368,-518.5 368,-537.5 518,-537.5 518,-518.5 368,-518.5"/>
<text text-anchor="middle" x="443" y="-525.5" font-family="Helvetica,sans-Serif" font-size="10.00">carta::TileCache::ChunkKey</text>
</a>
</g>
</g>
<!-- Node1&#45;&gt;Node2 -->
<g id="edge1" class="edge">
<title>Node1&#45;&gt;Node2</title>
<path fill="none" stroke="midnightblue" d="M68.4,-293.17C73.23,-335.68 93.23,-456.3 168,-509 233.22,-554.96 330.23,-548.96 389.62,-539.29"/>
<polygon fill="midnightblue" stroke="midnightblue" points="390.27,-542.72 399.53,-537.58 389.09,-535.83 390.27,-542.72"/>
</g>
<!-- Node3 -->
<g id="node3" class="node">
<title>Node3</title>
<g id="a_node3"><a xlink:href="classcarta_1_1Frame.html#a30b016834ce04378ba3d0a34f373db3f" target="_top" xlink:title=" ">
<polygon fill="none" stroke="black" points="367,-325.5 367,-344.5 519,-344.5 519,-325.5 367,-325.5"/>
<text text-anchor="middle" x="443" y="-332.5" font-family="Helvetica,sans-Serif" font-size="10.00">carta::Frame::CurrentStokes</text>
</a>
</g>
</g>
<!-- Node1&#45;&gt;Node3 -->
<g id="edge2" class="edge">
<title>Node1&#45;&gt;Node3</title>
<path fill="none" stroke="midnightblue" d="M80.18,-293.24C97.88,-312.42 131.38,-344.38 168,-357 248.53,-384.76 349.97,-363.11 404.01,-347.46"/>
<polygon fill="midnightblue" stroke="midnightblue" points="405.27,-350.74 413.85,-344.52 403.26,-344.03 405.27,-350.74"/>
</g>
<!-- Node4 -->
<g id="node4" class="node">
<title>Node4</title>
<g id="a_node4"><a xlink:href="classcarta_1_1Frame.html#a1eda290558f3e9a6be5d4149c06e1b7b" target="_top" xlink:title=" ">
<polygon fill="none" stroke="black" points="184,-442.5 184,-461.5 311,-461.5 311,-442.5 184,-442.5"/>
<text text-anchor="middle" x="247.5" y="-449.5" font-family="Helvetica,sans-Serif" font-size="10.00">carta::Frame::CurrentZ</text>
</a>
</g>
</g>
<!-- Node1&#45;&gt;Node4 -->
<g id="edge3" class="edge">
<title>Node1&#45;&gt;Node4</title>
<path fill="none" stroke="midnightblue" d="M72.39,-293.08C84.38,-324.38 116.33,-396.47 168,-433 170.75,-434.94 173.67,-436.69 176.71,-438.26"/>
<polygon fill="midnightblue" stroke="midnightblue" points="175.57,-441.58 186.13,-442.45 178.42,-435.18 175.57,-441.58"/>
</g>
<!-- Node5 -->
<g id="node5" class="node">
<title>Node5</title>
<g id="a_node5"><a xlink:href="classcarta_1_1Timer.html#aad2702a80259920b910fb76642f97b88" target="_top" xlink:title=" ">
<polygon fill="none" stroke="black" points="187.5,-404.5 187.5,-423.5 307.5,-423.5 307.5,-404.5 187.5,-404.5"/>
<text text-anchor="middle" x="247.5" y="-411.5" font-family="Helvetica,sans-Serif" font-size="10.00">carta::Timer::Elapsed</text>
</a>
</g>
</g>
<!-- Node1&#45;&gt;Node5 -->
<g id="edge4" class="edge">
<title>Node1&#45;&gt;Node5</title>
<path fill="none" stroke="midnightblue" d="M76.57,-293.06C92.59,-317.08 127.14,-363.99 168,-390 174.92,-394.41 182.7,-398.05 190.61,-401.04"/>
<polygon fill="midnightblue" stroke="midnightblue" points="189.66,-404.41 200.26,-404.38 191.95,-397.8 189.66,-404.41"/>
</g>
<!-- Node6 -->
<g id="node6" class="node">
<title>Node6</title>
<g id="a_node6"><a xlink:href="classcarta_1_1TileCache.html#a4eda64cc5324f96a16c6b877ab4ce7cc" target="_top" xlink:title="Retrieve a tile from the cache.">
<polygon fill="none" stroke="black" points="188,-480.5 188,-499.5 307,-499.5 307,-480.5 188,-480.5"/>
<text text-anchor="middle" x="247.5" y="-487.5" font-family="Helvetica,sans-Serif" font-size="10.00">carta::TileCache::Get</text>
</a>
</g>
</g>
<!-- Node1&#45;&gt;Node6 -->
<g id="edge5" class="edge">
<title>Node1&#45;&gt;Node6</title>
<path fill="none" stroke="midnightblue" d="M70.35,-293.04C79.3,-329.61 107.35,-423.63 168,-471 171.2,-473.5 174.69,-475.68 178.35,-477.58"/>
<polygon fill="midnightblue" stroke="midnightblue" points="177.19,-480.89 187.75,-481.74 180.02,-474.49 177.19,-480.89"/>
</g>
<!-- Node10 -->
<g id="node10" class="node">
<title>Node10</title>
<g id="a_node10"><a xlink:href="classcarta_1_1Frame.html#a9e748d02f7394ed01b69276b61a79825" target="_top" xlink:title=" ">
<polygon fill="none" stroke="black" points="168,-328.5 168,-347.5 327,-347.5 327,-328.5 168,-328.5"/>
<text text-anchor="middle" x="247.5" y="-335.5" font-family="Helvetica,sans-Serif" font-size="10.00">carta::Frame::GetImageSlicer</text>
</a>
</g>
</g>
<!-- Node1&#45;&gt;Node10 -->
<g id="edge11" class="edge">
<title>Node1&#45;&gt;Node10</title>
<path fill="none" stroke="midnightblue" d="M100.66,-293.13C120.09,-301.48 145.12,-311.63 168,-319 175.78,-321.51 184.09,-323.86 192.28,-325.99"/>
<polygon fill="midnightblue" stroke="midnightblue" points="191.62,-329.43 202.17,-328.48 193.33,-322.65 191.62,-329.43"/>
</g>
<!-- Node11 -->
<g id="node11" class="node">
<title>Node11</title>
<g id="a_node11"><a xlink:href="classcarta_1_1Frame.html#a79c789ebc62771151da94673a325a31a" target="_top" xlink:title=" ">
<polygon fill="none" stroke="black" points="171.5,-290.5 171.5,-309.5 323.5,-309.5 323.5,-290.5 171.5,-290.5"/>
<text text-anchor="middle" x="247.5" y="-297.5" font-family="Helvetica,sans-Serif" font-size="10.00">carta::Frame::GetSlicerData</text>
</a>
</g>
</g>
<!-- Node1&#45;&gt;Node11 -->
<g id="edge12" class="edge">
<title>Node1&#45;&gt;Node11</title>
<path fill="none" stroke="midnightblue" d="M132.06,-285.97C141.51,-287.13 151.37,-288.34 161.15,-289.54"/>
<polygon fill="midnightblue" stroke="midnightblue" points="160.95,-293.04 171.3,-290.78 161.8,-286.09 160.95,-293.04"/>
</g>
<!-- Node12 -->
<g id="node12" class="node">
<title>Node12</title>
<g id="a_node12"><a xlink:href="classcarta_1_1Frame.html#aad7fc7f3462a849a9cea9562fb45e220" target="_top" xlink:title=" ">
<polygon fill="none" stroke="black" points="169.5,-241 169.5,-271 325.5,-271 325.5,-241 169.5,-241"/>
<text text-anchor="start" x="177.5" y="-259" font-family="Helvetica,sans-Serif" font-size="10.00">carta::Frame::GetStokesType</text>
<text text-anchor="middle" x="247.5" y="-248" font-family="Helvetica,sans-Serif" font-size="10.00">Index</text>
</a>
</g>
</g>
<!-- Node1&#45;&gt;Node12 -->
<g id="edge13" class="edge">
<title>Node1&#45;&gt;Node12</title>
<path fill="none" stroke="midnightblue" d="M132.06,-270.03C140.97,-268.93 150.24,-267.8 159.47,-266.67"/>
<polygon fill="midnightblue" stroke="midnightblue" points="159.95,-270.13 169.45,-265.44 159.1,-263.19 159.95,-270.13"/>
</g>
<!-- Node13 -->
<g id="node13" class="node">
<title>Node13</title>
<g id="a_node13"><a xlink:href="Image_8cc.html#a30da07ffd67ed06c1e15e2da4d915e0c" target="_top" xlink:title=" ">
<polygon fill="none" stroke="black" points="389.5,-205.5 389.5,-224.5 496.5,-224.5 496.5,-205.5 389.5,-205.5"/>
<text text-anchor="middle" x="443" y="-212.5" font-family="Helvetica,sans-Serif" font-size="10.00">IsComputedStokes</text>
</a>
</g>
</g>
<!-- Node1&#45;&gt;Node13 -->
<g id="edge19" class="edge">
<title>Node1&#45;&gt;Node13</title>
<path fill="none" stroke="midnightblue" d="M93.04,-262.93C112.89,-252.25 141.27,-238.67 168,-232 238.85,-214.31 323.04,-211.71 379.22,-212.47"/>
<polygon fill="midnightblue" stroke="midnightblue" points="379.32,-215.97 389.38,-212.64 379.44,-208.97 379.32,-215.97"/>
</g>
<!-- Node15 -->
<g id="node15" class="node">
<title>Node15</title>
<g id="a_node15"><a xlink:href="structPointXy.html#ae53c1507f25ca4218505925d7505b464" target="_top" xlink:title=" ">
<polygon fill="none" stroke="black" points="198,-164.5 198,-183.5 297,-183.5 297,-164.5 198,-164.5"/>
<text text-anchor="middle" x="247.5" y="-171.5" font-family="Helvetica,sans-Serif" font-size="10.00">PointXy::InImage</text>
</a>
</g>
</g>
<!-- Node1&#45;&gt;Node15 -->
<g id="edge17" class="edge">
<title>Node1&#45;&gt;Node15</title>
<path fill="none" stroke="midnightblue" d="M82.14,-262.96C100.84,-245.15 134.33,-215.67 168,-198 176.52,-193.53 186.01,-189.74 195.37,-186.6"/>
<polygon fill="midnightblue" stroke="midnightblue" points="196.54,-189.9 205.02,-183.55 194.43,-183.22 196.54,-189.9"/>
</g>
<!-- Node16 -->
<g id="node16" class="node">
<title>Node16</title>
<g id="a_node16"><a xlink:href="structPointXy.html#a8346106fda170e511b843f0d47fe3dfa" target="_top" xlink:title=" ">
<polygon fill="none" stroke="black" points="394.5,-138.5 394.5,-157.5 491.5,-157.5 491.5,-138.5 394.5,-138.5"/>
<text text-anchor="middle" x="443" y="-145.5" font-family="Helvetica,sans-Serif" font-size="10.00">PointXy::ToIndex</text>
</a>
</g>
</g>
<!-- Node1&#45;&gt;Node16 -->
<g id="edge27" class="edge">
<title>Node1&#45;&gt;Node16</title>
<path fill="none" stroke="midnightblue" d="M74.06,-262.72C87.7,-235.23 120.58,-178.17 168,-155 237.98,-120.81 330.48,-127.48 388.1,-136.73"/>
<polygon fill="midnightblue" stroke="midnightblue" points="387.64,-140.21 398.08,-138.42 388.81,-133.31 387.64,-140.21"/>
</g>
<!-- Node17 -->
<g id="node17" class="node">
<title>Node17</title>
<g id="a_node17"><a xlink:href="structcarta_1_1TimeDelta.html#a90b2dc0a7d70b0aa6f668f4bbad7fa58" target="_top" xlink:title=" ">
<polygon fill="none" stroke="black" points="188,-88.5 188,-107.5 307,-107.5 307,-88.5 188,-88.5"/>
<text text-anchor="middle" x="247.5" y="-95.5" font-family="Helvetica,sans-Serif" font-size="10.00">carta::TimeDelta::ms</text>
</a>
</g>
</g>
<!-- Node1&#45;&gt;Node17 -->
<g id="edge20" class="edge">
<title>Node1&#45;&gt;Node17</title>
<path fill="none" stroke="midnightblue" d="M72.73,-262.59C85.13,-231.3 117.52,-160.09 168,-122 173.79,-117.63 180.37,-114.05 187.22,-111.12"/>
<polygon fill="midnightblue" stroke="midnightblue" points="188.56,-114.35 196.65,-107.51 186.06,-107.82 188.56,-114.35"/>
</g>
<!-- Node18 -->
<g id="node18" class="node">
<title>Node18</title>
<g id="a_node18"><a xlink:href="classcarta_1_1queuing__rw__mutex__scoped.html#a54adaa778387baae91e6da63ae892ca6" target="_top" xlink:title=" ">
<polygon fill="none" stroke="black" points="177.5,-39 177.5,-69 317.5,-69 317.5,-39 177.5,-39"/>
<text text-anchor="start" x="185.5" y="-57" font-family="Helvetica,sans-Serif" font-size="10.00">carta::queuing_rw_mutex</text>
<text text-anchor="middle" x="247.5" y="-46" font-family="Helvetica,sans-Serif" font-size="10.00">_scoped::release</text>
</a>
</g>
</g>
<!-- Node1&#45;&gt;Node18 -->
<g id="edge21" class="edge">
<title>Node1&#45;&gt;Node18</title>
<path fill="none" stroke="midnightblue" d="M70.42,-262.77C79.54,-225.7 107.94,-130.08 168,-79 170,-77.3 172.12,-75.71 174.33,-74.23"/>
<polygon fill="midnightblue" stroke="midnightblue" points="176.36,-77.1 183.24,-69.04 172.84,-71.05 176.36,-77.1"/>
</g>
<!-- Node22 -->
<g id="node22" class="node">
<title>Node22</title>
<g id="a_node22"><a xlink:href="classMessage.html#afc5c954ad1784b8c550c42331df6dd2c" target="_top" xlink:title=" ">
<polygon fill="none" stroke="black" points="170.5,-0.5 170.5,-19.5 324.5,-19.5 324.5,-0.5 170.5,-0.5"/>
<text text-anchor="middle" x="247.5" y="-7.5" font-family="Helvetica,sans-Serif" font-size="10.00">Message::SpatialProfileData</text>
</a>
</g>
</g>
<!-- Node1&#45;&gt;Node22 -->
<g id="edge26" class="edge">
<title>Node1&#45;&gt;Node22</title>
<path fill="none" stroke="midnightblue" d="M68.52,-262.76C73.68,-219.33 94.57,-93.98 168,-30 170.49,-27.83 173.19,-25.89 176.03,-24.15"/>
<polygon fill="midnightblue" stroke="midnightblue" points="177.66,-27.25 184.93,-19.54 174.44,-21.03 177.66,-27.25"/>
</g>
<!-- Node6&#45;&gt;Node2 -->
<g id="edge6" class="edge">
<title>Node6&#45;&gt;Node2</title>
<path fill="none" stroke="midnightblue" d="M297.33,-499.59C323.55,-504.74 356.06,-511.12 383.62,-516.53"/>
<polygon fill="midnightblue" stroke="midnightblue" points="383.04,-519.99 393.52,-518.48 384.38,-513.12 383.04,-519.99"/>
</g>
<!-- Node7 -->
<g id="node7" class="node">
<title>Node7</title>
<g id="a_node7"><a xlink:href="classcarta_1_1TileCache.html#a32436ee71719f6852e8e07891f8aecf7" target="_top" xlink:title="Load a chunk from the file into the cache.">
<polygon fill="none" stroke="black" points="365.5,-404.5 365.5,-423.5 520.5,-423.5 520.5,-404.5 365.5,-404.5"/>
<text text-anchor="middle" x="443" y="-411.5" font-family="Helvetica,sans-Serif" font-size="10.00">carta::TileCache::LoadChunk</text>
</a>
</g>
</g>
<!-- Node6&#45;&gt;Node7 -->
<g id="edge7" class="edge">
<title>Node6&#45;&gt;Node7</title>
<path fill="none" stroke="midnightblue" d="M305.34,-480.4C312.9,-477.95 320.33,-474.87 327,-471 347.13,-459.34 342.86,-444.64 363,-433 366.88,-430.75 371.02,-428.77 375.29,-427.03"/>
<polygon fill="midnightblue" stroke="midnightblue" points="376.6,-430.28 384.79,-423.56 374.2,-423.7 376.6,-430.28"/>
</g>
<!-- Node8 -->
<g id="node8" class="node">
<title>Node8</title>
<g id="a_node8"><a xlink:href="classcarta_1_1TileCache.html#a75bc5452ceb7180fabcc601bb5a2533e" target="_top" xlink:title="Update the access time of a tile.">
<polygon fill="none" stroke="black" points="564.5,-442.5 564.5,-461.5 693.5,-461.5 693.5,-442.5 564.5,-442.5"/>
<text text-anchor="middle" x="629" y="-449.5" font-family="Helvetica,sans-Serif" font-size="10.00">carta::TileCache::Touch</text>
</a>
</g>
</g>
<!-- Node6&#45;&gt;Node8 -->
<g id="edge9" class="edge">
<title>Node6&#45;&gt;Node8</title>
<path fill="none" stroke="midnightblue" d="M307.05,-487.81C362.75,-485.29 448.81,-480.25 523,-471 538.83,-469.03 555.9,-466.23 571.57,-463.39"/>
<polygon fill="midnightblue" stroke="midnightblue" points="572.45,-466.78 581.65,-461.52 571.18,-459.9 572.45,-466.78"/>
</g>
<!-- Node9 -->
<g id="node9" class="node">
<title>Node9</title>
<g id="a_node9"><a xlink:href="classcarta_1_1TileCache.html#a2d177c8da40cd3050f42848ca8f661d3" target="_top" xlink:title="Retrieve a tile from the cache.">
<polygon fill="none" stroke="black" points="363,-442.5 363,-461.5 523,-461.5 523,-442.5 363,-442.5"/>
<text text-anchor="middle" x="443" y="-449.5" font-family="Helvetica,sans-Serif" font-size="10.00">carta::TileCache::UnsafePeek</text>
</a>
</g>
</g>
<!-- Node6&#45;&gt;Node9 -->
<g id="edge10" class="edge">
<title>Node6&#45;&gt;Node9</title>
<path fill="none" stroke="midnightblue" d="M297.33,-480.41C323.55,-475.26 356.06,-468.88 383.62,-463.47"/>
<polygon fill="midnightblue" stroke="midnightblue" points="384.38,-466.88 393.52,-461.52 383.04,-460.01 384.38,-466.88"/>
</g>
<!-- Node7&#45;&gt;Node8 -->
<g id="edge8" class="edge">
<title>Node7&#45;&gt;Node8</title>
<path fill="none" stroke="midnightblue" d="M490.43,-423.59C515.15,-428.69 545.74,-435.01 571.79,-440.39"/>
<polygon fill="midnightblue" stroke="midnightblue" points="571.4,-443.89 581.9,-442.48 572.82,-437.03 571.4,-443.89"/>
</g>
<!-- Node12&#45;&gt;Node3 -->
<g id="edge14" class="edge">
<title>Node12&#45;&gt;Node3</title>
<path fill="none" stroke="midnightblue" d="M299.09,-271.04C308.45,-274.12 318.08,-277.5 327,-281 357.55,-292.98 391.42,-309.27 414.44,-320.81"/>
<polygon fill="midnightblue" stroke="midnightblue" points="413.1,-324.06 423.6,-325.45 416.26,-317.81 413.1,-324.06"/>
</g>
<!-- Node12&#45;&gt;Node13 -->
<g id="edge15" class="edge">
<title>Node12&#45;&gt;Node13</title>
<path fill="none" stroke="midnightblue" d="M319.45,-240.97C341.7,-236.25 365.91,-231.12 386.89,-226.68"/>
<polygon fill="midnightblue" stroke="midnightblue" points="387.85,-230.05 396.91,-224.55 386.4,-223.2 387.85,-230.05"/>
</g>
<!-- Node14 -->
<g id="node14" class="node">
<title>Node14</title>
<g id="a_node14"><a xlink:href="classcarta_1_1Frame.html#a98d7c0c04b6d04f7617c41e6068362a9" target="_top" xlink:title=" ">
<polygon fill="none" stroke="black" points="373,-246.5 373,-265.5 513,-265.5 513,-246.5 373,-246.5"/>
<text text-anchor="middle" x="443" y="-253.5" font-family="Helvetica,sans-Serif" font-size="10.00">carta::Frame::NumStokes</text>
</a>
</g>
</g>
<!-- Node12&#45;&gt;Node14 -->
<g id="edge16" class="edge">
<title>Node12&#45;&gt;Node14</title>
<path fill="none" stroke="midnightblue" d="M325.53,-256C337.72,-256 350.34,-256 362.58,-256"/>
<polygon fill="midnightblue" stroke="midnightblue" points="362.75,-259.5 372.75,-256 362.75,-252.5 362.75,-259.5"/>
</g>
<!-- Node15&#45;&gt;Node16 -->
<g id="edge18" class="edge">
<title>Node15&#45;&gt;Node16</title>
<path fill="none" stroke="midnightblue" d="M297.33,-167.44C323.75,-163.89 356.56,-159.48 384.24,-155.76"/>
<polygon fill="midnightblue" stroke="midnightblue" points="384.75,-159.22 394.19,-154.42 383.81,-152.29 384.75,-159.22"/>
</g>
<!-- Node19 -->
<g id="node19" class="node">
<title>Node19</title>
<g id="a_node19"><a xlink:href="classcarta_1_1queuing__rw__mutex.html#a604cdab74206f5521604334d5dc0d634" target="_top" xlink:title=" ">
<polygon fill="none" stroke="black" points="373,-76 373,-106 513,-106 513,-76 373,-76"/>
<text text-anchor="start" x="381" y="-94" font-family="Helvetica,sans-Serif" font-size="10.00">carta::queuing_rw_mutex</text>
<text text-anchor="middle" x="443" y="-83" font-family="Helvetica,sans-Serif" font-size="10.00">::reader_leave</text>
</a>
</g>
</g>
<!-- Node18&#45;&gt;Node19 -->
<g id="edge22" class="edge">
<title>Node18&#45;&gt;Node19</title>
<path fill="none" stroke="midnightblue" d="M317.54,-67.2C332.32,-70.03 348.04,-73.03 363.16,-75.92"/>
<polygon fill="midnightblue" stroke="midnightblue" points="362.51,-79.36 372.99,-77.8 363.82,-72.49 362.51,-79.36"/>
</g>
<!-- Node21 -->
<g id="node21" class="node">
<title>Node21</title>
<g id="a_node21"><a xlink:href="classcarta_1_1queuing__rw__mutex.html#ae90899b9fc49562d1c53fac3b786b12d" target="_top" xlink:title=" ">
<polygon fill="none" stroke="black" points="373,-27 373,-57 513,-57 513,-27 373,-27"/>
<text text-anchor="start" x="381" y="-45" font-family="Helvetica,sans-Serif" font-size="10.00">carta::queuing_rw_mutex</text>
<text text-anchor="middle" x="443" y="-34" font-family="Helvetica,sans-Serif" font-size="10.00">::writer_leave</text>
</a>
</g>
</g>
<!-- Node18&#45;&gt;Node21 -->
<g id="edge24" class="edge">
<title>Node18&#45;&gt;Node21</title>
<path fill="none" stroke="midnightblue" d="M317.54,-49.72C332.18,-48.81 347.74,-47.85 362.73,-46.92"/>
<polygon fill="midnightblue" stroke="midnightblue" points="363.22,-50.39 372.99,-46.28 362.79,-43.41 363.22,-50.39"/>
</g>
<!-- Node20 -->
<g id="node20" class="node">
<title>Node20</title>
<g id="a_node20"><a xlink:href="classcarta_1_1queuing__rw__mutex.html#af7d20dfc496517e34f93151e4032a9c9" target="_top" xlink:title=" ">
<polygon fill="none" stroke="black" points="559,-52 559,-82 699,-82 699,-52 559,-52"/>
<text text-anchor="start" x="567" y="-70" font-family="Helvetica,sans-Serif" font-size="10.00">carta::queuing_rw_mutex</text>
<text text-anchor="middle" x="629" y="-59" font-family="Helvetica,sans-Serif" font-size="10.00">::dequeue_one_writer</text>
</a>
</g>
</g>
<!-- Node19&#45;&gt;Node20 -->
<g id="edge23" class="edge">
<title>Node19&#45;&gt;Node20</title>
<path fill="none" stroke="midnightblue" d="M513.04,-82C524.75,-80.47 536.99,-78.87 548.94,-77.31"/>
<polygon fill="midnightblue" stroke="midnightblue" points="549.42,-80.78 558.88,-76.02 548.51,-73.84 549.42,-80.78"/>
</g>
<!-- Node21&#45;&gt;Node20 -->
<g id="edge25" class="edge">
<title>Node21&#45;&gt;Node20</title>
<path fill="none" stroke="midnightblue" d="M513.04,-51.38C524.75,-52.97 536.99,-54.63 548.94,-56.26"/>
<polygon fill="midnightblue" stroke="midnightblue" points="548.5,-59.73 558.88,-57.61 549.44,-52.79 548.5,-59.73"/>
</g>
</g>
</svg>
