<?xml version="1.0" encoding="UTF-8" standalone="no"?>
<!DOCTYPE svg PUBLIC "-//W3C//DTD SVG 1.1//EN"
 "http://www.w3.org/Graphics/SVG/1.1/DTD/svg11.dtd">
<!-- Generated by graphviz version 2.43.0 (0)
 -->
<!-- Title: carta::CartaMiriadImage::OpenImage Pages: 1 -->
<svg width="656pt" height="88pt"
 viewBox="0.00 0.00 656.00 88.00" xmlns="http://www.w3.org/2000/svg" xmlns:xlink="http://www.w3.org/1999/xlink">
<g id="graph0" class="graph" transform="scale(1 1) rotate(0) translate(4 84)">
<title>carta::CartaMiriadImage::OpenImage</title>
<!-- Node1 -->
<g id="node1" class="node">
<title>Node1</title>
<g id="a_node1"><a xlink:title=" ">
<polygon fill="#bfbfbf" stroke="black" points="513,-24.5 513,-54.5 648,-54.5 648,-24.5 513,-24.5"/>
<text text-anchor="start" x="521" y="-42.5" font-family="Helvetica,sans-Serif" font-size="10.00">carta::CartaMiriadImage</text>
<text text-anchor="middle" x="580.5" y="-31.5" font-family="Helvetica,sans-Serif" font-size="10.00">::OpenImage</text>
</a>
</g>
</g>
<!-- Node2 -->
<g id="node2" class="node">
<title>Node2</title>
<g id="a_node2"><a xlink:href="classcarta_1_1CartaMiriadImage.html#aefa809cf7674b68eab2d2652ccceb532" target="_top" xlink:title=" ">
<polygon fill="none" stroke="black" points="342,-49.5 342,-79.5 477,-79.5 477,-49.5 342,-49.5"/>
<text text-anchor="start" x="350" y="-67.5" font-family="Helvetica,sans-Serif" font-size="10.00">carta::CartaMiriadImage</text>
<text text-anchor="middle" x="409.5" y="-56.5" font-family="Helvetica,sans-Serif" font-size="10.00">::doGetMaskSlice</text>
</a>
</g>
</g>
<!-- Node1&#45;&gt;Node2 -->
<g id="edge1" class="edge">
<title>Node1&#45;&gt;Node2</title>
<path fill="none" stroke="midnightblue" d="M502.73,-50.86C494.17,-52.12 485.5,-53.4 477.08,-54.65"/>
<polygon fill="midnightblue" stroke="midnightblue" points="503.33,-54.31 512.71,-49.38 502.3,-47.38 503.33,-54.31"/>
</g>
<!-- Node4 -->
<g id="node4" class="node">
<title>Node4</title>
<g id="a_node4"><a xlink:href="classcarta_1_1CartaMiriadImage.html#af239cfd5e7f335f45a08a2ec13dfad48" target="_top" xlink:title=" ">
<polygon fill="none" stroke="black" points="342,-0.5 342,-30.5 477,-30.5 477,-0.5 342,-0.5"/>
<text text-anchor="start" x="350" y="-18.5" font-family="Helvetica,sans-Serif" font-size="10.00">carta::CartaMiriadImage</text>
<text text-anchor="middle" x="409.5" y="-7.5" font-family="Helvetica,sans-Serif" font-size="10.00">::SetUp</text>
</a>
</g>
</g>
<!-- Node1&#45;&gt;Node4 -->
<g id="edge3" class="edge">
<title>Node1&#45;&gt;Node4</title>
<path fill="none" stroke="midnightblue" d="M502.73,-28.6C494.17,-27.38 485.5,-26.15 477.08,-24.96"/>
<polygon fill="midnightblue" stroke="midnightblue" points="502.31,-32.07 512.71,-30.01 503.3,-25.14 502.31,-32.07"/>
</g>
<!-- Node3 -->
<g id="node3" class="node">
<title>Node3</title>
<g id="a_node3"><a xlink:href="classcarta_1_1CartaMiriadImage.html#a00ae37d43c55ba3b42a68a829c6cf1f1" target="_top" xlink:title=" ">
<polygon fill="none" stroke="black" points="171,-49.5 171,-79.5 306,-79.5 306,-49.5 171,-49.5"/>
<text text-anchor="start" x="179" y="-67.5" font-family="Helvetica,sans-Serif" font-size="10.00">carta::CartaMiriadImage</text>
<text text-anchor="middle" x="238.5" y="-56.5" font-family="Helvetica,sans-Serif" font-size="10.00">::pixelMask</text>
</a>
</g>
</g>
<!-- Node2&#45;&gt;Node3 -->
<g id="edge2" class="edge">
<title>Node2&#45;&gt;Node3</title>
<path fill="none" stroke="midnightblue" d="M331.45,-64.5C322.98,-64.5 314.41,-64.5 306.08,-64.5"/>
<polygon fill="midnightblue" stroke="midnightblue" points="331.71,-68 341.71,-64.5 331.71,-61 331.71,-68"/>
</g>
<!-- Node5 -->
<g id="node5" class="node">
<title>Node5</title>
<g id="a_node5"><a xlink:href="classcarta_1_1CartaMiriadImage.html#afd46ec5c20e1ab73c44af118f0c6fac6" target="_top" xlink:title=" ">
<polygon fill="none" stroke="black" points="171,-0.5 171,-30.5 306,-30.5 306,-0.5 171,-0.5"/>
<text text-anchor="start" x="179" y="-18.5" font-family="Helvetica,sans-Serif" font-size="10.00">carta::CartaMiriadImage</text>
<text text-anchor="middle" x="238.5" y="-7.5" font-family="Helvetica,sans-Serif" font-size="10.00">::CartaMiriadImage</text>
</a>
</g>
</g>
<!-- Node4&#45;&gt;Node5 -->
<g id="edge4" class="edge">
<title>Node4&#45;&gt;Node5</title>
<path fill="none" stroke="midnightblue" d="M331.45,-15.5C322.98,-15.5 314.41,-15.5 306.08,-15.5"/>
<polygon fill="midnightblue" stroke="midnightblue" points="331.71,-19 341.71,-15.5 331.71,-12 331.71,-19"/>
</g>
<!-- Node6 -->
<g id="node6" class="node">
<title>Node6</title>
<g id="a_node6"><a xlink:href="classcarta_1_1CartaMiriadImage.html#a6e3c3d611efc5ee047e54e646de384c0" target="_top" xlink:title=" ">
<polygon fill="none" stroke="black" points="0,-0.5 0,-30.5 135,-30.5 135,-0.5 0,-0.5"/>
<text text-anchor="start" x="8" y="-18.5" font-family="Helvetica,sans-Serif" font-size="10.00">carta::CartaMiriadImage</text>
<text text-anchor="middle" x="67.5" y="-7.5" font-family="Helvetica,sans-Serif" font-size="10.00">::cloneII</text>
</a>
</g>
</g>
<!-- Node5&#45;&gt;Node6 -->
<g id="edge5" class="edge">
<title>Node5&#45;&gt;Node6</title>
<path fill="none" stroke="midnightblue" d="M160.45,-15.5C151.98,-15.5 143.41,-15.5 135.08,-15.5"/>
<polygon fill="midnightblue" stroke="midnightblue" points="160.71,-19 170.71,-15.5 160.71,-12 160.71,-19"/>
</g>
</g>
</svg>
