<?xml version="1.0" encoding="UTF-8" standalone="no"?>
<!DOCTYPE svg PUBLIC "-//W3C//DTD SVG 1.1//EN"
 "http://www.w3.org/Graphics/SVG/1.1/DTD/svg11.dtd">
<!-- Generated by graphviz version 2.43.0 (0)
 -->
<!-- Title: carta::Hdf5Loader Pages: 1 -->
<!--zoomable 1034 -->
<svg id="main" version="1.1" xmlns="http://www.w3.org/2000/svg" xmlns:xlink="http://www.w3.org/1999/xlink" xml:space="preserve" onload="init(evt)">
<style type="text/css"><![CDATA[
.edge:hover path { stroke: red; }
.edge:hover polygon { stroke: red; fill: red; }
]]></style>
<script type="text/javascript"><![CDATA[
var edges = document.getElementsByTagName('g');
if (edges && edges.length) {
  for (var i=0;i<edges.length;i++) {
    if (edges[i].id.substr(0,4)=='edge') {
      edges[i].setAttribute('class','edge');
    }
  }
}
]]></script>
        <defs>
                <circle id="rim" cx="0" cy="0" r="7"/>
                <circle id="rim2" cx="0" cy="0" r="3.5"/>
                <g id="zoomPlus">
                        <use xlink:href="#rim" fill="#404040">
                                <set attributeName="fill" to="#808080" begin="zoomplus.mouseover" end="zoomplus.mouseout"/>
                        </use>
                        <path d="M-4,0h8M0,-4v8" fill="none" stroke="white" stroke-width="1.5" pointer-events="none"/>
                </g>
                <g id="zoomMin">
                        <use xlink:href="#rim" fill="#404040">
                                <set attributeName="fill" to="#808080" begin="zoomminus.mouseover" end="zoomminus.mouseout"/>
                        </use>
                        <path d="M-4,0h8" fill="none" stroke="white" stroke-width="1.5" pointer-events="none"/>
                </g>
                <g id="dirArrow">
                        <path fill="none" stroke="white" stroke-width="1.5" d="M0,-3.0v7 M-2.5,-0.5L0,-3.0L2.5,-0.5"/>
                </g>
               <g id="resetDef">
                       <use xlink:href="#rim2" fill="#404040">
                               <set attributeName="fill" to="#808080" begin="reset.mouseover" end="reset.mouseout"/>
                       </use>
               </g>
        </defs>

<script type="text/javascript">
var viewWidth = 1431;
var viewHeight = 1034;
var sectionId = 'dynsection-1';
</script>
<script xlink:href="svgpan.js"/>
<svg id="graph" class="graph">
<g id="viewport">
<title>carta::Hdf5Loader</title>
<!-- Node1 -->
<g id="node1" class="node">
<title>Node1</title>
<g id="a_node1"><a xlink:title=" ">
<polygon fill="#bfbfbf" stroke="black" points="1319,-729.13 1319,-748.13 1423,-748.13 1423,-729.13 1319,-729.13"/>
<text text-anchor="middle" x="1371" y="-736.13" font-family="Helvetica,sans-Serif" font-size="10.00">carta::Hdf5Loader</text>
</a>
</g>
</g>
<!-- Node2 -->
<g id="node2" class="node">
<title>Node2</title>
<g id="a_node2"><a xlink:href="classcarta_1_1FileLoader.html" target="_top" xlink:title=" ">
<polygon fill="none" stroke="black" points="1078,-416.13 1078,-435.13 1176,-435.13 1176,-416.13 1078,-416.13"/>
<text text-anchor="middle" x="1127" y="-423.13" font-family="Helvetica,sans-Serif" font-size="10.00">carta::FileLoader</text>
</a>
</g>
</g>
<!-- Node2&#45;&gt;Node1 -->
<g id="edge1" class="edge">
<title>Node2&#45;&gt;Node1</title>
<path fill="none" stroke="midnightblue" d="M1141.89,-443.59C1187.02,-501.96 1328.53,-684.99 1362.58,-729.03"/>
<polygon fill="midnightblue" stroke="midnightblue" points="1144.39,-441.11 1135.51,-435.34 1138.86,-445.39 1144.39,-441.11"/>
</g>
<!-- Node3 -->
<g id="node3" class="node">
<title>Node3</title>
<g id="a_node3"><a xlink:title=" ">
<polygon fill="none" stroke="#bfbfbf" points="348.5,-768.13 348.5,-809.13 497.5,-809.13 497.5,-768.13 348.5,-768.13"/>
<text text-anchor="start" x="356.5" y="-797.13" font-family="Helvetica,sans-Serif" font-size="10.00">std::unordered_map</text>
<text text-anchor="start" x="356.5" y="-786.13" font-family="Helvetica,sans-Serif" font-size="10.00">&lt; CARTA::PolarizationType,</text>
<text text-anchor="middle" x="423" y="-775.13" font-family="Helvetica,sans-Serif" font-size="10.00"> int &gt;</text>
</a>
</g>
</g>
<!-- Node3&#45;&gt;Node2 -->
<g id="edge2" class="edge">
<title>Node3&#45;&gt;Node2</title>
<path fill="none" stroke="#9a32cd" stroke-dasharray="5,2" d="M507.72,-800.2C653.23,-818.38 944.64,-845.66 1022,-784.63 1080.33,-738.6 1117.52,-487.65 1124.72,-435.23"/>
<polygon fill="#9a32cd" stroke="#9a32cd" points="507.86,-796.69 497.5,-798.91 506.99,-803.63 507.86,-796.69"/>
<text text-anchor="middle" x="784.5" y="-824.63" font-family="Helvetica,sans-Serif" font-size="10.00"> _stokes_indices</text>
</g>
<!-- Node4 -->
<g id="node4" class="node">
<title>Node4</title>
<g id="a_node4"><a xlink:title=" ">
<polygon fill="none" stroke="#bfbfbf" points="148.5,-779.13 148.5,-798.13 245.5,-798.13 245.5,-779.13 148.5,-779.13"/>
<text text-anchor="middle" x="197" y="-786.13" font-family="Helvetica,sans-Serif" font-size="10.00">PolarizationType</text>
</a>
</g>
</g>
<!-- Node4&#45;&gt;Node3 -->
<g id="edge3" class="edge">
<title>Node4&#45;&gt;Node3</title>
<path fill="none" stroke="#9a32cd" stroke-dasharray="5,2" d="M255.59,-788.63C283.77,-788.63 318.03,-788.63 348.11,-788.63"/>
<polygon fill="#9a32cd" stroke="#9a32cd" points="255.5,-785.13 245.5,-788.63 255.5,-792.13 255.5,-785.13"/>
<text text-anchor="middle" x="301.5" y="-791.63" font-family="Helvetica,sans-Serif" font-size="10.00"> keys</text>
</g>
<!-- Node5 -->
<g id="node5" class="node">
<title>Node5</title>
<g id="a_node5"><a xlink:title=" ">
<polygon fill="none" stroke="#bfbfbf" points="182.5,-606.13 182.5,-625.13 211.5,-625.13 211.5,-606.13 182.5,-606.13"/>
<text text-anchor="middle" x="197" y="-613.13" font-family="Helvetica,sans-Serif" font-size="10.00">int</text>
</a>
</g>
</g>
<!-- Node5&#45;&gt;Node2 -->
<g id="edge24" class="edge">
<title>Node5&#45;&gt;Node2</title>
<path fill="none" stroke="#9a32cd" stroke-dasharray="5,2" d="M221.96,-617.34C309.77,-623.14 622.01,-639.31 874,-596.63 942.05,-585.1 964.66,-588.03 1022,-549.63 1069.39,-517.88 1107.02,-458.51 1120.57,-435.29"/>
<polygon fill="#9a32cd" stroke="#9a32cd" points="222.16,-613.85 211.94,-616.66 221.68,-620.83 222.16,-613.85"/>
<text text-anchor="middle" x="598.5" y="-660.63" font-family="Helvetica,sans-Serif" font-size="10.00"> _modify_time</text>
<text text-anchor="middle" x="598.5" y="-649.63" font-family="Helvetica,sans-Serif" font-size="10.00">_stokes_axis</text>
<text text-anchor="middle" x="598.5" y="-638.63" font-family="Helvetica,sans-Serif" font-size="10.00">_stokes_cdelt</text>
<text text-anchor="middle" x="598.5" y="-627.63" font-family="Helvetica,sans-Serif" font-size="10.00">_z_axis</text>
</g>
<!-- Node5&#45;&gt;Node3 -->
<g id="edge4" class="edge">
<title>Node5&#45;&gt;Node3</title>
<path fill="none" stroke="#9a32cd" stroke-dasharray="5,2" d="M216.18,-632C243.25,-656.12 296.13,-702.17 344,-737.63 358.3,-748.22 374.71,-759.13 388.78,-768.12"/>
<polygon fill="#9a32cd" stroke="#9a32cd" points="218.42,-629.32 208.64,-625.26 213.75,-634.53 218.42,-629.32"/>
<text text-anchor="middle" x="301.5" y="-724.63" font-family="Helvetica,sans-Serif" font-size="10.00"> elements</text>
</g>
<!-- Node7 -->
<g id="node7" class="node">
<title>Node7</title>
<g id="a_node7"><a xlink:href="structStokesSource.html" target="_top" xlink:title=" ">
<polygon fill="none" stroke="black" points="743.5,-416.13 743.5,-435.13 825.5,-435.13 825.5,-416.13 743.5,-416.13"/>
<text text-anchor="middle" x="784.5" y="-423.13" font-family="Helvetica,sans-Serif" font-size="10.00">StokesSource</text>
</a>
</g>
</g>
<!-- Node5&#45;&gt;Node7 -->
<g id="edge7" class="edge">
<title>Node5&#45;&gt;Node7</title>
<path fill="none" stroke="#9a32cd" stroke-dasharray="5,2" d="M213.37,-598.58C238.27,-571.96 290.11,-520.58 344,-491.63 476.71,-420.32 662.64,-419.39 743.42,-422.97"/>
<polygon fill="#9a32cd" stroke="#9a32cd" points="210.74,-596.27 206.54,-605.99 215.89,-601.01 210.74,-596.27"/>
<text text-anchor="middle" x="423" y="-494.63" font-family="Helvetica,sans-Serif" font-size="10.00"> stokes</text>
</g>
<!-- Node8 -->
<g id="node8" class="node">
<title>Node8</title>
<g id="a_node8"><a xlink:href="structAxisRange.html" target="_top" xlink:title=" ">
<polygon fill="none" stroke="black" points="389,-512.13 389,-531.13 457,-531.13 457,-512.13 389,-512.13"/>
<text text-anchor="middle" x="423" y="-519.13" font-family="Helvetica,sans-Serif" font-size="10.00">AxisRange</text>
</a>
</g>
</g>
<!-- Node5&#45;&gt;Node8 -->
<g id="edge9" class="edge">
<title>Node5&#45;&gt;Node8</title>
<path fill="none" stroke="#9a32cd" stroke-dasharray="5,2" d="M221.04,-604.78C236.73,-597.48 258.01,-587.74 277,-579.63 318.88,-561.72 368.24,-542.34 397.22,-531.13"/>
<polygon fill="#9a32cd" stroke="#9a32cd" points="219.19,-601.78 211.61,-609.19 222.16,-608.12 219.19,-601.78"/>
<text text-anchor="middle" x="301.5" y="-593.63" font-family="Helvetica,sans-Serif" font-size="10.00"> from</text>
<text text-anchor="middle" x="301.5" y="-582.63" font-family="Helvetica,sans-Serif" font-size="10.00">to</text>
</g>
<!-- Node17 -->
<g id="node17" class="node">
<title>Node17</title>
<g id="a_node17"><a xlink:title=" ">
<polygon fill="none" stroke="#bfbfbf" points="371,-333.13 371,-352.13 475,-352.13 475,-333.13 371,-333.13"/>
<text text-anchor="middle" x="423" y="-340.13" font-family="Helvetica,sans-Serif" font-size="10.00">std::vector&lt; int &gt;</text>
</a>
</g>
</g>
<!-- Node5&#45;&gt;Node17 -->
<g id="edge19" class="edge">
<title>Node5&#45;&gt;Node17</title>
<path fill="none" stroke="#9a32cd" stroke-dasharray="5,2" d="M201.53,-596.14C211.5,-543.19 241.53,-398.52 277,-367.63 290.87,-355.55 335.01,-349.15 370.99,-345.86"/>
<polygon fill="#9a32cd" stroke="#9a32cd" points="198.08,-595.51 199.71,-605.97 204.97,-596.78 198.08,-595.51"/>
<text text-anchor="middle" x="301.5" y="-370.63" font-family="Helvetica,sans-Serif" font-size="10.00"> elements</text>
</g>
<!-- Node31 -->
<g id="node31" class="node">
<title>Node31</title>
<g id="a_node31"><a xlink:href="structcarta_1_1FileInfo_1_1RegionStatsId.html" target="_top" xlink:title=" ">
<polygon fill="none" stroke="black" points="520,-1006.13 520,-1025.13 677,-1025.13 677,-1006.13 520,-1006.13"/>
<text text-anchor="middle" x="598.5" y="-1013.13" font-family="Helvetica,sans-Serif" font-size="10.00">carta::FileInfo::RegionStatsId</text>
</a>
</g>
</g>
<!-- Node5&#45;&gt;Node31 -->
<g id="edge43" class="edge">
<title>Node5&#45;&gt;Node31</title>
<path fill="none" stroke="#9a32cd" stroke-dasharray="5,2" d="M207.38,-634.64C221.03,-663.21 246.16,-719.24 259,-769.63 275.25,-833.41 245.03,-859.09 277,-916.63 323.17,-999.73 440.79,-1017.1 519.96,-1018.78"/>
<polygon fill="#9a32cd" stroke="#9a32cd" points="210.42,-632.89 202.91,-625.42 204.12,-635.95 210.42,-632.89"/>
<text text-anchor="middle" x="301.5" y="-980.63" font-family="Helvetica,sans-Serif" font-size="10.00"> region_id</text>
<text text-anchor="middle" x="301.5" y="-969.63" font-family="Helvetica,sans-Serif" font-size="10.00">stokes</text>
</g>
<!-- Node32 -->
<g id="node32" class="node">
<title>Node32</title>
<g id="a_node32"><a xlink:title=" ">
<polygon fill="none" stroke="#bfbfbf" points="1058.5,-873.63 1058.5,-925.63 1195.5,-925.63 1195.5,-873.63 1058.5,-873.63"/>
<text text-anchor="start" x="1066.5" y="-913.63" font-family="Helvetica,sans-Serif" font-size="10.00">std::unordered_map</text>
<text text-anchor="start" x="1066.5" y="-902.63" font-family="Helvetica,sans-Serif" font-size="10.00">&lt; int, std::unique_ptr</text>
<text text-anchor="start" x="1066.5" y="-891.63" font-family="Helvetica,sans-Serif" font-size="10.00">&lt; casacore::HDF5Lattice</text>
<text text-anchor="middle" x="1127" y="-880.63" font-family="Helvetica,sans-Serif" font-size="10.00">&lt; float &gt; &gt; &gt;</text>
</a>
</g>
</g>
<!-- Node5&#45;&gt;Node32 -->
<g id="edge46" class="edge">
<title>Node5&#45;&gt;Node32</title>
<path fill="none" stroke="#9a32cd" stroke-dasharray="5,2" d="M205.75,-635.25C219.45,-669.65 249.12,-742.96 277,-803.63 304.8,-864.13 287.36,-902.62 344,-937.63 462.3,-1010.74 891.11,-942.69 1058.45,-912.44"/>
<polygon fill="#9a32cd" stroke="#9a32cd" points="208.83,-633.52 201.89,-625.51 202.32,-636.1 208.83,-633.52"/>
<text text-anchor="middle" x="598.5" y="-972.63" font-family="Helvetica,sans-Serif" font-size="10.00"> keys</text>
</g>
<!-- Node6 -->
<g id="node6" class="node">
<title>Node6</title>
<g id="a_node6"><a xlink:title=" ">
<polygon fill="none" stroke="#bfbfbf" points="360.5,-53.63 360.5,-83.63 485.5,-83.63 485.5,-53.63 360.5,-53.63"/>
<text text-anchor="start" x="368.5" y="-71.63" font-family="Helvetica,sans-Serif" font-size="10.00">vector&lt; carta::FileInfo</text>
<text text-anchor="middle" x="423" y="-60.63" font-family="Helvetica,sans-Serif" font-size="10.00">::ImageStats &gt;</text>
</a>
</g>
</g>
<!-- Node6&#45;&gt;Node2 -->
<g id="edge5" class="edge">
<title>Node6&#45;&gt;Node2</title>
<path fill="none" stroke="#9a32cd" stroke-dasharray="5,2" d="M475.7,-50.37C589.25,-13.91 862.93,53.64 1022,-78.63 1077.25,-124.56 1116.73,-364.95 1124.57,-416.06"/>
<polygon fill="#9a32cd" stroke="#9a32cd" points="474.29,-47.15 465.87,-53.58 476.46,-53.81 474.29,-47.15"/>
<text text-anchor="middle" x="784.5" y="-13.63" font-family="Helvetica,sans-Serif" font-size="10.00"> _cube_stats</text>
</g>
<!-- Node24 -->
<g id="node24" class="node">
<title>Node24</title>
<g id="a_node24"><a xlink:title=" ">
<polygon fill="none" stroke="#bfbfbf" points="695,-83.63 695,-113.63 874,-113.63 874,-83.63 695,-83.63"/>
<text text-anchor="start" x="703" y="-101.63" font-family="Helvetica,sans-Serif" font-size="10.00">std::vector&lt; std::vector</text>
<text text-anchor="middle" x="784.5" y="-90.63" font-family="Helvetica,sans-Serif" font-size="10.00">&lt; carta::FileInfo::ImageStats &gt; &gt;</text>
</a>
</g>
</g>
<!-- Node6&#45;&gt;Node24 -->
<g id="edge30" class="edge">
<title>Node6&#45;&gt;Node24</title>
<path fill="none" stroke="#9a32cd" stroke-dasharray="5,2" d="M495.86,-74.62C553.15,-79.4 633.66,-86.12 694.94,-91.24"/>
<polygon fill="#9a32cd" stroke="#9a32cd" points="496.06,-71.13 485.8,-73.78 495.47,-78.1 496.06,-71.13"/>
<text text-anchor="middle" x="598.5" y="-92.63" font-family="Helvetica,sans-Serif" font-size="10.00"> elements</text>
</g>
<!-- Node7&#45;&gt;Node2 -->
<g id="edge6" class="edge">
<title>Node7&#45;&gt;Node2</title>
<path fill="none" stroke="#9a32cd" stroke-dasharray="5,2" d="M835.59,-425.63C900.73,-425.63 1013.74,-425.63 1077.89,-425.63"/>
<polygon fill="#9a32cd" stroke="#9a32cd" points="835.56,-422.13 825.56,-425.63 835.56,-429.13 835.56,-422.13"/>
<text text-anchor="middle" x="957" y="-428.63" font-family="Helvetica,sans-Serif" font-size="10.00"> _stokes_source</text>
</g>
<!-- Node8&#45;&gt;Node7 -->
<g id="edge8" class="edge">
<title>Node8&#45;&gt;Node7</title>
<path fill="none" stroke="#9a32cd" stroke-dasharray="5,2" d="M443.47,-505.63C461.97,-491.35 491.17,-471.12 520,-460.63 530.37,-456.85 672.31,-439.18 743.45,-430.49"/>
<polygon fill="#9a32cd" stroke="#9a32cd" points="441.2,-502.96 435.53,-511.9 445.54,-508.45 441.2,-502.96"/>
<text text-anchor="middle" x="598.5" y="-485.63" font-family="Helvetica,sans-Serif" font-size="10.00"> x_range</text>
<text text-anchor="middle" x="598.5" y="-474.63" font-family="Helvetica,sans-Serif" font-size="10.00">y_range</text>
<text text-anchor="middle" x="598.5" y="-463.63" font-family="Helvetica,sans-Serif" font-size="10.00">z_range</text>
</g>
<!-- Node9 -->
<g id="node9" class="node">
<title>Node9</title>
<g id="a_node9"><a xlink:title=" ">
<polygon fill="none" stroke="#bfbfbf" points="178,-216.13 178,-235.13 216,-235.13 216,-216.13 178,-216.13"/>
<text text-anchor="middle" x="197" y="-223.13" font-family="Helvetica,sans-Serif" font-size="10.00">float</text>
</a>
</g>
</g>
<!-- Node9&#45;&gt;Node2 -->
<g id="edge10" class="edge">
<title>Node9&#45;&gt;Node2</title>
<path fill="none" stroke="#9a32cd" stroke-dasharray="5,2" d="M226.42,-224.22C364.1,-217.67 957.77,-192.46 1022,-241.63 1042.42,-257.26 1028.76,-273.49 1040,-296.63 1063.17,-344.32 1101.61,-395 1118.09,-415.83"/>
<polygon fill="#9a32cd" stroke="#9a32cd" points="226.08,-220.73 216.26,-224.71 226.41,-227.72 226.08,-220.73"/>
<text text-anchor="middle" x="598.5" y="-227.63" font-family="Helvetica,sans-Serif" font-size="10.00"> _stokes_crpix</text>
<text text-anchor="middle" x="598.5" y="-216.63" font-family="Helvetica,sans-Serif" font-size="10.00">_stokes_crval</text>
</g>
<!-- Node18 -->
<g id="node18" class="node">
<title>Node18</title>
<g id="a_node18"><a xlink:title=" ">
<polygon fill="none" stroke="#bfbfbf" points="366.5,-238.13 366.5,-257.13 479.5,-257.13 479.5,-238.13 366.5,-238.13"/>
<text text-anchor="middle" x="423" y="-245.13" font-family="Helvetica,sans-Serif" font-size="10.00">std::vector&lt; float &gt;</text>
</a>
</g>
</g>
<!-- Node9&#45;&gt;Node18 -->
<g id="edge21" class="edge">
<title>Node9&#45;&gt;Node18</title>
<path fill="none" stroke="#9a32cd" stroke-dasharray="5,2" d="M226.35,-228.41C261.41,-231.85 321.89,-237.79 366.35,-242.16"/>
<polygon fill="#9a32cd" stroke="#9a32cd" points="226.63,-224.92 216.33,-227.43 225.94,-231.89 226.63,-224.92"/>
<text text-anchor="middle" x="301.5" y="-240.63" font-family="Helvetica,sans-Serif" font-size="10.00"> elements</text>
</g>
<!-- Node10 -->
<g id="node10" class="node">
<title>Node10</title>
<g id="a_node10"><a xlink:title=" ">
<polygon fill="none" stroke="#bfbfbf" points="393.5,-709.13 393.5,-728.13 452.5,-728.13 452.5,-709.13 393.5,-709.13"/>
<text text-anchor="middle" x="423" y="-716.13" font-family="Helvetica,sans-Serif" font-size="10.00">IPosition</text>
</a>
</g>
</g>
<!-- Node10&#45;&gt;Node2 -->
<g id="edge11" class="edge">
<title>Node10&#45;&gt;Node2</title>
<path fill="none" stroke="#9a32cd" stroke-dasharray="5,2" d="M462.83,-723.99C514.97,-729.27 608.92,-731.87 677,-694.63 688.39,-688.4 683.72,-678.04 695,-671.63 822.36,-599.17 902.2,-713.99 1022,-629.63 1092.21,-580.19 1117.98,-468.95 1124.32,-435.39"/>
<polygon fill="#9a32cd" stroke="#9a32cd" points="462.99,-720.49 452.67,-722.87 462.22,-727.45 462.99,-720.49"/>
<text text-anchor="middle" x="784.5" y="-674.63" font-family="Helvetica,sans-Serif" font-size="10.00"> _image_shape</text>
</g>
<!-- Node28 -->
<g id="node28" class="node">
<title>Node28</title>
<g id="a_node28"><a xlink:href="structcarta_1_1FileInfo_1_1RegionSpectralStats.html" target="_top" xlink:title=" ">
<polygon fill="none" stroke="black" points="703,-897.63 703,-927.63 866,-927.63 866,-897.63 703,-897.63"/>
<text text-anchor="start" x="711" y="-915.63" font-family="Helvetica,sans-Serif" font-size="10.00">carta::FileInfo::RegionSpectral</text>
<text text-anchor="middle" x="784.5" y="-904.63" font-family="Helvetica,sans-Serif" font-size="10.00">Stats</text>
</a>
</g>
</g>
<!-- Node10&#45;&gt;Node28 -->
<g id="edge35" class="edge">
<title>Node10&#45;&gt;Node28</title>
<path fill="none" stroke="#9a32cd" stroke-dasharray="5,2" d="M453.42,-732.68C468.22,-740.01 486.3,-749.36 502,-758.63 591.06,-811.2 600.94,-845.63 695,-888.63 702.38,-892 710.34,-894.98 718.34,-897.6"/>
<polygon fill="#9a32cd" stroke="#9a32cd" points="454.75,-729.43 444.23,-728.18 451.67,-735.72 454.75,-729.43"/>
<text text-anchor="middle" x="598.5" y="-891.63" font-family="Helvetica,sans-Serif" font-size="10.00"> origin</text>
<text text-anchor="middle" x="598.5" y="-880.63" font-family="Helvetica,sans-Serif" font-size="10.00">shape</text>
</g>
<!-- Node11 -->
<g id="node11" class="node">
<title>Node11</title>
<g id="a_node11"><a xlink:title=" ">
<polygon fill="none" stroke="#bfbfbf" points="708.5,-741.13 708.5,-782.13 860.5,-782.13 860.5,-741.13 708.5,-741.13"/>
<text text-anchor="start" x="716.5" y="-770.13" font-family="Helvetica,sans-Serif" font-size="10.00">std::shared_ptr&lt; casacore</text>
<text text-anchor="start" x="716.5" y="-759.13" font-family="Helvetica,sans-Serif" font-size="10.00">::ImageInterface&lt; casacore</text>
<text text-anchor="middle" x="784.5" y="-748.13" font-family="Helvetica,sans-Serif" font-size="10.00">::Float &gt; &gt;</text>
</a>
</g>
</g>
<!-- Node11&#45;&gt;Node2 -->
<g id="edge12" class="edge">
<title>Node11&#45;&gt;Node2</title>
<path fill="none" stroke="#9a32cd" stroke-dasharray="5,2" d="M870.69,-770.85C920.01,-771.54 980.37,-763.83 1022,-729.63 1118.32,-650.48 1125.73,-477.82 1126.05,-435.25"/>
<polygon fill="#9a32cd" stroke="#9a32cd" points="870.75,-767.35 860.66,-770.59 870.57,-774.35 870.75,-767.35"/>
<text text-anchor="middle" x="957" y="-772.63" font-family="Helvetica,sans-Serif" font-size="10.00"> _image</text>
</g>
<!-- Node12 -->
<g id="node12" class="node">
<title>Node12</title>
<g id="a_node12"><a xlink:href="structcarta_1_1FileInfo_1_1ImageStats.html" target="_top" xlink:title=" ">
<polygon fill="none" stroke="black" points="712,-287.13 712,-306.13 857,-306.13 857,-287.13 712,-287.13"/>
<text text-anchor="middle" x="784.5" y="-294.13" font-family="Helvetica,sans-Serif" font-size="10.00">carta::FileInfo::ImageStats</text>
</a>
</g>
</g>
<!-- Node12&#45;&gt;Node2 -->
<g id="edge13" class="edge">
<title>Node12&#45;&gt;Node2</title>
<path fill="none" stroke="#9a32cd" stroke-dasharray="5,2" d="M867.43,-290.05C914.76,-289.55 974.2,-294.75 1022,-317.63 1069.19,-340.21 1106.39,-393.91 1120.2,-415.94"/>
<polygon fill="#9a32cd" stroke="#9a32cd" points="867.15,-286.55 857.22,-290.24 867.28,-293.55 867.15,-286.55"/>
<text text-anchor="middle" x="957" y="-320.63" font-family="Helvetica,sans-Serif" font-size="10.00"> _empty_stats</text>
</g>
<!-- Node13 -->
<g id="node13" class="node">
<title>Node13</title>
<g id="a_node13"><a xlink:title=" ">
<polygon fill="none" stroke="#bfbfbf" points="404,-371.13 404,-390.13 442,-390.13 442,-371.13 404,-371.13"/>
<text text-anchor="middle" x="423" y="-378.13" font-family="Helvetica,sans-Serif" font-size="10.00">bool</text>
</a>
</g>
</g>
<!-- Node13&#45;&gt;Node2 -->
<g id="edge26" class="edge">
<title>Node13&#45;&gt;Node2</title>
<path fill="none" stroke="#9a32cd" stroke-dasharray="5,2" d="M452.16,-383.22C471.28,-384.85 497.14,-386.79 520,-387.63 589.73,-390.16 617.64,-424.31 677,-387.63 692.22,-378.22 679.78,-361.03 695,-351.63 762.67,-309.8 795.25,-340.3 874,-351.63 959.98,-363.99 1057.54,-398.93 1101.84,-416"/>
<polygon fill="#9a32cd" stroke="#9a32cd" points="452.29,-379.72 442.03,-382.33 451.68,-386.69 452.29,-379.72"/>
<text text-anchor="middle" x="784.5" y="-398.63" font-family="Helvetica,sans-Serif" font-size="10.00"> _has_pixel_mask</text>
<text text-anchor="middle" x="784.5" y="-387.63" font-family="Helvetica,sans-Serif" font-size="10.00">_is_generated</text>
<text text-anchor="middle" x="784.5" y="-376.63" font-family="Helvetica,sans-Serif" font-size="10.00">_is_gz</text>
<text text-anchor="middle" x="784.5" y="-365.63" font-family="Helvetica,sans-Serif" font-size="10.00">_is_history_beam</text>
<text text-anchor="middle" x="784.5" y="-354.63" font-family="Helvetica,sans-Serif" font-size="10.00">_support_aips_beam</text>
</g>
<!-- Node13&#45;&gt;Node12 -->
<g id="edge14" class="edge">
<title>Node13&#45;&gt;Node12</title>
<path fill="none" stroke="#9a32cd" stroke-dasharray="5,2" d="M452.18,-376.15C471.3,-373.13 497.17,-369.08 520,-365.63 589.73,-355.07 615.63,-377.38 677,-342.63 687.99,-336.4 684.4,-327.5 695,-320.63 704.75,-314.31 716.14,-309.64 727.44,-306.2"/>
<polygon fill="#9a32cd" stroke="#9a32cd" points="451.37,-372.73 442.04,-377.75 452.46,-379.65 451.37,-372.73"/>
<text text-anchor="middle" x="598.5" y="-379.63" font-family="Helvetica,sans-Serif" font-size="10.00"> full</text>
<text text-anchor="middle" x="598.5" y="-368.63" font-family="Helvetica,sans-Serif" font-size="10.00">valid</text>
</g>
<!-- Node13&#45;&gt;Node28 -->
<g id="edge37" class="edge">
<title>Node13&#45;&gt;Node28</title>
<path fill="none" stroke="#9a32cd" stroke-dasharray="5,2" d="M452.62,-382.35C469.33,-384.88 489.52,-390.84 502,-404.63 529.09,-434.54 496.31,-460.95 520,-493.63 567.08,-558.56 634.6,-514.54 677,-582.63 713.01,-640.45 652.04,-835.76 695,-888.63 697.71,-891.96 700.83,-894.86 704.25,-897.38"/>
<polygon fill="#9a32cd" stroke="#9a32cd" points="452.6,-378.82 442.26,-381.13 451.78,-385.78 452.6,-378.82"/>
<text text-anchor="middle" x="598.5" y="-585.63" font-family="Helvetica,sans-Serif" font-size="10.00"> completed</text>
</g>
<!-- Node14 -->
<g id="node14" class="node">
<title>Node14</title>
<g id="a_node14"><a xlink:title=" ">
<polygon fill="none" stroke="#bfbfbf" points="344,-283.63 344,-313.63 502,-313.63 502,-283.63 344,-283.63"/>
<text text-anchor="start" x="352" y="-301.63" font-family="Helvetica,sans-Serif" font-size="10.00">std::map&lt; CARTA::StatsType,</text>
<text text-anchor="middle" x="423" y="-290.63" font-family="Helvetica,sans-Serif" font-size="10.00"> double &gt;</text>
</a>
</g>
</g>
<!-- Node14&#45;&gt;Node12 -->
<g id="edge15" class="edge">
<title>Node14&#45;&gt;Node12</title>
<path fill="none" stroke="#9a32cd" stroke-dasharray="5,2" d="M512.24,-297.68C514.86,-297.66 517.45,-297.64 520,-297.63 584.96,-297.16 658.93,-296.91 711.92,-296.77"/>
<polygon fill="#9a32cd" stroke="#9a32cd" points="512.04,-294.19 502.07,-297.77 512.09,-301.19 512.04,-294.19"/>
<text text-anchor="middle" x="598.5" y="-300.63" font-family="Helvetica,sans-Serif" font-size="10.00"> basic_stats</text>
</g>
<!-- Node15 -->
<g id="node15" class="node">
<title>Node15</title>
<g id="a_node15"><a xlink:title=" ">
<polygon fill="none" stroke="#bfbfbf" points="0,-306.13 0,-325.13 50,-325.13 50,-306.13 0,-306.13"/>
<text text-anchor="middle" x="25" y="-313.13" font-family="Helvetica,sans-Serif" font-size="10.00">double</text>
</a>
</g>
</g>
<!-- Node15&#45;&gt;Node14 -->
<g id="edge16" class="edge">
<title>Node15&#45;&gt;Node14</title>
<path fill="none" stroke="#9a32cd" stroke-dasharray="5,2" d="M60.31,-314.15C122.99,-311.46 257.49,-305.69 343.64,-301.99"/>
<polygon fill="#9a32cd" stroke="#9a32cd" points="60.02,-310.66 50.18,-314.59 60.32,-317.66 60.02,-310.66"/>
<text text-anchor="middle" x="197" y="-313.63" font-family="Helvetica,sans-Serif" font-size="10.00"> elements</text>
</g>
<!-- Node30 -->
<g id="node30" class="node">
<title>Node30</title>
<g id="a_node30"><a xlink:title=" ">
<polygon fill="none" stroke="#bfbfbf" points="135,-879.13 135,-898.13 259,-898.13 259,-879.13 135,-879.13"/>
<text text-anchor="middle" x="197" y="-886.13" font-family="Helvetica,sans-Serif" font-size="10.00">std::vector&lt; double &gt;</text>
</a>
</g>
</g>
<!-- Node15&#45;&gt;Node30 -->
<g id="edge41" class="edge">
<title>Node15&#45;&gt;Node30</title>
<path fill="none" stroke="#9a32cd" stroke-dasharray="5,2" d="M27.36,-335.33C32.69,-403.72 55.92,-635.99 135,-807.63 148.26,-836.41 173.03,-864.76 186.57,-879.06"/>
<polygon fill="#9a32cd" stroke="#9a32cd" points="30.83,-334.87 26.61,-325.15 23.85,-335.38 30.83,-334.87"/>
<text text-anchor="middle" x="92.5" y="-759.63" font-family="Helvetica,sans-Serif" font-size="10.00"> elements</text>
</g>
<!-- Node16 -->
<g id="node16" class="node">
<title>Node16</title>
<g id="a_node16"><a xlink:title=" ">
<polygon fill="none" stroke="#bfbfbf" points="165,-360.13 165,-379.13 229,-379.13 229,-360.13 165,-360.13"/>
<text text-anchor="middle" x="197" y="-367.13" font-family="Helvetica,sans-Serif" font-size="10.00">StatsType</text>
</a>
</g>
</g>
<!-- Node16&#45;&gt;Node14 -->
<g id="edge17" class="edge">
<title>Node16&#45;&gt;Node14</title>
<path fill="none" stroke="#9a32cd" stroke-dasharray="5,2" d="M225.61,-355.48C240.54,-348.23 259.47,-339.67 277,-333.63 299.64,-325.81 324.86,-319.08 347.82,-313.66"/>
<polygon fill="#9a32cd" stroke="#9a32cd" points="223.84,-352.44 216.42,-360.01 226.94,-358.72 223.84,-352.44"/>
<text text-anchor="middle" x="301.5" y="-336.63" font-family="Helvetica,sans-Serif" font-size="10.00"> keys</text>
</g>
<!-- Node29 -->
<g id="node29" class="node">
<title>Node29</title>
<g id="a_node29"><a xlink:title=" ">
<polygon fill="none" stroke="#bfbfbf" points="344,-897.63 344,-927.63 502,-927.63 502,-897.63 344,-897.63"/>
<text text-anchor="start" x="352" y="-915.63" font-family="Helvetica,sans-Serif" font-size="10.00">std::map&lt; CARTA::StatsType,</text>
<text text-anchor="middle" x="423" y="-904.63" font-family="Helvetica,sans-Serif" font-size="10.00"> std::vector&lt; double &gt; &gt;</text>
</a>
</g>
</g>
<!-- Node16&#45;&gt;Node29 -->
<g id="edge39" class="edge">
<title>Node16&#45;&gt;Node29</title>
<path fill="none" stroke="#9a32cd" stroke-dasharray="5,2" d="M215.89,-386.74C245.07,-415.94 302.03,-478.66 326,-544.63 367.68,-659.33 298.83,-705.25 344,-818.63 356.87,-850.93 385.26,-880.43 404.01,-897.45"/>
<polygon fill="#9a32cd" stroke="#9a32cd" points="218.03,-383.94 208.45,-379.42 213.12,-388.93 218.03,-383.94"/>
<text text-anchor="middle" x="301.5" y="-547.63" font-family="Helvetica,sans-Serif" font-size="10.00"> keys</text>
</g>
<!-- Node17&#45;&gt;Node12 -->
<g id="edge18" class="edge">
<title>Node17&#45;&gt;Node12</title>
<path fill="none" stroke="#9a32cd" stroke-dasharray="5,2" d="M485.27,-334.79C548.01,-326.76 645.47,-314.29 711.77,-305.8"/>
<polygon fill="#9a32cd" stroke="#9a32cd" points="484.6,-331.34 475.13,-336.08 485.49,-338.29 484.6,-331.34"/>
<text text-anchor="middle" x="598.5" y="-332.63" font-family="Helvetica,sans-Serif" font-size="10.00"> histogram_bins</text>
</g>
<!-- Node18&#45;&gt;Node12 -->
<g id="edge20" class="edge">
<title>Node18&#45;&gt;Node12</title>
<path fill="none" stroke="#9a32cd" stroke-dasharray="5,2" d="M490,-248.59C541.53,-250.54 614.61,-255.97 677,-270.63 685.36,-272.59 686.78,-275.16 695,-277.63 706.89,-281.19 719.87,-284.36 732.14,-287.05"/>
<polygon fill="#9a32cd" stroke="#9a32cd" points="490.11,-245.09 479.99,-248.24 489.86,-252.08 490.11,-245.09"/>
<text text-anchor="middle" x="598.5" y="-284.63" font-family="Helvetica,sans-Serif" font-size="10.00"> percentile_ranks</text>
<text text-anchor="middle" x="598.5" y="-273.63" font-family="Helvetica,sans-Serif" font-size="10.00">percentiles</text>
</g>
<!-- Node19 -->
<g id="node19" class="node">
<title>Node19</title>
<g id="a_node19"><a xlink:title=" ">
<polygon fill="none" stroke="#bfbfbf" points="400.5,-663.13 400.5,-682.13 445.5,-682.13 445.5,-663.13 400.5,-663.13"/>
<text text-anchor="middle" x="423" y="-670.13" font-family="Helvetica,sans-Serif" font-size="10.00">size_t</text>
</a>
</g>
</g>
<!-- Node19&#45;&gt;Node2 -->
<g id="edge22" class="edge">
<title>Node19&#45;&gt;Node2</title>
<path fill="none" stroke="#9a32cd" stroke-dasharray="5,2" d="M441.16,-655.86C459.51,-638.59 490.04,-611.72 520,-593.63 584.8,-554.5 624.15,-581.81 677,-527.63 692.33,-511.91 677.67,-495.11 695,-481.63 752.8,-436.65 949.42,-450.41 1022,-440.63 1040.26,-438.16 1060.3,-435.31 1077.87,-432.76"/>
<polygon fill="#9a32cd" stroke="#9a32cd" points="438.45,-653.61 433.63,-663.05 443.28,-658.67 438.45,-653.61"/>
<text text-anchor="middle" x="784.5" y="-539.63" font-family="Helvetica,sans-Serif" font-size="10.00"> _depth</text>
<text text-anchor="middle" x="784.5" y="-528.63" font-family="Helvetica,sans-Serif" font-size="10.00">_height</text>
<text text-anchor="middle" x="784.5" y="-517.63" font-family="Helvetica,sans-Serif" font-size="10.00">_image_plane_size</text>
<text text-anchor="middle" x="784.5" y="-506.63" font-family="Helvetica,sans-Serif" font-size="10.00">_num_dims</text>
<text text-anchor="middle" x="784.5" y="-495.63" font-family="Helvetica,sans-Serif" font-size="10.00">_num_stokes</text>
<text text-anchor="middle" x="784.5" y="-484.63" font-family="Helvetica,sans-Serif" font-size="10.00">_width</text>
</g>
<!-- Node19&#45;&gt;Node28 -->
<g id="edge36" class="edge">
<title>Node19&#45;&gt;Node28</title>
<path fill="none" stroke="#9a32cd" stroke-dasharray="5,2" d="M455.92,-672.93C510.51,-675.32 621.27,-688.67 677,-755.63 715.16,-801.47 655.66,-843.79 695,-888.63 697.94,-891.98 701.3,-894.88 704.94,-897.4"/>
<polygon fill="#9a32cd" stroke="#9a32cd" points="455.9,-669.43 445.78,-672.58 455.66,-676.42 455.9,-669.43"/>
<text text-anchor="middle" x="598.5" y="-758.63" font-family="Helvetica,sans-Serif" font-size="10.00"> latest_x</text>
</g>
<!-- Node20 -->
<g id="node20" class="node">
<title>Node20</title>
<g id="a_node20"><a xlink:title=" ">
<polygon fill="none" stroke="#bfbfbf" points="712.5,-691.63 712.5,-721.63 856.5,-721.63 856.5,-691.63 712.5,-691.63"/>
<text text-anchor="start" x="720.5" y="-709.63" font-family="Helvetica,sans-Serif" font-size="10.00">std::shared_ptr&lt; casacore</text>
<text text-anchor="middle" x="784.5" y="-698.63" font-family="Helvetica,sans-Serif" font-size="10.00">::CoordinateSystem &gt;</text>
</a>
</g>
</g>
<!-- Node20&#45;&gt;Node2 -->
<g id="edge23" class="edge">
<title>Node20&#45;&gt;Node2</title>
<path fill="none" stroke="#9a32cd" stroke-dasharray="5,2" d="M866.71,-715.22C916.29,-716.15 978.32,-709.07 1022,-675.63 1104.11,-612.75 1121.9,-473.31 1125.28,-435.34"/>
<polygon fill="#9a32cd" stroke="#9a32cd" points="866.75,-711.72 856.65,-714.93 866.54,-718.72 866.75,-711.72"/>
<text text-anchor="middle" x="957" y="-717.63" font-family="Helvetica,sans-Serif" font-size="10.00"> _coord_sys</text>
</g>
<!-- Node21 -->
<g id="node21" class="node">
<title>Node21</title>
<g id="a_node21"><a xlink:title=" ">
<polygon fill="none" stroke="#bfbfbf" points="708.5,-556.63 708.5,-586.63 860.5,-586.63 860.5,-556.63 708.5,-556.63"/>
<text text-anchor="start" x="716.5" y="-574.63" font-family="Helvetica,sans-Serif" font-size="10.00">std::shared_ptr&lt; casacore</text>
<text text-anchor="middle" x="784.5" y="-563.63" font-family="Helvetica,sans-Serif" font-size="10.00">::ImageInterface&lt; float &gt; &gt;</text>
</a>
</g>
</g>
<!-- Node21&#45;&gt;Node2 -->
<g id="edge25" class="edge">
<title>Node21&#45;&gt;Node2</title>
<path fill="none" stroke="#9a32cd" stroke-dasharray="5,2" d="M840.66,-553.26C851.72,-549.48 863.25,-545.48 874,-541.63 940.2,-517.89 958.44,-515.74 1022,-485.63 1054.97,-470.01 1091.46,-447.7 1111.25,-435.15"/>
<polygon fill="#9a32cd" stroke="#9a32cd" points="839.43,-549.98 831.08,-556.51 841.68,-556.61 839.43,-549.98"/>
<text text-anchor="middle" x="957" y="-537.63" font-family="Helvetica,sans-Serif" font-size="10.00"> _computed_stokes_image</text>
</g>
<!-- Node22 -->
<g id="node22" class="node">
<title>Node22</title>
<g id="a_node22"><a xlink:title=" ">
<polygon fill="none" stroke="#bfbfbf" points="752,-134.13 752,-153.13 817,-153.13 817,-134.13 752,-134.13"/>
<text text-anchor="middle" x="784.5" y="-141.13" font-family="Helvetica,sans-Serif" font-size="10.00">std::string</text>
</a>
</g>
</g>
<!-- Node22&#45;&gt;Node1 -->
<g id="edge48" class="edge">
<title>Node22&#45;&gt;Node1</title>
<path fill="none" stroke="#9a32cd" stroke-dasharray="5,2" d="M827.29,-140.71C843.14,-137.9 860.59,-132.59 874,-122.63 886.79,-113.13 878.19,-99.57 892,-91.63 942.07,-62.8 971.4,-63.74 1022,-91.63 1283.94,-236 1358,-658.76 1368.59,-728.76"/>
<polygon fill="#9a32cd" stroke="#9a32cd" points="826.53,-137.28 817.16,-142.22 827.56,-144.21 826.53,-137.28"/>
<text text-anchor="middle" x="1127" y="-284.63" font-family="Helvetica,sans-Serif" font-size="10.00"> _hdu</text>
</g>
<!-- Node22&#45;&gt;Node2 -->
<g id="edge27" class="edge">
<title>Node22&#45;&gt;Node2</title>
<path fill="none" stroke="#9a32cd" stroke-dasharray="5,2" d="M827.46,-138.06C886.87,-131.1 991.65,-122.47 1022,-143.63 1117.46,-210.17 1125.53,-374.76 1126.02,-416.09"/>
<polygon fill="#9a32cd" stroke="#9a32cd" points="826.78,-134.62 817.28,-139.29 827.62,-141.57 826.78,-134.62"/>
<text text-anchor="middle" x="957" y="-168.63" font-family="Helvetica,sans-Serif" font-size="10.00"> _directory</text>
<text text-anchor="middle" x="957" y="-157.63" font-family="Helvetica,sans-Serif" font-size="10.00">_filename</text>
<text text-anchor="middle" x="957" y="-146.63" font-family="Helvetica,sans-Serif" font-size="10.00">_hdu</text>
</g>
<!-- Node23 -->
<g id="node23" class="node">
<title>Node23</title>
<g id="a_node23"><a xlink:title=" ">
<polygon fill="none" stroke="#bfbfbf" points="371,-128.63 371,-158.63 475,-158.63 475,-128.63 371,-128.63"/>
<text text-anchor="start" x="379" y="-146.63" font-family="Helvetica,sans-Serif" font-size="10.00">std::basic_string&lt;</text>
<text text-anchor="middle" x="423" y="-135.63" font-family="Helvetica,sans-Serif" font-size="10.00"> Char &gt;</text>
</a>
</g>
</g>
<!-- Node23&#45;&gt;Node22 -->
<g id="edge28" class="edge">
<title>Node23&#45;&gt;Node22</title>
<path fill="none" stroke="midnightblue" d="M485.19,-143.63C562.32,-143.63 692.04,-143.63 751.72,-143.63"/>
<polygon fill="midnightblue" stroke="midnightblue" points="485.13,-140.13 475.13,-143.63 485.13,-147.13 485.13,-140.13"/>
</g>
<!-- Node24&#45;&gt;Node2 -->
<g id="edge29" class="edge">
<title>Node24&#45;&gt;Node2</title>
<path fill="none" stroke="#9a32cd" stroke-dasharray="5,2" d="M874.77,-82.74C923.04,-79.23 981,-83.84 1022,-115.63 1122.5,-193.53 1126.75,-372.45 1126.24,-415.96"/>
<polygon fill="#9a32cd" stroke="#9a32cd" points="874.29,-79.27 864.62,-83.61 874.88,-86.25 874.29,-79.27"/>
<text text-anchor="middle" x="957" y="-118.63" font-family="Helvetica,sans-Serif" font-size="10.00"> _z_stats</text>
</g>
<!-- Node25 -->
<g id="node25" class="node">
<title>Node25</title>
<g id="a_node25"><a xlink:title=" ">
<polygon fill="none" stroke="#bfbfbf" points="753.5,-249.13 753.5,-268.13 815.5,-268.13 815.5,-249.13 753.5,-249.13"/>
<text text-anchor="middle" x="784.5" y="-256.13" font-family="Helvetica,sans-Serif" font-size="10.00">DataType</text>
</a>
</g>
</g>
<!-- Node25&#45;&gt;Node2 -->
<g id="edge31" class="edge">
<title>Node25&#45;&gt;Node2</title>
<path fill="none" stroke="#9a32cd" stroke-dasharray="5,2" d="M825.91,-251.27C875.56,-244.38 960.73,-239.74 1022,-274.63 1080.09,-307.7 1112.86,-388.12 1122.76,-415.96"/>
<polygon fill="#9a32cd" stroke="#9a32cd" points="825.25,-247.83 815.87,-252.76 826.28,-254.75 825.25,-247.83"/>
<text text-anchor="middle" x="957" y="-277.63" font-family="Helvetica,sans-Serif" font-size="10.00"> _data_type</text>
</g>
<!-- Node26 -->
<g id="node26" class="node">
<title>Node26</title>
<g id="a_node26"><a xlink:title=" ">
<polygon fill="none" stroke="#bfbfbf" points="739.5,-173.13 739.5,-192.13 829.5,-192.13 829.5,-173.13 739.5,-173.13"/>
<text text-anchor="middle" x="784.5" y="-180.13" font-family="Helvetica,sans-Serif" font-size="10.00">GaussianBeam</text>
</a>
</g>
</g>
<!-- Node26&#45;&gt;Node2 -->
<g id="edge32" class="edge">
<title>Node26&#45;&gt;Node2</title>
<path fill="none" stroke="#9a32cd" stroke-dasharray="5,2" d="M839.77,-180.81C900.33,-179.85 993.56,-181.83 1022,-201.63 1098.71,-255.03 1120.19,-379.92 1124.88,-415.81"/>
<polygon fill="#9a32cd" stroke="#9a32cd" points="839.54,-177.32 829.61,-181.01 839.67,-184.32 839.54,-177.32"/>
<text text-anchor="middle" x="957" y="-204.63" font-family="Helvetica,sans-Serif" font-size="10.00"> _history_beam</text>
</g>
<!-- Node27 -->
<g id="node27" class="node">
<title>Node27</title>
<g id="a_node27"><a xlink:title=" ">
<polygon fill="none" stroke="#bfbfbf" points="1040,-969.13 1040,-1010.13 1214,-1010.13 1214,-969.13 1040,-969.13"/>
<text text-anchor="start" x="1048" y="-998.13" font-family="Helvetica,sans-Serif" font-size="10.00">std::map&lt; carta::FileInfo</text>
<text text-anchor="start" x="1048" y="-987.13" font-family="Helvetica,sans-Serif" font-size="10.00">::RegionStatsId, carta</text>
<text text-anchor="middle" x="1127" y="-976.13" font-family="Helvetica,sans-Serif" font-size="10.00">::FileInfo::RegionSpectralStats &gt;</text>
</a>
</g>
</g>
<!-- Node27&#45;&gt;Node1 -->
<g id="edge33" class="edge">
<title>Node27&#45;&gt;Node1</title>
<path fill="none" stroke="#9a32cd" stroke-dasharray="5,2" d="M1202.24,-965.31C1235.97,-951.16 1274.22,-930.35 1301,-901.63 1344.79,-854.65 1363.07,-775.73 1368.31,-748.34"/>
<polygon fill="#9a32cd" stroke="#9a32cd" points="1200.81,-962.11 1192.86,-969.12 1203.44,-968.6 1200.81,-962.11"/>
<text text-anchor="middle" x="1266.5" y="-953.63" font-family="Helvetica,sans-Serif" font-size="10.00"> _region_stats</text>
</g>
<!-- Node28&#45;&gt;Node27 -->
<g id="edge34" class="edge">
<title>Node28&#45;&gt;Node27</title>
<path fill="none" stroke="#9a32cd" stroke-dasharray="5,2" d="M861.95,-929.91C914.8,-941.87 985.19,-957.78 1040,-970.18"/>
<polygon fill="#9a32cd" stroke="#9a32cd" points="862.49,-926.45 851.96,-927.65 860.94,-933.27 862.49,-926.45"/>
<text text-anchor="middle" x="957" y="-967.63" font-family="Helvetica,sans-Serif" font-size="10.00"> elements</text>
</g>
<!-- Node29&#45;&gt;Node28 -->
<g id="edge38" class="edge">
<title>Node29&#45;&gt;Node28</title>
<path fill="none" stroke="#9a32cd" stroke-dasharray="5,2" d="M512.3,-912.63C570.54,-912.63 646.23,-912.63 702.84,-912.63"/>
<polygon fill="#9a32cd" stroke="#9a32cd" points="512.01,-909.13 502.01,-912.63 512.01,-916.13 512.01,-909.13"/>
<text text-anchor="middle" x="598.5" y="-915.63" font-family="Helvetica,sans-Serif" font-size="10.00"> stats</text>
</g>
<!-- Node30&#45;&gt;Node29 -->
<g id="edge40" class="edge">
<title>Node30&#45;&gt;Node29</title>
<path fill="none" stroke="#9a32cd" stroke-dasharray="5,2" d="M269.18,-896.25C292.87,-898.79 319.39,-901.63 343.6,-904.23"/>
<polygon fill="#9a32cd" stroke="#9a32cd" points="269.52,-892.77 259.21,-895.18 268.78,-899.73 269.52,-892.77"/>
<text text-anchor="middle" x="301.5" y="-904.63" font-family="Helvetica,sans-Serif" font-size="10.00"> elements</text>
</g>
<!-- Node31&#45;&gt;Node27 -->
<g id="edge42" class="edge">
<title>Node31&#45;&gt;Node27</title>
<path fill="none" stroke="#9a32cd" stroke-dasharray="5,2" d="M687.35,-1011.29C785.22,-1006.45 942.43,-998.69 1039.67,-993.89"/>
<polygon fill="#9a32cd" stroke="#9a32cd" points="687,-1007.8 677.19,-1011.79 687.35,-1014.79 687,-1007.8"/>
<text text-anchor="middle" x="784.5" y="-1012.63" font-family="Helvetica,sans-Serif" font-size="10.00"> keys</text>
</g>
<!-- Node32&#45;&gt;Node1 -->
<g id="edge44" class="edge">
<title>Node32&#45;&gt;Node1</title>
<path fill="none" stroke="#9a32cd" stroke-dasharray="5,2" d="M1205.98,-894.1C1237.94,-888.61 1273.74,-877.99 1301,-857.63 1339.64,-828.75 1360.26,-771.35 1367.24,-748.42"/>
<polygon fill="#9a32cd" stroke="#9a32cd" points="1205.09,-890.69 1195.75,-895.7 1206.17,-897.61 1205.09,-890.69"/>
<text text-anchor="middle" x="1266.5" y="-889.63" font-family="Helvetica,sans-Serif" font-size="10.00"> _mipmaps</text>
</g>
<!-- Node33 -->
<g id="node33" class="node">
<title>Node33</title>
<g id="a_node33"><a xlink:title=" ">
<polygon fill="none" stroke="#bfbfbf" points="712.5,-848.63 712.5,-878.63 856.5,-878.63 856.5,-848.63 712.5,-848.63"/>
<text text-anchor="start" x="720.5" y="-866.63" font-family="Helvetica,sans-Serif" font-size="10.00">std::unique_ptr&lt; casacore</text>
<text text-anchor="middle" x="784.5" y="-855.63" font-family="Helvetica,sans-Serif" font-size="10.00">::HDF5Lattice&lt; float &gt; &gt;</text>
</a>
</g>
</g>
<!-- Node33&#45;&gt;Node1 -->
<g id="edge47" class="edge">
<title>Node33&#45;&gt;Node1</title>
<path fill="none" stroke="#9a32cd" stroke-dasharray="5,2" d="M866.92,-854.23C912.7,-848.37 970.78,-839.97 1022,-829.63 1139.83,-805.83 1277.23,-766.37 1338.14,-748.25"/>
<polygon fill="#9a32cd" stroke="#9a32cd" points="866.23,-850.79 856.75,-855.51 867.11,-857.73 866.23,-850.79"/>
<text text-anchor="middle" x="1127" y="-827.63" font-family="Helvetica,sans-Serif" font-size="10.00"> _swizzled_image</text>
</g>
<!-- Node33&#45;&gt;Node32 -->
<g id="edge45" class="edge">
<title>Node33&#45;&gt;Node32</title>
<path fill="none" stroke="#9a32cd" stroke-dasharray="5,2" d="M866.83,-872.23C925.36,-878.41 1003.39,-886.66 1058.48,-892.49"/>
<polygon fill="#9a32cd" stroke="#9a32cd" points="867.19,-868.74 856.88,-871.17 866.46,-875.7 867.19,-868.74"/>
<text text-anchor="middle" x="957" y="-890.63" font-family="Helvetica,sans-Serif" font-size="10.00"> elements</text>
</g>
<!-- Node34 -->
<g id="node34" class="node">
<title>Node34</title>
<g id="a_node34"><a xlink:title=" ">
<polygon fill="none" stroke="#bfbfbf" points="1085.5,-22.13 1085.5,-41.13 1168.5,-41.13 1168.5,-22.13 1085.5,-22.13"/>
<text text-anchor="middle" x="1127" y="-29.13" font-family="Helvetica,sans-Serif" font-size="10.00">H5D_layout_t</text>
</a>
</g>
</g>
<!-- Node34&#45;&gt;Node1 -->
<g id="edge49" class="edge">
<title>Node34&#45;&gt;Node1</title>
<path fill="none" stroke="#9a32cd" stroke-dasharray="5,2" d="M1178.92,-22.48C1217.87,-18.67 1270,-20.98 1301,-52.63 1350.68,-103.34 1367.54,-649.25 1369.74,-728.94"/>
<polygon fill="#9a32cd" stroke="#9a32cd" points="1178.36,-19.02 1168.82,-23.63 1179.15,-25.98 1178.36,-19.02"/>
<text text-anchor="middle" x="1266.5" y="-55.63" font-family="Helvetica,sans-Serif" font-size="10.00"> _layout</text>
</g>
</g>
</svg>
        <g id="navigator" transform="translate(0 0)" fill="#404254">
                <rect fill="#f2f5e9" fill-opacity="0.5" stroke="#606060" stroke-width=".5" x="0" y="0" width="60" height="60"/>
                <use id="zoomplus" xlink:href="#zoomPlus" x="17" y="9" onmousedown="handleZoom(evt,'in')"/>
                <use id="zoomminus" xlink:href="#zoomMin" x="42" y="9" onmousedown="handleZoom(evt,'out')"/>
                <use id="reset" xlink:href="#resetDef" x="30" y="36" onmousedown="handleReset()"/>
                <g id="arrowUp" xlink:href="#dirArrow" transform="translate(30 24)" onmousedown="handlePan(0,-1)">
                  <use xlink:href="#rim" fill="#404040">
                        <set attributeName="fill" to="#808080" begin="arrowUp.mouseover" end="arrowUp.mouseout"/>
                  </use>
                  <path fill="none" stroke="white" stroke-width="1.5" d="M0,-3.0v7 M-2.5,-0.5L0,-3.0L2.5,-0.5"/>
                </g>
                <g id="arrowRight" xlink:href="#dirArrow" transform="rotate(90) translate(36 -43)" onmousedown="handlePan(1,0)">
                  <use xlink:href="#rim" fill="#404040">
                        <set attributeName="fill" to="#808080" begin="arrowRight.mouseover" end="arrowRight.mouseout"/>
                  </use>
                  <path fill="none" stroke="white" stroke-width="1.5" d="M0,-3.0v7 M-2.5,-0.5L0,-3.0L2.5,-0.5"/>
                </g>
                <g id="arrowDown" xlink:href="#dirArrow" transform="rotate(180) translate(-30 -48)" onmousedown="handlePan(0,1)">
                  <use xlink:href="#rim" fill="#404040">
                        <set attributeName="fill" to="#808080" begin="arrowDown.mouseover" end="arrowDown.mouseout"/>
                  </use>
                  <path fill="none" stroke="white" stroke-width="1.5" d="M0,-3.0v7 M-2.5,-0.5L0,-3.0L2.5,-0.5"/>
                </g>
                <g id="arrowLeft" xlink:href="#dirArrow" transform="rotate(270) translate(-36 17)" onmousedown="handlePan(-1,0)">
                  <use xlink:href="#rim" fill="#404040">
                        <set attributeName="fill" to="#808080" begin="arrowLeft.mouseover" end="arrowLeft.mouseout"/>
                  </use>
                  <path fill="none" stroke="white" stroke-width="1.5" d="M0,-3.0v7 M-2.5,-0.5L0,-3.0L2.5,-0.5"/>
                </g>
        </g>
        <svg viewBox="0 0 15 15" width="100%" height="30px" preserveAspectRatio="xMaxYMin meet">
         <g id="arrow_out" transform="scale(0.3 0.3)">
          <a xlink:href="classcarta_1_1Hdf5Loader__coll__graph_org.svg" target="_base">
           <rect id="button" ry="5" rx="5" y="6" x="6" height="38" width="38"
                fill="#f2f5e9" fill-opacity="0.5" stroke="#606060" stroke-width="1.0"/>
           <path id="arrow"
             d="M 11.500037,31.436501 C 11.940474,20.09759 22.043105,11.32322 32.158766,21.979434 L 37.068811,17.246167 C 37.068811,17.246167 37.088388,32 37.088388,32 L 22.160133,31.978069 C 22.160133,31.978069 26.997745,27.140456 26.997745,27.140456 C 18.528582,18.264221 13.291696,25.230495 11.500037,31.436501 z"
             style="fill:#404040;"/>
          </a>
         </g>
        </svg>
</svg>
