<?xml version="1.0" encoding="UTF-8" standalone="no"?>
<!DOCTYPE svg PUBLIC "-//W3C//DTD SVG 1.1//EN"
 "http://www.w3.org/Graphics/SVG/1.1/DTD/svg11.dtd">
<!-- Generated by graphviz version 2.43.0 (0)
 -->
<!-- Title: carta::Region::GetCachedLCRegion Pages: 1 -->
<svg width="379pt" height="66pt"
 viewBox="0.00 0.00 379.00 66.00" xmlns="http://www.w3.org/2000/svg" xmlns:xlink="http://www.w3.org/1999/xlink">
<g id="graph0" class="graph" transform="scale(1 1) rotate(0) translate(4 62)">
<title>carta::Region::GetCachedLCRegion</title>
<!-- Node1 -->
<g id="node1" class="node">
<title>Node1</title>
<g id="a_node1"><a xlink:title=" ">
<polygon fill="#bfbfbf" stroke="black" points="231,-14 231,-44 371,-44 371,-14 231,-14"/>
<text text-anchor="start" x="239" y="-32" font-family="Helvetica,sans-Serif" font-size="10.00">carta::Region::GetCached</text>
<text text-anchor="middle" x="301" y="-21" font-family="Helvetica,sans-Serif" font-size="10.00">LCRegion</text>
</a>
</g>
</g>
<!-- Node2 -->
<g id="node2" class="node">
<title>Node2</title>
<g id="a_node2"><a xlink:href="classcarta_1_1Region.html#a946ec39c21a09a141d917b553ba56551" target="_top" xlink:title=" ">
<polygon fill="none" stroke="black" points="13,-38.5 13,-57.5 182,-57.5 182,-38.5 13,-38.5"/>
<text text-anchor="middle" x="97.5" y="-45.5" font-family="Helvetica,sans-Serif" font-size="10.00">carta::Region::GetImageRegion</text>
</a>
</g>
</g>
<!-- Node1&#45;&gt;Node2 -->
<g id="edge1" class="edge">
<title>Node1&#45;&gt;Node2</title>
<path fill="none" stroke="midnightblue" d="M220.85,-36.46C208.13,-37.66 194.92,-38.91 182.09,-40.12"/>
<polygon fill="midnightblue" stroke="midnightblue" points="221.31,-39.94 230.94,-35.51 220.65,-32.97 221.31,-39.94"/>
</g>
<!-- Node3 -->
<g id="node3" class="node">
<title>Node3</title>
<g id="a_node3"><a xlink:href="classcarta_1_1Region.html#a6ec0e6a0c65e9bc6ed3b9213831f053f" target="_top" xlink:title=" ">
<polygon fill="none" stroke="black" points="0,-0.5 0,-19.5 195,-19.5 195,-0.5 0,-0.5"/>
<text text-anchor="middle" x="97.5" y="-7.5" font-family="Helvetica,sans-Serif" font-size="10.00">carta::Region::GetImageRegionMask</text>
</a>
</g>
</g>
<!-- Node1&#45;&gt;Node3 -->
<g id="edge2" class="edge">
<title>Node1&#45;&gt;Node3</title>
<path fill="none" stroke="midnightblue" d="M220.82,-21.53C212.43,-20.74 203.83,-19.93 195.27,-19.12"/>
<polygon fill="midnightblue" stroke="midnightblue" points="220.65,-25.03 230.94,-22.49 221.31,-18.06 220.65,-25.03"/>
</g>
</g>
</svg>
