<?xml version="1.0" encoding="UTF-8" standalone="no"?>
<!DOCTYPE svg PUBLIC "-//W3C//DTD SVG 1.1//EN"
 "http://www.w3.org/Graphics/SVG/1.1/DTD/svg11.dtd">
<!-- Generated by graphviz version 2.43.0 (0)
 -->
<!-- Title: carta::Frame::GetZMatrix Pages: 1 -->
<svg width="343pt" height="66pt"
 viewBox="0.00 0.00 343.00 66.00" xmlns="http://www.w3.org/2000/svg" xmlns:xlink="http://www.w3.org/1999/xlink">
<g id="graph0" class="graph" transform="scale(1 1) rotate(0) translate(4 62)">
<title>carta::Frame::GetZMatrix</title>
<!-- Node1 -->
<g id="node1" class="node">
<title>Node1</title>
<g id="a_node1"><a xlink:title=" ">
<polygon fill="#bfbfbf" stroke="black" points="0,-19.5 0,-38.5 140,-38.5 140,-19.5 0,-19.5"/>
<text text-anchor="middle" x="70" y="-26.5" font-family="Helvetica,sans-Serif" font-size="10.00">carta::Frame::GetZMatrix</text>
</a>
</g>
</g>
<!-- Node2 -->
<g id="node2" class="node">
<title>Node2</title>
<g id="a_node2"><a xlink:href="classcarta_1_1Frame.html#a9e748d02f7394ed01b69276b61a79825" target="_top" xlink:title=" ">
<polygon fill="none" stroke="black" points="176,-38.5 176,-57.5 335,-57.5 335,-38.5 176,-38.5"/>
<text text-anchor="middle" x="255.5" y="-45.5" font-family="Helvetica,sans-Serif" font-size="10.00">carta::Frame::GetImageSlicer</text>
</a>
</g>
</g>
<!-- Node1&#45;&gt;Node2 -->
<g id="edge1" class="edge">
<title>Node1&#45;&gt;Node2</title>
<path fill="none" stroke="midnightblue" d="M140.11,-36.16C148.51,-37.03 157.18,-37.92 165.81,-38.82"/>
<polygon fill="midnightblue" stroke="midnightblue" points="165.6,-42.31 175.91,-39.86 166.32,-35.35 165.6,-42.31"/>
</g>
<!-- Node3 -->
<g id="node3" class="node">
<title>Node3</title>
<g id="a_node3"><a xlink:href="classcarta_1_1Frame.html#a79c789ebc62771151da94673a325a31a" target="_top" xlink:title=" ">
<polygon fill="none" stroke="black" points="179.5,-0.5 179.5,-19.5 331.5,-19.5 331.5,-0.5 179.5,-0.5"/>
<text text-anchor="middle" x="255.5" y="-7.5" font-family="Helvetica,sans-Serif" font-size="10.00">carta::Frame::GetSlicerData</text>
</a>
</g>
</g>
<!-- Node1&#45;&gt;Node3 -->
<g id="edge2" class="edge">
<title>Node1&#45;&gt;Node3</title>
<path fill="none" stroke="midnightblue" d="M140.11,-21.84C149.61,-20.86 159.46,-19.84 169.21,-18.83"/>
<polygon fill="midnightblue" stroke="midnightblue" points="169.73,-22.3 179.31,-17.79 169.01,-15.33 169.73,-22.3"/>
</g>
</g>
</svg>
