<?xml version="1.0" encoding="UTF-8" standalone="no"?>
<!DOCTYPE svg PUBLIC "-//W3C//DTD SVG 1.1//EN"
 "http://www.w3.org/Graphics/SVG/1.1/DTD/svg11.dtd">
<!-- Generated by graphviz version 2.43.0 (0)
 -->
<!-- Title: carta::Session::ExecuteAnimationFrameInner Pages: 1 -->
<svg width="1610pt" height="676pt"
 viewBox="0.00 0.00 1610.00 675.56" xmlns="http://www.w3.org/2000/svg" xmlns:xlink="http://www.w3.org/1999/xlink">
<g id="graph0" class="graph" transform="scale(1 1) rotate(0) translate(4 671.56)">
<title>carta::Session::ExecuteAnimationFrameInner</title>
<!-- Node1 -->
<g id="node1" class="node">
<title>Node1</title>
<g id="a_node1"><a xlink:title=" ">
<polygon fill="#bfbfbf" stroke="black" points="0,-240.94 0,-270.94 179,-270.94 179,-240.94 0,-240.94"/>
<text text-anchor="start" x="8" y="-258.94" font-family="Helvetica,sans-Serif" font-size="10.00">carta::Session::ExecuteAnimation</text>
<text text-anchor="middle" x="89.5" y="-247.94" font-family="Helvetica,sans-Serif" font-size="10.00">FrameInner</text>
</a>
</g>
</g>
<!-- Node2 -->
<g id="node2" class="node">
<title>Node2</title>
<g id="a_node2"><a xlink:href="classcarta_1_1Timer.html#aad2702a80259920b910fb76642f97b88" target="_top" xlink:title=" ">
<polygon fill="none" stroke="black" points="864,-543.44 864,-562.44 984,-562.44 984,-543.44 864,-543.44"/>
<text text-anchor="middle" x="924" y="-550.44" font-family="Helvetica,sans-Serif" font-size="10.00">carta::Timer::Elapsed</text>
</a>
</g>
</g>
<!-- Node1&#45;&gt;Node2 -->
<g id="edge1" class="edge">
<title>Node1&#45;&gt;Node2</title>
<path fill="none" stroke="midnightblue" d="M91.96,-271.09C97.62,-321.74 122.71,-487 215,-575.94 408,-761.92 785.54,-614.56 893.51,-566.64"/>
<polygon fill="midnightblue" stroke="midnightblue" points="895.14,-569.75 902.82,-562.45 892.27,-563.36 895.14,-569.75"/>
</g>
<!-- Node3 -->
<g id="node3" class="node">
<title>Node3</title>
<g id="a_node3"><a xlink:href="structcarta_1_1TimeDelta.html#a90b2dc0a7d70b0aa6f668f4bbad7fa58" target="_top" xlink:title=" ">
<polygon fill="none" stroke="black" points="452,-623.44 452,-642.44 571,-642.44 571,-623.44 452,-623.44"/>
<text text-anchor="middle" x="511.5" y="-630.44" font-family="Helvetica,sans-Serif" font-size="10.00">carta::TimeDelta::ms</text>
</a>
</g>
</g>
<!-- Node1&#45;&gt;Node3 -->
<g id="edge2" class="edge">
<title>Node1&#45;&gt;Node3</title>
<path fill="none" stroke="midnightblue" d="M93.82,-271C104.17,-314.62 139.73,-442.59 215,-515.94 277.68,-577.01 376.12,-607.32 441.95,-621.54"/>
<polygon fill="midnightblue" stroke="midnightblue" points="441.32,-624.98 451.82,-623.6 442.75,-618.13 441.32,-624.98"/>
</g>
<!-- Node4 -->
<g id="node4" class="node">
<title>Node4</title>
<g id="a_node4"><a xlink:href="classcarta_1_1Session.html#ad769ec04ffbfb2289af256be174e3059" target="_top" xlink:title=" ">
<polygon fill="none" stroke="black" points="223,-475.94 223,-505.94 390,-505.94 390,-475.94 223,-475.94"/>
<text text-anchor="start" x="231" y="-493.94" font-family="Helvetica,sans-Serif" font-size="10.00">carta::Session::OnAddRequired</text>
<text text-anchor="middle" x="306.5" y="-482.94" font-family="Helvetica,sans-Serif" font-size="10.00">Tiles</text>
</a>
</g>
</g>
<!-- Node1&#45;&gt;Node4 -->
<g id="edge3" class="edge">
<title>Node1&#45;&gt;Node4</title>
<path fill="none" stroke="midnightblue" d="M104.28,-270.99C140.9,-311.02 240.84,-420.27 284.56,-468.05"/>
<polygon fill="midnightblue" stroke="midnightblue" points="282.23,-470.68 291.56,-475.7 287.39,-465.96 282.23,-470.68"/>
</g>
<!-- Node15 -->
<g id="node15" class="node">
<title>Node15</title>
<g id="a_node15"><a xlink:href="classcarta_1_1Session.html#abf2d92e46ffc218b0e6e2685bf4ffb72" target="_top" xlink:title=" ">
<polygon fill="none" stroke="black" points="625,-23.44 625,-42.44 801,-42.44 801,-23.44 625,-23.44"/>
<text text-anchor="middle" x="713" y="-30.44" font-family="Helvetica,sans-Serif" font-size="10.00">carta::Session::SendContourData</text>
</a>
</g>
</g>
<!-- Node1&#45;&gt;Node15 -->
<g id="edge16" class="edge">
<title>Node1&#45;&gt;Node15</title>
<path fill="none" stroke="midnightblue" d="M94.69,-240.7C106.27,-201.87 142.74,-99.27 215,-56.94 359.01,27.44 568.74,-1.87 662.96,-21.33"/>
<polygon fill="midnightblue" stroke="midnightblue" points="662.28,-24.77 672.79,-23.41 663.73,-17.92 662.28,-24.77"/>
</g>
<!-- Node19 -->
<g id="node19" class="node">
<title>Node19</title>
<g id="a_node19"><a xlink:href="classcarta_1_1Session.html#a9614e33dea4622ec90432fa7aad7a451" target="_top" xlink:title=" ">
<polygon fill="none" stroke="black" points="844,-193.44 844,-212.44 1004,-212.44 1004,-193.44 844,-193.44"/>
<text text-anchor="middle" x="924" y="-200.44" font-family="Helvetica,sans-Serif" font-size="10.00">carta::Session::SendLogEvent</text>
</a>
</g>
</g>
<!-- Node1&#45;&gt;Node19 -->
<g id="edge24" class="edge">
<title>Node1&#45;&gt;Node19</title>
<path fill="none" stroke="midnightblue" d="M100.29,-240.84C118.89,-213.65 162.21,-157.04 215,-132.94 451.96,-24.72 551.37,-70.48 801,-144.94 836.32,-155.47 874.24,-174.93 898.27,-188.38"/>
<polygon fill="midnightblue" stroke="midnightblue" points="896.64,-191.48 907.07,-193.39 900.11,-185.4 896.64,-191.48"/>
</g>
<!-- Node21 -->
<g id="node21" class="node">
<title>Node21</title>
<g id="a_node21"><a xlink:href="classcarta_1_1Session.html#a2535a06bd2e8a13e99c775d895f6024a" target="_top" xlink:title=" ">
<polygon fill="none" stroke="black" points="640,-153.94 640,-183.94 786,-183.94 786,-153.94 640,-153.94"/>
<text text-anchor="start" x="648" y="-171.94" font-family="Helvetica,sans-Serif" font-size="10.00">carta::Session::SendVector</text>
<text text-anchor="middle" x="713" y="-160.94" font-family="Helvetica,sans-Serif" font-size="10.00">FieldData</text>
</a>
</g>
</g>
<!-- Node1&#45;&gt;Node21 -->
<g id="edge25" class="edge">
<title>Node1&#45;&gt;Node21</title>
<path fill="none" stroke="midnightblue" d="M120.27,-240.8C178.62,-212.08 312.89,-150.61 434,-128.94 501.81,-116.8 520.96,-118.15 589,-128.94 615.29,-133.1 643.62,-141.99 666.45,-150.33"/>
<polygon fill="midnightblue" stroke="midnightblue" points="665.28,-153.63 675.87,-153.86 667.73,-147.08 665.28,-153.63"/>
</g>
<!-- Node22 -->
<g id="node22" class="node">
<title>Node22</title>
<g id="a_node22"><a xlink:href="classcarta_1_1Session.html#aef4b334b4727ea531b229d242c3108b2" target="_top" xlink:title=" ">
<polygon fill="none" stroke="black" points="216.5,-227.44 216.5,-246.44 396.5,-246.44 396.5,-227.44 216.5,-227.44"/>
<text text-anchor="middle" x="306.5" y="-234.44" font-family="Helvetica,sans-Serif" font-size="10.00">carta::Session::UpdateImageData</text>
</a>
</g>
</g>
<!-- Node1&#45;&gt;Node22 -->
<g id="edge28" class="edge">
<title>Node1&#45;&gt;Node22</title>
<path fill="none" stroke="midnightblue" d="M179.19,-248.1C188.1,-247.31 197.19,-246.51 206.19,-245.71"/>
<polygon fill="midnightblue" stroke="midnightblue" points="206.67,-249.18 216.32,-244.82 206.05,-242.21 206.67,-249.18"/>
</g>
<!-- Node41 -->
<g id="node41" class="node">
<title>Node41</title>
<g id="a_node41"><a xlink:href="classcarta_1_1Session.html#ac86d5f7886628a9429955f05426f25ab" target="_top" xlink:title=" ">
<polygon fill="none" stroke="black" points="215,-265.44 215,-284.44 398,-284.44 398,-265.44 215,-265.44"/>
<text text-anchor="middle" x="306.5" y="-272.44" font-family="Helvetica,sans-Serif" font-size="10.00">carta::Session::UpdateRegionData</text>
</a>
</g>
</g>
<!-- Node1&#45;&gt;Node41 -->
<g id="edge55" class="edge">
<title>Node1&#45;&gt;Node41</title>
<path fill="none" stroke="midnightblue" d="M179.19,-263.77C187.67,-264.52 196.31,-265.29 204.89,-266.05"/>
<polygon fill="midnightblue" stroke="midnightblue" points="204.66,-269.54 214.93,-266.93 205.28,-262.57 204.66,-269.54"/>
</g>
<!-- Node4&#45;&gt;Node2 -->
<g id="edge6" class="edge">
<title>Node4&#45;&gt;Node2</title>
<path fill="none" stroke="midnightblue" d="M390.17,-489.44C404.78,-489.23 419.83,-489.05 434,-488.94 502.89,-488.39 520.42,-482.42 589,-488.94 642.55,-494.02 789.07,-524.29 869.09,-541.32"/>
<polygon fill="midnightblue" stroke="midnightblue" points="868.47,-544.76 878.98,-543.42 869.93,-537.92 868.47,-544.76"/>
</g>
<!-- Node4&#45;&gt;Node3 -->
<g id="edge7" class="edge">
<title>Node4&#45;&gt;Node3</title>
<path fill="none" stroke="midnightblue" d="M332,-505.96C351.34,-518.56 378.24,-537.86 398,-558.94 417.98,-580.25 410.18,-597.02 434,-613.94 436.73,-615.88 439.65,-617.62 442.67,-619.19"/>
<polygon fill="midnightblue" stroke="midnightblue" points="441.5,-622.5 452.06,-623.37 444.35,-616.1 441.5,-622.5"/>
</g>
<!-- Node5 -->
<g id="node5" class="node">
<title>Node5</title>
<g id="a_node5"><a xlink:href="classcarta_1_1ThreadManager.html#a82cbb5d8370c091ac96c24d0fc4984dc" target="_top" xlink:title=" ">
<polygon fill="none" stroke="black" points="449.5,-497.94 449.5,-527.94 573.5,-527.94 573.5,-497.94 449.5,-497.94"/>
<text text-anchor="start" x="457.5" y="-515.94" font-family="Helvetica,sans-Serif" font-size="10.00">carta::ThreadManager</text>
<text text-anchor="middle" x="511.5" y="-504.94" font-family="Helvetica,sans-Serif" font-size="10.00">::ApplyThreadLimit</text>
</a>
</g>
</g>
<!-- Node4&#45;&gt;Node5 -->
<g id="edge4" class="edge">
<title>Node4&#45;&gt;Node5</title>
<path fill="none" stroke="midnightblue" d="M390.07,-499.88C406.37,-501.65 423.34,-503.49 439.23,-505.21"/>
<polygon fill="midnightblue" stroke="midnightblue" points="439.17,-508.73 449.49,-506.32 439.93,-501.77 439.17,-508.73"/>
</g>
<!-- Node6 -->
<g id="node6" class="node">
<title>Node6</title>
<g id="a_node6"><a xlink:href="structcarta_1_1Tile.html#a3bb9a6a862540de876a281145ab80e92" target="_top" xlink:title=" ">
<polygon fill="none" stroke="black" points="457.5,-421.44 457.5,-440.44 565.5,-440.44 565.5,-421.44 457.5,-421.44"/>
<text text-anchor="middle" x="511.5" y="-428.44" font-family="Helvetica,sans-Serif" font-size="10.00">carta::Tile::Decode</text>
</a>
</g>
</g>
<!-- Node4&#45;&gt;Node6 -->
<g id="edge5" class="edge">
<title>Node4&#45;&gt;Node6</title>
<path fill="none" stroke="midnightblue" d="M358.46,-475.87C392.38,-465.85 436.39,-452.84 468.33,-443.4"/>
<polygon fill="midnightblue" stroke="midnightblue" points="469.65,-446.66 478.25,-440.47 467.67,-439.95 469.65,-446.66"/>
</g>
<!-- Node7 -->
<g id="node7" class="node">
<title>Node7</title>
<g id="a_node7"><a xlink:href="classMessage.html#a15e63a0047135f16b920dd30c1e1d080" target="_top" xlink:title=" ">
<polygon fill="none" stroke="black" points="442,-585.44 442,-604.44 581,-604.44 581,-585.44 442,-585.44"/>
<text text-anchor="middle" x="511.5" y="-592.44" font-family="Helvetica,sans-Serif" font-size="10.00">Message::RasterTileData</text>
</a>
</g>
</g>
<!-- Node4&#45;&gt;Node7 -->
<g id="edge8" class="edge">
<title>Node4&#45;&gt;Node7</title>
<path fill="none" stroke="midnightblue" d="M325.57,-506.09C349.1,-525.08 392.16,-557.37 434,-575.94 439.45,-578.35 445.26,-580.5 451.15,-582.39"/>
<polygon fill="midnightblue" stroke="midnightblue" points="450.5,-585.85 461.09,-585.35 452.5,-579.14 450.5,-585.85"/>
</g>
<!-- Node8 -->
<g id="node8" class="node">
<title>Node8</title>
<g id="a_node8"><a xlink:href="classMessage.html#a4219aad3d558ca35844027283d980b33" target="_top" xlink:title=" ">
<polygon fill="none" stroke="black" points="442,-547.44 442,-566.44 581,-566.44 581,-547.44 442,-547.44"/>
<text text-anchor="middle" x="511.5" y="-554.44" font-family="Helvetica,sans-Serif" font-size="10.00">Message::RasterTileSync</text>
</a>
</g>
</g>
<!-- Node4&#45;&gt;Node8 -->
<g id="edge9" class="edge">
<title>Node4&#45;&gt;Node8</title>
<path fill="none" stroke="midnightblue" d="M344.76,-506.04C369.76,-515.86 403.56,-528.53 434,-537.94 441.99,-540.4 450.52,-542.78 458.88,-544.96"/>
<polygon fill="midnightblue" stroke="midnightblue" points="458.02,-548.35 468.58,-547.42 459.75,-541.57 458.02,-548.35"/>
</g>
<!-- Node9 -->
<g id="node9" class="node">
<title>Node9</title>
<g id="a_node9"><a xlink:href="classcarta_1_1Session.html#ae6ff58d2a61d3872bc741f12ed2b91d7" target="_top" xlink:title=" ">
<polygon fill="none" stroke="black" points="858,-231.94 858,-261.94 990,-261.94 990,-231.94 858,-231.94"/>
<text text-anchor="start" x="866" y="-249.94" font-family="Helvetica,sans-Serif" font-size="10.00">carta::Session::SendFile</text>
<text text-anchor="middle" x="924" y="-238.94" font-family="Helvetica,sans-Serif" font-size="10.00">Event</text>
</a>
</g>
</g>
<!-- Node4&#45;&gt;Node9 -->
<g id="edge10" class="edge">
<title>Node4&#45;&gt;Node9</title>
<path fill="none" stroke="midnightblue" d="M326.92,-475.76C350.79,-457.85 393.19,-428.42 434,-411.94 588.62,-349.49 665.97,-431.78 801,-333.94 826.8,-315.24 811.9,-291.57 837,-271.94 840.61,-269.11 844.53,-266.61 848.64,-264.38"/>
<polygon fill="midnightblue" stroke="midnightblue" points="850.38,-267.43 857.9,-259.96 847.36,-261.11 850.38,-267.43"/>
</g>
<!-- Node10 -->
<g id="node10" class="node">
<title>Node10</title>
<g id="a_node10"><a xlink:href="classcarta_1_1Session.html#af5f45b72e3fb7d4ad6fbf32fcc9da912" target="_top" xlink:title=" ">
<polygon fill="none" stroke="black" points="1072.5,-234.44 1072.5,-253.44 1215.5,-253.44 1215.5,-234.44 1072.5,-234.44"/>
<text text-anchor="middle" x="1144" y="-241.44" font-family="Helvetica,sans-Serif" font-size="10.00">carta::Session::SendEvent</text>
</a>
</g>
</g>
<!-- Node9&#45;&gt;Node10 -->
<g id="edge11" class="edge">
<title>Node9&#45;&gt;Node10</title>
<path fill="none" stroke="midnightblue" d="M990.11,-246.04C1012.73,-245.73 1038.37,-245.38 1062.1,-245.05"/>
<polygon fill="midnightblue" stroke="midnightblue" points="1062.19,-248.55 1072.14,-244.91 1062.09,-241.55 1062.19,-248.55"/>
</g>
<!-- Node11 -->
<g id="node11" class="node">
<title>Node11</title>
<g id="a_node11"><a xlink:href="namespacecarta_1_1logger.html#ab9e339746ee51ea21696ab43b50841d5" target="_top" xlink:title=" ">
<polygon fill="none" stroke="black" points="1277,-234.44 1277,-253.44 1450,-253.44 1450,-234.44 1277,-234.44"/>
<text text-anchor="middle" x="1363.5" y="-241.44" font-family="Helvetica,sans-Serif" font-size="10.00">carta::logger::LogSentEventType</text>
</a>
</g>
</g>
<!-- Node10&#45;&gt;Node11 -->
<g id="edge12" class="edge">
<title>Node10&#45;&gt;Node11</title>
<path fill="none" stroke="midnightblue" d="M1215.62,-243.94C1231.9,-243.94 1249.48,-243.94 1266.63,-243.94"/>
<polygon fill="midnightblue" stroke="midnightblue" points="1266.67,-247.44 1276.67,-243.94 1266.67,-240.44 1266.67,-247.44"/>
</g>
<!-- Node13 -->
<g id="node13" class="node">
<title>Node13</title>
<g id="a_node13"><a xlink:href="classcarta_1_1concurrent__queue.html#ab1a11795f017e1c7dd870fce5da5ede1" target="_top" xlink:title=" ">
<polygon fill="none" stroke="black" points="1296.5,-184.94 1296.5,-214.94 1430.5,-214.94 1430.5,-184.94 1296.5,-184.94"/>
<text text-anchor="start" x="1304.5" y="-202.94" font-family="Helvetica,sans-Serif" font-size="10.00">carta::concurrent_queue</text>
<text text-anchor="middle" x="1363.5" y="-191.94" font-family="Helvetica,sans-Serif" font-size="10.00">::push</text>
</a>
</g>
</g>
<!-- Node10&#45;&gt;Node13 -->
<g id="edge14" class="edge">
<title>Node10&#45;&gt;Node13</title>
<path fill="none" stroke="midnightblue" d="M1192.19,-234.39C1219.7,-228.82 1255.04,-221.67 1286.4,-215.33"/>
<polygon fill="midnightblue" stroke="midnightblue" points="1287.31,-218.72 1296.42,-213.3 1285.93,-211.86 1287.31,-218.72"/>
</g>
<!-- Node14 -->
<g id="node14" class="node">
<title>Node14</title>
<g id="a_node14"><a xlink:href="classcarta_1_1concurrent__queue.html#a44dc990ae7a71921648cad573058357d" target="_top" xlink:title=" ">
<polygon fill="none" stroke="black" points="1296.5,-272.94 1296.5,-302.94 1430.5,-302.94 1430.5,-272.94 1296.5,-272.94"/>
<text text-anchor="start" x="1304.5" y="-290.94" font-family="Helvetica,sans-Serif" font-size="10.00">carta::concurrent_queue</text>
<text text-anchor="middle" x="1363.5" y="-279.94" font-family="Helvetica,sans-Serif" font-size="10.00">::try_pop</text>
</a>
</g>
</g>
<!-- Node10&#45;&gt;Node14 -->
<g id="edge15" class="edge">
<title>Node10&#45;&gt;Node14</title>
<path fill="none" stroke="midnightblue" d="M1192.19,-253.48C1219.7,-259.05 1255.04,-266.2 1286.4,-272.54"/>
<polygon fill="midnightblue" stroke="midnightblue" points="1285.93,-276.02 1296.42,-274.57 1287.31,-269.15 1285.93,-276.02"/>
</g>
<!-- Node12 -->
<g id="node12" class="node">
<title>Node12</title>
<g id="a_node12"><a xlink:href="namespacecarta_1_1logger.html#a23c9bf75209165cf69eb8d50f64b81b4" target="_top" xlink:title=" ">
<polygon fill="none" stroke="black" points="1486,-228.94 1486,-258.94 1602,-258.94 1602,-228.94 1486,-228.94"/>
<text text-anchor="start" x="1494" y="-246.94" font-family="Helvetica,sans-Serif" font-size="10.00">carta::logger::log</text>
<text text-anchor="middle" x="1544" y="-235.94" font-family="Helvetica,sans-Serif" font-size="10.00">_protocol_messages</text>
</a>
</g>
</g>
<!-- Node11&#45;&gt;Node12 -->
<g id="edge13" class="edge">
<title>Node11&#45;&gt;Node12</title>
<path fill="none" stroke="midnightblue" d="M1450.09,-243.94C1458.74,-243.94 1467.44,-243.94 1475.86,-243.94"/>
<polygon fill="midnightblue" stroke="midnightblue" points="1475.96,-247.44 1485.96,-243.94 1475.96,-240.44 1475.96,-247.44"/>
</g>
<!-- Node15&#45;&gt;Node9 -->
<g id="edge20" class="edge">
<title>Node15&#45;&gt;Node9</title>
<path fill="none" stroke="midnightblue" d="M722.71,-42.58C739.35,-61.33 776.21,-104.4 801,-144.94 820.71,-177.16 808.31,-197.36 837,-221.94 840.65,-225.06 844.66,-227.79 848.91,-230.18"/>
<polygon fill="midnightblue" stroke="midnightblue" points="847.39,-233.33 857.9,-234.63 850.49,-227.06 847.39,-233.33"/>
</g>
<!-- Node16 -->
<g id="node16" class="node">
<title>Node16</title>
<g id="a_node16"><a xlink:href="classMessage.html#a281caf592c92b9f16c878afc8446188b" target="_top" xlink:title=" ">
<polygon fill="none" stroke="black" points="845,-4.44 845,-23.44 1003,-23.44 1003,-4.44 845,-4.44"/>
<text text-anchor="middle" x="924" y="-11.44" font-family="Helvetica,sans-Serif" font-size="10.00">Message::ContourImageData</text>
</a>
</g>
</g>
<!-- Node15&#45;&gt;Node16 -->
<g id="edge17" class="edge">
<title>Node15&#45;&gt;Node16</title>
<path fill="none" stroke="midnightblue" d="M801.12,-25.02C812.18,-24.01 823.51,-22.98 834.6,-21.97"/>
<polygon fill="midnightblue" stroke="midnightblue" points="835.05,-25.45 844.69,-21.06 834.41,-18.47 835.05,-25.45"/>
</g>
<!-- Node17 -->
<g id="node17" class="node">
<title>Node17</title>
<g id="a_node17"><a xlink:href="namespacecarta.html#a075ee64ae108d46c43cdb9a37b54d442" target="_top" xlink:title=" ">
<polygon fill="none" stroke="black" points="838.5,-42.44 838.5,-61.44 1009.5,-61.44 1009.5,-42.44 838.5,-42.44"/>
<text text-anchor="middle" x="924" y="-49.44" font-family="Helvetica,sans-Serif" font-size="10.00">carta::RoundAndEncodeVertices</text>
</a>
</g>
</g>
<!-- Node15&#45;&gt;Node17 -->
<g id="edge18" class="edge">
<title>Node15&#45;&gt;Node17</title>
<path fill="none" stroke="midnightblue" d="M801.12,-40.86C810.07,-41.67 819.2,-42.5 828.23,-43.32"/>
<polygon fill="midnightblue" stroke="midnightblue" points="828.09,-46.82 838.37,-44.24 828.73,-39.85 828.09,-46.82"/>
</g>
<!-- Node15&#45;&gt;Node19 -->
<g id="edge21" class="edge">
<title>Node15&#45;&gt;Node19</title>
<path fill="none" stroke="midnightblue" d="M768.61,-42.56C779.87,-46.01 791.25,-50.66 801,-56.94 853.13,-90.49 894.4,-153.32 912.71,-184.46"/>
<polygon fill="midnightblue" stroke="midnightblue" points="909.82,-186.46 917.83,-193.38 915.89,-182.97 909.82,-186.46"/>
</g>
<!-- Node18 -->
<g id="node18" class="node">
<title>Node18</title>
<g id="a_node18"><a xlink:href="namespacecarta.html#ae0d37b236270de77bb23613108e10258" target="_top" xlink:title=" ">
<polygon fill="none" stroke="black" points="1083,-42.44 1083,-61.44 1205,-61.44 1205,-42.44 1083,-42.44"/>
<text text-anchor="middle" x="1144" y="-49.44" font-family="Helvetica,sans-Serif" font-size="10.00">carta::EncodeIntegers</text>
</a>
</g>
</g>
<!-- Node17&#45;&gt;Node18 -->
<g id="edge19" class="edge">
<title>Node17&#45;&gt;Node18</title>
<path fill="none" stroke="midnightblue" d="M1009.6,-51.94C1030.48,-51.94 1052.63,-51.94 1072.75,-51.94"/>
<polygon fill="midnightblue" stroke="midnightblue" points="1072.76,-55.44 1082.76,-51.94 1072.76,-48.44 1072.76,-55.44"/>
</g>
<!-- Node19&#45;&gt;Node10 -->
<g id="edge23" class="edge">
<title>Node19&#45;&gt;Node10</title>
<path fill="none" stroke="midnightblue" d="M975.56,-212.45C1007.36,-218.43 1048.59,-226.18 1082.18,-232.5"/>
<polygon fill="midnightblue" stroke="midnightblue" points="1081.86,-236 1092.34,-234.41 1083.15,-229.12 1081.86,-236"/>
</g>
<!-- Node20 -->
<g id="node20" class="node">
<title>Node20</title>
<g id="a_node20"><a xlink:href="classMessage.html#a99e84f303d54a46b1cf582bf343c7f29" target="_top" xlink:title=" ">
<polygon fill="none" stroke="black" points="1087.5,-193.44 1087.5,-212.44 1200.5,-212.44 1200.5,-193.44 1087.5,-193.44"/>
<text text-anchor="middle" x="1144" y="-200.44" font-family="Helvetica,sans-Serif" font-size="10.00">Message::ErrorData</text>
</a>
</g>
</g>
<!-- Node19&#45;&gt;Node20 -->
<g id="edge22" class="edge">
<title>Node19&#45;&gt;Node20</title>
<path fill="none" stroke="midnightblue" d="M1004.01,-202.94C1028.11,-202.94 1054.32,-202.94 1077.42,-202.94"/>
<polygon fill="midnightblue" stroke="midnightblue" points="1077.46,-206.44 1087.46,-202.94 1077.46,-199.44 1077.46,-206.44"/>
</g>
<!-- Node21&#45;&gt;Node9 -->
<g id="edge26" class="edge">
<title>Node21&#45;&gt;Node9</title>
<path fill="none" stroke="midnightblue" d="M777.35,-184.04C785.5,-186.88 793.58,-190.16 801,-193.94 819.07,-203.12 818.95,-212.72 837,-221.94 841.56,-224.26 846.36,-226.4 851.28,-228.37"/>
<polygon fill="midnightblue" stroke="midnightblue" points="850.24,-231.72 860.83,-231.93 852.69,-225.16 850.24,-231.72"/>
</g>
<!-- Node21&#45;&gt;Node19 -->
<g id="edge27" class="edge">
<title>Node21&#45;&gt;Node19</title>
<path fill="none" stroke="midnightblue" d="M786.22,-180.68C808.42,-184.3 832.78,-188.26 854.71,-191.83"/>
<polygon fill="midnightblue" stroke="midnightblue" points="854.17,-195.28 864.6,-193.44 855.29,-188.38 854.17,-195.28"/>
</g>
<!-- Node23 -->
<g id="node23" class="node">
<title>Node23</title>
<g id="a_node23"><a xlink:href="classcarta_1_1Session.html#a36ede4133a5424416c8e085af6387fee" target="_top" xlink:title=" ">
<polygon fill="none" stroke="black" points="437,-284.94 437,-314.94 586,-314.94 586,-284.94 437,-284.94"/>
<text text-anchor="start" x="445" y="-302.94" font-family="Helvetica,sans-Serif" font-size="10.00">carta::Session::SendRegion</text>
<text text-anchor="middle" x="511.5" y="-291.94" font-family="Helvetica,sans-Serif" font-size="10.00">HistogramData</text>
</a>
</g>
</g>
<!-- Node22&#45;&gt;Node23 -->
<g id="edge29" class="edge">
<title>Node22&#45;&gt;Node23</title>
<path fill="none" stroke="midnightblue" d="M365.69,-246.45C376.59,-248.99 387.77,-252.12 398,-255.94 415.15,-262.33 417.18,-268.71 434,-275.94 438.48,-277.86 443.17,-279.71 447.92,-281.46"/>
<polygon fill="midnightblue" stroke="midnightblue" points="447.13,-284.89 457.72,-284.93 449.46,-278.29 447.13,-284.89"/>
</g>
<!-- Node37 -->
<g id="node37" class="node">
<title>Node37</title>
<g id="a_node37"><a xlink:href="classcarta_1_1Session.html#a5fd62896cf8474c7b37c27093a24459e" target="_top" xlink:title=" ">
<polygon fill="none" stroke="black" points="437,-333.94 437,-363.94 586,-363.94 586,-333.94 437,-333.94"/>
<text text-anchor="start" x="445" y="-351.94" font-family="Helvetica,sans-Serif" font-size="10.00">carta::Session::SendRegion</text>
<text text-anchor="middle" x="511.5" y="-340.94" font-family="Helvetica,sans-Serif" font-size="10.00">StatsData</text>
</a>
</g>
</g>
<!-- Node22&#45;&gt;Node37 -->
<g id="edge48" class="edge">
<title>Node22&#45;&gt;Node37</title>
<path fill="none" stroke="midnightblue" d="M381.58,-246.6C387.44,-249.08 393.01,-252.15 398,-255.94 425.57,-276.83 407.48,-302.73 434,-324.94 435.52,-326.21 437.11,-327.41 438.75,-328.56"/>
<polygon fill="midnightblue" stroke="midnightblue" points="437.01,-331.59 447.38,-333.75 440.62,-325.59 437.01,-331.59"/>
</g>
<!-- Node38 -->
<g id="node38" class="node">
<title>Node38</title>
<g id="a_node38"><a xlink:href="classcarta_1_1Session.html#a85b4eb14c9181087b03046119b117789" target="_top" xlink:title=" ">
<polygon fill="none" stroke="black" points="437,-137.94 437,-167.94 586,-167.94 586,-137.94 437,-137.94"/>
<text text-anchor="start" x="445" y="-155.94" font-family="Helvetica,sans-Serif" font-size="10.00">carta::Session::SendSpatial</text>
<text text-anchor="middle" x="511.5" y="-144.94" font-family="Helvetica,sans-Serif" font-size="10.00">ProfileDataByFileId</text>
</a>
</g>
</g>
<!-- Node22&#45;&gt;Node38 -->
<g id="edge50" class="edge">
<title>Node22&#45;&gt;Node38</title>
<path fill="none" stroke="midnightblue" d="M326.05,-227.42C350.44,-215.11 394.78,-193.42 434,-177.94 439.71,-175.68 445.72,-173.46 451.75,-171.33"/>
<polygon fill="midnightblue" stroke="midnightblue" points="452.9,-174.64 461.21,-168.07 450.62,-168.02 452.9,-174.64"/>
</g>
<!-- Node40 -->
<g id="node40" class="node">
<title>Node40</title>
<g id="a_node40"><a xlink:href="classcarta_1_1Session.html#a64e272e7aec6edd051745e773d47c0f2" target="_top" xlink:title=" ">
<polygon fill="none" stroke="black" points="434,-186.94 434,-216.94 589,-216.94 589,-186.94 434,-186.94"/>
<text text-anchor="start" x="442" y="-204.94" font-family="Helvetica,sans-Serif" font-size="10.00">carta::Session::SendSpectral</text>
<text text-anchor="middle" x="511.5" y="-193.94" font-family="Helvetica,sans-Serif" font-size="10.00">ProfileData</text>
</a>
</g>
</g>
<!-- Node22&#45;&gt;Node40 -->
<g id="edge54" class="edge">
<title>Node22&#45;&gt;Node40</title>
<path fill="none" stroke="midnightblue" d="M362.7,-227.42C381.57,-224.17 403.15,-220.44 423.89,-216.87"/>
<polygon fill="midnightblue" stroke="midnightblue" points="424.73,-220.28 433.99,-215.13 423.54,-213.38 424.73,-220.28"/>
</g>
<!-- Node23&#45;&gt;Node9 -->
<g id="edge46" class="edge">
<title>Node23&#45;&gt;Node9</title>
<path fill="none" stroke="midnightblue" d="M586.09,-296.87C644.6,-293.7 728.41,-287.51 801,-275.94 819.5,-272.98 839.35,-268.74 857.55,-264.41"/>
<polygon fill="midnightblue" stroke="midnightblue" points="858.58,-267.76 867.48,-262 856.93,-260.95 858.58,-267.76"/>
</g>
<!-- Node23&#45;&gt;Node19 -->
<g id="edge47" class="edge">
<title>Node23&#45;&gt;Node19</title>
<path fill="none" stroke="midnightblue" d="M581.76,-284.88C596.04,-281.85 611,-278.74 625,-275.94 703.03,-260.3 726.14,-269.94 801,-242.94 818.22,-236.72 819.92,-229.52 837,-222.94 844.81,-219.93 853.21,-217.29 861.58,-215"/>
<polygon fill="midnightblue" stroke="midnightblue" points="862.55,-218.37 871.36,-212.48 860.8,-211.59 862.55,-218.37"/>
</g>
<!-- Node24 -->
<g id="node24" class="node">
<title>Node24</title>
<g id="a_node24"><a xlink:href="classcarta_1_1Session.html#aa9e908b20d1e35ff162cc1f361dbfe56" target="_top" xlink:title=" ">
<polygon fill="none" stroke="black" points="644.5,-409.94 644.5,-439.94 781.5,-439.94 781.5,-409.94 644.5,-409.94"/>
<text text-anchor="start" x="652.5" y="-427.94" font-family="Helvetica,sans-Serif" font-size="10.00">carta::Session::Calculate</text>
<text text-anchor="middle" x="713" y="-416.94" font-family="Helvetica,sans-Serif" font-size="10.00">CubeHistogram</text>
</a>
</g>
</g>
<!-- Node23&#45;&gt;Node24 -->
<g id="edge30" class="edge">
<title>Node23&#45;&gt;Node24</title>
<path fill="none" stroke="midnightblue" d="M567.04,-315.01C574.61,-317.89 582.13,-321.19 589,-324.94 627.86,-346.13 666.43,-380.16 689.75,-402.53"/>
<polygon fill="midnightblue" stroke="midnightblue" points="687.44,-405.17 697.05,-409.64 692.33,-400.16 687.44,-405.17"/>
</g>
<!-- Node24&#45;&gt;Node2 -->
<g id="edge38" class="edge">
<title>Node24&#45;&gt;Node2</title>
<path fill="none" stroke="midnightblue" d="M777.76,-440.03C786.21,-443.93 794.26,-448.81 801,-454.94 829.56,-480.89 807.01,-509.66 837,-533.94 842.07,-538.04 847.84,-541.3 853.93,-543.89"/>
<polygon fill="midnightblue" stroke="midnightblue" points="853.13,-547.32 863.72,-547.43 855.51,-540.74 853.13,-547.32"/>
</g>
<!-- Node24&#45;&gt;Node9 -->
<g id="edge44" class="edge">
<title>Node24&#45;&gt;Node9</title>
<path fill="none" stroke="midnightblue" d="M780.33,-409.82C788,-405.94 795.16,-401.06 801,-394.94 840.31,-353.72 796.69,-312.18 837,-271.94 840.53,-268.41 844.52,-265.38 848.81,-262.77"/>
<polygon fill="midnightblue" stroke="midnightblue" points="850.72,-265.72 857.97,-257.99 847.48,-259.52 850.72,-265.72"/>
</g>
<!-- Node24&#45;&gt;Node19 -->
<g id="edge45" class="edge">
<title>Node24&#45;&gt;Node19</title>
<path fill="none" stroke="midnightblue" d="M722.87,-409.65C749.62,-363.66 828.18,-229.31 837,-222.94 840.26,-220.58 843.76,-218.49 847.41,-216.65"/>
<polygon fill="midnightblue" stroke="midnightblue" points="848.99,-219.78 856.74,-212.55 846.18,-213.37 848.99,-219.78"/>
</g>
<!-- Node25 -->
<g id="node25" class="node">
<title>Node25</title>
<g id="a_node25"><a xlink:href="classcarta_1_1Histogram.html#a56e2b8bfafd357f89b9197487c20446e" target="_top" xlink:title=" ">
<polygon fill="none" stroke="black" points="862.5,-429.44 862.5,-448.44 985.5,-448.44 985.5,-429.44 862.5,-429.44"/>
<text text-anchor="middle" x="924" y="-436.44" font-family="Helvetica,sans-Serif" font-size="10.00">carta::Histogram::Add</text>
</a>
</g>
</g>
<!-- Node24&#45;&gt;Node25 -->
<g id="edge31" class="edge">
<title>Node24&#45;&gt;Node25</title>
<path fill="none" stroke="midnightblue" d="M781.57,-429.46C804.22,-430.98 829.52,-432.67 852.39,-434.21"/>
<polygon fill="midnightblue" stroke="midnightblue" points="852.16,-437.7 862.37,-434.87 852.63,-430.71 852.16,-437.7"/>
</g>
<!-- Node32 -->
<g id="node32" class="node">
<title>Node32</title>
<g id="a_node32"><a xlink:href="Message_8cc.html#aadf644bd365f0198b09a7196f9990511" target="_top" xlink:title=" ">
<polygon fill="none" stroke="black" points="883,-391.44 883,-410.44 965,-410.44 965,-391.44 883,-391.44"/>
<text text-anchor="middle" x="924" y="-398.44" font-family="Helvetica,sans-Serif" font-size="10.00">FillHistogram</text>
</a>
</g>
</g>
<!-- Node24&#45;&gt;Node32 -->
<g id="edge39" class="edge">
<title>Node24&#45;&gt;Node32</title>
<path fill="none" stroke="midnightblue" d="M781.57,-417.18C811.18,-413.78 845.33,-409.86 872.65,-406.72"/>
<polygon fill="midnightblue" stroke="midnightblue" points="873.23,-410.17 882.77,-405.56 872.43,-403.22 873.23,-410.17"/>
</g>
<!-- Node33 -->
<g id="node33" class="node">
<title>Node33</title>
<g id="a_node33"><a xlink:href="structcarta_1_1HistogramConfig.html#aee3b990962e991922bcf9f3779401bcd" target="_top" xlink:title=" ">
<polygon fill="none" stroke="black" points="859.5,-341.94 859.5,-371.94 988.5,-371.94 988.5,-341.94 859.5,-341.94"/>
<text text-anchor="start" x="867.5" y="-359.94" font-family="Helvetica,sans-Serif" font-size="10.00">carta::HistogramConfig</text>
<text text-anchor="middle" x="924" y="-348.94" font-family="Helvetica,sans-Serif" font-size="10.00">::GetBounds</text>
</a>
</g>
</g>
<!-- Node24&#45;&gt;Node33 -->
<g id="edge40" class="edge">
<title>Node24&#45;&gt;Node33</title>
<path fill="none" stroke="midnightblue" d="M758.3,-409.8C772,-405.08 787.14,-399.83 801,-394.94 817.04,-389.27 820.82,-387.2 837,-381.94 844.28,-379.57 851.93,-377.18 859.56,-374.88"/>
<polygon fill="midnightblue" stroke="midnightblue" points="860.58,-378.23 869.16,-372.01 858.58,-371.52 860.58,-378.23"/>
</g>
<!-- Node34 -->
<g id="node34" class="node">
<title>Node34</title>
<g id="a_node34"><a xlink:href="classcarta_1_1SessionContext.html#a28e9e5c979d1c244253a92f69b156c39" target="_top" xlink:title=" ">
<polygon fill="none" stroke="black" points="862.5,-281.44 862.5,-322.44 985.5,-322.44 985.5,-281.44 862.5,-281.44"/>
<text text-anchor="start" x="870.5" y="-310.44" font-family="Helvetica,sans-Serif" font-size="10.00">carta::SessionContext</text>
<text text-anchor="start" x="870.5" y="-299.44" font-family="Helvetica,sans-Serif" font-size="10.00">::is_group_execution</text>
<text text-anchor="middle" x="924" y="-288.44" font-family="Helvetica,sans-Serif" font-size="10.00">_cancelled</text>
</a>
</g>
</g>
<!-- Node24&#45;&gt;Node34 -->
<g id="edge41" class="edge">
<title>Node24&#45;&gt;Node34</title>
<path fill="none" stroke="midnightblue" d="M775.88,-409.82C784.88,-405.91 793.6,-401.03 801,-394.94 825.61,-374.69 812.53,-353.35 837,-332.94 841.88,-328.87 847.33,-325.31 853.07,-322.21"/>
<polygon fill="midnightblue" stroke="midnightblue" points="854.82,-325.24 862.26,-317.7 851.74,-318.96 854.82,-325.24"/>
</g>
<!-- Node35 -->
<g id="node35" class="node">
<title>Node35</title>
<g id="a_node35"><a xlink:href="structcarta_1_1BasicStats.html#a536adffa874e62bc21b8764a77ce09fd" target="_top" xlink:title=" ">
<polygon fill="none" stroke="black" points="863,-505.44 863,-524.44 985,-524.44 985,-505.44 863,-505.44"/>
<text text-anchor="middle" x="924" y="-512.44" font-family="Helvetica,sans-Serif" font-size="10.00">carta::BasicStats::join</text>
</a>
</g>
</g>
<!-- Node24&#45;&gt;Node35 -->
<g id="edge42" class="edge">
<title>Node24&#45;&gt;Node35</title>
<path fill="none" stroke="midnightblue" d="M771.71,-440.09C781.92,-444.07 792.11,-448.97 801,-454.94 821.13,-468.45 816.12,-483.6 837,-495.94 842.06,-498.93 847.54,-501.45 853.2,-503.57"/>
<polygon fill="midnightblue" stroke="midnightblue" points="852.25,-506.95 862.85,-506.79 854.47,-500.31 852.25,-506.95"/>
</g>
<!-- Node36 -->
<g id="node36" class="node">
<title>Node36</title>
<g id="a_node36"><a xlink:href="classMessage.html#a730c49c8e93e27faf31796d44748088b" target="_top" xlink:title=" ">
<polygon fill="none" stroke="black" points="837,-467.44 837,-486.44 1011,-486.44 1011,-467.44 837,-467.44"/>
<text text-anchor="middle" x="924" y="-474.44" font-family="Helvetica,sans-Serif" font-size="10.00">Message::RegionHistogramData</text>
</a>
</g>
</g>
<!-- Node24&#45;&gt;Node36 -->
<g id="edge43" class="edge">
<title>Node24&#45;&gt;Node36</title>
<path fill="none" stroke="midnightblue" d="M768.06,-440C789.47,-445.82 814.34,-452.4 837,-457.94 847.02,-460.39 857.73,-462.86 868.07,-465.18"/>
<polygon fill="midnightblue" stroke="midnightblue" points="867.31,-468.6 877.83,-467.35 868.83,-461.77 867.31,-468.6"/>
</g>
<!-- Node26 -->
<g id="node26" class="node">
<title>Node26</title>
<g id="a_node26"><a xlink:href="classcarta_1_1Histogram.html#a81787c73b6b71a8495c8c3ffcf4d7c46" target="_top" xlink:title=" ">
<polygon fill="none" stroke="black" points="1062,-445.94 1062,-475.94 1226,-475.94 1226,-445.94 1062,-445.94"/>
<text text-anchor="start" x="1070" y="-463.94" font-family="Helvetica,sans-Serif" font-size="10.00">carta::Histogram::Consistency</text>
<text text-anchor="middle" x="1144" y="-452.94" font-family="Helvetica,sans-Serif" font-size="10.00">Check</text>
</a>
</g>
</g>
<!-- Node25&#45;&gt;Node26 -->
<g id="edge32" class="edge">
<title>Node25&#45;&gt;Node26</title>
<path fill="none" stroke="midnightblue" d="M985.73,-445.06C1006.16,-447.13 1029.42,-449.47 1051.68,-451.72"/>
<polygon fill="midnightblue" stroke="midnightblue" points="1051.52,-455.22 1061.82,-452.74 1052.22,-448.26 1051.52,-455.22"/>
</g>
<!-- Node31 -->
<g id="node31" class="node">
<title>Node31</title>
<g id="a_node31"><a xlink:href="classcarta_1_1Histogram.html#a1efcb688ab3b0d60a6216d14d87fef5e" target="_top" xlink:title=" ">
<polygon fill="none" stroke="black" points="1047,-407.44 1047,-426.44 1241,-426.44 1241,-407.44 1047,-407.44"/>
<text text-anchor="middle" x="1144" y="-414.44" font-family="Helvetica,sans-Serif" font-size="10.00">carta::Histogram::GetHistogramBins</text>
</a>
</g>
</g>
<!-- Node25&#45;&gt;Node31 -->
<g id="edge37" class="edge">
<title>Node25&#45;&gt;Node31</title>
<path fill="none" stroke="midnightblue" d="M985.73,-432.81C1002.2,-431.14 1020.52,-429.3 1038.67,-427.46"/>
<polygon fill="midnightblue" stroke="midnightblue" points="1039.12,-430.94 1048.72,-426.45 1038.42,-423.97 1039.12,-430.94"/>
</g>
<!-- Node27 -->
<g id="node27" class="node">
<title>Node27</title>
<g id="a_node27"><a xlink:href="classcarta_1_1Histogram.html#a1002f37e381eb1de20add01e234a8083" target="_top" xlink:title=" ">
<polygon fill="none" stroke="black" points="1284.5,-432.44 1284.5,-451.44 1442.5,-451.44 1442.5,-432.44 1284.5,-432.44"/>
<text text-anchor="middle" x="1363.5" y="-439.44" font-family="Helvetica,sans-Serif" font-size="10.00">carta::Histogram::GetBounds</text>
</a>
</g>
</g>
<!-- Node26&#45;&gt;Node27 -->
<g id="edge33" class="edge">
<title>Node26&#45;&gt;Node27</title>
<path fill="none" stroke="midnightblue" d="M1226.3,-453.83C1241.84,-452.48 1258.18,-451.05 1273.93,-449.67"/>
<polygon fill="midnightblue" stroke="midnightblue" points="1274.53,-453.13 1284.19,-448.78 1273.92,-446.16 1274.53,-453.13"/>
</g>
<!-- Node28 -->
<g id="node28" class="node">
<title>Node28</title>
<g id="a_node28"><a xlink:href="classcarta_1_1Histogram.html#ae1f537df539939fde102e25b0b42a9aa" target="_top" xlink:title=" ">
<polygon fill="none" stroke="black" points="1284.5,-394.44 1284.5,-413.44 1442.5,-413.44 1442.5,-394.44 1284.5,-394.44"/>
<text text-anchor="middle" x="1363.5" y="-401.44" font-family="Helvetica,sans-Serif" font-size="10.00">carta::Histogram::GetMaxVal</text>
</a>
</g>
</g>
<!-- Node26&#45;&gt;Node28 -->
<g id="edge34" class="edge">
<title>Node26&#45;&gt;Node28</title>
<path fill="none" stroke="midnightblue" d="M1206.18,-445.9C1217.8,-442.79 1229.81,-439.4 1241,-435.94 1257.25,-430.9 1260.66,-427.68 1277,-422.94 1285.79,-420.38 1295.18,-417.98 1304.4,-415.8"/>
<polygon fill="midnightblue" stroke="midnightblue" points="1305.33,-419.17 1314.29,-413.52 1303.76,-412.35 1305.33,-419.17"/>
</g>
<!-- Node29 -->
<g id="node29" class="node">
<title>Node29</title>
<g id="a_node29"><a xlink:href="classcarta_1_1Histogram.html#a751eb7e111b661cf77a44995db151a3b" target="_top" xlink:title=" ">
<polygon fill="none" stroke="black" points="1286,-508.44 1286,-527.44 1441,-527.44 1441,-508.44 1286,-508.44"/>
<text text-anchor="middle" x="1363.5" y="-515.44" font-family="Helvetica,sans-Serif" font-size="10.00">carta::Histogram::GetMinVal</text>
</a>
</g>
</g>
<!-- Node26&#45;&gt;Node29 -->
<g id="edge35" class="edge">
<title>Node26&#45;&gt;Node29</title>
<path fill="none" stroke="midnightblue" d="M1194.63,-476.01C1219.3,-483.3 1249.62,-491.96 1277,-498.94 1286.73,-501.41 1297.12,-503.88 1307.19,-506.17"/>
<polygon fill="midnightblue" stroke="midnightblue" points="1306.59,-509.62 1317.12,-508.4 1308.13,-502.79 1306.59,-509.62"/>
</g>
<!-- Node30 -->
<g id="node30" class="node">
<title>Node30</title>
<g id="a_node30"><a xlink:href="classcarta_1_1Histogram.html#a70adaf5681547ca8d7aa22550bfb3206" target="_top" xlink:title=" ">
<polygon fill="none" stroke="black" points="1289,-470.44 1289,-489.44 1438,-489.44 1438,-470.44 1289,-470.44"/>
<text text-anchor="middle" x="1363.5" y="-477.44" font-family="Helvetica,sans-Serif" font-size="10.00">carta::Histogram::GetNbins</text>
</a>
</g>
</g>
<!-- Node26&#45;&gt;Node30 -->
<g id="edge36" class="edge">
<title>Node26&#45;&gt;Node30</title>
<path fill="none" stroke="midnightblue" d="M1226.3,-468.04C1243.45,-469.54 1261.57,-471.12 1278.8,-472.62"/>
<polygon fill="midnightblue" stroke="midnightblue" points="1278.56,-476.12 1288.83,-473.5 1279.17,-469.14 1278.56,-476.12"/>
</g>
<!-- Node37&#45;&gt;Node9 -->
<g id="edge49" class="edge">
<title>Node37&#45;&gt;Node9</title>
<path fill="none" stroke="midnightblue" d="M586.03,-345.69C646.01,-340.85 731.81,-328.81 801,-298.94 819.36,-291.01 819.11,-280.87 837,-271.94 841.58,-269.65 846.4,-267.54 851.33,-265.59"/>
<polygon fill="midnightblue" stroke="midnightblue" points="852.73,-268.81 860.9,-262.06 850.3,-262.24 852.73,-268.81"/>
</g>
<!-- Node39 -->
<g id="node39" class="node">
<title>Node39</title>
<g id="a_node39"><a xlink:href="classcarta_1_1Session.html#a120e85ac57a07414f829a228618ab5fe" target="_top" xlink:title=" ">
<polygon fill="none" stroke="black" points="638.5,-202.94 638.5,-232.94 787.5,-232.94 787.5,-202.94 638.5,-202.94"/>
<text text-anchor="start" x="646.5" y="-220.94" font-family="Helvetica,sans-Serif" font-size="10.00">carta::Session::SendSpatial</text>
<text text-anchor="middle" x="713" y="-209.94" font-family="Helvetica,sans-Serif" font-size="10.00">ProfileData</text>
</a>
</g>
</g>
<!-- Node38&#45;&gt;Node39 -->
<g id="edge51" class="edge">
<title>Node38&#45;&gt;Node39</title>
<path fill="none" stroke="midnightblue" d="M561.33,-168.06C570.58,-171.16 580.13,-174.53 589,-177.94 605.34,-184.22 608.51,-188.04 625,-193.94 630.81,-196.01 636.89,-198.02 643.02,-199.93"/>
<polygon fill="midnightblue" stroke="midnightblue" points="642.08,-203.3 652.66,-202.84 644.1,-196.6 642.08,-203.3"/>
</g>
<!-- Node39&#45;&gt;Node9 -->
<g id="edge52" class="edge">
<title>Node39&#45;&gt;Node9</title>
<path fill="none" stroke="midnightblue" d="M787.69,-228.16C807.2,-230.87 828.29,-233.79 847.88,-236.51"/>
<polygon fill="midnightblue" stroke="midnightblue" points="847.59,-240.01 857.97,-237.91 848.55,-233.07 847.59,-240.01"/>
</g>
<!-- Node39&#45;&gt;Node19 -->
<g id="edge53" class="edge">
<title>Node39&#45;&gt;Node19</title>
<path fill="none" stroke="midnightblue" d="M787.69,-212.65C802.63,-211.58 818.49,-210.44 833.9,-209.33"/>
<polygon fill="midnightblue" stroke="midnightblue" points="834.23,-212.82 843.95,-208.61 833.73,-205.83 834.23,-212.82"/>
</g>
<!-- Node41&#45;&gt;Node23 -->
<g id="edge56" class="edge">
<title>Node41&#45;&gt;Node23</title>
<path fill="none" stroke="midnightblue" d="M384.82,-284.46C398.53,-286.15 412.86,-287.91 426.73,-289.62"/>
<polygon fill="midnightblue" stroke="midnightblue" points="426.38,-293.1 436.74,-290.85 427.24,-286.16 426.38,-293.1"/>
</g>
<!-- Node41&#45;&gt;Node37 -->
<g id="edge57" class="edge">
<title>Node41&#45;&gt;Node37</title>
<path fill="none" stroke="midnightblue" d="M330.17,-284.47C355.34,-294.92 397.27,-311.93 434,-324.94 439.46,-326.87 445.17,-328.81 450.91,-330.7"/>
<polygon fill="midnightblue" stroke="midnightblue" points="449.94,-334.07 460.53,-333.83 452.11,-327.41 449.94,-334.07"/>
</g>
<!-- Node41&#45;&gt;Node40 -->
<g id="edge60" class="edge">
<title>Node41&#45;&gt;Node40</title>
<path fill="none" stroke="midnightblue" d="M372.03,-265.32C380.98,-262.86 389.88,-259.79 398,-255.94 416.57,-247.14 415.94,-236.73 434,-226.94 437.98,-224.78 442.17,-222.77 446.46,-220.9"/>
<polygon fill="midnightblue" stroke="midnightblue" points="448.03,-224.04 455.97,-217.04 445.39,-217.56 448.03,-224.04"/>
</g>
<!-- Node42 -->
<g id="node42" class="node">
<title>Node42</title>
<g id="a_node42"><a xlink:href="classcarta_1_1Session.html#a44647c44e04c9b96638cc87980efbf77" target="_top" xlink:title=" ">
<polygon fill="none" stroke="black" points="437,-235.94 437,-265.94 586,-265.94 586,-235.94 437,-235.94"/>
<text text-anchor="start" x="445" y="-253.94" font-family="Helvetica,sans-Serif" font-size="10.00">carta::Session::SendSpatial</text>
<text text-anchor="middle" x="511.5" y="-242.94" font-family="Helvetica,sans-Serif" font-size="10.00">ProfileDataByRegionId</text>
</a>
</g>
</g>
<!-- Node41&#45;&gt;Node42 -->
<g id="edge58" class="edge">
<title>Node41&#45;&gt;Node42</title>
<path fill="none" stroke="midnightblue" d="M388.02,-265.42C400.78,-263.91 413.99,-262.35 426.81,-260.83"/>
<polygon fill="midnightblue" stroke="midnightblue" points="427.48,-264.28 437,-259.63 426.65,-257.32 427.48,-264.28"/>
</g>
<!-- Node42&#45;&gt;Node39 -->
<g id="edge59" class="edge">
<title>Node42&#45;&gt;Node39</title>
<path fill="none" stroke="midnightblue" d="M586.22,-238.74C599.89,-236.48 614.25,-234.1 628.19,-231.8"/>
<polygon fill="midnightblue" stroke="midnightblue" points="628.96,-235.22 638.25,-230.14 627.81,-228.31 628.96,-235.22"/>
</g>
</g>
</svg>
