<?xml version="1.0" encoding="UTF-8" standalone="no"?>
<!DOCTYPE svg PUBLIC "-//W3C//DTD SVG 1.1//EN"
 "http://www.w3.org/Graphics/SVG/1.1/DTD/svg11.dtd">
<!-- Generated by graphviz version 2.43.0 (0)
 -->
<!-- Title: carta::Hdf5Loader Pages: 1 -->
<!--zoomable 987 -->
<svg id="main" version="1.1" xmlns="http://www.w3.org/2000/svg" xmlns:xlink="http://www.w3.org/1999/xlink" xml:space="preserve" onload="init(evt)">
<style type="text/css"><![CDATA[
.edge:hover path { stroke: red; }
.edge:hover polygon { stroke: red; fill: red; }
]]></style>
<script type="text/javascript"><![CDATA[
var edges = document.getElementsByTagName('g');
if (edges && edges.length) {
  for (var i=0;i<edges.length;i++) {
    if (edges[i].id.substr(0,4)=='edge') {
      edges[i].setAttribute('class','edge');
    }
  }
}
]]></script>
        <defs>
                <circle id="rim" cx="0" cy="0" r="7"/>
                <circle id="rim2" cx="0" cy="0" r="3.5"/>
                <g id="zoomPlus">
                        <use xlink:href="#rim" fill="#404040">
                                <set attributeName="fill" to="#808080" begin="zoomplus.mouseover" end="zoomplus.mouseout"/>
                        </use>
                        <path d="M-4,0h8M0,-4v8" fill="none" stroke="white" stroke-width="1.5" pointer-events="none"/>
                </g>
                <g id="zoomMin">
                        <use xlink:href="#rim" fill="#404040">
                                <set attributeName="fill" to="#808080" begin="zoomminus.mouseover" end="zoomminus.mouseout"/>
                        </use>
                        <path d="M-4,0h8" fill="none" stroke="white" stroke-width="1.5" pointer-events="none"/>
                </g>
                <g id="dirArrow">
                        <path fill="none" stroke="white" stroke-width="1.5" d="M0,-3.0v7 M-2.5,-0.5L0,-3.0L2.5,-0.5"/>
                </g>
               <g id="resetDef">
                       <use xlink:href="#rim2" fill="#404040">
                               <set attributeName="fill" to="#808080" begin="reset.mouseover" end="reset.mouseout"/>
                       </use>
               </g>
        </defs>

<script type="text/javascript">
var viewWidth = 1431;
var viewHeight = 987;
var sectionId = 'dynsection-1';
</script>
<script xlink:href="svgpan.js"/>
<svg id="graph" class="graph">
<g id="viewport">
<title>carta::Hdf5Loader</title>
<!-- Node1 -->
<g id="node1" class="node">
<title>Node1</title>
<g id="a_node1"><a xlink:title=" ">
<polygon fill="#bfbfbf" stroke="black" points="1319,-145.5 1319,-164.5 1423,-164.5 1423,-145.5 1319,-145.5"/>
<text text-anchor="middle" x="1371" y="-152.5" font-family="Helvetica,sans-Serif" font-size="10.00">carta::Hdf5Loader</text>
</a>
</g>
</g>
<!-- Node2 -->
<g id="node2" class="node">
<title>Node2</title>
<g id="a_node2"><a xlink:href="classcarta_1_1FileLoader.html" target="_top" xlink:title=" ">
<polygon fill="none" stroke="black" points="1078,-612.5 1078,-631.5 1176,-631.5 1176,-612.5 1078,-612.5"/>
<text text-anchor="middle" x="1127" y="-619.5" font-family="Helvetica,sans-Serif" font-size="10.00">carta::FileLoader</text>
</a>
</g>
</g>
<!-- Node2&#45;&gt;Node1 -->
<g id="edge1" class="edge">
<title>Node2&#45;&gt;Node1</title>
<path fill="none" stroke="midnightblue" d="M1137.85,-602.98C1178.82,-523.93 1334.91,-222.71 1364.97,-164.7"/>
<polygon fill="midnightblue" stroke="midnightblue" points="1134.55,-601.76 1133.05,-612.25 1140.76,-604.98 1134.55,-601.76"/>
</g>
<!-- Node3 -->
<g id="node3" class="node">
<title>Node3</title>
<g id="a_node3"><a xlink:title=" ">
<polygon fill="none" stroke="#bfbfbf" points="348.5,-705.5 348.5,-746.5 497.5,-746.5 497.5,-705.5 348.5,-705.5"/>
<text text-anchor="start" x="356.5" y="-734.5" font-family="Helvetica,sans-Serif" font-size="10.00">std::unordered_map</text>
<text text-anchor="start" x="356.5" y="-723.5" font-family="Helvetica,sans-Serif" font-size="10.00">&lt; CARTA::PolarizationType,</text>
<text text-anchor="middle" x="423" y="-712.5" font-family="Helvetica,sans-Serif" font-size="10.00"> int &gt;</text>
</a>
</g>
</g>
<!-- Node3&#45;&gt;Node2 -->
<g id="edge2" class="edge">
<title>Node3&#45;&gt;Node2</title>
<path fill="none" stroke="#9a32cd" stroke-dasharray="5,2" d="M494.72,-749.06C503.16,-751.09 511.72,-752.82 520,-754 630.61,-769.8 922.04,-775.92 1022,-726 1067.46,-703.3 1105.09,-653.05 1119.59,-631.8"/>
<polygon fill="#9a32cd" stroke="#9a32cd" points="495.44,-745.63 484.89,-746.56 493.71,-752.42 495.44,-745.63"/>
<text text-anchor="middle" x="784.5" y="-768" font-family="Helvetica,sans-Serif" font-size="10.00"> _stokes_indices</text>
</g>
<!-- Node4 -->
<g id="node4" class="node">
<title>Node4</title>
<g id="a_node4"><a xlink:title=" ">
<polygon fill="none" stroke="#bfbfbf" points="148.5,-733.5 148.5,-752.5 245.5,-752.5 245.5,-733.5 148.5,-733.5"/>
<text text-anchor="middle" x="197" y="-740.5" font-family="Helvetica,sans-Serif" font-size="10.00">PolarizationType</text>
</a>
</g>
</g>
<!-- Node4&#45;&gt;Node3 -->
<g id="edge3" class="edge">
<title>Node4&#45;&gt;Node3</title>
<path fill="none" stroke="#9a32cd" stroke-dasharray="5,2" d="M255.59,-738.63C283.77,-736.49 318.03,-733.89 348.11,-731.61"/>
<polygon fill="#9a32cd" stroke="#9a32cd" points="255.21,-735.15 245.5,-739.39 255.74,-742.13 255.21,-735.15"/>
<text text-anchor="middle" x="301.5" y="-739" font-family="Helvetica,sans-Serif" font-size="10.00"> keys</text>
</g>
<!-- Node5 -->
<g id="node5" class="node">
<title>Node5</title>
<g id="a_node5"><a xlink:title=" ">
<polygon fill="none" stroke="#bfbfbf" points="182.5,-492.5 182.5,-511.5 211.5,-511.5 211.5,-492.5 182.5,-492.5"/>
<text text-anchor="middle" x="197" y="-499.5" font-family="Helvetica,sans-Serif" font-size="10.00">int</text>
</a>
</g>
</g>
<!-- Node5&#45;&gt;Node2 -->
<g id="edge24" class="edge">
<title>Node5&#45;&gt;Node2</title>
<path fill="none" stroke="#9a32cd" stroke-dasharray="5,2" d="M221.89,-498.21C275.2,-489.95 407.99,-470.59 520,-464 554.83,-461.95 649.92,-442 677,-464 707.31,-488.62 666.68,-523.11 695,-550 708.33,-562.66 1003.9,-597.76 1022,-601 1041.4,-604.47 1062.75,-608.71 1081.04,-612.47"/>
<polygon fill="#9a32cd" stroke="#9a32cd" points="221.1,-494.79 211.76,-499.79 222.18,-501.7 221.1,-494.79"/>
<text text-anchor="middle" x="598.5" y="-500" font-family="Helvetica,sans-Serif" font-size="10.00"> _modify_time</text>
<text text-anchor="middle" x="598.5" y="-489" font-family="Helvetica,sans-Serif" font-size="10.00">_stokes_axis</text>
<text text-anchor="middle" x="598.5" y="-478" font-family="Helvetica,sans-Serif" font-size="10.00">_stokes_cdelt</text>
<text text-anchor="middle" x="598.5" y="-467" font-family="Helvetica,sans-Serif" font-size="10.00">_z_axis</text>
</g>
<!-- Node5&#45;&gt;Node3 -->
<g id="edge4" class="edge">
<title>Node5&#45;&gt;Node3</title>
<path fill="none" stroke="#9a32cd" stroke-dasharray="5,2" d="M220.5,-514.11C233.96,-522.6 250.12,-535.23 259,-551 288.92,-604.13 236.8,-641.15 277,-687 294.87,-707.39 322.15,-717.64 348.25,-722.64"/>
<polygon fill="#9a32cd" stroke="#9a32cd" points="222.12,-511.01 211.74,-508.92 218.55,-517.03 222.12,-511.01"/>
<text text-anchor="middle" x="301.5" y="-719" font-family="Helvetica,sans-Serif" font-size="10.00"> elements</text>
</g>
<!-- Node7 -->
<g id="node7" class="node">
<title>Node7</title>
<g id="a_node7"><a xlink:href="structStokesSource.html" target="_top" xlink:title=" ">
<polygon fill="none" stroke="black" points="743.5,-668.5 743.5,-687.5 825.5,-687.5 825.5,-668.5 743.5,-668.5"/>
<text text-anchor="middle" x="784.5" y="-675.5" font-family="Helvetica,sans-Serif" font-size="10.00">StokesSource</text>
</a>
</g>
</g>
<!-- Node5&#45;&gt;Node7 -->
<g id="edge7" class="edge">
<title>Node5&#45;&gt;Node7</title>
<path fill="none" stroke="#9a32cd" stroke-dasharray="5,2" d="M220.18,-514.93C233.23,-523.59 249.08,-536.13 259,-551 274.92,-574.87 258.16,-591.36 277,-613 298.42,-637.61 313.25,-632.11 344,-643 412.49,-667.26 446.82,-637.72 502,-685 517.11,-697.95 503.34,-715.12 520,-726 578.42,-764.16 615.76,-759.44 677,-726 689.98,-718.91 682.88,-706.49 695,-698 709.06,-688.15 727.2,-683.06 743.38,-680.47"/>
<polygon fill="#9a32cd" stroke="#9a32cd" points="222.02,-511.95 211.69,-509.56 218.28,-517.87 222.02,-511.95"/>
<text text-anchor="middle" x="423" y="-688" font-family="Helvetica,sans-Serif" font-size="10.00"> stokes</text>
</g>
<!-- Node8 -->
<g id="node8" class="node">
<title>Node8</title>
<g id="a_node8"><a xlink:href="structAxisRange.html" target="_top" xlink:title=" ">
<polygon fill="none" stroke="black" points="389,-614.5 389,-633.5 457,-633.5 457,-614.5 389,-614.5"/>
<text text-anchor="middle" x="423" y="-621.5" font-family="Helvetica,sans-Serif" font-size="10.00">AxisRange</text>
</a>
</g>
</g>
<!-- Node5&#45;&gt;Node8 -->
<g id="edge9" class="edge">
<title>Node5&#45;&gt;Node8</title>
<path fill="none" stroke="#9a32cd" stroke-dasharray="5,2" d="M218.23,-517.77C245.52,-538.45 296.22,-574.82 344,-598 358.26,-604.92 374.81,-610.72 389,-615.08"/>
<polygon fill="#9a32cd" stroke="#9a32cd" points="220.29,-514.94 210.23,-511.64 216.04,-520.5 220.29,-514.94"/>
<text text-anchor="middle" x="301.5" y="-601" font-family="Helvetica,sans-Serif" font-size="10.00"> from</text>
<text text-anchor="middle" x="301.5" y="-590" font-family="Helvetica,sans-Serif" font-size="10.00">to</text>
</g>
<!-- Node17 -->
<g id="node17" class="node">
<title>Node17</title>
<g id="a_node17"><a xlink:title=" ">
<polygon fill="none" stroke="#bfbfbf" points="371,-507.5 371,-526.5 475,-526.5 475,-507.5 371,-507.5"/>
<text text-anchor="middle" x="423" y="-514.5" font-family="Helvetica,sans-Serif" font-size="10.00">std::vector&lt; int &gt;</text>
</a>
</g>
</g>
<!-- Node5&#45;&gt;Node17 -->
<g id="edge19" class="edge">
<title>Node5&#45;&gt;Node17</title>
<path fill="none" stroke="#9a32cd" stroke-dasharray="5,2" d="M222.15,-501.21C247.92,-500.59 289.91,-500.24 326,-503 340.61,-504.12 356.38,-506.09 370.83,-508.21"/>
<polygon fill="#9a32cd" stroke="#9a32cd" points="221.75,-497.72 211.85,-501.49 221.95,-504.71 221.75,-497.72"/>
<text text-anchor="middle" x="301.5" y="-506" font-family="Helvetica,sans-Serif" font-size="10.00"> elements</text>
</g>
<!-- Node30 -->
<g id="node30" class="node">
<title>Node30</title>
<g id="a_node30"><a xlink:href="structcarta_1_1FileInfo_1_1RegionStatsId.html" target="_top" xlink:title=" ">
<polygon fill="none" stroke="black" points="520,-167.5 520,-186.5 677,-186.5 677,-167.5 520,-167.5"/>
<text text-anchor="middle" x="598.5" y="-174.5" font-family="Helvetica,sans-Serif" font-size="10.00">carta::FileInfo::RegionStatsId</text>
</a>
</g>
</g>
<!-- Node5&#45;&gt;Node30 -->
<g id="edge42" class="edge">
<title>Node5&#45;&gt;Node30</title>
<path fill="none" stroke="#9a32cd" stroke-dasharray="5,2" d="M201.24,-482.24C211.26,-428.04 247.15,-276.53 344,-208 394.67,-172.15 465.74,-166.24 519.73,-168.24"/>
<polygon fill="#9a32cd" stroke="#9a32cd" points="197.76,-481.81 199.48,-492.26 204.66,-483.02 197.76,-481.81"/>
<text text-anchor="middle" x="301.5" y="-291" font-family="Helvetica,sans-Serif" font-size="10.00"> region_id</text>
<text text-anchor="middle" x="301.5" y="-280" font-family="Helvetica,sans-Serif" font-size="10.00">stokes</text>
</g>
<!-- Node31 -->
<g id="node31" class="node">
<title>Node31</title>
<g id="a_node31"><a xlink:title=" ">
<polygon fill="none" stroke="#bfbfbf" points="1058.5,-88 1058.5,-140 1195.5,-140 1195.5,-88 1058.5,-88"/>
<text text-anchor="start" x="1066.5" y="-128" font-family="Helvetica,sans-Serif" font-size="10.00">std::unordered_map</text>
<text text-anchor="start" x="1066.5" y="-117" font-family="Helvetica,sans-Serif" font-size="10.00">&lt; int, std::unique_ptr</text>
<text text-anchor="start" x="1066.5" y="-106" font-family="Helvetica,sans-Serif" font-size="10.00">&lt; casacore::HDF5Lattice</text>
<text text-anchor="middle" x="1127" y="-95" font-family="Helvetica,sans-Serif" font-size="10.00">&lt; float &gt; &gt; &gt;</text>
</a>
</g>
</g>
<!-- Node5&#45;&gt;Node31 -->
<g id="edge45" class="edge">
<title>Node5&#45;&gt;Node31</title>
<path fill="none" stroke="#9a32cd" stroke-dasharray="5,2" d="M199.51,-482.37C204.01,-434.05 220.78,-306.96 277,-220 298.07,-187.41 309.65,-182.05 344,-164 415.88,-126.23 439.56,-126.06 520,-115 622.08,-100.97 922.72,-107.82 1058.31,-111.82"/>
<polygon fill="#9a32cd" stroke="#9a32cd" points="196.01,-482.15 198.64,-492.41 202.99,-482.75 196.01,-482.15"/>
<text text-anchor="middle" x="598.5" y="-118" font-family="Helvetica,sans-Serif" font-size="10.00"> keys</text>
</g>
<!-- Node6 -->
<g id="node6" class="node">
<title>Node6</title>
<g id="a_node6"><a xlink:title=" ">
<polygon fill="none" stroke="#bfbfbf" points="360.5,-218 360.5,-248 485.5,-248 485.5,-218 360.5,-218"/>
<text text-anchor="start" x="368.5" y="-236" font-family="Helvetica,sans-Serif" font-size="10.00">vector&lt; carta::FileInfo</text>
<text text-anchor="middle" x="423" y="-225" font-family="Helvetica,sans-Serif" font-size="10.00">::ImageStats &gt;</text>
</a>
</g>
</g>
<!-- Node6&#45;&gt;Node2 -->
<g id="edge5" class="edge">
<title>Node6&#45;&gt;Node2</title>
<path fill="none" stroke="#9a32cd" stroke-dasharray="5,2" d="M495.55,-226.65C645.43,-214.07 981.84,-189.84 1022,-222 1086.56,-273.68 1119.17,-556.58 1125.03,-612.42"/>
<polygon fill="#9a32cd" stroke="#9a32cd" points="495.19,-223.17 485.52,-227.5 495.78,-230.15 495.19,-223.17"/>
<text text-anchor="middle" x="784.5" y="-215" font-family="Helvetica,sans-Serif" font-size="10.00"> _cube_stats</text>
</g>
<!-- Node24 -->
<g id="node24" class="node">
<title>Node24</title>
<g id="a_node24"><a xlink:title=" ">
<polygon fill="none" stroke="#bfbfbf" points="695,-238 695,-268 874,-268 874,-238 695,-238"/>
<text text-anchor="start" x="703" y="-256" font-family="Helvetica,sans-Serif" font-size="10.00">std::vector&lt; std::vector</text>
<text text-anchor="middle" x="784.5" y="-245" font-family="Helvetica,sans-Serif" font-size="10.00">&lt; carta::FileInfo::ImageStats &gt; &gt;</text>
</a>
</g>
</g>
<!-- Node6&#45;&gt;Node24 -->
<g id="edge30" class="edge">
<title>Node6&#45;&gt;Node24</title>
<path fill="none" stroke="#9a32cd" stroke-dasharray="5,2" d="M495.86,-237C553.15,-240.19 633.66,-244.66 694.94,-248.07"/>
<polygon fill="#9a32cd" stroke="#9a32cd" points="495.98,-233.5 485.8,-236.44 495.59,-240.49 495.98,-233.5"/>
<text text-anchor="middle" x="598.5" y="-250" font-family="Helvetica,sans-Serif" font-size="10.00"> elements</text>
</g>
<!-- Node7&#45;&gt;Node2 -->
<g id="edge6" class="edge">
<title>Node7&#45;&gt;Node2</title>
<path fill="none" stroke="#9a32cd" stroke-dasharray="5,2" d="M835.64,-673.79C883.72,-669.29 958.21,-661.14 1022,-649 1046.19,-644.4 1073.08,-637.36 1093.46,-631.63"/>
<polygon fill="#9a32cd" stroke="#9a32cd" points="835.14,-670.32 825.5,-674.72 835.78,-677.29 835.14,-670.32"/>
<text text-anchor="middle" x="957" y="-670" font-family="Helvetica,sans-Serif" font-size="10.00"> _stokes_source</text>
</g>
<!-- Node8&#45;&gt;Node7 -->
<g id="edge8" class="edge">
<title>Node8&#45;&gt;Node7</title>
<path fill="none" stroke="#9a32cd" stroke-dasharray="5,2" d="M465.81,-636.92C477.91,-641.49 490.85,-647.21 502,-654 511.14,-659.57 510.05,-666.04 520,-670 594.42,-699.6 690.23,-692.47 743.41,-684.99"/>
<polygon fill="#9a32cd" stroke="#9a32cd" points="466.93,-633.61 456.33,-633.51 464.55,-640.19 466.93,-633.61"/>
<text text-anchor="middle" x="598.5" y="-716" font-family="Helvetica,sans-Serif" font-size="10.00"> x_range</text>
<text text-anchor="middle" x="598.5" y="-705" font-family="Helvetica,sans-Serif" font-size="10.00">y_range</text>
<text text-anchor="middle" x="598.5" y="-694" font-family="Helvetica,sans-Serif" font-size="10.00">z_range</text>
</g>
<!-- Node9 -->
<g id="node9" class="node">
<title>Node9</title>
<g id="a_node9"><a xlink:title=" ">
<polygon fill="none" stroke="#bfbfbf" points="178,-788.5 178,-807.5 216,-807.5 216,-788.5 178,-788.5"/>
<text text-anchor="middle" x="197" y="-795.5" font-family="Helvetica,sans-Serif" font-size="10.00">float</text>
</a>
</g>
</g>
<!-- Node9&#45;&gt;Node2 -->
<g id="edge10" class="edge">
<title>Node9&#45;&gt;Node2</title>
<path fill="none" stroke="#9a32cd" stroke-dasharray="5,2" d="M226.57,-799.98C355.65,-808.39 884.03,-837.19 1022,-755 1073.88,-724.1 1109.61,-656.81 1121.58,-631.7"/>
<polygon fill="#9a32cd" stroke="#9a32cd" points="226.53,-796.47 216.32,-799.3 226.07,-803.45 226.53,-796.47"/>
<text text-anchor="middle" x="598.5" y="-825" font-family="Helvetica,sans-Serif" font-size="10.00"> _stokes_crpix</text>
<text text-anchor="middle" x="598.5" y="-814" font-family="Helvetica,sans-Serif" font-size="10.00">_stokes_crval</text>
</g>
<!-- Node18 -->
<g id="node18" class="node">
<title>Node18</title>
<g id="a_node18"><a xlink:title=" ">
<polygon fill="none" stroke="#bfbfbf" points="366.5,-765.5 366.5,-784.5 479.5,-784.5 479.5,-765.5 366.5,-765.5"/>
<text text-anchor="middle" x="423" y="-772.5" font-family="Helvetica,sans-Serif" font-size="10.00">std::vector&lt; float &gt;</text>
</a>
</g>
</g>
<!-- Node9&#45;&gt;Node18 -->
<g id="edge21" class="edge">
<title>Node9&#45;&gt;Node18</title>
<path fill="none" stroke="#9a32cd" stroke-dasharray="5,2" d="M226.38,-794.15C241.41,-792.18 260.19,-789.82 277,-788 306.4,-784.82 339.21,-781.83 366.18,-779.53"/>
<polygon fill="#9a32cd" stroke="#9a32cd" points="225.63,-790.72 216.18,-795.51 226.55,-797.66 225.63,-790.72"/>
<text text-anchor="middle" x="301.5" y="-791" font-family="Helvetica,sans-Serif" font-size="10.00"> elements</text>
</g>
<!-- Node10 -->
<g id="node10" class="node">
<title>Node10</title>
<g id="a_node10"><a xlink:title=" ">
<polygon fill="none" stroke="#bfbfbf" points="393.5,-295.5 393.5,-314.5 452.5,-314.5 452.5,-295.5 393.5,-295.5"/>
<text text-anchor="middle" x="423" y="-302.5" font-family="Helvetica,sans-Serif" font-size="10.00">IPosition</text>
</a>
</g>
</g>
<!-- Node10&#45;&gt;Node2 -->
<g id="edge11" class="edge">
<title>Node10&#45;&gt;Node2</title>
<path fill="none" stroke="#9a32cd" stroke-dasharray="5,2" d="M443.75,-320.78C462.24,-334.53 491.27,-353.54 520,-362 734.78,-425.22 845.07,-266.8 1022,-404 1093.91,-459.76 1118.64,-577.63 1124.5,-612.25"/>
<polygon fill="#9a32cd" stroke="#9a32cd" points="445.87,-318 435.8,-314.71 441.62,-323.56 445.87,-318"/>
<text text-anchor="middle" x="784.5" y="-376" font-family="Helvetica,sans-Serif" font-size="10.00"> _image_shape</text>
</g>
<!-- Node27 -->
<g id="node27" class="node">
<title>Node27</title>
<g id="a_node27"><a xlink:href="structcarta_1_1FileInfo_1_1RegionSpectralStats.html" target="_top" xlink:title=" ">
<polygon fill="none" stroke="black" points="703,-287 703,-317 866,-317 866,-287 703,-287"/>
<text text-anchor="start" x="711" y="-305" font-family="Helvetica,sans-Serif" font-size="10.00">carta::FileInfo::RegionSpectral</text>
<text text-anchor="middle" x="784.5" y="-294" font-family="Helvetica,sans-Serif" font-size="10.00">Stats</text>
</a>
</g>
</g>
<!-- Node10&#45;&gt;Node27 -->
<g id="edge34" class="edge">
<title>Node10&#45;&gt;Node27</title>
<path fill="none" stroke="#9a32cd" stroke-dasharray="5,2" d="M454.58,-291.58C473.12,-284.19 497.46,-275.77 520,-272 588.82,-260.5 607.88,-262.45 677,-272 677.38,-272.05 703.8,-279.49 730.22,-286.95"/>
<polygon fill="#9a32cd" stroke="#9a32cd" points="453.12,-288.39 445.2,-295.43 455.78,-294.87 453.12,-288.39"/>
<text text-anchor="middle" x="598.5" y="-286" font-family="Helvetica,sans-Serif" font-size="10.00"> origin</text>
<text text-anchor="middle" x="598.5" y="-275" font-family="Helvetica,sans-Serif" font-size="10.00">shape</text>
</g>
<!-- Node11 -->
<g id="node11" class="node">
<title>Node11</title>
<g id="a_node11"><a xlink:title=" ">
<polygon fill="none" stroke="#bfbfbf" points="708.5,-891.5 708.5,-932.5 860.5,-932.5 860.5,-891.5 708.5,-891.5"/>
<text text-anchor="start" x="716.5" y="-920.5" font-family="Helvetica,sans-Serif" font-size="10.00">std::shared_ptr&lt; casacore</text>
<text text-anchor="start" x="716.5" y="-909.5" font-family="Helvetica,sans-Serif" font-size="10.00">::ImageInterface&lt; casacore</text>
<text text-anchor="middle" x="784.5" y="-898.5" font-family="Helvetica,sans-Serif" font-size="10.00">::Float &gt; &gt;</text>
</a>
</g>
</g>
<!-- Node11&#45;&gt;Node2 -->
<g id="edge12" class="edge">
<title>Node11&#45;&gt;Node2</title>
<path fill="none" stroke="#9a32cd" stroke-dasharray="5,2" d="M870.58,-890.77C877.81,-889.11 885.03,-887.49 892,-886 949.45,-873.69 976.03,-898.59 1022,-862 1099.81,-800.07 1120.6,-668.46 1124.99,-631.71"/>
<polygon fill="#9a32cd" stroke="#9a32cd" points="869.67,-887.39 860.72,-893.07 871.26,-894.21 869.67,-887.39"/>
<text text-anchor="middle" x="957" y="-889" font-family="Helvetica,sans-Serif" font-size="10.00"> _image</text>
</g>
<!-- Node12 -->
<g id="node12" class="node">
<title>Node12</title>
<g id="a_node12"><a xlink:href="structcarta_1_1FileInfo_1_1ImageStats.html" target="_top" xlink:title=" ">
<polygon fill="none" stroke="black" points="712,-592.5 712,-611.5 857,-611.5 857,-592.5 712,-592.5"/>
<text text-anchor="middle" x="784.5" y="-599.5" font-family="Helvetica,sans-Serif" font-size="10.00">carta::FileInfo::ImageStats</text>
</a>
</g>
</g>
<!-- Node12&#45;&gt;Node2 -->
<g id="edge13" class="edge">
<title>Node12&#45;&gt;Node2</title>
<path fill="none" stroke="#9a32cd" stroke-dasharray="5,2" d="M867.35,-604.38C912.91,-605.98 970.64,-608.45 1022,-612 1040.28,-613.26 1060.32,-615.09 1077.89,-616.83"/>
<polygon fill="#9a32cd" stroke="#9a32cd" points="867.34,-600.88 857.23,-604.03 867.1,-607.87 867.34,-600.88"/>
<text text-anchor="middle" x="957" y="-615" font-family="Helvetica,sans-Serif" font-size="10.00"> _empty_stats</text>
</g>
<!-- Node13 -->
<g id="node13" class="node">
<title>Node13</title>
<g id="a_node13"><a xlink:title=" ">
<polygon fill="none" stroke="#bfbfbf" points="404,-419.5 404,-438.5 442,-438.5 442,-419.5 404,-419.5"/>
<text text-anchor="middle" x="423" y="-426.5" font-family="Helvetica,sans-Serif" font-size="10.00">bool</text>
</a>
</g>
</g>
<!-- Node13&#45;&gt;Node2 -->
<g id="edge26" class="edge">
<title>Node13&#45;&gt;Node2</title>
<path fill="none" stroke="#9a32cd" stroke-dasharray="5,2" d="M452.41,-424.08C501.47,-417.04 603.87,-408.91 677,-448 688.45,-454.12 684.09,-463.97 695,-471 726.43,-491.23 987.89,-534.71 1022,-550 1059.07,-566.61 1096.88,-596.82 1114.99,-612.29"/>
<polygon fill="#9a32cd" stroke="#9a32cd" points="451.58,-420.66 442.22,-425.63 452.64,-427.58 451.58,-420.66"/>
<text text-anchor="middle" x="784.5" y="-540" font-family="Helvetica,sans-Serif" font-size="10.00"> _has_pixel_mask</text>
<text text-anchor="middle" x="784.5" y="-529" font-family="Helvetica,sans-Serif" font-size="10.00">_is_generated</text>
<text text-anchor="middle" x="784.5" y="-518" font-family="Helvetica,sans-Serif" font-size="10.00">_is_gz</text>
</g>
<!-- Node13&#45;&gt;Node12 -->
<g id="edge14" class="edge">
<title>Node13&#45;&gt;Node12</title>
<path fill="none" stroke="#9a32cd" stroke-dasharray="5,2" d="M442.21,-445.23C468.75,-468.81 515.41,-509.97 520,-512 584.27,-540.45 611.08,-506.62 677,-531 697.01,-538.4 746.91,-574.64 770.61,-592.29"/>
<polygon fill="#9a32cd" stroke="#9a32cd" points="444.49,-442.57 434.69,-438.54 439.83,-447.8 444.49,-442.57"/>
<text text-anchor="middle" x="598.5" y="-545" font-family="Helvetica,sans-Serif" font-size="10.00"> full</text>
<text text-anchor="middle" x="598.5" y="-534" font-family="Helvetica,sans-Serif" font-size="10.00">valid</text>
</g>
<!-- Node13&#45;&gt;Node27 -->
<g id="edge36" class="edge">
<title>Node13&#45;&gt;Node27</title>
<path fill="none" stroke="#9a32cd" stroke-dasharray="5,2" d="M451.6,-418.95C500.55,-401.16 605.79,-363.08 695,-332 709.09,-327.09 724.49,-321.83 738.43,-317.11"/>
<polygon fill="#9a32cd" stroke="#9a32cd" points="450.24,-415.72 442.04,-422.42 452.63,-422.3 450.24,-415.72"/>
<text text-anchor="middle" x="598.5" y="-396" font-family="Helvetica,sans-Serif" font-size="10.00"> completed</text>
</g>
<!-- Node14 -->
<g id="node14" class="node">
<title>Node14</title>
<g id="a_node14"><a xlink:title=" ">
<polygon fill="none" stroke="#bfbfbf" points="344,-558 344,-588 502,-588 502,-558 344,-558"/>
<text text-anchor="start" x="352" y="-576" font-family="Helvetica,sans-Serif" font-size="10.00">std::map&lt; CARTA::StatsType,</text>
<text text-anchor="middle" x="423" y="-565" font-family="Helvetica,sans-Serif" font-size="10.00"> double &gt;</text>
</a>
</g>
</g>
<!-- Node14&#45;&gt;Node12 -->
<g id="edge15" class="edge">
<title>Node14&#45;&gt;Node12</title>
<path fill="none" stroke="#9a32cd" stroke-dasharray="5,2" d="M508.2,-589.49C512.18,-590.05 516.13,-590.56 520,-591 584.71,-598.38 658.87,-600.95 711.99,-601.79"/>
<polygon fill="#9a32cd" stroke="#9a32cd" points="508.67,-586.03 498.26,-588.01 507.64,-592.95 508.67,-586.03"/>
<text text-anchor="middle" x="598.5" y="-604" font-family="Helvetica,sans-Serif" font-size="10.00"> basic_stats</text>
</g>
<!-- Node15 -->
<g id="node15" class="node">
<title>Node15</title>
<g id="a_node15"><a xlink:title=" ">
<polygon fill="none" stroke="#bfbfbf" points="0,-330.5 0,-349.5 50,-349.5 50,-330.5 0,-330.5"/>
<text text-anchor="middle" x="25" y="-337.5" font-family="Helvetica,sans-Serif" font-size="10.00">double</text>
</a>
</g>
</g>
<!-- Node15&#45;&gt;Node14 -->
<g id="edge16" class="edge">
<title>Node15&#45;&gt;Node14</title>
<path fill="none" stroke="#9a32cd" stroke-dasharray="5,2" d="M32.1,-359.26C44.91,-396.44 78.18,-478.24 135,-521 194.88,-566.06 281.45,-576.4 343.83,-577.1"/>
<polygon fill="#9a32cd" stroke="#9a32cd" points="35.38,-358.02 28.91,-349.63 28.74,-360.22 35.38,-358.02"/>
<text text-anchor="middle" x="197" y="-572" font-family="Helvetica,sans-Serif" font-size="10.00"> elements</text>
</g>
<!-- Node29 -->
<g id="node29" class="node">
<title>Node29</title>
<g id="a_node29"><a xlink:title=" ">
<polygon fill="none" stroke="#bfbfbf" points="135,-50.5 135,-69.5 259,-69.5 259,-50.5 135,-50.5"/>
<text text-anchor="middle" x="197" y="-57.5" font-family="Helvetica,sans-Serif" font-size="10.00">std::vector&lt; double &gt;</text>
</a>
</g>
</g>
<!-- Node15&#45;&gt;Node29 -->
<g id="edge40" class="edge">
<title>Node15&#45;&gt;Node29</title>
<path fill="none" stroke="#9a32cd" stroke-dasharray="5,2" d="M30.17,-320.4C40.62,-275.42 71.72,-163.35 135,-94 144.73,-83.34 158.59,-75.25 170.64,-69.63"/>
<polygon fill="#9a32cd" stroke="#9a32cd" points="26.72,-319.8 27.95,-330.32 33.55,-321.32 26.72,-319.8"/>
<text text-anchor="middle" x="92.5" y="-203" font-family="Helvetica,sans-Serif" font-size="10.00"> elements</text>
</g>
<!-- Node16 -->
<g id="node16" class="node">
<title>Node16</title>
<g id="a_node16"><a xlink:title=" ">
<polygon fill="none" stroke="#bfbfbf" points="165,-103.5 165,-122.5 229,-122.5 229,-103.5 165,-103.5"/>
<text text-anchor="middle" x="197" y="-110.5" font-family="Helvetica,sans-Serif" font-size="10.00">StatsType</text>
</a>
</g>
</g>
<!-- Node16&#45;&gt;Node14 -->
<g id="edge17" class="edge">
<title>Node16&#45;&gt;Node14</title>
<path fill="none" stroke="#9a32cd" stroke-dasharray="5,2" d="M239.34,-112.45C268.38,-114.48 305.55,-122.45 326,-148 352.97,-181.69 320.09,-500.07 344,-536 350.31,-545.48 359.75,-552.6 369.9,-557.91"/>
<polygon fill="#9a32cd" stroke="#9a32cd" points="239.22,-108.94 229.06,-111.94 238.88,-115.93 239.22,-108.94"/>
<text text-anchor="middle" x="301.5" y="-151" font-family="Helvetica,sans-Serif" font-size="10.00"> keys</text>
</g>
<!-- Node28 -->
<g id="node28" class="node">
<title>Node28</title>
<g id="a_node28"><a xlink:title=" ">
<polygon fill="none" stroke="#bfbfbf" points="344,-71 344,-101 502,-101 502,-71 344,-71"/>
<text text-anchor="start" x="352" y="-89" font-family="Helvetica,sans-Serif" font-size="10.00">std::map&lt; CARTA::StatsType,</text>
<text text-anchor="middle" x="423" y="-78" font-family="Helvetica,sans-Serif" font-size="10.00"> std::vector&lt; double &gt; &gt;</text>
</a>
</g>
</g>
<!-- Node16&#45;&gt;Node28 -->
<g id="edge38" class="edge">
<title>Node16&#45;&gt;Node28</title>
<path fill="none" stroke="#9a32cd" stroke-dasharray="5,2" d="M230.39,-99.82C244.46,-94.75 261.29,-89.57 277,-87 298.49,-83.48 322.01,-82.22 343.74,-82.1"/>
<polygon fill="#9a32cd" stroke="#9a32cd" points="228.83,-96.66 220.69,-103.44 231.28,-103.22 228.83,-96.66"/>
<text text-anchor="middle" x="301.5" y="-90" font-family="Helvetica,sans-Serif" font-size="10.00"> keys</text>
</g>
<!-- Node17&#45;&gt;Node12 -->
<g id="edge18" class="edge">
<title>Node17&#45;&gt;Node12</title>
<path fill="none" stroke="#9a32cd" stroke-dasharray="5,2" d="M457.56,-530.52C471.36,-536.14 487.49,-542.8 502,-549 510.05,-552.44 511.58,-554.62 520,-557 587.74,-576.16 607.7,-565.58 677,-578 699.57,-582.05 724.6,-587.63 744.72,-592.39"/>
<polygon fill="#9a32cd" stroke="#9a32cd" points="458.55,-527.15 447.97,-526.63 455.92,-533.63 458.55,-527.15"/>
<text text-anchor="middle" x="598.5" y="-581" font-family="Helvetica,sans-Serif" font-size="10.00"> histogram_bins</text>
</g>
<!-- Node18&#45;&gt;Node12 -->
<g id="edge20" class="edge">
<title>Node18&#45;&gt;Node12</title>
<path fill="none" stroke="#9a32cd" stroke-dasharray="5,2" d="M488.8,-765.99C493.71,-763.38 498.22,-760.1 502,-756 536.2,-718.96 484.33,-679.63 520,-644 526.82,-637.19 636.23,-621.47 711.9,-611.31"/>
<polygon fill="#9a32cd" stroke="#9a32cd" points="487.35,-762.81 479.6,-770.03 490.16,-769.22 487.35,-762.81"/>
<text text-anchor="middle" x="598.5" y="-658" font-family="Helvetica,sans-Serif" font-size="10.00"> percentile_ranks</text>
<text text-anchor="middle" x="598.5" y="-647" font-family="Helvetica,sans-Serif" font-size="10.00">percentiles</text>
</g>
<!-- Node19 -->
<g id="node19" class="node">
<title>Node19</title>
<g id="a_node19"><a xlink:title=" ">
<polygon fill="none" stroke="#bfbfbf" points="400.5,-365.5 400.5,-384.5 445.5,-384.5 445.5,-365.5 400.5,-365.5"/>
<text text-anchor="middle" x="423" y="-372.5" font-family="Helvetica,sans-Serif" font-size="10.00">size_t</text>
</a>
</g>
</g>
<!-- Node19&#45;&gt;Node2 -->
<g id="edge22" class="edge">
<title>Node19&#45;&gt;Node2</title>
<path fill="none" stroke="#9a32cd" stroke-dasharray="5,2" d="M455.71,-379.65C474.39,-382.22 498.49,-385.23 520,-387 559.23,-390.22 837.02,-387.5 874,-401 993.98,-444.8 1093.48,-575.96 1119.41,-612.47"/>
<polygon fill="#9a32cd" stroke="#9a32cd" points="456.07,-376.17 445.68,-378.24 455.09,-383.1 456.07,-376.17"/>
<text text-anchor="middle" x="784.5" y="-459" font-family="Helvetica,sans-Serif" font-size="10.00"> _depth</text>
<text text-anchor="middle" x="784.5" y="-448" font-family="Helvetica,sans-Serif" font-size="10.00">_height</text>
<text text-anchor="middle" x="784.5" y="-437" font-family="Helvetica,sans-Serif" font-size="10.00">_image_plane_size</text>
<text text-anchor="middle" x="784.5" y="-426" font-family="Helvetica,sans-Serif" font-size="10.00">_num_dims</text>
<text text-anchor="middle" x="784.5" y="-415" font-family="Helvetica,sans-Serif" font-size="10.00">_num_stokes</text>
<text text-anchor="middle" x="784.5" y="-404" font-family="Helvetica,sans-Serif" font-size="10.00">_width</text>
</g>
<!-- Node19&#45;&gt;Node27 -->
<g id="edge35" class="edge">
<title>Node19&#45;&gt;Node27</title>
<path fill="none" stroke="#9a32cd" stroke-dasharray="5,2" d="M446.66,-359.55C469.93,-344.01 504.81,-321.7 520,-317 579.31,-298.64 649.66,-295.52 702.74,-296.64"/>
<polygon fill="#9a32cd" stroke="#9a32cd" points="444.43,-356.83 438.09,-365.32 448.34,-362.64 444.43,-356.83"/>
<text text-anchor="middle" x="598.5" y="-320" font-family="Helvetica,sans-Serif" font-size="10.00"> latest_x</text>
</g>
<!-- Node20 -->
<g id="node20" class="node">
<title>Node20</title>
<g id="a_node20"><a xlink:title=" ">
<polygon fill="none" stroke="#bfbfbf" points="712.5,-842 712.5,-872 856.5,-872 856.5,-842 712.5,-842"/>
<text text-anchor="start" x="720.5" y="-860" font-family="Helvetica,sans-Serif" font-size="10.00">std::shared_ptr&lt; casacore</text>
<text text-anchor="middle" x="784.5" y="-849" font-family="Helvetica,sans-Serif" font-size="10.00">::CoordinateSystem &gt;</text>
</a>
</g>
</g>
<!-- Node20&#45;&gt;Node2 -->
<g id="edge23" class="edge">
<title>Node20&#45;&gt;Node2</title>
<path fill="none" stroke="#9a32cd" stroke-dasharray="5,2" d="M866.77,-850.45C930.07,-844.73 1009.29,-835.95 1022,-827 1092.47,-777.35 1118.06,-665.54 1124.34,-631.81"/>
<polygon fill="#9a32cd" stroke="#9a32cd" points="866.41,-846.97 856.76,-851.34 867.03,-853.94 866.41,-846.97"/>
<text text-anchor="middle" x="957" y="-850" font-family="Helvetica,sans-Serif" font-size="10.00"> _coord_sys</text>
</g>
<!-- Node21 -->
<g id="node21" class="node">
<title>Node21</title>
<g id="a_node21"><a xlink:title=" ">
<polygon fill="none" stroke="#bfbfbf" points="708.5,-707 708.5,-737 860.5,-737 860.5,-707 708.5,-707"/>
<text text-anchor="start" x="716.5" y="-725" font-family="Helvetica,sans-Serif" font-size="10.00">std::shared_ptr&lt; casacore</text>
<text text-anchor="middle" x="784.5" y="-714" font-family="Helvetica,sans-Serif" font-size="10.00">::ImageInterface&lt; float &gt; &gt;</text>
</a>
</g>
</g>
<!-- Node21&#45;&gt;Node2 -->
<g id="edge25" class="edge">
<title>Node21&#45;&gt;Node2</title>
<path fill="none" stroke="#9a32cd" stroke-dasharray="5,2" d="M870.93,-714.96C916.73,-709.36 973.55,-699.43 1022,-682 1057.11,-669.37 1093.97,-645.07 1112.96,-631.59"/>
<polygon fill="#9a32cd" stroke="#9a32cd" points="870.26,-711.51 860.73,-716.16 871.07,-718.47 870.26,-711.51"/>
<text text-anchor="middle" x="957" y="-714" font-family="Helvetica,sans-Serif" font-size="10.00"> _computed_stokes_image</text>
</g>
<!-- Node22 -->
<g id="node22" class="node">
<title>Node22</title>
<g id="a_node22"><a xlink:title=" ">
<polygon fill="none" stroke="#bfbfbf" points="752,-951.5 752,-970.5 817,-970.5 817,-951.5 752,-951.5"/>
<text text-anchor="middle" x="784.5" y="-958.5" font-family="Helvetica,sans-Serif" font-size="10.00">std::string</text>
</a>
</g>
</g>
<!-- Node22&#45;&gt;Node1 -->
<g id="edge47" class="edge">
<title>Node22&#45;&gt;Node1</title>
<path fill="none" stroke="#9a32cd" stroke-dasharray="5,2" d="M827.27,-970.79C877.22,-980.11 961.65,-988.08 1022,-953 1331.7,-773 1366.23,-242.34 1369.65,-164.56"/>
<polygon fill="#9a32cd" stroke="#9a32cd" points="827.64,-967.3 817.15,-968.8 826.29,-974.17 827.64,-967.3"/>
<text text-anchor="middle" x="1127" y="-942" font-family="Helvetica,sans-Serif" font-size="10.00"> _hdu</text>
</g>
<!-- Node22&#45;&gt;Node2 -->
<g id="edge27" class="edge">
<title>Node22&#45;&gt;Node2</title>
<path fill="none" stroke="#9a32cd" stroke-dasharray="5,2" d="M827.22,-957.88C842.77,-955.27 860.03,-950.53 874,-942 884.78,-935.42 881.1,-926.39 892,-920 942.62,-890.33 976.83,-934.45 1022,-897 1109.04,-824.84 1123.32,-671.68 1125.59,-631.71"/>
<polygon fill="#9a32cd" stroke="#9a32cd" points="826.69,-954.42 817.29,-959.31 827.69,-961.35 826.69,-954.42"/>
<text text-anchor="middle" x="957" y="-945" font-family="Helvetica,sans-Serif" font-size="10.00"> _directory</text>
<text text-anchor="middle" x="957" y="-934" font-family="Helvetica,sans-Serif" font-size="10.00">_filename</text>
<text text-anchor="middle" x="957" y="-923" font-family="Helvetica,sans-Serif" font-size="10.00">_hdu</text>
</g>
<!-- Node23 -->
<g id="node23" class="node">
<title>Node23</title>
<g id="a_node23"><a xlink:title=" ">
<polygon fill="none" stroke="#bfbfbf" points="371,-946 371,-976 475,-976 475,-946 371,-946"/>
<text text-anchor="start" x="379" y="-964" font-family="Helvetica,sans-Serif" font-size="10.00">std::basic_string&lt;</text>
<text text-anchor="middle" x="423" y="-953" font-family="Helvetica,sans-Serif" font-size="10.00"> Char &gt;</text>
</a>
</g>
</g>
<!-- Node23&#45;&gt;Node22 -->
<g id="edge28" class="edge">
<title>Node23&#45;&gt;Node22</title>
<path fill="none" stroke="midnightblue" d="M485.19,-961C562.32,-961 692.04,-961 751.72,-961"/>
<polygon fill="midnightblue" stroke="midnightblue" points="485.13,-957.5 475.13,-961 485.13,-964.5 485.13,-957.5"/>
</g>
<!-- Node24&#45;&gt;Node2 -->
<g id="edge29" class="edge">
<title>Node24&#45;&gt;Node2</title>
<path fill="none" stroke="#9a32cd" stroke-dasharray="5,2" d="M855.68,-270.96C861.91,-272.88 868.09,-274.9 874,-277 882.25,-279.93 883.85,-281.82 892,-285 948.82,-307.19 978.55,-286.19 1022,-329 1107.35,-413.11 1122.88,-571.68 1125.5,-612.32"/>
<polygon fill="#9a32cd" stroke="#9a32cd" points="856.45,-267.54 845.87,-268.04 854.45,-274.25 856.45,-267.54"/>
<text text-anchor="middle" x="957" y="-332" font-family="Helvetica,sans-Serif" font-size="10.00"> _z_stats</text>
</g>
<!-- Node25 -->
<g id="node25" class="node">
<title>Node25</title>
<g id="a_node25"><a xlink:title=" ">
<polygon fill="none" stroke="#bfbfbf" points="753.5,-630.5 753.5,-649.5 815.5,-649.5 815.5,-630.5 753.5,-630.5"/>
<text text-anchor="middle" x="784.5" y="-637.5" font-family="Helvetica,sans-Serif" font-size="10.00">DataType</text>
</a>
</g>
</g>
<!-- Node25&#45;&gt;Node2 -->
<g id="edge31" class="edge">
<title>Node25&#45;&gt;Node2</title>
<path fill="none" stroke="#9a32cd" stroke-dasharray="5,2" d="M826.05,-637.86C889.09,-634.52 1010.33,-628.11 1077.77,-624.55"/>
<polygon fill="#9a32cd" stroke="#9a32cd" points="825.52,-634.38 815.72,-638.4 825.89,-641.37 825.52,-634.38"/>
<text text-anchor="middle" x="957" y="-637" font-family="Helvetica,sans-Serif" font-size="10.00"> _data_type</text>
</g>
<!-- Node26 -->
<g id="node26" class="node">
<title>Node26</title>
<g id="a_node26"><a xlink:title=" ">
<polygon fill="none" stroke="#bfbfbf" points="1040,-159.5 1040,-200.5 1214,-200.5 1214,-159.5 1040,-159.5"/>
<text text-anchor="start" x="1048" y="-188.5" font-family="Helvetica,sans-Serif" font-size="10.00">std::map&lt; carta::FileInfo</text>
<text text-anchor="start" x="1048" y="-177.5" font-family="Helvetica,sans-Serif" font-size="10.00">::RegionStatsId, carta</text>
<text text-anchor="middle" x="1127" y="-166.5" font-family="Helvetica,sans-Serif" font-size="10.00">::FileInfo::RegionSpectralStats &gt;</text>
</a>
</g>
</g>
<!-- Node26&#45;&gt;Node1 -->
<g id="edge32" class="edge">
<title>Node26&#45;&gt;Node1</title>
<path fill="none" stroke="#9a32cd" stroke-dasharray="5,2" d="M1223.96,-170.09C1256.35,-166.74 1291.24,-163.14 1318.79,-160.29"/>
<polygon fill="#9a32cd" stroke="#9a32cd" points="1223.59,-166.61 1214,-171.12 1224.31,-173.57 1223.59,-166.61"/>
<text text-anchor="middle" x="1266.5" y="-172" font-family="Helvetica,sans-Serif" font-size="10.00"> _region_stats</text>
</g>
<!-- Node27&#45;&gt;Node26 -->
<g id="edge33" class="edge">
<title>Node27&#45;&gt;Node26</title>
<path fill="none" stroke="#9a32cd" stroke-dasharray="5,2" d="M851.52,-284.07C859.13,-281.79 866.76,-279.41 874,-277 945.39,-253.23 1026.32,-221.14 1076.76,-200.5"/>
<polygon fill="#9a32cd" stroke="#9a32cd" points="850.52,-280.72 841.92,-286.9 852.5,-287.43 850.52,-280.72"/>
<text text-anchor="middle" x="957" y="-273" font-family="Helvetica,sans-Serif" font-size="10.00"> elements</text>
</g>
<!-- Node28&#45;&gt;Node27 -->
<g id="edge37" class="edge">
<title>Node28&#45;&gt;Node27</title>
<path fill="none" stroke="#9a32cd" stroke-dasharray="5,2" d="M461.02,-105.59C478.47,-114.04 499.84,-123.27 520,-129 553.86,-138.63 652.01,-125.21 677,-150 717.47,-190.15 657.49,-234.07 695,-277 698.36,-280.85 702.27,-284.12 706.52,-286.91"/>
<polygon fill="#9a32cd" stroke="#9a32cd" points="462.27,-102.31 451.76,-101.01 459.17,-108.58 462.27,-102.31"/>
<text text-anchor="middle" x="598.5" y="-153" font-family="Helvetica,sans-Serif" font-size="10.00"> stats</text>
</g>
<!-- Node29&#45;&gt;Node28 -->
<g id="edge39" class="edge">
<title>Node29&#45;&gt;Node28</title>
<path fill="none" stroke="#9a32cd" stroke-dasharray="5,2" d="M269.32,-50.56C287.87,-49.62 307.76,-49.95 326,-53 346.86,-56.49 369.26,-63.95 387.17,-70.91"/>
<polygon fill="#9a32cd" stroke="#9a32cd" points="268.94,-47.08 259.18,-51.21 269.38,-54.07 268.94,-47.08"/>
<text text-anchor="middle" x="301.5" y="-56" font-family="Helvetica,sans-Serif" font-size="10.00"> elements</text>
</g>
<!-- Node30&#45;&gt;Node26 -->
<g id="edge41" class="edge">
<title>Node30&#45;&gt;Node26</title>
<path fill="none" stroke="#9a32cd" stroke-dasharray="5,2" d="M687.28,-175.09C689.88,-175.06 692.46,-175.03 695,-175 774.55,-174.17 794.45,-174.21 874,-175 929.24,-175.55 991.29,-176.77 1039.99,-177.87"/>
<polygon fill="#9a32cd" stroke="#9a32cd" points="687.1,-171.59 677.16,-175.24 687.21,-178.59 687.1,-171.59"/>
<text text-anchor="middle" x="784.5" y="-178" font-family="Helvetica,sans-Serif" font-size="10.00"> keys</text>
</g>
<!-- Node31&#45;&gt;Node1 -->
<g id="edge43" class="edge">
<title>Node31&#45;&gt;Node1</title>
<path fill="none" stroke="#9a32cd" stroke-dasharray="5,2" d="M1205.98,-127.21C1242.94,-133.47 1286.07,-140.78 1318.81,-146.33"/>
<polygon fill="#9a32cd" stroke="#9a32cd" points="1206.18,-123.69 1195.73,-125.48 1205.01,-130.6 1206.18,-123.69"/>
<text text-anchor="middle" x="1266.5" y="-146" font-family="Helvetica,sans-Serif" font-size="10.00"> _mipmaps</text>
</g>
<!-- Node32 -->
<g id="node32" class="node">
<title>Node32</title>
<g id="a_node32"><a xlink:title=" ">
<polygon fill="none" stroke="#bfbfbf" points="712.5,-49 712.5,-79 856.5,-79 856.5,-49 712.5,-49"/>
<text text-anchor="start" x="720.5" y="-67" font-family="Helvetica,sans-Serif" font-size="10.00">std::unique_ptr&lt; casacore</text>
<text text-anchor="middle" x="784.5" y="-56" font-family="Helvetica,sans-Serif" font-size="10.00">::HDF5Lattice&lt; float &gt; &gt;</text>
</a>
</g>
</g>
<!-- Node32&#45;&gt;Node1 -->
<g id="edge46" class="edge">
<title>Node32&#45;&gt;Node1</title>
<path fill="none" stroke="#9a32cd" stroke-dasharray="5,2" d="M866.83,-52.63C954.23,-43.16 1096.44,-35.69 1214,-67 1272.89,-82.69 1333.05,-125.94 1358.01,-145.35"/>
<polygon fill="#9a32cd" stroke="#9a32cd" points="866.26,-49.18 856.71,-53.77 867.04,-56.13 866.26,-49.18"/>
<text text-anchor="middle" x="1127" y="-70" font-family="Helvetica,sans-Serif" font-size="10.00"> _swizzled_image</text>
</g>
<!-- Node32&#45;&gt;Node31 -->
<g id="edge44" class="edge">
<title>Node32&#45;&gt;Node31</title>
<path fill="none" stroke="#9a32cd" stroke-dasharray="5,2" d="M866.86,-70.57C912.62,-74.86 970.7,-81.29 1022,-90 1033.78,-92 1046.23,-94.52 1058.26,-97.16"/>
<polygon fill="#9a32cd" stroke="#9a32cd" points="866.97,-67.06 856.69,-69.63 866.33,-74.04 866.97,-67.06"/>
<text text-anchor="middle" x="957" y="-93" font-family="Helvetica,sans-Serif" font-size="10.00"> elements</text>
</g>
<!-- Node33 -->
<g id="node33" class="node">
<title>Node33</title>
<g id="a_node33"><a xlink:title=" ">
<polygon fill="none" stroke="#bfbfbf" points="1085.5,-0.5 1085.5,-19.5 1168.5,-19.5 1168.5,-0.5 1085.5,-0.5"/>
<text text-anchor="middle" x="1127" y="-7.5" font-family="Helvetica,sans-Serif" font-size="10.00">H5D_layout_t</text>
</a>
</g>
</g>
<!-- Node33&#45;&gt;Node1 -->
<g id="edge48" class="edge">
<title>Node33&#45;&gt;Node1</title>
<path fill="none" stroke="#9a32cd" stroke-dasharray="5,2" d="M1178.69,-4.54C1215.6,-3.16 1265.2,-6.93 1301,-31 1342.71,-59.04 1361.76,-121.13 1367.78,-145.2"/>
<polygon fill="#9a32cd" stroke="#9a32cd" points="1178.45,-1.05 1168.64,-5.05 1178.81,-8.04 1178.45,-1.05"/>
<text text-anchor="middle" x="1266.5" y="-34" font-family="Helvetica,sans-Serif" font-size="10.00"> _layout</text>
</g>
</g>
</svg>
        <g id="navigator" transform="translate(0 0)" fill="#404254">
                <rect fill="#f2f5e9" fill-opacity="0.5" stroke="#606060" stroke-width=".5" x="0" y="0" width="60" height="60"/>
                <use id="zoomplus" xlink:href="#zoomPlus" x="17" y="9" onmousedown="handleZoom(evt,'in')"/>
                <use id="zoomminus" xlink:href="#zoomMin" x="42" y="9" onmousedown="handleZoom(evt,'out')"/>
                <use id="reset" xlink:href="#resetDef" x="30" y="36" onmousedown="handleReset()"/>
                <g id="arrowUp" xlink:href="#dirArrow" transform="translate(30 24)" onmousedown="handlePan(0,-1)">
                  <use xlink:href="#rim" fill="#404040">
                        <set attributeName="fill" to="#808080" begin="arrowUp.mouseover" end="arrowUp.mouseout"/>
                  </use>
                  <path fill="none" stroke="white" stroke-width="1.5" d="M0,-3.0v7 M-2.5,-0.5L0,-3.0L2.5,-0.5"/>
                </g>
                <g id="arrowRight" xlink:href="#dirArrow" transform="rotate(90) translate(36 -43)" onmousedown="handlePan(1,0)">
                  <use xlink:href="#rim" fill="#404040">
                        <set attributeName="fill" to="#808080" begin="arrowRight.mouseover" end="arrowRight.mouseout"/>
                  </use>
                  <path fill="none" stroke="white" stroke-width="1.5" d="M0,-3.0v7 M-2.5,-0.5L0,-3.0L2.5,-0.5"/>
                </g>
                <g id="arrowDown" xlink:href="#dirArrow" transform="rotate(180) translate(-30 -48)" onmousedown="handlePan(0,1)">
                  <use xlink:href="#rim" fill="#404040">
                        <set attributeName="fill" to="#808080" begin="arrowDown.mouseover" end="arrowDown.mouseout"/>
                  </use>
                  <path fill="none" stroke="white" stroke-width="1.5" d="M0,-3.0v7 M-2.5,-0.5L0,-3.0L2.5,-0.5"/>
                </g>
                <g id="arrowLeft" xlink:href="#dirArrow" transform="rotate(270) translate(-36 17)" onmousedown="handlePan(-1,0)">
                  <use xlink:href="#rim" fill="#404040">
                        <set attributeName="fill" to="#808080" begin="arrowLeft.mouseover" end="arrowLeft.mouseout"/>
                  </use>
                  <path fill="none" stroke="white" stroke-width="1.5" d="M0,-3.0v7 M-2.5,-0.5L0,-3.0L2.5,-0.5"/>
                </g>
        </g>
        <svg viewBox="0 0 15 15" width="100%" height="30px" preserveAspectRatio="xMaxYMin meet">
         <g id="arrow_out" transform="scale(0.3 0.3)">
          <a xlink:href="classcarta_1_1Hdf5Loader__coll__graph_org.svg" target="_base">
           <rect id="button" ry="5" rx="5" y="6" x="6" height="38" width="38"
                fill="#f2f5e9" fill-opacity="0.5" stroke="#606060" stroke-width="1.0"/>
           <path id="arrow"
             d="M 11.500037,31.436501 C 11.940474,20.09759 22.043105,11.32322 32.158766,21.979434 L 37.068811,17.246167 C 37.068811,17.246167 37.088388,32 37.088388,32 L 22.160133,31.978069 C 22.160133,31.978069 26.997745,27.140456 26.997745,27.140456 C 18.528582,18.264221 13.291696,25.230495 11.500037,31.436501 z"
             style="fill:#404040;"/>
          </a>
         </g>
        </svg>
</svg>
