<?xml version="1.0" encoding="UTF-8" standalone="no"?>
<!DOCTYPE svg PUBLIC "-//W3C//DTD SVG 1.1//EN"
 "http://www.w3.org/Graphics/SVG/1.1/DTD/svg11.dtd">
<!-- Generated by graphviz version 2.43.0 (0)
 -->
<!-- Title: carta::RegionHandler::CancelLineProfiles Pages: 1 -->
<svg width="827pt" height="127pt"
 viewBox="0.00 0.00 827.00 127.00" xmlns="http://www.w3.org/2000/svg" xmlns:xlink="http://www.w3.org/1999/xlink">
<g id="graph0" class="graph" transform="scale(1 1) rotate(0) translate(4 123)">
<title>carta::RegionHandler::CancelLineProfiles</title>
<!-- Node1 -->
<g id="node1" class="node">
<title>Node1</title>
<g id="a_node1"><a xlink:title=" ">
<polygon fill="#bfbfbf" stroke="black" points="700,-44.5 700,-74.5 819,-74.5 819,-44.5 700,-44.5"/>
<text text-anchor="start" x="708" y="-62.5" font-family="Helvetica,sans-Serif" font-size="10.00">carta::RegionHandler</text>
<text text-anchor="middle" x="759.5" y="-51.5" font-family="Helvetica,sans-Serif" font-size="10.00">::CancelLineProfiles</text>
</a>
</g>
</g>
<!-- Node2 -->
<g id="node2" class="node">
<title>Node2</title>
<g id="a_node2"><a xlink:href="classcarta_1_1RegionHandler.html#abb5e03ccc3f1a8e0026c0b13ba5ed0d5" target="_top" xlink:title=" ">
<polygon fill="none" stroke="black" points="491,-88.5 491,-118.5 664,-118.5 664,-88.5 491,-88.5"/>
<text text-anchor="start" x="499" y="-106.5" font-family="Helvetica,sans-Serif" font-size="10.00">carta::RegionHandler</text>
<text text-anchor="middle" x="577.5" y="-95.5" font-family="Helvetica,sans-Serif" font-size="10.00">::GetFixedAngularRegionProfiles</text>
</a>
</g>
</g>
<!-- Node1&#45;&gt;Node2 -->
<g id="edge1" class="edge">
<title>Node1&#45;&gt;Node2</title>
<path fill="none" stroke="midnightblue" d="M689.56,-76.35C673.26,-80.34 655.99,-84.56 640.04,-88.46"/>
<polygon fill="midnightblue" stroke="midnightblue" points="690.68,-79.68 699.56,-73.91 689.02,-72.88 690.68,-79.68"/>
</g>
<!-- Node3 -->
<g id="node3" class="node">
<title>Node3</title>
<g id="a_node3"><a xlink:href="classcarta_1_1RegionHandler.html#af0631842fe196a21fafb16e61b71401d" target="_top" xlink:title=" ">
<polygon fill="none" stroke="black" points="336,-44.5 336,-74.5 455,-74.5 455,-44.5 336,-44.5"/>
<text text-anchor="start" x="344" y="-62.5" font-family="Helvetica,sans-Serif" font-size="10.00">carta::RegionHandler</text>
<text text-anchor="middle" x="395.5" y="-51.5" font-family="Helvetica,sans-Serif" font-size="10.00">::GetLineProfiles</text>
</a>
</g>
</g>
<!-- Node1&#45;&gt;Node3 -->
<g id="edge8" class="edge">
<title>Node1&#45;&gt;Node3</title>
<path fill="none" stroke="midnightblue" d="M689.78,-59.5C621.97,-59.5 519.41,-59.5 455.28,-59.5"/>
<polygon fill="midnightblue" stroke="midnightblue" points="689.94,-63 699.94,-59.5 689.94,-56 689.94,-63"/>
</g>
<!-- Node7 -->
<g id="node7" class="node">
<title>Node7</title>
<g id="a_node7"><a xlink:href="classcarta_1_1RegionHandler.html#a678aa8c7913af74fd1b483b3bd943a4c" target="_top" xlink:title=" ">
<polygon fill="none" stroke="black" points="498.5,-0.5 498.5,-30.5 656.5,-30.5 656.5,-0.5 498.5,-0.5"/>
<text text-anchor="start" x="506.5" y="-18.5" font-family="Helvetica,sans-Serif" font-size="10.00">carta::RegionHandler</text>
<text text-anchor="middle" x="577.5" y="-7.5" font-family="Helvetica,sans-Serif" font-size="10.00">::GetFixedPixelRegionProfiles</text>
</a>
</g>
</g>
<!-- Node1&#45;&gt;Node7 -->
<g id="edge6" class="edge">
<title>Node1&#45;&gt;Node7</title>
<path fill="none" stroke="midnightblue" d="M689.56,-42.65C673.26,-38.66 655.99,-34.44 640.04,-30.54"/>
<polygon fill="midnightblue" stroke="midnightblue" points="689.02,-46.12 699.56,-45.09 690.68,-39.32 689.02,-46.12"/>
</g>
<!-- Node2&#45;&gt;Node3 -->
<g id="edge2" class="edge">
<title>Node2&#45;&gt;Node3</title>
<path fill="none" stroke="midnightblue" d="M504.93,-86C488.44,-81.98 471.1,-77.74 455.23,-73.86"/>
<polygon fill="midnightblue" stroke="midnightblue" points="504.51,-89.51 515.06,-88.48 506.17,-82.71 504.51,-89.51"/>
</g>
<!-- Node4 -->
<g id="node4" class="node">
<title>Node4</title>
<g id="a_node4"><a xlink:href="classcarta_1_1RegionHandler.html#a53807aa22abb92b35725054a015e12aa" target="_top" xlink:title=" ">
<polygon fill="none" stroke="black" points="181,-69.5 181,-99.5 300,-99.5 300,-69.5 181,-69.5"/>
<text text-anchor="start" x="189" y="-87.5" font-family="Helvetica,sans-Serif" font-size="10.00">carta::RegionHandler</text>
<text text-anchor="middle" x="240.5" y="-76.5" font-family="Helvetica,sans-Serif" font-size="10.00">::CalculatePvImage</text>
</a>
</g>
</g>
<!-- Node3&#45;&gt;Node4 -->
<g id="edge3" class="edge">
<title>Node3&#45;&gt;Node4</title>
<path fill="none" stroke="midnightblue" d="M325.79,-70.73C317.2,-72.13 308.47,-73.56 300.06,-74.93"/>
<polygon fill="midnightblue" stroke="midnightblue" points="326.48,-74.16 335.78,-69.09 325.35,-67.25 326.48,-74.16"/>
</g>
<!-- Node5 -->
<g id="node5" class="node">
<title>Node5</title>
<g id="a_node5"><a xlink:href="classcarta_1_1RegionHandler.html#acf0d1aa0e6368d33b4631f3c383b3349" target="_top" xlink:title=" ">
<polygon fill="none" stroke="black" points="181,-20.5 181,-50.5 300,-50.5 300,-20.5 181,-20.5"/>
<text text-anchor="start" x="189" y="-38.5" font-family="Helvetica,sans-Serif" font-size="10.00">carta::RegionHandler</text>
<text text-anchor="middle" x="240.5" y="-27.5" font-family="Helvetica,sans-Serif" font-size="10.00">::GetLineSpatialData</text>
</a>
</g>
</g>
<!-- Node3&#45;&gt;Node5 -->
<g id="edge4" class="edge">
<title>Node3&#45;&gt;Node5</title>
<path fill="none" stroke="midnightblue" d="M325.79,-48.72C317.2,-47.37 308.47,-46.01 300.06,-44.69"/>
<polygon fill="midnightblue" stroke="midnightblue" points="325.36,-52.2 335.78,-50.29 326.45,-45.28 325.36,-52.2"/>
</g>
<!-- Node6 -->
<g id="node6" class="node">
<title>Node6</title>
<g id="a_node6"><a xlink:href="classcarta_1_1RegionHandler.html#a6bbb668cf434d85d9be739191dd15c19" target="_top" xlink:title=" ">
<polygon fill="none" stroke="black" points="0,-20.5 0,-50.5 145,-50.5 145,-20.5 0,-20.5"/>
<text text-anchor="start" x="8" y="-38.5" font-family="Helvetica,sans-Serif" font-size="10.00">carta::RegionHandler</text>
<text text-anchor="middle" x="72.5" y="-27.5" font-family="Helvetica,sans-Serif" font-size="10.00">::FillLineSpatialProfileData</text>
</a>
</g>
</g>
<!-- Node5&#45;&gt;Node6 -->
<g id="edge5" class="edge">
<title>Node5&#45;&gt;Node6</title>
<path fill="none" stroke="midnightblue" d="M170.79,-35.5C162.33,-35.5 153.67,-35.5 145.17,-35.5"/>
<polygon fill="midnightblue" stroke="midnightblue" points="170.97,-39 180.97,-35.5 170.97,-32 170.97,-39"/>
</g>
<!-- Node7&#45;&gt;Node3 -->
<g id="edge7" class="edge">
<title>Node7&#45;&gt;Node3</title>
<path fill="none" stroke="midnightblue" d="M504.93,-33C488.44,-37.02 471.1,-41.26 455.23,-45.14"/>
<polygon fill="midnightblue" stroke="midnightblue" points="506.17,-36.29 515.06,-30.52 504.51,-29.49 506.17,-36.29"/>
</g>
</g>
</svg>
