<?xml version="1.0" encoding="UTF-8" standalone="no"?>
<!DOCTYPE svg PUBLIC "-//W3C//DTD SVG 1.1//EN"
 "http://www.w3.org/Graphics/SVG/1.1/DTD/svg11.dtd">
<!-- Generated by graphviz version 2.43.0 (0)
 -->
<!-- Title: carta::Frame::FitImage Pages: 1 -->
<svg width="845pt" height="344pt"
 viewBox="0.00 0.00 845.00 344.00" xmlns="http://www.w3.org/2000/svg" xmlns:xlink="http://www.w3.org/1999/xlink">
<g id="graph0" class="graph" transform="scale(1 1) rotate(0) translate(4 340)">
<title>carta::Frame::FitImage</title>
<!-- Node1 -->
<g id="node1" class="node">
<title>Node1</title>
<g id="a_node1"><a xlink:title=" ">
<polygon fill="#bfbfbf" stroke="black" points="0,-202.5 0,-221.5 127,-221.5 127,-202.5 0,-202.5"/>
<text text-anchor="middle" x="63.5" y="-209.5" font-family="Helvetica,sans-Serif" font-size="10.00">carta::Frame::FitImage</text>
</a>
</g>
</g>
<!-- Node2 -->
<g id="node2" class="node">
<title>Node2</title>
<g id="a_node2"><a xlink:href="classcarta_1_1Frame.html#a30b016834ce04378ba3d0a34f373db3f" target="_top" xlink:title=" ">
<polygon fill="none" stroke="black" points="170,-316.5 170,-335.5 322,-335.5 322,-316.5 170,-316.5"/>
<text text-anchor="middle" x="246" y="-323.5" font-family="Helvetica,sans-Serif" font-size="10.00">carta::Frame::CurrentStokes</text>
</a>
</g>
</g>
<!-- Node1&#45;&gt;Node2 -->
<g id="edge1" class="edge">
<title>Node1&#45;&gt;Node2</title>
<path fill="none" stroke="midnightblue" d="M71.45,-221.55C86.08,-240.9 122.08,-284.78 163,-307 167.27,-309.32 171.81,-311.36 176.49,-313.15"/>
<polygon fill="midnightblue" stroke="midnightblue" points="175.63,-316.55 186.22,-316.48 177.9,-309.93 175.63,-316.55"/>
</g>
<!-- Node3 -->
<g id="node3" class="node">
<title>Node3</title>
<g id="a_node3"><a xlink:href="classcarta_1_1Frame.html#a1eda290558f3e9a6be5d4149c06e1b7b" target="_top" xlink:title=" ">
<polygon fill="none" stroke="black" points="182.5,-278.5 182.5,-297.5 309.5,-297.5 309.5,-278.5 182.5,-278.5"/>
<text text-anchor="middle" x="246" y="-285.5" font-family="Helvetica,sans-Serif" font-size="10.00">carta::Frame::CurrentZ</text>
</a>
</g>
</g>
<!-- Node1&#45;&gt;Node3 -->
<g id="edge2" class="edge">
<title>Node1&#45;&gt;Node3</title>
<path fill="none" stroke="midnightblue" d="M78.18,-221.69C96.62,-234.33 130.84,-256.3 163,-269 169.39,-271.52 176.2,-273.76 183.06,-275.73"/>
<polygon fill="midnightblue" stroke="midnightblue" points="182.54,-279.22 193.11,-278.44 184.36,-272.46 182.54,-279.22"/>
</g>
<!-- Node4 -->
<g id="node4" class="node">
<title>Node4</title>
<g id="a_node4"><a xlink:href="classcarta_1_1Frame.html#a6ad0a2d3fbde3a9f346684e5ce541da6" target="_top" xlink:title=" ">
<polygon fill="none" stroke="black" points="166.5,-76.5 166.5,-95.5 325.5,-95.5 325.5,-76.5 166.5,-76.5"/>
<text text-anchor="middle" x="246" y="-83.5" font-family="Helvetica,sans-Serif" font-size="10.00">carta::Frame::FillImageCache</text>
</a>
</g>
</g>
<!-- Node1&#45;&gt;Node4 -->
<g id="edge3" class="edge">
<title>Node1&#45;&gt;Node4</title>
<path fill="none" stroke="midnightblue" d="M78.36,-202.32C109.55,-180.56 185.41,-127.6 223.06,-101.32"/>
<polygon fill="midnightblue" stroke="midnightblue" points="225.14,-104.13 231.34,-95.54 221.13,-98.39 225.14,-104.13"/>
</g>
<!-- Node8 -->
<g id="node8" class="node">
<title>Node8</title>
<g id="a_node8"><a xlink:href="classcarta_1_1Frame.html#a5beb07be23479551f0b88982bf72c290" target="_top" xlink:title=" ">
<polygon fill="none" stroke="black" points="172,-38.5 172,-57.5 320,-57.5 320,-38.5 172,-38.5"/>
<text text-anchor="middle" x="246" y="-45.5" font-family="Helvetica,sans-Serif" font-size="10.00">carta::Frame::GetFileName</text>
</a>
</g>
</g>
<!-- Node1&#45;&gt;Node8 -->
<g id="edge7" class="edge">
<title>Node1&#45;&gt;Node8</title>
<path fill="none" stroke="midnightblue" d="M68.08,-202.39C78.4,-176.14 110.79,-102.79 163,-67 165.92,-65 169.02,-63.2 172.25,-61.6"/>
<polygon fill="midnightblue" stroke="midnightblue" points="173.82,-64.73 181.6,-57.55 171.04,-58.31 173.82,-64.73"/>
</g>
<!-- Node9 -->
<g id="node9" class="node">
<title>Node9</title>
<g id="a_node9"><a xlink:href="classcarta_1_1Frame.html#adf81c6e34d99da6b4238cde332b3c4cf" target="_top" xlink:title=" ">
<polygon fill="none" stroke="black" points="163,-202.5 163,-221.5 329,-221.5 329,-202.5 163,-202.5"/>
<text text-anchor="middle" x="246" y="-209.5" font-family="Helvetica,sans-Serif" font-size="10.00">carta::Frame::GetImageRegion</text>
</a>
</g>
</g>
<!-- Node1&#45;&gt;Node9 -->
<g id="edge8" class="edge">
<title>Node1&#45;&gt;Node9</title>
<path fill="none" stroke="midnightblue" d="M127.12,-212C135.39,-212 144.01,-212 152.64,-212"/>
<polygon fill="midnightblue" stroke="midnightblue" points="152.78,-215.5 162.78,-212 152.78,-208.5 152.78,-215.5"/>
</g>
<!-- Node15 -->
<g id="node15" class="node">
<title>Node15</title>
<g id="a_node15"><a xlink:href="classcarta_1_1Frame.html#abdae48af7ad841100f029acbc0734007" target="_top" xlink:title=" ">
<polygon fill="none" stroke="black" points="167,-158.5 167,-177.5 325,-177.5 325,-158.5 167,-158.5"/>
<text text-anchor="middle" x="246" y="-165.5" font-family="Helvetica,sans-Serif" font-size="10.00">carta::Frame::GetRegionData</text>
</a>
</g>
</g>
<!-- Node1&#45;&gt;Node15 -->
<g id="edge15" class="edge">
<title>Node1&#45;&gt;Node15</title>
<path fill="none" stroke="midnightblue" d="M103.67,-202.45C130.75,-195.85 166.98,-187.02 195.98,-179.95"/>
<polygon fill="midnightblue" stroke="midnightblue" points="197.02,-183.3 205.91,-177.53 195.37,-176.5 197.02,-183.3"/>
</g>
<!-- Node18 -->
<g id="node18" class="node">
<title>Node18</title>
<g id="a_node18"><a xlink:href="classcarta_1_1Frame.html#adf31710bdcc36207949ebc1e3517f363" target="_top" xlink:title=" ">
<polygon fill="none" stroke="black" points="163.5,-240.5 163.5,-259.5 328.5,-259.5 328.5,-240.5 163.5,-240.5"/>
<text text-anchor="middle" x="246" y="-247.5" font-family="Helvetica,sans-Serif" font-size="10.00">carta::Frame::GetRegionShape</text>
</a>
</g>
</g>
<!-- Node1&#45;&gt;Node18 -->
<g id="edge20" class="edge">
<title>Node1&#45;&gt;Node18</title>
<path fill="none" stroke="midnightblue" d="M110.05,-221.59C134.3,-226.69 164.3,-233.01 189.86,-238.39"/>
<polygon fill="midnightblue" stroke="midnightblue" points="189.27,-241.84 199.78,-240.48 190.72,-234.99 189.27,-241.84"/>
</g>
<!-- Node5 -->
<g id="node5" class="node">
<title>Node5</title>
<g id="a_node5"><a xlink:href="classcarta_1_1Timer.html#aad2702a80259920b910fb76642f97b88" target="_top" xlink:title=" ">
<polygon fill="none" stroke="black" points="384.5,-76.5 384.5,-95.5 504.5,-95.5 504.5,-76.5 384.5,-76.5"/>
<text text-anchor="middle" x="444.5" y="-83.5" font-family="Helvetica,sans-Serif" font-size="10.00">carta::Timer::Elapsed</text>
</a>
</g>
</g>
<!-- Node4&#45;&gt;Node5 -->
<g id="edge4" class="edge">
<title>Node4&#45;&gt;Node5</title>
<path fill="none" stroke="midnightblue" d="M325.51,-86C341.64,-86 358.52,-86 374.3,-86"/>
<polygon fill="midnightblue" stroke="midnightblue" points="374.49,-89.5 384.49,-86 374.49,-82.5 374.49,-89.5"/>
</g>
<!-- Node6 -->
<g id="node6" class="node">
<title>Node6</title>
<g id="a_node6"><a xlink:href="classcarta_1_1Frame.html#a9e748d02f7394ed01b69276b61a79825" target="_top" xlink:title=" ">
<polygon fill="none" stroke="black" points="365,-38.5 365,-57.5 524,-57.5 524,-38.5 365,-38.5"/>
<text text-anchor="middle" x="444.5" y="-45.5" font-family="Helvetica,sans-Serif" font-size="10.00">carta::Frame::GetImageSlicer</text>
</a>
</g>
</g>
<!-- Node4&#45;&gt;Node6 -->
<g id="edge5" class="edge">
<title>Node4&#45;&gt;Node6</title>
<path fill="none" stroke="midnightblue" d="M296.33,-76.46C322.96,-71.31 356.03,-64.92 384.07,-59.49"/>
<polygon fill="midnightblue" stroke="midnightblue" points="384.99,-62.88 394.15,-57.54 383.67,-56.01 384.99,-62.88"/>
</g>
<!-- Node7 -->
<g id="node7" class="node">
<title>Node7</title>
<g id="a_node7"><a xlink:href="classcarta_1_1Frame.html#a79c789ebc62771151da94673a325a31a" target="_top" xlink:title=" ">
<polygon fill="none" stroke="black" points="368.5,-0.5 368.5,-19.5 520.5,-19.5 520.5,-0.5 368.5,-0.5"/>
<text text-anchor="middle" x="444.5" y="-7.5" font-family="Helvetica,sans-Serif" font-size="10.00">carta::Frame::GetSlicerData</text>
</a>
</g>
</g>
<!-- Node4&#45;&gt;Node7 -->
<g id="edge6" class="edge">
<title>Node4&#45;&gt;Node7</title>
<path fill="none" stroke="midnightblue" d="M307.23,-76.37C314.83,-73.92 322.28,-70.85 329,-67 349.19,-55.44 344.87,-40.66 365,-29 368.86,-26.77 372.97,-24.79 377.21,-23.05"/>
<polygon fill="midnightblue" stroke="midnightblue" points="378.47,-26.32 386.66,-19.6 376.06,-19.75 378.47,-26.32"/>
</g>
<!-- Node10 -->
<g id="node10" class="node">
<title>Node10</title>
<g id="a_node10"><a xlink:href="classcarta_1_1Frame.html#ac2682be139a17f645032107d7170d4c4" target="_top" xlink:title=" ">
<polygon fill="none" stroke="black" points="376,-279 376,-309 513,-309 513,-279 376,-279"/>
<text text-anchor="start" x="384" y="-297" font-family="Helvetica,sans-Serif" font-size="10.00">carta::Frame::Coordinate</text>
<text text-anchor="middle" x="444.5" y="-286" font-family="Helvetica,sans-Serif" font-size="10.00">System</text>
</a>
</g>
</g>
<!-- Node9&#45;&gt;Node10 -->
<g id="edge9" class="edge">
<title>Node9&#45;&gt;Node10</title>
<path fill="none" stroke="midnightblue" d="M307.23,-221.63C314.83,-224.08 322.28,-227.15 329,-231 349.19,-242.56 345.29,-256.64 365,-269 368.31,-271.08 371.81,-273 375.42,-274.77"/>
<polygon fill="midnightblue" stroke="midnightblue" points="374.02,-277.98 384.58,-278.87 376.89,-271.59 374.02,-277.98"/>
</g>
<!-- Node12 -->
<g id="node12" class="node">
<title>Node12</title>
<g id="a_node12"><a xlink:href="classcarta_1_1Frame.html#aeff1a00d7f22df6f180888b1d9eaf457" target="_top" xlink:title=" ">
<polygon fill="none" stroke="black" points="372,-240.5 372,-259.5 517,-259.5 517,-240.5 372,-240.5"/>
<text text-anchor="middle" x="444.5" y="-247.5" font-family="Helvetica,sans-Serif" font-size="10.00">carta::Frame::ImageShape</text>
</a>
</g>
</g>
<!-- Node9&#45;&gt;Node12 -->
<g id="edge11" class="edge">
<title>Node9&#45;&gt;Node12</title>
<path fill="none" stroke="midnightblue" d="M296.33,-221.54C322.96,-226.69 356.03,-233.08 384.07,-238.51"/>
<polygon fill="midnightblue" stroke="midnightblue" points="383.67,-241.99 394.15,-240.46 384.99,-235.12 383.67,-241.99"/>
</g>
<!-- Node11 -->
<g id="node11" class="node">
<title>Node11</title>
<g id="a_node11"><a xlink:href="classcarta_1_1Frame.html#a8075c3310541d8a14cdc9dc8fc37b117" target="_top" xlink:title=" ">
<polygon fill="none" stroke="black" points="569,-274.5 569,-293.5 685,-293.5 685,-274.5 569,-274.5"/>
<text text-anchor="middle" x="627" y="-281.5" font-family="Helvetica,sans-Serif" font-size="10.00">carta::Frame::IsValid</text>
</a>
</g>
</g>
<!-- Node10&#45;&gt;Node11 -->
<g id="edge10" class="edge">
<title>Node10&#45;&gt;Node11</title>
<path fill="none" stroke="midnightblue" d="M513.23,-290.25C528.1,-289.42 543.84,-288.55 558.7,-287.73"/>
<polygon fill="midnightblue" stroke="midnightblue" points="559.03,-291.22 568.82,-287.17 558.65,-284.23 559.03,-291.22"/>
</g>
<!-- Node12&#45;&gt;Node11 -->
<g id="edge14" class="edge">
<title>Node12&#45;&gt;Node11</title>
<path fill="none" stroke="midnightblue" d="M496.26,-259.56C517.69,-263.6 542.82,-268.33 565.23,-272.55"/>
<polygon fill="midnightblue" stroke="midnightblue" points="564.83,-276.04 575.31,-274.45 566.13,-269.16 564.83,-276.04"/>
</g>
<!-- Node13 -->
<g id="node13" class="node">
<title>Node13</title>
<g id="a_node13"><a xlink:href="structStokesSource.html#a7651d6cbedb427f5c00925c5111feac8" target="_top" xlink:title=" ">
<polygon fill="none" stroke="black" points="560,-216 560,-246 694,-246 694,-216 560,-216"/>
<text text-anchor="start" x="568" y="-234" font-family="Helvetica,sans-Serif" font-size="10.00">StokesSource::IsOriginal</text>
<text text-anchor="middle" x="627" y="-223" font-family="Helvetica,sans-Serif" font-size="10.00">Image</text>
</a>
</g>
</g>
<!-- Node12&#45;&gt;Node13 -->
<g id="edge12" class="edge">
<title>Node12&#45;&gt;Node13</title>
<path fill="none" stroke="midnightblue" d="M517.1,-242.46C527.76,-241.34 538.79,-240.18 549.56,-239.05"/>
<polygon fill="midnightblue" stroke="midnightblue" points="550.19,-242.5 559.77,-237.97 549.46,-235.54 550.19,-242.5"/>
</g>
<!-- Node14 -->
<g id="node14" class="node">
<title>Node14</title>
<g id="a_node14"><a xlink:href="Stokes_8h.html#a30da07ffd67ed06c1e15e2da4d915e0c" target="_top" xlink:title=" ">
<polygon fill="none" stroke="black" points="730,-221.5 730,-240.5 837,-240.5 837,-221.5 730,-221.5"/>
<text text-anchor="middle" x="783.5" y="-228.5" font-family="Helvetica,sans-Serif" font-size="10.00">IsComputedStokes</text>
</a>
</g>
</g>
<!-- Node13&#45;&gt;Node14 -->
<g id="edge13" class="edge">
<title>Node13&#45;&gt;Node14</title>
<path fill="none" stroke="midnightblue" d="M694.42,-231C702.79,-231 711.34,-231 719.65,-231"/>
<polygon fill="midnightblue" stroke="midnightblue" points="719.65,-234.5 729.65,-231 719.65,-227.5 719.65,-234.5"/>
</g>
<!-- Node15&#45;&gt;Node5 -->
<g id="edge16" class="edge">
<title>Node15&#45;&gt;Node5</title>
<path fill="none" stroke="midnightblue" d="M262.06,-158.35C283.94,-144.7 326.15,-119.8 365,-105 371.67,-102.46 378.78,-100.18 385.91,-98.16"/>
<polygon fill="midnightblue" stroke="midnightblue" points="386.84,-101.53 395.59,-95.55 385.02,-94.77 386.84,-101.53"/>
</g>
<!-- Node15&#45;&gt;Node13 -->
<g id="edge18" class="edge">
<title>Node15&#45;&gt;Node13</title>
<path fill="none" stroke="midnightblue" d="M291.16,-177.55C313.28,-182.19 340.5,-187.68 365,-192 426.97,-202.92 497.57,-213.35 549.7,-220.67"/>
<polygon fill="midnightblue" stroke="midnightblue" points="549.49,-224.18 559.88,-222.09 550.46,-217.24 549.49,-224.18"/>
</g>
<!-- Node16 -->
<g id="node16" class="node">
<title>Node16</title>
<g id="a_node16"><a xlink:href="classcarta_1_1Frame.html#ac7f0c67f2a09b79662fea052e406895b" target="_top" xlink:title=" ">
<polygon fill="none" stroke="black" points="368,-153 368,-183 521,-183 521,-153 368,-153"/>
<text text-anchor="start" x="376" y="-171" font-family="Helvetica,sans-Serif" font-size="10.00">carta::Frame::GetRegionSub</text>
<text text-anchor="middle" x="444.5" y="-160" font-family="Helvetica,sans-Serif" font-size="10.00">Image</text>
</a>
</g>
</g>
<!-- Node15&#45;&gt;Node16 -->
<g id="edge17" class="edge">
<title>Node15&#45;&gt;Node16</title>
<path fill="none" stroke="midnightblue" d="M325.23,-168C335.85,-168 346.8,-168 357.55,-168"/>
<polygon fill="midnightblue" stroke="midnightblue" points="357.78,-171.5 367.78,-168 357.78,-164.5 357.78,-171.5"/>
</g>
<!-- Node17 -->
<g id="node17" class="node">
<title>Node17</title>
<g id="a_node17"><a xlink:href="structcarta_1_1TimeDelta.html#a90b2dc0a7d70b0aa6f668f4bbad7fa58" target="_top" xlink:title=" ">
<polygon fill="none" stroke="black" points="385,-114.5 385,-133.5 504,-133.5 504,-114.5 385,-114.5"/>
<text text-anchor="middle" x="444.5" y="-121.5" font-family="Helvetica,sans-Serif" font-size="10.00">carta::TimeDelta::ms</text>
</a>
</g>
</g>
<!-- Node15&#45;&gt;Node17 -->
<g id="edge19" class="edge">
<title>Node15&#45;&gt;Node17</title>
<path fill="none" stroke="midnightblue" d="M289.64,-158.45C319.38,-151.79 359.26,-142.86 390.96,-135.76"/>
<polygon fill="midnightblue" stroke="midnightblue" points="391.95,-139.13 400.95,-133.53 390.42,-132.3 391.95,-139.13"/>
</g>
<!-- Node18&#45;&gt;Node10 -->
<g id="edge21" class="edge">
<title>Node18&#45;&gt;Node10</title>
<path fill="none" stroke="midnightblue" d="M289.64,-259.55C312.06,-264.57 340.24,-270.88 366.34,-276.72"/>
<polygon fill="midnightblue" stroke="midnightblue" points="365.7,-280.16 376.22,-278.93 367.23,-273.33 365.7,-280.16"/>
</g>
<!-- Node18&#45;&gt;Node12 -->
<g id="edge22" class="edge">
<title>Node18&#45;&gt;Node12</title>
<path fill="none" stroke="midnightblue" d="M328.63,-250C339.49,-250 350.64,-250 361.51,-250"/>
<polygon fill="midnightblue" stroke="midnightblue" points="361.84,-253.5 371.84,-250 361.84,-246.5 361.84,-253.5"/>
</g>
</g>
</svg>
