<?xml version="1.0" encoding="UTF-8" standalone="no"?>
<!DOCTYPE svg PUBLIC "-//W3C//DTD SVG 1.1//EN"
 "http://www.w3.org/Graphics/SVG/1.1/DTD/svg11.dtd">
<!-- Generated by graphviz version 2.43.0 (0)
 -->
<!-- Title: carta::RegionConverter::GetLineRecord Pages: 1 -->
<svg width="483pt" height="134pt"
 viewBox="0.00 0.00 483.00 134.00" xmlns="http://www.w3.org/2000/svg" xmlns:xlink="http://www.w3.org/1999/xlink">

<svg id="main" version="1.1" xmlns="http://www.w3.org/2000/svg" xmlns:xlink="http://www.w3.org/1999/xlink" xml:space="preserve" onload="init(evt)">
<style type="text/css"><![CDATA[
.node, .edge {opacity: 0.7;}
.node.selected, .edge.selected {opacity: 1;}
.edge:hover path { stroke: red; }
.edge:hover polygon { stroke: red; fill: red; }
]]></style>
<script type="application/ecmascript" xlink:href="svg.min.js"/>
<svg id="graph" class="graph">
<g id="graph0" class="graph" transform="scale(1 1) rotate(0) translate(4 130)">
<title>carta::RegionConverter::GetLineRecord</title>
<!-- Node1 -->
<g id="Node000001" class="node">
<title>Node1</title>
<g id="a_Node000001"><a xlink:title=" ">
<polygon fill="#999999" stroke="#666666" points="129,-102 0,-102 0,-72 129,-72 129,-102"/>
<text text-anchor="start" x="8" y="-90" font-family="Helvetica,sans-Serif" font-size="10.00">carta::RegionConverter</text>
<text text-anchor="middle" x="64.5" y="-79" font-family="Helvetica,sans-Serif" font-size="10.00">::GetLineRecord</text>
</a>
</g>
</g>
<!-- Node2 -->
<g id="Node000002" class="node">
<title>Node2</title>
<g id="a_Node000002"><a xlink:href="structcarta_1_1RegionState.html#a66bbe95b7834f84fc0e106412708b929" target="_top" xlink:title=" ">
<polygon fill="white" stroke="#666666" points="291,-126 168,-126 168,-96 291,-96 291,-126"/>
<text text-anchor="start" x="176" y="-114" font-family="Helvetica,sans-Serif" font-size="10.00">carta::RegionState</text>
<text text-anchor="middle" x="229.5" y="-103" font-family="Helvetica,sans-Serif" font-size="10.00">::GetLineRegionName</text>
</a>
</g>
</g>
<!-- Node1&#45;&gt;Node2 -->
<g id="edge1_Node000001_Node000002" class="edge">
<title>Node1&#45;&gt;Node2</title>
<g id="a_edge1_Node000001_Node000002"><a xlink:title=" ">
<path fill="none" stroke="#63b8ff" d="M129.45,-96.42C138.75,-97.79 148.38,-99.2 157.8,-100.59"/>
<polygon fill="#63b8ff" stroke="#63b8ff" points="157.52,-104.09 167.93,-102.08 158.54,-97.16 157.52,-104.09"/>
</a>
</g>
</g>
<!-- Node4 -->
<g id="Node000004" class="node">
<title>Node4</title>
<g id="a_Node000004"><a xlink:href="classcarta_1_1RegionConverter.html#ad09346a7964a687c402f4ef8c29173f6" target="_top" xlink:title=" ">
<polygon fill="white" stroke="#666666" points="294,-78 165,-78 165,-48 294,-48 294,-78"/>
<text text-anchor="start" x="173" y="-66" font-family="Helvetica,sans-Serif" font-size="10.00">carta::RegionConverter</text>
<text text-anchor="middle" x="229.5" y="-55" font-family="Helvetica,sans-Serif" font-size="10.00">::PointsToImagePixels</text>
</a>
</g>
</g>
<!-- Node1&#45;&gt;Node4 -->
<g id="edge3_Node000001_Node000004" class="edge">
<title>Node1&#45;&gt;Node4</title>
<g id="a_edge3_Node000001_Node000004"><a xlink:title=" ">
<path fill="none" stroke="#63b8ff" d="M129.45,-77.58C137.85,-76.35 146.51,-75.07 155.05,-73.81"/>
<polygon fill="#63b8ff" stroke="#63b8ff" points="155.61,-77.27 165,-72.35 154.59,-70.34 155.61,-77.27"/>
</a>
</g>
</g>
<!-- Node3 -->
<g id="Node000003" class="node">
<title>Node3</title>
<g id="a_Node000003"><a xlink:href="structcarta_1_1RegionState.html#a7139199adedd4b7c475aaa66cab8b541" target="_top" xlink:title=" ">
<polygon fill="white" stroke="#666666" points="456,-126 349,-126 349,-96 456,-96 456,-126"/>
<text text-anchor="start" x="357" y="-114" font-family="Helvetica,sans-Serif" font-size="10.00">carta::RegionState</text>
<text text-anchor="middle" x="402.5" y="-103" font-family="Helvetica,sans-Serif" font-size="10.00">::IsLineType</text>
</a>
</g>
</g>
<!-- Node2&#45;&gt;Node3 -->
<g id="edge2_Node000002_Node000003" class="edge">
<title>Node2&#45;&gt;Node3</title>
<g id="a_edge2_Node000002_Node000003"><a xlink:title=" ">
<path fill="none" stroke="#63b8ff" d="M291.27,-111C306.7,-111 323.32,-111 338.84,-111"/>
<polygon fill="#63b8ff" stroke="#63b8ff" points="338.86,-114.5 348.86,-111 338.86,-107.5 338.86,-114.5"/>
</a>
</g>
</g>
<!-- Node5 -->
<g id="Node000005" class="node">
<title>Node5</title>
<g id="a_Node000005"><a xlink:href="classcarta_1_1RegionConverter.html#a0f6aea4795947be463dd9cf3e8be4561" target="_top" xlink:title=" ">
<polygon fill="white" stroke="#666666" points="467,-78 338,-78 338,-48 467,-48 467,-78"/>
<text text-anchor="start" x="346" y="-66" font-family="Helvetica,sans-Serif" font-size="10.00">carta::RegionConverter</text>
<text text-anchor="middle" x="402.5" y="-55" font-family="Helvetica,sans-Serif" font-size="10.00">::CartaPointToWorld</text>
</a>
</g>
</g>
<!-- Node4&#45;&gt;Node5 -->
<g id="edge4_Node000004_Node000005" class="edge">
<title>Node4&#45;&gt;Node5</title>
<g id="a_edge4_Node000004_Node000005"><a xlink:title=" ">
<path fill="none" stroke="#63b8ff" d="M294.17,-63C305.08,-63 316.49,-63 327.64,-63"/>
<polygon fill="#63b8ff" stroke="#63b8ff" points="327.77,-66.5 337.77,-63 327.77,-59.5 327.77,-66.5"/>
</a>
</g>
</g>
<!-- Node6 -->
<g id="Node000006" class="node">
<title>Node6</title>
<g id="a_Node000006"><a xlink:href="classcarta_1_1RegionConverter.html#ac39257df92defdcc7bbd460d724da66e" target="_top" xlink:title=" ">
<polygon fill="white" stroke="#666666" points="475,-30 330,-30 330,0 475,0 475,-30"/>
<text text-anchor="start" x="338" y="-18" font-family="Helvetica,sans-Serif" font-size="10.00">carta::RegionConverter</text>
<text text-anchor="middle" x="402.5" y="-7" font-family="Helvetica,sans-Serif" font-size="10.00">::WorldPointToImagePixels</text>
</a>
</g>
</g>
<!-- Node4&#45;&gt;Node6 -->
<g id="edge5_Node000004_Node000006" class="edge">
<title>Node4&#45;&gt;Node6</title>
<g id="a_edge5_Node000004_Node000006"><a xlink:title=" ">
<path fill="none" stroke="#63b8ff" d="M284.14,-47.94C301.33,-43.12 320.52,-37.73 338.33,-32.73"/>
<polygon fill="#63b8ff" stroke="#63b8ff" points="339.37,-36.07 348.05,-30 337.48,-29.34 339.37,-36.07"/>
</a>
</g>
</g>
</g>
</svg>
</svg>

<style type='text/css'>
<![CDATA[
[data-mouse-over-selected='false'] { opacity: 0.7; }
[data-mouse-over-selected='true']  { opacity: 1.0; }
]]>
</style>
<script type="application/ecmascript"><![CDATA[
document.addEventListener('DOMContentLoaded', (event) => {
  highlightEdges();
  highlightAdjacentNodes();
});
]]></script>
</svg>
