<?xml version="1.0" encoding="UTF-8" standalone="no"?>
<!DOCTYPE svg PUBLIC "-//W3C//DTD SVG 1.1//EN"
 "http://www.w3.org/Graphics/SVG/1.1/DTD/svg11.dtd">
<!-- Generated by graphviz version 2.43.0 (0)
 -->
<!-- Title: carta::Region::ValuesNear Pages: 1 -->
<svg width="747pt" height="39pt"
 viewBox="0.00 0.00 747.00 39.00" xmlns="http://www.w3.org/2000/svg" xmlns:xlink="http://www.w3.org/1999/xlink">
<g id="graph0" class="graph" transform="scale(1 1) rotate(0) translate(4 35)">
<title>carta::Region::ValuesNear</title>
<!-- Node1 -->
<g id="node1" class="node">
<title>Node1</title>
<g id="a_node1"><a xlink:title=" ">
<polygon fill="#bfbfbf" stroke="black" points="596,-6 596,-25 739,-25 739,-6 596,-6"/>
<text text-anchor="middle" x="667.5" y="-13" font-family="Helvetica,sans-Serif" font-size="10.00">carta::Region::ValuesNear</text>
</a>
</g>
</g>
<!-- Node2 -->
<g id="node2" class="node">
<title>Node2</title>
<g id="a_node2"><a xlink:href="classcarta_1_1Region.html#a3c14912d6078bd2e81307f21d8aadae4" target="_top" xlink:title=" ">
<polygon fill="none" stroke="black" points="382,-0.5 382,-30.5 560,-30.5 560,-0.5 382,-0.5"/>
<text text-anchor="start" x="390" y="-18.5" font-family="Helvetica,sans-Serif" font-size="10.00">carta::Region::RemoveHorizontal</text>
<text text-anchor="middle" x="471" y="-7.5" font-family="Helvetica,sans-Serif" font-size="10.00">PolygonPoints</text>
</a>
</g>
</g>
<!-- Node1&#45;&gt;Node2 -->
<g id="edge1" class="edge">
<title>Node1&#45;&gt;Node2</title>
<path fill="none" stroke="midnightblue" d="M585.63,-15.5C577.27,-15.5 568.74,-15.5 560.3,-15.5"/>
<polygon fill="midnightblue" stroke="midnightblue" points="585.73,-19 595.73,-15.5 585.73,-12 585.73,-19"/>
</g>
<!-- Node3 -->
<g id="node3" class="node">
<title>Node3</title>
<g id="a_node3"><a xlink:href="classcarta_1_1Region.html#ac4d35d2ebd7a1bc9365a5c75b6758d50" target="_top" xlink:title=" ">
<polygon fill="none" stroke="black" points="205,-0.5 205,-30.5 346,-30.5 346,-0.5 205,-0.5"/>
<text text-anchor="start" x="213" y="-18.5" font-family="Helvetica,sans-Serif" font-size="10.00">carta::Region::GetApplied</text>
<text text-anchor="middle" x="275.5" y="-7.5" font-family="Helvetica,sans-Serif" font-size="10.00">PolygonRegion</text>
</a>
</g>
</g>
<!-- Node2&#45;&gt;Node3 -->
<g id="edge2" class="edge">
<title>Node2&#45;&gt;Node3</title>
<path fill="none" stroke="midnightblue" d="M371.63,-15.5C363,-15.5 354.39,-15.5 346.08,-15.5"/>
<polygon fill="midnightblue" stroke="midnightblue" points="371.74,-19 381.74,-15.5 371.74,-12 371.74,-19"/>
</g>
<!-- Node4 -->
<g id="node4" class="node">
<title>Node4</title>
<g id="a_node4"><a xlink:href="classcarta_1_1Region.html#a9ec0878ba3ff01974517769cbed3b352" target="_top" xlink:title=" ">
<polygon fill="none" stroke="black" points="0,-6 0,-25 169,-25 169,-6 0,-6"/>
<text text-anchor="middle" x="84.5" y="-13" font-family="Helvetica,sans-Serif" font-size="10.00">carta::Region::GetImageRegion</text>
</a>
</g>
</g>
<!-- Node3&#45;&gt;Node4 -->
<g id="edge3" class="edge">
<title>Node3&#45;&gt;Node4</title>
<path fill="none" stroke="midnightblue" d="M194.68,-15.5C186.19,-15.5 177.55,-15.5 169.02,-15.5"/>
<polygon fill="midnightblue" stroke="midnightblue" points="194.93,-19 204.93,-15.5 194.93,-12 194.93,-19"/>
</g>
</g>
</svg>
