<?xml version="1.0" encoding="UTF-8" standalone="no"?>
<!DOCTYPE svg PUBLIC "-//W3C//DTD SVG 1.1//EN"
 "http://www.w3.org/Graphics/SVG/1.1/DTD/svg11.dtd">
<!-- Generated by graphviz version 2.43.0 (0)
 -->
<!-- Title: carta::Frame::GetActiveTaskMutex Pages: 1 -->
<svg width="571pt" height="176pt"
 viewBox="0.00 0.00 571.00 175.50" xmlns="http://www.w3.org/2000/svg" xmlns:xlink="http://www.w3.org/1999/xlink">
<g id="graph0" class="graph" transform="scale(1 1) rotate(0) translate(4 171.5)">
<title>carta::Frame::GetActiveTaskMutex</title>
<!-- Node1 -->
<g id="node1" class="node">
<title>Node1</title>
<g id="a_node1"><a xlink:title=" ">
<polygon fill="#bfbfbf" stroke="black" points="409,-73.5 409,-103.5 563,-103.5 563,-73.5 409,-73.5"/>
<text text-anchor="start" x="417" y="-91.5" font-family="Helvetica,sans-Serif" font-size="10.00">carta::Frame::GetActiveTask</text>
<text text-anchor="middle" x="486" y="-80.5" font-family="Helvetica,sans-Serif" font-size="10.00">Mutex</text>
</a>
</g>
</g>
<!-- Node2 -->
<g id="node2" class="node">
<title>Node2</title>
<g id="a_node2"><a xlink:href="classcarta_1_1Frame.html#a141a8029b71bbbb13ee36461d73fdcf8" target="_top" xlink:title=" ">
<polygon fill="none" stroke="black" points="197,-148 197,-167 373,-167 373,-148 197,-148"/>
<text text-anchor="middle" x="285" y="-155" font-family="Helvetica,sans-Serif" font-size="10.00">carta::Frame::CalculateMoments</text>
</a>
</g>
</g>
<!-- Node1&#45;&gt;Node2 -->
<g id="edge1" class="edge">
<title>Node1&#45;&gt;Node2</title>
<path fill="none" stroke="midnightblue" d="M446.67,-107.96C425.39,-118.16 398.2,-130.22 373,-138.5 361.84,-142.17 349.63,-145.33 337.99,-147.97"/>
<polygon fill="midnightblue" stroke="midnightblue" points="448.24,-111.09 455.71,-103.57 445.18,-104.79 448.24,-111.09"/>
</g>
<!-- Node3 -->
<g id="node3" class="node">
<title>Node3</title>
<g id="a_node3"><a xlink:href="classcarta_1_1Frame.html#aa0556decdd99bffc1dd869599f4db918" target="_top" xlink:title=" ">
<polygon fill="none" stroke="black" points="209,-98.5 209,-128.5 361,-128.5 361,-98.5 209,-98.5"/>
<text text-anchor="start" x="217" y="-116.5" font-family="Helvetica,sans-Serif" font-size="10.00">carta::Frame::DoVectorField</text>
<text text-anchor="middle" x="285" y="-105.5" font-family="Helvetica,sans-Serif" font-size="10.00">Calculation</text>
</a>
</g>
</g>
<!-- Node1&#45;&gt;Node3 -->
<g id="edge2" class="edge">
<title>Node1&#45;&gt;Node3</title>
<path fill="none" stroke="midnightblue" d="M398.89,-99.32C386.3,-100.9 373.41,-102.52 361.06,-104.07"/>
<polygon fill="midnightblue" stroke="midnightblue" points="399.43,-102.78 408.91,-98.06 398.56,-95.83 399.43,-102.78"/>
</g>
<!-- Node5 -->
<g id="node5" class="node">
<title>Node5</title>
<g id="a_node5"><a xlink:href="classcarta_1_1Frame.html#ad1fb3b57f336f8f186fe08eca46b0101" target="_top" xlink:title=" ">
<polygon fill="none" stroke="black" points="216,-49.5 216,-79.5 354,-79.5 354,-49.5 216,-49.5"/>
<text text-anchor="start" x="224" y="-67.5" font-family="Helvetica,sans-Serif" font-size="10.00">carta::Frame::FillSpectral</text>
<text text-anchor="middle" x="285" y="-56.5" font-family="Helvetica,sans-Serif" font-size="10.00">ProfileData</text>
</a>
</g>
</g>
<!-- Node1&#45;&gt;Node5 -->
<g id="edge4" class="edge">
<title>Node1&#45;&gt;Node5</title>
<path fill="none" stroke="midnightblue" d="M398.7,-78.09C383.82,-76.3 368.54,-74.45 354.22,-72.73"/>
<polygon fill="midnightblue" stroke="midnightblue" points="398.57,-81.6 408.91,-79.32 399.41,-74.65 398.57,-81.6"/>
</g>
<!-- Node6 -->
<g id="node6" class="node">
<title>Node6</title>
<g id="a_node6"><a xlink:href="classcarta_1_1Frame.html#a3e6e012a72b5c2315d4e61a91d977b31" target="_top" xlink:title=" ">
<polygon fill="none" stroke="black" points="213.5,-0.5 213.5,-30.5 356.5,-30.5 356.5,-0.5 213.5,-0.5"/>
<text text-anchor="start" x="221.5" y="-18.5" font-family="Helvetica,sans-Serif" font-size="10.00">carta::Frame::WaitForTask</text>
<text text-anchor="middle" x="285" y="-7.5" font-family="Helvetica,sans-Serif" font-size="10.00">Cancellation</text>
</a>
</g>
</g>
<!-- Node1&#45;&gt;Node6 -->
<g id="edge5" class="edge">
<title>Node1&#45;&gt;Node6</title>
<path fill="none" stroke="midnightblue" d="M443.37,-69.19C422.5,-59.88 396.67,-48.94 373,-40.5 363.23,-37.02 352.71,-33.67 342.49,-30.62"/>
<polygon fill="midnightblue" stroke="midnightblue" points="442.04,-72.42 452.59,-73.33 444.91,-66.04 442.04,-72.42"/>
</g>
<!-- Node4 -->
<g id="node4" class="node">
<title>Node4</title>
<g id="a_node4"><a xlink:href="classcarta_1_1Frame.html#ae3ee51cc1bda05842764364c3f49db45" target="_top" xlink:title=" ">
<polygon fill="none" stroke="black" points="0,-98.5 0,-128.5 161,-128.5 161,-98.5 0,-98.5"/>
<text text-anchor="start" x="8" y="-116.5" font-family="Helvetica,sans-Serif" font-size="10.00">carta::Frame::CalculateVector</text>
<text text-anchor="middle" x="80.5" y="-105.5" font-family="Helvetica,sans-Serif" font-size="10.00">Field</text>
</a>
</g>
</g>
<!-- Node3&#45;&gt;Node4 -->
<g id="edge3" class="edge">
<title>Node3&#45;&gt;Node4</title>
<path fill="none" stroke="midnightblue" d="M198.58,-113.5C186.2,-113.5 173.51,-113.5 161.25,-113.5"/>
<polygon fill="midnightblue" stroke="midnightblue" points="198.88,-117 208.88,-113.5 198.88,-110 198.88,-117"/>
</g>
</g>
</svg>
