<?xml version="1.0" encoding="UTF-8" standalone="no"?>
<!DOCTYPE svg PUBLIC "-//W3C//DTD SVG 1.1//EN"
 "http://www.w3.org/Graphics/SVG/1.1/DTD/svg11.dtd">
<!-- Generated by graphviz version 2.43.0 (0)
 -->
<!-- Title: carta::OnMessageTask::~OnMessageTask Pages: 1 -->
<svg width="307pt" height="78pt"
 viewBox="0.00 0.00 307.00 77.50" xmlns="http://www.w3.org/2000/svg" xmlns:xlink="http://www.w3.org/1999/xlink">
<g id="graph0" class="graph" transform="scale(1 1) rotate(0) translate(4 73.5)">
<title>carta::OnMessageTask::~OnMessageTask</title>
<!-- Node1 -->
<g id="node1" class="node">
<title>Node1</title>
<g id="a_node1"><a xlink:title=" ">
<polygon fill="#bfbfbf" stroke="black" points="0,-17 0,-47 126,-47 126,-17 0,-17"/>
<text text-anchor="start" x="8" y="-35" font-family="Helvetica,sans-Serif" font-size="10.00">carta::OnMessageTask</text>
<text text-anchor="middle" x="63" y="-24" font-family="Helvetica,sans-Serif" font-size="10.00">::~OnMessageTask</text>
</a>
</g>
</g>
<!-- Node2 -->
<g id="node2" class="node">
<title>Node2</title>
<g id="a_node2"><a xlink:href="classcarta_1_1Session.html#a8e85b273c852b8da7eff9b48251276db" target="_top" xlink:title=" ">
<polygon fill="none" stroke="black" points="162,-39 162,-69 299,-69 299,-39 162,-39"/>
<text text-anchor="start" x="170" y="-57" font-family="Helvetica,sans-Serif" font-size="10.00">carta::Session::Decrease</text>
<text text-anchor="middle" x="230.5" y="-46" font-family="Helvetica,sans-Serif" font-size="10.00">RefCount</text>
</a>
</g>
</g>
<!-- Node1&#45;&gt;Node2 -->
<g id="edge1" class="edge">
<title>Node1&#45;&gt;Node2</title>
<path fill="none" stroke="midnightblue" d="M126.1,-40.25C134.47,-41.37 143.14,-42.52 151.74,-43.66"/>
<polygon fill="midnightblue" stroke="midnightblue" points="151.41,-47.15 161.79,-45 152.34,-40.21 151.41,-47.15"/>
</g>
<!-- Node3 -->
<g id="node3" class="node">
<title>Node3</title>
<g id="a_node3"><a xlink:href="classcarta_1_1Session.html#af5809caae2e483a5506e9cf98132dc27" target="_top" xlink:title=" ">
<polygon fill="none" stroke="black" points="172,-0.5 172,-19.5 289,-19.5 289,-0.5 172,-0.5"/>
<text text-anchor="middle" x="230.5" y="-7.5" font-family="Helvetica,sans-Serif" font-size="10.00">carta::Session::GetId</text>
</a>
</g>
</g>
<!-- Node1&#45;&gt;Node3 -->
<g id="edge2" class="edge">
<title>Node1&#45;&gt;Node3</title>
<path fill="none" stroke="midnightblue" d="M126.1,-23.75C137.73,-22.2 149.95,-20.57 161.74,-19.01"/>
<polygon fill="midnightblue" stroke="midnightblue" points="162.52,-22.43 171.98,-17.65 161.6,-15.5 162.52,-22.43"/>
</g>
</g>
</svg>
