<?xml version="1.0" encoding="UTF-8" standalone="no"?>
<!DOCTYPE svg PUBLIC "-//W3C//DTD SVG 1.1//EN"
 "http://www.w3.org/Graphics/SVG/1.1/DTD/svg11.dtd">
<!-- Generated by graphviz version 2.43.0 (0)
 -->
<!-- Title: carta::Ds9ImportExport::ImportStyleParameters Pages: 1 -->
<svg width="811pt" height="127pt"
 viewBox="0.00 0.00 811.00 127.00" xmlns="http://www.w3.org/2000/svg" xmlns:xlink="http://www.w3.org/1999/xlink">
<g id="graph0" class="graph" transform="scale(1 1) rotate(0) translate(4 123)">
<title>carta::Ds9ImportExport::ImportStyleParameters</title>
<!-- Node1 -->
<g id="node1" class="node">
<title>Node1</title>
<g id="a_node1"><a xlink:title=" ">
<polygon fill="#bfbfbf" stroke="black" points="668,-44.5 668,-74.5 803,-74.5 803,-44.5 668,-44.5"/>
<text text-anchor="start" x="676" y="-62.5" font-family="Helvetica,sans-Serif" font-size="10.00">carta::Ds9ImportExport</text>
<text text-anchor="middle" x="735.5" y="-51.5" font-family="Helvetica,sans-Serif" font-size="10.00">::ImportStyleParameters</text>
</a>
</g>
</g>
<!-- Node2 -->
<g id="node2" class="node">
<title>Node2</title>
<g id="a_node2"><a xlink:href="classcarta_1_1Ds9ImportExport.html#ae033676706102c4f69a88711c1c6d9da" target="_top" xlink:title=" ">
<polygon fill="none" stroke="black" points="498,-88.5 498,-118.5 632,-118.5 632,-88.5 498,-88.5"/>
<text text-anchor="start" x="506" y="-106.5" font-family="Helvetica,sans-Serif" font-size="10.00">carta::Ds9ImportExport</text>
<text text-anchor="middle" x="565" y="-95.5" font-family="Helvetica,sans-Serif" font-size="10.00">::ImportCompassRegion</text>
</a>
</g>
</g>
<!-- Node1&#45;&gt;Node2 -->
<g id="edge1" class="edge">
<title>Node1&#45;&gt;Node2</title>
<path fill="none" stroke="midnightblue" d="M667.12,-77.09C652.69,-80.86 637.57,-84.81 623.54,-88.47"/>
<polygon fill="midnightblue" stroke="midnightblue" points="668.19,-80.43 676.98,-74.52 666.42,-73.66 668.19,-80.43"/>
</g>
<!-- Node3 -->
<g id="node3" class="node">
<title>Node3</title>
<g id="a_node3"><a xlink:href="classcarta_1_1Ds9ImportExport.html#aa2a42c3190f56fc57565646a5b98a45d" target="_top" xlink:title=" ">
<polygon fill="none" stroke="black" points="332,-44.5 332,-74.5 462,-74.5 462,-44.5 332,-44.5"/>
<text text-anchor="start" x="340" y="-62.5" font-family="Helvetica,sans-Serif" font-size="10.00">carta::Ds9ImportExport</text>
<text text-anchor="middle" x="397" y="-51.5" font-family="Helvetica,sans-Serif" font-size="10.00">::SetRegion</text>
</a>
</g>
</g>
<!-- Node1&#45;&gt;Node3 -->
<g id="edge7" class="edge">
<title>Node1&#45;&gt;Node3</title>
<path fill="none" stroke="midnightblue" d="M657.59,-59.5C598.5,-59.5 517.84,-59.5 462.19,-59.5"/>
<polygon fill="midnightblue" stroke="midnightblue" points="657.62,-63 667.62,-59.5 657.62,-56 657.62,-63"/>
</g>
<!-- Node6 -->
<g id="node6" class="node">
<title>Node6</title>
<g id="a_node6"><a xlink:href="classcarta_1_1Ds9ImportExport.html#a507821ef3a4c8908c429c7294880d29b" target="_top" xlink:title=" ">
<polygon fill="none" stroke="black" points="500,-0.5 500,-30.5 630,-30.5 630,-0.5 500,-0.5"/>
<text text-anchor="start" x="508" y="-18.5" font-family="Helvetica,sans-Serif" font-size="10.00">carta::Ds9ImportExport</text>
<text text-anchor="middle" x="565" y="-7.5" font-family="Helvetica,sans-Serif" font-size="10.00">::ImportRulerRegion</text>
</a>
</g>
</g>
<!-- Node1&#45;&gt;Node6 -->
<g id="edge5" class="edge">
<title>Node1&#45;&gt;Node6</title>
<path fill="none" stroke="midnightblue" d="M667.12,-41.91C652.69,-38.14 637.57,-34.19 623.54,-30.53"/>
<polygon fill="midnightblue" stroke="midnightblue" points="666.42,-45.34 676.98,-44.48 668.19,-38.57 666.42,-45.34"/>
</g>
<!-- Node2&#45;&gt;Node3 -->
<g id="edge2" class="edge">
<title>Node2&#45;&gt;Node3</title>
<path fill="none" stroke="midnightblue" d="M497.62,-85.91C483.4,-82.14 468.5,-78.19 454.69,-74.53"/>
<polygon fill="midnightblue" stroke="midnightblue" points="496.77,-89.3 507.34,-88.48 498.57,-82.54 496.77,-89.3"/>
</g>
<!-- Node4 -->
<g id="node4" class="node">
<title>Node4</title>
<g id="a_node4"><a xlink:href="classcarta_1_1Ds9ImportExport.html#ac30be76c02bcb4a5cac81596eef56588" target="_top" xlink:title=" ">
<polygon fill="none" stroke="black" points="166,-44.5 166,-74.5 296,-74.5 296,-44.5 166,-44.5"/>
<text text-anchor="start" x="174" y="-62.5" font-family="Helvetica,sans-Serif" font-size="10.00">carta::Ds9ImportExport</text>
<text text-anchor="middle" x="231" y="-51.5" font-family="Helvetica,sans-Serif" font-size="10.00">::ProcessFileLines</text>
</a>
</g>
</g>
<!-- Node3&#45;&gt;Node4 -->
<g id="edge3" class="edge">
<title>Node3&#45;&gt;Node4</title>
<path fill="none" stroke="midnightblue" d="M321.44,-59.5C313,-59.5 304.45,-59.5 296.16,-59.5"/>
<polygon fill="midnightblue" stroke="midnightblue" points="321.65,-63 331.65,-59.5 321.65,-56 321.65,-63"/>
</g>
<!-- Node5 -->
<g id="node5" class="node">
<title>Node5</title>
<g id="a_node5"><a xlink:href="classcarta_1_1Ds9ImportExport.html#aaf9d85eccbc3df844536b5105992cdeb" target="_top" xlink:title=" ">
<polygon fill="none" stroke="black" points="0,-44.5 0,-74.5 130,-74.5 130,-44.5 0,-44.5"/>
<text text-anchor="start" x="8" y="-62.5" font-family="Helvetica,sans-Serif" font-size="10.00">carta::Ds9ImportExport</text>
<text text-anchor="middle" x="65" y="-51.5" font-family="Helvetica,sans-Serif" font-size="10.00">::Ds9ImportExport</text>
</a>
</g>
</g>
<!-- Node4&#45;&gt;Node5 -->
<g id="edge4" class="edge">
<title>Node4&#45;&gt;Node5</title>
<path fill="none" stroke="midnightblue" d="M155.44,-59.5C147,-59.5 138.45,-59.5 130.16,-59.5"/>
<polygon fill="midnightblue" stroke="midnightblue" points="155.65,-63 165.65,-59.5 155.65,-56 155.65,-63"/>
</g>
<!-- Node6&#45;&gt;Node3 -->
<g id="edge6" class="edge">
<title>Node6&#45;&gt;Node3</title>
<path fill="none" stroke="midnightblue" d="M497.62,-33.09C483.4,-36.86 468.5,-40.81 454.69,-44.47"/>
<polygon fill="midnightblue" stroke="midnightblue" points="498.57,-36.46 507.34,-30.52 496.77,-29.7 498.57,-36.46"/>
</g>
</g>
</svg>
