<?xml version="1.0" encoding="UTF-8" standalone="no"?>
<!DOCTYPE svg PUBLIC "-//W3C//DTD SVG 1.1//EN"
 "http://www.w3.org/Graphics/SVG/1.1/DTD/svg11.dtd">
<!-- Generated by graphviz version 2.43.0 (0)
 -->
<!-- Title: carta::Table::ConstructFromFITS Pages: 1 -->
<svg width="546pt" height="97pt"
 viewBox="0.00 0.00 546.00 96.50" xmlns="http://www.w3.org/2000/svg" xmlns:xlink="http://www.w3.org/1999/xlink">
<g id="graph0" class="graph" transform="scale(1 1) rotate(0) translate(4 92.5)">
<title>carta::Table::ConstructFromFITS</title>
<!-- Node1 -->
<g id="node1" class="node">
<title>Node1</title>
<g id="a_node1"><a xlink:title=" ">
<polygon fill="#bfbfbf" stroke="black" points="0,-41.5 0,-60.5 171,-60.5 171,-41.5 0,-41.5"/>
<text text-anchor="middle" x="85.5" y="-48.5" font-family="Helvetica,sans-Serif" font-size="10.00">carta::Table::ConstructFromFITS</text>
</a>
</g>
</g>
<!-- Node2 -->
<g id="node2" class="node">
<title>Node2</title>
<g id="a_node2"><a xlink:href="classcarta_1_1ThreadManager.html#a82cbb5d8370c091ac96c24d0fc4984dc" target="_top" xlink:title=" ">
<polygon fill="none" stroke="black" points="218,-58 218,-88 342,-88 342,-58 218,-58"/>
<text text-anchor="start" x="226" y="-76" font-family="Helvetica,sans-Serif" font-size="10.00">carta::ThreadManager</text>
<text text-anchor="middle" x="280" y="-65" font-family="Helvetica,sans-Serif" font-size="10.00">::ApplyThreadLimit</text>
</a>
</g>
</g>
<!-- Node1&#45;&gt;Node2 -->
<g id="edge1" class="edge">
<title>Node1&#45;&gt;Node2</title>
<path fill="none" stroke="midnightblue" d="M169.81,-60.52C182.44,-61.96 195.36,-63.44 207.7,-64.85"/>
<polygon fill="midnightblue" stroke="midnightblue" points="207.57,-68.36 217.9,-66.02 208.36,-61.4 207.57,-68.36"/>
</g>
<!-- Node3 -->
<g id="node3" class="node">
<title>Node3</title>
<g id="a_node3"><a xlink:href="classcarta_1_1Column.html#a7ad943a3b7cb58607b5bd38c84317d05" target="_top" xlink:title=" ">
<polygon fill="none" stroke="black" points="207,-19.5 207,-38.5 353,-38.5 353,-19.5 207,-19.5"/>
<text text-anchor="middle" x="280" y="-26.5" font-family="Helvetica,sans-Serif" font-size="10.00">carta::Column::FromFitsPtr</text>
</a>
</g>
</g>
<!-- Node1&#45;&gt;Node3 -->
<g id="edge2" class="edge">
<title>Node1&#45;&gt;Node3</title>
<path fill="none" stroke="midnightblue" d="M169.81,-41.48C178.75,-40.46 187.83,-39.42 196.75,-38.4"/>
<polygon fill="midnightblue" stroke="midnightblue" points="197.2,-41.87 206.74,-37.26 196.4,-34.92 197.2,-41.87"/>
</g>
<!-- Node4 -->
<g id="node4" class="node">
<title>Node4</title>
<g id="a_node4"><a xlink:href="namespacecarta.html#ae278df3199bf699b6cd2998337dbcb64" target="_top" xlink:title=" ">
<polygon fill="none" stroke="black" points="389,-38.5 389,-57.5 538,-57.5 538,-38.5 389,-38.5"/>
<text text-anchor="middle" x="463.5" y="-45.5" font-family="Helvetica,sans-Serif" font-size="10.00">carta::ColumnFromFitsType</text>
</a>
</g>
</g>
<!-- Node3&#45;&gt;Node4 -->
<g id="edge3" class="edge">
<title>Node3&#45;&gt;Node4</title>
<path fill="none" stroke="midnightblue" d="M353.26,-36.56C361.64,-37.44 370.24,-38.34 378.76,-39.23"/>
<polygon fill="midnightblue" stroke="midnightblue" points="378.4,-42.72 388.71,-40.28 379.13,-35.75 378.4,-42.72"/>
</g>
<!-- Node5 -->
<g id="node5" class="node">
<title>Node5</title>
<g id="a_node5"><a xlink:href="namespacecarta.html#a928af6c5078150f8c0cafc2a32a6b05c" target="_top" xlink:title=" ">
<polygon fill="none" stroke="black" points="412,-0.5 412,-19.5 515,-19.5 515,-0.5 412,-0.5"/>
<text text-anchor="middle" x="463.5" y="-7.5" font-family="Helvetica,sans-Serif" font-size="10.00">carta::TrimSpaces</text>
</a>
</g>
</g>
<!-- Node3&#45;&gt;Node5 -->
<g id="edge4" class="edge">
<title>Node3&#45;&gt;Node5</title>
<path fill="none" stroke="midnightblue" d="M353.26,-21.44C369.39,-19.75 386.35,-17.97 401.95,-16.34"/>
<polygon fill="midnightblue" stroke="midnightblue" points="402.41,-19.81 411.99,-15.29 401.68,-12.85 402.41,-19.81"/>
</g>
</g>
</svg>
