<?xml version="1.0" encoding="UTF-8" standalone="no"?>
<!DOCTYPE svg PUBLIC "-//W3C//DTD SVG 1.1//EN"
 "http://www.w3.org/Graphics/SVG/1.1/DTD/svg11.dtd">
<!-- Generated by graphviz version 2.43.0 (0)
 -->
<!-- Title: carta::Table::ConstructFromXML Pages: 1 -->
<!--zoomable 186 -->
<svg id="main" version="1.1" xmlns="http://www.w3.org/2000/svg" xmlns:xlink="http://www.w3.org/1999/xlink" xml:space="preserve" onload="init(evt)">
<style type="text/css"><![CDATA[
.edge:hover path { stroke: red; }
.edge:hover polygon { stroke: red; fill: red; }
]]></style>
<script type="text/javascript"><![CDATA[
var edges = document.getElementsByTagName('g');
if (edges && edges.length) {
  for (var i=0;i<edges.length;i++) {
    if (edges[i].id.substr(0,4)=='edge') {
      edges[i].setAttribute('class','edge');
    }
  }
}
]]></script>
        <defs>
                <circle id="rim" cx="0" cy="0" r="7"/>
                <circle id="rim2" cx="0" cy="0" r="3.5"/>
                <g id="zoomPlus">
                        <use xlink:href="#rim" fill="#404040">
                                <set attributeName="fill" to="#808080" begin="zoomplus.mouseover" end="zoomplus.mouseout"/>
                        </use>
                        <path d="M-4,0h8M0,-4v8" fill="none" stroke="white" stroke-width="1.5" pointer-events="none"/>
                </g>
                <g id="zoomMin">
                        <use xlink:href="#rim" fill="#404040">
                                <set attributeName="fill" to="#808080" begin="zoomminus.mouseover" end="zoomminus.mouseout"/>
                        </use>
                        <path d="M-4,0h8" fill="none" stroke="white" stroke-width="1.5" pointer-events="none"/>
                </g>
                <g id="dirArrow">
                        <path fill="none" stroke="white" stroke-width="1.5" d="M0,-3.0v7 M-2.5,-0.5L0,-3.0L2.5,-0.5"/>
                </g>
               <g id="resetDef">
                       <use xlink:href="#rim2" fill="#404040">
                               <set attributeName="fill" to="#808080" begin="reset.mouseover" end="reset.mouseout"/>
                       </use>
               </g>
        </defs>

<script type="text/javascript">
var viewWidth = 548;
var viewHeight = 186;
var sectionId = 'dynsection-5';
</script>
<script xlink:href="svgpan.js"/>
<svg id="graph" class="graph">
<g id="viewport">
<title>carta::Table::ConstructFromXML</title>
<!-- Node1 -->
<g id="node1" class="node">
<title>Node1</title>
<g id="a_node1"><a xlink:title=" ">
<polygon fill="#bfbfbf" stroke="black" points="0,-82 0,-101 171,-101 171,-82 0,-82"/>
<text text-anchor="middle" x="85.5" y="-89" font-family="Helvetica,sans-Serif" font-size="10.00">carta::Table::ConstructFromXML</text>
</a>
</g>
</g>
<!-- Node2 -->
<g id="node2" class="node">
<title>Node2</title>
<g id="a_node2"><a xlink:href="classcarta_1_1Table.html#adcb561fb03381967edc513420f7fc278" target="_top" xlink:title=" ">
<polygon fill="none" stroke="black" points="220.5,-158 220.5,-177 351.5,-177 351.5,-158 220.5,-158"/>
<text text-anchor="middle" x="286" y="-165" font-family="Helvetica,sans-Serif" font-size="10.00">carta::Table::GetHeader</text>
</a>
</g>
</g>
<!-- Node1&#45;&gt;Node2 -->
<g id="edge1" class="edge">
<title>Node1&#45;&gt;Node2</title>
<path fill="none" stroke="midnightblue" d="M103.99,-101.16C127.02,-113.56 169.04,-135.06 207,-148.5 214.13,-151.02 221.73,-153.33 229.3,-155.4"/>
<polygon fill="midnightblue" stroke="midnightblue" points="228.61,-158.84 239.17,-157.98 230.38,-152.07 228.61,-158.84"/>
</g>
<!-- Node3 -->
<g id="node3" class="node">
<title>Node3</title>
<g id="a_node3"><a xlink:href="classcarta_1_1Table.html#a97145cb48bd8a9a8903cc703851ed8b2" target="_top" xlink:title=" ">
<polygon fill="none" stroke="black" points="207.5,-120 207.5,-139 364.5,-139 364.5,-120 207.5,-120"/>
<text text-anchor="middle" x="286" y="-127" font-family="Helvetica,sans-Serif" font-size="10.00">carta::Table::PopulateCoosys</text>
</a>
</g>
</g>
<!-- Node1&#45;&gt;Node3 -->
<g id="edge2" class="edge">
<title>Node1&#45;&gt;Node3</title>
<path fill="none" stroke="midnightblue" d="M136.33,-101.04C163.23,-106.19 196.64,-112.58 224.96,-118.01"/>
<polygon fill="midnightblue" stroke="midnightblue" points="224.67,-121.51 235.15,-119.96 225.98,-114.64 224.67,-121.51"/>
</g>
<!-- Node4 -->
<g id="node4" class="node">
<title>Node4</title>
<g id="a_node4"><a xlink:href="classcarta_1_1Table.html#a408e6cd894efcb6eac89099bcdd806e9" target="_top" xlink:title=" ">
<polygon fill="none" stroke="black" points="211,-82 211,-101 361,-101 361,-82 211,-82"/>
<text text-anchor="middle" x="286" y="-89" font-family="Helvetica,sans-Serif" font-size="10.00">carta::Table::PopulateFields</text>
</a>
</g>
</g>
<!-- Node1&#45;&gt;Node4 -->
<g id="edge3" class="edge">
<title>Node1&#45;&gt;Node4</title>
<path fill="none" stroke="midnightblue" d="M171.26,-91.5C181.03,-91.5 191,-91.5 200.77,-91.5"/>
<polygon fill="midnightblue" stroke="midnightblue" points="200.86,-95 210.86,-91.5 200.86,-88 200.86,-95"/>
</g>
<!-- Node6 -->
<g id="node6" class="node">
<title>Node6</title>
<g id="a_node6"><a xlink:href="classcarta_1_1Table.html#adeaf39a1faa13da450d9de99525c8fe7" target="_top" xlink:title=" ">
<polygon fill="none" stroke="black" points="207,-44 207,-63 365,-63 365,-44 207,-44"/>
<text text-anchor="middle" x="286" y="-51" font-family="Helvetica,sans-Serif" font-size="10.00">carta::Table::PopulateParams</text>
</a>
</g>
</g>
<!-- Node1&#45;&gt;Node6 -->
<g id="edge5" class="edge">
<title>Node1&#45;&gt;Node6</title>
<path fill="none" stroke="midnightblue" d="M136.33,-81.96C163.23,-76.81 196.64,-70.42 224.96,-64.99"/>
<polygon fill="midnightblue" stroke="midnightblue" points="225.98,-68.36 235.15,-63.04 224.67,-61.49 225.98,-68.36"/>
</g>
<!-- Node7 -->
<g id="node7" class="node">
<title>Node7</title>
<g id="a_node7"><a xlink:href="classcarta_1_1Table.html#a11d13db99482dc0845338a5ac76a8aa8" target="_top" xlink:title=" ">
<polygon fill="none" stroke="black" points="212,-6 212,-25 360,-25 360,-6 212,-6"/>
<text text-anchor="middle" x="286" y="-13" font-family="Helvetica,sans-Serif" font-size="10.00">carta::Table::PopulateRows</text>
</a>
</g>
</g>
<!-- Node1&#45;&gt;Node7 -->
<g id="edge6" class="edge">
<title>Node1&#45;&gt;Node7</title>
<path fill="none" stroke="midnightblue" d="M103.99,-81.84C127.02,-69.44 169.04,-47.94 207,-34.5 214.13,-31.98 221.73,-29.67 229.3,-27.6"/>
<polygon fill="midnightblue" stroke="midnightblue" points="230.38,-30.93 239.17,-25.02 228.61,-24.16 230.38,-30.93"/>
</g>
<!-- Node5 -->
<g id="node5" class="node">
<title>Node5</title>
<g id="a_node5"><a xlink:href="classcarta_1_1Column.html#a8d71da2b6ddb31d356a1b0836ac81409" target="_top" xlink:title=" ">
<polygon fill="none" stroke="black" points="401,-82 401,-101 540,-101 540,-82 401,-82"/>
<text text-anchor="middle" x="470.5" y="-89" font-family="Helvetica,sans-Serif" font-size="10.00">carta::Column::FromField</text>
</a>
</g>
</g>
<!-- Node4&#45;&gt;Node5 -->
<g id="edge4" class="edge">
<title>Node4&#45;&gt;Node5</title>
<path fill="none" stroke="midnightblue" d="M361.23,-91.5C370.97,-91.5 380.98,-91.5 390.79,-91.5"/>
<polygon fill="midnightblue" stroke="midnightblue" points="390.93,-95 400.93,-91.5 390.93,-88 390.93,-95"/>
</g>
<!-- Node8 -->
<g id="node8" class="node">
<title>Node8</title>
<g id="a_node8"><a xlink:href="classcarta_1_1ThreadManager.html#a82cbb5d8370c091ac96c24d0fc4984dc" target="_top" xlink:title=" ">
<polygon fill="none" stroke="black" points="408.5,-0.5 408.5,-30.5 532.5,-30.5 532.5,-0.5 408.5,-0.5"/>
<text text-anchor="start" x="416.5" y="-18.5" font-family="Helvetica,sans-Serif" font-size="10.00">carta::ThreadManager</text>
<text text-anchor="middle" x="470.5" y="-7.5" font-family="Helvetica,sans-Serif" font-size="10.00">::ApplyThreadLimit</text>
</a>
</g>
</g>
<!-- Node7&#45;&gt;Node8 -->
<g id="edge7" class="edge">
<title>Node7&#45;&gt;Node8</title>
<path fill="none" stroke="midnightblue" d="M360.18,-15.5C372.65,-15.5 385.59,-15.5 398.02,-15.5"/>
<polygon fill="midnightblue" stroke="midnightblue" points="398.32,-19 408.32,-15.5 398.32,-12 398.32,-19"/>
</g>
</g>
</svg>
        <g id="navigator" transform="translate(0 0)" fill="#404254">
                <rect fill="#f2f5e9" fill-opacity="0.5" stroke="#606060" stroke-width=".5" x="0" y="0" width="60" height="60"/>
                <use id="zoomplus" xlink:href="#zoomPlus" x="17" y="9" onmousedown="handleZoom(evt,'in')"/>
                <use id="zoomminus" xlink:href="#zoomMin" x="42" y="9" onmousedown="handleZoom(evt,'out')"/>
                <use id="reset" xlink:href="#resetDef" x="30" y="36" onmousedown="handleReset()"/>
                <g id="arrowUp" xlink:href="#dirArrow" transform="translate(30 24)" onmousedown="handlePan(0,-1)">
                  <use xlink:href="#rim" fill="#404040">
                        <set attributeName="fill" to="#808080" begin="arrowUp.mouseover" end="arrowUp.mouseout"/>
                  </use>
                  <path fill="none" stroke="white" stroke-width="1.5" d="M0,-3.0v7 M-2.5,-0.5L0,-3.0L2.5,-0.5"/>
                </g>
                <g id="arrowRight" xlink:href="#dirArrow" transform="rotate(90) translate(36 -43)" onmousedown="handlePan(1,0)">
                  <use xlink:href="#rim" fill="#404040">
                        <set attributeName="fill" to="#808080" begin="arrowRight.mouseover" end="arrowRight.mouseout"/>
                  </use>
                  <path fill="none" stroke="white" stroke-width="1.5" d="M0,-3.0v7 M-2.5,-0.5L0,-3.0L2.5,-0.5"/>
                </g>
                <g id="arrowDown" xlink:href="#dirArrow" transform="rotate(180) translate(-30 -48)" onmousedown="handlePan(0,1)">
                  <use xlink:href="#rim" fill="#404040">
                        <set attributeName="fill" to="#808080" begin="arrowDown.mouseover" end="arrowDown.mouseout"/>
                  </use>
                  <path fill="none" stroke="white" stroke-width="1.5" d="M0,-3.0v7 M-2.5,-0.5L0,-3.0L2.5,-0.5"/>
                </g>
                <g id="arrowLeft" xlink:href="#dirArrow" transform="rotate(270) translate(-36 17)" onmousedown="handlePan(-1,0)">
                  <use xlink:href="#rim" fill="#404040">
                        <set attributeName="fill" to="#808080" begin="arrowLeft.mouseover" end="arrowLeft.mouseout"/>
                  </use>
                  <path fill="none" stroke="white" stroke-width="1.5" d="M0,-3.0v7 M-2.5,-0.5L0,-3.0L2.5,-0.5"/>
                </g>
        </g>
        <svg viewBox="0 0 15 15" width="100%" height="30px" preserveAspectRatio="xMaxYMin meet">
         <g id="arrow_out" transform="scale(0.3 0.3)">
          <a xlink:href="classcarta_1_1Table_a3991348408dd1a1e016abbfcab82f457_cgraph_org.svg" target="_base">
           <rect id="button" ry="5" rx="5" y="6" x="6" height="38" width="38"
                fill="#f2f5e9" fill-opacity="0.5" stroke="#606060" stroke-width="1.0"/>
           <path id="arrow"
             d="M 11.500037,31.436501 C 11.940474,20.09759 22.043105,11.32322 32.158766,21.979434 L 37.068811,17.246167 C 37.068811,17.246167 37.088388,32 37.088388,32 L 22.160133,31.978069 C 22.160133,31.978069 26.997745,27.140456 26.997745,27.140456 C 18.528582,18.264221 13.291696,25.230495 11.500037,31.436501 z"
             style="fill:#404040;"/>
          </a>
         </g>
        </svg>
</svg>
