<?xml version="1.0" encoding="UTF-8" standalone="no"?>
<!DOCTYPE svg PUBLIC "-//W3C//DTD SVG 1.1//EN"
 "http://www.w3.org/Graphics/SVG/1.1/DTD/svg11.dtd">
<!-- Generated by graphviz version 2.43.0 (0)
 -->
<!-- Title: carta::HttpServer::HandleSetObject Pages: 1 -->
<!--zoomable 186 -->
<svg id="main" version="1.1" xmlns="http://www.w3.org/2000/svg" xmlns:xlink="http://www.w3.org/1999/xlink" xml:space="preserve" onload="init(evt)">
<style type="text/css"><![CDATA[
.edge:hover path { stroke: red; }
.edge:hover polygon { stroke: red; fill: red; }
]]></style>
<script type="text/javascript"><![CDATA[
var edges = document.getElementsByTagName('g');
if (edges && edges.length) {
  for (var i=0;i<edges.length;i++) {
    if (edges[i].id.substr(0,4)=='edge') {
      edges[i].setAttribute('class','edge');
    }
  }
}
]]></script>
        <defs>
                <circle id="rim" cx="0" cy="0" r="7"/>
                <circle id="rim2" cx="0" cy="0" r="3.5"/>
                <g id="zoomPlus">
                        <use xlink:href="#rim" fill="#404040">
                                <set attributeName="fill" to="#808080" begin="zoomplus.mouseover" end="zoomplus.mouseout"/>
                        </use>
                        <path d="M-4,0h8M0,-4v8" fill="none" stroke="white" stroke-width="1.5" pointer-events="none"/>
                </g>
                <g id="zoomMin">
                        <use xlink:href="#rim" fill="#404040">
                                <set attributeName="fill" to="#808080" begin="zoomminus.mouseover" end="zoomminus.mouseout"/>
                        </use>
                        <path d="M-4,0h8" fill="none" stroke="white" stroke-width="1.5" pointer-events="none"/>
                </g>
                <g id="dirArrow">
                        <path fill="none" stroke="white" stroke-width="1.5" d="M0,-3.0v7 M-2.5,-0.5L0,-3.0L2.5,-0.5"/>
                </g>
               <g id="resetDef">
                       <use xlink:href="#rim2" fill="#404040">
                               <set attributeName="fill" to="#808080" begin="reset.mouseover" end="reset.mouseout"/>
                       </use>
               </g>
        </defs>

<script type="text/javascript">
var viewWidth = 606;
var viewHeight = 186;
var sectionId = 'dynsection-29';
</script>
<script xlink:href="svgpan.js"/>
<svg id="graph" class="graph">
<g id="viewport">
<title>carta::HttpServer::HandleSetObject</title>
<!-- Node1 -->
<g id="node1" class="node">
<title>Node1</title>
<g id="a_node1"><a xlink:title=" ">
<polygon fill="#bfbfbf" stroke="black" points="0,-73.5 0,-103.5 106,-103.5 106,-73.5 0,-73.5"/>
<text text-anchor="start" x="8" y="-91.5" font-family="Helvetica,sans-Serif" font-size="10.00">carta::HttpServer::</text>
<text text-anchor="middle" x="53" y="-80.5" font-family="Helvetica,sans-Serif" font-size="10.00">HandleSetObject</text>
</a>
</g>
</g>
<!-- Node2 -->
<g id="node2" class="node">
<title>Node2</title>
<g id="a_node2"><a xlink:href="classcarta_1_1HttpServer.html#a9f22cc64ac844efa362e5cae7e227b18" target="_top" xlink:title=" ">
<polygon fill="none" stroke="black" points="142,-147.5 142,-177.5 261,-177.5 261,-147.5 142,-147.5"/>
<text text-anchor="start" x="150" y="-165.5" font-family="Helvetica,sans-Serif" font-size="10.00">carta::HttpServer::</text>
<text text-anchor="middle" x="201.5" y="-154.5" font-family="Helvetica,sans-Serif" font-size="10.00">AddNoCacheHeaders</text>
</a>
</g>
</g>
<!-- Node1&#45;&gt;Node2 -->
<g id="edge1" class="edge">
<title>Node1&#45;&gt;Node2</title>
<path fill="none" stroke="midnightblue" d="M78.58,-103.59C95.98,-113.99 120.04,-127.81 142,-138.5 145.36,-140.13 148.85,-141.76 152.39,-143.34"/>
<polygon fill="midnightblue" stroke="midnightblue" points="151.23,-146.66 161.8,-147.44 154.03,-140.24 151.23,-146.66"/>
</g>
<!-- Node4 -->
<g id="node4" class="node">
<title>Node4</title>
<g id="a_node4"><a xlink:href="classcarta_1_1HttpServer.html#af169f00ad63df4365dabaff24daf8a38" target="_top" xlink:title=" ">
<polygon fill="none" stroke="black" points="148.5,-98.5 148.5,-128.5 254.5,-128.5 254.5,-98.5 148.5,-98.5"/>
<text text-anchor="start" x="156.5" y="-116.5" font-family="Helvetica,sans-Serif" font-size="10.00">carta::HttpServer::</text>
<text text-anchor="middle" x="201.5" y="-105.5" font-family="Helvetica,sans-Serif" font-size="10.00">IsAuthenticated</text>
</a>
</g>
</g>
<!-- Node1&#45;&gt;Node4 -->
<g id="edge3" class="edge">
<title>Node1&#45;&gt;Node4</title>
<path fill="none" stroke="midnightblue" d="M106.06,-97.38C116.41,-99.15 127.37,-101.02 138.02,-102.84"/>
<polygon fill="midnightblue" stroke="midnightblue" points="137.66,-106.33 148.11,-104.56 138.84,-99.43 137.66,-106.33"/>
</g>
<!-- Node7 -->
<g id="node7" class="node">
<title>Node7</title>
<g id="a_node7"><a xlink:href="classcarta_1_1HttpServer.html#a2f5ec652fc543dc22995bd5ad9b866f9" target="_top" xlink:title=" ">
<polygon fill="none" stroke="black" points="143,-49.5 143,-79.5 260,-79.5 260,-49.5 143,-49.5"/>
<text text-anchor="start" x="151" y="-67.5" font-family="Helvetica,sans-Serif" font-size="10.00">carta::HttpServer::</text>
<text text-anchor="middle" x="201.5" y="-56.5" font-family="Helvetica,sans-Serif" font-size="10.00">SetObjectFromString</text>
</a>
</g>
</g>
<!-- Node1&#45;&gt;Node7 -->
<g id="edge6" class="edge">
<title>Node1&#45;&gt;Node7</title>
<path fill="none" stroke="midnightblue" d="M106.06,-79.97C114.73,-78.55 123.82,-77.06 132.81,-75.59"/>
<polygon fill="midnightblue" stroke="midnightblue" points="133.57,-79.01 142.88,-73.94 132.44,-72.1 133.57,-79.01"/>
</g>
<!-- Node9 -->
<g id="node9" class="node">
<title>Node9</title>
<g id="a_node9"><a xlink:href="classcarta_1_1HttpServer.html#adbfb962d9f1dd478618ca66b867728af" target="_top" xlink:title=" ">
<polygon fill="none" stroke="black" points="148.5,-0.5 148.5,-30.5 254.5,-30.5 254.5,-0.5 148.5,-0.5"/>
<text text-anchor="start" x="156.5" y="-18.5" font-family="Helvetica,sans-Serif" font-size="10.00">carta::HttpServer::</text>
<text text-anchor="middle" x="201.5" y="-7.5" font-family="Helvetica,sans-Serif" font-size="10.00">WaitForData</text>
</a>
</g>
</g>
<!-- Node1&#45;&gt;Node9 -->
<g id="edge8" class="edge">
<title>Node1&#45;&gt;Node9</title>
<path fill="none" stroke="midnightblue" d="M79.37,-73.32C96.73,-63.19 120.41,-49.89 142,-39.5 145.36,-37.88 148.86,-36.27 152.41,-34.69"/>
<polygon fill="midnightblue" stroke="midnightblue" points="154.04,-37.8 161.82,-30.61 151.26,-31.37 154.04,-37.8"/>
</g>
<!-- Node3 -->
<g id="node3" class="node">
<title>Node3</title>
<g id="a_node3"><a xlink:href="classcarta_1_1HttpServer.html#a3d73c3c23b0a75f2db9496c6a027d0e9" target="_top" xlink:title=" ">
<polygon fill="none" stroke="black" points="297.5,-147.5 297.5,-177.5 403.5,-177.5 403.5,-147.5 297.5,-147.5"/>
<text text-anchor="start" x="305.5" y="-165.5" font-family="Helvetica,sans-Serif" font-size="10.00">carta::HttpServer::</text>
<text text-anchor="middle" x="350.5" y="-154.5" font-family="Helvetica,sans-Serif" font-size="10.00">AddCorsHeaders</text>
</a>
</g>
</g>
<!-- Node2&#45;&gt;Node3 -->
<g id="edge2" class="edge">
<title>Node2&#45;&gt;Node3</title>
<path fill="none" stroke="midnightblue" d="M261.02,-162.5C269.65,-162.5 278.57,-162.5 287.28,-162.5"/>
<polygon fill="midnightblue" stroke="midnightblue" points="287.36,-166 297.36,-162.5 287.36,-159 287.36,-166"/>
</g>
<!-- Node5 -->
<g id="node5" class="node">
<title>Node5</title>
<g id="a_node5"><a xlink:href="Token_8cc.html#a9bdf5a1f3fa36deef988a7294f9f85b1" target="_top" xlink:title="Validate an HTTP request.">
<polygon fill="none" stroke="black" points="297,-104 297,-123 404,-123 404,-104 297,-104"/>
<text text-anchor="middle" x="350.5" y="-111" font-family="Helvetica,sans-Serif" font-size="10.00">ValidateAuthToken</text>
</a>
</g>
</g>
<!-- Node4&#45;&gt;Node5 -->
<g id="edge4" class="edge">
<title>Node4&#45;&gt;Node5</title>
<path fill="none" stroke="midnightblue" d="M254.74,-113.5C265.12,-113.5 276.12,-113.5 286.81,-113.5"/>
<polygon fill="midnightblue" stroke="midnightblue" points="286.93,-117 296.93,-113.5 286.93,-110 286.93,-117"/>
</g>
<!-- Node6 -->
<g id="node6" class="node">
<title>Node6</title>
<g id="a_node6"><a xlink:href="String_8cc.html#ac6e67fbe6974b4438e7f60fa751d5e75" target="_top" xlink:title=" ">
<polygon fill="none" stroke="black" points="440,-104 440,-123 598,-123 598,-104 440,-104"/>
<text text-anchor="middle" x="519" y="-111" font-family="Helvetica,sans-Serif" font-size="10.00">ConstantTimeStringCompare</text>
</a>
</g>
</g>
<!-- Node5&#45;&gt;Node6 -->
<g id="edge5" class="edge">
<title>Node5&#45;&gt;Node6</title>
<path fill="none" stroke="midnightblue" d="M404.18,-113.5C412.33,-113.5 420.93,-113.5 429.61,-113.5"/>
<polygon fill="midnightblue" stroke="midnightblue" points="429.81,-117 439.81,-113.5 429.81,-110 429.81,-117"/>
</g>
<!-- Node8 -->
<g id="node8" class="node">
<title>Node8</title>
<g id="a_node8"><a xlink:href="classcarta_1_1HttpServer.html#a44362263707890daf7c642f9c8400877" target="_top" xlink:title=" ">
<polygon fill="none" stroke="black" points="297.5,-49.5 297.5,-79.5 403.5,-79.5 403.5,-49.5 297.5,-49.5"/>
<text text-anchor="start" x="305.5" y="-67.5" font-family="Helvetica,sans-Serif" font-size="10.00">carta::HttpServer::</text>
<text text-anchor="middle" x="350.5" y="-56.5" font-family="Helvetica,sans-Serif" font-size="10.00">WriteObjectFile</text>
</a>
</g>
</g>
<!-- Node7&#45;&gt;Node8 -->
<g id="edge7" class="edge">
<title>Node7&#45;&gt;Node8</title>
<path fill="none" stroke="midnightblue" d="M260.18,-64.5C269.06,-64.5 278.27,-64.5 287.24,-64.5"/>
<polygon fill="midnightblue" stroke="midnightblue" points="287.25,-68 297.25,-64.5 287.25,-61 287.25,-68"/>
</g>
</g>
</svg>
        <g id="navigator" transform="translate(0 0)" fill="#404254">
                <rect fill="#f2f5e9" fill-opacity="0.5" stroke="#606060" stroke-width=".5" x="0" y="0" width="60" height="60"/>
                <use id="zoomplus" xlink:href="#zoomPlus" x="17" y="9" onmousedown="handleZoom(evt,'in')"/>
                <use id="zoomminus" xlink:href="#zoomMin" x="42" y="9" onmousedown="handleZoom(evt,'out')"/>
                <use id="reset" xlink:href="#resetDef" x="30" y="36" onmousedown="handleReset()"/>
                <g id="arrowUp" xlink:href="#dirArrow" transform="translate(30 24)" onmousedown="handlePan(0,-1)">
                  <use xlink:href="#rim" fill="#404040">
                        <set attributeName="fill" to="#808080" begin="arrowUp.mouseover" end="arrowUp.mouseout"/>
                  </use>
                  <path fill="none" stroke="white" stroke-width="1.5" d="M0,-3.0v7 M-2.5,-0.5L0,-3.0L2.5,-0.5"/>
                </g>
                <g id="arrowRight" xlink:href="#dirArrow" transform="rotate(90) translate(36 -43)" onmousedown="handlePan(1,0)">
                  <use xlink:href="#rim" fill="#404040">
                        <set attributeName="fill" to="#808080" begin="arrowRight.mouseover" end="arrowRight.mouseout"/>
                  </use>
                  <path fill="none" stroke="white" stroke-width="1.5" d="M0,-3.0v7 M-2.5,-0.5L0,-3.0L2.5,-0.5"/>
                </g>
                <g id="arrowDown" xlink:href="#dirArrow" transform="rotate(180) translate(-30 -48)" onmousedown="handlePan(0,1)">
                  <use xlink:href="#rim" fill="#404040">
                        <set attributeName="fill" to="#808080" begin="arrowDown.mouseover" end="arrowDown.mouseout"/>
                  </use>
                  <path fill="none" stroke="white" stroke-width="1.5" d="M0,-3.0v7 M-2.5,-0.5L0,-3.0L2.5,-0.5"/>
                </g>
                <g id="arrowLeft" xlink:href="#dirArrow" transform="rotate(270) translate(-36 17)" onmousedown="handlePan(-1,0)">
                  <use xlink:href="#rim" fill="#404040">
                        <set attributeName="fill" to="#808080" begin="arrowLeft.mouseover" end="arrowLeft.mouseout"/>
                  </use>
                  <path fill="none" stroke="white" stroke-width="1.5" d="M0,-3.0v7 M-2.5,-0.5L0,-3.0L2.5,-0.5"/>
                </g>
        </g>
        <svg viewBox="0 0 15 15" width="100%" height="30px" preserveAspectRatio="xMaxYMin meet">
         <g id="arrow_out" transform="scale(0.3 0.3)">
          <a xlink:href="classcarta_1_1HttpServer_a5a834bd534d12e1e534098fa2e10bc33_cgraph_org.svg" target="_base">
           <rect id="button" ry="5" rx="5" y="6" x="6" height="38" width="38"
                fill="#f2f5e9" fill-opacity="0.5" stroke="#606060" stroke-width="1.0"/>
           <path id="arrow"
             d="M 11.500037,31.436501 C 11.940474,20.09759 22.043105,11.32322 32.158766,21.979434 L 37.068811,17.246167 C 37.068811,17.246167 37.088388,32 37.088388,32 L 22.160133,31.978069 C 22.160133,31.978069 26.997745,27.140456 26.997745,27.140456 C 18.528582,18.264221 13.291696,25.230495 11.500037,31.436501 z"
             style="fill:#404040;"/>
          </a>
         </g>
        </svg>
</svg>
