<?xml version="1.0" encoding="UTF-8" standalone="no"?>
<!DOCTYPE svg PUBLIC "-//W3C//DTD SVG 1.1//EN"
 "http://www.w3.org/Graphics/SVG/1.1/DTD/svg11.dtd">
<!-- Generated by graphviz version 2.43.0 (0)
 -->
<!-- Title: carta::Session::ExecuteAnimationFrameInner Pages: 1 -->
<!--zoomable 866 -->
<svg id="main" version="1.1" xmlns="http://www.w3.org/2000/svg" xmlns:xlink="http://www.w3.org/1999/xlink" xml:space="preserve" onload="init(evt)">
<style type="text/css"><![CDATA[
.edge:hover path { stroke: red; }
.edge:hover polygon { stroke: red; fill: red; }
]]></style>
<script type="text/javascript"><![CDATA[
var edges = document.getElementsByTagName('g');
if (edges && edges.length) {
  for (var i=0;i<edges.length;i++) {
    if (edges[i].id.substr(0,4)=='edge') {
      edges[i].setAttribute('class','edge');
    }
  }
}
]]></script>
        <defs>
                <circle id="rim" cx="0" cy="0" r="7"/>
                <circle id="rim2" cx="0" cy="0" r="3.5"/>
                <g id="zoomPlus">
                        <use xlink:href="#rim" fill="#404040">
                                <set attributeName="fill" to="#808080" begin="zoomplus.mouseover" end="zoomplus.mouseout"/>
                        </use>
                        <path d="M-4,0h8M0,-4v8" fill="none" stroke="white" stroke-width="1.5" pointer-events="none"/>
                </g>
                <g id="zoomMin">
                        <use xlink:href="#rim" fill="#404040">
                                <set attributeName="fill" to="#808080" begin="zoomminus.mouseover" end="zoomminus.mouseout"/>
                        </use>
                        <path d="M-4,0h8" fill="none" stroke="white" stroke-width="1.5" pointer-events="none"/>
                </g>
                <g id="dirArrow">
                        <path fill="none" stroke="white" stroke-width="1.5" d="M0,-3.0v7 M-2.5,-0.5L0,-3.0L2.5,-0.5"/>
                </g>
               <g id="resetDef">
                       <use xlink:href="#rim2" fill="#404040">
                               <set attributeName="fill" to="#808080" begin="reset.mouseover" end="reset.mouseout"/>
                       </use>
               </g>
        </defs>

<script type="text/javascript">
var viewWidth = 1610;
var viewHeight = 866;
var sectionId = 'dynsection-26';
</script>
<script xlink:href="svgpan.js"/>
<svg id="graph" class="graph">
<g id="viewport">
<title>carta::Session::ExecuteAnimationFrameInner</title>
<!-- Node1 -->
<g id="node1" class="node">
<title>Node1</title>
<g id="a_node1"><a xlink:title=" ">
<polygon fill="#bfbfbf" stroke="black" points="0,-468 0,-498 179,-498 179,-468 0,-468"/>
<text text-anchor="start" x="8" y="-486" font-family="Helvetica,sans-Serif" font-size="10.00">carta::Session::ExecuteAnimation</text>
<text text-anchor="middle" x="89.5" y="-475" font-family="Helvetica,sans-Serif" font-size="10.00">FrameInner</text>
</a>
</g>
</g>
<!-- Node2 -->
<g id="node2" class="node">
<title>Node2</title>
<g id="a_node2"><a xlink:href="classcarta_1_1Timer.html#aad2702a80259920b910fb76642f97b88" target="_top" xlink:title=" ">
<polygon fill="none" stroke="black" points="864,-705.5 864,-724.5 984,-724.5 984,-705.5 864,-705.5"/>
<text text-anchor="middle" x="924" y="-712.5" font-family="Helvetica,sans-Serif" font-size="10.00">carta::Timer::Elapsed</text>
</a>
</g>
</g>
<!-- Node1&#45;&gt;Node2 -->
<g id="edge1" class="edge">
<title>Node1&#45;&gt;Node2</title>
<path fill="none" stroke="midnightblue" d="M93,-498.14C101.43,-544.5 133.01,-686.07 215,-764 290.56,-835.82 331.5,-829.02 434,-848 501.74,-860.55 521.34,-860.97 589,-848 709.57,-824.88 842.03,-758.77 896.94,-729.39"/>
<polygon fill="midnightblue" stroke="midnightblue" points="898.84,-732.34 905.97,-724.51 895.51,-726.18 898.84,-732.34"/>
</g>
<!-- Node3 -->
<g id="node3" class="node">
<title>Node3</title>
<g id="a_node3"><a xlink:href="structcarta_1_1TimeDelta.html#a90b2dc0a7d70b0aa6f668f4bbad7fa58" target="_top" xlink:title=" ">
<polygon fill="none" stroke="black" points="452,-819.5 452,-838.5 571,-838.5 571,-819.5 452,-819.5"/>
<text text-anchor="middle" x="511.5" y="-826.5" font-family="Helvetica,sans-Serif" font-size="10.00">carta::TimeDelta::ms</text>
</a>
</g>
</g>
<!-- Node1&#45;&gt;Node3 -->
<g id="edge2" class="edge">
<title>Node1&#45;&gt;Node3</title>
<path fill="none" stroke="midnightblue" d="M95.49,-498.01C108.98,-536.55 149.61,-640.34 215,-702 283.16,-766.27 388.9,-800.85 453.69,-817.05"/>
<polygon fill="midnightblue" stroke="midnightblue" points="453.18,-820.52 463.72,-819.49 454.83,-813.72 453.18,-820.52"/>
</g>
<!-- Node4 -->
<g id="node4" class="node">
<title>Node4</title>
<g id="a_node4"><a xlink:href="classcarta_1_1Session.html#ae2f8b2d8d25c937a3c6ec96abc339045" target="_top" xlink:title=" ">
<polygon fill="none" stroke="black" points="223,-662 223,-692 390,-692 390,-662 223,-662"/>
<text text-anchor="start" x="231" y="-680" font-family="Helvetica,sans-Serif" font-size="10.00">carta::Session::OnAddRequired</text>
<text text-anchor="middle" x="306.5" y="-669" font-family="Helvetica,sans-Serif" font-size="10.00">Tiles</text>
</a>
</g>
</g>
<!-- Node1&#45;&gt;Node4 -->
<g id="edge3" class="edge">
<title>Node1&#45;&gt;Node4</title>
<path fill="none" stroke="midnightblue" d="M107.37,-498.22C145.21,-532.36 236.96,-615.16 281.05,-654.94"/>
<polygon fill="midnightblue" stroke="midnightblue" points="278.94,-657.75 288.71,-661.85 283.63,-652.55 278.94,-657.75"/>
</g>
<!-- Node16 -->
<g id="node16" class="node">
<title>Node16</title>
<g id="a_node16"><a xlink:href="classcarta_1_1Session.html#abf2d92e46ffc218b0e6e2685bf4ffb72" target="_top" xlink:title=" ">
<polygon fill="none" stroke="black" points="625,-424.5 625,-443.5 801,-443.5 801,-424.5 625,-424.5"/>
<text text-anchor="middle" x="713" y="-431.5" font-family="Helvetica,sans-Serif" font-size="10.00">carta::Session::SendContourData</text>
</a>
</g>
</g>
<!-- Node1&#45;&gt;Node16 -->
<g id="edge17" class="edge">
<title>Node1&#45;&gt;Node16</title>
<path fill="none" stroke="midnightblue" d="M179.12,-490.92C279.45,-497.85 447.35,-503.3 589,-478 621.97,-472.11 657.82,-458.38 682.27,-447.81"/>
<polygon fill="midnightblue" stroke="midnightblue" points="683.95,-450.89 691.69,-443.65 681.12,-444.49 683.95,-450.89"/>
</g>
<!-- Node20 -->
<g id="node20" class="node">
<title>Node20</title>
<g id="a_node20"><a xlink:href="classcarta_1_1Session.html#a9614e33dea4622ec90432fa7aad7a451" target="_top" xlink:title=" ">
<polygon fill="none" stroke="black" points="844,-293.5 844,-312.5 1004,-312.5 1004,-293.5 844,-293.5"/>
<text text-anchor="middle" x="924" y="-300.5" font-family="Helvetica,sans-Serif" font-size="10.00">carta::Session::SendLogEvent</text>
</a>
</g>
</g>
<!-- Node1&#45;&gt;Node20 -->
<g id="edge25" class="edge">
<title>Node1&#45;&gt;Node20</title>
<path fill="none" stroke="midnightblue" d="M97.45,-467.99C113.68,-434.4 157.1,-352.22 215,-303 297.1,-233.21 328.89,-222.69 434,-199 593.36,-163.08 652.21,-151.58 801,-219 821.05,-228.08 819.37,-239.83 837,-253 855.21,-266.61 877.43,-279.44 894.72,-288.7"/>
<polygon fill="midnightblue" stroke="midnightblue" points="893.28,-291.9 903.76,-293.45 896.54,-285.7 893.28,-291.9"/>
</g>
<!-- Node22 -->
<g id="node22" class="node">
<title>Node22</title>
<g id="a_node22"><a xlink:href="classcarta_1_1Session.html#a2535a06bd2e8a13e99c775d895f6024a" target="_top" xlink:title=" ">
<polygon fill="none" stroke="black" points="640,-337 640,-367 786,-367 786,-337 640,-337"/>
<text text-anchor="start" x="648" y="-355" font-family="Helvetica,sans-Serif" font-size="10.00">carta::Session::SendVector</text>
<text text-anchor="middle" x="713" y="-344" font-family="Helvetica,sans-Serif" font-size="10.00">FieldData</text>
</a>
</g>
</g>
<!-- Node1&#45;&gt;Node22 -->
<g id="edge26" class="edge">
<title>Node1&#45;&gt;Node22</title>
<path fill="none" stroke="midnightblue" d="M179.13,-482.68C301.98,-481.15 517.02,-474.2 589,-445 608.3,-437.17 608.56,-427.78 625,-415 643.56,-400.58 664.93,-385.09 681.85,-373.07"/>
<polygon fill="midnightblue" stroke="midnightblue" points="684.1,-375.76 690.25,-367.13 680.06,-370.05 684.1,-375.76"/>
</g>
<!-- Node23 -->
<g id="node23" class="node">
<title>Node23</title>
<g id="a_node23"><a xlink:href="classcarta_1_1Session.html#aef4b334b4727ea531b229d242c3108b2" target="_top" xlink:title=" ">
<polygon fill="none" stroke="black" points="216.5,-361.5 216.5,-380.5 396.5,-380.5 396.5,-361.5 216.5,-361.5"/>
<text text-anchor="middle" x="306.5" y="-368.5" font-family="Helvetica,sans-Serif" font-size="10.00">carta::Session::UpdateImageData</text>
</a>
</g>
</g>
<!-- Node1&#45;&gt;Node23 -->
<g id="edge29" class="edge">
<title>Node1&#45;&gt;Node23</title>
<path fill="none" stroke="midnightblue" d="M119.5,-467.9C161.09,-446.23 237.17,-406.6 277.95,-385.35"/>
<polygon fill="midnightblue" stroke="midnightblue" points="279.79,-388.34 287.04,-380.62 276.56,-382.13 279.79,-388.34"/>
</g>
<!-- Node42 -->
<g id="node42" class="node">
<title>Node42</title>
<g id="a_node42"><a xlink:href="classcarta_1_1Session.html#ac86d5f7886628a9429955f05426f25ab" target="_top" xlink:title=" ">
<polygon fill="none" stroke="black" points="215,-312.5 215,-331.5 398,-331.5 398,-312.5 215,-312.5"/>
<text text-anchor="middle" x="306.5" y="-319.5" font-family="Helvetica,sans-Serif" font-size="10.00">carta::Session::UpdateRegionData</text>
</a>
</g>
</g>
<!-- Node1&#45;&gt;Node42 -->
<g id="edge56" class="edge">
<title>Node1&#45;&gt;Node42</title>
<path fill="none" stroke="midnightblue" d="M101.02,-467.74C120.47,-440.63 164.67,-383.94 215,-352 226.47,-344.72 239.89,-339.03 252.83,-334.65"/>
<polygon fill="midnightblue" stroke="midnightblue" points="254.11,-337.91 262.59,-331.55 252,-331.24 254.11,-337.91"/>
</g>
<!-- Node4&#45;&gt;Node2 -->
<g id="edge7" class="edge">
<title>Node4&#45;&gt;Node2</title>
<path fill="none" stroke="midnightblue" d="M390.02,-690.73C404.63,-692.78 419.74,-694.66 434,-696 583.14,-710.05 758.82,-713.76 853.72,-714.71"/>
<polygon fill="midnightblue" stroke="midnightblue" points="853.74,-718.21 863.77,-714.8 853.8,-711.21 853.74,-718.21"/>
</g>
<!-- Node4&#45;&gt;Node3 -->
<g id="edge8" class="edge">
<title>Node4&#45;&gt;Node3</title>
<path fill="none" stroke="midnightblue" d="M325.8,-692.17C344.79,-708.33 374.89,-735.08 398,-761 415.98,-781.17 411.55,-794.96 434,-810 437.08,-812.06 440.37,-813.9 443.78,-815.54"/>
<polygon fill="midnightblue" stroke="midnightblue" points="442.48,-818.79 453.05,-819.44 445.19,-812.34 442.48,-818.79"/>
</g>
<!-- Node5 -->
<g id="node5" class="node">
<title>Node5</title>
<g id="a_node5"><a xlink:href="classcarta_1_1Session.html#ae5fd18bfcf840d630f3c136e9c5671a8" target="_top" xlink:title=" ">
<polygon fill="none" stroke="black" points="441,-618 441,-648 582,-648 582,-618 441,-618"/>
<text text-anchor="start" x="449" y="-636" font-family="Helvetica,sans-Serif" font-size="10.00">carta::Session::Animation</text>
<text text-anchor="middle" x="511.5" y="-625" font-family="Helvetica,sans-Serif" font-size="10.00">Running</text>
</a>
</g>
</g>
<!-- Node4&#45;&gt;Node5 -->
<g id="edge4" class="edge">
<title>Node4&#45;&gt;Node5</title>
<path fill="none" stroke="midnightblue" d="M376.79,-661.98C394.33,-658.18 413.31,-654.07 431.3,-650.17"/>
<polygon fill="midnightblue" stroke="midnightblue" points="432.14,-653.57 441.17,-648.03 430.66,-646.72 432.14,-653.57"/>
</g>
<!-- Node6 -->
<g id="node6" class="node">
<title>Node6</title>
<g id="a_node6"><a xlink:href="classcarta_1_1ThreadManager.html#a82cbb5d8370c091ac96c24d0fc4984dc" target="_top" xlink:title=" ">
<polygon fill="none" stroke="black" points="449.5,-569 449.5,-599 573.5,-599 573.5,-569 449.5,-569"/>
<text text-anchor="start" x="457.5" y="-587" font-family="Helvetica,sans-Serif" font-size="10.00">carta::ThreadManager</text>
<text text-anchor="middle" x="511.5" y="-576" font-family="Helvetica,sans-Serif" font-size="10.00">::ApplyThreadLimit</text>
</a>
</g>
</g>
<!-- Node4&#45;&gt;Node6 -->
<g id="edge5" class="edge">
<title>Node4&#45;&gt;Node6</title>
<path fill="none" stroke="midnightblue" d="M332.52,-661.83C357.58,-647.06 397.56,-624.6 434,-609 439.35,-606.71 444.98,-604.5 450.66,-602.41"/>
<polygon fill="midnightblue" stroke="midnightblue" points="451.98,-605.66 460.23,-599.01 449.64,-599.06 451.98,-605.66"/>
</g>
<!-- Node7 -->
<g id="node7" class="node">
<title>Node7</title>
<g id="a_node7"><a xlink:href="structcarta_1_1Tile.html#a3bb9a6a862540de876a281145ab80e92" target="_top" xlink:title=" ">
<polygon fill="none" stroke="black" points="457.5,-781.5 457.5,-800.5 565.5,-800.5 565.5,-781.5 457.5,-781.5"/>
<text text-anchor="middle" x="511.5" y="-788.5" font-family="Helvetica,sans-Serif" font-size="10.00">carta::Tile::Decode</text>
</a>
</g>
</g>
<!-- Node4&#45;&gt;Node7 -->
<g id="edge6" class="edge">
<title>Node4&#45;&gt;Node7</title>
<path fill="none" stroke="midnightblue" d="M323.28,-692.24C345.94,-713.28 389.85,-751.01 434,-772 439.02,-774.39 444.37,-776.49 449.83,-778.35"/>
<polygon fill="midnightblue" stroke="midnightblue" points="449.12,-781.8 459.71,-781.43 451.2,-775.11 449.12,-781.8"/>
</g>
<!-- Node8 -->
<g id="node8" class="node">
<title>Node8</title>
<g id="a_node8"><a xlink:href="classMessage.html#ac700107151a549f518c77c36f36aea7e" target="_top" xlink:title=" ">
<polygon fill="none" stroke="black" points="442,-743.5 442,-762.5 581,-762.5 581,-743.5 442,-743.5"/>
<text text-anchor="middle" x="511.5" y="-750.5" font-family="Helvetica,sans-Serif" font-size="10.00">Message::RasterTileData</text>
</a>
</g>
</g>
<!-- Node4&#45;&gt;Node8 -->
<g id="edge9" class="edge">
<title>Node4&#45;&gt;Node8</title>
<path fill="none" stroke="midnightblue" d="M341.82,-692.04C367.09,-702.89 402.4,-717.57 434,-729 445.04,-732.99 457.1,-736.96 468.32,-740.48"/>
<polygon fill="midnightblue" stroke="midnightblue" points="467.32,-743.84 477.91,-743.45 469.39,-737.15 467.32,-743.84"/>
</g>
<!-- Node9 -->
<g id="node9" class="node">
<title>Node9</title>
<g id="a_node9"><a xlink:href="classMessage.html#abfe5e236035c2d079cb30cf181d500f5" target="_top" xlink:title=" ">
<polygon fill="none" stroke="black" points="442,-667.5 442,-686.5 581,-686.5 581,-667.5 442,-667.5"/>
<text text-anchor="middle" x="511.5" y="-674.5" font-family="Helvetica,sans-Serif" font-size="10.00">Message::RasterTileSync</text>
</a>
</g>
</g>
<!-- Node4&#45;&gt;Node9 -->
<g id="edge10" class="edge">
<title>Node4&#45;&gt;Node9</title>
<path fill="none" stroke="midnightblue" d="M390.07,-677C403.8,-677 418.01,-677 431.65,-677"/>
<polygon fill="midnightblue" stroke="midnightblue" points="431.95,-680.5 441.95,-677 431.95,-673.5 431.95,-680.5"/>
</g>
<!-- Node10 -->
<g id="node10" class="node">
<title>Node10</title>
<g id="a_node10"><a xlink:href="classcarta_1_1Session.html#ae6ff58d2a61d3872bc741f12ed2b91d7" target="_top" xlink:title=" ">
<polygon fill="none" stroke="black" points="858,-336 858,-366 990,-366 990,-336 858,-336"/>
<text text-anchor="start" x="866" y="-354" font-family="Helvetica,sans-Serif" font-size="10.00">carta::Session::SendFile</text>
<text text-anchor="middle" x="924" y="-343" font-family="Helvetica,sans-Serif" font-size="10.00">Event</text>
</a>
</g>
</g>
<!-- Node4&#45;&gt;Node10 -->
<g id="edge11" class="edge">
<title>Node4&#45;&gt;Node10</title>
<path fill="none" stroke="midnightblue" d="M319.84,-661.69C340.74,-636.75 385.58,-587.41 434,-560 581.86,-476.31 671.43,-562.91 801,-453 829.2,-429.08 809.05,-402.21 837,-378 840.65,-374.84 844.67,-372.04 848.92,-369.58"/>
<polygon fill="midnightblue" stroke="midnightblue" points="850.62,-372.64 857.92,-364.96 847.43,-366.41 850.62,-372.64"/>
</g>
<!-- Node11 -->
<g id="node11" class="node">
<title>Node11</title>
<g id="a_node11"><a xlink:href="classcarta_1_1Session.html#af5f45b72e3fb7d4ad6fbf32fcc9da912" target="_top" xlink:title=" ">
<polygon fill="none" stroke="black" points="1072.5,-336.5 1072.5,-355.5 1215.5,-355.5 1215.5,-336.5 1072.5,-336.5"/>
<text text-anchor="middle" x="1144" y="-343.5" font-family="Helvetica,sans-Serif" font-size="10.00">carta::Session::SendEvent</text>
</a>
</g>
</g>
<!-- Node10&#45;&gt;Node11 -->
<g id="edge12" class="edge">
<title>Node10&#45;&gt;Node11</title>
<path fill="none" stroke="midnightblue" d="M990.11,-349.51C1012.73,-348.99 1038.37,-348.4 1062.1,-347.86"/>
<polygon fill="midnightblue" stroke="midnightblue" points="1062.22,-351.35 1072.14,-347.63 1062.06,-344.36 1062.22,-351.35"/>
</g>
<!-- Node12 -->
<g id="node12" class="node">
<title>Node12</title>
<g id="a_node12"><a xlink:href="namespacecarta_1_1logger.html#ab9e339746ee51ea21696ab43b50841d5" target="_top" xlink:title=" ">
<polygon fill="none" stroke="black" points="1277,-336.5 1277,-355.5 1450,-355.5 1450,-336.5 1277,-336.5"/>
<text text-anchor="middle" x="1363.5" y="-343.5" font-family="Helvetica,sans-Serif" font-size="10.00">carta::logger::LogSentEventType</text>
</a>
</g>
</g>
<!-- Node11&#45;&gt;Node12 -->
<g id="edge13" class="edge">
<title>Node11&#45;&gt;Node12</title>
<path fill="none" stroke="midnightblue" d="M1215.62,-346C1231.9,-346 1249.48,-346 1266.63,-346"/>
<polygon fill="midnightblue" stroke="midnightblue" points="1266.67,-349.5 1276.67,-346 1266.67,-342.5 1266.67,-349.5"/>
</g>
<!-- Node14 -->
<g id="node14" class="node">
<title>Node14</title>
<g id="a_node14"><a xlink:href="classcarta_1_1concurrent__queue.html#ab1a11795f017e1c7dd870fce5da5ede1" target="_top" xlink:title=" ">
<polygon fill="none" stroke="black" points="1296.5,-287 1296.5,-317 1430.5,-317 1430.5,-287 1296.5,-287"/>
<text text-anchor="start" x="1304.5" y="-305" font-family="Helvetica,sans-Serif" font-size="10.00">carta::concurrent_queue</text>
<text text-anchor="middle" x="1363.5" y="-294" font-family="Helvetica,sans-Serif" font-size="10.00">::push</text>
</a>
</g>
</g>
<!-- Node11&#45;&gt;Node14 -->
<g id="edge15" class="edge">
<title>Node11&#45;&gt;Node14</title>
<path fill="none" stroke="midnightblue" d="M1192.19,-336.45C1219.7,-330.89 1255.04,-323.74 1286.4,-317.4"/>
<polygon fill="midnightblue" stroke="midnightblue" points="1287.31,-320.78 1296.42,-315.37 1285.93,-313.92 1287.31,-320.78"/>
</g>
<!-- Node15 -->
<g id="node15" class="node">
<title>Node15</title>
<g id="a_node15"><a xlink:href="classcarta_1_1concurrent__queue.html#a44dc990ae7a71921648cad573058357d" target="_top" xlink:title=" ">
<polygon fill="none" stroke="black" points="1296.5,-375 1296.5,-405 1430.5,-405 1430.5,-375 1296.5,-375"/>
<text text-anchor="start" x="1304.5" y="-393" font-family="Helvetica,sans-Serif" font-size="10.00">carta::concurrent_queue</text>
<text text-anchor="middle" x="1363.5" y="-382" font-family="Helvetica,sans-Serif" font-size="10.00">::try_pop</text>
</a>
</g>
</g>
<!-- Node11&#45;&gt;Node15 -->
<g id="edge16" class="edge">
<title>Node11&#45;&gt;Node15</title>
<path fill="none" stroke="midnightblue" d="M1192.19,-355.55C1219.7,-361.11 1255.04,-368.26 1286.4,-374.6"/>
<polygon fill="midnightblue" stroke="midnightblue" points="1285.93,-378.08 1296.42,-376.63 1287.31,-371.22 1285.93,-378.08"/>
</g>
<!-- Node13 -->
<g id="node13" class="node">
<title>Node13</title>
<g id="a_node13"><a xlink:href="namespacecarta_1_1logger.html#a23c9bf75209165cf69eb8d50f64b81b4" target="_top" xlink:title=" ">
<polygon fill="none" stroke="black" points="1486,-331 1486,-361 1602,-361 1602,-331 1486,-331"/>
<text text-anchor="start" x="1494" y="-349" font-family="Helvetica,sans-Serif" font-size="10.00">carta::logger::log</text>
<text text-anchor="middle" x="1544" y="-338" font-family="Helvetica,sans-Serif" font-size="10.00">_protocol_messages</text>
</a>
</g>
</g>
<!-- Node12&#45;&gt;Node13 -->
<g id="edge14" class="edge">
<title>Node12&#45;&gt;Node13</title>
<path fill="none" stroke="midnightblue" d="M1450.09,-346C1458.74,-346 1467.44,-346 1475.86,-346"/>
<polygon fill="midnightblue" stroke="midnightblue" points="1475.96,-349.5 1485.96,-346 1475.96,-342.5 1475.96,-349.5"/>
</g>
<!-- Node16&#45;&gt;Node10 -->
<g id="edge21" class="edge">
<title>Node16&#45;&gt;Node10</title>
<path fill="none" stroke="midnightblue" d="M763.84,-424.44C776.41,-420.92 789.57,-416.21 801,-410 819.81,-399.78 818.37,-388.55 837,-378 842.36,-374.96 848.11,-372.22 853.99,-369.76"/>
<polygon fill="midnightblue" stroke="midnightblue" points="855.29,-373.01 863.32,-366.11 852.74,-366.49 855.29,-373.01"/>
</g>
<!-- Node17 -->
<g id="node17" class="node">
<title>Node17</title>
<g id="a_node17"><a xlink:href="classMessage.html#a281caf592c92b9f16c878afc8446188b" target="_top" xlink:title=" ">
<polygon fill="none" stroke="black" points="845,-425.5 845,-444.5 1003,-444.5 1003,-425.5 845,-425.5"/>
<text text-anchor="middle" x="924" y="-432.5" font-family="Helvetica,sans-Serif" font-size="10.00">Message::ContourImageData</text>
</a>
</g>
</g>
<!-- Node16&#45;&gt;Node17 -->
<g id="edge18" class="edge">
<title>Node16&#45;&gt;Node17</title>
<path fill="none" stroke="midnightblue" d="M801.12,-434.42C812.18,-434.47 823.51,-434.52 834.6,-434.58"/>
<polygon fill="midnightblue" stroke="midnightblue" points="834.67,-438.08 844.69,-434.63 834.71,-431.08 834.67,-438.08"/>
</g>
<!-- Node18 -->
<g id="node18" class="node">
<title>Node18</title>
<g id="a_node18"><a xlink:href="namespacecarta.html#a075ee64ae108d46c43cdb9a37b54d442" target="_top" xlink:title=" ">
<polygon fill="none" stroke="black" points="838.5,-387.5 838.5,-406.5 1009.5,-406.5 1009.5,-387.5 838.5,-387.5"/>
<text text-anchor="middle" x="924" y="-394.5" font-family="Helvetica,sans-Serif" font-size="10.00">carta::RoundAndEncodeVertices</text>
</a>
</g>
</g>
<!-- Node16&#45;&gt;Node18 -->
<g id="edge19" class="edge">
<title>Node16&#45;&gt;Node18</title>
<path fill="none" stroke="midnightblue" d="M767.82,-424.47C795.63,-419.55 829.75,-413.51 858.91,-408.35"/>
<polygon fill="midnightblue" stroke="midnightblue" points="859.76,-411.75 869,-406.56 858.54,-404.86 859.76,-411.75"/>
</g>
<!-- Node16&#45;&gt;Node20 -->
<g id="edge22" class="edge">
<title>Node16&#45;&gt;Node20</title>
<path fill="none" stroke="midnightblue" d="M732.72,-424.39C751.36,-414.25 780.13,-396.97 801,-377 820.78,-358.07 814.55,-342.67 837,-327 843.35,-322.57 850.49,-318.96 857.87,-316.01"/>
<polygon fill="midnightblue" stroke="midnightblue" points="859.09,-319.29 867.31,-312.62 856.72,-312.7 859.09,-319.29"/>
</g>
<!-- Node19 -->
<g id="node19" class="node">
<title>Node19</title>
<g id="a_node19"><a xlink:href="namespacecarta.html#ae0d37b236270de77bb23613108e10258" target="_top" xlink:title=" ">
<polygon fill="none" stroke="black" points="1083,-387.5 1083,-406.5 1205,-406.5 1205,-387.5 1083,-387.5"/>
<text text-anchor="middle" x="1144" y="-394.5" font-family="Helvetica,sans-Serif" font-size="10.00">carta::EncodeIntegers</text>
</a>
</g>
</g>
<!-- Node18&#45;&gt;Node19 -->
<g id="edge20" class="edge">
<title>Node18&#45;&gt;Node19</title>
<path fill="none" stroke="midnightblue" d="M1009.6,-397C1030.48,-397 1052.63,-397 1072.75,-397"/>
<polygon fill="midnightblue" stroke="midnightblue" points="1072.76,-400.5 1082.76,-397 1072.76,-393.5 1072.76,-400.5"/>
</g>
<!-- Node20&#45;&gt;Node11 -->
<g id="edge24" class="edge">
<title>Node20&#45;&gt;Node11</title>
<path fill="none" stroke="midnightblue" d="M973.38,-312.54C1006.26,-319.03 1049.93,-327.64 1084.73,-334.51"/>
<polygon fill="midnightblue" stroke="midnightblue" points="1084.27,-337.98 1094.75,-336.48 1085.62,-331.11 1084.27,-337.98"/>
</g>
<!-- Node21 -->
<g id="node21" class="node">
<title>Node21</title>
<g id="a_node21"><a xlink:href="classMessage.html#a99e84f303d54a46b1cf582bf343c7f29" target="_top" xlink:title=" ">
<polygon fill="none" stroke="black" points="1087.5,-293.5 1087.5,-312.5 1200.5,-312.5 1200.5,-293.5 1087.5,-293.5"/>
<text text-anchor="middle" x="1144" y="-300.5" font-family="Helvetica,sans-Serif" font-size="10.00">Message::ErrorData</text>
</a>
</g>
</g>
<!-- Node20&#45;&gt;Node21 -->
<g id="edge23" class="edge">
<title>Node20&#45;&gt;Node21</title>
<path fill="none" stroke="midnightblue" d="M1004.01,-303C1028.11,-303 1054.32,-303 1077.42,-303"/>
<polygon fill="midnightblue" stroke="midnightblue" points="1077.46,-306.5 1087.46,-303 1077.46,-299.5 1077.46,-306.5"/>
</g>
<!-- Node22&#45;&gt;Node10 -->
<g id="edge27" class="edge">
<title>Node22&#45;&gt;Node10</title>
<path fill="none" stroke="midnightblue" d="M786.22,-351.65C806.1,-351.56 827.72,-351.46 847.77,-351.36"/>
<polygon fill="midnightblue" stroke="midnightblue" points="847.8,-354.86 857.78,-351.31 847.76,-347.86 847.8,-354.86"/>
</g>
<!-- Node22&#45;&gt;Node20 -->
<g id="edge28" class="edge">
<title>Node22&#45;&gt;Node20</title>
<path fill="none" stroke="midnightblue" d="M778.13,-336.97C808.37,-329.87 843.95,-321.53 872.27,-314.89"/>
<polygon fill="midnightblue" stroke="midnightblue" points="873.42,-318.22 882.36,-312.53 871.83,-311.4 873.42,-318.22"/>
</g>
<!-- Node24 -->
<g id="node24" class="node">
<title>Node24</title>
<g id="a_node24"><a xlink:href="classcarta_1_1Session.html#a36ede4133a5424416c8e085af6387fee" target="_top" xlink:title=" ">
<polygon fill="none" stroke="black" points="437,-209 437,-239 586,-239 586,-209 437,-209"/>
<text text-anchor="start" x="445" y="-227" font-family="Helvetica,sans-Serif" font-size="10.00">carta::Session::SendRegion</text>
<text text-anchor="middle" x="511.5" y="-216" font-family="Helvetica,sans-Serif" font-size="10.00">HistogramData</text>
</a>
</g>
</g>
<!-- Node23&#45;&gt;Node24 -->
<g id="edge30" class="edge">
<title>Node23&#45;&gt;Node24</title>
<path fill="none" stroke="midnightblue" d="M362,-361.39C375.04,-356.96 388.05,-350.47 398,-341 430.1,-310.44 401.65,-278.3 434,-248 435.14,-246.93 436.33,-245.91 437.56,-244.93"/>
<polygon fill="midnightblue" stroke="midnightblue" points="439.87,-247.6 446.22,-239.12 435.96,-241.79 439.87,-247.6"/>
</g>
<!-- Node38 -->
<g id="node38" class="node">
<title>Node38</title>
<g id="a_node38"><a xlink:href="classcarta_1_1Session.html#a5fd62896cf8474c7b37c27093a24459e" target="_top" xlink:title=" ">
<polygon fill="none" stroke="black" points="437,-356 437,-386 586,-386 586,-356 437,-356"/>
<text text-anchor="start" x="445" y="-374" font-family="Helvetica,sans-Serif" font-size="10.00">carta::Session::SendRegion</text>
<text text-anchor="middle" x="511.5" y="-363" font-family="Helvetica,sans-Serif" font-size="10.00">StatsData</text>
</a>
</g>
</g>
<!-- Node23&#45;&gt;Node38 -->
<g id="edge49" class="edge">
<title>Node23&#45;&gt;Node38</title>
<path fill="none" stroke="midnightblue" d="M396.54,-371C406.5,-371 416.63,-371 426.52,-371"/>
<polygon fill="midnightblue" stroke="midnightblue" points="426.73,-374.5 436.73,-371 426.73,-367.5 426.73,-374.5"/>
</g>
<!-- Node39 -->
<g id="node39" class="node">
<title>Node39</title>
<g id="a_node39"><a xlink:href="classcarta_1_1Session.html#a85b4eb14c9181087b03046119b117789" target="_top" xlink:title=" ">
<polygon fill="none" stroke="black" points="437,-405 437,-435 586,-435 586,-405 437,-405"/>
<text text-anchor="start" x="445" y="-423" font-family="Helvetica,sans-Serif" font-size="10.00">carta::Session::SendSpatial</text>
<text text-anchor="middle" x="511.5" y="-412" font-family="Helvetica,sans-Serif" font-size="10.00">ProfileDataByFileId</text>
</a>
</g>
</g>
<!-- Node23&#45;&gt;Node39 -->
<g id="edge51" class="edge">
<title>Node23&#45;&gt;Node39</title>
<path fill="none" stroke="midnightblue" d="M347.12,-380.56C373.05,-386.82 407.68,-395.18 438.39,-402.59"/>
<polygon fill="midnightblue" stroke="midnightblue" points="437.66,-406.02 448.2,-404.96 439.3,-399.21 437.66,-406.02"/>
</g>
<!-- Node41 -->
<g id="node41" class="node">
<title>Node41</title>
<g id="a_node41"><a xlink:href="classcarta_1_1Session.html#a64e272e7aec6edd051745e773d47c0f2" target="_top" xlink:title=" ">
<polygon fill="none" stroke="black" points="434,-307 434,-337 589,-337 589,-307 434,-307"/>
<text text-anchor="start" x="442" y="-325" font-family="Helvetica,sans-Serif" font-size="10.00">carta::Session::SendSpectral</text>
<text text-anchor="middle" x="511.5" y="-314" font-family="Helvetica,sans-Serif" font-size="10.00">ProfileData</text>
</a>
</g>
</g>
<!-- Node23&#45;&gt;Node41 -->
<g id="edge55" class="edge">
<title>Node23&#45;&gt;Node41</title>
<path fill="none" stroke="midnightblue" d="M347.12,-361.44C373.05,-355.18 407.68,-346.82 438.39,-339.41"/>
<polygon fill="midnightblue" stroke="midnightblue" points="439.3,-342.79 448.2,-337.04 437.66,-335.98 439.3,-342.79"/>
</g>
<!-- Node24&#45;&gt;Node10 -->
<g id="edge47" class="edge">
<title>Node24&#45;&gt;Node10</title>
<path fill="none" stroke="midnightblue" d="M586.32,-237.78C671.71,-253.72 800.71,-277.83 801,-278 822.74,-290.88 816.22,-307.63 837,-322 842.27,-325.65 848.04,-328.87 854.02,-331.7"/>
<polygon fill="midnightblue" stroke="midnightblue" points="852.97,-335.07 863.53,-335.85 855.76,-328.65 852.97,-335.07"/>
</g>
<!-- Node24&#45;&gt;Node20 -->
<g id="edge48" class="edge">
<title>Node24&#45;&gt;Node20</title>
<path fill="none" stroke="midnightblue" d="M586.05,-221.93C645.09,-222.02 729.63,-226.15 801,-245 836.83,-254.46 874.91,-274.34 898.81,-288.17"/>
<polygon fill="midnightblue" stroke="midnightblue" points="897.15,-291.26 907.54,-293.32 900.71,-285.23 897.15,-291.26"/>
</g>
<!-- Node25 -->
<g id="node25" class="node">
<title>Node25</title>
<g id="a_node25"><a xlink:href="classcarta_1_1Session.html#aa9e908b20d1e35ff162cc1f361dbfe56" target="_top" xlink:title=" ">
<polygon fill="none" stroke="black" points="644.5,-124 644.5,-154 781.5,-154 781.5,-124 644.5,-124"/>
<text text-anchor="start" x="652.5" y="-142" font-family="Helvetica,sans-Serif" font-size="10.00">carta::Session::Calculate</text>
<text text-anchor="middle" x="713" y="-131" font-family="Helvetica,sans-Serif" font-size="10.00">CubeHistogram</text>
</a>
</g>
</g>
<!-- Node24&#45;&gt;Node25 -->
<g id="edge31" class="edge">
<title>Node24&#45;&gt;Node25</title>
<path fill="none" stroke="midnightblue" d="M547.71,-209C580.98,-194.82 631.03,-173.5 667.15,-158.11"/>
<polygon fill="midnightblue" stroke="midnightblue" points="668.65,-161.28 676.47,-154.14 665.9,-154.84 668.65,-161.28"/>
</g>
<!-- Node25&#45;&gt;Node2 -->
<g id="edge39" class="edge">
<title>Node25&#45;&gt;Node2</title>
<path fill="none" stroke="midnightblue" d="M726.16,-154.26C745.11,-178.83 781.55,-229.36 801,-278 830.65,-352.13 816.47,-376.84 837,-454 861.43,-545.81 899.89,-652.7 915.77,-695.67"/>
<polygon fill="midnightblue" stroke="midnightblue" points="912.53,-697.01 919.3,-705.17 919.1,-694.58 912.53,-697.01"/>
</g>
<!-- Node25&#45;&gt;Node10 -->
<g id="edge45" class="edge">
<title>Node25&#45;&gt;Node10</title>
<path fill="none" stroke="midnightblue" d="M728.58,-154.21C747.03,-174 779.04,-210.15 801,-245 821.14,-276.96 808.83,-296.83 837,-322 840.87,-325.46 845.16,-328.5 849.71,-331.19"/>
<polygon fill="midnightblue" stroke="midnightblue" points="848.23,-334.37 858.72,-335.92 851.49,-328.17 848.23,-334.37"/>
</g>
<!-- Node25&#45;&gt;Node20 -->
<g id="edge46" class="edge">
<title>Node25&#45;&gt;Node20</title>
<path fill="none" stroke="midnightblue" d="M778.33,-154.17C786.6,-158.05 794.45,-162.91 801,-169 830.75,-196.66 810.08,-222.59 837,-253 850.91,-268.71 870.99,-280.77 888.24,-289.11"/>
<polygon fill="midnightblue" stroke="midnightblue" points="886.94,-292.36 897.49,-293.36 889.86,-286 886.94,-292.36"/>
</g>
<!-- Node26 -->
<g id="node26" class="node">
<title>Node26</title>
<g id="a_node26"><a xlink:href="classcarta_1_1Histogram.html#a56e2b8bfafd357f89b9197487c20446e" target="_top" xlink:title=" ">
<polygon fill="none" stroke="black" points="862.5,-148.5 862.5,-167.5 985.5,-167.5 985.5,-148.5 862.5,-148.5"/>
<text text-anchor="middle" x="924" y="-155.5" font-family="Helvetica,sans-Serif" font-size="10.00">carta::Histogram::Add</text>
</a>
</g>
</g>
<!-- Node25&#45;&gt;Node26 -->
<g id="edge32" class="edge">
<title>Node25&#45;&gt;Node26</title>
<path fill="none" stroke="midnightblue" d="M781.57,-145.14C804.22,-147.2 829.52,-149.5 852.39,-151.58"/>
<polygon fill="midnightblue" stroke="midnightblue" points="852.1,-155.07 862.37,-152.49 852.73,-148.1 852.1,-155.07"/>
</g>
<!-- Node33 -->
<g id="node33" class="node">
<title>Node33</title>
<g id="a_node33"><a xlink:href="Message_8cc.html#aadf644bd365f0198b09a7196f9990511" target="_top" xlink:title=" ">
<polygon fill="none" stroke="black" points="883,-110.5 883,-129.5 965,-129.5 965,-110.5 883,-110.5"/>
<text text-anchor="middle" x="924" y="-117.5" font-family="Helvetica,sans-Serif" font-size="10.00">FillHistogram</text>
</a>
</g>
</g>
<!-- Node25&#45;&gt;Node33 -->
<g id="edge40" class="edge">
<title>Node25&#45;&gt;Node33</title>
<path fill="none" stroke="midnightblue" d="M781.57,-132.86C811.18,-130.17 845.33,-127.06 872.65,-124.58"/>
<polygon fill="midnightblue" stroke="midnightblue" points="873.13,-128.05 882.77,-123.66 872.49,-121.08 873.13,-128.05"/>
</g>
<!-- Node34 -->
<g id="node34" class="node">
<title>Node34</title>
<g id="a_node34"><a xlink:href="structcarta_1_1HistogramConfig.html#aee3b990962e991922bcf9f3779401bcd" target="_top" xlink:title=" ">
<polygon fill="none" stroke="black" points="859.5,-61 859.5,-91 988.5,-91 988.5,-61 859.5,-61"/>
<text text-anchor="start" x="867.5" y="-79" font-family="Helvetica,sans-Serif" font-size="10.00">carta::HistogramConfig</text>
<text text-anchor="middle" x="924" y="-68" font-family="Helvetica,sans-Serif" font-size="10.00">::GetBounds</text>
</a>
</g>
</g>
<!-- Node25&#45;&gt;Node34 -->
<g id="edge41" class="edge">
<title>Node25&#45;&gt;Node34</title>
<path fill="none" stroke="midnightblue" d="M762.14,-123.92C784.82,-116.87 812.27,-108.41 837,-101 844.73,-98.68 852.86,-96.28 860.91,-93.92"/>
<polygon fill="midnightblue" stroke="midnightblue" points="862.04,-97.23 870.66,-91.06 860.08,-90.51 862.04,-97.23"/>
</g>
<!-- Node35 -->
<g id="node35" class="node">
<title>Node35</title>
<g id="a_node35"><a xlink:href="classcarta_1_1SessionContext.html#a28e9e5c979d1c244253a92f69b156c39" target="_top" xlink:title=" ">
<polygon fill="none" stroke="black" points="862.5,-0.5 862.5,-41.5 985.5,-41.5 985.5,-0.5 862.5,-0.5"/>
<text text-anchor="start" x="870.5" y="-29.5" font-family="Helvetica,sans-Serif" font-size="10.00">carta::SessionContext</text>
<text text-anchor="start" x="870.5" y="-18.5" font-family="Helvetica,sans-Serif" font-size="10.00">::is_group_execution</text>
<text text-anchor="middle" x="924" y="-7.5" font-family="Helvetica,sans-Serif" font-size="10.00">_cancelled</text>
</a>
</g>
</g>
<!-- Node25&#45;&gt;Node35 -->
<g id="edge42" class="edge">
<title>Node25&#45;&gt;Node35</title>
<path fill="none" stroke="midnightblue" d="M731.69,-123.84C754.68,-104.75 796.67,-71.91 837,-51 842.13,-48.34 847.54,-45.83 853.05,-43.48"/>
<polygon fill="midnightblue" stroke="midnightblue" points="854.45,-46.69 862.4,-39.68 851.82,-40.21 854.45,-46.69"/>
</g>
<!-- Node36 -->
<g id="node36" class="node">
<title>Node36</title>
<g id="a_node36"><a xlink:href="structcarta_1_1BasicStats.html#a536adffa874e62bc21b8764a77ce09fd" target="_top" xlink:title=" ">
<polygon fill="none" stroke="black" points="863,-224.5 863,-243.5 985,-243.5 985,-224.5 863,-224.5"/>
<text text-anchor="middle" x="924" y="-231.5" font-family="Helvetica,sans-Serif" font-size="10.00">carta::BasicStats::join</text>
</a>
</g>
</g>
<!-- Node25&#45;&gt;Node36 -->
<g id="edge43" class="edge">
<title>Node25&#45;&gt;Node36</title>
<path fill="none" stroke="midnightblue" d="M772.9,-154.11C782.77,-158.07 792.54,-162.97 801,-169 822.14,-184.07 815.03,-201.16 837,-215 841.97,-218.13 847.39,-220.75 853.01,-222.94"/>
<polygon fill="midnightblue" stroke="midnightblue" points="852.01,-226.3 862.61,-226.24 854.29,-219.68 852.01,-226.3"/>
</g>
<!-- Node37 -->
<g id="node37" class="node">
<title>Node37</title>
<g id="a_node37"><a xlink:href="classMessage.html#a730c49c8e93e27faf31796d44748088b" target="_top" xlink:title=" ">
<polygon fill="none" stroke="black" points="837,-186.5 837,-205.5 1011,-205.5 1011,-186.5 837,-186.5"/>
<text text-anchor="middle" x="924" y="-193.5" font-family="Helvetica,sans-Serif" font-size="10.00">Message::RegionHistogramData</text>
</a>
</g>
</g>
<!-- Node25&#45;&gt;Node37 -->
<g id="edge44" class="edge">
<title>Node25&#45;&gt;Node37</title>
<path fill="none" stroke="midnightblue" d="M759.59,-154.07C782.66,-161.44 811.18,-170.17 837,-177 846.53,-179.52 856.72,-181.98 866.63,-184.24"/>
<polygon fill="midnightblue" stroke="midnightblue" points="865.89,-187.66 876.41,-186.44 867.42,-180.83 865.89,-187.66"/>
</g>
<!-- Node27 -->
<g id="node27" class="node">
<title>Node27</title>
<g id="a_node27"><a xlink:href="classcarta_1_1Histogram.html#a81787c73b6b71a8495c8c3ffcf4d7c46" target="_top" xlink:title=" ">
<polygon fill="none" stroke="black" points="1062,-164 1062,-194 1226,-194 1226,-164 1062,-164"/>
<text text-anchor="start" x="1070" y="-182" font-family="Helvetica,sans-Serif" font-size="10.00">carta::Histogram::Consistency</text>
<text text-anchor="middle" x="1144" y="-171" font-family="Helvetica,sans-Serif" font-size="10.00">Check</text>
</a>
</g>
</g>
<!-- Node26&#45;&gt;Node27 -->
<g id="edge33" class="edge">
<title>Node26&#45;&gt;Node27</title>
<path fill="none" stroke="midnightblue" d="M985.73,-163.85C1006.16,-165.82 1029.42,-168.06 1051.68,-170.2"/>
<polygon fill="midnightblue" stroke="midnightblue" points="1051.53,-173.7 1061.82,-171.18 1052.2,-166.74 1051.53,-173.7"/>
</g>
<!-- Node32 -->
<g id="node32" class="node">
<title>Node32</title>
<g id="a_node32"><a xlink:href="classcarta_1_1Histogram.html#a1efcb688ab3b0d60a6216d14d87fef5e" target="_top" xlink:title=" ">
<polygon fill="none" stroke="black" points="1047,-125.5 1047,-144.5 1241,-144.5 1241,-125.5 1047,-125.5"/>
<text text-anchor="middle" x="1144" y="-132.5" font-family="Helvetica,sans-Serif" font-size="10.00">carta::Histogram::GetHistogramBins</text>
</a>
</g>
</g>
<!-- Node26&#45;&gt;Node32 -->
<g id="edge38" class="edge">
<title>Node26&#45;&gt;Node32</title>
<path fill="none" stroke="midnightblue" d="M985.73,-151.59C1003.43,-149.73 1023.26,-147.63 1042.72,-145.58"/>
<polygon fill="midnightblue" stroke="midnightblue" points="1043.27,-149.04 1052.84,-144.51 1042.53,-142.08 1043.27,-149.04"/>
</g>
<!-- Node28 -->
<g id="node28" class="node">
<title>Node28</title>
<g id="a_node28"><a xlink:href="classcarta_1_1Histogram.html#a1002f37e381eb1de20add01e234a8083" target="_top" xlink:title=" ">
<polygon fill="none" stroke="black" points="1284.5,-226.5 1284.5,-245.5 1442.5,-245.5 1442.5,-226.5 1284.5,-226.5"/>
<text text-anchor="middle" x="1363.5" y="-233.5" font-family="Helvetica,sans-Serif" font-size="10.00">carta::Histogram::GetBounds</text>
</a>
</g>
</g>
<!-- Node27&#45;&gt;Node28 -->
<g id="edge34" class="edge">
<title>Node27&#45;&gt;Node28</title>
<path fill="none" stroke="midnightblue" d="M1194.63,-194.07C1219.3,-201.36 1249.62,-210.02 1277,-217 1286.73,-219.48 1297.12,-221.94 1307.19,-224.23"/>
<polygon fill="midnightblue" stroke="midnightblue" points="1306.59,-227.69 1317.12,-226.46 1308.13,-220.86 1306.59,-227.69"/>
</g>
<!-- Node29 -->
<g id="node29" class="node">
<title>Node29</title>
<g id="a_node29"><a xlink:href="classcarta_1_1Histogram.html#ae1f537df539939fde102e25b0b42a9aa" target="_top" xlink:title=" ">
<polygon fill="none" stroke="black" points="1284.5,-188.5 1284.5,-207.5 1442.5,-207.5 1442.5,-188.5 1284.5,-188.5"/>
<text text-anchor="middle" x="1363.5" y="-195.5" font-family="Helvetica,sans-Serif" font-size="10.00">carta::Histogram::GetMaxVal</text>
</a>
</g>
</g>
<!-- Node27&#45;&gt;Node29 -->
<g id="edge35" class="edge">
<title>Node27&#45;&gt;Node29</title>
<path fill="none" stroke="midnightblue" d="M1226.3,-186.1C1241.84,-187.46 1258.18,-188.89 1273.93,-190.26"/>
<polygon fill="midnightblue" stroke="midnightblue" points="1273.92,-193.78 1284.19,-191.16 1274.53,-186.8 1273.92,-193.78"/>
</g>
<!-- Node30 -->
<g id="node30" class="node">
<title>Node30</title>
<g id="a_node30"><a xlink:href="classcarta_1_1Histogram.html#a751eb7e111b661cf77a44995db151a3b" target="_top" xlink:title=" ">
<polygon fill="none" stroke="black" points="1286,-150.5 1286,-169.5 1441,-169.5 1441,-150.5 1286,-150.5"/>
<text text-anchor="middle" x="1363.5" y="-157.5" font-family="Helvetica,sans-Serif" font-size="10.00">carta::Histogram::GetMinVal</text>
</a>
</g>
</g>
<!-- Node27&#45;&gt;Node30 -->
<g id="edge36" class="edge">
<title>Node27&#45;&gt;Node30</title>
<path fill="none" stroke="midnightblue" d="M1226.3,-171.9C1242.49,-170.48 1259.54,-168.99 1275.9,-167.57"/>
<polygon fill="midnightblue" stroke="midnightblue" points="1276.32,-171.04 1285.98,-166.68 1275.71,-164.07 1276.32,-171.04"/>
</g>
<!-- Node31 -->
<g id="node31" class="node">
<title>Node31</title>
<g id="a_node31"><a xlink:href="classcarta_1_1Histogram.html#a70adaf5681547ca8d7aa22550bfb3206" target="_top" xlink:title=" ">
<polygon fill="none" stroke="black" points="1289,-112.5 1289,-131.5 1438,-131.5 1438,-112.5 1289,-112.5"/>
<text text-anchor="middle" x="1363.5" y="-119.5" font-family="Helvetica,sans-Serif" font-size="10.00">carta::Histogram::GetNbins</text>
</a>
</g>
</g>
<!-- Node27&#45;&gt;Node31 -->
<g id="edge37" class="edge">
<title>Node27&#45;&gt;Node31</title>
<path fill="none" stroke="midnightblue" d="M1206.18,-163.97C1217.8,-160.86 1229.81,-157.47 1241,-154 1257.25,-148.96 1260.66,-145.74 1277,-141 1285.79,-138.45 1295.18,-136.04 1304.4,-133.86"/>
<polygon fill="midnightblue" stroke="midnightblue" points="1305.33,-137.24 1314.29,-131.58 1303.76,-130.41 1305.33,-137.24"/>
</g>
<!-- Node38&#45;&gt;Node10 -->
<g id="edge50" class="edge">
<title>Node38&#45;&gt;Node10</title>
<path fill="none" stroke="midnightblue" d="M586.23,-377.62C644.65,-381.64 728.26,-384.66 801,-377 818.55,-375.15 837.3,-371.84 854.69,-368.19"/>
<polygon fill="midnightblue" stroke="midnightblue" points="855.73,-371.55 864.76,-366.01 854.24,-364.71 855.73,-371.55"/>
</g>
<!-- Node40 -->
<g id="node40" class="node">
<title>Node40</title>
<g id="a_node40"><a xlink:href="classcarta_1_1Session.html#a120e85ac57a07414f829a228618ab5fe" target="_top" xlink:title=" ">
<polygon fill="none" stroke="black" points="638.5,-288 638.5,-318 787.5,-318 787.5,-288 638.5,-288"/>
<text text-anchor="start" x="646.5" y="-306" font-family="Helvetica,sans-Serif" font-size="10.00">carta::Session::SendSpatial</text>
<text text-anchor="middle" x="713" y="-295" font-family="Helvetica,sans-Serif" font-size="10.00">ProfileData</text>
</a>
</g>
</g>
<!-- Node39&#45;&gt;Node40 -->
<g id="edge52" class="edge">
<title>Node39&#45;&gt;Node40</title>
<path fill="none" stroke="midnightblue" d="M575.22,-404.99C580.15,-402.44 584.83,-399.47 589,-396 615.29,-374.13 598.45,-349.55 625,-328 627.08,-326.31 629.27,-324.73 631.55,-323.27"/>
<polygon fill="midnightblue" stroke="midnightblue" points="633.71,-326.07 640.7,-318.11 630.27,-319.97 633.71,-326.07"/>
</g>
<!-- Node40&#45;&gt;Node10 -->
<g id="edge53" class="edge">
<title>Node40&#45;&gt;Node10</title>
<path fill="none" stroke="midnightblue" d="M779.56,-318.06C801.25,-323.04 825.55,-328.62 847.9,-333.75"/>
<polygon fill="midnightblue" stroke="midnightblue" points="847.15,-337.17 857.68,-336 848.71,-330.35 847.15,-337.17"/>
</g>
<!-- Node40&#45;&gt;Node20 -->
<g id="edge54" class="edge">
<title>Node40&#45;&gt;Node20</title>
<path fill="none" stroke="midnightblue" d="M787.69,-303C802.63,-303 818.49,-303 833.9,-303"/>
<polygon fill="midnightblue" stroke="midnightblue" points="833.95,-306.5 843.95,-303 833.95,-299.5 833.95,-306.5"/>
</g>
<!-- Node42&#45;&gt;Node24 -->
<g id="edge57" class="edge">
<title>Node42&#45;&gt;Node24</title>
<path fill="none" stroke="midnightblue" d="M321.36,-312.48C344.06,-297.21 390.96,-267.05 434,-248 438.31,-246.09 442.81,-244.27 447.39,-242.55"/>
<polygon fill="midnightblue" stroke="midnightblue" points="448.62,-245.82 456.84,-239.14 446.25,-239.24 448.62,-245.82"/>
</g>
<!-- Node42&#45;&gt;Node38 -->
<g id="edge58" class="edge">
<title>Node42&#45;&gt;Node38</title>
<path fill="none" stroke="midnightblue" d="M347.12,-331.56C373.05,-337.82 407.68,-346.18 438.39,-353.59"/>
<polygon fill="midnightblue" stroke="midnightblue" points="437.66,-357.02 448.2,-355.96 439.3,-350.21 437.66,-357.02"/>
</g>
<!-- Node42&#45;&gt;Node41 -->
<g id="edge61" class="edge">
<title>Node42&#45;&gt;Node41</title>
<path fill="none" stroke="midnightblue" d="M398.02,-322C406.51,-322 415.11,-322 423.57,-322"/>
<polygon fill="midnightblue" stroke="midnightblue" points="423.8,-325.5 433.8,-322 423.8,-318.5 423.8,-325.5"/>
</g>
<!-- Node43 -->
<g id="node43" class="node">
<title>Node43</title>
<g id="a_node43"><a xlink:href="classcarta_1_1Session.html#a44647c44e04c9b96638cc87980efbf77" target="_top" xlink:title=" ">
<polygon fill="none" stroke="black" points="437,-258 437,-288 586,-288 586,-258 437,-258"/>
<text text-anchor="start" x="445" y="-276" font-family="Helvetica,sans-Serif" font-size="10.00">carta::Session::SendSpatial</text>
<text text-anchor="middle" x="511.5" y="-265" font-family="Helvetica,sans-Serif" font-size="10.00">ProfileDataByRegionId</text>
</a>
</g>
</g>
<!-- Node42&#45;&gt;Node43 -->
<g id="edge59" class="edge">
<title>Node42&#45;&gt;Node43</title>
<path fill="none" stroke="midnightblue" d="M347.12,-312.44C373.05,-306.18 407.68,-297.82 438.39,-290.41"/>
<polygon fill="midnightblue" stroke="midnightblue" points="439.3,-293.79 448.2,-288.04 437.66,-286.98 439.3,-293.79"/>
</g>
<!-- Node43&#45;&gt;Node40 -->
<g id="edge60" class="edge">
<title>Node43&#45;&gt;Node40</title>
<path fill="none" stroke="midnightblue" d="M586.22,-284.09C599.89,-286.14 614.25,-288.3 628.19,-290.4"/>
<polygon fill="midnightblue" stroke="midnightblue" points="627.84,-293.88 638.25,-291.91 628.88,-286.96 627.84,-293.88"/>
</g>
</g>
</svg>
        <g id="navigator" transform="translate(0 0)" fill="#404254">
                <rect fill="#f2f5e9" fill-opacity="0.5" stroke="#606060" stroke-width=".5" x="0" y="0" width="60" height="60"/>
                <use id="zoomplus" xlink:href="#zoomPlus" x="17" y="9" onmousedown="handleZoom(evt,'in')"/>
                <use id="zoomminus" xlink:href="#zoomMin" x="42" y="9" onmousedown="handleZoom(evt,'out')"/>
                <use id="reset" xlink:href="#resetDef" x="30" y="36" onmousedown="handleReset()"/>
                <g id="arrowUp" xlink:href="#dirArrow" transform="translate(30 24)" onmousedown="handlePan(0,-1)">
                  <use xlink:href="#rim" fill="#404040">
                        <set attributeName="fill" to="#808080" begin="arrowUp.mouseover" end="arrowUp.mouseout"/>
                  </use>
                  <path fill="none" stroke="white" stroke-width="1.5" d="M0,-3.0v7 M-2.5,-0.5L0,-3.0L2.5,-0.5"/>
                </g>
                <g id="arrowRight" xlink:href="#dirArrow" transform="rotate(90) translate(36 -43)" onmousedown="handlePan(1,0)">
                  <use xlink:href="#rim" fill="#404040">
                        <set attributeName="fill" to="#808080" begin="arrowRight.mouseover" end="arrowRight.mouseout"/>
                  </use>
                  <path fill="none" stroke="white" stroke-width="1.5" d="M0,-3.0v7 M-2.5,-0.5L0,-3.0L2.5,-0.5"/>
                </g>
                <g id="arrowDown" xlink:href="#dirArrow" transform="rotate(180) translate(-30 -48)" onmousedown="handlePan(0,1)">
                  <use xlink:href="#rim" fill="#404040">
                        <set attributeName="fill" to="#808080" begin="arrowDown.mouseover" end="arrowDown.mouseout"/>
                  </use>
                  <path fill="none" stroke="white" stroke-width="1.5" d="M0,-3.0v7 M-2.5,-0.5L0,-3.0L2.5,-0.5"/>
                </g>
                <g id="arrowLeft" xlink:href="#dirArrow" transform="rotate(270) translate(-36 17)" onmousedown="handlePan(-1,0)">
                  <use xlink:href="#rim" fill="#404040">
                        <set attributeName="fill" to="#808080" begin="arrowLeft.mouseover" end="arrowLeft.mouseout"/>
                  </use>
                  <path fill="none" stroke="white" stroke-width="1.5" d="M0,-3.0v7 M-2.5,-0.5L0,-3.0L2.5,-0.5"/>
                </g>
        </g>
        <svg viewBox="0 0 15 15" width="100%" height="30px" preserveAspectRatio="xMaxYMin meet">
         <g id="arrow_out" transform="scale(0.3 0.3)">
          <a xlink:href="classcarta_1_1Session_a74bb5c365ac00159f0b11e44add4a414_cgraph_org.svg" target="_base">
           <rect id="button" ry="5" rx="5" y="6" x="6" height="38" width="38"
                fill="#f2f5e9" fill-opacity="0.5" stroke="#606060" stroke-width="1.0"/>
           <path id="arrow"
             d="M 11.500037,31.436501 C 11.940474,20.09759 22.043105,11.32322 32.158766,21.979434 L 37.068811,17.246167 C 37.068811,17.246167 37.088388,32 37.088388,32 L 22.160133,31.978069 C 22.160133,31.978069 26.997745,27.140456 26.997745,27.140456 C 18.528582,18.264221 13.291696,25.230495 11.500037,31.436501 z"
             style="fill:#404040;"/>
          </a>
         </g>
        </svg>
</svg>
