<?xml version="1.0" encoding="UTF-8" standalone="no"?>
<!DOCTYPE svg PUBLIC "-//W3C//DTD SVG 1.1//EN"
 "http://www.w3.org/Graphics/SVG/1.1/DTD/svg11.dtd">
<!-- Generated by graphviz version 2.43.0 (0)
 -->
<!-- Title: carta::PolarizationCalculator::FiddleStokesCoordinate Pages: 1 -->
<svg width="848pt" height="247pt"
 viewBox="0.00 0.00 848.00 247.00" xmlns="http://www.w3.org/2000/svg" xmlns:xlink="http://www.w3.org/1999/xlink">
<g id="graph0" class="graph" transform="scale(1 1) rotate(0) translate(4 243)">
<title>carta::PolarizationCalculator::FiddleStokesCoordinate</title>
<!-- Node1 -->
<g id="node1" class="node">
<title>Node1</title>
<g id="a_node1"><a xlink:title=" ">
<polygon fill="#bfbfbf" stroke="black" points="685,-110.5 685,-140.5 840,-140.5 840,-110.5 685,-110.5"/>
<text text-anchor="start" x="693" y="-128.5" font-family="Helvetica,sans-Serif" font-size="10.00">carta::PolarizationCalculator</text>
<text text-anchor="middle" x="762.5" y="-117.5" font-family="Helvetica,sans-Serif" font-size="10.00">::FiddleStokesCoordinate</text>
</a>
</g>
</g>
<!-- Node2 -->
<g id="node2" class="node">
<title>Node2</title>
<g id="a_node2"><a xlink:href="classcarta_1_1PolarizationCalculator.html#af6937bd807c038cf00fd0cc89ae9c2e8" target="_top" xlink:title=" ">
<polygon fill="none" stroke="black" points="446,-208.5 446,-238.5 649,-238.5 649,-208.5 446,-208.5"/>
<text text-anchor="start" x="454" y="-226.5" font-family="Helvetica,sans-Serif" font-size="10.00">carta::PolarizationCalculator</text>
<text text-anchor="middle" x="547.5" y="-215.5" font-family="Helvetica,sans-Serif" font-size="10.00">::ComputeFractionalPolarizedIntensity</text>
</a>
</g>
</g>
<!-- Node1&#45;&gt;Node2 -->
<g id="edge1" class="edge">
<title>Node1&#45;&gt;Node2</title>
<path fill="none" stroke="midnightblue" d="M734.63,-147.06C712.76,-163.62 680.45,-185.9 649,-199.5 641.1,-202.92 632.62,-205.9 624.07,-208.48"/>
<polygon fill="midnightblue" stroke="midnightblue" points="736.98,-149.67 742.77,-140.8 732.71,-144.12 736.98,-149.67"/>
</g>
<!-- Node8 -->
<g id="node8" class="node">
<title>Node8</title>
<g id="a_node8"><a xlink:href="classcarta_1_1PolarizationCalculator.html#ab48307d44c2a4541caa908d24a3683a0" target="_top" xlink:title=" ">
<polygon fill="none" stroke="black" points="470,-159.5 470,-189.5 625,-189.5 625,-159.5 470,-159.5"/>
<text text-anchor="start" x="478" y="-177.5" font-family="Helvetica,sans-Serif" font-size="10.00">carta::PolarizationCalculator</text>
<text text-anchor="middle" x="547.5" y="-166.5" font-family="Helvetica,sans-Serif" font-size="10.00">::ComputePolarizedAngle</text>
</a>
</g>
</g>
<!-- Node1&#45;&gt;Node8 -->
<g id="edge7" class="edge">
<title>Node1&#45;&gt;Node8</title>
<path fill="none" stroke="midnightblue" d="M686.16,-142.83C662.52,-148.27 636.62,-154.23 613.73,-159.49"/>
<polygon fill="midnightblue" stroke="midnightblue" points="687.18,-146.19 696.15,-140.53 685.62,-139.37 687.18,-146.19"/>
</g>
<!-- Node9 -->
<g id="node9" class="node">
<title>Node9</title>
<g id="a_node9"><a xlink:href="classcarta_1_1PolarizationCalculator.html#a2cb6200df64e7dde3eacf173a97f894c" target="_top" xlink:title=" ">
<polygon fill="none" stroke="black" points="470,-110.5 470,-140.5 625,-140.5 625,-110.5 470,-110.5"/>
<text text-anchor="start" x="478" y="-128.5" font-family="Helvetica,sans-Serif" font-size="10.00">carta::PolarizationCalculator</text>
<text text-anchor="middle" x="547.5" y="-117.5" font-family="Helvetica,sans-Serif" font-size="10.00">::ComputePolarizedIntensity</text>
</a>
</g>
</g>
<!-- Node1&#45;&gt;Node9 -->
<g id="edge9" class="edge">
<title>Node1&#45;&gt;Node9</title>
<path fill="none" stroke="midnightblue" d="M674.77,-125.5C658.33,-125.5 641.23,-125.5 625.13,-125.5"/>
<polygon fill="midnightblue" stroke="midnightblue" points="674.9,-129 684.9,-125.5 674.9,-122 674.9,-129"/>
</g>
<!-- Node10 -->
<g id="node10" class="node">
<title>Node10</title>
<g id="a_node10"><a xlink:href="classcarta_1_1PolarizationCalculator.html#a5285a6db684ea0071d71b95458923c4c" target="_top" xlink:title=" ">
<polygon fill="none" stroke="black" points="456,-50 456,-91 639,-91 639,-50 456,-50"/>
<text text-anchor="start" x="464" y="-79" font-family="Helvetica,sans-Serif" font-size="10.00">carta::PolarizationCalculator</text>
<text text-anchor="start" x="464" y="-68" font-family="Helvetica,sans-Serif" font-size="10.00">::ComputeTotalFractionalPolarized</text>
<text text-anchor="middle" x="547.5" y="-57" font-family="Helvetica,sans-Serif" font-size="10.00">Intensity</text>
</a>
</g>
</g>
<!-- Node1&#45;&gt;Node10 -->
<g id="edge11" class="edge">
<title>Node1&#45;&gt;Node10</title>
<path fill="none" stroke="midnightblue" d="M693.6,-107.97C672.79,-102.59 649.71,-96.63 628.19,-91.08"/>
<polygon fill="midnightblue" stroke="midnightblue" points="692.74,-111.36 703.3,-110.47 694.49,-104.58 692.74,-111.36"/>
</g>
<!-- Node11 -->
<g id="node11" class="node">
<title>Node11</title>
<g id="a_node11"><a xlink:href="classcarta_1_1PolarizationCalculator.html#a0c5c13e6761ffb096ac20ab00190367a" target="_top" xlink:title=" ">
<polygon fill="none" stroke="black" points="458.5,-0.5 458.5,-30.5 636.5,-30.5 636.5,-0.5 458.5,-0.5"/>
<text text-anchor="start" x="466.5" y="-18.5" font-family="Helvetica,sans-Serif" font-size="10.00">carta::PolarizationCalculator</text>
<text text-anchor="middle" x="547.5" y="-7.5" font-family="Helvetica,sans-Serif" font-size="10.00">::ComputeTotalPolarizedIntensity</text>
</a>
</g>
</g>
<!-- Node1&#45;&gt;Node11 -->
<g id="edge13" class="edge">
<title>Node1&#45;&gt;Node11</title>
<path fill="none" stroke="midnightblue" d="M738.1,-103.28C716.56,-83.99 682.89,-56.68 649,-40.5 640.97,-36.67 632.29,-33.38 623.5,-30.57"/>
<polygon fill="midnightblue" stroke="midnightblue" points="735.99,-106.09 745.74,-110.24 740.71,-100.92 735.99,-106.09"/>
</g>
<!-- Node3 -->
<g id="node3" class="node">
<title>Node3</title>
<g id="a_node3"><a xlink:href="classcarta_1_1FileLoader.html#a5680d87d09f6ddb4cc1bb1a3d713d2c3" target="_top" xlink:title=" ">
<polygon fill="none" stroke="black" points="306,-110.5 306,-140.5 410,-140.5 410,-110.5 306,-110.5"/>
<text text-anchor="start" x="314" y="-128.5" font-family="Helvetica,sans-Serif" font-size="10.00">carta::FileLoader::</text>
<text text-anchor="middle" x="358" y="-117.5" font-family="Helvetica,sans-Serif" font-size="10.00">GetStokesImage</text>
</a>
</g>
</g>
<!-- Node2&#45;&gt;Node3 -->
<g id="edge2" class="edge">
<title>Node2&#45;&gt;Node3</title>
<path fill="none" stroke="midnightblue" d="M457.9,-204.87C453.81,-203.23 449.82,-201.44 446,-199.5 416.47,-184.51 388.44,-157.59 372.53,-140.68"/>
<polygon fill="midnightblue" stroke="midnightblue" points="456.98,-208.27 467.58,-208.46 459.42,-201.71 456.98,-208.27"/>
</g>
<!-- Node4 -->
<g id="node4" class="node">
<title>Node4</title>
<g id="a_node4"><a xlink:href="classcarta_1_1FileLoader.html#a6c78d61804342a45dbf7e3e668357f2c" target="_top" xlink:title=" ">
<polygon fill="none" stroke="black" points="146,-159.5 146,-189.5 270,-189.5 270,-159.5 146,-159.5"/>
<text text-anchor="start" x="154" y="-177.5" font-family="Helvetica,sans-Serif" font-size="10.00">carta::FileLoader::</text>
<text text-anchor="middle" x="208" y="-166.5" font-family="Helvetica,sans-Serif" font-size="10.00">GetCoordinateSystem</text>
</a>
</g>
</g>
<!-- Node3&#45;&gt;Node4 -->
<g id="edge3" class="edge">
<title>Node3&#45;&gt;Node4</title>
<path fill="none" stroke="midnightblue" d="M301.85,-143.76C286.24,-148.93 269.43,-154.49 254.46,-159.45"/>
<polygon fill="midnightblue" stroke="midnightblue" points="302.99,-147.07 311.39,-140.6 300.79,-140.42 302.99,-147.07"/>
</g>
<!-- Node5 -->
<g id="node5" class="node">
<title>Node5</title>
<g id="a_node5"><a xlink:href="classcarta_1_1FileLoader.html#a1ef8462007320a75dcdc04929cdb28b0" target="_top" xlink:title=" ">
<polygon fill="none" stroke="black" points="156,-110.5 156,-140.5 260,-140.5 260,-110.5 156,-110.5"/>
<text text-anchor="start" x="164" y="-128.5" font-family="Helvetica,sans-Serif" font-size="10.00">carta::FileLoader::</text>
<text text-anchor="middle" x="208" y="-117.5" font-family="Helvetica,sans-Serif" font-size="10.00">GetSlice</text>
</a>
</g>
</g>
<!-- Node3&#45;&gt;Node5 -->
<g id="edge4" class="edge">
<title>Node3&#45;&gt;Node5</title>
<path fill="none" stroke="midnightblue" d="M295.49,-125.5C283.77,-125.5 271.62,-125.5 260.26,-125.5"/>
<polygon fill="midnightblue" stroke="midnightblue" points="295.65,-129 305.65,-125.5 295.65,-122 295.65,-129"/>
</g>
<!-- Node7 -->
<g id="node7" class="node">
<title>Node7</title>
<g id="a_node7"><a xlink:href="classcarta_1_1FileLoader.html#a96c849a9ee61ae91b8f8e7393d54133c" target="_top" xlink:title=" ">
<polygon fill="none" stroke="black" points="156,-61.5 156,-91.5 260,-91.5 260,-61.5 156,-61.5"/>
<text text-anchor="start" x="164" y="-79.5" font-family="Helvetica,sans-Serif" font-size="10.00">carta::FileLoader::</text>
<text text-anchor="middle" x="208" y="-68.5" font-family="Helvetica,sans-Serif" font-size="10.00">GetSubImage</text>
</a>
</g>
</g>
<!-- Node3&#45;&gt;Node7 -->
<g id="edge6" class="edge">
<title>Node3&#45;&gt;Node7</title>
<path fill="none" stroke="midnightblue" d="M301.85,-107.24C286.24,-102.07 269.43,-96.51 254.46,-91.55"/>
<polygon fill="midnightblue" stroke="midnightblue" points="300.79,-110.58 311.39,-110.4 302.99,-103.93 300.79,-110.58"/>
</g>
<!-- Node6 -->
<g id="node6" class="node">
<title>Node6</title>
<g id="a_node6"><a xlink:href="classcarta_1_1Hdf5Loader.html#af2e0b172ffce7502373066db92815ced" target="_top" xlink:title=" ">
<polygon fill="none" stroke="black" points="0,-110.5 0,-140.5 110,-140.5 110,-110.5 0,-110.5"/>
<text text-anchor="start" x="8" y="-128.5" font-family="Helvetica,sans-Serif" font-size="10.00">carta::Hdf5Loader::</text>
<text text-anchor="middle" x="55" y="-117.5" font-family="Helvetica,sans-Serif" font-size="10.00">GetChunk</text>
</a>
</g>
</g>
<!-- Node5&#45;&gt;Node6 -->
<g id="edge5" class="edge">
<title>Node5&#45;&gt;Node6</title>
<path fill="none" stroke="midnightblue" d="M145.69,-125.5C133.93,-125.5 121.69,-125.5 110.17,-125.5"/>
<polygon fill="midnightblue" stroke="midnightblue" points="145.88,-129 155.88,-125.5 145.88,-122 145.88,-129"/>
</g>
<!-- Node8&#45;&gt;Node3 -->
<g id="edge8" class="edge">
<title>Node8&#45;&gt;Node3</title>
<path fill="none" stroke="midnightblue" d="M471.74,-157.04C463.05,-154.9 454.32,-152.69 446,-150.5 434.3,-147.42 421.76,-143.94 409.96,-140.56"/>
<polygon fill="midnightblue" stroke="midnightblue" points="470.97,-160.46 481.52,-159.44 472.64,-153.66 470.97,-160.46"/>
</g>
<!-- Node9&#45;&gt;Node3 -->
<g id="edge10" class="edge">
<title>Node9&#45;&gt;Node3</title>
<path fill="none" stroke="midnightblue" d="M459.5,-125.5C442.59,-125.5 425.39,-125.5 410.11,-125.5"/>
<polygon fill="midnightblue" stroke="midnightblue" points="459.97,-129 469.97,-125.5 459.97,-122 459.97,-129"/>
</g>
<!-- Node10&#45;&gt;Node3 -->
<g id="edge12" class="edge">
<title>Node10&#45;&gt;Node3</title>
<path fill="none" stroke="midnightblue" d="M466.8,-93.88C447.66,-99.49 427.72,-105.34 410.27,-110.46"/>
<polygon fill="midnightblue" stroke="midnightblue" points="467.8,-97.23 476.42,-91.06 465.83,-90.51 467.8,-97.23"/>
</g>
<!-- Node11&#45;&gt;Node3 -->
<g id="edge14" class="edge">
<title>Node11&#45;&gt;Node3</title>
<path fill="none" stroke="midnightblue" d="M459,-34.17C454.51,-36.08 450.15,-38.19 446,-40.5 413.91,-58.4 385.25,-91.23 370.18,-110.43"/>
<polygon fill="midnightblue" stroke="midnightblue" points="460.32,-37.41 468.36,-30.52 457.77,-30.89 460.32,-37.41"/>
</g>
</g>
</svg>
