<?xml version="1.0" encoding="UTF-8" standalone="no"?>
<!DOCTYPE svg PUBLIC "-//W3C//DTD SVG 1.1//EN"
 "http://www.w3.org/Graphics/SVG/1.1/DTD/svg11.dtd">
<!-- Generated by graphviz version 2.43.0 (0)
 -->
<!-- Title: carta::Session::CalculateCubeHistogram Pages: 1 -->
<svg width="946pt" height="402pt"
 viewBox="0.00 0.00 946.00 401.50" xmlns="http://www.w3.org/2000/svg" xmlns:xlink="http://www.w3.org/1999/xlink">
<g id="graph0" class="graph" transform="scale(1 1) rotate(0) translate(4 397.5)">
<title>carta::Session::CalculateCubeHistogram</title>
<!-- Node1 -->
<g id="node1" class="node">
<title>Node1</title>
<g id="a_node1"><a xlink:title=" ">
<polygon fill="#bfbfbf" stroke="black" points="0,-158.5 0,-188.5 137,-188.5 137,-158.5 0,-158.5"/>
<text text-anchor="start" x="8" y="-176.5" font-family="Helvetica,sans-Serif" font-size="10.00">carta::Session::Calculate</text>
<text text-anchor="middle" x="68.5" y="-165.5" font-family="Helvetica,sans-Serif" font-size="10.00">CubeHistogram</text>
</a>
</g>
</g>
<!-- Node2 -->
<g id="node2" class="node">
<title>Node2</title>
<g id="a_node2"><a xlink:href="classcarta_1_1Histogram.html#a56e2b8bfafd357f89b9197487c20446e" target="_top" xlink:title=" ">
<polygon fill="none" stroke="black" points="198.5,-314 198.5,-333 321.5,-333 321.5,-314 198.5,-314"/>
<text text-anchor="middle" x="260" y="-321" font-family="Helvetica,sans-Serif" font-size="10.00">carta::Histogram::Add</text>
</a>
</g>
</g>
<!-- Node1&#45;&gt;Node2 -->
<g id="edge1" class="edge">
<title>Node1&#45;&gt;Node2</title>
<path fill="none" stroke="midnightblue" d="M77.06,-188.86C91.56,-216.65 126.09,-275.1 173,-304.5 177.78,-307.49 182.96,-310.02 188.34,-312.15"/>
<polygon fill="midnightblue" stroke="midnightblue" points="187.58,-315.59 198.18,-315.57 189.88,-308.98 187.58,-315.59"/>
</g>
<!-- Node8 -->
<g id="node8" class="node">
<title>Node8</title>
<g id="a_node8"><a xlink:href="classcarta_1_1Timer.html#aad2702a80259920b910fb76642f97b88" target="_top" xlink:title=" ">
<polygon fill="none" stroke="black" points="200,-276 200,-295 320,-295 320,-276 200,-276"/>
<text text-anchor="middle" x="260" y="-283" font-family="Helvetica,sans-Serif" font-size="10.00">carta::Timer::Elapsed</text>
</a>
</g>
</g>
<!-- Node1&#45;&gt;Node8 -->
<g id="edge7" class="edge">
<title>Node1&#45;&gt;Node8</title>
<path fill="none" stroke="midnightblue" d="M81.82,-188.67C99.66,-209.56 134.76,-246.85 173,-266.5 178.31,-269.23 184.01,-271.57 189.85,-273.58"/>
<polygon fill="midnightblue" stroke="midnightblue" points="189.17,-277.03 199.76,-276.64 191.24,-270.34 189.17,-277.03"/>
</g>
<!-- Node9 -->
<g id="node9" class="node">
<title>Node9</title>
<g id="a_node9"><a xlink:href="Message_8cc.html#aadf644bd365f0198b09a7196f9990511" target="_top" xlink:title=" ">
<polygon fill="none" stroke="black" points="219,-238 219,-257 301,-257 301,-238 219,-238"/>
<text text-anchor="middle" x="260" y="-245" font-family="Helvetica,sans-Serif" font-size="10.00">FillHistogram</text>
</a>
</g>
</g>
<!-- Node1&#45;&gt;Node9 -->
<g id="edge8" class="edge">
<title>Node1&#45;&gt;Node9</title>
<path fill="none" stroke="midnightblue" d="M93.31,-188.55C113.75,-200.88 144.36,-217.95 173,-228.5 184.43,-232.71 197.08,-236.14 209.08,-238.87"/>
<polygon fill="midnightblue" stroke="midnightblue" points="208.45,-242.32 218.97,-241 209.93,-235.47 208.45,-242.32"/>
</g>
<!-- Node10 -->
<g id="node10" class="node">
<title>Node10</title>
<g id="a_node10"><a xlink:href="classcarta_1_1SessionContext.html#a28e9e5c979d1c244253a92f69b156c39" target="_top" xlink:title=" ">
<polygon fill="none" stroke="black" points="198.5,-178 198.5,-219 321.5,-219 321.5,-178 198.5,-178"/>
<text text-anchor="start" x="206.5" y="-207" font-family="Helvetica,sans-Serif" font-size="10.00">carta::SessionContext</text>
<text text-anchor="start" x="206.5" y="-196" font-family="Helvetica,sans-Serif" font-size="10.00">::is_group_execution</text>
<text text-anchor="middle" x="260" y="-185" font-family="Helvetica,sans-Serif" font-size="10.00">_cancelled</text>
</a>
</g>
</g>
<!-- Node1&#45;&gt;Node10 -->
<g id="edge9" class="edge">
<title>Node1&#45;&gt;Node10</title>
<path fill="none" stroke="midnightblue" d="M137.11,-182.42C153.66,-184.6 171.41,-186.95 188.11,-189.15"/>
<polygon fill="midnightblue" stroke="midnightblue" points="187.98,-192.66 198.35,-190.5 188.89,-185.72 187.98,-192.66"/>
</g>
<!-- Node11 -->
<g id="node11" class="node">
<title>Node11</title>
<g id="a_node11"><a xlink:href="structcarta_1_1BasicStats.html#a536adffa874e62bc21b8764a77ce09fd" target="_top" xlink:title=" ">
<polygon fill="none" stroke="black" points="199,-140 199,-159 321,-159 321,-140 199,-140"/>
<text text-anchor="middle" x="260" y="-147" font-family="Helvetica,sans-Serif" font-size="10.00">carta::BasicStats::join</text>
</a>
</g>
</g>
<!-- Node1&#45;&gt;Node11 -->
<g id="edge10" class="edge">
<title>Node1&#45;&gt;Node11</title>
<path fill="none" stroke="midnightblue" d="M137.11,-164.94C153.84,-162.82 171.79,-160.54 188.64,-158.41"/>
<polygon fill="midnightblue" stroke="midnightblue" points="189.49,-161.83 198.97,-157.1 188.61,-154.89 189.49,-161.83"/>
</g>
<!-- Node12 -->
<g id="node12" class="node">
<title>Node12</title>
<g id="a_node12"><a xlink:href="classMessage.html#af13c35c35a5f3fd50a68319be9287611" target="_top" xlink:title=" ">
<polygon fill="none" stroke="black" points="173,-102 173,-121 347,-121 347,-102 173,-102"/>
<text text-anchor="middle" x="260" y="-109" font-family="Helvetica,sans-Serif" font-size="10.00">Message::RegionHistogramData</text>
</a>
</g>
</g>
<!-- Node1&#45;&gt;Node12 -->
<g id="edge11" class="edge">
<title>Node1&#45;&gt;Node12</title>
<path fill="none" stroke="midnightblue" d="M101.58,-158.45C121.75,-149.42 148.51,-138.23 173,-130.5 181.26,-127.89 190.08,-125.51 198.81,-123.38"/>
<polygon fill="midnightblue" stroke="midnightblue" points="199.65,-126.77 208.58,-121.08 198.05,-119.96 199.65,-126.77"/>
</g>
<!-- Node13 -->
<g id="node13" class="node">
<title>Node13</title>
<g id="a_node13"><a xlink:href="classcarta_1_1Session.html#ae6ff58d2a61d3872bc741f12ed2b91d7" target="_top" xlink:title=" ">
<polygon fill="none" stroke="black" points="194,-52.5 194,-82.5 326,-82.5 326,-52.5 194,-52.5"/>
<text text-anchor="start" x="202" y="-70.5" font-family="Helvetica,sans-Serif" font-size="10.00">carta::Session::SendFile</text>
<text text-anchor="middle" x="260" y="-59.5" font-family="Helvetica,sans-Serif" font-size="10.00">Event</text>
</a>
</g>
</g>
<!-- Node1&#45;&gt;Node13 -->
<g id="edge12" class="edge">
<title>Node1&#45;&gt;Node13</title>
<path fill="none" stroke="midnightblue" d="M85.01,-158.21C104.16,-140.1 138.48,-110.19 173,-92.5 177.47,-90.21 182.18,-88.1 187,-86.16"/>
<polygon fill="midnightblue" stroke="midnightblue" points="188.24,-89.43 196.37,-82.64 185.78,-82.88 188.24,-89.43"/>
</g>
<!-- Node19 -->
<g id="node19" class="node">
<title>Node19</title>
<g id="a_node19"><a xlink:href="classcarta_1_1Session.html#a9614e33dea4622ec90432fa7aad7a451" target="_top" xlink:title=" ">
<polygon fill="none" stroke="black" points="180,-14 180,-33 340,-33 340,-14 180,-14"/>
<text text-anchor="middle" x="260" y="-21" font-family="Helvetica,sans-Serif" font-size="10.00">carta::Session::SendLogEvent</text>
</a>
</g>
</g>
<!-- Node1&#45;&gt;Node19 -->
<g id="edge18" class="edge">
<title>Node1&#45;&gt;Node19</title>
<path fill="none" stroke="midnightblue" d="M77.06,-158.14C91.56,-130.35 126.09,-71.9 173,-42.5 176.4,-40.37 180.01,-38.47 183.75,-36.79"/>
<polygon fill="midnightblue" stroke="midnightblue" points="185.24,-39.96 193.25,-33.03 182.67,-33.45 185.24,-39.96"/>
</g>
<!-- Node3 -->
<g id="node3" class="node">
<title>Node3</title>
<g id="a_node3"><a xlink:href="classcarta_1_1Histogram.html#a81787c73b6b71a8495c8c3ffcf4d7c46" target="_top" xlink:title=" ">
<polygon fill="none" stroke="black" points="398,-330.5 398,-360.5 562,-360.5 562,-330.5 398,-330.5"/>
<text text-anchor="start" x="406" y="-348.5" font-family="Helvetica,sans-Serif" font-size="10.00">carta::Histogram::Consistency</text>
<text text-anchor="middle" x="480" y="-337.5" font-family="Helvetica,sans-Serif" font-size="10.00">Check</text>
</a>
</g>
</g>
<!-- Node2&#45;&gt;Node3 -->
<g id="edge2" class="edge">
<title>Node2&#45;&gt;Node3</title>
<path fill="none" stroke="midnightblue" d="M321.73,-329.63C342.16,-331.69 365.42,-334.04 387.68,-336.28"/>
<polygon fill="midnightblue" stroke="midnightblue" points="387.52,-339.79 397.82,-337.31 388.22,-332.82 387.52,-339.79"/>
</g>
<!-- Node7 -->
<g id="node7" class="node">
<title>Node7</title>
<g id="a_node7"><a xlink:href="classcarta_1_1Histogram.html#a1efcb688ab3b0d60a6216d14d87fef5e" target="_top" xlink:title=" ">
<polygon fill="none" stroke="black" points="383,-292 383,-311 577,-311 577,-292 383,-292"/>
<text text-anchor="middle" x="480" y="-299" font-family="Helvetica,sans-Serif" font-size="10.00">carta::Histogram::GetHistogramBins</text>
</a>
</g>
</g>
<!-- Node2&#45;&gt;Node7 -->
<g id="edge6" class="edge">
<title>Node2&#45;&gt;Node7</title>
<path fill="none" stroke="midnightblue" d="M321.73,-317.37C338.2,-315.71 356.52,-313.86 374.67,-312.03"/>
<polygon fill="midnightblue" stroke="midnightblue" points="375.12,-315.5 384.72,-311.01 374.42,-308.54 375.12,-315.5"/>
</g>
<!-- Node4 -->
<g id="node4" class="node">
<title>Node4</title>
<g id="a_node4"><a xlink:href="classcarta_1_1Histogram.html#ae1f537df539939fde102e25b0b42a9aa" target="_top" xlink:title=" ">
<polygon fill="none" stroke="black" points="620.5,-374 620.5,-393 778.5,-393 778.5,-374 620.5,-374"/>
<text text-anchor="middle" x="699.5" y="-381" font-family="Helvetica,sans-Serif" font-size="10.00">carta::Histogram::GetMaxVal</text>
</a>
</g>
</g>
<!-- Node3&#45;&gt;Node4 -->
<g id="edge3" class="edge">
<title>Node3&#45;&gt;Node4</title>
<path fill="none" stroke="midnightblue" d="M562.3,-359.7C585.95,-363.84 611.45,-368.29 633.92,-372.22"/>
<polygon fill="midnightblue" stroke="midnightblue" points="633.56,-375.71 644.01,-373.98 634.76,-368.81 633.56,-375.71"/>
</g>
<!-- Node5 -->
<g id="node5" class="node">
<title>Node5</title>
<g id="a_node5"><a xlink:href="classcarta_1_1Histogram.html#a751eb7e111b661cf77a44995db151a3b" target="_top" xlink:title=" ">
<polygon fill="none" stroke="black" points="622,-336 622,-355 777,-355 777,-336 622,-336"/>
<text text-anchor="middle" x="699.5" y="-343" font-family="Helvetica,sans-Serif" font-size="10.00">carta::Histogram::GetMinVal</text>
</a>
</g>
</g>
<!-- Node3&#45;&gt;Node5 -->
<g id="edge4" class="edge">
<title>Node3&#45;&gt;Node5</title>
<path fill="none" stroke="midnightblue" d="M562.3,-345.5C578.49,-345.5 595.54,-345.5 611.9,-345.5"/>
<polygon fill="midnightblue" stroke="midnightblue" points="611.98,-349 621.98,-345.5 611.98,-342 611.98,-349"/>
</g>
<!-- Node6 -->
<g id="node6" class="node">
<title>Node6</title>
<g id="a_node6"><a xlink:href="classcarta_1_1Histogram.html#a70adaf5681547ca8d7aa22550bfb3206" target="_top" xlink:title=" ">
<polygon fill="none" stroke="black" points="625,-298 625,-317 774,-317 774,-298 625,-298"/>
<text text-anchor="middle" x="699.5" y="-305" font-family="Helvetica,sans-Serif" font-size="10.00">carta::Histogram::GetNbins</text>
</a>
</g>
</g>
<!-- Node3&#45;&gt;Node6 -->
<g id="edge5" class="edge">
<title>Node3&#45;&gt;Node6</title>
<path fill="none" stroke="midnightblue" d="M562.3,-331.3C585.95,-327.16 611.45,-322.71 633.92,-318.78"/>
<polygon fill="midnightblue" stroke="midnightblue" points="634.76,-322.19 644.01,-317.02 633.56,-315.29 634.76,-322.19"/>
</g>
<!-- Node14 -->
<g id="node14" class="node">
<title>Node14</title>
<g id="a_node14"><a xlink:href="classcarta_1_1Session.html#af5f45b72e3fb7d4ad6fbf32fcc9da912" target="_top" xlink:title=" ">
<polygon fill="none" stroke="black" points="408.5,-55 408.5,-74 551.5,-74 551.5,-55 408.5,-55"/>
<text text-anchor="middle" x="480" y="-62" font-family="Helvetica,sans-Serif" font-size="10.00">carta::Session::SendEvent</text>
</a>
</g>
</g>
<!-- Node13&#45;&gt;Node14 -->
<g id="edge13" class="edge">
<title>Node13&#45;&gt;Node14</title>
<path fill="none" stroke="midnightblue" d="M326.11,-66.6C348.73,-66.29 374.37,-65.94 398.1,-65.61"/>
<polygon fill="midnightblue" stroke="midnightblue" points="398.19,-69.11 408.14,-65.48 398.09,-62.11 398.19,-69.11"/>
</g>
<!-- Node15 -->
<g id="node15" class="node">
<title>Node15</title>
<g id="a_node15"><a xlink:href="namespacecarta_1_1logger.html#ab9e339746ee51ea21696ab43b50841d5" target="_top" xlink:title=" ">
<polygon fill="none" stroke="black" points="613,-99 613,-118 786,-118 786,-99 613,-99"/>
<text text-anchor="middle" x="699.5" y="-106" font-family="Helvetica,sans-Serif" font-size="10.00">carta::logger::LogSentEventType</text>
</a>
</g>
</g>
<!-- Node14&#45;&gt;Node15 -->
<g id="edge14" class="edge">
<title>Node14&#45;&gt;Node15</title>
<path fill="none" stroke="midnightblue" d="M528.19,-74.05C561.4,-80.76 606.02,-89.79 641.26,-96.92"/>
<polygon fill="midnightblue" stroke="midnightblue" points="640.9,-100.42 651.4,-98.97 642.29,-93.56 640.9,-100.42"/>
</g>
<!-- Node17 -->
<g id="node17" class="node">
<title>Node17</title>
<g id="a_node17"><a xlink:href="classcarta_1_1concurrent__queue.html#ab1a11795f017e1c7dd870fce5da5ede1" target="_top" xlink:title=" ">
<polygon fill="none" stroke="black" points="632.5,-49.5 632.5,-79.5 766.5,-79.5 766.5,-49.5 632.5,-49.5"/>
<text text-anchor="start" x="640.5" y="-67.5" font-family="Helvetica,sans-Serif" font-size="10.00">carta::concurrent_queue</text>
<text text-anchor="middle" x="699.5" y="-56.5" font-family="Helvetica,sans-Serif" font-size="10.00">::push</text>
</a>
</g>
</g>
<!-- Node14&#45;&gt;Node17 -->
<g id="edge16" class="edge">
<title>Node14&#45;&gt;Node17</title>
<path fill="none" stroke="midnightblue" d="M551.62,-64.5C574.2,-64.5 599.29,-64.5 622.26,-64.5"/>
<polygon fill="midnightblue" stroke="midnightblue" points="622.3,-68 632.3,-64.5 622.3,-61 622.3,-68"/>
</g>
<!-- Node18 -->
<g id="node18" class="node">
<title>Node18</title>
<g id="a_node18"><a xlink:href="classcarta_1_1concurrent__queue.html#a44dc990ae7a71921648cad573058357d" target="_top" xlink:title=" ">
<polygon fill="none" stroke="black" points="632.5,-0.5 632.5,-30.5 766.5,-30.5 766.5,-0.5 632.5,-0.5"/>
<text text-anchor="start" x="640.5" y="-18.5" font-family="Helvetica,sans-Serif" font-size="10.00">carta::concurrent_queue</text>
<text text-anchor="middle" x="699.5" y="-7.5" font-family="Helvetica,sans-Serif" font-size="10.00">::try_pop</text>
</a>
</g>
</g>
<!-- Node14&#45;&gt;Node18 -->
<g id="edge17" class="edge">
<title>Node14&#45;&gt;Node18</title>
<path fill="none" stroke="midnightblue" d="M523.19,-54.99C551.29,-48.66 589.03,-40.16 622.29,-32.67"/>
<polygon fill="midnightblue" stroke="midnightblue" points="623.47,-35.99 632.45,-30.38 621.93,-29.16 623.47,-35.99"/>
</g>
<!-- Node16 -->
<g id="node16" class="node">
<title>Node16</title>
<g id="a_node16"><a xlink:href="namespacecarta_1_1logger.html#a23c9bf75209165cf69eb8d50f64b81b4" target="_top" xlink:title=" ">
<polygon fill="none" stroke="black" points="822,-93.5 822,-123.5 938,-123.5 938,-93.5 822,-93.5"/>
<text text-anchor="start" x="830" y="-111.5" font-family="Helvetica,sans-Serif" font-size="10.00">carta::logger::log</text>
<text text-anchor="middle" x="880" y="-100.5" font-family="Helvetica,sans-Serif" font-size="10.00">_protocol_messages</text>
</a>
</g>
</g>
<!-- Node15&#45;&gt;Node16 -->
<g id="edge15" class="edge">
<title>Node15&#45;&gt;Node16</title>
<path fill="none" stroke="midnightblue" d="M786.09,-108.5C794.74,-108.5 803.44,-108.5 811.86,-108.5"/>
<polygon fill="midnightblue" stroke="midnightblue" points="811.96,-112 821.96,-108.5 811.96,-105 811.96,-112"/>
</g>
<!-- Node19&#45;&gt;Node14 -->
<g id="edge20" class="edge">
<title>Node19&#45;&gt;Node14</title>
<path fill="none" stroke="midnightblue" d="M311.56,-33.01C343.36,-38.99 384.59,-46.74 418.18,-53.06"/>
<polygon fill="midnightblue" stroke="midnightblue" points="417.86,-56.56 428.34,-54.97 419.15,-49.68 417.86,-56.56"/>
</g>
<!-- Node20 -->
<g id="node20" class="node">
<title>Node20</title>
<g id="a_node20"><a xlink:href="classMessage.html#a99e84f303d54a46b1cf582bf343c7f29" target="_top" xlink:title=" ">
<polygon fill="none" stroke="black" points="423.5,-14 423.5,-33 536.5,-33 536.5,-14 423.5,-14"/>
<text text-anchor="middle" x="480" y="-21" font-family="Helvetica,sans-Serif" font-size="10.00">Message::ErrorData</text>
</a>
</g>
</g>
<!-- Node19&#45;&gt;Node20 -->
<g id="edge19" class="edge">
<title>Node19&#45;&gt;Node20</title>
<path fill="none" stroke="midnightblue" d="M340.01,-23.5C364.11,-23.5 390.32,-23.5 413.42,-23.5"/>
<polygon fill="midnightblue" stroke="midnightblue" points="413.46,-27 423.46,-23.5 413.46,-20 413.46,-27"/>
</g>
</g>
</svg>
