<?xml version="1.0" encoding="UTF-8" standalone="no"?>
<!DOCTYPE svg PUBLIC "-//W3C//DTD SVG 1.1//EN"
 "http://www.w3.org/Graphics/SVG/1.1/DTD/svg11.dtd">
<!-- Generated by graphviz version 2.43.0 (0)
 -->
<!-- Title: carta::RegionHandler::FillRegionHistogramData Pages: 1 -->
<svg width="886pt" height="274pt"
 viewBox="0.00 0.00 886.00 273.50" xmlns="http://www.w3.org/2000/svg" xmlns:xlink="http://www.w3.org/1999/xlink">
<g id="graph0" class="graph" transform="scale(1 1) rotate(0) translate(4 269.5)">
<title>carta::RegionHandler::FillRegionHistogramData</title>
<!-- Node1 -->
<g id="node1" class="node">
<title>Node1</title>
<g id="a_node1"><a xlink:title=" ">
<polygon fill="#bfbfbf" stroke="black" points="0,-191 0,-221 145,-221 145,-191 0,-191"/>
<text text-anchor="start" x="8" y="-209" font-family="Helvetica,sans-Serif" font-size="10.00">carta::RegionHandler</text>
<text text-anchor="middle" x="72.5" y="-198" font-family="Helvetica,sans-Serif" font-size="10.00">::FillRegionHistogramData</text>
</a>
</g>
</g>
<!-- Node2 -->
<g id="node2" class="node">
<title>Node2</title>
<g id="a_node2"><a xlink:href="classcarta_1_1RegionHandler.html#a7797d9c5eca341dcb490a338fc66967a" target="_top" xlink:title=" ">
<polygon fill="none" stroke="black" points="181,-131 181,-161 329,-161 329,-131 181,-131"/>
<text text-anchor="start" x="189" y="-149" font-family="Helvetica,sans-Serif" font-size="10.00">carta::RegionHandler</text>
<text text-anchor="middle" x="255" y="-138" font-family="Helvetica,sans-Serif" font-size="10.00">::GetRegionHistogramData</text>
</a>
</g>
</g>
<!-- Node1&#45;&gt;Node2 -->
<g id="edge1" class="edge">
<title>Node1&#45;&gt;Node2</title>
<path fill="none" stroke="midnightblue" d="M119.05,-190.86C143.4,-182.76 173.57,-172.74 199.2,-164.22"/>
<polygon fill="midnightblue" stroke="midnightblue" points="200.39,-167.51 208.78,-161.03 198.19,-160.86 200.39,-167.51"/>
</g>
<!-- Node6 -->
<g id="node6" class="node">
<title>Node6</title>
<g id="a_node6"><a xlink:href="classcarta_1_1RegionHandler.html#a8c787facbcb265d7fa434e05324f2c9e" target="_top" xlink:title=" ">
<polygon fill="none" stroke="black" points="589.5,-235 589.5,-265 708.5,-265 708.5,-235 589.5,-235"/>
<text text-anchor="start" x="597.5" y="-253" font-family="Helvetica,sans-Serif" font-size="10.00">carta::RegionHandler</text>
<text text-anchor="middle" x="649" y="-242" font-family="Helvetica,sans-Serif" font-size="10.00">::RegionFileIdsValid</text>
</a>
</g>
</g>
<!-- Node1&#45;&gt;Node6 -->
<g id="edge17" class="edge">
<title>Node1&#45;&gt;Node6</title>
<path fill="none" stroke="midnightblue" d="M138.76,-221.05C197.54,-233.79 286.53,-251.06 365,-258 442.03,-264.82 461.72,-260.83 539,-258 552.07,-257.52 566,-256.72 579.39,-255.81"/>
<polygon fill="midnightblue" stroke="midnightblue" points="579.77,-259.29 589.5,-255.09 579.27,-252.3 579.77,-259.29"/>
</g>
<!-- Node3 -->
<g id="node3" class="node">
<title>Node3</title>
<g id="a_node3"><a xlink:href="classcarta_1_1RegionHandler.html#a5c734366cb3b4b307c54a66251dd270c" target="_top" xlink:title=" ">
<polygon fill="none" stroke="black" points="392.5,-153 392.5,-183 511.5,-183 511.5,-153 392.5,-153"/>
<text text-anchor="start" x="400.5" y="-171" font-family="Helvetica,sans-Serif" font-size="10.00">carta::RegionHandler</text>
<text text-anchor="middle" x="452" y="-160" font-family="Helvetica,sans-Serif" font-size="10.00">::ApplyRegionToFile</text>
</a>
</g>
</g>
<!-- Node2&#45;&gt;Node3 -->
<g id="edge2" class="edge">
<title>Node2&#45;&gt;Node3</title>
<path fill="none" stroke="midnightblue" d="M329.17,-154.25C346.6,-156.22 365.15,-158.31 382.37,-160.26"/>
<polygon fill="midnightblue" stroke="midnightblue" points="382.01,-163.74 392.34,-161.38 382.8,-156.78 382.01,-163.74"/>
</g>
<!-- Node2&#45;&gt;Node6 -->
<g id="edge15" class="edge">
<title>Node2&#45;&gt;Node6</title>
<path fill="none" stroke="midnightblue" d="M269.72,-161.3C288.82,-181.41 325.54,-215.94 365,-231 434.33,-257.47 520.1,-259.36 578.94,-256.43"/>
<polygon fill="midnightblue" stroke="midnightblue" points="579.44,-259.91 589.23,-255.86 579.05,-252.92 579.44,-259.91"/>
</g>
<!-- Node8 -->
<g id="node8" class="node">
<title>Node8</title>
<g id="a_node8"><a xlink:href="namespacecarta.html#a96f7cab56516141317895bada342c0b1" target="_top" xlink:title=" ">
<polygon fill="none" stroke="black" points="392.5,-114.5 392.5,-133.5 511.5,-133.5 511.5,-114.5 392.5,-114.5"/>
<text text-anchor="middle" x="452" y="-121.5" font-family="Helvetica,sans-Serif" font-size="10.00">carta::CalcBasicStats</text>
</a>
</g>
</g>
<!-- Node2&#45;&gt;Node8 -->
<g id="edge8" class="edge">
<title>Node2&#45;&gt;Node8</title>
<path fill="none" stroke="midnightblue" d="M329.17,-137.75C346.6,-135.78 365.15,-133.69 382.37,-131.74"/>
<polygon fill="midnightblue" stroke="midnightblue" points="382.8,-135.22 392.34,-130.62 382.01,-128.26 382.8,-135.22"/>
</g>
<!-- Node11 -->
<g id="node11" class="node">
<title>Node11</title>
<g id="a_node11"><a xlink:href="namespacecarta.html#a3d967873206a1f0ff9062a2ecf29ae6b" target="_top" xlink:title=" ">
<polygon fill="none" stroke="black" points="392.5,-76.5 392.5,-95.5 511.5,-95.5 511.5,-76.5 392.5,-76.5"/>
<text text-anchor="middle" x="452" y="-83.5" font-family="Helvetica,sans-Serif" font-size="10.00">carta::CalcHistogram</text>
</a>
</g>
</g>
<!-- Node2&#45;&gt;Node11 -->
<g id="edge11" class="edge">
<title>Node2&#45;&gt;Node11</title>
<path fill="none" stroke="midnightblue" d="M292.39,-130.83C313.37,-122.46 340.39,-112.31 365,-105 373.72,-102.41 383.03,-100 392.19,-97.82"/>
<polygon fill="midnightblue" stroke="midnightblue" points="393.07,-101.21 402.03,-95.56 391.5,-94.39 393.07,-101.21"/>
</g>
<!-- Node13 -->
<g id="node13" class="node">
<title>Node13</title>
<g id="a_node13"><a xlink:href="classcarta_1_1Timer.html#aad2702a80259920b910fb76642f97b88" target="_top" xlink:title=" ">
<polygon fill="none" stroke="black" points="392,-38.5 392,-57.5 512,-57.5 512,-38.5 392,-38.5"/>
<text text-anchor="middle" x="452" y="-45.5" font-family="Helvetica,sans-Serif" font-size="10.00">carta::Timer::Elapsed</text>
</a>
</g>
</g>
<!-- Node2&#45;&gt;Node13 -->
<g id="edge13" class="edge">
<title>Node2&#45;&gt;Node13</title>
<path fill="none" stroke="midnightblue" d="M272.37,-130.76C292.58,-112.78 328.76,-83.28 365,-67 370.67,-64.45 376.72,-62.23 382.87,-60.3"/>
<polygon fill="midnightblue" stroke="midnightblue" points="383.95,-63.63 392.59,-57.5 382.01,-56.91 383.95,-63.63"/>
</g>
<!-- Node14 -->
<g id="node14" class="node">
<title>Node14</title>
<g id="a_node14"><a xlink:href="Message_8cc.html#aadf644bd365f0198b09a7196f9990511" target="_top" xlink:title=" ">
<polygon fill="none" stroke="black" points="411,-0.5 411,-19.5 493,-19.5 493,-0.5 411,-0.5"/>
<text text-anchor="middle" x="452" y="-7.5" font-family="Helvetica,sans-Serif" font-size="10.00">FillHistogram</text>
</a>
</g>
</g>
<!-- Node2&#45;&gt;Node14 -->
<g id="edge14" class="edge">
<title>Node2&#45;&gt;Node14</title>
<path fill="none" stroke="midnightblue" d="M265.66,-130.7C282.54,-105.31 319.93,-54.75 365,-29 375.79,-22.84 388.39,-18.67 400.57,-15.86"/>
<polygon fill="midnightblue" stroke="midnightblue" points="401.55,-19.23 410.65,-13.8 400.15,-12.37 401.55,-19.23"/>
</g>
<!-- Node15 -->
<g id="node15" class="node">
<title>Node15</title>
<g id="a_node15"><a xlink:href="classMessage.html#a730c49c8e93e27faf31796d44748088b" target="_top" xlink:title=" ">
<polygon fill="none" stroke="black" points="365,-202.5 365,-221.5 539,-221.5 539,-202.5 365,-202.5"/>
<text text-anchor="middle" x="452" y="-209.5" font-family="Helvetica,sans-Serif" font-size="10.00">Message::RegionHistogramData</text>
</a>
</g>
</g>
<!-- Node2&#45;&gt;Node15 -->
<g id="edge16" class="edge">
<title>Node2&#45;&gt;Node15</title>
<path fill="none" stroke="midnightblue" d="M286.88,-161.18C308.38,-171.29 337.94,-184.26 365,-193 373.05,-195.6 381.64,-197.96 390.16,-200.07"/>
<polygon fill="midnightblue" stroke="midnightblue" points="389.56,-203.52 400.09,-202.43 391.17,-196.71 389.56,-203.52"/>
</g>
<!-- Node4 -->
<g id="node4" class="node">
<title>Node4</title>
<g id="a_node4"><a xlink:href="classcarta_1_1RegionHandler.html#a4d3eaa8da979a4b0640aa3b598a9415b" target="_top" xlink:title=" ">
<polygon fill="none" stroke="black" points="589.5,-186 589.5,-216 708.5,-216 708.5,-186 589.5,-186"/>
<text text-anchor="start" x="597.5" y="-204" font-family="Helvetica,sans-Serif" font-size="10.00">carta::RegionHandler</text>
<text text-anchor="middle" x="649" y="-193" font-family="Helvetica,sans-Serif" font-size="10.00">::GetRegion</text>
</a>
</g>
</g>
<!-- Node3&#45;&gt;Node4 -->
<g id="edge3" class="edge">
<title>Node3&#45;&gt;Node4</title>
<path fill="none" stroke="midnightblue" d="M511.51,-177.9C532.81,-181.51 557.09,-185.62 579.21,-189.36"/>
<polygon fill="midnightblue" stroke="midnightblue" points="578.75,-192.83 589.2,-191.05 579.92,-185.93 578.75,-192.83"/>
</g>
<!-- Node3&#45;&gt;Node6 -->
<g id="edge5" class="edge">
<title>Node3&#45;&gt;Node6</title>
<path fill="none" stroke="midnightblue" d="M511.84,-181.17C521.22,-184.37 530.6,-188.27 539,-193 557.92,-203.64 556.27,-215.03 575,-226 577.97,-227.74 581.08,-229.37 584.27,-230.9"/>
<polygon fill="midnightblue" stroke="midnightblue" points="582.89,-234.11 593.45,-234.94 585.71,-227.7 582.89,-234.11"/>
</g>
<!-- Node5 -->
<g id="node5" class="node">
<title>Node5</title>
<g id="a_node5"><a xlink:href="classcarta_1_1RegionHandler.html#a9e8b41c9fe29c95b66a44f78490bbcae" target="_top" xlink:title=" ">
<polygon fill="none" stroke="black" points="759,-186 759,-216 878,-216 878,-186 759,-186"/>
<text text-anchor="start" x="767" y="-204" font-family="Helvetica,sans-Serif" font-size="10.00">carta::RegionHandler</text>
<text text-anchor="middle" x="818.5" y="-193" font-family="Helvetica,sans-Serif" font-size="10.00">::RegionSet</text>
</a>
</g>
</g>
<!-- Node4&#45;&gt;Node5 -->
<g id="edge4" class="edge">
<title>Node4&#45;&gt;Node5</title>
<path fill="none" stroke="midnightblue" d="M708.58,-201C721.59,-201 735.49,-201 748.85,-201"/>
<polygon fill="midnightblue" stroke="midnightblue" points="748.95,-204.5 758.95,-201 748.95,-197.5 748.95,-204.5"/>
</g>
<!-- Node6&#45;&gt;Node5 -->
<g id="edge7" class="edge">
<title>Node6&#45;&gt;Node5</title>
<path fill="none" stroke="midnightblue" d="M701.62,-234.9C718.9,-229.84 738.32,-224.16 756.26,-218.92"/>
<polygon fill="midnightblue" stroke="midnightblue" points="757.43,-222.22 766.05,-216.05 755.47,-215.5 757.43,-222.22"/>
</g>
<!-- Node7 -->
<g id="node7" class="node">
<title>Node7</title>
<g id="a_node7"><a xlink:href="classcarta_1_1RegionHandler.html#a16e8f0e73ba63be909517151bf11a450" target="_top" xlink:title=" ">
<polygon fill="none" stroke="black" points="759,-235 759,-265 878,-265 878,-235 759,-235"/>
<text text-anchor="start" x="767" y="-253" font-family="Helvetica,sans-Serif" font-size="10.00">carta::RegionHandler</text>
<text text-anchor="middle" x="818.5" y="-242" font-family="Helvetica,sans-Serif" font-size="10.00">::FrameSet</text>
</a>
</g>
</g>
<!-- Node6&#45;&gt;Node7 -->
<g id="edge6" class="edge">
<title>Node6&#45;&gt;Node7</title>
<path fill="none" stroke="midnightblue" d="M708.58,-250C721.59,-250 735.49,-250 748.85,-250"/>
<polygon fill="midnightblue" stroke="midnightblue" points="748.95,-253.5 758.95,-250 748.95,-246.5 748.95,-253.5"/>
</g>
<!-- Node9 -->
<g id="node9" class="node">
<title>Node9</title>
<g id="a_node9"><a xlink:href="classcarta_1_1BasicStatsCalculator.html#a29d141b4a8a8e26a6ef58c982447efea" target="_top" xlink:title=" ">
<polygon fill="none" stroke="black" points="575,-88 575,-118 723,-118 723,-88 575,-88"/>
<text text-anchor="start" x="583" y="-106" font-family="Helvetica,sans-Serif" font-size="10.00">carta::BasicStatsCalculator</text>
<text text-anchor="middle" x="649" y="-95" font-family="Helvetica,sans-Serif" font-size="10.00">::GetStats</text>
</a>
</g>
</g>
<!-- Node8&#45;&gt;Node9 -->
<g id="edge9" class="edge">
<title>Node8&#45;&gt;Node9</title>
<path fill="none" stroke="midnightblue" d="M511.51,-117.7C528.11,-115.91 546.51,-113.93 564.29,-112.01"/>
<polygon fill="midnightblue" stroke="midnightblue" points="565.1,-115.45 574.67,-110.9 564.35,-108.49 565.1,-115.45"/>
</g>
<!-- Node10 -->
<g id="node10" class="node">
<title>Node10</title>
<g id="a_node10"><a xlink:href="classcarta_1_1BasicStatsCalculator.html#a14873f9d84d2abb0fabe85f4b70d0a44" target="_top" xlink:title=" ">
<polygon fill="none" stroke="black" points="575,-137 575,-167 723,-167 723,-137 575,-137"/>
<text text-anchor="start" x="583" y="-155" font-family="Helvetica,sans-Serif" font-size="10.00">carta::BasicStatsCalculator</text>
<text text-anchor="middle" x="649" y="-144" font-family="Helvetica,sans-Serif" font-size="10.00">::reduce</text>
</a>
</g>
</g>
<!-- Node8&#45;&gt;Node10 -->
<g id="edge10" class="edge">
<title>Node8&#45;&gt;Node10</title>
<path fill="none" stroke="midnightblue" d="M511.51,-132.4C528.11,-134.78 546.51,-137.43 564.29,-139.98"/>
<polygon fill="midnightblue" stroke="midnightblue" points="564.27,-143.51 574.67,-141.47 565.27,-136.58 564.27,-143.51"/>
</g>
<!-- Node12 -->
<g id="node12" class="node">
<title>Node12</title>
<g id="a_node12"><a xlink:href="structcarta_1_1Bounds.html#a2af56587636d988cdf82b7d2a808dcc7" target="_top" xlink:title=" ">
<polygon fill="none" stroke="black" points="588,-49.5 588,-68.5 710,-68.5 710,-49.5 588,-49.5"/>
<text text-anchor="middle" x="649" y="-56.5" font-family="Helvetica,sans-Serif" font-size="10.00">carta::Bounds::Invalid</text>
</a>
</g>
</g>
<!-- Node11&#45;&gt;Node12 -->
<g id="edge12" class="edge">
<title>Node11&#45;&gt;Node12</title>
<path fill="none" stroke="midnightblue" d="M511.51,-77.9C532.33,-75.02 555.99,-71.74 577.7,-68.73"/>
<polygon fill="midnightblue" stroke="midnightblue" points="578.42,-72.17 587.85,-67.33 577.46,-65.23 578.42,-72.17"/>
</g>
</g>
</svg>
