<?xml version="1.0" encoding="UTF-8" standalone="no"?>
<!DOCTYPE svg PUBLIC "-//W3C//DTD SVG 1.1//EN"
 "http://www.w3.org/Graphics/SVG/1.1/DTD/svg11.dtd">
<!-- Generated by graphviz version 2.43.0 (0)
 -->
<!-- Title: carta::CartaFitsImage::SetPixelMask Pages: 1 -->
<svg width="622pt" height="91pt"
 viewBox="0.00 0.00 622.00 91.02" xmlns="http://www.w3.org/2000/svg" xmlns:xlink="http://www.w3.org/1999/xlink">
<g id="graph0" class="graph" transform="scale(1 1) rotate(0) translate(4 87.02)">
<title>carta::CartaFitsImage::SetPixelMask</title>
<!-- Node1 -->
<g id="node1" class="node">
<title>Node1</title>
<g id="a_node1"><a xlink:title=" ">
<polygon fill="#bfbfbf" stroke="black" points="0,-44.5 0,-74.5 122,-74.5 122,-44.5 0,-44.5"/>
<text text-anchor="start" x="8" y="-62.5" font-family="Helvetica,sans-Serif" font-size="10.00">carta::CartaFitsImage</text>
<text text-anchor="middle" x="61" y="-51.5" font-family="Helvetica,sans-Serif" font-size="10.00">::SetPixelMask</text>
</a>
</g>
</g>
<!-- Node2 -->
<g id="node2" class="node">
<title>Node2</title>
<g id="a_node2"><a xlink:href="classcarta_1_1CartaFitsImage.html#aad75292f7a1ce528680c1acef3bdbcf4" target="_top" xlink:title=" ">
<polygon fill="none" stroke="black" points="492,-41.5 492,-71.5 614,-71.5 614,-41.5 492,-41.5"/>
<text text-anchor="start" x="500" y="-59.5" font-family="Helvetica,sans-Serif" font-size="10.00">carta::CartaFitsImage</text>
<text text-anchor="middle" x="553" y="-48.5" font-family="Helvetica,sans-Serif" font-size="10.00">::CloseFile</text>
</a>
</g>
</g>
<!-- Node1&#45;&gt;Node2 -->
<g id="edge1" class="edge">
<title>Node1&#45;&gt;Node2</title>
<path fill="none" stroke="midnightblue" d="M122.16,-73.27C133.98,-75.45 146.33,-77.36 158,-78.5 270.89,-89.56 402.56,-77.11 481.5,-66.94"/>
<polygon fill="midnightblue" stroke="midnightblue" points="482.35,-70.36 491.8,-65.58 481.43,-63.42 482.35,-70.36"/>
</g>
<!-- Node3 -->
<g id="node3" class="node">
<title>Node3</title>
<g id="a_node3"><a xlink:href="classcarta_1_1CartaFitsImage.html#a16d3fdc222553528b79b761a6f14e14b" target="_top" xlink:title=" ">
<polygon fill="none" stroke="black" points="158,-50 158,-69 298,-69 298,-50 158,-50"/>
<text text-anchor="middle" x="228" y="-57" font-family="Helvetica,sans-Serif" font-size="10.00">carta::CartaFitsImage::ok</text>
</a>
</g>
</g>
<!-- Node1&#45;&gt;Node3 -->
<g id="edge2" class="edge">
<title>Node1&#45;&gt;Node3</title>
<path fill="none" stroke="midnightblue" d="M122.04,-59.5C130.38,-59.5 139.06,-59.5 147.69,-59.5"/>
<polygon fill="midnightblue" stroke="midnightblue" points="147.77,-63 157.77,-59.5 147.77,-56 147.77,-63"/>
</g>
<!-- Node4 -->
<g id="node4" class="node">
<title>Node4</title>
<g id="a_node4"><a xlink:href="classcarta_1_1CartaFitsImage.html#a4cb9089fd4a27b966e1349b15ad115a6" target="_top" xlink:title=" ">
<polygon fill="none" stroke="black" points="167,-0.5 167,-30.5 289,-30.5 289,-0.5 167,-0.5"/>
<text text-anchor="start" x="175" y="-18.5" font-family="Helvetica,sans-Serif" font-size="10.00">carta::CartaFitsImage</text>
<text text-anchor="middle" x="228" y="-7.5" font-family="Helvetica,sans-Serif" font-size="10.00">::OpenFile</text>
</a>
</g>
</g>
<!-- Node1&#45;&gt;Node4 -->
<g id="edge3" class="edge">
<title>Node1&#45;&gt;Node4</title>
<path fill="none" stroke="midnightblue" d="M118.32,-44.48C131.92,-40.85 146.58,-36.95 160.59,-33.21"/>
<polygon fill="midnightblue" stroke="midnightblue" points="161.89,-36.48 170.65,-30.53 160.09,-29.72 161.89,-36.48"/>
</g>
<!-- Node5 -->
<g id="node5" class="node">
<title>Node5</title>
<g id="a_node5"><a xlink:href="classcarta_1_1CartaFitsImage.html#a7dd373aa11933081095fd80e81af7aac" target="_top" xlink:title=" ">
<polygon fill="none" stroke="black" points="334,-19.5 334,-49.5 456,-49.5 456,-19.5 334,-19.5"/>
<text text-anchor="start" x="342" y="-37.5" font-family="Helvetica,sans-Serif" font-size="10.00">carta::CartaFitsImage</text>
<text text-anchor="middle" x="395" y="-26.5" font-family="Helvetica,sans-Serif" font-size="10.00">::CloseFileIfError</text>
</a>
</g>
</g>
<!-- Node4&#45;&gt;Node5 -->
<g id="edge4" class="edge">
<title>Node4&#45;&gt;Node5</title>
<path fill="none" stroke="midnightblue" d="M289.04,-22.41C300.3,-23.71 312.16,-25.08 323.7,-26.4"/>
<polygon fill="midnightblue" stroke="midnightblue" points="323.4,-29.89 333.73,-27.56 324.2,-22.94 323.4,-29.89"/>
</g>
<!-- Node5&#45;&gt;Node2 -->
<g id="edge5" class="edge">
<title>Node5&#45;&gt;Node2</title>
<path fill="none" stroke="midnightblue" d="M456.31,-43.01C464.69,-44.19 473.36,-45.41 481.9,-46.61"/>
<polygon fill="midnightblue" stroke="midnightblue" points="481.46,-50.09 491.85,-48.02 482.43,-43.15 481.46,-50.09"/>
</g>
</g>
</svg>
