<?xml version="1.0" encoding="UTF-8" standalone="no"?>
<!DOCTYPE svg PUBLIC "-//W3C//DTD SVG 1.1//EN"
 "http://www.w3.org/Graphics/SVG/1.1/DTD/svg11.dtd">
<!-- Generated by graphviz version 2.43.0 (0)
 -->
<!-- Title: carta::Session::OnAddRequiredTiles Pages: 1 -->
<svg width="892pt" height="377pt"
 viewBox="0.00 0.00 892.00 377.00" xmlns="http://www.w3.org/2000/svg" xmlns:xlink="http://www.w3.org/1999/xlink">
<g id="graph0" class="graph" transform="scale(1 1) rotate(0) translate(4 373)">
<title>carta::Session::OnAddRequiredTiles</title>
<!-- Node1 -->
<g id="node1" class="node">
<title>Node1</title>
<g id="a_node1"><a xlink:title=" ">
<polygon fill="#bfbfbf" stroke="black" points="0,-188.5 0,-218.5 167,-218.5 167,-188.5 0,-188.5"/>
<text text-anchor="start" x="8" y="-206.5" font-family="Helvetica,sans-Serif" font-size="10.00">carta::Session::OnAddRequired</text>
<text text-anchor="middle" x="83.5" y="-195.5" font-family="Helvetica,sans-Serif" font-size="10.00">Tiles</text>
</a>
</g>
</g>
<!-- Node2 -->
<g id="node2" class="node">
<title>Node2</title>
<g id="a_node2"><a xlink:href="classcarta_1_1Session.html#ae5fd18bfcf840d630f3c136e9c5671a8" target="_top" xlink:title=" ">
<polygon fill="none" stroke="black" points="203,-338.5 203,-368.5 344,-368.5 344,-338.5 203,-338.5"/>
<text text-anchor="start" x="211" y="-356.5" font-family="Helvetica,sans-Serif" font-size="10.00">carta::Session::Animation</text>
<text text-anchor="middle" x="273.5" y="-345.5" font-family="Helvetica,sans-Serif" font-size="10.00">Running</text>
</a>
</g>
</g>
<!-- Node1&#45;&gt;Node2 -->
<g id="edge1" class="edge">
<title>Node1&#45;&gt;Node2</title>
<path fill="none" stroke="midnightblue" d="M94.81,-218.54C113.47,-244.68 155.35,-298.67 203,-329.5 205.46,-331.09 208.04,-332.59 210.7,-334"/>
<polygon fill="midnightblue" stroke="midnightblue" points="209.44,-337.28 219.96,-338.47 212.47,-330.97 209.44,-337.28"/>
</g>
<!-- Node3 -->
<g id="node3" class="node">
<title>Node3</title>
<g id="a_node3"><a xlink:href="classcarta_1_1ThreadManager.html#a82cbb5d8370c091ac96c24d0fc4984dc" target="_top" xlink:title=" ">
<polygon fill="none" stroke="black" points="211.5,-289.5 211.5,-319.5 335.5,-319.5 335.5,-289.5 211.5,-289.5"/>
<text text-anchor="start" x="219.5" y="-307.5" font-family="Helvetica,sans-Serif" font-size="10.00">carta::ThreadManager</text>
<text text-anchor="middle" x="273.5" y="-296.5" font-family="Helvetica,sans-Serif" font-size="10.00">::ApplyThreadLimit</text>
</a>
</g>
</g>
<!-- Node1&#45;&gt;Node3 -->
<g id="edge2" class="edge">
<title>Node1&#45;&gt;Node3</title>
<path fill="none" stroke="midnightblue" d="M105.06,-218.73C128.05,-235.26 166.83,-261.68 203,-279.5 207.3,-281.62 211.83,-283.65 216.43,-285.58"/>
<polygon fill="midnightblue" stroke="midnightblue" points="215.33,-288.91 225.91,-289.38 217.93,-282.41 215.33,-288.91"/>
</g>
<!-- Node4 -->
<g id="node4" class="node">
<title>Node4</title>
<g id="a_node4"><a xlink:href="structcarta_1_1Tile.html#a3bb9a6a862540de876a281145ab80e92" target="_top" xlink:title=" ">
<polygon fill="none" stroke="black" points="219.5,-251 219.5,-270 327.5,-270 327.5,-251 219.5,-251"/>
<text text-anchor="middle" x="273.5" y="-258" font-family="Helvetica,sans-Serif" font-size="10.00">carta::Tile::Decode</text>
</a>
</g>
</g>
<!-- Node1&#45;&gt;Node4 -->
<g id="edge3" class="edge">
<title>Node1&#45;&gt;Node4</title>
<path fill="none" stroke="midnightblue" d="M129.94,-218.58C151.93,-225.75 178.77,-234.31 203,-241.5 210.59,-243.75 218.67,-246.05 226.54,-248.24"/>
<polygon fill="midnightblue" stroke="midnightblue" points="225.77,-251.66 236.34,-250.94 227.63,-244.91 225.77,-251.66"/>
</g>
<!-- Node5 -->
<g id="node5" class="node">
<title>Node5</title>
<g id="a_node5"><a xlink:href="classcarta_1_1Timer.html#aad2702a80259920b910fb76642f97b88" target="_top" xlink:title=" ">
<polygon fill="none" stroke="black" points="213.5,-213 213.5,-232 333.5,-232 333.5,-213 213.5,-213"/>
<text text-anchor="middle" x="273.5" y="-220" font-family="Helvetica,sans-Serif" font-size="10.00">carta::Timer::Elapsed</text>
</a>
</g>
</g>
<!-- Node1&#45;&gt;Node5 -->
<g id="edge4" class="edge">
<title>Node1&#45;&gt;Node5</title>
<path fill="none" stroke="midnightblue" d="M167.23,-211.86C179.27,-213.08 191.56,-214.32 203.29,-215.51"/>
<polygon fill="midnightblue" stroke="midnightblue" points="203.14,-219.01 213.44,-216.53 203.84,-212.04 203.14,-219.01"/>
</g>
<!-- Node6 -->
<g id="node6" class="node">
<title>Node6</title>
<g id="a_node6"><a xlink:href="structcarta_1_1TimeDelta.html#a90b2dc0a7d70b0aa6f668f4bbad7fa58" target="_top" xlink:title=" ">
<polygon fill="none" stroke="black" points="214,-175 214,-194 333,-194 333,-175 214,-175"/>
<text text-anchor="middle" x="273.5" y="-182" font-family="Helvetica,sans-Serif" font-size="10.00">carta::TimeDelta::ms</text>
</a>
</g>
</g>
<!-- Node1&#45;&gt;Node6 -->
<g id="edge5" class="edge">
<title>Node1&#45;&gt;Node6</title>
<path fill="none" stroke="midnightblue" d="M167.23,-195.14C179.42,-193.91 191.87,-192.65 203.74,-191.45"/>
<polygon fill="midnightblue" stroke="midnightblue" points="204.4,-194.9 214,-190.41 203.7,-187.94 204.4,-194.9"/>
</g>
<!-- Node7 -->
<g id="node7" class="node">
<title>Node7</title>
<g id="a_node7"><a xlink:href="classMessage.html#ac700107151a549f518c77c36f36aea7e" target="_top" xlink:title=" ">
<polygon fill="none" stroke="black" points="204,-137 204,-156 343,-156 343,-137 204,-137"/>
<text text-anchor="middle" x="273.5" y="-144" font-family="Helvetica,sans-Serif" font-size="10.00">Message::RasterTileData</text>
</a>
</g>
</g>
<!-- Node1&#45;&gt;Node7 -->
<g id="edge6" class="edge">
<title>Node1&#45;&gt;Node7</title>
<path fill="none" stroke="midnightblue" d="M129.94,-188.42C151.93,-181.25 178.77,-172.69 203,-165.5 210.59,-163.25 218.67,-160.95 226.54,-158.76"/>
<polygon fill="midnightblue" stroke="midnightblue" points="227.63,-162.09 236.34,-156.06 225.77,-155.34 227.63,-162.09"/>
</g>
<!-- Node8 -->
<g id="node8" class="node">
<title>Node8</title>
<g id="a_node8"><a xlink:href="classMessage.html#abfe5e236035c2d079cb30cf181d500f5" target="_top" xlink:title=" ">
<polygon fill="none" stroke="black" points="204,-99 204,-118 343,-118 343,-99 204,-99"/>
<text text-anchor="middle" x="273.5" y="-106" font-family="Helvetica,sans-Serif" font-size="10.00">Message::RasterTileSync</text>
</a>
</g>
</g>
<!-- Node1&#45;&gt;Node8 -->
<g id="edge7" class="edge">
<title>Node1&#45;&gt;Node8</title>
<path fill="none" stroke="midnightblue" d="M103.99,-188.35C126.64,-171.38 165.71,-144.09 203,-127.5 208.34,-125.12 214.06,-122.98 219.82,-121.06"/>
<polygon fill="midnightblue" stroke="midnightblue" points="221.01,-124.36 229.52,-118.06 218.93,-117.68 221.01,-124.36"/>
</g>
<!-- Node9 -->
<g id="node9" class="node">
<title>Node9</title>
<g id="a_node9"><a xlink:href="classcarta_1_1Session.html#ae6ff58d2a61d3872bc741f12ed2b91d7" target="_top" xlink:title=" ">
<polygon fill="none" stroke="black" points="207.5,-49.5 207.5,-79.5 339.5,-79.5 339.5,-49.5 207.5,-49.5"/>
<text text-anchor="start" x="215.5" y="-67.5" font-family="Helvetica,sans-Serif" font-size="10.00">carta::Session::SendFile</text>
<text text-anchor="middle" x="273.5" y="-56.5" font-family="Helvetica,sans-Serif" font-size="10.00">Event</text>
</a>
</g>
</g>
<!-- Node1&#45;&gt;Node9 -->
<g id="edge8" class="edge">
<title>Node1&#45;&gt;Node9</title>
<path fill="none" stroke="midnightblue" d="M96.44,-188.49C116.23,-164.49 158.13,-117.36 203,-89.5 206.18,-87.52 209.54,-85.67 213,-83.94"/>
<polygon fill="midnightblue" stroke="midnightblue" points="214.71,-87.01 222.33,-79.65 211.78,-80.65 214.71,-87.01"/>
</g>
<!-- Node10 -->
<g id="node10" class="node">
<title>Node10</title>
<g id="a_node10"><a xlink:href="classcarta_1_1Session.html#af5f45b72e3fb7d4ad6fbf32fcc9da912" target="_top" xlink:title=" ">
<polygon fill="none" stroke="black" points="380,-55 380,-74 523,-74 523,-55 380,-55"/>
<text text-anchor="middle" x="451.5" y="-62" font-family="Helvetica,sans-Serif" font-size="10.00">carta::Session::SendEvent</text>
</a>
</g>
</g>
<!-- Node9&#45;&gt;Node10 -->
<g id="edge9" class="edge">
<title>Node9&#45;&gt;Node10</title>
<path fill="none" stroke="midnightblue" d="M339.54,-64.5C349.38,-64.5 359.63,-64.5 369.75,-64.5"/>
<polygon fill="midnightblue" stroke="midnightblue" points="369.82,-68 379.82,-64.5 369.82,-61 369.82,-68"/>
</g>
<!-- Node11 -->
<g id="node11" class="node">
<title>Node11</title>
<g id="a_node11"><a xlink:href="namespacecarta_1_1logger.html#ab9e339746ee51ea21696ab43b50841d5" target="_top" xlink:title=" ">
<polygon fill="none" stroke="black" points="559,-99 559,-118 732,-118 732,-99 559,-99"/>
<text text-anchor="middle" x="645.5" y="-106" font-family="Helvetica,sans-Serif" font-size="10.00">carta::logger::LogSentEventType</text>
</a>
</g>
</g>
<!-- Node10&#45;&gt;Node11 -->
<g id="edge10" class="edge">
<title>Node10&#45;&gt;Node11</title>
<path fill="none" stroke="midnightblue" d="M492.68,-74.05C512.61,-78.76 537.06,-84.49 559,-89.5 569.34,-91.86 580.38,-94.35 590.99,-96.71"/>
<polygon fill="midnightblue" stroke="midnightblue" points="590.46,-100.18 600.98,-98.93 591.98,-93.35 590.46,-100.18"/>
</g>
<!-- Node13 -->
<g id="node13" class="node">
<title>Node13</title>
<g id="a_node13"><a xlink:href="classcarta_1_1concurrent__queue.html#ab1a11795f017e1c7dd870fce5da5ede1" target="_top" xlink:title=" ">
<polygon fill="none" stroke="black" points="578.5,-49.5 578.5,-79.5 712.5,-79.5 712.5,-49.5 578.5,-49.5"/>
<text text-anchor="start" x="586.5" y="-67.5" font-family="Helvetica,sans-Serif" font-size="10.00">carta::concurrent_queue</text>
<text text-anchor="middle" x="645.5" y="-56.5" font-family="Helvetica,sans-Serif" font-size="10.00">::push</text>
</a>
</g>
</g>
<!-- Node10&#45;&gt;Node13 -->
<g id="edge12" class="edge">
<title>Node10&#45;&gt;Node13</title>
<path fill="none" stroke="midnightblue" d="M523.18,-64.5C537.86,-64.5 553.39,-64.5 568.26,-64.5"/>
<polygon fill="midnightblue" stroke="midnightblue" points="568.43,-68 578.43,-64.5 568.43,-61 568.43,-68"/>
</g>
<!-- Node14 -->
<g id="node14" class="node">
<title>Node14</title>
<g id="a_node14"><a xlink:href="classcarta_1_1concurrent__queue.html#a44dc990ae7a71921648cad573058357d" target="_top" xlink:title=" ">
<polygon fill="none" stroke="black" points="578.5,-0.5 578.5,-30.5 712.5,-30.5 712.5,-0.5 578.5,-0.5"/>
<text text-anchor="start" x="586.5" y="-18.5" font-family="Helvetica,sans-Serif" font-size="10.00">carta::concurrent_queue</text>
<text text-anchor="middle" x="645.5" y="-7.5" font-family="Helvetica,sans-Serif" font-size="10.00">::try_pop</text>
</a>
</g>
</g>
<!-- Node10&#45;&gt;Node14 -->
<g id="edge13" class="edge">
<title>Node10&#45;&gt;Node14</title>
<path fill="none" stroke="midnightblue" d="M489.98,-54.94C514.28,-48.73 546.69,-40.46 575.54,-33.1"/>
<polygon fill="midnightblue" stroke="midnightblue" points="576.76,-36.4 585.58,-30.54 575.02,-29.62 576.76,-36.4"/>
</g>
<!-- Node12 -->
<g id="node12" class="node">
<title>Node12</title>
<g id="a_node12"><a xlink:href="namespacecarta_1_1logger.html#a23c9bf75209165cf69eb8d50f64b81b4" target="_top" xlink:title=" ">
<polygon fill="none" stroke="black" points="768,-93.5 768,-123.5 884,-123.5 884,-93.5 768,-93.5"/>
<text text-anchor="start" x="776" y="-111.5" font-family="Helvetica,sans-Serif" font-size="10.00">carta::logger::log</text>
<text text-anchor="middle" x="826" y="-100.5" font-family="Helvetica,sans-Serif" font-size="10.00">_protocol_messages</text>
</a>
</g>
</g>
<!-- Node11&#45;&gt;Node12 -->
<g id="edge11" class="edge">
<title>Node11&#45;&gt;Node12</title>
<path fill="none" stroke="midnightblue" d="M732.09,-108.5C740.74,-108.5 749.44,-108.5 757.86,-108.5"/>
<polygon fill="midnightblue" stroke="midnightblue" points="757.96,-112 767.96,-108.5 757.96,-105 757.96,-112"/>
</g>
</g>
</svg>
