<?xml version="1.0" encoding="UTF-8" standalone="no"?>
<!DOCTYPE svg PUBLIC "-//W3C//DTD SVG 1.1//EN"
 "http://www.w3.org/Graphics/SVG/1.1/DTD/svg11.dtd">
<!-- Generated by graphviz version 2.43.0 (0)
 -->
<!-- Title: carta::Frame::FillRegionHistogramData Pages: 1 -->
<svg width="957pt" height="483pt"
 viewBox="0.00 0.00 957.00 483.25" xmlns="http://www.w3.org/2000/svg" xmlns:xlink="http://www.w3.org/1999/xlink">
<g id="graph0" class="graph" transform="scale(1 1) rotate(0) translate(4 479.25)">
<title>carta::Frame::FillRegionHistogramData</title>
<!-- Node1 -->
<g id="node1" class="node">
<title>Node1</title>
<g id="a_node1"><a xlink:title=" ">
<polygon fill="#bfbfbf" stroke="black" points="0,-256 0,-286 132,-286 132,-256 0,-256"/>
<text text-anchor="start" x="8" y="-274" font-family="Helvetica,sans-Serif" font-size="10.00">carta::Frame::FillRegion</text>
<text text-anchor="middle" x="66" y="-263" font-family="Helvetica,sans-Serif" font-size="10.00">HistogramData</text>
</a>
</g>
</g>
<!-- Node2 -->
<g id="node2" class="node">
<title>Node2</title>
<g id="a_node2"><a xlink:href="classcarta_1_1Frame.html#a2e88a8481229d116d2976f51b32ac326" target="_top" xlink:title=" ">
<polygon fill="none" stroke="black" points="378,-251.5 378,-270.5 559,-270.5 559,-251.5 378,-251.5"/>
<text text-anchor="middle" x="468.5" y="-258.5" font-family="Helvetica,sans-Serif" font-size="10.00">carta::Frame::CalculateHistogram</text>
</a>
</g>
</g>
<!-- Node1&#45;&gt;Node2 -->
<g id="edge1" class="edge">
<title>Node1&#45;&gt;Node2</title>
<path fill="none" stroke="midnightblue" d="M132.2,-269C144.11,-268.66 156.43,-268.31 168,-268 234.46,-266.24 309.22,-264.49 367.42,-263.18"/>
<polygon fill="midnightblue" stroke="midnightblue" points="367.8,-266.67 377.72,-262.95 367.65,-259.68 367.8,-266.67"/>
</g>
<!-- Node8 -->
<g id="node8" class="node">
<title>Node8</title>
<g id="a_node8"><a xlink:href="classcarta_1_1Frame.html#a1eda290558f3e9a6be5d4149c06e1b7b" target="_top" xlink:title=" ">
<polygon fill="none" stroke="black" points="611,-304.5 611,-323.5 738,-323.5 738,-304.5 611,-304.5"/>
<text text-anchor="middle" x="674.5" y="-311.5" font-family="Helvetica,sans-Serif" font-size="10.00">carta::Frame::CurrentZ</text>
</a>
</g>
</g>
<!-- Node1&#45;&gt;Node8 -->
<g id="edge16" class="edge">
<title>Node1&#45;&gt;Node8</title>
<path fill="none" stroke="midnightblue" d="M82.56,-286.15C101.16,-303.18 134.05,-330 168,-342 331.96,-399.93 392.09,-404.77 559,-356 577.22,-350.68 577.53,-340.45 595,-333 600.84,-330.51 607.07,-328.31 613.37,-326.37"/>
<polygon fill="midnightblue" stroke="midnightblue" points="614.63,-329.65 623.28,-323.53 612.7,-322.92 614.63,-329.65"/>
</g>
<!-- Node9 -->
<g id="node9" class="node">
<title>Node9</title>
<g id="a_node9"><a xlink:href="classcarta_1_1Frame.html#ad0db7c41f9da68619616cccb059edbb4" target="_top" xlink:title=" ">
<polygon fill="none" stroke="black" points="618,-392.5 618,-411.5 731,-411.5 731,-392.5 618,-392.5"/>
<text text-anchor="middle" x="674.5" y="-399.5" font-family="Helvetica,sans-Serif" font-size="10.00">carta::Frame::Depth</text>
</a>
</g>
</g>
<!-- Node1&#45;&gt;Node9 -->
<g id="edge17" class="edge">
<title>Node1&#45;&gt;Node9</title>
<path fill="none" stroke="midnightblue" d="M75.8,-286.32C90.97,-311.05 124.64,-359 168,-379 316.32,-447.41 515.82,-428.59 613.94,-413.15"/>
<polygon fill="midnightblue" stroke="midnightblue" points="614.66,-416.58 623.97,-411.53 613.54,-409.67 614.66,-416.58"/>
</g>
<!-- Node11 -->
<g id="node11" class="node">
<title>Node11</title>
<g id="a_node11"><a xlink:href="classcarta_1_1Timer.html#aad2702a80259920b910fb76642f97b88" target="_top" xlink:title=" ">
<polygon fill="none" stroke="black" points="809.5,-266.5 809.5,-285.5 929.5,-285.5 929.5,-266.5 809.5,-266.5"/>
<text text-anchor="middle" x="869.5" y="-273.5" font-family="Helvetica,sans-Serif" font-size="10.00">carta::Timer::Elapsed</text>
</a>
</g>
</g>
<!-- Node1&#45;&gt;Node11 -->
<g id="edge18" class="edge">
<title>Node1&#45;&gt;Node11</title>
<path fill="none" stroke="midnightblue" d="M72.54,-286.02C84.61,-316.36 116.41,-384.65 168,-415 248.89,-462.58 284.28,-432.1 378,-437 545.03,-445.73 624.7,-527.1 754,-421 799.02,-384.05 747.99,-335.33 790,-295 792.99,-292.13 796.33,-289.67 799.91,-287.57"/>
<polygon fill="midnightblue" stroke="midnightblue" points="801.76,-290.56 809.21,-283.03 798.69,-284.27 801.76,-290.56"/>
</g>
<!-- Node15 -->
<g id="node15" class="node">
<title>Node15</title>
<g id="a_node15"><a xlink:href="Message_8cc.html#aadf644bd365f0198b09a7196f9990511" target="_top" xlink:title=" ">
<polygon fill="none" stroke="black" points="427.5,-327.5 427.5,-346.5 509.5,-346.5 509.5,-327.5 427.5,-327.5"/>
<text text-anchor="middle" x="468.5" y="-334.5" font-family="Helvetica,sans-Serif" font-size="10.00">FillHistogram</text>
</a>
</g>
</g>
<!-- Node1&#45;&gt;Node15 -->
<g id="edge19" class="edge">
<title>Node1&#45;&gt;Node15</title>
<path fill="none" stroke="midnightblue" d="M93.05,-286.04C112.9,-296.7 141.28,-310.26 168,-317 253.5,-338.56 356.82,-340.36 417.05,-339.1"/>
<polygon fill="midnightblue" stroke="midnightblue" points="417.15,-342.6 427.06,-338.85 416.98,-335.6 417.15,-342.6"/>
</g>
<!-- Node16 -->
<g id="node16" class="node">
<title>Node16</title>
<g id="a_node16"><a xlink:href="classcarta_1_1Frame.html#a3a4bc30034d44066062d5794044da1b6" target="_top" xlink:title=" ">
<polygon fill="none" stroke="black" points="180.5,-190 180.5,-220 329.5,-220 329.5,-190 180.5,-190"/>
<text text-anchor="start" x="188.5" y="-208" font-family="Helvetica,sans-Serif" font-size="10.00">carta::Frame::FillHistogram</text>
<text text-anchor="middle" x="255" y="-197" font-family="Helvetica,sans-Serif" font-size="10.00">FromFrameCache</text>
</a>
</g>
</g>
<!-- Node1&#45;&gt;Node16 -->
<g id="edge20" class="edge">
<title>Node1&#45;&gt;Node16</title>
<path fill="none" stroke="midnightblue" d="M109.24,-255.87C127.33,-249.41 148.69,-241.81 168,-235 178.73,-231.22 190.22,-227.19 201.19,-223.36"/>
<polygon fill="midnightblue" stroke="midnightblue" points="202.38,-226.65 210.67,-220.05 200.08,-220.04 202.38,-226.65"/>
</g>
<!-- Node17 -->
<g id="node17" class="node">
<title>Node17</title>
<g id="a_node17"><a xlink:href="classcarta_1_1Frame.html#a1bd6cad34fcc337311218150f6771850" target="_top" xlink:title=" ">
<polygon fill="none" stroke="black" points="392.5,-114.5 392.5,-133.5 544.5,-133.5 544.5,-114.5 392.5,-114.5"/>
<text text-anchor="middle" x="468.5" y="-121.5" font-family="Helvetica,sans-Serif" font-size="10.00">carta::Frame::GetBasicStats</text>
</a>
</g>
</g>
<!-- Node1&#45;&gt;Node17 -->
<g id="edge37" class="edge">
<title>Node1&#45;&gt;Node17</title>
<path fill="none" stroke="midnightblue" d="M78.93,-255.99C96.22,-235.34 130.34,-198.62 168,-180 235.27,-146.75 319.95,-133.15 382.09,-127.64"/>
<polygon fill="midnightblue" stroke="midnightblue" points="382.57,-131.11 392.25,-126.79 381.99,-124.13 382.57,-131.11"/>
</g>
<!-- Node23 -->
<g id="node23" class="node">
<title>Node23</title>
<g id="a_node23"><a xlink:href="classcarta_1_1Frame.html#afe5a0151cdf414ebe9707ad5ba670e82" target="_top" xlink:title=" ">
<polygon fill="none" stroke="black" points="180.5,-278 180.5,-308 329.5,-308 329.5,-278 180.5,-278"/>
<text text-anchor="start" x="188.5" y="-296" font-family="Helvetica,sans-Serif" font-size="10.00">carta::Frame::FillHistogram</text>
<text text-anchor="middle" x="255" y="-285" font-family="Helvetica,sans-Serif" font-size="10.00">FromLoaderCache</text>
</a>
</g>
</g>
<!-- Node1&#45;&gt;Node23 -->
<g id="edge35" class="edge">
<title>Node1&#45;&gt;Node23</title>
<path fill="none" stroke="midnightblue" d="M132.14,-278.66C144.45,-280.11 157.48,-281.65 170.27,-283.15"/>
<polygon fill="midnightblue" stroke="midnightblue" points="170.11,-286.66 180.46,-284.35 170.93,-279.7 170.11,-286.66"/>
</g>
<!-- Node24 -->
<g id="node24" class="node">
<title>Node24</title>
<g id="a_node24"><a xlink:href="classcarta_1_1Frame.html#aad7fc7f3462a849a9cea9562fb45e220" target="_top" xlink:title=" ">
<polygon fill="none" stroke="black" points="177,-71 177,-101 333,-101 333,-71 177,-71"/>
<text text-anchor="start" x="185" y="-89" font-family="Helvetica,sans-Serif" font-size="10.00">carta::Frame::GetStokesType</text>
<text text-anchor="middle" x="255" y="-78" font-family="Helvetica,sans-Serif" font-size="10.00">Index</text>
</a>
</g>
</g>
<!-- Node1&#45;&gt;Node24 -->
<g id="edge38" class="edge">
<title>Node1&#45;&gt;Node24</title>
<path fill="none" stroke="midnightblue" d="M74.92,-255.91C89.97,-228.38 125.05,-169.43 168,-132 179.82,-121.7 194.35,-112.83 208.08,-105.7"/>
<polygon fill="midnightblue" stroke="midnightblue" points="210.02,-108.65 217.41,-101.05 206.89,-102.38 210.02,-108.65"/>
</g>
<!-- Node27 -->
<g id="node27" class="node">
<title>Node27</title>
<g id="a_node27"><a xlink:href="classMessage.html#a730c49c8e93e27faf31796d44748088b" target="_top" xlink:title=" ">
<polygon fill="none" stroke="black" points="168,-32.5 168,-51.5 342,-51.5 342,-32.5 168,-32.5"/>
<text text-anchor="middle" x="255" y="-39.5" font-family="Helvetica,sans-Serif" font-size="10.00">Message::RegionHistogramData</text>
</a>
</g>
</g>
<!-- Node1&#45;&gt;Node27 -->
<g id="edge42" class="edge">
<title>Node1&#45;&gt;Node27</title>
<path fill="none" stroke="midnightblue" d="M69.63,-255.74C77.21,-216.69 102.83,-112.62 168,-61 170.1,-59.34 172.31,-57.82 174.61,-56.42"/>
<polygon fill="midnightblue" stroke="midnightblue" points="176.6,-59.33 183.88,-51.64 173.39,-53.11 176.6,-59.33"/>
</g>
<!-- Node3 -->
<g id="node3" class="node">
<title>Node3</title>
<g id="a_node3"><a xlink:href="classcarta_1_1Frame.html#a54fa0e39d0db24c3f5913668935f69ef" target="_top" xlink:title=" ">
<polygon fill="none" stroke="black" points="603,-342.5 603,-361.5 746,-361.5 746,-342.5 603,-342.5"/>
<text text-anchor="middle" x="674.5" y="-349.5" font-family="Helvetica,sans-Serif" font-size="10.00">carta::Frame::AutoBinSize</text>
</a>
</g>
</g>
<!-- Node2&#45;&gt;Node3 -->
<g id="edge2" class="edge">
<title>Node2&#45;&gt;Node3</title>
<path fill="none" stroke="midnightblue" d="M527.81,-270.61C538.75,-274.04 549.67,-278.69 559,-285 581.09,-299.94 572.73,-318.33 595,-333 598.11,-335.05 601.42,-336.88 604.86,-338.51"/>
<polygon fill="midnightblue" stroke="midnightblue" points="603.61,-341.78 614.19,-342.38 606.29,-335.32 603.61,-341.78"/>
</g>
<!-- Node4 -->
<g id="node4" class="node">
<title>Node4</title>
<g id="a_node4"><a xlink:href="classcarta_1_1Frame.html#a1614c68dbc09df9dd7212cbcf909fa43" target="_top" xlink:title=" ">
<polygon fill="none" stroke="black" points="608.5,-152.5 608.5,-171.5 740.5,-171.5 740.5,-152.5 608.5,-152.5"/>
<text text-anchor="middle" x="674.5" y="-159.5" font-family="Helvetica,sans-Serif" font-size="10.00">carta::Frame::CacheKey</text>
</a>
</g>
</g>
<!-- Node2&#45;&gt;Node4 -->
<g id="edge3" class="edge">
<title>Node2&#45;&gt;Node4</title>
<path fill="none" stroke="midnightblue" d="M539.38,-251.36C546.37,-248.68 553.06,-245.29 559,-241 584.22,-222.8 569.94,-199.42 595,-181 597.65,-179.05 600.48,-177.29 603.43,-175.72"/>
<polygon fill="midnightblue" stroke="midnightblue" points="604.96,-178.87 612.58,-171.51 602.04,-172.51 604.96,-178.87"/>
</g>
<!-- Node5 -->
<g id="node5" class="node">
<title>Node5</title>
<g id="a_node5"><a xlink:href="namespacecarta.html#a3d967873206a1f0ff9062a2ecf29ae6b" target="_top" xlink:title=" ">
<polygon fill="none" stroke="black" points="615,-266.5 615,-285.5 734,-285.5 734,-266.5 615,-266.5"/>
<text text-anchor="middle" x="674.5" y="-273.5" font-family="Helvetica,sans-Serif" font-size="10.00">carta::CalcHistogram</text>
</a>
</g>
</g>
<!-- Node2&#45;&gt;Node5 -->
<g id="edge4" class="edge">
<title>Node2&#45;&gt;Node5</title>
<path fill="none" stroke="midnightblue" d="M559.27,-267.6C574.41,-268.71 589.92,-269.85 604.43,-270.92"/>
<polygon fill="midnightblue" stroke="midnightblue" points="604.56,-274.44 614.79,-271.68 605.08,-267.46 604.56,-274.44"/>
</g>
<!-- Node7 -->
<g id="node7" class="node">
<title>Node7</title>
<g id="a_node7"><a xlink:href="classcarta_1_1Frame.html#a30b016834ce04378ba3d0a34f373db3f" target="_top" xlink:title=" ">
<polygon fill="none" stroke="black" points="598.5,-76.5 598.5,-95.5 750.5,-95.5 750.5,-76.5 598.5,-76.5"/>
<text text-anchor="middle" x="674.5" y="-83.5" font-family="Helvetica,sans-Serif" font-size="10.00">carta::Frame::CurrentStokes</text>
</a>
</g>
</g>
<!-- Node2&#45;&gt;Node7 -->
<g id="edge6" class="edge">
<title>Node2&#45;&gt;Node7</title>
<path fill="none" stroke="midnightblue" d="M544.18,-251.32C549.6,-248.58 554.64,-245.19 559,-241 604.06,-197.66 550.32,-148.74 595,-105 596.47,-103.57 598.02,-102.23 599.65,-101"/>
<polygon fill="midnightblue" stroke="midnightblue" points="601.71,-103.83 608.33,-95.57 598,-97.9 601.71,-103.83"/>
</g>
<!-- Node2&#45;&gt;Node8 -->
<g id="edge7" class="edge">
<title>Node2&#45;&gt;Node8</title>
<path fill="none" stroke="midnightblue" d="M505.23,-270.5C521.62,-274.88 541.31,-280.17 559,-285 575.02,-289.37 578.93,-290.82 595,-295 604.07,-297.36 613.75,-299.78 623.11,-302.07"/>
<polygon fill="midnightblue" stroke="midnightblue" points="622.55,-305.53 633.1,-304.49 624.21,-298.73 622.55,-305.53"/>
</g>
<!-- Node2&#45;&gt;Node9 -->
<g id="edge8" class="edge">
<title>Node2&#45;&gt;Node9</title>
<path fill="none" stroke="midnightblue" d="M489.26,-270.56C508.55,-280.55 537.98,-297.6 559,-318 579.43,-337.84 572.77,-353.2 595,-371 604.29,-378.44 615.58,-384.28 626.68,-388.78"/>
<polygon fill="midnightblue" stroke="midnightblue" points="625.73,-392.16 636.32,-392.4 628.19,-385.61 625.73,-392.16"/>
</g>
<!-- Node10 -->
<g id="node10" class="node">
<title>Node10</title>
<g id="a_node10"><a xlink:href="classcarta_1_1Frame.html#a6ad0a2d3fbde3a9f346684e5ce541da6" target="_top" xlink:title=" ">
<polygon fill="none" stroke="black" points="595,-228.5 595,-247.5 754,-247.5 754,-228.5 595,-228.5"/>
<text text-anchor="middle" x="674.5" y="-235.5" font-family="Helvetica,sans-Serif" font-size="10.00">carta::Frame::FillImageCache</text>
</a>
</g>
</g>
<!-- Node2&#45;&gt;Node10 -->
<g id="edge9" class="edge">
<title>Node2&#45;&gt;Node10</title>
<path fill="none" stroke="midnightblue" d="M553.95,-251.48C564.06,-250.34 574.41,-249.17 584.58,-248.03"/>
<polygon fill="midnightblue" stroke="midnightblue" points="585.13,-251.49 594.68,-246.89 584.35,-244.53 585.13,-251.49"/>
</g>
<!-- Node14 -->
<g id="node14" class="node">
<title>Node14</title>
<g id="a_node14"><a xlink:href="classcarta_1_1Frame.html#a68a31253118f829703cbfb42e0c81257" target="_top" xlink:title=" ">
<polygon fill="none" stroke="black" points="604.5,-190.5 604.5,-209.5 744.5,-209.5 744.5,-190.5 604.5,-190.5"/>
<text text-anchor="middle" x="674.5" y="-197.5" font-family="Helvetica,sans-Serif" font-size="10.00">carta::Frame::GetZMatrix</text>
</a>
</g>
</g>
<!-- Node2&#45;&gt;Node14 -->
<g id="edge13" class="edge">
<title>Node2&#45;&gt;Node14</title>
<path fill="none" stroke="midnightblue" d="M525.75,-251.4C536.97,-248.66 548.52,-245.24 559,-241 576.38,-233.97 577.68,-226.18 595,-219 600.95,-216.53 607.29,-214.34 613.7,-212.4"/>
<polygon fill="midnightblue" stroke="midnightblue" points="615.08,-215.65 623.76,-209.56 613.18,-208.91 615.08,-215.65"/>
</g>
<!-- Node6 -->
<g id="node6" class="node">
<title>Node6</title>
<g id="a_node6"><a xlink:href="structcarta_1_1Bounds.html#a2af56587636d988cdf82b7d2a808dcc7" target="_top" xlink:title=" ">
<polygon fill="none" stroke="black" points="808.5,-304.5 808.5,-323.5 930.5,-323.5 930.5,-304.5 808.5,-304.5"/>
<text text-anchor="middle" x="869.5" y="-311.5" font-family="Helvetica,sans-Serif" font-size="10.00">carta::Bounds::Invalid</text>
</a>
</g>
</g>
<!-- Node5&#45;&gt;Node6 -->
<g id="edge5" class="edge">
<title>Node5&#45;&gt;Node6</title>
<path fill="none" stroke="midnightblue" d="M724.2,-285.59C750.36,-290.74 782.78,-297.12 810.27,-302.53"/>
<polygon fill="midnightblue" stroke="midnightblue" points="809.66,-305.98 820.15,-304.48 811.01,-299.11 809.66,-305.98"/>
</g>
<!-- Node10&#45;&gt;Node11 -->
<g id="edge10" class="edge">
<title>Node10&#45;&gt;Node11</title>
<path fill="none" stroke="midnightblue" d="M724.2,-247.59C750.36,-252.74 782.78,-259.12 810.27,-264.53"/>
<polygon fill="midnightblue" stroke="midnightblue" points="809.66,-267.98 820.15,-266.48 811.01,-261.11 809.66,-267.98"/>
</g>
<!-- Node12 -->
<g id="node12" class="node">
<title>Node12</title>
<g id="a_node12"><a xlink:href="classcarta_1_1Frame.html#a9e748d02f7394ed01b69276b61a79825" target="_top" xlink:title=" ">
<polygon fill="none" stroke="black" points="790,-228.5 790,-247.5 949,-247.5 949,-228.5 790,-228.5"/>
<text text-anchor="middle" x="869.5" y="-235.5" font-family="Helvetica,sans-Serif" font-size="10.00">carta::Frame::GetImageSlicer</text>
</a>
</g>
</g>
<!-- Node10&#45;&gt;Node12 -->
<g id="edge11" class="edge">
<title>Node10&#45;&gt;Node12</title>
<path fill="none" stroke="midnightblue" d="M754,-238C762.48,-238 771.14,-238 779.73,-238"/>
<polygon fill="midnightblue" stroke="midnightblue" points="779.76,-241.5 789.76,-238 779.76,-234.5 779.76,-241.5"/>
</g>
<!-- Node13 -->
<g id="node13" class="node">
<title>Node13</title>
<g id="a_node13"><a xlink:href="classcarta_1_1Frame.html#a79c789ebc62771151da94673a325a31a" target="_top" xlink:title=" ">
<polygon fill="none" stroke="black" points="793.5,-190.5 793.5,-209.5 945.5,-209.5 945.5,-190.5 793.5,-190.5"/>
<text text-anchor="middle" x="869.5" y="-197.5" font-family="Helvetica,sans-Serif" font-size="10.00">carta::Frame::GetSlicerData</text>
</a>
</g>
</g>
<!-- Node10&#45;&gt;Node13 -->
<g id="edge12" class="edge">
<title>Node10&#45;&gt;Node13</title>
<path fill="none" stroke="midnightblue" d="M724.2,-228.41C750.36,-223.26 782.78,-216.88 810.27,-211.47"/>
<polygon fill="midnightblue" stroke="midnightblue" points="811.01,-214.89 820.15,-209.52 809.66,-208.02 811.01,-214.89"/>
</g>
<!-- Node14&#45;&gt;Node12 -->
<g id="edge14" class="edge">
<title>Node14&#45;&gt;Node12</title>
<path fill="none" stroke="midnightblue" d="M724.2,-209.59C750.36,-214.74 782.78,-221.12 810.27,-226.53"/>
<polygon fill="midnightblue" stroke="midnightblue" points="809.66,-229.98 820.15,-228.48 811.01,-223.11 809.66,-229.98"/>
</g>
<!-- Node14&#45;&gt;Node13 -->
<g id="edge15" class="edge">
<title>Node14&#45;&gt;Node13</title>
<path fill="none" stroke="midnightblue" d="M744.63,-200C757.09,-200 770.22,-200 783.08,-200"/>
<polygon fill="midnightblue" stroke="midnightblue" points="783.31,-203.5 793.31,-200 783.31,-196.5 783.31,-203.5"/>
</g>
<!-- Node16&#45;&gt;Node3 -->
<g id="edge21" class="edge">
<title>Node16&#45;&gt;Node3</title>
<path fill="none" stroke="midnightblue" d="M275.58,-220.01C298.78,-237.07 339.2,-264.54 378,-280 454.36,-310.42 480.49,-293.64 559,-318 575.55,-323.14 578.53,-327.61 595,-333 602.67,-335.51 610.87,-337.85 618.96,-339.98"/>
<polygon fill="midnightblue" stroke="midnightblue" points="618.18,-343.39 628.74,-342.45 619.9,-336.6 618.18,-343.39"/>
</g>
<!-- Node16&#45;&gt;Node15 -->
<g id="edge22" class="edge">
<title>Node16&#45;&gt;Node15</title>
<path fill="none" stroke="midnightblue" d="M279.93,-220.04C297.95,-231.93 322.76,-249.56 342,-268 360.49,-285.72 356.56,-298.98 378,-313 389.81,-320.72 404.03,-325.97 417.63,-329.53"/>
<polygon fill="midnightblue" stroke="midnightblue" points="416.84,-332.94 427.38,-331.84 418.45,-326.13 416.84,-332.94"/>
</g>
<!-- Node16&#45;&gt;Node17 -->
<g id="edge23" class="edge">
<title>Node16&#45;&gt;Node17</title>
<path fill="none" stroke="midnightblue" d="M284.83,-189.85C317.8,-172.6 368.48,-146.36 378,-143 385.56,-140.33 393.62,-137.97 401.68,-135.91"/>
<polygon fill="midnightblue" stroke="midnightblue" points="402.6,-139.29 411.49,-133.54 400.95,-132.49 402.6,-139.29"/>
</g>
<!-- Node21 -->
<g id="node21" class="node">
<title>Node21</title>
<g id="a_node21"><a xlink:href="classcarta_1_1Frame.html#a135ea650915097a6c5aa463d1ba4e52c" target="_top" xlink:title=" ">
<polygon fill="none" stroke="black" points="387.5,-202 387.5,-232 549.5,-232 549.5,-202 387.5,-202"/>
<text text-anchor="start" x="395.5" y="-220" font-family="Helvetica,sans-Serif" font-size="10.00">carta::Frame::GetCachedCube</text>
<text text-anchor="middle" x="468.5" y="-209" font-family="Helvetica,sans-Serif" font-size="10.00">Histogram</text>
</a>
</g>
</g>
<!-- Node16&#45;&gt;Node21 -->
<g id="edge32" class="edge">
<title>Node16&#45;&gt;Node21</title>
<path fill="none" stroke="midnightblue" d="M329.68,-209.18C344.93,-210.05 361.17,-210.97 376.95,-211.86"/>
<polygon fill="midnightblue" stroke="midnightblue" points="377.05,-215.37 387.24,-212.45 377.45,-208.39 377.05,-215.37"/>
</g>
<!-- Node22 -->
<g id="node22" class="node">
<title>Node22</title>
<g id="a_node22"><a xlink:href="classcarta_1_1Frame.html#ac69e2783075a77c44ffc888d4e09a9b8" target="_top" xlink:title=" ">
<polygon fill="none" stroke="black" points="384.5,-153 384.5,-183 552.5,-183 552.5,-153 384.5,-153"/>
<text text-anchor="start" x="392.5" y="-171" font-family="Helvetica,sans-Serif" font-size="10.00">carta::Frame::GetCachedImage</text>
<text text-anchor="middle" x="468.5" y="-160" font-family="Helvetica,sans-Serif" font-size="10.00">Histogram</text>
</a>
</g>
</g>
<!-- Node16&#45;&gt;Node22 -->
<g id="edge33" class="edge">
<title>Node16&#45;&gt;Node22</title>
<path fill="none" stroke="midnightblue" d="M329.68,-192.11C344.01,-189.6 359.22,-186.94 374.09,-184.34"/>
<polygon fill="midnightblue" stroke="midnightblue" points="375.07,-187.72 384.32,-182.55 373.87,-180.83 375.07,-187.72"/>
</g>
<!-- Node17&#45;&gt;Node4 -->
<g id="edge24" class="edge">
<title>Node17&#45;&gt;Node4</title>
<path fill="none" stroke="midnightblue" d="M520.71,-133.54C548.48,-138.71 582.99,-145.14 612.18,-150.58"/>
<polygon fill="midnightblue" stroke="midnightblue" points="611.79,-154.07 622.26,-152.46 613.07,-147.18 611.79,-154.07"/>
</g>
<!-- Node17&#45;&gt;Node7 -->
<g id="edge28" class="edge">
<title>Node17&#45;&gt;Node7</title>
<path fill="none" stroke="midnightblue" d="M520.71,-114.46C548.48,-109.29 582.99,-102.86 612.18,-97.42"/>
<polygon fill="midnightblue" stroke="midnightblue" points="613.07,-100.82 622.26,-95.54 611.79,-93.93 613.07,-100.82"/>
</g>
<!-- Node17&#45;&gt;Node8 -->
<g id="edge29" class="edge">
<title>Node17&#45;&gt;Node8</title>
<path fill="none" stroke="midnightblue" d="M544.7,-132.91C549.94,-135.58 554.8,-138.89 559,-143 608.66,-191.51 546.03,-245.79 595,-295 597.13,-297.14 599.46,-299.06 601.94,-300.77"/>
<polygon fill="midnightblue" stroke="midnightblue" points="600.45,-303.95 610.88,-305.85 603.91,-297.87 600.45,-303.95"/>
</g>
<!-- Node17&#45;&gt;Node10 -->
<g id="edge30" class="edge">
<title>Node17&#45;&gt;Node10</title>
<path fill="none" stroke="midnightblue" d="M542.92,-133.53C548.68,-136.05 554.14,-139.16 559,-143 588.32,-166.17 566.01,-195.41 595,-219 597.05,-220.66 599.22,-222.19 601.48,-223.58"/>
<polygon fill="midnightblue" stroke="midnightblue" points="600.13,-226.82 610.61,-228.33 603.36,-220.61 600.13,-226.82"/>
</g>
<!-- Node17&#45;&gt;Node14 -->
<g id="edge31" class="edge">
<title>Node17&#45;&gt;Node14</title>
<path fill="none" stroke="midnightblue" d="M536.63,-133.57C544.44,-136.03 552.07,-139.12 559,-143 579.29,-154.37 574.87,-169.34 595,-181 598.86,-183.23 602.97,-185.21 607.21,-186.95"/>
<polygon fill="midnightblue" stroke="midnightblue" points="606.06,-190.25 616.66,-190.4 608.47,-183.68 606.06,-190.25"/>
</g>
<!-- Node18 -->
<g id="node18" class="node">
<title>Node18</title>
<g id="a_node18"><a xlink:href="namespacecarta.html#a96f7cab56516141317895bada342c0b1" target="_top" xlink:title=" ">
<polygon fill="none" stroke="black" points="615,-114.5 615,-133.5 734,-133.5 734,-114.5 615,-114.5"/>
<text text-anchor="middle" x="674.5" y="-121.5" font-family="Helvetica,sans-Serif" font-size="10.00">carta::CalcBasicStats</text>
</a>
</g>
</g>
<!-- Node17&#45;&gt;Node18 -->
<g id="edge25" class="edge">
<title>Node17&#45;&gt;Node18</title>
<path fill="none" stroke="midnightblue" d="M544.59,-124C564.24,-124 585.32,-124 604.62,-124"/>
<polygon fill="midnightblue" stroke="midnightblue" points="604.84,-127.5 614.84,-124 604.84,-120.5 604.84,-127.5"/>
</g>
<!-- Node19 -->
<g id="node19" class="node">
<title>Node19</title>
<g id="a_node19"><a xlink:href="classcarta_1_1BasicStatsCalculator.html#a29d141b4a8a8e26a6ef58c982447efea" target="_top" xlink:title=" ">
<polygon fill="none" stroke="black" points="795.5,-125 795.5,-155 943.5,-155 943.5,-125 795.5,-125"/>
<text text-anchor="start" x="803.5" y="-143" font-family="Helvetica,sans-Serif" font-size="10.00">carta::BasicStatsCalculator</text>
<text text-anchor="middle" x="869.5" y="-132" font-family="Helvetica,sans-Serif" font-size="10.00">::GetStats</text>
</a>
</g>
</g>
<!-- Node18&#45;&gt;Node19 -->
<g id="edge26" class="edge">
<title>Node18&#45;&gt;Node19</title>
<path fill="none" stroke="midnightblue" d="M734.19,-128.87C750.32,-130.2 768.13,-131.68 785.35,-133.11"/>
<polygon fill="midnightblue" stroke="midnightblue" points="785.16,-136.6 795.41,-133.94 785.74,-129.63 785.16,-136.6"/>
</g>
<!-- Node20 -->
<g id="node20" class="node">
<title>Node20</title>
<g id="a_node20"><a xlink:href="classcarta_1_1BasicStatsCalculator.html#a14873f9d84d2abb0fabe85f4b70d0a44" target="_top" xlink:title=" ">
<polygon fill="none" stroke="black" points="795.5,-76 795.5,-106 943.5,-106 943.5,-76 795.5,-76"/>
<text text-anchor="start" x="803.5" y="-94" font-family="Helvetica,sans-Serif" font-size="10.00">carta::BasicStatsCalculator</text>
<text text-anchor="middle" x="869.5" y="-83" font-family="Helvetica,sans-Serif" font-size="10.00">::reduce</text>
</a>
</g>
</g>
<!-- Node18&#45;&gt;Node20 -->
<g id="edge27" class="edge">
<title>Node18&#45;&gt;Node20</title>
<path fill="none" stroke="midnightblue" d="M731.06,-114.5C747.98,-111.61 766.95,-108.36 785.27,-105.23"/>
<polygon fill="midnightblue" stroke="midnightblue" points="786.1,-108.64 795.37,-103.5 784.92,-101.74 786.1,-108.64"/>
</g>
<!-- Node22&#45;&gt;Node4 -->
<g id="edge34" class="edge">
<title>Node22&#45;&gt;Node4</title>
<path fill="none" stroke="midnightblue" d="M552.77,-165.55C567.81,-165.11 583.41,-164.65 598.2,-164.21"/>
<polygon fill="midnightblue" stroke="midnightblue" points="598.41,-167.71 608.3,-163.92 598.2,-160.71 598.41,-167.71"/>
</g>
<!-- Node23&#45;&gt;Node15 -->
<g id="edge36" class="edge">
<title>Node23&#45;&gt;Node15</title>
<path fill="none" stroke="midnightblue" d="M328.19,-308.02C357.59,-314.13 390.84,-321.05 417.48,-326.59"/>
<polygon fill="midnightblue" stroke="midnightblue" points="416.84,-330.04 427.35,-328.65 418.27,-323.18 416.84,-330.04"/>
</g>
<!-- Node24&#45;&gt;Node7 -->
<g id="edge39" class="edge">
<title>Node24&#45;&gt;Node7</title>
<path fill="none" stroke="midnightblue" d="M333.06,-86C405.3,-86 513.09,-86 587.95,-86"/>
<polygon fill="midnightblue" stroke="midnightblue" points="588.29,-89.5 598.29,-86 588.29,-82.5 588.29,-89.5"/>
</g>
<!-- Node25 -->
<g id="node25" class="node">
<title>Node25</title>
<g id="a_node25"><a xlink:href="Image_8cc.html#a30da07ffd67ed06c1e15e2da4d915e0c" target="_top" xlink:title=" ">
<polygon fill="none" stroke="black" points="415,-38.5 415,-57.5 522,-57.5 522,-38.5 415,-38.5"/>
<text text-anchor="middle" x="468.5" y="-45.5" font-family="Helvetica,sans-Serif" font-size="10.00">IsComputedStokes</text>
</a>
</g>
</g>
<!-- Node24&#45;&gt;Node25 -->
<g id="edge40" class="edge">
<title>Node24&#45;&gt;Node25</title>
<path fill="none" stroke="midnightblue" d="M333.25,-72.12C356.79,-67.89 382.36,-63.3 404.81,-59.26"/>
<polygon fill="midnightblue" stroke="midnightblue" points="405.66,-62.67 414.89,-57.45 404.43,-55.78 405.66,-62.67"/>
</g>
<!-- Node26 -->
<g id="node26" class="node">
<title>Node26</title>
<g id="a_node26"><a xlink:href="classcarta_1_1Frame.html#a98d7c0c04b6d04f7617c41e6068362a9" target="_top" xlink:title=" ">
<polygon fill="none" stroke="black" points="398.5,-0.5 398.5,-19.5 538.5,-19.5 538.5,-0.5 398.5,-0.5"/>
<text text-anchor="middle" x="468.5" y="-7.5" font-family="Helvetica,sans-Serif" font-size="10.00">carta::Frame::NumStokes</text>
</a>
</g>
</g>
<!-- Node24&#45;&gt;Node26 -->
<g id="edge41" class="edge">
<title>Node24&#45;&gt;Node26</title>
<path fill="none" stroke="midnightblue" d="M319.77,-70.96C327.47,-68.13 335.06,-64.83 342,-61 360.74,-50.65 358.89,-38.66 378,-29 382.67,-26.64 387.61,-24.58 392.68,-22.77"/>
<polygon fill="midnightblue" stroke="midnightblue" points="394.12,-25.98 402.57,-19.59 391.98,-19.32 394.12,-25.98"/>
</g>
</g>
</svg>
