<?xml version="1.0" encoding="UTF-8" standalone="no"?>
<!DOCTYPE svg PUBLIC "-//W3C//DTD SVG 1.1//EN"
 "http://www.w3.org/Graphics/SVG/1.1/DTD/svg11.dtd">
<!-- Generated by graphviz version 2.43.0 (0)
 -->
<!-- Title: carta::SessionManager::SaveFileHandler Pages: 1 -->
<svg width="1054pt" height="161pt"
 viewBox="0.00 0.00 1054.00 160.50" xmlns="http://www.w3.org/2000/svg" xmlns:xlink="http://www.w3.org/1999/xlink">
<g id="graph0" class="graph" transform="scale(1 1) rotate(0) translate(4 156.5)">
<title>carta::SessionManager::SaveFileHandler</title>
<!-- Node1 -->
<g id="Node000001" class="node">
<title>Node1</title>
<g id="a_Node000001"><a xlink:title=" ">
<polygon fill="#999999" stroke="#666666" points="128,-81 0,-81 0,-51 128,-51 128,-81"/>
<text text-anchor="start" x="8" y="-69" font-family="Helvetica,sans-Serif" font-size="10.00">carta::SessionManager</text>
<text text-anchor="middle" x="64" y="-58" font-family="Helvetica,sans-Serif" font-size="10.00">::SaveFileHandler</text>
</a>
</g>
</g>
<!-- Node2 -->
<g id="Node000002" class="node">
<title>Node2</title>
<g id="a_Node000002"><a xlink:href="classcarta_1_1Session.html#ad6ec2de9661769e218535efde2b014d9" target="_top" xlink:title=" ">
<polygon fill="white" stroke="#666666" points="310,-75.5 164,-75.5 164,-56.5 310,-56.5 310,-75.5"/>
<text text-anchor="middle" x="237" y="-63.5" font-family="Helvetica,sans-Serif" font-size="10.00">carta::Session::OnSaveFile</text>
</a>
</g>
</g>
<!-- Node1&#45;&gt;Node2 -->
<g id="edge1_Node000001_Node000002" class="edge">
<title>Node1&#45;&gt;Node2</title>
<g id="a_edge1_Node000001_Node000002"><a xlink:title=" ">
<path fill="none" stroke="#63b8ff" d="M128.19,-66C136.53,-66 145.18,-66 153.78,-66"/>
<polygon fill="#63b8ff" stroke="#63b8ff" points="153.84,-69.5 163.84,-66 153.84,-62.5 153.84,-69.5"/>
</a>
</g>
</g>
<!-- Node3 -->
<g id="Node000003" class="node">
<title>Node3</title>
<g id="a_Node000003"><a xlink:href="classcarta_1_1Session.html#af5f45b72e3fb7d4ad6fbf32fcc9da912" target="_top" xlink:title=" ">
<polygon fill="white" stroke="#666666" points="685,-93.5 542,-93.5 542,-74.5 685,-74.5 685,-93.5"/>
<text text-anchor="middle" x="613.5" y="-81.5" font-family="Helvetica,sans-Serif" font-size="10.00">carta::Session::SendEvent</text>
</a>
</g>
</g>
<!-- Node2&#45;&gt;Node3 -->
<g id="edge2_Node000002_Node000003" class="edge">
<title>Node2&#45;&gt;Node3</title>
<g id="a_edge2_Node000002_Node000003"><a xlink:title=" ">
<path fill="none" stroke="#63b8ff" d="M310.21,-69.47C373.56,-72.52 465.59,-76.94 531.45,-80.1"/>
<polygon fill="#63b8ff" stroke="#63b8ff" points="531.63,-83.62 541.78,-80.6 531.96,-76.62 531.63,-83.62"/>
</a>
</g>
</g>
<!-- Node9 -->
<g id="Node000009" class="node">
<title>Node9</title>
<g id="a_Node000009"><a xlink:href="classcarta_1_1Session.html#a9614e33dea4622ec90432fa7aad7a451" target="_top" xlink:title=" ">
<polygon fill="white" stroke="#666666" points="506,-56.5 346,-56.5 346,-37.5 506,-37.5 506,-56.5"/>
<text text-anchor="middle" x="426" y="-44.5" font-family="Helvetica,sans-Serif" font-size="10.00">carta::Session::SendLogEvent</text>
</a>
</g>
</g>
<!-- Node2&#45;&gt;Node9 -->
<g id="edge8_Node000002_Node000009" class="edge">
<title>Node2&#45;&gt;Node9</title>
<g id="a_edge8_Node000002_Node000009"><a xlink:title=" ">
<path fill="none" stroke="#63b8ff" d="M310.03,-58.68C318.46,-57.82 327.14,-56.94 335.77,-56.07"/>
<polygon fill="#63b8ff" stroke="#63b8ff" points="336.26,-59.53 345.86,-55.04 335.55,-52.57 336.26,-59.53"/>
</a>
</g>
</g>
<!-- Node4 -->
<g id="Node000004" class="node">
<title>Node4</title>
<g id="a_Node000004"><a xlink:href="classMessage.html#ad7554f7b047d88c0106266229a2f7f74" target="_top" xlink:title="Encodes a protobuf message with a CARTA event header for transmission.">
<polygon fill="white" stroke="#666666" points="880,-152.5 735,-152.5 735,-133.5 880,-133.5 880,-152.5"/>
<text text-anchor="middle" x="807.5" y="-140.5" font-family="Helvetica,sans-Serif" font-size="10.00">Message::EncodeMessage</text>
</a>
</g>
</g>
<!-- Node3&#45;&gt;Node4 -->
<g id="edge3_Node000003_Node000004" class="edge">
<title>Node3&#45;&gt;Node4</title>
<g id="a_edge3_Node000003_Node000004"><a xlink:title=" ">
<path fill="none" stroke="#63b8ff" d="M637.04,-93.52C658.38,-102.29 691.47,-115.22 721,-124 729.67,-126.58 738.93,-128.98 748.03,-131.16"/>
<polygon fill="#63b8ff" stroke="#63b8ff" points="747.28,-134.58 757.81,-133.42 748.86,-127.76 747.28,-134.58"/>
</a>
</g>
</g>
<!-- Node5 -->
<g id="Node000005" class="node">
<title>Node5</title>
<g id="a_Node000005"><a xlink:href="namespacecarta_1_1logger.html#ab9e339746ee51ea21696ab43b50841d5" target="_top" xlink:title=" ">
<polygon fill="white" stroke="#666666" points="894,-115.5 721,-115.5 721,-96.5 894,-96.5 894,-115.5"/>
<text text-anchor="middle" x="807.5" y="-103.5" font-family="Helvetica,sans-Serif" font-size="10.00">carta::logger::LogSentEventType</text>
</a>
</g>
</g>
<!-- Node3&#45;&gt;Node5 -->
<g id="edge4_Node000003_Node000005" class="edge">
<title>Node3&#45;&gt;Node5</title>
<g id="a_edge4_Node000003_Node000005"><a xlink:title=" ">
<path fill="none" stroke="#63b8ff" d="M685.18,-92.1C694.28,-93.14 703.72,-94.22 713.12,-95.3"/>
<polygon fill="#63b8ff" stroke="#63b8ff" points="712.96,-98.8 723.3,-96.47 713.76,-91.85 712.96,-98.8"/>
</a>
</g>
</g>
<!-- Node7 -->
<g id="Node000007" class="node">
<title>Node7</title>
<g id="a_Node000007"><a xlink:href="classcarta_1_1concurrent__queue.html#ab1a11795f017e1c7dd870fce5da5ede1" target="_top" xlink:title=" ">
<polygon fill="white" stroke="#666666" points="874.5,-78 740.5,-78 740.5,-48 874.5,-48 874.5,-78"/>
<text text-anchor="start" x="748.5" y="-66" font-family="Helvetica,sans-Serif" font-size="10.00">carta::concurrent_queue</text>
<text text-anchor="middle" x="807.5" y="-55" font-family="Helvetica,sans-Serif" font-size="10.00">::push</text>
</a>
</g>
</g>
<!-- Node3&#45;&gt;Node7 -->
<g id="edge6_Node000003_Node000007" class="edge">
<title>Node3&#45;&gt;Node7</title>
<g id="a_edge6_Node000003_Node000007"><a xlink:title=" ">
<path fill="none" stroke="#63b8ff" d="M685.18,-76.27C699.86,-74.66 715.39,-72.97 730.26,-71.34"/>
<polygon fill="#63b8ff" stroke="#63b8ff" points="730.87,-74.79 740.43,-70.23 730.11,-67.83 730.87,-74.79"/>
</a>
</g>
</g>
<!-- Node8 -->
<g id="Node000008" class="node">
<title>Node8</title>
<g id="a_Node000008"><a xlink:href="classcarta_1_1concurrent__queue.html#a44dc990ae7a71921648cad573058357d" target="_top" xlink:title=" ">
<polygon fill="white" stroke="#666666" points="874.5,-30 740.5,-30 740.5,0 874.5,0 874.5,-30"/>
<text text-anchor="start" x="748.5" y="-18" font-family="Helvetica,sans-Serif" font-size="10.00">carta::concurrent_queue</text>
<text text-anchor="middle" x="807.5" y="-7" font-family="Helvetica,sans-Serif" font-size="10.00">::try_pop</text>
</a>
</g>
</g>
<!-- Node3&#45;&gt;Node8 -->
<g id="edge7_Node000003_Node000008" class="edge">
<title>Node3&#45;&gt;Node8</title>
<g id="a_edge7_Node000003_Node000008"><a xlink:title=" ">
<path fill="none" stroke="#63b8ff" d="M659.75,-74.42C668.34,-71.87 677.1,-68.76 685,-65 702.82,-56.52 703.22,-47.58 721,-39 725.01,-37.06 729.21,-35.26 733.5,-33.58"/>
<polygon fill="#63b8ff" stroke="#63b8ff" points="734.81,-36.83 743,-30.1 732.4,-30.25 734.81,-36.83"/>
</a>
</g>
</g>
<!-- Node6 -->
<g id="Node000006" class="node">
<title>Node6</title>
<g id="a_Node000006"><a xlink:href="namespacecarta_1_1logger.html#a23c9bf75209165cf69eb8d50f64b81b4" target="_top" xlink:title=" ">
<polygon fill="white" stroke="#666666" points="1046,-121 930,-121 930,-91 1046,-91 1046,-121"/>
<text text-anchor="start" x="938" y="-109" font-family="Helvetica,sans-Serif" font-size="10.00">carta::logger::log</text>
<text text-anchor="middle" x="988" y="-98" font-family="Helvetica,sans-Serif" font-size="10.00">_protocol_messages</text>
</a>
</g>
</g>
<!-- Node5&#45;&gt;Node6 -->
<g id="edge5_Node000005_Node000006" class="edge">
<title>Node5&#45;&gt;Node6</title>
<g id="a_edge5_Node000005_Node000006"><a xlink:title=" ">
<path fill="none" stroke="#63b8ff" d="M894.09,-106C902.74,-106 911.44,-106 919.86,-106"/>
<polygon fill="#63b8ff" stroke="#63b8ff" points="919.96,-109.5 929.96,-106 919.96,-102.5 919.96,-109.5"/>
</a>
</g>
</g>
<!-- Node9&#45;&gt;Node3 -->
<g id="edge10_Node000009_Node000003" class="edge">
<title>Node9&#45;&gt;Node3</title>
<g id="a_edge10_Node000009_Node000003"><a xlink:title=" ">
<path fill="none" stroke="#63b8ff" d="M474.77,-56.53C499.13,-61.39 528.94,-67.33 554.6,-72.45"/>
<polygon fill="#63b8ff" stroke="#63b8ff" points="554.08,-75.92 564.57,-74.44 555.45,-69.05 554.08,-75.92"/>
</a>
</g>
</g>
<!-- Node10 -->
<g id="Node000010" class="node">
<title>Node10</title>
<g id="a_Node000010"><a xlink:href="classMessage.html#a99e84f303d54a46b1cf582bf343c7f29" target="_top" xlink:title=" ">
<polygon fill="white" stroke="#666666" points="670,-56.5 557,-56.5 557,-37.5 670,-37.5 670,-56.5"/>
<text text-anchor="middle" x="613.5" y="-44.5" font-family="Helvetica,sans-Serif" font-size="10.00">Message::ErrorData</text>
</a>
</g>
</g>
<!-- Node9&#45;&gt;Node10 -->
<g id="edge9_Node000009_Node000010" class="edge">
<title>Node9&#45;&gt;Node10</title>
<g id="a_edge9_Node000009_Node000010"><a xlink:title=" ">
<path fill="none" stroke="#63b8ff" d="M506.21,-47C519.65,-47 533.48,-47 546.54,-47"/>
<polygon fill="#63b8ff" stroke="#63b8ff" points="546.82,-50.5 556.82,-47 546.82,-43.5 546.82,-50.5"/>
</a>
</g>
</g>
</g>
</svg>
