<?xml version="1.0" encoding="UTF-8" standalone="no"?>
<!DOCTYPE svg PUBLIC "-//W3C//DTD SVG 1.1//EN"
 "http://www.w3.org/Graphics/SVG/1.1/DTD/svg11.dtd">
<!-- Generated by graphviz version 2.43.0 (0)
 -->
<!-- Title: carta::ImageFitter Pages: 1 -->
<svg width="817pt" height="445pt"
 viewBox="0.00 0.00 817.00 445.47" xmlns="http://www.w3.org/2000/svg" xmlns:xlink="http://www.w3.org/1999/xlink">
<g id="graph0" class="graph" transform="scale(1 1) rotate(0) translate(4 441.47)">
<title>carta::ImageFitter</title>
<!-- Node1 -->
<g id="node1" class="node">
<title>Node1</title>
<g id="a_node1"><a xlink:title=" ">
<polygon fill="#bfbfbf" stroke="black" points="705,-183.47 705,-202.47 809,-202.47 809,-183.47 705,-183.47"/>
<text text-anchor="middle" x="757" y="-190.47" font-family="Helvetica,sans-Serif" font-size="10.00">carta::ImageFitter</text>
</a>
</g>
</g>
<!-- Node2 -->
<g id="node2" class="node">
<title>Node2</title>
<g id="a_node2"><a xlink:title=" ">
<polygon fill="none" stroke="#bfbfbf" points="443,-344.47 443,-363.47 572,-363.47 572,-344.47 443,-344.47"/>
<text text-anchor="middle" x="507.5" y="-351.47" font-family="Helvetica,sans-Serif" font-size="10.00">gsl_multifit_nlinear_fdf</text>
</a>
</g>
</g>
<!-- Node2&#45;&gt;Node1 -->
<g id="edge1" class="edge">
<title>Node2&#45;&gt;Node1</title>
<path fill="none" stroke="#9a32cd" stroke-dasharray="5,2" d="M582.11,-355.64C616.77,-353.02 656.99,-344.73 687,-322.97 729.41,-292.22 748.14,-227.35 753.92,-202.73"/>
<polygon fill="#9a32cd" stroke="#9a32cd" points="581.79,-352.15 572.03,-356.26 582.22,-359.14 581.79,-352.15"/>
<text text-anchor="middle" x="638.5" y="-356.97" font-family="Helvetica,sans-Serif" font-size="10.00"> _fdf</text>
</g>
<!-- Node3 -->
<g id="node3" class="node">
<title>Node3</title>
<g id="a_node3"><a xlink:href="structcarta_1_1FitStatus.html" target="_top" xlink:title=" ">
<polygon fill="none" stroke="black" points="462.5,-306.47 462.5,-325.47 552.5,-325.47 552.5,-306.47 462.5,-306.47"/>
<text text-anchor="middle" x="507.5" y="-313.47" font-family="Helvetica,sans-Serif" font-size="10.00">carta::FitStatus</text>
</a>
</g>
</g>
<!-- Node3&#45;&gt;Node1 -->
<g id="edge2" class="edge">
<title>Node3&#45;&gt;Node1</title>
<path fill="none" stroke="#9a32cd" stroke-dasharray="5,2" d="M562.72,-312.96C600,-308.8 649.36,-298.99 687,-275.97 717.53,-257.3 740.91,-220.28 750.82,-202.69"/>
<polygon fill="#9a32cd" stroke="#9a32cd" points="562.15,-309.51 552.55,-314 562.85,-316.47 562.15,-309.51"/>
<text text-anchor="middle" x="638.5" y="-310.97" font-family="Helvetica,sans-Serif" font-size="10.00"> _fit_status</text>
</g>
<!-- Node4 -->
<g id="node4" class="node">
<title>Node4</title>
<g id="a_node4"><a xlink:title=" ">
<polygon fill="none" stroke="#bfbfbf" points="27,-347.47 27,-366.47 77,-366.47 77,-347.47 27,-347.47"/>
<text text-anchor="middle" x="52" y="-354.47" font-family="Helvetica,sans-Serif" font-size="10.00">double</text>
</a>
</g>
</g>
<!-- Node4&#45;&gt;Node3 -->
<g id="edge3" class="edge">
<title>Node4&#45;&gt;Node3</title>
<path fill="none" stroke="#9a32cd" stroke-dasharray="5,2" d="M87.28,-356.88C153.1,-356.29 301.58,-352.87 425,-334.97 440.38,-332.74 457.15,-329.05 471.45,-325.52"/>
<polygon fill="#9a32cd" stroke="#9a32cd" points="87.05,-353.38 77.08,-356.96 87.1,-360.38 87.05,-353.38"/>
<text text-anchor="middle" x="251" y="-378.97" font-family="Helvetica,sans-Serif" font-size="10.00"> chisq</text>
<text text-anchor="middle" x="251" y="-367.97" font-family="Helvetica,sans-Serif" font-size="10.00">chisq0</text>
<text text-anchor="middle" x="251" y="-356.97" font-family="Helvetica,sans-Serif" font-size="10.00">rcond</text>
</g>
<!-- Node15 -->
<g id="node15" class="node">
<title>Node15</title>
<g id="a_node15"><a xlink:title=" ">
<polygon fill="none" stroke="#bfbfbf" points="189,-183.47 189,-202.47 313,-202.47 313,-183.47 189,-183.47"/>
<text text-anchor="middle" x="251" y="-190.47" font-family="Helvetica,sans-Serif" font-size="10.00">std::vector&lt; double &gt;</text>
</a>
</g>
</g>
<!-- Node4&#45;&gt;Node15 -->
<g id="edge18" class="edge">
<title>Node4&#45;&gt;Node15</title>
<path fill="none" stroke="#9a32cd" stroke-dasharray="5,2" d="M71.93,-340.99C98.15,-318.88 147.05,-277.74 189,-242.97 206.08,-228.81 225.97,-212.55 238.27,-202.51"/>
<polygon fill="#9a32cd" stroke="#9a32cd" points="69.64,-338.34 64.25,-347.47 74.15,-343.69 69.64,-338.34"/>
<text text-anchor="middle" x="146.5" y="-297.97" font-family="Helvetica,sans-Serif" font-size="10.00"> elements</text>
</g>
<!-- Node5 -->
<g id="node5" class="node">
<title>Node5</title>
<g id="a_node5"><a xlink:title=" ">
<polygon fill="none" stroke="#bfbfbf" points="228.5,-252.47 228.5,-271.47 273.5,-271.47 273.5,-252.47 228.5,-252.47"/>
<text text-anchor="middle" x="251" y="-259.47" font-family="Helvetica,sans-Serif" font-size="10.00">size_t</text>
</a>
</g>
</g>
<!-- Node5&#45;&gt;Node1 -->
<g id="edge10" class="edge">
<title>Node5&#45;&gt;Node1</title>
<path fill="none" stroke="#9a32cd" stroke-dasharray="5,2" d="M284.25,-264.31C357.56,-268.65 541.62,-273.92 687,-230.97 707.85,-224.81 729.42,-211.64 742.77,-202.55"/>
<polygon fill="#9a32cd" stroke="#9a32cd" points="284.05,-260.79 273.85,-263.66 283.62,-267.78 284.05,-260.79"/>
<text text-anchor="middle" x="507.5" y="-278.97" font-family="Helvetica,sans-Serif" font-size="10.00"> _max_iter</text>
<text text-anchor="middle" x="507.5" y="-267.97" font-family="Helvetica,sans-Serif" font-size="10.00">_num_components</text>
</g>
<!-- Node5&#45;&gt;Node3 -->
<g id="edge4" class="edge">
<title>Node5&#45;&gt;Node3</title>
<path fill="none" stroke="#9a32cd" stroke-dasharray="5,2" d="M283.67,-267.73C318.43,-274.17 375.84,-285.11 425,-295.97 439.51,-299.17 455.4,-303 469.26,-306.44"/>
<polygon fill="#9a32cd" stroke="#9a32cd" points="284.11,-264.26 273.64,-265.89 282.84,-271.14 284.11,-264.26"/>
<text text-anchor="middle" x="378" y="-298.97" font-family="Helvetica,sans-Serif" font-size="10.00"> num_iter</text>
</g>
<!-- Node11 -->
<g id="node11" class="node">
<title>Node11</title>
<g id="a_node11"><a xlink:href="structcarta_1_1FitData.html" target="_top" xlink:title=" ">
<polygon fill="none" stroke="black" points="466,-118.47 466,-137.47 549,-137.47 549,-118.47 466,-118.47"/>
<text text-anchor="middle" x="507.5" y="-125.47" font-family="Helvetica,sans-Serif" font-size="10.00">carta::FitData</text>
</a>
</g>
</g>
<!-- Node5&#45;&gt;Node11 -->
<g id="edge13" class="edge">
<title>Node5&#45;&gt;Node11</title>
<path fill="none" stroke="#9a32cd" stroke-dasharray="5,2" d="M272.67,-246.09C284.74,-236.55 300.09,-223.98 313,-211.97 321.51,-204.04 320.94,-198.81 331,-192.97 368.19,-171.37 386.6,-189.34 425,-169.97 434.3,-165.28 434.11,-160.4 443,-154.97 454.35,-148.04 467.79,-142.04 479.38,-137.47"/>
<polygon fill="#9a32cd" stroke="#9a32cd" points="270.26,-243.53 264.53,-252.44 274.57,-249.04 270.26,-243.53"/>
<text text-anchor="middle" x="378" y="-239.97" font-family="Helvetica,sans-Serif" font-size="10.00"> n</text>
<text text-anchor="middle" x="378" y="-228.97" font-family="Helvetica,sans-Serif" font-size="10.00">n_notnan</text>
<text text-anchor="middle" x="378" y="-217.97" font-family="Helvetica,sans-Serif" font-size="10.00">offset_x</text>
<text text-anchor="middle" x="378" y="-206.97" font-family="Helvetica,sans-Serif" font-size="10.00">offset_y</text>
<text text-anchor="middle" x="378" y="-195.97" font-family="Helvetica,sans-Serif" font-size="10.00">width</text>
</g>
<!-- Node6 -->
<g id="node6" class="node">
<title>Node6</title>
<g id="a_node6"><a xlink:title=" ">
<polygon fill="none" stroke="#bfbfbf" points="37.5,-226.47 37.5,-245.47 66.5,-245.47 66.5,-226.47 37.5,-226.47"/>
<text text-anchor="middle" x="52" y="-233.47" font-family="Helvetica,sans-Serif" font-size="10.00">int</text>
</a>
</g>
</g>
<!-- Node6&#45;&gt;Node3 -->
<g id="edge5" class="edge">
<title>Node6&#45;&gt;Node3</title>
<path fill="none" stroke="#9a32cd" stroke-dasharray="5,2" d="M66.12,-253.8C78.57,-269.15 98.8,-290.3 122,-299.97 182.29,-325.08 374.73,-321.17 462.33,-317.92"/>
<polygon fill="#9a32cd" stroke="#9a32cd" points="68.62,-251.31 59.72,-245.56 63.09,-255.61 68.62,-251.31"/>
<text text-anchor="middle" x="251" y="-322.97" font-family="Helvetica,sans-Serif" font-size="10.00"> info</text>
</g>
<!-- Node14 -->
<g id="node14" class="node">
<title>Node14</title>
<g id="a_node14"><a xlink:title=" ">
<polygon fill="none" stroke="#bfbfbf" points="199,-123.47 199,-142.47 303,-142.47 303,-123.47 199,-123.47"/>
<text text-anchor="middle" x="251" y="-130.47" font-family="Helvetica,sans-Serif" font-size="10.00">std::vector&lt; int &gt;</text>
</a>
</g>
</g>
<!-- Node6&#45;&gt;Node14 -->
<g id="edge16" class="edge">
<title>Node6&#45;&gt;Node14</title>
<path fill="none" stroke="#9a32cd" stroke-dasharray="5,2" d="M75.62,-224.14C115,-203.55 195.41,-161.51 231.61,-142.58"/>
<polygon fill="#9a32cd" stroke="#9a32cd" points="73.78,-221.15 66.54,-228.89 77.02,-227.36 73.78,-221.15"/>
<text text-anchor="middle" x="146.5" y="-201.97" font-family="Helvetica,sans-Serif" font-size="10.00"> elements</text>
</g>
<!-- Node7 -->
<g id="node7" class="node">
<title>Node7</title>
<g id="a_node7"><a xlink:title=" ">
<polygon fill="none" stroke="#bfbfbf" points="218.5,-412.47 218.5,-431.47 283.5,-431.47 283.5,-412.47 218.5,-412.47"/>
<text text-anchor="middle" x="251" y="-419.47" font-family="Helvetica,sans-Serif" font-size="10.00">std::string</text>
</a>
</g>
</g>
<!-- Node7&#45;&gt;Node3 -->
<g id="edge6" class="edge">
<title>Node7&#45;&gt;Node3</title>
<path fill="none" stroke="#9a32cd" stroke-dasharray="5,2" d="M294.11,-420.44C332.35,-416.96 388.22,-406.37 425,-374.97 439.83,-362.31 428.34,-347.81 443,-334.97 448.54,-330.11 455.28,-326.5 462.27,-323.81"/>
<polygon fill="#9a32cd" stroke="#9a32cd" points="293.53,-416.98 283.83,-421.25 294.07,-423.96 293.53,-416.98"/>
<text text-anchor="middle" x="378" y="-416.97" font-family="Helvetica,sans-Serif" font-size="10.00"> method</text>
</g>
<!-- Node8 -->
<g id="node8" class="node">
<title>Node8</title>
<g id="a_node8"><a xlink:title=" ">
<polygon fill="none" stroke="#bfbfbf" points="0,-406.97 0,-436.97 104,-436.97 104,-406.97 0,-406.97"/>
<text text-anchor="start" x="8" y="-424.97" font-family="Helvetica,sans-Serif" font-size="10.00">std::basic_string&lt;</text>
<text text-anchor="middle" x="52" y="-413.97" font-family="Helvetica,sans-Serif" font-size="10.00"> Char &gt;</text>
</a>
</g>
</g>
<!-- Node8&#45;&gt;Node7 -->
<g id="edge7" class="edge">
<title>Node8&#45;&gt;Node7</title>
<path fill="none" stroke="midnightblue" d="M114.68,-421.97C149.1,-421.97 190.53,-421.97 218.4,-421.97"/>
<polygon fill="midnightblue" stroke="midnightblue" points="114.25,-418.47 104.25,-421.97 114.25,-425.47 114.25,-418.47"/>
</g>
<!-- Node9 -->
<g id="node9" class="node">
<title>Node9</title>
<g id="a_node9"><a xlink:title=" ">
<polygon fill="none" stroke="#bfbfbf" points="470,-202.47 470,-221.47 545,-221.47 545,-202.47 470,-202.47"/>
<text text-anchor="middle" x="507.5" y="-209.47" font-family="Helvetica,sans-Serif" font-size="10.00">gsl_vector *</text>
</a>
</g>
</g>
<!-- Node9&#45;&gt;Node1 -->
<g id="edge8" class="edge">
<title>Node9&#45;&gt;Node1</title>
<path fill="none" stroke="#9a32cd" stroke-dasharray="5,2" d="M555.13,-208.39C597.74,-205.12 660.66,-200.29 704.69,-196.91"/>
<polygon fill="#9a32cd" stroke="#9a32cd" points="554.72,-204.91 545.02,-209.16 555.26,-211.89 554.72,-204.91"/>
<text text-anchor="middle" x="638.5" y="-218.97" font-family="Helvetica,sans-Serif" font-size="10.00"> _fit_errors</text>
<text text-anchor="middle" x="638.5" y="-207.97" font-family="Helvetica,sans-Serif" font-size="10.00">_fit_values</text>
</g>
<!-- Node10 -->
<g id="node10" class="node">
<title>Node10</title>
<g id="a_node10"><a xlink:title=" ">
<polygon fill="none" stroke="#bfbfbf" points="444.5,-164.47 444.5,-183.47 570.5,-183.47 570.5,-164.47 444.5,-164.47"/>
<text text-anchor="middle" x="507.5" y="-171.47" font-family="Helvetica,sans-Serif" font-size="10.00">function&lt; void(float)&gt;</text>
</a>
</g>
</g>
<!-- Node10&#45;&gt;Node1 -->
<g id="edge9" class="edge">
<title>Node10&#45;&gt;Node1</title>
<path fill="none" stroke="#9a32cd" stroke-dasharray="5,2" d="M580.88,-176.08C613.38,-177.42 652.17,-179.57 687,-182.97 692.78,-183.53 698.82,-184.23 704.82,-185.01"/>
<polygon fill="#9a32cd" stroke="#9a32cd" points="580.69,-172.57 570.56,-175.67 580.42,-179.56 580.69,-172.57"/>
<text text-anchor="middle" x="638.5" y="-185.97" font-family="Helvetica,sans-Serif" font-size="10.00"> _progress_callback</text>
</g>
<!-- Node11&#45;&gt;Node1 -->
<g id="edge11" class="edge">
<title>Node11&#45;&gt;Node1</title>
<path fill="none" stroke="#9a32cd" stroke-dasharray="5,2" d="M559.57,-133.93C595.72,-138.99 645.05,-147.6 687,-160.97 705.24,-166.78 724.96,-176.28 738.62,-183.42"/>
<polygon fill="#9a32cd" stroke="#9a32cd" points="559.64,-130.41 549.27,-132.54 558.71,-137.35 559.64,-130.41"/>
<text text-anchor="middle" x="638.5" y="-163.97" font-family="Helvetica,sans-Serif" font-size="10.00"> _fit_data</text>
</g>
<!-- Node12 -->
<g id="node12" class="node">
<title>Node12</title>
<g id="a_node12"><a xlink:title=" ">
<polygon fill="none" stroke="#bfbfbf" points="232,-70.47 232,-89.47 270,-89.47 270,-70.47 232,-70.47"/>
<text text-anchor="middle" x="251" y="-77.47" font-family="Helvetica,sans-Serif" font-size="10.00">float</text>
</a>
</g>
</g>
<!-- Node12&#45;&gt;Node11 -->
<g id="edge12" class="edge">
<title>Node12&#45;&gt;Node11</title>
<path fill="none" stroke="#9a32cd" stroke-dasharray="5,2" d="M280.51,-83.87C314.91,-88.73 374.42,-97.69 425,-107.97 439.85,-110.99 456.08,-114.85 470.13,-118.38"/>
<polygon fill="#9a32cd" stroke="#9a32cd" points="280.66,-80.35 270.27,-82.43 279.69,-87.29 280.66,-80.35"/>
<text text-anchor="middle" x="378" y="-110.97" font-family="Helvetica,sans-Serif" font-size="10.00"> data</text>
</g>
<!-- Node16 -->
<g id="node16" class="node">
<title>Node16</title>
<g id="a_node16"><a xlink:title=" ">
<polygon fill="none" stroke="#bfbfbf" points="451,-46.47 451,-65.47 564,-65.47 564,-46.47 451,-46.47"/>
<text text-anchor="middle" x="507.5" y="-53.47" font-family="Helvetica,sans-Serif" font-size="10.00">std::vector&lt; float &gt;</text>
</a>
</g>
</g>
<!-- Node12&#45;&gt;Node16 -->
<g id="edge21" class="edge">
<title>Node12&#45;&gt;Node16</title>
<path fill="none" stroke="#9a32cd" stroke-dasharray="5,2" d="M271.41,-63.81C290.34,-48.47 318.09,-27.14 331,-22.97 370.75,-10.12 383.99,-14.98 425,-22.97 447.92,-27.43 472.56,-38.35 488.67,-46.41"/>
<polygon fill="#9a32cd" stroke="#9a32cd" points="268.94,-61.31 263.42,-70.36 273.38,-66.73 268.94,-61.31"/>
<text text-anchor="middle" x="378" y="-25.97" font-family="Helvetica,sans-Serif" font-size="10.00"> elements</text>
</g>
<!-- Node13 -->
<g id="node13" class="node">
<title>Node13</title>
<g id="a_node13"><a xlink:title=" ">
<polygon fill="none" stroke="#bfbfbf" points="232,-3.47 232,-22.47 270,-22.47 270,-3.47 232,-3.47"/>
<text text-anchor="middle" x="251" y="-10.47" font-family="Helvetica,sans-Serif" font-size="10.00">bool</text>
</a>
</g>
</g>
<!-- Node13&#45;&gt;Node1 -->
<g id="edge19" class="edge">
<title>Node13&#45;&gt;Node1</title>
<path fill="none" stroke="#9a32cd" stroke-dasharray="5,2" d="M280.27,-9.07C336.64,-2.18 466.68,9.26 572,-14.97 626.85,-27.59 645.79,-29.64 687,-67.97 723.67,-102.07 745.43,-160.18 752.98,-183.18"/>
<polygon fill="#9a32cd" stroke="#9a32cd" points="279.49,-5.64 270.01,-10.37 280.37,-12.58 279.49,-5.64"/>
<text text-anchor="middle" x="507.5" y="-28.97" font-family="Helvetica,sans-Serif" font-size="10.00"> _create_model_data</text>
<text text-anchor="middle" x="507.5" y="-17.97" font-family="Helvetica,sans-Serif" font-size="10.00">_create_residual_data</text>
</g>
<!-- Node13&#45;&gt;Node11 -->
<g id="edge14" class="edge">
<title>Node13&#45;&gt;Node11</title>
<path fill="none" stroke="#9a32cd" stroke-dasharray="5,2" d="M280.17,-21.14C315.06,-31.72 375.91,-51.73 425,-75.97 450.43,-88.52 477.81,-107.16 493.47,-118.38"/>
<polygon fill="#9a32cd" stroke="#9a32cd" points="280.8,-17.67 270.22,-18.16 278.79,-24.38 280.8,-17.67"/>
<text text-anchor="middle" x="378" y="-78.97" font-family="Helvetica,sans-Serif" font-size="10.00"> stop_fitting</text>
</g>
<!-- Node14&#45;&gt;Node11 -->
<g id="edge15" class="edge">
<title>Node14&#45;&gt;Node11</title>
<path fill="none" stroke="#9a32cd" stroke-dasharray="5,2" d="M313.35,-126.14C319.31,-125.66 325.27,-125.26 331,-124.97 377.11,-122.64 430.11,-124.12 465.69,-125.71"/>
<polygon fill="#9a32cd" stroke="#9a32cd" points="313.02,-122.66 303.36,-127.01 313.63,-129.63 313.02,-122.66"/>
<text text-anchor="middle" x="378" y="-127.97" font-family="Helvetica,sans-Serif" font-size="10.00"> fit_values_indexes</text>
</g>
<!-- Node15&#45;&gt;Node11 -->
<g id="edge17" class="edge">
<title>Node15&#45;&gt;Node11</title>
<path fill="none" stroke="#9a32cd" stroke-dasharray="5,2" d="M279.85,-179.1C294.72,-172.18 313.51,-164.2 331,-158.97 376.21,-145.45 429.83,-137.03 465.8,-132.44"/>
<polygon fill="#9a32cd" stroke="#9a32cd" points="278.22,-176 270.7,-183.45 281.23,-182.32 278.22,-176"/>
<text text-anchor="middle" x="378" y="-161.97" font-family="Helvetica,sans-Serif" font-size="10.00"> initial_values</text>
</g>
<!-- Node16&#45;&gt;Node1 -->
<g id="edge20" class="edge">
<title>Node16&#45;&gt;Node1</title>
<path fill="none" stroke="#9a32cd" stroke-dasharray="5,2" d="M574.1,-67.31C609.64,-75.63 653.08,-89.52 687,-111.97 716.27,-131.34 740.1,-166.57 750.44,-183.45"/>
<polygon fill="#9a32cd" stroke="#9a32cd" points="574.82,-63.88 564.3,-65.1 573.29,-70.71 574.82,-63.88"/>
<text text-anchor="middle" x="638.5" y="-125.97" font-family="Helvetica,sans-Serif" font-size="10.00"> _model_data</text>
<text text-anchor="middle" x="638.5" y="-114.97" font-family="Helvetica,sans-Serif" font-size="10.00">_residual_data</text>
</g>
</g>
</svg>
