<?xml version="1.0" encoding="UTF-8" standalone="no"?>
<!DOCTYPE svg PUBLIC "-//W3C//DTD SVG 1.1//EN"
 "http://www.w3.org/Graphics/SVG/1.1/DTD/svg11.dtd">
<!-- Generated by graphviz version 2.43.0 (0)
 -->
<!-- Title: carta::Ds9ImportExport::ImportPointRegion Pages: 1 -->
<svg width="334pt" height="176pt"
 viewBox="0.00 0.00 334.00 175.50" xmlns="http://www.w3.org/2000/svg" xmlns:xlink="http://www.w3.org/1999/xlink">
<g id="graph0" class="graph" transform="scale(1 1) rotate(0) translate(4 171.5)">
<title>carta::Ds9ImportExport::ImportPointRegion</title>
<!-- Node1 -->
<g id="node1" class="node">
<title>Node1</title>
<g id="a_node1"><a xlink:title=" ">
<polygon fill="#bfbfbf" stroke="black" points="0,-63 0,-93 130,-93 130,-63 0,-63"/>
<text text-anchor="start" x="8" y="-81" font-family="Helvetica,sans-Serif" font-size="10.00">carta::Ds9ImportExport</text>
<text text-anchor="middle" x="65" y="-70" font-family="Helvetica,sans-Serif" font-size="10.00">::ImportPointRegion</text>
</a>
</g>
</g>
<!-- Node2 -->
<g id="node2" class="node">
<title>Node2</title>
<g id="a_node2"><a xlink:href="classcarta_1_1Ds9ImportExport.html#a4a98d6ed0d10b49582df9c3cf885a25c" target="_top" xlink:title=" ">
<polygon fill="none" stroke="black" points="166,-137 166,-167 326,-167 326,-137 166,-137"/>
<text text-anchor="start" x="174" y="-155" font-family="Helvetica,sans-Serif" font-size="10.00">carta::Ds9ImportExport</text>
<text text-anchor="middle" x="246" y="-144" font-family="Helvetica,sans-Serif" font-size="10.00">::CheckAndConvertParameter</text>
</a>
</g>
</g>
<!-- Node1&#45;&gt;Node2 -->
<g id="edge1" class="edge">
<title>Node1&#45;&gt;Node2</title>
<path fill="none" stroke="midnightblue" d="M93.02,-93.07C112.82,-103.73 140.58,-117.87 166,-128 170.99,-129.99 176.22,-131.91 181.5,-133.74"/>
<polygon fill="midnightblue" stroke="midnightblue" points="180.44,-137.08 191.03,-136.94 182.66,-130.44 180.44,-137.08"/>
</g>
<!-- Node3 -->
<g id="node3" class="node">
<title>Node3</title>
<g id="a_node3"><a xlink:href="classcarta_1_1RegionImportExport.html#a4dbf1bb6405ba5cbc0dea6803c3d2eef" target="_top" xlink:title=" ">
<polygon fill="none" stroke="black" points="173.5,-88 173.5,-118 318.5,-118 318.5,-88 173.5,-88"/>
<text text-anchor="start" x="181.5" y="-106" font-family="Helvetica,sans-Serif" font-size="10.00">carta::RegionImportExport</text>
<text text-anchor="middle" x="246" y="-95" font-family="Helvetica,sans-Serif" font-size="10.00">::ConvertPointToPixels</text>
</a>
</g>
</g>
<!-- Node1&#45;&gt;Node3 -->
<g id="edge2" class="edge">
<title>Node1&#45;&gt;Node3</title>
<path fill="none" stroke="midnightblue" d="M130.12,-86.95C140.87,-88.46 152.16,-90.03 163.28,-91.59"/>
<polygon fill="midnightblue" stroke="midnightblue" points="163.04,-95.09 173.43,-93 164.01,-88.15 163.04,-95.09"/>
</g>
<!-- Node4 -->
<g id="node4" class="node">
<title>Node4</title>
<g id="a_node4"><a xlink:href="classcarta_1_1Ds9ImportExport.html#a6a6e823ab33b1fc63fcd8748e97603e0" target="_top" xlink:title=" ">
<polygon fill="none" stroke="black" points="171,-39 171,-69 321,-69 321,-39 171,-39"/>
<text text-anchor="start" x="179" y="-57" font-family="Helvetica,sans-Serif" font-size="10.00">carta::Ds9ImportExport</text>
<text text-anchor="middle" x="246" y="-46" font-family="Helvetica,sans-Serif" font-size="10.00">::ConvertTimeFormatToDeg</text>
</a>
</g>
</g>
<!-- Node1&#45;&gt;Node4 -->
<g id="edge3" class="edge">
<title>Node1&#45;&gt;Node4</title>
<path fill="none" stroke="midnightblue" d="M130.12,-69.4C140.15,-68.06 150.65,-66.65 161.05,-65.26"/>
<polygon fill="midnightblue" stroke="midnightblue" points="161.52,-68.72 170.97,-63.93 160.59,-61.79 161.52,-68.72"/>
</g>
<!-- Node5 -->
<g id="node5" class="node">
<title>Node5</title>
<g id="a_node5"><a xlink:href="classMessage.html#a0c0bb5e50ad8b90bade291ab17a18cf5" target="_top" xlink:title=" ">
<polygon fill="none" stroke="black" points="200.5,-0.5 200.5,-19.5 291.5,-19.5 291.5,-0.5 200.5,-0.5"/>
<text text-anchor="middle" x="246" y="-7.5" font-family="Helvetica,sans-Serif" font-size="10.00">Message::Point</text>
</a>
</g>
</g>
<!-- Node1&#45;&gt;Node5 -->
<g id="edge4" class="edge">
<title>Node1&#45;&gt;Node5</title>
<path fill="none" stroke="midnightblue" d="M93.8,-62.8C113.52,-52.49 140.83,-39.12 166,-30 173.93,-27.12 182.46,-24.5 190.87,-22.17"/>
<polygon fill="midnightblue" stroke="midnightblue" points="191.89,-25.52 200.65,-19.57 190.09,-18.76 191.89,-25.52"/>
</g>
</g>
</svg>
