<?xml version="1.0" encoding="UTF-8" standalone="no"?>
<!DOCTYPE svg PUBLIC "-//W3C//DTD SVG 1.1//EN"
 "http://www.w3.org/Graphics/SVG/1.1/DTD/svg11.dtd">
<!-- Generated by graphviz version 2.43.0 (0)
 -->
<!-- Title: carta::RegionHandler::GetRegionSpectralData Pages: 1 -->
<!--zoomable 428 -->
<svg id="main" version="1.1" xmlns="http://www.w3.org/2000/svg" xmlns:xlink="http://www.w3.org/1999/xlink" xml:space="preserve" onload="init(evt)">
<style type="text/css"><![CDATA[
.edge:hover path { stroke: red; }
.edge:hover polygon { stroke: red; fill: red; }
]]></style>
<script type="text/javascript"><![CDATA[
var edges = document.getElementsByTagName('g');
if (edges && edges.length) {
  for (var i=0;i<edges.length;i++) {
    if (edges[i].id.substr(0,4)=='edge') {
      edges[i].setAttribute('class','edge');
    }
  }
}
]]></script>
        <defs>
                <circle id="rim" cx="0" cy="0" r="7"/>
                <circle id="rim2" cx="0" cy="0" r="3.5"/>
                <g id="zoomPlus">
                        <use xlink:href="#rim" fill="#404040">
                                <set attributeName="fill" to="#808080" begin="zoomplus.mouseover" end="zoomplus.mouseout"/>
                        </use>
                        <path d="M-4,0h8M0,-4v8" fill="none" stroke="white" stroke-width="1.5" pointer-events="none"/>
                </g>
                <g id="zoomMin">
                        <use xlink:href="#rim" fill="#404040">
                                <set attributeName="fill" to="#808080" begin="zoomminus.mouseover" end="zoomminus.mouseout"/>
                        </use>
                        <path d="M-4,0h8" fill="none" stroke="white" stroke-width="1.5" pointer-events="none"/>
                </g>
                <g id="dirArrow">
                        <path fill="none" stroke="white" stroke-width="1.5" d="M0,-3.0v7 M-2.5,-0.5L0,-3.0L2.5,-0.5"/>
                </g>
               <g id="resetDef">
                       <use xlink:href="#rim2" fill="#404040">
                               <set attributeName="fill" to="#808080" begin="reset.mouseover" end="reset.mouseout"/>
                       </use>
               </g>
        </defs>

<script type="text/javascript">
var viewWidth = 804;
var viewHeight = 428;
var sectionId = 'dynsection-39';
</script>
<script xlink:href="svgpan.js"/>
<svg id="graph" class="graph">
<g id="viewport">
<title>carta::RegionHandler::GetRegionSpectralData</title>
<!-- Node1 -->
<g id="node1" class="node">
<title>Node1</title>
<g id="a_node1"><a xlink:title=" ">
<polygon fill="#bfbfbf" stroke="black" points="0,-164 0,-194 137,-194 137,-164 0,-164"/>
<text text-anchor="start" x="8" y="-182" font-family="Helvetica,sans-Serif" font-size="10.00">carta::RegionHandler</text>
<text text-anchor="middle" x="68.5" y="-171" font-family="Helvetica,sans-Serif" font-size="10.00">::GetRegionSpectralData</text>
</a>
</g>
</g>
<!-- Node2 -->
<g id="node2" class="node">
<title>Node2</title>
<g id="a_node2"><a xlink:href="classcarta_1_1RegionHandler.html#a5c734366cb3b4b307c54a66251dd270c" target="_top" xlink:title=" ">
<polygon fill="none" stroke="black" points="192.5,-301 192.5,-331 311.5,-331 311.5,-301 192.5,-301"/>
<text text-anchor="start" x="200.5" y="-319" font-family="Helvetica,sans-Serif" font-size="10.00">carta::RegionHandler</text>
<text text-anchor="middle" x="252" y="-308" font-family="Helvetica,sans-Serif" font-size="10.00">::ApplyRegionToFile</text>
</a>
</g>
</g>
<!-- Node1&#45;&gt;Node2 -->
<g id="edge1" class="edge">
<title>Node1&#45;&gt;Node2</title>
<path fill="none" stroke="midnightblue" d="M82.29,-194.14C100.68,-215.23 136.43,-253.68 173,-279 182.44,-285.53 193.2,-291.47 203.67,-296.58"/>
<polygon fill="midnightblue" stroke="midnightblue" points="202.2,-299.76 212.74,-300.85 205.18,-293.42 202.2,-299.76"/>
</g>
<!-- Node4 -->
<g id="node4" class="node">
<title>Node4</title>
<g id="a_node4"><a xlink:href="classcarta_1_1RegionHandler.html#a4d3eaa8da979a4b0640aa3b598a9415b" target="_top" xlink:title=" ">
<polygon fill="none" stroke="black" points="522,-389 522,-419 641,-419 641,-389 522,-389"/>
<text text-anchor="start" x="530" y="-407" font-family="Helvetica,sans-Serif" font-size="10.00">carta::RegionHandler</text>
<text text-anchor="middle" x="581.5" y="-396" font-family="Helvetica,sans-Serif" font-size="10.00">::GetRegion</text>
</a>
</g>
</g>
<!-- Node1&#45;&gt;Node4 -->
<g id="edge26" class="edge">
<title>Node1&#45;&gt;Node4</title>
<path fill="none" stroke="midnightblue" d="M74.86,-194.11C87.05,-226.23 119.97,-301.57 173,-341 272.61,-415.05 424.22,-417.69 511.7,-411.69"/>
<polygon fill="midnightblue" stroke="midnightblue" points="512.07,-415.17 521.78,-410.94 511.55,-408.19 512.07,-415.17"/>
</g>
<!-- Node7 -->
<g id="node7" class="node">
<title>Node7</title>
<g id="a_node7"><a xlink:href="classcarta_1_1RegionHandler.html#a8c787facbcb265d7fa434e05324f2c9e" target="_top" xlink:title=" ">
<polygon fill="none" stroke="black" points="367,-258 367,-288 486,-288 486,-258 367,-258"/>
<text text-anchor="start" x="375" y="-276" font-family="Helvetica,sans-Serif" font-size="10.00">carta::RegionHandler</text>
<text text-anchor="middle" x="426.5" y="-265" font-family="Helvetica,sans-Serif" font-size="10.00">::RegionFileIdsValid</text>
</a>
</g>
</g>
<!-- Node1&#45;&gt;Node7 -->
<g id="edge31" class="edge">
<title>Node1&#45;&gt;Node7</title>
<path fill="none" stroke="midnightblue" d="M88.84,-194.27C108.73,-209.1 141.21,-230.95 173,-242 232.84,-262.8 304.89,-270.02 356.69,-272.35"/>
<polygon fill="midnightblue" stroke="midnightblue" points="356.63,-275.85 366.77,-272.76 356.91,-268.86 356.63,-275.85"/>
</g>
<!-- Node9 -->
<g id="node9" class="node">
<title>Node9</title>
<g id="a_node9"><a xlink:href="classcarta_1_1Timer.html#aad2702a80259920b910fb76642f97b88" target="_top" xlink:title=" ">
<polygon fill="none" stroke="black" points="192,-213.5 192,-232.5 312,-232.5 312,-213.5 192,-213.5"/>
<text text-anchor="middle" x="252" y="-220.5" font-family="Helvetica,sans-Serif" font-size="10.00">carta::Timer::Elapsed</text>
</a>
</g>
</g>
<!-- Node1&#45;&gt;Node9 -->
<g id="edge12" class="edge">
<title>Node1&#45;&gt;Node9</title>
<path fill="none" stroke="midnightblue" d="M131.45,-194.02C154.42,-199.59 180.12,-205.82 201.79,-211.07"/>
<polygon fill="midnightblue" stroke="midnightblue" points="201.22,-214.53 211.76,-213.49 202.87,-207.73 201.22,-214.53"/>
</g>
<!-- Node10 -->
<g id="node10" class="node">
<title>Node10</title>
<g id="a_node10"><a xlink:href="classcarta_1_1RegionHandler.html#abb010a0a0dc050115c0d88d88f6a3050" target="_top" xlink:title=" ">
<polygon fill="none" stroke="black" points="173,-164 173,-194 331,-194 331,-164 173,-164"/>
<text text-anchor="start" x="181" y="-182" font-family="Helvetica,sans-Serif" font-size="10.00">carta::RegionHandler</text>
<text text-anchor="middle" x="252" y="-171" font-family="Helvetica,sans-Serif" font-size="10.00">::GetComputedStokesProfiles</text>
</a>
</g>
</g>
<!-- Node1&#45;&gt;Node10 -->
<g id="edge13" class="edge">
<title>Node1&#45;&gt;Node10</title>
<path fill="none" stroke="midnightblue" d="M137.08,-179C145.49,-179 154.17,-179 162.83,-179"/>
<polygon fill="midnightblue" stroke="midnightblue" points="162.96,-182.5 172.96,-179 162.96,-175.5 162.96,-182.5"/>
</g>
<!-- Node18 -->
<g id="node18" class="node">
<title>Node18</title>
<g id="a_node18"><a xlink:href="classcarta_1_1RegionHandler.html#aa447d1d2f60c4f8b54e06530329e1b75" target="_top" xlink:title=" ">
<polygon fill="none" stroke="black" points="177.5,-115 177.5,-145 326.5,-145 326.5,-115 177.5,-115"/>
<text text-anchor="start" x="185.5" y="-133" font-family="Helvetica,sans-Serif" font-size="10.00">carta::RegionHandler</text>
<text text-anchor="middle" x="252" y="-122" font-family="Helvetica,sans-Serif" font-size="10.00">::HasSpectralRequirements</text>
</a>
</g>
</g>
<!-- Node1&#45;&gt;Node18 -->
<g id="edge27" class="edge">
<title>Node1&#45;&gt;Node18</title>
<path fill="none" stroke="midnightblue" d="M125.44,-163.9C144.42,-158.77 165.79,-153 185.45,-147.7"/>
<polygon fill="midnightblue" stroke="midnightblue" points="186.51,-151.04 195.25,-145.05 184.68,-144.28 186.51,-151.04"/>
</g>
<!-- Node19 -->
<g id="node19" class="node">
<title>Node19</title>
<g id="a_node19"><a xlink:href="Stokes_8cc.html#a30da07ffd67ed06c1e15e2da4d915e0c" target="_top" xlink:title=" ">
<polygon fill="none" stroke="black" points="198.5,-76.5 198.5,-95.5 305.5,-95.5 305.5,-76.5 198.5,-76.5"/>
<text text-anchor="middle" x="252" y="-83.5" font-family="Helvetica,sans-Serif" font-size="10.00">IsComputedStokes</text>
</a>
</g>
</g>
<!-- Node1&#45;&gt;Node19 -->
<g id="edge28" class="edge">
<title>Node1&#45;&gt;Node19</title>
<path fill="none" stroke="midnightblue" d="M86.59,-163.95C106.18,-147.45 139.86,-121.3 173,-106 179.14,-103.16 185.74,-100.69 192.42,-98.53"/>
<polygon fill="midnightblue" stroke="midnightblue" points="193.63,-101.82 202.2,-95.6 191.62,-95.12 193.63,-101.82"/>
</g>
<!-- Node20 -->
<g id="node20" class="node">
<title>Node20</title>
<g id="a_node20"><a xlink:href="structcarta_1_1TimeDelta.html#a90b2dc0a7d70b0aa6f668f4bbad7fa58" target="_top" xlink:title=" ">
<polygon fill="none" stroke="black" points="192.5,-38.5 192.5,-57.5 311.5,-57.5 311.5,-38.5 192.5,-38.5"/>
<text text-anchor="middle" x="252" y="-45.5" font-family="Helvetica,sans-Serif" font-size="10.00">carta::TimeDelta::ms</text>
</a>
</g>
</g>
<!-- Node1&#45;&gt;Node20 -->
<g id="edge29" class="edge">
<title>Node1&#45;&gt;Node20</title>
<path fill="none" stroke="midnightblue" d="M79.23,-163.67C95.53,-139.27 130.79,-91.84 173,-67 176.72,-64.81 180.67,-62.88 184.76,-61.16"/>
<polygon fill="midnightblue" stroke="midnightblue" points="186.32,-64.32 194.47,-57.56 183.88,-57.76 186.32,-64.32"/>
</g>
<!-- Node21 -->
<g id="node21" class="node">
<title>Node21</title>
<g id="a_node21"><a xlink:href="classMessage.html#a0c0bb5e50ad8b90bade291ab17a18cf5" target="_top" xlink:title=" ">
<polygon fill="none" stroke="black" points="206.5,-0.5 206.5,-19.5 297.5,-19.5 297.5,-0.5 206.5,-0.5"/>
<text text-anchor="middle" x="252" y="-7.5" font-family="Helvetica,sans-Serif" font-size="10.00">Message::Point</text>
</a>
</g>
</g>
<!-- Node1&#45;&gt;Node21 -->
<g id="edge30" class="edge">
<title>Node1&#45;&gt;Node21</title>
<path fill="none" stroke="midnightblue" d="M75.47,-163.94C88.39,-133.41 121.92,-64.16 173,-29 180.01,-24.17 188.12,-20.57 196.4,-17.87"/>
<polygon fill="midnightblue" stroke="midnightblue" points="197.48,-21.21 206.15,-15.12 195.57,-14.47 197.48,-21.21"/>
</g>
<!-- Node3 -->
<g id="node3" class="node">
<title>Node3</title>
<g id="a_node3"><a xlink:href="classcarta_1_1RegionHandler.html#ab9501617a3845ac3fa32b6b88c5269eb" target="_top" xlink:title=" ">
<polygon fill="none" stroke="black" points="367,-307 367,-337 486,-337 486,-307 367,-307"/>
<text text-anchor="start" x="375" y="-325" font-family="Helvetica,sans-Serif" font-size="10.00">carta::RegionHandler</text>
<text text-anchor="middle" x="426.5" y="-314" font-family="Helvetica,sans-Serif" font-size="10.00">::IsClosedRegion</text>
</a>
</g>
</g>
<!-- Node2&#45;&gt;Node3 -->
<g id="edge2" class="edge">
<title>Node2&#45;&gt;Node3</title>
<path fill="none" stroke="midnightblue" d="M311.88,-318.05C326.32,-318.55 341.89,-319.09 356.74,-319.61"/>
<polygon fill="midnightblue" stroke="midnightblue" points="356.77,-323.11 366.88,-319.96 357.01,-316.12 356.77,-323.11"/>
</g>
<!-- Node6 -->
<g id="node6" class="node">
<title>Node6</title>
<g id="a_node6"><a xlink:href="classcarta_1_1RegionHandler.html#a94d939104654243dec3750ada83b370e" target="_top" xlink:title=" ">
<polygon fill="none" stroke="black" points="367,-356 367,-386 486,-386 486,-356 367,-356"/>
<text text-anchor="start" x="375" y="-374" font-family="Helvetica,sans-Serif" font-size="10.00">carta::RegionHandler</text>
<text text-anchor="middle" x="426.5" y="-363" font-family="Helvetica,sans-Serif" font-size="10.00">::IsPointRegion</text>
</a>
</g>
</g>
<!-- Node2&#45;&gt;Node6 -->
<g id="edge6" class="edge">
<title>Node2&#45;&gt;Node6</title>
<path fill="none" stroke="midnightblue" d="M300.14,-331.03C321.34,-337.79 346.54,-345.82 368.77,-352.91"/>
<polygon fill="midnightblue" stroke="midnightblue" points="367.83,-356.29 378.42,-355.99 369.96,-349.62 367.83,-356.29"/>
</g>
<!-- Node2&#45;&gt;Node7 -->
<g id="edge9" class="edge">
<title>Node2&#45;&gt;Node7</title>
<path fill="none" stroke="midnightblue" d="M311.88,-301.32C326.45,-297.69 342.19,-293.77 357.17,-290.03"/>
<polygon fill="midnightblue" stroke="midnightblue" points="358.03,-293.43 366.88,-287.61 356.33,-286.63 358.03,-293.43"/>
</g>
<!-- Node3&#45;&gt;Node4 -->
<g id="edge3" class="edge">
<title>Node3&#45;&gt;Node4</title>
<path fill="none" stroke="midnightblue" d="M464.99,-337.11C472.05,-340.21 479.32,-343.58 486,-347 507.35,-357.93 530.41,-371.8 548.41,-383.12"/>
<polygon fill="midnightblue" stroke="midnightblue" points="547.01,-386.38 557.33,-388.78 550.76,-380.47 547.01,-386.38"/>
</g>
<!-- Node5 -->
<g id="node5" class="node">
<title>Node5</title>
<g id="a_node5"><a xlink:href="classcarta_1_1RegionHandler.html#a9e8b41c9fe29c95b66a44f78490bbcae" target="_top" xlink:title=" ">
<polygon fill="none" stroke="black" points="677,-326 677,-356 796,-356 796,-326 677,-326"/>
<text text-anchor="start" x="685" y="-344" font-family="Helvetica,sans-Serif" font-size="10.00">carta::RegionHandler</text>
<text text-anchor="middle" x="736.5" y="-333" font-family="Helvetica,sans-Serif" font-size="10.00">::RegionSet</text>
</a>
</g>
</g>
<!-- Node3&#45;&gt;Node5 -->
<g id="edge5" class="edge">
<title>Node3&#45;&gt;Node5</title>
<path fill="none" stroke="midnightblue" d="M486.16,-325.62C537.56,-328.79 612.33,-333.4 666.58,-336.75"/>
<polygon fill="midnightblue" stroke="midnightblue" points="666.6,-340.26 676.8,-337.38 667.03,-333.27 666.6,-340.26"/>
</g>
<!-- Node4&#45;&gt;Node5 -->
<g id="edge4" class="edge">
<title>Node4&#45;&gt;Node5</title>
<path fill="none" stroke="midnightblue" d="M619.15,-388.91C640.27,-380.21 667,-369.2 689.52,-359.93"/>
<polygon fill="midnightblue" stroke="midnightblue" points="690.97,-363.12 698.89,-356.08 688.31,-356.65 690.97,-363.12"/>
</g>
<!-- Node6&#45;&gt;Node4 -->
<g id="edge7" class="edge">
<title>Node6&#45;&gt;Node4</title>
<path fill="none" stroke="midnightblue" d="M486.22,-383.66C494.64,-385.48 503.36,-387.36 511.95,-389.21"/>
<polygon fill="midnightblue" stroke="midnightblue" points="511.43,-392.68 521.94,-391.37 512.9,-385.84 511.43,-392.68"/>
</g>
<!-- Node6&#45;&gt;Node5 -->
<g id="edge8" class="edge">
<title>Node6&#45;&gt;Node5</title>
<path fill="none" stroke="midnightblue" d="M486.16,-365.29C537.56,-360.28 612.33,-353 666.58,-347.71"/>
<polygon fill="midnightblue" stroke="midnightblue" points="667.19,-351.17 676.8,-346.72 666.51,-344.2 667.19,-351.17"/>
</g>
<!-- Node7&#45;&gt;Node5 -->
<g id="edge11" class="edge">
<title>Node7&#45;&gt;Node5</title>
<path fill="none" stroke="midnightblue" d="M486.16,-285.95C537.67,-297.32 612.64,-313.88 666.92,-325.86"/>
<polygon fill="midnightblue" stroke="midnightblue" points="666.28,-329.3 676.8,-328.04 667.79,-322.47 666.28,-329.3"/>
</g>
<!-- Node8 -->
<g id="node8" class="node">
<title>Node8</title>
<g id="a_node8"><a xlink:href="classcarta_1_1RegionHandler.html#a16e8f0e73ba63be909517151bf11a450" target="_top" xlink:title=" ">
<polygon fill="none" stroke="black" points="522,-225 522,-255 641,-255 641,-225 522,-225"/>
<text text-anchor="start" x="530" y="-243" font-family="Helvetica,sans-Serif" font-size="10.00">carta::RegionHandler</text>
<text text-anchor="middle" x="581.5" y="-232" font-family="Helvetica,sans-Serif" font-size="10.00">::FrameSet</text>
</a>
</g>
</g>
<!-- Node7&#45;&gt;Node8 -->
<g id="edge10" class="edge">
<title>Node7&#45;&gt;Node8</title>
<path fill="none" stroke="midnightblue" d="M486.22,-260.34C494.64,-258.52 503.36,-256.64 511.95,-254.79"/>
<polygon fill="midnightblue" stroke="midnightblue" points="512.9,-258.16 521.94,-252.63 511.43,-251.32 512.9,-258.16"/>
</g>
<!-- Node11 -->
<g id="node11" class="node">
<title>Node11</title>
<g id="a_node11"><a xlink:href="classcarta_1_1RegionHandler.html#a6cbe0993d9c7c1efc36eb8252cfe6177" target="_top" xlink:title=" ">
<polygon fill="none" stroke="black" points="367,-13 367,-43 486,-43 486,-13 367,-13"/>
<text text-anchor="start" x="375" y="-31" font-family="Helvetica,sans-Serif" font-size="10.00">carta::RegionHandler</text>
<text text-anchor="middle" x="426.5" y="-20" font-family="Helvetica,sans-Serif" font-size="10.00">::GetStokesPangle</text>
</a>
</g>
</g>
<!-- Node10&#45;&gt;Node11 -->
<g id="edge14" class="edge">
<title>Node10&#45;&gt;Node11</title>
<path fill="none" stroke="midnightblue" d="M319.04,-163.91C323.37,-161.39 327.43,-158.44 331,-155 365.93,-121.36 333.63,-87.19 367,-52 367.91,-51.04 368.87,-50.11 369.87,-49.22"/>
<polygon fill="midnightblue" stroke="midnightblue" points="372.2,-51.85 378.14,-43.08 368.03,-46.23 372.2,-51.85"/>
</g>
<!-- Node14 -->
<g id="node14" class="node">
<title>Node14</title>
<g id="a_node14"><a xlink:href="classcarta_1_1RegionHandler.html#a76c45b738a17f6e7a7776a66fc7f7a3b" target="_top" xlink:title=" ">
<polygon fill="none" stroke="black" points="367,-209 367,-239 486,-239 486,-209 367,-209"/>
<text text-anchor="start" x="375" y="-227" font-family="Helvetica,sans-Serif" font-size="10.00">carta::RegionHandler</text>
<text text-anchor="middle" x="426.5" y="-216" font-family="Helvetica,sans-Serif" font-size="10.00">::GetStokesPflinear</text>
</a>
</g>
</g>
<!-- Node10&#45;&gt;Node14 -->
<g id="edge17" class="edge">
<title>Node10&#45;&gt;Node14</title>
<path fill="none" stroke="midnightblue" d="M310.92,-194.11C325.93,-198.03 342.24,-202.28 357.71,-206.32"/>
<polygon fill="midnightblue" stroke="midnightblue" points="357.17,-209.79 367.73,-208.93 358.94,-203.02 357.17,-209.79"/>
</g>
<!-- Node15 -->
<g id="node15" class="node">
<title>Node15</title>
<g id="a_node15"><a xlink:href="classcarta_1_1RegionHandler.html#ade6aad001ccf435eb382aeb3b58745ec" target="_top" xlink:title=" ">
<polygon fill="none" stroke="black" points="367,-160 367,-190 486,-190 486,-160 367,-160"/>
<text text-anchor="start" x="375" y="-178" font-family="Helvetica,sans-Serif" font-size="10.00">carta::RegionHandler</text>
<text text-anchor="middle" x="426.5" y="-167" font-family="Helvetica,sans-Serif" font-size="10.00">::GetStokesPftotal</text>
</a>
</g>
</g>
<!-- Node10&#45;&gt;Node15 -->
<g id="edge20" class="edge">
<title>Node10&#45;&gt;Node15</title>
<path fill="none" stroke="midnightblue" d="M331.17,-177.19C339.73,-176.99 348.39,-176.79 356.82,-176.59"/>
<polygon fill="midnightblue" stroke="midnightblue" points="357.05,-180.09 366.96,-176.36 356.89,-173.09 357.05,-180.09"/>
</g>
<!-- Node16 -->
<g id="node16" class="node">
<title>Node16</title>
<g id="a_node16"><a xlink:href="classcarta_1_1RegionHandler.html#ad64e18c097313b54e8a1ee5f316b3125" target="_top" xlink:title=" ">
<polygon fill="none" stroke="black" points="367,-111 367,-141 486,-141 486,-111 367,-111"/>
<text text-anchor="start" x="375" y="-129" font-family="Helvetica,sans-Serif" font-size="10.00">carta::RegionHandler</text>
<text text-anchor="middle" x="426.5" y="-118" font-family="Helvetica,sans-Serif" font-size="10.00">::GetStokesPlinear</text>
</a>
</g>
</g>
<!-- Node10&#45;&gt;Node16 -->
<g id="edge22" class="edge">
<title>Node10&#45;&gt;Node16</title>
<path fill="none" stroke="midnightblue" d="M301.97,-163.95C322.09,-157.77 345.56,-150.56 366.61,-144.09"/>
<polygon fill="midnightblue" stroke="midnightblue" points="367.88,-147.37 376.41,-141.08 365.82,-140.67 367.88,-147.37"/>
</g>
<!-- Node17 -->
<g id="node17" class="node">
<title>Node17</title>
<g id="a_node17"><a xlink:href="classcarta_1_1RegionHandler.html#ada1f63f7ba0572cd5dabd2dad0e3792c" target="_top" xlink:title=" ">
<polygon fill="none" stroke="black" points="367,-62 367,-92 486,-92 486,-62 367,-62"/>
<text text-anchor="start" x="375" y="-80" font-family="Helvetica,sans-Serif" font-size="10.00">carta::RegionHandler</text>
<text text-anchor="middle" x="426.5" y="-69" font-family="Helvetica,sans-Serif" font-size="10.00">::GetStokesPtotal</text>
</a>
</g>
</g>
<!-- Node10&#45;&gt;Node17 -->
<g id="edge24" class="edge">
<title>Node10&#45;&gt;Node17</title>
<path fill="none" stroke="midnightblue" d="M315.78,-164C321.18,-161.45 326.34,-158.47 331,-155 354.12,-137.76 344.68,-119.27 367,-101 368.56,-99.72 370.2,-98.5 371.9,-97.34"/>
<polygon fill="midnightblue" stroke="midnightblue" points="374,-100.16 380.77,-92.01 370.4,-94.16 374,-100.16"/>
</g>
<!-- Node12 -->
<g id="node12" class="node">
<title>Node12</title>
<g id="a_node12"><a xlink:href="classcarta_1_1RegionHandler.html#a63047c5d563b8fb75ec430d47833ec11" target="_top" xlink:title=" ">
<polygon fill="none" stroke="black" points="522,-118 522,-148 641,-148 641,-118 522,-118"/>
<text text-anchor="start" x="530" y="-136" font-family="Helvetica,sans-Serif" font-size="10.00">carta::RegionHandler</text>
<text text-anchor="middle" x="581.5" y="-125" font-family="Helvetica,sans-Serif" font-size="10.00">::CombineStokes</text>
</a>
</g>
</g>
<!-- Node11&#45;&gt;Node12 -->
<g id="edge15" class="edge">
<title>Node11&#45;&gt;Node12</title>
<path fill="none" stroke="midnightblue" d="M468.91,-43.04C474.8,-45.73 480.66,-48.73 486,-52 513.26,-68.67 540.56,-93.11 558.75,-110.78"/>
<polygon fill="midnightblue" stroke="midnightblue" points="556.39,-113.37 565.97,-117.9 561.31,-108.38 556.39,-113.37"/>
</g>
<!-- Node13 -->
<g id="node13" class="node">
<title>Node13</title>
<g id="a_node13"><a xlink:href="classcarta_1_1RegionHandler.html#a8f74993ebeac47b9031a2558833f3ee1" target="_top" xlink:title=" ">
<polygon fill="none" stroke="black" points="677,-153 677,-183 796,-183 796,-153 677,-153"/>
<text text-anchor="start" x="685" y="-171" font-family="Helvetica,sans-Serif" font-size="10.00">carta::RegionHandler</text>
<text text-anchor="middle" x="736.5" y="-160" font-family="Helvetica,sans-Serif" font-size="10.00">::IsValid</text>
</a>
</g>
</g>
<!-- Node12&#45;&gt;Node13 -->
<g id="edge16" class="edge">
<title>Node12&#45;&gt;Node13</title>
<path fill="none" stroke="midnightblue" d="M641.22,-146.43C649.64,-148.36 658.36,-150.35 666.95,-152.32"/>
<polygon fill="midnightblue" stroke="midnightblue" points="666.41,-155.79 676.94,-154.6 667.97,-148.96 666.41,-155.79"/>
</g>
<!-- Node14&#45;&gt;Node12 -->
<g id="edge18" class="edge">
<title>Node14&#45;&gt;Node12</title>
<path fill="none" stroke="midnightblue" d="M467.72,-208.92C473.95,-206.18 480.23,-203.18 486,-200 492.85,-196.23 526.21,-172.34 551.38,-154.15"/>
<polygon fill="midnightblue" stroke="midnightblue" points="553.5,-156.94 559.54,-148.24 549.39,-151.27 553.5,-156.94"/>
</g>
<!-- Node14&#45;&gt;Node13 -->
<g id="edge19" class="edge">
<title>Node14&#45;&gt;Node13</title>
<path fill="none" stroke="midnightblue" d="M486.16,-213.34C537.67,-203.97 612.64,-190.34 666.92,-180.47"/>
<polygon fill="midnightblue" stroke="midnightblue" points="667.59,-183.91 676.8,-178.67 666.33,-177.02 667.59,-183.91"/>
</g>
<!-- Node15&#45;&gt;Node12 -->
<g id="edge21" class="edge">
<title>Node15&#45;&gt;Node12</title>
<path fill="none" stroke="midnightblue" d="M482.3,-159.96C493.25,-156.95 504.84,-153.77 516.07,-150.69"/>
<polygon fill="midnightblue" stroke="midnightblue" points="517.1,-154.03 525.82,-148.01 515.25,-147.28 517.1,-154.03"/>
</g>
<!-- Node16&#45;&gt;Node12 -->
<g id="edge23" class="edge">
<title>Node16&#45;&gt;Node12</title>
<path fill="none" stroke="midnightblue" d="M486.22,-128.69C494.64,-129.07 503.36,-129.47 511.95,-129.86"/>
<polygon fill="midnightblue" stroke="midnightblue" points="511.79,-133.36 521.94,-130.32 512.11,-126.37 511.79,-133.36"/>
</g>
<!-- Node17&#45;&gt;Node12 -->
<g id="edge25" class="edge">
<title>Node17&#45;&gt;Node12</title>
<path fill="none" stroke="midnightblue" d="M468.5,-92.01C487.37,-98.91 509.93,-107.17 529.85,-114.46"/>
<polygon fill="midnightblue" stroke="midnightblue" points="528.79,-117.8 539.39,-117.95 531.2,-111.23 528.79,-117.8"/>
</g>
</g>
</svg>
        <g id="navigator" transform="translate(0 0)" fill="#404254">
                <rect fill="#f2f5e9" fill-opacity="0.5" stroke="#606060" stroke-width=".5" x="0" y="0" width="60" height="60"/>
                <use id="zoomplus" xlink:href="#zoomPlus" x="17" y="9" onmousedown="handleZoom(evt,'in')"/>
                <use id="zoomminus" xlink:href="#zoomMin" x="42" y="9" onmousedown="handleZoom(evt,'out')"/>
                <use id="reset" xlink:href="#resetDef" x="30" y="36" onmousedown="handleReset()"/>
                <g id="arrowUp" xlink:href="#dirArrow" transform="translate(30 24)" onmousedown="handlePan(0,-1)">
                  <use xlink:href="#rim" fill="#404040">
                        <set attributeName="fill" to="#808080" begin="arrowUp.mouseover" end="arrowUp.mouseout"/>
                  </use>
                  <path fill="none" stroke="white" stroke-width="1.5" d="M0,-3.0v7 M-2.5,-0.5L0,-3.0L2.5,-0.5"/>
                </g>
                <g id="arrowRight" xlink:href="#dirArrow" transform="rotate(90) translate(36 -43)" onmousedown="handlePan(1,0)">
                  <use xlink:href="#rim" fill="#404040">
                        <set attributeName="fill" to="#808080" begin="arrowRight.mouseover" end="arrowRight.mouseout"/>
                  </use>
                  <path fill="none" stroke="white" stroke-width="1.5" d="M0,-3.0v7 M-2.5,-0.5L0,-3.0L2.5,-0.5"/>
                </g>
                <g id="arrowDown" xlink:href="#dirArrow" transform="rotate(180) translate(-30 -48)" onmousedown="handlePan(0,1)">
                  <use xlink:href="#rim" fill="#404040">
                        <set attributeName="fill" to="#808080" begin="arrowDown.mouseover" end="arrowDown.mouseout"/>
                  </use>
                  <path fill="none" stroke="white" stroke-width="1.5" d="M0,-3.0v7 M-2.5,-0.5L0,-3.0L2.5,-0.5"/>
                </g>
                <g id="arrowLeft" xlink:href="#dirArrow" transform="rotate(270) translate(-36 17)" onmousedown="handlePan(-1,0)">
                  <use xlink:href="#rim" fill="#404040">
                        <set attributeName="fill" to="#808080" begin="arrowLeft.mouseover" end="arrowLeft.mouseout"/>
                  </use>
                  <path fill="none" stroke="white" stroke-width="1.5" d="M0,-3.0v7 M-2.5,-0.5L0,-3.0L2.5,-0.5"/>
                </g>
        </g>
        <svg viewBox="0 0 15 15" width="100%" height="30px" preserveAspectRatio="xMaxYMin meet">
         <g id="arrow_out" transform="scale(0.3 0.3)">
          <a xlink:href="classcarta_1_1RegionHandler_aa5624138d4060512518d54f2b6709a25_cgraph_org.svg" target="_base">
           <rect id="button" ry="5" rx="5" y="6" x="6" height="38" width="38"
                fill="#f2f5e9" fill-opacity="0.5" stroke="#606060" stroke-width="1.0"/>
           <path id="arrow"
             d="M 11.500037,31.436501 C 11.940474,20.09759 22.043105,11.32322 32.158766,21.979434 L 37.068811,17.246167 C 37.068811,17.246167 37.088388,32 37.088388,32 L 22.160133,31.978069 C 22.160133,31.978069 26.997745,27.140456 26.997745,27.140456 C 18.528582,18.264221 13.291696,25.230495 11.500037,31.436501 z"
             style="fill:#404040;"/>
          </a>
         </g>
        </svg>
</svg>
