<?xml version="1.0" encoding="UTF-8" standalone="no"?>
<!DOCTYPE svg PUBLIC "-//W3C//DTD SVG 1.1//EN"
 "http://www.w3.org/Graphics/SVG/1.1/DTD/svg11.dtd">
<!-- Generated by graphviz version 2.43.0 (0)
 -->
<!-- Title: carta::CartaFitsImage::ok Pages: 1 -->
<!--zoomable 362 -->
<svg id="main" version="1.1" xmlns="http://www.w3.org/2000/svg" xmlns:xlink="http://www.w3.org/1999/xlink" xml:space="preserve" onload="init(evt)">
<style type="text/css"><![CDATA[
.edge:hover path { stroke: red; }
.edge:hover polygon { stroke: red; fill: red; }
]]></style>
<script type="text/javascript"><![CDATA[
var edges = document.getElementsByTagName('g');
if (edges && edges.length) {
  for (var i=0;i<edges.length;i++) {
    if (edges[i].id.substr(0,4)=='edge') {
      edges[i].setAttribute('class','edge');
    }
  }
}
]]></script>
        <defs>
                <circle id="rim" cx="0" cy="0" r="7"/>
                <circle id="rim2" cx="0" cy="0" r="3.5"/>
                <g id="zoomPlus">
                        <use xlink:href="#rim" fill="#404040">
                                <set attributeName="fill" to="#808080" begin="zoomplus.mouseover" end="zoomplus.mouseout"/>
                        </use>
                        <path d="M-4,0h8M0,-4v8" fill="none" stroke="white" stroke-width="1.5" pointer-events="none"/>
                </g>
                <g id="zoomMin">
                        <use xlink:href="#rim" fill="#404040">
                                <set attributeName="fill" to="#808080" begin="zoomminus.mouseover" end="zoomminus.mouseout"/>
                        </use>
                        <path d="M-4,0h8" fill="none" stroke="white" stroke-width="1.5" pointer-events="none"/>
                </g>
                <g id="dirArrow">
                        <path fill="none" stroke="white" stroke-width="1.5" d="M0,-3.0v7 M-2.5,-0.5L0,-3.0L2.5,-0.5"/>
                </g>
               <g id="resetDef">
                       <use xlink:href="#rim2" fill="#404040">
                               <set attributeName="fill" to="#808080" begin="reset.mouseover" end="reset.mouseout"/>
                       </use>
               </g>
        </defs>

<script type="text/javascript">
var viewWidth = 961;
var viewHeight = 362;
var sectionId = 'dynsection-33';
</script>
<script xlink:href="svgpan.js"/>
<svg id="graph" class="graph">
<g id="viewport">
<title>carta::CartaFitsImage::ok</title>
<!-- Node1 -->
<g id="node1" class="node">
<title>Node1</title>
<g id="a_node1"><a xlink:title=" ">
<polygon fill="#bfbfbf" stroke="black" points="813,-192 813,-211 953,-211 953,-192 813,-192"/>
<text text-anchor="middle" x="883" y="-199" font-family="Helvetica,sans-Serif" font-size="10.00">carta::CartaFitsImage::ok</text>
</a>
</g>
</g>
<!-- Node2 -->
<g id="node2" class="node">
<title>Node2</title>
<g id="a_node2"><a xlink:href="classcarta_1_1CartaFitsImage.html#a29b238d1e2378201c4cf7342491c5578" target="_top" xlink:title=" ">
<polygon fill="none" stroke="black" points="638,-323.5 638,-353.5 777,-353.5 777,-323.5 638,-323.5"/>
<text text-anchor="start" x="646" y="-341.5" font-family="Helvetica,sans-Serif" font-size="10.00">carta::CartaFitsImage</text>
<text text-anchor="middle" x="707.5" y="-330.5" font-family="Helvetica,sans-Serif" font-size="10.00">::AddDirectionCoordinate</text>
</a>
</g>
</g>
<!-- Node1&#45;&gt;Node2 -->
<g id="edge1" class="edge">
<title>Node1&#45;&gt;Node2</title>
<path fill="none" stroke="midnightblue" d="M868.28,-219.22C849.66,-242.28 814.43,-282.69 777,-308.5 768.66,-314.25 759.05,-319.28 749.71,-323.5"/>
<polygon fill="midnightblue" stroke="midnightblue" points="871.09,-221.3 874.56,-211.29 865.61,-216.95 871.09,-221.3"/>
</g>
<!-- Node3 -->
<g id="node3" class="node">
<title>Node3</title>
<g id="a_node3"><a xlink:href="classcarta_1_1CartaFitsImage.html#ae786ee34cee8ab105c404907bc2fbff0" target="_top" xlink:title=" ">
<polygon fill="none" stroke="black" points="474,-235.5 474,-265.5 602,-265.5 602,-235.5 474,-235.5"/>
<text text-anchor="start" x="482" y="-253.5" font-family="Helvetica,sans-Serif" font-size="10.00">carta::CartaFitsImage</text>
<text text-anchor="middle" x="538" y="-242.5" font-family="Helvetica,sans-Serif" font-size="10.00">::SetCoordinateSystem</text>
</a>
</g>
</g>
<!-- Node1&#45;&gt;Node3 -->
<g id="edge15" class="edge">
<title>Node1&#45;&gt;Node3</title>
<path fill="none" stroke="midnightblue" d="M865.36,-218.28C846.06,-236.44 812.34,-264.3 777,-275.5 711.65,-296.21 631.67,-279.84 583.07,-265.58"/>
<polygon fill="midnightblue" stroke="midnightblue" points="867.96,-220.63 872.72,-211.17 863.09,-215.6 867.96,-220.63"/>
</g>
<!-- Node7 -->
<g id="node7" class="node">
<title>Node7</title>
<g id="a_node7"><a xlink:href="classcarta_1_1CartaFitsImage.html#a21bcf7df1872c9871cfc6e330ba0c934" target="_top" xlink:title=" ">
<polygon fill="none" stroke="black" points="645,-235.5 645,-265.5 770,-265.5 770,-235.5 645,-235.5"/>
<text text-anchor="start" x="653" y="-253.5" font-family="Helvetica,sans-Serif" font-size="10.00">carta::CartaFitsImage</text>
<text text-anchor="middle" x="707.5" y="-242.5" font-family="Helvetica,sans-Serif" font-size="10.00">::AddLinearCoordinate</text>
</a>
</g>
</g>
<!-- Node1&#45;&gt;Node7 -->
<g id="edge6" class="edge">
<title>Node1&#45;&gt;Node7</title>
<path fill="none" stroke="midnightblue" d="M838.22,-213.87C814.98,-220.43 786.26,-228.54 761.74,-235.46"/>
<polygon fill="midnightblue" stroke="midnightblue" points="839.46,-217.15 848.14,-211.06 837.56,-210.41 839.46,-217.15"/>
</g>
<!-- Node8 -->
<g id="node8" class="node">
<title>Node8</title>
<g id="a_node8"><a xlink:href="classcarta_1_1CartaFitsImage.html#af993b70a99360ba6ac3206c6dc9a41ad" target="_top" xlink:title=" ">
<polygon fill="none" stroke="black" points="640.5,-186.5 640.5,-216.5 774.5,-216.5 774.5,-186.5 640.5,-186.5"/>
<text text-anchor="start" x="648.5" y="-204.5" font-family="Helvetica,sans-Serif" font-size="10.00">carta::CartaFitsImage</text>
<text text-anchor="middle" x="707.5" y="-193.5" font-family="Helvetica,sans-Serif" font-size="10.00">::AddSpectralCoordinate</text>
</a>
</g>
</g>
<!-- Node1&#45;&gt;Node8 -->
<g id="edge8" class="edge">
<title>Node1&#45;&gt;Node8</title>
<path fill="none" stroke="midnightblue" d="M802.75,-201.5C793.3,-201.5 783.74,-201.5 774.51,-201.5"/>
<polygon fill="midnightblue" stroke="midnightblue" points="802.93,-205 812.93,-201.5 802.93,-198 802.93,-205"/>
</g>
<!-- Node9 -->
<g id="node9" class="node">
<title>Node9</title>
<g id="a_node9"><a xlink:href="classcarta_1_1CartaFitsImage.html#ad6ed456739344311edc09fae4cb00b78" target="_top" xlink:title=" ">
<polygon fill="none" stroke="black" points="644,-137.5 644,-167.5 771,-167.5 771,-137.5 644,-137.5"/>
<text text-anchor="start" x="652" y="-155.5" font-family="Helvetica,sans-Serif" font-size="10.00">carta::CartaFitsImage</text>
<text text-anchor="middle" x="707.5" y="-144.5" font-family="Helvetica,sans-Serif" font-size="10.00">::AddStokesCoordinate</text>
</a>
</g>
</g>
<!-- Node1&#45;&gt;Node9 -->
<g id="edge10" class="edge">
<title>Node1&#45;&gt;Node9</title>
<path fill="none" stroke="midnightblue" d="M838.22,-189.13C814.98,-182.57 786.26,-174.46 761.74,-167.54"/>
<polygon fill="midnightblue" stroke="midnightblue" points="837.56,-192.59 848.14,-191.94 839.46,-185.85 837.56,-192.59"/>
</g>
<!-- Node10 -->
<g id="node10" class="node">
<title>Node10</title>
<g id="a_node10"><a xlink:href="classcarta_1_1CartaFitsImage.html#a56e6683ded5de93777beba05c6fbf013" target="_top" xlink:title=" ">
<polygon fill="none" stroke="black" points="646.5,-88.5 646.5,-118.5 768.5,-118.5 768.5,-88.5 646.5,-88.5"/>
<text text-anchor="start" x="654.5" y="-106.5" font-family="Helvetica,sans-Serif" font-size="10.00">carta::CartaFitsImage</text>
<text text-anchor="middle" x="707.5" y="-95.5" font-family="Helvetica,sans-Serif" font-size="10.00">::doGetSlice</text>
</a>
</g>
</g>
<!-- Node1&#45;&gt;Node10 -->
<g id="edge12" class="edge">
<title>Node1&#45;&gt;Node10</title>
<path fill="none" stroke="midnightblue" d="M862.46,-185.61C842.08,-169.59 808.73,-144.97 777,-128.5 770.03,-124.88 762.42,-121.55 754.89,-118.58"/>
<polygon fill="midnightblue" stroke="midnightblue" points="860.35,-188.4 870.36,-191.89 864.71,-182.93 860.35,-188.4"/>
</g>
<!-- Node13 -->
<g id="node13" class="node">
<title>Node13</title>
<g id="a_node13"><a xlink:href="classcarta_1_1CartaFitsImage.html#a29df4b49e93f8be725dc17a379603e6d" target="_top" xlink:title=" ">
<polygon fill="none" stroke="black" points="646.5,-39.5 646.5,-69.5 768.5,-69.5 768.5,-39.5 646.5,-39.5"/>
<text text-anchor="start" x="654.5" y="-57.5" font-family="Helvetica,sans-Serif" font-size="10.00">carta::CartaFitsImage</text>
<text text-anchor="middle" x="707.5" y="-46.5" font-family="Helvetica,sans-Serif" font-size="10.00">::SetPixelMask</text>
</a>
</g>
</g>
<!-- Node1&#45;&gt;Node13 -->
<g id="edge16" class="edge">
<title>Node1&#45;&gt;Node13</title>
<path fill="none" stroke="midnightblue" d="M870.64,-183.15C853.44,-156.75 818.35,-108.1 777,-79.5 771.48,-75.68 765.31,-72.38 759,-69.53"/>
<polygon fill="midnightblue" stroke="midnightblue" points="867.83,-185.24 876.15,-191.79 873.73,-181.48 867.83,-185.24"/>
</g>
<!-- Node2&#45;&gt;Node3 -->
<g id="edge2" class="edge">
<title>Node2&#45;&gt;Node3</title>
<path fill="none" stroke="midnightblue" d="M660.67,-319.32C653.03,-315.87 645.24,-312.19 638,-308.5 611.73,-295.11 582.75,-277.82 562.97,-265.61"/>
<polygon fill="midnightblue" stroke="midnightblue" points="659.31,-322.54 669.87,-323.4 662.15,-316.14 659.31,-322.54"/>
</g>
<!-- Node4 -->
<g id="node4" class="node">
<title>Node4</title>
<g id="a_node4"><a xlink:href="classcarta_1_1CartaFitsImage.html#ad98c05e53c5163dfa7b87cdd5eda5db7" target="_top" xlink:title=" ">
<polygon fill="none" stroke="black" points="316,-235.5 316,-265.5 438,-265.5 438,-235.5 316,-235.5"/>
<text text-anchor="start" x="324" y="-253.5" font-family="Helvetica,sans-Serif" font-size="10.00">carta::CartaFitsImage</text>
<text text-anchor="middle" x="377" y="-242.5" font-family="Helvetica,sans-Serif" font-size="10.00">::SetUpImage</text>
</a>
</g>
</g>
<!-- Node3&#45;&gt;Node4 -->
<g id="edge3" class="edge">
<title>Node3&#45;&gt;Node4</title>
<path fill="none" stroke="midnightblue" d="M463.47,-250.5C455.02,-250.5 446.48,-250.5 438.23,-250.5"/>
<polygon fill="midnightblue" stroke="midnightblue" points="463.7,-254 473.7,-250.5 463.7,-247 463.7,-254"/>
</g>
<!-- Node5 -->
<g id="node5" class="node">
<title>Node5</title>
<g id="a_node5"><a xlink:href="classcarta_1_1CartaFitsImage.html#a298af28c7a2a40be0e9c756600e8bf91" target="_top" xlink:title=" ">
<polygon fill="none" stroke="black" points="158,-235.5 158,-265.5 280,-265.5 280,-235.5 158,-235.5"/>
<text text-anchor="start" x="166" y="-253.5" font-family="Helvetica,sans-Serif" font-size="10.00">carta::CartaFitsImage</text>
<text text-anchor="middle" x="219" y="-242.5" font-family="Helvetica,sans-Serif" font-size="10.00">::CartaFitsImage</text>
</a>
</g>
</g>
<!-- Node4&#45;&gt;Node5 -->
<g id="edge4" class="edge">
<title>Node4&#45;&gt;Node5</title>
<path fill="none" stroke="midnightblue" d="M305.46,-250.5C297.01,-250.5 288.44,-250.5 280.15,-250.5"/>
<polygon fill="midnightblue" stroke="midnightblue" points="305.69,-254 315.69,-250.5 305.69,-247 305.69,-254"/>
</g>
<!-- Node6 -->
<g id="node6" class="node">
<title>Node6</title>
<g id="a_node6"><a xlink:href="classcarta_1_1CartaFitsImage.html#ad0ca292e6e9b740437925114732cc956" target="_top" xlink:title=" ">
<polygon fill="none" stroke="black" points="0,-235.5 0,-265.5 122,-265.5 122,-235.5 0,-235.5"/>
<text text-anchor="start" x="8" y="-253.5" font-family="Helvetica,sans-Serif" font-size="10.00">carta::CartaFitsImage</text>
<text text-anchor="middle" x="61" y="-242.5" font-family="Helvetica,sans-Serif" font-size="10.00">::cloneII</text>
</a>
</g>
</g>
<!-- Node5&#45;&gt;Node6 -->
<g id="edge5" class="edge">
<title>Node5&#45;&gt;Node6</title>
<path fill="none" stroke="midnightblue" d="M147.46,-250.5C139.01,-250.5 130.44,-250.5 122.15,-250.5"/>
<polygon fill="midnightblue" stroke="midnightblue" points="147.69,-254 157.69,-250.5 147.69,-247 147.69,-254"/>
</g>
<!-- Node7&#45;&gt;Node3 -->
<g id="edge7" class="edge">
<title>Node7&#45;&gt;Node3</title>
<path fill="none" stroke="midnightblue" d="M634.39,-250.5C623.62,-250.5 612.6,-250.5 602.04,-250.5"/>
<polygon fill="midnightblue" stroke="midnightblue" points="634.61,-254 644.61,-250.5 634.61,-247 634.61,-254"/>
</g>
<!-- Node8&#45;&gt;Node3 -->
<g id="edge9" class="edge">
<title>Node8&#45;&gt;Node3</title>
<path fill="none" stroke="midnightblue" d="M645.08,-219.47C627.14,-224.72 607.71,-230.4 590.45,-235.45"/>
<polygon fill="midnightblue" stroke="midnightblue" points="646.26,-222.77 654.88,-216.6 644.3,-216.05 646.26,-222.77"/>
</g>
<!-- Node9&#45;&gt;Node3 -->
<g id="edge11" class="edge">
<title>Node9&#45;&gt;Node3</title>
<path fill="none" stroke="midnightblue" d="M650.32,-171.5C646.08,-173.38 641.93,-175.39 638,-177.5 607.14,-194.06 575.19,-219.36 556.21,-235.41"/>
<polygon fill="midnightblue" stroke="midnightblue" points="651.8,-174.67 659.66,-167.56 649.08,-168.22 651.8,-174.67"/>
</g>
<!-- Node11 -->
<g id="node11" class="node">
<title>Node11</title>
<g id="a_node11"><a xlink:href="classcarta_1_1CartaFitsImage.html#a65d1691d3c6e882f277db664d4d9def9" target="_top" xlink:title=" ">
<polygon fill="none" stroke="black" points="477,-88.5 477,-118.5 599,-118.5 599,-88.5 477,-88.5"/>
<text text-anchor="start" x="485" y="-106.5" font-family="Helvetica,sans-Serif" font-size="10.00">carta::CartaFitsImage</text>
<text text-anchor="middle" x="538" y="-95.5" font-family="Helvetica,sans-Serif" font-size="10.00">::doGetNanMaskSlice</text>
</a>
</g>
</g>
<!-- Node10&#45;&gt;Node11 -->
<g id="edge13" class="edge">
<title>Node10&#45;&gt;Node11</title>
<path fill="none" stroke="midnightblue" d="M635.87,-103.5C623.64,-103.5 611.02,-103.5 599.1,-103.5"/>
<polygon fill="midnightblue" stroke="midnightblue" points="636.03,-107 646.03,-103.5 636.03,-100 636.03,-107"/>
</g>
<!-- Node12 -->
<g id="node12" class="node">
<title>Node12</title>
<g id="a_node12"><a xlink:href="classcarta_1_1CartaFitsImage.html#aba5163ae6bab1b755a775e61245e7bc3" target="_top" xlink:title=" ">
<polygon fill="none" stroke="black" points="316,-66.5 316,-96.5 438,-96.5 438,-66.5 316,-66.5"/>
<text text-anchor="start" x="324" y="-84.5" font-family="Helvetica,sans-Serif" font-size="10.00">carta::CartaFitsImage</text>
<text text-anchor="middle" x="377" y="-73.5" font-family="Helvetica,sans-Serif" font-size="10.00">::doGetMaskSlice</text>
</a>
</g>
</g>
<!-- Node11&#45;&gt;Node12 -->
<g id="edge14" class="edge">
<title>Node11&#45;&gt;Node12</title>
<path fill="none" stroke="midnightblue" d="M466.98,-93.81C457.38,-92.48 447.6,-91.13 438.2,-89.83"/>
<polygon fill="midnightblue" stroke="midnightblue" points="466.5,-97.28 476.89,-95.18 467.46,-90.35 466.5,-97.28"/>
</g>
<!-- Node13&#45;&gt;Node12 -->
<g id="edge17" class="edge">
<title>Node13&#45;&gt;Node12</title>
<path fill="none" stroke="midnightblue" d="M636.27,-60.27C577.34,-65.12 494.06,-71.96 438.15,-76.56"/>
<polygon fill="midnightblue" stroke="midnightblue" points="636.57,-63.76 646.25,-59.45 635.99,-56.78 636.57,-63.76"/>
</g>
<!-- Node14 -->
<g id="node14" class="node">
<title>Node14</title>
<g id="a_node14"><a xlink:href="classcarta_1_1CartaFitsImage.html#a1b88ee1696686d501769f69d1adaa686" target="_top" xlink:title=" ">
<polygon fill="none" stroke="black" points="477,-0.5 477,-30.5 599,-30.5 599,-0.5 477,-0.5"/>
<text text-anchor="start" x="485" y="-18.5" font-family="Helvetica,sans-Serif" font-size="10.00">carta::CartaFitsImage</text>
<text text-anchor="middle" x="538" y="-7.5" font-family="Helvetica,sans-Serif" font-size="10.00">::pixelMask</text>
</a>
</g>
</g>
<!-- Node13&#45;&gt;Node14 -->
<g id="edge18" class="edge">
<title>Node13&#45;&gt;Node14</title>
<path fill="none" stroke="midnightblue" d="M636.23,-38.14C623.89,-35.26 611.14,-32.3 599.1,-29.49"/>
<polygon fill="midnightblue" stroke="midnightblue" points="635.5,-41.56 646.03,-40.42 637.08,-34.74 635.5,-41.56"/>
</g>
</g>
</svg>
        <g id="navigator" transform="translate(0 0)" fill="#404254">
                <rect fill="#f2f5e9" fill-opacity="0.5" stroke="#606060" stroke-width=".5" x="0" y="0" width="60" height="60"/>
                <use id="zoomplus" xlink:href="#zoomPlus" x="17" y="9" onmousedown="handleZoom(evt,'in')"/>
                <use id="zoomminus" xlink:href="#zoomMin" x="42" y="9" onmousedown="handleZoom(evt,'out')"/>
                <use id="reset" xlink:href="#resetDef" x="30" y="36" onmousedown="handleReset()"/>
                <g id="arrowUp" xlink:href="#dirArrow" transform="translate(30 24)" onmousedown="handlePan(0,-1)">
                  <use xlink:href="#rim" fill="#404040">
                        <set attributeName="fill" to="#808080" begin="arrowUp.mouseover" end="arrowUp.mouseout"/>
                  </use>
                  <path fill="none" stroke="white" stroke-width="1.5" d="M0,-3.0v7 M-2.5,-0.5L0,-3.0L2.5,-0.5"/>
                </g>
                <g id="arrowRight" xlink:href="#dirArrow" transform="rotate(90) translate(36 -43)" onmousedown="handlePan(1,0)">
                  <use xlink:href="#rim" fill="#404040">
                        <set attributeName="fill" to="#808080" begin="arrowRight.mouseover" end="arrowRight.mouseout"/>
                  </use>
                  <path fill="none" stroke="white" stroke-width="1.5" d="M0,-3.0v7 M-2.5,-0.5L0,-3.0L2.5,-0.5"/>
                </g>
                <g id="arrowDown" xlink:href="#dirArrow" transform="rotate(180) translate(-30 -48)" onmousedown="handlePan(0,1)">
                  <use xlink:href="#rim" fill="#404040">
                        <set attributeName="fill" to="#808080" begin="arrowDown.mouseover" end="arrowDown.mouseout"/>
                  </use>
                  <path fill="none" stroke="white" stroke-width="1.5" d="M0,-3.0v7 M-2.5,-0.5L0,-3.0L2.5,-0.5"/>
                </g>
                <g id="arrowLeft" xlink:href="#dirArrow" transform="rotate(270) translate(-36 17)" onmousedown="handlePan(-1,0)">
                  <use xlink:href="#rim" fill="#404040">
                        <set attributeName="fill" to="#808080" begin="arrowLeft.mouseover" end="arrowLeft.mouseout"/>
                  </use>
                  <path fill="none" stroke="white" stroke-width="1.5" d="M0,-3.0v7 M-2.5,-0.5L0,-3.0L2.5,-0.5"/>
                </g>
        </g>
        <svg viewBox="0 0 15 15" width="100%" height="30px" preserveAspectRatio="xMaxYMin meet">
         <g id="arrow_out" transform="scale(0.3 0.3)">
          <a xlink:href="classcarta_1_1CartaFitsImage_a16d3fdc222553528b79b761a6f14e14b_icgraph_org.svg" target="_base">
           <rect id="button" ry="5" rx="5" y="6" x="6" height="38" width="38"
                fill="#f2f5e9" fill-opacity="0.5" stroke="#606060" stroke-width="1.0"/>
           <path id="arrow"
             d="M 11.500037,31.436501 C 11.940474,20.09759 22.043105,11.32322 32.158766,21.979434 L 37.068811,17.246167 C 37.068811,17.246167 37.088388,32 37.088388,32 L 22.160133,31.978069 C 22.160133,31.978069 26.997745,27.140456 26.997745,27.140456 C 18.528582,18.264221 13.291696,25.230495 11.500037,31.436501 z"
             style="fill:#404040;"/>
          </a>
         </g>
        </svg>
</svg>
