<?xml version="1.0" encoding="UTF-8" standalone="no"?>
<!DOCTYPE svg PUBLIC "-//W3C//DTD SVG 1.1//EN"
 "http://www.w3.org/Graphics/SVG/1.1/DTD/svg11.dtd">
<!-- Generated by graphviz version 2.43.0 (0)
 -->
<!-- Title: carta::Region Pages: 1 -->
<svg width="730pt" height="310pt"
 viewBox="0.00 0.00 730.00 309.50" xmlns="http://www.w3.org/2000/svg" xmlns:xlink="http://www.w3.org/1999/xlink">
<g id="graph0" class="graph" transform="scale(1 1) rotate(0) translate(4 305.5)">
<title>carta::Region</title>
<!-- Node1 -->
<g id="node1" class="node">
<title>Node1</title>
<g id="a_node1"><a xlink:title=" ">
<polygon fill="#bfbfbf" stroke="black" points="641,-150.5 641,-169.5 722,-169.5 722,-150.5 641,-150.5"/>
<text text-anchor="middle" x="681.5" y="-157.5" font-family="Helvetica,sans-Serif" font-size="10.00">carta::Region</text>
</a>
</g>
</g>
<!-- Node2 -->
<g id="node2" class="node">
<title>Node2</title>
<g id="a_node2"><a xlink:title=" ">
<polygon fill="none" stroke="#bfbfbf" points="367.5,-271 367.5,-301 492.5,-301 492.5,-271 367.5,-271"/>
<text text-anchor="start" x="375.5" y="-289" font-family="Helvetica,sans-Serif" font-size="10.00">std::unique_ptr&lt; carta</text>
<text text-anchor="middle" x="430" y="-278" font-family="Helvetica,sans-Serif" font-size="10.00">::RegionConverter &gt;</text>
</a>
</g>
</g>
<!-- Node2&#45;&gt;Node1 -->
<g id="edge1" class="edge">
<title>Node2&#45;&gt;Node1</title>
<path fill="none" stroke="#9a32cd" stroke-dasharray="5,2" d="M502.64,-289.5C541.23,-288.04 587.97,-280.6 623,-257 654.99,-235.45 671.79,-189.63 677.84,-169.65"/>
<polygon fill="#9a32cd" stroke="#9a32cd" points="502.41,-286 492.5,-289.75 502.59,-293 502.41,-286"/>
<text text-anchor="middle" x="571.5" y="-291" font-family="Helvetica,sans-Serif" font-size="10.00"> _region_converter</text>
</g>
<!-- Node3 -->
<g id="node3" class="node">
<title>Node3</title>
<g id="a_node3"><a xlink:title=" ">
<polygon fill="none" stroke="#bfbfbf" points="376.5,-232.5 376.5,-251.5 483.5,-251.5 483.5,-232.5 376.5,-232.5"/>
<text text-anchor="middle" x="430" y="-239.5" font-family="Helvetica,sans-Serif" font-size="10.00">std::shared_mutex</text>
</a>
</g>
</g>
<!-- Node3&#45;&gt;Node1 -->
<g id="edge2" class="edge">
<title>Node3&#45;&gt;Node1</title>
<path fill="none" stroke="#9a32cd" stroke-dasharray="5,2" d="M493.88,-243.84C532.86,-242.61 582.95,-236.61 623,-217 645.47,-206 664.49,-182.74 674,-169.59"/>
<polygon fill="#9a32cd" stroke="#9a32cd" points="493.63,-240.34 483.71,-244.06 493.79,-247.34 493.63,-240.34"/>
<text text-anchor="middle" x="571.5" y="-245" font-family="Helvetica,sans-Serif" font-size="10.00"> _active_task_mutex</text>
</g>
<!-- Node4 -->
<g id="node4" class="node">
<title>Node4</title>
<g id="a_node4"><a xlink:title=" ">
<polygon fill="none" stroke="#bfbfbf" points="395.5,-194.5 395.5,-213.5 464.5,-213.5 464.5,-194.5 395.5,-194.5"/>
<text text-anchor="middle" x="430" y="-201.5" font-family="Helvetica,sans-Serif" font-size="10.00">std::mutex</text>
</a>
</g>
</g>
<!-- Node4&#45;&gt;Node1 -->
<g id="edge3" class="edge">
<title>Node4&#45;&gt;Node1</title>
<path fill="none" stroke="#9a32cd" stroke-dasharray="5,2" d="M474.82,-198.72C513.88,-193.69 572.53,-185.36 623,-175 630.58,-173.44 638.65,-171.51 646.28,-169.56"/>
<polygon fill="#9a32cd" stroke="#9a32cd" points="474.31,-195.25 464.83,-199.98 475.19,-202.2 474.31,-195.25"/>
<text text-anchor="middle" x="571.5" y="-205" font-family="Helvetica,sans-Serif" font-size="10.00"> _lcregion_mutex</text>
<text text-anchor="middle" x="571.5" y="-194" font-family="Helvetica,sans-Serif" font-size="10.00">_region_state_mutex</text>
</g>
<!-- Node5 -->
<g id="node5" class="node">
<title>Node5</title>
<g id="a_node5"><a xlink:title=" ">
<polygon fill="none" stroke="#bfbfbf" points="358,-145 358,-175 502,-175 502,-145 358,-145"/>
<text text-anchor="start" x="366" y="-163" font-family="Helvetica,sans-Serif" font-size="10.00">std::shared_ptr&lt; casacore</text>
<text text-anchor="middle" x="430" y="-152" font-family="Helvetica,sans-Serif" font-size="10.00">::CoordinateSystem &gt;</text>
</a>
</g>
</g>
<!-- Node5&#45;&gt;Node1 -->
<g id="edge4" class="edge">
<title>Node5&#45;&gt;Node1</title>
<path fill="none" stroke="#9a32cd" stroke-dasharray="5,2" d="M512.35,-160C555.37,-160 606.26,-160 640.69,-160"/>
<polygon fill="#9a32cd" stroke="#9a32cd" points="512.16,-156.5 502.16,-160 512.16,-163.5 512.16,-156.5"/>
<text text-anchor="middle" x="571.5" y="-163" font-family="Helvetica,sans-Serif" font-size="10.00"> _coord_sys</text>
</g>
<!-- Node6 -->
<g id="node6" class="node">
<title>Node6</title>
<g id="a_node6"><a xlink:href="structcarta_1_1RegionState.html" target="_top" xlink:title=" ">
<polygon fill="none" stroke="black" points="376.5,-106.5 376.5,-125.5 483.5,-125.5 483.5,-106.5 376.5,-106.5"/>
<text text-anchor="middle" x="430" y="-113.5" font-family="Helvetica,sans-Serif" font-size="10.00">carta::RegionState</text>
</a>
</g>
</g>
<!-- Node6&#45;&gt;Node1 -->
<g id="edge5" class="edge">
<title>Node6&#45;&gt;Node1</title>
<path fill="none" stroke="#9a32cd" stroke-dasharray="5,2" d="M494.13,-123.83C531.73,-128.92 580.29,-136.23 623,-145 630.58,-146.56 638.65,-148.49 646.28,-150.44"/>
<polygon fill="#9a32cd" stroke="#9a32cd" points="494.2,-120.31 483.83,-122.46 493.28,-127.25 494.2,-120.31"/>
<text text-anchor="middle" x="571.5" y="-148" font-family="Helvetica,sans-Serif" font-size="10.00"> _region_state</text>
</g>
<!-- Node7 -->
<g id="node7" class="node">
<title>Node7</title>
<g id="a_node7"><a xlink:title=" ">
<polygon fill="none" stroke="#bfbfbf" points="145,-163.5 145,-182.5 218,-182.5 218,-163.5 145,-163.5"/>
<text text-anchor="middle" x="181.5" y="-170.5" font-family="Helvetica,sans-Serif" font-size="10.00">RegionType</text>
</a>
</g>
</g>
<!-- Node7&#45;&gt;Node6 -->
<g id="edge6" class="edge">
<title>Node7&#45;&gt;Node6</title>
<path fill="none" stroke="#9a32cd" stroke-dasharray="5,2" d="M228.02,-167.52C259.84,-162.99 303.09,-155.42 340,-144 348.36,-141.41 349.77,-138.97 358,-136 368.6,-132.17 380.3,-128.61 391.1,-125.59"/>
<polygon fill="#9a32cd" stroke="#9a32cd" points="227.53,-164.05 218.11,-168.89 228.49,-170.99 227.53,-164.05"/>
<text text-anchor="middle" x="297.5" y="-166" font-family="Helvetica,sans-Serif" font-size="10.00"> type</text>
</g>
<!-- Node8 -->
<g id="node8" class="node">
<title>Node8</title>
<g id="a_node8"><a xlink:title=" ">
<polygon fill="none" stroke="#bfbfbf" points="162.5,-125.5 162.5,-144.5 200.5,-144.5 200.5,-125.5 162.5,-125.5"/>
<text text-anchor="middle" x="181.5" y="-132.5" font-family="Helvetica,sans-Serif" font-size="10.00">float</text>
</a>
</g>
</g>
<!-- Node8&#45;&gt;Node6 -->
<g id="edge7" class="edge">
<title>Node8&#45;&gt;Node6</title>
<path fill="none" stroke="#9a32cd" stroke-dasharray="5,2" d="M210.8,-132.82C251.09,-129.71 325.71,-123.96 376.35,-120.06"/>
<polygon fill="#9a32cd" stroke="#9a32cd" points="210.33,-129.34 200.63,-133.6 210.87,-136.32 210.33,-129.34"/>
<text text-anchor="middle" x="297.5" y="-132" font-family="Helvetica,sans-Serif" font-size="10.00"> rotation</text>
</g>
<!-- Node9 -->
<g id="node9" class="node">
<title>Node9</title>
<g id="a_node9"><a xlink:title=" ">
<polygon fill="none" stroke="#bfbfbf" points="167,-87.5 167,-106.5 196,-106.5 196,-87.5 167,-87.5"/>
<text text-anchor="middle" x="181.5" y="-94.5" font-family="Helvetica,sans-Serif" font-size="10.00">int</text>
</a>
</g>
</g>
<!-- Node9&#45;&gt;Node6 -->
<g id="edge8" class="edge">
<title>Node9&#45;&gt;Node6</title>
<path fill="none" stroke="#9a32cd" stroke-dasharray="5,2" d="M206.64,-98.54C237.56,-100.54 292.79,-104.23 340,-108 351.75,-108.94 364.37,-110.02 376.31,-111.09"/>
<polygon fill="#9a32cd" stroke="#9a32cd" points="206.62,-95.03 196.41,-97.88 206.17,-102.01 206.62,-95.03"/>
<text text-anchor="middle" x="297.5" y="-111" font-family="Helvetica,sans-Serif" font-size="10.00"> reference_file_id</text>
</g>
<!-- Node10 -->
<g id="node10" class="node">
<title>Node10</title>
<g id="a_node10"><a xlink:title=" ">
<polygon fill="none" stroke="#bfbfbf" points="126,-38 126,-68 237,-68 237,-38 126,-38"/>
<text text-anchor="start" x="134" y="-56" font-family="Helvetica,sans-Serif" font-size="10.00">std::vector&lt; CARTA</text>
<text text-anchor="middle" x="181.5" y="-45" font-family="Helvetica,sans-Serif" font-size="10.00">::Point &gt;</text>
</a>
</g>
</g>
<!-- Node10&#45;&gt;Node6 -->
<g id="edge9" class="edge">
<title>Node10&#45;&gt;Node6</title>
<path fill="none" stroke="#9a32cd" stroke-dasharray="5,2" d="M247.09,-61.41C276.16,-66.49 310.5,-74.3 340,-86 348.72,-89.46 349.38,-93.31 358,-97 366.68,-100.72 376.27,-103.88 385.53,-106.49"/>
<polygon fill="#9a32cd" stroke="#9a32cd" points="247.49,-57.93 237.05,-59.73 246.33,-64.83 247.49,-57.93"/>
<text text-anchor="middle" x="297.5" y="-89" font-family="Helvetica,sans-Serif" font-size="10.00"> control_points</text>
</g>
<!-- Node11 -->
<g id="node11" class="node">
<title>Node11</title>
<g id="a_node11"><a xlink:title=" ">
<polygon fill="none" stroke="#bfbfbf" points="0,-43.5 0,-62.5 41,-62.5 41,-43.5 0,-43.5"/>
<text text-anchor="middle" x="20.5" y="-50.5" font-family="Helvetica,sans-Serif" font-size="10.00">Point</text>
</a>
</g>
</g>
<!-- Node11&#45;&gt;Node10 -->
<g id="edge10" class="edge">
<title>Node11&#45;&gt;Node10</title>
<path fill="none" stroke="#9a32cd" stroke-dasharray="5,2" d="M51.51,-53C72.43,-53 100.95,-53 125.85,-53"/>
<polygon fill="#9a32cd" stroke="#9a32cd" points="51.32,-49.5 41.32,-53 51.32,-56.5 51.32,-49.5"/>
<text text-anchor="middle" x="83.5" y="-56" font-family="Helvetica,sans-Serif" font-size="10.00"> elements</text>
</g>
<!-- Node12 -->
<g id="node12" class="node">
<title>Node12</title>
<g id="a_node12"><a xlink:title=" ">
<polygon fill="none" stroke="#bfbfbf" points="358,-57 358,-87 502,-87 502,-57 358,-57"/>
<text text-anchor="start" x="366" y="-75" font-family="Helvetica,sans-Serif" font-size="10.00">std::shared_ptr&lt; casacore</text>
<text text-anchor="middle" x="430" y="-64" font-family="Helvetica,sans-Serif" font-size="10.00">::LCRegion &gt;</text>
</a>
</g>
</g>
<!-- Node12&#45;&gt;Node1 -->
<g id="edge11" class="edge">
<title>Node12&#45;&gt;Node1</title>
<path fill="none" stroke="#9a32cd" stroke-dasharray="5,2" d="M512.29,-80.64C547.58,-86.57 588.6,-96.48 623,-113 642.52,-122.38 661.19,-139.69 671.71,-150.48"/>
<polygon fill="#9a32cd" stroke="#9a32cd" points="512.45,-77.12 502.02,-79 511.34,-84.03 512.45,-77.12"/>
<text text-anchor="middle" x="571.5" y="-116" font-family="Helvetica,sans-Serif" font-size="10.00"> _lcregion</text>
</g>
<!-- Node13 -->
<g id="node13" class="node">
<title>Node13</title>
<g id="a_node13"><a xlink:title=" ">
<polygon fill="none" stroke="#bfbfbf" points="411,-0.5 411,-19.5 449,-19.5 449,-0.5 411,-0.5"/>
<text text-anchor="middle" x="430" y="-7.5" font-family="Helvetica,sans-Serif" font-size="10.00">bool</text>
</a>
</g>
</g>
<!-- Node13&#45;&gt;Node1 -->
<g id="edge12" class="edge">
<title>Node13&#45;&gt;Node1</title>
<path fill="none" stroke="#9a32cd" stroke-dasharray="5,2" d="M459.19,-5.58C499.59,-0.87 574.41,1.69 623,-34 662.73,-63.18 675.7,-126.42 679.29,-150.46"/>
<polygon fill="#9a32cd" stroke="#9a32cd" points="458.7,-2.12 449.23,-6.87 459.6,-9.06 458.7,-2.12"/>
<text text-anchor="middle" x="571.5" y="-70" font-family="Helvetica,sans-Serif" font-size="10.00"> _connected</text>
<text text-anchor="middle" x="571.5" y="-59" font-family="Helvetica,sans-Serif" font-size="10.00">_lcregion_set</text>
<text text-anchor="middle" x="571.5" y="-48" font-family="Helvetica,sans-Serif" font-size="10.00">_region_changed</text>
<text text-anchor="middle" x="571.5" y="-37" font-family="Helvetica,sans-Serif" font-size="10.00">_valid</text>
</g>
</g>
</svg>
