<?xml version="1.0" encoding="UTF-8" standalone="no"?>
<!DOCTYPE svg PUBLIC "-//W3C//DTD SVG 1.1//EN"
 "http://www.w3.org/Graphics/SVG/1.1/DTD/svg11.dtd">
<!-- Generated by graphviz version 2.43.0 (0)
 -->
<!-- Title: carta::VectorField::FillTileData Pages: 1 -->
<svg width="306pt" height="66pt"
 viewBox="0.00 0.00 306.00 66.00" xmlns="http://www.w3.org/2000/svg" xmlns:xlink="http://www.w3.org/1999/xlink">
<g id="graph0" class="graph" transform="scale(1 1) rotate(0) translate(4 62)">
<title>carta::VectorField::FillTileData</title>
<!-- Node1 -->
<g id="node1" class="node">
<title>Node1</title>
<g id="a_node1"><a xlink:title=" ">
<polygon fill="#bfbfbf" stroke="black" points="0,-14 0,-44 101,-44 101,-14 0,-14"/>
<text text-anchor="start" x="8" y="-32" font-family="Helvetica,sans-Serif" font-size="10.00">carta::VectorField</text>
<text text-anchor="middle" x="50.5" y="-21" font-family="Helvetica,sans-Serif" font-size="10.00">::FillTileData</text>
</a>
</g>
</g>
<!-- Node2 -->
<g id="node2" class="node">
<title>Node2</title>
<g id="a_node2"><a xlink:href="namespacecarta.html#a10f0d86089ef00182ca768e7971e1657" target="_top" xlink:title=" ">
<polygon fill="none" stroke="black" points="169.5,-38.5 169.5,-57.5 265.5,-57.5 265.5,-38.5 169.5,-38.5"/>
<text text-anchor="middle" x="217.5" y="-45.5" font-family="Helvetica,sans-Serif" font-size="10.00">carta::Compress</text>
</a>
</g>
</g>
<!-- Node1&#45;&gt;Node2 -->
<g id="edge1" class="edge">
<title>Node1&#45;&gt;Node2</title>
<path fill="none" stroke="midnightblue" d="M101.01,-34.7C119.35,-36.81 140.3,-39.23 159.28,-41.41"/>
<polygon fill="midnightblue" stroke="midnightblue" points="158.96,-44.9 169.29,-42.56 159.76,-37.94 158.96,-44.9"/>
</g>
<!-- Node3 -->
<g id="node3" class="node">
<title>Node3</title>
<g id="a_node3"><a xlink:href="namespacecarta.html#a6f90f0f5fadc7ab7bfad3fdc20058cef" target="_top" xlink:title=" ">
<polygon fill="none" stroke="black" points="137,-0.5 137,-19.5 298,-19.5 298,-0.5 137,-0.5"/>
<text text-anchor="middle" x="217.5" y="-7.5" font-family="Helvetica,sans-Serif" font-size="10.00">carta::GetNanEncodingsBlock</text>
</a>
</g>
</g>
<!-- Node1&#45;&gt;Node3 -->
<g id="edge2" class="edge">
<title>Node1&#45;&gt;Node3</title>
<path fill="none" stroke="midnightblue" d="M101.01,-23.3C109.21,-22.35 117.94,-21.35 126.78,-20.33"/>
<polygon fill="midnightblue" stroke="midnightblue" points="127.25,-23.8 136.79,-19.18 126.45,-16.85 127.25,-23.8"/>
</g>
</g>
</svg>
