<?xml version="1.0" encoding="UTF-8" standalone="no"?>
<!DOCTYPE svg PUBLIC "-//W3C//DTD SVG 1.1//EN"
 "http://www.w3.org/Graphics/SVG/1.1/DTD/svg11.dtd">
<!-- Generated by graphviz version 2.43.0 (0)
 -->
<!-- Title: carta::HttpServer::WriteObjectFile Pages: 1 -->
<svg width="551pt" height="39pt"
 viewBox="0.00 0.00 551.00 39.00" xmlns="http://www.w3.org/2000/svg" xmlns:xlink="http://www.w3.org/1999/xlink">
<g id="graph0" class="graph" transform="scale(1 1) rotate(0) translate(4 35)">
<title>carta::HttpServer::WriteObjectFile</title>
<!-- Node1 -->
<g id="node1" class="node">
<title>Node1</title>
<g id="a_node1"><a xlink:title=" ">
<polygon fill="#bfbfbf" stroke="black" points="437,-0.5 437,-30.5 543,-30.5 543,-0.5 437,-0.5"/>
<text text-anchor="start" x="445" y="-18.5" font-family="Helvetica,sans-Serif" font-size="10.00">carta::HttpServer::</text>
<text text-anchor="middle" x="490" y="-7.5" font-family="Helvetica,sans-Serif" font-size="10.00">WriteObjectFile</text>
</a>
</g>
</g>
<!-- Node2 -->
<g id="node2" class="node">
<title>Node2</title>
<g id="a_node2"><a xlink:href="classcarta_1_1HttpServer.html#a2f5ec652fc543dc22995bd5ad9b866f9" target="_top" xlink:title=" ">
<polygon fill="none" stroke="black" points="284,-0.5 284,-30.5 401,-30.5 401,-0.5 284,-0.5"/>
<text text-anchor="start" x="292" y="-18.5" font-family="Helvetica,sans-Serif" font-size="10.00">carta::HttpServer::</text>
<text text-anchor="middle" x="342.5" y="-7.5" font-family="Helvetica,sans-Serif" font-size="10.00">SetObjectFromString</text>
</a>
</g>
</g>
<!-- Node1&#45;&gt;Node2 -->
<g id="edge1" class="edge">
<title>Node1&#45;&gt;Node2</title>
<path fill="none" stroke="midnightblue" d="M426.68,-15.5C418.22,-15.5 409.56,-15.5 401.18,-15.5"/>
<polygon fill="midnightblue" stroke="midnightblue" points="426.88,-19 436.88,-15.5 426.88,-12 426.88,-19"/>
</g>
<!-- Node3 -->
<g id="node3" class="node">
<title>Node3</title>
<g id="a_node3"><a xlink:href="classcarta_1_1HttpServer.html#a5a834bd534d12e1e534098fa2e10bc33" target="_top" xlink:title=" ">
<polygon fill="none" stroke="black" points="142,-0.5 142,-30.5 248,-30.5 248,-0.5 142,-0.5"/>
<text text-anchor="start" x="150" y="-18.5" font-family="Helvetica,sans-Serif" font-size="10.00">carta::HttpServer::</text>
<text text-anchor="middle" x="195" y="-7.5" font-family="Helvetica,sans-Serif" font-size="10.00">HandleSetObject</text>
</a>
</g>
</g>
<!-- Node2&#45;&gt;Node3 -->
<g id="edge2" class="edge">
<title>Node2&#45;&gt;Node3</title>
<path fill="none" stroke="midnightblue" d="M273.97,-15.5C265.37,-15.5 256.67,-15.5 248.36,-15.5"/>
<polygon fill="midnightblue" stroke="midnightblue" points="273.99,-19 283.99,-15.5 273.99,-12 273.99,-19"/>
</g>
<!-- Node4 -->
<g id="node4" class="node">
<title>Node4</title>
<g id="a_node4"><a xlink:href="classcarta_1_1HttpServer.html#a63128482ebdede9e4da3e24fd4bf0c7e" target="_top" xlink:title=" ">
<polygon fill="none" stroke="black" points="0,-0.5 0,-30.5 106,-30.5 106,-0.5 0,-0.5"/>
<text text-anchor="start" x="8" y="-18.5" font-family="Helvetica,sans-Serif" font-size="10.00">carta::HttpServer::</text>
<text text-anchor="middle" x="53" y="-7.5" font-family="Helvetica,sans-Serif" font-size="10.00">RegisterRoutes</text>
</a>
</g>
</g>
<!-- Node3&#45;&gt;Node4 -->
<g id="edge3" class="edge">
<title>Node3&#45;&gt;Node4</title>
<path fill="none" stroke="midnightblue" d="M131.61,-15.5C123.12,-15.5 114.47,-15.5 106.17,-15.5"/>
<polygon fill="midnightblue" stroke="midnightblue" points="131.87,-19 141.87,-15.5 131.87,-12 131.87,-19"/>
</g>
</g>
</svg>
