<?xml version="1.0" encoding="UTF-8" standalone="no"?>
<!DOCTYPE svg PUBLIC "-//W3C//DTD SVG 1.1//EN"
 "http://www.w3.org/Graphics/SVG/1.1/DTD/svg11.dtd">
<!-- Generated by graphviz version 2.43.0 (0)
 -->
<!-- Title: carta::FileExtInfoLoader::AddComputedEntriesFromHeaders Pages: 1 -->
<svg width="579pt" height="480pt"
 viewBox="0.00 0.00 579.00 480.00" xmlns="http://www.w3.org/2000/svg" xmlns:xlink="http://www.w3.org/1999/xlink">
<g id="graph0" class="graph" transform="scale(1 1) rotate(0) translate(4 476)">
<title>carta::FileExtInfoLoader::AddComputedEntriesFromHeaders</title>
<!-- Node1 -->
<g id="node1" class="node">
<title>Node1</title>
<g id="a_node1"><a xlink:title=" ">
<polygon fill="#bfbfbf" stroke="black" points="0,-220.5 0,-250.5 191,-250.5 191,-220.5 0,-220.5"/>
<text text-anchor="start" x="8" y="-238.5" font-family="Helvetica,sans-Serif" font-size="10.00">carta::FileExtInfoLoader</text>
<text text-anchor="middle" x="95.5" y="-227.5" font-family="Helvetica,sans-Serif" font-size="10.00">::AddComputedEntriesFromHeaders</text>
</a>
</g>
</g>
<!-- Node2 -->
<g id="node2" class="node">
<title>Node2</title>
<g id="a_node2"><a xlink:href="classcarta_1_1FileExtInfoLoader.html#a02cd16701178cf515aca3f5623537611" target="_top" xlink:title=" ">
<polygon fill="none" stroke="black" points="237.5,-441.5 237.5,-471.5 369.5,-471.5 369.5,-441.5 237.5,-441.5"/>
<text text-anchor="start" x="245.5" y="-459.5" font-family="Helvetica,sans-Serif" font-size="10.00">carta::FileExtInfoLoader</text>
<text text-anchor="middle" x="303.5" y="-448.5" font-family="Helvetica,sans-Serif" font-size="10.00">::AddCoordRanges</text>
</a>
</g>
</g>
<!-- Node1&#45;&gt;Node2 -->
<g id="edge1" class="edge">
<title>Node1&#45;&gt;Node2</title>
<path fill="none" stroke="midnightblue" d="M102.31,-250.61C117.21,-287.38 160.37,-382.19 227,-432.5 228.83,-433.88 230.74,-435.18 232.71,-436.41"/>
<polygon fill="midnightblue" stroke="midnightblue" points="231.26,-439.61 241.71,-441.34 234.62,-433.47 231.26,-439.61"/>
</g>
<!-- Node3 -->
<g id="node3" class="node">
<title>Node3</title>
<g id="a_node3"><a xlink:href="classcarta_1_1FileExtInfoLoader.html#adb3998e3b3756d1ee8a2bb91f445c4d7" target="_top" xlink:title=" ">
<polygon fill="none" stroke="black" points="237.5,-392.5 237.5,-422.5 369.5,-422.5 369.5,-392.5 237.5,-392.5"/>
<text text-anchor="start" x="245.5" y="-410.5" font-family="Helvetica,sans-Serif" font-size="10.00">carta::FileExtInfoLoader</text>
<text text-anchor="middle" x="303.5" y="-399.5" font-family="Helvetica,sans-Serif" font-size="10.00">::ConvertCoordsToDeg</text>
</a>
</g>
</g>
<!-- Node1&#45;&gt;Node3 -->
<g id="edge2" class="edge">
<title>Node1&#45;&gt;Node3</title>
<path fill="none" stroke="midnightblue" d="M105.96,-250.95C125.09,-280.92 171.34,-347.19 227,-383.5 229.43,-385.09 231.97,-386.57 234.59,-387.97"/>
<polygon fill="midnightblue" stroke="midnightblue" points="233.21,-391.19 243.74,-392.36 236.24,-384.87 233.21,-391.19"/>
</g>
<!-- Node4 -->
<g id="node4" class="node">
<title>Node4</title>
<g id="a_node4"><a xlink:href="classcarta_1_1FileExtInfoLoader.html#ac36abc843ecdd6253cbb9524c77bc5ce" target="_top" xlink:title=" ">
<polygon fill="none" stroke="black" points="227,-343.5 227,-373.5 380,-373.5 380,-343.5 227,-343.5"/>
<text text-anchor="start" x="235" y="-361.5" font-family="Helvetica,sans-Serif" font-size="10.00">carta::FileExtInfoLoader</text>
<text text-anchor="middle" x="303.5" y="-350.5" font-family="Helvetica,sans-Serif" font-size="10.00">::ConvertIncrementToArcsec</text>
</a>
</g>
</g>
<!-- Node1&#45;&gt;Node4 -->
<g id="edge3" class="edge">
<title>Node1&#45;&gt;Node4</title>
<path fill="none" stroke="midnightblue" d="M112.55,-250.62C136.01,-272 181.81,-311.07 227,-334.5 230.54,-336.34 234.24,-338.06 238.03,-339.68"/>
<polygon fill="midnightblue" stroke="midnightblue" points="236.99,-343.03 247.58,-343.49 239.58,-336.53 236.99,-343.03"/>
</g>
<!-- Node5 -->
<g id="node5" class="node">
<title>Node5</title>
<g id="a_node5"><a xlink:href="classcarta_1_1FileExtInfoLoader.html#a5de7596e10856b87fd1a8446c96c960d" target="_top" xlink:title=" ">
<polygon fill="none" stroke="black" points="235,-294.5 235,-324.5 372,-324.5 372,-294.5 235,-294.5"/>
<text text-anchor="start" x="243" y="-312.5" font-family="Helvetica,sans-Serif" font-size="10.00">carta::FileExtInfoLoader</text>
<text text-anchor="middle" x="303.5" y="-301.5" font-family="Helvetica,sans-Serif" font-size="10.00">::ConvertUnitToCasacore</text>
</a>
</g>
</g>
<!-- Node1&#45;&gt;Node5 -->
<g id="edge4" class="edge">
<title>Node1&#45;&gt;Node5</title>
<path fill="none" stroke="midnightblue" d="M133.98,-250.52C159.95,-260.77 195.4,-274.43 227,-285.5 232.49,-287.42 238.22,-289.36 243.97,-291.27"/>
<polygon fill="midnightblue" stroke="midnightblue" points="243.03,-294.64 253.63,-294.42 245.21,-287.99 243.03,-294.64"/>
</g>
<!-- Node6 -->
<g id="node6" class="node">
<title>Node6</title>
<g id="a_node6"><a xlink:href="classcarta_1_1FileExtInfoLoader.html#a807261055dc7071b232cf87138dba416" target="_top" xlink:title=" ">
<polygon fill="none" stroke="black" points="237.5,-245.5 237.5,-275.5 369.5,-275.5 369.5,-245.5 237.5,-245.5"/>
<text text-anchor="start" x="245.5" y="-263.5" font-family="Helvetica,sans-Serif" font-size="10.00">carta::FileExtInfoLoader</text>
<text text-anchor="middle" x="303.5" y="-252.5" font-family="Helvetica,sans-Serif" font-size="10.00">::GetCoordNames</text>
</a>
</g>
</g>
<!-- Node1&#45;&gt;Node6 -->
<g id="edge5" class="edge">
<title>Node1&#45;&gt;Node6</title>
<path fill="none" stroke="midnightblue" d="M191.06,-246.98C203.17,-248.44 215.43,-249.93 227.18,-251.36"/>
<polygon fill="midnightblue" stroke="midnightblue" points="227,-254.86 237.35,-252.59 227.84,-247.91 227,-254.86"/>
</g>
<!-- Node7 -->
<g id="node7" class="node">
<title>Node7</title>
<g id="a_node7"><a xlink:href="classcarta_1_1CompressedFits.html#a067a3b895e9c95ecec6ebef781b5b002" target="_top" xlink:title=" ">
<polygon fill="none" stroke="black" points="241,-196.5 241,-226.5 366,-226.5 366,-196.5 241,-196.5"/>
<text text-anchor="start" x="249" y="-214.5" font-family="Helvetica,sans-Serif" font-size="10.00">carta::CompressedFits</text>
<text text-anchor="middle" x="303.5" y="-203.5" font-family="Helvetica,sans-Serif" font-size="10.00">::GetShape</text>
</a>
</g>
</g>
<!-- Node1&#45;&gt;Node7 -->
<g id="edge6" class="edge">
<title>Node1&#45;&gt;Node7</title>
<path fill="none" stroke="midnightblue" d="M191.06,-224.48C204.41,-222.93 217.96,-221.35 230.78,-219.86"/>
<polygon fill="midnightblue" stroke="midnightblue" points="231.37,-223.31 240.9,-218.68 230.56,-216.36 231.37,-223.31"/>
</g>
<!-- Node8 -->
<g id="node8" class="node">
<title>Node8</title>
<g id="a_node8"><a xlink:href="classcarta_1_1CompressedFits.html#a94ad95eeea905e363783008bdc03fd73" target="_top" xlink:title=" ">
<polygon fill="none" stroke="black" points="241,-147.5 241,-177.5 366,-177.5 366,-147.5 241,-147.5"/>
<text text-anchor="start" x="249" y="-165.5" font-family="Helvetica,sans-Serif" font-size="10.00">carta::CompressedFits</text>
<text text-anchor="middle" x="303.5" y="-154.5" font-family="Helvetica,sans-Serif" font-size="10.00">::GetSpecSuffix</text>
</a>
</g>
</g>
<!-- Node1&#45;&gt;Node8 -->
<g id="edge7" class="edge">
<title>Node1&#45;&gt;Node8</title>
<path fill="none" stroke="midnightblue" d="M136.36,-220.46C162.14,-210.82 196.46,-198.17 227,-187.5 233.31,-185.3 239.92,-183.03 246.51,-180.81"/>
<polygon fill="midnightblue" stroke="midnightblue" points="247.73,-184.09 256.1,-177.6 245.51,-177.46 247.73,-184.09"/>
</g>
<!-- Node9 -->
<g id="node9" class="node">
<title>Node9</title>
<g id="a_node9"><a xlink:href="classcarta_1_1CompressedFits.html#ab35da87aa3352a33b11cc1a457ae309c" target="_top" xlink:title=" ">
<polygon fill="none" stroke="black" points="241,-98.5 241,-128.5 366,-128.5 366,-98.5 241,-98.5"/>
<text text-anchor="start" x="249" y="-116.5" font-family="Helvetica,sans-Serif" font-size="10.00">carta::CompressedFits</text>
<text text-anchor="middle" x="303.5" y="-105.5" font-family="Helvetica,sans-Serif" font-size="10.00">::GetStokesSuffix</text>
</a>
</g>
</g>
<!-- Node1&#45;&gt;Node9 -->
<g id="edge8" class="edge">
<title>Node1&#45;&gt;Node9</title>
<path fill="none" stroke="midnightblue" d="M113.05,-220.43C136.74,-199.52 182.42,-161.68 227,-138.5 231.22,-136.31 235.67,-134.25 240.21,-132.34"/>
<polygon fill="midnightblue" stroke="midnightblue" points="241.62,-135.54 249.62,-128.6 239.04,-129.04 241.62,-135.54"/>
</g>
<!-- Node10 -->
<g id="node10" class="node">
<title>Node10</title>
<g id="a_node10"><a xlink:href="classcarta_1_1CompressedFits.html#a08d166346f4e5dd3261602727205943d" target="_top" xlink:title=" ">
<polygon fill="none" stroke="black" points="241,-49.5 241,-79.5 366,-79.5 366,-49.5 241,-49.5"/>
<text text-anchor="start" x="249" y="-67.5" font-family="Helvetica,sans-Serif" font-size="10.00">carta::CompressedFits</text>
<text text-anchor="middle" x="303.5" y="-56.5" font-family="Helvetica,sans-Serif" font-size="10.00">::GetTransformMatrix</text>
</a>
</g>
</g>
<!-- Node1&#45;&gt;Node10 -->
<g id="edge9" class="edge">
<title>Node1&#45;&gt;Node10</title>
<path fill="none" stroke="midnightblue" d="M106.05,-220.32C125.34,-190.87 171.85,-125.68 227,-89.5 230.07,-87.49 233.31,-85.62 236.66,-83.9"/>
<polygon fill="midnightblue" stroke="midnightblue" points="238.16,-87.06 245.73,-79.66 235.19,-80.73 238.16,-87.06"/>
</g>
<!-- Node12 -->
<g id="node12" class="node">
<title>Node12</title>
<g id="a_node12"><a xlink:href="classcarta_1_1FileExtInfoLoader.html#afa0abc9c6dd40164f472c7554adc32b6" target="_top" xlink:title=" ">
<polygon fill="none" stroke="black" points="237.5,-0.5 237.5,-30.5 369.5,-30.5 369.5,-0.5 237.5,-0.5"/>
<text text-anchor="start" x="245.5" y="-18.5" font-family="Helvetica,sans-Serif" font-size="10.00">carta::FileExtInfoLoader</text>
<text text-anchor="middle" x="303.5" y="-7.5" font-family="Helvetica,sans-Serif" font-size="10.00">::MakeAngleString</text>
</a>
</g>
</g>
<!-- Node1&#45;&gt;Node12 -->
<g id="edge11" class="edge">
<title>Node1&#45;&gt;Node12</title>
<path fill="none" stroke="midnightblue" d="M102.5,-220.32C117.69,-183.85 161.19,-90.57 227,-40.5 229.45,-38.64 232.04,-36.91 234.74,-35.31"/>
<polygon fill="midnightblue" stroke="midnightblue" points="236.43,-38.37 243.64,-30.6 233.16,-32.18 236.43,-38.37"/>
</g>
<!-- Node11 -->
<g id="node11" class="node">
<title>Node11</title>
<g id="a_node11"><a xlink:href="classcarta_1_1CompressedFits.html#a27e31cc4d4f75f55f592a274b898c416" target="_top" xlink:title=" ">
<polygon fill="none" stroke="black" points="416,-49.5 416,-79.5 571,-79.5 571,-49.5 416,-49.5"/>
<text text-anchor="start" x="424" y="-67.5" font-family="Helvetica,sans-Serif" font-size="10.00">carta::CompressedFits</text>
<text text-anchor="middle" x="493.5" y="-56.5" font-family="Helvetica,sans-Serif" font-size="10.00">::SetDefaultTransformMatrix</text>
</a>
</g>
</g>
<!-- Node10&#45;&gt;Node11 -->
<g id="edge10" class="edge">
<title>Node10&#45;&gt;Node11</title>
<path fill="none" stroke="midnightblue" d="M366.06,-64.5C378.69,-64.5 392.21,-64.5 405.54,-64.5"/>
<polygon fill="midnightblue" stroke="midnightblue" points="405.68,-68 415.68,-64.5 405.68,-61 405.68,-68"/>
</g>
</g>
</svg>
