<?xml version="1.0" encoding="UTF-8" standalone="no"?>
<!DOCTYPE svg PUBLIC "-//W3C//DTD SVG 1.1//EN"
 "http://www.w3.org/Graphics/SVG/1.1/DTD/svg11.dtd">
<!-- Generated by graphviz version 2.43.0 (0)
 -->
<!-- Title: carta::RegionHandler::SetStatsRequirements Pages: 1 -->
<svg width="604pt" height="99pt"
 viewBox="0.00 0.00 604.00 99.00" xmlns="http://www.w3.org/2000/svg" xmlns:xlink="http://www.w3.org/1999/xlink">
<g id="graph0" class="graph" transform="scale(1 1) rotate(0) translate(4 95)">
<title>carta::RegionHandler::SetStatsRequirements</title>
<!-- Node1 -->
<g id="node1" class="node">
<title>Node1</title>
<g id="a_node1"><a xlink:title=" ">
<polygon fill="#bfbfbf" stroke="black" points="0,-0.5 0,-30.5 131,-30.5 131,-0.5 0,-0.5"/>
<text text-anchor="start" x="8" y="-18.5" font-family="Helvetica,sans-Serif" font-size="10.00">carta::RegionHandler</text>
<text text-anchor="middle" x="65.5" y="-7.5" font-family="Helvetica,sans-Serif" font-size="10.00">::SetStatsRequirements</text>
</a>
</g>
</g>
<!-- Node2 -->
<g id="node2" class="node">
<title>Node2</title>
<g id="a_node2"><a xlink:href="classcarta_1_1RegionHandler.html#ab9501617a3845ac3fa32b6b88c5269eb" target="_top" xlink:title=" ">
<polygon fill="none" stroke="black" points="167,-22.5 167,-52.5 286,-52.5 286,-22.5 167,-22.5"/>
<text text-anchor="start" x="175" y="-40.5" font-family="Helvetica,sans-Serif" font-size="10.00">carta::RegionHandler</text>
<text text-anchor="middle" x="226.5" y="-29.5" font-family="Helvetica,sans-Serif" font-size="10.00">::IsClosedRegion</text>
</a>
</g>
</g>
<!-- Node1&#45;&gt;Node2 -->
<g id="edge1" class="edge">
<title>Node1&#45;&gt;Node2</title>
<path fill="none" stroke="midnightblue" d="M131.17,-24.45C139.64,-25.62 148.34,-26.82 156.86,-28"/>
<polygon fill="midnightblue" stroke="midnightblue" points="156.39,-31.47 166.77,-29.37 157.35,-24.54 156.39,-31.47"/>
</g>
<!-- Node4 -->
<g id="node4" class="node">
<title>Node4</title>
<g id="a_node4"><a xlink:href="classcarta_1_1RegionHandler.html#a809f63096e4fabebdcdef49591ed1c70" target="_top" xlink:title=" ">
<polygon fill="none" stroke="black" points="477,-16.5 477,-46.5 596,-46.5 596,-16.5 477,-16.5"/>
<text text-anchor="start" x="485" y="-34.5" font-family="Helvetica,sans-Serif" font-size="10.00">carta::RegionHandler</text>
<text text-anchor="middle" x="536.5" y="-23.5" font-family="Helvetica,sans-Serif" font-size="10.00">::RegionSet</text>
</a>
</g>
</g>
<!-- Node1&#45;&gt;Node4 -->
<g id="edge5" class="edge">
<title>Node1&#45;&gt;Node4</title>
<path fill="none" stroke="midnightblue" d="M131.1,-13.29C143.04,-12.96 155.39,-12.67 167,-12.5 219.88,-11.71 233.15,-10.49 286,-12.5 347.22,-14.83 416.71,-20.36 466.78,-24.85"/>
<polygon fill="midnightblue" stroke="midnightblue" points="466.57,-28.35 476.84,-25.77 467.2,-21.38 466.57,-28.35"/>
</g>
<!-- Node3 -->
<g id="node3" class="node">
<title>Node3</title>
<g id="a_node3"><a xlink:href="classcarta_1_1RegionHandler.html#a4d3eaa8da979a4b0640aa3b598a9415b" target="_top" xlink:title=" ">
<polygon fill="none" stroke="black" points="322,-60.5 322,-90.5 441,-90.5 441,-60.5 322,-60.5"/>
<text text-anchor="start" x="330" y="-78.5" font-family="Helvetica,sans-Serif" font-size="10.00">carta::RegionHandler</text>
<text text-anchor="middle" x="381.5" y="-67.5" font-family="Helvetica,sans-Serif" font-size="10.00">::GetRegion</text>
</a>
</g>
</g>
<!-- Node2&#45;&gt;Node3 -->
<g id="edge2" class="edge">
<title>Node2&#45;&gt;Node3</title>
<path fill="none" stroke="midnightblue" d="M286.22,-52.08C294.73,-54.2 303.55,-56.39 312.23,-58.54"/>
<polygon fill="midnightblue" stroke="midnightblue" points="311.39,-61.94 321.94,-60.96 313.08,-55.15 311.39,-61.94"/>
</g>
<!-- Node2&#45;&gt;Node4 -->
<g id="edge4" class="edge">
<title>Node2&#45;&gt;Node4</title>
<path fill="none" stroke="midnightblue" d="M286.16,-36.36C337.56,-35.36 412.33,-33.9 466.58,-32.84"/>
<polygon fill="midnightblue" stroke="midnightblue" points="466.87,-36.34 476.8,-32.64 466.73,-29.34 466.87,-36.34"/>
</g>
<!-- Node3&#45;&gt;Node4 -->
<g id="edge3" class="edge">
<title>Node3&#45;&gt;Node4</title>
<path fill="none" stroke="midnightblue" d="M434.73,-60.48C447.21,-56.89 460.66,-53.02 473.54,-49.32"/>
<polygon fill="midnightblue" stroke="midnightblue" points="474.61,-52.65 483.25,-46.53 472.67,-45.93 474.61,-52.65"/>
</g>
</g>
</svg>
