<?xml version="1.0" encoding="UTF-8" standalone="no"?>
<!DOCTYPE svg PUBLIC "-//W3C//DTD SVG 1.1//EN"
 "http://www.w3.org/Graphics/SVG/1.1/DTD/svg11.dtd">
<!-- Generated by graphviz version 2.43.0 (0)
 -->
<!-- Title: carta::Frame::ImageShape Pages: 1 -->
<svg width="466pt" height="78pt"
 viewBox="0.00 0.00 466.00 77.50" xmlns="http://www.w3.org/2000/svg" xmlns:xlink="http://www.w3.org/1999/xlink">
<g id="graph0" class="graph" transform="scale(1 1) rotate(0) translate(4 73.5)">
<title>carta::Frame::ImageShape</title>
<!-- Node1 -->
<g id="node1" class="node">
<title>Node1</title>
<g id="a_node1"><a xlink:title=" ">
<polygon fill="#bfbfbf" stroke="black" points="0,-22.5 0,-41.5 145,-41.5 145,-22.5 0,-22.5"/>
<text text-anchor="middle" x="72.5" y="-29.5" font-family="Helvetica,sans-Serif" font-size="10.00">carta::Frame::ImageShape</text>
</a>
</g>
</g>
<!-- Node2 -->
<g id="node2" class="node">
<title>Node2</title>
<g id="a_node2"><a xlink:href="structStokesSource.html#a7651d6cbedb427f5c00925c5111feac8" target="_top" xlink:title=" ">
<polygon fill="none" stroke="black" points="181,-39 181,-69 315,-69 315,-39 181,-39"/>
<text text-anchor="start" x="189" y="-57" font-family="Helvetica,sans-Serif" font-size="10.00">StokesSource::IsOriginal</text>
<text text-anchor="middle" x="248" y="-46" font-family="Helvetica,sans-Serif" font-size="10.00">Image</text>
</a>
</g>
</g>
<!-- Node1&#45;&gt;Node2 -->
<g id="edge1" class="edge">
<title>Node1&#45;&gt;Node2</title>
<path fill="none" stroke="midnightblue" d="M145.07,-41.08C153.59,-42.16 162.31,-43.26 170.89,-44.35"/>
<polygon fill="midnightblue" stroke="midnightblue" points="170.52,-47.83 180.88,-45.62 171.4,-40.89 170.52,-47.83"/>
</g>
<!-- Node4 -->
<g id="node4" class="node">
<title>Node4</title>
<g id="a_node4"><a xlink:href="classcarta_1_1Frame.html#a8075c3310541d8a14cdc9dc8fc37b117" target="_top" xlink:title=" ">
<polygon fill="none" stroke="black" points="190,-0.5 190,-19.5 306,-19.5 306,-0.5 190,-0.5"/>
<text text-anchor="middle" x="248" y="-7.5" font-family="Helvetica,sans-Serif" font-size="10.00">carta::Frame::IsValid</text>
</a>
</g>
</g>
<!-- Node1&#45;&gt;Node4 -->
<g id="edge3" class="edge">
<title>Node1&#45;&gt;Node4</title>
<path fill="none" stroke="midnightblue" d="M145.07,-22.92C156.51,-21.47 168.3,-19.98 179.64,-18.54"/>
<polygon fill="midnightblue" stroke="midnightblue" points="180.41,-21.97 189.89,-17.24 179.53,-15.03 180.41,-21.97"/>
</g>
<!-- Node3 -->
<g id="node3" class="node">
<title>Node3</title>
<g id="a_node3"><a xlink:href="Stokes_8h.html#a30da07ffd67ed06c1e15e2da4d915e0c" target="_top" xlink:title=" ">
<polygon fill="none" stroke="black" points="351,-44.5 351,-63.5 458,-63.5 458,-44.5 351,-44.5"/>
<text text-anchor="middle" x="404.5" y="-51.5" font-family="Helvetica,sans-Serif" font-size="10.00">IsComputedStokes</text>
</a>
</g>
</g>
<!-- Node2&#45;&gt;Node3 -->
<g id="edge2" class="edge">
<title>Node2&#45;&gt;Node3</title>
<path fill="none" stroke="midnightblue" d="M315.42,-54C323.79,-54 332.34,-54 340.65,-54"/>
<polygon fill="midnightblue" stroke="midnightblue" points="340.65,-57.5 350.65,-54 340.65,-50.5 340.65,-57.5"/>
</g>
</g>
</svg>
