<?xml version="1.0" encoding="UTF-8" standalone="no"?>
<!DOCTYPE svg PUBLIC "-//W3C//DTD SVG 1.1//EN"
 "http://www.w3.org/Graphics/SVG/1.1/DTD/svg11.dtd">
<!-- Generated by graphviz version 2.43.0 (0)
 -->
<!-- Title: carta::Frame::GetSlicerData Pages: 1 -->
<svg width="1134pt" height="317pt"
 viewBox="0.00 0.00 1134.00 317.00" xmlns="http://www.w3.org/2000/svg" xmlns:xlink="http://www.w3.org/1999/xlink">
<g id="graph0" class="graph" transform="scale(1 1) rotate(0) translate(4 313)">
<title>carta::Frame::GetSlicerData</title>
<!-- Node1 -->
<g id="node1" class="node">
<title>Node1</title>
<g id="a_node1"><a xlink:title=" ">
<polygon fill="#bfbfbf" stroke="black" points="974,-116 974,-135 1126,-135 1126,-116 974,-116"/>
<text text-anchor="middle" x="1050" y="-123" font-family="Helvetica,sans-Serif" font-size="10.00">carta::Frame::GetSlicerData</text>
</a>
</g>
</g>
<!-- Node2 -->
<g id="node2" class="node">
<title>Node2</title>
<g id="a_node2"><a xlink:href="classcarta_1_1Frame.html#a6ad0a2d3fbde3a9f346684e5ce541da6" target="_top" xlink:title=" ">
<polygon fill="none" stroke="black" points="773,-160 773,-179 932,-179 932,-160 773,-160"/>
<text text-anchor="middle" x="852.5" y="-167" font-family="Helvetica,sans-Serif" font-size="10.00">carta::Frame::FillImageCache</text>
</a>
</g>
</g>
<!-- Node1&#45;&gt;Node2 -->
<g id="edge1" class="edge">
<title>Node1&#45;&gt;Node2</title>
<path fill="none" stroke="midnightblue" d="M996.64,-137.28C965.08,-144.39 925.41,-153.32 895.84,-159.97"/>
<polygon fill="midnightblue" stroke="midnightblue" points="997.59,-140.66 1006.58,-135.05 996.05,-133.83 997.59,-140.66"/>
</g>
<!-- Node12 -->
<g id="node12" class="node">
<title>Node12</title>
<g id="a_node12"><a xlink:href="classcarta_1_1Frame.html#a3d1f8594ec63ae8f16524981c5f21ce2" target="_top" xlink:title=" ">
<polygon fill="none" stroke="black" points="786.5,-110.5 786.5,-140.5 918.5,-140.5 918.5,-110.5 786.5,-110.5"/>
<text text-anchor="start" x="794.5" y="-128.5" font-family="Helvetica,sans-Serif" font-size="10.00">carta::Frame::FillSpatial</text>
<text text-anchor="middle" x="852.5" y="-117.5" font-family="Helvetica,sans-Serif" font-size="10.00">ProfileData</text>
</a>
</g>
</g>
<!-- Node1&#45;&gt;Node12 -->
<g id="edge13" class="edge">
<title>Node1&#45;&gt;Node12</title>
<path fill="none" stroke="midnightblue" d="M963.64,-125.5C948.59,-125.5 933.15,-125.5 918.76,-125.5"/>
<polygon fill="midnightblue" stroke="midnightblue" points="963.97,-129 973.97,-125.5 963.97,-122 963.97,-129"/>
</g>
<!-- Node13 -->
<g id="node13" class="node">
<title>Node13</title>
<g id="a_node13"><a xlink:href="classcarta_1_1Frame.html#ad1fb3b57f336f8f186fe08eca46b0101" target="_top" xlink:title=" ">
<polygon fill="none" stroke="black" points="783.5,-61.5 783.5,-91.5 921.5,-91.5 921.5,-61.5 783.5,-61.5"/>
<text text-anchor="start" x="791.5" y="-79.5" font-family="Helvetica,sans-Serif" font-size="10.00">carta::Frame::FillSpectral</text>
<text text-anchor="middle" x="852.5" y="-68.5" font-family="Helvetica,sans-Serif" font-size="10.00">ProfileData</text>
</a>
</g>
</g>
<!-- Node1&#45;&gt;Node13 -->
<g id="edge14" class="edge">
<title>Node1&#45;&gt;Node13</title>
<path fill="none" stroke="midnightblue" d="M1001.07,-113.49C974.65,-106.86 941.61,-98.58 913.49,-91.54"/>
<polygon fill="midnightblue" stroke="midnightblue" points="1000.29,-116.9 1010.84,-115.94 1001.99,-110.11 1000.29,-116.9"/>
</g>
<!-- Node14 -->
<g id="node14" class="node">
<title>Node14</title>
<g id="a_node14"><a xlink:href="classcarta_1_1Frame.html#addae4d13342b22a4b5e6790f2cc7275d" target="_top" xlink:title=" ">
<polygon fill="none" stroke="black" points="767,-4.5 767,-34.5 938,-34.5 938,-4.5 767,-4.5"/>
<text text-anchor="start" x="775" y="-22.5" font-family="Helvetica,sans-Serif" font-size="10.00">carta::Frame::GetDownsampled</text>
<text text-anchor="middle" x="852.5" y="-11.5" font-family="Helvetica,sans-Serif" font-size="10.00">RasterData</text>
</a>
</g>
</g>
<!-- Node1&#45;&gt;Node14 -->
<g id="edge15" class="edge">
<title>Node1&#45;&gt;Node14</title>
<path fill="none" stroke="midnightblue" d="M1028.48,-109.75C1006.83,-93.65 971.31,-68.63 938,-51.5 925.72,-45.19 911.9,-39.43 899.05,-34.6"/>
<polygon fill="midnightblue" stroke="midnightblue" points="1026.5,-112.64 1036.59,-115.86 1030.7,-107.05 1026.5,-112.64"/>
</g>
<!-- Node17 -->
<g id="node17" class="node">
<title>Node17</title>
<g id="a_node17"><a xlink:href="classcarta_1_1Frame.html#a68a31253118f829703cbfb42e0c81257" target="_top" xlink:title=" ">
<polygon fill="none" stroke="black" points="782.5,-202 782.5,-221 922.5,-221 922.5,-202 782.5,-202"/>
<text text-anchor="middle" x="852.5" y="-209" font-family="Helvetica,sans-Serif" font-size="10.00">carta::Frame::GetZMatrix</text>
</a>
</g>
</g>
<!-- Node1&#45;&gt;Node17 -->
<g id="edge18" class="edge">
<title>Node1&#45;&gt;Node17</title>
<path fill="none" stroke="midnightblue" d="M1026.31,-140.63C1004.46,-154.65 970.09,-175.27 938,-188.5 924.93,-193.89 910.2,-198.4 896.75,-201.95"/>
<polygon fill="midnightblue" stroke="midnightblue" points="1028.39,-143.45 1034.87,-135.07 1024.58,-137.58 1028.39,-143.45"/>
</g>
<!-- Node3 -->
<g id="node3" class="node">
<title>Node3</title>
<g id="a_node3"><a xlink:href="classcarta_1_1Frame.html#a2627ae9873e0f4ab013e34f588e65433" target="_top" xlink:title=" ">
<polygon fill="none" stroke="black" points="550,-202 550,-221 731,-221 731,-202 550,-202"/>
<text text-anchor="middle" x="640.5" y="-209" font-family="Helvetica,sans-Serif" font-size="10.00">carta::Frame::CalculateHistogram</text>
</a>
</g>
</g>
<!-- Node2&#45;&gt;Node3 -->
<g id="edge2" class="edge">
<title>Node2&#45;&gt;Node3</title>
<path fill="none" stroke="midnightblue" d="M793.93,-181.01C761.08,-187.58 720.4,-195.72 689.33,-201.93"/>
<polygon fill="midnightblue" stroke="midnightblue" points="794.73,-184.42 803.85,-179.03 793.36,-177.56 794.73,-184.42"/>
</g>
<!-- Node5 -->
<g id="node5" class="node">
<title>Node5</title>
<g id="a_node5"><a xlink:href="classcarta_1_1Frame.html#a958f69761afea8b1388de6bea20f8b78" target="_top" xlink:title=" ">
<polygon fill="none" stroke="black" points="564,-126 564,-145 717,-145 717,-126 564,-126"/>
<text text-anchor="middle" x="640.5" y="-133" font-family="Helvetica,sans-Serif" font-size="10.00">carta::Frame::ContourImage</text>
</a>
</g>
</g>
<!-- Node2&#45;&gt;Node5 -->
<g id="edge4" class="edge">
<title>Node2&#45;&gt;Node5</title>
<path fill="none" stroke="midnightblue" d="M782.7,-158.36C756.06,-154.05 725.87,-149.16 700.26,-145.01"/>
<polygon fill="midnightblue" stroke="midnightblue" points="782.29,-161.84 792.72,-159.98 783.41,-154.93 782.29,-161.84"/>
</g>
<!-- Node6 -->
<g id="node6" class="node">
<title>Node6</title>
<g id="a_node6"><a xlink:href="classcarta_1_1Frame.html#aeb6afc8204ae9f00c0517b4f28be32d5" target="_top" xlink:title=" ">
<polygon fill="none" stroke="black" points="577,-88 577,-107 704,-107 704,-88 577,-88"/>
<text text-anchor="middle" x="640.5" y="-95" font-family="Helvetica,sans-Serif" font-size="10.00">carta::Frame::FitImage</text>
</a>
</g>
</g>
<!-- Node2&#45;&gt;Node6 -->
<g id="edge5" class="edge">
<title>Node2&#45;&gt;Node6</title>
<path fill="none" stroke="midnightblue" d="M783.8,-156.8C777.97,-154.72 772.29,-152.3 767,-149.5 747.82,-139.34 750.3,-126.44 731,-116.5 722.67,-112.21 713.42,-108.89 704.13,-106.31"/>
<polygon fill="midnightblue" stroke="midnightblue" points="783.11,-160.25 793.7,-159.99 785.26,-153.59 783.11,-160.25"/>
</g>
<!-- Node7 -->
<g id="node7" class="node">
<title>Node7</title>
<g id="a_node7"><a xlink:href="classcarta_1_1Frame.html#a7c5b058faaa1622f53b38c64af50efbc" target="_top" xlink:title=" ">
<polygon fill="none" stroke="black" points="583,-50 583,-69 698,-69 698,-50 583,-50"/>
<text text-anchor="middle" x="640.5" y="-57" font-family="Helvetica,sans-Serif" font-size="10.00">carta::Frame::Frame</text>
</a>
</g>
</g>
<!-- Node2&#45;&gt;Node7 -->
<g id="edge6" class="edge">
<title>Node2&#45;&gt;Node7</title>
<path fill="none" stroke="midnightblue" d="M775.98,-155.45C772.82,-153.69 769.81,-151.71 767,-149.5 739.2,-127.61 759.05,-100.06 731,-78.5 721.55,-71.24 709.96,-66.6 698.29,-63.67"/>
<polygon fill="midnightblue" stroke="midnightblue" points="774.67,-158.7 785.2,-159.87 777.7,-152.39 774.67,-158.7"/>
</g>
<!-- Node8 -->
<g id="node8" class="node">
<title>Node8</title>
<g id="a_node8"><a xlink:href="classcarta_1_1Frame.html#a1bd6cad34fcc337311218150f6771850" target="_top" xlink:title=" ">
<polygon fill="none" stroke="black" points="564.5,-240 564.5,-259 716.5,-259 716.5,-240 564.5,-240"/>
<text text-anchor="middle" x="640.5" y="-247" font-family="Helvetica,sans-Serif" font-size="10.00">carta::Frame::GetBasicStats</text>
</a>
</g>
</g>
<!-- Node2&#45;&gt;Node8 -->
<g id="edge7" class="edge">
<title>Node2&#45;&gt;Node8</title>
<path fill="none" stroke="midnightblue" d="M789.24,-182.21C781.48,-185 773.86,-188.39 767,-192.5 747.03,-204.44 751.29,-219.13 731,-230.5 724.07,-234.38 716.44,-237.47 708.63,-239.93"/>
<polygon fill="midnightblue" stroke="midnightblue" points="790.33,-185.53 798.74,-179.09 788.15,-178.88 790.33,-185.53"/>
</g>
<!-- Node11 -->
<g id="node11" class="node">
<title>Node11</title>
<g id="a_node11"><a xlink:href="classcarta_1_1Frame.html#ab9d76715b355e3d68f6280bc031ba7da" target="_top" xlink:title=" ">
<polygon fill="none" stroke="black" points="552.5,-164 552.5,-183 728.5,-183 728.5,-164 552.5,-164"/>
<text text-anchor="middle" x="640.5" y="-171" font-family="Helvetica,sans-Serif" font-size="10.00">carta::Frame::SetImageChannels</text>
</a>
</g>
</g>
<!-- Node2&#45;&gt;Node11 -->
<g id="edge12" class="edge">
<title>Node2&#45;&gt;Node11</title>
<path fill="none" stroke="midnightblue" d="M762.54,-171.19C751.38,-171.41 739.97,-171.62 728.84,-171.84"/>
<polygon fill="midnightblue" stroke="midnightblue" points="762.77,-174.69 772.71,-171 762.64,-167.69 762.77,-174.69"/>
</g>
<!-- Node4 -->
<g id="node4" class="node">
<title>Node4</title>
<g id="a_node4"><a xlink:href="classcarta_1_1Frame.html#add5c6cc7f22b6a5d87d7080d29f214fb" target="_top" xlink:title=" ">
<polygon fill="none" stroke="black" points="0,-234.5 0,-264.5 132,-264.5 132,-234.5 0,-234.5"/>
<text text-anchor="start" x="8" y="-252.5" font-family="Helvetica,sans-Serif" font-size="10.00">carta::Frame::FillRegion</text>
<text text-anchor="middle" x="66" y="-241.5" font-family="Helvetica,sans-Serif" font-size="10.00">HistogramData</text>
</a>
</g>
</g>
<!-- Node3&#45;&gt;Node4 -->
<g id="edge3" class="edge">
<title>Node3&#45;&gt;Node4</title>
<path fill="none" stroke="midnightblue" d="M539.68,-218.13C422.57,-225.9 231.77,-238.56 132.18,-245.17"/>
<polygon fill="midnightblue" stroke="midnightblue" points="539.99,-221.61 549.73,-217.46 539.52,-214.63 539.99,-221.61"/>
</g>
<!-- Node8&#45;&gt;Node4 -->
<g id="edge11" class="edge">
<title>Node8&#45;&gt;Node4</title>
<path fill="none" stroke="midnightblue" d="M554.17,-249.5C438.86,-249.5 235.82,-249.5 132.05,-249.5"/>
<polygon fill="midnightblue" stroke="midnightblue" points="554.36,-253 564.36,-249.5 554.36,-246 554.36,-253"/>
</g>
<!-- Node9 -->
<g id="node9" class="node">
<title>Node9</title>
<g id="a_node9"><a xlink:href="classcarta_1_1Frame.html#af4487db12b8553663cadf357d5c4c9f3" target="_top" xlink:title=" ">
<polygon fill="none" stroke="black" points="359,-278.5 359,-308.5 508,-308.5 508,-278.5 359,-278.5"/>
<text text-anchor="start" x="367" y="-296.5" font-family="Helvetica,sans-Serif" font-size="10.00">carta::Frame::FillHistogram</text>
<text text-anchor="middle" x="433.5" y="-285.5" font-family="Helvetica,sans-Serif" font-size="10.00">FromFrameCache</text>
</a>
</g>
</g>
<!-- Node8&#45;&gt;Node9 -->
<g id="edge8" class="edge">
<title>Node8&#45;&gt;Node9</title>
<path fill="none" stroke="midnightblue" d="M585.12,-261.17C560.46,-266.46 530.99,-272.79 504.69,-278.43"/>
<polygon fill="midnightblue" stroke="midnightblue" points="585.98,-264.57 595.02,-259.05 584.51,-257.72 585.98,-264.57"/>
</g>
<!-- Node10 -->
<g id="node10" class="node">
<title>Node10</title>
<g id="a_node10"><a xlink:href="classcarta_1_1Frame.html#a81ac6f87981449dccd193fa2c81dddcf" target="_top" xlink:title=" ">
<polygon fill="none" stroke="black" points="168,-278.5 168,-308.5 317,-308.5 317,-278.5 168,-278.5"/>
<text text-anchor="start" x="176" y="-296.5" font-family="Helvetica,sans-Serif" font-size="10.00">carta::Frame::FillHistogram</text>
<text text-anchor="middle" x="242.5" y="-285.5" font-family="Helvetica,sans-Serif" font-size="10.00">FromCache</text>
</a>
</g>
</g>
<!-- Node9&#45;&gt;Node10 -->
<g id="edge9" class="edge">
<title>Node9&#45;&gt;Node10</title>
<path fill="none" stroke="midnightblue" d="M348.86,-293.5C338.32,-293.5 327.59,-293.5 317.22,-293.5"/>
<polygon fill="midnightblue" stroke="midnightblue" points="348.89,-297 358.89,-293.5 348.89,-290 348.89,-297"/>
</g>
<!-- Node10&#45;&gt;Node4 -->
<g id="edge10" class="edge">
<title>Node10&#45;&gt;Node4</title>
<path fill="none" stroke="midnightblue" d="M172.15,-276.01C157.08,-272.21 141.25,-268.22 126.59,-264.53"/>
<polygon fill="midnightblue" stroke="midnightblue" points="171.38,-279.43 181.94,-278.48 173.09,-272.64 171.38,-279.43"/>
</g>
<!-- Node15 -->
<g id="node15" class="node">
<title>Node15</title>
<g id="a_node15"><a xlink:href="classcarta_1_1Frame.html#aa0556decdd99bffc1dd869599f4db918" target="_top" xlink:title=" ">
<polygon fill="none" stroke="black" points="564.5,-0.5 564.5,-30.5 716.5,-30.5 716.5,-0.5 564.5,-0.5"/>
<text text-anchor="start" x="572.5" y="-18.5" font-family="Helvetica,sans-Serif" font-size="10.00">carta::Frame::DoVectorField</text>
<text text-anchor="middle" x="640.5" y="-7.5" font-family="Helvetica,sans-Serif" font-size="10.00">Calculation</text>
</a>
</g>
</g>
<!-- Node14&#45;&gt;Node15 -->
<g id="edge16" class="edge">
<title>Node14&#45;&gt;Node15</title>
<path fill="none" stroke="midnightblue" d="M756.78,-17.7C743.35,-17.44 729.69,-17.18 716.69,-16.93"/>
<polygon fill="midnightblue" stroke="midnightblue" points="756.93,-21.2 766.99,-17.89 757.06,-14.2 756.93,-21.2"/>
</g>
<!-- Node16 -->
<g id="node16" class="node">
<title>Node16</title>
<g id="a_node16"><a xlink:href="classcarta_1_1Frame.html#ae3ee51cc1bda05842764364c3f49db45" target="_top" xlink:title=" ">
<polygon fill="none" stroke="black" points="353,-0.5 353,-30.5 514,-30.5 514,-0.5 353,-0.5"/>
<text text-anchor="start" x="361" y="-18.5" font-family="Helvetica,sans-Serif" font-size="10.00">carta::Frame::CalculateVector</text>
<text text-anchor="middle" x="433.5" y="-7.5" font-family="Helvetica,sans-Serif" font-size="10.00">Field</text>
</a>
</g>
</g>
<!-- Node15&#45;&gt;Node16 -->
<g id="edge17" class="edge">
<title>Node15&#45;&gt;Node16</title>
<path fill="none" stroke="midnightblue" d="M554.26,-15.5C540.98,-15.5 527.3,-15.5 514.14,-15.5"/>
<polygon fill="midnightblue" stroke="midnightblue" points="554.33,-19 564.33,-15.5 554.33,-12 554.33,-19"/>
</g>
<!-- Node17&#45;&gt;Node3 -->
<g id="edge19" class="edge">
<title>Node17&#45;&gt;Node3</title>
<path fill="none" stroke="midnightblue" d="M772.32,-211.5C758.9,-211.5 744.88,-211.5 731.22,-211.5"/>
<polygon fill="midnightblue" stroke="midnightblue" points="772.45,-215 782.45,-211.5 772.45,-208 772.45,-215"/>
</g>
<!-- Node17&#45;&gt;Node8 -->
<g id="edge20" class="edge">
<title>Node17&#45;&gt;Node8</title>
<path fill="none" stroke="midnightblue" d="M788.79,-222.85C758.66,-228.3 722.95,-234.76 694.24,-239.96"/>
<polygon fill="midnightblue" stroke="midnightblue" points="789.56,-226.26 798.78,-221.04 788.32,-219.38 789.56,-226.26"/>
</g>
</g>
</svg>
