<?xml version="1.0" encoding="UTF-8" standalone="no"?>
<!DOCTYPE svg PUBLIC "-//W3C//DTD SVG 1.1//EN"
 "http://www.w3.org/Graphics/SVG/1.1/DTD/svg11.dtd">
<!-- Generated by graphviz version 2.43.0 (0)
 -->
<!-- Title: carta::RegionHandler::SetHistogramRequirements Pages: 1 -->
<svg width="786pt" height="157pt"
 viewBox="0.00 0.00 786.00 157.00" xmlns="http://www.w3.org/2000/svg" xmlns:xlink="http://www.w3.org/1999/xlink">
<g id="graph0" class="graph" transform="scale(1 1) rotate(0) translate(4 153)">
<title>carta::RegionHandler::SetHistogramRequirements</title>
<!-- Node1 -->
<g id="node1" class="node">
<title>Node1</title>
<g id="a_node1"><a xlink:title=" ">
<polygon fill="#bfbfbf" stroke="black" points="0,-0.5 0,-30.5 158,-30.5 158,-0.5 0,-0.5"/>
<text text-anchor="start" x="8" y="-18.5" font-family="Helvetica,sans-Serif" font-size="10.00">carta::RegionHandler</text>
<text text-anchor="middle" x="79" y="-7.5" font-family="Helvetica,sans-Serif" font-size="10.00">::SetHistogramRequirements</text>
</a>
</g>
</g>
<!-- Node2 -->
<g id="node2" class="node">
<title>Node2</title>
<g id="a_node2"><a xlink:href="classcarta_1_1RegionHandler.html#ab9501617a3845ac3fa32b6b88c5269eb" target="_top" xlink:title=" ">
<polygon fill="none" stroke="black" points="194,-41.5 194,-71.5 313,-71.5 313,-41.5 194,-41.5"/>
<text text-anchor="start" x="202" y="-59.5" font-family="Helvetica,sans-Serif" font-size="10.00">carta::RegionHandler</text>
<text text-anchor="middle" x="253.5" y="-48.5" font-family="Helvetica,sans-Serif" font-size="10.00">::IsClosedRegion</text>
</a>
</g>
</g>
<!-- Node1&#45;&gt;Node2 -->
<g id="edge1" class="edge">
<title>Node1&#45;&gt;Node2</title>
<path fill="none" stroke="midnightblue" d="M143.25,-30.53C156.43,-33.67 170.38,-36.98 183.75,-40.16"/>
<polygon fill="midnightblue" stroke="midnightblue" points="183.3,-43.65 193.84,-42.56 184.92,-36.84 183.3,-43.65"/>
</g>
<!-- Node5 -->
<g id="node5" class="node">
<title>Node5</title>
<g id="a_node5"><a xlink:href="classcarta_1_1RegionHandler.html#a9e8b41c9fe29c95b66a44f78490bbcae" target="_top" xlink:title=" ">
<polygon fill="none" stroke="black" points="659,-54.5 659,-84.5 778,-84.5 778,-54.5 659,-54.5"/>
<text text-anchor="start" x="667" y="-72.5" font-family="Helvetica,sans-Serif" font-size="10.00">carta::RegionHandler</text>
<text text-anchor="middle" x="718.5" y="-61.5" font-family="Helvetica,sans-Serif" font-size="10.00">::RegionSet</text>
</a>
</g>
</g>
<!-- Node1&#45;&gt;Node5 -->
<g id="edge10" class="edge">
<title>Node1&#45;&gt;Node5</title>
<path fill="none" stroke="midnightblue" d="M158.17,-16.38C264.02,-18.46 458.63,-25.39 623,-48.5 631.37,-49.68 640.11,-51.2 648.73,-52.89"/>
<polygon fill="midnightblue" stroke="midnightblue" points="648.28,-56.38 658.78,-54.95 649.68,-49.52 648.28,-56.38"/>
</g>
<!-- Node3 -->
<g id="node3" class="node">
<title>Node3</title>
<g id="a_node3"><a xlink:href="classcarta_1_1RegionHandler.html#a0a88beca77cada14a4aba1dbb90b7e5f" target="_top" xlink:title=" ">
<polygon fill="none" stroke="black" points="349,-60.5 349,-90.5 468,-90.5 468,-60.5 349,-60.5"/>
<text text-anchor="start" x="357" y="-78.5" font-family="Helvetica,sans-Serif" font-size="10.00">carta::RegionHandler</text>
<text text-anchor="middle" x="408.5" y="-67.5" font-family="Helvetica,sans-Serif" font-size="10.00">::IsLineRegion</text>
</a>
</g>
</g>
<!-- Node2&#45;&gt;Node3 -->
<g id="edge2" class="edge">
<title>Node2&#45;&gt;Node3</title>
<path fill="none" stroke="midnightblue" d="M313.22,-63.79C321.64,-64.84 330.36,-65.92 338.95,-66.99"/>
<polygon fill="midnightblue" stroke="midnightblue" points="338.59,-70.47 348.94,-68.23 339.45,-63.52 338.59,-70.47"/>
</g>
<!-- Node2&#45;&gt;Node5 -->
<g id="edge9" class="edge">
<title>Node2&#45;&gt;Node5</title>
<path fill="none" stroke="midnightblue" d="M313.2,-52.19C325.05,-51.49 337.42,-50.87 349,-50.5 401.86,-48.82 415.15,-48.49 468,-50.5 529.22,-52.83 598.71,-58.36 648.78,-62.85"/>
<polygon fill="midnightblue" stroke="midnightblue" points="648.57,-66.35 658.84,-63.77 649.2,-59.38 648.57,-66.35"/>
</g>
<!-- Node6 -->
<g id="node6" class="node">
<title>Node6</title>
<g id="a_node6"><a xlink:href="classcarta_1_1RegionHandler.html#a94d939104654243dec3750ada83b370e" target="_top" xlink:title=" ">
<polygon fill="none" stroke="black" points="349,-109.5 349,-139.5 468,-139.5 468,-109.5 349,-109.5"/>
<text text-anchor="start" x="357" y="-127.5" font-family="Helvetica,sans-Serif" font-size="10.00">carta::RegionHandler</text>
<text text-anchor="middle" x="408.5" y="-116.5" font-family="Helvetica,sans-Serif" font-size="10.00">::IsPointRegion</text>
</a>
</g>
</g>
<!-- Node2&#45;&gt;Node6 -->
<g id="edge6" class="edge">
<title>Node2&#45;&gt;Node6</title>
<path fill="none" stroke="midnightblue" d="M287.22,-71.61C305.37,-79.94 328.39,-90.41 349,-99.5 353.38,-101.43 357.95,-103.43 362.53,-105.41"/>
<polygon fill="midnightblue" stroke="midnightblue" points="361.3,-108.69 371.87,-109.43 364.07,-102.26 361.3,-108.69"/>
</g>
<!-- Node4 -->
<g id="node4" class="node">
<title>Node4</title>
<g id="a_node4"><a xlink:href="classcarta_1_1RegionHandler.html#a4d3eaa8da979a4b0640aa3b598a9415b" target="_top" xlink:title=" ">
<polygon fill="none" stroke="black" points="504,-98.5 504,-128.5 623,-128.5 623,-98.5 504,-98.5"/>
<text text-anchor="start" x="512" y="-116.5" font-family="Helvetica,sans-Serif" font-size="10.00">carta::RegionHandler</text>
<text text-anchor="middle" x="563.5" y="-105.5" font-family="Helvetica,sans-Serif" font-size="10.00">::GetRegion</text>
</a>
</g>
</g>
<!-- Node3&#45;&gt;Node4 -->
<g id="edge3" class="edge">
<title>Node3&#45;&gt;Node4</title>
<path fill="none" stroke="midnightblue" d="M468.22,-90.08C476.73,-92.2 485.55,-94.39 494.23,-96.54"/>
<polygon fill="midnightblue" stroke="midnightblue" points="493.39,-99.94 503.94,-98.96 495.08,-93.15 493.39,-99.94"/>
</g>
<!-- Node3&#45;&gt;Node5 -->
<g id="edge5" class="edge">
<title>Node3&#45;&gt;Node5</title>
<path fill="none" stroke="midnightblue" d="M468.16,-74.36C519.56,-73.36 594.33,-71.9 648.58,-70.84"/>
<polygon fill="midnightblue" stroke="midnightblue" points="648.87,-74.34 658.8,-70.64 648.73,-67.34 648.87,-74.34"/>
</g>
<!-- Node4&#45;&gt;Node5 -->
<g id="edge4" class="edge">
<title>Node4&#45;&gt;Node5</title>
<path fill="none" stroke="midnightblue" d="M616.73,-98.48C629.21,-94.89 642.66,-91.02 655.54,-87.32"/>
<polygon fill="midnightblue" stroke="midnightblue" points="656.61,-90.65 665.25,-84.53 654.67,-83.93 656.61,-90.65"/>
</g>
<!-- Node6&#45;&gt;Node4 -->
<g id="edge7" class="edge">
<title>Node6&#45;&gt;Node4</title>
<path fill="none" stroke="midnightblue" d="M468.22,-120.28C476.64,-119.67 485.36,-119.05 493.95,-118.43"/>
<polygon fill="midnightblue" stroke="midnightblue" points="494.22,-121.92 503.94,-117.71 493.72,-114.94 494.22,-121.92"/>
</g>
<!-- Node6&#45;&gt;Node5 -->
<g id="edge8" class="edge">
<title>Node6&#45;&gt;Node5</title>
<path fill="none" stroke="midnightblue" d="M466.23,-139.54C510.1,-148.49 571.79,-155.2 623,-138.5 651.14,-129.32 677.85,-108.24 695.65,-91.78"/>
<polygon fill="midnightblue" stroke="midnightblue" points="698.36,-94.04 703.18,-84.6 693.53,-88.97 698.36,-94.04"/>
</g>
</g>
</svg>
