<?xml version="1.0" encoding="UTF-8" standalone="no"?>
<!DOCTYPE svg PUBLIC "-//W3C//DTD SVG 1.1//EN"
 "http://www.w3.org/Graphics/SVG/1.1/DTD/svg11.dtd">
<!-- Generated by graphviz version 2.43.0 (0)
 -->
<!-- Title: carta::RegionHandler::~RegionHandler Pages: 1 -->
<svg width="728pt" height="112pt"
 viewBox="0.00 0.00 728.00 112.00" xmlns="http://www.w3.org/2000/svg" xmlns:xlink="http://www.w3.org/1999/xlink">
<g id="graph0" class="graph" transform="scale(1 1) rotate(0) translate(4 108)">
<title>carta::RegionHandler::~RegionHandler</title>
<!-- Node1 -->
<g id="node1" class="node">
<title>Node1</title>
<g id="a_node1"><a xlink:title=" ">
<polygon fill="#bfbfbf" stroke="black" points="0,-46.5 0,-76.5 119,-76.5 119,-46.5 0,-46.5"/>
<text text-anchor="start" x="8" y="-64.5" font-family="Helvetica,sans-Serif" font-size="10.00">carta::RegionHandler</text>
<text text-anchor="middle" x="59.5" y="-53.5" font-family="Helvetica,sans-Serif" font-size="10.00">::~RegionHandler</text>
</a>
</g>
</g>
<!-- Node2 -->
<g id="node2" class="node">
<title>Node2</title>
<g id="a_node2"><a xlink:href="classcarta_1_1RegionHandler.html#a63f395d4e7fa9500f951598eaab516c7" target="_top" xlink:title=" ">
<polygon fill="none" stroke="black" points="155,-68.5 155,-98.5 274,-98.5 274,-68.5 155,-68.5"/>
<text text-anchor="start" x="163" y="-86.5" font-family="Helvetica,sans-Serif" font-size="10.00">carta::RegionHandler</text>
<text text-anchor="middle" x="214.5" y="-75.5" font-family="Helvetica,sans-Serif" font-size="10.00">::RemoveFrame</text>
</a>
</g>
</g>
<!-- Node1&#45;&gt;Node2 -->
<g id="edge1" class="edge">
<title>Node1&#45;&gt;Node2</title>
<path fill="none" stroke="midnightblue" d="M119.22,-69.94C127.64,-71.15 136.36,-72.41 144.95,-73.64"/>
<polygon fill="midnightblue" stroke="midnightblue" points="144.54,-77.12 154.94,-75.08 145.54,-70.19 144.54,-77.12"/>
</g>
<!-- Node4 -->
<g id="node4" class="node">
<title>Node4</title>
<g id="a_node4"><a xlink:href="classcarta_1_1RegionHandler.html#a2928967315eebcaef940d868586e5d85" target="_top" xlink:title=" ">
<polygon fill="none" stroke="black" points="340,-24.5 340,-54.5 459,-54.5 459,-24.5 340,-24.5"/>
<text text-anchor="start" x="348" y="-42.5" font-family="Helvetica,sans-Serif" font-size="10.00">carta::RegionHandler</text>
<text text-anchor="middle" x="399.5" y="-31.5" font-family="Helvetica,sans-Serif" font-size="10.00">::RemoveRegion</text>
</a>
</g>
</g>
<!-- Node1&#45;&gt;Node4 -->
<g id="edge6" class="edge">
<title>Node1&#45;&gt;Node4</title>
<path fill="none" stroke="midnightblue" d="M119.38,-57.67C177.96,-53.85 267.82,-48.01 329.67,-43.98"/>
<polygon fill="midnightblue" stroke="midnightblue" points="329.98,-47.47 339.73,-43.33 329.53,-40.48 329.98,-47.47"/>
</g>
<!-- Node3 -->
<g id="node3" class="node">
<title>Node3</title>
<g id="a_node3"><a xlink:href="classcarta_1_1RegionHandler.html#a390e02b6d680c5b09e8957a65468c8d0" target="_top" xlink:title=" ">
<polygon fill="none" stroke="black" points="310,-73.5 310,-103.5 489,-103.5 489,-73.5 310,-73.5"/>
<text text-anchor="start" x="318" y="-91.5" font-family="Helvetica,sans-Serif" font-size="10.00">carta::RegionHandler</text>
<text text-anchor="middle" x="399.5" y="-80.5" font-family="Helvetica,sans-Serif" font-size="10.00">::RemoveFileRequirementsCache</text>
</a>
</g>
</g>
<!-- Node2&#45;&gt;Node3 -->
<g id="edge2" class="edge">
<title>Node2&#45;&gt;Node3</title>
<path fill="none" stroke="midnightblue" d="M274.16,-85.1C282.35,-85.33 290.94,-85.56 299.63,-85.8"/>
<polygon fill="midnightblue" stroke="midnightblue" points="299.75,-89.3 309.84,-86.08 299.94,-82.31 299.75,-89.3"/>
</g>
<!-- Node2&#45;&gt;Node4 -->
<g id="edge3" class="edge">
<title>Node2&#45;&gt;Node4</title>
<path fill="none" stroke="midnightblue" d="M274.16,-69.4C291.97,-65.11 311.7,-60.37 330.09,-55.95"/>
<polygon fill="midnightblue" stroke="midnightblue" points="330.96,-59.34 339.86,-53.6 329.32,-52.53 330.96,-59.34"/>
</g>
<!-- Node5 -->
<g id="node5" class="node">
<title>Node5</title>
<g id="a_node5"><a xlink:href="classcarta_1_1RegionHandler.html#a809f63096e4fabebdcdef49591ed1c70" target="_top" xlink:title=" ">
<polygon fill="none" stroke="black" points="563,-49.5 563,-79.5 682,-79.5 682,-49.5 563,-49.5"/>
<text text-anchor="start" x="571" y="-67.5" font-family="Helvetica,sans-Serif" font-size="10.00">carta::RegionHandler</text>
<text text-anchor="middle" x="622.5" y="-56.5" font-family="Helvetica,sans-Serif" font-size="10.00">::RegionSet</text>
</a>
</g>
</g>
<!-- Node4&#45;&gt;Node5 -->
<g id="edge4" class="edge">
<title>Node4&#45;&gt;Node5</title>
<path fill="none" stroke="midnightblue" d="M459.14,-46.13C487.98,-49.4 522.91,-53.35 552.97,-56.75"/>
<polygon fill="midnightblue" stroke="midnightblue" points="552.64,-60.23 562.97,-57.88 553.42,-53.28 552.64,-60.23"/>
</g>
<!-- Node6 -->
<g id="node6" class="node">
<title>Node6</title>
<g id="a_node6"><a xlink:href="classcarta_1_1RegionHandler.html#a772046cac78b7c01f5562e68a07c7447" target="_top" xlink:title=" ">
<polygon fill="none" stroke="black" points="525,-0.5 525,-30.5 720,-30.5 720,-0.5 525,-0.5"/>
<text text-anchor="start" x="533" y="-18.5" font-family="Helvetica,sans-Serif" font-size="10.00">carta::RegionHandler</text>
<text text-anchor="middle" x="622.5" y="-7.5" font-family="Helvetica,sans-Serif" font-size="10.00">::RemoveRegionRequirementsCache</text>
</a>
</g>
</g>
<!-- Node4&#45;&gt;Node6 -->
<g id="edge5" class="edge">
<title>Node4&#45;&gt;Node6</title>
<path fill="none" stroke="midnightblue" d="M459.14,-33.13C476.35,-31.26 495.72,-29.16 514.94,-27.07"/>
<polygon fill="midnightblue" stroke="midnightblue" points="515.4,-30.54 524.96,-25.98 514.64,-23.58 515.4,-30.54"/>
</g>
</g>
</svg>
