<?xml version="1.0" encoding="UTF-8" standalone="no"?>
<!DOCTYPE svg PUBLIC "-//W3C//DTD SVG 1.1//EN"
 "http://www.w3.org/Graphics/SVG/1.1/DTD/svg11.dtd">
<!-- Generated by graphviz version 2.43.0 (0)
 -->
<!-- Title: carta::MiriadLoader Pages: 1 -->
<svg width="1060pt" height="795pt"
 viewBox="0.00 0.00 1060.00 795.04" xmlns="http://www.w3.org/2000/svg" xmlns:xlink="http://www.w3.org/1999/xlink">
<g id="graph0" class="graph" transform="scale(1 1) rotate(0) translate(4 791.04)">
<title>carta::MiriadLoader</title>
<!-- Node1 -->
<g id="node1" class="node">
<title>Node1</title>
<g id="a_node1"><a xlink:title=" ">
<polygon fill="#bfbfbf" stroke="black" points="941,-361.54 941,-380.54 1052,-380.54 1052,-361.54 941,-361.54"/>
<text text-anchor="middle" x="996.5" y="-368.54" font-family="Helvetica,sans-Serif" font-size="10.00">carta::MiriadLoader</text>
</a>
</g>
</g>
<!-- Node2 -->
<g id="node2" class="node">
<title>Node2</title>
<g id="a_node2"><a xlink:href="classcarta_1_1FileLoader.html" target="_top" xlink:title=" ">
<polygon fill="none" stroke="black" points="806,-361.54 806,-380.54 904,-380.54 904,-361.54 806,-361.54"/>
<text text-anchor="middle" x="855" y="-368.54" font-family="Helvetica,sans-Serif" font-size="10.00">carta::FileLoader</text>
</a>
</g>
</g>
<!-- Node2&#45;&gt;Node1 -->
<g id="edge1" class="edge">
<title>Node2&#45;&gt;Node1</title>
<path fill="none" stroke="midnightblue" d="M914.17,-371.04C922.95,-371.04 931.99,-371.04 940.69,-371.04"/>
<polygon fill="midnightblue" stroke="midnightblue" points="914.01,-367.54 904.01,-371.04 914.01,-374.54 914.01,-367.54"/>
</g>
<!-- Node3 -->
<g id="node3" class="node">
<title>Node3</title>
<g id="a_node3"><a xlink:title=" ">
<polygon fill="none" stroke="#bfbfbf" points="186.5,-717.54 186.5,-758.54 335.5,-758.54 335.5,-717.54 186.5,-717.54"/>
<text text-anchor="start" x="194.5" y="-746.54" font-family="Helvetica,sans-Serif" font-size="10.00">std::unordered_map</text>
<text text-anchor="start" x="194.5" y="-735.54" font-family="Helvetica,sans-Serif" font-size="10.00">&lt; CARTA::PolarizationType,</text>
<text text-anchor="middle" x="261" y="-724.54" font-family="Helvetica,sans-Serif" font-size="10.00"> int &gt;</text>
</a>
</g>
</g>
<!-- Node3&#45;&gt;Node2 -->
<g id="edge2" class="edge">
<title>Node3&#45;&gt;Node2</title>
<path fill="none" stroke="#9a32cd" stroke-dasharray="5,2" d="M345.68,-758.48C460.55,-781.12 666.63,-801.46 788,-693.04 836.3,-649.89 850.84,-430.08 853.51,-380.84"/>
<polygon fill="#9a32cd" stroke="#9a32cd" points="346.36,-755.05 335.87,-756.5 344.98,-761.91 346.36,-755.05"/>
<text text-anchor="middle" x="550.5" y="-779.04" font-family="Helvetica,sans-Serif" font-size="10.00"> _stokes_indices</text>
</g>
<!-- Node4 -->
<g id="node4" class="node">
<title>Node4</title>
<g id="a_node4"><a xlink:title=" ">
<polygon fill="none" stroke="#bfbfbf" points="0,-736.54 0,-755.54 97,-755.54 97,-736.54 0,-736.54"/>
<text text-anchor="middle" x="48.5" y="-743.54" font-family="Helvetica,sans-Serif" font-size="10.00">PolarizationType</text>
</a>
</g>
</g>
<!-- Node4&#45;&gt;Node3 -->
<g id="edge3" class="edge">
<title>Node4&#45;&gt;Node3</title>
<path fill="none" stroke="#9a32cd" stroke-dasharray="5,2" d="M107.18,-743.85C131.58,-742.92 160.31,-741.83 186.23,-740.84"/>
<polygon fill="#9a32cd" stroke="#9a32cd" points="106.86,-740.35 97,-744.23 107.13,-747.35 106.86,-740.35"/>
<text text-anchor="middle" x="139.5" y="-746.04" font-family="Helvetica,sans-Serif" font-size="10.00"> keys</text>
</g>
<!-- Node5 -->
<g id="node5" class="node">
<title>Node5</title>
<g id="a_node5"><a xlink:title=" ">
<polygon fill="none" stroke="#bfbfbf" points="34,-539.54 34,-558.54 63,-558.54 63,-539.54 34,-539.54"/>
<text text-anchor="middle" x="48.5" y="-546.54" font-family="Helvetica,sans-Serif" font-size="10.00">int</text>
</a>
</g>
</g>
<!-- Node5&#45;&gt;Node2 -->
<g id="edge24" class="edge">
<title>Node5&#45;&gt;Node2</title>
<path fill="none" stroke="#9a32cd" stroke-dasharray="5,2" d="M66.92,-565.64C90.75,-587.17 135.82,-623.87 182,-640.04 245.59,-662.29 735.33,-702.04 788,-660.04 833.37,-623.86 850.02,-427.18 853.34,-380.83"/>
<polygon fill="#9a32cd" stroke="#9a32cd" points="69.14,-562.92 59.42,-558.71 64.39,-568.07 69.14,-562.92"/>
<text text-anchor="middle" x="400.5" y="-706.04" font-family="Helvetica,sans-Serif" font-size="10.00"> _modify_time</text>
<text text-anchor="middle" x="400.5" y="-695.04" font-family="Helvetica,sans-Serif" font-size="10.00">_stokes_axis</text>
<text text-anchor="middle" x="400.5" y="-684.04" font-family="Helvetica,sans-Serif" font-size="10.00">_stokes_cdelt</text>
<text text-anchor="middle" x="400.5" y="-673.04" font-family="Helvetica,sans-Serif" font-size="10.00">_z_axis</text>
</g>
<!-- Node5&#45;&gt;Node3 -->
<g id="edge4" class="edge">
<title>Node5&#45;&gt;Node3</title>
<path fill="none" stroke="#9a32cd" stroke-dasharray="5,2" d="M53.39,-568.65C60.41,-598.95 78.03,-657.09 115,-690.04 134.8,-707.68 161.25,-718.86 186.15,-725.94"/>
<polygon fill="#9a32cd" stroke="#9a32cd" points="56.8,-567.87 51.27,-558.84 49.96,-569.35 56.8,-567.87"/>
<text text-anchor="middle" x="139.5" y="-720.04" font-family="Helvetica,sans-Serif" font-size="10.00"> elements</text>
</g>
<!-- Node7 -->
<g id="node7" class="node">
<title>Node7</title>
<g id="a_node7"><a xlink:href="structStokesSource.html" target="_top" xlink:title=" ">
<polygon fill="none" stroke="black" points="509.5,-534.54 509.5,-553.54 591.5,-553.54 591.5,-534.54 509.5,-534.54"/>
<text text-anchor="middle" x="550.5" y="-541.54" font-family="Helvetica,sans-Serif" font-size="10.00">StokesSource</text>
</a>
</g>
</g>
<!-- Node5&#45;&gt;Node7 -->
<g id="edge7" class="edge">
<title>Node5&#45;&gt;Node7</title>
<path fill="none" stroke="#9a32cd" stroke-dasharray="5,2" d="M73.05,-542.03C99.34,-534.61 143.27,-523.37 182,-519.04 300.69,-505.77 441.78,-525.16 509.43,-536.63"/>
<polygon fill="#9a32cd" stroke="#9a32cd" points="71.89,-538.72 63.25,-544.85 73.83,-545.45 71.89,-538.72"/>
<text text-anchor="middle" x="261" y="-522.04" font-family="Helvetica,sans-Serif" font-size="10.00"> stokes</text>
</g>
<!-- Node8 -->
<g id="node8" class="node">
<title>Node8</title>
<g id="a_node8"><a xlink:href="structAxisRange.html" target="_top" xlink:title=" ">
<polygon fill="none" stroke="black" points="227,-539.54 227,-558.54 295,-558.54 295,-539.54 227,-539.54"/>
<text text-anchor="middle" x="261" y="-546.54" font-family="Helvetica,sans-Serif" font-size="10.00">AxisRange</text>
</a>
</g>
</g>
<!-- Node5&#45;&gt;Node8 -->
<g id="edge9" class="edge">
<title>Node5&#45;&gt;Node8</title>
<path fill="none" stroke="#9a32cd" stroke-dasharray="5,2" d="M73.36,-549.04C111.01,-549.04 184.32,-549.04 226.99,-549.04"/>
<polygon fill="#9a32cd" stroke="#9a32cd" points="73.31,-545.54 63.31,-549.04 73.31,-552.54 73.31,-545.54"/>
<text text-anchor="middle" x="139.5" y="-563.04" font-family="Helvetica,sans-Serif" font-size="10.00"> from</text>
<text text-anchor="middle" x="139.5" y="-552.04" font-family="Helvetica,sans-Serif" font-size="10.00">to</text>
</g>
<!-- Node17 -->
<g id="node17" class="node">
<title>Node17</title>
<g id="a_node17"><a xlink:title=" ">
<polygon fill="none" stroke="#bfbfbf" points="209,-303.54 209,-322.54 313,-322.54 313,-303.54 209,-303.54"/>
<text text-anchor="middle" x="261" y="-310.54" font-family="Helvetica,sans-Serif" font-size="10.00">std::vector&lt; int &gt;</text>
</a>
</g>
</g>
<!-- Node5&#45;&gt;Node17 -->
<g id="edge19" class="edge">
<title>Node5&#45;&gt;Node17</title>
<path fill="none" stroke="#9a32cd" stroke-dasharray="5,2" d="M56.24,-529.98C71.78,-488.75 114.11,-390.74 182,-338.04 190.76,-331.24 201.43,-326.26 212.02,-322.62"/>
<polygon fill="#9a32cd" stroke="#9a32cd" points="52.94,-528.8 52.79,-539.39 59.52,-531.21 52.94,-528.8"/>
<text text-anchor="middle" x="139.5" y="-410.04" font-family="Helvetica,sans-Serif" font-size="10.00"> elements</text>
</g>
<!-- Node6 -->
<g id="node6" class="node">
<title>Node6</title>
<g id="a_node6"><a xlink:title=" ">
<polygon fill="none" stroke="#bfbfbf" points="198.5,-600.04 198.5,-630.04 323.5,-630.04 323.5,-600.04 198.5,-600.04"/>
<text text-anchor="start" x="206.5" y="-618.04" font-family="Helvetica,sans-Serif" font-size="10.00">vector&lt; carta::FileInfo</text>
<text text-anchor="middle" x="261" y="-607.04" font-family="Helvetica,sans-Serif" font-size="10.00">::ImageStats &gt;</text>
</a>
</g>
</g>
<!-- Node6&#45;&gt;Node2 -->
<g id="edge5" class="edge">
<title>Node6&#45;&gt;Node2</title>
<path fill="none" stroke="#9a32cd" stroke-dasharray="5,2" d="M334.01,-609.07C476,-597.16 779.19,-571 788,-564.04 847.73,-516.82 853.68,-412.78 854.06,-380.67"/>
<polygon fill="#9a32cd" stroke="#9a32cd" points="333.34,-605.61 323.66,-609.93 333.92,-612.59 333.34,-605.61"/>
<text text-anchor="middle" x="550.5" y="-600.04" font-family="Helvetica,sans-Serif" font-size="10.00"> _cube_stats</text>
</g>
<!-- Node24 -->
<g id="node24" class="node">
<title>Node24</title>
<g id="a_node24"><a xlink:title=" ">
<polygon fill="none" stroke="#bfbfbf" points="461,-620.04 461,-650.04 640,-650.04 640,-620.04 461,-620.04"/>
<text text-anchor="start" x="469" y="-638.04" font-family="Helvetica,sans-Serif" font-size="10.00">std::vector&lt; std::vector</text>
<text text-anchor="middle" x="550.5" y="-627.04" font-family="Helvetica,sans-Serif" font-size="10.00">&lt; carta::FileInfo::ImageStats &gt; &gt;</text>
</a>
</g>
</g>
<!-- Node6&#45;&gt;Node24 -->
<g id="edge30" class="edge">
<title>Node6&#45;&gt;Node24</title>
<path fill="none" stroke="#9a32cd" stroke-dasharray="5,2" d="M333.77,-620.03C372.29,-622.71 420.1,-626.04 460.92,-628.88"/>
<polygon fill="#9a32cd" stroke="#9a32cd" points="333.89,-616.53 323.68,-619.33 333.41,-623.51 333.89,-616.53"/>
<text text-anchor="middle" x="400.5" y="-630.04" font-family="Helvetica,sans-Serif" font-size="10.00"> elements</text>
</g>
<!-- Node7&#45;&gt;Node2 -->
<g id="edge6" class="edge">
<title>Node7&#45;&gt;Node2</title>
<path fill="none" stroke="#9a32cd" stroke-dasharray="5,2" d="M602,-549.5C653.71,-552.37 733.95,-548.93 788,-509.04 832.23,-476.39 848.08,-406.31 852.53,-380.68"/>
<polygon fill="#9a32cd" stroke="#9a32cd" points="601.95,-545.99 591.74,-548.83 601.49,-552.98 601.95,-545.99"/>
<text text-anchor="middle" x="723" y="-552.04" font-family="Helvetica,sans-Serif" font-size="10.00"> _stokes_source</text>
</g>
<!-- Node8&#45;&gt;Node7 -->
<g id="edge8" class="edge">
<title>Node8&#45;&gt;Node7</title>
<path fill="none" stroke="#9a32cd" stroke-dasharray="5,2" d="M305.69,-546.28C322.09,-545.37 340.89,-544.48 358,-544.04 410.18,-542.68 470.38,-542.99 509.14,-543.43"/>
<polygon fill="#9a32cd" stroke="#9a32cd" points="305.09,-542.81 295.3,-546.88 305.49,-549.8 305.09,-542.81"/>
<text text-anchor="middle" x="400.5" y="-569.04" font-family="Helvetica,sans-Serif" font-size="10.00"> x_range</text>
<text text-anchor="middle" x="400.5" y="-558.04" font-family="Helvetica,sans-Serif" font-size="10.00">y_range</text>
<text text-anchor="middle" x="400.5" y="-547.04" font-family="Helvetica,sans-Serif" font-size="10.00">z_range</text>
</g>
<!-- Node9 -->
<g id="node9" class="node">
<title>Node9</title>
<g id="a_node9"><a xlink:title=" ">
<polygon fill="none" stroke="#bfbfbf" points="29.5,-161.54 29.5,-180.54 67.5,-180.54 67.5,-161.54 29.5,-161.54"/>
<text text-anchor="middle" x="48.5" y="-168.54" font-family="Helvetica,sans-Serif" font-size="10.00">float</text>
</a>
</g>
</g>
<!-- Node9&#45;&gt;Node2 -->
<g id="edge10" class="edge">
<title>Node9&#45;&gt;Node2</title>
<path fill="none" stroke="#9a32cd" stroke-dasharray="5,2" d="M77.74,-168.79C206.03,-158.86 730.2,-121.2 788,-164.04 853.76,-212.78 855.46,-327.62 854.45,-361.48"/>
<polygon fill="#9a32cd" stroke="#9a32cd" points="77.25,-165.32 67.55,-169.59 77.79,-172.3 77.25,-165.32"/>
<text text-anchor="middle" x="400.5" y="-164.04" font-family="Helvetica,sans-Serif" font-size="10.00"> _stokes_crpix</text>
<text text-anchor="middle" x="400.5" y="-153.04" font-family="Helvetica,sans-Serif" font-size="10.00">_stokes_crval</text>
</g>
<!-- Node18 -->
<g id="node18" class="node">
<title>Node18</title>
<g id="a_node18"><a xlink:title=" ">
<polygon fill="none" stroke="#bfbfbf" points="204.5,-185.54 204.5,-204.54 317.5,-204.54 317.5,-185.54 204.5,-185.54"/>
<text text-anchor="middle" x="261" y="-192.54" font-family="Helvetica,sans-Serif" font-size="10.00">std::vector&lt; float &gt;</text>
</a>
</g>
</g>
<!-- Node9&#45;&gt;Node18 -->
<g id="edge21" class="edge">
<title>Node9&#45;&gt;Node18</title>
<path fill="none" stroke="#9a32cd" stroke-dasharray="5,2" d="M77.9,-174.27C110.17,-177.95 163.65,-184.05 204.32,-188.69"/>
<polygon fill="#9a32cd" stroke="#9a32cd" points="78.14,-170.78 67.81,-173.12 77.35,-177.74 78.14,-170.78"/>
<text text-anchor="middle" x="139.5" y="-186.04" font-family="Helvetica,sans-Serif" font-size="10.00"> elements</text>
</g>
<!-- Node10 -->
<g id="node10" class="node">
<title>Node10</title>
<g id="a_node10"><a xlink:title=" ">
<polygon fill="none" stroke="#bfbfbf" points="521,-496.54 521,-515.54 580,-515.54 580,-496.54 521,-496.54"/>
<text text-anchor="middle" x="550.5" y="-503.54" font-family="Helvetica,sans-Serif" font-size="10.00">IPosition</text>
</a>
</g>
</g>
<!-- Node10&#45;&gt;Node2 -->
<g id="edge11" class="edge">
<title>Node10&#45;&gt;Node2</title>
<path fill="none" stroke="#9a32cd" stroke-dasharray="5,2" d="M590.57,-503.94C639.99,-499.69 726.1,-486.84 788,-448.04 816.05,-430.46 838.49,-397.17 848.44,-380.73"/>
<polygon fill="#9a32cd" stroke="#9a32cd" points="590.01,-500.47 580.31,-504.74 590.55,-507.45 590.01,-500.47"/>
<text text-anchor="middle" x="723" y="-497.04" font-family="Helvetica,sans-Serif" font-size="10.00"> _image_shape</text>
</g>
<!-- Node11 -->
<g id="node11" class="node">
<title>Node11</title>
<g id="a_node11"><a xlink:title=" ">
<polygon fill="none" stroke="#bfbfbf" points="474.5,-436.54 474.5,-477.54 626.5,-477.54 626.5,-436.54 474.5,-436.54"/>
<text text-anchor="start" x="482.5" y="-465.54" font-family="Helvetica,sans-Serif" font-size="10.00">std::shared_ptr&lt; casacore</text>
<text text-anchor="start" x="482.5" y="-454.54" font-family="Helvetica,sans-Serif" font-size="10.00">::ImageInterface&lt; casacore</text>
<text text-anchor="middle" x="550.5" y="-443.54" font-family="Helvetica,sans-Serif" font-size="10.00">::Float &gt; &gt;</text>
</a>
</g>
</g>
<!-- Node11&#45;&gt;Node2 -->
<g id="edge12" class="edge">
<title>Node11&#45;&gt;Node2</title>
<path fill="none" stroke="#9a32cd" stroke-dasharray="5,2" d="M636.39,-438.98C681.81,-428.53 738.45,-414.26 788,-398.04 803.3,-393.03 820.08,-386.15 832.89,-380.58"/>
<polygon fill="#9a32cd" stroke="#9a32cd" points="635.55,-435.58 626.58,-441.21 637.11,-442.4 635.55,-435.58"/>
<text text-anchor="middle" x="723" y="-436.04" font-family="Helvetica,sans-Serif" font-size="10.00"> _image</text>
</g>
<!-- Node12 -->
<g id="node12" class="node">
<title>Node12</title>
<g id="a_node12"><a xlink:href="structcarta_1_1FileInfo_1_1ImageStats.html" target="_top" xlink:title=" ">
<polygon fill="none" stroke="black" points="478,-307.54 478,-326.54 623,-326.54 623,-307.54 478,-307.54"/>
<text text-anchor="middle" x="550.5" y="-314.54" font-family="Helvetica,sans-Serif" font-size="10.00">carta::FileInfo::ImageStats</text>
</a>
</g>
</g>
<!-- Node12&#45;&gt;Node2 -->
<g id="edge13" class="edge">
<title>Node12&#45;&gt;Node2</title>
<path fill="none" stroke="#9a32cd" stroke-dasharray="5,2" d="M615,-328.38C629.15,-330.91 644.09,-333.57 658,-336.04 715.77,-346.3 730.25,-348.68 788,-359.04 793.73,-360.07 799.74,-361.15 805.7,-362.23"/>
<polygon fill="#9a32cd" stroke="#9a32cd" points="615.32,-324.88 604.86,-326.57 614.09,-331.77 615.32,-324.88"/>
<text text-anchor="middle" x="723" y="-362.04" font-family="Helvetica,sans-Serif" font-size="10.00"> _empty_stats</text>
</g>
<!-- Node13 -->
<g id="node13" class="node">
<title>Node13</title>
<g id="a_node13"><a xlink:title=" ">
<polygon fill="none" stroke="#bfbfbf" points="242,-347.54 242,-366.54 280,-366.54 280,-347.54 242,-347.54"/>
<text text-anchor="middle" x="261" y="-354.54" font-family="Helvetica,sans-Serif" font-size="10.00">bool</text>
</a>
</g>
</g>
<!-- Node13&#45;&gt;Node2 -->
<g id="edge26" class="edge">
<title>Node13&#45;&gt;Node2</title>
<path fill="none" stroke="#9a32cd" stroke-dasharray="5,2" d="M290.41,-358.24C355.46,-360.94 520.17,-367.42 658,-370.04 708.35,-370.99 765.99,-371.18 805.67,-371.16"/>
<polygon fill="#9a32cd" stroke="#9a32cd" points="290.29,-354.73 280.15,-357.81 290,-361.73 290.29,-354.73"/>
<text text-anchor="middle" x="550.5" y="-416.04" font-family="Helvetica,sans-Serif" font-size="10.00"> _has_pixel_mask</text>
<text text-anchor="middle" x="550.5" y="-405.04" font-family="Helvetica,sans-Serif" font-size="10.00">_is_generated</text>
<text text-anchor="middle" x="550.5" y="-394.04" font-family="Helvetica,sans-Serif" font-size="10.00">_is_gz</text>
<text text-anchor="middle" x="550.5" y="-383.04" font-family="Helvetica,sans-Serif" font-size="10.00">_is_history_beam</text>
<text text-anchor="middle" x="550.5" y="-372.04" font-family="Helvetica,sans-Serif" font-size="10.00">_support_aips_beam</text>
</g>
<!-- Node13&#45;&gt;Node12 -->
<g id="edge14" class="edge">
<title>Node13&#45;&gt;Node12</title>
<path fill="none" stroke="#9a32cd" stroke-dasharray="5,2" d="M290.01,-347.89C315.83,-339.53 351.17,-328.26 358,-327.04 397.16,-320.01 441.49,-317.37 477.63,-316.54"/>
<polygon fill="#9a32cd" stroke="#9a32cd" points="288.74,-344.62 280.31,-351.04 290.91,-351.28 288.74,-344.62"/>
<text text-anchor="middle" x="400.5" y="-341.04" font-family="Helvetica,sans-Serif" font-size="10.00"> full</text>
<text text-anchor="middle" x="400.5" y="-330.04" font-family="Helvetica,sans-Serif" font-size="10.00">valid</text>
</g>
<!-- Node14 -->
<g id="node14" class="node">
<title>Node14</title>
<g id="a_node14"><a xlink:title=" ">
<polygon fill="none" stroke="#bfbfbf" points="182,-243.04 182,-273.04 340,-273.04 340,-243.04 182,-243.04"/>
<text text-anchor="start" x="190" y="-261.04" font-family="Helvetica,sans-Serif" font-size="10.00">std::map&lt; CARTA::StatsType,</text>
<text text-anchor="middle" x="261" y="-250.04" font-family="Helvetica,sans-Serif" font-size="10.00"> double &gt;</text>
</a>
</g>
</g>
<!-- Node14&#45;&gt;Node12 -->
<g id="edge15" class="edge">
<title>Node14&#45;&gt;Node12</title>
<path fill="none" stroke="#9a32cd" stroke-dasharray="5,2" d="M350.44,-251.51C381.36,-252.83 415.26,-258.6 443,-274.04 454.65,-280.52 449.77,-290.85 461,-298.04 467.09,-301.93 473.85,-305.04 480.84,-307.52"/>
<polygon fill="#9a32cd" stroke="#9a32cd" points="350.17,-248 340.07,-251.22 349.97,-255 350.17,-248"/>
<text text-anchor="middle" x="400.5" y="-277.04" font-family="Helvetica,sans-Serif" font-size="10.00"> basic_stats</text>
</g>
<!-- Node15 -->
<g id="node15" class="node">
<title>Node15</title>
<g id="a_node15"><a xlink:title=" ">
<polygon fill="none" stroke="#bfbfbf" points="23.5,-257.54 23.5,-276.54 73.5,-276.54 73.5,-257.54 23.5,-257.54"/>
<text text-anchor="middle" x="48.5" y="-264.54" font-family="Helvetica,sans-Serif" font-size="10.00">double</text>
</a>
</g>
</g>
<!-- Node15&#45;&gt;Node14 -->
<g id="edge16" class="edge">
<title>Node15&#45;&gt;Node14</title>
<path fill="none" stroke="#9a32cd" stroke-dasharray="5,2" d="M83.94,-265.56C110.47,-264.43 148.2,-262.82 181.94,-261.37"/>
<polygon fill="#9a32cd" stroke="#9a32cd" points="83.49,-262.08 73.65,-266 83.79,-269.07 83.49,-262.08"/>
<text text-anchor="middle" x="139.5" y="-267.04" font-family="Helvetica,sans-Serif" font-size="10.00"> elements</text>
</g>
<!-- Node16 -->
<g id="node16" class="node">
<title>Node16</title>
<g id="a_node16"><a xlink:title=" ">
<polygon fill="none" stroke="#bfbfbf" points="16.5,-219.54 16.5,-238.54 80.5,-238.54 80.5,-219.54 16.5,-219.54"/>
<text text-anchor="middle" x="48.5" y="-226.54" font-family="Helvetica,sans-Serif" font-size="10.00">StatsType</text>
</a>
</g>
</g>
<!-- Node16&#45;&gt;Node14 -->
<g id="edge17" class="edge">
<title>Node16&#45;&gt;Node14</title>
<path fill="none" stroke="#9a32cd" stroke-dasharray="5,2" d="M90.78,-234.72C116.72,-238.3 151.02,-243.02 181.96,-247.29"/>
<polygon fill="#9a32cd" stroke="#9a32cd" points="90.94,-231.21 80.56,-233.32 89.99,-238.15 90.94,-231.21"/>
<text text-anchor="middle" x="139.5" y="-247.04" font-family="Helvetica,sans-Serif" font-size="10.00"> keys</text>
</g>
<!-- Node17&#45;&gt;Node12 -->
<g id="edge18" class="edge">
<title>Node17&#45;&gt;Node12</title>
<path fill="none" stroke="#9a32cd" stroke-dasharray="5,2" d="M308.99,-301.24C324.49,-297.89 341.89,-294.7 358,-293.04 395.58,-289.16 405.57,-287.93 443,-293.04 451.23,-294.16 452.94,-296.05 461,-298.04 474.43,-301.34 489.08,-304.62 502.53,-307.5"/>
<polygon fill="#9a32cd" stroke="#9a32cd" points="308.1,-297.85 299.1,-303.45 309.63,-304.68 308.1,-297.85"/>
<text text-anchor="middle" x="400.5" y="-296.04" font-family="Helvetica,sans-Serif" font-size="10.00"> histogram_bins</text>
</g>
<!-- Node18&#45;&gt;Node12 -->
<g id="edge20" class="edge">
<title>Node18&#45;&gt;Node12</title>
<path fill="none" stroke="#9a32cd" stroke-dasharray="5,2" d="M327.58,-189.24C365.83,-189.53 412.42,-196.74 443,-225.04 467.53,-247.73 437.02,-274.77 461,-298.04 465.85,-302.74 471.57,-306.4 477.72,-309.24"/>
<polygon fill="#9a32cd" stroke="#9a32cd" points="327.51,-185.74 317.54,-189.32 327.57,-192.74 327.51,-185.74"/>
<text text-anchor="middle" x="400.5" y="-239.04" font-family="Helvetica,sans-Serif" font-size="10.00"> percentile_ranks</text>
<text text-anchor="middle" x="400.5" y="-228.04" font-family="Helvetica,sans-Serif" font-size="10.00">percentiles</text>
</g>
<!-- Node19 -->
<g id="node19" class="node">
<title>Node19</title>
<g id="a_node19"><a xlink:title=" ">
<polygon fill="none" stroke="#bfbfbf" points="528,-269.54 528,-288.54 573,-288.54 573,-269.54 528,-269.54"/>
<text text-anchor="middle" x="550.5" y="-276.54" font-family="Helvetica,sans-Serif" font-size="10.00">size_t</text>
</a>
</g>
</g>
<!-- Node19&#45;&gt;Node2 -->
<g id="edge22" class="edge">
<title>Node19&#45;&gt;Node2</title>
<path fill="none" stroke="#9a32cd" stroke-dasharray="5,2" d="M583.11,-273.23C639.25,-263.58 753.68,-247.07 788,-266.04 825.88,-286.97 844.96,-339.76 851.42,-361.48"/>
<polygon fill="#9a32cd" stroke="#9a32cd" points="582.26,-269.83 573.02,-275 583.47,-276.72 582.26,-269.83"/>
<text text-anchor="middle" x="723" y="-324.04" font-family="Helvetica,sans-Serif" font-size="10.00"> _depth</text>
<text text-anchor="middle" x="723" y="-313.04" font-family="Helvetica,sans-Serif" font-size="10.00">_height</text>
<text text-anchor="middle" x="723" y="-302.04" font-family="Helvetica,sans-Serif" font-size="10.00">_image_plane_size</text>
<text text-anchor="middle" x="723" y="-291.04" font-family="Helvetica,sans-Serif" font-size="10.00">_num_dims</text>
<text text-anchor="middle" x="723" y="-280.04" font-family="Helvetica,sans-Serif" font-size="10.00">_num_stokes</text>
<text text-anchor="middle" x="723" y="-269.04" font-family="Helvetica,sans-Serif" font-size="10.00">_width</text>
</g>
<!-- Node20 -->
<g id="node20" class="node">
<title>Node20</title>
<g id="a_node20"><a xlink:title=" ">
<polygon fill="none" stroke="#bfbfbf" points="478.5,-220.04 478.5,-250.04 622.5,-250.04 622.5,-220.04 478.5,-220.04"/>
<text text-anchor="start" x="486.5" y="-238.04" font-family="Helvetica,sans-Serif" font-size="10.00">std::shared_ptr&lt; casacore</text>
<text text-anchor="middle" x="550.5" y="-227.04" font-family="Helvetica,sans-Serif" font-size="10.00">::CoordinateSystem &gt;</text>
</a>
</g>
</g>
<!-- Node20&#45;&gt;Node2 -->
<g id="edge23" class="edge">
<title>Node20&#45;&gt;Node2</title>
<path fill="none" stroke="#9a32cd" stroke-dasharray="5,2" d="M627.16,-218.58C676.65,-212.08 740.66,-212.11 788,-242.04 831.8,-269.73 847.85,-336.38 852.44,-361.37"/>
<polygon fill="#9a32cd" stroke="#9a32cd" points="626.56,-215.13 617.15,-220.01 627.55,-222.06 626.56,-215.13"/>
<text text-anchor="middle" x="723" y="-245.04" font-family="Helvetica,sans-Serif" font-size="10.00"> _coord_sys</text>
</g>
<!-- Node21 -->
<g id="node21" class="node">
<title>Node21</title>
<g id="a_node21"><a xlink:title=" ">
<polygon fill="none" stroke="#bfbfbf" points="474.5,-171.04 474.5,-201.04 626.5,-201.04 626.5,-171.04 474.5,-171.04"/>
<text text-anchor="start" x="482.5" y="-189.04" font-family="Helvetica,sans-Serif" font-size="10.00">std::shared_ptr&lt; casacore</text>
<text text-anchor="middle" x="550.5" y="-178.04" font-family="Helvetica,sans-Serif" font-size="10.00">::ImageInterface&lt; float &gt; &gt;</text>
</a>
</g>
</g>
<!-- Node21&#45;&gt;Node2 -->
<g id="edge25" class="edge">
<title>Node21&#45;&gt;Node2</title>
<path fill="none" stroke="#9a32cd" stroke-dasharray="5,2" d="M635.86,-169.93C684.72,-165.4 744.9,-168.56 788,-200.04 842.48,-239.83 851.99,-330.98 853.65,-361.15"/>
<polygon fill="#9a32cd" stroke="#9a32cd" points="635.19,-166.48 625.61,-171.01 635.92,-173.44 635.19,-166.48"/>
<text text-anchor="middle" x="723" y="-203.04" font-family="Helvetica,sans-Serif" font-size="10.00"> _computed_stokes_image</text>
</g>
<!-- Node22 -->
<g id="node22" class="node">
<title>Node22</title>
<g id="a_node22"><a xlink:title=" ">
<polygon fill="none" stroke="#bfbfbf" points="518,-88.54 518,-107.54 583,-107.54 583,-88.54 518,-88.54"/>
<text text-anchor="middle" x="550.5" y="-95.54" font-family="Helvetica,sans-Serif" font-size="10.00">std::string</text>
</a>
</g>
</g>
<!-- Node22&#45;&gt;Node2 -->
<g id="edge27" class="edge">
<title>Node22&#45;&gt;Node2</title>
<path fill="none" stroke="#9a32cd" stroke-dasharray="5,2" d="M593.33,-91.44C653.09,-83.01 758.88,-72.06 788,-95.04 831.51,-129.37 849.52,-316.56 853.25,-361.39"/>
<polygon fill="#9a32cd" stroke="#9a32cd" points="592.49,-88.03 583.1,-92.92 593.49,-94.95 592.49,-88.03"/>
<text text-anchor="middle" x="723" y="-120.04" font-family="Helvetica,sans-Serif" font-size="10.00"> _directory</text>
<text text-anchor="middle" x="723" y="-109.04" font-family="Helvetica,sans-Serif" font-size="10.00">_filename</text>
<text text-anchor="middle" x="723" y="-98.04" font-family="Helvetica,sans-Serif" font-size="10.00">_hdu</text>
</g>
<!-- Node23 -->
<g id="node23" class="node">
<title>Node23</title>
<g id="a_node23"><a xlink:title=" ">
<polygon fill="none" stroke="#bfbfbf" points="209,-83.04 209,-113.04 313,-113.04 313,-83.04 209,-83.04"/>
<text text-anchor="start" x="217" y="-101.04" font-family="Helvetica,sans-Serif" font-size="10.00">std::basic_string&lt;</text>
<text text-anchor="middle" x="261" y="-90.04" font-family="Helvetica,sans-Serif" font-size="10.00"> Char &gt;</text>
</a>
</g>
</g>
<!-- Node23&#45;&gt;Node22 -->
<g id="edge28" class="edge">
<title>Node23&#45;&gt;Node22</title>
<path fill="none" stroke="midnightblue" d="M323.1,-98.04C382.63,-98.04 470.8,-98.04 517.6,-98.04"/>
<polygon fill="midnightblue" stroke="midnightblue" points="323.07,-94.54 313.07,-98.04 323.07,-101.54 323.07,-94.54"/>
</g>
<!-- Node24&#45;&gt;Node2 -->
<g id="edge29" class="edge">
<title>Node24&#45;&gt;Node2</title>
<path fill="none" stroke="#9a32cd" stroke-dasharray="5,2" d="M650.42,-645.58C697.18,-645.18 750.78,-636.2 788,-604.04 823.31,-573.53 847.01,-420.71 852.69,-380.66"/>
<polygon fill="#9a32cd" stroke="#9a32cd" points="650.26,-642.08 640.24,-645.54 650.23,-649.08 650.26,-642.08"/>
<text text-anchor="middle" x="723" y="-648.04" font-family="Helvetica,sans-Serif" font-size="10.00"> _z_stats</text>
</g>
<!-- Node25 -->
<g id="node25" class="node">
<title>Node25</title>
<g id="a_node25"><a xlink:title=" ">
<polygon fill="none" stroke="#bfbfbf" points="519.5,-50.54 519.5,-69.54 581.5,-69.54 581.5,-50.54 519.5,-50.54"/>
<text text-anchor="middle" x="550.5" y="-57.54" font-family="Helvetica,sans-Serif" font-size="10.00">DataType</text>
</a>
</g>
</g>
<!-- Node25&#45;&gt;Node2 -->
<g id="edge31" class="edge">
<title>Node25&#45;&gt;Node2</title>
<path fill="none" stroke="#9a32cd" stroke-dasharray="5,2" d="M592.08,-55.28C651.74,-49.23 759.2,-42.19 788,-66.04 835.26,-105.16 850.56,-313.81 853.46,-361.38"/>
<polygon fill="#9a32cd" stroke="#9a32cd" points="591.45,-51.83 581.87,-56.36 592.18,-58.79 591.45,-51.83"/>
<text text-anchor="middle" x="723" y="-69.04" font-family="Helvetica,sans-Serif" font-size="10.00"> _data_type</text>
</g>
<!-- Node26 -->
<g id="node26" class="node">
<title>Node26</title>
<g id="a_node26"><a xlink:title=" ">
<polygon fill="none" stroke="#bfbfbf" points="505.5,-12.54 505.5,-31.54 595.5,-31.54 595.5,-12.54 505.5,-12.54"/>
<text text-anchor="middle" x="550.5" y="-19.54" font-family="Helvetica,sans-Serif" font-size="10.00">GaussianBeam</text>
</a>
</g>
</g>
<!-- Node26&#45;&gt;Node2 -->
<g id="edge32" class="edge">
<title>Node26&#45;&gt;Node2</title>
<path fill="none" stroke="#9a32cd" stroke-dasharray="5,2" d="M594.77,-10.14C647.15,1.4 734.92,11.14 788,-35.04 839.13,-79.51 851.54,-311.29 853.64,-361.45"/>
<polygon fill="#9a32cd" stroke="#9a32cd" points="593.74,-6.79 584.79,-12.46 595.32,-13.61 593.74,-6.79"/>
<text text-anchor="middle" x="723" y="-38.04" font-family="Helvetica,sans-Serif" font-size="10.00"> _history_beam</text>
</g>
</g>
</svg>
