<?xml version="1.0" encoding="UTF-8" standalone="no"?>
<!DOCTYPE svg PUBLIC "-//W3C//DTD SVG 1.1//EN"
 "http://www.w3.org/Graphics/SVG/1.1/DTD/svg11.dtd">
<!-- Generated by graphviz version 2.43.0 (0)
 -->
<!-- Title: carta::Session::OnCloseFile Pages: 1 -->
<svg width="347pt" height="127pt"
 viewBox="0.00 0.00 347.00 126.50" xmlns="http://www.w3.org/2000/svg" xmlns:xlink="http://www.w3.org/1999/xlink">
<g id="graph0" class="graph" transform="scale(1 1) rotate(0) translate(4 122.5)">
<title>carta::Session::OnCloseFile</title>
<!-- Node1 -->
<g id="node1" class="node">
<title>Node1</title>
<g id="a_node1"><a xlink:title=" ">
<polygon fill="#bfbfbf" stroke="black" points="0,-44.5 0,-63.5 149,-63.5 149,-44.5 0,-44.5"/>
<text text-anchor="middle" x="74.5" y="-51.5" font-family="Helvetica,sans-Serif" font-size="10.00">carta::Session::OnCloseFile</text>
</a>
</g>
</g>
<!-- Node2 -->
<g id="node2" class="node">
<title>Node2</title>
<g id="a_node2"><a xlink:href="classcarta_1_1Session.html#a52f5c3d0a8e54f6e14f54d5b2b4d1915" target="_top" xlink:title=" ">
<polygon fill="none" stroke="black" points="185,-88 185,-118 339,-118 339,-88 185,-88"/>
<text text-anchor="start" x="193" y="-106" font-family="Helvetica,sans-Serif" font-size="10.00">carta::Session::CheckCancel</text>
<text text-anchor="middle" x="262" y="-95" font-family="Helvetica,sans-Serif" font-size="10.00">AnimationOnFileClose</text>
</a>
</g>
</g>
<!-- Node1&#45;&gt;Node2 -->
<g id="edge1" class="edge">
<title>Node1&#45;&gt;Node2</title>
<path fill="none" stroke="midnightblue" d="M111.71,-63.56C135.19,-69.77 166.5,-78.04 194.38,-85.4"/>
<polygon fill="midnightblue" stroke="midnightblue" points="193.51,-88.79 204.07,-87.96 195.3,-82.03 193.51,-88.79"/>
</g>
<!-- Node3 -->
<g id="node3" class="node">
<title>Node3</title>
<g id="a_node3"><a xlink:href="classcarta_1_1CursorSettings.html#a5ec299f2396ffb9ec97350328cbfd241" target="_top" xlink:title=" ">
<polygon fill="none" stroke="black" points="202.5,-39 202.5,-69 321.5,-69 321.5,-39 202.5,-39"/>
<text text-anchor="start" x="210.5" y="-57" font-family="Helvetica,sans-Serif" font-size="10.00">carta::CursorSettings</text>
<text text-anchor="middle" x="262" y="-46" font-family="Helvetica,sans-Serif" font-size="10.00">::ClearSettings</text>
</a>
</g>
</g>
<!-- Node1&#45;&gt;Node3 -->
<g id="edge2" class="edge">
<title>Node1&#45;&gt;Node3</title>
<path fill="none" stroke="midnightblue" d="M149.08,-54C163.33,-54 178.2,-54 192.28,-54"/>
<polygon fill="midnightblue" stroke="midnightblue" points="192.37,-57.5 202.37,-54 192.37,-50.5 192.37,-57.5"/>
</g>
<!-- Node4 -->
<g id="node4" class="node">
<title>Node4</title>
<g id="a_node4"><a xlink:href="classcarta_1_1Session.html#aab36b319ffe1c796a753ea63b1eee575" target="_top" xlink:title=" ">
<polygon fill="none" stroke="black" points="185,-0.5 185,-19.5 339,-19.5 339,-0.5 185,-0.5"/>
<text text-anchor="middle" x="262" y="-7.5" font-family="Helvetica,sans-Serif" font-size="10.00">carta::Session::DeleteFrame</text>
</a>
</g>
</g>
<!-- Node1&#45;&gt;Node4 -->
<g id="edge3" class="edge">
<title>Node1&#45;&gt;Node4</title>
<path fill="none" stroke="midnightblue" d="M115.75,-44.45C143.71,-37.82 181.15,-28.94 211.01,-21.86"/>
<polygon fill="midnightblue" stroke="midnightblue" points="211.91,-25.24 220.83,-19.53 210.29,-18.43 211.91,-25.24"/>
</g>
</g>
</svg>
