<?xml version="1.0" encoding="UTF-8" standalone="no"?>
<!DOCTYPE svg PUBLIC "-//W3C//DTD SVG 1.1//EN"
 "http://www.w3.org/Graphics/SVG/1.1/DTD/svg11.dtd">
<!-- Generated by graphviz version 2.43.0 (0)
 -->
<!-- Title: carta::RegionHandler::GetRegionHistogramData Pages: 1 -->
<svg width="705pt" height="284pt"
 viewBox="0.00 0.00 705.00 283.50" xmlns="http://www.w3.org/2000/svg" xmlns:xlink="http://www.w3.org/1999/xlink">
<g id="graph0" class="graph" transform="scale(1 1) rotate(0) translate(4 279.5)">
<title>carta::RegionHandler::GetRegionHistogramData</title>
<!-- Node1 -->
<g id="node1" class="node">
<title>Node1</title>
<g id="a_node1"><a xlink:title=" ">
<polygon fill="#bfbfbf" stroke="black" points="0,-109 0,-139 148,-139 148,-109 0,-109"/>
<text text-anchor="start" x="8" y="-127" font-family="Helvetica,sans-Serif" font-size="10.00">carta::RegionHandler</text>
<text text-anchor="middle" x="74" y="-116" font-family="Helvetica,sans-Serif" font-size="10.00">::GetRegionHistogramData</text>
</a>
</g>
</g>
<!-- Node2 -->
<g id="node2" class="node">
<title>Node2</title>
<g id="a_node2"><a xlink:href="classcarta_1_1RegionHandler.html#a5c734366cb3b4b307c54a66251dd270c" target="_top" xlink:title=" ">
<polygon fill="none" stroke="black" points="211.5,-229 211.5,-259 330.5,-259 330.5,-229 211.5,-229"/>
<text text-anchor="start" x="219.5" y="-247" font-family="Helvetica,sans-Serif" font-size="10.00">carta::RegionHandler</text>
<text text-anchor="middle" x="271" y="-236" font-family="Helvetica,sans-Serif" font-size="10.00">::ApplyRegionToFile</text>
</a>
</g>
</g>
<!-- Node1&#45;&gt;Node2 -->
<g id="edge1" class="edge">
<title>Node1&#45;&gt;Node2</title>
<path fill="none" stroke="midnightblue" d="M89.93,-139.34C109.81,-159 146.79,-193.05 184,-214 191.43,-218.18 199.54,-221.93 207.72,-225.25"/>
<polygon fill="midnightblue" stroke="midnightblue" points="206.73,-228.62 217.32,-228.94 209.24,-222.09 206.73,-228.62"/>
</g>
<!-- Node5 -->
<g id="node5" class="node">
<title>Node5</title>
<g id="a_node5"><a xlink:href="classcarta_1_1RegionHandler.html#a8c787facbcb265d7fa434e05324f2c9e" target="_top" xlink:title=" ">
<polygon fill="none" stroke="black" points="408.5,-196 408.5,-226 527.5,-226 527.5,-196 408.5,-196"/>
<text text-anchor="start" x="416.5" y="-214" font-family="Helvetica,sans-Serif" font-size="10.00">carta::RegionHandler</text>
<text text-anchor="middle" x="468" y="-203" font-family="Helvetica,sans-Serif" font-size="10.00">::RegionFileIdsValid</text>
</a>
</g>
</g>
<!-- Node1&#45;&gt;Node5 -->
<g id="edge13" class="edge">
<title>Node1&#45;&gt;Node5</title>
<path fill="none" stroke="midnightblue" d="M97.72,-139.14C119.04,-152.54 152.32,-171.42 184,-181 254.93,-202.46 339.9,-209.07 398.1,-210.86"/>
<polygon fill="midnightblue" stroke="midnightblue" points="398.2,-214.37 408.29,-211.14 398.38,-207.37 398.2,-214.37"/>
</g>
<!-- Node7 -->
<g id="node7" class="node">
<title>Node7</title>
<g id="a_node7"><a xlink:href="namespacecarta.html#a96f7cab56516141317895bada342c0b1" target="_top" xlink:title=" ">
<polygon fill="none" stroke="black" points="211.5,-152.5 211.5,-171.5 330.5,-171.5 330.5,-152.5 211.5,-152.5"/>
<text text-anchor="middle" x="271" y="-159.5" font-family="Helvetica,sans-Serif" font-size="10.00">carta::CalcBasicStats</text>
</a>
</g>
</g>
<!-- Node1&#45;&gt;Node7 -->
<g id="edge7" class="edge">
<title>Node1&#45;&gt;Node7</title>
<path fill="none" stroke="midnightblue" d="M148.17,-138.26C168.87,-142.29 191.14,-146.63 210.91,-150.48"/>
<polygon fill="midnightblue" stroke="midnightblue" points="210.51,-153.97 220.99,-152.45 211.85,-147.1 210.51,-153.97"/>
</g>
<!-- Node10 -->
<g id="node10" class="node">
<title>Node10</title>
<g id="a_node10"><a xlink:href="namespacecarta.html#af038996ac9ec0abf3fe540ed6e37fde3" target="_top" xlink:title=" ">
<polygon fill="none" stroke="black" points="211.5,-114.5 211.5,-133.5 330.5,-133.5 330.5,-114.5 211.5,-114.5"/>
<text text-anchor="middle" x="271" y="-121.5" font-family="Helvetica,sans-Serif" font-size="10.00">carta::CalcHistogram</text>
</a>
</g>
</g>
<!-- Node1&#45;&gt;Node10 -->
<g id="edge10" class="edge">
<title>Node1&#45;&gt;Node10</title>
<path fill="none" stroke="midnightblue" d="M148.17,-124C165.44,-124 183.8,-124 200.89,-124"/>
<polygon fill="midnightblue" stroke="midnightblue" points="201.34,-127.5 211.34,-124 201.34,-120.5 201.34,-127.5"/>
</g>
<!-- Node11 -->
<g id="node11" class="node">
<title>Node11</title>
<g id="a_node11"><a xlink:href="classcarta_1_1Timer.html#aad2702a80259920b910fb76642f97b88" target="_top" xlink:title=" ">
<polygon fill="none" stroke="black" points="211,-76.5 211,-95.5 331,-95.5 331,-76.5 211,-76.5"/>
<text text-anchor="middle" x="271" y="-83.5" font-family="Helvetica,sans-Serif" font-size="10.00">carta::Timer::Elapsed</text>
</a>
</g>
</g>
<!-- Node1&#45;&gt;Node11 -->
<g id="edge11" class="edge">
<title>Node1&#45;&gt;Node11</title>
<path fill="none" stroke="midnightblue" d="M148.17,-109.74C168.87,-105.71 191.14,-101.37 210.91,-97.52"/>
<polygon fill="midnightblue" stroke="midnightblue" points="211.85,-100.9 220.99,-95.55 210.51,-94.03 211.85,-100.9"/>
</g>
<!-- Node12 -->
<g id="node12" class="node">
<title>Node12</title>
<g id="a_node12"><a xlink:href="Message_8cc.html#aadf644bd365f0198b09a7196f9990511" target="_top" xlink:title=" ">
<polygon fill="none" stroke="black" points="230,-38.5 230,-57.5 312,-57.5 312,-38.5 230,-38.5"/>
<text text-anchor="middle" x="271" y="-45.5" font-family="Helvetica,sans-Serif" font-size="10.00">FillHistogram</text>
</a>
</g>
</g>
<!-- Node1&#45;&gt;Node12 -->
<g id="edge12" class="edge">
<title>Node1&#45;&gt;Node12</title>
<path fill="none" stroke="midnightblue" d="M99.25,-108.93C120.8,-96.13 153.5,-78.12 184,-67 195.45,-62.83 208.1,-59.41 220.1,-56.68"/>
<polygon fill="midnightblue" stroke="midnightblue" points="220.95,-60.08 229.99,-54.55 219.47,-53.24 220.95,-60.08"/>
</g>
<!-- Node13 -->
<g id="node13" class="node">
<title>Node13</title>
<g id="a_node13"><a xlink:href="classMessage.html#af13c35c35a5f3fd50a68319be9287611" target="_top" xlink:title=" ">
<polygon fill="none" stroke="black" points="184,-0.5 184,-19.5 358,-19.5 358,-0.5 184,-0.5"/>
<text text-anchor="middle" x="271" y="-7.5" font-family="Helvetica,sans-Serif" font-size="10.00">Message::RegionHistogramData</text>
</a>
</g>
</g>
<!-- Node1&#45;&gt;Node13 -->
<g id="edge14" class="edge">
<title>Node1&#45;&gt;Node13</title>
<path fill="none" stroke="midnightblue" d="M87.76,-108.88C106.58,-87.62 143.88,-49.24 184,-29 188.66,-26.65 193.6,-24.59 198.68,-22.78"/>
<polygon fill="midnightblue" stroke="midnightblue" points="200.1,-26 208.54,-19.61 197.95,-19.34 200.1,-26"/>
</g>
<!-- Node3 -->
<g id="node3" class="node">
<title>Node3</title>
<g id="a_node3"><a xlink:href="classcarta_1_1RegionHandler.html#a4d3eaa8da979a4b0640aa3b598a9415b" target="_top" xlink:title=" ">
<polygon fill="none" stroke="black" points="408.5,-245 408.5,-275 527.5,-275 527.5,-245 408.5,-245"/>
<text text-anchor="start" x="416.5" y="-263" font-family="Helvetica,sans-Serif" font-size="10.00">carta::RegionHandler</text>
<text text-anchor="middle" x="468" y="-252" font-family="Helvetica,sans-Serif" font-size="10.00">::GetRegion</text>
</a>
</g>
</g>
<!-- Node2&#45;&gt;Node3 -->
<g id="edge2" class="edge">
<title>Node2&#45;&gt;Node3</title>
<path fill="none" stroke="midnightblue" d="M330.51,-248.8C351.81,-250.55 376.09,-252.54 398.21,-254.36"/>
<polygon fill="midnightblue" stroke="midnightblue" points="397.95,-257.85 408.2,-255.18 398.52,-250.87 397.95,-257.85"/>
</g>
<!-- Node2&#45;&gt;Node5 -->
<g id="edge4" class="edge">
<title>Node2&#45;&gt;Node5</title>
<path fill="none" stroke="midnightblue" d="M330.51,-234.1C351.81,-230.49 376.09,-226.38 398.21,-222.64"/>
<polygon fill="midnightblue" stroke="midnightblue" points="398.92,-226.07 408.2,-220.95 397.75,-219.17 398.92,-226.07"/>
</g>
<!-- Node4 -->
<g id="node4" class="node">
<title>Node4</title>
<g id="a_node4"><a xlink:href="classcarta_1_1RegionHandler.html#a9e8b41c9fe29c95b66a44f78490bbcae" target="_top" xlink:title=" ">
<polygon fill="none" stroke="black" points="578,-245 578,-275 697,-275 697,-245 578,-245"/>
<text text-anchor="start" x="586" y="-263" font-family="Helvetica,sans-Serif" font-size="10.00">carta::RegionHandler</text>
<text text-anchor="middle" x="637.5" y="-252" font-family="Helvetica,sans-Serif" font-size="10.00">::RegionSet</text>
</a>
</g>
</g>
<!-- Node3&#45;&gt;Node4 -->
<g id="edge3" class="edge">
<title>Node3&#45;&gt;Node4</title>
<path fill="none" stroke="midnightblue" d="M527.58,-260C540.59,-260 554.49,-260 567.85,-260"/>
<polygon fill="midnightblue" stroke="midnightblue" points="567.95,-263.5 577.95,-260 567.95,-256.5 567.95,-263.5"/>
</g>
<!-- Node5&#45;&gt;Node4 -->
<g id="edge6" class="edge">
<title>Node5&#45;&gt;Node4</title>
<path fill="none" stroke="midnightblue" d="M520.62,-226.1C537.9,-231.16 557.32,-236.84 575.26,-242.08"/>
<polygon fill="midnightblue" stroke="midnightblue" points="574.47,-245.5 585.05,-244.95 576.43,-238.78 574.47,-245.5"/>
</g>
<!-- Node6 -->
<g id="node6" class="node">
<title>Node6</title>
<g id="a_node6"><a xlink:href="classcarta_1_1RegionHandler.html#a16e8f0e73ba63be909517151bf11a450" target="_top" xlink:title=" ">
<polygon fill="none" stroke="black" points="578,-196 578,-226 697,-226 697,-196 578,-196"/>
<text text-anchor="start" x="586" y="-214" font-family="Helvetica,sans-Serif" font-size="10.00">carta::RegionHandler</text>
<text text-anchor="middle" x="637.5" y="-203" font-family="Helvetica,sans-Serif" font-size="10.00">::FrameSet</text>
</a>
</g>
</g>
<!-- Node5&#45;&gt;Node6 -->
<g id="edge5" class="edge">
<title>Node5&#45;&gt;Node6</title>
<path fill="none" stroke="midnightblue" d="M527.58,-211C540.59,-211 554.49,-211 567.85,-211"/>
<polygon fill="midnightblue" stroke="midnightblue" points="567.95,-214.5 577.95,-211 567.95,-207.5 567.95,-214.5"/>
</g>
<!-- Node8 -->
<g id="node8" class="node">
<title>Node8</title>
<g id="a_node8"><a xlink:href="classcarta_1_1BasicStatsCalculator.html#a29d141b4a8a8e26a6ef58c982447efea" target="_top" xlink:title=" ">
<polygon fill="none" stroke="black" points="394,-147 394,-177 542,-177 542,-147 394,-147"/>
<text text-anchor="start" x="402" y="-165" font-family="Helvetica,sans-Serif" font-size="10.00">carta::BasicStatsCalculator</text>
<text text-anchor="middle" x="468" y="-154" font-family="Helvetica,sans-Serif" font-size="10.00">::GetStats</text>
</a>
</g>
</g>
<!-- Node7&#45;&gt;Node8 -->
<g id="edge8" class="edge">
<title>Node7&#45;&gt;Node8</title>
<path fill="none" stroke="midnightblue" d="M330.51,-162C347.11,-162 365.51,-162 383.29,-162"/>
<polygon fill="midnightblue" stroke="midnightblue" points="383.67,-165.5 393.67,-162 383.67,-158.5 383.67,-165.5"/>
</g>
<!-- Node9 -->
<g id="node9" class="node">
<title>Node9</title>
<g id="a_node9"><a xlink:href="classcarta_1_1BasicStatsCalculator.html#a14873f9d84d2abb0fabe85f4b70d0a44" target="_top" xlink:title=" ">
<polygon fill="none" stroke="black" points="394,-98 394,-128 542,-128 542,-98 394,-98"/>
<text text-anchor="start" x="402" y="-116" font-family="Helvetica,sans-Serif" font-size="10.00">carta::BasicStatsCalculator</text>
<text text-anchor="middle" x="468" y="-105" font-family="Helvetica,sans-Serif" font-size="10.00">::reduce</text>
</a>
</g>
</g>
<!-- Node7&#45;&gt;Node9 -->
<g id="edge9" class="edge">
<title>Node7&#45;&gt;Node9</title>
<path fill="none" stroke="midnightblue" d="M317.18,-152.47C330.37,-149.57 344.79,-146.27 358,-143 373.16,-139.24 389.42,-134.92 404.64,-130.75"/>
<polygon fill="midnightblue" stroke="midnightblue" points="405.76,-134.07 414.47,-128.04 403.9,-127.33 405.76,-134.07"/>
</g>
</g>
</svg>
