<?xml version="1.0" encoding="UTF-8" standalone="no"?>
<!DOCTYPE svg PUBLIC "-//W3C//DTD SVG 1.1//EN"
 "http://www.w3.org/Graphics/SVG/1.1/DTD/svg11.dtd">
<!-- Generated by graphviz version 2.43.0 (0)
 -->
<!-- Title: carta::Ds9ImportExport::SetRegion Pages: 1 -->
<!--zoomable 614 -->
<svg id="main" version="1.1" xmlns="http://www.w3.org/2000/svg" xmlns:xlink="http://www.w3.org/1999/xlink" xml:space="preserve" onload="init(evt)">
<style type="text/css"><![CDATA[
.edge:hover path { stroke: red; }
.edge:hover polygon { stroke: red; fill: red; }
]]></style>
<script type="text/javascript"><![CDATA[
var edges = document.getElementsByTagName('g');
if (edges && edges.length) {
  for (var i=0;i<edges.length;i++) {
    if (edges[i].id.substr(0,4)=='edge') {
      edges[i].setAttribute('class','edge');
    }
  }
}
]]></script>
        <defs>
                <circle id="rim" cx="0" cy="0" r="7"/>
                <circle id="rim2" cx="0" cy="0" r="3.5"/>
                <g id="zoomPlus">
                        <use xlink:href="#rim" fill="#404040">
                                <set attributeName="fill" to="#808080" begin="zoomplus.mouseover" end="zoomplus.mouseout"/>
                        </use>
                        <path d="M-4,0h8M0,-4v8" fill="none" stroke="white" stroke-width="1.5" pointer-events="none"/>
                </g>
                <g id="zoomMin">
                        <use xlink:href="#rim" fill="#404040">
                                <set attributeName="fill" to="#808080" begin="zoomminus.mouseover" end="zoomminus.mouseout"/>
                        </use>
                        <path d="M-4,0h8" fill="none" stroke="white" stroke-width="1.5" pointer-events="none"/>
                </g>
                <g id="dirArrow">
                        <path fill="none" stroke="white" stroke-width="1.5" d="M0,-3.0v7 M-2.5,-0.5L0,-3.0L2.5,-0.5"/>
                </g>
               <g id="resetDef">
                       <use xlink:href="#rim2" fill="#404040">
                               <set attributeName="fill" to="#808080" begin="reset.mouseover" end="reset.mouseout"/>
                       </use>
               </g>
        </defs>

<script type="text/javascript">
var viewWidth = 1071;
var viewHeight = 614;
var sectionId = 'dynsection-55';
</script>
<script xlink:href="svgpan.js"/>
<svg id="graph" class="graph">
<g id="viewport">
<title>carta::Ds9ImportExport::SetRegion</title>
<!-- Node1 -->
<g id="node1" class="node">
<title>Node1</title>
<g id="a_node1"><a xlink:title=" ">
<polygon fill="#bfbfbf" stroke="black" points="0,-348.89 0,-378.89 130,-378.89 130,-348.89 0,-348.89"/>
<text text-anchor="start" x="8" y="-366.89" font-family="Helvetica,sans-Serif" font-size="10.00">carta::Ds9ImportExport</text>
<text text-anchor="middle" x="65" y="-355.89" font-family="Helvetica,sans-Serif" font-size="10.00">::SetRegion</text>
</a>
</g>
</g>
<!-- Node2 -->
<g id="node2" class="node">
<title>Node2</title>
<g id="a_node2"><a xlink:href="classcarta_1_1RegionImportExport.html#ab14406bc47f8ef9a23afba269ed32634" target="_top" xlink:title=" ">
<polygon fill="none" stroke="black" points="166,-575.89 166,-605.89 311,-605.89 311,-575.89 166,-575.89"/>
<text text-anchor="start" x="174" y="-593.89" font-family="Helvetica,sans-Serif" font-size="10.00">carta::RegionImportExport</text>
<text text-anchor="middle" x="238.5" y="-582.89" font-family="Helvetica,sans-Serif" font-size="10.00">::GetTextPosition</text>
</a>
</g>
</g>
<!-- Node1&#45;&gt;Node2 -->
<g id="edge1" class="edge">
<title>Node1&#45;&gt;Node2</title>
<path fill="none" stroke="midnightblue" d="M69.75,-378.91C79.51,-415.06 108.99,-507.87 166,-560.89 170.07,-564.67 174.68,-568.02 179.55,-570.96"/>
<polygon fill="midnightblue" stroke="midnightblue" points="178.1,-574.15 188.56,-575.85 181.44,-568 178.1,-574.15"/>
</g>
<!-- Node3 -->
<g id="node3" class="node">
<title>Node3</title>
<g id="a_node3"><a xlink:href="classcarta_1_1Ds9ImportExport.html#a7c0d9e97465879eacb160e80fa8730a2" target="_top" xlink:title=" ">
<polygon fill="none" stroke="black" points="354.5,-411.89 354.5,-441.89 484.5,-441.89 484.5,-411.89 354.5,-411.89"/>
<text text-anchor="start" x="362.5" y="-429.89" font-family="Helvetica,sans-Serif" font-size="10.00">carta::Ds9ImportExport</text>
<text text-anchor="middle" x="419.5" y="-418.89" font-family="Helvetica,sans-Serif" font-size="10.00">::ImportCircleRegion</text>
</a>
</g>
</g>
<!-- Node1&#45;&gt;Node3 -->
<g id="edge2" class="edge">
<title>Node1&#45;&gt;Node3</title>
<path fill="none" stroke="midnightblue" d="M105.39,-378.92C123.6,-385.34 145.65,-392.37 166,-396.89 225.17,-410.03 293.49,-417.7 344.14,-422"/>
<polygon fill="midnightblue" stroke="midnightblue" points="344.09,-425.51 354.35,-422.84 344.67,-418.53 344.09,-425.51"/>
</g>
<!-- Node4 -->
<g id="node4" class="node">
<title>Node4</title>
<g id="a_node4"><a xlink:href="classcarta_1_1Ds9ImportExport.html#a9598157cad266cc8ee22e7157835f2f7" target="_top" xlink:title=" ">
<polygon fill="none" stroke="black" points="543,-450.89 543,-480.89 673,-480.89 673,-450.89 543,-450.89"/>
<text text-anchor="start" x="551" y="-468.89" font-family="Helvetica,sans-Serif" font-size="10.00">carta::Ds9ImportExport</text>
<text text-anchor="middle" x="608" y="-457.89" font-family="Helvetica,sans-Serif" font-size="10.00">::ImportEllipseRegion</text>
</a>
</g>
</g>
<!-- Node1&#45;&gt;Node4 -->
<g id="edge26" class="edge">
<title>Node1&#45;&gt;Node4</title>
<path fill="none" stroke="midnightblue" d="M86.73,-378.98C106.22,-392.39 136.7,-411.45 166,-421.89 289.18,-465.78 443.17,-470.78 532.77,-469.19"/>
<polygon fill="midnightblue" stroke="midnightblue" points="532.91,-472.69 542.84,-468.98 532.77,-465.69 532.91,-472.69"/>
</g>
<!-- Node11 -->
<g id="node11" class="node">
<title>Node11</title>
<g id="a_node11"><a xlink:href="classcarta_1_1Ds9ImportExport.html#ae033676706102c4f69a88711c1c6d9da" target="_top" xlink:title=" ">
<polygon fill="none" stroke="black" points="171.5,-247.89 171.5,-277.89 305.5,-277.89 305.5,-247.89 171.5,-247.89"/>
<text text-anchor="start" x="179.5" y="-265.89" font-family="Helvetica,sans-Serif" font-size="10.00">carta::Ds9ImportExport</text>
<text text-anchor="middle" x="238.5" y="-254.89" font-family="Helvetica,sans-Serif" font-size="10.00">::ImportCompassRegion</text>
</a>
</g>
</g>
<!-- Node1&#45;&gt;Node11 -->
<g id="edge10" class="edge">
<title>Node1&#45;&gt;Node11</title>
<path fill="none" stroke="midnightblue" d="M84.71,-348.7C104.21,-333.34 136.04,-309.55 166,-292.89 172.87,-289.08 180.32,-285.44 187.73,-282.1"/>
<polygon fill="midnightblue" stroke="midnightblue" points="189.28,-285.24 197.05,-278.04 186.49,-278.83 189.28,-285.24"/>
</g>
<!-- Node14 -->
<g id="node14" class="node">
<title>Node14</title>
<g id="a_node14"><a xlink:href="classcarta_1_1Ds9ImportExport.html#a1d17ac2c72ac487331c6bdd997df56da" target="_top" xlink:title=" ">
<polygon fill="none" stroke="black" points="352,-247.89 352,-277.89 487,-277.89 487,-247.89 352,-247.89"/>
<text text-anchor="start" x="360" y="-265.89" font-family="Helvetica,sans-Serif" font-size="10.00">carta::Ds9ImportExport</text>
<text text-anchor="middle" x="419.5" y="-254.89" font-family="Helvetica,sans-Serif" font-size="10.00">::ImportStyleParameters</text>
</a>
</g>
</g>
<!-- Node1&#45;&gt;Node14 -->
<g id="edge46" class="edge">
<title>Node1&#45;&gt;Node14</title>
<path fill="none" stroke="midnightblue" d="M110.14,-348.74C127.48,-342.94 147.61,-336.4 166,-330.89 227.57,-312.46 298.25,-293.62 349.15,-280.46"/>
<polygon fill="midnightblue" stroke="midnightblue" points="350.25,-283.79 359.06,-277.9 348.5,-277.01 350.25,-283.79"/>
</g>
<!-- Node21 -->
<g id="node21" class="node">
<title>Node21</title>
<g id="a_node21"><a xlink:href="classcarta_1_1Ds9ImportExport.html#a7a1c09491367f7052a63c65a679765b7" target="_top" xlink:title=" ">
<polygon fill="none" stroke="black" points="543,-401.89 543,-431.89 673,-431.89 673,-401.89 543,-401.89"/>
<text text-anchor="start" x="551" y="-419.89" font-family="Helvetica,sans-Serif" font-size="10.00">carta::Ds9ImportExport</text>
<text text-anchor="middle" x="608" y="-408.89" font-family="Helvetica,sans-Serif" font-size="10.00">::ImportPointRegion</text>
</a>
</g>
</g>
<!-- Node1&#45;&gt;Node21 -->
<g id="edge27" class="edge">
<title>Node1&#45;&gt;Node21</title>
<path fill="none" stroke="midnightblue" d="M130.31,-368.81C213.79,-375.38 363.94,-387.84 492,-401.89 505.16,-403.34 519.14,-405.03 532.66,-406.75"/>
<polygon fill="midnightblue" stroke="midnightblue" points="532.52,-410.26 542.88,-408.06 533.41,-403.31 532.52,-410.26"/>
</g>
<!-- Node22 -->
<g id="node22" class="node">
<title>Node22</title>
<g id="a_node22"><a xlink:href="classcarta_1_1Ds9ImportExport.html#a3f073f7079cfc236df596a6741297240" target="_top" xlink:title=" ">
<polygon fill="none" stroke="black" points="534,-352.89 534,-382.89 682,-382.89 682,-352.89 534,-352.89"/>
<text text-anchor="start" x="542" y="-370.89" font-family="Helvetica,sans-Serif" font-size="10.00">carta::Ds9ImportExport</text>
<text text-anchor="middle" x="608" y="-359.89" font-family="Helvetica,sans-Serif" font-size="10.00">::ImportPolygonLineRegion</text>
</a>
</g>
</g>
<!-- Node1&#45;&gt;Node22 -->
<g id="edge31" class="edge">
<title>Node1&#45;&gt;Node22</title>
<path fill="none" stroke="midnightblue" d="M130.18,-364.37C228.2,-365.09 415.21,-366.47 523.61,-367.28"/>
<polygon fill="midnightblue" stroke="midnightblue" points="523.83,-370.78 533.85,-367.35 523.88,-363.78 523.83,-370.78"/>
</g>
<!-- Node23 -->
<g id="node23" class="node">
<title>Node23</title>
<g id="a_node23"><a xlink:href="classcarta_1_1Ds9ImportExport.html#acc993d1c1309ea60c05b847df0eadfcd" target="_top" xlink:title=" ">
<polygon fill="none" stroke="black" points="539.5,-499.89 539.5,-529.89 676.5,-529.89 676.5,-499.89 539.5,-499.89"/>
<text text-anchor="start" x="547.5" y="-517.89" font-family="Helvetica,sans-Serif" font-size="10.00">carta::Ds9ImportExport</text>
<text text-anchor="middle" x="608" y="-506.89" font-family="Helvetica,sans-Serif" font-size="10.00">::ImportRectangleRegion</text>
</a>
</g>
</g>
<!-- Node1&#45;&gt;Node23 -->
<g id="edge35" class="edge">
<title>Node1&#45;&gt;Node23</title>
<path fill="none" stroke="midnightblue" d="M77.71,-378.96C94.71,-399.64 128.34,-436.27 166,-453.89 283.96,-509.1 437.7,-518.06 529.01,-517.73"/>
<polygon fill="midnightblue" stroke="midnightblue" points="529.31,-521.23 539.28,-517.66 529.26,-514.23 529.31,-521.23"/>
</g>
<!-- Node24 -->
<g id="node24" class="node">
<title>Node24</title>
<g id="a_node24"><a xlink:href="classcarta_1_1Ds9ImportExport.html#a507821ef3a4c8908c429c7294880d29b" target="_top" xlink:title=" ">
<polygon fill="none" stroke="black" points="173.5,-198.89 173.5,-228.89 303.5,-228.89 303.5,-198.89 173.5,-198.89"/>
<text text-anchor="start" x="181.5" y="-216.89" font-family="Helvetica,sans-Serif" font-size="10.00">carta::Ds9ImportExport</text>
<text text-anchor="middle" x="238.5" y="-205.89" font-family="Helvetica,sans-Serif" font-size="10.00">::ImportRulerRegion</text>
</a>
</g>
</g>
<!-- Node1&#45;&gt;Node24 -->
<g id="edge40" class="edge">
<title>Node1&#45;&gt;Node24</title>
<path fill="none" stroke="midnightblue" d="M74.09,-348.75C88.88,-322.44 122.79,-268.21 166,-237.89 168.11,-236.41 170.32,-235.02 172.6,-233.7"/>
<polygon fill="midnightblue" stroke="midnightblue" points="174.39,-236.72 181.68,-229.03 171.19,-230.49 174.39,-236.72"/>
</g>
<!-- Node26 -->
<g id="node26" class="node">
<title>Node26</title>
<g id="a_node26"><a xlink:href="classcarta_1_1Ds9ImportExport.html#a2c97fef381891ea233cb193010b79614" target="_top" xlink:title=" ">
<polygon fill="none" stroke="black" points="543,-548.89 543,-578.89 673,-578.89 673,-548.89 543,-548.89"/>
<text text-anchor="start" x="551" y="-566.89" font-family="Helvetica,sans-Serif" font-size="10.00">carta::Ds9ImportExport</text>
<text text-anchor="middle" x="608" y="-555.89" font-family="Helvetica,sans-Serif" font-size="10.00">::ImportVectorRegion</text>
</a>
</g>
</g>
<!-- Node1&#45;&gt;Node26 -->
<g id="edge47" class="edge">
<title>Node1&#45;&gt;Node26</title>
<path fill="none" stroke="midnightblue" d="M73.21,-378.9C87.09,-406.03 120.23,-462.99 166,-490.89 280.01,-560.38 439.96,-569.44 532.61,-567.91"/>
<polygon fill="midnightblue" stroke="midnightblue" points="532.82,-571.41 542.74,-567.7 532.67,-564.41 532.82,-571.41"/>
</g>
<!-- Node27 -->
<g id="node27" class="node">
<title>Node27</title>
<g id="a_node27"><a xlink:href="classcarta_1_1RegionImportExport.html#ace29fa615ac0800a59cfd12c9259d278" target="_top" xlink:title=" ">
<polygon fill="none" stroke="black" points="166,-149.89 166,-179.89 311,-179.89 311,-149.89 166,-149.89"/>
<text text-anchor="start" x="174" y="-167.89" font-family="Helvetica,sans-Serif" font-size="10.00">carta::RegionImportExport</text>
<text text-anchor="middle" x="238.5" y="-156.89" font-family="Helvetica,sans-Serif" font-size="10.00">::ParseRegionParameters</text>
</a>
</g>
</g>
<!-- Node1&#45;&gt;Node27 -->
<g id="edge52" class="edge">
<title>Node1&#45;&gt;Node27</title>
<path fill="none" stroke="midnightblue" d="M70.5,-348.81C81.31,-315.14 111.92,-233.32 166,-188.89 167.56,-187.61 169.18,-186.4 170.87,-185.26"/>
<polygon fill="midnightblue" stroke="midnightblue" points="172.87,-188.14 179.69,-180.03 169.3,-182.11 172.87,-188.14"/>
</g>
<!-- Node28 -->
<g id="node28" class="node">
<title>Node28</title>
<g id="a_node28"><a xlink:href="structcarta_1_1RegionState.html#a0530ad49eec4b1decafae42dd786d095" target="_top" xlink:title=" ">
<polygon fill="none" stroke="black" points="185,-100.89 185,-130.89 292,-130.89 292,-100.89 185,-100.89"/>
<text text-anchor="start" x="193" y="-118.89" font-family="Helvetica,sans-Serif" font-size="10.00">carta::RegionState</text>
<text text-anchor="middle" x="238.5" y="-107.89" font-family="Helvetica,sans-Serif" font-size="10.00">::RegionDefined</text>
</a>
</g>
</g>
<!-- Node1&#45;&gt;Node28 -->
<g id="edge54" class="edge">
<title>Node1&#45;&gt;Node28</title>
<path fill="none" stroke="midnightblue" d="M68.47,-348.64C75.76,-308.51 100.9,-199.02 166,-139.89 168.97,-137.2 172.25,-134.8 175.73,-132.68"/>
<polygon fill="midnightblue" stroke="midnightblue" points="177.51,-135.69 184.71,-127.92 174.23,-129.51 177.51,-135.69"/>
</g>
<!-- Node3&#45;&gt;Node4 -->
<g id="edge3" class="edge">
<title>Node3&#45;&gt;Node4</title>
<path fill="none" stroke="midnightblue" d="M484.68,-440.31C500.21,-443.56 516.94,-447.06 532.89,-450.39"/>
<polygon fill="midnightblue" stroke="midnightblue" points="532.19,-453.83 542.7,-452.45 533.63,-446.97 532.19,-453.83"/>
</g>
<!-- Node5 -->
<g id="node5" class="node">
<title>Node5</title>
<g id="a_node5"><a xlink:href="classcarta_1_1RegionImportExport.html#a4dbf1bb6405ba5cbc0dea6803c3d2eef" target="_top" xlink:title=" ">
<polygon fill="none" stroke="black" points="724,-496.89 724,-526.89 869,-526.89 869,-496.89 724,-496.89"/>
<text text-anchor="start" x="732" y="-514.89" font-family="Helvetica,sans-Serif" font-size="10.00">carta::RegionImportExport</text>
<text text-anchor="middle" x="796.5" y="-503.89" font-family="Helvetica,sans-Serif" font-size="10.00">::ConvertPointToPixels</text>
</a>
</g>
</g>
<!-- Node4&#45;&gt;Node5 -->
<g id="edge4" class="edge">
<title>Node4&#45;&gt;Node5</title>
<path fill="none" stroke="midnightblue" d="M670.07,-480.95C687.55,-485.27 706.74,-490 724.75,-494.44"/>
<polygon fill="midnightblue" stroke="midnightblue" points="724.07,-497.88 734.61,-496.88 725.74,-491.08 724.07,-497.88"/>
</g>
<!-- Node6 -->
<g id="node6" class="node">
<title>Node6</title>
<g id="a_node6"><a xlink:href="classcarta_1_1Ds9ImportExport.html#ac467f316f95fb7df1f782c59834cc104" target="_top" xlink:title=" ">
<polygon fill="none" stroke="black" points="731.5,-447.89 731.5,-477.89 861.5,-477.89 861.5,-447.89 731.5,-447.89"/>
<text text-anchor="start" x="739.5" y="-465.89" font-family="Helvetica,sans-Serif" font-size="10.00">carta::Ds9ImportExport</text>
<text text-anchor="middle" x="796.5" y="-454.89" font-family="Helvetica,sans-Serif" font-size="10.00">::ParamToQuantity</text>
</a>
</g>
</g>
<!-- Node4&#45;&gt;Node6 -->
<g id="edge5" class="edge">
<title>Node4&#45;&gt;Node6</title>
<path fill="none" stroke="midnightblue" d="M673.18,-464.86C688.57,-464.61 705.13,-464.35 720.94,-464.09"/>
<polygon fill="midnightblue" stroke="midnightblue" points="721.26,-467.59 731.2,-463.93 721.14,-460.59 721.26,-467.59"/>
</g>
<!-- Node9 -->
<g id="node9" class="node">
<title>Node9</title>
<g id="a_node9"><a xlink:href="classMessage.html#a0c0bb5e50ad8b90bade291ab17a18cf5" target="_top" xlink:title=" ">
<polygon fill="none" stroke="black" points="751,-409.39 751,-428.39 842,-428.39 842,-409.39 751,-409.39"/>
<text text-anchor="middle" x="796.5" y="-416.39" font-family="Helvetica,sans-Serif" font-size="10.00">Message::Point</text>
</a>
</g>
</g>
<!-- Node4&#45;&gt;Node9 -->
<g id="edge8" class="edge">
<title>Node4&#45;&gt;Node9</title>
<path fill="none" stroke="midnightblue" d="M668.52,-450.89C694.08,-444.45 723.55,-437.03 747.65,-430.95"/>
<polygon fill="midnightblue" stroke="midnightblue" points="748.79,-434.27 757.63,-428.44 747.08,-427.49 748.79,-434.27"/>
</g>
<!-- Node10 -->
<g id="node10" class="node">
<title>Node10</title>
<g id="a_node10"><a xlink:href="classcarta_1_1RegionImportExport.html#a316dd4dbbc4907464ac3ed89c6b41cf5" target="_top" xlink:title=" ">
<polygon fill="none" stroke="black" points="724,-545.89 724,-575.89 869,-575.89 869,-545.89 724,-545.89"/>
<text text-anchor="start" x="732" y="-563.89" font-family="Helvetica,sans-Serif" font-size="10.00">carta::RegionImportExport</text>
<text text-anchor="middle" x="796.5" y="-552.89" font-family="Helvetica,sans-Serif" font-size="10.00">::WorldToPixelLength</text>
</a>
</g>
</g>
<!-- Node4&#45;&gt;Node10 -->
<g id="edge9" class="edge">
<title>Node4&#45;&gt;Node10</title>
<path fill="none" stroke="midnightblue" d="M671.91,-481.03C677.57,-483.56 683.03,-486.49 688,-489.89 709.41,-504.57 702.89,-520.78 724,-535.89 726.67,-537.81 729.51,-539.59 732.44,-541.24"/>
<polygon fill="midnightblue" stroke="midnightblue" points="731,-544.43 741.5,-545.82 734.16,-538.18 731,-544.43"/>
</g>
<!-- Node7 -->
<g id="node7" class="node">
<title>Node7</title>
<g id="a_node7"><a xlink:href="classcarta_1_1Ds9ImportExport.html#a4a6b4a25d131ae9fc0a4f3380e6b6521" target="_top" xlink:title=" ">
<polygon fill="none" stroke="black" points="905,-471.89 905,-501.89 1063,-501.89 1063,-471.89 905,-471.89"/>
<text text-anchor="start" x="913" y="-489.89" font-family="Helvetica,sans-Serif" font-size="10.00">carta::Ds9ImportExport</text>
<text text-anchor="middle" x="984" y="-478.89" font-family="Helvetica,sans-Serif" font-size="10.00">::ConvertTimeFormatToAngle</text>
</a>
</g>
</g>
<!-- Node6&#45;&gt;Node7 -->
<g id="edge6" class="edge">
<title>Node6&#45;&gt;Node7</title>
<path fill="none" stroke="midnightblue" d="M861.6,-471.19C872.26,-472.57 883.49,-474.02 894.63,-475.46"/>
<polygon fill="midnightblue" stroke="midnightblue" points="894.45,-478.96 904.81,-476.78 895.35,-472.02 894.45,-478.96"/>
</g>
<!-- Node8 -->
<g id="node8" class="node">
<title>Node8</title>
<g id="a_node8"><a xlink:href="classcarta_1_1Ds9ImportExport.html#a59d1155bdf996a30a72faed8fc5ef384" target="_top" xlink:title=" ">
<polygon fill="none" stroke="black" points="919,-422.89 919,-452.89 1049,-452.89 1049,-422.89 919,-422.89"/>
<text text-anchor="start" x="927" y="-440.89" font-family="Helvetica,sans-Serif" font-size="10.00">carta::Ds9ImportExport</text>
<text text-anchor="middle" x="984" y="-429.89" font-family="Helvetica,sans-Serif" font-size="10.00">::Ds9ToCasacoreUnit</text>
</a>
</g>
</g>
<!-- Node6&#45;&gt;Node8 -->
<g id="edge7" class="edge">
<title>Node6&#45;&gt;Node8</title>
<path fill="none" stroke="midnightblue" d="M861.6,-454.25C876.8,-452.2 893.15,-450 908.76,-447.9"/>
<polygon fill="midnightblue" stroke="midnightblue" points="909.46,-451.34 918.9,-446.53 908.52,-444.4 909.46,-451.34"/>
</g>
<!-- Node11&#45;&gt;Node3 -->
<g id="edge11" class="edge">
<title>Node11&#45;&gt;Node3</title>
<path fill="none" stroke="midnightblue" d="M256.02,-278.03C287.72,-307.07 357.23,-370.75 394.22,-404.64"/>
<polygon fill="midnightblue" stroke="midnightblue" points="392.28,-407.62 402.02,-411.79 397.01,-402.46 392.28,-407.62"/>
</g>
<!-- Node12 -->
<g id="node12" class="node">
<title>Node12</title>
<g id="a_node12"><a xlink:href="classcarta_1_1RegionImportExport.html#aa00fa80041bcb9cbb45ec2d2209274c1" target="_top" xlink:title=" ">
<polygon fill="none" stroke="black" points="347,-198.89 347,-228.89 492,-228.89 492,-198.89 347,-198.89"/>
<text text-anchor="start" x="355" y="-216.89" font-family="Helvetica,sans-Serif" font-size="10.00">carta::RegionImportExport</text>
<text text-anchor="middle" x="419.5" y="-205.89" font-family="Helvetica,sans-Serif" font-size="10.00">::ImportCompassStyle</text>
</a>
</g>
</g>
<!-- Node11&#45;&gt;Node12 -->
<g id="edge12" class="edge">
<title>Node11&#45;&gt;Node12</title>
<path fill="none" stroke="midnightblue" d="M294.67,-247.79C313.38,-242.67 334.46,-236.9 353.85,-231.59"/>
<polygon fill="midnightblue" stroke="midnightblue" points="354.79,-234.96 363.52,-228.94 352.95,-228.21 354.79,-234.96"/>
</g>
<!-- Node11&#45;&gt;Node14 -->
<g id="edge14" class="edge">
<title>Node11&#45;&gt;Node14</title>
<path fill="none" stroke="midnightblue" d="M305.64,-262.89C317.28,-262.89 329.47,-262.89 341.37,-262.89"/>
<polygon fill="midnightblue" stroke="midnightblue" points="341.73,-266.39 351.73,-262.89 341.73,-259.39 341.73,-266.39"/>
</g>
<!-- Node19 -->
<g id="node19" class="node">
<title>Node19</title>
<g id="a_node19"><a xlink:href="classcarta_1_1Ds9ImportExport.html#a24098fce6d296906d3afa1e7127d54c7" target="_top" xlink:title=" ">
<polygon fill="none" stroke="black" points="351.5,-149.89 351.5,-179.89 487.5,-179.89 487.5,-149.89 351.5,-149.89"/>
<text text-anchor="start" x="359.5" y="-167.89" font-family="Helvetica,sans-Serif" font-size="10.00">carta::Ds9ImportExport</text>
<text text-anchor="middle" x="419.5" y="-156.89" font-family="Helvetica,sans-Serif" font-size="10.00">::SetFileReferenceFrame</text>
</a>
</g>
</g>
<!-- Node11&#45;&gt;Node19 -->
<g id="edge24" class="edge">
<title>Node11&#45;&gt;Node19</title>
<path fill="none" stroke="midnightblue" d="M293.98,-247.8C300,-245 305.82,-241.72 311,-237.89 332.73,-221.82 325.17,-204.82 347,-188.89 348.89,-187.51 350.87,-186.21 352.9,-184.98"/>
<polygon fill="midnightblue" stroke="midnightblue" points="355.01,-187.82 362.18,-180.02 351.71,-181.64 355.01,-187.82"/>
</g>
<!-- Node13 -->
<g id="node13" class="node">
<title>Node13</title>
<g id="a_node13"><a xlink:href="String_8cc.html#a2ae58d8319d2fb200c76f1e0e7951a77" target="_top" xlink:title=" ">
<polygon fill="none" stroke="black" points="763,-109.39 763,-128.39 830,-128.39 830,-109.39 763,-109.39"/>
<text text-anchor="middle" x="796.5" y="-116.39" font-family="Helvetica,sans-Serif" font-size="10.00">SplitString</text>
</a>
</g>
</g>
<!-- Node12&#45;&gt;Node13 -->
<g id="edge13" class="edge">
<title>Node12&#45;&gt;Node13</title>
<path fill="none" stroke="midnightblue" d="M476.93,-198.71C482.33,-195.95 487.48,-192.71 492,-188.89 517.24,-167.6 499.71,-140.92 528,-123.89 597.5,-82.06 696.65,-94.97 752.67,-107.41"/>
<polygon fill="midnightblue" stroke="midnightblue" points="752.08,-110.86 762.61,-109.71 753.66,-104.04 752.08,-110.86"/>
</g>
<!-- Node14&#45;&gt;Node13 -->
<g id="edge22" class="edge">
<title>Node14&#45;&gt;Node13</title>
<path fill="none" stroke="midnightblue" d="M477.99,-247.73C483.06,-244.97 487.84,-241.72 492,-237.89 520.97,-211.2 496.56,-180.63 528,-156.89 545.62,-143.59 681.96,-129.3 752.9,-122.67"/>
<polygon fill="midnightblue" stroke="midnightblue" points="753.24,-126.16 762.87,-121.75 752.59,-119.19 753.24,-126.16"/>
</g>
<!-- Node15 -->
<g id="node15" class="node">
<title>Node15</title>
<g id="a_node15"><a xlink:href="classcarta_1_1RegionImportExport.html#af21c3543b73c915a0a007b3472a74b0f" target="_top" xlink:title=" ">
<polygon fill="none" stroke="black" points="535.5,-215.89 535.5,-245.89 680.5,-245.89 680.5,-215.89 535.5,-215.89"/>
<text text-anchor="start" x="543.5" y="-233.89" font-family="Helvetica,sans-Serif" font-size="10.00">carta::RegionImportExport</text>
<text text-anchor="middle" x="608" y="-222.89" font-family="Helvetica,sans-Serif" font-size="10.00">::FormatColor</text>
</a>
</g>
</g>
<!-- Node14&#45;&gt;Node15 -->
<g id="edge15" class="edge">
<title>Node14&#45;&gt;Node15</title>
<path fill="none" stroke="midnightblue" d="M487.04,-251.48C499.42,-249.35 512.49,-247.11 525.26,-244.92"/>
<polygon fill="midnightblue" stroke="midnightblue" points="526.16,-248.31 535.43,-243.17 524.98,-241.41 526.16,-248.31"/>
</g>
<!-- Node16 -->
<g id="node16" class="node">
<title>Node16</title>
<g id="a_node16"><a xlink:href="classcarta_1_1Ds9ImportExport.html#a4579ce073b1c5b91a9c62e38e48d4944" target="_top" xlink:title=" ">
<polygon fill="none" stroke="black" points="530,-264.89 530,-294.89 686,-294.89 686,-264.89 530,-264.89"/>
<text text-anchor="start" x="538" y="-282.89" font-family="Helvetica,sans-Serif" font-size="10.00">carta::Ds9ImportExport</text>
<text text-anchor="middle" x="608" y="-271.89" font-family="Helvetica,sans-Serif" font-size="10.00">::ImportFontStyleParameters</text>
</a>
</g>
</g>
<!-- Node14&#45;&gt;Node16 -->
<g id="edge16" class="edge">
<title>Node14&#45;&gt;Node16</title>
<path fill="none" stroke="midnightblue" d="M487.04,-268.96C497.69,-269.93 508.85,-270.95 519.9,-271.95"/>
<polygon fill="midnightblue" stroke="midnightblue" points="519.71,-275.45 529.99,-272.87 520.35,-268.48 519.71,-275.45"/>
</g>
<!-- Node17 -->
<g id="node17" class="node">
<title>Node17</title>
<g id="a_node17"><a xlink:href="String_8cc.html#ac169e525f15ae5ec3c0ccc36d1702454" target="_top" xlink:title=" ">
<polygon fill="none" stroke="black" points="762.5,-270.39 762.5,-289.39 830.5,-289.39 830.5,-270.39 762.5,-270.39"/>
<text text-anchor="middle" x="796.5" y="-277.39" font-family="Helvetica,sans-Serif" font-size="10.00">StringToInt</text>
</a>
</g>
</g>
<!-- Node14&#45;&gt;Node17 -->
<g id="edge23" class="edge">
<title>Node14&#45;&gt;Node17</title>
<path fill="none" stroke="midnightblue" d="M455.84,-277.96C481.39,-288.55 513.81,-301.28 528,-303.89 597.93,-316.78 617.32,-311.69 688,-303.89 709.53,-301.52 733.05,-296.55 752.58,-291.74"/>
<polygon fill="midnightblue" stroke="midnightblue" points="753.57,-295.1 762.41,-289.26 751.85,-288.32 753.57,-295.1"/>
</g>
<!-- Node18 -->
<g id="node18" class="node">
<title>Node18</title>
<g id="a_node18"><a xlink:href="classcarta_1_1Ds9ImportExport.html#a38914b11d3f6461aab91779d74e6e364" target="_top" xlink:title=" ">
<polygon fill="none" stroke="black" points="528,-166.89 528,-196.89 688,-196.89 688,-166.89 528,-166.89"/>
<text text-anchor="start" x="536" y="-184.89" font-family="Helvetica,sans-Serif" font-size="10.00">carta::Ds9ImportExport</text>
<text text-anchor="middle" x="608" y="-173.89" font-family="Helvetica,sans-Serif" font-size="10.00">::ImportPointStyleParameters</text>
</a>
</g>
</g>
<!-- Node14&#45;&gt;Node18 -->
<g id="edge19" class="edge">
<title>Node14&#45;&gt;Node18</title>
<path fill="none" stroke="midnightblue" d="M471.61,-247.79C478.66,-244.92 485.65,-241.62 492,-237.89 510.45,-227.04 509.33,-216.36 528,-205.89 531.19,-204.11 534.53,-202.44 537.95,-200.88"/>
<polygon fill="midnightblue" stroke="midnightblue" points="539.31,-204.11 547.18,-197.02 536.6,-197.65 539.31,-204.11"/>
</g>
<!-- Node16&#45;&gt;Node13 -->
<g id="edge17" class="edge">
<title>Node16&#45;&gt;Node13</title>
<path fill="none" stroke="midnightblue" d="M669.86,-264.79C676.25,-262.01 682.44,-258.73 688,-254.89 733.64,-223.39 769.28,-166.77 785.66,-137.52"/>
<polygon fill="midnightblue" stroke="midnightblue" points="788.92,-138.85 790.64,-128.4 782.78,-135.5 788.92,-138.85"/>
</g>
<!-- Node16&#45;&gt;Node17 -->
<g id="edge18" class="edge">
<title>Node16&#45;&gt;Node17</title>
<path fill="none" stroke="midnightblue" d="M686.2,-279.89C708.63,-279.89 732.33,-279.89 751.91,-279.89"/>
<polygon fill="midnightblue" stroke="midnightblue" points="752.03,-283.39 762.03,-279.89 752.03,-276.39 752.03,-283.39"/>
</g>
<!-- Node18&#45;&gt;Node13 -->
<g id="edge20" class="edge">
<title>Node18&#45;&gt;Node13</title>
<path fill="none" stroke="midnightblue" d="M653.67,-166.8C685.33,-156.11 727.36,-141.91 757.43,-131.75"/>
<polygon fill="midnightblue" stroke="midnightblue" points="758.78,-134.99 767.13,-128.48 756.54,-128.36 758.78,-134.99"/>
</g>
<!-- Node18&#45;&gt;Node17 -->
<g id="edge21" class="edge">
<title>Node18&#45;&gt;Node17</title>
<path fill="none" stroke="midnightblue" d="M666.33,-197.01C673.76,-199.63 681.16,-202.6 688,-205.89 721.04,-221.81 755.28,-247.18 775.99,-263.69"/>
<polygon fill="midnightblue" stroke="midnightblue" points="774.02,-266.6 783.99,-270.17 778.42,-261.16 774.02,-266.6"/>
</g>
<!-- Node20 -->
<g id="node20" class="node">
<title>Node20</title>
<g id="a_node20"><a xlink:href="classcarta_1_1Ds9ImportExport.html#a6567342006ecbbae65a144260c12cd16" target="_top" xlink:title=" ">
<polygon fill="none" stroke="black" points="533.5,-40.89 533.5,-70.89 682.5,-70.89 682.5,-40.89 533.5,-40.89"/>
<text text-anchor="start" x="541.5" y="-58.89" font-family="Helvetica,sans-Serif" font-size="10.00">carta::Ds9ImportExport</text>
<text text-anchor="middle" x="608" y="-47.89" font-family="Helvetica,sans-Serif" font-size="10.00">::SetImageReferenceFrame</text>
</a>
</g>
</g>
<!-- Node19&#45;&gt;Node20 -->
<g id="edge25" class="edge">
<title>Node19&#45;&gt;Node20</title>
<path fill="none" stroke="midnightblue" d="M438.13,-149.59C458.63,-132.37 494.03,-104.38 528,-85.89 535.41,-81.86 543.48,-78.13 551.53,-74.76"/>
<polygon fill="midnightblue" stroke="midnightblue" points="552.97,-77.95 560.94,-70.98 550.36,-71.46 552.97,-77.95"/>
</g>
<!-- Node21&#45;&gt;Node5 -->
<g id="edge28" class="edge">
<title>Node21&#45;&gt;Node5</title>
<path fill="none" stroke="midnightblue" d="M671.91,-432.03C677.57,-434.56 683.03,-437.49 688,-440.89 709.41,-455.57 702.89,-471.78 724,-486.89 726.67,-488.81 729.51,-490.59 732.44,-492.24"/>
<polygon fill="midnightblue" stroke="midnightblue" points="731,-495.43 741.5,-496.82 734.16,-489.18 731,-495.43"/>
</g>
<!-- Node21&#45;&gt;Node6 -->
<g id="edge29" class="edge">
<title>Node21&#45;&gt;Node6</title>
<path fill="none" stroke="midnightblue" d="M670.07,-431.95C687.55,-436.27 706.74,-441 724.75,-445.44"/>
<polygon fill="midnightblue" stroke="midnightblue" points="724.07,-448.88 734.61,-447.88 725.74,-442.08 724.07,-448.88"/>
</g>
<!-- Node21&#45;&gt;Node9 -->
<g id="edge30" class="edge">
<title>Node21&#45;&gt;Node9</title>
<path fill="none" stroke="midnightblue" d="M673.18,-417.58C695.19,-417.82 719.59,-418.08 740.77,-418.31"/>
<polygon fill="midnightblue" stroke="midnightblue" points="740.85,-421.81 750.89,-418.41 740.93,-414.81 740.85,-421.81"/>
</g>
<!-- Node22&#45;&gt;Node5 -->
<g id="edge32" class="edge">
<title>Node22&#45;&gt;Node5</title>
<path fill="none" stroke="midnightblue" d="M675.78,-383.01C680.2,-385.53 684.34,-388.47 688,-391.89 720.98,-422.73 691.66,-455.38 724,-486.89 725.48,-488.34 727.05,-489.7 728.7,-490.98"/>
<polygon fill="midnightblue" stroke="midnightblue" points="727.16,-494.17 737.43,-496.77 731.03,-488.33 727.16,-494.17"/>
</g>
<!-- Node22&#45;&gt;Node6 -->
<g id="edge33" class="edge">
<title>Node22&#45;&gt;Node6</title>
<path fill="none" stroke="midnightblue" d="M671.91,-383.03C677.57,-385.56 683.03,-388.49 688,-391.89 709.41,-406.57 702.89,-422.78 724,-437.89 726.67,-439.81 729.51,-441.59 732.44,-443.24"/>
<polygon fill="midnightblue" stroke="midnightblue" points="731,-446.43 741.5,-447.82 734.16,-440.18 731,-446.43"/>
</g>
<!-- Node22&#45;&gt;Node9 -->
<g id="edge34" class="edge">
<title>Node22&#45;&gt;Node9</title>
<path fill="none" stroke="midnightblue" d="M663.95,-382.92C691.55,-390.47 724.57,-399.5 750.63,-406.62"/>
<polygon fill="midnightblue" stroke="midnightblue" points="750.04,-410.09 760.61,-409.35 751.88,-403.34 750.04,-410.09"/>
</g>
<!-- Node23&#45;&gt;Node5 -->
<g id="edge36" class="edge">
<title>Node23&#45;&gt;Node5</title>
<path fill="none" stroke="midnightblue" d="M676.59,-513.81C688.57,-513.61 701.15,-513.41 713.47,-513.21"/>
<polygon fill="midnightblue" stroke="midnightblue" points="713.79,-516.71 723.73,-513.05 713.68,-509.71 713.79,-516.71"/>
</g>
<!-- Node23&#45;&gt;Node6 -->
<g id="edge37" class="edge">
<title>Node23&#45;&gt;Node6</title>
<path fill="none" stroke="midnightblue" d="M662.94,-499.85C684.5,-493.84 709.48,-486.88 731.91,-480.62"/>
<polygon fill="midnightblue" stroke="midnightblue" points="732.99,-483.96 741.68,-477.9 731.11,-477.21 732.99,-483.96"/>
</g>
<!-- Node23&#45;&gt;Node9 -->
<g id="edge38" class="edge">
<title>Node23&#45;&gt;Node9</title>
<path fill="none" stroke="midnightblue" d="M670.92,-499.77C676.97,-497 682.79,-493.74 688,-489.89 710.62,-473.2 701,-454.05 724,-437.89 729.17,-434.26 735,-431.32 741.04,-428.94"/>
<polygon fill="midnightblue" stroke="midnightblue" points="742.31,-432.21 750.64,-425.65 740.04,-425.58 742.31,-432.21"/>
</g>
<!-- Node23&#45;&gt;Node10 -->
<g id="edge39" class="edge">
<title>Node23&#45;&gt;Node10</title>
<path fill="none" stroke="midnightblue" d="M670.07,-529.95C687.55,-534.27 706.74,-539 724.75,-543.44"/>
<polygon fill="midnightblue" stroke="midnightblue" points="724.07,-546.88 734.61,-545.88 725.74,-540.08 724.07,-546.88"/>
</g>
<!-- Node24&#45;&gt;Node14 -->
<g id="edge44" class="edge">
<title>Node24&#45;&gt;Node14</title>
<path fill="none" stroke="midnightblue" d="M294.67,-228.99C313.38,-234.12 334.46,-239.89 353.85,-245.2"/>
<polygon fill="midnightblue" stroke="midnightblue" points="352.95,-248.58 363.52,-247.84 354.79,-241.82 352.95,-248.58"/>
</g>
<!-- Node24&#45;&gt;Node19 -->
<g id="edge45" class="edge">
<title>Node24&#45;&gt;Node19</title>
<path fill="none" stroke="midnightblue" d="M294.67,-198.79C313.38,-193.67 334.46,-187.9 353.85,-182.59"/>
<polygon fill="midnightblue" stroke="midnightblue" points="354.79,-185.96 363.52,-179.94 352.95,-179.21 354.79,-185.96"/>
</g>
<!-- Node24&#45;&gt;Node22 -->
<g id="edge41" class="edge">
<title>Node24&#45;&gt;Node22</title>
<path fill="none" stroke="midnightblue" d="M295.82,-229.02C301.18,-231.56 306.35,-234.5 311,-237.89 332.83,-253.82 324.94,-271.28 347,-286.89 401.97,-325.8 427.72,-310.8 492,-330.89 511.35,-336.94 532.48,-343.7 551.29,-349.76"/>
<polygon fill="midnightblue" stroke="midnightblue" points="550.3,-353.12 560.89,-352.86 552.45,-346.46 550.3,-353.12"/>
</g>
<!-- Node25 -->
<g id="node25" class="node">
<title>Node25</title>
<g id="a_node25"><a xlink:href="classcarta_1_1RegionImportExport.html#ae1228bb4a6dc5f9b25e981217651ae58" target="_top" xlink:title=" ">
<polygon fill="none" stroke="black" points="347,-54.89 347,-84.89 492,-84.89 492,-54.89 347,-54.89"/>
<text text-anchor="start" x="355" y="-72.89" font-family="Helvetica,sans-Serif" font-size="10.00">carta::RegionImportExport</text>
<text text-anchor="middle" x="419.5" y="-61.89" font-family="Helvetica,sans-Serif" font-size="10.00">::ImportRulerStyle</text>
</a>
</g>
</g>
<!-- Node24&#45;&gt;Node25 -->
<g id="edge42" class="edge">
<title>Node24&#45;&gt;Node25</title>
<path fill="none" stroke="midnightblue" d="M293.98,-198.8C300,-196 305.82,-192.72 311,-188.89 332.73,-172.82 329.29,-160.3 347,-139.89 361.7,-122.96 379.76,-105.3 394.05,-91.96"/>
<polygon fill="midnightblue" stroke="midnightblue" points="396.58,-94.38 401.55,-85.02 391.83,-89.24 396.58,-94.38"/>
</g>
<!-- Node25&#45;&gt;Node13 -->
<g id="edge43" class="edge">
<title>Node25&#45;&gt;Node13</title>
<path fill="none" stroke="midnightblue" d="M453.09,-54.7C473.99,-45.81 501.99,-35.46 528,-30.89 598.04,-18.58 621.03,-6.98 688,-30.89 727.3,-44.93 762.59,-80.19 781.33,-101.58"/>
<polygon fill="midnightblue" stroke="midnightblue" points="778.74,-103.93 787.89,-109.28 784.07,-99.39 778.74,-103.93"/>
</g>
<!-- Node26&#45;&gt;Node5 -->
<g id="edge48" class="edge">
<title>Node26&#45;&gt;Node5</title>
<path fill="none" stroke="midnightblue" d="M662.94,-548.85C684.5,-542.84 709.48,-535.88 731.91,-529.62"/>
<polygon fill="midnightblue" stroke="midnightblue" points="732.99,-532.96 741.68,-526.9 731.11,-526.21 732.99,-532.96"/>
</g>
<!-- Node26&#45;&gt;Node6 -->
<g id="edge49" class="edge">
<title>Node26&#45;&gt;Node6</title>
<path fill="none" stroke="midnightblue" d="M670.92,-548.77C676.97,-546 682.79,-542.74 688,-538.89 710.62,-522.2 701.53,-503.78 724,-486.89 725.83,-485.52 727.74,-484.22 729.72,-482.99"/>
<polygon fill="midnightblue" stroke="midnightblue" points="731.63,-485.93 738.72,-478.06 728.27,-479.79 731.63,-485.93"/>
</g>
<!-- Node26&#45;&gt;Node9 -->
<g id="edge50" class="edge">
<title>Node26&#45;&gt;Node9</title>
<path fill="none" stroke="midnightblue" d="M673.2,-549.48C678.6,-546.58 683.65,-543.09 688,-538.89 722.3,-505.81 688.94,-470.17 724,-437.89 729.02,-433.28 735.03,-429.76 741.4,-427.08"/>
<polygon fill="midnightblue" stroke="midnightblue" points="742.66,-430.35 750.93,-423.73 740.34,-423.74 742.66,-430.35"/>
</g>
<!-- Node26&#45;&gt;Node10 -->
<g id="edge51" class="edge">
<title>Node26&#45;&gt;Node10</title>
<path fill="none" stroke="midnightblue" d="M673.18,-562.86C686.2,-562.65 700.05,-562.43 713.58,-562.21"/>
<polygon fill="midnightblue" stroke="midnightblue" points="713.9,-565.71 723.85,-562.05 713.79,-558.71 713.9,-565.71"/>
</g>
<!-- Node27&#45;&gt;Node13 -->
<g id="edge53" class="edge">
<title>Node27&#45;&gt;Node13</title>
<path fill="none" stroke="midnightblue" d="M297.57,-149.77C302.46,-147.01 307.04,-143.75 311,-139.89 343.34,-108.38 312.15,-73.6 347,-44.89 409.99,7 446.68,-20.81 528,-13.89 598.86,-7.87 622.14,12.93 688,-13.89 731.06,-31.43 766.27,-75.44 783.69,-100.57"/>
<polygon fill="midnightblue" stroke="midnightblue" points="780.99,-102.83 789.47,-109.17 786.8,-98.92 780.99,-102.83"/>
</g>
</g>
</svg>
        <g id="navigator" transform="translate(0 0)" fill="#404254">
                <rect fill="#f2f5e9" fill-opacity="0.5" stroke="#606060" stroke-width=".5" x="0" y="0" width="60" height="60"/>
                <use id="zoomplus" xlink:href="#zoomPlus" x="17" y="9" onmousedown="handleZoom(evt,'in')"/>
                <use id="zoomminus" xlink:href="#zoomMin" x="42" y="9" onmousedown="handleZoom(evt,'out')"/>
                <use id="reset" xlink:href="#resetDef" x="30" y="36" onmousedown="handleReset()"/>
                <g id="arrowUp" xlink:href="#dirArrow" transform="translate(30 24)" onmousedown="handlePan(0,-1)">
                  <use xlink:href="#rim" fill="#404040">
                        <set attributeName="fill" to="#808080" begin="arrowUp.mouseover" end="arrowUp.mouseout"/>
                  </use>
                  <path fill="none" stroke="white" stroke-width="1.5" d="M0,-3.0v7 M-2.5,-0.5L0,-3.0L2.5,-0.5"/>
                </g>
                <g id="arrowRight" xlink:href="#dirArrow" transform="rotate(90) translate(36 -43)" onmousedown="handlePan(1,0)">
                  <use xlink:href="#rim" fill="#404040">
                        <set attributeName="fill" to="#808080" begin="arrowRight.mouseover" end="arrowRight.mouseout"/>
                  </use>
                  <path fill="none" stroke="white" stroke-width="1.5" d="M0,-3.0v7 M-2.5,-0.5L0,-3.0L2.5,-0.5"/>
                </g>
                <g id="arrowDown" xlink:href="#dirArrow" transform="rotate(180) translate(-30 -48)" onmousedown="handlePan(0,1)">
                  <use xlink:href="#rim" fill="#404040">
                        <set attributeName="fill" to="#808080" begin="arrowDown.mouseover" end="arrowDown.mouseout"/>
                  </use>
                  <path fill="none" stroke="white" stroke-width="1.5" d="M0,-3.0v7 M-2.5,-0.5L0,-3.0L2.5,-0.5"/>
                </g>
                <g id="arrowLeft" xlink:href="#dirArrow" transform="rotate(270) translate(-36 17)" onmousedown="handlePan(-1,0)">
                  <use xlink:href="#rim" fill="#404040">
                        <set attributeName="fill" to="#808080" begin="arrowLeft.mouseover" end="arrowLeft.mouseout"/>
                  </use>
                  <path fill="none" stroke="white" stroke-width="1.5" d="M0,-3.0v7 M-2.5,-0.5L0,-3.0L2.5,-0.5"/>
                </g>
        </g>
        <svg viewBox="0 0 15 15" width="100%" height="30px" preserveAspectRatio="xMaxYMin meet">
         <g id="arrow_out" transform="scale(0.3 0.3)">
          <a xlink:href="classcarta_1_1Ds9ImportExport_aa2a42c3190f56fc57565646a5b98a45d_cgraph_org.svg" target="_base">
           <rect id="button" ry="5" rx="5" y="6" x="6" height="38" width="38"
                fill="#f2f5e9" fill-opacity="0.5" stroke="#606060" stroke-width="1.0"/>
           <path id="arrow"
             d="M 11.500037,31.436501 C 11.940474,20.09759 22.043105,11.32322 32.158766,21.979434 L 37.068811,17.246167 C 37.068811,17.246167 37.088388,32 37.088388,32 L 22.160133,31.978069 C 22.160133,31.978069 26.997745,27.140456 26.997745,27.140456 C 18.528582,18.264221 13.291696,25.230495 11.500037,31.436501 z"
             style="fill:#404040;"/>
          </a>
         </g>
        </svg>
</svg>
