<?xml version="1.0" encoding="UTF-8" standalone="no"?>
<!DOCTYPE svg PUBLIC "-//W3C//DTD SVG 1.1//EN"
 "http://www.w3.org/Graphics/SVG/1.1/DTD/svg11.dtd">
<!-- Generated by graphviz version 2.43.0 (0)
 -->
<!-- Title: carta::Session::SendFileEvent Pages: 1 -->
<!--zoomable 739 -->
<svg id="main" version="1.1" xmlns="http://www.w3.org/2000/svg" xmlns:xlink="http://www.w3.org/1999/xlink" xml:space="preserve" onload="init(evt)">
<style type="text/css"><![CDATA[
.edge:hover path { stroke: red; }
.edge:hover polygon { stroke: red; fill: red; }
]]></style>
<script type="text/javascript"><![CDATA[
var edges = document.getElementsByTagName('g');
if (edges && edges.length) {
  for (var i=0;i<edges.length;i++) {
    if (edges[i].id.substr(0,4)=='edge') {
      edges[i].setAttribute('class','edge');
    }
  }
}
]]></script>
        <defs>
                <circle id="rim" cx="0" cy="0" r="7"/>
                <circle id="rim2" cx="0" cy="0" r="3.5"/>
                <g id="zoomPlus">
                        <use xlink:href="#rim" fill="#404040">
                                <set attributeName="fill" to="#808080" begin="zoomplus.mouseover" end="zoomplus.mouseout"/>
                        </use>
                        <path d="M-4,0h8M0,-4v8" fill="none" stroke="white" stroke-width="1.5" pointer-events="none"/>
                </g>
                <g id="zoomMin">
                        <use xlink:href="#rim" fill="#404040">
                                <set attributeName="fill" to="#808080" begin="zoomminus.mouseover" end="zoomminus.mouseout"/>
                        </use>
                        <path d="M-4,0h8" fill="none" stroke="white" stroke-width="1.5" pointer-events="none"/>
                </g>
                <g id="dirArrow">
                        <path fill="none" stroke="white" stroke-width="1.5" d="M0,-3.0v7 M-2.5,-0.5L0,-3.0L2.5,-0.5"/>
                </g>
               <g id="resetDef">
                       <use xlink:href="#rim2" fill="#404040">
                               <set attributeName="fill" to="#808080" begin="reset.mouseover" end="reset.mouseout"/>
                       </use>
               </g>
        </defs>

<script type="text/javascript">
var viewWidth = 1525;
var viewHeight = 739;
var sectionId = 'dynsection-116';
</script>
<script xlink:href="svgpan.js"/>
<svg id="graph" class="graph">
<g id="viewport">
<title>carta::Session::SendFileEvent</title>
<!-- Node1 -->
<g id="node1" class="node">
<title>Node1</title>
<g id="a_node1"><a xlink:title=" ">
<polygon fill="#bfbfbf" stroke="black" points="1385,-241.5 1385,-271.5 1517,-271.5 1517,-241.5 1385,-241.5"/>
<text text-anchor="start" x="1393" y="-259.5" font-family="Helvetica,sans-Serif" font-size="10.00">carta::Session::SendFile</text>
<text text-anchor="middle" x="1451" y="-248.5" font-family="Helvetica,sans-Serif" font-size="10.00">Event</text>
</a>
</g>
</g>
<!-- Node2 -->
<g id="node2" class="node">
<title>Node2</title>
<g id="a_node2"><a xlink:href="classcarta_1_1Session.html#aa9e908b20d1e35ff162cc1f361dbfe56" target="_top" xlink:title=" ">
<polygon fill="none" stroke="black" points="1206,-365.5 1206,-395.5 1343,-395.5 1343,-365.5 1206,-365.5"/>
<text text-anchor="start" x="1214" y="-383.5" font-family="Helvetica,sans-Serif" font-size="10.00">carta::Session::Calculate</text>
<text text-anchor="middle" x="1274.5" y="-372.5" font-family="Helvetica,sans-Serif" font-size="10.00">CubeHistogram</text>
</a>
</g>
</g>
<!-- Node1&#45;&gt;Node2 -->
<g id="edge1" class="edge">
<title>Node1&#45;&gt;Node2</title>
<path fill="none" stroke="midnightblue" d="M1425.47,-278.31C1405.54,-295.56 1376.35,-319.77 1349,-338.5 1334.81,-348.22 1318.24,-357.82 1304.43,-365.39"/>
<polygon fill="midnightblue" stroke="midnightblue" points="1427.91,-280.82 1433.15,-271.61 1423.31,-275.55 1427.91,-280.82"/>
</g>
<!-- Node3 -->
<g id="node3" class="node">
<title>Node3</title>
<g id="a_node3"><a xlink:href="classcarta_1_1Session.html#a36ede4133a5424416c8e085af6387fee" target="_top" xlink:title=" ">
<polygon fill="none" stroke="black" points="1012.5,-372.5 1012.5,-402.5 1161.5,-402.5 1161.5,-372.5 1012.5,-372.5"/>
<text text-anchor="start" x="1020.5" y="-390.5" font-family="Helvetica,sans-Serif" font-size="10.00">carta::Session::SendRegion</text>
<text text-anchor="middle" x="1087" y="-379.5" font-family="Helvetica,sans-Serif" font-size="10.00">HistogramData</text>
</a>
</g>
</g>
<!-- Node1&#45;&gt;Node3 -->
<g id="edge44" class="edge">
<title>Node1&#45;&gt;Node3</title>
<path fill="none" stroke="midnightblue" d="M1401.41,-275.14C1344.66,-296.75 1247.87,-333.17 1164,-362.5 1154.56,-365.8 1144.42,-369.22 1134.72,-372.44"/>
<polygon fill="midnightblue" stroke="midnightblue" points="1402.75,-278.37 1410.84,-271.54 1400.25,-271.83 1402.75,-278.37"/>
</g>
<!-- Node25 -->
<g id="node25" class="node">
<title>Node25</title>
<g id="a_node25"><a xlink:href="classcarta_1_1Session.html#ad769ec04ffbfb2289af256be174e3059" target="_top" xlink:title=" ">
<polygon fill="none" stroke="black" points="799,-54.5 799,-84.5 966,-84.5 966,-54.5 799,-54.5"/>
<text text-anchor="start" x="807" y="-72.5" font-family="Helvetica,sans-Serif" font-size="10.00">carta::Session::OnAddRequired</text>
<text text-anchor="middle" x="882.5" y="-61.5" font-family="Helvetica,sans-Serif" font-size="10.00">Tiles</text>
</a>
</g>
</g>
<!-- Node1&#45;&gt;Node25 -->
<g id="edge32" class="edge">
<title>Node1&#45;&gt;Node25</title>
<path fill="none" stroke="midnightblue" d="M1438.24,-232.32C1422.41,-202.65 1391.29,-153.35 1349,-129.5 1228.88,-61.75 1064.12,-57.35 966.25,-62.16"/>
<polygon fill="midnightblue" stroke="midnightblue" points="1435.13,-233.93 1442.84,-241.21 1441.35,-230.72 1435.13,-233.93"/>
</g>
<!-- Node26 -->
<g id="node26" class="node">
<title>Node26</title>
<g id="a_node26"><a xlink:href="classcarta_1_1Session.html#a637065bf5ce630efe24801304644e4bc" target="_top" xlink:title=" ">
<polygon fill="none" stroke="black" points="1206.5,-652.5 1206.5,-682.5 1342.5,-682.5 1342.5,-652.5 1206.5,-652.5"/>
<text text-anchor="start" x="1214.5" y="-670.5" font-family="Helvetica,sans-Serif" font-size="10.00">carta::Session::OnExport</text>
<text text-anchor="middle" x="1274.5" y="-659.5" font-family="Helvetica,sans-Serif" font-size="10.00">Region</text>
</a>
</g>
</g>
<!-- Node1&#45;&gt;Node26 -->
<g id="edge35" class="edge">
<title>Node1&#45;&gt;Node26</title>
<path fill="none" stroke="midnightblue" d="M1445.7,-281.66C1435.35,-337.98 1405.6,-477.35 1349,-580.5 1333.59,-608.58 1308.25,-635.96 1291.72,-652.28"/>
<polygon fill="midnightblue" stroke="midnightblue" points="1449.2,-282 1447.52,-271.54 1442.31,-280.77 1449.2,-282"/>
</g>
<!-- Node27 -->
<g id="node27" class="node">
<title>Node27</title>
<g id="a_node27"><a xlink:href="classcarta_1_1Session.html#abd146053cf3c27be50df2ee242ae17f6" target="_top" xlink:title=" ">
<polygon fill="none" stroke="black" points="1206,-540.5 1206,-570.5 1343,-570.5 1343,-540.5 1206,-540.5"/>
<text text-anchor="start" x="1214" y="-558.5" font-family="Helvetica,sans-Serif" font-size="10.00">carta::Session::OnImport</text>
<text text-anchor="middle" x="1274.5" y="-547.5" font-family="Helvetica,sans-Serif" font-size="10.00">Region</text>
</a>
</g>
</g>
<!-- Node1&#45;&gt;Node27 -->
<g id="edge37" class="edge">
<title>Node1&#45;&gt;Node27</title>
<path fill="none" stroke="midnightblue" d="M1436.05,-280.41C1401.5,-339.59 1312.76,-491.65 1284.38,-540.29"/>
<polygon fill="midnightblue" stroke="midnightblue" points="1439.09,-282.14 1441.11,-271.74 1433.04,-278.61 1439.09,-282.14"/>
</g>
<!-- Node28 -->
<g id="node28" class="node">
<title>Node28</title>
<g id="a_node28"><a xlink:href="classcarta_1_1Session.html#abf2d92e46ffc218b0e6e2685bf4ffb72" target="_top" xlink:title=" ">
<polygon fill="none" stroke="black" points="794.5,-104 794.5,-123 970.5,-123 970.5,-104 794.5,-104"/>
<text text-anchor="middle" x="882.5" y="-111" font-family="Helvetica,sans-Serif" font-size="10.00">carta::Session::SendContourData</text>
</a>
</g>
</g>
<!-- Node1&#45;&gt;Node28 -->
<g id="edge39" class="edge">
<title>Node1&#45;&gt;Node28</title>
<path fill="none" stroke="midnightblue" d="M1425.53,-234.81C1405.99,-218.47 1377.28,-196.54 1349,-182.5 1227.52,-122.21 1067.85,-111.1 970.6,-110.73"/>
<polygon fill="midnightblue" stroke="midnightblue" points="1423.43,-237.63 1433.31,-241.44 1427.96,-232.29 1423.43,-237.63"/>
</g>
<!-- Node30 -->
<g id="node30" class="node">
<title>Node30</title>
<g id="a_node30"><a xlink:href="classcarta_1_1Session.html#a5fd62896cf8474c7b37c27093a24459e" target="_top" xlink:title=" ">
<polygon fill="none" stroke="black" points="1012.5,-137.5 1012.5,-167.5 1161.5,-167.5 1161.5,-137.5 1012.5,-137.5"/>
<text text-anchor="start" x="1020.5" y="-155.5" font-family="Helvetica,sans-Serif" font-size="10.00">carta::Session::SendRegion</text>
<text text-anchor="middle" x="1087" y="-144.5" font-family="Helvetica,sans-Serif" font-size="10.00">StatsData</text>
</a>
</g>
</g>
<!-- Node1&#45;&gt;Node30 -->
<g id="edge45" class="edge">
<title>Node1&#45;&gt;Node30</title>
<path fill="none" stroke="midnightblue" d="M1387.76,-238.62C1317.88,-218.54 1205.73,-186.32 1140.24,-167.51"/>
<polygon fill="midnightblue" stroke="midnightblue" points="1387.17,-242.09 1397.75,-241.49 1389.1,-235.36 1387.17,-242.09"/>
</g>
<!-- Node32 -->
<g id="node32" class="node">
<title>Node32</title>
<g id="a_node32"><a xlink:href="classcarta_1_1Session.html#a120e85ac57a07414f829a228618ab5fe" target="_top" xlink:title=" ">
<polygon fill="none" stroke="black" points="1200,-241.5 1200,-271.5 1349,-271.5 1349,-241.5 1200,-241.5"/>
<text text-anchor="start" x="1208" y="-259.5" font-family="Helvetica,sans-Serif" font-size="10.00">carta::Session::SendSpatial</text>
<text text-anchor="middle" x="1274.5" y="-248.5" font-family="Helvetica,sans-Serif" font-size="10.00">ProfileData</text>
</a>
</g>
</g>
<!-- Node1&#45;&gt;Node32 -->
<g id="edge49" class="edge">
<title>Node1&#45;&gt;Node32</title>
<path fill="none" stroke="midnightblue" d="M1374.43,-256.5C1366.08,-256.5 1357.58,-256.5 1349.25,-256.5"/>
<polygon fill="midnightblue" stroke="midnightblue" points="1374.53,-260 1384.53,-256.5 1374.53,-253 1374.53,-260"/>
</g>
<!-- Node39 -->
<g id="node39" class="node">
<title>Node39</title>
<g id="a_node39"><a xlink:href="classcarta_1_1Session.html#a2535a06bd2e8a13e99c775d895f6024a" target="_top" xlink:title=" ">
<polygon fill="none" stroke="black" points="809.5,-5.5 809.5,-35.5 955.5,-35.5 955.5,-5.5 809.5,-5.5"/>
<text text-anchor="start" x="817.5" y="-23.5" font-family="Helvetica,sans-Serif" font-size="10.00">carta::Session::SendVector</text>
<text text-anchor="middle" x="882.5" y="-12.5" font-family="Helvetica,sans-Serif" font-size="10.00">FieldData</text>
</a>
</g>
</g>
<!-- Node1&#45;&gt;Node39 -->
<g id="edge59" class="edge">
<title>Node1&#45;&gt;Node39</title>
<path fill="none" stroke="midnightblue" d="M1443.98,-231.43C1432.83,-190.93 1404.82,-111.86 1349,-74.5 1229.67,5.37 1053.61,0.78 955.77,-9.78"/>
<polygon fill="midnightblue" stroke="midnightblue" points="1440.65,-232.53 1446.58,-241.31 1447.42,-230.75 1440.65,-232.53"/>
</g>
<!-- Node2&#45;&gt;Node3 -->
<g id="edge2" class="edge">
<title>Node2&#45;&gt;Node3</title>
<path fill="none" stroke="midnightblue" d="M1195.5,-383.44C1184.24,-383.87 1172.68,-384.3 1161.51,-384.73"/>
<polygon fill="midnightblue" stroke="midnightblue" points="1195.88,-386.93 1205.74,-383.06 1195.62,-379.94 1195.88,-386.93"/>
</g>
<!-- Node4 -->
<g id="node4" class="node">
<title>Node4</title>
<g id="a_node4"><a xlink:href="classcarta_1_1Session.html#a54c5dc766deb62f608792ce551a1b885" target="_top" xlink:title=" ">
<polygon fill="none" stroke="black" points="809,-479 809,-498 956,-498 956,-479 809,-479"/>
<text text-anchor="middle" x="882.5" y="-486" font-family="Helvetica,sans-Serif" font-size="10.00">carta::Session::OnOpenFile</text>
</a>
</g>
</g>
<!-- Node3&#45;&gt;Node4 -->
<g id="edge3" class="edge">
<title>Node3&#45;&gt;Node4</title>
<path fill="none" stroke="midnightblue" d="M1046.58,-407.16C1003.31,-428.74 935.63,-462.5 902.74,-478.91"/>
<polygon fill="midnightblue" stroke="midnightblue" points="1048.3,-410.22 1055.68,-402.62 1045.17,-403.95 1048.3,-410.22"/>
</g>
<!-- Node13 -->
<g id="node13" class="node">
<title>Node13</title>
<g id="a_node13"><a xlink:href="classcarta_1_1Session.html#a58a607b5c97ef56c8967084ce2d3e6da" target="_top" xlink:title=" ">
<polygon fill="none" stroke="black" points="797,-372.5 797,-402.5 968,-402.5 968,-372.5 797,-372.5"/>
<text text-anchor="start" x="805" y="-390.5" font-family="Helvetica,sans-Serif" font-size="10.00">carta::Session::OnSetHistogram</text>
<text text-anchor="middle" x="882.5" y="-379.5" font-family="Helvetica,sans-Serif" font-size="10.00">Requirements</text>
</a>
</g>
</g>
<!-- Node3&#45;&gt;Node13 -->
<g id="edge16" class="edge">
<title>Node3&#45;&gt;Node13</title>
<path fill="none" stroke="midnightblue" d="M1002.11,-387.5C990.88,-387.5 979.35,-387.5 968.11,-387.5"/>
<polygon fill="midnightblue" stroke="midnightblue" points="1002.32,-391 1012.32,-387.5 1002.32,-384 1002.32,-391"/>
</g>
<!-- Node14 -->
<g id="node14" class="node">
<title>Node14</title>
<g id="a_node14"><a xlink:href="classcarta_1_1Session.html#aef4b334b4727ea531b229d242c3108b2" target="_top" xlink:title=" ">
<polygon fill="none" stroke="black" points="792.5,-192 792.5,-211 972.5,-211 972.5,-192 792.5,-192"/>
<text text-anchor="middle" x="882.5" y="-199" font-family="Helvetica,sans-Serif" font-size="10.00">carta::Session::UpdateImageData</text>
</a>
</g>
</g>
<!-- Node3&#45;&gt;Node14 -->
<g id="edge17" class="edge">
<title>Node3&#45;&gt;Node14</title>
<path fill="none" stroke="midnightblue" d="M1013.92,-366.27C1012.55,-365.08 1011.24,-363.83 1010,-362.5 965.59,-314.89 1020.98,-265.58 974,-220.5 970.06,-216.72 965.57,-213.61 960.75,-211.06"/>
<polygon fill="midnightblue" stroke="midnightblue" points="1012.21,-369.36 1022.36,-372.39 1016.31,-363.69 1012.21,-369.36"/>
</g>
<!-- Node23 -->
<g id="node23" class="node">
<title>Node23</title>
<g id="a_node23"><a xlink:href="classcarta_1_1Session.html#ac86d5f7886628a9429955f05426f25ab" target="_top" xlink:title=" ">
<polygon fill="none" stroke="black" points="791,-230 791,-249 974,-249 974,-230 791,-230"/>
<text text-anchor="middle" x="882.5" y="-237" font-family="Helvetica,sans-Serif" font-size="10.00">carta::Session::UpdateRegionData</text>
</a>
</g>
</g>
<!-- Node3&#45;&gt;Node23 -->
<g id="edge27" class="edge">
<title>Node3&#45;&gt;Node23</title>
<path fill="none" stroke="midnightblue" d="M1015.36,-366.94C1013.49,-365.56 1011.69,-364.08 1010,-362.5 979.08,-333.69 1004.17,-304.09 974,-274.5 961.61,-262.35 944.54,-254.31 928.56,-249.04"/>
<polygon fill="midnightblue" stroke="midnightblue" points="1013.72,-370.04 1024.04,-372.43 1017.46,-364.13 1013.72,-370.04"/>
</g>
<!-- Node5 -->
<g id="node5" class="node">
<title>Node5</title>
<g id="a_node5"><a xlink:href="classcarta_1_1Session.html#aed12d0369de4c3391dba300cb77e9241" target="_top" xlink:title=" ">
<polygon fill="none" stroke="black" points="596.5,-546.5 596.5,-576.5 734.5,-576.5 734.5,-546.5 596.5,-546.5"/>
<text text-anchor="start" x="604.5" y="-564.5" font-family="Helvetica,sans-Serif" font-size="10.00">carta::Session::OnConcat</text>
<text text-anchor="middle" x="665.5" y="-553.5" font-family="Helvetica,sans-Serif" font-size="10.00">StokesFiles</text>
</a>
</g>
</g>
<!-- Node4&#45;&gt;Node5 -->
<g id="edge4" class="edge">
<title>Node4&#45;&gt;Node5</title>
<path fill="none" stroke="midnightblue" d="M849.42,-502C824.05,-512.41 787.6,-526.8 755,-537.5 745.47,-540.63 735.27,-543.67 725.31,-546.48"/>
<polygon fill="midnightblue" stroke="midnightblue" points="851,-505.13 858.91,-498.08 848.33,-498.66 851,-505.13"/>
</g>
<!-- Node6 -->
<g id="node6" class="node">
<title>Node6</title>
<g id="a_node6"><a xlink:href="classcarta_1_1SessionManager.html#a474c31666cb3b22fcbe8af5f945d2950" target="_top" xlink:title=" ">
<polygon fill="none" stroke="black" points="180.5,-606.5 180.5,-636.5 308.5,-636.5 308.5,-606.5 180.5,-606.5"/>
<text text-anchor="start" x="188.5" y="-624.5" font-family="Helvetica,sans-Serif" font-size="10.00">carta::SessionManager</text>
<text text-anchor="middle" x="244.5" y="-613.5" font-family="Helvetica,sans-Serif" font-size="10.00">::OnMessage</text>
</a>
</g>
</g>
<!-- Node4&#45;&gt;Node6 -->
<g id="edge10" class="edge">
<title>Node4&#45;&gt;Node6</title>
<path fill="none" stroke="midnightblue" d="M865.97,-505.69C843.89,-528.8 800.98,-568.99 755,-586.5 714.3,-602 435.89,-614.33 308.68,-619.22"/>
<polygon fill="midnightblue" stroke="midnightblue" points="868.61,-507.99 872.88,-498.3 863.49,-503.21 868.61,-507.99"/>
</g>
<!-- Node8 -->
<g id="node8" class="node">
<title>Node8</title>
<g id="a_node8"><a xlink:href="classcarta_1_1Session.html#afe5c090c017ef208f638b96a7eb1ecf0" target="_top" xlink:title=" ">
<polygon fill="none" stroke="black" points="378.5,-347.5 378.5,-377.5 522.5,-377.5 522.5,-347.5 378.5,-347.5"/>
<text text-anchor="start" x="386.5" y="-365.5" font-family="Helvetica,sans-Serif" font-size="10.00">carta::Session::OnResume</text>
<text text-anchor="middle" x="450.5" y="-354.5" font-family="Helvetica,sans-Serif" font-size="10.00">Session</text>
</a>
</g>
</g>
<!-- Node4&#45;&gt;Node8 -->
<g id="edge15" class="edge">
<title>Node4&#45;&gt;Node8</title>
<path fill="none" stroke="midnightblue" d="M863.77,-471.9C840.68,-451.35 798.16,-417.05 755,-400.5 679.14,-371.41 585.55,-363.52 522.52,-361.88"/>
<polygon fill="midnightblue" stroke="midnightblue" points="861.6,-474.66 871.36,-478.79 866.31,-469.47 861.6,-474.66"/>
</g>
<!-- Node9 -->
<g id="node9" class="node">
<title>Node9</title>
<g id="a_node9"><a xlink:href="classcarta_1_1Session.html#a5589e4dca9e6a51055f15da1d9ac1b3c" target="_top" xlink:title=" ">
<polygon fill="none" stroke="black" points="598,-497.5 598,-527.5 733,-527.5 733,-497.5 598,-497.5"/>
<text text-anchor="start" x="606" y="-515.5" font-family="Helvetica,sans-Serif" font-size="10.00">carta::Session::OnFitting</text>
<text text-anchor="middle" x="665.5" y="-504.5" font-family="Helvetica,sans-Serif" font-size="10.00">Request</text>
</a>
</g>
</g>
<!-- Node4&#45;&gt;Node9 -->
<g id="edge9" class="edge">
<title>Node4&#45;&gt;Node9</title>
<path fill="none" stroke="midnightblue" d="M798.53,-497.76C776.85,-500.18 753.77,-502.76 733.06,-505.07"/>
<polygon fill="midnightblue" stroke="midnightblue" points="799.16,-501.21 808.71,-496.63 798.38,-494.26 799.16,-501.21"/>
</g>
<!-- Node10 -->
<g id="node10" class="node">
<title>Node10</title>
<g id="a_node10"><a xlink:href="classcarta_1_1Session.html#a8fe2527b0a83c67240ef4a31a86e4978" target="_top" xlink:title=" ">
<polygon fill="none" stroke="black" points="593,-448.5 593,-478.5 738,-478.5 738,-448.5 593,-448.5"/>
<text text-anchor="start" x="601" y="-466.5" font-family="Helvetica,sans-Serif" font-size="10.00">carta::Session::OnMoment</text>
<text text-anchor="middle" x="665.5" y="-455.5" font-family="Helvetica,sans-Serif" font-size="10.00">Request</text>
</a>
</g>
</g>
<!-- Node4&#45;&gt;Node10 -->
<g id="edge11" class="edge">
<title>Node4&#45;&gt;Node10</title>
<path fill="none" stroke="midnightblue" d="M798.7,-478.87C778.72,-476.55 757.54,-474.09 738.12,-471.83"/>
<polygon fill="midnightblue" stroke="midnightblue" points="798.37,-482.36 808.71,-480.04 799.18,-475.4 798.37,-482.36"/>
</g>
<!-- Node11 -->
<g id="node11" class="node">
<title>Node11</title>
<g id="a_node11"><a xlink:href="classcarta_1_1Session.html#a07bfe19708d3e272d01fef6f18712aa2" target="_top" xlink:title=" ">
<polygon fill="none" stroke="black" points="587.5,-410 587.5,-429 743.5,-429 743.5,-410 587.5,-410"/>
<text text-anchor="middle" x="665.5" y="-417" font-family="Helvetica,sans-Serif" font-size="10.00">carta::Session::OnPvRequest</text>
</a>
</g>
</g>
<!-- Node4&#45;&gt;Node11 -->
<g id="edge12" class="edge">
<title>Node4&#45;&gt;Node11</title>
<path fill="none" stroke="midnightblue" d="M850.01,-474.81C824.68,-464.16 788.01,-449.56 755,-439.5 742.04,-435.55 727.8,-432 714.61,-429.02"/>
<polygon fill="midnightblue" stroke="midnightblue" points="848.88,-478.13 859.45,-478.82 851.62,-471.69 848.88,-478.13"/>
</g>
<!-- Node12 -->
<g id="node12" class="node">
<title>Node12</title>
<g id="a_node12"><a xlink:href="classcarta_1_1Session.html#a45b9623e5dd0c0d54307ab148e8745aa" target="_top" xlink:title=" ">
<polygon fill="none" stroke="black" points="379,-628.5 379,-658.5 522,-658.5 522,-628.5 379,-628.5"/>
<text text-anchor="start" x="387" y="-646.5" font-family="Helvetica,sans-Serif" font-size="10.00">carta::Session::OnRemote</text>
<text text-anchor="middle" x="450.5" y="-635.5" font-family="Helvetica,sans-Serif" font-size="10.00">FileRequest</text>
</a>
</g>
</g>
<!-- Node4&#45;&gt;Node12 -->
<g id="edge13" class="edge">
<title>Node4&#45;&gt;Node12</title>
<path fill="none" stroke="midnightblue" d="M870.19,-506.95C850.81,-536.69 808.15,-594.42 755,-619.5 681.27,-654.29 586.2,-655.87 522.28,-651.63"/>
<polygon fill="midnightblue" stroke="midnightblue" points="873.24,-508.68 875.65,-498.36 867.33,-504.92 873.24,-508.68"/>
</g>
<!-- Node5&#45;&gt;Node6 -->
<g id="edge5" class="edge">
<title>Node5&#45;&gt;Node6</title>
<path fill="none" stroke="midnightblue" d="M586.37,-562.9C524.69,-565.14 436.71,-570.9 361,-585.5 335.53,-590.41 307.75,-598.96 285.82,-606.5"/>
<polygon fill="midnightblue" stroke="midnightblue" points="586.54,-566.39 596.42,-562.55 586.3,-559.4 586.54,-566.39"/>
</g>
<!-- Node5&#45;&gt;Node8 -->
<g id="edge7" class="edge">
<title>Node5&#45;&gt;Node8</title>
<path fill="none" stroke="midnightblue" d="M586.97,-544.02C583.14,-542.07 579.45,-539.91 576,-537.5 514.67,-494.76 473.04,-411.62 457.87,-377.58"/>
<polygon fill="midnightblue" stroke="midnightblue" points="585.58,-547.23 596.13,-548.18 588.47,-540.86 585.58,-547.23"/>
</g>
<!-- Node7 -->
<g id="node7" class="node">
<title>Node7</title>
<g id="a_node7"><a xlink:href="classcarta_1_1SessionManager.html#ab4e4e7f0244bd6843e70ab91652debf6" target="_top" xlink:title=" ">
<polygon fill="none" stroke="black" points="0,-606.5 0,-636.5 128,-636.5 128,-606.5 0,-606.5"/>
<text text-anchor="start" x="8" y="-624.5" font-family="Helvetica,sans-Serif" font-size="10.00">carta::SessionManager</text>
<text text-anchor="middle" x="64" y="-613.5" font-family="Helvetica,sans-Serif" font-size="10.00">::RunApp</text>
</a>
</g>
</g>
<!-- Node6&#45;&gt;Node7 -->
<g id="edge6" class="edge">
<title>Node6&#45;&gt;Node7</title>
<path fill="none" stroke="midnightblue" d="M170.25,-621.5C156.26,-621.5 141.73,-621.5 128.1,-621.5"/>
<polygon fill="midnightblue" stroke="midnightblue" points="170.32,-625 180.32,-621.5 170.32,-618 170.32,-625"/>
</g>
<!-- Node8&#45;&gt;Node6 -->
<g id="edge8" class="edge">
<title>Node8&#45;&gt;Node6</title>
<path fill="none" stroke="midnightblue" d="M431.37,-385.52C390.39,-437.54 291.58,-563 257.38,-606.41"/>
<polygon fill="midnightblue" stroke="midnightblue" points="434.21,-387.57 437.65,-377.54 428.71,-383.23 434.21,-387.57"/>
</g>
<!-- Node12&#45;&gt;Node6 -->
<g id="edge14" class="edge">
<title>Node12&#45;&gt;Node6</title>
<path fill="none" stroke="midnightblue" d="M368.72,-634.79C348.75,-632.63 327.64,-630.36 308.65,-628.31"/>
<polygon fill="midnightblue" stroke="midnightblue" points="368.41,-638.27 378.72,-635.87 369.16,-631.32 368.41,-638.27"/>
</g>
<!-- Node15 -->
<g id="node15" class="node">
<title>Node15</title>
<g id="a_node15"><a xlink:href="classcarta_1_1Session.html#aa550cd4106356e47e4254ecddff6f809" target="_top" xlink:title=" ">
<polygon fill="none" stroke="black" points="576,-49.5 576,-79.5 755,-79.5 755,-49.5 576,-49.5"/>
<text text-anchor="start" x="584" y="-67.5" font-family="Helvetica,sans-Serif" font-size="10.00">carta::Session::ExecuteAnimation</text>
<text text-anchor="middle" x="665.5" y="-56.5" font-family="Helvetica,sans-Serif" font-size="10.00">FrameInner</text>
</a>
</g>
</g>
<!-- Node14&#45;&gt;Node15 -->
<g id="edge18" class="edge">
<title>Node14&#45;&gt;Node15</title>
<path fill="none" stroke="midnightblue" d="M798.74,-187.16C796.02,-185.46 793.42,-183.58 791,-181.5 757.37,-152.63 787.93,-118.16 755,-88.5 751.21,-85.09 746.99,-82.16 742.5,-79.64"/>
<polygon fill="midnightblue" stroke="midnightblue" points="797.34,-190.38 807.81,-191.97 800.62,-184.19 797.34,-190.38"/>
</g>
<!-- Node18 -->
<g id="node18" class="node">
<title>Node18</title>
<g id="a_node18"><a xlink:href="classcarta_1_1Session.html#af5f49139f41c92e209aee736bb1cd260" target="_top" xlink:title=" ">
<polygon fill="none" stroke="black" points="590,-98.5 590,-128.5 741,-128.5 741,-98.5 590,-98.5"/>
<text text-anchor="start" x="598" y="-116.5" font-family="Helvetica,sans-Serif" font-size="10.00">carta::Session::OnSetImage</text>
<text text-anchor="middle" x="665.5" y="-105.5" font-family="Helvetica,sans-Serif" font-size="10.00">Channels</text>
</a>
</g>
</g>
<!-- Node14&#45;&gt;Node18 -->
<g id="edge21" class="edge">
<title>Node14&#45;&gt;Node18</title>
<path fill="none" stroke="midnightblue" d="M804.82,-188.49C800,-186.49 795.34,-184.17 791,-181.5 769.48,-168.27 776.2,-151.24 755,-137.5 749.66,-134.04 743.82,-131.07 737.78,-128.53"/>
<polygon fill="midnightblue" stroke="midnightblue" points="803.67,-191.8 814.26,-191.99 806.1,-185.24 803.67,-191.8"/>
</g>
<!-- Node21 -->
<g id="node21" class="node">
<title>Node21</title>
<g id="a_node21"><a xlink:href="classcarta_1_1Session.html#a4565eed986a6f5ed57ab3a0a6c5b6110" target="_top" xlink:title=" ">
<polygon fill="none" stroke="black" points="591.5,-196.5 591.5,-226.5 739.5,-226.5 739.5,-196.5 591.5,-196.5"/>
<text text-anchor="start" x="599.5" y="-214.5" font-family="Helvetica,sans-Serif" font-size="10.00">carta::Session::RegionData</text>
<text text-anchor="middle" x="665.5" y="-203.5" font-family="Helvetica,sans-Serif" font-size="10.00">Streams</text>
</a>
</g>
</g>
<!-- Node14&#45;&gt;Node21 -->
<g id="edge25" class="edge">
<title>Node14&#45;&gt;Node21</title>
<path fill="none" stroke="midnightblue" d="M782.15,-206.12C767.86,-206.79 753.39,-207.46 739.73,-208.09"/>
<polygon fill="midnightblue" stroke="midnightblue" points="782.67,-209.6 792.5,-205.64 782.35,-202.61 782.67,-209.6"/>
</g>
<!-- Node16 -->
<g id="node16" class="node">
<title>Node16</title>
<g id="a_node16"><a xlink:href="classcarta_1_1Session.html#aa7cbd24871105659a8520975e92d4eab" target="_top" xlink:title=" ">
<polygon fill="none" stroke="black" points="361,-49.5 361,-79.5 540,-79.5 540,-49.5 361,-49.5"/>
<text text-anchor="start" x="369" y="-67.5" font-family="Helvetica,sans-Serif" font-size="10.00">carta::Session::ExecuteAnimation</text>
<text text-anchor="middle" x="450.5" y="-56.5" font-family="Helvetica,sans-Serif" font-size="10.00">Frame</text>
</a>
</g>
</g>
<!-- Node15&#45;&gt;Node16 -->
<g id="edge19" class="edge">
<title>Node15&#45;&gt;Node16</title>
<path fill="none" stroke="midnightblue" d="M565.46,-64.5C557.01,-64.5 548.5,-64.5 540.14,-64.5"/>
<polygon fill="midnightblue" stroke="midnightblue" points="565.71,-68 575.71,-64.5 565.71,-61 565.71,-68"/>
</g>
<!-- Node17 -->
<g id="node17" class="node">
<title>Node17</title>
<g id="a_node17"><a xlink:href="classcarta_1_1AnimationTask.html#a92a52915589d226cf4afd3428ffea271" target="_top" xlink:title=" ">
<polygon fill="none" stroke="black" points="185,-49.5 185,-79.5 304,-79.5 304,-49.5 185,-49.5"/>
<text text-anchor="start" x="193" y="-67.5" font-family="Helvetica,sans-Serif" font-size="10.00">carta::AnimationTask</text>
<text text-anchor="middle" x="244.5" y="-56.5" font-family="Helvetica,sans-Serif" font-size="10.00">::execute</text>
</a>
</g>
</g>
<!-- Node16&#45;&gt;Node17 -->
<g id="edge20" class="edge">
<title>Node16&#45;&gt;Node17</title>
<path fill="none" stroke="midnightblue" d="M350.49,-64.5C334.58,-64.5 318.58,-64.5 304.03,-64.5"/>
<polygon fill="midnightblue" stroke="midnightblue" points="350.91,-68 360.91,-64.5 350.91,-61 350.91,-68"/>
</g>
<!-- Node18&#45;&gt;Node8 -->
<g id="edge24" class="edge">
<title>Node18&#45;&gt;Node8</title>
<path fill="none" stroke="midnightblue" d="M580.83,-133.51C579.16,-134.76 577.54,-136.09 576,-137.5 541.79,-168.85 561.44,-194.35 540,-235.5 517.52,-278.64 482.59,-324.26 464.05,-347.29"/>
<polygon fill="midnightblue" stroke="midnightblue" points="583.14,-136.19 589.69,-127.86 579.38,-130.28 583.14,-136.19"/>
</g>
<!-- Node19 -->
<g id="node19" class="node">
<title>Node19</title>
<g id="a_node19"><a xlink:href="classcarta_1_1Session.html#a258addc8994b72cb71c51280d3850bf4" target="_top" xlink:title=" ">
<polygon fill="none" stroke="black" points="378,-98.5 378,-128.5 523,-128.5 523,-98.5 378,-98.5"/>
<text text-anchor="start" x="386" y="-116.5" font-family="Helvetica,sans-Serif" font-size="10.00">carta::Session::ExecuteSet</text>
<text text-anchor="middle" x="450.5" y="-105.5" font-family="Helvetica,sans-Serif" font-size="10.00">ChannelEvt</text>
</a>
</g>
</g>
<!-- Node18&#45;&gt;Node19 -->
<g id="edge22" class="edge">
<title>Node18&#45;&gt;Node19</title>
<path fill="none" stroke="midnightblue" d="M579.46,-113.5C560.84,-113.5 541.3,-113.5 523.25,-113.5"/>
<polygon fill="midnightblue" stroke="midnightblue" points="579.7,-117 589.7,-113.5 579.7,-110 579.7,-117"/>
</g>
<!-- Node20 -->
<g id="node20" class="node">
<title>Node20</title>
<g id="a_node20"><a xlink:href="classcarta_1_1SetImageChannelsTask.html#a060a6a6a22fa9d26231e36e640534527" target="_top" xlink:title=" ">
<polygon fill="none" stroke="black" points="164,-98.5 164,-128.5 325,-128.5 325,-98.5 164,-98.5"/>
<text text-anchor="start" x="172" y="-116.5" font-family="Helvetica,sans-Serif" font-size="10.00">carta::SetImageChannelsTask</text>
<text text-anchor="middle" x="244.5" y="-105.5" font-family="Helvetica,sans-Serif" font-size="10.00">::execute</text>
</a>
</g>
</g>
<!-- Node19&#45;&gt;Node20 -->
<g id="edge23" class="edge">
<title>Node19&#45;&gt;Node20</title>
<path fill="none" stroke="midnightblue" d="M367.78,-113.5C353.79,-113.5 339.26,-113.5 325.31,-113.5"/>
<polygon fill="midnightblue" stroke="midnightblue" points="367.86,-117 377.86,-113.5 367.86,-110 367.86,-117"/>
</g>
<!-- Node22 -->
<g id="node22" class="node">
<title>Node22</title>
<g id="a_node22"><a xlink:href="classcarta_1_1RegionDataStreamsTask.html#a38cdf00f163c90d07819252c648c47c4" target="_top" xlink:title=" ">
<polygon fill="none" stroke="black" points="378,-196.5 378,-226.5 523,-226.5 523,-196.5 378,-196.5"/>
<text text-anchor="start" x="386" y="-214.5" font-family="Helvetica,sans-Serif" font-size="10.00">carta::RegionDataStreams</text>
<text text-anchor="middle" x="450.5" y="-203.5" font-family="Helvetica,sans-Serif" font-size="10.00">Task::execute</text>
</a>
</g>
</g>
<!-- Node21&#45;&gt;Node22 -->
<g id="edge26" class="edge">
<title>Node21&#45;&gt;Node22</title>
<path fill="none" stroke="midnightblue" d="M581.29,-211.5C562.14,-211.5 541.94,-211.5 523.33,-211.5"/>
<polygon fill="midnightblue" stroke="midnightblue" points="581.5,-215 591.5,-211.5 581.5,-208 581.5,-215"/>
</g>
<!-- Node23&#45;&gt;Node15 -->
<g id="edge28" class="edge">
<title>Node23&#45;&gt;Node15</title>
<path fill="none" stroke="midnightblue" d="M795.69,-224.44C794.06,-223.21 792.49,-221.9 791,-220.5 746.75,-178.8 798.03,-131.47 755,-88.5 751.62,-85.13 747.82,-82.21 743.74,-79.7"/>
<polygon fill="midnightblue" stroke="midnightblue" points="794,-227.51 804.33,-229.86 797.72,-221.58 794,-227.51"/>
</g>
<!-- Node23&#45;&gt;Node18 -->
<g id="edge30" class="edge">
<title>Node23&#45;&gt;Node18</title>
<path fill="none" stroke="midnightblue" d="M797.34,-225.04C795.13,-223.65 793.01,-222.14 791,-220.5 759.84,-195.08 785.41,-163.81 755,-137.5 750.79,-133.85 746.07,-130.76 741.07,-128.13"/>
<polygon fill="midnightblue" stroke="midnightblue" points="795.77,-228.17 806.23,-229.82 799.08,-222 795.77,-228.17"/>
</g>
<!-- Node23&#45;&gt;Node21 -->
<g id="edge31" class="edge">
<title>Node23&#45;&gt;Node21</title>
<path fill="none" stroke="midnightblue" d="M798.41,-228.68C779.08,-226.16 758.63,-223.5 739.75,-221.04"/>
<polygon fill="midnightblue" stroke="midnightblue" points="798.04,-232.16 808.41,-229.98 798.95,-225.22 798.04,-232.16"/>
</g>
<!-- Node24 -->
<g id="node24" class="node">
<title>Node24</title>
<g id="a_node24"><a xlink:href="classcarta_1_1Session.html#ae9c7b649790d7ab36f01a4a966674a63" target="_top" xlink:title=" ">
<polygon fill="none" stroke="black" points="592,-246 592,-265 739,-265 739,-246 592,-246"/>
<text text-anchor="middle" x="665.5" y="-253" font-family="Helvetica,sans-Serif" font-size="10.00">carta::Session::OnOpenFile</text>
</a>
</g>
</g>
<!-- Node23&#45;&gt;Node24 -->
<g id="edge29" class="edge">
<title>Node23&#45;&gt;Node24</title>
<path fill="none" stroke="midnightblue" d="M780.73,-247C766.66,-248.05 752.43,-249.11 739.01,-250.1"/>
<polygon fill="midnightblue" stroke="midnightblue" points="781.23,-250.47 790.94,-246.24 780.71,-243.49 781.23,-250.47"/>
</g>
<!-- Node25&#45;&gt;Node15 -->
<g id="edge33" class="edge">
<title>Node25&#45;&gt;Node15</title>
<path fill="none" stroke="midnightblue" d="M788.83,-67.34C777.68,-67.09 766.31,-66.82 755.22,-66.56"/>
<polygon fill="midnightblue" stroke="midnightblue" points="788.91,-70.85 798.99,-67.58 789.07,-63.85 788.91,-70.85"/>
</g>
<!-- Node25&#45;&gt;Node18 -->
<g id="edge34" class="edge">
<title>Node25&#45;&gt;Node18</title>
<path fill="none" stroke="midnightblue" d="M798.18,-86.55C778.97,-90.48 758.68,-94.64 739.92,-98.47"/>
<polygon fill="midnightblue" stroke="midnightblue" points="799.02,-89.95 808.11,-84.52 797.61,-83.1 799.02,-89.95"/>
</g>
<!-- Node26&#45;&gt;Node6 -->
<g id="edge36" class="edge">
<title>Node26&#45;&gt;Node6</title>
<path fill="none" stroke="midnightblue" d="M1222.85,-685.73C1204.53,-691.65 1183.54,-697.68 1164,-701.5 1041.21,-725.52 1008.62,-725.5 883.5,-725.5 883.5,-725.5 883.5,-725.5 664.5,-725.5 529.19,-725.5 488.46,-746.92 361,-701.5 321.25,-687.33 282.48,-655.78 261.52,-636.81"/>
<polygon fill="midnightblue" stroke="midnightblue" points="1224.05,-689.02 1232.44,-682.56 1221.85,-682.37 1224.05,-689.02"/>
</g>
<!-- Node27&#45;&gt;Node6 -->
<g id="edge38" class="edge">
<title>Node27&#45;&gt;Node6</title>
<path fill="none" stroke="midnightblue" d="M1239.26,-575.59C1172.95,-612.53 1021.41,-687.5 883.5,-687.5 883.5,-687.5 883.5,-687.5 664.5,-687.5 529.35,-687.5 492.76,-698.59 361,-668.5 330.61,-661.56 297.86,-647.56 275.03,-636.63"/>
<polygon fill="midnightblue" stroke="midnightblue" points="1241.04,-578.6 1248.04,-570.64 1237.61,-572.5 1241.04,-578.6"/>
</g>
<!-- Node28&#45;&gt;Node15 -->
<g id="edge40" class="edge">
<title>Node28&#45;&gt;Node15</title>
<path fill="none" stroke="midnightblue" d="M827.78,-101.73C815.67,-99.05 802.89,-96.2 791,-93.5 771.31,-89.03 749.88,-84.07 730.44,-79.54"/>
<polygon fill="midnightblue" stroke="midnightblue" points="827.23,-105.2 837.75,-103.94 828.74,-98.36 827.23,-105.2"/>
</g>
<!-- Node28&#45;&gt;Node18 -->
<g id="edge43" class="edge">
<title>Node28&#45;&gt;Node18</title>
<path fill="none" stroke="midnightblue" d="M784.34,-113.5C769.79,-113.5 754.98,-113.5 741,-113.5"/>
<polygon fill="midnightblue" stroke="midnightblue" points="784.36,-117 794.36,-113.5 784.36,-110 784.36,-117"/>
</g>
<!-- Node29 -->
<g id="node29" class="node">
<title>Node29</title>
<g id="a_node29"><a xlink:href="classcarta_1_1Session.html#a83fe47dca761560cced8837cec8d631c" target="_top" xlink:title=" ">
<polygon fill="none" stroke="black" points="586.5,-147.5 586.5,-177.5 744.5,-177.5 744.5,-147.5 586.5,-147.5"/>
<text text-anchor="start" x="594.5" y="-165.5" font-family="Helvetica,sans-Serif" font-size="10.00">carta::Session::OnSetContour</text>
<text text-anchor="middle" x="665.5" y="-154.5" font-family="Helvetica,sans-Serif" font-size="10.00">Parameters</text>
</a>
</g>
</g>
<!-- Node28&#45;&gt;Node29 -->
<g id="edge41" class="edge">
<title>Node28&#45;&gt;Node29</title>
<path fill="none" stroke="midnightblue" d="M825.15,-125.06C813.83,-127.46 802.02,-130.02 791,-132.5 770.18,-137.19 747.47,-142.59 727.21,-147.49"/>
<polygon fill="midnightblue" stroke="midnightblue" points="825.87,-128.49 834.94,-123 824.43,-121.64 825.87,-128.49"/>
</g>
<!-- Node29&#45;&gt;Node8 -->
<g id="edge42" class="edge">
<title>Node29&#45;&gt;Node8</title>
<path fill="none" stroke="midnightblue" d="M583.01,-182.09C580.59,-183.46 578.25,-184.93 576,-186.5 571.98,-189.31 491.16,-305.39 461.93,-347.47"/>
<polygon fill="midnightblue" stroke="midnightblue" points="584.7,-185.16 592.06,-177.53 581.55,-178.91 584.7,-185.16"/>
</g>
<!-- Node30&#45;&gt;Node14 -->
<g id="edge47" class="edge">
<title>Node30&#45;&gt;Node14</title>
<path fill="none" stroke="midnightblue" d="M1019.7,-170.09C1004.69,-173.95 988.82,-177.94 974,-181.5 959.14,-185.07 942.84,-188.74 928.22,-191.95"/>
<polygon fill="midnightblue" stroke="midnightblue" points="1020.6,-173.47 1029.41,-167.57 1018.85,-166.69 1020.6,-173.47"/>
</g>
<!-- Node30&#45;&gt;Node23 -->
<g id="edge48" class="edge">
<title>Node30&#45;&gt;Node23</title>
<path fill="none" stroke="midnightblue" d="M1017.14,-172.14C1014.67,-173.5 1012.28,-174.95 1010,-176.5 989.08,-190.67 995.59,-207.38 974,-220.5 967.69,-224.33 960.72,-227.41 953.54,-229.86"/>
<polygon fill="midnightblue" stroke="midnightblue" points="1018.92,-175.16 1026.33,-167.59 1015.82,-168.89 1018.92,-175.16"/>
</g>
<!-- Node31 -->
<g id="node31" class="node">
<title>Node31</title>
<g id="a_node31"><a xlink:href="classcarta_1_1Session.html#aec59964865528b6bc7779eb15688b78a" target="_top" xlink:title=" ">
<polygon fill="none" stroke="black" points="810,-142.5 810,-172.5 955,-172.5 955,-142.5 810,-142.5"/>
<text text-anchor="start" x="818" y="-160.5" font-family="Helvetica,sans-Serif" font-size="10.00">carta::Session::OnSetStats</text>
<text text-anchor="middle" x="882.5" y="-149.5" font-family="Helvetica,sans-Serif" font-size="10.00">Requirements</text>
</a>
</g>
</g>
<!-- Node30&#45;&gt;Node31 -->
<g id="edge46" class="edge">
<title>Node30&#45;&gt;Node31</title>
<path fill="none" stroke="midnightblue" d="M1002.15,-154.57C986.52,-154.96 970.32,-155.36 955.1,-155.73"/>
<polygon fill="midnightblue" stroke="midnightblue" points="1002.41,-158.07 1012.32,-154.32 1002.24,-151.07 1002.41,-158.07"/>
</g>
<!-- Node33 -->
<g id="node33" class="node">
<title>Node33</title>
<g id="a_node33"><a xlink:href="classcarta_1_1Session.html#aa076ddc044321ae415f7d1d29df176da" target="_top" xlink:title=" ">
<polygon fill="none" stroke="black" points="1011,-334 1011,-353 1163,-353 1163,-334 1011,-334"/>
<text text-anchor="middle" x="1087" y="-341" font-family="Helvetica,sans-Serif" font-size="10.00">carta::Session::OnSetCursor</text>
</a>
</g>
</g>
<!-- Node32&#45;&gt;Node33 -->
<g id="edge50" class="edge">
<title>Node32&#45;&gt;Node33</title>
<path fill="none" stroke="midnightblue" d="M1244.79,-277.29C1223.4,-291.96 1193.01,-311.13 1164,-323.5 1154.21,-327.68 1143.33,-331.16 1132.94,-333.99"/>
<polygon fill="midnightblue" stroke="midnightblue" points="1246.88,-280.1 1253.09,-271.52 1242.88,-274.36 1246.88,-280.1"/>
</g>
<!-- Node36 -->
<g id="node36" class="node">
<title>Node36</title>
<g id="a_node36"><a xlink:href="classcarta_1_1Session.html#a390efae381051bcf1f695707222f207f" target="_top" xlink:title=" ">
<polygon fill="none" stroke="black" points="1010,-235.5 1010,-265.5 1164,-265.5 1164,-235.5 1010,-235.5"/>
<text text-anchor="start" x="1018" y="-253.5" font-family="Helvetica,sans-Serif" font-size="10.00">carta::Session::OnSetSpatial</text>
<text text-anchor="middle" x="1087" y="-242.5" font-family="Helvetica,sans-Serif" font-size="10.00">Requirements</text>
</a>
</g>
</g>
<!-- Node32&#45;&gt;Node36 -->
<g id="edge54" class="edge">
<title>Node32&#45;&gt;Node36</title>
<path fill="none" stroke="midnightblue" d="M1189.66,-253.79C1181.19,-253.51 1172.61,-253.24 1164.23,-252.97"/>
<polygon fill="midnightblue" stroke="midnightblue" points="1189.81,-257.29 1199.92,-254.12 1190.04,-250.3 1189.81,-257.29"/>
</g>
<!-- Node37 -->
<g id="node37" class="node">
<title>Node37</title>
<g id="a_node37"><a xlink:href="classcarta_1_1Session.html#a85b4eb14c9181087b03046119b117789" target="_top" xlink:title=" ">
<polygon fill="none" stroke="black" points="1012.5,-186.5 1012.5,-216.5 1161.5,-216.5 1161.5,-186.5 1012.5,-186.5"/>
<text text-anchor="start" x="1020.5" y="-204.5" font-family="Helvetica,sans-Serif" font-size="10.00">carta::Session::SendSpatial</text>
<text text-anchor="middle" x="1087" y="-193.5" font-family="Helvetica,sans-Serif" font-size="10.00">ProfileDataByFileId</text>
</a>
</g>
</g>
<!-- Node32&#45;&gt;Node37 -->
<g id="edge55" class="edge">
<title>Node32&#45;&gt;Node37</title>
<path fill="none" stroke="midnightblue" d="M1213.07,-238.58C1189.01,-231.45 1161.62,-223.33 1138.63,-216.51"/>
<polygon fill="midnightblue" stroke="midnightblue" points="1212.23,-241.98 1222.81,-241.47 1214.22,-235.27 1212.23,-241.98"/>
</g>
<!-- Node38 -->
<g id="node38" class="node">
<title>Node38</title>
<g id="a_node38"><a xlink:href="classcarta_1_1Session.html#a44647c44e04c9b96638cc87980efbf77" target="_top" xlink:title=" ">
<polygon fill="none" stroke="black" points="1012.5,-284.5 1012.5,-314.5 1161.5,-314.5 1161.5,-284.5 1012.5,-284.5"/>
<text text-anchor="start" x="1020.5" y="-302.5" font-family="Helvetica,sans-Serif" font-size="10.00">carta::Session::SendSpatial</text>
<text text-anchor="middle" x="1087" y="-291.5" font-family="Helvetica,sans-Serif" font-size="10.00">ProfileDataByRegionId</text>
</a>
</g>
</g>
<!-- Node32&#45;&gt;Node38 -->
<g id="edge57" class="edge">
<title>Node32&#45;&gt;Node38</title>
<path fill="none" stroke="midnightblue" d="M1198.74,-273.83C1183.54,-277.35 1167.67,-281.03 1152.84,-284.47"/>
<polygon fill="midnightblue" stroke="midnightblue" points="1199.67,-277.21 1208.62,-271.54 1198.09,-270.39 1199.67,-277.21"/>
</g>
<!-- Node33&#45;&gt;Node8 -->
<g id="edge53" class="edge">
<title>Node33&#45;&gt;Node8</title>
<path fill="none" stroke="midnightblue" d="M1000.71,-346.05C874.53,-349.83 640.37,-356.84 522.78,-360.37"/>
<polygon fill="midnightblue" stroke="midnightblue" points="1000.83,-349.55 1010.72,-345.75 1000.62,-342.56 1000.83,-349.55"/>
</g>
<!-- Node34 -->
<g id="node34" class="node">
<title>Node34</title>
<g id="a_node34"><a xlink:href="classcarta_1_1CursorSettings.html#a0d6e27c8a1772bede7d5d4276df452bd" target="_top" xlink:title=" ">
<polygon fill="none" stroke="black" points="823,-284.5 823,-314.5 942,-314.5 942,-284.5 823,-284.5"/>
<text text-anchor="start" x="831" y="-302.5" font-family="Helvetica,sans-Serif" font-size="10.00">carta::CursorSettings</text>
<text text-anchor="middle" x="882.5" y="-291.5" font-family="Helvetica,sans-Serif" font-size="10.00">::ExecuteOne</text>
</a>
</g>
</g>
<!-- Node33&#45;&gt;Node34 -->
<g id="edge51" class="edge">
<title>Node33&#45;&gt;Node34</title>
<path fill="none" stroke="midnightblue" d="M1032.16,-331.8C1004.48,-325.79 970.7,-318.45 942.34,-312.29"/>
<polygon fill="midnightblue" stroke="midnightblue" points="1031.55,-335.25 1042.06,-333.95 1033.03,-328.41 1031.55,-335.25"/>
</g>
<!-- Node35 -->
<g id="node35" class="node">
<title>Node35</title>
<g id="a_node35"><a xlink:href="classcarta_1_1SetCursorTask.html#a4ae7952b66399be7c43433ef94d4ae39" target="_top" xlink:title=" ">
<polygon fill="none" stroke="black" points="607.5,-284.5 607.5,-314.5 723.5,-314.5 723.5,-284.5 607.5,-284.5"/>
<text text-anchor="start" x="615.5" y="-302.5" font-family="Helvetica,sans-Serif" font-size="10.00">carta::SetCursorTask</text>
<text text-anchor="middle" x="665.5" y="-291.5" font-family="Helvetica,sans-Serif" font-size="10.00">::execute</text>
</a>
</g>
</g>
<!-- Node34&#45;&gt;Node35 -->
<g id="edge52" class="edge">
<title>Node34&#45;&gt;Node35</title>
<path fill="none" stroke="midnightblue" d="M812.41,-299.5C783.77,-299.5 750.95,-299.5 723.69,-299.5"/>
<polygon fill="midnightblue" stroke="midnightblue" points="812.75,-303 822.75,-299.5 812.75,-296 812.75,-303"/>
</g>
<!-- Node37&#45;&gt;Node14 -->
<g id="edge56" class="edge">
<title>Node37&#45;&gt;Node14</title>
<path fill="none" stroke="midnightblue" d="M1002.24,-201.5C992.47,-201.5 982.47,-201.5 972.63,-201.5"/>
<polygon fill="midnightblue" stroke="midnightblue" points="1002.32,-205 1012.32,-201.5 1002.32,-198 1002.32,-205"/>
</g>
<!-- Node38&#45;&gt;Node23 -->
<g id="edge58" class="edge">
<title>Node38&#45;&gt;Node23</title>
<path fill="none" stroke="midnightblue" d="M1025.24,-281.5C989.23,-270.83 945.04,-257.73 915.67,-249.03"/>
<polygon fill="midnightblue" stroke="midnightblue" points="1024.58,-284.95 1035.16,-284.44 1026.57,-278.24 1024.58,-284.95"/>
</g>
<!-- Node39&#45;&gt;Node15 -->
<g id="edge60" class="edge">
<title>Node39&#45;&gt;Node15</title>
<path fill="none" stroke="midnightblue" d="M799.5,-37.28C779.92,-41.29 759.14,-45.54 739.97,-49.47"/>
<polygon fill="midnightblue" stroke="midnightblue" points="800.21,-40.71 809.31,-35.27 798.81,-33.85 800.21,-40.71"/>
</g>
<!-- Node39&#45;&gt;Node18 -->
<g id="edge61" class="edge">
<title>Node39&#45;&gt;Node18</title>
<path fill="none" stroke="midnightblue" d="M799.76,-39.48C796.73,-41.03 793.8,-42.7 791,-44.5 769.76,-58.18 776.13,-74.65 755,-88.5 749.12,-92.35 742.65,-95.62 735.97,-98.38"/>
<polygon fill="midnightblue" stroke="midnightblue" points="801.44,-42.56 809.08,-35.21 798.53,-36.2 801.44,-42.56"/>
</g>
<!-- Node40 -->
<g id="node40" class="node">
<title>Node40</title>
<g id="a_node40"><a xlink:href="classcarta_1_1Session.html#a3f71bbdd1c4727be1e0a6e6ab743af2b" target="_top" xlink:title=" ">
<polygon fill="none" stroke="black" points="590,-0.5 590,-30.5 741,-30.5 741,-0.5 590,-0.5"/>
<text text-anchor="start" x="598" y="-18.5" font-family="Helvetica,sans-Serif" font-size="10.00">carta::Session::OnSetVector</text>
<text text-anchor="middle" x="665.5" y="-7.5" font-family="Helvetica,sans-Serif" font-size="10.00">OverlayParameters</text>
</a>
</g>
</g>
<!-- Node39&#45;&gt;Node40 -->
<g id="edge62" class="edge">
<title>Node39&#45;&gt;Node40</title>
<path fill="none" stroke="midnightblue" d="M799.14,-18.58C780.04,-18.14 759.81,-17.67 741.07,-17.23"/>
<polygon fill="midnightblue" stroke="midnightblue" points="799.23,-22.09 809.31,-18.82 799.39,-15.09 799.23,-22.09"/>
</g>
</g>
</svg>
        <g id="navigator" transform="translate(0 0)" fill="#404254">
                <rect fill="#f2f5e9" fill-opacity="0.5" stroke="#606060" stroke-width=".5" x="0" y="0" width="60" height="60"/>
                <use id="zoomplus" xlink:href="#zoomPlus" x="17" y="9" onmousedown="handleZoom(evt,'in')"/>
                <use id="zoomminus" xlink:href="#zoomMin" x="42" y="9" onmousedown="handleZoom(evt,'out')"/>
                <use id="reset" xlink:href="#resetDef" x="30" y="36" onmousedown="handleReset()"/>
                <g id="arrowUp" xlink:href="#dirArrow" transform="translate(30 24)" onmousedown="handlePan(0,-1)">
                  <use xlink:href="#rim" fill="#404040">
                        <set attributeName="fill" to="#808080" begin="arrowUp.mouseover" end="arrowUp.mouseout"/>
                  </use>
                  <path fill="none" stroke="white" stroke-width="1.5" d="M0,-3.0v7 M-2.5,-0.5L0,-3.0L2.5,-0.5"/>
                </g>
                <g id="arrowRight" xlink:href="#dirArrow" transform="rotate(90) translate(36 -43)" onmousedown="handlePan(1,0)">
                  <use xlink:href="#rim" fill="#404040">
                        <set attributeName="fill" to="#808080" begin="arrowRight.mouseover" end="arrowRight.mouseout"/>
                  </use>
                  <path fill="none" stroke="white" stroke-width="1.5" d="M0,-3.0v7 M-2.5,-0.5L0,-3.0L2.5,-0.5"/>
                </g>
                <g id="arrowDown" xlink:href="#dirArrow" transform="rotate(180) translate(-30 -48)" onmousedown="handlePan(0,1)">
                  <use xlink:href="#rim" fill="#404040">
                        <set attributeName="fill" to="#808080" begin="arrowDown.mouseover" end="arrowDown.mouseout"/>
                  </use>
                  <path fill="none" stroke="white" stroke-width="1.5" d="M0,-3.0v7 M-2.5,-0.5L0,-3.0L2.5,-0.5"/>
                </g>
                <g id="arrowLeft" xlink:href="#dirArrow" transform="rotate(270) translate(-36 17)" onmousedown="handlePan(-1,0)">
                  <use xlink:href="#rim" fill="#404040">
                        <set attributeName="fill" to="#808080" begin="arrowLeft.mouseover" end="arrowLeft.mouseout"/>
                  </use>
                  <path fill="none" stroke="white" stroke-width="1.5" d="M0,-3.0v7 M-2.5,-0.5L0,-3.0L2.5,-0.5"/>
                </g>
        </g>
        <svg viewBox="0 0 15 15" width="100%" height="30px" preserveAspectRatio="xMaxYMin meet">
         <g id="arrow_out" transform="scale(0.3 0.3)">
          <a xlink:href="classcarta_1_1Session_ae6ff58d2a61d3872bc741f12ed2b91d7_icgraph_org.svg" target="_base">
           <rect id="button" ry="5" rx="5" y="6" x="6" height="38" width="38"
                fill="#f2f5e9" fill-opacity="0.5" stroke="#606060" stroke-width="1.0"/>
           <path id="arrow"
             d="M 11.500037,31.436501 C 11.940474,20.09759 22.043105,11.32322 32.158766,21.979434 L 37.068811,17.246167 C 37.068811,17.246167 37.088388,32 37.088388,32 L 22.160133,31.978069 C 22.160133,31.978069 26.997745,27.140456 26.997745,27.140456 C 18.528582,18.264221 13.291696,25.230495 11.500037,31.436501 z"
             style="fill:#404040;"/>
          </a>
         </g>
        </svg>
</svg>
