<?xml version="1.0" encoding="UTF-8" standalone="no"?>
<!DOCTYPE svg PUBLIC "-//W3C//DTD SVG 1.1//EN"
 "http://www.w3.org/Graphics/SVG/1.1/DTD/svg11.dtd">
<!-- Generated by graphviz version 2.43.0 (0)
 -->
<!-- Title: carta::RegionHandler::GetTemporaryRegionProfile Pages: 1 -->
<svg width="655pt" height="88pt"
 viewBox="0.00 0.00 655.00 88.00" xmlns="http://www.w3.org/2000/svg" xmlns:xlink="http://www.w3.org/1999/xlink">
<g id="graph0" class="graph" transform="scale(1 1) rotate(0) translate(4 84)">
<title>carta::RegionHandler::GetTemporaryRegionProfile</title>
<!-- Node1 -->
<g id="node1" class="node">
<title>Node1</title>
<g id="a_node1"><a xlink:title=" ">
<polygon fill="#bfbfbf" stroke="black" points="491,-24.5 491,-54.5 647,-54.5 647,-24.5 491,-24.5"/>
<text text-anchor="start" x="499" y="-42.5" font-family="Helvetica,sans-Serif" font-size="10.00">carta::RegionHandler</text>
<text text-anchor="middle" x="569" y="-31.5" font-family="Helvetica,sans-Serif" font-size="10.00">::GetTemporaryRegionProfile</text>
</a>
</g>
</g>
<!-- Node2 -->
<g id="node2" class="node">
<title>Node2</title>
<g id="a_node2"><a xlink:href="classcarta_1_1RegionHandler.html#acbbfca854da73c657e5257de954b7048" target="_top" xlink:title=" ">
<polygon fill="none" stroke="black" points="336,-24.5 336,-54.5 455,-54.5 455,-24.5 336,-24.5"/>
<text text-anchor="start" x="344" y="-42.5" font-family="Helvetica,sans-Serif" font-size="10.00">carta::RegionHandler</text>
<text text-anchor="middle" x="395.5" y="-31.5" font-family="Helvetica,sans-Serif" font-size="10.00">::GetLineProfiles</text>
</a>
</g>
</g>
<!-- Node1&#45;&gt;Node2 -->
<g id="edge1" class="edge">
<title>Node1&#45;&gt;Node2</title>
<path fill="none" stroke="midnightblue" d="M480.62,-39.5C471.96,-39.5 463.31,-39.5 455.05,-39.5"/>
<polygon fill="midnightblue" stroke="midnightblue" points="480.78,-43 490.78,-39.5 480.78,-36 480.78,-43"/>
</g>
<!-- Node3 -->
<g id="node3" class="node">
<title>Node3</title>
<g id="a_node3"><a xlink:href="classcarta_1_1RegionHandler.html#a981ef720799967df543e0b272a17f6cb" target="_top" xlink:title=" ">
<polygon fill="none" stroke="black" points="181,-49.5 181,-79.5 300,-79.5 300,-49.5 181,-49.5"/>
<text text-anchor="start" x="189" y="-67.5" font-family="Helvetica,sans-Serif" font-size="10.00">carta::RegionHandler</text>
<text text-anchor="middle" x="240.5" y="-56.5" font-family="Helvetica,sans-Serif" font-size="10.00">::CalculatePvImage</text>
</a>
</g>
</g>
<!-- Node2&#45;&gt;Node3 -->
<g id="edge2" class="edge">
<title>Node2&#45;&gt;Node3</title>
<path fill="none" stroke="midnightblue" d="M325.79,-50.73C317.2,-52.13 308.47,-53.56 300.06,-54.93"/>
<polygon fill="midnightblue" stroke="midnightblue" points="326.48,-54.16 335.78,-49.09 325.35,-47.25 326.48,-54.16"/>
</g>
<!-- Node4 -->
<g id="node4" class="node">
<title>Node4</title>
<g id="a_node4"><a xlink:href="classcarta_1_1RegionHandler.html#ab65206f98fa5024447ab049a91cd4526" target="_top" xlink:title=" ">
<polygon fill="none" stroke="black" points="181,-0.5 181,-30.5 300,-30.5 300,-0.5 181,-0.5"/>
<text text-anchor="start" x="189" y="-18.5" font-family="Helvetica,sans-Serif" font-size="10.00">carta::RegionHandler</text>
<text text-anchor="middle" x="240.5" y="-7.5" font-family="Helvetica,sans-Serif" font-size="10.00">::GetLineSpatialData</text>
</a>
</g>
</g>
<!-- Node2&#45;&gt;Node4 -->
<g id="edge3" class="edge">
<title>Node2&#45;&gt;Node4</title>
<path fill="none" stroke="midnightblue" d="M325.79,-28.72C317.2,-27.37 308.47,-26.01 300.06,-24.69"/>
<polygon fill="midnightblue" stroke="midnightblue" points="325.36,-32.2 335.78,-30.29 326.45,-25.28 325.36,-32.2"/>
</g>
<!-- Node5 -->
<g id="node5" class="node">
<title>Node5</title>
<g id="a_node5"><a xlink:href="classcarta_1_1RegionHandler.html#a6bbb668cf434d85d9be739191dd15c19" target="_top" xlink:title=" ">
<polygon fill="none" stroke="black" points="0,-0.5 0,-30.5 145,-30.5 145,-0.5 0,-0.5"/>
<text text-anchor="start" x="8" y="-18.5" font-family="Helvetica,sans-Serif" font-size="10.00">carta::RegionHandler</text>
<text text-anchor="middle" x="72.5" y="-7.5" font-family="Helvetica,sans-Serif" font-size="10.00">::FillLineSpatialProfileData</text>
</a>
</g>
</g>
<!-- Node4&#45;&gt;Node5 -->
<g id="edge4" class="edge">
<title>Node4&#45;&gt;Node5</title>
<path fill="none" stroke="midnightblue" d="M170.79,-15.5C162.33,-15.5 153.67,-15.5 145.17,-15.5"/>
<polygon fill="midnightblue" stroke="midnightblue" points="170.97,-19 180.97,-15.5 170.97,-12 170.97,-19"/>
</g>
</g>
</svg>
