<?xml version="1.0" encoding="UTF-8" standalone="no"?>
<!DOCTYPE svg PUBLIC "-//W3C//DTD SVG 1.1//EN"
 "http://www.w3.org/Graphics/SVG/1.1/DTD/svg11.dtd">
<!-- Generated by graphviz version 2.43.0 (0)
 -->
<!-- Title: carta::Session::SendSpatialProfileData Pages: 1 -->
<!--zoomable 267 -->
<svg id="main" version="1.1" xmlns="http://www.w3.org/2000/svg" xmlns:xlink="http://www.w3.org/1999/xlink" xml:space="preserve" onload="init(evt)">
<style type="text/css"><![CDATA[
.edge:hover path { stroke: red; }
.edge:hover polygon { stroke: red; fill: red; }
]]></style>
<script type="text/javascript"><![CDATA[
var edges = document.getElementsByTagName('g');
if (edges && edges.length) {
  for (var i=0;i<edges.length;i++) {
    if (edges[i].id.substr(0,4)=='edge') {
      edges[i].setAttribute('class','edge');
    }
  }
}
]]></script>
        <defs>
                <circle id="rim" cx="0" cy="0" r="7"/>
                <circle id="rim2" cx="0" cy="0" r="3.5"/>
                <g id="zoomPlus">
                        <use xlink:href="#rim" fill="#404040">
                                <set attributeName="fill" to="#808080" begin="zoomplus.mouseover" end="zoomplus.mouseout"/>
                        </use>
                        <path d="M-4,0h8M0,-4v8" fill="none" stroke="white" stroke-width="1.5" pointer-events="none"/>
                </g>
                <g id="zoomMin">
                        <use xlink:href="#rim" fill="#404040">
                                <set attributeName="fill" to="#808080" begin="zoomminus.mouseover" end="zoomminus.mouseout"/>
                        </use>
                        <path d="M-4,0h8" fill="none" stroke="white" stroke-width="1.5" pointer-events="none"/>
                </g>
                <g id="dirArrow">
                        <path fill="none" stroke="white" stroke-width="1.5" d="M0,-3.0v7 M-2.5,-0.5L0,-3.0L2.5,-0.5"/>
                </g>
               <g id="resetDef">
                       <use xlink:href="#rim2" fill="#404040">
                               <set attributeName="fill" to="#808080" begin="reset.mouseover" end="reset.mouseout"/>
                       </use>
               </g>
        </defs>

<script type="text/javascript">
var viewWidth = 1357;
var viewHeight = 267;
var sectionId = 'dynsection-125';
</script>
<script xlink:href="svgpan.js"/>
<svg id="graph" class="graph">
<g id="viewport">
<title>carta::Session::SendSpatialProfileData</title>
<!-- Node1 -->
<g id="node1" class="node">
<title>Node1</title>
<g id="a_node1"><a xlink:title=" ">
<polygon fill="#bfbfbf" stroke="black" points="1200,-90 1200,-120 1349,-120 1349,-90 1200,-90"/>
<text text-anchor="start" x="1208" y="-108" font-family="Helvetica,sans-Serif" font-size="10.00">carta::Session::SendSpatial</text>
<text text-anchor="middle" x="1274.5" y="-97" font-family="Helvetica,sans-Serif" font-size="10.00">ProfileData</text>
</a>
</g>
</g>
<!-- Node2 -->
<g id="node2" class="node">
<title>Node2</title>
<g id="a_node2"><a xlink:href="classcarta_1_1Session.html#aa076ddc044321ae415f7d1d29df176da" target="_top" xlink:title=" ">
<polygon fill="none" stroke="black" points="1011,-189.5 1011,-208.5 1163,-208.5 1163,-189.5 1011,-189.5"/>
<text text-anchor="middle" x="1087" y="-196.5" font-family="Helvetica,sans-Serif" font-size="10.00">carta::Session::OnSetCursor</text>
</a>
</g>
</g>
<!-- Node1&#45;&gt;Node2 -->
<g id="edge1" class="edge">
<title>Node1&#45;&gt;Node2</title>
<path fill="none" stroke="midnightblue" d="M1234.69,-124.66C1195.59,-144.48 1136.87,-174.23 1106.97,-189.39"/>
<polygon fill="midnightblue" stroke="midnightblue" points="1236.36,-127.74 1243.7,-120.1 1233.19,-121.5 1236.36,-127.74"/>
</g>
<!-- Node8 -->
<g id="node8" class="node">
<title>Node8</title>
<g id="a_node8"><a xlink:href="classcarta_1_1Session.html#a390efae381051bcf1f695707222f207f" target="_top" xlink:title=" ">
<polygon fill="none" stroke="black" points="1010,-17 1010,-47 1164,-47 1164,-17 1010,-17"/>
<text text-anchor="start" x="1018" y="-35" font-family="Helvetica,sans-Serif" font-size="10.00">carta::Session::OnSetSpatial</text>
<text text-anchor="middle" x="1087" y="-24" font-family="Helvetica,sans-Serif" font-size="10.00">Requirements</text>
</a>
</g>
</g>
<!-- Node1&#45;&gt;Node8 -->
<g id="edge7" class="edge">
<title>Node1&#45;&gt;Node8</title>
<path fill="none" stroke="midnightblue" d="M1232.96,-85.52C1212.51,-76.04 1187.19,-64.82 1164,-56 1155.85,-52.9 1147.11,-49.88 1138.56,-47.07"/>
<polygon fill="midnightblue" stroke="midnightblue" points="1231.74,-88.81 1242.28,-89.88 1234.7,-82.47 1231.74,-88.81"/>
</g>
<!-- Node9 -->
<g id="node9" class="node">
<title>Node9</title>
<g id="a_node9"><a xlink:href="classcarta_1_1Session.html#a85b4eb14c9181087b03046119b117789" target="_top" xlink:title=" ">
<polygon fill="none" stroke="black" points="1012.5,-115 1012.5,-145 1161.5,-145 1161.5,-115 1012.5,-115"/>
<text text-anchor="start" x="1020.5" y="-133" font-family="Helvetica,sans-Serif" font-size="10.00">carta::Session::SendSpatial</text>
<text text-anchor="middle" x="1087" y="-122" font-family="Helvetica,sans-Serif" font-size="10.00">ProfileDataByFileId</text>
</a>
</g>
</g>
<!-- Node1&#45;&gt;Node9 -->
<g id="edge8" class="edge">
<title>Node1&#45;&gt;Node9</title>
<path fill="none" stroke="midnightblue" d="M1189.84,-116.28C1180.49,-117.54 1171.01,-118.81 1161.8,-120.05"/>
<polygon fill="midnightblue" stroke="midnightblue" points="1190.48,-119.72 1199.92,-114.92 1189.54,-112.78 1190.48,-119.72"/>
</g>
<!-- Node19 -->
<g id="node19" class="node">
<title>Node19</title>
<g id="a_node19"><a xlink:href="classcarta_1_1Session.html#a44647c44e04c9b96638cc87980efbf77" target="_top" xlink:title=" ">
<polygon fill="none" stroke="black" points="1012.5,-66 1012.5,-96 1161.5,-96 1161.5,-66 1012.5,-66"/>
<text text-anchor="start" x="1020.5" y="-84" font-family="Helvetica,sans-Serif" font-size="10.00">carta::Session::SendSpatial</text>
<text text-anchor="middle" x="1087" y="-73" font-family="Helvetica,sans-Serif" font-size="10.00">ProfileDataByRegionId</text>
</a>
</g>
</g>
<!-- Node1&#45;&gt;Node19 -->
<g id="edge19" class="edge">
<title>Node1&#45;&gt;Node19</title>
<path fill="none" stroke="midnightblue" d="M1189.84,-94.18C1180.49,-92.97 1171.01,-91.74 1161.8,-90.55"/>
<polygon fill="midnightblue" stroke="midnightblue" points="1189.55,-97.67 1199.92,-95.48 1190.45,-90.73 1189.55,-97.67"/>
</g>
<!-- Node3 -->
<g id="node3" class="node">
<title>Node3</title>
<g id="a_node3"><a xlink:href="classcarta_1_1CursorSettings.html#a0d6e27c8a1772bede7d5d4276df452bd" target="_top" xlink:title=" ">
<polygon fill="none" stroke="black" points="823,-228 823,-258 942,-258 942,-228 823,-228"/>
<text text-anchor="start" x="831" y="-246" font-family="Helvetica,sans-Serif" font-size="10.00">carta::CursorSettings</text>
<text text-anchor="middle" x="882.5" y="-235" font-family="Helvetica,sans-Serif" font-size="10.00">::ExecuteOne</text>
</a>
</g>
</g>
<!-- Node2&#45;&gt;Node3 -->
<g id="edge2" class="edge">
<title>Node2&#45;&gt;Node3</title>
<path fill="none" stroke="midnightblue" d="M1032.16,-210.7C1004.48,-216.71 970.7,-224.05 942.34,-230.21"/>
<polygon fill="midnightblue" stroke="midnightblue" points="1033.03,-214.09 1042.06,-208.55 1031.55,-207.25 1033.03,-214.09"/>
</g>
<!-- Node5 -->
<g id="node5" class="node">
<title>Node5</title>
<g id="a_node5"><a xlink:href="classcarta_1_1Session.html#afe5c090c017ef208f638b96a7eb1ecf0" target="_top" xlink:title=" ">
<polygon fill="none" stroke="black" points="378.5,-186 378.5,-216 522.5,-216 522.5,-186 378.5,-186"/>
<text text-anchor="start" x="386.5" y="-204" font-family="Helvetica,sans-Serif" font-size="10.00">carta::Session::OnResume</text>
<text text-anchor="middle" x="450.5" y="-193" font-family="Helvetica,sans-Serif" font-size="10.00">Session</text>
</a>
</g>
</g>
<!-- Node2&#45;&gt;Node5 -->
<g id="edge4" class="edge">
<title>Node2&#45;&gt;Node5</title>
<path fill="none" stroke="midnightblue" d="M1000.71,-199.27C874.53,-199.67 640.37,-200.4 522.78,-200.78"/>
<polygon fill="midnightblue" stroke="midnightblue" points="1000.73,-202.77 1010.72,-199.24 1000.71,-195.77 1000.73,-202.77"/>
</g>
<!-- Node4 -->
<g id="node4" class="node">
<title>Node4</title>
<g id="a_node4"><a xlink:href="classcarta_1_1SetCursorTask.html#a4ae7952b66399be7c43433ef94d4ae39" target="_top" xlink:title=" ">
<polygon fill="none" stroke="black" points="607.5,-228 607.5,-258 723.5,-258 723.5,-228 607.5,-228"/>
<text text-anchor="start" x="615.5" y="-246" font-family="Helvetica,sans-Serif" font-size="10.00">carta::SetCursorTask</text>
<text text-anchor="middle" x="665.5" y="-235" font-family="Helvetica,sans-Serif" font-size="10.00">::execute</text>
</a>
</g>
</g>
<!-- Node3&#45;&gt;Node4 -->
<g id="edge3" class="edge">
<title>Node3&#45;&gt;Node4</title>
<path fill="none" stroke="midnightblue" d="M812.41,-243C783.77,-243 750.95,-243 723.69,-243"/>
<polygon fill="midnightblue" stroke="midnightblue" points="812.75,-246.5 822.75,-243 812.75,-239.5 812.75,-246.5"/>
</g>
<!-- Node6 -->
<g id="node6" class="node">
<title>Node6</title>
<g id="a_node6"><a xlink:href="classcarta_1_1SessionManager.html#a474c31666cb3b22fcbe8af5f945d2950" target="_top" xlink:title=" ">
<polygon fill="none" stroke="black" points="180.5,-186 180.5,-216 308.5,-216 308.5,-186 180.5,-186"/>
<text text-anchor="start" x="188.5" y="-204" font-family="Helvetica,sans-Serif" font-size="10.00">carta::SessionManager</text>
<text text-anchor="middle" x="244.5" y="-193" font-family="Helvetica,sans-Serif" font-size="10.00">::OnMessage</text>
</a>
</g>
</g>
<!-- Node5&#45;&gt;Node6 -->
<g id="edge5" class="edge">
<title>Node5&#45;&gt;Node6</title>
<path fill="none" stroke="midnightblue" d="M368.22,-201C348.45,-201 327.61,-201 308.82,-201"/>
<polygon fill="midnightblue" stroke="midnightblue" points="368.44,-204.5 378.44,-201 368.44,-197.5 368.44,-204.5"/>
</g>
<!-- Node7 -->
<g id="node7" class="node">
<title>Node7</title>
<g id="a_node7"><a xlink:href="classcarta_1_1SessionManager.html#ab4e4e7f0244bd6843e70ab91652debf6" target="_top" xlink:title=" ">
<polygon fill="none" stroke="black" points="0,-186 0,-216 128,-216 128,-186 0,-186"/>
<text text-anchor="start" x="8" y="-204" font-family="Helvetica,sans-Serif" font-size="10.00">carta::SessionManager</text>
<text text-anchor="middle" x="64" y="-193" font-family="Helvetica,sans-Serif" font-size="10.00">::RunApp</text>
</a>
</g>
</g>
<!-- Node6&#45;&gt;Node7 -->
<g id="edge6" class="edge">
<title>Node6&#45;&gt;Node7</title>
<path fill="none" stroke="midnightblue" d="M170.25,-201C156.26,-201 141.73,-201 128.1,-201"/>
<polygon fill="midnightblue" stroke="midnightblue" points="170.32,-204.5 180.32,-201 170.32,-197.5 170.32,-204.5"/>
</g>
<!-- Node10 -->
<g id="node10" class="node">
<title>Node10</title>
<g id="a_node10"><a xlink:href="classcarta_1_1Session.html#aef4b334b4727ea531b229d242c3108b2" target="_top" xlink:title=" ">
<polygon fill="none" stroke="black" points="792.5,-114.5 792.5,-133.5 972.5,-133.5 972.5,-114.5 792.5,-114.5"/>
<text text-anchor="middle" x="882.5" y="-121.5" font-family="Helvetica,sans-Serif" font-size="10.00">carta::Session::UpdateImageData</text>
</a>
</g>
</g>
<!-- Node9&#45;&gt;Node10 -->
<g id="edge9" class="edge">
<title>Node9&#45;&gt;Node10</title>
<path fill="none" stroke="midnightblue" d="M1002.24,-127.52C992.47,-127.23 982.47,-126.93 972.63,-126.64"/>
<polygon fill="midnightblue" stroke="midnightblue" points="1002.22,-131.02 1012.32,-127.82 1002.43,-124.02 1002.22,-131.02"/>
</g>
<!-- Node11 -->
<g id="node11" class="node">
<title>Node11</title>
<g id="a_node11"><a xlink:href="classcarta_1_1Session.html#a74bb5c365ac00159f0b11e44add4a414" target="_top" xlink:title=" ">
<polygon fill="none" stroke="black" points="576,-88 576,-118 755,-118 755,-88 576,-88"/>
<text text-anchor="start" x="584" y="-106" font-family="Helvetica,sans-Serif" font-size="10.00">carta::Session::ExecuteAnimation</text>
<text text-anchor="middle" x="665.5" y="-95" font-family="Helvetica,sans-Serif" font-size="10.00">FrameInner</text>
</a>
</g>
</g>
<!-- Node10&#45;&gt;Node11 -->
<g id="edge10" class="edge">
<title>Node10&#45;&gt;Node11</title>
<path fill="none" stroke="midnightblue" d="M782.3,-114.31C773.22,-113.42 764.06,-112.53 755.09,-111.65"/>
<polygon fill="midnightblue" stroke="midnightblue" points="782.21,-117.82 792.5,-115.31 782.89,-110.85 782.21,-117.82"/>
</g>
<!-- Node14 -->
<g id="node14" class="node">
<title>Node14</title>
<g id="a_node14"><a xlink:href="classcarta_1_1Session.html#af5f49139f41c92e209aee736bb1cd260" target="_top" xlink:title=" ">
<polygon fill="none" stroke="black" points="590,-137 590,-167 741,-167 741,-137 590,-137"/>
<text text-anchor="start" x="598" y="-155" font-family="Helvetica,sans-Serif" font-size="10.00">carta::Session::OnSetImage</text>
<text text-anchor="middle" x="665.5" y="-144" font-family="Helvetica,sans-Serif" font-size="10.00">Channels</text>
</a>
</g>
</g>
<!-- Node10&#45;&gt;Node14 -->
<g id="edge13" class="edge">
<title>Node10&#45;&gt;Node14</title>
<path fill="none" stroke="midnightblue" d="M798.38,-134.83C779.55,-137.28 759.67,-139.87 741.22,-142.27"/>
<polygon fill="midnightblue" stroke="midnightblue" points="798.95,-138.28 808.41,-133.52 798.04,-131.34 798.95,-138.28"/>
</g>
<!-- Node17 -->
<g id="node17" class="node">
<title>Node17</title>
<g id="a_node17"><a xlink:href="classcarta_1_1Session.html#a4565eed986a6f5ed57ab3a0a6c5b6110" target="_top" xlink:title=" ">
<polygon fill="none" stroke="black" points="591.5,-39 591.5,-69 739.5,-69 739.5,-39 591.5,-39"/>
<text text-anchor="start" x="599.5" y="-57" font-family="Helvetica,sans-Serif" font-size="10.00">carta::Session::RegionData</text>
<text text-anchor="middle" x="665.5" y="-46" font-family="Helvetica,sans-Serif" font-size="10.00">Streams</text>
</a>
</g>
</g>
<!-- Node10&#45;&gt;Node17 -->
<g id="edge17" class="edge">
<title>Node10&#45;&gt;Node17</title>
<path fill="none" stroke="midnightblue" d="M825.09,-111.75C813.61,-108.5 801.75,-104.59 791,-100 773.76,-92.63 772.22,-85.42 755,-78 747.25,-74.66 738.92,-71.68 730.57,-69.04"/>
<polygon fill="midnightblue" stroke="midnightblue" points="824.49,-115.21 835.06,-114.43 826.31,-108.45 824.49,-115.21"/>
</g>
<!-- Node12 -->
<g id="node12" class="node">
<title>Node12</title>
<g id="a_node12"><a xlink:href="classcarta_1_1Session.html#aa7cbd24871105659a8520975e92d4eab" target="_top" xlink:title=" ">
<polygon fill="none" stroke="black" points="361,-88 361,-118 540,-118 540,-88 361,-88"/>
<text text-anchor="start" x="369" y="-106" font-family="Helvetica,sans-Serif" font-size="10.00">carta::Session::ExecuteAnimation</text>
<text text-anchor="middle" x="450.5" y="-95" font-family="Helvetica,sans-Serif" font-size="10.00">Frame</text>
</a>
</g>
</g>
<!-- Node11&#45;&gt;Node12 -->
<g id="edge11" class="edge">
<title>Node11&#45;&gt;Node12</title>
<path fill="none" stroke="midnightblue" d="M565.46,-103C557.01,-103 548.5,-103 540.14,-103"/>
<polygon fill="midnightblue" stroke="midnightblue" points="565.71,-106.5 575.71,-103 565.71,-99.5 565.71,-106.5"/>
</g>
<!-- Node13 -->
<g id="node13" class="node">
<title>Node13</title>
<g id="a_node13"><a xlink:href="classcarta_1_1AnimationTask.html#a92a52915589d226cf4afd3428ffea271" target="_top" xlink:title=" ">
<polygon fill="none" stroke="black" points="185,-88 185,-118 304,-118 304,-88 185,-88"/>
<text text-anchor="start" x="193" y="-106" font-family="Helvetica,sans-Serif" font-size="10.00">carta::AnimationTask</text>
<text text-anchor="middle" x="244.5" y="-95" font-family="Helvetica,sans-Serif" font-size="10.00">::execute</text>
</a>
</g>
</g>
<!-- Node12&#45;&gt;Node13 -->
<g id="edge12" class="edge">
<title>Node12&#45;&gt;Node13</title>
<path fill="none" stroke="midnightblue" d="M350.49,-103C334.58,-103 318.58,-103 304.03,-103"/>
<polygon fill="midnightblue" stroke="midnightblue" points="350.91,-106.5 360.91,-103 350.91,-99.5 350.91,-106.5"/>
</g>
<!-- Node14&#45;&gt;Node5 -->
<g id="edge16" class="edge">
<title>Node14&#45;&gt;Node5</title>
<path fill="none" stroke="midnightblue" d="M589.16,-169.33C565.52,-174.77 539.62,-180.73 516.73,-185.99"/>
<polygon fill="midnightblue" stroke="midnightblue" points="590.18,-172.69 599.15,-167.03 588.62,-165.87 590.18,-172.69"/>
</g>
<!-- Node15 -->
<g id="node15" class="node">
<title>Node15</title>
<g id="a_node15"><a xlink:href="classcarta_1_1Session.html#a258addc8994b72cb71c51280d3850bf4" target="_top" xlink:title=" ">
<polygon fill="none" stroke="black" points="378,-137 378,-167 523,-167 523,-137 378,-137"/>
<text text-anchor="start" x="386" y="-155" font-family="Helvetica,sans-Serif" font-size="10.00">carta::Session::ExecuteSet</text>
<text text-anchor="middle" x="450.5" y="-144" font-family="Helvetica,sans-Serif" font-size="10.00">ChannelEvt</text>
</a>
</g>
</g>
<!-- Node14&#45;&gt;Node15 -->
<g id="edge14" class="edge">
<title>Node14&#45;&gt;Node15</title>
<path fill="none" stroke="midnightblue" d="M579.46,-152C560.84,-152 541.3,-152 523.25,-152"/>
<polygon fill="midnightblue" stroke="midnightblue" points="579.7,-155.5 589.7,-152 579.7,-148.5 579.7,-155.5"/>
</g>
<!-- Node16 -->
<g id="node16" class="node">
<title>Node16</title>
<g id="a_node16"><a xlink:href="classcarta_1_1SetImageChannelsTask.html#a060a6a6a22fa9d26231e36e640534527" target="_top" xlink:title=" ">
<polygon fill="none" stroke="black" points="164,-137 164,-167 325,-167 325,-137 164,-137"/>
<text text-anchor="start" x="172" y="-155" font-family="Helvetica,sans-Serif" font-size="10.00">carta::SetImageChannelsTask</text>
<text text-anchor="middle" x="244.5" y="-144" font-family="Helvetica,sans-Serif" font-size="10.00">::execute</text>
</a>
</g>
</g>
<!-- Node15&#45;&gt;Node16 -->
<g id="edge15" class="edge">
<title>Node15&#45;&gt;Node16</title>
<path fill="none" stroke="midnightblue" d="M367.78,-152C353.79,-152 339.26,-152 325.31,-152"/>
<polygon fill="midnightblue" stroke="midnightblue" points="367.86,-155.5 377.86,-152 367.86,-148.5 367.86,-155.5"/>
</g>
<!-- Node18 -->
<g id="node18" class="node">
<title>Node18</title>
<g id="a_node18"><a xlink:href="classcarta_1_1RegionDataStreamsTask.html#a38cdf00f163c90d07819252c648c47c4" target="_top" xlink:title=" ">
<polygon fill="none" stroke="black" points="378,-39 378,-69 523,-69 523,-39 378,-39"/>
<text text-anchor="start" x="386" y="-57" font-family="Helvetica,sans-Serif" font-size="10.00">carta::RegionDataStreams</text>
<text text-anchor="middle" x="450.5" y="-46" font-family="Helvetica,sans-Serif" font-size="10.00">Task::execute</text>
</a>
</g>
</g>
<!-- Node17&#45;&gt;Node18 -->
<g id="edge18" class="edge">
<title>Node17&#45;&gt;Node18</title>
<path fill="none" stroke="midnightblue" d="M581.29,-54C562.14,-54 541.94,-54 523.33,-54"/>
<polygon fill="midnightblue" stroke="midnightblue" points="581.5,-57.5 591.5,-54 581.5,-50.5 581.5,-57.5"/>
</g>
<!-- Node20 -->
<g id="node20" class="node">
<title>Node20</title>
<g id="a_node20"><a xlink:href="classcarta_1_1Session.html#ac86d5f7886628a9429955f05426f25ab" target="_top" xlink:title=" ">
<polygon fill="none" stroke="black" points="791,-71.5 791,-90.5 974,-90.5 974,-71.5 791,-71.5"/>
<text text-anchor="middle" x="882.5" y="-78.5" font-family="Helvetica,sans-Serif" font-size="10.00">carta::Session::UpdateRegionData</text>
</a>
</g>
</g>
<!-- Node19&#45;&gt;Node20 -->
<g id="edge20" class="edge">
<title>Node19&#45;&gt;Node20</title>
<path fill="none" stroke="midnightblue" d="M1002.3,-81C992.97,-81 983.44,-81 974.03,-81"/>
<polygon fill="midnightblue" stroke="midnightblue" points="1002.32,-84.5 1012.32,-81 1002.32,-77.5 1002.32,-84.5"/>
</g>
<!-- Node20&#45;&gt;Node11 -->
<g id="edge21" class="edge">
<title>Node20&#45;&gt;Node11</title>
<path fill="none" stroke="midnightblue" d="M780.92,-91.29C772.34,-92.17 763.71,-93.05 755.23,-93.92"/>
<polygon fill="midnightblue" stroke="midnightblue" points="781.35,-94.77 790.94,-90.27 780.64,-87.8 781.35,-94.77"/>
</g>
<!-- Node20&#45;&gt;Node14 -->
<g id="edge23" class="edge">
<title>Node20&#45;&gt;Node14</title>
<path fill="none" stroke="midnightblue" d="M825.09,-93.25C813.61,-96.5 801.75,-100.41 791,-105 773.76,-112.37 772.18,-119.49 755,-127 746.51,-130.71 737.33,-134.02 728.2,-136.92"/>
<polygon fill="midnightblue" stroke="midnightblue" points="826.31,-96.55 835.06,-90.57 824.49,-89.79 826.31,-96.55"/>
</g>
<!-- Node20&#45;&gt;Node17 -->
<g id="edge24" class="edge">
<title>Node20&#45;&gt;Node17</title>
<path fill="none" stroke="midnightblue" d="M795.55,-70.21C777.09,-67.89 757.74,-65.46 739.81,-63.21"/>
<polygon fill="midnightblue" stroke="midnightblue" points="795.34,-73.71 805.7,-71.48 796.21,-66.76 795.34,-73.71"/>
</g>
<!-- Node21 -->
<g id="node21" class="node">
<title>Node21</title>
<g id="a_node21"><a xlink:href="classcarta_1_1Session.html#ae9c7b649790d7ab36f01a4a966674a63" target="_top" xlink:title=" ">
<polygon fill="none" stroke="black" points="592,-0.5 592,-19.5 739,-19.5 739,-0.5 592,-0.5"/>
<text text-anchor="middle" x="665.5" y="-7.5" font-family="Helvetica,sans-Serif" font-size="10.00">carta::Session::OnOpenFile</text>
</a>
</g>
</g>
<!-- Node20&#45;&gt;Node21 -->
<g id="edge22" class="edge">
<title>Node20&#45;&gt;Node21</title>
<path fill="none" stroke="midnightblue" d="M851.93,-67.08C826.64,-55.61 789.04,-39.56 755,-29 743.29,-25.37 730.5,-22.19 718.38,-19.52"/>
<polygon fill="midnightblue" stroke="midnightblue" points="850.77,-70.4 861.32,-71.39 853.69,-64.04 850.77,-70.4"/>
</g>
</g>
</svg>
        <g id="navigator" transform="translate(0 0)" fill="#404254">
                <rect fill="#f2f5e9" fill-opacity="0.5" stroke="#606060" stroke-width=".5" x="0" y="0" width="60" height="60"/>
                <use id="zoomplus" xlink:href="#zoomPlus" x="17" y="9" onmousedown="handleZoom(evt,'in')"/>
                <use id="zoomminus" xlink:href="#zoomMin" x="42" y="9" onmousedown="handleZoom(evt,'out')"/>
                <use id="reset" xlink:href="#resetDef" x="30" y="36" onmousedown="handleReset()"/>
                <g id="arrowUp" xlink:href="#dirArrow" transform="translate(30 24)" onmousedown="handlePan(0,-1)">
                  <use xlink:href="#rim" fill="#404040">
                        <set attributeName="fill" to="#808080" begin="arrowUp.mouseover" end="arrowUp.mouseout"/>
                  </use>
                  <path fill="none" stroke="white" stroke-width="1.5" d="M0,-3.0v7 M-2.5,-0.5L0,-3.0L2.5,-0.5"/>
                </g>
                <g id="arrowRight" xlink:href="#dirArrow" transform="rotate(90) translate(36 -43)" onmousedown="handlePan(1,0)">
                  <use xlink:href="#rim" fill="#404040">
                        <set attributeName="fill" to="#808080" begin="arrowRight.mouseover" end="arrowRight.mouseout"/>
                  </use>
                  <path fill="none" stroke="white" stroke-width="1.5" d="M0,-3.0v7 M-2.5,-0.5L0,-3.0L2.5,-0.5"/>
                </g>
                <g id="arrowDown" xlink:href="#dirArrow" transform="rotate(180) translate(-30 -48)" onmousedown="handlePan(0,1)">
                  <use xlink:href="#rim" fill="#404040">
                        <set attributeName="fill" to="#808080" begin="arrowDown.mouseover" end="arrowDown.mouseout"/>
                  </use>
                  <path fill="none" stroke="white" stroke-width="1.5" d="M0,-3.0v7 M-2.5,-0.5L0,-3.0L2.5,-0.5"/>
                </g>
                <g id="arrowLeft" xlink:href="#dirArrow" transform="rotate(270) translate(-36 17)" onmousedown="handlePan(-1,0)">
                  <use xlink:href="#rim" fill="#404040">
                        <set attributeName="fill" to="#808080" begin="arrowLeft.mouseover" end="arrowLeft.mouseout"/>
                  </use>
                  <path fill="none" stroke="white" stroke-width="1.5" d="M0,-3.0v7 M-2.5,-0.5L0,-3.0L2.5,-0.5"/>
                </g>
        </g>
        <svg viewBox="0 0 15 15" width="100%" height="30px" preserveAspectRatio="xMaxYMin meet">
         <g id="arrow_out" transform="scale(0.3 0.3)">
          <a xlink:href="classcarta_1_1Session_a120e85ac57a07414f829a228618ab5fe_icgraph_org.svg" target="_base">
           <rect id="button" ry="5" rx="5" y="6" x="6" height="38" width="38"
                fill="#f2f5e9" fill-opacity="0.5" stroke="#606060" stroke-width="1.0"/>
           <path id="arrow"
             d="M 11.500037,31.436501 C 11.940474,20.09759 22.043105,11.32322 32.158766,21.979434 L 37.068811,17.246167 C 37.068811,17.246167 37.088388,32 37.088388,32 L 22.160133,31.978069 C 22.160133,31.978069 26.997745,27.140456 26.997745,27.140456 C 18.528582,18.264221 13.291696,25.230495 11.500037,31.436501 z"
             style="fill:#404040;"/>
          </a>
         </g>
        </svg>
</svg>
