<?xml version="1.0" encoding="UTF-8" standalone="no"?>
<!DOCTYPE svg PUBLIC "-//W3C//DTD SVG 1.1//EN"
 "http://www.w3.org/Graphics/SVG/1.1/DTD/svg11.dtd">
<!-- Generated by graphviz version 2.43.0 (0)
 -->
<!-- Title: carta::FileListHandler::OnRegionFileInfoRequest Pages: 1 -->
<svg width="562pt" height="127pt"
 viewBox="0.00 0.00 562.00 126.50" xmlns="http://www.w3.org/2000/svg" xmlns:xlink="http://www.w3.org/1999/xlink">
<g id="graph0" class="graph" transform="scale(1 1) rotate(0) translate(4 122.5)">
<title>carta::FileListHandler::OnRegionFileInfoRequest</title>
<!-- Node1 -->
<g id="node1" class="node">
<title>Node1</title>
<g id="a_node1"><a xlink:title=" ">
<polygon fill="#bfbfbf" stroke="black" points="0,-39 0,-69 146,-69 146,-39 0,-39"/>
<text text-anchor="start" x="8" y="-57" font-family="Helvetica,sans-Serif" font-size="10.00">carta::FileListHandler</text>
<text text-anchor="middle" x="73" y="-46" font-family="Helvetica,sans-Serif" font-size="10.00">::OnRegionFileInfoRequest</text>
</a>
</g>
</g>
<!-- Node2 -->
<g id="node2" class="node">
<title>Node2</title>
<g id="a_node2"><a xlink:href="classcarta_1_1FileListHandler.html#a7f4f8c5ad7eb30ad51a712446752283d" target="_top" xlink:title=" ">
<polygon fill="none" stroke="black" points="189,-88 189,-118 309,-118 309,-88 189,-88"/>
<text text-anchor="start" x="197" y="-106" font-family="Helvetica,sans-Serif" font-size="10.00">carta::FileListHandler</text>
<text text-anchor="middle" x="249" y="-95" font-family="Helvetica,sans-Serif" font-size="10.00">::FillRegionFileInfo</text>
</a>
</g>
</g>
<!-- Node1&#45;&gt;Node2 -->
<g id="edge1" class="edge">
<title>Node1&#45;&gt;Node2</title>
<path fill="none" stroke="midnightblue" d="M127.63,-69.1C145.74,-74.2 166.12,-79.94 184.9,-85.23"/>
<polygon fill="midnightblue" stroke="midnightblue" points="183.98,-88.61 194.55,-87.95 185.87,-81.87 183.98,-88.61"/>
</g>
<!-- Node5 -->
<g id="node5" class="node">
<title>Node5</title>
<g id="a_node5"><a xlink:href="classcarta_1_1FileListHandler.html#a8223ce481f66e64ce47913d80d870ccd" target="_top" xlink:title=" ">
<polygon fill="none" stroke="black" points="182,-39 182,-69 316,-69 316,-39 182,-39"/>
<text text-anchor="start" x="190" y="-57" font-family="Helvetica,sans-Serif" font-size="10.00">carta::FileListHandler</text>
<text text-anchor="middle" x="249" y="-46" font-family="Helvetica,sans-Serif" font-size="10.00">::GetRegionFileContents</text>
</a>
</g>
</g>
<!-- Node1&#45;&gt;Node5 -->
<g id="edge4" class="edge">
<title>Node1&#45;&gt;Node5</title>
<path fill="none" stroke="midnightblue" d="M146.03,-54C154.47,-54 163.11,-54 171.6,-54"/>
<polygon fill="midnightblue" stroke="midnightblue" points="171.88,-57.5 181.88,-54 171.88,-50.5 171.88,-57.5"/>
</g>
<!-- Node6 -->
<g id="node6" class="node">
<title>Node6</title>
<g id="a_node6"><a xlink:href="Casacore_8cc.html#a5c9a1def63cd54cea5e9cf5b893b5708" target="_top" xlink:title=" ">
<polygon fill="none" stroke="black" points="187,-0.5 187,-19.5 311,-19.5 311,-0.5 187,-0.5"/>
<text text-anchor="middle" x="249" y="-7.5" font-family="Helvetica,sans-Serif" font-size="10.00">GetResolvedFilename</text>
</a>
</g>
</g>
<!-- Node1&#45;&gt;Node6 -->
<g id="edge5" class="edge">
<title>Node1&#45;&gt;Node6</title>
<path fill="none" stroke="midnightblue" d="M133.39,-38.98C155.31,-33.44 179.83,-27.24 200.55,-22"/>
<polygon fill="midnightblue" stroke="midnightblue" points="201.55,-25.36 210.38,-19.51 199.83,-18.57 201.55,-25.36"/>
</g>
<!-- Node3 -->
<g id="node3" class="node">
<title>Node3</title>
<g id="a_node3"><a xlink:href="File_8cc.html#af9947f7bb03abff3412672068ab7acdf" target="_top" xlink:title=" ">
<polygon fill="none" stroke="black" points="352,-93.5 352,-112.5 455,-112.5 455,-93.5 352,-93.5"/>
<text text-anchor="middle" x="403.5" y="-100.5" font-family="Helvetica,sans-Serif" font-size="10.00">GuessRegionType</text>
</a>
</g>
</g>
<!-- Node2&#45;&gt;Node3 -->
<g id="edge2" class="edge">
<title>Node2&#45;&gt;Node3</title>
<path fill="none" stroke="midnightblue" d="M309.4,-103C320.04,-103 331.15,-103 341.84,-103"/>
<polygon fill="midnightblue" stroke="midnightblue" points="341.92,-106.5 351.92,-103 341.92,-99.5 341.92,-106.5"/>
</g>
<!-- Node4 -->
<g id="node4" class="node">
<title>Node4</title>
<g id="a_node4"><a xlink:href="String_8cc.html#a1540adc30610b9db4add6622c248b9d1" target="_top" xlink:title=" ">
<polygon fill="none" stroke="black" points="491,-93.5 491,-112.5 554,-112.5 554,-93.5 491,-93.5"/>
<text text-anchor="middle" x="522.5" y="-100.5" font-family="Helvetica,sans-Serif" font-size="10.00">HasSuffix</text>
</a>
</g>
</g>
<!-- Node3&#45;&gt;Node4 -->
<g id="edge3" class="edge">
<title>Node3&#45;&gt;Node4</title>
<path fill="none" stroke="midnightblue" d="M455.14,-103C463.65,-103 472.39,-103 480.61,-103"/>
<polygon fill="midnightblue" stroke="midnightblue" points="480.7,-106.5 490.7,-103 480.7,-99.5 480.7,-106.5"/>
</g>
</g>
</svg>
