<?xml version="1.0" encoding="UTF-8" standalone="no"?>
<!DOCTYPE svg PUBLIC "-//W3C//DTD SVG 1.1//EN"
 "http://www.w3.org/Graphics/SVG/1.1/DTD/svg11.dtd">
<!-- Generated by graphviz version 2.43.0 (0)
 -->
<!-- Title: carta::FileExtInfoLoader::AddComputedEntriesFromHeaders Pages: 1 -->
<!--zoomable 411 -->
<svg id="main" version="1.1" xmlns="http://www.w3.org/2000/svg" xmlns:xlink="http://www.w3.org/1999/xlink" xml:space="preserve" onload="init(evt)">
<style type="text/css"><![CDATA[
.edge:hover path { stroke: red; }
.edge:hover polygon { stroke: red; fill: red; }
]]></style>
<script type="text/javascript"><![CDATA[
var edges = document.getElementsByTagName('g');
if (edges && edges.length) {
  for (var i=0;i<edges.length;i++) {
    if (edges[i].id.substr(0,4)=='edge') {
      edges[i].setAttribute('class','edge');
    }
  }
}
]]></script>
        <defs>
                <circle id="rim" cx="0" cy="0" r="7"/>
                <circle id="rim2" cx="0" cy="0" r="3.5"/>
                <g id="zoomPlus">
                        <use xlink:href="#rim" fill="#404040">
                                <set attributeName="fill" to="#808080" begin="zoomplus.mouseover" end="zoomplus.mouseout"/>
                        </use>
                        <path d="M-4,0h8M0,-4v8" fill="none" stroke="white" stroke-width="1.5" pointer-events="none"/>
                </g>
                <g id="zoomMin">
                        <use xlink:href="#rim" fill="#404040">
                                <set attributeName="fill" to="#808080" begin="zoomminus.mouseover" end="zoomminus.mouseout"/>
                        </use>
                        <path d="M-4,0h8" fill="none" stroke="white" stroke-width="1.5" pointer-events="none"/>
                </g>
                <g id="dirArrow">
                        <path fill="none" stroke="white" stroke-width="1.5" d="M0,-3.0v7 M-2.5,-0.5L0,-3.0L2.5,-0.5"/>
                </g>
               <g id="resetDef">
                       <use xlink:href="#rim2" fill="#404040">
                               <set attributeName="fill" to="#808080" begin="reset.mouseover" end="reset.mouseout"/>
                       </use>
               </g>
        </defs>

<script type="text/javascript">
var viewWidth = 579;
var viewHeight = 411;
var sectionId = 'dynsection-4';
</script>
<script xlink:href="svgpan.js"/>
<svg id="graph" class="graph">
<g id="viewport">
<title>carta::FileExtInfoLoader::AddComputedEntriesFromHeaders</title>
<!-- Node1 -->
<g id="node1" class="node">
<title>Node1</title>
<g id="a_node1"><a xlink:title=" ">
<polygon fill="#bfbfbf" stroke="black" points="0,-181 0,-211 191,-211 191,-181 0,-181"/>
<text text-anchor="start" x="8" y="-199" font-family="Helvetica,sans-Serif" font-size="10.00">carta::FileExtInfoLoader</text>
<text text-anchor="middle" x="95.5" y="-188" font-family="Helvetica,sans-Serif" font-size="10.00">::AddComputedEntriesFromHeaders</text>
</a>
</g>
</g>
<!-- Node2 -->
<g id="node2" class="node">
<title>Node2</title>
<g id="a_node2"><a xlink:href="classcarta_1_1FileExtInfoLoader.html#a02cd16701178cf515aca3f5623537611" target="_top" xlink:title=" ">
<polygon fill="none" stroke="black" points="237.5,-372 237.5,-402 369.5,-402 369.5,-372 237.5,-372"/>
<text text-anchor="start" x="245.5" y="-390" font-family="Helvetica,sans-Serif" font-size="10.00">carta::FileExtInfoLoader</text>
<text text-anchor="middle" x="303.5" y="-379" font-family="Helvetica,sans-Serif" font-size="10.00">::AddCoordRanges</text>
</a>
</g>
</g>
<!-- Node1&#45;&gt;Node2 -->
<g id="edge1" class="edge">
<title>Node1&#45;&gt;Node2</title>
<path fill="none" stroke="midnightblue" d="M104.35,-211.43C121.83,-244.25 167.19,-321.41 227,-363 229.25,-364.57 231.61,-366.03 234.05,-367.41"/>
<polygon fill="midnightblue" stroke="midnightblue" points="232.64,-370.62 243.15,-371.99 235.79,-364.37 232.64,-370.62"/>
</g>
<!-- Node3 -->
<g id="node3" class="node">
<title>Node3</title>
<g id="a_node3"><a xlink:href="classcarta_1_1FileExtInfoLoader.html#adb3998e3b3756d1ee8a2bb91f445c4d7" target="_top" xlink:title=" ">
<polygon fill="none" stroke="black" points="237.5,-323 237.5,-353 369.5,-353 369.5,-323 237.5,-323"/>
<text text-anchor="start" x="245.5" y="-341" font-family="Helvetica,sans-Serif" font-size="10.00">carta::FileExtInfoLoader</text>
<text text-anchor="middle" x="303.5" y="-330" font-family="Helvetica,sans-Serif" font-size="10.00">::ConvertCoordsToDeg</text>
</a>
</g>
</g>
<!-- Node1&#45;&gt;Node3 -->
<g id="edge2" class="edge">
<title>Node1&#45;&gt;Node3</title>
<path fill="none" stroke="midnightblue" d="M109.39,-211.29C131.17,-236.23 177.74,-285.7 227,-314 230.01,-315.73 233.17,-317.35 236.4,-318.87"/>
<polygon fill="midnightblue" stroke="midnightblue" points="235.13,-322.14 245.7,-322.89 237.91,-315.71 235.13,-322.14"/>
</g>
<!-- Node4 -->
<g id="node4" class="node">
<title>Node4</title>
<g id="a_node4"><a xlink:href="classcarta_1_1FileExtInfoLoader.html#ac36abc843ecdd6253cbb9524c77bc5ce" target="_top" xlink:title=" ">
<polygon fill="none" stroke="black" points="227,-274 227,-304 380,-304 380,-274 227,-274"/>
<text text-anchor="start" x="235" y="-292" font-family="Helvetica,sans-Serif" font-size="10.00">carta::FileExtInfoLoader</text>
<text text-anchor="middle" x="303.5" y="-281" font-family="Helvetica,sans-Serif" font-size="10.00">::ConvertIncrementToArcsec</text>
</a>
</g>
</g>
<!-- Node1&#45;&gt;Node4 -->
<g id="edge3" class="edge">
<title>Node1&#45;&gt;Node4</title>
<path fill="none" stroke="midnightblue" d="M121.84,-211.14C147.66,-226.15 189.19,-249.14 227,-265 231.64,-266.94 236.49,-268.82 241.4,-270.62"/>
<polygon fill="midnightblue" stroke="midnightblue" points="240.29,-273.93 250.88,-273.95 242.61,-267.33 240.29,-273.93"/>
</g>
<!-- Node5 -->
<g id="node5" class="node">
<title>Node5</title>
<g id="a_node5"><a xlink:href="classcarta_1_1FileExtInfoLoader.html#a3b46f3add8328b7c49712851a4c26de2" target="_top" xlink:title=" ">
<polygon fill="none" stroke="black" points="237.5,-225 237.5,-255 369.5,-255 369.5,-225 237.5,-225"/>
<text text-anchor="start" x="245.5" y="-243" font-family="Helvetica,sans-Serif" font-size="10.00">carta::FileExtInfoLoader</text>
<text text-anchor="middle" x="303.5" y="-232" font-family="Helvetica,sans-Serif" font-size="10.00">::GetCoordNames</text>
</a>
</g>
</g>
<!-- Node1&#45;&gt;Node5 -->
<g id="edge4" class="edge">
<title>Node1&#45;&gt;Node5</title>
<path fill="none" stroke="midnightblue" d="M166.82,-211.02C186.36,-215.19 207.65,-219.74 227.46,-223.97"/>
<polygon fill="midnightblue" stroke="midnightblue" points="226.84,-227.42 237.35,-226.08 228.3,-220.57 226.84,-227.42"/>
</g>
<!-- Node6 -->
<g id="node6" class="node">
<title>Node6</title>
<g id="a_node6"><a xlink:href="classcarta_1_1FileExtInfoLoader.html#a91a1a282afb4ad16afc2940da18735d2" target="_top" xlink:title=" ">
<polygon fill="none" stroke="black" points="427.5,-203 427.5,-233 559.5,-233 559.5,-203 427.5,-203"/>
<text text-anchor="start" x="435.5" y="-221" font-family="Helvetica,sans-Serif" font-size="10.00">carta::FileExtInfoLoader</text>
<text text-anchor="middle" x="493.5" y="-210" font-family="Helvetica,sans-Serif" font-size="10.00">::SplitCtypeDescriptor</text>
</a>
</g>
</g>
<!-- Node1&#45;&gt;Node6 -->
<g id="edge11" class="edge">
<title>Node1&#45;&gt;Node6</title>
<path fill="none" stroke="midnightblue" d="M191.1,-201.26C260.38,-205.1 353.13,-210.26 417.36,-213.83"/>
<polygon fill="midnightblue" stroke="midnightblue" points="417.24,-217.32 427.42,-214.38 417.63,-210.33 417.24,-217.32"/>
</g>
<!-- Node7 -->
<g id="node7" class="node">
<title>Node7</title>
<g id="a_node7"><a xlink:href="classcarta_1_1CompressedFits.html#a067a3b895e9c95ecec6ebef781b5b002" target="_top" xlink:title=" ">
<polygon fill="none" stroke="black" points="241,-137 241,-167 366,-167 366,-137 241,-137"/>
<text text-anchor="start" x="249" y="-155" font-family="Helvetica,sans-Serif" font-size="10.00">carta::CompressedFits</text>
<text text-anchor="middle" x="303.5" y="-144" font-family="Helvetica,sans-Serif" font-size="10.00">::GetShape</text>
</a>
</g>
</g>
<!-- Node1&#45;&gt;Node7 -->
<g id="edge6" class="edge">
<title>Node1&#45;&gt;Node7</title>
<path fill="none" stroke="midnightblue" d="M166.82,-180.98C187.45,-176.57 210.04,-171.75 230.76,-167.32"/>
<polygon fill="midnightblue" stroke="midnightblue" points="231.72,-170.7 240.77,-165.19 230.25,-163.85 231.72,-170.7"/>
</g>
<!-- Node8 -->
<g id="node8" class="node">
<title>Node8</title>
<g id="a_node8"><a xlink:href="classcarta_1_1CompressedFits.html#a08d166346f4e5dd3261602727205943d" target="_top" xlink:title=" ">
<polygon fill="none" stroke="black" points="241,-88 241,-118 366,-118 366,-88 241,-88"/>
<text text-anchor="start" x="249" y="-106" font-family="Helvetica,sans-Serif" font-size="10.00">carta::CompressedFits</text>
<text text-anchor="middle" x="303.5" y="-95" font-family="Helvetica,sans-Serif" font-size="10.00">::GetTransformMatrix</text>
</a>
</g>
</g>
<!-- Node1&#45;&gt;Node8 -->
<g id="edge7" class="edge">
<title>Node1&#45;&gt;Node8</title>
<path fill="none" stroke="midnightblue" d="M121.84,-180.86C147.66,-165.85 189.19,-142.86 227,-127 231.64,-125.06 236.49,-123.18 241.4,-121.38"/>
<polygon fill="midnightblue" stroke="midnightblue" points="242.61,-124.67 250.88,-118.05 240.29,-118.07 242.61,-124.67"/>
</g>
<!-- Node10 -->
<g id="node10" class="node">
<title>Node10</title>
<g id="a_node10"><a xlink:href="classcarta_1_1FileExtInfoLoader.html#afa0abc9c6dd40164f472c7554adc32b6" target="_top" xlink:title=" ">
<polygon fill="none" stroke="black" points="237.5,-39 237.5,-69 369.5,-69 369.5,-39 237.5,-39"/>
<text text-anchor="start" x="245.5" y="-57" font-family="Helvetica,sans-Serif" font-size="10.00">carta::FileExtInfoLoader</text>
<text text-anchor="middle" x="303.5" y="-46" font-family="Helvetica,sans-Serif" font-size="10.00">::MakeAngleString</text>
</a>
</g>
</g>
<!-- Node1&#45;&gt;Node10 -->
<g id="edge9" class="edge">
<title>Node1&#45;&gt;Node10</title>
<path fill="none" stroke="midnightblue" d="M109.39,-180.71C131.17,-155.77 177.74,-106.3 227,-78 230.01,-76.27 233.17,-74.65 236.4,-73.13"/>
<polygon fill="midnightblue" stroke="midnightblue" points="237.91,-76.29 245.7,-69.11 235.13,-69.86 237.91,-76.29"/>
</g>
<!-- Node11 -->
<g id="node11" class="node">
<title>Node11</title>
<g id="a_node11"><a xlink:href="Casacore_8cc.html#a8733accb41db0f83703779c667ae852e" target="_top" xlink:title=" ">
<polygon fill="none" stroke="black" points="260,-0.5 260,-19.5 347,-19.5 347,-0.5 260,-0.5"/>
<text text-anchor="middle" x="303.5" y="-7.5" font-family="Helvetica,sans-Serif" font-size="10.00">NormalizeUnit</text>
</a>
</g>
</g>
<!-- Node1&#45;&gt;Node11 -->
<g id="edge10" class="edge">
<title>Node1&#45;&gt;Node11</title>
<path fill="none" stroke="midnightblue" d="M103.9,-180.79C120.82,-147.7 165.63,-68.94 227,-29 233.93,-24.49 241.85,-21.05 249.9,-18.43"/>
<polygon fill="midnightblue" stroke="midnightblue" points="251.07,-21.74 259.72,-15.62 249.15,-15.01 251.07,-21.74"/>
</g>
<!-- Node5&#45;&gt;Node6 -->
<g id="edge5" class="edge">
<title>Node5&#45;&gt;Node6</title>
<path fill="none" stroke="midnightblue" d="M369.73,-232.37C385.04,-230.58 401.48,-228.65 417.19,-226.81"/>
<polygon fill="midnightblue" stroke="midnightblue" points="417.86,-230.26 427.39,-225.62 417.05,-223.31 417.86,-230.26"/>
</g>
<!-- Node9 -->
<g id="node9" class="node">
<title>Node9</title>
<g id="a_node9"><a xlink:href="classcarta_1_1CompressedFits.html#a27e31cc4d4f75f55f592a274b898c416" target="_top" xlink:title=" ">
<polygon fill="none" stroke="black" points="416,-88 416,-118 571,-118 571,-88 416,-88"/>
<text text-anchor="start" x="424" y="-106" font-family="Helvetica,sans-Serif" font-size="10.00">carta::CompressedFits</text>
<text text-anchor="middle" x="493.5" y="-95" font-family="Helvetica,sans-Serif" font-size="10.00">::SetDefaultTransformMatrix</text>
</a>
</g>
</g>
<!-- Node8&#45;&gt;Node9 -->
<g id="edge8" class="edge">
<title>Node8&#45;&gt;Node9</title>
<path fill="none" stroke="midnightblue" d="M366.06,-103C378.69,-103 392.21,-103 405.54,-103"/>
<polygon fill="midnightblue" stroke="midnightblue" points="405.68,-106.5 415.68,-103 405.68,-99.5 405.68,-106.5"/>
</g>
</g>
</svg>
        <g id="navigator" transform="translate(0 0)" fill="#404254">
                <rect fill="#f2f5e9" fill-opacity="0.5" stroke="#606060" stroke-width=".5" x="0" y="0" width="60" height="60"/>
                <use id="zoomplus" xlink:href="#zoomPlus" x="17" y="9" onmousedown="handleZoom(evt,'in')"/>
                <use id="zoomminus" xlink:href="#zoomMin" x="42" y="9" onmousedown="handleZoom(evt,'out')"/>
                <use id="reset" xlink:href="#resetDef" x="30" y="36" onmousedown="handleReset()"/>
                <g id="arrowUp" xlink:href="#dirArrow" transform="translate(30 24)" onmousedown="handlePan(0,-1)">
                  <use xlink:href="#rim" fill="#404040">
                        <set attributeName="fill" to="#808080" begin="arrowUp.mouseover" end="arrowUp.mouseout"/>
                  </use>
                  <path fill="none" stroke="white" stroke-width="1.5" d="M0,-3.0v7 M-2.5,-0.5L0,-3.0L2.5,-0.5"/>
                </g>
                <g id="arrowRight" xlink:href="#dirArrow" transform="rotate(90) translate(36 -43)" onmousedown="handlePan(1,0)">
                  <use xlink:href="#rim" fill="#404040">
                        <set attributeName="fill" to="#808080" begin="arrowRight.mouseover" end="arrowRight.mouseout"/>
                  </use>
                  <path fill="none" stroke="white" stroke-width="1.5" d="M0,-3.0v7 M-2.5,-0.5L0,-3.0L2.5,-0.5"/>
                </g>
                <g id="arrowDown" xlink:href="#dirArrow" transform="rotate(180) translate(-30 -48)" onmousedown="handlePan(0,1)">
                  <use xlink:href="#rim" fill="#404040">
                        <set attributeName="fill" to="#808080" begin="arrowDown.mouseover" end="arrowDown.mouseout"/>
                  </use>
                  <path fill="none" stroke="white" stroke-width="1.5" d="M0,-3.0v7 M-2.5,-0.5L0,-3.0L2.5,-0.5"/>
                </g>
                <g id="arrowLeft" xlink:href="#dirArrow" transform="rotate(270) translate(-36 17)" onmousedown="handlePan(-1,0)">
                  <use xlink:href="#rim" fill="#404040">
                        <set attributeName="fill" to="#808080" begin="arrowLeft.mouseover" end="arrowLeft.mouseout"/>
                  </use>
                  <path fill="none" stroke="white" stroke-width="1.5" d="M0,-3.0v7 M-2.5,-0.5L0,-3.0L2.5,-0.5"/>
                </g>
        </g>
        <svg viewBox="0 0 15 15" width="100%" height="30px" preserveAspectRatio="xMaxYMin meet">
         <g id="arrow_out" transform="scale(0.3 0.3)">
          <a xlink:href="classcarta_1_1FileExtInfoLoader_aef51db70dd4f72d6f222e833a5c68b58_cgraph_org.svg" target="_base">
           <rect id="button" ry="5" rx="5" y="6" x="6" height="38" width="38"
                fill="#f2f5e9" fill-opacity="0.5" stroke="#606060" stroke-width="1.0"/>
           <path id="arrow"
             d="M 11.500037,31.436501 C 11.940474,20.09759 22.043105,11.32322 32.158766,21.979434 L 37.068811,17.246167 C 37.068811,17.246167 37.088388,32 37.088388,32 L 22.160133,31.978069 C 22.160133,31.978069 26.997745,27.140456 26.997745,27.140456 C 18.528582,18.264221 13.291696,25.230495 11.500037,31.436501 z"
             style="fill:#404040;"/>
          </a>
         </g>
        </svg>
</svg>
