<?xml version="1.0" encoding="UTF-8" standalone="no"?>
<!DOCTYPE svg PUBLIC "-//W3C//DTD SVG 1.1//EN"
 "http://www.w3.org/Graphics/SVG/1.1/DTD/svg11.dtd">
<!-- Generated by graphviz version 2.43.0 (0)
 -->
<!-- Title: carta::Frame::GetSlicerData Pages: 1 -->
<svg width="949pt" height="309pt"
 viewBox="0.00 0.00 949.00 308.50" xmlns="http://www.w3.org/2000/svg" xmlns:xlink="http://www.w3.org/1999/xlink">
<g id="graph0" class="graph" transform="scale(1 1) rotate(0) translate(4 304.5)">
<title>carta::Frame::GetSlicerData</title>
<!-- Node1 -->
<g id="node1" class="node">
<title>Node1</title>
<g id="a_node1"><a xlink:title=" ">
<polygon fill="#bfbfbf" stroke="black" points="789,-126 789,-145 941,-145 941,-126 789,-126"/>
<text text-anchor="middle" x="865" y="-133" font-family="Helvetica,sans-Serif" font-size="10.00">carta::Frame::GetSlicerData</text>
</a>
</g>
</g>
<!-- Node2 -->
<g id="node2" class="node">
<title>Node2</title>
<g id="a_node2"><a xlink:href="classcarta_1_1Frame.html#a6ad0a2d3fbde3a9f346684e5ce541da6" target="_top" xlink:title=" ">
<polygon fill="none" stroke="black" points="588,-186 588,-205 747,-205 747,-186 588,-186"/>
<text text-anchor="middle" x="667.5" y="-193" font-family="Helvetica,sans-Serif" font-size="10.00">carta::Frame::FillImageCache</text>
</a>
</g>
</g>
<!-- Node1&#45;&gt;Node2 -->
<g id="edge1" class="edge">
<title>Node1&#45;&gt;Node2</title>
<path fill="none" stroke="midnightblue" d="M831.43,-148.83C809.51,-157.48 779.82,-168.57 753,-176.5 741.18,-180 728.26,-183.2 716.16,-185.94"/>
<polygon fill="midnightblue" stroke="midnightblue" points="832.92,-152 840.92,-145.05 830.33,-145.5 832.92,-152"/>
</g>
<!-- Node11 -->
<g id="node11" class="node">
<title>Node11</title>
<g id="a_node11"><a xlink:href="classcarta_1_1Frame.html#a3d1f8594ec63ae8f16524981c5f21ce2" target="_top" xlink:title=" ">
<polygon fill="none" stroke="black" points="601.5,-98.5 601.5,-128.5 733.5,-128.5 733.5,-98.5 601.5,-98.5"/>
<text text-anchor="start" x="609.5" y="-116.5" font-family="Helvetica,sans-Serif" font-size="10.00">carta::Frame::FillSpatial</text>
<text text-anchor="middle" x="667.5" y="-105.5" font-family="Helvetica,sans-Serif" font-size="10.00">ProfileData</text>
</a>
</g>
</g>
<!-- Node1&#45;&gt;Node11 -->
<g id="edge12" class="edge">
<title>Node1&#45;&gt;Node11</title>
<path fill="none" stroke="midnightblue" d="M778.64,-125.89C763.59,-124.2 748.15,-122.46 733.76,-120.84"/>
<polygon fill="midnightblue" stroke="midnightblue" points="778.65,-129.42 788.97,-127.06 779.43,-122.46 778.65,-129.42"/>
</g>
<!-- Node12 -->
<g id="node12" class="node">
<title>Node12</title>
<g id="a_node12"><a xlink:href="classcarta_1_1Frame.html#ad1fb3b57f336f8f186fe08eca46b0101" target="_top" xlink:title=" ">
<polygon fill="none" stroke="black" points="598.5,-49.5 598.5,-79.5 736.5,-79.5 736.5,-49.5 598.5,-49.5"/>
<text text-anchor="start" x="606.5" y="-67.5" font-family="Helvetica,sans-Serif" font-size="10.00">carta::Frame::FillSpectral</text>
<text text-anchor="middle" x="667.5" y="-56.5" font-family="Helvetica,sans-Serif" font-size="10.00">ProfileData</text>
</a>
</g>
</g>
<!-- Node1&#45;&gt;Node12 -->
<g id="edge13" class="edge">
<title>Node1&#45;&gt;Node12</title>
<path fill="none" stroke="midnightblue" d="M833.36,-121.78C811.25,-112.14 780.58,-99.26 753,-89.5 743.19,-86.03 732.63,-82.64 722.41,-79.53"/>
<polygon fill="midnightblue" stroke="midnightblue" points="832,-125.01 842.57,-125.83 834.82,-118.6 832,-125.01"/>
</g>
<!-- Node13 -->
<g id="node13" class="node">
<title>Node13</title>
<g id="a_node13"><a xlink:href="classcarta_1_1Frame.html#addae4d13342b22a4b5e6790f2cc7275d" target="_top" xlink:title=" ">
<polygon fill="none" stroke="black" points="582,-0.5 582,-30.5 753,-30.5 753,-0.5 582,-0.5"/>
<text text-anchor="start" x="590" y="-18.5" font-family="Helvetica,sans-Serif" font-size="10.00">carta::Frame::GetDownsampled</text>
<text text-anchor="middle" x="667.5" y="-7.5" font-family="Helvetica,sans-Serif" font-size="10.00">RasterData</text>
</a>
</g>
</g>
<!-- Node1&#45;&gt;Node13 -->
<g id="edge14" class="edge">
<title>Node1&#45;&gt;Node13</title>
<path fill="none" stroke="midnightblue" d="M848.76,-118.34C828.81,-96.88 791.77,-60.42 753,-39.5 746.69,-36.1 739.85,-33.13 732.89,-30.56"/>
<polygon fill="midnightblue" stroke="midnightblue" points="846.22,-120.74 855.54,-125.76 851.39,-116.02 846.22,-120.74"/>
</g>
<!-- Node16 -->
<g id="node16" class="node">
<title>Node16</title>
<g id="a_node16"><a xlink:href="classcarta_1_1Frame.html#abdae48af7ad841100f029acbc0734007" target="_top" xlink:title=" ">
<polygon fill="none" stroke="black" points="588.5,-148 588.5,-167 746.5,-167 746.5,-148 588.5,-148"/>
<text text-anchor="middle" x="667.5" y="-155" font-family="Helvetica,sans-Serif" font-size="10.00">carta::Frame::GetRegionData</text>
</a>
</g>
</g>
<!-- Node1&#45;&gt;Node16 -->
<g id="edge17" class="edge">
<title>Node1&#45;&gt;Node16</title>
<path fill="none" stroke="midnightblue" d="M778.78,-145.09C768.07,-146.29 757.16,-147.52 746.57,-148.72"/>
<polygon fill="midnightblue" stroke="midnightblue" points="779.43,-148.54 788.97,-143.94 778.65,-141.58 779.43,-148.54"/>
</g>
<!-- Node17 -->
<g id="node17" class="node">
<title>Node17</title>
<g id="a_node17"><a xlink:href="classcarta_1_1Frame.html#a68a31253118f829703cbfb42e0c81257" target="_top" xlink:title=" ">
<polygon fill="none" stroke="black" points="597.5,-243 597.5,-262 737.5,-262 737.5,-243 597.5,-243"/>
<text text-anchor="middle" x="667.5" y="-250" font-family="Helvetica,sans-Serif" font-size="10.00">carta::Frame::GetZMatrix</text>
</a>
</g>
</g>
<!-- Node1&#45;&gt;Node17 -->
<g id="edge19" class="edge">
<title>Node1&#45;&gt;Node17</title>
<path fill="none" stroke="midnightblue" d="M844.13,-151.46C822.51,-168.38 786.55,-195.27 753,-214.5 733.6,-225.62 710.36,-235.87 693.16,-242.91"/>
<polygon fill="midnightblue" stroke="midnightblue" points="846.53,-154.03 852.2,-145.08 842.19,-148.54 846.53,-154.03"/>
</g>
<!-- Node3 -->
<g id="node3" class="node">
<title>Node3</title>
<g id="a_node3"><a xlink:href="classcarta_1_1Frame.html#a2e88a8481229d116d2976f51b32ac326" target="_top" xlink:title=" ">
<polygon fill="none" stroke="black" points="365,-281 365,-300 546,-300 546,-281 365,-281"/>
<text text-anchor="middle" x="455.5" y="-288" font-family="Helvetica,sans-Serif" font-size="10.00">carta::Frame::CalculateHistogram</text>
</a>
</g>
</g>
<!-- Node2&#45;&gt;Node3 -->
<g id="edge2" class="edge">
<title>Node2&#45;&gt;Node3</title>
<path fill="none" stroke="midnightblue" d="M628.4,-208.93C613.24,-215.19 596.09,-223.49 582,-233.5 563.03,-246.97 566.29,-260.13 546,-271.5 539.07,-275.38 531.44,-278.47 523.63,-280.93"/>
<polygon fill="midnightblue" stroke="midnightblue" points="630.02,-212.05 638.02,-205.11 627.44,-205.54 630.02,-212.05"/>
</g>
<!-- Node5 -->
<g id="node5" class="node">
<title>Node5</title>
<g id="a_node5"><a xlink:href="classcarta_1_1Frame.html#a958f69761afea8b1388de6bea20f8b78" target="_top" xlink:title=" ">
<polygon fill="none" stroke="black" points="379,-205 379,-224 532,-224 532,-205 379,-205"/>
<text text-anchor="middle" x="455.5" y="-212" font-family="Helvetica,sans-Serif" font-size="10.00">carta::Frame::ContourImage</text>
</a>
</g>
</g>
<!-- Node2&#45;&gt;Node5 -->
<g id="edge4" class="edge">
<title>Node2&#45;&gt;Node5</title>
<path fill="none" stroke="midnightblue" d="M577.39,-203.56C562.37,-204.92 546.9,-206.32 532.25,-207.65"/>
<polygon fill="midnightblue" stroke="midnightblue" points="578.06,-207.02 587.71,-202.63 577.43,-200.04 578.06,-207.02"/>
</g>
<!-- Node6 -->
<g id="node6" class="node">
<title>Node6</title>
<g id="a_node6"><a xlink:href="classcarta_1_1Frame.html#aeb6afc8204ae9f00c0517b4f28be32d5" target="_top" xlink:title=" ">
<polygon fill="none" stroke="black" points="392,-91 392,-110 519,-110 519,-91 392,-91"/>
<text text-anchor="middle" x="455.5" y="-98" font-family="Helvetica,sans-Serif" font-size="10.00">carta::Frame::FitImage</text>
</a>
</g>
</g>
<!-- Node2&#45;&gt;Node6 -->
<g id="edge5" class="edge">
<title>Node2&#45;&gt;Node6</title>
<path fill="none" stroke="midnightblue" d="M590.54,-181.68C587.57,-180.13 584.7,-178.41 582,-176.5 557.52,-159.23 570.59,-136.62 546,-119.5 538.05,-113.96 528.81,-109.99 519.34,-107.14"/>
<polygon fill="midnightblue" stroke="midnightblue" points="589.2,-184.91 599.75,-185.84 592.08,-178.53 589.2,-184.91"/>
</g>
<!-- Node7 -->
<g id="node7" class="node">
<title>Node7</title>
<g id="a_node7"><a xlink:href="classcarta_1_1Frame.html#aa4b9e045d2b184a995017be80dbbe832" target="_top" xlink:title=" ">
<polygon fill="none" stroke="black" points="398,-167 398,-186 513,-186 513,-167 398,-167"/>
<text text-anchor="middle" x="455.5" y="-174" font-family="Helvetica,sans-Serif" font-size="10.00">carta::Frame::Frame</text>
</a>
</g>
</g>
<!-- Node2&#45;&gt;Node7 -->
<g id="edge6" class="edge">
<title>Node2&#45;&gt;Node7</title>
<path fill="none" stroke="midnightblue" d="M577.73,-187.47C555.85,-185.49 533,-183.42 513.11,-181.62"/>
<polygon fill="midnightblue" stroke="midnightblue" points="577.43,-190.96 587.71,-188.37 578.06,-183.98 577.43,-190.96"/>
</g>
<!-- Node8 -->
<g id="node8" class="node">
<title>Node8</title>
<g id="a_node8"><a xlink:href="classcarta_1_1Frame.html#a1bd6cad34fcc337311218150f6771850" target="_top" xlink:title=" ">
<polygon fill="none" stroke="black" points="379.5,-243 379.5,-262 531.5,-262 531.5,-243 379.5,-243"/>
<text text-anchor="middle" x="455.5" y="-250" font-family="Helvetica,sans-Serif" font-size="10.00">carta::Frame::GetBasicStats</text>
</a>
</g>
</g>
<!-- Node2&#45;&gt;Node8 -->
<g id="edge7" class="edge">
<title>Node2&#45;&gt;Node8</title>
<path fill="none" stroke="midnightblue" d="M629.32,-208.25C605.64,-216.11 574.21,-226.08 546,-233.5 532.94,-236.94 518.69,-240.19 505.47,-242.99"/>
<polygon fill="midnightblue" stroke="midnightblue" points="630.59,-211.51 638.96,-205.02 628.37,-204.87 630.59,-211.51"/>
</g>
<!-- Node10 -->
<g id="node10" class="node">
<title>Node10</title>
<g id="a_node10"><a xlink:href="classcarta_1_1Frame.html#ab9d76715b355e3d68f6280bc031ba7da" target="_top" xlink:title=" ">
<polygon fill="none" stroke="black" points="367.5,-129 367.5,-148 543.5,-148 543.5,-129 367.5,-129"/>
<text text-anchor="middle" x="455.5" y="-136" font-family="Helvetica,sans-Serif" font-size="10.00">carta::Frame::SetImageChannels</text>
</a>
</g>
</g>
<!-- Node2&#45;&gt;Node10 -->
<g id="edge11" class="edge">
<title>Node2&#45;&gt;Node10</title>
<path fill="none" stroke="midnightblue" d="M604.14,-183.45C596.59,-181.42 589.06,-179.11 582,-176.5 565.03,-170.24 563.01,-163.66 546,-157.5 535.55,-153.71 524.12,-150.58 513.03,-148.02"/>
<polygon fill="midnightblue" stroke="midnightblue" points="603.48,-186.9 614.03,-185.97 605.21,-180.11 603.48,-186.9"/>
</g>
<!-- Node4 -->
<g id="node4" class="node">
<title>Node4</title>
<g id="a_node4"><a xlink:href="classcarta_1_1Frame.html#ac139750e3eed058f47720776a77b6d31" target="_top" xlink:title=" ">
<polygon fill="none" stroke="black" points="0,-237.5 0,-267.5 132,-267.5 132,-237.5 0,-237.5"/>
<text text-anchor="start" x="8" y="-255.5" font-family="Helvetica,sans-Serif" font-size="10.00">carta::Frame::FillRegion</text>
<text text-anchor="middle" x="66" y="-244.5" font-family="Helvetica,sans-Serif" font-size="10.00">HistogramData</text>
</a>
</g>
</g>
<!-- Node3&#45;&gt;Node4 -->
<g id="edge3" class="edge">
<title>Node3&#45;&gt;Node4</title>
<path fill="none" stroke="midnightblue" d="M354.58,-283.46C299.48,-279.25 229.88,-273.38 168,-266.5 156.39,-265.21 144.05,-263.65 132.13,-262.06"/>
<polygon fill="midnightblue" stroke="midnightblue" points="354.46,-286.96 364.69,-284.23 354.99,-279.98 354.46,-286.96"/>
</g>
<!-- Node8&#45;&gt;Node4 -->
<g id="edge10" class="edge">
<title>Node8&#45;&gt;Node4</title>
<path fill="none" stroke="midnightblue" d="M369.01,-252.5C297.63,-252.5 197.37,-252.5 132.3,-252.5"/>
<polygon fill="midnightblue" stroke="midnightblue" points="369.33,-256 379.33,-252.5 369.33,-249 369.33,-256"/>
</g>
<!-- Node9 -->
<g id="node9" class="node">
<title>Node9</title>
<g id="a_node9"><a xlink:href="classcarta_1_1Frame.html#a3a4bc30034d44066062d5794044da1b6" target="_top" xlink:title=" ">
<polygon fill="none" stroke="black" points="174,-193.5 174,-223.5 323,-223.5 323,-193.5 174,-193.5"/>
<text text-anchor="start" x="182" y="-211.5" font-family="Helvetica,sans-Serif" font-size="10.00">carta::Frame::FillHistogram</text>
<text text-anchor="middle" x="248.5" y="-200.5" font-family="Helvetica,sans-Serif" font-size="10.00">FromFrameCache</text>
</a>
</g>
</g>
<!-- Node8&#45;&gt;Node9 -->
<g id="edge8" class="edge">
<title>Node8&#45;&gt;Node9</title>
<path fill="none" stroke="midnightblue" d="M399.55,-240.87C388.13,-238.44 376.17,-235.89 365,-233.5 350.05,-230.3 334.03,-226.84 318.81,-223.55"/>
<polygon fill="midnightblue" stroke="midnightblue" points="398.91,-244.31 409.42,-242.97 400.37,-237.47 398.91,-244.31"/>
</g>
<!-- Node9&#45;&gt;Node4 -->
<g id="edge9" class="edge">
<title>Node9&#45;&gt;Node4</title>
<path fill="none" stroke="midnightblue" d="M175.77,-225.99C160.17,-229.79 143.81,-233.78 128.64,-237.47"/>
<polygon fill="midnightblue" stroke="midnightblue" points="177,-229.29 185.89,-223.52 175.34,-222.49 177,-229.29"/>
</g>
<!-- Node14 -->
<g id="node14" class="node">
<title>Node14</title>
<g id="a_node14"><a xlink:href="classcarta_1_1Frame.html#aa0556decdd99bffc1dd869599f4db918" target="_top" xlink:title=" ">
<polygon fill="none" stroke="black" points="379.5,-0.5 379.5,-30.5 531.5,-30.5 531.5,-0.5 379.5,-0.5"/>
<text text-anchor="start" x="387.5" y="-18.5" font-family="Helvetica,sans-Serif" font-size="10.00">carta::Frame::DoVectorField</text>
<text text-anchor="middle" x="455.5" y="-7.5" font-family="Helvetica,sans-Serif" font-size="10.00">Calculation</text>
</a>
</g>
</g>
<!-- Node13&#45;&gt;Node14 -->
<g id="edge15" class="edge">
<title>Node13&#45;&gt;Node14</title>
<path fill="none" stroke="midnightblue" d="M571.78,-15.5C558.35,-15.5 544.69,-15.5 531.69,-15.5"/>
<polygon fill="midnightblue" stroke="midnightblue" points="571.99,-19 581.99,-15.5 571.99,-12 571.99,-19"/>
</g>
<!-- Node15 -->
<g id="node15" class="node">
<title>Node15</title>
<g id="a_node15"><a xlink:href="classcarta_1_1Frame.html#ae3ee51cc1bda05842764364c3f49db45" target="_top" xlink:title=" ">
<polygon fill="none" stroke="black" points="168,-0.5 168,-30.5 329,-30.5 329,-0.5 168,-0.5"/>
<text text-anchor="start" x="176" y="-18.5" font-family="Helvetica,sans-Serif" font-size="10.00">carta::Frame::CalculateVector</text>
<text text-anchor="middle" x="248.5" y="-7.5" font-family="Helvetica,sans-Serif" font-size="10.00">Field</text>
</a>
</g>
</g>
<!-- Node14&#45;&gt;Node15 -->
<g id="edge16" class="edge">
<title>Node14&#45;&gt;Node15</title>
<path fill="none" stroke="midnightblue" d="M369.26,-15.5C355.98,-15.5 342.3,-15.5 329.14,-15.5"/>
<polygon fill="midnightblue" stroke="midnightblue" points="369.33,-19 379.33,-15.5 369.33,-12 369.33,-19"/>
</g>
<!-- Node16&#45;&gt;Node6 -->
<g id="edge18" class="edge">
<title>Node16&#45;&gt;Node6</title>
<path fill="none" stroke="midnightblue" d="M604.14,-145.45C596.59,-143.42 589.06,-141.11 582,-138.5 565.03,-132.24 563.01,-125.66 546,-119.5 535.55,-115.71 524.12,-112.58 513.03,-110.02"/>
<polygon fill="midnightblue" stroke="midnightblue" points="603.48,-148.9 614.03,-147.97 605.21,-142.11 603.48,-148.9"/>
</g>
<!-- Node17&#45;&gt;Node3 -->
<g id="edge20" class="edge">
<title>Node17&#45;&gt;Node3</title>
<path fill="none" stroke="midnightblue" d="M603.79,-263.85C573.66,-269.3 537.95,-275.76 509.24,-280.96"/>
<polygon fill="midnightblue" stroke="midnightblue" points="604.56,-267.26 613.78,-262.04 603.32,-260.38 604.56,-267.26"/>
</g>
<!-- Node17&#45;&gt;Node8 -->
<g id="edge21" class="edge">
<title>Node17&#45;&gt;Node8</title>
<path fill="none" stroke="midnightblue" d="M587.44,-252.5C569.19,-252.5 549.83,-252.5 531.75,-252.5"/>
<polygon fill="midnightblue" stroke="midnightblue" points="587.45,-256 597.45,-252.5 587.45,-249 587.45,-256"/>
</g>
</g>
</svg>
