<?xml version="1.0" encoding="UTF-8" standalone="no"?>
<!DOCTYPE svg PUBLIC "-//W3C//DTD SVG 1.1//EN"
 "http://www.w3.org/Graphics/SVG/1.1/DTD/svg11.dtd">
<!-- Generated by graphviz version 2.43.0 (0)
 -->
<!-- Title: carta::Ds9ImportExport Pages: 1 -->
<!--zoomable 586 -->
<svg id="main" version="1.1" xmlns="http://www.w3.org/2000/svg" xmlns:xlink="http://www.w3.org/1999/xlink" xml:space="preserve" onload="init(evt)">
<style type="text/css"><![CDATA[
.edge:hover path { stroke: red; }
.edge:hover polygon { stroke: red; fill: red; }
]]></style>
<script type="text/javascript"><![CDATA[
var edges = document.getElementsByTagName('g');
if (edges && edges.length) {
  for (var i=0;i<edges.length;i++) {
    if (edges[i].id.substr(0,4)=='edge') {
      edges[i].setAttribute('class','edge');
    }
  }
}
]]></script>
        <defs>
                <circle id="rim" cx="0" cy="0" r="7"/>
                <circle id="rim2" cx="0" cy="0" r="3.5"/>
                <g id="zoomPlus">
                        <use xlink:href="#rim" fill="#404040">
                                <set attributeName="fill" to="#808080" begin="zoomplus.mouseover" end="zoomplus.mouseout"/>
                        </use>
                        <path d="M-4,0h8M0,-4v8" fill="none" stroke="white" stroke-width="1.5" pointer-events="none"/>
                </g>
                <g id="zoomMin">
                        <use xlink:href="#rim" fill="#404040">
                                <set attributeName="fill" to="#808080" begin="zoomminus.mouseover" end="zoomminus.mouseout"/>
                        </use>
                        <path d="M-4,0h8" fill="none" stroke="white" stroke-width="1.5" pointer-events="none"/>
                </g>
                <g id="dirArrow">
                        <path fill="none" stroke="white" stroke-width="1.5" d="M0,-3.0v7 M-2.5,-0.5L0,-3.0L2.5,-0.5"/>
                </g>
               <g id="resetDef">
                       <use xlink:href="#rim2" fill="#404040">
                               <set attributeName="fill" to="#808080" begin="reset.mouseover" end="reset.mouseout"/>
                       </use>
               </g>
        </defs>

<script type="text/javascript">
var viewWidth = 1676;
var viewHeight = 586;
var sectionId = 'dynsection-1';
</script>
<script xlink:href="svgpan.js"/>
<svg id="graph" class="graph">
<g id="viewport">
<title>carta::Ds9ImportExport</title>
<!-- Node1 -->
<g id="node1" class="node">
<title>Node1</title>
<g id="a_node1"><a xlink:title=" ">
<polygon fill="#bfbfbf" stroke="black" points="1538,-453.5 1538,-472.5 1668,-472.5 1668,-453.5 1538,-453.5"/>
<text text-anchor="middle" x="1603" y="-460.5" font-family="Helvetica,sans-Serif" font-size="10.00">carta::Ds9ImportExport</text>
</a>
</g>
</g>
<!-- Node2 -->
<g id="node2" class="node">
<title>Node2</title>
<g id="a_node2"><a xlink:href="classcarta_1_1RegionImportExport.html" target="_top" xlink:title=" ">
<polygon fill="none" stroke="black" points="1293,-309.5 1293,-328.5 1438,-328.5 1438,-309.5 1293,-309.5"/>
<text text-anchor="middle" x="1365.5" y="-316.5" font-family="Helvetica,sans-Serif" font-size="10.00">carta::RegionImportExport</text>
</a>
</g>
</g>
<!-- Node2&#45;&gt;Node1 -->
<g id="edge1" class="edge">
<title>Node2&#45;&gt;Node1</title>
<path fill="none" stroke="midnightblue" d="M1390.9,-333.92C1439.26,-363.49 1546.02,-428.77 1586.25,-453.37"/>
<polygon fill="midnightblue" stroke="midnightblue" points="1392.67,-330.9 1382.32,-328.67 1389.02,-336.87 1392.67,-330.9"/>
</g>
<!-- Node3 -->
<g id="node3" class="node">
<title>Node3</title>
<g id="a_node3"><a xlink:title=" ">
<polygon fill="none" stroke="#bfbfbf" points="1012.5,-260 1012.5,-290 1129.5,-290 1129.5,-260 1012.5,-260"/>
<text text-anchor="start" x="1020.5" y="-278" font-family="Helvetica,sans-Serif" font-size="10.00">std::vector&lt; carta</text>
<text text-anchor="middle" x="1071" y="-267" font-family="Helvetica,sans-Serif" font-size="10.00">::RegionProperties &gt;</text>
</a>
</g>
</g>
<!-- Node3&#45;&gt;Node2 -->
<g id="edge2" class="edge">
<title>Node3&#45;&gt;Node2</title>
<path fill="none" stroke="#9a32cd" stroke-dasharray="5,2" d="M1139.94,-277.48C1179.65,-279.89 1230.55,-284.64 1275,-294 1283.25,-295.74 1284.92,-297.58 1293,-300 1303.95,-303.28 1315.93,-306.57 1326.9,-309.48"/>
<polygon fill="#9a32cd" stroke="#9a32cd" points="1140.02,-273.98 1129.84,-276.9 1139.62,-280.97 1140.02,-273.98"/>
<text text-anchor="middle" x="1218" y="-297" font-family="Helvetica,sans-Serif" font-size="10.00"> _import_regions</text>
</g>
<!-- Node4 -->
<g id="node4" class="node">
<title>Node4</title>
<g id="a_node4"><a xlink:href="structcarta_1_1RegionProperties.html" target="_top" xlink:title=" ">
<polygon fill="none" stroke="black" points="710,-204.5 710,-223.5 841,-223.5 841,-204.5 710,-204.5"/>
<text text-anchor="middle" x="775.5" y="-211.5" font-family="Helvetica,sans-Serif" font-size="10.00">carta::RegionProperties</text>
</a>
</g>
</g>
<!-- Node4&#45;&gt;Node3 -->
<g id="edge3" class="edge">
<title>Node4&#45;&gt;Node3</title>
<path fill="none" stroke="#9a32cd" stroke-dasharray="5,2" d="M832.33,-225.6C883.91,-236.32 960.22,-252.18 1012.36,-263.02"/>
<polygon fill="#9a32cd" stroke="#9a32cd" points="832.86,-222.14 822.36,-223.53 831.44,-228.99 832.86,-222.14"/>
<text text-anchor="middle" x="920" y="-259" font-family="Helvetica,sans-Serif" font-size="10.00"> elements</text>
</g>
<!-- Node5 -->
<g id="node5" class="node">
<title>Node5</title>
<g id="a_node5"><a xlink:href="structcarta_1_1RegionState.html" target="_top" xlink:title=" ">
<polygon fill="none" stroke="black" points="418,-124.5 418,-143.5 525,-143.5 525,-124.5 418,-124.5"/>
<text text-anchor="middle" x="471.5" y="-131.5" font-family="Helvetica,sans-Serif" font-size="10.00">carta::RegionState</text>
</a>
</g>
</g>
<!-- Node5&#45;&gt;Node4 -->
<g id="edge4" class="edge">
<title>Node5&#45;&gt;Node4</title>
<path fill="none" stroke="#9a32cd" stroke-dasharray="5,2" d="M518.64,-146.22C578.96,-162.2 683.4,-189.87 738.33,-204.42"/>
<polygon fill="#9a32cd" stroke="#9a32cd" points="519.19,-142.75 508.63,-143.57 517.4,-149.51 519.19,-142.75"/>
<text text-anchor="middle" x="622" y="-194" font-family="Helvetica,sans-Serif" font-size="10.00"> state</text>
</g>
<!-- Node6 -->
<g id="node6" class="node">
<title>Node6</title>
<g id="a_node6"><a xlink:title=" ">
<polygon fill="none" stroke="#bfbfbf" points="208,-295.5 208,-314.5 281,-314.5 281,-295.5 208,-295.5"/>
<text text-anchor="middle" x="244.5" y="-302.5" font-family="Helvetica,sans-Serif" font-size="10.00">RegionType</text>
</a>
</g>
</g>
<!-- Node6&#45;&gt;Node5 -->
<g id="edge5" class="edge">
<title>Node6&#45;&gt;Node5</title>
<path fill="none" stroke="#9a32cd" stroke-dasharray="5,2" d="M263.31,-288.34C277.27,-276.02 297.69,-259.61 318,-249 348.15,-233.25 364.44,-247.26 391,-226 403.44,-216.04 399.26,-207.61 409,-195 424.45,-175.01 446.1,-154.98 459.17,-143.58"/>
<polygon fill="#9a32cd" stroke="#9a32cd" points="260.57,-286.09 255.5,-295.39 265.27,-291.28 260.57,-286.09"/>
<text text-anchor="middle" x="354.5" y="-252" font-family="Helvetica,sans-Serif" font-size="10.00"> type</text>
</g>
<!-- Node15 -->
<g id="node15" class="node">
<title>Node15</title>
<g id="a_node15"><a xlink:title=" ">
<polygon fill="none" stroke="#bfbfbf" points="409,-347.5 409,-388.5 534,-388.5 534,-347.5 409,-347.5"/>
<text text-anchor="start" x="417" y="-376.5" font-family="Helvetica,sans-Serif" font-size="10.00">std::unordered_map</text>
<text text-anchor="start" x="417" y="-365.5" font-family="Helvetica,sans-Serif" font-size="10.00">&lt; CARTA::RegionType,</text>
<text text-anchor="middle" x="471.5" y="-354.5" font-family="Helvetica,sans-Serif" font-size="10.00"> std::string &gt;</text>
</a>
</g>
</g>
<!-- Node6&#45;&gt;Node15 -->
<g id="edge17" class="edge">
<title>Node6&#45;&gt;Node15</title>
<path fill="none" stroke="#9a32cd" stroke-dasharray="5,2" d="M289.33,-317.27C323.34,-326.79 370.91,-340.11 408.77,-350.72"/>
<polygon fill="#9a32cd" stroke="#9a32cd" points="290.25,-313.89 279.67,-314.57 288.36,-320.64 290.25,-313.89"/>
<text text-anchor="middle" x="354.5" y="-347" font-family="Helvetica,sans-Serif" font-size="10.00"> keys</text>
</g>
<!-- Node7 -->
<g id="node7" class="node">
<title>Node7</title>
<g id="a_node7"><a xlink:title=" ">
<polygon fill="none" stroke="#bfbfbf" points="225.5,-78.5 225.5,-97.5 263.5,-97.5 263.5,-78.5 225.5,-78.5"/>
<text text-anchor="middle" x="244.5" y="-85.5" font-family="Helvetica,sans-Serif" font-size="10.00">float</text>
</a>
</g>
</g>
<!-- Node7&#45;&gt;Node5 -->
<g id="edge6" class="edge">
<title>Node7&#45;&gt;Node5</title>
<path fill="none" stroke="#9a32cd" stroke-dasharray="5,2" d="M273.59,-90.69C303.07,-93.84 350.66,-99.81 391,-109 408.92,-113.08 428.62,-119.27 443.93,-124.46"/>
<polygon fill="#9a32cd" stroke="#9a32cd" points="273.9,-87.21 263.59,-89.66 273.18,-94.17 273.9,-87.21"/>
<text text-anchor="middle" x="354.5" y="-112" font-family="Helvetica,sans-Serif" font-size="10.00"> rotation</text>
</g>
<!-- Node8 -->
<g id="node8" class="node">
<title>Node8</title>
<g id="a_node8"><a xlink:title=" ">
<polygon fill="none" stroke="#bfbfbf" points="37.5,-148.5 37.5,-167.5 66.5,-167.5 66.5,-148.5 37.5,-148.5"/>
<text text-anchor="middle" x="52" y="-155.5" font-family="Helvetica,sans-Serif" font-size="10.00">int</text>
</a>
</g>
</g>
<!-- Node8&#45;&gt;Node2 -->
<g id="edge21" class="edge">
<title>Node8&#45;&gt;Node2</title>
<path fill="none" stroke="#9a32cd" stroke-dasharray="5,2" d="M63.02,-139.23C79.97,-107.74 113.3,-47.03 122,-40 166.21,-4.26 186.65,0 243.5,0 243.5,0 243.5,0 1072,0 1190.83,0 1217.82,-69.83 1275,-174 1302.22,-223.59 1255.42,-257.71 1293,-300 1296.41,-303.84 1300.5,-306.94 1304.98,-309.45"/>
<polygon fill="#9a32cd" stroke="#9a32cd" points="59.79,-137.85 58.15,-148.32 65.96,-141.16 59.79,-137.85"/>
<text text-anchor="middle" x="622" y="-3" font-family="Helvetica,sans-Serif" font-size="10.00"> _file_id</text>
</g>
<!-- Node8&#45;&gt;Node5 -->
<g id="edge7" class="edge">
<title>Node8&#45;&gt;Node5</title>
<path fill="none" stroke="#9a32cd" stroke-dasharray="5,2" d="M76.58,-156.1C103.69,-153.95 149.54,-150.43 189,-148 268.73,-143.09 361.25,-138.75 417.82,-136.25"/>
<polygon fill="#9a32cd" stroke="#9a32cd" points="76.19,-152.62 66.51,-156.9 76.75,-159.59 76.19,-152.62"/>
<text text-anchor="middle" x="244.5" y="-151" font-family="Helvetica,sans-Serif" font-size="10.00"> reference_file_id</text>
</g>
<!-- Node11 -->
<g id="node11" class="node">
<title>Node11</title>
<g id="a_node11"><a xlink:href="structcarta_1_1RegionStyle.html" target="_top" xlink:title=" ">
<polygon fill="none" stroke="black" points="418.5,-204.5 418.5,-223.5 524.5,-223.5 524.5,-204.5 418.5,-204.5"/>
<text text-anchor="middle" x="471.5" y="-211.5" font-family="Helvetica,sans-Serif" font-size="10.00">carta::RegionStyle</text>
</a>
</g>
</g>
<!-- Node8&#45;&gt;Node11 -->
<g id="edge11" class="edge">
<title>Node8&#45;&gt;Node11</title>
<path fill="none" stroke="#9a32cd" stroke-dasharray="5,2" d="M76.66,-160.98C120.65,-166.53 218.03,-178.92 300,-190 339.7,-195.36 384.55,-201.69 418.29,-206.5"/>
<polygon fill="#9a32cd" stroke="#9a32cd" points="77.02,-157.5 66.66,-159.72 76.15,-164.44 77.02,-157.5"/>
<text text-anchor="middle" x="244.5" y="-193" font-family="Helvetica,sans-Serif" font-size="10.00"> line_width</text>
</g>
<!-- Node14 -->
<g id="node14" class="node">
<title>Node14</title>
<g id="a_node14"><a xlink:title=" ">
<polygon fill="none" stroke="#bfbfbf" points="192.5,-210.5 192.5,-229.5 296.5,-229.5 296.5,-210.5 192.5,-210.5"/>
<text text-anchor="middle" x="244.5" y="-217.5" font-family="Helvetica,sans-Serif" font-size="10.00">std::vector&lt; int &gt;</text>
</a>
</g>
</g>
<!-- Node8&#45;&gt;Node14 -->
<g id="edge15" class="edge">
<title>Node8&#45;&gt;Node14</title>
<path fill="none" stroke="#9a32cd" stroke-dasharray="5,2" d="M75.5,-172.21C88.62,-179.95 105.75,-189.11 122,-195 144.48,-203.14 170.3,-208.92 192.35,-212.86"/>
<polygon fill="#9a32cd" stroke="#9a32cd" points="77.08,-169.08 66.72,-166.9 73.46,-175.07 77.08,-169.08"/>
<text text-anchor="middle" x="146.5" y="-211" font-family="Helvetica,sans-Serif" font-size="10.00"> elements</text>
</g>
<!-- Node9 -->
<g id="node9" class="node">
<title>Node9</title>
<g id="a_node9"><a xlink:title=" ">
<polygon fill="none" stroke="#bfbfbf" points="189,-29 189,-59 300,-59 300,-29 189,-29"/>
<text text-anchor="start" x="197" y="-47" font-family="Helvetica,sans-Serif" font-size="10.00">std::vector&lt; CARTA</text>
<text text-anchor="middle" x="244.5" y="-36" font-family="Helvetica,sans-Serif" font-size="10.00">::Point &gt;</text>
</a>
</g>
</g>
<!-- Node9&#45;&gt;Node5 -->
<g id="edge8" class="edge">
<title>Node9&#45;&gt;Node5</title>
<path fill="none" stroke="#9a32cd" stroke-dasharray="5,2" d="M310.17,-56.16C335.95,-62.21 365.51,-70.7 391,-82 416.78,-93.43 443.59,-112.79 458.55,-124.39"/>
<polygon fill="#9a32cd" stroke="#9a32cd" points="310.65,-52.68 300.12,-53.87 309.1,-59.5 310.65,-52.68"/>
<text text-anchor="middle" x="354.5" y="-85" font-family="Helvetica,sans-Serif" font-size="10.00"> control_points</text>
</g>
<!-- Node10 -->
<g id="node10" class="node">
<title>Node10</title>
<g id="a_node10"><a xlink:title=" ">
<polygon fill="none" stroke="#bfbfbf" points="31.5,-34.5 31.5,-53.5 72.5,-53.5 72.5,-34.5 31.5,-34.5"/>
<text text-anchor="middle" x="52" y="-41.5" font-family="Helvetica,sans-Serif" font-size="10.00">Point</text>
</a>
</g>
</g>
<!-- Node10&#45;&gt;Node9 -->
<g id="edge9" class="edge">
<title>Node10&#45;&gt;Node9</title>
<path fill="none" stroke="#9a32cd" stroke-dasharray="5,2" d="M82.74,-44C111.07,-44 154.39,-44 188.92,-44"/>
<polygon fill="#9a32cd" stroke="#9a32cd" points="82.67,-40.5 72.67,-44 82.67,-47.5 82.67,-40.5"/>
<text text-anchor="middle" x="146.5" y="-47" font-family="Helvetica,sans-Serif" font-size="10.00"> elements</text>
</g>
<!-- Node11&#45;&gt;Node4 -->
<g id="edge10" class="edge">
<title>Node11&#45;&gt;Node4</title>
<path fill="none" stroke="#9a32cd" stroke-dasharray="5,2" d="M535.01,-214C586.09,-214 658.06,-214 709.75,-214"/>
<polygon fill="#9a32cd" stroke="#9a32cd" points="534.76,-210.5 524.76,-214 534.76,-217.5 534.76,-210.5"/>
<text text-anchor="middle" x="622" y="-217" font-family="Helvetica,sans-Serif" font-size="10.00"> style</text>
</g>
<!-- Node12 -->
<g id="node12" class="node">
<title>Node12</title>
<g id="a_node12"><a xlink:title=" ">
<polygon fill="none" stroke="#bfbfbf" points="212,-410.5 212,-429.5 277,-429.5 277,-410.5 212,-410.5"/>
<text text-anchor="middle" x="244.5" y="-417.5" font-family="Helvetica,sans-Serif" font-size="10.00">std::string</text>
</a>
</g>
</g>
<!-- Node12&#45;&gt;Node1 -->
<g id="edge28" class="edge">
<title>Node12&#45;&gt;Node1</title>
<path fill="none" stroke="#9a32cd" stroke-dasharray="5,2" d="M266.77,-435.45C305.34,-461.89 390.28,-513 470.5,-513 470.5,-513 470.5,-513 1366.5,-513 1443.62,-513 1531.9,-487.03 1575.2,-472.52"/>
<polygon fill="#9a32cd" stroke="#9a32cd" points="268.62,-432.47 258.41,-429.6 264.6,-438.2 268.62,-432.47"/>
<text text-anchor="middle" x="920" y="-527" font-family="Helvetica,sans-Serif" font-size="10.00"> _file_ref_frame</text>
<text text-anchor="middle" x="920" y="-516" font-family="Helvetica,sans-Serif" font-size="10.00">_image_ref_frame</text>
</g>
<!-- Node12&#45;&gt;Node2 -->
<g id="edge22" class="edge">
<title>Node12&#45;&gt;Node2</title>
<path fill="none" stroke="#9a32cd" stroke-dasharray="5,2" d="M255.06,-401.48C266.81,-380.83 288.85,-348.32 318,-333 378.25,-301.34 402.44,-319 470.5,-319 470.5,-319 470.5,-319 1072,-319 1147.41,-319 1233.76,-319 1292.98,-319"/>
<polygon fill="#9a32cd" stroke="#9a32cd" points="251.97,-399.83 250.26,-410.28 258.12,-403.18 251.97,-399.83"/>
<text text-anchor="middle" x="775.5" y="-333" font-family="Helvetica,sans-Serif" font-size="10.00"> _import_errors</text>
<text text-anchor="middle" x="775.5" y="-322" font-family="Helvetica,sans-Serif" font-size="10.00">_parser_delim</text>
</g>
<!-- Node12&#45;&gt;Node11 -->
<g id="edge12" class="edge">
<title>Node12&#45;&gt;Node11</title>
<path fill="none" stroke="#9a32cd" stroke-dasharray="5,2" d="M256.58,-401.79C268.02,-382.7 286.1,-351.7 300,-324 308.92,-306.21 303.19,-296.29 318,-283 343.32,-260.29 359.87,-273.71 391,-260 414.79,-249.52 440.51,-233.74 456.07,-223.65"/>
<polygon fill="#9a32cd" stroke="#9a32cd" points="253.58,-400 251.41,-410.37 259.57,-403.61 253.58,-400"/>
<text text-anchor="middle" x="354.5" y="-297" font-family="Helvetica,sans-Serif" font-size="10.00"> color</text>
<text text-anchor="middle" x="354.5" y="-286" font-family="Helvetica,sans-Serif" font-size="10.00">name</text>
</g>
<!-- Node12&#45;&gt;Node15 -->
<g id="edge18" class="edge">
<title>Node12&#45;&gt;Node15</title>
<path fill="none" stroke="#9a32cd" stroke-dasharray="5,2" d="M271.66,-405.76C285.13,-399.04 302.04,-391.51 318,-387 347.27,-378.72 380.71,-374.05 408.81,-371.41"/>
<polygon fill="#9a32cd" stroke="#9a32cd" points="269.81,-402.78 262.52,-410.46 273.01,-409 269.81,-402.78"/>
<text text-anchor="middle" x="354.5" y="-390" font-family="Helvetica,sans-Serif" font-size="10.00"> elements</text>
</g>
<!-- Node18 -->
<g id="node18" class="node">
<title>Node18</title>
<g id="a_node18"><a xlink:title=" ">
<polygon fill="none" stroke="#bfbfbf" points="552,-402.5 552,-421.5 692,-421.5 692,-402.5 552,-402.5"/>
<text text-anchor="middle" x="622" y="-409.5" font-family="Helvetica,sans-Serif" font-size="10.00">std::vector&lt; std::string &gt;</text>
</a>
</g>
</g>
<!-- Node12&#45;&gt;Node18 -->
<g id="edge24" class="edge">
<title>Node12&#45;&gt;Node18</title>
<path fill="none" stroke="#9a32cd" stroke-dasharray="5,2" d="M287.31,-419.11C351.32,-417.75 474.28,-415.13 551.74,-413.48"/>
<polygon fill="#9a32cd" stroke="#9a32cd" points="287.11,-415.61 277.19,-419.32 287.26,-422.61 287.11,-415.61"/>
<text text-anchor="middle" x="354.5" y="-421" font-family="Helvetica,sans-Serif" font-size="10.00"> elements</text>
</g>
<!-- Node19 -->
<g id="node19" class="node">
<title>Node19</title>
<g id="a_node19"><a xlink:title=" ">
<polygon fill="none" stroke="#bfbfbf" points="859,-448 859,-478 981,-478 981,-448 859,-448"/>
<text text-anchor="start" x="867" y="-466" font-family="Helvetica,sans-Serif" font-size="10.00">std::map&lt; std::string,</text>
<text text-anchor="middle" x="920" y="-455" font-family="Helvetica,sans-Serif" font-size="10.00"> std::string &gt;</text>
</a>
</g>
</g>
<!-- Node12&#45;&gt;Node19 -->
<g id="edge26" class="edge">
<title>Node12&#45;&gt;Node19</title>
<path fill="none" stroke="#9a32cd" stroke-dasharray="5,2" d="M287.28,-428.43C297.31,-430.19 308,-431.86 318,-433 514.95,-455.48 750.12,-461.12 858.65,-462.53"/>
<polygon fill="#9a32cd" stroke="#9a32cd" points="287.6,-424.93 277.13,-426.58 286.34,-431.82 287.6,-424.93"/>
<text text-anchor="middle" x="471.5" y="-464" font-family="Helvetica,sans-Serif" font-size="10.00"> elements</text>
<text text-anchor="middle" x="471.5" y="-453" font-family="Helvetica,sans-Serif" font-size="10.00">keys</text>
</g>
<!-- Node21 -->
<g id="node21" class="node">
<title>Node21</title>
<g id="a_node21"><a xlink:title=" ">
<polygon fill="none" stroke="#bfbfbf" points="1161,-536.5 1161,-577.5 1275,-577.5 1275,-536.5 1161,-536.5"/>
<text text-anchor="start" x="1169" y="-565.5" font-family="Helvetica,sans-Serif" font-size="10.00">std::unordered_map</text>
<text text-anchor="start" x="1169" y="-554.5" font-family="Helvetica,sans-Serif" font-size="10.00">&lt; std::string, std::</text>
<text text-anchor="middle" x="1218" y="-543.5" font-family="Helvetica,sans-Serif" font-size="10.00">string &gt;</text>
</a>
</g>
</g>
<!-- Node12&#45;&gt;Node21 -->
<g id="edge30" class="edge">
<title>Node12&#45;&gt;Node21</title>
<path fill="none" stroke="#9a32cd" stroke-dasharray="5,2" d="M252.81,-438.91C263.31,-463.41 285.12,-505.53 318,-527 375.7,-564.67 401.59,-555 470.5,-555 470.5,-555 470.5,-555 921,-555 1004.51,-555 1101.27,-555.81 1160.81,-556.39"/>
<polygon fill="#9a32cd" stroke="#9a32cd" points="256.02,-437.53 249,-429.6 249.54,-440.18 256.02,-437.53"/>
<text text-anchor="middle" x="622" y="-569" font-family="Helvetica,sans-Serif" font-size="10.00"> elements</text>
<text text-anchor="middle" x="622" y="-558" font-family="Helvetica,sans-Serif" font-size="10.00">keys</text>
</g>
<!-- Node13 -->
<g id="node13" class="node">
<title>Node13</title>
<g id="a_node13"><a xlink:title=" ">
<polygon fill="none" stroke="#bfbfbf" points="0,-405 0,-435 104,-435 104,-405 0,-405"/>
<text text-anchor="start" x="8" y="-423" font-family="Helvetica,sans-Serif" font-size="10.00">std::basic_string&lt;</text>
<text text-anchor="middle" x="52" y="-412" font-family="Helvetica,sans-Serif" font-size="10.00"> Char &gt;</text>
</a>
</g>
</g>
<!-- Node13&#45;&gt;Node12 -->
<g id="edge13" class="edge">
<title>Node13&#45;&gt;Node12</title>
<path fill="none" stroke="midnightblue" d="M114.35,-420C146.8,-420 185.28,-420 211.75,-420"/>
<polygon fill="midnightblue" stroke="midnightblue" points="114.05,-416.5 104.05,-420 114.05,-423.5 114.05,-416.5"/>
</g>
<!-- Node14&#45;&gt;Node11 -->
<g id="edge14" class="edge">
<title>Node14&#45;&gt;Node11</title>
<path fill="none" stroke="#9a32cd" stroke-dasharray="5,2" d="M306.71,-215.51C310.53,-215.31 314.32,-215.14 318,-215 351.34,-213.74 388.8,-213.48 418.25,-213.54"/>
<polygon fill="#9a32cd" stroke="#9a32cd" points="306.36,-212.02 296.57,-216.08 306.75,-219.01 306.36,-212.02"/>
<text text-anchor="middle" x="354.5" y="-218" font-family="Helvetica,sans-Serif" font-size="10.00"> dash_list</text>
</g>
<!-- Node15&#45;&gt;Node2 -->
<g id="edge16" class="edge">
<title>Node15&#45;&gt;Node2</title>
<path fill="none" stroke="#9a32cd" stroke-dasharray="5,2" d="M544.29,-367.55C684.89,-366.08 1006.27,-359.79 1275,-333 1286.27,-331.88 1298.28,-330.28 1309.72,-328.56"/>
<polygon fill="#9a32cd" stroke="#9a32cd" points="544.05,-364.05 534.08,-367.65 544.12,-371.05 544.05,-364.05"/>
<text text-anchor="middle" x="920" y="-362" font-family="Helvetica,sans-Serif" font-size="10.00"> _region_names</text>
</g>
<!-- Node16 -->
<g id="node16" class="node">
<title>Node16</title>
<g id="a_node16"><a xlink:title=" ">
<polygon fill="none" stroke="#bfbfbf" points="1041.5,-221.5 1041.5,-240.5 1100.5,-240.5 1100.5,-221.5 1041.5,-221.5"/>
<text text-anchor="middle" x="1071" y="-228.5" font-family="Helvetica,sans-Serif" font-size="10.00">IPosition</text>
</a>
</g>
</g>
<!-- Node16&#45;&gt;Node2 -->
<g id="edge19" class="edge">
<title>Node16&#45;&gt;Node2</title>
<path fill="none" stroke="#9a32cd" stroke-dasharray="5,2" d="M1110.63,-227.72C1154.62,-226.03 1226.65,-229.68 1275,-265 1289.13,-275.32 1279.37,-289.03 1293,-300 1297.8,-303.87 1303.32,-306.95 1309.11,-309.41"/>
<polygon fill="#9a32cd" stroke="#9a32cd" points="1110.43,-224.23 1100.61,-228.22 1110.77,-231.22 1110.43,-224.23"/>
<text text-anchor="middle" x="1218" y="-268" font-family="Helvetica,sans-Serif" font-size="10.00"> _image_shape</text>
</g>
<!-- Node17 -->
<g id="node17" class="node">
<title>Node17</title>
<g id="a_node17"><a xlink:title=" ">
<polygon fill="none" stroke="#bfbfbf" points="999,-172 999,-202 1143,-202 1143,-172 999,-172"/>
<text text-anchor="start" x="1007" y="-190" font-family="Helvetica,sans-Serif" font-size="10.00">std::shared_ptr&lt; casacore</text>
<text text-anchor="middle" x="1071" y="-179" font-family="Helvetica,sans-Serif" font-size="10.00">::CoordinateSystem &gt;</text>
</a>
</g>
</g>
<!-- Node17&#45;&gt;Node2 -->
<g id="edge20" class="edge">
<title>Node17&#45;&gt;Node2</title>
<path fill="none" stroke="#9a32cd" stroke-dasharray="5,2" d="M1153.16,-177.2C1194.58,-176.81 1242.87,-184.16 1275,-214 1303.62,-240.57 1266.13,-271.66 1293,-300 1296.62,-303.82 1300.92,-306.91 1305.58,-309.39"/>
<polygon fill="#9a32cd" stroke="#9a32cd" points="1152.98,-173.7 1143.07,-177.45 1153.15,-180.7 1152.98,-173.7"/>
<text text-anchor="middle" x="1218" y="-217" font-family="Helvetica,sans-Serif" font-size="10.00"> _coord_sys</text>
</g>
<!-- Node18&#45;&gt;Node2 -->
<g id="edge23" class="edge">
<title>Node18&#45;&gt;Node2</title>
<path fill="none" stroke="#9a32cd" stroke-dasharray="5,2" d="M702.24,-414.06C852.13,-417.05 1171.42,-418.78 1275,-383 1308.22,-371.52 1339.92,-343.48 1355.13,-328.62"/>
<polygon fill="#9a32cd" stroke="#9a32cd" points="702.26,-410.56 692.19,-413.85 702.11,-417.56 702.26,-410.56"/>
<text text-anchor="middle" x="920" y="-418" font-family="Helvetica,sans-Serif" font-size="10.00"> _export_regions</text>
</g>
<!-- Node19&#45;&gt;Node1 -->
<g id="edge25" class="edge">
<title>Node19&#45;&gt;Node1</title>
<path fill="none" stroke="#9a32cd" stroke-dasharray="5,2" d="M991.2,-463C1123.97,-463 1410.02,-463 1537.93,-463"/>
<polygon fill="#9a32cd" stroke="#9a32cd" points="991.14,-459.5 981.14,-463 991.14,-466.5 991.14,-459.5"/>
<text text-anchor="middle" x="1218" y="-466" font-family="Helvetica,sans-Serif" font-size="10.00"> _global_properties</text>
</g>
<!-- Node20 -->
<g id="node20" class="node">
<title>Node20</title>
<g id="a_node20"><a xlink:title=" ">
<polygon fill="none" stroke="#bfbfbf" points="1346.5,-271.5 1346.5,-290.5 1384.5,-290.5 1384.5,-271.5 1346.5,-271.5"/>
<text text-anchor="middle" x="1365.5" y="-278.5" font-family="Helvetica,sans-Serif" font-size="10.00">bool</text>
</a>
</g>
</g>
<!-- Node20&#45;&gt;Node1 -->
<g id="edge27" class="edge">
<title>Node20&#45;&gt;Node1</title>
<path fill="none" stroke="#9a32cd" stroke-dasharray="5,2" d="M1394.88,-286.11C1408.34,-289.13 1424.41,-293.64 1438,-300 1478.43,-318.92 1487.7,-327.19 1520,-358 1552.64,-389.13 1583.13,-433.76 1595.81,-453.26"/>
<polygon fill="#9a32cd" stroke="#9a32cd" points="1395.25,-282.61 1384.75,-283.99 1393.82,-289.46 1395.25,-282.61"/>
<text text-anchor="middle" x="1488" y="-361" font-family="Helvetica,sans-Serif" font-size="10.00"> _pixel_coord</text>
</g>
<!-- Node21&#45;&gt;Node1 -->
<g id="edge29" class="edge">
<title>Node21&#45;&gt;Node1</title>
<path fill="none" stroke="#9a32cd" stroke-dasharray="5,2" d="M1285.16,-560.77C1347.87,-561.99 1443.57,-557.62 1520,-527 1550.51,-514.78 1579.08,-487.59 1593.05,-472.89"/>
<polygon fill="#9a32cd" stroke="#9a32cd" points="1285.09,-557.27 1275.01,-560.52 1284.92,-564.27 1285.09,-557.27"/>
<text text-anchor="middle" x="1365.5" y="-563" font-family="Helvetica,sans-Serif" font-size="10.00"> _coord_map</text>
</g>
</g>
</svg>
        <g id="navigator" transform="translate(0 0)" fill="#404254">
                <rect fill="#f2f5e9" fill-opacity="0.5" stroke="#606060" stroke-width=".5" x="0" y="0" width="60" height="60"/>
                <use id="zoomplus" xlink:href="#zoomPlus" x="17" y="9" onmousedown="handleZoom(evt,'in')"/>
                <use id="zoomminus" xlink:href="#zoomMin" x="42" y="9" onmousedown="handleZoom(evt,'out')"/>
                <use id="reset" xlink:href="#resetDef" x="30" y="36" onmousedown="handleReset()"/>
                <g id="arrowUp" xlink:href="#dirArrow" transform="translate(30 24)" onmousedown="handlePan(0,-1)">
                  <use xlink:href="#rim" fill="#404040">
                        <set attributeName="fill" to="#808080" begin="arrowUp.mouseover" end="arrowUp.mouseout"/>
                  </use>
                  <path fill="none" stroke="white" stroke-width="1.5" d="M0,-3.0v7 M-2.5,-0.5L0,-3.0L2.5,-0.5"/>
                </g>
                <g id="arrowRight" xlink:href="#dirArrow" transform="rotate(90) translate(36 -43)" onmousedown="handlePan(1,0)">
                  <use xlink:href="#rim" fill="#404040">
                        <set attributeName="fill" to="#808080" begin="arrowRight.mouseover" end="arrowRight.mouseout"/>
                  </use>
                  <path fill="none" stroke="white" stroke-width="1.5" d="M0,-3.0v7 M-2.5,-0.5L0,-3.0L2.5,-0.5"/>
                </g>
                <g id="arrowDown" xlink:href="#dirArrow" transform="rotate(180) translate(-30 -48)" onmousedown="handlePan(0,1)">
                  <use xlink:href="#rim" fill="#404040">
                        <set attributeName="fill" to="#808080" begin="arrowDown.mouseover" end="arrowDown.mouseout"/>
                  </use>
                  <path fill="none" stroke="white" stroke-width="1.5" d="M0,-3.0v7 M-2.5,-0.5L0,-3.0L2.5,-0.5"/>
                </g>
                <g id="arrowLeft" xlink:href="#dirArrow" transform="rotate(270) translate(-36 17)" onmousedown="handlePan(-1,0)">
                  <use xlink:href="#rim" fill="#404040">
                        <set attributeName="fill" to="#808080" begin="arrowLeft.mouseover" end="arrowLeft.mouseout"/>
                  </use>
                  <path fill="none" stroke="white" stroke-width="1.5" d="M0,-3.0v7 M-2.5,-0.5L0,-3.0L2.5,-0.5"/>
                </g>
        </g>
        <svg viewBox="0 0 15 15" width="100%" height="30px" preserveAspectRatio="xMaxYMin meet">
         <g id="arrow_out" transform="scale(0.3 0.3)">
          <a xlink:href="classcarta_1_1Ds9ImportExport__coll__graph_org.svg" target="_base">
           <rect id="button" ry="5" rx="5" y="6" x="6" height="38" width="38"
                fill="#f2f5e9" fill-opacity="0.5" stroke="#606060" stroke-width="1.0"/>
           <path id="arrow"
             d="M 11.500037,31.436501 C 11.940474,20.09759 22.043105,11.32322 32.158766,21.979434 L 37.068811,17.246167 C 37.068811,17.246167 37.088388,32 37.088388,32 L 22.160133,31.978069 C 22.160133,31.978069 26.997745,27.140456 26.997745,27.140456 C 18.528582,18.264221 13.291696,25.230495 11.500037,31.436501 z"
             style="fill:#404040;"/>
          </a>
         </g>
        </svg>
</svg>
