<?xml version="1.0" encoding="UTF-8" standalone="no"?>
<!DOCTYPE svg PUBLIC "-//W3C//DTD SVG 1.1//EN"
 "http://www.w3.org/Graphics/SVG/1.1/DTD/svg11.dtd">
<!-- Generated by graphviz version 2.43.0 (0)
 -->
<!-- Title: carta::Frame::CoordinateSystem Pages: 1 -->
<svg width="510pt" height="66pt"
 viewBox="0.00 0.00 510.00 66.00" xmlns="http://www.w3.org/2000/svg" xmlns:xlink="http://www.w3.org/1999/xlink">
<g id="graph0" class="graph" transform="scale(1 1) rotate(0) translate(4 62)">
<title>carta::Frame::CoordinateSystem</title>
<!-- Node1 -->
<g id="node1" class="node">
<title>Node1</title>
<g id="a_node1"><a xlink:title=" ">
<polygon fill="#bfbfbf" stroke="black" points="365,-14 365,-44 502,-44 502,-14 365,-14"/>
<text text-anchor="start" x="373" y="-32" font-family="Helvetica,sans-Serif" font-size="10.00">carta::Frame::Coordinate</text>
<text text-anchor="middle" x="433.5" y="-21" font-family="Helvetica,sans-Serif" font-size="10.00">System</text>
</a>
</g>
</g>
<!-- Node2 -->
<g id="node2" class="node">
<title>Node2</title>
<g id="a_node2"><a xlink:href="classcarta_1_1Frame.html#adf81c6e34d99da6b4238cde332b3c4cf" target="_top" xlink:title=" ">
<polygon fill="none" stroke="black" points="163,-0.5 163,-19.5 329,-19.5 329,-0.5 163,-0.5"/>
<text text-anchor="middle" x="246" y="-7.5" font-family="Helvetica,sans-Serif" font-size="10.00">carta::Frame::GetImageRegion</text>
</a>
</g>
</g>
<!-- Node1&#45;&gt;Node2 -->
<g id="edge1" class="edge">
<title>Node1&#45;&gt;Node2</title>
<path fill="none" stroke="midnightblue" d="M354.57,-21.02C346.14,-20.15 337.55,-19.27 329.08,-18.41"/>
<polygon fill="midnightblue" stroke="midnightblue" points="354.44,-24.52 364.74,-22.06 355.15,-17.56 354.44,-24.52"/>
</g>
<!-- Node5 -->
<g id="node5" class="node">
<title>Node5</title>
<g id="a_node5"><a xlink:href="classcarta_1_1Frame.html#adf31710bdcc36207949ebc1e3517f363" target="_top" xlink:title=" ">
<polygon fill="none" stroke="black" points="163.5,-38.5 163.5,-57.5 328.5,-57.5 328.5,-38.5 163.5,-38.5"/>
<text text-anchor="middle" x="246" y="-45.5" font-family="Helvetica,sans-Serif" font-size="10.00">carta::Frame::GetRegionShape</text>
</a>
</g>
</g>
<!-- Node1&#45;&gt;Node5 -->
<g id="edge4" class="edge">
<title>Node1&#45;&gt;Node5</title>
<path fill="none" stroke="midnightblue" d="M354.76,-36.96C346.17,-37.84 337.4,-38.74 328.76,-39.63"/>
<polygon fill="midnightblue" stroke="midnightblue" points="355.15,-40.44 364.74,-35.94 354.44,-33.48 355.15,-40.44"/>
</g>
<!-- Node3 -->
<g id="node3" class="node">
<title>Node3</title>
<g id="a_node3"><a xlink:href="classcarta_1_1Frame.html#aeb6afc8204ae9f00c0517b4f28be32d5" target="_top" xlink:title=" ">
<polygon fill="none" stroke="black" points="0,-38.5 0,-57.5 127,-57.5 127,-38.5 0,-38.5"/>
<text text-anchor="middle" x="63.5" y="-45.5" font-family="Helvetica,sans-Serif" font-size="10.00">carta::Frame::FitImage</text>
</a>
</g>
</g>
<!-- Node2&#45;&gt;Node3 -->
<g id="edge2" class="edge">
<title>Node2&#45;&gt;Node3</title>
<path fill="none" stroke="midnightblue" d="M189.52,-21.68C163.92,-27.07 133.92,-33.39 109.72,-38.48"/>
<polygon fill="midnightblue" stroke="midnightblue" points="190.39,-25.07 199.45,-19.59 188.95,-18.22 190.39,-25.07"/>
</g>
<!-- Node4 -->
<g id="node4" class="node">
<title>Node4</title>
<g id="a_node4"><a xlink:href="classcarta_1_1Frame.html#a810937ee7606b48419b7f5d3ded16155" target="_top" xlink:title=" ">
<polygon fill="none" stroke="black" points="1,-0.5 1,-19.5 126,-19.5 126,-0.5 1,-0.5"/>
<text text-anchor="middle" x="63.5" y="-7.5" font-family="Helvetica,sans-Serif" font-size="10.00">carta::Frame::SaveFile</text>
</a>
</g>
</g>
<!-- Node2&#45;&gt;Node4 -->
<g id="edge3" class="edge">
<title>Node2&#45;&gt;Node4</title>
<path fill="none" stroke="midnightblue" d="M152.75,-10C143.72,-10 134.71,-10 126.1,-10"/>
<polygon fill="midnightblue" stroke="midnightblue" points="152.94,-13.5 162.94,-10 152.94,-6.5 152.94,-13.5"/>
</g>
<!-- Node5&#45;&gt;Node3 -->
<g id="edge5" class="edge">
<title>Node5&#45;&gt;Node3</title>
<path fill="none" stroke="midnightblue" d="M153.39,-48C144.47,-48 135.55,-48 127.01,-48"/>
<polygon fill="midnightblue" stroke="midnightblue" points="153.46,-51.5 163.46,-48 153.46,-44.5 153.46,-51.5"/>
</g>
</g>
</svg>
