<?xml version="1.0" encoding="UTF-8" standalone="no"?>
<!DOCTYPE svg PUBLIC "-//W3C//DTD SVG 1.1//EN"
 "http://www.w3.org/Graphics/SVG/1.1/DTD/svg11.dtd">
<!-- Generated by graphviz version 2.43.0 (0)
 -->
<!-- Title: carta::CrtfImportExport::AddExportRegion Pages: 1 -->
<svg width="577pt" height="302pt"
 viewBox="0.00 0.00 577.00 302.00" xmlns="http://www.w3.org/2000/svg" xmlns:xlink="http://www.w3.org/1999/xlink">
<g id="graph0" class="graph" transform="scale(1 1) rotate(0) translate(4 298)">
<title>carta::CrtfImportExport::AddExportRegion</title>
<!-- Node1 -->
<g id="Node000001" class="node">
<title>Node1</title>
<g id="a_Node000001"><a xlink:title=" ">
<polygon fill="#999999" stroke="#666666" points="129,-126 0,-126 0,-96 129,-96 129,-126"/>
<text text-anchor="start" x="8" y="-114" font-family="Helvetica,sans-Serif" font-size="10.00">carta::CrtfImportExport</text>
<text text-anchor="middle" x="64.5" y="-103" font-family="Helvetica,sans-Serif" font-size="10.00">::AddExportRegion</text>
</a>
</g>
</g>
<!-- Node2 -->
<g id="Node000002" class="node">
<title>Node2</title>
<g id="a_Node000002"><a xlink:href="classcarta_1_1RegionImportExport.html#a71afc9963460ea3e627e1350080f892d" target="_top" xlink:title=" ">
<polygon fill="white" stroke="#666666" points="329,-222 184,-222 184,-192 329,-192 329,-222"/>
<text text-anchor="start" x="192" y="-210" font-family="Helvetica,sans-Serif" font-size="10.00">carta::RegionImportExport</text>
<text text-anchor="middle" x="256.5" y="-199" font-family="Helvetica,sans-Serif" font-size="10.00">::ExportAnnCompassStyle</text>
</a>
</g>
</g>
<!-- Node1&#45;&gt;Node2 -->
<g id="edge1_Node000001_Node000002" class="edge">
<title>Node1&#45;&gt;Node2</title>
<g id="a_edge1_Node000001_Node000002"><a xlink:title=" ">
<path fill="none" stroke="#63b8ff" d="M82.23,-126.11C101.07,-142.37 133.21,-167.92 165,-183 169.27,-185.03 173.74,-186.9 178.31,-188.64"/>
<polygon fill="#63b8ff" stroke="#63b8ff" points="177.2,-191.95 187.79,-192 179.54,-185.36 177.2,-191.95"/>
</a>
</g>
</g>
<!-- Node3 -->
<g id="Node000003" class="node">
<title>Node3</title>
<g id="a_Node000003"><a xlink:href="classcarta_1_1CrtfImportExport.html#a98e5a917e83f053c96f41cee00dae7ec" target="_top" xlink:title=" ">
<polygon fill="white" stroke="#666666" points="323.5,-174 189.5,-174 189.5,-144 323.5,-144 323.5,-174"/>
<text text-anchor="start" x="197.5" y="-162" font-family="Helvetica,sans-Serif" font-size="10.00">carta::CrtfImportExport</text>
<text text-anchor="middle" x="256.5" y="-151" font-family="Helvetica,sans-Serif" font-size="10.00">::ExportStyleParameters</text>
</a>
</g>
</g>
<!-- Node1&#45;&gt;Node3 -->
<g id="edge2_Node000001_Node000003" class="edge">
<title>Node1&#45;&gt;Node3</title>
<g id="a_edge2_Node000001_Node000003"><a xlink:title=" ">
<path fill="none" stroke="#63b8ff" d="M125.1,-126.06C144.55,-130.97 166.31,-136.47 186.4,-141.54"/>
<polygon fill="#63b8ff" stroke="#63b8ff" points="185.56,-144.94 196.12,-144 187.28,-138.15 185.56,-144.94"/>
</a>
</g>
</g>
<!-- Node9 -->
<g id="Node000009" class="node">
<title>Node9</title>
<g id="a_Node000009"><a xlink:href="classcarta_1_1CrtfImportExport.html#ad41e01c078a82869939d6e31cd809c33" target="_top" xlink:title=" ">
<polygon fill="white" stroke="#666666" points="348,-126 165,-126 165,-96 348,-96 348,-126"/>
<text text-anchor="start" x="173" y="-114" font-family="Helvetica,sans-Serif" font-size="10.00">carta::CrtfImportExport</text>
<text text-anchor="middle" x="256.5" y="-103" font-family="Helvetica,sans-Serif" font-size="10.00">::GetAnnotationCoordinateSystem</text>
</a>
</g>
</g>
<!-- Node1&#45;&gt;Node9 -->
<g id="edge8_Node000001_Node000009" class="edge">
<title>Node1&#45;&gt;Node9</title>
<g id="a_edge8_Node000001_Node000009"><a xlink:title=" ">
<path fill="none" stroke="#63b8ff" d="M129.03,-111C137.33,-111 145.99,-111 154.71,-111"/>
<polygon fill="#63b8ff" stroke="#63b8ff" points="154.96,-114.5 164.96,-111 154.96,-107.5 154.96,-114.5"/>
</a>
</g>
</g>
<!-- Node10 -->
<g id="Node000010" class="node">
<title>Node10</title>
<g id="a_Node000010"><a xlink:href="classcarta_1_1CrtfImportExport.html#aae96e419aea65a9f5a6233bba997bbcd" target="_top" xlink:title=" ">
<polygon fill="white" stroke="#666666" points="321,-78 192,-78 192,-48 321,-48 321,-78"/>
<text text-anchor="start" x="200" y="-66" font-family="Helvetica,sans-Serif" font-size="10.00">carta::CrtfImportExport</text>
<text text-anchor="middle" x="256.5" y="-55" font-family="Helvetica,sans-Serif" font-size="10.00">::GetAnnSymbol</text>
</a>
</g>
</g>
<!-- Node1&#45;&gt;Node10 -->
<g id="edge10_Node000001_Node000010" class="edge">
<title>Node1&#45;&gt;Node10</title>
<g id="a_edge10_Node000001_Node000010"><a xlink:title=" ">
<path fill="none" stroke="#63b8ff" d="M125.1,-95.94C144.55,-91.03 166.31,-85.53 186.4,-80.46"/>
<polygon fill="#63b8ff" stroke="#63b8ff" points="187.28,-83.85 196.12,-78 185.56,-77.06 187.28,-83.85"/>
</a>
</g>
</g>
<!-- Node11 -->
<g id="Node000011" class="node">
<title>Node11</title>
<g id="a_Node000011"><a xlink:href="classcarta_1_1CrtfImportExport.html#a82e6cb69f239bfcff17b545341946df6" target="_top" xlink:title=" ">
<polygon fill="white" stroke="#666666" points="321,-30 192,-30 192,0 321,0 321,-30"/>
<text text-anchor="start" x="200" y="-18" font-family="Helvetica,sans-Serif" font-size="10.00">carta::CrtfImportExport</text>
<text text-anchor="middle" x="256.5" y="-7" font-family="Helvetica,sans-Serif" font-size="10.00">::GetStokesTypes</text>
</a>
</g>
</g>
<!-- Node1&#45;&gt;Node11 -->
<g id="edge11_Node000001_Node000011" class="edge">
<title>Node1&#45;&gt;Node11</title>
<g id="a_edge11_Node000001_Node000011"><a xlink:title=" ">
<path fill="none" stroke="#63b8ff" d="M82.23,-95.89C101.07,-79.63 133.21,-54.08 165,-39 170.36,-36.46 176.04,-34.15 181.83,-32.07"/>
<polygon fill="#63b8ff" stroke="#63b8ff" points="183.28,-35.27 191.64,-28.76 181.04,-28.64 183.28,-35.27"/>
</a>
</g>
</g>
<!-- Node4 -->
<g id="Node000004" class="node">
<title>Node4</title>
<g id="a_Node000004"><a xlink:href="classcarta_1_1CrtfImportExport.html#aab88103719e665eddf5acfbefdce8159" target="_top" xlink:title=" ">
<polygon fill="white" stroke="#666666" points="561.5,-294 391.5,-294 391.5,-264 561.5,-264 561.5,-294"/>
<text text-anchor="start" x="399.5" y="-282" font-family="Helvetica,sans-Serif" font-size="10.00">carta::CrtfImportExport</text>
<text text-anchor="middle" x="476.5" y="-271" font-family="Helvetica,sans-Serif" font-size="10.00">::GetAnnotationFontParameters</text>
</a>
</g>
</g>
<!-- Node3&#45;&gt;Node4 -->
<g id="edge3_Node000003_Node000004" class="edge">
<title>Node3&#45;&gt;Node4</title>
<g id="a_edge3_Node000003_Node000004"><a xlink:title=" ">
<path fill="none" stroke="#63b8ff" d="M323.51,-169.36C332.34,-172.72 340.81,-177.15 348,-183 375.75,-205.58 356.22,-232.45 384,-255 385.58,-256.28 387.22,-257.49 388.91,-258.64"/>
<polygon fill="#63b8ff" stroke="#63b8ff" points="387.36,-261.79 397.75,-263.87 390.92,-255.77 387.36,-261.79"/>
</a>
</g>
</g>
<!-- Node5 -->
<g id="Node000005" class="node">
<title>Node5</title>
<g id="a_Node000005"><a xlink:href="classcarta_1_1CrtfImportExport.html#a70d5765cfd2d31f4d0854ebdfbd8cf67" target="_top" xlink:title=" ">
<polygon fill="white" stroke="#666666" points="569,-246 384,-246 384,-216 569,-216 569,-246"/>
<text text-anchor="start" x="392" y="-234" font-family="Helvetica,sans-Serif" font-size="10.00">carta::CrtfImportExport</text>
<text text-anchor="middle" x="476.5" y="-223" font-family="Helvetica,sans-Serif" font-size="10.00">::GetAnnotationSymbolParameters</text>
</a>
</g>
</g>
<!-- Node3&#45;&gt;Node5 -->
<g id="edge4_Node000003_Node000005" class="edge">
<title>Node3&#45;&gt;Node5</title>
<g id="a_edge4_Node000003_Node000005"><a xlink:title=" ">
<path fill="none" stroke="#63b8ff" d="M323.64,-173.81C331.99,-176.47 340.29,-179.53 348,-183 365.53,-190.9 366.46,-199.12 384,-207 388.45,-209 393.09,-210.86 397.83,-212.58"/>
<polygon fill="#63b8ff" stroke="#63b8ff" points="397.06,-216.01 407.66,-215.93 399.32,-209.39 397.06,-216.01"/>
</a>
</g>
</g>
<!-- Node6 -->
<g id="Node000006" class="node">
<title>Node6</title>
<g id="a_Node000006"><a xlink:href="classcarta_1_1CrtfImportExport.html#adfd2df909c2058b546bc8fa229590b22" target="_top" xlink:title=" ">
<polygon fill="white" stroke="#666666" points="549.5,-102 403.5,-102 403.5,-72 549.5,-72 549.5,-102"/>
<text text-anchor="start" x="411.5" y="-90" font-family="Helvetica,sans-Serif" font-size="10.00">carta::CrtfImportExport</text>
<text text-anchor="middle" x="476.5" y="-79" font-family="Helvetica,sans-Serif" font-size="10.00">::GetImageDirectionFrame</text>
</a>
</g>
</g>
<!-- Node3&#45;&gt;Node6 -->
<g id="edge5_Node000003_Node000006" class="edge">
<title>Node3&#45;&gt;Node6</title>
<g id="a_edge5_Node000003_Node000006"><a xlink:title=" ">
<path fill="none" stroke="#63b8ff" d="M323.64,-144.19C331.99,-141.53 340.29,-138.47 348,-135 365.53,-127.1 366.46,-118.88 384,-111 388.45,-109 393.09,-107.14 397.83,-105.42"/>
<polygon fill="#63b8ff" stroke="#63b8ff" points="399.32,-108.61 407.66,-102.07 397.06,-101.99 399.32,-108.61"/>
</a>
</g>
</g>
<!-- Node7 -->
<g id="Node000007" class="node">
<title>Node7</title>
<g id="a_Node000007"><a xlink:href="classcarta_1_1CrtfImportExport.html#a2e2f99af8c72da650023393a4473b61b" target="_top" xlink:title=" ">
<polygon fill="white" stroke="#666666" points="541,-198 412,-198 412,-168 541,-168 541,-198"/>
<text text-anchor="start" x="420" y="-186" font-family="Helvetica,sans-Serif" font-size="10.00">carta::CrtfImportExport</text>
<text text-anchor="middle" x="476.5" y="-175" font-family="Helvetica,sans-Serif" font-size="10.00">::GetRegionColor</text>
</a>
</g>
</g>
<!-- Node3&#45;&gt;Node7 -->
<g id="edge6_Node000003_Node000007" class="edge">
<title>Node3&#45;&gt;Node7</title>
<g id="a_edge6_Node000003_Node000007"><a xlink:title=" ">
<path fill="none" stroke="#63b8ff" d="M323.8,-166.3C348.35,-169 376.33,-172.08 401.52,-174.86"/>
<polygon fill="#63b8ff" stroke="#63b8ff" points="401.44,-178.37 411.76,-175.98 402.21,-171.41 401.44,-178.37"/>
</a>
</g>
</g>
<!-- Node8 -->
<g id="Node000008" class="node">
<title>Node8</title>
<g id="a_Node000008"><a xlink:href="classcarta_1_1CrtfImportExport.html#a9af79a9681d3ea08698d5ec0979b999f" target="_top" xlink:title=" ">
<polygon fill="white" stroke="#666666" points="541,-150 412,-150 412,-120 541,-120 541,-150"/>
<text text-anchor="start" x="420" y="-138" font-family="Helvetica,sans-Serif" font-size="10.00">carta::CrtfImportExport</text>
<text text-anchor="middle" x="476.5" y="-127" font-family="Helvetica,sans-Serif" font-size="10.00">::GetRegionLineStyle</text>
</a>
</g>
</g>
<!-- Node3&#45;&gt;Node8 -->
<g id="edge7_Node000003_Node000008" class="edge">
<title>Node3&#45;&gt;Node8</title>
<g id="a_edge7_Node000003_Node000008"><a xlink:title=" ">
<path fill="none" stroke="#63b8ff" d="M323.8,-151.7C348.35,-149 376.33,-145.92 401.52,-143.14"/>
<polygon fill="#63b8ff" stroke="#63b8ff" points="402.21,-146.59 411.76,-142.02 401.44,-139.63 402.21,-146.59"/>
</a>
</g>
</g>
<!-- Node9&#45;&gt;Node6 -->
<g id="edge9_Node000009_Node000006" class="edge">
<title>Node9&#45;&gt;Node6</title>
<g id="a_edge9_Node000009_Node000006"><a xlink:title=" ">
<path fill="none" stroke="#63b8ff" d="M348.06,-101.03C363.08,-99.38 378.57,-97.67 393.37,-96.04"/>
<polygon fill="#63b8ff" stroke="#63b8ff" points="393.93,-99.5 403.48,-94.93 393.16,-92.54 393.93,-99.5"/>
</a>
</g>
</g>
</g>
</svg>
