<?xml version="1.0" encoding="UTF-8" standalone="no"?>
<!DOCTYPE svg PUBLIC "-//W3C//DTD SVG 1.1//EN"
 "http://www.w3.org/Graphics/SVG/1.1/DTD/svg11.dtd">
<!-- Generated by graphviz version 2.43.0 (0)
 -->
<!-- Title: carta::Session::OnSetImageChannels Pages: 1 -->
<!--zoomable 670 -->
<svg id="main" version="1.1" xmlns="http://www.w3.org/2000/svg" xmlns:xlink="http://www.w3.org/1999/xlink" xml:space="preserve" onload="init(evt)">
<style type="text/css"><![CDATA[
.edge:hover path { stroke: red; }
.edge:hover polygon { stroke: red; fill: red; }
]]></style>
<script type="text/javascript"><![CDATA[
var edges = document.getElementsByTagName('g');
if (edges && edges.length) {
  for (var i=0;i<edges.length;i++) {
    if (edges[i].id.substr(0,4)=='edge') {
      edges[i].setAttribute('class','edge');
    }
  }
}
]]></script>
        <defs>
                <circle id="rim" cx="0" cy="0" r="7"/>
                <circle id="rim2" cx="0" cy="0" r="3.5"/>
                <g id="zoomPlus">
                        <use xlink:href="#rim" fill="#404040">
                                <set attributeName="fill" to="#808080" begin="zoomplus.mouseover" end="zoomplus.mouseout"/>
                        </use>
                        <path d="M-4,0h8M0,-4v8" fill="none" stroke="white" stroke-width="1.5" pointer-events="none"/>
                </g>
                <g id="zoomMin">
                        <use xlink:href="#rim" fill="#404040">
                                <set attributeName="fill" to="#808080" begin="zoomminus.mouseover" end="zoomminus.mouseout"/>
                        </use>
                        <path d="M-4,0h8" fill="none" stroke="white" stroke-width="1.5" pointer-events="none"/>
                </g>
                <g id="dirArrow">
                        <path fill="none" stroke="white" stroke-width="1.5" d="M0,-3.0v7 M-2.5,-0.5L0,-3.0L2.5,-0.5"/>
                </g>
               <g id="resetDef">
                       <use xlink:href="#rim2" fill="#404040">
                               <set attributeName="fill" to="#808080" begin="reset.mouseover" end="reset.mouseout"/>
                       </use>
               </g>
        </defs>

<script type="text/javascript">
var viewWidth = 1582;
var viewHeight = 670;
var sectionId = 'dynsection-91';
</script>
<script xlink:href="svgpan.js"/>
<svg id="graph" class="graph">
<g id="viewport">
<title>carta::Session::OnSetImageChannels</title>
<!-- Node1 -->
<g id="node1" class="node">
<title>Node1</title>
<g id="a_node1"><a xlink:title=" ">
<polygon fill="#bfbfbf" stroke="black" points="0,-378 0,-408 151,-408 151,-378 0,-378"/>
<text text-anchor="start" x="8" y="-396" font-family="Helvetica,sans-Serif" font-size="10.00">carta::Session::OnSetImage</text>
<text text-anchor="middle" x="75.5" y="-385" font-family="Helvetica,sans-Serif" font-size="10.00">Channels</text>
</a>
</g>
</g>
<!-- Node2 -->
<g id="node2" class="node">
<title>Node2</title>
<g id="a_node2"><a xlink:href="classcarta_1_1Session.html#ad769ec04ffbfb2289af256be174e3059" target="_top" xlink:title=" ">
<polygon fill="none" stroke="black" points="601.5,-498 601.5,-528 768.5,-528 768.5,-498 601.5,-498"/>
<text text-anchor="start" x="609.5" y="-516" font-family="Helvetica,sans-Serif" font-size="10.00">carta::Session::OnAddRequired</text>
<text text-anchor="middle" x="685" y="-505" font-family="Helvetica,sans-Serif" font-size="10.00">Tiles</text>
</a>
</g>
</g>
<!-- Node1&#45;&gt;Node2 -->
<g id="edge1" class="edge">
<title>Node1&#45;&gt;Node2</title>
<path fill="none" stroke="midnightblue" d="M100.5,-408.2C122.22,-421.21 155.55,-439.32 187,-449 323.66,-491.06 489.7,-505.49 591.06,-510.44"/>
<polygon fill="midnightblue" stroke="midnightblue" points="591.12,-513.94 601.28,-510.91 591.45,-506.95 591.12,-513.94"/>
</g>
<!-- Node15 -->
<g id="node15" class="node">
<title>Node15</title>
<g id="a_node15"><a xlink:href="classcarta_1_1Session.html#abf2d92e46ffc218b0e6e2685bf4ffb72" target="_top" xlink:title=" ">
<polygon fill="none" stroke="black" points="597,-440.5 597,-459.5 773,-459.5 773,-440.5 597,-440.5"/>
<text text-anchor="middle" x="685" y="-447.5" font-family="Helvetica,sans-Serif" font-size="10.00">carta::Session::SendContourData</text>
</a>
</g>
</g>
<!-- Node1&#45;&gt;Node15 -->
<g id="edge14" class="edge">
<title>Node1&#45;&gt;Node15</title>
<path fill="none" stroke="midnightblue" d="M118.17,-408.05C138.63,-414.76 163.81,-422.04 187,-426 324.28,-449.46 485.75,-452.89 586.51,-452.21"/>
<polygon fill="midnightblue" stroke="midnightblue" points="586.7,-455.71 596.67,-452.13 586.64,-448.71 586.7,-455.71"/>
</g>
<!-- Node19 -->
<g id="node19" class="node">
<title>Node19</title>
<g id="a_node19"><a xlink:href="classcarta_1_1Session.html#a9614e33dea4622ec90432fa7aad7a451" target="_top" xlink:title=" ">
<polygon fill="none" stroke="black" points="816,-326.5 816,-345.5 976,-345.5 976,-326.5 816,-326.5"/>
<text text-anchor="middle" x="896" y="-333.5" font-family="Helvetica,sans-Serif" font-size="10.00">carta::Session::SendLogEvent</text>
</a>
</g>
</g>
<!-- Node1&#45;&gt;Node19 -->
<g id="edge22" class="edge">
<title>Node1&#45;&gt;Node19</title>
<path fill="none" stroke="midnightblue" d="M151.13,-399.74C307.17,-412.69 662.62,-435.94 773,-390 793.6,-381.43 789.36,-365.59 809,-355 813.32,-352.67 817.9,-350.63 822.62,-348.84"/>
<polygon fill="midnightblue" stroke="midnightblue" points="824.1,-352.03 832.44,-345.5 821.85,-345.41 824.1,-352.03"/>
</g>
<!-- Node21 -->
<g id="node21" class="node">
<title>Node21</title>
<g id="a_node21"><a xlink:href="classcarta_1_1Session.html#a2535a06bd2e8a13e99c775d895f6024a" target="_top" xlink:title=" ">
<polygon fill="none" stroke="black" points="612,-350 612,-380 758,-380 758,-350 612,-350"/>
<text text-anchor="start" x="620" y="-368" font-family="Helvetica,sans-Serif" font-size="10.00">carta::Session::SendVector</text>
<text text-anchor="middle" x="685" y="-357" font-family="Helvetica,sans-Serif" font-size="10.00">FieldData</text>
</a>
</g>
</g>
<!-- Node1&#45;&gt;Node21 -->
<g id="edge23" class="edge">
<title>Node1&#45;&gt;Node21</title>
<path fill="none" stroke="midnightblue" d="M151.3,-389.55C265.62,-384.28 483.04,-374.26 601.7,-368.79"/>
<polygon fill="midnightblue" stroke="midnightblue" points="601.99,-372.28 611.82,-368.33 601.67,-365.29 601.99,-372.28"/>
</g>
<!-- Node22 -->
<g id="node22" class="node">
<title>Node22</title>
<g id="a_node22"><a xlink:href="classcarta_1_1Session.html#aef4b334b4727ea531b229d242c3108b2" target="_top" xlink:title=" ">
<polygon fill="none" stroke="black" points="188.5,-222.5 188.5,-241.5 368.5,-241.5 368.5,-222.5 188.5,-222.5"/>
<text text-anchor="middle" x="278.5" y="-229.5" font-family="Helvetica,sans-Serif" font-size="10.00">carta::Session::UpdateImageData</text>
</a>
</g>
</g>
<!-- Node1&#45;&gt;Node22 -->
<g id="edge26" class="edge">
<title>Node1&#45;&gt;Node22</title>
<path fill="none" stroke="midnightblue" d="M85.41,-377.69C101.99,-350.5 140.19,-293.69 187,-262 197.82,-254.68 210.56,-249.02 223.02,-244.7"/>
<polygon fill="midnightblue" stroke="midnightblue" points="224.47,-247.91 232.91,-241.51 222.32,-241.24 224.47,-247.91"/>
</g>
<!-- Node41 -->
<g id="node41" class="node">
<title>Node41</title>
<g id="a_node41"><a xlink:href="classcarta_1_1Session.html#ac86d5f7886628a9429955f05426f25ab" target="_top" xlink:title=" ">
<polygon fill="none" stroke="black" points="187,-271.5 187,-290.5 370,-290.5 370,-271.5 187,-271.5"/>
<text text-anchor="middle" x="278.5" y="-278.5" font-family="Helvetica,sans-Serif" font-size="10.00">carta::Session::UpdateRegionData</text>
</a>
</g>
</g>
<!-- Node1&#45;&gt;Node41 -->
<g id="edge53" class="edge">
<title>Node1&#45;&gt;Node41</title>
<path fill="none" stroke="midnightblue" d="M103.61,-377.9C142.33,-356.32 213.02,-316.93 251.26,-295.62"/>
<polygon fill="midnightblue" stroke="midnightblue" points="253.21,-298.54 260.24,-290.62 249.8,-292.43 253.21,-298.54"/>
</g>
<!-- Node3 -->
<g id="node3" class="node">
<title>Node3</title>
<g id="a_node3"><a xlink:href="classcarta_1_1ThreadManager.html#a82cbb5d8370c091ac96c24d0fc4984dc" target="_top" xlink:title=" ">
<polygon fill="none" stroke="black" points="834,-517 834,-547 958,-547 958,-517 834,-517"/>
<text text-anchor="start" x="842" y="-535" font-family="Helvetica,sans-Serif" font-size="10.00">carta::ThreadManager</text>
<text text-anchor="middle" x="896" y="-524" font-family="Helvetica,sans-Serif" font-size="10.00">::ApplyThreadLimit</text>
</a>
</g>
</g>
<!-- Node2&#45;&gt;Node3 -->
<g id="edge2" class="edge">
<title>Node2&#45;&gt;Node3</title>
<path fill="none" stroke="midnightblue" d="M768.6,-520.51C786.82,-522.17 805.97,-523.91 823.69,-525.52"/>
<polygon fill="midnightblue" stroke="midnightblue" points="823.67,-529.03 833.95,-526.45 824.31,-522.06 823.67,-529.03"/>
</g>
<!-- Node4 -->
<g id="node4" class="node">
<title>Node4</title>
<g id="a_node4"><a xlink:href="structcarta_1_1Tile.html#a3bb9a6a862540de876a281145ab80e92" target="_top" xlink:title=" ">
<polygon fill="none" stroke="black" points="842,-478.5 842,-497.5 950,-497.5 950,-478.5 842,-478.5"/>
<text text-anchor="middle" x="896" y="-485.5" font-family="Helvetica,sans-Serif" font-size="10.00">carta::Tile::Decode</text>
</a>
</g>
</g>
<!-- Node2&#45;&gt;Node4 -->
<g id="edge3" class="edge">
<title>Node2&#45;&gt;Node4</title>
<path fill="none" stroke="midnightblue" d="M768.6,-503.12C789.59,-500.61 811.81,-497.95 831.67,-495.58"/>
<polygon fill="midnightblue" stroke="midnightblue" points="832.31,-499.02 841.82,-494.36 831.48,-492.07 832.31,-499.02"/>
</g>
<!-- Node5 -->
<g id="node5" class="node">
<title>Node5</title>
<g id="a_node5"><a xlink:href="classcarta_1_1Timer.html#aad2702a80259920b910fb76642f97b88" target="_top" xlink:title=" ">
<polygon fill="none" stroke="black" points="836,-402.5 836,-421.5 956,-421.5 956,-402.5 836,-402.5"/>
<text text-anchor="middle" x="896" y="-409.5" font-family="Helvetica,sans-Serif" font-size="10.00">carta::Timer::Elapsed</text>
</a>
</g>
</g>
<!-- Node2&#45;&gt;Node5 -->
<g id="edge4" class="edge">
<title>Node2&#45;&gt;Node5</title>
<path fill="none" stroke="midnightblue" d="M722.75,-497.85C738.91,-490.34 757.66,-480.43 773,-469 791.66,-455.1 788.75,-442.46 809,-431 814.41,-427.94 820.28,-425.37 826.32,-423.21"/>
<polygon fill="midnightblue" stroke="midnightblue" points="827.44,-426.53 835.9,-420.15 825.31,-419.86 827.44,-426.53"/>
</g>
<!-- Node6 -->
<g id="node6" class="node">
<title>Node6</title>
<g id="a_node6"><a xlink:href="structcarta_1_1TimeDelta.html#a90b2dc0a7d70b0aa6f668f4bbad7fa58" target="_top" xlink:title=" ">
<polygon fill="none" stroke="black" points="836.5,-642.5 836.5,-661.5 955.5,-661.5 955.5,-642.5 836.5,-642.5"/>
<text text-anchor="middle" x="896" y="-649.5" font-family="Helvetica,sans-Serif" font-size="10.00">carta::TimeDelta::ms</text>
</a>
</g>
</g>
<!-- Node2&#45;&gt;Node6 -->
<g id="edge5" class="edge">
<title>Node2&#45;&gt;Node6</title>
<path fill="none" stroke="midnightblue" d="M696.98,-528.26C716.45,-554.12 759.65,-606.34 809,-633 814.47,-635.96 820.38,-638.45 826.44,-640.56"/>
<polygon fill="midnightblue" stroke="midnightblue" points="825.47,-643.93 836.06,-643.57 827.56,-637.24 825.47,-643.93"/>
</g>
<!-- Node7 -->
<g id="node7" class="node">
<title>Node7</title>
<g id="a_node7"><a xlink:href="classMessage.html#a15e63a0047135f16b920dd30c1e1d080" target="_top" xlink:title=" ">
<polygon fill="none" stroke="black" points="826.5,-604.5 826.5,-623.5 965.5,-623.5 965.5,-604.5 826.5,-604.5"/>
<text text-anchor="middle" x="896" y="-611.5" font-family="Helvetica,sans-Serif" font-size="10.00">Message::RasterTileData</text>
</a>
</g>
</g>
<!-- Node2&#45;&gt;Node7 -->
<g id="edge6" class="edge">
<title>Node2&#45;&gt;Node7</title>
<path fill="none" stroke="midnightblue" d="M703.92,-528.1C726.82,-546.63 768.39,-577.7 809,-595 814.91,-597.52 821.19,-599.72 827.57,-601.64"/>
<polygon fill="midnightblue" stroke="midnightblue" points="827.06,-605.13 837.63,-604.44 828.93,-598.39 827.06,-605.13"/>
</g>
<!-- Node8 -->
<g id="node8" class="node">
<title>Node8</title>
<g id="a_node8"><a xlink:href="classMessage.html#a4219aad3d558ca35844027283d980b33" target="_top" xlink:title=" ">
<polygon fill="none" stroke="black" points="826.5,-566.5 826.5,-585.5 965.5,-585.5 965.5,-566.5 826.5,-566.5"/>
<text text-anchor="middle" x="896" y="-573.5" font-family="Helvetica,sans-Serif" font-size="10.00">Message::RasterTileSync</text>
</a>
</g>
</g>
<!-- Node2&#45;&gt;Node8 -->
<g id="edge7" class="edge">
<title>Node2&#45;&gt;Node8</title>
<path fill="none" stroke="midnightblue" d="M724.1,-528.03C748.19,-537.19 780.12,-548.68 809,-557 817.85,-559.55 827.29,-561.95 836.56,-564.13"/>
<polygon fill="midnightblue" stroke="midnightblue" points="835.99,-567.59 846.52,-566.41 837.55,-560.77 835.99,-567.59"/>
</g>
<!-- Node9 -->
<g id="node9" class="node">
<title>Node9</title>
<g id="a_node9"><a xlink:href="classcarta_1_1Session.html#ae6ff58d2a61d3872bc741f12ed2b91d7" target="_top" xlink:title=" ">
<polygon fill="none" stroke="black" points="830,-277 830,-307 962,-307 962,-277 830,-277"/>
<text text-anchor="start" x="838" y="-295" font-family="Helvetica,sans-Serif" font-size="10.00">carta::Session::SendFile</text>
<text text-anchor="middle" x="896" y="-284" font-family="Helvetica,sans-Serif" font-size="10.00">Event</text>
</a>
</g>
</g>
<!-- Node2&#45;&gt;Node9 -->
<g id="edge8" class="edge">
<title>Node2&#45;&gt;Node9</title>
<path fill="none" stroke="midnightblue" d="M733.68,-497.88C748.19,-491.14 762.94,-481.76 773,-469 815.98,-414.48 761.16,-367.31 809,-317 812.44,-313.39 816.36,-310.29 820.6,-307.63"/>
<polygon fill="midnightblue" stroke="midnightblue" points="822.51,-310.57 829.67,-302.77 819.2,-304.4 822.51,-310.57"/>
</g>
<!-- Node10 -->
<g id="node10" class="node">
<title>Node10</title>
<g id="a_node10"><a xlink:href="classcarta_1_1Session.html#af5f45b72e3fb7d4ad6fbf32fcc9da912" target="_top" xlink:title=" ">
<polygon fill="none" stroke="black" points="1044.5,-288.5 1044.5,-307.5 1187.5,-307.5 1187.5,-288.5 1044.5,-288.5"/>
<text text-anchor="middle" x="1116" y="-295.5" font-family="Helvetica,sans-Serif" font-size="10.00">carta::Session::SendEvent</text>
</a>
</g>
</g>
<!-- Node9&#45;&gt;Node10 -->
<g id="edge9" class="edge">
<title>Node9&#45;&gt;Node10</title>
<path fill="none" stroke="midnightblue" d="M962.11,-293.79C984.73,-294.41 1010.37,-295.12 1034.1,-295.77"/>
<polygon fill="midnightblue" stroke="midnightblue" points="1034.05,-299.27 1044.14,-296.05 1034.24,-292.28 1034.05,-299.27"/>
</g>
<!-- Node11 -->
<g id="node11" class="node">
<title>Node11</title>
<g id="a_node11"><a xlink:href="namespacecarta_1_1logger.html#ab9e339746ee51ea21696ab43b50841d5" target="_top" xlink:title=" ">
<polygon fill="none" stroke="black" points="1249,-345.5 1249,-364.5 1422,-364.5 1422,-345.5 1249,-345.5"/>
<text text-anchor="middle" x="1335.5" y="-352.5" font-family="Helvetica,sans-Serif" font-size="10.00">carta::logger::LogSentEventType</text>
</a>
</g>
</g>
<!-- Node10&#45;&gt;Node11 -->
<g id="edge10" class="edge">
<title>Node10&#45;&gt;Node11</title>
<path fill="none" stroke="midnightblue" d="M1178.91,-307.5C1190.41,-310.04 1202.19,-313.17 1213,-317 1230.05,-323.04 1232.02,-329.76 1249,-336 1256.05,-338.59 1263.55,-340.89 1271.08,-342.91"/>
<polygon fill="midnightblue" stroke="midnightblue" points="1270.41,-346.35 1280.96,-345.41 1272.12,-339.56 1270.41,-346.35"/>
</g>
<!-- Node13 -->
<g id="node13" class="node">
<title>Node13</title>
<g id="a_node13"><a xlink:href="classcarta_1_1concurrent__queue.html#ab1a11795f017e1c7dd870fce5da5ede1" target="_top" xlink:title=" ">
<polygon fill="none" stroke="black" points="1268.5,-296 1268.5,-326 1402.5,-326 1402.5,-296 1268.5,-296"/>
<text text-anchor="start" x="1276.5" y="-314" font-family="Helvetica,sans-Serif" font-size="10.00">carta::concurrent_queue</text>
<text text-anchor="middle" x="1335.5" y="-303" font-family="Helvetica,sans-Serif" font-size="10.00">::push</text>
</a>
</g>
</g>
<!-- Node10&#45;&gt;Node13 -->
<g id="edge12" class="edge">
<title>Node10&#45;&gt;Node13</title>
<path fill="none" stroke="midnightblue" d="M1187.62,-302.22C1210.2,-303.57 1235.29,-305.07 1258.26,-306.44"/>
<polygon fill="midnightblue" stroke="midnightblue" points="1258.11,-309.94 1268.3,-307.04 1258.52,-302.95 1258.11,-309.94"/>
</g>
<!-- Node14 -->
<g id="node14" class="node">
<title>Node14</title>
<g id="a_node14"><a xlink:href="classcarta_1_1concurrent__queue.html#a44dc990ae7a71921648cad573058357d" target="_top" xlink:title=" ">
<polygon fill="none" stroke="black" points="1268.5,-247 1268.5,-277 1402.5,-277 1402.5,-247 1268.5,-247"/>
<text text-anchor="start" x="1276.5" y="-265" font-family="Helvetica,sans-Serif" font-size="10.00">carta::concurrent_queue</text>
<text text-anchor="middle" x="1335.5" y="-254" font-family="Helvetica,sans-Serif" font-size="10.00">::try_pop</text>
</a>
</g>
</g>
<!-- Node10&#45;&gt;Node14 -->
<g id="edge13" class="edge">
<title>Node10&#45;&gt;Node14</title>
<path fill="none" stroke="midnightblue" d="M1174.43,-288.49C1200.1,-284.25 1230.72,-279.18 1258.27,-274.62"/>
<polygon fill="midnightblue" stroke="midnightblue" points="1258.97,-278.05 1268.27,-272.96 1257.83,-271.14 1258.97,-278.05"/>
</g>
<!-- Node12 -->
<g id="node12" class="node">
<title>Node12</title>
<g id="a_node12"><a xlink:href="namespacecarta_1_1logger.html#a23c9bf75209165cf69eb8d50f64b81b4" target="_top" xlink:title=" ">
<polygon fill="none" stroke="black" points="1458,-340 1458,-370 1574,-370 1574,-340 1458,-340"/>
<text text-anchor="start" x="1466" y="-358" font-family="Helvetica,sans-Serif" font-size="10.00">carta::logger::log</text>
<text text-anchor="middle" x="1516" y="-347" font-family="Helvetica,sans-Serif" font-size="10.00">_protocol_messages</text>
</a>
</g>
</g>
<!-- Node11&#45;&gt;Node12 -->
<g id="edge11" class="edge">
<title>Node11&#45;&gt;Node12</title>
<path fill="none" stroke="midnightblue" d="M1422.09,-355C1430.74,-355 1439.44,-355 1447.86,-355"/>
<polygon fill="midnightblue" stroke="midnightblue" points="1447.96,-358.5 1457.96,-355 1447.96,-351.5 1447.96,-358.5"/>
</g>
<!-- Node15&#45;&gt;Node9 -->
<g id="edge18" class="edge">
<title>Node15&#45;&gt;Node9</title>
<path fill="none" stroke="midnightblue" d="M705.43,-440.39C724.62,-430.1 753.81,-412.21 773,-390 796.65,-362.63 781.28,-340.24 809,-317 812.51,-314.05 816.36,-311.46 820.41,-309.16"/>
<polygon fill="midnightblue" stroke="midnightblue" points="822.17,-312.2 829.57,-304.62 819.06,-305.93 822.17,-312.2"/>
</g>
<!-- Node16 -->
<g id="node16" class="node">
<title>Node16</title>
<g id="a_node16"><a xlink:href="classMessage.html#a281caf592c92b9f16c878afc8446188b" target="_top" xlink:title=" ">
<polygon fill="none" stroke="black" points="817,-440.5 817,-459.5 975,-459.5 975,-440.5 817,-440.5"/>
<text text-anchor="middle" x="896" y="-447.5" font-family="Helvetica,sans-Serif" font-size="10.00">Message::ContourImageData</text>
</a>
</g>
</g>
<!-- Node15&#45;&gt;Node16 -->
<g id="edge15" class="edge">
<title>Node15&#45;&gt;Node16</title>
<path fill="none" stroke="midnightblue" d="M773.12,-450C784.18,-450 795.51,-450 806.6,-450"/>
<polygon fill="midnightblue" stroke="midnightblue" points="806.69,-453.5 816.69,-450 806.69,-446.5 806.69,-453.5"/>
</g>
<!-- Node17 -->
<g id="node17" class="node">
<title>Node17</title>
<g id="a_node17"><a xlink:href="namespacecarta.html#a075ee64ae108d46c43cdb9a37b54d442" target="_top" xlink:title=" ">
<polygon fill="none" stroke="black" points="810.5,-364.5 810.5,-383.5 981.5,-383.5 981.5,-364.5 810.5,-364.5"/>
<text text-anchor="middle" x="896" y="-371.5" font-family="Helvetica,sans-Serif" font-size="10.00">carta::RoundAndEncodeVertices</text>
</a>
</g>
</g>
<!-- Node15&#45;&gt;Node17 -->
<g id="edge16" class="edge">
<title>Node15&#45;&gt;Node17</title>
<path fill="none" stroke="midnightblue" d="M736.36,-440.43C748.79,-436.92 761.76,-432.22 773,-426 791.99,-415.49 789.74,-403.02 809,-393 813.55,-390.63 818.38,-388.56 823.34,-386.75"/>
<polygon fill="midnightblue" stroke="midnightblue" points="824.6,-390.02 833,-383.57 822.41,-383.37 824.6,-390.02"/>
</g>
<!-- Node15&#45;&gt;Node19 -->
<g id="edge19" class="edge">
<title>Node15&#45;&gt;Node19</title>
<path fill="none" stroke="midnightblue" d="M746.31,-440.46C755.92,-437.02 765.24,-432.35 773,-426 800.39,-403.61 781.04,-376.68 809,-355 811.32,-353.2 813.78,-351.56 816.34,-350.07"/>
<polygon fill="midnightblue" stroke="midnightblue" points="818,-353.16 825.4,-345.57 814.88,-346.89 818,-353.16"/>
</g>
<!-- Node18 -->
<g id="node18" class="node">
<title>Node18</title>
<g id="a_node18"><a xlink:href="namespacecarta.html#ae0d37b236270de77bb23613108e10258" target="_top" xlink:title=" ">
<polygon fill="none" stroke="black" points="1055,-364.5 1055,-383.5 1177,-383.5 1177,-364.5 1055,-364.5"/>
<text text-anchor="middle" x="1116" y="-371.5" font-family="Helvetica,sans-Serif" font-size="10.00">carta::EncodeIntegers</text>
</a>
</g>
</g>
<!-- Node17&#45;&gt;Node18 -->
<g id="edge17" class="edge">
<title>Node17&#45;&gt;Node18</title>
<path fill="none" stroke="midnightblue" d="M981.6,-374C1002.48,-374 1024.63,-374 1044.75,-374"/>
<polygon fill="midnightblue" stroke="midnightblue" points="1044.76,-377.5 1054.76,-374 1044.76,-370.5 1044.76,-377.5"/>
</g>
<!-- Node19&#45;&gt;Node10 -->
<g id="edge21" class="edge">
<title>Node19&#45;&gt;Node10</title>
<path fill="none" stroke="midnightblue" d="M951.73,-326.46C981.66,-321.24 1018.92,-314.75 1050.29,-309.28"/>
<polygon fill="midnightblue" stroke="midnightblue" points="1051,-312.71 1060.25,-307.54 1049.8,-305.81 1051,-312.71"/>
</g>
<!-- Node20 -->
<g id="node20" class="node">
<title>Node20</title>
<g id="a_node20"><a xlink:href="classMessage.html#a99e84f303d54a46b1cf582bf343c7f29" target="_top" xlink:title=" ">
<polygon fill="none" stroke="black" points="1059.5,-326.5 1059.5,-345.5 1172.5,-345.5 1172.5,-326.5 1059.5,-326.5"/>
<text text-anchor="middle" x="1116" y="-333.5" font-family="Helvetica,sans-Serif" font-size="10.00">Message::ErrorData</text>
</a>
</g>
</g>
<!-- Node19&#45;&gt;Node20 -->
<g id="edge20" class="edge">
<title>Node19&#45;&gt;Node20</title>
<path fill="none" stroke="midnightblue" d="M976.01,-336C1000.11,-336 1026.32,-336 1049.42,-336"/>
<polygon fill="midnightblue" stroke="midnightblue" points="1049.46,-339.5 1059.46,-336 1049.46,-332.5 1049.46,-339.5"/>
</g>
<!-- Node21&#45;&gt;Node9 -->
<g id="edge24" class="edge">
<title>Node21&#45;&gt;Node9</title>
<path fill="none" stroke="midnightblue" d="M750.04,-349.87C757.91,-347.27 765.73,-344.32 773,-341 790.49,-333.01 791.56,-325.11 809,-317 814.02,-314.66 819.31,-312.49 824.7,-310.49"/>
<polygon fill="midnightblue" stroke="midnightblue" points="826.19,-313.67 834.46,-307.06 823.86,-307.07 826.19,-313.67"/>
</g>
<!-- Node21&#45;&gt;Node19 -->
<g id="edge25" class="edge">
<title>Node21&#45;&gt;Node19</title>
<path fill="none" stroke="midnightblue" d="M758.22,-354.98C776.92,-352.38 797.15,-349.58 816.18,-346.94"/>
<polygon fill="midnightblue" stroke="midnightblue" points="816.88,-350.37 826.3,-345.53 815.91,-343.44 816.88,-350.37"/>
</g>
<!-- Node23 -->
<g id="node23" class="node">
<title>Node23</title>
<g id="a_node23"><a xlink:href="classcarta_1_1Session.html#a36ede4133a5424416c8e085af6387fee" target="_top" xlink:title=" ">
<polygon fill="none" stroke="black" points="409,-119 409,-149 558,-149 558,-119 409,-119"/>
<text text-anchor="start" x="417" y="-137" font-family="Helvetica,sans-Serif" font-size="10.00">carta::Session::SendRegion</text>
<text text-anchor="middle" x="483.5" y="-126" font-family="Helvetica,sans-Serif" font-size="10.00">HistogramData</text>
</a>
</g>
</g>
<!-- Node22&#45;&gt;Node23 -->
<g id="edge27" class="edge">
<title>Node22&#45;&gt;Node23</title>
<path fill="none" stroke="midnightblue" d="M293.36,-222.48C316.06,-207.21 362.96,-177.05 406,-158 410.31,-156.09 414.81,-154.27 419.39,-152.55"/>
<polygon fill="midnightblue" stroke="midnightblue" points="420.62,-155.82 428.84,-149.14 418.25,-149.24 420.62,-155.82"/>
</g>
<!-- Node37 -->
<g id="node37" class="node">
<title>Node37</title>
<g id="a_node37"><a xlink:href="classcarta_1_1Session.html#a5fd62896cf8474c7b37c27093a24459e" target="_top" xlink:title=" ">
<polygon fill="none" stroke="black" points="409,-217 409,-247 558,-247 558,-217 409,-217"/>
<text text-anchor="start" x="417" y="-235" font-family="Helvetica,sans-Serif" font-size="10.00">carta::Session::SendRegion</text>
<text text-anchor="middle" x="483.5" y="-224" font-family="Helvetica,sans-Serif" font-size="10.00">StatsData</text>
</a>
</g>
</g>
<!-- Node22&#45;&gt;Node37 -->
<g id="edge46" class="edge">
<title>Node22&#45;&gt;Node37</title>
<path fill="none" stroke="midnightblue" d="M368.54,-232C378.5,-232 388.63,-232 398.52,-232"/>
<polygon fill="midnightblue" stroke="midnightblue" points="398.73,-235.5 408.73,-232 398.73,-228.5 398.73,-235.5"/>
</g>
<!-- Node38 -->
<g id="node38" class="node">
<title>Node38</title>
<g id="a_node38"><a xlink:href="classcarta_1_1Session.html#a85b4eb14c9181087b03046119b117789" target="_top" xlink:title=" ">
<polygon fill="none" stroke="black" points="409,-168 409,-198 558,-198 558,-168 409,-168"/>
<text text-anchor="start" x="417" y="-186" font-family="Helvetica,sans-Serif" font-size="10.00">carta::Session::SendSpatial</text>
<text text-anchor="middle" x="483.5" y="-175" font-family="Helvetica,sans-Serif" font-size="10.00">ProfileDataByFileId</text>
</a>
</g>
</g>
<!-- Node22&#45;&gt;Node38 -->
<g id="edge48" class="edge">
<title>Node22&#45;&gt;Node38</title>
<path fill="none" stroke="midnightblue" d="M319.12,-222.44C345.05,-216.18 379.68,-207.82 410.39,-200.41"/>
<polygon fill="midnightblue" stroke="midnightblue" points="411.3,-203.79 420.2,-198.04 409.66,-196.98 411.3,-203.79"/>
</g>
<!-- Node40 -->
<g id="node40" class="node">
<title>Node40</title>
<g id="a_node40"><a xlink:href="classcarta_1_1Session.html#a64e272e7aec6edd051745e773d47c0f2" target="_top" xlink:title=" ">
<polygon fill="none" stroke="black" points="406,-266 406,-296 561,-296 561,-266 406,-266"/>
<text text-anchor="start" x="414" y="-284" font-family="Helvetica,sans-Serif" font-size="10.00">carta::Session::SendSpectral</text>
<text text-anchor="middle" x="483.5" y="-273" font-family="Helvetica,sans-Serif" font-size="10.00">ProfileData</text>
</a>
</g>
</g>
<!-- Node22&#45;&gt;Node40 -->
<g id="edge52" class="edge">
<title>Node22&#45;&gt;Node40</title>
<path fill="none" stroke="midnightblue" d="M319.12,-241.56C345.05,-247.82 379.68,-256.18 410.39,-263.59"/>
<polygon fill="midnightblue" stroke="midnightblue" points="409.66,-267.02 420.2,-265.96 411.3,-260.21 409.66,-267.02"/>
</g>
<!-- Node23&#45;&gt;Node9 -->
<g id="edge44" class="edge">
<title>Node23&#45;&gt;Node9</title>
<path fill="none" stroke="midnightblue" d="M536.34,-149.03C544.66,-151.79 553.13,-154.82 561,-158 577.59,-164.7 580.65,-168.75 597,-176 608.96,-181.31 765.01,-241.74 846.37,-273.21"/>
<polygon fill="midnightblue" stroke="midnightblue" points="845.32,-276.55 855.91,-276.89 847.85,-270.02 845.32,-276.55"/>
</g>
<!-- Node23&#45;&gt;Node19 -->
<g id="edge45" class="edge">
<title>Node23&#45;&gt;Node19</title>
<path fill="none" stroke="midnightblue" d="M547.17,-149.07C552.11,-151.6 556.81,-154.55 561,-158 586.82,-179.21 571.88,-201.97 597,-224 660.04,-279.3 698.92,-252.69 773,-292 790.21,-301.13 791.15,-309.2 809,-317 814.79,-319.53 820.96,-321.74 827.22,-323.67"/>
<polygon fill="midnightblue" stroke="midnightblue" points="826.54,-327.11 837.11,-326.47 828.44,-320.38 826.54,-327.11"/>
</g>
<!-- Node24 -->
<g id="node24" class="node">
<title>Node24</title>
<g id="a_node24"><a xlink:href="classcarta_1_1Session.html#aa9e908b20d1e35ff162cc1f361dbfe56" target="_top" xlink:title=" ">
<polygon fill="none" stroke="black" points="616.5,-137 616.5,-167 753.5,-167 753.5,-137 616.5,-137"/>
<text text-anchor="start" x="624.5" y="-155" font-family="Helvetica,sans-Serif" font-size="10.00">carta::Session::Calculate</text>
<text text-anchor="middle" x="685" y="-144" font-family="Helvetica,sans-Serif" font-size="10.00">CubeHistogram</text>
</a>
</g>
</g>
<!-- Node23&#45;&gt;Node24 -->
<g id="edge28" class="edge">
<title>Node23&#45;&gt;Node24</title>
<path fill="none" stroke="midnightblue" d="M558.22,-140.65C573.79,-142.06 590.27,-143.54 605.99,-144.96"/>
<polygon fill="midnightblue" stroke="midnightblue" points="605.92,-148.47 616.2,-145.88 606.55,-141.5 605.92,-148.47"/>
</g>
<!-- Node24&#45;&gt;Node5 -->
<g id="edge36" class="edge">
<title>Node24&#45;&gt;Node5</title>
<path fill="none" stroke="midnightblue" d="M697.06,-167.33C714.81,-192.44 750.01,-244.31 773,-292 793.69,-334.93 773.26,-361.47 809,-393 814.08,-397.49 819.99,-400.99 826.27,-403.71"/>
<polygon fill="midnightblue" stroke="midnightblue" points="825.11,-407.01 835.71,-407.17 827.52,-400.44 825.11,-407.01"/>
</g>
<!-- Node24&#45;&gt;Node9 -->
<g id="edge42" class="edge">
<title>Node24&#45;&gt;Node9</title>
<path fill="none" stroke="midnightblue" d="M749.09,-167.15C757.73,-171.04 766.01,-175.91 773,-182 799.67,-205.24 783.44,-228.53 809,-253 817.24,-260.89 827.36,-267.38 837.73,-272.63"/>
<polygon fill="midnightblue" stroke="midnightblue" points="836.32,-275.84 846.86,-276.94 839.31,-269.51 836.32,-275.84"/>
</g>
<!-- Node24&#45;&gt;Node19 -->
<g id="edge43" class="edge">
<title>Node24&#45;&gt;Node19</title>
<path fill="none" stroke="midnightblue" d="M699.68,-167.26C717.44,-187.39 749.01,-224.23 773,-258 790.79,-283.04 784,-299.15 809,-317 811.68,-318.91 814.51,-320.63 817.45,-322.19"/>
<polygon fill="midnightblue" stroke="midnightblue" points="816.03,-325.39 826.58,-326.36 818.94,-319.02 816.03,-325.39"/>
</g>
<!-- Node25 -->
<g id="node25" class="node">
<title>Node25</title>
<g id="a_node25"><a xlink:href="classcarta_1_1Histogram.html#a56e2b8bfafd357f89b9197487c20446e" target="_top" xlink:title=" ">
<polygon fill="none" stroke="black" points="834.5,-224.5 834.5,-243.5 957.5,-243.5 957.5,-224.5 834.5,-224.5"/>
<text text-anchor="middle" x="896" y="-231.5" font-family="Helvetica,sans-Serif" font-size="10.00">carta::Histogram::Add</text>
</a>
</g>
</g>
<!-- Node24&#45;&gt;Node25 -->
<g id="edge29" class="edge">
<title>Node24&#45;&gt;Node25</title>
<path fill="none" stroke="midnightblue" d="M740.91,-167.1C751.91,-171.17 763.12,-176.12 773,-182 791.65,-193.1 789.74,-204.98 809,-215 813.92,-217.56 819.17,-219.77 824.55,-221.69"/>
<polygon fill="midnightblue" stroke="midnightblue" points="823.77,-225.11 834.36,-224.83 825.91,-218.45 823.77,-225.11"/>
</g>
<!-- Node32 -->
<g id="node32" class="node">
<title>Node32</title>
<g id="a_node32"><a xlink:href="Message_8cc.html#aadf644bd365f0198b09a7196f9990511" target="_top" xlink:title=" ">
<polygon fill="none" stroke="black" points="855,-186.5 855,-205.5 937,-205.5 937,-186.5 855,-186.5"/>
<text text-anchor="middle" x="896" y="-193.5" font-family="Helvetica,sans-Serif" font-size="10.00">FillHistogram</text>
</a>
</g>
</g>
<!-- Node24&#45;&gt;Node32 -->
<g id="edge37" class="edge">
<title>Node24&#45;&gt;Node32</title>
<path fill="none" stroke="midnightblue" d="M753.57,-166.22C783.18,-172.46 817.33,-179.65 844.65,-185.4"/>
<polygon fill="midnightblue" stroke="midnightblue" points="844.26,-188.89 854.77,-187.53 845.7,-182.05 844.26,-188.89"/>
</g>
<!-- Node33 -->
<g id="node33" class="node">
<title>Node33</title>
<g id="a_node33"><a xlink:href="structcarta_1_1HistogramConfig.html#aee3b990962e991922bcf9f3779401bcd" target="_top" xlink:title=" ">
<polygon fill="none" stroke="black" points="831.5,-137 831.5,-167 960.5,-167 960.5,-137 831.5,-137"/>
<text text-anchor="start" x="839.5" y="-155" font-family="Helvetica,sans-Serif" font-size="10.00">carta::HistogramConfig</text>
<text text-anchor="middle" x="896" y="-144" font-family="Helvetica,sans-Serif" font-size="10.00">::GetBounds</text>
</a>
</g>
</g>
<!-- Node24&#45;&gt;Node33 -->
<g id="edge38" class="edge">
<title>Node24&#45;&gt;Node33</title>
<path fill="none" stroke="midnightblue" d="M753.57,-152C775.09,-152 799,-152 820.95,-152"/>
<polygon fill="midnightblue" stroke="midnightblue" points="821.22,-155.5 831.22,-152 821.22,-148.5 821.22,-155.5"/>
</g>
<!-- Node34 -->
<g id="node34" class="node">
<title>Node34</title>
<g id="a_node34"><a xlink:href="classcarta_1_1SessionContext.html#a28e9e5c979d1c244253a92f69b156c39" target="_top" xlink:title=" ">
<polygon fill="none" stroke="black" points="834.5,-76.5 834.5,-117.5 957.5,-117.5 957.5,-76.5 834.5,-76.5"/>
<text text-anchor="start" x="842.5" y="-105.5" font-family="Helvetica,sans-Serif" font-size="10.00">carta::SessionContext</text>
<text text-anchor="start" x="842.5" y="-94.5" font-family="Helvetica,sans-Serif" font-size="10.00">::is_group_execution</text>
<text text-anchor="middle" x="896" y="-83.5" font-family="Helvetica,sans-Serif" font-size="10.00">_cancelled</text>
</a>
</g>
</g>
<!-- Node24&#45;&gt;Node34 -->
<g id="edge39" class="edge">
<title>Node24&#45;&gt;Node34</title>
<path fill="none" stroke="midnightblue" d="M743.11,-136.97C768.19,-130.37 797.89,-122.56 824.34,-115.59"/>
<polygon fill="midnightblue" stroke="midnightblue" points="825.52,-118.9 834.3,-112.97 823.74,-112.13 825.52,-118.9"/>
</g>
<!-- Node35 -->
<g id="node35" class="node">
<title>Node35</title>
<g id="a_node35"><a xlink:href="structcarta_1_1BasicStats.html#a536adffa874e62bc21b8764a77ce09fd" target="_top" xlink:title=" ">
<polygon fill="none" stroke="black" points="835,-38.5 835,-57.5 957,-57.5 957,-38.5 835,-38.5"/>
<text text-anchor="middle" x="896" y="-45.5" font-family="Helvetica,sans-Serif" font-size="10.00">carta::BasicStats::join</text>
</a>
</g>
</g>
<!-- Node24&#45;&gt;Node35 -->
<g id="edge40" class="edge">
<title>Node24&#45;&gt;Node35</title>
<path fill="none" stroke="midnightblue" d="M703.03,-136.98C725.65,-117.83 767.6,-85.05 809,-67 814.8,-64.47 820.96,-62.27 827.23,-60.35"/>
<polygon fill="midnightblue" stroke="midnightblue" points="828.45,-63.64 837.12,-57.55 826.54,-56.9 828.45,-63.64"/>
</g>
<!-- Node36 -->
<g id="node36" class="node">
<title>Node36</title>
<g id="a_node36"><a xlink:href="classMessage.html#a730c49c8e93e27faf31796d44748088b" target="_top" xlink:title=" ">
<polygon fill="none" stroke="black" points="809,-0.5 809,-19.5 983,-19.5 983,-0.5 809,-0.5"/>
<text text-anchor="middle" x="896" y="-7.5" font-family="Helvetica,sans-Serif" font-size="10.00">Message::RegionHistogramData</text>
</a>
</g>
</g>
<!-- Node24&#45;&gt;Node36 -->
<g id="edge41" class="edge">
<title>Node24&#45;&gt;Node36</title>
<path fill="none" stroke="midnightblue" d="M696.58,-136.77C715.76,-110.4 758.95,-56.44 809,-29 813.22,-26.69 817.7,-24.66 822.32,-22.87"/>
<polygon fill="midnightblue" stroke="midnightblue" points="823.63,-26.12 831.94,-19.55 821.34,-19.51 823.63,-26.12"/>
</g>
<!-- Node26 -->
<g id="node26" class="node">
<title>Node26</title>
<g id="a_node26"><a xlink:href="classcarta_1_1Histogram.html#a81787c73b6b71a8495c8c3ffcf4d7c46" target="_top" xlink:title=" ">
<polygon fill="none" stroke="black" points="1034,-165 1034,-195 1198,-195 1198,-165 1034,-165"/>
<text text-anchor="start" x="1042" y="-183" font-family="Helvetica,sans-Serif" font-size="10.00">carta::Histogram::Consistency</text>
<text text-anchor="middle" x="1116" y="-172" font-family="Helvetica,sans-Serif" font-size="10.00">Check</text>
</a>
</g>
</g>
<!-- Node25&#45;&gt;Node26 -->
<g id="edge30" class="edge">
<title>Node25&#45;&gt;Node26</title>
<path fill="none" stroke="midnightblue" d="M941.72,-224.49C955.03,-221.56 969.63,-218.25 983,-215 1004.98,-209.66 1028.9,-203.44 1050.28,-197.74"/>
<polygon fill="midnightblue" stroke="midnightblue" points="1051.47,-201.04 1060.22,-195.07 1049.65,-194.28 1051.47,-201.04"/>
</g>
<!-- Node31 -->
<g id="node31" class="node">
<title>Node31</title>
<g id="a_node31"><a xlink:href="classcarta_1_1Histogram.html#a1efcb688ab3b0d60a6216d14d87fef5e" target="_top" xlink:title=" ">
<polygon fill="none" stroke="black" points="1019,-224.5 1019,-243.5 1213,-243.5 1213,-224.5 1019,-224.5"/>
<text text-anchor="middle" x="1116" y="-231.5" font-family="Helvetica,sans-Serif" font-size="10.00">carta::Histogram::GetHistogramBins</text>
</a>
</g>
</g>
<!-- Node25&#45;&gt;Node31 -->
<g id="edge35" class="edge">
<title>Node25&#45;&gt;Node31</title>
<path fill="none" stroke="midnightblue" d="M957.73,-234C973.52,-234 991.02,-234 1008.43,-234"/>
<polygon fill="midnightblue" stroke="midnightblue" points="1008.65,-237.5 1018.65,-234 1008.65,-230.5 1008.65,-237.5"/>
</g>
<!-- Node27 -->
<g id="node27" class="node">
<title>Node27</title>
<g id="a_node27"><a xlink:href="classcarta_1_1Histogram.html#a1002f37e381eb1de20add01e234a8083" target="_top" xlink:title=" ">
<polygon fill="none" stroke="black" points="1256.5,-170.5 1256.5,-189.5 1414.5,-189.5 1414.5,-170.5 1256.5,-170.5"/>
<text text-anchor="middle" x="1335.5" y="-177.5" font-family="Helvetica,sans-Serif" font-size="10.00">carta::Histogram::GetBounds</text>
</a>
</g>
</g>
<!-- Node26&#45;&gt;Node27 -->
<g id="edge31" class="edge">
<title>Node26&#45;&gt;Node27</title>
<path fill="none" stroke="midnightblue" d="M1198.3,-180C1213.84,-180 1230.18,-180 1245.93,-180"/>
<polygon fill="midnightblue" stroke="midnightblue" points="1246.19,-183.5 1256.19,-180 1246.19,-176.5 1246.19,-183.5"/>
</g>
<!-- Node28 -->
<g id="node28" class="node">
<title>Node28</title>
<g id="a_node28"><a xlink:href="classcarta_1_1Histogram.html#ae1f537df539939fde102e25b0b42a9aa" target="_top" xlink:title=" ">
<polygon fill="none" stroke="black" points="1256.5,-132.5 1256.5,-151.5 1414.5,-151.5 1414.5,-132.5 1256.5,-132.5"/>
<text text-anchor="middle" x="1335.5" y="-139.5" font-family="Helvetica,sans-Serif" font-size="10.00">carta::Histogram::GetMaxVal</text>
</a>
</g>
</g>
<!-- Node26&#45;&gt;Node28 -->
<g id="edge32" class="edge">
<title>Node26&#45;&gt;Node28</title>
<path fill="none" stroke="midnightblue" d="M1198.3,-165.8C1221.95,-161.66 1247.45,-157.21 1269.92,-153.28"/>
<polygon fill="midnightblue" stroke="midnightblue" points="1270.76,-156.69 1280.01,-151.52 1269.56,-149.79 1270.76,-156.69"/>
</g>
<!-- Node29 -->
<g id="node29" class="node">
<title>Node29</title>
<g id="a_node29"><a xlink:href="classcarta_1_1Histogram.html#a751eb7e111b661cf77a44995db151a3b" target="_top" xlink:title=" ">
<polygon fill="none" stroke="black" points="1258,-94.5 1258,-113.5 1413,-113.5 1413,-94.5 1258,-94.5"/>
<text text-anchor="middle" x="1335.5" y="-101.5" font-family="Helvetica,sans-Serif" font-size="10.00">carta::Histogram::GetMinVal</text>
</a>
</g>
</g>
<!-- Node26&#45;&gt;Node29 -->
<g id="edge33" class="edge">
<title>Node26&#45;&gt;Node29</title>
<path fill="none" stroke="midnightblue" d="M1147.3,-164.96C1173.66,-152.36 1213.14,-134.61 1249,-123 1257.01,-120.41 1265.55,-118.05 1274.02,-115.94"/>
<polygon fill="midnightblue" stroke="midnightblue" points="1274.97,-119.31 1283.89,-113.59 1273.35,-112.5 1274.97,-119.31"/>
</g>
<!-- Node30 -->
<g id="node30" class="node">
<title>Node30</title>
<g id="a_node30"><a xlink:href="classcarta_1_1Histogram.html#a70adaf5681547ca8d7aa22550bfb3206" target="_top" xlink:title=" ">
<polygon fill="none" stroke="black" points="1261,-208.5 1261,-227.5 1410,-227.5 1410,-208.5 1261,-208.5"/>
<text text-anchor="middle" x="1335.5" y="-215.5" font-family="Helvetica,sans-Serif" font-size="10.00">carta::Histogram::GetNbins</text>
</a>
</g>
</g>
<!-- Node26&#45;&gt;Node30 -->
<g id="edge34" class="edge">
<title>Node26&#45;&gt;Node30</title>
<path fill="none" stroke="midnightblue" d="M1198.3,-194.2C1221.95,-198.34 1247.45,-202.79 1269.92,-206.72"/>
<polygon fill="midnightblue" stroke="midnightblue" points="1269.56,-210.21 1280.01,-208.48 1270.76,-203.31 1269.56,-210.21"/>
</g>
<!-- Node37&#45;&gt;Node9 -->
<g id="edge47" class="edge">
<title>Node37&#45;&gt;Node9</title>
<path fill="none" stroke="midnightblue" d="M558.36,-242.8C632.22,-253.59 745.23,-270.11 819.61,-280.98"/>
<polygon fill="midnightblue" stroke="midnightblue" points="819.45,-284.49 829.85,-282.48 820.46,-277.57 819.45,-284.49"/>
</g>
<!-- Node39 -->
<g id="node39" class="node">
<title>Node39</title>
<g id="a_node39"><a xlink:href="classcarta_1_1Session.html#a120e85ac57a07414f829a228618ab5fe" target="_top" xlink:title=" ">
<polygon fill="none" stroke="black" points="610.5,-301 610.5,-331 759.5,-331 759.5,-301 610.5,-301"/>
<text text-anchor="start" x="618.5" y="-319" font-family="Helvetica,sans-Serif" font-size="10.00">carta::Session::SendSpatial</text>
<text text-anchor="middle" x="685" y="-308" font-family="Helvetica,sans-Serif" font-size="10.00">ProfileData</text>
</a>
</g>
</g>
<!-- Node38&#45;&gt;Node39 -->
<g id="edge49" class="edge">
<title>Node38&#45;&gt;Node39</title>
<path fill="none" stroke="midnightblue" d="M546.31,-198.02C551.61,-200.81 556.62,-204.1 561,-208 589.52,-233.38 568.68,-260.39 597,-286 601.33,-289.91 606.19,-293.32 611.35,-296.29"/>
<polygon fill="midnightblue" stroke="midnightblue" points="609.77,-299.41 620.26,-300.87 612.97,-293.19 609.77,-299.41"/>
</g>
<!-- Node39&#45;&gt;Node9 -->
<g id="edge50" class="edge">
<title>Node39&#45;&gt;Node9</title>
<path fill="none" stroke="midnightblue" d="M759.69,-307.54C779.2,-305.3 800.29,-302.88 819.88,-300.63"/>
<polygon fill="midnightblue" stroke="midnightblue" points="820.44,-304.09 829.97,-299.47 819.64,-297.13 820.44,-304.09"/>
</g>
<!-- Node39&#45;&gt;Node19 -->
<g id="edge51" class="edge">
<title>Node39&#45;&gt;Node19</title>
<path fill="none" stroke="midnightblue" d="M759.69,-323.05C774.63,-324.48 790.49,-326 805.9,-327.47"/>
<polygon fill="midnightblue" stroke="midnightblue" points="805.66,-330.97 815.95,-328.44 806.33,-324 805.66,-330.97"/>
</g>
<!-- Node41&#45;&gt;Node23 -->
<g id="edge54" class="edge">
<title>Node41&#45;&gt;Node23</title>
<path fill="none" stroke="midnightblue" d="M334,-271.39C347.04,-266.96 360.05,-260.47 370,-251 402.1,-220.44 373.65,-188.3 406,-158 407.14,-156.93 408.33,-155.91 409.56,-154.93"/>
<polygon fill="midnightblue" stroke="midnightblue" points="411.87,-157.6 418.22,-149.12 407.96,-151.79 411.87,-157.6"/>
</g>
<!-- Node41&#45;&gt;Node37 -->
<g id="edge55" class="edge">
<title>Node41&#45;&gt;Node37</title>
<path fill="none" stroke="midnightblue" d="M319.12,-271.44C345.05,-265.18 379.68,-256.82 410.39,-249.41"/>
<polygon fill="midnightblue" stroke="midnightblue" points="411.3,-252.79 420.2,-247.04 409.66,-245.98 411.3,-252.79"/>
</g>
<!-- Node41&#45;&gt;Node40 -->
<g id="edge58" class="edge">
<title>Node41&#45;&gt;Node40</title>
<path fill="none" stroke="midnightblue" d="M370.02,-281C378.51,-281 387.11,-281 395.57,-281"/>
<polygon fill="midnightblue" stroke="midnightblue" points="395.8,-284.5 405.8,-281 395.8,-277.5 395.8,-284.5"/>
</g>
<!-- Node42 -->
<g id="node42" class="node">
<title>Node42</title>
<g id="a_node42"><a xlink:href="classcarta_1_1Session.html#a44647c44e04c9b96638cc87980efbf77" target="_top" xlink:title=" ">
<polygon fill="none" stroke="black" points="409,-315 409,-345 558,-345 558,-315 409,-315"/>
<text text-anchor="start" x="417" y="-333" font-family="Helvetica,sans-Serif" font-size="10.00">carta::Session::SendSpatial</text>
<text text-anchor="middle" x="483.5" y="-322" font-family="Helvetica,sans-Serif" font-size="10.00">ProfileDataByRegionId</text>
</a>
</g>
</g>
<!-- Node41&#45;&gt;Node42 -->
<g id="edge56" class="edge">
<title>Node41&#45;&gt;Node42</title>
<path fill="none" stroke="midnightblue" d="M319.12,-290.56C345.05,-296.82 379.68,-305.18 410.39,-312.59"/>
<polygon fill="midnightblue" stroke="midnightblue" points="409.66,-316.02 420.2,-314.96 411.3,-309.21 409.66,-316.02"/>
</g>
<!-- Node42&#45;&gt;Node39 -->
<g id="edge57" class="edge">
<title>Node42&#45;&gt;Node39</title>
<path fill="none" stroke="midnightblue" d="M558.22,-324.83C571.89,-323.87 586.25,-322.86 600.19,-321.88"/>
<polygon fill="midnightblue" stroke="midnightblue" points="600.52,-325.37 610.25,-321.18 600.03,-318.38 600.52,-325.37"/>
</g>
</g>
</svg>
        <g id="navigator" transform="translate(0 0)" fill="#404254">
                <rect fill="#f2f5e9" fill-opacity="0.5" stroke="#606060" stroke-width=".5" x="0" y="0" width="60" height="60"/>
                <use id="zoomplus" xlink:href="#zoomPlus" x="17" y="9" onmousedown="handleZoom(evt,'in')"/>
                <use id="zoomminus" xlink:href="#zoomMin" x="42" y="9" onmousedown="handleZoom(evt,'out')"/>
                <use id="reset" xlink:href="#resetDef" x="30" y="36" onmousedown="handleReset()"/>
                <g id="arrowUp" xlink:href="#dirArrow" transform="translate(30 24)" onmousedown="handlePan(0,-1)">
                  <use xlink:href="#rim" fill="#404040">
                        <set attributeName="fill" to="#808080" begin="arrowUp.mouseover" end="arrowUp.mouseout"/>
                  </use>
                  <path fill="none" stroke="white" stroke-width="1.5" d="M0,-3.0v7 M-2.5,-0.5L0,-3.0L2.5,-0.5"/>
                </g>
                <g id="arrowRight" xlink:href="#dirArrow" transform="rotate(90) translate(36 -43)" onmousedown="handlePan(1,0)">
                  <use xlink:href="#rim" fill="#404040">
                        <set attributeName="fill" to="#808080" begin="arrowRight.mouseover" end="arrowRight.mouseout"/>
                  </use>
                  <path fill="none" stroke="white" stroke-width="1.5" d="M0,-3.0v7 M-2.5,-0.5L0,-3.0L2.5,-0.5"/>
                </g>
                <g id="arrowDown" xlink:href="#dirArrow" transform="rotate(180) translate(-30 -48)" onmousedown="handlePan(0,1)">
                  <use xlink:href="#rim" fill="#404040">
                        <set attributeName="fill" to="#808080" begin="arrowDown.mouseover" end="arrowDown.mouseout"/>
                  </use>
                  <path fill="none" stroke="white" stroke-width="1.5" d="M0,-3.0v7 M-2.5,-0.5L0,-3.0L2.5,-0.5"/>
                </g>
                <g id="arrowLeft" xlink:href="#dirArrow" transform="rotate(270) translate(-36 17)" onmousedown="handlePan(-1,0)">
                  <use xlink:href="#rim" fill="#404040">
                        <set attributeName="fill" to="#808080" begin="arrowLeft.mouseover" end="arrowLeft.mouseout"/>
                  </use>
                  <path fill="none" stroke="white" stroke-width="1.5" d="M0,-3.0v7 M-2.5,-0.5L0,-3.0L2.5,-0.5"/>
                </g>
        </g>
        <svg viewBox="0 0 15 15" width="100%" height="30px" preserveAspectRatio="xMaxYMin meet">
         <g id="arrow_out" transform="scale(0.3 0.3)">
          <a xlink:href="classcarta_1_1Session_af5f49139f41c92e209aee736bb1cd260_cgraph_org.svg" target="_base">
           <rect id="button" ry="5" rx="5" y="6" x="6" height="38" width="38"
                fill="#f2f5e9" fill-opacity="0.5" stroke="#606060" stroke-width="1.0"/>
           <path id="arrow"
             d="M 11.500037,31.436501 C 11.940474,20.09759 22.043105,11.32322 32.158766,21.979434 L 37.068811,17.246167 C 37.068811,17.246167 37.088388,32 37.088388,32 L 22.160133,31.978069 C 22.160133,31.978069 26.997745,27.140456 26.997745,27.140456 C 18.528582,18.264221 13.291696,25.230495 11.500037,31.436501 z"
             style="fill:#404040;"/>
          </a>
         </g>
        </svg>
</svg>
