<?xml version="1.0" encoding="UTF-8" standalone="no"?>
<!DOCTYPE svg PUBLIC "-//W3C//DTD SVG 1.1//EN"
 "http://www.w3.org/Graphics/SVG/1.1/DTD/svg11.dtd">
<!-- Generated by graphviz version 2.43.0 (0)
 -->
<!-- Title: carta::Region::ConvertWorldToPixel Pages: 1 -->
<!--zoomable 272 -->
<svg id="main" version="1.1" xmlns="http://www.w3.org/2000/svg" xmlns:xlink="http://www.w3.org/1999/xlink" xml:space="preserve" onload="init(evt)">
<style type="text/css"><![CDATA[
.edge:hover path { stroke: red; }
.edge:hover polygon { stroke: red; fill: red; }
]]></style>
<script type="text/javascript"><![CDATA[
var edges = document.getElementsByTagName('g');
if (edges && edges.length) {
  for (var i=0;i<edges.length;i++) {
    if (edges[i].id.substr(0,4)=='edge') {
      edges[i].setAttribute('class','edge');
    }
  }
}
]]></script>
        <defs>
                <circle id="rim" cx="0" cy="0" r="7"/>
                <circle id="rim2" cx="0" cy="0" r="3.5"/>
                <g id="zoomPlus">
                        <use xlink:href="#rim" fill="#404040">
                                <set attributeName="fill" to="#808080" begin="zoomplus.mouseover" end="zoomplus.mouseout"/>
                        </use>
                        <path d="M-4,0h8M0,-4v8" fill="none" stroke="white" stroke-width="1.5" pointer-events="none"/>
                </g>
                <g id="zoomMin">
                        <use xlink:href="#rim" fill="#404040">
                                <set attributeName="fill" to="#808080" begin="zoomminus.mouseover" end="zoomminus.mouseout"/>
                        </use>
                        <path d="M-4,0h8" fill="none" stroke="white" stroke-width="1.5" pointer-events="none"/>
                </g>
                <g id="dirArrow">
                        <path fill="none" stroke="white" stroke-width="1.5" d="M0,-3.0v7 M-2.5,-0.5L0,-3.0L2.5,-0.5"/>
                </g>
               <g id="resetDef">
                       <use xlink:href="#rim2" fill="#404040">
                               <set attributeName="fill" to="#808080" begin="reset.mouseover" end="reset.mouseout"/>
                       </use>
               </g>
        </defs>

<script type="text/javascript">
var viewWidth = 770;
var viewHeight = 272;
var sectionId = 'dynsection-11';
</script>
<script xlink:href="svgpan.js"/>
<svg id="graph" class="graph">
<g id="viewport">
<title>carta::Region::ConvertWorldToPixel</title>
<!-- Node1 -->
<g id="node1" class="node">
<title>Node1</title>
<g id="a_node1"><a xlink:title=" ">
<polygon fill="#bfbfbf" stroke="black" points="609,-93.5 609,-123.5 762,-123.5 762,-93.5 609,-93.5"/>
<text text-anchor="start" x="617" y="-111.5" font-family="Helvetica,sans-Serif" font-size="10.00">carta::Region::ConvertWorld</text>
<text text-anchor="middle" x="685.5" y="-100.5" font-family="Helvetica,sans-Serif" font-size="10.00">ToPixel</text>
</a>
</g>
</g>
<!-- Node2 -->
<g id="node2" class="node">
<title>Node2</title>
<g id="a_node2"><a xlink:href="classcarta_1_1Region.html#ad108d4cb9b98967b6fc1011b1a8f6705" target="_top" xlink:title=" ">
<polygon fill="none" stroke="black" points="414,-186.5 414,-216.5 569,-216.5 569,-186.5 414,-186.5"/>
<text text-anchor="start" x="422" y="-204.5" font-family="Helvetica,sans-Serif" font-size="10.00">carta::Region::ConvertPoints</text>
<text text-anchor="middle" x="491.5" y="-193.5" font-family="Helvetica,sans-Serif" font-size="10.00">ToImagePixels</text>
</a>
</g>
</g>
<!-- Node1&#45;&gt;Node2 -->
<g id="edge1" class="edge">
<title>Node1&#45;&gt;Node2</title>
<path fill="none" stroke="midnightblue" d="M655.17,-129.64C633.35,-144.62 602.39,-164.31 573,-177.5 565.68,-180.78 557.79,-183.77 549.92,-186.42"/>
<polygon fill="midnightblue" stroke="midnightblue" points="657.43,-132.34 663.65,-123.75 653.44,-126.59 657.43,-132.34"/>
</g>
<!-- Node8 -->
<g id="node8" class="node">
<title>Node8</title>
<g id="a_node8"><a xlink:href="classcarta_1_1Region.html#ac3cc3a5318e66e752da26ce9cf1cfedd" target="_top" xlink:title=" ">
<polygon fill="none" stroke="black" points="423,-137.5 423,-167.5 560,-167.5 560,-137.5 423,-137.5"/>
<text text-anchor="start" x="431" y="-155.5" font-family="Helvetica,sans-Serif" font-size="10.00">carta::Region::GetEllipse</text>
<text text-anchor="middle" x="491.5" y="-144.5" font-family="Helvetica,sans-Serif" font-size="10.00">Record</text>
</a>
</g>
</g>
<!-- Node1&#45;&gt;Node8 -->
<g id="edge8" class="edge">
<title>Node1&#45;&gt;Node8</title>
<path fill="none" stroke="midnightblue" d="M609.15,-125.77C592.27,-129.64 574.51,-133.71 558.07,-137.47"/>
<polygon fill="midnightblue" stroke="midnightblue" points="610,-129.16 618.96,-123.52 608.43,-122.34 610,-129.16"/>
</g>
<!-- Node10 -->
<g id="node10" class="node">
<title>Node10</title>
<g id="a_node10"><a xlink:href="classcarta_1_1Region.html#afe2395f765e76c9cd81c775f9e151056" target="_top" xlink:title=" ">
<polygon fill="none" stroke="black" points="410,-99 410,-118 573,-118 573,-99 410,-99"/>
<text text-anchor="middle" x="491.5" y="-106" font-family="Helvetica,sans-Serif" font-size="10.00">carta::Region::GetPointRecord</text>
</a>
</g>
</g>
<!-- Node1&#45;&gt;Node10 -->
<g id="edge11" class="edge">
<title>Node1&#45;&gt;Node10</title>
<path fill="none" stroke="midnightblue" d="M598.89,-108.5C590.31,-108.5 581.62,-108.5 573.1,-108.5"/>
<polygon fill="midnightblue" stroke="midnightblue" points="598.89,-112 608.89,-108.5 598.89,-105 598.89,-112"/>
</g>
<!-- Node11 -->
<g id="node11" class="node">
<title>Node11</title>
<g id="a_node11"><a xlink:href="classcarta_1_1Region.html#a7c5f833091a74779c77aadd9817a8a77" target="_top" xlink:title=" ">
<polygon fill="none" stroke="black" points="420,-49.5 420,-79.5 563,-79.5 563,-49.5 420,-49.5"/>
<text text-anchor="start" x="428" y="-67.5" font-family="Helvetica,sans-Serif" font-size="10.00">carta::Region::GetPolygon</text>
<text text-anchor="middle" x="491.5" y="-56.5" font-family="Helvetica,sans-Serif" font-size="10.00">Record</text>
</a>
</g>
</g>
<!-- Node1&#45;&gt;Node11 -->
<g id="edge13" class="edge">
<title>Node1&#45;&gt;Node11</title>
<path fill="none" stroke="midnightblue" d="M609.15,-91.23C592.27,-87.36 574.51,-83.29 558.07,-79.53"/>
<polygon fill="midnightblue" stroke="midnightblue" points="608.43,-94.66 618.96,-93.48 610,-87.84 608.43,-94.66"/>
</g>
<!-- Node12 -->
<g id="node12" class="node">
<title>Node12</title>
<g id="a_node12"><a xlink:href="classcarta_1_1Region.html#a790a5a5f3aee8797e2f2024b02dd4dce" target="_top" xlink:title=" ">
<polygon fill="none" stroke="black" points="422,-0.5 422,-30.5 561,-30.5 561,-0.5 422,-0.5"/>
<text text-anchor="start" x="430" y="-18.5" font-family="Helvetica,sans-Serif" font-size="10.00">carta::Region::GetRotbox</text>
<text text-anchor="middle" x="491.5" y="-7.5" font-family="Helvetica,sans-Serif" font-size="10.00">Record</text>
</a>
</g>
</g>
<!-- Node1&#45;&gt;Node12 -->
<g id="edge15" class="edge">
<title>Node1&#45;&gt;Node12</title>
<path fill="none" stroke="midnightblue" d="M655.17,-87.36C633.35,-72.38 602.39,-52.69 573,-39.5 565.68,-36.22 557.79,-33.23 549.92,-30.58"/>
<polygon fill="midnightblue" stroke="midnightblue" points="653.44,-90.41 663.65,-93.25 657.43,-84.66 653.44,-90.41"/>
</g>
<!-- Node3 -->
<g id="node3" class="node">
<title>Node3</title>
<g id="a_node3"><a xlink:href="classcarta_1_1Region.html#ac4d35d2ebd7a1bc9365a5c75b6758d50" target="_top" xlink:title=" ">
<polygon fill="none" stroke="black" points="219,-233.5 219,-263.5 360,-263.5 360,-233.5 219,-233.5"/>
<text text-anchor="start" x="227" y="-251.5" font-family="Helvetica,sans-Serif" font-size="10.00">carta::Region::GetApplied</text>
<text text-anchor="middle" x="289.5" y="-240.5" font-family="Helvetica,sans-Serif" font-size="10.00">PolygonRegion</text>
</a>
</g>
</g>
<!-- Node2&#45;&gt;Node3 -->
<g id="edge2" class="edge">
<title>Node2&#45;&gt;Node3</title>
<path fill="none" stroke="midnightblue" d="M416.77,-218.83C396.3,-223.64 374.26,-228.82 354.41,-233.48"/>
<polygon fill="midnightblue" stroke="midnightblue" points="417.73,-222.2 426.67,-216.5 416.13,-215.38 417.73,-222.2"/>
</g>
<!-- Node5 -->
<g id="node5" class="node">
<title>Node5</title>
<g id="a_node5"><a xlink:href="classcarta_1_1Region.html#af22052c10d0059e65d3ef5a5f9ffa441" target="_top" xlink:title=" ">
<polygon fill="none" stroke="black" points="210.5,-145 210.5,-164 368.5,-164 368.5,-145 210.5,-145"/>
<text text-anchor="middle" x="289.5" y="-152" font-family="Helvetica,sans-Serif" font-size="10.00">carta::Region::GetLineRecord</text>
</a>
</g>
</g>
<!-- Node2&#45;&gt;Node5 -->
<g id="edge4" class="edge">
<title>Node2&#45;&gt;Node5</title>
<path fill="none" stroke="midnightblue" d="M416.59,-184.13C387.69,-177.34 355.66,-169.81 331.11,-164.04"/>
<polygon fill="midnightblue" stroke="midnightblue" points="416.13,-187.62 426.67,-186.5 417.73,-180.8 416.13,-187.62"/>
</g>
<!-- Node7 -->
<g id="node7" class="node">
<title>Node7</title>
<g id="a_node7"><a xlink:href="classcarta_1_1Region.html#a5ce51737dfb759cf79397872ebd67f72" target="_top" xlink:title=" ">
<polygon fill="none" stroke="black" points="205,-184.5 205,-214.5 374,-214.5 374,-184.5 205,-184.5"/>
<text text-anchor="start" x="213" y="-202.5" font-family="Helvetica,sans-Serif" font-size="10.00">carta::Region::UseApproximate</text>
<text text-anchor="middle" x="289.5" y="-191.5" font-family="Helvetica,sans-Serif" font-size="10.00">Polygon</text>
</a>
</g>
</g>
<!-- Node2&#45;&gt;Node7 -->
<g id="edge6" class="edge">
<title>Node2&#45;&gt;Node7</title>
<path fill="none" stroke="midnightblue" d="M403.6,-200.63C393.79,-200.53 383.8,-200.43 374.03,-200.34"/>
<polygon fill="midnightblue" stroke="midnightblue" points="403.71,-204.13 413.75,-200.73 403.78,-197.13 403.71,-204.13"/>
</g>
<!-- Node4 -->
<g id="node4" class="node">
<title>Node4</title>
<g id="a_node4"><a xlink:href="classcarta_1_1Region.html#a9ec0878ba3ff01974517769cbed3b352" target="_top" xlink:title=" ">
<polygon fill="none" stroke="black" points="0,-200 0,-219 169,-219 169,-200 0,-200"/>
<text text-anchor="middle" x="84.5" y="-207" font-family="Helvetica,sans-Serif" font-size="10.00">carta::Region::GetImageRegion</text>
</a>
</g>
</g>
<!-- Node3&#45;&gt;Node4 -->
<g id="edge3" class="edge">
<title>Node3&#45;&gt;Node4</title>
<path fill="none" stroke="midnightblue" d="M208.78,-233.18C183.95,-228.41 157.29,-223.29 135.14,-219.04"/>
<polygon fill="midnightblue" stroke="midnightblue" points="208.44,-236.68 218.92,-235.13 209.76,-229.81 208.44,-236.68"/>
</g>
<!-- Node6 -->
<g id="node6" class="node">
<title>Node6</title>
<g id="a_node6"><a xlink:href="classcarta_1_1Region.html#abb634583b379802b8712f1b7e2312a36" target="_top" xlink:title=" ">
<polygon fill="none" stroke="black" points="0,-128.5 0,-158.5 169,-158.5 169,-128.5 0,-128.5"/>
<text text-anchor="start" x="8" y="-146.5" font-family="Helvetica,sans-Serif" font-size="10.00">carta::Region::GetImageRegion</text>
<text text-anchor="middle" x="84.5" y="-135.5" font-family="Helvetica,sans-Serif" font-size="10.00">Record</text>
</a>
</g>
</g>
<!-- Node5&#45;&gt;Node6 -->
<g id="edge5" class="edge">
<title>Node5&#45;&gt;Node6</title>
<path fill="none" stroke="midnightblue" d="M200.08,-149.71C189.77,-149.15 179.28,-148.58 169.04,-148.03"/>
<polygon fill="midnightblue" stroke="midnightblue" points="200.13,-153.22 210.31,-150.26 200.51,-146.23 200.13,-153.22"/>
</g>
<!-- Node7&#45;&gt;Node4 -->
<g id="edge7" class="edge">
<title>Node7&#45;&gt;Node4</title>
<path fill="none" stroke="midnightblue" d="M194.74,-204.12C186.17,-204.54 177.52,-204.97 169.05,-205.38"/>
<polygon fill="midnightblue" stroke="midnightblue" points="194.94,-207.61 204.76,-203.63 194.6,-200.62 194.94,-207.61"/>
</g>
<!-- Node9 -->
<g id="node9" class="node">
<title>Node9</title>
<g id="a_node9"><a xlink:href="classcarta_1_1Region.html#a1a2fb79566c14c07764aaf101398ac42" target="_top" xlink:title=" ">
<polygon fill="none" stroke="black" points="220.5,-93.5 220.5,-123.5 358.5,-123.5 358.5,-93.5 220.5,-93.5"/>
<text text-anchor="start" x="228.5" y="-111.5" font-family="Helvetica,sans-Serif" font-size="10.00">carta::Region::GetRegion</text>
<text text-anchor="middle" x="289.5" y="-100.5" font-family="Helvetica,sans-Serif" font-size="10.00">PointsRecord</text>
</a>
</g>
</g>
<!-- Node8&#45;&gt;Node9 -->
<g id="edge9" class="edge">
<title>Node8&#45;&gt;Node9</title>
<path fill="none" stroke="midnightblue" d="M412.99,-135.45C395.13,-131.52 376.26,-127.37 358.82,-123.53"/>
<polygon fill="midnightblue" stroke="midnightblue" points="412.27,-138.87 422.79,-137.6 413.77,-132.04 412.27,-138.87"/>
</g>
<!-- Node9&#45;&gt;Node6 -->
<g id="edge10" class="edge">
<title>Node9&#45;&gt;Node6</title>
<path fill="none" stroke="midnightblue" d="M210.23,-122C196.84,-124.3 182.88,-126.71 169.35,-129.04"/>
<polygon fill="midnightblue" stroke="midnightblue" points="211.08,-125.4 220.34,-120.25 209.89,-118.5 211.08,-125.4"/>
</g>
<!-- Node10&#45;&gt;Node9 -->
<g id="edge12" class="edge">
<title>Node10&#45;&gt;Node9</title>
<path fill="none" stroke="midnightblue" d="M399.35,-108.5C385.69,-108.5 371.81,-108.5 358.74,-108.5"/>
<polygon fill="midnightblue" stroke="midnightblue" points="399.73,-112 409.73,-108.5 399.73,-105 399.73,-112"/>
</g>
<!-- Node11&#45;&gt;Node9 -->
<g id="edge14" class="edge">
<title>Node11&#45;&gt;Node9</title>
<path fill="none" stroke="midnightblue" d="M412.01,-81.77C394.43,-85.64 375.92,-89.71 358.8,-93.47"/>
<polygon fill="midnightblue" stroke="midnightblue" points="413.22,-85.09 422.23,-79.52 411.71,-78.25 413.22,-85.09"/>
</g>
<!-- Node12&#45;&gt;Node9 -->
<g id="edge16" class="edge">
<title>Node12&#45;&gt;Node9</title>
<path fill="none" stroke="midnightblue" d="M423.84,-34.03C419.11,-35.76 414.45,-37.58 410,-39.5 374.58,-54.76 336.44,-78.11 313.02,-93.35"/>
<polygon fill="midnightblue" stroke="midnightblue" points="425.31,-37.23 433.61,-30.64 423.01,-30.62 425.31,-37.23"/>
</g>
</g>
</svg>
        <g id="navigator" transform="translate(0 0)" fill="#404254">
                <rect fill="#f2f5e9" fill-opacity="0.5" stroke="#606060" stroke-width=".5" x="0" y="0" width="60" height="60"/>
                <use id="zoomplus" xlink:href="#zoomPlus" x="17" y="9" onmousedown="handleZoom(evt,'in')"/>
                <use id="zoomminus" xlink:href="#zoomMin" x="42" y="9" onmousedown="handleZoom(evt,'out')"/>
                <use id="reset" xlink:href="#resetDef" x="30" y="36" onmousedown="handleReset()"/>
                <g id="arrowUp" xlink:href="#dirArrow" transform="translate(30 24)" onmousedown="handlePan(0,-1)">
                  <use xlink:href="#rim" fill="#404040">
                        <set attributeName="fill" to="#808080" begin="arrowUp.mouseover" end="arrowUp.mouseout"/>
                  </use>
                  <path fill="none" stroke="white" stroke-width="1.5" d="M0,-3.0v7 M-2.5,-0.5L0,-3.0L2.5,-0.5"/>
                </g>
                <g id="arrowRight" xlink:href="#dirArrow" transform="rotate(90) translate(36 -43)" onmousedown="handlePan(1,0)">
                  <use xlink:href="#rim" fill="#404040">
                        <set attributeName="fill" to="#808080" begin="arrowRight.mouseover" end="arrowRight.mouseout"/>
                  </use>
                  <path fill="none" stroke="white" stroke-width="1.5" d="M0,-3.0v7 M-2.5,-0.5L0,-3.0L2.5,-0.5"/>
                </g>
                <g id="arrowDown" xlink:href="#dirArrow" transform="rotate(180) translate(-30 -48)" onmousedown="handlePan(0,1)">
                  <use xlink:href="#rim" fill="#404040">
                        <set attributeName="fill" to="#808080" begin="arrowDown.mouseover" end="arrowDown.mouseout"/>
                  </use>
                  <path fill="none" stroke="white" stroke-width="1.5" d="M0,-3.0v7 M-2.5,-0.5L0,-3.0L2.5,-0.5"/>
                </g>
                <g id="arrowLeft" xlink:href="#dirArrow" transform="rotate(270) translate(-36 17)" onmousedown="handlePan(-1,0)">
                  <use xlink:href="#rim" fill="#404040">
                        <set attributeName="fill" to="#808080" begin="arrowLeft.mouseover" end="arrowLeft.mouseout"/>
                  </use>
                  <path fill="none" stroke="white" stroke-width="1.5" d="M0,-3.0v7 M-2.5,-0.5L0,-3.0L2.5,-0.5"/>
                </g>
        </g>
        <svg viewBox="0 0 15 15" width="100%" height="30px" preserveAspectRatio="xMaxYMin meet">
         <g id="arrow_out" transform="scale(0.3 0.3)">
          <a xlink:href="classcarta_1_1Region_abd8e434773d9f9a1c8775c30b026a23f_icgraph_org.svg" target="_base">
           <rect id="button" ry="5" rx="5" y="6" x="6" height="38" width="38"
                fill="#f2f5e9" fill-opacity="0.5" stroke="#606060" stroke-width="1.0"/>
           <path id="arrow"
             d="M 11.500037,31.436501 C 11.940474,20.09759 22.043105,11.32322 32.158766,21.979434 L 37.068811,17.246167 C 37.068811,17.246167 37.088388,32 37.088388,32 L 22.160133,31.978069 C 22.160133,31.978069 26.997745,27.140456 26.997745,27.140456 C 18.528582,18.264221 13.291696,25.230495 11.500037,31.436501 z"
             style="fill:#404040;"/>
          </a>
         </g>
        </svg>
</svg>
