<?xml version="1.0" encoding="UTF-8" standalone="no"?>
<!DOCTYPE svg PUBLIC "-//W3C//DTD SVG 1.1//EN"
 "http://www.w3.org/Graphics/SVG/1.1/DTD/svg11.dtd">
<!-- Generated by graphviz version 2.43.0 (0)
 -->
<!-- Title: carta::CompressedFits Pages: 1 -->
<svg width="517pt" height="174pt"
 viewBox="0.00 0.00 516.50 174.00" xmlns="http://www.w3.org/2000/svg" xmlns:xlink="http://www.w3.org/1999/xlink">
<g id="graph0" class="graph" transform="scale(1 1) rotate(0) translate(4 170)">
<title>carta::CompressedFits</title>
<!-- Node1 -->
<g id="node1" class="node">
<title>Node1</title>
<g id="a_node1"><a xlink:title=" ">
<polygon fill="#bfbfbf" stroke="black" points="201,-0.5 201,-19.5 326,-19.5 326,-0.5 201,-0.5"/>
<text text-anchor="middle" x="263.5" y="-7.5" font-family="Helvetica,sans-Serif" font-size="10.00">carta::CompressedFits</text>
</a>
</g>
</g>
<!-- Node2 -->
<g id="node2" class="node">
<title>Node2</title>
<g id="a_node2"><a xlink:title=" ">
<polygon fill="none" stroke="#bfbfbf" points="0,-78.5 0,-97.5 155,-97.5 155,-78.5 0,-78.5"/>
<text text-anchor="middle" x="77.5" y="-85.5" font-family="Helvetica,sans-Serif" font-size="10.00">Matrix&lt; casacore::Double &gt;</text>
</a>
</g>
</g>
<!-- Node2&#45;&gt;Node1 -->
<g id="edge1" class="edge">
<title>Node2&#45;&gt;Node1</title>
<path fill="none" stroke="#9a32cd" stroke-dasharray="5,2" d="M100.06,-72.86C117.86,-62.17 143.58,-47.73 167.5,-38 186.1,-30.43 207.56,-24.18 225.46,-19.6"/>
<polygon fill="#9a32cd" stroke="#9a32cd" points="97.77,-70.16 91.06,-78.36 101.42,-76.14 97.77,-70.16"/>
<text text-anchor="middle" x="186.5" y="-46.5" font-family="Helvetica,sans-Serif" font-size="10.00"> _xform</text>
</g>
<!-- Node3 -->
<g id="node3" class="node">
<title>Node3</title>
<g id="a_node3"><a xlink:title=" ">
<polygon fill="none" stroke="#bfbfbf" points="173,-78.5 173,-97.5 232,-97.5 232,-78.5 173,-78.5"/>
<text text-anchor="middle" x="202.5" y="-85.5" font-family="Helvetica,sans-Serif" font-size="10.00">IPosition</text>
</a>
</g>
</g>
<!-- Node3&#45;&gt;Node1 -->
<g id="edge2" class="edge">
<title>Node3&#45;&gt;Node1</title>
<path fill="none" stroke="#9a32cd" stroke-dasharray="5,2" d="M206.77,-68.23C209.7,-58.44 214.37,-46.73 221.5,-38 227.75,-30.35 236.76,-24.15 244.84,-19.64"/>
<polygon fill="#9a32cd" stroke="#9a32cd" points="203.31,-67.63 204.17,-78.19 210.08,-69.4 203.31,-67.63"/>
<text text-anchor="middle" x="240.5" y="-46.5" font-family="Helvetica,sans-Serif" font-size="10.00"> _shape</text>
</g>
<!-- Node4 -->
<g id="node4" class="node">
<title>Node4</title>
<g id="a_node4"><a xlink:title=" ">
<polygon fill="none" stroke="#bfbfbf" points="250,-78.5 250,-97.5 279,-97.5 279,-78.5 250,-78.5"/>
<text text-anchor="middle" x="264.5" y="-85.5" font-family="Helvetica,sans-Serif" font-size="10.00">int</text>
</a>
</g>
</g>
<!-- Node4&#45;&gt;Node1 -->
<g id="edge3" class="edge">
<title>Node4&#45;&gt;Node1</title>
<path fill="none" stroke="#9a32cd" stroke-dasharray="5,2" d="M264.25,-68.22C264.05,-52.7 263.77,-31.36 263.61,-19.62"/>
<polygon fill="#9a32cd" stroke="#9a32cd" points="260.75,-68.33 264.39,-78.28 267.75,-68.24 260.75,-68.33"/>
<text text-anchor="middle" x="300" y="-52" font-family="Helvetica,sans-Serif" font-size="10.00"> _spectral_axis</text>
<text text-anchor="middle" x="300" y="-41" font-family="Helvetica,sans-Serif" font-size="10.00">_stokes_axis</text>
</g>
<!-- Node5 -->
<g id="node5" class="node">
<title>Node5</title>
<g id="a_node5"><a xlink:title=" ">
<polygon fill="none" stroke="#bfbfbf" points="327,-78.5 327,-97.5 392,-97.5 392,-78.5 327,-78.5"/>
<text text-anchor="middle" x="359.5" y="-85.5" font-family="Helvetica,sans-Serif" font-size="10.00">std::string</text>
</a>
</g>
</g>
<!-- Node5&#45;&gt;Node1 -->
<g id="edge4" class="edge">
<title>Node5&#45;&gt;Node1</title>
<path fill="none" stroke="#9a32cd" stroke-dasharray="5,2" d="M355.03,-68.52C351.71,-58.31 346.22,-46.11 337.5,-38 328.39,-29.52 316.4,-23.66 304.74,-19.63"/>
<polygon fill="#9a32cd" stroke="#9a32cd" points="351.66,-69.49 357.74,-78.16 358.4,-67.59 351.66,-69.49"/>
<text text-anchor="middle" x="391.5" y="-52" font-family="Helvetica,sans-Serif" font-size="10.00"> _filename</text>
<text text-anchor="middle" x="391.5" y="-41" font-family="Helvetica,sans-Serif" font-size="10.00">_unzip_filename</text>
</g>
<!-- Node6 -->
<g id="node6" class="node">
<title>Node6</title>
<g id="a_node6"><a xlink:title=" ">
<polygon fill="none" stroke="#bfbfbf" points="307.5,-135.5 307.5,-165.5 411.5,-165.5 411.5,-135.5 307.5,-135.5"/>
<text text-anchor="start" x="315.5" y="-153.5" font-family="Helvetica,sans-Serif" font-size="10.00">std::basic_string&lt;</text>
<text text-anchor="middle" x="359.5" y="-142.5" font-family="Helvetica,sans-Serif" font-size="10.00"> Char &gt;</text>
</a>
</g>
</g>
<!-- Node6&#45;&gt;Node5 -->
<g id="edge5" class="edge">
<title>Node6&#45;&gt;Node5</title>
<path fill="none" stroke="midnightblue" d="M359.5,-125.35C359.5,-115.51 359.5,-104.78 359.5,-97.54"/>
<polygon fill="midnightblue" stroke="midnightblue" points="356,-125.47 359.5,-135.47 363,-125.47 356,-125.47"/>
</g>
<!-- Node7 -->
<g id="node7" class="node">
<title>Node7</title>
<g id="a_node7"><a xlink:title=" ">
<polygon fill="none" stroke="#bfbfbf" points="416.5,-78.5 416.5,-97.5 508.5,-97.5 508.5,-78.5 416.5,-78.5"/>
<text text-anchor="middle" x="462.5" y="-85.5" font-family="Helvetica,sans-Serif" font-size="10.00">ImageBeamSet</text>
</a>
</g>
</g>
<!-- Node7&#45;&gt;Node1 -->
<g id="edge6" class="edge">
<title>Node7&#45;&gt;Node1</title>
<path fill="none" stroke="#9a32cd" stroke-dasharray="5,2" d="M456.88,-68.46C452.69,-57.87 445.88,-45.28 435.5,-38 418.11,-25.81 368,-18.87 326.32,-15.09"/>
<polygon fill="#9a32cd" stroke="#9a32cd" points="453.64,-69.82 460.22,-78.12 460.26,-67.53 453.64,-69.82"/>
<text text-anchor="middle" x="480" y="-46.5" font-family="Helvetica,sans-Serif" font-size="10.00"> _beam_set</text>
</g>
</g>
</svg>
