<?xml version="1.0" encoding="UTF-8" standalone="no"?>
<!DOCTYPE svg PUBLIC "-//W3C//DTD SVG 1.1//EN"
 "http://www.w3.org/Graphics/SVG/1.1/DTD/svg11.dtd">
<!-- Generated by graphviz version 2.43.0 (0)
 -->
<!-- Title: carta::RegionConverter::SetReferenceWCRegion Pages: 1 -->
<svg width="522pt" height="110pt"
 viewBox="0.00 0.00 522.00 110.00" xmlns="http://www.w3.org/2000/svg" xmlns:xlink="http://www.w3.org/1999/xlink">
<g id="graph0" class="graph" transform="scale(1 1) rotate(0) translate(4 106)">
<title>carta::RegionConverter::SetReferenceWCRegion</title>
<!-- Node1 -->
<g id="node1" class="node">
<title>Node1</title>
<g id="a_node1"><a xlink:title=" ">
<polygon fill="#bfbfbf" stroke="black" points="0,-49.5 0,-79.5 138,-79.5 138,-49.5 0,-49.5"/>
<text text-anchor="start" x="8" y="-67.5" font-family="Helvetica,sans-Serif" font-size="10.00">carta::RegionConverter</text>
<text text-anchor="middle" x="69" y="-56.5" font-family="Helvetica,sans-Serif" font-size="10.00">::SetReferenceWCRegion</text>
</a>
</g>
</g>
<!-- Node2 -->
<g id="node2" class="node">
<title>Node2</title>
<g id="a_node2"><a xlink:href="classcarta_1_1RegionConverter.html#a0f6aea4795947be463dd9cf3e8be4561" target="_top" xlink:title=" ">
<polygon fill="none" stroke="black" points="385,-71.5 385,-101.5 514,-101.5 514,-71.5 385,-71.5"/>
<text text-anchor="start" x="393" y="-89.5" font-family="Helvetica,sans-Serif" font-size="10.00">carta::RegionConverter</text>
<text text-anchor="middle" x="449.5" y="-78.5" font-family="Helvetica,sans-Serif" font-size="10.00">::CartaPointToWorld</text>
</a>
</g>
</g>
<!-- Node1&#45;&gt;Node2 -->
<g id="edge1" class="edge">
<title>Node1&#45;&gt;Node2</title>
<path fill="none" stroke="midnightblue" d="M121.94,-79.53C138.44,-83.61 156.85,-87.47 174,-89.5 241.61,-97.51 319.25,-95.65 374.66,-92.44"/>
<polygon fill="midnightblue" stroke="midnightblue" points="374.97,-95.92 384.74,-91.82 374.55,-88.94 374.97,-95.92"/>
</g>
<!-- Node3 -->
<g id="node3" class="node">
<title>Node3</title>
<g id="a_node3"><a xlink:href="classcarta_1_1RegionConverter.html#a07b2bf1f762d542111b7bf5a7b562f96" target="_top" xlink:title=" ">
<polygon fill="none" stroke="black" points="182.5,-49.5 182.5,-79.5 340.5,-79.5 340.5,-49.5 182.5,-49.5"/>
<text text-anchor="start" x="190.5" y="-67.5" font-family="Helvetica,sans-Serif" font-size="10.00">carta::RegionConverter</text>
<text text-anchor="middle" x="261.5" y="-56.5" font-family="Helvetica,sans-Serif" font-size="10.00">::EllipseControlPointsToWorld</text>
</a>
</g>
</g>
<!-- Node1&#45;&gt;Node3 -->
<g id="edge2" class="edge">
<title>Node1&#45;&gt;Node3</title>
<path fill="none" stroke="midnightblue" d="M138.24,-64.5C149.3,-64.5 160.9,-64.5 172.35,-64.5"/>
<polygon fill="midnightblue" stroke="midnightblue" points="172.37,-68 182.37,-64.5 172.37,-61 172.37,-68"/>
</g>
<!-- Node4 -->
<g id="node4" class="node">
<title>Node4</title>
<g id="a_node4"><a xlink:href="classcarta_1_1RegionConverter.html#a69d125723b67eedcce40ac9a57ecbbab" target="_top" xlink:title=" ">
<polygon fill="none" stroke="black" points="174,-0.5 174,-30.5 349,-30.5 349,-0.5 174,-0.5"/>
<text text-anchor="start" x="182" y="-18.5" font-family="Helvetica,sans-Serif" font-size="10.00">carta::RegionConverter</text>
<text text-anchor="middle" x="261.5" y="-7.5" font-family="Helvetica,sans-Serif" font-size="10.00">::RectangleControlPointsToWorld</text>
</a>
</g>
</g>
<!-- Node1&#45;&gt;Node4 -->
<g id="edge4" class="edge">
<title>Node1&#45;&gt;Node4</title>
<path fill="none" stroke="midnightblue" d="M128.45,-49.47C148.66,-44.27 171.47,-38.4 192.39,-33.02"/>
<polygon fill="midnightblue" stroke="midnightblue" points="193.35,-36.39 202.16,-30.51 191.6,-29.61 193.35,-36.39"/>
</g>
<!-- Node3&#45;&gt;Node2 -->
<g id="edge3" class="edge">
<title>Node3&#45;&gt;Node2</title>
<path fill="none" stroke="midnightblue" d="M340.57,-73.73C351.84,-75.07 363.4,-76.43 374.58,-77.76"/>
<polygon fill="midnightblue" stroke="midnightblue" points="374.38,-81.26 384.72,-78.96 375.2,-74.31 374.38,-81.26"/>
</g>
<!-- Node5 -->
<g id="node5" class="node">
<title>Node5</title>
<g id="a_node5"><a xlink:href="structcarta_1_1RegionState.html#a90efa1046cc65ceb9ae9a6f32d2cc8e6" target="_top" xlink:title=" ">
<polygon fill="none" stroke="black" points="386.5,-0.5 386.5,-30.5 512.5,-30.5 512.5,-0.5 386.5,-0.5"/>
<text text-anchor="start" x="394.5" y="-18.5" font-family="Helvetica,sans-Serif" font-size="10.00">carta::RegionState</text>
<text text-anchor="middle" x="449.5" y="-7.5" font-family="Helvetica,sans-Serif" font-size="10.00">::GetRectangleCorners</text>
</a>
</g>
</g>
<!-- Node4&#45;&gt;Node5 -->
<g id="edge5" class="edge">
<title>Node4&#45;&gt;Node5</title>
<path fill="none" stroke="midnightblue" d="M349.24,-15.5C358.22,-15.5 367.29,-15.5 376.09,-15.5"/>
<polygon fill="midnightblue" stroke="midnightblue" points="376.29,-19 386.29,-15.5 376.29,-12 376.29,-19"/>
</g>
</g>
</svg>
