<?xml version="1.0" encoding="UTF-8" standalone="no"?>
<!DOCTYPE svg PUBLIC "-//W3C//DTD SVG 1.1//EN"
 "http://www.w3.org/Graphics/SVG/1.1/DTD/svg11.dtd">
<!-- Generated by graphviz version 2.43.0 (0)
 -->
<!-- Title: carta::RegionHandler::ApplyRegionToFile Pages: 1 -->
<svg width="747pt" height="182pt"
 viewBox="0.00 0.00 747.00 181.60" xmlns="http://www.w3.org/2000/svg" xmlns:xlink="http://www.w3.org/1999/xlink">
<g id="graph0" class="graph" transform="scale(1 1) rotate(0) translate(4 177.6)">
<title>carta::RegionHandler::ApplyRegionToFile</title>
<!-- Node1 -->
<g id="node1" class="node">
<title>Node1</title>
<g id="a_node1"><a xlink:title=" ">
<polygon fill="#bfbfbf" stroke="black" points="0,-62.5 0,-92.5 119,-92.5 119,-62.5 0,-62.5"/>
<text text-anchor="start" x="8" y="-80.5" font-family="Helvetica,sans-Serif" font-size="10.00">carta::RegionHandler</text>
<text text-anchor="middle" x="59.5" y="-69.5" font-family="Helvetica,sans-Serif" font-size="10.00">::ApplyRegionToFile</text>
</a>
</g>
</g>
<!-- Node2 -->
<g id="node2" class="node">
<title>Node2</title>
<g id="a_node2"><a xlink:href="classcarta_1_1RegionHandler.html#a5c734366cb3b4b307c54a66251dd270c" target="_top" xlink:title=" ">
<polygon fill="none" stroke="black" points="155,-85.5 155,-115.5 274,-115.5 274,-85.5 155,-85.5"/>
<text text-anchor="start" x="163" y="-103.5" font-family="Helvetica,sans-Serif" font-size="10.00">carta::RegionHandler</text>
<text text-anchor="middle" x="214.5" y="-92.5" font-family="Helvetica,sans-Serif" font-size="10.00">::ApplyRegionToFile</text>
</a>
</g>
</g>
<!-- Node1&#45;&gt;Node2 -->
<g id="edge1" class="edge">
<title>Node1&#45;&gt;Node2</title>
<path fill="none" stroke="midnightblue" d="M119.22,-86.33C127.64,-87.59 136.36,-88.9 144.95,-90.19"/>
<polygon fill="midnightblue" stroke="midnightblue" points="144.53,-93.67 154.94,-91.7 145.57,-86.75 144.53,-93.67"/>
</g>
<!-- Node7 -->
<g id="node7" class="node">
<title>Node7</title>
<g id="a_node7"><a xlink:href="classcarta_1_1RegionHandler.html#a8c787facbcb265d7fa434e05324f2c9e" target="_top" xlink:title=" ">
<polygon fill="none" stroke="black" points="310,-38.5 310,-68.5 429,-68.5 429,-38.5 310,-38.5"/>
<text text-anchor="start" x="318" y="-56.5" font-family="Helvetica,sans-Serif" font-size="10.00">carta::RegionHandler</text>
<text text-anchor="middle" x="369.5" y="-45.5" font-family="Helvetica,sans-Serif" font-size="10.00">::RegionFileIdsValid</text>
</a>
</g>
</g>
<!-- Node1&#45;&gt;Node7 -->
<g id="edge12" class="edge">
<title>Node1&#45;&gt;Node7</title>
<path fill="none" stroke="midnightblue" d="M119.16,-72.93C170.56,-68.92 245.33,-63.1 299.58,-58.87"/>
<polygon fill="midnightblue" stroke="midnightblue" points="300.1,-62.34 309.8,-58.07 299.56,-55.36 300.1,-62.34"/>
</g>
<!-- Node3 -->
<g id="node3" class="node">
<title>Node3</title>
<g id="a_node3"><a xlink:href="classcarta_1_1RegionHandler.html#ab9501617a3845ac3fa32b6b88c5269eb" target="_top" xlink:title=" ">
<polygon fill="none" stroke="black" points="310,-136.5 310,-166.5 429,-166.5 429,-136.5 310,-136.5"/>
<text text-anchor="start" x="318" y="-154.5" font-family="Helvetica,sans-Serif" font-size="10.00">carta::RegionHandler</text>
<text text-anchor="middle" x="369.5" y="-143.5" font-family="Helvetica,sans-Serif" font-size="10.00">::IsClosedRegion</text>
</a>
</g>
</g>
<!-- Node2&#45;&gt;Node3 -->
<g id="edge2" class="edge">
<title>Node2&#45;&gt;Node3</title>
<path fill="none" stroke="midnightblue" d="M260.58,-115.53C277.31,-121.1 296.47,-127.49 313.96,-133.32"/>
<polygon fill="midnightblue" stroke="midnightblue" points="312.89,-136.65 323.48,-136.49 315.1,-130.01 312.89,-136.65"/>
</g>
<!-- Node6 -->
<g id="node6" class="node">
<title>Node6</title>
<g id="a_node6"><a xlink:href="classcarta_1_1RegionHandler.html#a94d939104654243dec3750ada83b370e" target="_top" xlink:title=" ">
<polygon fill="none" stroke="black" points="310,-87.5 310,-117.5 429,-117.5 429,-87.5 310,-87.5"/>
<text text-anchor="start" x="318" y="-105.5" font-family="Helvetica,sans-Serif" font-size="10.00">carta::RegionHandler</text>
<text text-anchor="middle" x="369.5" y="-94.5" font-family="Helvetica,sans-Serif" font-size="10.00">::IsPointRegion</text>
</a>
</g>
</g>
<!-- Node2&#45;&gt;Node6 -->
<g id="edge6" class="edge">
<title>Node2&#45;&gt;Node6</title>
<path fill="none" stroke="midnightblue" d="M274.22,-101.27C282.54,-101.38 291.17,-101.49 299.67,-101.6"/>
<polygon fill="midnightblue" stroke="midnightblue" points="299.9,-105.1 309.94,-101.73 299.99,-98.1 299.9,-105.1"/>
</g>
<!-- Node2&#45;&gt;Node7 -->
<g id="edge9" class="edge">
<title>Node2&#45;&gt;Node7</title>
<path fill="none" stroke="midnightblue" d="M264.33,-85.5C278.82,-81.05 294.84,-76.13 309.89,-71.5"/>
<polygon fill="midnightblue" stroke="midnightblue" points="311.08,-74.8 319.61,-68.52 309.02,-68.11 311.08,-74.8"/>
</g>
<!-- Node4 -->
<g id="node4" class="node">
<title>Node4</title>
<g id="a_node4"><a xlink:href="classcarta_1_1RegionHandler.html#a4d3eaa8da979a4b0640aa3b598a9415b" target="_top" xlink:title=" ">
<polygon fill="none" stroke="black" points="465,-126.5 465,-156.5 584,-156.5 584,-126.5 465,-126.5"/>
<text text-anchor="start" x="473" y="-144.5" font-family="Helvetica,sans-Serif" font-size="10.00">carta::RegionHandler</text>
<text text-anchor="middle" x="524.5" y="-133.5" font-family="Helvetica,sans-Serif" font-size="10.00">::GetRegion</text>
</a>
</g>
</g>
<!-- Node3&#45;&gt;Node4 -->
<g id="edge3" class="edge">
<title>Node3&#45;&gt;Node4</title>
<path fill="none" stroke="midnightblue" d="M429.22,-147.66C437.64,-147.11 446.36,-146.54 454.95,-145.98"/>
<polygon fill="midnightblue" stroke="midnightblue" points="455.19,-149.47 464.94,-145.33 454.73,-142.49 455.19,-149.47"/>
</g>
<!-- Node5 -->
<g id="node5" class="node">
<title>Node5</title>
<g id="a_node5"><a xlink:href="classcarta_1_1RegionHandler.html#a9e8b41c9fe29c95b66a44f78490bbcae" target="_top" xlink:title=" ">
<polygon fill="none" stroke="black" points="620,-104.5 620,-134.5 739,-134.5 739,-104.5 620,-104.5"/>
<text text-anchor="start" x="628" y="-122.5" font-family="Helvetica,sans-Serif" font-size="10.00">carta::RegionHandler</text>
<text text-anchor="middle" x="679.5" y="-111.5" font-family="Helvetica,sans-Serif" font-size="10.00">::RegionSet</text>
</a>
</g>
</g>
<!-- Node3&#45;&gt;Node5 -->
<g id="edge5" class="edge">
<title>Node3&#45;&gt;Node5</title>
<path fill="none" stroke="midnightblue" d="M429.25,-164.95C472.56,-172.63 532.64,-178.57 584,-166.5 606.18,-161.29 629.1,-150.05 646.82,-139.88"/>
<polygon fill="midnightblue" stroke="midnightblue" points="648.76,-142.8 655.58,-134.69 645.19,-136.77 648.76,-142.8"/>
</g>
<!-- Node4&#45;&gt;Node5 -->
<g id="edge4" class="edge">
<title>Node4&#45;&gt;Node5</title>
<path fill="none" stroke="midnightblue" d="M584.22,-133.06C592.64,-131.85 601.36,-130.59 609.95,-129.36"/>
<polygon fill="midnightblue" stroke="midnightblue" points="610.54,-132.81 619.94,-127.92 609.54,-125.88 610.54,-132.81"/>
</g>
<!-- Node6&#45;&gt;Node4 -->
<g id="edge7" class="edge">
<title>Node6&#45;&gt;Node4</title>
<path fill="none" stroke="midnightblue" d="M429.22,-117.47C437.73,-119.64 446.55,-121.88 455.23,-124.1"/>
<polygon fill="midnightblue" stroke="midnightblue" points="454.39,-127.49 464.94,-126.57 456.12,-120.71 454.39,-127.49"/>
</g>
<!-- Node6&#45;&gt;Node5 -->
<g id="edge8" class="edge">
<title>Node6&#45;&gt;Node5</title>
<path fill="none" stroke="midnightblue" d="M429.16,-105.74C480.56,-108.57 555.33,-112.7 609.58,-115.7"/>
<polygon fill="midnightblue" stroke="midnightblue" points="609.62,-119.2 619.8,-116.26 610.01,-112.21 609.62,-119.2"/>
</g>
<!-- Node7&#45;&gt;Node5 -->
<g id="edge11" class="edge">
<title>Node7&#45;&gt;Node5</title>
<path fill="none" stroke="midnightblue" d="M429.16,-66.07C480.67,-77.11 555.64,-93.17 609.92,-104.8"/>
<polygon fill="midnightblue" stroke="midnightblue" points="609.29,-108.25 619.8,-106.92 610.75,-101.4 609.29,-108.25"/>
</g>
<!-- Node8 -->
<g id="node8" class="node">
<title>Node8</title>
<g id="a_node8"><a xlink:href="classcarta_1_1RegionHandler.html#a16e8f0e73ba63be909517151bf11a450" target="_top" xlink:title=" ">
<polygon fill="none" stroke="black" points="465,-0.5 465,-30.5 584,-30.5 584,-0.5 465,-0.5"/>
<text text-anchor="start" x="473" y="-18.5" font-family="Helvetica,sans-Serif" font-size="10.00">carta::RegionHandler</text>
<text text-anchor="middle" x="524.5" y="-7.5" font-family="Helvetica,sans-Serif" font-size="10.00">::FrameSet</text>
</a>
</g>
</g>
<!-- Node7&#45;&gt;Node8 -->
<g id="edge10" class="edge">
<title>Node7&#45;&gt;Node8</title>
<path fill="none" stroke="midnightblue" d="M429.22,-38.92C437.73,-36.8 446.55,-34.61 455.23,-32.46"/>
<polygon fill="midnightblue" stroke="midnightblue" points="456.08,-35.85 464.94,-30.04 454.39,-29.06 456.08,-35.85"/>
</g>
</g>
</svg>
