<?xml version="1.0" encoding="UTF-8" standalone="no"?>
<!DOCTYPE svg PUBLIC "-//W3C//DTD SVG 1.1//EN"
 "http://www.w3.org/Graphics/SVG/1.1/DTD/svg11.dtd">
<!-- Generated by graphviz version 2.43.0 (0)
 -->
<!-- Title: carta::CartaFitsImage::GetFitsHeaderString Pages: 1 -->
<svg width="604pt" height="99pt"
 viewBox="0.00 0.00 604.00 99.00" xmlns="http://www.w3.org/2000/svg" xmlns:xlink="http://www.w3.org/1999/xlink">
<g id="graph0" class="graph" transform="scale(1 1) rotate(0) translate(4 95)">
<title>carta::CartaFitsImage::GetFitsHeaderString</title>
<!-- Node1 -->
<g id="node1" class="node">
<title>Node1</title>
<g id="a_node1"><a xlink:title=" ">
<polygon fill="#bfbfbf" stroke="black" points="0,-44.5 0,-74.5 122,-74.5 122,-44.5 0,-44.5"/>
<text text-anchor="start" x="8" y="-62.5" font-family="Helvetica,sans-Serif" font-size="10.00">carta::CartaFitsImage</text>
<text text-anchor="middle" x="61" y="-51.5" font-family="Helvetica,sans-Serif" font-size="10.00">::GetFitsHeaderString</text>
</a>
</g>
</g>
<!-- Node2 -->
<g id="node2" class="node">
<title>Node2</title>
<g id="a_node2"><a xlink:href="classcarta_1_1CartaFitsImage.html#aad75292f7a1ce528680c1acef3bdbcf4" target="_top" xlink:title=" ">
<polygon fill="none" stroke="black" points="474,-60.5 474,-90.5 596,-90.5 596,-60.5 474,-60.5"/>
<text text-anchor="start" x="482" y="-78.5" font-family="Helvetica,sans-Serif" font-size="10.00">carta::CartaFitsImage</text>
<text text-anchor="middle" x="535" y="-67.5" font-family="Helvetica,sans-Serif" font-size="10.00">::CloseFile</text>
</a>
</g>
</g>
<!-- Node1&#45;&gt;Node2 -->
<g id="edge1" class="edge">
<title>Node1&#45;&gt;Node2</title>
<path fill="none" stroke="midnightblue" d="M122.11,-66.98C133.99,-68.29 146.38,-69.54 158,-70.5 282.07,-80.74 313.52,-80.44 438,-78.5 446.33,-78.37 455.06,-78.18 463.73,-77.95"/>
<polygon fill="midnightblue" stroke="midnightblue" points="463.94,-81.44 473.83,-77.67 463.74,-74.45 463.94,-81.44"/>
</g>
<!-- Node3 -->
<g id="node3" class="node">
<title>Node3</title>
<g id="a_node3"><a xlink:href="classcarta_1_1CartaFitsImage.html#a7dd373aa11933081095fd80e81af7aac" target="_top" xlink:title=" ">
<polygon fill="none" stroke="black" points="316,-38.5 316,-68.5 438,-68.5 438,-38.5 316,-38.5"/>
<text text-anchor="start" x="324" y="-56.5" font-family="Helvetica,sans-Serif" font-size="10.00">carta::CartaFitsImage</text>
<text text-anchor="middle" x="377" y="-45.5" font-family="Helvetica,sans-Serif" font-size="10.00">::CloseFileIfError</text>
</a>
</g>
</g>
<!-- Node1&#45;&gt;Node3 -->
<g id="edge2" class="edge">
<title>Node1&#45;&gt;Node3</title>
<path fill="none" stroke="midnightblue" d="M122.17,-58.35C174.56,-57.35 250.55,-55.9 305.72,-54.84"/>
<polygon fill="midnightblue" stroke="midnightblue" points="305.83,-58.34 315.77,-54.65 305.7,-51.34 305.83,-58.34"/>
</g>
<!-- Node4 -->
<g id="node4" class="node">
<title>Node4</title>
<g id="a_node4"><a xlink:href="classcarta_1_1CartaFitsImage.html#a4cb9089fd4a27b966e1349b15ad115a6" target="_top" xlink:title=" ">
<polygon fill="none" stroke="black" points="158,-0.5 158,-30.5 280,-30.5 280,-0.5 158,-0.5"/>
<text text-anchor="start" x="166" y="-18.5" font-family="Helvetica,sans-Serif" font-size="10.00">carta::CartaFitsImage</text>
<text text-anchor="middle" x="219" y="-7.5" font-family="Helvetica,sans-Serif" font-size="10.00">::OpenFile</text>
</a>
</g>
</g>
<!-- Node1&#45;&gt;Node4 -->
<g id="edge4" class="edge">
<title>Node1&#45;&gt;Node4</title>
<path fill="none" stroke="midnightblue" d="M115.25,-44.48C127.98,-40.89 141.69,-37.02 154.82,-33.32"/>
<polygon fill="midnightblue" stroke="midnightblue" points="156.05,-36.61 164.73,-30.53 154.15,-29.87 156.05,-36.61"/>
</g>
<!-- Node3&#45;&gt;Node2 -->
<g id="edge3" class="edge">
<title>Node3&#45;&gt;Node2</title>
<path fill="none" stroke="midnightblue" d="M438.31,-62.01C446.69,-63.19 455.36,-64.41 463.9,-65.61"/>
<polygon fill="midnightblue" stroke="midnightblue" points="463.46,-69.09 473.85,-67.02 464.43,-62.15 463.46,-69.09"/>
</g>
<!-- Node4&#45;&gt;Node3 -->
<g id="edge5" class="edge">
<title>Node4&#45;&gt;Node3</title>
<path fill="none" stroke="midnightblue" d="M280.31,-30.19C288.69,-32.23 297.36,-34.34 305.9,-36.43"/>
<polygon fill="midnightblue" stroke="midnightblue" points="305.3,-39.88 315.85,-38.85 306.96,-33.08 305.3,-39.88"/>
</g>
</g>
</svg>
