<?xml version="1.0" encoding="UTF-8" standalone="no"?>
<!DOCTYPE svg PUBLIC "-//W3C//DTD SVG 1.1//EN"
 "http://www.w3.org/Graphics/SVG/1.1/DTD/svg11.dtd">
<!-- Generated by graphviz version 2.43.0 (0)
 -->
<!-- Title: carta::Session::ExecuteAnimationFrame Pages: 1 -->
<svg width="1825pt" height="833pt"
 viewBox="0.00 0.00 1825.00 833.00" xmlns="http://www.w3.org/2000/svg" xmlns:xlink="http://www.w3.org/1999/xlink">
<g id="graph0" class="graph" transform="scale(1 1) rotate(0) translate(4 829)">
<title>carta::Session::ExecuteAnimationFrame</title>
<!-- Node1 -->
<g id="node1" class="node">
<title>Node1</title>
<g id="a_node1"><a xlink:title=" ">
<polygon fill="#bfbfbf" stroke="black" points="0,-336 0,-366 179,-366 179,-336 0,-336"/>
<text text-anchor="start" x="8" y="-354" font-family="Helvetica,sans-Serif" font-size="10.00">carta::Session::ExecuteAnimation</text>
<text text-anchor="middle" x="89.5" y="-343" font-family="Helvetica,sans-Serif" font-size="10.00">Frame</text>
</a>
</g>
</g>
<!-- Node2 -->
<g id="node2" class="node">
<title>Node2</title>
<g id="a_node2"><a xlink:href="classcarta_1_1Session.html#a74bb5c365ac00159f0b11e44add4a414" target="_top" xlink:title=" ">
<polygon fill="none" stroke="black" points="215,-336 215,-366 394,-366 394,-336 215,-336"/>
<text text-anchor="start" x="223" y="-354" font-family="Helvetica,sans-Serif" font-size="10.00">carta::Session::ExecuteAnimation</text>
<text text-anchor="middle" x="304.5" y="-343" font-family="Helvetica,sans-Serif" font-size="10.00">FrameInner</text>
</a>
</g>
</g>
<!-- Node1&#45;&gt;Node2 -->
<g id="edge1" class="edge">
<title>Node1&#45;&gt;Node2</title>
<path fill="none" stroke="midnightblue" d="M179.29,-351C187.65,-351 196.16,-351 204.6,-351"/>
<polygon fill="midnightblue" stroke="midnightblue" points="204.86,-354.5 214.86,-351 204.85,-347.5 204.86,-354.5"/>
</g>
<!-- Node3 -->
<g id="node3" class="node">
<title>Node3</title>
<g id="a_node3"><a xlink:href="classcarta_1_1Timer.html#aad2702a80259920b910fb76642f97b88" target="_top" xlink:title=" ">
<polygon fill="none" stroke="black" points="1079,-560.5 1079,-579.5 1199,-579.5 1199,-560.5 1079,-560.5"/>
<text text-anchor="middle" x="1139" y="-567.5" font-family="Helvetica,sans-Serif" font-size="10.00">carta::Timer::Elapsed</text>
</a>
</g>
</g>
<!-- Node2&#45;&gt;Node3 -->
<g id="edge2" class="edge">
<title>Node2&#45;&gt;Node3</title>
<path fill="none" stroke="midnightblue" d="M344.15,-366.09C407.2,-390.29 536.49,-438.19 649,-469 797.23,-509.59 974.68,-542.4 1069.78,-558.74"/>
<polygon fill="midnightblue" stroke="midnightblue" points="1069.4,-562.22 1079.85,-560.46 1070.58,-555.32 1069.4,-562.22"/>
</g>
<!-- Node4 -->
<g id="node4" class="node">
<title>Node4</title>
<g id="a_node4"><a xlink:href="structcarta_1_1TimeDelta.html#a90b2dc0a7d70b0aa6f668f4bbad7fa58" target="_top" xlink:title=" ">
<polygon fill="none" stroke="black" points="667,-805.5 667,-824.5 786,-824.5 786,-805.5 667,-805.5"/>
<text text-anchor="middle" x="726.5" y="-812.5" font-family="Helvetica,sans-Serif" font-size="10.00">carta::TimeDelta::ms</text>
</a>
</g>
</g>
<!-- Node2&#45;&gt;Node4 -->
<g id="edge3" class="edge">
<title>Node2&#45;&gt;Node4</title>
<path fill="none" stroke="midnightblue" d="M307.04,-366.2C313.02,-417.86 339.12,-588.97 430,-688 491.32,-754.82 593.77,-787.97 660.48,-803.28"/>
<polygon fill="midnightblue" stroke="midnightblue" points="659.94,-806.75 670.46,-805.5 661.46,-799.91 659.94,-806.75"/>
</g>
<!-- Node5 -->
<g id="node5" class="node">
<title>Node5</title>
<g id="a_node5"><a xlink:href="classcarta_1_1Session.html#ae2f8b2d8d25c937a3c6ec96abc339045" target="_top" xlink:title=" ">
<polygon fill="none" stroke="black" points="438,-648 438,-678 605,-678 605,-648 438,-648"/>
<text text-anchor="start" x="446" y="-666" font-family="Helvetica,sans-Serif" font-size="10.00">carta::Session::OnAddRequired</text>
<text text-anchor="middle" x="521.5" y="-655" font-family="Helvetica,sans-Serif" font-size="10.00">Tiles</text>
</a>
</g>
</g>
<!-- Node2&#45;&gt;Node5 -->
<g id="edge4" class="edge">
<title>Node2&#45;&gt;Node5</title>
<path fill="none" stroke="midnightblue" d="M315.87,-366.05C350.49,-416.28 462.25,-578.47 504.3,-639.49"/>
<polygon fill="midnightblue" stroke="midnightblue" points="501.43,-641.49 509.98,-647.74 507.19,-637.52 501.43,-641.49"/>
</g>
<!-- Node17 -->
<g id="node17" class="node">
<title>Node17</title>
<g id="a_node17"><a xlink:href="classcarta_1_1Session.html#abf2d92e46ffc218b0e6e2685bf4ffb72" target="_top" xlink:title=" ">
<polygon fill="none" stroke="black" points="840,-156.5 840,-175.5 1016,-175.5 1016,-156.5 840,-156.5"/>
<text text-anchor="middle" x="928" y="-163.5" font-family="Helvetica,sans-Serif" font-size="10.00">carta::Session::SendContourData</text>
</a>
</g>
</g>
<!-- Node2&#45;&gt;Node17 -->
<g id="edge18" class="edge">
<title>Node2&#45;&gt;Node17</title>
<path fill="none" stroke="midnightblue" d="M311.77,-335.95C326.59,-302.55 367.33,-222.66 430,-190 497.06,-155.05 704.85,-156.68 829.52,-161.2"/>
<polygon fill="midnightblue" stroke="midnightblue" points="829.7,-164.71 839.83,-161.59 829.97,-157.72 829.7,-164.71"/>
</g>
<!-- Node21 -->
<g id="node21" class="node">
<title>Node21</title>
<g id="a_node21"><a xlink:href="classcarta_1_1Session.html#a9614e33dea4622ec90432fa7aad7a451" target="_top" xlink:title=" ">
<polygon fill="none" stroke="black" points="1059,-238.5 1059,-257.5 1219,-257.5 1219,-238.5 1059,-238.5"/>
<text text-anchor="middle" x="1139" y="-245.5" font-family="Helvetica,sans-Serif" font-size="10.00">carta::Session::SendLogEvent</text>
</a>
</g>
</g>
<!-- Node2&#45;&gt;Node21 -->
<g id="edge26" class="edge">
<title>Node2&#45;&gt;Node21</title>
<path fill="none" stroke="midnightblue" d="M334.8,-335.97C392.88,-307.12 527.49,-244.9 649,-223 809.52,-194.06 853.72,-206.54 1016,-223 1041.18,-225.55 1068.85,-231 1091.46,-236.16"/>
<polygon fill="midnightblue" stroke="midnightblue" points="1090.93,-239.63 1101.46,-238.5 1092.52,-232.81 1090.93,-239.63"/>
</g>
<!-- Node23 -->
<g id="node23" class="node">
<title>Node23</title>
<g id="a_node23"><a xlink:href="classcarta_1_1Session.html#a2535a06bd2e8a13e99c775d895f6024a" target="_top" xlink:title=" ">
<polygon fill="none" stroke="black" points="855,-107 855,-137 1001,-137 1001,-107 855,-107"/>
<text text-anchor="start" x="863" y="-125" font-family="Helvetica,sans-Serif" font-size="10.00">carta::Session::SendVector</text>
<text text-anchor="middle" x="928" y="-114" font-family="Helvetica,sans-Serif" font-size="10.00">FieldData</text>
</a>
</g>
</g>
<!-- Node2&#45;&gt;Node23 -->
<g id="edge27" class="edge">
<title>Node2&#45;&gt;Node23</title>
<path fill="none" stroke="midnightblue" d="M309.95,-335.95C322.05,-298.08 359.43,-198.85 430,-157 558.7,-80.68 740.41,-91.52 844.72,-106.58"/>
<polygon fill="midnightblue" stroke="midnightblue" points="844.47,-110.08 854.87,-108.09 845.5,-103.16 844.47,-110.08"/>
</g>
<!-- Node32 -->
<g id="node32" class="node">
<title>Node32</title>
<g id="a_node32"><a xlink:href="classcarta_1_1Session.html#aef4b334b4727ea531b229d242c3108b2" target="_top" xlink:title=" ">
<polygon fill="none" stroke="black" points="431.5,-360.5 431.5,-379.5 611.5,-379.5 611.5,-360.5 431.5,-360.5"/>
<text text-anchor="middle" x="521.5" y="-367.5" font-family="Helvetica,sans-Serif" font-size="10.00">carta::Session::UpdateImageData</text>
</a>
</g>
</g>
<!-- Node2&#45;&gt;Node32 -->
<g id="edge39" class="edge">
<title>Node2&#45;&gt;Node32</title>
<path fill="none" stroke="midnightblue" d="M394.19,-358.84C403.1,-359.62 412.19,-360.43 421.19,-361.22"/>
<polygon fill="midnightblue" stroke="midnightblue" points="421.05,-364.72 431.32,-362.12 421.67,-357.75 421.05,-364.72"/>
</g>
<!-- Node49 -->
<g id="node49" class="node">
<title>Node49</title>
<g id="a_node49"><a xlink:href="classcarta_1_1Session.html#ac86d5f7886628a9429955f05426f25ab" target="_top" xlink:title=" ">
<polygon fill="none" stroke="black" points="430,-322.5 430,-341.5 613,-341.5 613,-322.5 430,-322.5"/>
<text text-anchor="middle" x="521.5" y="-329.5" font-family="Helvetica,sans-Serif" font-size="10.00">carta::Session::UpdateRegionData</text>
</a>
</g>
</g>
<!-- Node2&#45;&gt;Node49 -->
<g id="edge64" class="edge">
<title>Node2&#45;&gt;Node49</title>
<path fill="none" stroke="midnightblue" d="M394.19,-343.16C402.67,-342.41 411.31,-341.65 419.89,-340.89"/>
<polygon fill="midnightblue" stroke="midnightblue" points="420.28,-344.37 429.93,-340 419.66,-337.4 420.28,-344.37"/>
</g>
<!-- Node5&#45;&gt;Node3 -->
<g id="edge8" class="edge">
<title>Node5&#45;&gt;Node3</title>
<path fill="none" stroke="midnightblue" d="M604.15,-678.02C607.26,-679.8 610.23,-681.79 613,-684 641.6,-706.8 617.99,-738.6 649,-758 707.4,-794.53 737.36,-775.47 804,-758 935.16,-723.62 1069.13,-624.86 1118.34,-585.99"/>
<polygon fill="midnightblue" stroke="midnightblue" points="1120.64,-588.64 1126.27,-579.67 1116.27,-583.17 1120.64,-588.64"/>
</g>
<!-- Node5&#45;&gt;Node4 -->
<g id="edge9" class="edge">
<title>Node5&#45;&gt;Node4</title>
<path fill="none" stroke="midnightblue" d="M540.18,-678.12C558.93,-694.44 589.08,-721.53 613,-747 630.3,-765.42 628.07,-776.85 649,-791 655.49,-795.39 662.82,-799 670.3,-801.98"/>
<polygon fill="midnightblue" stroke="midnightblue" points="669.23,-805.31 679.82,-805.41 671.6,-798.73 669.23,-805.31"/>
</g>
<!-- Node6 -->
<g id="node6" class="node">
<title>Node6</title>
<g id="a_node6"><a xlink:href="classcarta_1_1Session.html#ae5fd18bfcf840d630f3c136e9c5671a8" target="_top" xlink:title=" ">
<polygon fill="none" stroke="black" points="656,-566 656,-596 797,-596 797,-566 656,-566"/>
<text text-anchor="start" x="664" y="-584" font-family="Helvetica,sans-Serif" font-size="10.00">carta::Session::Animation</text>
<text text-anchor="middle" x="726.5" y="-573" font-family="Helvetica,sans-Serif" font-size="10.00">Running</text>
</a>
</g>
</g>
<!-- Node5&#45;&gt;Node6 -->
<g id="edge5" class="edge">
<title>Node5&#45;&gt;Node6</title>
<path fill="none" stroke="midnightblue" d="M553.55,-647.88C578.92,-635.8 615.87,-618.84 649,-606 654.81,-603.75 660.93,-601.52 667.05,-599.38"/>
<polygon fill="midnightblue" stroke="midnightblue" points="668.33,-602.64 676.66,-596.09 666.06,-596.02 668.33,-602.64"/>
</g>
<!-- Node7 -->
<g id="node7" class="node">
<title>Node7</title>
<g id="a_node7"><a xlink:href="classcarta_1_1ThreadManager.html#a82cbb5d8370c091ac96c24d0fc4984dc" target="_top" xlink:title=" ">
<polygon fill="none" stroke="black" points="664.5,-517 664.5,-547 788.5,-547 788.5,-517 664.5,-517"/>
<text text-anchor="start" x="672.5" y="-535" font-family="Helvetica,sans-Serif" font-size="10.00">carta::ThreadManager</text>
<text text-anchor="middle" x="726.5" y="-524" font-family="Helvetica,sans-Serif" font-size="10.00">::ApplyThreadLimit</text>
</a>
</g>
</g>
<!-- Node5&#45;&gt;Node7 -->
<g id="edge6" class="edge">
<title>Node5&#45;&gt;Node7</title>
<path fill="none" stroke="midnightblue" d="M536.67,-647.89C558.7,-625.21 603.4,-582.31 649,-557 652.88,-554.84 656.98,-552.84 661.19,-550.98"/>
<polygon fill="midnightblue" stroke="midnightblue" points="662.59,-554.18 670.5,-547.14 659.92,-547.71 662.59,-554.18"/>
</g>
<!-- Node8 -->
<g id="node8" class="node">
<title>Node8</title>
<g id="a_node8"><a xlink:href="structcarta_1_1Tile.html#a3bb9a6a862540de876a281145ab80e92" target="_top" xlink:title=" ">
<polygon fill="none" stroke="black" points="672.5,-729.5 672.5,-748.5 780.5,-748.5 780.5,-729.5 672.5,-729.5"/>
<text text-anchor="middle" x="726.5" y="-736.5" font-family="Helvetica,sans-Serif" font-size="10.00">carta::Tile::Decode</text>
</a>
</g>
</g>
<!-- Node5&#45;&gt;Node8 -->
<g id="edge7" class="edge">
<title>Node5&#45;&gt;Node8</title>
<path fill="none" stroke="midnightblue" d="M551.79,-678.02C577.04,-690.52 614.74,-708.14 649,-720 656.19,-722.49 663.87,-724.8 671.49,-726.88"/>
<polygon fill="midnightblue" stroke="midnightblue" points="670.85,-730.33 681.41,-729.49 672.63,-723.56 670.85,-730.33"/>
</g>
<!-- Node9 -->
<g id="node9" class="node">
<title>Node9</title>
<g id="a_node9"><a xlink:href="classMessage.html#ac700107151a549f518c77c36f36aea7e" target="_top" xlink:title=" ">
<polygon fill="none" stroke="black" points="657,-691.5 657,-710.5 796,-710.5 796,-691.5 657,-691.5"/>
<text text-anchor="middle" x="726.5" y="-698.5" font-family="Helvetica,sans-Serif" font-size="10.00">Message::RasterTileData</text>
</a>
</g>
</g>
<!-- Node5&#45;&gt;Node9 -->
<g id="edge10" class="edge">
<title>Node5&#45;&gt;Node9</title>
<path fill="none" stroke="midnightblue" d="M602.73,-678.02C623.4,-681.89 645.3,-685.99 664.79,-689.64"/>
<polygon fill="midnightblue" stroke="midnightblue" points="664.27,-693.1 674.75,-691.5 665.56,-686.22 664.27,-693.1"/>
</g>
<!-- Node10 -->
<g id="node10" class="node">
<title>Node10</title>
<g id="a_node10"><a xlink:href="classMessage.html#abfe5e236035c2d079cb30cf181d500f5" target="_top" xlink:title=" ">
<polygon fill="none" stroke="black" points="657,-615.5 657,-634.5 796,-634.5 796,-615.5 657,-615.5"/>
<text text-anchor="middle" x="726.5" y="-622.5" font-family="Helvetica,sans-Serif" font-size="10.00">Message::RasterTileSync</text>
</a>
</g>
</g>
<!-- Node5&#45;&gt;Node10 -->
<g id="edge11" class="edge">
<title>Node5&#45;&gt;Node10</title>
<path fill="none" stroke="midnightblue" d="M602.73,-647.98C623.4,-644.11 645.3,-640.01 664.79,-636.36"/>
<polygon fill="midnightblue" stroke="midnightblue" points="665.56,-639.78 674.75,-634.5 664.27,-632.9 665.56,-639.78"/>
</g>
<!-- Node11 -->
<g id="node11" class="node">
<title>Node11</title>
<g id="a_node11"><a xlink:href="classcarta_1_1Session.html#ae6ff58d2a61d3872bc741f12ed2b91d7" target="_top" xlink:title=" ">
<polygon fill="none" stroke="black" points="1073,-286 1073,-316 1205,-316 1205,-286 1073,-286"/>
<text text-anchor="start" x="1081" y="-304" font-family="Helvetica,sans-Serif" font-size="10.00">carta::Session::SendFile</text>
<text text-anchor="middle" x="1139" y="-293" font-family="Helvetica,sans-Serif" font-size="10.00">Event</text>
</a>
</g>
</g>
<!-- Node5&#45;&gt;Node11 -->
<g id="edge12" class="edge">
<title>Node5&#45;&gt;Node11</title>
<path fill="none" stroke="midnightblue" d="M605.2,-668.34C677.69,-671.12 775.76,-669.64 804,-644 876.7,-577.98 773.06,-497.85 840,-426 894.82,-367.16 948.09,-427.07 1016,-384 1037.63,-370.28 1031.7,-354.62 1052,-339 1061.5,-331.69 1072.62,-325.44 1083.66,-320.26"/>
<polygon fill="midnightblue" stroke="midnightblue" points="1085.17,-323.42 1092.88,-316.15 1082.32,-317.02 1085.17,-323.42"/>
</g>
<!-- Node12 -->
<g id="node12" class="node">
<title>Node12</title>
<g id="a_node12"><a xlink:href="classcarta_1_1Session.html#af5f45b72e3fb7d4ad6fbf32fcc9da912" target="_top" xlink:title=" ">
<polygon fill="none" stroke="black" points="1287.5,-281.5 1287.5,-300.5 1430.5,-300.5 1430.5,-281.5 1287.5,-281.5"/>
<text text-anchor="middle" x="1359" y="-288.5" font-family="Helvetica,sans-Serif" font-size="10.00">carta::Session::SendEvent</text>
</a>
</g>
</g>
<!-- Node11&#45;&gt;Node12 -->
<g id="edge13" class="edge">
<title>Node11&#45;&gt;Node12</title>
<path fill="none" stroke="midnightblue" d="M1205.11,-298.01C1227.73,-296.98 1253.37,-295.8 1277.1,-294.71"/>
<polygon fill="midnightblue" stroke="midnightblue" points="1277.31,-298.21 1287.14,-294.25 1276.99,-291.21 1277.31,-298.21"/>
</g>
<!-- Node13 -->
<g id="node13" class="node">
<title>Node13</title>
<g id="a_node13"><a xlink:href="namespacecarta_1_1logger.html#ab9e339746ee51ea21696ab43b50841d5" target="_top" xlink:title=" ">
<polygon fill="none" stroke="black" points="1492,-325.5 1492,-344.5 1665,-344.5 1665,-325.5 1492,-325.5"/>
<text text-anchor="middle" x="1578.5" y="-332.5" font-family="Helvetica,sans-Serif" font-size="10.00">carta::logger::LogSentEventType</text>
</a>
</g>
</g>
<!-- Node12&#45;&gt;Node13 -->
<g id="edge14" class="edge">
<title>Node12&#45;&gt;Node13</title>
<path fill="none" stroke="midnightblue" d="M1407.19,-300.55C1440.4,-307.26 1485.02,-316.29 1520.26,-323.42"/>
<polygon fill="midnightblue" stroke="midnightblue" points="1519.9,-326.92 1530.4,-325.47 1521.29,-320.06 1519.9,-326.92"/>
</g>
<!-- Node15 -->
<g id="node15" class="node">
<title>Node15</title>
<g id="a_node15"><a xlink:href="classcarta_1_1concurrent__queue.html#ab1a11795f017e1c7dd870fce5da5ede1" target="_top" xlink:title=" ">
<polygon fill="none" stroke="black" points="1511.5,-276 1511.5,-306 1645.5,-306 1645.5,-276 1511.5,-276"/>
<text text-anchor="start" x="1519.5" y="-294" font-family="Helvetica,sans-Serif" font-size="10.00">carta::concurrent_queue</text>
<text text-anchor="middle" x="1578.5" y="-283" font-family="Helvetica,sans-Serif" font-size="10.00">::push</text>
</a>
</g>
</g>
<!-- Node12&#45;&gt;Node15 -->
<g id="edge16" class="edge">
<title>Node12&#45;&gt;Node15</title>
<path fill="none" stroke="midnightblue" d="M1430.62,-291C1453.2,-291 1478.29,-291 1501.26,-291"/>
<polygon fill="midnightblue" stroke="midnightblue" points="1501.3,-294.5 1511.3,-291 1501.3,-287.5 1501.3,-294.5"/>
</g>
<!-- Node16 -->
<g id="node16" class="node">
<title>Node16</title>
<g id="a_node16"><a xlink:href="classcarta_1_1concurrent__queue.html#a44dc990ae7a71921648cad573058357d" target="_top" xlink:title=" ">
<polygon fill="none" stroke="black" points="1511.5,-227 1511.5,-257 1645.5,-257 1645.5,-227 1511.5,-227"/>
<text text-anchor="start" x="1519.5" y="-245" font-family="Helvetica,sans-Serif" font-size="10.00">carta::concurrent_queue</text>
<text text-anchor="middle" x="1578.5" y="-234" font-family="Helvetica,sans-Serif" font-size="10.00">::try_pop</text>
</a>
</g>
</g>
<!-- Node12&#45;&gt;Node16 -->
<g id="edge17" class="edge">
<title>Node12&#45;&gt;Node16</title>
<path fill="none" stroke="midnightblue" d="M1402.19,-281.49C1430.29,-275.16 1468.03,-266.66 1501.29,-259.17"/>
<polygon fill="midnightblue" stroke="midnightblue" points="1502.47,-262.49 1511.45,-256.88 1500.93,-255.66 1502.47,-262.49"/>
</g>
<!-- Node14 -->
<g id="node14" class="node">
<title>Node14</title>
<g id="a_node14"><a xlink:href="namespacecarta_1_1logger.html#a23c9bf75209165cf69eb8d50f64b81b4" target="_top" xlink:title=" ">
<polygon fill="none" stroke="black" points="1701,-320 1701,-350 1817,-350 1817,-320 1701,-320"/>
<text text-anchor="start" x="1709" y="-338" font-family="Helvetica,sans-Serif" font-size="10.00">carta::logger::log</text>
<text text-anchor="middle" x="1759" y="-327" font-family="Helvetica,sans-Serif" font-size="10.00">_protocol_messages</text>
</a>
</g>
</g>
<!-- Node13&#45;&gt;Node14 -->
<g id="edge15" class="edge">
<title>Node13&#45;&gt;Node14</title>
<path fill="none" stroke="midnightblue" d="M1665.09,-335C1673.74,-335 1682.44,-335 1690.86,-335"/>
<polygon fill="midnightblue" stroke="midnightblue" points="1690.96,-338.5 1700.96,-335 1690.96,-331.5 1690.96,-338.5"/>
</g>
<!-- Node17&#45;&gt;Node11 -->
<g id="edge22" class="edge">
<title>Node17&#45;&gt;Node11</title>
<path fill="none" stroke="midnightblue" d="M947.12,-175.69C965.55,-186.03 994.39,-203.56 1016,-223 1034.79,-239.9 1031.6,-252.1 1052,-267 1059.97,-272.82 1069.08,-277.81 1078.31,-282.03"/>
<polygon fill="midnightblue" stroke="midnightblue" points="1076.98,-285.27 1087.55,-285.99 1079.74,-278.83 1076.98,-285.27"/>
</g>
<!-- Node18 -->
<g id="node18" class="node">
<title>Node18</title>
<g id="a_node18"><a xlink:href="classMessage.html#a281caf592c92b9f16c878afc8446188b" target="_top" xlink:title=" ">
<polygon fill="none" stroke="black" points="1060,-193.5 1060,-212.5 1218,-212.5 1218,-193.5 1060,-193.5"/>
<text text-anchor="middle" x="1139" y="-200.5" font-family="Helvetica,sans-Serif" font-size="10.00">Message::ContourImageData</text>
</a>
</g>
</g>
<!-- Node17&#45;&gt;Node18 -->
<g id="edge19" class="edge">
<title>Node17&#45;&gt;Node18</title>
<path fill="none" stroke="midnightblue" d="M982.82,-175.53C1010.63,-180.45 1044.75,-186.49 1073.91,-191.65"/>
<polygon fill="midnightblue" stroke="midnightblue" points="1073.54,-195.14 1084,-193.44 1074.76,-188.25 1073.54,-195.14"/>
</g>
<!-- Node19 -->
<g id="node19" class="node">
<title>Node19</title>
<g id="a_node19"><a xlink:href="namespacecarta.html#a075ee64ae108d46c43cdb9a37b54d442" target="_top" xlink:title=" ">
<polygon fill="none" stroke="black" points="1053.5,-155.5 1053.5,-174.5 1224.5,-174.5 1224.5,-155.5 1053.5,-155.5"/>
<text text-anchor="middle" x="1139" y="-162.5" font-family="Helvetica,sans-Serif" font-size="10.00">carta::RoundAndEncodeVertices</text>
</a>
</g>
</g>
<!-- Node17&#45;&gt;Node19 -->
<g id="edge20" class="edge">
<title>Node17&#45;&gt;Node19</title>
<path fill="none" stroke="midnightblue" d="M1016.12,-165.58C1025.07,-165.54 1034.2,-165.5 1043.23,-165.45"/>
<polygon fill="midnightblue" stroke="midnightblue" points="1043.38,-168.95 1053.37,-165.4 1043.35,-161.95 1043.38,-168.95"/>
</g>
<!-- Node17&#45;&gt;Node21 -->
<g id="edge23" class="edge">
<title>Node17&#45;&gt;Node21</title>
<path fill="none" stroke="midnightblue" d="M978.84,-175.56C991.41,-179.08 1004.57,-183.79 1016,-190 1034.81,-200.22 1033.32,-211.55 1052,-222 1061.69,-227.42 1072.65,-231.84 1083.41,-235.39"/>
<polygon fill="midnightblue" stroke="midnightblue" points="1082.61,-238.81 1093.2,-238.42 1084.68,-232.12 1082.61,-238.81"/>
</g>
<!-- Node20 -->
<g id="node20" class="node">
<title>Node20</title>
<g id="a_node20"><a xlink:href="namespacecarta.html#ae0d37b236270de77bb23613108e10258" target="_top" xlink:title=" ">
<polygon fill="none" stroke="black" points="1298,-155.5 1298,-174.5 1420,-174.5 1420,-155.5 1298,-155.5"/>
<text text-anchor="middle" x="1359" y="-162.5" font-family="Helvetica,sans-Serif" font-size="10.00">carta::EncodeIntegers</text>
</a>
</g>
</g>
<!-- Node19&#45;&gt;Node20 -->
<g id="edge21" class="edge">
<title>Node19&#45;&gt;Node20</title>
<path fill="none" stroke="midnightblue" d="M1224.6,-165C1245.48,-165 1267.63,-165 1287.75,-165"/>
<polygon fill="midnightblue" stroke="midnightblue" points="1287.76,-168.5 1297.76,-165 1287.76,-161.5 1287.76,-168.5"/>
</g>
<!-- Node21&#45;&gt;Node12 -->
<g id="edge25" class="edge">
<title>Node21&#45;&gt;Node12</title>
<path fill="none" stroke="midnightblue" d="M1188.38,-257.54C1221.26,-264.03 1264.93,-272.64 1299.73,-279.51"/>
<polygon fill="midnightblue" stroke="midnightblue" points="1299.27,-282.98 1309.75,-281.48 1300.62,-276.11 1299.27,-282.98"/>
</g>
<!-- Node22 -->
<g id="node22" class="node">
<title>Node22</title>
<g id="a_node22"><a xlink:href="classMessage.html#a99e84f303d54a46b1cf582bf343c7f29" target="_top" xlink:title=" ">
<polygon fill="none" stroke="black" points="1302.5,-238.5 1302.5,-257.5 1415.5,-257.5 1415.5,-238.5 1302.5,-238.5"/>
<text text-anchor="middle" x="1359" y="-245.5" font-family="Helvetica,sans-Serif" font-size="10.00">Message::ErrorData</text>
</a>
</g>
</g>
<!-- Node21&#45;&gt;Node22 -->
<g id="edge24" class="edge">
<title>Node21&#45;&gt;Node22</title>
<path fill="none" stroke="midnightblue" d="M1219.01,-248C1243.11,-248 1269.32,-248 1292.42,-248"/>
<polygon fill="midnightblue" stroke="midnightblue" points="1292.46,-251.5 1302.46,-248 1292.46,-244.5 1292.46,-251.5"/>
</g>
<!-- Node23&#45;&gt;Node11 -->
<g id="edge36" class="edge">
<title>Node23&#45;&gt;Node11</title>
<path fill="none" stroke="midnightblue" d="M1001.16,-136.15C1006.59,-139.12 1011.64,-142.69 1016,-147 1055.6,-186.14 1014.34,-225.99 1052,-267 1057.08,-272.53 1063.17,-277.17 1069.73,-281.07"/>
<polygon fill="midnightblue" stroke="midnightblue" points="1068.45,-284.35 1078.93,-285.93 1071.73,-278.16 1068.45,-284.35"/>
</g>
<!-- Node23&#45;&gt;Node21 -->
<g id="edge37" class="edge">
<title>Node23&#45;&gt;Node21</title>
<path fill="none" stroke="midnightblue" d="M1000.89,-137.13C1006.31,-139.88 1011.44,-143.15 1016,-147 1044.24,-170.86 1023.92,-197.94 1052,-222 1058.08,-227.21 1065.18,-231.37 1072.64,-234.71"/>
<polygon fill="midnightblue" stroke="midnightblue" points="1071.66,-238.08 1082.25,-238.49 1074.23,-231.57 1071.66,-238.08"/>
</g>
<!-- Node24 -->
<g id="node24" class="node">
<title>Node24</title>
<g id="a_node24"><a xlink:href="structcarta_1_1VectorFieldCalculator.html#a6cb3e8f08210812e559ca8d6922010e2" target="_top" xlink:title=" ">
<polygon fill="none" stroke="black" points="1063.5,-65 1063.5,-95 1214.5,-95 1214.5,-65 1063.5,-65"/>
<text text-anchor="start" x="1071.5" y="-83" font-family="Helvetica,sans-Serif" font-size="10.00">carta::VectorFieldCalculator</text>
<text text-anchor="middle" x="1139" y="-72" font-family="Helvetica,sans-Serif" font-size="10.00">::DoCalculations</text>
</a>
</g>
</g>
<!-- Node23&#45;&gt;Node24 -->
<g id="edge28" class="edge">
<title>Node23&#45;&gt;Node24</title>
<path fill="none" stroke="midnightblue" d="M1001.22,-107.49C1017.99,-104.12 1035.98,-100.5 1053.24,-97.03"/>
<polygon fill="midnightblue" stroke="midnightblue" points="1054.18,-100.41 1063.29,-95.01 1052.8,-93.55 1054.18,-100.41"/>
</g>
<!-- Node31 -->
<g id="node31" class="node">
<title>Node31</title>
<g id="a_node31"><a xlink:href="classMessage.html#ae2014883b61e59f5a8af13ab6109a659" target="_top" xlink:title=" ">
<polygon fill="none" stroke="black" points="1271,-114.5 1271,-133.5 1447,-133.5 1447,-114.5 1271,-114.5"/>
<text text-anchor="middle" x="1359" y="-121.5" font-family="Helvetica,sans-Serif" font-size="10.00">Message::VectorOverlayTileData</text>
</a>
</g>
</g>
<!-- Node23&#45;&gt;Node31 -->
<g id="edge38" class="edge">
<title>Node23&#45;&gt;Node31</title>
<path fill="none" stroke="midnightblue" d="M1001.29,-122.34C1072.48,-122.67 1181.7,-123.18 1260.53,-123.55"/>
<polygon fill="midnightblue" stroke="midnightblue" points="1260.94,-127.05 1270.96,-123.59 1260.97,-120.05 1260.94,-127.05"/>
</g>
<!-- Node25 -->
<g id="node25" class="node">
<title>Node25</title>
<g id="a_node25"><a xlink:href="namespacecarta.html#aaf048df5c4177b17e68eb0cbcd5fbb3a" target="_top" xlink:title=" ">
<polygon fill="none" stroke="black" points="1307.5,-76.5 1307.5,-95.5 1410.5,-95.5 1410.5,-76.5 1307.5,-76.5"/>
<text text-anchor="middle" x="1359" y="-83.5" font-family="Helvetica,sans-Serif" font-size="10.00">carta::FillTileData</text>
</a>
</g>
</g>
<!-- Node24&#45;&gt;Node25 -->
<g id="edge29" class="edge">
<title>Node24&#45;&gt;Node25</title>
<path fill="none" stroke="midnightblue" d="M1214.72,-82.06C1241.58,-82.8 1271.54,-83.62 1297.09,-84.32"/>
<polygon fill="midnightblue" stroke="midnightblue" points="1297.29,-87.83 1307.38,-84.61 1297.48,-80.83 1297.29,-87.83"/>
</g>
<!-- Node28 -->
<g id="node28" class="node">
<title>Node28</title>
<g id="a_node28"><a xlink:href="namespacecarta.html#a95828b5aa32c7a2363d7679a2cb91b77" target="_top" xlink:title=" ">
<polygon fill="none" stroke="black" points="1293.5,-38.5 1293.5,-57.5 1424.5,-57.5 1424.5,-38.5 1293.5,-38.5"/>
<text text-anchor="middle" x="1359" y="-45.5" font-family="Helvetica,sans-Serif" font-size="10.00">carta::GetImageBounds</text>
</a>
</g>
</g>
<!-- Node24&#45;&gt;Node28 -->
<g id="edge32" class="edge">
<title>Node24&#45;&gt;Node28</title>
<path fill="none" stroke="midnightblue" d="M1214.72,-69.03C1236.84,-65.78 1261.07,-62.23 1283.2,-58.98"/>
<polygon fill="midnightblue" stroke="midnightblue" points="1283.82,-62.43 1293.2,-57.51 1282.8,-55.5 1283.82,-62.43"/>
</g>
<!-- Node29 -->
<g id="node29" class="node">
<title>Node29</title>
<g id="a_node29"><a xlink:href="namespacecarta.html#a564d69915ebb8e5d130798efdf5fc32a" target="_top" xlink:title=" ">
<polygon fill="none" stroke="black" points="1315,-0.5 1315,-19.5 1403,-19.5 1403,-0.5 1315,-0.5"/>
<text text-anchor="middle" x="1359" y="-7.5" font-family="Helvetica,sans-Serif" font-size="10.00">carta::GetTiles</text>
</a>
</g>
</g>
<!-- Node24&#45;&gt;Node29 -->
<g id="edge33" class="edge">
<title>Node24&#45;&gt;Node29</title>
<path fill="none" stroke="midnightblue" d="M1171.21,-64.9C1195.49,-53.67 1230.27,-38.67 1262,-29 1275.6,-24.86 1290.57,-21.39 1304.56,-18.61"/>
<polygon fill="midnightblue" stroke="midnightblue" points="1305.37,-22.01 1314.53,-16.7 1304.06,-15.14 1305.37,-22.01"/>
</g>
<!-- Node24&#45;&gt;Node31 -->
<g id="edge35" class="edge">
<title>Node24&#45;&gt;Node31</title>
<path fill="none" stroke="midnightblue" d="M1212.88,-95.02C1229.05,-98.33 1246.1,-101.8 1262,-105 1274.22,-107.46 1287.33,-110.07 1299.8,-112.55"/>
<polygon fill="midnightblue" stroke="midnightblue" points="1299.15,-115.99 1309.64,-114.5 1300.51,-109.12 1299.15,-115.99"/>
</g>
<!-- Node26 -->
<g id="node26" class="node">
<title>Node26</title>
<g id="a_node26"><a xlink:href="namespacecarta.html#a10f0d86089ef00182ca768e7971e1657" target="_top" xlink:title=" ">
<polygon fill="none" stroke="black" points="1530.5,-57.5 1530.5,-76.5 1626.5,-76.5 1626.5,-57.5 1530.5,-57.5"/>
<text text-anchor="middle" x="1578.5" y="-64.5" font-family="Helvetica,sans-Serif" font-size="10.00">carta::Compress</text>
</a>
</g>
</g>
<!-- Node25&#45;&gt;Node26 -->
<g id="edge30" class="edge">
<title>Node25&#45;&gt;Node26</title>
<path fill="none" stroke="midnightblue" d="M1410.72,-81.57C1443.48,-78.71 1486.18,-74.98 1520.17,-72.01"/>
<polygon fill="midnightblue" stroke="midnightblue" points="1520.77,-75.47 1530.42,-71.11 1520.16,-68.5 1520.77,-75.47"/>
</g>
<!-- Node27 -->
<g id="node27" class="node">
<title>Node27</title>
<g id="a_node27"><a xlink:href="namespacecarta.html#a6f90f0f5fadc7ab7bfad3fdc20058cef" target="_top" xlink:title=" ">
<polygon fill="none" stroke="black" points="1498,-95.5 1498,-114.5 1659,-114.5 1659,-95.5 1498,-95.5"/>
<text text-anchor="middle" x="1578.5" y="-102.5" font-family="Helvetica,sans-Serif" font-size="10.00">carta::GetNanEncodingsBlock</text>
</a>
</g>
</g>
<!-- Node25&#45;&gt;Node27 -->
<g id="edge31" class="edge">
<title>Node25&#45;&gt;Node27</title>
<path fill="none" stroke="midnightblue" d="M1410.72,-90.43C1433.65,-92.43 1461.45,-94.86 1487.72,-97.16"/>
<polygon fill="midnightblue" stroke="midnightblue" points="1487.43,-100.65 1497.7,-98.03 1488.04,-93.67 1487.43,-100.65"/>
</g>
<!-- Node30 -->
<g id="node30" class="node">
<title>Node30</title>
<g id="a_node30"><a xlink:href="structcarta_1_1Tile.html#a4b28a507483b4f7227d00799e3c475e2" target="_top" xlink:title=" ">
<polygon fill="none" stroke="black" points="1515,-0.5 1515,-19.5 1642,-19.5 1642,-0.5 1515,-0.5"/>
<text text-anchor="middle" x="1578.5" y="-7.5" font-family="Helvetica,sans-Serif" font-size="10.00">carta::Tile::MipToLayer</text>
</a>
</g>
</g>
<!-- Node29&#45;&gt;Node30 -->
<g id="edge34" class="edge">
<title>Node29&#45;&gt;Node30</title>
<path fill="none" stroke="midnightblue" d="M1403.23,-10C1432.2,-10 1471.05,-10 1504.72,-10"/>
<polygon fill="midnightblue" stroke="midnightblue" points="1504.99,-13.5 1514.99,-10 1504.99,-6.5 1504.99,-13.5"/>
</g>
<!-- Node33 -->
<g id="node33" class="node">
<title>Node33</title>
<g id="a_node33"><a xlink:href="classcarta_1_1Session.html#af0bc6048baa8b0e803edc7bfb1161e87" target="_top" xlink:title=" ">
<polygon fill="none" stroke="black" points="652,-380 652,-410 801,-410 801,-380 652,-380"/>
<text text-anchor="start" x="660" y="-398" font-family="Helvetica,sans-Serif" font-size="10.00">carta::Session::SendRegion</text>
<text text-anchor="middle" x="726.5" y="-387" font-family="Helvetica,sans-Serif" font-size="10.00">HistogramData</text>
</a>
</g>
</g>
<!-- Node32&#45;&gt;Node33 -->
<g id="edge40" class="edge">
<title>Node32&#45;&gt;Node33</title>
<path fill="none" stroke="midnightblue" d="M599.82,-379.52C613.53,-381.21 627.86,-382.98 641.73,-384.68"/>
<polygon fill="midnightblue" stroke="midnightblue" points="641.38,-388.17 651.74,-385.92 642.24,-381.22 641.38,-388.17"/>
</g>
<!-- Node45 -->
<g id="node45" class="node">
<title>Node45</title>
<g id="a_node45"><a xlink:href="classcarta_1_1Session.html#a5fd62896cf8474c7b37c27093a24459e" target="_top" xlink:title=" ">
<polygon fill="none" stroke="black" points="652,-429 652,-459 801,-459 801,-429 652,-429"/>
<text text-anchor="start" x="660" y="-447" font-family="Helvetica,sans-Serif" font-size="10.00">carta::Session::SendRegion</text>
<text text-anchor="middle" x="726.5" y="-436" font-family="Helvetica,sans-Serif" font-size="10.00">StatsData</text>
</a>
</g>
</g>
<!-- Node32&#45;&gt;Node45 -->
<g id="edge57" class="edge">
<title>Node32&#45;&gt;Node45</title>
<path fill="none" stroke="midnightblue" d="M545.17,-379.53C570.34,-389.99 612.27,-407 649,-420 654.46,-421.93 660.17,-423.87 665.91,-425.77"/>
<polygon fill="midnightblue" stroke="midnightblue" points="664.94,-429.13 675.53,-428.9 667.11,-422.48 664.94,-429.13"/>
</g>
<!-- Node46 -->
<g id="node46" class="node">
<title>Node46</title>
<g id="a_node46"><a xlink:href="classcarta_1_1Session.html#a85b4eb14c9181087b03046119b117789" target="_top" xlink:title=" ">
<polygon fill="none" stroke="black" points="652,-331 652,-361 801,-361 801,-331 652,-331"/>
<text text-anchor="start" x="660" y="-349" font-family="Helvetica,sans-Serif" font-size="10.00">carta::Session::SendSpatial</text>
<text text-anchor="middle" x="726.5" y="-338" font-family="Helvetica,sans-Serif" font-size="10.00">ProfileDataByFileId</text>
</a>
</g>
</g>
<!-- Node32&#45;&gt;Node46 -->
<g id="edge59" class="edge">
<title>Node32&#45;&gt;Node46</title>
<path fill="none" stroke="midnightblue" d="M603.02,-360.48C615.78,-358.97 628.99,-357.41 641.81,-355.89"/>
<polygon fill="midnightblue" stroke="midnightblue" points="642.48,-359.34 652,-354.69 641.65,-352.39 642.48,-359.34"/>
</g>
<!-- Node48 -->
<g id="node48" class="node">
<title>Node48</title>
<g id="a_node48"><a xlink:href="classcarta_1_1Session.html#a64e272e7aec6edd051745e773d47c0f2" target="_top" xlink:title=" ">
<polygon fill="none" stroke="black" points="649,-282 649,-312 804,-312 804,-282 649,-282"/>
<text text-anchor="start" x="657" y="-300" font-family="Helvetica,sans-Serif" font-size="10.00">carta::Session::SendSpectral</text>
<text text-anchor="middle" x="726.5" y="-289" font-family="Helvetica,sans-Serif" font-size="10.00">ProfileData</text>
</a>
</g>
</g>
<!-- Node32&#45;&gt;Node48 -->
<g id="edge63" class="edge">
<title>Node32&#45;&gt;Node48</title>
<path fill="none" stroke="midnightblue" d="M587.03,-360.38C595.98,-357.92 604.88,-354.85 613,-351 631.57,-342.2 630.94,-331.8 649,-322 652.98,-319.84 657.17,-317.83 661.46,-315.96"/>
<polygon fill="midnightblue" stroke="midnightblue" points="663.03,-319.11 670.97,-312.1 660.39,-312.62 663.03,-319.11"/>
</g>
<!-- Node33&#45;&gt;Node11 -->
<g id="edge55" class="edge">
<title>Node33&#45;&gt;Node11</title>
<path fill="none" stroke="midnightblue" d="M778.86,-379.95C787.33,-377.17 795.96,-374.14 804,-371 820.48,-364.56 823.14,-359.37 840,-354 913.98,-330.42 1001.85,-316.4 1062.92,-308.76"/>
<polygon fill="midnightblue" stroke="midnightblue" points="1063.36,-312.23 1072.86,-307.55 1062.51,-305.29 1063.36,-312.23"/>
</g>
<!-- Node33&#45;&gt;Node21 -->
<g id="edge56" class="edge">
<title>Node33&#45;&gt;Node21</title>
<path fill="none" stroke="midnightblue" d="M789.64,-379.93C794.75,-377.4 799.63,-374.45 804,-371 828.43,-351.76 814.68,-329.05 840,-311 842.48,-309.23 996.08,-277.31 1081.75,-259.6"/>
<polygon fill="midnightblue" stroke="midnightblue" points="1082.51,-263.02 1091.6,-257.57 1081.1,-256.16 1082.51,-263.02"/>
</g>
<!-- Node34 -->
<g id="node34" class="node">
<title>Node34</title>
<g id="a_node34"><a xlink:href="classcarta_1_1Session.html#aa9e908b20d1e35ff162cc1f361dbfe56" target="_top" xlink:title=" ">
<polygon fill="none" stroke="black" points="859.5,-435 859.5,-465 996.5,-465 996.5,-435 859.5,-435"/>
<text text-anchor="start" x="867.5" y="-453" font-family="Helvetica,sans-Serif" font-size="10.00">carta::Session::Calculate</text>
<text text-anchor="middle" x="928" y="-442" font-family="Helvetica,sans-Serif" font-size="10.00">CubeHistogram</text>
</a>
</g>
</g>
<!-- Node33&#45;&gt;Node34 -->
<g id="edge41" class="edge">
<title>Node33&#45;&gt;Node34</title>
<path fill="none" stroke="midnightblue" d="M782.01,-410.03C806.98,-416.91 836.73,-425.11 862.77,-432.29"/>
<polygon fill="midnightblue" stroke="midnightblue" points="861.98,-435.71 872.55,-434.99 863.84,-428.96 861.98,-435.71"/>
</g>
<!-- Node34&#45;&gt;Node3 -->
<g id="edge48" class="edge">
<title>Node34&#45;&gt;Node3</title>
<path fill="none" stroke="midnightblue" d="M992.09,-465.15C1000.73,-469.04 1009.01,-473.91 1016,-480 1042.67,-503.24 1024.04,-529.32 1052,-551 1057.15,-555 1062.98,-558.19 1069.11,-560.73"/>
<polygon fill="midnightblue" stroke="midnightblue" points="1068.34,-564.17 1078.93,-564.22 1070.68,-557.58 1068.34,-564.17"/>
</g>
<!-- Node34&#45;&gt;Node11 -->
<g id="edge53" class="edge">
<title>Node34&#45;&gt;Node11</title>
<path fill="none" stroke="midnightblue" d="M992.82,-434.96C1001.25,-431.06 1009.29,-426.16 1016,-420 1045.03,-393.37 1024.11,-366.83 1052,-339 1059.44,-331.57 1068.58,-325.48 1078.1,-320.51"/>
<polygon fill="midnightblue" stroke="midnightblue" points="1079.8,-323.58 1087.29,-316.1 1076.76,-317.27 1079.8,-323.58"/>
</g>
<!-- Node34&#45;&gt;Node21 -->
<g id="edge54" class="edge">
<title>Node34&#45;&gt;Node21</title>
<path fill="none" stroke="midnightblue" d="M935.71,-434.85C951.25,-401.42 992.99,-320.85 1052,-277 1061.2,-270.17 1072.1,-264.88 1083.01,-260.8"/>
<polygon fill="midnightblue" stroke="midnightblue" points="1084.23,-264.09 1092.55,-257.53 1081.96,-257.47 1084.23,-264.09"/>
</g>
<!-- Node35 -->
<g id="node35" class="node">
<title>Node35</title>
<g id="a_node35"><a xlink:href="classcarta_1_1Histogram.html#a56e2b8bfafd357f89b9197487c20446e" target="_top" xlink:title=" ">
<polygon fill="none" stroke="black" points="1077.5,-522.5 1077.5,-541.5 1200.5,-541.5 1200.5,-522.5 1077.5,-522.5"/>
<text text-anchor="middle" x="1139" y="-529.5" font-family="Helvetica,sans-Serif" font-size="10.00">carta::Histogram::Add</text>
</a>
</g>
</g>
<!-- Node34&#45;&gt;Node35 -->
<g id="edge42" class="edge">
<title>Node34&#45;&gt;Node35</title>
<path fill="none" stroke="midnightblue" d="M983.91,-465.1C994.91,-469.17 1006.12,-474.12 1016,-480 1034.65,-491.1 1032.74,-502.98 1052,-513 1056.92,-515.56 1062.17,-517.77 1067.55,-519.69"/>
<polygon fill="midnightblue" stroke="midnightblue" points="1066.77,-523.11 1077.36,-522.83 1068.91,-516.45 1066.77,-523.11"/>
</g>
<!-- Node41 -->
<g id="node41" class="node">
<title>Node41</title>
<g id="a_node41"><a xlink:href="Message_8cc.html#aadf644bd365f0198b09a7196f9990511" target="_top" xlink:title=" ">
<polygon fill="none" stroke="black" points="1098,-484.5 1098,-503.5 1180,-503.5 1180,-484.5 1098,-484.5"/>
<text text-anchor="middle" x="1139" y="-491.5" font-family="Helvetica,sans-Serif" font-size="10.00">FillHistogram</text>
</a>
</g>
</g>
<!-- Node34&#45;&gt;Node41 -->
<g id="edge49" class="edge">
<title>Node34&#45;&gt;Node41</title>
<path fill="none" stroke="midnightblue" d="M996.57,-464.22C1026.18,-470.46 1060.33,-477.65 1087.65,-483.4"/>
<polygon fill="midnightblue" stroke="midnightblue" points="1087.26,-486.89 1097.77,-485.53 1088.7,-480.05 1087.26,-486.89"/>
</g>
<!-- Node42 -->
<g id="node42" class="node">
<title>Node42</title>
<g id="a_node42"><a xlink:href="classcarta_1_1SessionContext.html#a28e9e5c979d1c244253a92f69b156c39" target="_top" xlink:title=" ">
<polygon fill="none" stroke="black" points="1077.5,-424.5 1077.5,-465.5 1200.5,-465.5 1200.5,-424.5 1077.5,-424.5"/>
<text text-anchor="start" x="1085.5" y="-453.5" font-family="Helvetica,sans-Serif" font-size="10.00">carta::SessionContext</text>
<text text-anchor="start" x="1085.5" y="-442.5" font-family="Helvetica,sans-Serif" font-size="10.00">::is_group_execution</text>
<text text-anchor="middle" x="1139" y="-431.5" font-family="Helvetica,sans-Serif" font-size="10.00">_cancelled</text>
</a>
</g>
</g>
<!-- Node34&#45;&gt;Node42 -->
<g id="edge50" class="edge">
<title>Node34&#45;&gt;Node42</title>
<path fill="none" stroke="midnightblue" d="M996.57,-448.38C1019.11,-447.84 1044.29,-447.24 1067.09,-446.7"/>
<polygon fill="midnightblue" stroke="midnightblue" points="1067.46,-450.19 1077.37,-446.45 1067.29,-443.19 1067.46,-450.19"/>
</g>
<!-- Node43 -->
<g id="node43" class="node">
<title>Node43</title>
<g id="a_node43"><a xlink:href="structcarta_1_1BasicStats.html#a536adffa874e62bc21b8764a77ce09fd" target="_top" xlink:title=" ">
<polygon fill="none" stroke="black" points="1078,-386.5 1078,-405.5 1200,-405.5 1200,-386.5 1078,-386.5"/>
<text text-anchor="middle" x="1139" y="-393.5" font-family="Helvetica,sans-Serif" font-size="10.00">carta::BasicStats::join</text>
</a>
</g>
</g>
<!-- Node34&#45;&gt;Node43 -->
<g id="edge51" class="edge">
<title>Node34&#45;&gt;Node43</title>
<path fill="none" stroke="midnightblue" d="M979.38,-434.93C1001.57,-428.48 1028,-421.06 1052,-415 1061.78,-412.53 1072.24,-410.07 1082.37,-407.78"/>
<polygon fill="midnightblue" stroke="midnightblue" points="1083.36,-411.15 1092.36,-405.55 1081.83,-404.31 1083.36,-411.15"/>
</g>
<!-- Node44 -->
<g id="node44" class="node">
<title>Node44</title>
<g id="a_node44"><a xlink:href="classMessage.html#af13c35c35a5f3fd50a68319be9287611" target="_top" xlink:title=" ">
<polygon fill="none" stroke="black" points="1052,-348.5 1052,-367.5 1226,-367.5 1226,-348.5 1052,-348.5"/>
<text text-anchor="middle" x="1139" y="-355.5" font-family="Helvetica,sans-Serif" font-size="10.00">Message::RegionHistogramData</text>
</a>
</g>
</g>
<!-- Node34&#45;&gt;Node44 -->
<g id="edge52" class="edge">
<title>Node34&#45;&gt;Node44</title>
<path fill="none" stroke="midnightblue" d="M987.28,-434.83C997.32,-430.87 1007.31,-425.98 1016,-420 1036.53,-405.87 1030.69,-389.93 1052,-377 1055.6,-374.81 1059.43,-372.88 1063.38,-371.16"/>
<polygon fill="midnightblue" stroke="midnightblue" points="1064.72,-374.4 1072.81,-367.55 1062.22,-367.86 1064.72,-374.4"/>
</g>
<!-- Node36 -->
<g id="node36" class="node">
<title>Node36</title>
<g id="a_node36"><a xlink:href="classcarta_1_1Histogram.html#a81787c73b6b71a8495c8c3ffcf4d7c46" target="_top" xlink:title=" ">
<polygon fill="none" stroke="black" points="1277,-495 1277,-525 1441,-525 1441,-495 1277,-495"/>
<text text-anchor="start" x="1285" y="-513" font-family="Helvetica,sans-Serif" font-size="10.00">carta::Histogram::Consistency</text>
<text text-anchor="middle" x="1359" y="-502" font-family="Helvetica,sans-Serif" font-size="10.00">Check</text>
</a>
</g>
</g>
<!-- Node35&#45;&gt;Node36 -->
<g id="edge43" class="edge">
<title>Node35&#45;&gt;Node36</title>
<path fill="none" stroke="midnightblue" d="M1200.73,-525.87C1221.16,-523.81 1244.42,-521.46 1266.68,-519.22"/>
<polygon fill="midnightblue" stroke="midnightblue" points="1267.22,-522.68 1276.82,-518.19 1266.52,-515.71 1267.22,-522.68"/>
</g>
<!-- Node40 -->
<g id="node40" class="node">
<title>Node40</title>
<g id="a_node40"><a xlink:href="classcarta_1_1Histogram.html#a1efcb688ab3b0d60a6216d14d87fef5e" target="_top" xlink:title=" ">
<polygon fill="none" stroke="black" points="1262,-544.5 1262,-563.5 1456,-563.5 1456,-544.5 1262,-544.5"/>
<text text-anchor="middle" x="1359" y="-551.5" font-family="Helvetica,sans-Serif" font-size="10.00">carta::Histogram::GetHistogramBins</text>
</a>
</g>
</g>
<!-- Node35&#45;&gt;Node40 -->
<g id="edge47" class="edge">
<title>Node35&#45;&gt;Node40</title>
<path fill="none" stroke="midnightblue" d="M1200.73,-538.13C1217.2,-539.79 1235.52,-541.64 1253.67,-543.47"/>
<polygon fill="midnightblue" stroke="midnightblue" points="1253.42,-546.96 1263.72,-544.49 1254.12,-540 1253.42,-546.96"/>
</g>
<!-- Node37 -->
<g id="node37" class="node">
<title>Node37</title>
<g id="a_node37"><a xlink:href="classcarta_1_1Histogram.html#ae1f537df539939fde102e25b0b42a9aa" target="_top" xlink:title=" ">
<polygon fill="none" stroke="black" points="1499.5,-538.5 1499.5,-557.5 1657.5,-557.5 1657.5,-538.5 1499.5,-538.5"/>
<text text-anchor="middle" x="1578.5" y="-545.5" font-family="Helvetica,sans-Serif" font-size="10.00">carta::Histogram::GetMaxVal</text>
</a>
</g>
</g>
<!-- Node36&#45;&gt;Node37 -->
<g id="edge44" class="edge">
<title>Node36&#45;&gt;Node37</title>
<path fill="none" stroke="midnightblue" d="M1441.3,-524.2C1464.95,-528.34 1490.45,-532.79 1512.92,-536.72"/>
<polygon fill="midnightblue" stroke="midnightblue" points="1512.56,-540.21 1523.01,-538.48 1513.76,-533.31 1512.56,-540.21"/>
</g>
<!-- Node38 -->
<g id="node38" class="node">
<title>Node38</title>
<g id="a_node38"><a xlink:href="classcarta_1_1Histogram.html#a751eb7e111b661cf77a44995db151a3b" target="_top" xlink:title=" ">
<polygon fill="none" stroke="black" points="1501,-500.5 1501,-519.5 1656,-519.5 1656,-500.5 1501,-500.5"/>
<text text-anchor="middle" x="1578.5" y="-507.5" font-family="Helvetica,sans-Serif" font-size="10.00">carta::Histogram::GetMinVal</text>
</a>
</g>
</g>
<!-- Node36&#45;&gt;Node38 -->
<g id="edge45" class="edge">
<title>Node36&#45;&gt;Node38</title>
<path fill="none" stroke="midnightblue" d="M1441.3,-510C1457.49,-510 1474.54,-510 1490.9,-510"/>
<polygon fill="midnightblue" stroke="midnightblue" points="1490.98,-513.5 1500.98,-510 1490.98,-506.5 1490.98,-513.5"/>
</g>
<!-- Node39 -->
<g id="node39" class="node">
<title>Node39</title>
<g id="a_node39"><a xlink:href="classcarta_1_1Histogram.html#a70adaf5681547ca8d7aa22550bfb3206" target="_top" xlink:title=" ">
<polygon fill="none" stroke="black" points="1504,-462.5 1504,-481.5 1653,-481.5 1653,-462.5 1504,-462.5"/>
<text text-anchor="middle" x="1578.5" y="-469.5" font-family="Helvetica,sans-Serif" font-size="10.00">carta::Histogram::GetNbins</text>
</a>
</g>
</g>
<!-- Node36&#45;&gt;Node39 -->
<g id="edge46" class="edge">
<title>Node36&#45;&gt;Node39</title>
<path fill="none" stroke="midnightblue" d="M1441.3,-495.8C1464.95,-491.66 1490.45,-487.21 1512.92,-483.28"/>
<polygon fill="midnightblue" stroke="midnightblue" points="1513.76,-486.69 1523.01,-481.52 1512.56,-479.79 1513.76,-486.69"/>
</g>
<!-- Node45&#45;&gt;Node11 -->
<g id="edge58" class="edge">
<title>Node45&#45;&gt;Node11</title>
<path fill="none" stroke="midnightblue" d="M783.6,-428.97C790.62,-426.34 797.59,-423.36 804,-420 821.96,-410.59 821.77,-400.87 840,-392 912.5,-356.71 939.12,-372.32 1016,-348 1041.85,-339.82 1070.13,-329.05 1092.95,-319.87"/>
<polygon fill="midnightblue" stroke="midnightblue" points="1094.43,-323.06 1102.38,-316.05 1091.8,-316.57 1094.43,-323.06"/>
</g>
<!-- Node47 -->
<g id="node47" class="node">
<title>Node47</title>
<g id="a_node47"><a xlink:href="classcarta_1_1Session.html#a120e85ac57a07414f829a228618ab5fe" target="_top" xlink:title=" ">
<polygon fill="none" stroke="black" points="853.5,-233 853.5,-263 1002.5,-263 1002.5,-233 853.5,-233"/>
<text text-anchor="start" x="861.5" y="-251" font-family="Helvetica,sans-Serif" font-size="10.00">carta::Session::SendSpatial</text>
<text text-anchor="middle" x="928" y="-240" font-family="Helvetica,sans-Serif" font-size="10.00">ProfileData</text>
</a>
</g>
</g>
<!-- Node46&#45;&gt;Node47 -->
<g id="edge60" class="edge">
<title>Node46&#45;&gt;Node47</title>
<path fill="none" stroke="midnightblue" d="M787.56,-330.94C793.34,-328.39 798.93,-325.43 804,-322 824.93,-307.85 819.27,-292.44 840,-278 845.95,-273.86 852.52,-270.24 859.31,-267.09"/>
<polygon fill="midnightblue" stroke="midnightblue" points="860.85,-270.24 868.66,-263.08 858.09,-263.8 860.85,-270.24"/>
</g>
<!-- Node47&#45;&gt;Node11 -->
<g id="edge61" class="edge">
<title>Node47&#45;&gt;Node11</title>
<path fill="none" stroke="midnightblue" d="M988.33,-263.05C1013.37,-269.4 1042.7,-276.83 1068.72,-283.43"/>
<polygon fill="midnightblue" stroke="midnightblue" points="1067.97,-286.85 1078.52,-285.92 1069.69,-280.07 1067.97,-286.85"/>
</g>
<!-- Node47&#45;&gt;Node21 -->
<g id="edge62" class="edge">
<title>Node47&#45;&gt;Node21</title>
<path fill="none" stroke="midnightblue" d="M1002.69,-248C1017.63,-248 1033.49,-248 1048.9,-248"/>
<polygon fill="midnightblue" stroke="midnightblue" points="1048.95,-251.5 1058.95,-248 1048.95,-244.5 1048.95,-251.5"/>
</g>
<!-- Node49&#45;&gt;Node33 -->
<g id="edge65" class="edge">
<title>Node49&#45;&gt;Node33</title>
<path fill="none" stroke="midnightblue" d="M580.69,-341.52C591.59,-344.06 602.77,-347.18 613,-351 630.15,-357.4 632.18,-363.78 649,-371 653.48,-372.92 658.17,-374.77 662.92,-376.53"/>
<polygon fill="midnightblue" stroke="midnightblue" points="662.13,-379.96 672.72,-379.99 664.46,-373.36 662.13,-379.96"/>
</g>
<!-- Node49&#45;&gt;Node45 -->
<g id="edge66" class="edge">
<title>Node49&#45;&gt;Node45</title>
<path fill="none" stroke="midnightblue" d="M596.58,-341.66C602.44,-344.15 608.01,-347.22 613,-351 640.57,-371.89 622.48,-397.8 649,-420 650.52,-421.27 652.11,-422.48 653.75,-423.62"/>
<polygon fill="midnightblue" stroke="midnightblue" points="652.01,-426.66 662.38,-428.82 655.62,-420.66 652.01,-426.66"/>
</g>
<!-- Node49&#45;&gt;Node48 -->
<g id="edge69" class="edge">
<title>Node49&#45;&gt;Node48</title>
<path fill="none" stroke="midnightblue" d="M577.7,-322.48C596.57,-319.23 618.15,-315.51 638.89,-311.93"/>
<polygon fill="midnightblue" stroke="midnightblue" points="639.73,-315.34 648.99,-310.19 638.54,-308.44 639.73,-315.34"/>
</g>
<!-- Node50 -->
<g id="node50" class="node">
<title>Node50</title>
<g id="a_node50"><a xlink:href="classcarta_1_1Session.html#a44647c44e04c9b96638cc87980efbf77" target="_top" xlink:title=" ">
<polygon fill="none" stroke="black" points="652,-233 652,-263 801,-263 801,-233 652,-233"/>
<text text-anchor="start" x="660" y="-251" font-family="Helvetica,sans-Serif" font-size="10.00">carta::Session::SendSpatial</text>
<text text-anchor="middle" x="726.5" y="-240" font-family="Helvetica,sans-Serif" font-size="10.00">ProfileDataByRegionId</text>
</a>
</g>
</g>
<!-- Node49&#45;&gt;Node50 -->
<g id="edge67" class="edge">
<title>Node49&#45;&gt;Node50</title>
<path fill="none" stroke="midnightblue" d="M541.05,-322.49C565.44,-310.18 609.78,-288.49 649,-273 654.71,-270.74 660.72,-268.52 666.75,-266.4"/>
<polygon fill="midnightblue" stroke="midnightblue" points="667.9,-269.7 676.21,-263.14 665.62,-263.09 667.9,-269.7"/>
</g>
<!-- Node50&#45;&gt;Node47 -->
<g id="edge68" class="edge">
<title>Node50&#45;&gt;Node47</title>
<path fill="none" stroke="midnightblue" d="M801.22,-248C814.89,-248 829.25,-248 843.19,-248"/>
<polygon fill="midnightblue" stroke="midnightblue" points="843.25,-251.5 853.25,-248 843.25,-244.5 843.25,-251.5"/>
</g>
</g>
</svg>
