<?xml version="1.0" encoding="UTF-8" standalone="no"?>
<!DOCTYPE svg PUBLIC "-//W3C//DTD SVG 1.1//EN"
 "http://www.w3.org/Graphics/SVG/1.1/DTD/svg11.dtd">
<!-- Generated by graphviz version 2.43.0 (0)
 -->
<!-- Title: carta::FileLoader::LoadStats3DHist Pages: 1 -->
<svg width="260pt" height="137pt"
 viewBox="0.00 0.00 260.00 137.00" xmlns="http://www.w3.org/2000/svg" xmlns:xlink="http://www.w3.org/1999/xlink">
<g id="graph0" class="graph" transform="scale(1 1) rotate(0) translate(4 133)">
<title>carta::FileLoader::LoadStats3DHist</title>
<!-- Node1 -->
<g id="node1" class="node">
<title>Node1</title>
<g id="a_node1"><a xlink:title=" ">
<polygon fill="#bfbfbf" stroke="black" points="0,-49.5 0,-79.5 104,-79.5 104,-49.5 0,-49.5"/>
<text text-anchor="start" x="8" y="-67.5" font-family="Helvetica,sans-Serif" font-size="10.00">carta::FileLoader::</text>
<text text-anchor="middle" x="52" y="-56.5" font-family="Helvetica,sans-Serif" font-size="10.00">LoadStats3DHist</text>
</a>
</g>
</g>
<!-- Node2 -->
<g id="node2" class="node">
<title>Node2</title>
<g id="a_node2"><a xlink:href="classcarta_1_1FileLoader.html#a73a053cfcde68783b97d10675f83cc4c" target="_top" xlink:title=" ">
<polygon fill="none" stroke="black" points="144,-98.5 144,-128.5 248,-128.5 248,-98.5 144,-98.5"/>
<text text-anchor="start" x="152" y="-116.5" font-family="Helvetica,sans-Serif" font-size="10.00">carta::FileLoader::</text>
<text text-anchor="middle" x="196" y="-105.5" font-family="Helvetica,sans-Serif" font-size="10.00">GetStatsData</text>
</a>
</g>
</g>
<!-- Node1&#45;&gt;Node2 -->
<g id="edge1" class="edge">
<title>Node1&#45;&gt;Node2</title>
<path fill="none" stroke="midnightblue" d="M96.76,-79.6C110.94,-84.49 126.81,-89.97 141.6,-95.07"/>
<polygon fill="midnightblue" stroke="midnightblue" points="140.54,-98.41 151.14,-98.36 142.83,-91.79 140.54,-98.41"/>
</g>
<!-- Node3 -->
<g id="node3" class="node">
<title>Node3</title>
<g id="a_node3"><a xlink:href="classcarta_1_1FileLoader.html#a50ec5a4c8e9e962cfd7824b6fa8fafac" target="_top" xlink:title=" ">
<polygon fill="none" stroke="black" points="140,-49.5 140,-79.5 252,-79.5 252,-49.5 140,-49.5"/>
<text text-anchor="start" x="148" y="-67.5" font-family="Helvetica,sans-Serif" font-size="10.00">carta::FileLoader::</text>
<text text-anchor="middle" x="196" y="-56.5" font-family="Helvetica,sans-Serif" font-size="10.00">GetStatsDataShape</text>
</a>
</g>
</g>
<!-- Node1&#45;&gt;Node3 -->
<g id="edge2" class="edge">
<title>Node1&#45;&gt;Node3</title>
<path fill="none" stroke="midnightblue" d="M104.27,-64.5C112.6,-64.5 121.33,-64.5 129.95,-64.5"/>
<polygon fill="midnightblue" stroke="midnightblue" points="129.97,-68 139.97,-64.5 129.97,-61 129.97,-68"/>
</g>
<!-- Node4 -->
<g id="node4" class="node">
<title>Node4</title>
<g id="a_node4"><a xlink:href="classcarta_1_1FileLoader.html#aa240e8e3019302df9f2ab7b24d4c5c04" target="_top" xlink:title=" ">
<polygon fill="none" stroke="black" points="144,-0.5 144,-30.5 248,-30.5 248,-0.5 144,-0.5"/>
<text text-anchor="start" x="152" y="-18.5" font-family="Helvetica,sans-Serif" font-size="10.00">carta::FileLoader::</text>
<text text-anchor="middle" x="196" y="-7.5" font-family="Helvetica,sans-Serif" font-size="10.00">HasData</text>
</a>
</g>
</g>
<!-- Node1&#45;&gt;Node4 -->
<g id="edge3" class="edge">
<title>Node1&#45;&gt;Node4</title>
<path fill="none" stroke="midnightblue" d="M96.76,-49.4C110.94,-44.51 126.81,-39.03 141.6,-33.93"/>
<polygon fill="midnightblue" stroke="midnightblue" points="142.83,-37.21 151.14,-30.64 140.54,-30.59 142.83,-37.21"/>
</g>
</g>
</svg>
