<?xml version="1.0" encoding="UTF-8" standalone="no"?>
<!DOCTYPE svg PUBLIC "-//W3C//DTD SVG 1.1//EN"
 "http://www.w3.org/Graphics/SVG/1.1/DTD/svg11.dtd">
<!-- Generated by graphviz version 2.43.0 (0)
 -->
<!-- Title: carta::BasicStatsCalculator::GetStats Pages: 1 -->
<svg width="1216pt" height="225pt"
 viewBox="0.00 0.00 1216.00 225.00" xmlns="http://www.w3.org/2000/svg" xmlns:xlink="http://www.w3.org/1999/xlink">
<g id="graph0" class="graph" transform="scale(1 1) rotate(0) translate(4 221)">
<title>carta::BasicStatsCalculator::GetStats</title>
<!-- Node1 -->
<g id="node1" class="node">
<title>Node1</title>
<g id="a_node1"><a xlink:title=" ">
<polygon fill="#bfbfbf" stroke="black" points="1060,-98.5 1060,-128.5 1208,-128.5 1208,-98.5 1060,-98.5"/>
<text text-anchor="start" x="1068" y="-116.5" font-family="Helvetica,sans-Serif" font-size="10.00">carta::BasicStatsCalculator</text>
<text text-anchor="middle" x="1134" y="-105.5" font-family="Helvetica,sans-Serif" font-size="10.00">::GetStats</text>
</a>
</g>
</g>
<!-- Node2 -->
<g id="node2" class="node">
<title>Node2</title>
<g id="a_node2"><a xlink:href="namespacecarta.html#a96f7cab56516141317895bada342c0b1" target="_top" xlink:title=" ">
<polygon fill="none" stroke="black" points="905,-104 905,-123 1024,-123 1024,-104 905,-104"/>
<text text-anchor="middle" x="964.5" y="-111" font-family="Helvetica,sans-Serif" font-size="10.00">carta::CalcBasicStats</text>
</a>
</g>
</g>
<!-- Node1&#45;&gt;Node2 -->
<g id="edge1" class="edge">
<title>Node1&#45;&gt;Node2</title>
<path fill="none" stroke="midnightblue" d="M1049.47,-113.5C1040.89,-113.5 1032.3,-113.5 1024.07,-113.5"/>
<polygon fill="midnightblue" stroke="midnightblue" points="1049.53,-117 1059.53,-113.5 1049.53,-110 1049.53,-117"/>
</g>
<!-- Node3 -->
<g id="node3" class="node">
<title>Node3</title>
<g id="a_node3"><a xlink:href="classcarta_1_1Frame.html#a1bd6cad34fcc337311218150f6771850" target="_top" xlink:title=" ">
<polygon fill="none" stroke="black" points="715,-148 715,-167 867,-167 867,-148 715,-148"/>
<text text-anchor="middle" x="791" y="-155" font-family="Helvetica,sans-Serif" font-size="10.00">carta::Frame::GetBasicStats</text>
</a>
</g>
</g>
<!-- Node2&#45;&gt;Node3 -->
<g id="edge2" class="edge">
<title>Node2&#45;&gt;Node3</title>
<path fill="none" stroke="midnightblue" d="M918.17,-125.66C902.6,-129.79 885.05,-134.4 869,-138.5 856.73,-141.64 843.33,-144.97 831.2,-147.96"/>
<polygon fill="midnightblue" stroke="midnightblue" points="919.32,-128.97 928.09,-123.02 917.52,-122.21 919.32,-128.97"/>
</g>
<!-- Node6 -->
<g id="node6" class="node">
<title>Node6</title>
<g id="a_node6"><a xlink:href="classcarta_1_1RegionHandler.html#a7797d9c5eca341dcb490a338fc66967a" target="_top" xlink:title=" ">
<polygon fill="none" stroke="black" points="717,-98.5 717,-128.5 865,-128.5 865,-98.5 717,-98.5"/>
<text text-anchor="start" x="725" y="-116.5" font-family="Helvetica,sans-Serif" font-size="10.00">carta::RegionHandler</text>
<text text-anchor="middle" x="791" y="-105.5" font-family="Helvetica,sans-Serif" font-size="10.00">::GetRegionHistogramData</text>
</a>
</g>
</g>
<!-- Node2&#45;&gt;Node6 -->
<g id="edge6" class="edge">
<title>Node2&#45;&gt;Node6</title>
<path fill="none" stroke="midnightblue" d="M894.89,-113.5C885.11,-113.5 875.01,-113.5 865.14,-113.5"/>
<polygon fill="midnightblue" stroke="midnightblue" points="894.96,-117 904.96,-113.5 894.96,-110 894.96,-117"/>
</g>
<!-- Node8 -->
<g id="node8" class="node">
<title>Node8</title>
<g id="a_node8"><a xlink:href="classcarta_1_1RegionHandler.html#ab69f418daea6a6ecf8c58ed9434a6242" target="_top" xlink:title=" ">
<polygon fill="none" stroke="black" points="713,-49.5 713,-79.5 869,-79.5 869,-49.5 713,-49.5"/>
<text text-anchor="start" x="721" y="-67.5" font-family="Helvetica,sans-Serif" font-size="10.00">carta::RegionHandler</text>
<text text-anchor="middle" x="791" y="-56.5" font-family="Helvetica,sans-Serif" font-size="10.00">::GetTemporaryRegionProfile</text>
</a>
</g>
</g>
<!-- Node2&#45;&gt;Node8 -->
<g id="edge8" class="edge">
<title>Node2&#45;&gt;Node8</title>
<path fill="none" stroke="midnightblue" d="M920.22,-101.13C897.26,-94.57 868.86,-86.46 844.63,-79.54"/>
<polygon fill="midnightblue" stroke="midnightblue" points="919.45,-104.55 930.03,-103.94 921.37,-97.82 919.45,-104.55"/>
</g>
<!-- Node4 -->
<g id="node4" class="node">
<title>Node4</title>
<g id="a_node4"><a xlink:href="classcarta_1_1Frame.html#a3a4bc30034d44066062d5794044da1b6" target="_top" xlink:title=" ">
<polygon fill="none" stroke="black" points="516,-186.5 516,-216.5 665,-216.5 665,-186.5 516,-186.5"/>
<text text-anchor="start" x="524" y="-204.5" font-family="Helvetica,sans-Serif" font-size="10.00">carta::Frame::FillHistogram</text>
<text text-anchor="middle" x="590.5" y="-193.5" font-family="Helvetica,sans-Serif" font-size="10.00">FromFrameCache</text>
</a>
</g>
</g>
<!-- Node3&#45;&gt;Node4 -->
<g id="edge3" class="edge">
<title>Node3&#45;&gt;Node4</title>
<path fill="none" stroke="midnightblue" d="M737.03,-169.24C713.21,-174.52 684.82,-180.81 659.47,-186.43"/>
<polygon fill="midnightblue" stroke="midnightblue" points="737.92,-172.63 746.93,-167.05 736.41,-165.79 737.92,-172.63"/>
</g>
<!-- Node5 -->
<g id="node5" class="node">
<title>Node5</title>
<g id="a_node5"><a xlink:href="classcarta_1_1Frame.html#add5c6cc7f22b6a5d87d7080d29f214fb" target="_top" xlink:title=" ">
<polygon fill="none" stroke="black" points="336,-164.5 336,-194.5 468,-194.5 468,-164.5 336,-164.5"/>
<text text-anchor="start" x="344" y="-182.5" font-family="Helvetica,sans-Serif" font-size="10.00">carta::Frame::FillRegion</text>
<text text-anchor="middle" x="402" y="-171.5" font-family="Helvetica,sans-Serif" font-size="10.00">HistogramData</text>
</a>
</g>
</g>
<!-- Node3&#45;&gt;Node5 -->
<g id="edge5" class="edge">
<title>Node3&#45;&gt;Node5</title>
<path fill="none" stroke="midnightblue" d="M704.62,-162.35C633.33,-166.41 533.21,-172.1 468.22,-175.79"/>
<polygon fill="midnightblue" stroke="midnightblue" points="705.14,-165.83 714.92,-161.77 704.74,-158.84 705.14,-165.83"/>
</g>
<!-- Node4&#45;&gt;Node5 -->
<g id="edge4" class="edge">
<title>Node4&#45;&gt;Node5</title>
<path fill="none" stroke="midnightblue" d="M505.72,-191.62C493.07,-190.13 480.19,-188.61 468.02,-187.17"/>
<polygon fill="midnightblue" stroke="midnightblue" points="505.45,-195.11 515.79,-192.81 506.27,-188.16 505.45,-195.11"/>
</g>
<!-- Node7 -->
<g id="node7" class="node">
<title>Node7</title>
<g id="a_node7"><a xlink:href="classcarta_1_1RegionHandler.html#a781809901786ab1cf5a4705a77ebe9bb" target="_top" xlink:title=" ">
<polygon fill="none" stroke="black" points="518,-98.5 518,-128.5 663,-128.5 663,-98.5 518,-98.5"/>
<text text-anchor="start" x="526" y="-116.5" font-family="Helvetica,sans-Serif" font-size="10.00">carta::RegionHandler</text>
<text text-anchor="middle" x="590.5" y="-105.5" font-family="Helvetica,sans-Serif" font-size="10.00">::FillRegionHistogramData</text>
</a>
</g>
</g>
<!-- Node6&#45;&gt;Node7 -->
<g id="edge7" class="edge">
<title>Node6&#45;&gt;Node7</title>
<path fill="none" stroke="midnightblue" d="M706.52,-113.5C692.08,-113.5 677.18,-113.5 663.09,-113.5"/>
<polygon fill="midnightblue" stroke="midnightblue" points="706.93,-117 716.93,-113.5 706.93,-110 706.93,-117"/>
</g>
<!-- Node9 -->
<g id="node9" class="node">
<title>Node9</title>
<g id="a_node9"><a xlink:href="classcarta_1_1RegionHandler.html#abb5e03ccc3f1a8e0026c0b13ba5ed0d5" target="_top" xlink:title=" ">
<polygon fill="none" stroke="black" points="504,-49.5 504,-79.5 677,-79.5 677,-49.5 504,-49.5"/>
<text text-anchor="start" x="512" y="-67.5" font-family="Helvetica,sans-Serif" font-size="10.00">carta::RegionHandler</text>
<text text-anchor="middle" x="590.5" y="-56.5" font-family="Helvetica,sans-Serif" font-size="10.00">::GetFixedAngularRegionProfiles</text>
</a>
</g>
</g>
<!-- Node8&#45;&gt;Node9 -->
<g id="edge9" class="edge">
<title>Node8&#45;&gt;Node9</title>
<path fill="none" stroke="midnightblue" d="M702.95,-64.5C694.35,-64.5 685.63,-64.5 677.05,-64.5"/>
<polygon fill="midnightblue" stroke="midnightblue" points="702.97,-68 712.97,-64.5 702.97,-61 702.97,-68"/>
</g>
<!-- Node14 -->
<g id="node14" class="node">
<title>Node14</title>
<g id="a_node14"><a xlink:href="classcarta_1_1RegionHandler.html#a678aa8c7913af74fd1b483b3bd943a4c" target="_top" xlink:title=" ">
<polygon fill="none" stroke="black" points="511.5,-0.5 511.5,-30.5 669.5,-30.5 669.5,-0.5 511.5,-0.5"/>
<text text-anchor="start" x="519.5" y="-18.5" font-family="Helvetica,sans-Serif" font-size="10.00">carta::RegionHandler</text>
<text text-anchor="middle" x="590.5" y="-7.5" font-family="Helvetica,sans-Serif" font-size="10.00">::GetFixedPixelRegionProfiles</text>
</a>
</g>
</g>
<!-- Node8&#45;&gt;Node14 -->
<g id="edge14" class="edge">
<title>Node8&#45;&gt;Node14</title>
<path fill="none" stroke="midnightblue" d="M719.2,-47.02C697.32,-41.62 673.43,-35.72 652.29,-30.51"/>
<polygon fill="midnightblue" stroke="midnightblue" points="718.55,-50.47 729.09,-49.47 720.22,-43.67 718.55,-50.47"/>
</g>
<!-- Node10 -->
<g id="node10" class="node">
<title>Node10</title>
<g id="a_node10"><a xlink:href="classcarta_1_1RegionHandler.html#af0631842fe196a21fafb16e61b71401d" target="_top" xlink:title=" ">
<polygon fill="none" stroke="black" points="342.5,-25.5 342.5,-55.5 461.5,-55.5 461.5,-25.5 342.5,-25.5"/>
<text text-anchor="start" x="350.5" y="-43.5" font-family="Helvetica,sans-Serif" font-size="10.00">carta::RegionHandler</text>
<text text-anchor="middle" x="402" y="-32.5" font-family="Helvetica,sans-Serif" font-size="10.00">::GetLineProfiles</text>
</a>
</g>
</g>
<!-- Node9&#45;&gt;Node10 -->
<g id="edge10" class="edge">
<title>Node9&#45;&gt;Node10</title>
<path fill="none" stroke="midnightblue" d="M493.84,-52.19C482.88,-50.78 471.98,-49.38 461.72,-48.06"/>
<polygon fill="midnightblue" stroke="midnightblue" points="493.53,-55.68 503.89,-53.48 494.42,-48.74 493.53,-55.68"/>
</g>
<!-- Node11 -->
<g id="node11" class="node">
<title>Node11</title>
<g id="a_node11"><a xlink:href="classcarta_1_1RegionHandler.html#a53807aa22abb92b35725054a015e12aa" target="_top" xlink:title=" ">
<polygon fill="none" stroke="black" points="181,-50.5 181,-80.5 300,-80.5 300,-50.5 181,-50.5"/>
<text text-anchor="start" x="189" y="-68.5" font-family="Helvetica,sans-Serif" font-size="10.00">carta::RegionHandler</text>
<text text-anchor="middle" x="240.5" y="-57.5" font-family="Helvetica,sans-Serif" font-size="10.00">::CalculatePvImage</text>
</a>
</g>
</g>
<!-- Node10&#45;&gt;Node11 -->
<g id="edge11" class="edge">
<title>Node10&#45;&gt;Node11</title>
<path fill="none" stroke="midnightblue" d="M332,-51.31C321.4,-52.98 310.54,-54.68 300.2,-56.3"/>
<polygon fill="midnightblue" stroke="midnightblue" points="332.72,-54.74 342.06,-49.74 331.64,-47.83 332.72,-54.74"/>
</g>
<!-- Node12 -->
<g id="node12" class="node">
<title>Node12</title>
<g id="a_node12"><a xlink:href="classcarta_1_1RegionHandler.html#acf0d1aa0e6368d33b4631f3c383b3349" target="_top" xlink:title=" ">
<polygon fill="none" stroke="black" points="181,-1.5 181,-31.5 300,-31.5 300,-1.5 181,-1.5"/>
<text text-anchor="start" x="189" y="-19.5" font-family="Helvetica,sans-Serif" font-size="10.00">carta::RegionHandler</text>
<text text-anchor="middle" x="240.5" y="-8.5" font-family="Helvetica,sans-Serif" font-size="10.00">::GetLineSpatialData</text>
</a>
</g>
</g>
<!-- Node10&#45;&gt;Node12 -->
<g id="edge12" class="edge">
<title>Node10&#45;&gt;Node12</title>
<path fill="none" stroke="midnightblue" d="M332,-30.12C321.4,-28.52 310.54,-26.89 300.2,-25.33"/>
<polygon fill="midnightblue" stroke="midnightblue" points="331.65,-33.6 342.06,-31.63 332.69,-26.68 331.65,-33.6"/>
</g>
<!-- Node13 -->
<g id="node13" class="node">
<title>Node13</title>
<g id="a_node13"><a xlink:href="classcarta_1_1RegionHandler.html#a6bbb668cf434d85d9be739191dd15c19" target="_top" xlink:title=" ">
<polygon fill="none" stroke="black" points="0,-1.5 0,-31.5 145,-31.5 145,-1.5 0,-1.5"/>
<text text-anchor="start" x="8" y="-19.5" font-family="Helvetica,sans-Serif" font-size="10.00">carta::RegionHandler</text>
<text text-anchor="middle" x="72.5" y="-8.5" font-family="Helvetica,sans-Serif" font-size="10.00">::FillLineSpatialProfileData</text>
</a>
</g>
</g>
<!-- Node12&#45;&gt;Node13 -->
<g id="edge13" class="edge">
<title>Node12&#45;&gt;Node13</title>
<path fill="none" stroke="midnightblue" d="M170.79,-16.5C162.33,-16.5 153.67,-16.5 145.17,-16.5"/>
<polygon fill="midnightblue" stroke="midnightblue" points="170.97,-20 180.97,-16.5 170.97,-13 170.97,-20"/>
</g>
<!-- Node14&#45;&gt;Node10 -->
<g id="edge15" class="edge">
<title>Node14&#45;&gt;Node10</title>
<path fill="none" stroke="midnightblue" d="M501.27,-27.33C487.84,-29.13 474.27,-30.95 461.69,-32.63"/>
<polygon fill="midnightblue" stroke="midnightblue" points="502.04,-30.76 511.49,-25.96 501.11,-23.82 502.04,-30.76"/>
</g>
</g>
</svg>
