<?xml version="1.0" encoding="UTF-8" standalone="no"?>
<!DOCTYPE svg PUBLIC "-//W3C//DTD SVG 1.1//EN"
 "http://www.w3.org/Graphics/SVG/1.1/DTD/svg11.dtd">
<!-- Generated by graphviz version 2.43.0 (0)
 -->
<!-- Title: Message::Point Pages: 1 -->
<!--zoomable 522 -->
<svg id="main" version="1.1" xmlns="http://www.w3.org/2000/svg" xmlns:xlink="http://www.w3.org/1999/xlink" xml:space="preserve" onload="init(evt)">
<style type="text/css"><![CDATA[
.edge:hover path { stroke: red; }
.edge:hover polygon { stroke: red; fill: red; }
]]></style>
<script type="text/javascript"><![CDATA[
var edges = document.getElementsByTagName('g');
if (edges && edges.length) {
  for (var i=0;i<edges.length;i++) {
    if (edges[i].id.substr(0,4)=='edge') {
      edges[i].setAttribute('class','edge');
    }
  }
}
]]></script>
        <defs>
                <circle id="rim" cx="0" cy="0" r="7"/>
                <circle id="rim2" cx="0" cy="0" r="3.5"/>
                <g id="zoomPlus">
                        <use xlink:href="#rim" fill="#404040">
                                <set attributeName="fill" to="#808080" begin="zoomplus.mouseover" end="zoomplus.mouseout"/>
                        </use>
                        <path d="M-4,0h8M0,-4v8" fill="none" stroke="white" stroke-width="1.5" pointer-events="none"/>
                </g>
                <g id="zoomMin">
                        <use xlink:href="#rim" fill="#404040">
                                <set attributeName="fill" to="#808080" begin="zoomminus.mouseover" end="zoomminus.mouseout"/>
                        </use>
                        <path d="M-4,0h8" fill="none" stroke="white" stroke-width="1.5" pointer-events="none"/>
                </g>
                <g id="dirArrow">
                        <path fill="none" stroke="white" stroke-width="1.5" d="M0,-3.0v7 M-2.5,-0.5L0,-3.0L2.5,-0.5"/>
                </g>
               <g id="resetDef">
                       <use xlink:href="#rim2" fill="#404040">
                               <set attributeName="fill" to="#808080" begin="reset.mouseover" end="reset.mouseout"/>
                       </use>
               </g>
        </defs>

<script type="text/javascript">
var viewWidth = 1277;
var viewHeight = 522;
var sectionId = 'dynsection-16';
</script>
<script xlink:href="svgpan.js"/>
<svg id="graph" class="graph">
<g id="viewport">
<title>Message::Point</title>
<!-- Node1 -->
<g id="node1" class="node">
<title>Node1</title>
<g id="a_node1"><a xlink:title=" ">
<polygon fill="#bfbfbf" stroke="black" points="1178,-241.25 1178,-260.25 1269,-260.25 1269,-241.25 1178,-241.25"/>
<text text-anchor="middle" x="1223.5" y="-248.25" font-family="Helvetica,sans-Serif" font-size="10.00">Message::Point</text>
</a>
</g>
</g>
<!-- Node2 -->
<g id="node2" class="node">
<title>Node2</title>
<g id="a_node2"><a xlink:href="classcarta_1_1Frame.html#a141a8029b71bbbb13ee36461d73fdcf8" target="_top" xlink:title=" ">
<polygon fill="none" stroke="black" points="966,-494.25 966,-513.25 1142,-513.25 1142,-494.25 966,-494.25"/>
<text text-anchor="middle" x="1054" y="-501.25" font-family="Helvetica,sans-Serif" font-size="10.00">carta::Frame::CalculateMoments</text>
</a>
</g>
</g>
<!-- Node1&#45;&gt;Node2 -->
<g id="edge1" class="edge">
<title>Node1&#45;&gt;Node2</title>
<path fill="none" stroke="midnightblue" d="M1221.88,-270.58C1219.34,-315.86 1206.5,-427.35 1142,-484.75 1137.73,-488.55 1132.87,-491.65 1127.69,-494.17"/>
<polygon fill="midnightblue" stroke="midnightblue" points="1225.38,-270.72 1222.33,-260.57 1218.39,-270.4 1225.38,-270.72"/>
</g>
<!-- Node3 -->
<g id="node3" class="node">
<title>Node3</title>
<g id="a_node3"><a xlink:href="classcarta_1_1Region.html#a6772d2cd106dcffca1a19790810c86e3" target="_top" xlink:title=" ">
<polygon fill="none" stroke="black" points="970.5,-395.75 970.5,-425.75 1137.5,-425.75 1137.5,-395.75 970.5,-395.75"/>
<text text-anchor="start" x="978.5" y="-413.75" font-family="Helvetica,sans-Serif" font-size="10.00">carta::Region::GetApproximate</text>
<text text-anchor="middle" x="1054" y="-402.75" font-family="Helvetica,sans-Serif" font-size="10.00">EllipsePoints</text>
</a>
</g>
</g>
<!-- Node1&#45;&gt;Node3 -->
<g id="edge2" class="edge">
<title>Node1&#45;&gt;Node3</title>
<path fill="none" stroke="midnightblue" d="M1216.41,-269.95C1206.01,-299.57 1181.99,-356.17 1142,-386.75 1137.52,-390.18 1132.58,-393.11 1127.39,-395.63"/>
<polygon fill="midnightblue" stroke="midnightblue" points="1219.76,-270.95 1219.63,-260.36 1213.13,-268.72 1219.76,-270.95"/>
</g>
<!-- Node8 -->
<g id="node8" class="node">
<title>Node8</title>
<g id="a_node8"><a xlink:href="classcarta_1_1Region.html#adda0bc2f7922e1a8b2f5defd4ba5857b" target="_top" xlink:title=" ">
<polygon fill="none" stroke="black" points="970.5,-444.75 970.5,-474.75 1137.5,-474.75 1137.5,-444.75 970.5,-444.75"/>
<text text-anchor="start" x="978.5" y="-462.75" font-family="Helvetica,sans-Serif" font-size="10.00">carta::Region::GetApproximate</text>
<text text-anchor="middle" x="1054" y="-451.75" font-family="Helvetica,sans-Serif" font-size="10.00">PolygonPoints</text>
</a>
</g>
</g>
<!-- Node1&#45;&gt;Node8 -->
<g id="edge8" class="edge">
<title>Node1&#45;&gt;Node8</title>
<path fill="none" stroke="midnightblue" d="M1219.55,-270.78C1212.89,-308.76 1193.06,-391.43 1142,-435.75 1138.09,-439.14 1133.75,-442.05 1129.15,-444.56"/>
<polygon fill="midnightblue" stroke="midnightblue" points="1223.07,-270.95 1221.22,-260.52 1216.16,-269.83 1223.07,-270.95"/>
</g>
<!-- Node9 -->
<g id="node9" class="node">
<title>Node9</title>
<g id="a_node9"><a xlink:href="classcarta_1_1RegionHandler.html#a678aa8c7913af74fd1b483b3bd943a4c" target="_top" xlink:title=" ">
<polygon fill="none" stroke="black" points="559.5,-282.75 559.5,-312.75 717.5,-312.75 717.5,-282.75 559.5,-282.75"/>
<text text-anchor="start" x="567.5" y="-300.75" font-family="Helvetica,sans-Serif" font-size="10.00">carta::RegionHandler</text>
<text text-anchor="middle" x="638.5" y="-289.75" font-family="Helvetica,sans-Serif" font-size="10.00">::GetFixedPixelRegionProfiles</text>
</a>
</g>
</g>
<!-- Node1&#45;&gt;Node9 -->
<g id="edge10" class="edge">
<title>Node1&#45;&gt;Node9</title>
<path fill="none" stroke="midnightblue" d="M1201.08,-266.11C1185.4,-276.69 1163.24,-290.32 1142,-298.75 1067.53,-328.31 1043.74,-318.35 966,-337.75 949.89,-341.77 946.45,-345.51 930,-347.75 855.58,-357.89 834.68,-362.32 761,-347.75 727.43,-341.11 691.49,-325.09 667.48,-312.95"/>
<polygon fill="midnightblue" stroke="midnightblue" points="1203.27,-268.85 1209.51,-260.29 1199.29,-263.09 1203.27,-268.85"/>
</g>
<!-- Node14 -->
<g id="node14" class="node">
<title>Node14</title>
<g id="a_node14"><a xlink:href="classcarta_1_1Region.html#a0448c1c39e20d1a5428b4ccc688a288c" target="_top" xlink:title=" ">
<polygon fill="none" stroke="black" points="977.5,-346.75 977.5,-376.75 1130.5,-376.75 1130.5,-346.75 977.5,-346.75"/>
<text text-anchor="start" x="985.5" y="-364.75" font-family="Helvetica,sans-Serif" font-size="10.00">carta::Region::GetRectangle</text>
<text text-anchor="middle" x="1054" y="-353.75" font-family="Helvetica,sans-Serif" font-size="10.00">Midpoints</text>
</a>
</g>
</g>
<!-- Node1&#45;&gt;Node14 -->
<g id="edge15" class="edge">
<title>Node1&#45;&gt;Node14</title>
<path fill="none" stroke="midnightblue" d="M1209.03,-268.45C1194.35,-286.63 1169.28,-314.64 1142,-331.75 1132.53,-337.69 1121.73,-342.63 1111.04,-346.66"/>
<polygon fill="midnightblue" stroke="midnightblue" points="1211.93,-270.42 1215.37,-260.4 1206.43,-266.09 1211.93,-270.42"/>
</g>
<!-- Node15 -->
<g id="node15" class="node">
<title>Node15</title>
<g id="a_node15"><a xlink:href="classcarta_1_1RegionHandler.html#aa5624138d4060512518d54f2b6709a25" target="_top" xlink:title=" ">
<polygon fill="none" stroke="black" points="985.5,-258.75 985.5,-288.75 1122.5,-288.75 1122.5,-258.75 985.5,-258.75"/>
<text text-anchor="start" x="993.5" y="-276.75" font-family="Helvetica,sans-Serif" font-size="10.00">carta::RegionHandler</text>
<text text-anchor="middle" x="1054" y="-265.75" font-family="Helvetica,sans-Serif" font-size="10.00">::GetRegionSpectralData</text>
</a>
</g>
</g>
<!-- Node1&#45;&gt;Node15 -->
<g id="edge17" class="edge">
<title>Node1&#45;&gt;Node15</title>
<path fill="none" stroke="midnightblue" d="M1167.45,-258.31C1153.15,-260.27 1137.58,-262.41 1122.71,-264.45"/>
<polygon fill="midnightblue" stroke="midnightblue" points="1168.18,-261.74 1177.61,-256.91 1167.23,-254.81 1168.18,-261.74"/>
</g>
<!-- Node19 -->
<g id="node19" class="node">
<title>Node19</title>
<g id="a_node19"><a xlink:href="classcarta_1_1RegionHandler.html#a96526baa9d270362c6aadfa640156ca2" target="_top" xlink:title=" ">
<polygon fill="none" stroke="black" points="770,-209.75 770,-239.75 921,-239.75 921,-209.75 770,-209.75"/>
<text text-anchor="start" x="778" y="-227.75" font-family="Helvetica,sans-Serif" font-size="10.00">carta::RegionHandler</text>
<text text-anchor="middle" x="845.5" y="-216.75" font-family="Helvetica,sans-Serif" font-size="10.00">::GetTemporaryRegionState</text>
</a>
</g>
</g>
<!-- Node1&#45;&gt;Node19 -->
<g id="edge23" class="edge">
<title>Node1&#45;&gt;Node19</title>
<path fill="none" stroke="midnightblue" d="M1167.84,-246.97C1102.82,-242.47 993.93,-234.94 921.17,-229.91"/>
<polygon fill="midnightblue" stroke="midnightblue" points="1167.67,-250.47 1177.89,-247.66 1168.16,-243.48 1167.67,-250.47"/>
</g>
<!-- Node20 -->
<g id="node20" class="node">
<title>Node20</title>
<g id="a_node20"><a xlink:href="classcarta_1_1Ds9ImportExport.html#a53fe41fafb15e59d54b369f94c493dbf" target="_top" xlink:title=" ">
<polygon fill="none" stroke="black" points="989,-165.75 989,-195.75 1119,-195.75 1119,-165.75 989,-165.75"/>
<text text-anchor="start" x="997" y="-183.75" font-family="Helvetica,sans-Serif" font-size="10.00">carta::Ds9ImportExport</text>
<text text-anchor="middle" x="1054" y="-172.75" font-family="Helvetica,sans-Serif" font-size="10.00">::ImportEllipseRegion</text>
</a>
</g>
</g>
<!-- Node1&#45;&gt;Node20 -->
<g id="edge25" class="edge">
<title>Node1&#45;&gt;Node20</title>
<path fill="none" stroke="midnightblue" d="M1194.54,-236.8C1179.18,-229.33 1159.71,-220.17 1142,-212.75 1127.9,-206.84 1112.28,-200.91 1098.22,-195.79"/>
<polygon fill="midnightblue" stroke="midnightblue" points="1193,-239.95 1203.52,-241.21 1196.08,-233.66 1193,-239.95"/>
</g>
<!-- Node25 -->
<g id="node25" class="node">
<title>Node25</title>
<g id="a_node25"><a xlink:href="classcarta_1_1Ds9ImportExport.html#a37e4646b85ca0e2ff439b8dbaf70b80f" target="_top" xlink:title=" ">
<polygon fill="none" stroke="black" points="780.5,-72.75 780.5,-102.75 910.5,-102.75 910.5,-72.75 780.5,-72.75"/>
<text text-anchor="start" x="788.5" y="-90.75" font-family="Helvetica,sans-Serif" font-size="10.00">carta::Ds9ImportExport</text>
<text text-anchor="middle" x="845.5" y="-79.75" font-family="Helvetica,sans-Serif" font-size="10.00">::ImportPointRegion</text>
</a>
</g>
</g>
<!-- Node1&#45;&gt;Node25 -->
<g id="edge31" class="edge">
<title>Node1&#45;&gt;Node25</title>
<path fill="none" stroke="midnightblue" d="M1211.89,-232.42C1198.43,-210.89 1173.19,-175.7 1142,-156.75 1132.04,-150.7 994.59,-120.03 910.71,-101.68"/>
<polygon fill="midnightblue" stroke="midnightblue" points="1208.9,-234.24 1217.07,-240.99 1214.89,-230.62 1208.9,-234.24"/>
</g>
<!-- Node26 -->
<g id="node26" class="node">
<title>Node26</title>
<g id="a_node26"><a xlink:href="classcarta_1_1Ds9ImportExport.html#a787ce782df222509f8a6e3c57a1dd744" target="_top" xlink:title=" ">
<polygon fill="none" stroke="black" points="771.5,-23.75 771.5,-53.75 919.5,-53.75 919.5,-23.75 771.5,-23.75"/>
<text text-anchor="start" x="779.5" y="-41.75" font-family="Helvetica,sans-Serif" font-size="10.00">carta::Ds9ImportExport</text>
<text text-anchor="middle" x="845.5" y="-30.75" font-family="Helvetica,sans-Serif" font-size="10.00">::ImportPolygonLineRegion</text>
</a>
</g>
</g>
<!-- Node1&#45;&gt;Node26 -->
<g id="edge33" class="edge">
<title>Node1&#45;&gt;Node26</title>
<path fill="none" stroke="midnightblue" d="M1216.93,-231.3C1207.14,-200.81 1183.79,-142.21 1142,-112.75 1076.95,-66.89 1041.99,-103.4 966,-79.75 949.28,-74.55 946.42,-69.83 930,-63.75 920.49,-60.23 910.24,-56.84 900.29,-53.75"/>
<polygon fill="midnightblue" stroke="midnightblue" points="1213.68,-232.61 1219.94,-241.15 1220.37,-230.57 1213.68,-232.61"/>
</g>
<!-- Node27 -->
<g id="node27" class="node">
<title>Node27</title>
<g id="a_node27"><a xlink:href="classcarta_1_1Ds9ImportExport.html#a8cbf86a684a3f2f13658734c7d973126" target="_top" xlink:title=" ">
<polygon fill="none" stroke="black" points="985.5,-39.75 985.5,-69.75 1122.5,-69.75 1122.5,-39.75 985.5,-39.75"/>
<text text-anchor="start" x="993.5" y="-57.75" font-family="Helvetica,sans-Serif" font-size="10.00">carta::Ds9ImportExport</text>
<text text-anchor="middle" x="1054" y="-46.75" font-family="Helvetica,sans-Serif" font-size="10.00">::ImportRectangleRegion</text>
</a>
</g>
</g>
<!-- Node1&#45;&gt;Node27 -->
<g id="edge35" class="edge">
<title>Node1&#45;&gt;Node27</title>
<path fill="none" stroke="midnightblue" d="M1218.22,-231.11C1209.7,-196.63 1187.4,-125.03 1142,-84.75 1135.07,-78.6 1126.81,-73.7 1118.19,-69.79"/>
<polygon fill="midnightblue" stroke="midnightblue" points="1214.82,-231.98 1220.51,-240.92 1221.64,-230.39 1214.82,-231.98"/>
</g>
<!-- Node28 -->
<g id="node28" class="node">
<title>Node28</title>
<g id="a_node28"><a xlink:href="classMessage.html#a7305f83781e5ceeee5cb3243bd993062" target="_top" xlink:title=" ">
<polygon fill="none" stroke="black" points="1008.5,-1.25 1008.5,-20.25 1099.5,-20.25 1099.5,-1.25 1008.5,-1.25"/>
<text text-anchor="middle" x="1054" y="-8.25" font-family="Helvetica,sans-Serif" font-size="10.00">Message::Point</text>
</a>
</g>
</g>
<!-- Node1&#45;&gt;Node28 -->
<g id="edge37" class="edge">
<title>Node1&#45;&gt;Node28</title>
<path fill="none" stroke="midnightblue" d="M1221.34,-230.98C1217.7,-187.74 1202.75,-84.35 1142,-30.75 1130.38,-20.5 1114.56,-15.2 1099.6,-12.56"/>
<polygon fill="midnightblue" stroke="midnightblue" points="1217.86,-231.33 1222.07,-241.05 1224.84,-230.83 1217.86,-231.33"/>
</g>
<!-- Node4 -->
<g id="node4" class="node">
<title>Node4</title>
<g id="a_node4"><a xlink:href="classcarta_1_1Region.html#a32d9a2ea3526f6e914f4517a9c8ec011" target="_top" xlink:title=" ">
<polygon fill="none" stroke="black" points="768.5,-444.75 768.5,-474.75 922.5,-474.75 922.5,-444.75 768.5,-444.75"/>
<text text-anchor="start" x="776.5" y="-462.75" font-family="Helvetica,sans-Serif" font-size="10.00">carta::Region::GetReference</text>
<text text-anchor="middle" x="845.5" y="-451.75" font-family="Helvetica,sans-Serif" font-size="10.00">PolygonPoints</text>
</a>
</g>
</g>
<!-- Node3&#45;&gt;Node4 -->
<g id="edge3" class="edge">
<title>Node3&#45;&gt;Node4</title>
<path fill="none" stroke="midnightblue" d="M979.66,-428.15C956.81,-433.57 931.83,-439.5 909.74,-444.74"/>
<polygon fill="midnightblue" stroke="midnightblue" points="980.72,-431.5 989.64,-425.78 979.1,-424.69 980.72,-431.5"/>
</g>
<!-- Node7 -->
<g id="node7" class="node">
<title>Node7</title>
<g id="a_node7"><a xlink:href="classcarta_1_1Region.html#a5ce51737dfb759cf79397872ebd67f72" target="_top" xlink:title=" ">
<polygon fill="none" stroke="black" points="761,-395.75 761,-425.75 930,-425.75 930,-395.75 761,-395.75"/>
<text text-anchor="start" x="769" y="-413.75" font-family="Helvetica,sans-Serif" font-size="10.00">carta::Region::UseApproximate</text>
<text text-anchor="middle" x="845.5" y="-402.75" font-family="Helvetica,sans-Serif" font-size="10.00">Polygon</text>
</a>
</g>
</g>
<!-- Node3&#45;&gt;Node7 -->
<g id="edge6" class="edge">
<title>Node3&#45;&gt;Node7</title>
<path fill="none" stroke="midnightblue" d="M960.48,-410.75C950.4,-410.75 940.19,-410.75 930.22,-410.75"/>
<polygon fill="midnightblue" stroke="midnightblue" points="960.5,-414.25 970.5,-410.75 960.5,-407.25 960.5,-414.25"/>
</g>
<!-- Node5 -->
<g id="node5" class="node">
<title>Node5</title>
<g id="a_node5"><a xlink:href="classcarta_1_1Region.html#ac4d35d2ebd7a1bc9365a5c75b6758d50" target="_top" xlink:title=" ">
<polygon fill="none" stroke="black" points="568,-442.75 568,-472.75 709,-472.75 709,-442.75 568,-442.75"/>
<text text-anchor="start" x="576" y="-460.75" font-family="Helvetica,sans-Serif" font-size="10.00">carta::Region::GetApplied</text>
<text text-anchor="middle" x="638.5" y="-449.75" font-family="Helvetica,sans-Serif" font-size="10.00">PolygonRegion</text>
</a>
</g>
</g>
<!-- Node4&#45;&gt;Node5 -->
<g id="edge4" class="edge">
<title>Node4&#45;&gt;Node5</title>
<path fill="none" stroke="midnightblue" d="M758.36,-458.91C742.01,-458.75 725.09,-458.58 709.32,-458.43"/>
<polygon fill="midnightblue" stroke="midnightblue" points="758.42,-462.41 768.46,-459.01 758.49,-455.41 758.42,-462.41"/>
</g>
<!-- Node6 -->
<g id="node6" class="node">
<title>Node6</title>
<g id="a_node6"><a xlink:href="classcarta_1_1Region.html#a9ec0878ba3ff01974517769cbed3b352" target="_top" xlink:title=" ">
<polygon fill="none" stroke="black" points="347,-425.25 347,-444.25 516,-444.25 516,-425.25 347,-425.25"/>
<text text-anchor="middle" x="431.5" y="-432.25" font-family="Helvetica,sans-Serif" font-size="10.00">carta::Region::GetImageRegion</text>
</a>
</g>
</g>
<!-- Node5&#45;&gt;Node6 -->
<g id="edge5" class="edge">
<title>Node5&#45;&gt;Node6</title>
<path fill="none" stroke="midnightblue" d="M557.55,-448.78C543.98,-447.26 529.85,-445.67 516.18,-444.14"/>
<polygon fill="midnightblue" stroke="midnightblue" points="557.48,-452.29 567.81,-449.93 558.26,-445.34 557.48,-452.29"/>
</g>
<!-- Node7&#45;&gt;Node6 -->
<g id="edge7" class="edge">
<title>Node7&#45;&gt;Node6</title>
<path fill="none" stroke="midnightblue" d="M750.41,-416.23C679.86,-420.34 584.17,-425.91 516.25,-429.87"/>
<polygon fill="midnightblue" stroke="midnightblue" points="750.85,-419.71 760.63,-415.63 750.44,-412.72 750.85,-419.71"/>
</g>
<!-- Node8&#45;&gt;Node4 -->
<g id="edge9" class="edge">
<title>Node8&#45;&gt;Node4</title>
<path fill="none" stroke="midnightblue" d="M960.4,-459.75C947.73,-459.75 934.84,-459.75 922.51,-459.75"/>
<polygon fill="midnightblue" stroke="midnightblue" points="960.5,-463.25 970.5,-459.75 960.5,-456.25 960.5,-463.25"/>
</g>
<!-- Node10 -->
<g id="node10" class="node">
<title>Node10</title>
<g id="a_node10"><a xlink:href="classcarta_1_1RegionHandler.html#af0631842fe196a21fafb16e61b71401d" target="_top" xlink:title=" ">
<polygon fill="none" stroke="black" points="372,-257.75 372,-287.75 491,-287.75 491,-257.75 372,-257.75"/>
<text text-anchor="start" x="380" y="-275.75" font-family="Helvetica,sans-Serif" font-size="10.00">carta::RegionHandler</text>
<text text-anchor="middle" x="431.5" y="-264.75" font-family="Helvetica,sans-Serif" font-size="10.00">::GetLineProfiles</text>
</a>
</g>
</g>
<!-- Node9&#45;&gt;Node10 -->
<g id="edge11" class="edge">
<title>Node9&#45;&gt;Node10</title>
<path fill="none" stroke="midnightblue" d="M549.24,-286.99C529.63,-284.59 509.32,-282.12 491.24,-279.91"/>
<polygon fill="midnightblue" stroke="midnightblue" points="549.06,-290.49 559.41,-288.23 549.91,-283.54 549.06,-290.49"/>
</g>
<!-- Node11 -->
<g id="node11" class="node">
<title>Node11</title>
<g id="a_node11"><a xlink:href="classcarta_1_1RegionHandler.html#a53807aa22abb92b35725054a015e12aa" target="_top" xlink:title=" ">
<polygon fill="none" stroke="black" points="186.5,-282.75 186.5,-312.75 305.5,-312.75 305.5,-282.75 186.5,-282.75"/>
<text text-anchor="start" x="194.5" y="-300.75" font-family="Helvetica,sans-Serif" font-size="10.00">carta::RegionHandler</text>
<text text-anchor="middle" x="246" y="-289.75" font-family="Helvetica,sans-Serif" font-size="10.00">::CalculatePvImage</text>
</a>
</g>
</g>
<!-- Node10&#45;&gt;Node11 -->
<g id="edge12" class="edge">
<title>Node10&#45;&gt;Node11</title>
<path fill="none" stroke="midnightblue" d="M361.82,-282.11C343.34,-284.62 323.52,-287.32 305.64,-289.76"/>
<polygon fill="midnightblue" stroke="midnightblue" points="362.5,-285.55 371.93,-280.73 361.55,-278.61 362.5,-285.55"/>
</g>
<!-- Node12 -->
<g id="node12" class="node">
<title>Node12</title>
<g id="a_node12"><a xlink:href="classcarta_1_1RegionHandler.html#acf0d1aa0e6368d33b4631f3c383b3349" target="_top" xlink:title=" ">
<polygon fill="none" stroke="black" points="186.5,-233.75 186.5,-263.75 305.5,-263.75 305.5,-233.75 186.5,-233.75"/>
<text text-anchor="start" x="194.5" y="-251.75" font-family="Helvetica,sans-Serif" font-size="10.00">carta::RegionHandler</text>
<text text-anchor="middle" x="246" y="-240.75" font-family="Helvetica,sans-Serif" font-size="10.00">::GetLineSpatialData</text>
</a>
</g>
</g>
<!-- Node10&#45;&gt;Node12 -->
<g id="edge13" class="edge">
<title>Node10&#45;&gt;Node12</title>
<path fill="none" stroke="midnightblue" d="M361.82,-263.77C343.34,-261.35 323.52,-258.76 305.64,-256.42"/>
<polygon fill="midnightblue" stroke="midnightblue" points="361.57,-267.26 371.93,-265.09 362.47,-260.32 361.57,-267.26"/>
</g>
<!-- Node13 -->
<g id="node13" class="node">
<title>Node13</title>
<g id="a_node13"><a xlink:href="classcarta_1_1RegionHandler.html#a6bbb668cf434d85d9be739191dd15c19" target="_top" xlink:title=" ">
<polygon fill="none" stroke="black" points="0,-233.75 0,-263.75 145,-263.75 145,-233.75 0,-233.75"/>
<text text-anchor="start" x="8" y="-251.75" font-family="Helvetica,sans-Serif" font-size="10.00">carta::RegionHandler</text>
<text text-anchor="middle" x="72.5" y="-240.75" font-family="Helvetica,sans-Serif" font-size="10.00">::FillLineSpatialProfileData</text>
</a>
</g>
</g>
<!-- Node12&#45;&gt;Node13 -->
<g id="edge14" class="edge">
<title>Node12&#45;&gt;Node13</title>
<path fill="none" stroke="midnightblue" d="M176.33,-248.75C166.06,-248.75 155.46,-248.75 145.13,-248.75"/>
<polygon fill="midnightblue" stroke="midnightblue" points="176.46,-252.25 186.46,-248.75 176.46,-245.25 176.46,-252.25"/>
</g>
<!-- Node14&#45;&gt;Node7 -->
<g id="edge16" class="edge">
<title>Node14&#45;&gt;Node7</title>
<path fill="none" stroke="midnightblue" d="M979.66,-379.15C956.81,-384.57 931.83,-390.5 909.74,-395.74"/>
<polygon fill="midnightblue" stroke="midnightblue" points="980.72,-382.5 989.64,-376.78 979.1,-375.69 980.72,-382.5"/>
</g>
<!-- Node16 -->
<g id="node16" class="node">
<title>Node16</title>
<g id="a_node16"><a xlink:href="classcarta_1_1RegionHandler.html#adf0a26d068e926212c682fdf15d367fe" target="_top" xlink:title=" ">
<polygon fill="none" stroke="black" points="780,-307.75 780,-337.75 911,-337.75 911,-307.75 780,-307.75"/>
<text text-anchor="start" x="788" y="-325.75" font-family="Helvetica,sans-Serif" font-size="10.00">carta::RegionHandler</text>
<text text-anchor="middle" x="845.5" y="-314.75" font-family="Helvetica,sans-Serif" font-size="10.00">::FillSpectralProfileData</text>
</a>
</g>
</g>
<!-- Node15&#45;&gt;Node16 -->
<g id="edge18" class="edge">
<title>Node15&#45;&gt;Node16</title>
<path fill="none" stroke="midnightblue" d="M979.66,-291.15C956.81,-296.57 931.83,-302.5 909.74,-307.74"/>
<polygon fill="midnightblue" stroke="midnightblue" points="980.72,-294.5 989.64,-288.78 979.1,-287.69 980.72,-294.5"/>
</g>
<!-- Node17 -->
<g id="node17" class="node">
<title>Node17</title>
<g id="a_node17"><a xlink:href="classcarta_1_1RegionHandler.html#ab69f418daea6a6ecf8c58ed9434a6242" target="_top" xlink:title=" ">
<polygon fill="none" stroke="black" points="767.5,-258.75 767.5,-288.75 923.5,-288.75 923.5,-258.75 767.5,-258.75"/>
<text text-anchor="start" x="775.5" y="-276.75" font-family="Helvetica,sans-Serif" font-size="10.00">carta::RegionHandler</text>
<text text-anchor="middle" x="845.5" y="-265.75" font-family="Helvetica,sans-Serif" font-size="10.00">::GetTemporaryRegionProfile</text>
</a>
</g>
</g>
<!-- Node15&#45;&gt;Node17 -->
<g id="edge19" class="edge">
<title>Node15&#45;&gt;Node17</title>
<path fill="none" stroke="midnightblue" d="M975.04,-273.75C958.19,-273.75 940.39,-273.75 923.58,-273.75"/>
<polygon fill="midnightblue" stroke="midnightblue" points="975.38,-277.25 985.38,-273.75 975.38,-270.25 975.38,-277.25"/>
</g>
<!-- Node17&#45;&gt;Node9 -->
<g id="edge22" class="edge">
<title>Node17&#45;&gt;Node9</title>
<path fill="none" stroke="midnightblue" d="M757.3,-283.96C744.14,-285.5 730.62,-287.08 717.66,-288.6"/>
<polygon fill="midnightblue" stroke="midnightblue" points="757.77,-287.43 767.29,-282.79 756.95,-280.48 757.77,-287.43"/>
</g>
<!-- Node18 -->
<g id="node18" class="node">
<title>Node18</title>
<g id="a_node18"><a xlink:href="classcarta_1_1RegionHandler.html#abb5e03ccc3f1a8e0026c0b13ba5ed0d5" target="_top" xlink:title=" ">
<polygon fill="none" stroke="black" points="552,-233.75 552,-263.75 725,-263.75 725,-233.75 552,-233.75"/>
<text text-anchor="start" x="560" y="-251.75" font-family="Helvetica,sans-Serif" font-size="10.00">carta::RegionHandler</text>
<text text-anchor="middle" x="638.5" y="-240.75" font-family="Helvetica,sans-Serif" font-size="10.00">::GetFixedAngularRegionProfiles</text>
</a>
</g>
</g>
<!-- Node17&#45;&gt;Node18 -->
<g id="edge20" class="edge">
<title>Node17&#45;&gt;Node18</title>
<path fill="none" stroke="midnightblue" d="M757.21,-263.1C746.62,-261.81 735.8,-260.49 725.22,-259.2"/>
<polygon fill="midnightblue" stroke="midnightblue" points="756.94,-266.6 767.29,-264.33 757.79,-259.65 756.94,-266.6"/>
</g>
<!-- Node18&#45;&gt;Node10 -->
<g id="edge21" class="edge">
<title>Node18&#45;&gt;Node10</title>
<path fill="none" stroke="midnightblue" d="M541.65,-259.97C524.41,-261.99 506.93,-264.04 491.15,-265.88"/>
<polygon fill="midnightblue" stroke="midnightblue" points="542.22,-263.43 551.75,-258.79 541.41,-256.48 542.22,-263.43"/>
</g>
<!-- Node19&#45;&gt;Node18 -->
<g id="edge24" class="edge">
<title>Node19&#45;&gt;Node18</title>
<path fill="none" stroke="midnightblue" d="M759.92,-234.65C748.44,-236 736.65,-237.38 725.16,-238.72"/>
<polygon fill="midnightblue" stroke="midnightblue" points="760.39,-238.12 769.91,-233.48 759.57,-231.17 760.39,-238.12"/>
</g>
<!-- Node21 -->
<g id="node21" class="node">
<title>Node21</title>
<g id="a_node21"><a xlink:href="classcarta_1_1Ds9ImportExport.html#ad955dbea38a563a71abafd883fa849f1" target="_top" xlink:title=" ">
<polygon fill="none" stroke="black" points="780.5,-160.75 780.5,-190.75 910.5,-190.75 910.5,-160.75 780.5,-160.75"/>
<text text-anchor="start" x="788.5" y="-178.75" font-family="Helvetica,sans-Serif" font-size="10.00">carta::Ds9ImportExport</text>
<text text-anchor="middle" x="845.5" y="-167.75" font-family="Helvetica,sans-Serif" font-size="10.00">::ImportCircleRegion</text>
</a>
</g>
</g>
<!-- Node20&#45;&gt;Node21 -->
<g id="edge26" class="edge">
<title>Node20&#45;&gt;Node21</title>
<path fill="none" stroke="midnightblue" d="M978.72,-178.95C956.45,-178.41 932.22,-177.82 910.67,-177.3"/>
<polygon fill="midnightblue" stroke="midnightblue" points="978.71,-182.45 988.79,-179.19 978.88,-175.45 978.71,-182.45"/>
</g>
<!-- Node22 -->
<g id="node22" class="node">
<title>Node22</title>
<g id="a_node22"><a xlink:href="classcarta_1_1Ds9ImportExport.html#a785d44b4017da554d998052c4469ad15" target="_top" xlink:title=" ">
<polygon fill="none" stroke="black" points="573.5,-72.75 573.5,-102.75 703.5,-102.75 703.5,-72.75 573.5,-72.75"/>
<text text-anchor="start" x="581.5" y="-90.75" font-family="Helvetica,sans-Serif" font-size="10.00">carta::Ds9ImportExport</text>
<text text-anchor="middle" x="638.5" y="-79.75" font-family="Helvetica,sans-Serif" font-size="10.00">::SetRegion</text>
</a>
</g>
</g>
<!-- Node20&#45;&gt;Node22 -->
<g id="edge30" class="edge">
<title>Node20&#45;&gt;Node22</title>
<path fill="none" stroke="midnightblue" d="M980.05,-163.36C963.6,-159.49 946.21,-155.45 930,-151.75 852.21,-134.01 762.5,-114.37 703.6,-101.59"/>
<polygon fill="midnightblue" stroke="midnightblue" points="979.62,-166.86 990.15,-165.74 981.22,-160.04 979.62,-166.86"/>
</g>
<!-- Node21&#45;&gt;Node22 -->
<g id="edge27" class="edge">
<title>Node21&#45;&gt;Node22</title>
<path fill="none" stroke="midnightblue" d="M790.29,-157.17C780.48,-153.55 770.38,-149.66 761,-145.75 729.07,-132.43 693.45,-115.13 669.08,-102.9"/>
<polygon fill="midnightblue" stroke="midnightblue" points="789.39,-160.56 799.98,-160.69 791.78,-153.98 789.39,-160.56"/>
</g>
<!-- Node23 -->
<g id="node23" class="node">
<title>Node23</title>
<g id="a_node23"><a xlink:href="classcarta_1_1Ds9ImportExport.html#ac30be76c02bcb4a5cac81596eef56588" target="_top" xlink:title=" ">
<polygon fill="none" stroke="black" points="366.5,-72.75 366.5,-102.75 496.5,-102.75 496.5,-72.75 366.5,-72.75"/>
<text text-anchor="start" x="374.5" y="-90.75" font-family="Helvetica,sans-Serif" font-size="10.00">carta::Ds9ImportExport</text>
<text text-anchor="middle" x="431.5" y="-79.75" font-family="Helvetica,sans-Serif" font-size="10.00">::ProcessFileLines</text>
</a>
</g>
</g>
<!-- Node22&#45;&gt;Node23 -->
<g id="edge28" class="edge">
<title>Node22&#45;&gt;Node23</title>
<path fill="none" stroke="midnightblue" d="M563.28,-87.75C541.49,-87.75 517.85,-87.75 496.74,-87.75"/>
<polygon fill="midnightblue" stroke="midnightblue" points="563.48,-91.25 573.48,-87.75 563.48,-84.25 563.48,-91.25"/>
</g>
<!-- Node24 -->
<g id="node24" class="node">
<title>Node24</title>
<g id="a_node24"><a xlink:href="classcarta_1_1Ds9ImportExport.html#aaf9d85eccbc3df844536b5105992cdeb" target="_top" xlink:title=" ">
<polygon fill="none" stroke="black" points="181,-72.75 181,-102.75 311,-102.75 311,-72.75 181,-72.75"/>
<text text-anchor="start" x="189" y="-90.75" font-family="Helvetica,sans-Serif" font-size="10.00">carta::Ds9ImportExport</text>
<text text-anchor="middle" x="246" y="-79.75" font-family="Helvetica,sans-Serif" font-size="10.00">::Ds9ImportExport</text>
</a>
</g>
</g>
<!-- Node23&#45;&gt;Node24 -->
<g id="edge29" class="edge">
<title>Node23&#45;&gt;Node24</title>
<path fill="none" stroke="midnightblue" d="M356.12,-87.75C341.21,-87.75 325.67,-87.75 311.14,-87.75"/>
<polygon fill="midnightblue" stroke="midnightblue" points="356.32,-91.25 366.32,-87.75 356.32,-84.25 356.32,-91.25"/>
</g>
<!-- Node25&#45;&gt;Node22 -->
<g id="edge32" class="edge">
<title>Node25&#45;&gt;Node22</title>
<path fill="none" stroke="midnightblue" d="M770.28,-87.75C748.49,-87.75 724.85,-87.75 703.74,-87.75"/>
<polygon fill="midnightblue" stroke="midnightblue" points="770.48,-91.25 780.48,-87.75 770.48,-84.25 770.48,-91.25"/>
</g>
<!-- Node26&#45;&gt;Node22 -->
<g id="edge34" class="edge">
<title>Node26&#45;&gt;Node22</title>
<path fill="none" stroke="midnightblue" d="M771.69,-56.15C749.01,-61.57 724.21,-67.5 702.28,-72.74"/>
<polygon fill="midnightblue" stroke="midnightblue" points="772.69,-59.51 781.6,-53.78 771.06,-52.7 772.69,-59.51"/>
</g>
<!-- Node27&#45;&gt;Node22 -->
<g id="edge36" class="edge">
<title>Node27&#45;&gt;Node22</title>
<path fill="none" stroke="midnightblue" d="M986.84,-36.78C979.76,-34.55 972.7,-32.19 966,-29.75 949.55,-23.76 947.13,-17.38 930,-13.75 856.53,1.84 833.32,6.54 761,-13.75 720.34,-25.16 679.79,-54.34 657.34,-72.47"/>
<polygon fill="midnightblue" stroke="midnightblue" points="985.89,-40.15 996.47,-39.74 987.94,-33.46 985.89,-40.15"/>
</g>
</g>
</svg>
        <g id="navigator" transform="translate(0 0)" fill="#404254">
                <rect fill="#f2f5e9" fill-opacity="0.5" stroke="#606060" stroke-width=".5" x="0" y="0" width="60" height="60"/>
                <use id="zoomplus" xlink:href="#zoomPlus" x="17" y="9" onmousedown="handleZoom(evt,'in')"/>
                <use id="zoomminus" xlink:href="#zoomMin" x="42" y="9" onmousedown="handleZoom(evt,'out')"/>
                <use id="reset" xlink:href="#resetDef" x="30" y="36" onmousedown="handleReset()"/>
                <g id="arrowUp" xlink:href="#dirArrow" transform="translate(30 24)" onmousedown="handlePan(0,-1)">
                  <use xlink:href="#rim" fill="#404040">
                        <set attributeName="fill" to="#808080" begin="arrowUp.mouseover" end="arrowUp.mouseout"/>
                  </use>
                  <path fill="none" stroke="white" stroke-width="1.5" d="M0,-3.0v7 M-2.5,-0.5L0,-3.0L2.5,-0.5"/>
                </g>
                <g id="arrowRight" xlink:href="#dirArrow" transform="rotate(90) translate(36 -43)" onmousedown="handlePan(1,0)">
                  <use xlink:href="#rim" fill="#404040">
                        <set attributeName="fill" to="#808080" begin="arrowRight.mouseover" end="arrowRight.mouseout"/>
                  </use>
                  <path fill="none" stroke="white" stroke-width="1.5" d="M0,-3.0v7 M-2.5,-0.5L0,-3.0L2.5,-0.5"/>
                </g>
                <g id="arrowDown" xlink:href="#dirArrow" transform="rotate(180) translate(-30 -48)" onmousedown="handlePan(0,1)">
                  <use xlink:href="#rim" fill="#404040">
                        <set attributeName="fill" to="#808080" begin="arrowDown.mouseover" end="arrowDown.mouseout"/>
                  </use>
                  <path fill="none" stroke="white" stroke-width="1.5" d="M0,-3.0v7 M-2.5,-0.5L0,-3.0L2.5,-0.5"/>
                </g>
                <g id="arrowLeft" xlink:href="#dirArrow" transform="rotate(270) translate(-36 17)" onmousedown="handlePan(-1,0)">
                  <use xlink:href="#rim" fill="#404040">
                        <set attributeName="fill" to="#808080" begin="arrowLeft.mouseover" end="arrowLeft.mouseout"/>
                  </use>
                  <path fill="none" stroke="white" stroke-width="1.5" d="M0,-3.0v7 M-2.5,-0.5L0,-3.0L2.5,-0.5"/>
                </g>
        </g>
        <svg viewBox="0 0 15 15" width="100%" height="30px" preserveAspectRatio="xMaxYMin meet">
         <g id="arrow_out" transform="scale(0.3 0.3)">
          <a xlink:href="classMessage_a0c0bb5e50ad8b90bade291ab17a18cf5_icgraph_org.svg" target="_base">
           <rect id="button" ry="5" rx="5" y="6" x="6" height="38" width="38"
                fill="#f2f5e9" fill-opacity="0.5" stroke="#606060" stroke-width="1.0"/>
           <path id="arrow"
             d="M 11.500037,31.436501 C 11.940474,20.09759 22.043105,11.32322 32.158766,21.979434 L 37.068811,17.246167 C 37.068811,17.246167 37.088388,32 37.088388,32 L 22.160133,31.978069 C 22.160133,31.978069 26.997745,27.140456 26.997745,27.140456 C 18.528582,18.264221 13.291696,25.230495 11.500037,31.436501 z"
             style="fill:#404040;"/>
          </a>
         </g>
        </svg>
</svg>
