<?xml version="1.0" encoding="UTF-8" standalone="no"?>
<!DOCTYPE svg PUBLIC "-//W3C//DTD SVG 1.1//EN"
 "http://www.w3.org/Graphics/SVG/1.1/DTD/svg11.dtd">
<!-- Generated by graphviz version 2.43.0 (0)
 -->
<!-- Title: carta::Histogram::ConsistencyCheck Pages: 1 -->
<svg width="366pt" height="142pt"
 viewBox="0.00 0.00 366.00 142.00" xmlns="http://www.w3.org/2000/svg" xmlns:xlink="http://www.w3.org/1999/xlink">
<g id="graph0" class="graph" transform="scale(1 1) rotate(0) translate(4 138)">
<title>carta::Histogram::ConsistencyCheck</title>
<!-- Node1 -->
<g id="node1" class="node">
<title>Node1</title>
<g id="a_node1"><a xlink:title=" ">
<polygon fill="#bfbfbf" stroke="black" points="0,-52 0,-82 164,-82 164,-52 0,-52"/>
<text text-anchor="start" x="8" y="-70" font-family="Helvetica,sans-Serif" font-size="10.00">carta::Histogram::Consistency</text>
<text text-anchor="middle" x="82" y="-59" font-family="Helvetica,sans-Serif" font-size="10.00">Check</text>
</a>
</g>
</g>
<!-- Node2 -->
<g id="node2" class="node">
<title>Node2</title>
<g id="a_node2"><a xlink:href="classcarta_1_1Histogram.html#a1002f37e381eb1de20add01e234a8083" target="_top" xlink:title=" ">
<polygon fill="none" stroke="black" points="200,-114.5 200,-133.5 358,-133.5 358,-114.5 200,-114.5"/>
<text text-anchor="middle" x="279" y="-121.5" font-family="Helvetica,sans-Serif" font-size="10.00">carta::Histogram::GetBounds</text>
</a>
</g>
</g>
<!-- Node1&#45;&gt;Node2 -->
<g id="edge1" class="edge">
<title>Node1&#45;&gt;Node2</title>
<path fill="none" stroke="midnightblue" d="M126.65,-82.04C148.55,-89.36 175.55,-98.06 200,-105 208.48,-107.4 217.52,-109.78 226.34,-111.99"/>
<polygon fill="midnightblue" stroke="midnightblue" points="225.61,-115.42 236.15,-114.42 227.28,-108.62 225.61,-115.42"/>
</g>
<!-- Node3 -->
<g id="node3" class="node">
<title>Node3</title>
<g id="a_node3"><a xlink:href="classcarta_1_1Histogram.html#ae1f537df539939fde102e25b0b42a9aa" target="_top" xlink:title=" ">
<polygon fill="none" stroke="black" points="200,-76.5 200,-95.5 358,-95.5 358,-76.5 200,-76.5"/>
<text text-anchor="middle" x="279" y="-83.5" font-family="Helvetica,sans-Serif" font-size="10.00">carta::Histogram::GetMaxVal</text>
</a>
</g>
</g>
<!-- Node1&#45;&gt;Node3 -->
<g id="edge2" class="edge">
<title>Node1&#45;&gt;Node3</title>
<path fill="none" stroke="midnightblue" d="M164,-74.89C172.5,-75.72 181.17,-76.57 189.75,-77.4"/>
<polygon fill="midnightblue" stroke="midnightblue" points="189.46,-80.89 199.75,-78.38 190.14,-73.92 189.46,-80.89"/>
</g>
<!-- Node4 -->
<g id="node4" class="node">
<title>Node4</title>
<g id="a_node4"><a xlink:href="classcarta_1_1Histogram.html#a751eb7e111b661cf77a44995db151a3b" target="_top" xlink:title=" ">
<polygon fill="none" stroke="black" points="201.5,-38.5 201.5,-57.5 356.5,-57.5 356.5,-38.5 201.5,-38.5"/>
<text text-anchor="middle" x="279" y="-45.5" font-family="Helvetica,sans-Serif" font-size="10.00">carta::Histogram::GetMinVal</text>
</a>
</g>
</g>
<!-- Node1&#45;&gt;Node4 -->
<g id="edge3" class="edge">
<title>Node1&#45;&gt;Node4</title>
<path fill="none" stroke="midnightblue" d="M164,-59.11C172.97,-58.23 182.14,-57.34 191.18,-56.46"/>
<polygon fill="midnightblue" stroke="midnightblue" points="191.7,-59.93 201.31,-55.47 191.02,-52.96 191.7,-59.93"/>
</g>
<!-- Node5 -->
<g id="node5" class="node">
<title>Node5</title>
<g id="a_node5"><a xlink:href="classcarta_1_1Histogram.html#a70adaf5681547ca8d7aa22550bfb3206" target="_top" xlink:title=" ">
<polygon fill="none" stroke="black" points="204.5,-0.5 204.5,-19.5 353.5,-19.5 353.5,-0.5 204.5,-0.5"/>
<text text-anchor="middle" x="279" y="-7.5" font-family="Helvetica,sans-Serif" font-size="10.00">carta::Histogram::GetNbins</text>
</a>
</g>
</g>
<!-- Node1&#45;&gt;Node5 -->
<g id="edge4" class="edge">
<title>Node1&#45;&gt;Node5</title>
<path fill="none" stroke="midnightblue" d="M126.65,-51.96C148.55,-44.64 175.55,-35.94 200,-29 208.48,-26.6 217.52,-24.22 226.34,-22.01"/>
<polygon fill="midnightblue" stroke="midnightblue" points="227.28,-25.38 236.15,-19.58 225.61,-18.58 227.28,-25.38"/>
</g>
</g>
</svg>
