<?xml version="1.0" encoding="UTF-8" standalone="no"?>
<!DOCTYPE svg PUBLIC "-//W3C//DTD SVG 1.1//EN"
 "http://www.w3.org/Graphics/SVG/1.1/DTD/svg11.dtd">
<!-- Generated by graphviz version 2.43.0 (0)
 -->
<!-- Title: carta::RegionHandler::CombineStokes Pages: 1 -->
<svg width="1332pt" height="235pt"
 viewBox="0.00 0.00 1332.00 235.00" xmlns="http://www.w3.org/2000/svg" xmlns:xlink="http://www.w3.org/1999/xlink">
<g id="graph0" class="graph" transform="scale(1 1) rotate(0) translate(4 231)">
<title>carta::RegionHandler::CombineStokes</title>
<!-- Node1 -->
<g id="node1" class="node">
<title>Node1</title>
<g id="a_node1"><a xlink:title=" ">
<polygon fill="#bfbfbf" stroke="black" points="1205,-98.5 1205,-128.5 1324,-128.5 1324,-98.5 1205,-98.5"/>
<text text-anchor="start" x="1213" y="-116.5" font-family="Helvetica,sans-Serif" font-size="10.00">carta::RegionHandler</text>
<text text-anchor="middle" x="1264.5" y="-105.5" font-family="Helvetica,sans-Serif" font-size="10.00">::CombineStokes</text>
</a>
</g>
</g>
<!-- Node2 -->
<g id="node2" class="node">
<title>Node2</title>
<g id="a_node2"><a xlink:href="classcarta_1_1RegionHandler.html#a6cbe0993d9c7c1efc36eb8252cfe6177" target="_top" xlink:title=" ">
<polygon fill="none" stroke="black" points="1050,-196.5 1050,-226.5 1169,-226.5 1169,-196.5 1050,-196.5"/>
<text text-anchor="start" x="1058" y="-214.5" font-family="Helvetica,sans-Serif" font-size="10.00">carta::RegionHandler</text>
<text text-anchor="middle" x="1109.5" y="-203.5" font-family="Helvetica,sans-Serif" font-size="10.00">::GetStokesPangle</text>
</a>
</g>
</g>
<!-- Node1&#45;&gt;Node2 -->
<g id="edge1" class="edge">
<title>Node1&#45;&gt;Node2</title>
<path fill="none" stroke="midnightblue" d="M1239.27,-135.53C1220.94,-151.42 1194.62,-172.6 1169,-187.5 1163.5,-190.7 1157.48,-193.68 1151.48,-196.38"/>
<polygon fill="midnightblue" stroke="midnightblue" points="1241.9,-137.88 1247.1,-128.64 1237.28,-132.62 1241.9,-137.88"/>
</g>
<!-- Node11 -->
<g id="node11" class="node">
<title>Node11</title>
<g id="a_node11"><a xlink:href="classcarta_1_1RegionHandler.html#a76c45b738a17f6e7a7776a66fc7f7a3b" target="_top" xlink:title=" ">
<polygon fill="none" stroke="black" points="1050,-147.5 1050,-177.5 1169,-177.5 1169,-147.5 1050,-147.5"/>
<text text-anchor="start" x="1058" y="-165.5" font-family="Helvetica,sans-Serif" font-size="10.00">carta::RegionHandler</text>
<text text-anchor="middle" x="1109.5" y="-154.5" font-family="Helvetica,sans-Serif" font-size="10.00">::GetStokesPflinear</text>
</a>
</g>
</g>
<!-- Node1&#45;&gt;Node11 -->
<g id="edge10" class="edge">
<title>Node1&#45;&gt;Node11</title>
<path fill="none" stroke="midnightblue" d="M1206.49,-131.76C1190.35,-136.93 1172.97,-142.49 1157.5,-147.45"/>
<polygon fill="midnightblue" stroke="midnightblue" points="1207.89,-134.98 1216.35,-128.6 1205.76,-128.32 1207.89,-134.98"/>
</g>
<!-- Node12 -->
<g id="node12" class="node">
<title>Node12</title>
<g id="a_node12"><a xlink:href="classcarta_1_1RegionHandler.html#ade6aad001ccf435eb382aeb3b58745ec" target="_top" xlink:title=" ">
<polygon fill="none" stroke="black" points="1050,-98.5 1050,-128.5 1169,-128.5 1169,-98.5 1050,-98.5"/>
<text text-anchor="start" x="1058" y="-116.5" font-family="Helvetica,sans-Serif" font-size="10.00">carta::RegionHandler</text>
<text text-anchor="middle" x="1109.5" y="-105.5" font-family="Helvetica,sans-Serif" font-size="10.00">::GetStokesPftotal</text>
</a>
</g>
</g>
<!-- Node1&#45;&gt;Node12 -->
<g id="edge12" class="edge">
<title>Node1&#45;&gt;Node12</title>
<path fill="none" stroke="midnightblue" d="M1194.51,-113.5C1186.01,-113.5 1177.38,-113.5 1169.06,-113.5"/>
<polygon fill="midnightblue" stroke="midnightblue" points="1194.78,-117 1204.78,-113.5 1194.78,-110 1194.78,-117"/>
</g>
<!-- Node13 -->
<g id="node13" class="node">
<title>Node13</title>
<g id="a_node13"><a xlink:href="classcarta_1_1RegionHandler.html#ad64e18c097313b54e8a1ee5f316b3125" target="_top" xlink:title=" ">
<polygon fill="none" stroke="black" points="1050,-49.5 1050,-79.5 1169,-79.5 1169,-49.5 1050,-49.5"/>
<text text-anchor="start" x="1058" y="-67.5" font-family="Helvetica,sans-Serif" font-size="10.00">carta::RegionHandler</text>
<text text-anchor="middle" x="1109.5" y="-56.5" font-family="Helvetica,sans-Serif" font-size="10.00">::GetStokesPlinear</text>
</a>
</g>
</g>
<!-- Node1&#45;&gt;Node13 -->
<g id="edge14" class="edge">
<title>Node1&#45;&gt;Node13</title>
<path fill="none" stroke="midnightblue" d="M1206.49,-95.24C1190.35,-90.07 1172.97,-84.51 1157.5,-79.55"/>
<polygon fill="midnightblue" stroke="midnightblue" points="1205.76,-98.68 1216.35,-98.4 1207.89,-92.02 1205.76,-98.68"/>
</g>
<!-- Node14 -->
<g id="node14" class="node">
<title>Node14</title>
<g id="a_node14"><a xlink:href="classcarta_1_1RegionHandler.html#ada1f63f7ba0572cd5dabd2dad0e3792c" target="_top" xlink:title=" ">
<polygon fill="none" stroke="black" points="1050,-0.5 1050,-30.5 1169,-30.5 1169,-0.5 1050,-0.5"/>
<text text-anchor="start" x="1058" y="-18.5" font-family="Helvetica,sans-Serif" font-size="10.00">carta::RegionHandler</text>
<text text-anchor="middle" x="1109.5" y="-7.5" font-family="Helvetica,sans-Serif" font-size="10.00">::GetStokesPtotal</text>
</a>
</g>
</g>
<!-- Node1&#45;&gt;Node14 -->
<g id="edge16" class="edge">
<title>Node1&#45;&gt;Node14</title>
<path fill="none" stroke="midnightblue" d="M1238.82,-91.62C1220.45,-76.04 1194.27,-55.33 1169,-40.5 1162.9,-36.92 1156.2,-33.57 1149.57,-30.56"/>
<polygon fill="midnightblue" stroke="midnightblue" points="1236.82,-94.51 1246.68,-98.37 1241.38,-89.2 1236.82,-94.51"/>
</g>
<!-- Node3 -->
<g id="node3" class="node">
<title>Node3</title>
<g id="a_node3"><a xlink:href="classcarta_1_1RegionHandler.html#abb010a0a0dc050115c0d88d88f6a3050" target="_top" xlink:title=" ">
<polygon fill="none" stroke="black" points="856,-98.5 856,-128.5 1014,-128.5 1014,-98.5 856,-98.5"/>
<text text-anchor="start" x="864" y="-116.5" font-family="Helvetica,sans-Serif" font-size="10.00">carta::RegionHandler</text>
<text text-anchor="middle" x="935" y="-105.5" font-family="Helvetica,sans-Serif" font-size="10.00">::GetComputedStokesProfiles</text>
</a>
</g>
</g>
<!-- Node2&#45;&gt;Node3 -->
<g id="edge2" class="edge">
<title>Node2&#45;&gt;Node3</title>
<path fill="none" stroke="midnightblue" d="M1059.65,-192.27C1056.35,-190.72 1053.11,-189.13 1050,-187.5 1015.93,-169.65 979.03,-144.53 956.71,-128.64"/>
<polygon fill="midnightblue" stroke="midnightblue" points="1058.46,-195.57 1069.02,-196.48 1061.33,-189.19 1058.46,-195.57"/>
</g>
<!-- Node4 -->
<g id="node4" class="node">
<title>Node4</title>
<g id="a_node4"><a xlink:href="classcarta_1_1RegionHandler.html#aa5624138d4060512518d54f2b6709a25" target="_top" xlink:title=" ">
<polygon fill="none" stroke="black" points="683,-98.5 683,-128.5 820,-128.5 820,-98.5 683,-98.5"/>
<text text-anchor="start" x="691" y="-116.5" font-family="Helvetica,sans-Serif" font-size="10.00">carta::RegionHandler</text>
<text text-anchor="middle" x="751.5" y="-105.5" font-family="Helvetica,sans-Serif" font-size="10.00">::GetRegionSpectralData</text>
</a>
</g>
</g>
<!-- Node3&#45;&gt;Node4 -->
<g id="edge3" class="edge">
<title>Node3&#45;&gt;Node4</title>
<path fill="none" stroke="midnightblue" d="M845.87,-113.5C837.23,-113.5 828.57,-113.5 820.18,-113.5"/>
<polygon fill="midnightblue" stroke="midnightblue" points="845.97,-117 855.97,-113.5 845.97,-110 845.97,-117"/>
</g>
<!-- Node5 -->
<g id="node5" class="node">
<title>Node5</title>
<g id="a_node5"><a xlink:href="classcarta_1_1RegionHandler.html#adf0a26d068e926212c682fdf15d367fe" target="_top" xlink:title=" ">
<polygon fill="none" stroke="black" points="503.5,-123.5 503.5,-153.5 634.5,-153.5 634.5,-123.5 503.5,-123.5"/>
<text text-anchor="start" x="511.5" y="-141.5" font-family="Helvetica,sans-Serif" font-size="10.00">carta::RegionHandler</text>
<text text-anchor="middle" x="569" y="-130.5" font-family="Helvetica,sans-Serif" font-size="10.00">::FillSpectralProfileData</text>
</a>
</g>
</g>
<!-- Node4&#45;&gt;Node5 -->
<g id="edge4" class="edge">
<title>Node4&#45;&gt;Node5</title>
<path fill="none" stroke="midnightblue" d="M672.66,-124.28C659.94,-126.04 646.88,-127.85 634.52,-129.56"/>
<polygon fill="midnightblue" stroke="midnightblue" points="673.35,-127.72 682.77,-122.88 672.39,-120.79 673.35,-127.72"/>
</g>
<!-- Node6 -->
<g id="node6" class="node">
<title>Node6</title>
<g id="a_node6"><a xlink:href="classcarta_1_1RegionHandler.html#ab69f418daea6a6ecf8c58ed9434a6242" target="_top" xlink:title=" ">
<polygon fill="none" stroke="black" points="491,-74.5 491,-104.5 647,-104.5 647,-74.5 491,-74.5"/>
<text text-anchor="start" x="499" y="-92.5" font-family="Helvetica,sans-Serif" font-size="10.00">carta::RegionHandler</text>
<text text-anchor="middle" x="569" y="-81.5" font-family="Helvetica,sans-Serif" font-size="10.00">::GetTemporaryRegionProfile</text>
</a>
</g>
</g>
<!-- Node4&#45;&gt;Node6 -->
<g id="edge5" class="edge">
<title>Node4&#45;&gt;Node6</title>
<path fill="none" stroke="midnightblue" d="M672.6,-103.14C664.18,-102.02 655.62,-100.88 647.21,-99.77"/>
<polygon fill="midnightblue" stroke="midnightblue" points="672.4,-106.65 682.77,-104.5 673.32,-99.71 672.4,-106.65"/>
</g>
<!-- Node7 -->
<g id="node7" class="node">
<title>Node7</title>
<g id="a_node7"><a xlink:href="classcarta_1_1RegionHandler.html#acbbfca854da73c657e5257de954b7048" target="_top" xlink:title=" ">
<polygon fill="none" stroke="black" points="336,-74.5 336,-104.5 455,-104.5 455,-74.5 336,-74.5"/>
<text text-anchor="start" x="344" y="-92.5" font-family="Helvetica,sans-Serif" font-size="10.00">carta::RegionHandler</text>
<text text-anchor="middle" x="395.5" y="-81.5" font-family="Helvetica,sans-Serif" font-size="10.00">::GetLineProfiles</text>
</a>
</g>
</g>
<!-- Node6&#45;&gt;Node7 -->
<g id="edge6" class="edge">
<title>Node6&#45;&gt;Node7</title>
<path fill="none" stroke="midnightblue" d="M480.62,-89.5C471.96,-89.5 463.31,-89.5 455.05,-89.5"/>
<polygon fill="midnightblue" stroke="midnightblue" points="480.78,-93 490.78,-89.5 480.78,-86 480.78,-93"/>
</g>
<!-- Node8 -->
<g id="node8" class="node">
<title>Node8</title>
<g id="a_node8"><a xlink:href="classcarta_1_1RegionHandler.html#a981ef720799967df543e0b272a17f6cb" target="_top" xlink:title=" ">
<polygon fill="none" stroke="black" points="181,-99.5 181,-129.5 300,-129.5 300,-99.5 181,-99.5"/>
<text text-anchor="start" x="189" y="-117.5" font-family="Helvetica,sans-Serif" font-size="10.00">carta::RegionHandler</text>
<text text-anchor="middle" x="240.5" y="-106.5" font-family="Helvetica,sans-Serif" font-size="10.00">::CalculatePvImage</text>
</a>
</g>
</g>
<!-- Node7&#45;&gt;Node8 -->
<g id="edge7" class="edge">
<title>Node7&#45;&gt;Node8</title>
<path fill="none" stroke="midnightblue" d="M325.79,-100.73C317.2,-102.13 308.47,-103.56 300.06,-104.93"/>
<polygon fill="midnightblue" stroke="midnightblue" points="326.48,-104.16 335.78,-99.09 325.35,-97.25 326.48,-104.16"/>
</g>
<!-- Node9 -->
<g id="node9" class="node">
<title>Node9</title>
<g id="a_node9"><a xlink:href="classcarta_1_1RegionHandler.html#ab65206f98fa5024447ab049a91cd4526" target="_top" xlink:title=" ">
<polygon fill="none" stroke="black" points="181,-50.5 181,-80.5 300,-80.5 300,-50.5 181,-50.5"/>
<text text-anchor="start" x="189" y="-68.5" font-family="Helvetica,sans-Serif" font-size="10.00">carta::RegionHandler</text>
<text text-anchor="middle" x="240.5" y="-57.5" font-family="Helvetica,sans-Serif" font-size="10.00">::GetLineSpatialData</text>
</a>
</g>
</g>
<!-- Node7&#45;&gt;Node9 -->
<g id="edge8" class="edge">
<title>Node7&#45;&gt;Node9</title>
<path fill="none" stroke="midnightblue" d="M325.79,-78.72C317.2,-77.37 308.47,-76.01 300.06,-74.69"/>
<polygon fill="midnightblue" stroke="midnightblue" points="325.36,-82.2 335.78,-80.29 326.45,-75.28 325.36,-82.2"/>
</g>
<!-- Node10 -->
<g id="node10" class="node">
<title>Node10</title>
<g id="a_node10"><a xlink:href="classcarta_1_1RegionHandler.html#a6bbb668cf434d85d9be739191dd15c19" target="_top" xlink:title=" ">
<polygon fill="none" stroke="black" points="0,-50.5 0,-80.5 145,-80.5 145,-50.5 0,-50.5"/>
<text text-anchor="start" x="8" y="-68.5" font-family="Helvetica,sans-Serif" font-size="10.00">carta::RegionHandler</text>
<text text-anchor="middle" x="72.5" y="-57.5" font-family="Helvetica,sans-Serif" font-size="10.00">::FillLineSpatialProfileData</text>
</a>
</g>
</g>
<!-- Node9&#45;&gt;Node10 -->
<g id="edge9" class="edge">
<title>Node9&#45;&gt;Node10</title>
<path fill="none" stroke="midnightblue" d="M170.79,-65.5C162.33,-65.5 153.67,-65.5 145.17,-65.5"/>
<polygon fill="midnightblue" stroke="midnightblue" points="170.97,-69 180.97,-65.5 170.97,-62 170.97,-69"/>
</g>
<!-- Node11&#45;&gt;Node3 -->
<g id="edge11" class="edge">
<title>Node11&#45;&gt;Node3</title>
<path fill="none" stroke="midnightblue" d="M1045.51,-144.61C1026.95,-139.34 1006.85,-133.62 988.99,-128.55"/>
<polygon fill="midnightblue" stroke="midnightblue" points="1044.76,-148.03 1055.34,-147.4 1046.67,-141.3 1044.76,-148.03"/>
</g>
<!-- Node12&#45;&gt;Node3 -->
<g id="edge13" class="edge">
<title>Node12&#45;&gt;Node3</title>
<path fill="none" stroke="midnightblue" d="M1039.56,-113.5C1031.2,-113.5 1022.62,-113.5 1014.14,-113.5"/>
<polygon fill="midnightblue" stroke="midnightblue" points="1039.62,-117 1049.62,-113.5 1039.62,-110 1039.62,-117"/>
</g>
<!-- Node13&#45;&gt;Node3 -->
<g id="edge15" class="edge">
<title>Node13&#45;&gt;Node3</title>
<path fill="none" stroke="midnightblue" d="M1045.51,-82.39C1026.95,-87.66 1006.85,-93.38 988.99,-98.45"/>
<polygon fill="midnightblue" stroke="midnightblue" points="1046.67,-85.7 1055.34,-79.6 1044.76,-78.97 1046.67,-85.7"/>
</g>
<!-- Node14&#45;&gt;Node3 -->
<g id="edge17" class="edge">
<title>Node14&#45;&gt;Node3</title>
<path fill="none" stroke="midnightblue" d="M1061.46,-34.79C1057.54,-36.64 1053.68,-38.55 1050,-40.5 1016.35,-58.31 979.64,-82.81 957.21,-98.4"/>
<polygon fill="midnightblue" stroke="midnightblue" points="1062.98,-37.94 1070.62,-30.6 1060.07,-31.57 1062.98,-37.94"/>
</g>
</g>
</svg>
