<?xml version="1.0" encoding="UTF-8" standalone="no"?>
<!DOCTYPE svg PUBLIC "-//W3C//DTD SVG 1.1//EN"
 "http://www.w3.org/Graphics/SVG/1.1/DTD/svg11.dtd">
<!-- Generated by graphviz version 2.43.0 (0)
 -->
<!-- Title: carta::Frame::FillHistogramFromCache Pages: 1 -->
<!--zoomable 241 -->
<svg id="main" version="1.1" xmlns="http://www.w3.org/2000/svg" xmlns:xlink="http://www.w3.org/1999/xlink" xml:space="preserve" onload="init(evt)">
<style type="text/css"><![CDATA[
.edge:hover path { stroke: red; }
.edge:hover polygon { stroke: red; fill: red; }
]]></style>
<script type="text/javascript"><![CDATA[
var edges = document.getElementsByTagName('g');
if (edges && edges.length) {
  for (var i=0;i<edges.length;i++) {
    if (edges[i].id.substr(0,4)=='edge') {
      edges[i].setAttribute('class','edge');
    }
  }
}
]]></script>
        <defs>
                <circle id="rim" cx="0" cy="0" r="7"/>
                <circle id="rim2" cx="0" cy="0" r="3.5"/>
                <g id="zoomPlus">
                        <use xlink:href="#rim" fill="#404040">
                                <set attributeName="fill" to="#808080" begin="zoomplus.mouseover" end="zoomplus.mouseout"/>
                        </use>
                        <path d="M-4,0h8M0,-4v8" fill="none" stroke="white" stroke-width="1.5" pointer-events="none"/>
                </g>
                <g id="zoomMin">
                        <use xlink:href="#rim" fill="#404040">
                                <set attributeName="fill" to="#808080" begin="zoomminus.mouseover" end="zoomminus.mouseout"/>
                        </use>
                        <path d="M-4,0h8" fill="none" stroke="white" stroke-width="1.5" pointer-events="none"/>
                </g>
                <g id="dirArrow">
                        <path fill="none" stroke="white" stroke-width="1.5" d="M0,-3.0v7 M-2.5,-0.5L0,-3.0L2.5,-0.5"/>
                </g>
               <g id="resetDef">
                       <use xlink:href="#rim2" fill="#404040">
                               <set attributeName="fill" to="#808080" begin="reset.mouseover" end="reset.mouseout"/>
                       </use>
               </g>
        </defs>

<script type="text/javascript">
var viewWidth = 936;
var viewHeight = 241;
var sectionId = 'dynsection-21';
</script>
<script xlink:href="svgpan.js"/>
<svg id="graph" class="graph">
<g id="viewport">
<title>carta::Frame::FillHistogramFromCache</title>
<!-- Node1 -->
<g id="node1" class="node">
<title>Node1</title>
<g id="a_node1"><a xlink:title=" ">
<polygon fill="#bfbfbf" stroke="black" points="0,-152 0,-182 149,-182 149,-152 0,-152"/>
<text text-anchor="start" x="8" y="-170" font-family="Helvetica,sans-Serif" font-size="10.00">carta::Frame::FillHistogram</text>
<text text-anchor="middle" x="74.5" y="-159" font-family="Helvetica,sans-Serif" font-size="10.00">FromCache</text>
</a>
</g>
</g>
<!-- Node2 -->
<g id="node2" class="node">
<title>Node2</title>
<g id="a_node2"><a xlink:href="classcarta_1_1Frame.html#af4487db12b8553663cadf357d5c4c9f3" target="_top" xlink:title=" ">
<polygon fill="none" stroke="black" points="185,-128 185,-158 334,-158 334,-128 185,-128"/>
<text text-anchor="start" x="193" y="-146" font-family="Helvetica,sans-Serif" font-size="10.00">carta::Frame::FillHistogram</text>
<text text-anchor="middle" x="259.5" y="-135" font-family="Helvetica,sans-Serif" font-size="10.00">FromFrameCache</text>
</a>
</g>
</g>
<!-- Node1&#45;&gt;Node2 -->
<g id="edge1" class="edge">
<title>Node1&#45;&gt;Node2</title>
<path fill="none" stroke="midnightblue" d="M149.14,-157.34C157.57,-156.24 166.2,-155.11 174.74,-153.98"/>
<polygon fill="midnightblue" stroke="midnightblue" points="175.25,-157.45 184.71,-152.68 174.34,-150.51 175.25,-157.45"/>
</g>
<!-- Node19 -->
<g id="node19" class="node">
<title>Node19</title>
<g id="a_node19"><a xlink:href="classcarta_1_1Frame.html#afe5a0151cdf414ebe9707ad5ba670e82" target="_top" xlink:title=" ">
<polygon fill="none" stroke="black" points="185,-187 185,-217 334,-217 334,-187 185,-187"/>
<text text-anchor="start" x="193" y="-205" font-family="Helvetica,sans-Serif" font-size="10.00">carta::Frame::FillHistogram</text>
<text text-anchor="middle" x="259.5" y="-194" font-family="Helvetica,sans-Serif" font-size="10.00">FromLoaderCache</text>
</a>
</g>
</g>
<!-- Node1&#45;&gt;Node19 -->
<g id="edge21" class="edge">
<title>Node1&#45;&gt;Node19</title>
<path fill="none" stroke="midnightblue" d="M149.14,-181.08C157.57,-182.7 166.2,-184.35 174.74,-185.98"/>
<polygon fill="midnightblue" stroke="midnightblue" points="174.23,-189.45 184.71,-187.89 175.55,-182.57 174.23,-189.45"/>
</g>
<!-- Node3 -->
<g id="node3" class="node">
<title>Node3</title>
<g id="a_node3"><a xlink:href="classcarta_1_1Frame.html#a54fa0e39d0db24c3f5913668935f69ef" target="_top" xlink:title=" ">
<polygon fill="none" stroke="black" points="382.5,-26.5 382.5,-45.5 525.5,-45.5 525.5,-26.5 382.5,-26.5"/>
<text text-anchor="middle" x="454" y="-33.5" font-family="Helvetica,sans-Serif" font-size="10.00">carta::Frame::AutoBinSize</text>
</a>
</g>
</g>
<!-- Node2&#45;&gt;Node3 -->
<g id="edge2" class="edge">
<title>Node2&#45;&gt;Node3</title>
<path fill="none" stroke="midnightblue" d="M274.91,-127.73C294.52,-107.89 331.59,-73.6 370,-55 374.99,-52.58 380.3,-50.47 385.72,-48.62"/>
<polygon fill="midnightblue" stroke="midnightblue" points="387.06,-51.86 395.58,-45.56 384.99,-45.18 387.06,-51.86"/>
</g>
<!-- Node4 -->
<g id="node4" class="node">
<title>Node4</title>
<g id="a_node4"><a xlink:href="Message_8cc.html#aadf644bd365f0198b09a7196f9990511" target="_top" xlink:title=" ">
<polygon fill="none" stroke="black" points="413,-202.5 413,-221.5 495,-221.5 495,-202.5 413,-202.5"/>
<text text-anchor="middle" x="454" y="-209.5" font-family="Helvetica,sans-Serif" font-size="10.00">FillHistogram</text>
</a>
</g>
</g>
<!-- Node2&#45;&gt;Node4 -->
<g id="edge3" class="edge">
<title>Node2&#45;&gt;Node4</title>
<path fill="none" stroke="midnightblue" d="M291.54,-158.03C318.23,-170.79 354.76,-187.84 370,-193 380.5,-196.56 391.98,-199.66 402.96,-202.28"/>
<polygon fill="midnightblue" stroke="midnightblue" points="402.33,-205.72 412.86,-204.53 403.89,-198.9 402.33,-205.72"/>
</g>
<!-- Node5 -->
<g id="node5" class="node">
<title>Node5</title>
<g id="a_node5"><a xlink:href="classcarta_1_1Frame.html#a1bd6cad34fcc337311218150f6771850" target="_top" xlink:title=" ">
<polygon fill="none" stroke="black" points="378,-114.5 378,-133.5 530,-133.5 530,-114.5 378,-114.5"/>
<text text-anchor="middle" x="454" y="-121.5" font-family="Helvetica,sans-Serif" font-size="10.00">carta::Frame::GetBasicStats</text>
</a>
</g>
</g>
<!-- Node2&#45;&gt;Node5 -->
<g id="edge4" class="edge">
<title>Node2&#45;&gt;Node5</title>
<path fill="none" stroke="midnightblue" d="M334.1,-135.74C345.07,-134.65 356.46,-133.53 367.65,-132.42"/>
<polygon fill="midnightblue" stroke="midnightblue" points="368.24,-135.88 377.85,-131.42 367.55,-128.92 368.24,-135.88"/>
</g>
<!-- Node17 -->
<g id="node17" class="node">
<title>Node17</title>
<g id="a_node17"><a xlink:href="classcarta_1_1Frame.html#ad9567a14e7b8b2770249aa7062c89e72" target="_top" xlink:title=" ">
<polygon fill="none" stroke="black" points="373,-65 373,-95 535,-95 535,-65 373,-65"/>
<text text-anchor="start" x="381" y="-83" font-family="Helvetica,sans-Serif" font-size="10.00">carta::Frame::GetCachedCube</text>
<text text-anchor="middle" x="454" y="-72" font-family="Helvetica,sans-Serif" font-size="10.00">Histogram</text>
</a>
</g>
</g>
<!-- Node2&#45;&gt;Node17 -->
<g id="edge18" class="edge">
<title>Node2&#45;&gt;Node17</title>
<path fill="none" stroke="midnightblue" d="M302.48,-127.97C322.81,-120.82 347.6,-112.26 370,-105 377.17,-102.68 384.71,-100.31 392.2,-98"/>
<polygon fill="midnightblue" stroke="midnightblue" points="393.44,-101.28 401.98,-95 391.39,-94.58 393.44,-101.28"/>
</g>
<!-- Node18 -->
<g id="node18" class="node">
<title>Node18</title>
<g id="a_node18"><a xlink:href="classcarta_1_1Frame.html#a12a1464ae152ffc4dad5e1a9bcf5cac4" target="_top" xlink:title=" ">
<polygon fill="none" stroke="black" points="370,-153 370,-183 538,-183 538,-153 370,-153"/>
<text text-anchor="start" x="378" y="-171" font-family="Helvetica,sans-Serif" font-size="10.00">carta::Frame::GetCachedImage</text>
<text text-anchor="middle" x="454" y="-160" font-family="Helvetica,sans-Serif" font-size="10.00">Histogram</text>
</a>
</g>
</g>
<!-- Node2&#45;&gt;Node18 -->
<g id="edge19" class="edge">
<title>Node2&#45;&gt;Node18</title>
<path fill="none" stroke="midnightblue" d="M334.1,-152.56C342.49,-153.65 351.13,-154.77 359.73,-155.89"/>
<polygon fill="midnightblue" stroke="midnightblue" points="359.43,-159.38 369.8,-157.19 360.33,-152.44 359.43,-159.38"/>
</g>
<!-- Node6 -->
<g id="node6" class="node">
<title>Node6</title>
<g id="a_node6"><a xlink:href="classcarta_1_1Frame.html#a1614c68dbc09df9dd7212cbcf909fa43" target="_top" xlink:title=" ">
<polygon fill="none" stroke="black" points="587.5,-190.5 587.5,-209.5 719.5,-209.5 719.5,-190.5 587.5,-190.5"/>
<text text-anchor="middle" x="653.5" y="-197.5" font-family="Helvetica,sans-Serif" font-size="10.00">carta::Frame::CacheKey</text>
</a>
</g>
</g>
<!-- Node5&#45;&gt;Node6 -->
<g id="edge5" class="edge">
<title>Node5&#45;&gt;Node6</title>
<path fill="none" stroke="midnightblue" d="M513.31,-133.61C521.9,-136.28 530.4,-139.67 538,-144 557.94,-155.36 554.07,-169.63 574,-181 577.94,-183.25 582.14,-185.23 586.48,-186.98"/>
<polygon fill="midnightblue" stroke="midnightblue" points="585.52,-190.36 596.12,-190.45 587.89,-183.77 585.52,-190.36"/>
</g>
<!-- Node7 -->
<g id="node7" class="node">
<title>Node7</title>
<g id="a_node7"><a xlink:href="namespacecarta.html#a96f7cab56516141317895bada342c0b1" target="_top" xlink:title=" ">
<polygon fill="none" stroke="black" points="594,-152.5 594,-171.5 713,-171.5 713,-152.5 594,-152.5"/>
<text text-anchor="middle" x="653.5" y="-159.5" font-family="Helvetica,sans-Serif" font-size="10.00">carta::CalcBasicStats</text>
</a>
</g>
</g>
<!-- Node5&#45;&gt;Node7 -->
<g id="edge6" class="edge">
<title>Node5&#45;&gt;Node7</title>
<path fill="none" stroke="midnightblue" d="M504.58,-133.54C531.35,-138.69 564.58,-145.08 592.76,-150.51"/>
<polygon fill="midnightblue" stroke="midnightblue" points="592.42,-154 602.9,-152.46 593.74,-147.13 592.42,-154"/>
</g>
<!-- Node10 -->
<g id="node10" class="node">
<title>Node10</title>
<g id="a_node10"><a xlink:href="classcarta_1_1Frame.html#a30b016834ce04378ba3d0a34f373db3f" target="_top" xlink:title=" ">
<polygon fill="none" stroke="black" points="577.5,-38.5 577.5,-57.5 729.5,-57.5 729.5,-38.5 577.5,-38.5"/>
<text text-anchor="middle" x="653.5" y="-45.5" font-family="Helvetica,sans-Serif" font-size="10.00">carta::Frame::CurrentStokes</text>
</a>
</g>
</g>
<!-- Node5&#45;&gt;Node10 -->
<g id="edge9" class="edge">
<title>Node5&#45;&gt;Node10</title>
<path fill="none" stroke="midnightblue" d="M515.97,-114.43C523.65,-111.97 531.2,-108.88 538,-105 558.2,-93.47 553.87,-78.66 574,-67 577.86,-64.77 581.97,-62.79 586.21,-61.05"/>
<polygon fill="midnightblue" stroke="midnightblue" points="587.47,-64.32 595.66,-57.6 585.06,-57.75 587.47,-64.32"/>
</g>
<!-- Node11 -->
<g id="node11" class="node">
<title>Node11</title>
<g id="a_node11"><a xlink:href="classcarta_1_1Frame.html#a1eda290558f3e9a6be5d4149c06e1b7b" target="_top" xlink:title=" ">
<polygon fill="none" stroke="black" points="590,-0.5 590,-19.5 717,-19.5 717,-0.5 590,-0.5"/>
<text text-anchor="middle" x="653.5" y="-7.5" font-family="Helvetica,sans-Serif" font-size="10.00">carta::Frame::CurrentZ</text>
</a>
</g>
</g>
<!-- Node5&#45;&gt;Node11 -->
<g id="edge10" class="edge">
<title>Node5&#45;&gt;Node11</title>
<path fill="none" stroke="midnightblue" d="M522.3,-114.34C527.93,-111.86 533.27,-108.8 538,-105 567.14,-81.59 545.01,-52.59 574,-29 576.05,-27.34 578.22,-25.81 580.48,-24.42"/>
<polygon fill="midnightblue" stroke="midnightblue" points="582.36,-27.39 589.61,-19.67 579.13,-21.18 582.36,-27.39"/>
</g>
<!-- Node12 -->
<g id="node12" class="node">
<title>Node12</title>
<g id="a_node12"><a xlink:href="classcarta_1_1Frame.html#a6ad0a2d3fbde3a9f346684e5ce541da6" target="_top" xlink:title=" ">
<polygon fill="none" stroke="black" points="574,-114.5 574,-133.5 733,-133.5 733,-114.5 574,-114.5"/>
<text text-anchor="middle" x="653.5" y="-121.5" font-family="Helvetica,sans-Serif" font-size="10.00">carta::Frame::FillImageCache</text>
</a>
</g>
</g>
<!-- Node5&#45;&gt;Node12 -->
<g id="edge11" class="edge">
<title>Node5&#45;&gt;Node12</title>
<path fill="none" stroke="midnightblue" d="M530.23,-124C541.16,-124 552.5,-124 563.68,-124"/>
<polygon fill="midnightblue" stroke="midnightblue" points="563.87,-127.5 573.87,-124 563.87,-120.5 563.87,-127.5"/>
</g>
<!-- Node16 -->
<g id="node16" class="node">
<title>Node16</title>
<g id="a_node16"><a xlink:href="classcarta_1_1Frame.html#a68a31253118f829703cbfb42e0c81257" target="_top" xlink:title=" ">
<polygon fill="none" stroke="black" points="583.5,-76.5 583.5,-95.5 723.5,-95.5 723.5,-76.5 583.5,-76.5"/>
<text text-anchor="middle" x="653.5" y="-83.5" font-family="Helvetica,sans-Serif" font-size="10.00">carta::Frame::GetZMatrix</text>
</a>
</g>
</g>
<!-- Node5&#45;&gt;Node16 -->
<g id="edge15" class="edge">
<title>Node5&#45;&gt;Node16</title>
<path fill="none" stroke="midnightblue" d="M504.58,-114.46C531.35,-109.31 564.58,-102.92 592.76,-97.49"/>
<polygon fill="midnightblue" stroke="midnightblue" points="593.74,-100.87 602.9,-95.54 592.42,-94 593.74,-100.87"/>
</g>
<!-- Node8 -->
<g id="node8" class="node">
<title>Node8</title>
<g id="a_node8"><a xlink:href="classcarta_1_1BasicStatsCalculator.html#a29d141b4a8a8e26a6ef58c982447efea" target="_top" xlink:title=" ">
<polygon fill="none" stroke="black" points="774.5,-202 774.5,-232 922.5,-232 922.5,-202 774.5,-202"/>
<text text-anchor="start" x="782.5" y="-220" font-family="Helvetica,sans-Serif" font-size="10.00">carta::BasicStatsCalculator</text>
<text text-anchor="middle" x="848.5" y="-209" font-family="Helvetica,sans-Serif" font-size="10.00">::GetStats</text>
</a>
</g>
</g>
<!-- Node7&#45;&gt;Node8 -->
<g id="edge7" class="edge">
<title>Node7&#45;&gt;Node8</title>
<path fill="none" stroke="midnightblue" d="M696.63,-171.51C708.45,-174.36 721.27,-177.63 733,-181 749.21,-185.65 752.93,-187.87 769,-193 775.06,-194.94 781.39,-196.93 787.71,-198.89"/>
<polygon fill="midnightblue" stroke="midnightblue" points="787.02,-202.34 797.61,-201.95 789.09,-195.65 787.02,-202.34"/>
</g>
<!-- Node9 -->
<g id="node9" class="node">
<title>Node9</title>
<g id="a_node9"><a xlink:href="classcarta_1_1BasicStatsCalculator.html#a14873f9d84d2abb0fabe85f4b70d0a44" target="_top" xlink:title=" ">
<polygon fill="none" stroke="black" points="774.5,-153 774.5,-183 922.5,-183 922.5,-153 774.5,-153"/>
<text text-anchor="start" x="782.5" y="-171" font-family="Helvetica,sans-Serif" font-size="10.00">carta::BasicStatsCalculator</text>
<text text-anchor="middle" x="848.5" y="-160" font-family="Helvetica,sans-Serif" font-size="10.00">::reduce</text>
</a>
</g>
</g>
<!-- Node7&#45;&gt;Node9 -->
<g id="edge8" class="edge">
<title>Node7&#45;&gt;Node9</title>
<path fill="none" stroke="midnightblue" d="M713.19,-163.82C729.32,-164.33 747.13,-164.88 764.35,-165.42"/>
<polygon fill="midnightblue" stroke="midnightblue" points="764.31,-168.92 774.41,-165.73 764.53,-161.92 764.31,-168.92"/>
</g>
<!-- Node13 -->
<g id="node13" class="node">
<title>Node13</title>
<g id="a_node13"><a xlink:href="classcarta_1_1Timer.html#aad2702a80259920b910fb76642f97b88" target="_top" xlink:title=" ">
<polygon fill="none" stroke="black" points="788.5,-114.5 788.5,-133.5 908.5,-133.5 908.5,-114.5 788.5,-114.5"/>
<text text-anchor="middle" x="848.5" y="-121.5" font-family="Helvetica,sans-Serif" font-size="10.00">carta::Timer::Elapsed</text>
</a>
</g>
</g>
<!-- Node12&#45;&gt;Node13 -->
<g id="edge12" class="edge">
<title>Node12&#45;&gt;Node13</title>
<path fill="none" stroke="midnightblue" d="M733,-124C748.01,-124 763.62,-124 778.31,-124"/>
<polygon fill="midnightblue" stroke="midnightblue" points="778.31,-127.5 788.31,-124 778.31,-120.5 778.31,-127.5"/>
</g>
<!-- Node14 -->
<g id="node14" class="node">
<title>Node14</title>
<g id="a_node14"><a xlink:href="classcarta_1_1Frame.html#a9e748d02f7394ed01b69276b61a79825" target="_top" xlink:title=" ">
<polygon fill="none" stroke="black" points="769,-76.5 769,-95.5 928,-95.5 928,-76.5 769,-76.5"/>
<text text-anchor="middle" x="848.5" y="-83.5" font-family="Helvetica,sans-Serif" font-size="10.00">carta::Frame::GetImageSlicer</text>
</a>
</g>
</g>
<!-- Node12&#45;&gt;Node14 -->
<g id="edge13" class="edge">
<title>Node12&#45;&gt;Node14</title>
<path fill="none" stroke="midnightblue" d="M703.2,-114.41C729.36,-109.26 761.78,-102.88 789.27,-97.47"/>
<polygon fill="midnightblue" stroke="midnightblue" points="790.01,-100.89 799.15,-95.52 788.66,-94.02 790.01,-100.89"/>
</g>
<!-- Node15 -->
<g id="node15" class="node">
<title>Node15</title>
<g id="a_node15"><a xlink:href="classcarta_1_1Frame.html#a79c789ebc62771151da94673a325a31a" target="_top" xlink:title=" ">
<polygon fill="none" stroke="black" points="772.5,-38.5 772.5,-57.5 924.5,-57.5 924.5,-38.5 772.5,-38.5"/>
<text text-anchor="middle" x="848.5" y="-45.5" font-family="Helvetica,sans-Serif" font-size="10.00">carta::Frame::GetSlicerData</text>
</a>
</g>
</g>
<!-- Node12&#45;&gt;Node15 -->
<g id="edge14" class="edge">
<title>Node12&#45;&gt;Node15</title>
<path fill="none" stroke="midnightblue" d="M711.34,-114.4C718.9,-111.95 726.33,-108.87 733,-105 753.13,-93.34 748.87,-78.66 769,-67 772.86,-64.77 776.97,-62.79 781.21,-61.05"/>
<polygon fill="midnightblue" stroke="midnightblue" points="782.47,-64.32 790.66,-57.6 780.06,-57.75 782.47,-64.32"/>
</g>
<!-- Node16&#45;&gt;Node14 -->
<g id="edge16" class="edge">
<title>Node16&#45;&gt;Node14</title>
<path fill="none" stroke="midnightblue" d="M723.63,-86C734.93,-86 746.76,-86 758.46,-86"/>
<polygon fill="midnightblue" stroke="midnightblue" points="758.68,-89.5 768.68,-86 758.68,-82.5 758.68,-89.5"/>
</g>
<!-- Node16&#45;&gt;Node15 -->
<g id="edge17" class="edge">
<title>Node16&#45;&gt;Node15</title>
<path fill="none" stroke="midnightblue" d="M703.2,-76.41C729.36,-71.26 761.78,-64.88 789.27,-59.47"/>
<polygon fill="midnightblue" stroke="midnightblue" points="790.01,-62.89 799.15,-57.52 788.66,-56.02 790.01,-62.89"/>
</g>
<!-- Node18&#45;&gt;Node6 -->
<g id="edge20" class="edge">
<title>Node18&#45;&gt;Node6</title>
<path fill="none" stroke="midnightblue" d="M538.19,-181.48C553.35,-183.93 569.01,-186.47 583.7,-188.85"/>
<polygon fill="midnightblue" stroke="midnightblue" points="583.26,-192.33 593.69,-190.47 584.38,-185.42 583.26,-192.33"/>
</g>
<!-- Node19&#45;&gt;Node4 -->
<g id="edge22" class="edge">
<title>Node19&#45;&gt;Node4</title>
<path fill="none" stroke="midnightblue" d="M334.1,-205.82C356.98,-207.01 381.67,-208.29 402.59,-209.38"/>
<polygon fill="midnightblue" stroke="midnightblue" points="402.68,-212.89 412.85,-209.91 403.04,-205.9 402.68,-212.89"/>
</g>
</g>
</svg>
        <g id="navigator" transform="translate(0 0)" fill="#404254">
                <rect fill="#f2f5e9" fill-opacity="0.5" stroke="#606060" stroke-width=".5" x="0" y="0" width="60" height="60"/>
                <use id="zoomplus" xlink:href="#zoomPlus" x="17" y="9" onmousedown="handleZoom(evt,'in')"/>
                <use id="zoomminus" xlink:href="#zoomMin" x="42" y="9" onmousedown="handleZoom(evt,'out')"/>
                <use id="reset" xlink:href="#resetDef" x="30" y="36" onmousedown="handleReset()"/>
                <g id="arrowUp" xlink:href="#dirArrow" transform="translate(30 24)" onmousedown="handlePan(0,-1)">
                  <use xlink:href="#rim" fill="#404040">
                        <set attributeName="fill" to="#808080" begin="arrowUp.mouseover" end="arrowUp.mouseout"/>
                  </use>
                  <path fill="none" stroke="white" stroke-width="1.5" d="M0,-3.0v7 M-2.5,-0.5L0,-3.0L2.5,-0.5"/>
                </g>
                <g id="arrowRight" xlink:href="#dirArrow" transform="rotate(90) translate(36 -43)" onmousedown="handlePan(1,0)">
                  <use xlink:href="#rim" fill="#404040">
                        <set attributeName="fill" to="#808080" begin="arrowRight.mouseover" end="arrowRight.mouseout"/>
                  </use>
                  <path fill="none" stroke="white" stroke-width="1.5" d="M0,-3.0v7 M-2.5,-0.5L0,-3.0L2.5,-0.5"/>
                </g>
                <g id="arrowDown" xlink:href="#dirArrow" transform="rotate(180) translate(-30 -48)" onmousedown="handlePan(0,1)">
                  <use xlink:href="#rim" fill="#404040">
                        <set attributeName="fill" to="#808080" begin="arrowDown.mouseover" end="arrowDown.mouseout"/>
                  </use>
                  <path fill="none" stroke="white" stroke-width="1.5" d="M0,-3.0v7 M-2.5,-0.5L0,-3.0L2.5,-0.5"/>
                </g>
                <g id="arrowLeft" xlink:href="#dirArrow" transform="rotate(270) translate(-36 17)" onmousedown="handlePan(-1,0)">
                  <use xlink:href="#rim" fill="#404040">
                        <set attributeName="fill" to="#808080" begin="arrowLeft.mouseover" end="arrowLeft.mouseout"/>
                  </use>
                  <path fill="none" stroke="white" stroke-width="1.5" d="M0,-3.0v7 M-2.5,-0.5L0,-3.0L2.5,-0.5"/>
                </g>
        </g>
        <svg viewBox="0 0 15 15" width="100%" height="30px" preserveAspectRatio="xMaxYMin meet">
         <g id="arrow_out" transform="scale(0.3 0.3)">
          <a xlink:href="classcarta_1_1Frame_a81ac6f87981449dccd193fa2c81dddcf_cgraph_org.svg" target="_base">
           <rect id="button" ry="5" rx="5" y="6" x="6" height="38" width="38"
                fill="#f2f5e9" fill-opacity="0.5" stroke="#606060" stroke-width="1.0"/>
           <path id="arrow"
             d="M 11.500037,31.436501 C 11.940474,20.09759 22.043105,11.32322 32.158766,21.979434 L 37.068811,17.246167 C 37.068811,17.246167 37.088388,32 37.088388,32 L 22.160133,31.978069 C 22.160133,31.978069 26.997745,27.140456 26.997745,27.140456 C 18.528582,18.264221 13.291696,25.230495 11.500037,31.436501 z"
             style="fill:#404040;"/>
          </a>
         </g>
        </svg>
</svg>
