<?xml version="1.0" encoding="UTF-8" standalone="no"?>
<!DOCTYPE svg PUBLIC "-//W3C//DTD SVG 1.1//EN"
 "http://www.w3.org/Graphics/SVG/1.1/DTD/svg11.dtd">
<!-- Generated by graphviz version 2.43.0 (0)
 -->
<!-- Title: carta::Session::SendSpatialProfileDataByFileId Pages: 1 -->
<svg width="1078pt" height="132pt"
 viewBox="0.00 0.00 1078.00 132.00" xmlns="http://www.w3.org/2000/svg" xmlns:xlink="http://www.w3.org/1999/xlink">
<g id="graph0" class="graph" transform="scale(1 1) rotate(0) translate(4 128)">
<title>carta::Session::SendSpatialProfileDataByFileId</title>
<!-- Node1 -->
<g id="node1" class="node">
<title>Node1</title>
<g id="a_node1"><a xlink:title=" ">
<polygon fill="#bfbfbf" stroke="black" points="0,-30.5 0,-60.5 149,-60.5 149,-30.5 0,-30.5"/>
<text text-anchor="start" x="8" y="-48.5" font-family="Helvetica,sans-Serif" font-size="10.00">carta::Session::SendSpatial</text>
<text text-anchor="middle" x="74.5" y="-37.5" font-family="Helvetica,sans-Serif" font-size="10.00">ProfileDataByFileId</text>
</a>
</g>
</g>
<!-- Node2 -->
<g id="node2" class="node">
<title>Node2</title>
<g id="a_node2"><a xlink:href="classcarta_1_1Session.html#a120e85ac57a07414f829a228618ab5fe" target="_top" xlink:title=" ">
<polygon fill="none" stroke="black" points="185,-30.5 185,-60.5 334,-60.5 334,-30.5 185,-30.5"/>
<text text-anchor="start" x="193" y="-48.5" font-family="Helvetica,sans-Serif" font-size="10.00">carta::Session::SendSpatial</text>
<text text-anchor="middle" x="259.5" y="-37.5" font-family="Helvetica,sans-Serif" font-size="10.00">ProfileData</text>
</a>
</g>
</g>
<!-- Node1&#45;&gt;Node2 -->
<g id="edge1" class="edge">
<title>Node1&#45;&gt;Node2</title>
<path fill="none" stroke="midnightblue" d="M149.14,-45.5C157.47,-45.5 166.01,-45.5 174.46,-45.5"/>
<polygon fill="midnightblue" stroke="midnightblue" points="174.71,-49 184.71,-45.5 174.71,-42 174.71,-49"/>
</g>
<!-- Node3 -->
<g id="node3" class="node">
<title>Node3</title>
<g id="a_node3"><a xlink:href="classcarta_1_1Session.html#ae6ff58d2a61d3872bc741f12ed2b91d7" target="_top" xlink:title=" ">
<polygon fill="none" stroke="black" points="384,-52.5 384,-82.5 516,-82.5 516,-52.5 384,-52.5"/>
<text text-anchor="start" x="392" y="-70.5" font-family="Helvetica,sans-Serif" font-size="10.00">carta::Session::SendFile</text>
<text text-anchor="middle" x="450" y="-59.5" font-family="Helvetica,sans-Serif" font-size="10.00">Event</text>
</a>
</g>
</g>
<!-- Node2&#45;&gt;Node3 -->
<g id="edge2" class="edge">
<title>Node2&#45;&gt;Node3</title>
<path fill="none" stroke="midnightblue" d="M334.19,-54.1C347.14,-55.61 360.64,-57.19 373.64,-58.71"/>
<polygon fill="midnightblue" stroke="midnightblue" points="373.6,-62.22 383.94,-59.91 374.42,-55.27 373.6,-62.22"/>
</g>
<!-- Node9 -->
<g id="node9" class="node">
<title>Node9</title>
<g id="a_node9"><a xlink:href="classcarta_1_1Session.html#a9614e33dea4622ec90432fa7aad7a451" target="_top" xlink:title=" ">
<polygon fill="none" stroke="black" points="370,-14 370,-33 530,-33 530,-14 370,-14"/>
<text text-anchor="middle" x="450" y="-21" font-family="Helvetica,sans-Serif" font-size="10.00">carta::Session::SendLogEvent</text>
</a>
</g>
</g>
<!-- Node2&#45;&gt;Node9 -->
<g id="edge8" class="edge">
<title>Node2&#45;&gt;Node9</title>
<path fill="none" stroke="midnightblue" d="M334.19,-36.9C342.58,-35.92 351.19,-34.92 359.75,-33.92"/>
<polygon fill="midnightblue" stroke="midnightblue" points="360.23,-37.38 369.76,-32.75 359.42,-30.43 360.23,-37.38"/>
</g>
<!-- Node4 -->
<g id="node4" class="node">
<title>Node4</title>
<g id="a_node4"><a xlink:href="classcarta_1_1Session.html#af5f45b72e3fb7d4ad6fbf32fcc9da912" target="_top" xlink:title=" ">
<polygon fill="none" stroke="black" points="566,-55 566,-74 709,-74 709,-55 566,-55"/>
<text text-anchor="middle" x="637.5" y="-62" font-family="Helvetica,sans-Serif" font-size="10.00">carta::Session::SendEvent</text>
</a>
</g>
</g>
<!-- Node3&#45;&gt;Node4 -->
<g id="edge3" class="edge">
<title>Node3&#45;&gt;Node4</title>
<path fill="none" stroke="midnightblue" d="M516.14,-66.45C528.95,-66.24 542.54,-66.02 555.79,-65.81"/>
<polygon fill="midnightblue" stroke="midnightblue" points="555.89,-69.3 565.84,-65.64 555.78,-62.31 555.89,-69.3"/>
</g>
<!-- Node5 -->
<g id="node5" class="node">
<title>Node5</title>
<g id="a_node5"><a xlink:href="namespacecarta_1_1logger.html#ab9e339746ee51ea21696ab43b50841d5" target="_top" xlink:title=" ">
<polygon fill="none" stroke="black" points="745,-99 745,-118 918,-118 918,-99 745,-99"/>
<text text-anchor="middle" x="831.5" y="-106" font-family="Helvetica,sans-Serif" font-size="10.00">carta::logger::LogSentEventType</text>
</a>
</g>
</g>
<!-- Node4&#45;&gt;Node5 -->
<g id="edge4" class="edge">
<title>Node4&#45;&gt;Node5</title>
<path fill="none" stroke="midnightblue" d="M680.16,-74.05C709.22,-80.71 748.19,-89.64 779.17,-96.74"/>
<polygon fill="midnightblue" stroke="midnightblue" points="778.39,-100.15 788.92,-98.97 779.95,-93.33 778.39,-100.15"/>
</g>
<!-- Node7 -->
<g id="node7" class="node">
<title>Node7</title>
<g id="a_node7"><a xlink:href="classcarta_1_1concurrent__queue.html#ab1a11795f017e1c7dd870fce5da5ede1" target="_top" xlink:title=" ">
<polygon fill="none" stroke="black" points="764.5,-49.5 764.5,-79.5 898.5,-79.5 898.5,-49.5 764.5,-49.5"/>
<text text-anchor="start" x="772.5" y="-67.5" font-family="Helvetica,sans-Serif" font-size="10.00">carta::concurrent_queue</text>
<text text-anchor="middle" x="831.5" y="-56.5" font-family="Helvetica,sans-Serif" font-size="10.00">::push</text>
</a>
</g>
</g>
<!-- Node4&#45;&gt;Node7 -->
<g id="edge6" class="edge">
<title>Node4&#45;&gt;Node7</title>
<path fill="none" stroke="midnightblue" d="M709.18,-64.5C723.86,-64.5 739.39,-64.5 754.26,-64.5"/>
<polygon fill="midnightblue" stroke="midnightblue" points="754.43,-68 764.43,-64.5 754.43,-61 754.43,-68"/>
</g>
<!-- Node8 -->
<g id="node8" class="node">
<title>Node8</title>
<g id="a_node8"><a xlink:href="classcarta_1_1concurrent__queue.html#a44dc990ae7a71921648cad573058357d" target="_top" xlink:title=" ">
<polygon fill="none" stroke="black" points="764.5,-0.5 764.5,-30.5 898.5,-30.5 898.5,-0.5 764.5,-0.5"/>
<text text-anchor="start" x="772.5" y="-18.5" font-family="Helvetica,sans-Serif" font-size="10.00">carta::concurrent_queue</text>
<text text-anchor="middle" x="831.5" y="-7.5" font-family="Helvetica,sans-Serif" font-size="10.00">::try_pop</text>
</a>
</g>
</g>
<!-- Node4&#45;&gt;Node8 -->
<g id="edge7" class="edge">
<title>Node4&#45;&gt;Node8</title>
<path fill="none" stroke="midnightblue" d="M675.98,-54.94C700.28,-48.73 732.69,-40.46 761.54,-33.1"/>
<polygon fill="midnightblue" stroke="midnightblue" points="762.76,-36.4 771.58,-30.54 761.02,-29.62 762.76,-36.4"/>
</g>
<!-- Node6 -->
<g id="node6" class="node">
<title>Node6</title>
<g id="a_node6"><a xlink:href="namespacecarta_1_1logger.html#a23c9bf75209165cf69eb8d50f64b81b4" target="_top" xlink:title=" ">
<polygon fill="none" stroke="black" points="954,-93.5 954,-123.5 1070,-123.5 1070,-93.5 954,-93.5"/>
<text text-anchor="start" x="962" y="-111.5" font-family="Helvetica,sans-Serif" font-size="10.00">carta::logger::log</text>
<text text-anchor="middle" x="1012" y="-100.5" font-family="Helvetica,sans-Serif" font-size="10.00">_protocol_messages</text>
</a>
</g>
</g>
<!-- Node5&#45;&gt;Node6 -->
<g id="edge5" class="edge">
<title>Node5&#45;&gt;Node6</title>
<path fill="none" stroke="midnightblue" d="M918.09,-108.5C926.74,-108.5 935.44,-108.5 943.86,-108.5"/>
<polygon fill="midnightblue" stroke="midnightblue" points="943.96,-112 953.96,-108.5 943.96,-105 943.96,-112"/>
</g>
<!-- Node9&#45;&gt;Node4 -->
<g id="edge10" class="edge">
<title>Node9&#45;&gt;Node4</title>
<path fill="none" stroke="midnightblue" d="M494.02,-33.01C520.62,-38.89 554.96,-46.48 583.26,-52.73"/>
<polygon fill="midnightblue" stroke="midnightblue" points="582.87,-56.23 593.39,-54.97 584.38,-49.4 582.87,-56.23"/>
</g>
<!-- Node10 -->
<g id="node10" class="node">
<title>Node10</title>
<g id="a_node10"><a xlink:href="classMessage.html#a99e84f303d54a46b1cf582bf343c7f29" target="_top" xlink:title=" ">
<polygon fill="none" stroke="black" points="581,-14 581,-33 694,-33 694,-14 581,-14"/>
<text text-anchor="middle" x="637.5" y="-21" font-family="Helvetica,sans-Serif" font-size="10.00">Message::ErrorData</text>
</a>
</g>
</g>
<!-- Node9&#45;&gt;Node10 -->
<g id="edge9" class="edge">
<title>Node9&#45;&gt;Node10</title>
<path fill="none" stroke="midnightblue" d="M530.21,-23.5C543.65,-23.5 557.48,-23.5 570.54,-23.5"/>
<polygon fill="midnightblue" stroke="midnightblue" points="570.82,-27 580.82,-23.5 570.82,-20 570.82,-27"/>
</g>
</g>
</svg>
