<?xml version="1.0" encoding="UTF-8" standalone="no"?>
<!DOCTYPE svg PUBLIC "-//W3C//DTD SVG 1.1//EN"
 "http://www.w3.org/Graphics/SVG/1.1/DTD/svg11.dtd">
<!-- Generated by graphviz version 2.43.0 (0)
 -->
<!-- Title: carta::RegionConverter Pages: 1 -->
<!--zoomable 321 -->
<svg id="main" version="1.1" xmlns="http://www.w3.org/2000/svg" xmlns:xlink="http://www.w3.org/1999/xlink" xml:space="preserve" onload="init(evt)">
<style type="text/css"><![CDATA[
.edge:hover path { stroke: red; }
.edge:hover polygon { stroke: red; fill: red; }
]]></style>
<script type="text/javascript"><![CDATA[
var edges = document.getElementsByTagName('g');
if (edges && edges.length) {
  for (var i=0;i<edges.length;i++) {
    if (edges[i].id.substr(0,4)=='edge') {
      edges[i].setAttribute('class','edge');
    }
  }
}
]]></script>
        <defs>
                <circle id="rim" cx="0" cy="0" r="7"/>
                <circle id="rim2" cx="0" cy="0" r="3.5"/>
                <g id="zoomPlus">
                        <use xlink:href="#rim" fill="#404040">
                                <set attributeName="fill" to="#808080" begin="zoomplus.mouseover" end="zoomplus.mouseout"/>
                        </use>
                        <path d="M-4,0h8M0,-4v8" fill="none" stroke="white" stroke-width="1.5" pointer-events="none"/>
                </g>
                <g id="zoomMin">
                        <use xlink:href="#rim" fill="#404040">
                                <set attributeName="fill" to="#808080" begin="zoomminus.mouseover" end="zoomminus.mouseout"/>
                        </use>
                        <path d="M-4,0h8" fill="none" stroke="white" stroke-width="1.5" pointer-events="none"/>
                </g>
                <g id="dirArrow">
                        <path fill="none" stroke="white" stroke-width="1.5" d="M0,-3.0v7 M-2.5,-0.5L0,-3.0L2.5,-0.5"/>
                </g>
               <g id="resetDef">
                       <use xlink:href="#rim2" fill="#404040">
                               <set attributeName="fill" to="#808080" begin="reset.mouseover" end="reset.mouseout"/>
                       </use>
               </g>
        </defs>

<script type="text/javascript">
var viewWidth = 822;
var viewHeight = 321;
var sectionId = 'dynsection-0';
</script>
<script xlink:href="svgpan.js"/>
<svg id="graph" class="graph">
<g id="viewport">
<title>carta::RegionConverter</title>
<!-- Node1 -->
<g id="node1" class="node">
<title>Node1</title>
<g id="a_node1"><a xlink:title=" ">
<polygon fill="#bfbfbf" stroke="black" points="685,-148 685,-167 814,-167 814,-148 685,-148"/>
<text text-anchor="middle" x="749.5" y="-155" font-family="Helvetica,sans-Serif" font-size="10.00">carta::RegionConverter</text>
</a>
</g>
</g>
<!-- Node2 -->
<g id="node2" class="node">
<title>Node2</title>
<g id="a_node2"><a xlink:title=" ">
<polygon fill="none" stroke="#bfbfbf" points="429.5,-285 429.5,-304 498.5,-304 498.5,-285 429.5,-285"/>
<text text-anchor="middle" x="464" y="-292" font-family="Helvetica,sans-Serif" font-size="10.00">std::mutex</text>
</a>
</g>
</g>
<!-- Node2&#45;&gt;Node1 -->
<g id="edge1" class="edge">
<title>Node2&#45;&gt;Node1</title>
<path fill="none" stroke="#9a32cd" stroke-dasharray="5,2" d="M508.7,-294.72C551.77,-293.08 618.05,-285.44 667,-256.5 704.75,-234.18 732.66,-187.59 743.52,-167.29"/>
<polygon fill="#9a32cd" stroke="#9a32cd" points="508.44,-291.22 498.54,-295.01 508.64,-298.22 508.44,-291.22"/>
<text text-anchor="middle" x="611" y="-293.5" font-family="Helvetica,sans-Serif" font-size="10.00"> _region_mutex</text>
</g>
<!-- Node3 -->
<g id="node3" class="node">
<title>Node3</title>
<g id="a_node3"><a xlink:title=" ">
<polygon fill="none" stroke="#bfbfbf" points="392,-235.5 392,-265.5 536,-265.5 536,-235.5 392,-235.5"/>
<text text-anchor="start" x="400" y="-253.5" font-family="Helvetica,sans-Serif" font-size="10.00">std::shared_ptr&lt; casacore</text>
<text text-anchor="middle" x="464" y="-242.5" font-family="Helvetica,sans-Serif" font-size="10.00">::CoordinateSystem &gt;</text>
</a>
</g>
</g>
<!-- Node3&#45;&gt;Node1 -->
<g id="edge2" class="edge">
<title>Node3&#45;&gt;Node1</title>
<path fill="none" stroke="#9a32cd" stroke-dasharray="5,2" d="M546.19,-243.52C583.98,-238.31 628.88,-229.24 667,-213.5 694.93,-201.97 722.98,-179.82 737.78,-167.11"/>
<polygon fill="#9a32cd" stroke="#9a32cd" points="545.7,-240.06 536.24,-244.83 546.62,-247 545.7,-240.06"/>
<text text-anchor="middle" x="611" y="-244.5" font-family="Helvetica,sans-Serif" font-size="10.00"> _reference_coord_sys</text>
</g>
<!-- Node4 -->
<g id="node4" class="node">
<title>Node4</title>
<g id="a_node4"><a xlink:href="structcarta_1_1RegionState.html" target="_top" xlink:title=" ">
<polygon fill="none" stroke="black" points="410.5,-197 410.5,-216 517.5,-216 517.5,-197 410.5,-197"/>
<text text-anchor="middle" x="464" y="-204" font-family="Helvetica,sans-Serif" font-size="10.00">carta::RegionState</text>
</a>
</g>
</g>
<!-- Node4&#45;&gt;Node1 -->
<g id="edge3" class="edge">
<title>Node4&#45;&gt;Node1</title>
<path fill="none" stroke="#9a32cd" stroke-dasharray="5,2" d="M527.91,-201.95C568.01,-198.33 620.91,-192.23 667,-182.5 685.54,-178.59 705.91,-172.34 721.65,-167.07"/>
<polygon fill="#9a32cd" stroke="#9a32cd" points="527.39,-198.48 517.74,-202.84 528,-205.45 527.39,-198.48"/>
<text text-anchor="middle" x="611" y="-201.5" font-family="Helvetica,sans-Serif" font-size="10.00"> _region_state</text>
</g>
<!-- Node5 -->
<g id="node5" class="node">
<title>Node5</title>
<g id="a_node5"><a xlink:title=" ">
<polygon fill="none" stroke="#bfbfbf" points="161.5,-205 161.5,-224 234.5,-224 234.5,-205 161.5,-205"/>
<text text-anchor="middle" x="198" y="-212" font-family="Helvetica,sans-Serif" font-size="10.00">RegionType</text>
</a>
</g>
</g>
<!-- Node5&#45;&gt;Node4 -->
<g id="edge4" class="edge">
<title>Node5&#45;&gt;Node4</title>
<path fill="none" stroke="#9a32cd" stroke-dasharray="5,2" d="M244.6,-213.12C290.67,-211.72 361.75,-209.57 410.22,-208.1"/>
<polygon fill="#9a32cd" stroke="#9a32cd" points="244.49,-209.62 234.6,-213.42 244.71,-216.62 244.49,-209.62"/>
<text text-anchor="middle" x="330.5" y="-214.5" font-family="Helvetica,sans-Serif" font-size="10.00"> type</text>
</g>
<!-- Node6 -->
<g id="node6" class="node">
<title>Node6</title>
<g id="a_node6"><a xlink:title=" ">
<polygon fill="none" stroke="#bfbfbf" points="179,-293 179,-312 217,-312 217,-293 179,-293"/>
<text text-anchor="middle" x="198" y="-300" font-family="Helvetica,sans-Serif" font-size="10.00">float</text>
</a>
</g>
</g>
<!-- Node6&#45;&gt;Node4 -->
<g id="edge5" class="edge">
<title>Node6&#45;&gt;Node4</title>
<path fill="none" stroke="#9a32cd" stroke-dasharray="5,2" d="M227.26,-301.45C264.21,-298.76 329.35,-289.3 373,-256.5 385.43,-247.16 378.63,-235.92 391,-226.5 396.78,-222.1 403.48,-218.67 410.41,-215.99"/>
<polygon fill="#9a32cd" stroke="#9a32cd" points="226.96,-297.96 217.19,-302.07 227.39,-304.95 226.96,-297.96"/>
<text text-anchor="middle" x="330.5" y="-294.5" font-family="Helvetica,sans-Serif" font-size="10.00"> rotation</text>
</g>
<!-- Node7 -->
<g id="node7" class="node">
<title>Node7</title>
<g id="a_node7"><a xlink:title=" ">
<polygon fill="none" stroke="#bfbfbf" points="183.5,-162 183.5,-181 212.5,-181 212.5,-162 183.5,-162"/>
<text text-anchor="middle" x="198" y="-169" font-family="Helvetica,sans-Serif" font-size="10.00">int</text>
</a>
</g>
</g>
<!-- Node7&#45;&gt;Node4 -->
<g id="edge6" class="edge">
<title>Node7&#45;&gt;Node4</title>
<path fill="none" stroke="#9a32cd" stroke-dasharray="5,2" d="M222.72,-174.36C256.23,-178.44 319.32,-186.23 373,-193.5 385.05,-195.13 397.99,-196.96 410.2,-198.71"/>
<polygon fill="#9a32cd" stroke="#9a32cd" points="222.9,-170.86 212.55,-173.13 222.05,-177.81 222.9,-170.86"/>
<text text-anchor="middle" x="330.5" y="-196.5" font-family="Helvetica,sans-Serif" font-size="10.00"> reference_file_id</text>
</g>
<!-- Node14 -->
<g id="node14" class="node">
<title>Node14</title>
<g id="a_node14"><a xlink:title=" ">
<polygon fill="none" stroke="#bfbfbf" points="391,-137 391,-178 537,-178 537,-137 391,-137"/>
<text text-anchor="start" x="399" y="-166" font-family="Helvetica,sans-Serif" font-size="10.00">std::unordered_map</text>
<text text-anchor="start" x="399" y="-155" font-family="Helvetica,sans-Serif" font-size="10.00">&lt; int, std::shared_ptr</text>
<text text-anchor="middle" x="464" y="-144" font-family="Helvetica,sans-Serif" font-size="10.00">&lt; casacore::LCRegion &gt; &gt;</text>
</a>
</g>
</g>
<!-- Node7&#45;&gt;Node14 -->
<g id="edge14" class="edge">
<title>Node7&#45;&gt;Node14</title>
<path fill="none" stroke="#9a32cd" stroke-dasharray="5,2" d="M222.49,-164.38C240.28,-159.38 265.43,-153.13 288,-150.5 321.68,-146.58 359.21,-147.4 390.86,-149.58"/>
<polygon fill="#9a32cd" stroke="#9a32cd" points="221.33,-161.08 212.7,-167.22 223.28,-167.8 221.33,-161.08"/>
<text text-anchor="middle" x="330.5" y="-153.5" font-family="Helvetica,sans-Serif" font-size="10.00"> keys</text>
</g>
<!-- Node8 -->
<g id="node8" class="node">
<title>Node8</title>
<g id="a_node8"><a xlink:title=" ">
<polygon fill="none" stroke="#bfbfbf" points="142.5,-243.5 142.5,-273.5 253.5,-273.5 253.5,-243.5 142.5,-243.5"/>
<text text-anchor="start" x="150.5" y="-261.5" font-family="Helvetica,sans-Serif" font-size="10.00">std::vector&lt; CARTA</text>
<text text-anchor="middle" x="198" y="-250.5" font-family="Helvetica,sans-Serif" font-size="10.00">::Point &gt;</text>
</a>
</g>
</g>
<!-- Node8&#45;&gt;Node4 -->
<g id="edge7" class="edge">
<title>Node8&#45;&gt;Node4</title>
<path fill="none" stroke="#9a32cd" stroke-dasharray="5,2" d="M263.5,-247.22C296.34,-241.33 336.86,-233.84 373,-226.5 388.84,-223.28 406.19,-219.49 421.4,-216.08"/>
<polygon fill="#9a32cd" stroke="#9a32cd" points="262.8,-243.79 253.57,-249 264.03,-250.68 262.8,-243.79"/>
<text text-anchor="middle" x="330.5" y="-244.5" font-family="Helvetica,sans-Serif" font-size="10.00"> control_points</text>
</g>
<!-- Node9 -->
<g id="node9" class="node">
<title>Node9</title>
<g id="a_node9"><a xlink:title=" ">
<polygon fill="none" stroke="#bfbfbf" points="0,-249 0,-268 41,-268 41,-249 0,-249"/>
<text text-anchor="middle" x="20.5" y="-256" font-family="Helvetica,sans-Serif" font-size="10.00">Point</text>
</a>
</g>
</g>
<!-- Node9&#45;&gt;Node8 -->
<g id="edge8" class="edge">
<title>Node9&#45;&gt;Node8</title>
<path fill="none" stroke="#9a32cd" stroke-dasharray="5,2" d="M51.52,-258.5C76.33,-258.5 112.21,-258.5 142.13,-258.5"/>
<polygon fill="#9a32cd" stroke="#9a32cd" points="51.29,-255 41.29,-258.5 51.29,-262 51.29,-255"/>
<text text-anchor="middle" x="83.5" y="-261.5" font-family="Helvetica,sans-Serif" font-size="10.00"> elements</text>
</g>
<!-- Node10 -->
<g id="node10" class="node">
<title>Node10</title>
<g id="a_node10"><a xlink:title=" ">
<polygon fill="none" stroke="#bfbfbf" points="445,-99 445,-118 483,-118 483,-99 445,-99"/>
<text text-anchor="middle" x="464" y="-106" font-family="Helvetica,sans-Serif" font-size="10.00">bool</text>
</a>
</g>
</g>
<!-- Node10&#45;&gt;Node1 -->
<g id="edge9" class="edge">
<title>Node10&#45;&gt;Node1</title>
<path fill="none" stroke="#9a32cd" stroke-dasharray="5,2" d="M493.21,-113.11C532.28,-119.52 605.05,-131.59 667,-142.5 676.78,-144.22 687.2,-146.11 697.22,-147.94"/>
<polygon fill="#9a32cd" stroke="#9a32cd" points="493.56,-109.62 483.12,-111.46 492.43,-116.53 493.56,-109.62"/>
<text text-anchor="middle" x="611" y="-145.5" font-family="Helvetica,sans-Serif" font-size="10.00"> _reference_region_set</text>
</g>
<!-- Node11 -->
<g id="node11" class="node">
<title>Node11</title>
<g id="a_node11"><a xlink:title=" ">
<polygon fill="none" stroke="#bfbfbf" points="402.5,-49.5 402.5,-79.5 525.5,-79.5 525.5,-49.5 402.5,-49.5"/>
<text text-anchor="start" x="410.5" y="-67.5" font-family="Helvetica,sans-Serif" font-size="10.00">std::vector&lt; casacore</text>
<text text-anchor="middle" x="464" y="-56.5" font-family="Helvetica,sans-Serif" font-size="10.00">::Quantity &gt;</text>
</a>
</g>
</g>
<!-- Node11&#45;&gt;Node1 -->
<g id="edge10" class="edge">
<title>Node11&#45;&gt;Node1</title>
<path fill="none" stroke="#9a32cd" stroke-dasharray="5,2" d="M535.82,-74.1C575.35,-80.89 624.96,-91.81 667,-108.5 692.93,-118.79 720.14,-136.85 735.64,-147.94"/>
<polygon fill="#9a32cd" stroke="#9a32cd" points="536.18,-70.61 525.74,-72.42 535.03,-77.52 536.18,-70.61"/>
<text text-anchor="middle" x="611" y="-111.5" font-family="Helvetica,sans-Serif" font-size="10.00"> _wcs_control_points</text>
</g>
<!-- Node12 -->
<g id="node12" class="node">
<title>Node12</title>
<g id="a_node12"><a xlink:title=" ">
<polygon fill="none" stroke="#bfbfbf" points="168.5,-55 168.5,-74 227.5,-74 227.5,-55 168.5,-55"/>
<text text-anchor="middle" x="198" y="-62" font-family="Helvetica,sans-Serif" font-size="10.00">Quantity</text>
</a>
</g>
</g>
<!-- Node12&#45;&gt;Node11 -->
<g id="edge11" class="edge">
<title>Node12&#45;&gt;Node11</title>
<path fill="none" stroke="#9a32cd" stroke-dasharray="5,2" d="M237.62,-64.5C280.9,-64.5 351.63,-64.5 402.31,-64.5"/>
<polygon fill="#9a32cd" stroke="#9a32cd" points="237.5,-61 227.5,-64.5 237.5,-68 237.5,-61"/>
<text text-anchor="middle" x="330.5" y="-67.5" font-family="Helvetica,sans-Serif" font-size="10.00"> elements</text>
</g>
<!-- Node13 -->
<g id="node13" class="node">
<title>Node13</title>
<g id="a_node13"><a xlink:title=" ">
<polygon fill="none" stroke="#bfbfbf" points="392,-0.5 392,-30.5 536,-30.5 536,-0.5 392,-0.5"/>
<text text-anchor="start" x="400" y="-18.5" font-family="Helvetica,sans-Serif" font-size="10.00">std::shared_ptr&lt; casacore</text>
<text text-anchor="middle" x="464" y="-7.5" font-family="Helvetica,sans-Serif" font-size="10.00">::WCRegion &gt;</text>
</a>
</g>
</g>
<!-- Node13&#45;&gt;Node1 -->
<g id="edge12" class="edge">
<title>Node13&#45;&gt;Node1</title>
<path fill="none" stroke="#9a32cd" stroke-dasharray="5,2" d="M546.64,-22.62C585.3,-28.86 630.83,-40.56 667,-62.5 703.42,-84.59 731.84,-128.54 743.17,-147.93"/>
<polygon fill="#9a32cd" stroke="#9a32cd" points="546.86,-19.11 536.44,-21.08 545.81,-26.04 546.86,-19.11"/>
<text text-anchor="middle" x="611" y="-65.5" font-family="Helvetica,sans-Serif" font-size="10.00"> _reference_region</text>
</g>
<!-- Node14&#45;&gt;Node1 -->
<g id="edge13" class="edge">
<title>Node14&#45;&gt;Node1</title>
<path fill="none" stroke="#9a32cd" stroke-dasharray="5,2" d="M547.31,-157.5C591.04,-157.5 643.98,-157.5 684.57,-157.5"/>
<polygon fill="#9a32cd" stroke="#9a32cd" points="547.27,-154 537.27,-157.5 547.27,-161 547.27,-154"/>
<text text-anchor="middle" x="611" y="-171.5" font-family="Helvetica,sans-Serif" font-size="10.00"> _converted_regions</text>
<text text-anchor="middle" x="611" y="-160.5" font-family="Helvetica,sans-Serif" font-size="10.00">_polygon_regions</text>
</g>
<!-- Node15 -->
<g id="node15" class="node">
<title>Node15</title>
<g id="a_node15"><a xlink:title=" ">
<polygon fill="none" stroke="#bfbfbf" points="126,-100.5 126,-130.5 270,-130.5 270,-100.5 126,-100.5"/>
<text text-anchor="start" x="134" y="-118.5" font-family="Helvetica,sans-Serif" font-size="10.00">std::shared_ptr&lt; casacore</text>
<text text-anchor="middle" x="198" y="-107.5" font-family="Helvetica,sans-Serif" font-size="10.00">::LCRegion &gt;</text>
</a>
</g>
</g>
<!-- Node15&#45;&gt;Node14 -->
<g id="edge15" class="edge">
<title>Node15&#45;&gt;Node14</title>
<path fill="none" stroke="#9a32cd" stroke-dasharray="5,2" d="M280.29,-120.5C309.66,-123.08 342.97,-126.91 373,-132.5 379.7,-133.75 386.62,-135.26 393.51,-136.91"/>
<polygon fill="#9a32cd" stroke="#9a32cd" points="280.34,-117 270.08,-119.64 279.75,-123.97 280.34,-117"/>
<text text-anchor="middle" x="330.5" y="-135.5" font-family="Helvetica,sans-Serif" font-size="10.00"> elements</text>
</g>
</g>
</svg>
        <g id="navigator" transform="translate(0 0)" fill="#404254">
                <rect fill="#f2f5e9" fill-opacity="0.5" stroke="#606060" stroke-width=".5" x="0" y="0" width="60" height="60"/>
                <use id="zoomplus" xlink:href="#zoomPlus" x="17" y="9" onmousedown="handleZoom(evt,'in')"/>
                <use id="zoomminus" xlink:href="#zoomMin" x="42" y="9" onmousedown="handleZoom(evt,'out')"/>
                <use id="reset" xlink:href="#resetDef" x="30" y="36" onmousedown="handleReset()"/>
                <g id="arrowUp" xlink:href="#dirArrow" transform="translate(30 24)" onmousedown="handlePan(0,-1)">
                  <use xlink:href="#rim" fill="#404040">
                        <set attributeName="fill" to="#808080" begin="arrowUp.mouseover" end="arrowUp.mouseout"/>
                  </use>
                  <path fill="none" stroke="white" stroke-width="1.5" d="M0,-3.0v7 M-2.5,-0.5L0,-3.0L2.5,-0.5"/>
                </g>
                <g id="arrowRight" xlink:href="#dirArrow" transform="rotate(90) translate(36 -43)" onmousedown="handlePan(1,0)">
                  <use xlink:href="#rim" fill="#404040">
                        <set attributeName="fill" to="#808080" begin="arrowRight.mouseover" end="arrowRight.mouseout"/>
                  </use>
                  <path fill="none" stroke="white" stroke-width="1.5" d="M0,-3.0v7 M-2.5,-0.5L0,-3.0L2.5,-0.5"/>
                </g>
                <g id="arrowDown" xlink:href="#dirArrow" transform="rotate(180) translate(-30 -48)" onmousedown="handlePan(0,1)">
                  <use xlink:href="#rim" fill="#404040">
                        <set attributeName="fill" to="#808080" begin="arrowDown.mouseover" end="arrowDown.mouseout"/>
                  </use>
                  <path fill="none" stroke="white" stroke-width="1.5" d="M0,-3.0v7 M-2.5,-0.5L0,-3.0L2.5,-0.5"/>
                </g>
                <g id="arrowLeft" xlink:href="#dirArrow" transform="rotate(270) translate(-36 17)" onmousedown="handlePan(-1,0)">
                  <use xlink:href="#rim" fill="#404040">
                        <set attributeName="fill" to="#808080" begin="arrowLeft.mouseover" end="arrowLeft.mouseout"/>
                  </use>
                  <path fill="none" stroke="white" stroke-width="1.5" d="M0,-3.0v7 M-2.5,-0.5L0,-3.0L2.5,-0.5"/>
                </g>
        </g>
        <svg viewBox="0 0 15 15" width="100%" height="30px" preserveAspectRatio="xMaxYMin meet">
         <g id="arrow_out" transform="scale(0.3 0.3)">
          <a xlink:href="classcarta_1_1RegionConverter__coll__graph_org.svg" target="_base">
           <rect id="button" ry="5" rx="5" y="6" x="6" height="38" width="38"
                fill="#f2f5e9" fill-opacity="0.5" stroke="#606060" stroke-width="1.0"/>
           <path id="arrow"
             d="M 11.500037,31.436501 C 11.940474,20.09759 22.043105,11.32322 32.158766,21.979434 L 37.068811,17.246167 C 37.068811,17.246167 37.088388,32 37.088388,32 L 22.160133,31.978069 C 22.160133,31.978069 26.997745,27.140456 26.997745,27.140456 C 18.528582,18.264221 13.291696,25.230495 11.500037,31.436501 z"
             style="fill:#404040;"/>
          </a>
         </g>
        </svg>
</svg>
