<?xml version="1.0" encoding="UTF-8" standalone="no"?>
<!DOCTYPE svg PUBLIC "-//W3C//DTD SVG 1.1//EN"
 "http://www.w3.org/Graphics/SVG/1.1/DTD/svg11.dtd">
<!-- Generated by graphviz version 2.43.0 (0)
 -->
<!-- Title: carta::RegionConverter::ReferenceRegionValid Pages: 1 -->
<svg width="484pt" height="88pt"
 viewBox="0.00 0.00 484.00 88.00" xmlns="http://www.w3.org/2000/svg" xmlns:xlink="http://www.w3.org/1999/xlink">
<g id="graph0" class="graph" transform="scale(1 1) rotate(0) translate(4 84)">
<title>carta::RegionConverter::ReferenceRegionValid</title>
<!-- Node1 -->
<g id="node1" class="node">
<title>Node1</title>
<g id="a_node1"><a xlink:title=" ">
<polygon fill="#bfbfbf" stroke="black" points="346,-24.5 346,-54.5 476,-54.5 476,-24.5 346,-24.5"/>
<text text-anchor="start" x="354" y="-42.5" font-family="Helvetica,sans-Serif" font-size="10.00">carta::RegionConverter</text>
<text text-anchor="middle" x="411" y="-31.5" font-family="Helvetica,sans-Serif" font-size="10.00">::ReferenceRegionValid</text>
</a>
</g>
</g>
<!-- Node2 -->
<g id="node2" class="node">
<title>Node2</title>
<g id="a_node2"><a xlink:href="classcarta_1_1RegionConverter.html#a0363c9591e779bc148c9789512976633" target="_top" xlink:title=" ">
<polygon fill="none" stroke="black" points="174,-24.5 174,-54.5 310,-54.5 310,-24.5 174,-24.5"/>
<text text-anchor="start" x="182" y="-42.5" font-family="Helvetica,sans-Serif" font-size="10.00">carta::RegionConverter</text>
<text text-anchor="middle" x="242" y="-31.5" font-family="Helvetica,sans-Serif" font-size="10.00">::GetConvertedLCRegion</text>
</a>
</g>
</g>
<!-- Node1&#45;&gt;Node2 -->
<g id="edge1" class="edge">
<title>Node1&#45;&gt;Node2</title>
<path fill="none" stroke="midnightblue" d="M335.67,-39.5C327.2,-39.5 318.61,-39.5 310.24,-39.5"/>
<polygon fill="midnightblue" stroke="midnightblue" points="335.91,-43 345.91,-39.5 335.91,-36 335.91,-43"/>
</g>
<!-- Node3 -->
<g id="node3" class="node">
<title>Node3</title>
<g id="a_node3"><a xlink:href="classcarta_1_1RegionConverter.html#a89824e293ea029863be230ee9136a9c1" target="_top" xlink:title=" ">
<polygon fill="none" stroke="black" points="4.5,-49.5 4.5,-79.5 133.5,-79.5 133.5,-49.5 4.5,-49.5"/>
<text text-anchor="start" x="12.5" y="-67.5" font-family="Helvetica,sans-Serif" font-size="10.00">carta::RegionConverter</text>
<text text-anchor="middle" x="69" y="-56.5" font-family="Helvetica,sans-Serif" font-size="10.00">::GetImageRegion</text>
</a>
</g>
</g>
<!-- Node2&#45;&gt;Node3 -->
<g id="edge2" class="edge">
<title>Node2&#45;&gt;Node3</title>
<path fill="none" stroke="midnightblue" d="M163.85,-50.78C153.71,-52.26 143.42,-53.77 133.55,-55.21"/>
<polygon fill="midnightblue" stroke="midnightblue" points="164.52,-54.22 173.91,-49.31 163.51,-47.29 164.52,-54.22"/>
</g>
<!-- Node4 -->
<g id="node4" class="node">
<title>Node4</title>
<g id="a_node4"><a xlink:href="classcarta_1_1RegionConverter.html#a27a07e5b73b1f32aefadb83b9ba61994" target="_top" xlink:title=" ">
<polygon fill="none" stroke="black" points="0,-0.5 0,-30.5 138,-30.5 138,-0.5 0,-0.5"/>
<text text-anchor="start" x="8" y="-18.5" font-family="Helvetica,sans-Serif" font-size="10.00">carta::RegionConverter</text>
<text text-anchor="middle" x="69" y="-7.5" font-family="Helvetica,sans-Serif" font-size="10.00">::GetImageRegionRecord</text>
</a>
</g>
</g>
<!-- Node2&#45;&gt;Node4 -->
<g id="edge3" class="edge">
<title>Node2&#45;&gt;Node4</title>
<path fill="none" stroke="midnightblue" d="M163.86,-28.67C155.25,-27.46 146.51,-26.24 138.02,-25.05"/>
<polygon fill="midnightblue" stroke="midnightblue" points="163.52,-32.16 173.91,-30.08 164.49,-25.23 163.52,-32.16"/>
</g>
</g>
</svg>
