<?xml version="1.0" encoding="UTF-8" standalone="no"?>
<!DOCTYPE svg PUBLIC "-//W3C//DTD SVG 1.1//EN"
 "http://www.w3.org/Graphics/SVG/1.1/DTD/svg11.dtd">
<!-- Generated by graphviz version 2.43.0 (0)
 -->
<!-- Title: carta::Table::NumRows Pages: 1 -->
<svg width="324pt" height="252pt"
 viewBox="0.00 0.00 324.00 251.50" xmlns="http://www.w3.org/2000/svg" xmlns:xlink="http://www.w3.org/1999/xlink">
<g id="graph0" class="graph" transform="scale(1 1) rotate(0) translate(4 247.5)">
<title>carta::Table::NumRows</title>
<!-- Node1 -->
<g id="node1" class="node">
<title>Node1</title>
<g id="a_node1"><a xlink:title=" ">
<polygon fill="#bfbfbf" stroke="black" points="188,-126 188,-145 316,-145 316,-126 188,-126"/>
<text text-anchor="middle" x="252" y="-133" font-family="Helvetica,sans-Serif" font-size="10.00">carta::Table::NumRows</text>
</a>
</g>
</g>
<!-- Node2 -->
<g id="node2" class="node">
<title>Node2</title>
<g id="a_node2"><a xlink:href="classcarta_1_1TableView.html#addd9c7cf7a1c17bb91788ba85f34769e" target="_top" xlink:title=" ">
<polygon fill="none" stroke="black" points="3,-224 3,-243 149,-243 149,-224 3,-224"/>
<text text-anchor="middle" x="76" y="-231" font-family="Helvetica,sans-Serif" font-size="10.00">carta::TableView::Combine</text>
</a>
</g>
</g>
<!-- Node1&#45;&gt;Node2 -->
<g id="edge1" class="edge">
<title>Node1&#45;&gt;Node2</title>
<path fill="none" stroke="midnightblue" d="M234.56,-152.35C216.09,-170.34 184.43,-198.4 152,-214.5 144.3,-218.32 135.76,-221.42 127.29,-223.92"/>
<polygon fill="midnightblue" stroke="midnightblue" points="237.23,-154.64 241.86,-145.1 232.3,-149.67 237.23,-154.64"/>
</g>
<!-- Node3 -->
<g id="node3" class="node">
<title>Node3</title>
<g id="a_node3"><a xlink:href="classcarta_1_1TableView.html#adf9dee6cf8ff10bf2ea71fa75f2744e3" target="_top" xlink:title=" ">
<polygon fill="none" stroke="black" points="10.5,-186 10.5,-205 141.5,-205 141.5,-186 10.5,-186"/>
<text text-anchor="middle" x="76" y="-193" font-family="Helvetica,sans-Serif" font-size="10.00">carta::TableView::Invert</text>
</a>
</g>
</g>
<!-- Node1&#45;&gt;Node3 -->
<g id="edge2" class="edge">
<title>Node1&#45;&gt;Node3</title>
<path fill="none" stroke="midnightblue" d="M221.23,-149.15C201.8,-157.73 175.71,-168.63 152,-176.5 141.55,-179.97 130.09,-183.16 119.36,-185.91"/>
<polygon fill="midnightblue" stroke="midnightblue" points="222.77,-152.3 230.47,-145.03 219.91,-145.91 222.77,-152.3"/>
</g>
<!-- Node4 -->
<g id="node4" class="node">
<title>Node4</title>
<g id="a_node4"><a xlink:href="classcarta_1_1TableView.html#ad085ef6d1fb7b1918ed7a82650850ab2" target="_top" xlink:title=" ">
<polygon fill="none" stroke="black" points="0,-148 0,-167 152,-167 152,-148 0,-148"/>
<text text-anchor="middle" x="76" y="-155" font-family="Helvetica,sans-Serif" font-size="10.00">carta::TableView::NumRows</text>
</a>
</g>
</g>
<!-- Node1&#45;&gt;Node4 -->
<g id="edge3" class="edge">
<title>Node1&#45;&gt;Node4</title>
<path fill="none" stroke="midnightblue" d="M177.53,-144.79C169.12,-145.85 160.53,-146.94 152.09,-148.01"/>
<polygon fill="midnightblue" stroke="midnightblue" points="178.21,-148.23 187.69,-143.5 177.33,-141.29 178.21,-148.23"/>
</g>
<!-- Node5 -->
<g id="node5" class="node">
<title>Node5</title>
<g id="a_node5"><a xlink:href="classcarta_1_1TableController.html#a20f1c4aae704eadf0d5e79df5a818ecb" target="_top" xlink:title=" ">
<polygon fill="none" stroke="black" points="15.5,-98.5 15.5,-128.5 136.5,-128.5 136.5,-98.5 15.5,-98.5"/>
<text text-anchor="start" x="23.5" y="-116.5" font-family="Helvetica,sans-Serif" font-size="10.00">carta::TableController</text>
<text text-anchor="middle" x="76" y="-105.5" font-family="Helvetica,sans-Serif" font-size="10.00">::OnFilterRequest</text>
</a>
</g>
</g>
<!-- Node1&#45;&gt;Node5 -->
<g id="edge4" class="edge">
<title>Node1&#45;&gt;Node5</title>
<path fill="none" stroke="midnightblue" d="M177.43,-126.2C163.88,-124.48 149.87,-122.71 136.78,-121.06"/>
<polygon fill="midnightblue" stroke="midnightblue" points="177.33,-129.71 187.69,-127.5 178.21,-122.77 177.33,-129.71"/>
</g>
<!-- Node6 -->
<g id="node6" class="node">
<title>Node6</title>
<g id="a_node6"><a xlink:href="classcarta_1_1TableController.html#a3057e31ec0c81bb9f4bde8b7371cb8e0" target="_top" xlink:title=" ">
<polygon fill="none" stroke="black" points="15.5,-49.5 15.5,-79.5 136.5,-79.5 136.5,-49.5 15.5,-49.5"/>
<text text-anchor="start" x="23.5" y="-67.5" font-family="Helvetica,sans-Serif" font-size="10.00">carta::TableController</text>
<text text-anchor="middle" x="76" y="-56.5" font-family="Helvetica,sans-Serif" font-size="10.00">::OnOpenFileRequest</text>
</a>
</g>
</g>
<!-- Node1&#45;&gt;Node6 -->
<g id="edge5" class="edge">
<title>Node1&#45;&gt;Node6</title>
<path fill="none" stroke="midnightblue" d="M222.93,-121.42C203.31,-111.84 176.37,-99.19 152,-89.5 143.33,-86.05 133.97,-82.67 124.9,-79.57"/>
<polygon fill="midnightblue" stroke="midnightblue" points="221.42,-124.58 231.93,-125.85 224.51,-118.3 221.42,-124.58"/>
</g>
<!-- Node7 -->
<g id="node7" class="node">
<title>Node7</title>
<g id="a_node7"><a xlink:href="classcarta_1_1TableView.html#ad4d7f9a4791b2151ddff48755353ec24" target="_top" xlink:title=" ">
<polygon fill="none" stroke="black" points="9,-0.5 9,-30.5 143,-30.5 143,-0.5 9,-0.5"/>
<text text-anchor="start" x="17" y="-18.5" font-family="Helvetica,sans-Serif" font-size="10.00">carta::TableView::SortBy</text>
<text text-anchor="middle" x="76" y="-7.5" font-family="Helvetica,sans-Serif" font-size="10.00">Column</text>
</a>
</g>
</g>
<!-- Node1&#45;&gt;Node7 -->
<g id="edge6" class="edge">
<title>Node1&#45;&gt;Node7</title>
<path fill="none" stroke="midnightblue" d="M237.16,-118.14C219.47,-97.03 186.95,-61.6 152,-40.5 145.77,-36.74 138.91,-33.46 131.94,-30.64"/>
<polygon fill="midnightblue" stroke="midnightblue" points="234.54,-120.47 243.59,-125.98 239.95,-116.03 234.54,-120.47"/>
</g>
</g>
</svg>
