<?xml version="1.0" encoding="UTF-8" standalone="no"?>
<!DOCTYPE svg PUBLIC "-//W3C//DTD SVG 1.1//EN"
 "http://www.w3.org/Graphics/SVG/1.1/DTD/svg11.dtd">
<!-- Generated by graphviz version 2.43.0 (0)
 -->
<!-- Title: carta::CartaFitsImage::AddSpectralCoordinate Pages: 1 -->
<svg width="318pt" height="127pt"
 viewBox="0.00 0.00 318.00 127.00" xmlns="http://www.w3.org/2000/svg" xmlns:xlink="http://www.w3.org/1999/xlink">
<g id="graph0" class="graph" transform="scale(1 1) rotate(0) translate(4 123)">
<title>carta::CartaFitsImage::AddSpectralCoordinate</title>
<!-- Node1 -->
<g id="node1" class="node">
<title>Node1</title>
<g id="a_node1"><a xlink:title=" ">
<polygon fill="#bfbfbf" stroke="black" points="0,-44.5 0,-74.5 134,-74.5 134,-44.5 0,-44.5"/>
<text text-anchor="start" x="8" y="-62.5" font-family="Helvetica,sans-Serif" font-size="10.00">carta::CartaFitsImage</text>
<text text-anchor="middle" x="67" y="-51.5" font-family="Helvetica,sans-Serif" font-size="10.00">::AddSpectralCoordinate</text>
</a>
</g>
</g>
<!-- Node2 -->
<g id="node2" class="node">
<title>Node2</title>
<g id="a_node2"><a xlink:href="classcarta_1_1CartaFitsImage.html#a5e0332702a5666d04fc33597c3485a6e" target="_top" xlink:title=" ">
<polygon fill="none" stroke="black" points="179,-88.5 179,-118.5 301,-118.5 301,-88.5 179,-88.5"/>
<text text-anchor="start" x="187" y="-106.5" font-family="Helvetica,sans-Serif" font-size="10.00">carta::CartaFitsImage</text>
<text text-anchor="middle" x="240" y="-95.5" font-family="Helvetica,sans-Serif" font-size="10.00">::GetFrequencyType</text>
</a>
</g>
</g>
<!-- Node1&#45;&gt;Node2 -->
<g id="edge1" class="edge">
<title>Node1&#45;&gt;Node2</title>
<path fill="none" stroke="midnightblue" d="M126.37,-74.52C140.6,-78.18 155.95,-82.13 170.59,-85.9"/>
<polygon fill="midnightblue" stroke="midnightblue" points="170.05,-89.37 180.6,-88.47 171.79,-82.59 170.05,-89.37"/>
</g>
<!-- Node3 -->
<g id="node3" class="node">
<title>Node3</title>
<g id="a_node3"><a xlink:href="classcarta_1_1CartaFitsImage.html#a16d3fdc222553528b79b761a6f14e14b" target="_top" xlink:title=" ">
<polygon fill="none" stroke="black" points="170,-50 170,-69 310,-69 310,-50 170,-50"/>
<text text-anchor="middle" x="240" y="-57" font-family="Helvetica,sans-Serif" font-size="10.00">carta::CartaFitsImage::ok</text>
</a>
</g>
</g>
<!-- Node1&#45;&gt;Node3 -->
<g id="edge2" class="edge">
<title>Node1&#45;&gt;Node3</title>
<path fill="none" stroke="midnightblue" d="M134.11,-59.5C142.56,-59.5 151.27,-59.5 159.89,-59.5"/>
<polygon fill="midnightblue" stroke="midnightblue" points="159.95,-63 169.95,-59.5 159.95,-56 159.95,-63"/>
</g>
<!-- Node4 -->
<g id="node4" class="node">
<title>Node4</title>
<g id="a_node4"><a xlink:href="classcarta_1_1CartaFitsImage.html#a86de5f9be94faf098f3529bb1afc506b" target="_top" xlink:title=" ">
<polygon fill="none" stroke="black" points="179,-0.5 179,-30.5 301,-30.5 301,-0.5 179,-0.5"/>
<text text-anchor="start" x="187" y="-18.5" font-family="Helvetica,sans-Serif" font-size="10.00">carta::CartaFitsImage</text>
<text text-anchor="middle" x="240" y="-7.5" font-family="Helvetica,sans-Serif" font-size="10.00">::shape</text>
</a>
</g>
</g>
<!-- Node1&#45;&gt;Node4 -->
<g id="edge3" class="edge">
<title>Node1&#45;&gt;Node4</title>
<path fill="none" stroke="midnightblue" d="M126.37,-44.48C140.6,-40.82 155.95,-36.87 170.59,-33.1"/>
<polygon fill="midnightblue" stroke="midnightblue" points="171.79,-36.41 180.6,-30.53 170.05,-29.63 171.79,-36.41"/>
</g>
</g>
</svg>
