<?xml version="1.0" encoding="UTF-8" standalone="no"?>
<!DOCTYPE svg PUBLIC "-//W3C//DTD SVG 1.1//EN"
 "http://www.w3.org/Graphics/SVG/1.1/DTD/svg11.dtd">
<!-- Generated by graphviz version 2.43.0 (0)
 -->
<!-- Title: carta::Region::GetAnnotationRegionRecord Pages: 1 -->
<svg width="747pt" height="290pt"
 viewBox="0.00 0.00 747.00 289.58" xmlns="http://www.w3.org/2000/svg" xmlns:xlink="http://www.w3.org/1999/xlink">
<g id="graph0" class="graph" transform="scale(1 1) rotate(0) translate(4 285.58)">
<title>carta::Region::GetAnnotationRegionRecord</title>
<!-- Node1 -->
<g id="node1" class="node">
<title>Node1</title>
<g id="a_node1"><a xlink:title=" ">
<polygon fill="#bfbfbf" stroke="black" points="0,-141.08 0,-171.08 158,-171.08 158,-141.08 0,-141.08"/>
<text text-anchor="start" x="8" y="-159.08" font-family="Helvetica,sans-Serif" font-size="10.00">carta::Region::GetAnnotation</text>
<text text-anchor="middle" x="79" y="-148.08" font-family="Helvetica,sans-Serif" font-size="10.00">RegionRecord</text>
</a>
</g>
</g>
<!-- Node2 -->
<g id="node2" class="node">
<title>Node2</title>
<g id="a_node2"><a xlink:href="classcarta_1_1Region.html#a77abe84c6c73dbad663e8255e362a86f" target="_top" xlink:title=" ">
<polygon fill="none" stroke="black" points="391,-251.08 391,-281.08 559,-281.08 559,-251.08 391,-251.08"/>
<text text-anchor="start" x="399" y="-269.08" font-family="Helvetica,sans-Serif" font-size="10.00">carta::Region::CompleteRegion</text>
<text text-anchor="middle" x="475" y="-258.08" font-family="Helvetica,sans-Serif" font-size="10.00">Record</text>
</a>
</g>
</g>
<!-- Node1&#45;&gt;Node2 -->
<g id="edge1" class="edge">
<title>Node1&#45;&gt;Node2</title>
<path fill="none" stroke="midnightblue" d="M95.83,-171.22C116.55,-190.01 154.84,-221.37 194,-236.08 253.57,-258.45 324.94,-265.83 380.71,-267.68"/>
<polygon fill="midnightblue" stroke="midnightblue" points="380.85,-271.18 390.94,-267.96 381.04,-264.19 380.85,-271.18"/>
</g>
<!-- Node3 -->
<g id="node3" class="node">
<title>Node3</title>
<g id="a_node3"><a xlink:href="classcarta_1_1Region.html#ab8bbf4338dd204b36962ebeb5483aad1" target="_top" xlink:title=" ">
<polygon fill="none" stroke="black" points="601,-70.08 601,-100.08 739,-100.08 739,-70.08 601,-70.08"/>
<text text-anchor="start" x="609" y="-88.08" font-family="Helvetica,sans-Serif" font-size="10.00">carta::Region::GetRegion</text>
<text text-anchor="middle" x="670" y="-77.08" font-family="Helvetica,sans-Serif" font-size="10.00">State</text>
</a>
</g>
</g>
<!-- Node1&#45;&gt;Node3 -->
<g id="edge10" class="edge">
<title>Node1&#45;&gt;Node3</title>
<path fill="none" stroke="midnightblue" d="M115.46,-171.1C198.38,-203.83 409.65,-273.24 565,-203.08 607.48,-183.89 639.55,-137.83 656.21,-109.26"/>
<polygon fill="midnightblue" stroke="midnightblue" points="659.39,-110.74 661.26,-100.31 653.29,-107.3 659.39,-110.74"/>
</g>
<!-- Node4 -->
<g id="node4" class="node">
<title>Node4</title>
<g id="a_node4"><a xlink:href="classcarta_1_1Region.html#ad108d4cb9b98967b6fc1011b1a8f6705" target="_top" xlink:title=" ">
<polygon fill="none" stroke="black" points="194,-141.08 194,-171.08 349,-171.08 349,-141.08 194,-141.08"/>
<text text-anchor="start" x="202" y="-159.08" font-family="Helvetica,sans-Serif" font-size="10.00">carta::Region::ConvertPoints</text>
<text text-anchor="middle" x="271.5" y="-148.08" font-family="Helvetica,sans-Serif" font-size="10.00">ToImagePixels</text>
</a>
</g>
</g>
<!-- Node1&#45;&gt;Node4 -->
<g id="edge3" class="edge">
<title>Node1&#45;&gt;Node4</title>
<path fill="none" stroke="midnightblue" d="M158.03,-156.08C166.53,-156.08 175.21,-156.08 183.8,-156.08"/>
<polygon fill="midnightblue" stroke="midnightblue" points="183.82,-159.58 193.82,-156.08 183.82,-152.58 183.82,-159.58"/>
</g>
<!-- Node7 -->
<g id="node7" class="node">
<title>Node7</title>
<g id="a_node7"><a xlink:href="classcarta_1_1Region.html#afeba24c3fc32647d614ed0fe8a2cb63d" target="_top" xlink:title=" ">
<polygon fill="none" stroke="black" points="201.5,-70.08 201.5,-100.08 341.5,-100.08 341.5,-70.08 201.5,-70.08"/>
<text text-anchor="start" x="209.5" y="-88.08" font-family="Helvetica,sans-Serif" font-size="10.00">carta::Region::GetControl</text>
<text text-anchor="middle" x="271.5" y="-77.08" font-family="Helvetica,sans-Serif" font-size="10.00">PointsRecord</text>
</a>
</g>
</g>
<!-- Node1&#45;&gt;Node7 -->
<g id="edge6" class="edge">
<title>Node1&#45;&gt;Node7</title>
<path fill="none" stroke="midnightblue" d="M120.4,-141.02C149.7,-130.1 189.5,-115.27 220.75,-103.62"/>
<polygon fill="midnightblue" stroke="midnightblue" points="222.01,-106.89 230.16,-100.12 219.57,-100.33 222.01,-106.89"/>
</g>
<!-- Node9 -->
<g id="node9" class="node">
<title>Node9</title>
<g id="a_node9"><a xlink:href="classcarta_1_1Region.html#a9557b22b60d93d7d5933c08f3a2e19c2" target="_top" xlink:title=" ">
<polygon fill="none" stroke="black" points="197,-9.58 197,-28.58 346,-28.58 346,-9.58 197,-9.58"/>
<text text-anchor="middle" x="271.5" y="-16.58" font-family="Helvetica,sans-Serif" font-size="10.00">carta::Region::IsAnnotation</text>
</a>
</g>
</g>
<!-- Node1&#45;&gt;Node9 -->
<g id="edge11" class="edge">
<title>Node1&#45;&gt;Node9</title>
<path fill="none" stroke="midnightblue" d="M95.76,-140.96C117.01,-121.02 156.53,-85.5 194,-60.08 208.83,-50.02 226.4,-40.46 240.95,-33.1"/>
<polygon fill="midnightblue" stroke="midnightblue" points="242.62,-36.18 250.02,-28.6 239.51,-29.91 242.62,-36.18"/>
</g>
<!-- Node2&#45;&gt;Node3 -->
<g id="edge2" class="edge">
<title>Node2&#45;&gt;Node3</title>
<path fill="none" stroke="midnightblue" d="M537.96,-251C547.55,-247.07 556.93,-242.17 565,-236.08 609.9,-202.2 642.37,-143.14 658.17,-109.81"/>
<polygon fill="midnightblue" stroke="midnightblue" points="661.53,-110.89 662.54,-100.35 655.17,-107.96 661.53,-110.89"/>
</g>
<!-- Node5 -->
<g id="node5" class="node">
<title>Node5</title>
<g id="a_node5"><a xlink:href="classcarta_1_1Region.html#a0dd77dcd58e6a5d7b71f3be8c357943c" target="_top" xlink:title=" ">
<polygon fill="none" stroke="black" points="399,-163.08 399,-193.08 551,-193.08 551,-163.08 399,-163.08"/>
<text text-anchor="start" x="407" y="-181.08" font-family="Helvetica,sans-Serif" font-size="10.00">carta::Region::ConvertCarta</text>
<text text-anchor="middle" x="475" y="-170.08" font-family="Helvetica,sans-Serif" font-size="10.00">PointToWorld</text>
</a>
</g>
</g>
<!-- Node4&#45;&gt;Node5 -->
<g id="edge4" class="edge">
<title>Node4&#45;&gt;Node5</title>
<path fill="none" stroke="midnightblue" d="M349.25,-164.46C362.19,-165.87 375.69,-167.35 388.83,-168.78"/>
<polygon fill="midnightblue" stroke="midnightblue" points="388.47,-172.26 398.79,-169.87 389.23,-165.3 388.47,-172.26"/>
</g>
<!-- Node6 -->
<g id="node6" class="node">
<title>Node6</title>
<g id="a_node6"><a xlink:href="classcarta_1_1Region.html#abd8e434773d9f9a1c8775c30b026a23f" target="_top" xlink:title=" ">
<polygon fill="none" stroke="black" points="398.5,-114.08 398.5,-144.08 551.5,-144.08 551.5,-114.08 398.5,-114.08"/>
<text text-anchor="start" x="406.5" y="-132.08" font-family="Helvetica,sans-Serif" font-size="10.00">carta::Region::ConvertWorld</text>
<text text-anchor="middle" x="475" y="-121.08" font-family="Helvetica,sans-Serif" font-size="10.00">ToPixel</text>
</a>
</g>
</g>
<!-- Node4&#45;&gt;Node6 -->
<g id="edge5" class="edge">
<title>Node4&#45;&gt;Node6</title>
<path fill="none" stroke="midnightblue" d="M349.25,-145.8C361.98,-144.09 375.25,-142.31 388.18,-140.58"/>
<polygon fill="midnightblue" stroke="midnightblue" points="389.01,-144 398.46,-139.2 388.08,-137.06 389.01,-144"/>
</g>
<!-- Node7&#45;&gt;Node3 -->
<g id="edge9" class="edge">
<title>Node7&#45;&gt;Node3</title>
<path fill="none" stroke="midnightblue" d="M341.57,-85.08C411.07,-85.08 518.1,-85.08 590.72,-85.08"/>
<polygon fill="midnightblue" stroke="midnightblue" points="590.73,-88.58 600.73,-85.08 590.73,-81.58 590.73,-88.58"/>
</g>
<!-- Node8 -->
<g id="node8" class="node">
<title>Node8</title>
<g id="a_node8"><a xlink:href="classcarta_1_1Region.html#a767afdad502059e25bcf389d1fc42e89" target="_top" xlink:title=" ">
<polygon fill="none" stroke="black" points="385,-26.08 385,-56.08 565,-56.08 565,-26.08 385,-26.08"/>
<text text-anchor="start" x="393" y="-44.08" font-family="Helvetica,sans-Serif" font-size="10.00">carta::Region::CompleteLCRegion</text>
<text text-anchor="middle" x="475" y="-33.08" font-family="Helvetica,sans-Serif" font-size="10.00">Record</text>
</a>
</g>
</g>
<!-- Node7&#45;&gt;Node8 -->
<g id="edge7" class="edge">
<title>Node7&#45;&gt;Node8</title>
<path fill="none" stroke="midnightblue" d="M341.28,-70.06C358.69,-66.26 377.53,-62.15 395.38,-58.25"/>
<polygon fill="midnightblue" stroke="midnightblue" points="396.16,-61.66 405.19,-56.11 394.67,-54.82 396.16,-61.66"/>
</g>
<!-- Node8&#45;&gt;Node3 -->
<g id="edge8" class="edge">
<title>Node8&#45;&gt;Node3</title>
<path fill="none" stroke="midnightblue" d="M541.88,-56.1C558.4,-59.87 576.26,-63.94 593.22,-67.8"/>
<polygon fill="midnightblue" stroke="midnightblue" points="592.56,-71.24 603.09,-70.05 594.12,-64.42 592.56,-71.24"/>
</g>
<!-- Node9&#45;&gt;Node3 -->
<g id="edge12" class="edge">
<title>Node9&#45;&gt;Node3</title>
<path fill="none" stroke="midnightblue" d="M323.21,-9.57C382.57,-0.46 483.19,8.59 565,-16.08 595.63,-25.32 625.53,-46.85 645.34,-63.43"/>
<polygon fill="midnightblue" stroke="midnightblue" points="643.07,-66.09 652.94,-69.95 647.63,-60.78 643.07,-66.09"/>
</g>
</g>
</svg>
