<?xml version="1.0" encoding="UTF-8" standalone="no"?>
<!DOCTYPE svg PUBLIC "-//W3C//DTD SVG 1.1//EN"
 "http://www.w3.org/Graphics/SVG/1.1/DTD/svg11.dtd">
<!-- Generated by graphviz version 2.43.0 (0)
 -->
<!-- Title: carta::RegionHandler::RemoveFrame Pages: 1 -->
<svg width="573pt" height="112pt"
 viewBox="0.00 0.00 573.00 112.00" xmlns="http://www.w3.org/2000/svg" xmlns:xlink="http://www.w3.org/1999/xlink">
<g id="graph0" class="graph" transform="scale(1 1) rotate(0) translate(4 108)">
<title>carta::RegionHandler::RemoveFrame</title>
<!-- Node1 -->
<g id="node1" class="node">
<title>Node1</title>
<g id="a_node1"><a xlink:title=" ">
<polygon fill="#bfbfbf" stroke="black" points="0,-48.5 0,-78.5 119,-78.5 119,-48.5 0,-48.5"/>
<text text-anchor="start" x="8" y="-66.5" font-family="Helvetica,sans-Serif" font-size="10.00">carta::RegionHandler</text>
<text text-anchor="middle" x="59.5" y="-55.5" font-family="Helvetica,sans-Serif" font-size="10.00">::RemoveFrame</text>
</a>
</g>
</g>
<!-- Node2 -->
<g id="node2" class="node">
<title>Node2</title>
<g id="a_node2"><a xlink:href="classcarta_1_1RegionHandler.html#a390e02b6d680c5b09e8957a65468c8d0" target="_top" xlink:title=" ">
<polygon fill="none" stroke="black" points="155,-73.5 155,-103.5 334,-103.5 334,-73.5 155,-73.5"/>
<text text-anchor="start" x="163" y="-91.5" font-family="Helvetica,sans-Serif" font-size="10.00">carta::RegionHandler</text>
<text text-anchor="middle" x="244.5" y="-80.5" font-family="Helvetica,sans-Serif" font-size="10.00">::RemoveFileRequirementsCache</text>
</a>
</g>
</g>
<!-- Node1&#45;&gt;Node2 -->
<g id="edge1" class="edge">
<title>Node1&#45;&gt;Node2</title>
<path fill="none" stroke="midnightblue" d="M119.16,-71.51C127.44,-72.64 136.13,-73.83 144.91,-75.03"/>
<polygon fill="midnightblue" stroke="midnightblue" points="144.46,-78.5 154.84,-76.39 145.41,-71.57 144.46,-78.5"/>
</g>
<!-- Node3 -->
<g id="node3" class="node">
<title>Node3</title>
<g id="a_node3"><a xlink:href="classcarta_1_1RegionHandler.html#a2928967315eebcaef940d868586e5d85" target="_top" xlink:title=" ">
<polygon fill="none" stroke="black" points="185,-24.5 185,-54.5 304,-54.5 304,-24.5 185,-24.5"/>
<text text-anchor="start" x="193" y="-42.5" font-family="Helvetica,sans-Serif" font-size="10.00">carta::RegionHandler</text>
<text text-anchor="middle" x="244.5" y="-31.5" font-family="Helvetica,sans-Serif" font-size="10.00">::RemoveRegion</text>
</a>
</g>
</g>
<!-- Node1&#45;&gt;Node3 -->
<g id="edge2" class="edge">
<title>Node1&#45;&gt;Node3</title>
<path fill="none" stroke="midnightblue" d="M119.16,-55.81C136.89,-53.48 156.51,-50.91 174.84,-48.51"/>
<polygon fill="midnightblue" stroke="midnightblue" points="175.4,-51.96 184.86,-47.19 174.49,-45.02 175.4,-51.96"/>
</g>
<!-- Node4 -->
<g id="node4" class="node">
<title>Node4</title>
<g id="a_node4"><a xlink:href="classcarta_1_1RegionHandler.html#a809f63096e4fabebdcdef49591ed1c70" target="_top" xlink:title=" ">
<polygon fill="none" stroke="black" points="408,-49.5 408,-79.5 527,-79.5 527,-49.5 408,-49.5"/>
<text text-anchor="start" x="416" y="-67.5" font-family="Helvetica,sans-Serif" font-size="10.00">carta::RegionHandler</text>
<text text-anchor="middle" x="467.5" y="-56.5" font-family="Helvetica,sans-Serif" font-size="10.00">::RegionSet</text>
</a>
</g>
</g>
<!-- Node3&#45;&gt;Node4 -->
<g id="edge3" class="edge">
<title>Node3&#45;&gt;Node4</title>
<path fill="none" stroke="midnightblue" d="M304.14,-46.13C332.98,-49.4 367.91,-53.35 397.97,-56.75"/>
<polygon fill="midnightblue" stroke="midnightblue" points="397.64,-60.23 407.97,-57.88 398.42,-53.28 397.64,-60.23"/>
</g>
<!-- Node5 -->
<g id="node5" class="node">
<title>Node5</title>
<g id="a_node5"><a xlink:href="classcarta_1_1RegionHandler.html#a772046cac78b7c01f5562e68a07c7447" target="_top" xlink:title=" ">
<polygon fill="none" stroke="black" points="370,-0.5 370,-30.5 565,-30.5 565,-0.5 370,-0.5"/>
<text text-anchor="start" x="378" y="-18.5" font-family="Helvetica,sans-Serif" font-size="10.00">carta::RegionHandler</text>
<text text-anchor="middle" x="467.5" y="-7.5" font-family="Helvetica,sans-Serif" font-size="10.00">::RemoveRegionRequirementsCache</text>
</a>
</g>
</g>
<!-- Node3&#45;&gt;Node5 -->
<g id="edge4" class="edge">
<title>Node3&#45;&gt;Node5</title>
<path fill="none" stroke="midnightblue" d="M304.14,-33.13C321.35,-31.26 340.72,-29.16 359.94,-27.07"/>
<polygon fill="midnightblue" stroke="midnightblue" points="360.4,-30.54 369.96,-25.98 359.64,-23.58 360.4,-30.54"/>
</g>
</g>
</svg>
