<?xml version="1.0" encoding="UTF-8" standalone="no"?>
<!DOCTYPE svg PUBLIC "-//W3C//DTD SVG 1.1//EN"
 "http://www.w3.org/Graphics/SVG/1.1/DTD/svg11.dtd">
<!-- Generated by graphviz version 2.43.0 (0)
 -->
<!-- Title: carta::Region::GetImageRegionMask Pages: 1 -->
<svg width="562pt" height="53pt"
 viewBox="0.00 0.00 562.00 52.50" xmlns="http://www.w3.org/2000/svg" xmlns:xlink="http://www.w3.org/1999/xlink">
<g id="graph0" class="graph" transform="scale(1 1) rotate(0) translate(4 48.5)">
<title>carta::Region::GetImageRegionMask</title>
<!-- Node1 -->
<g id="node1" class="node">
<title>Node1</title>
<g id="a_node1"><a xlink:title=" ">
<polygon fill="#bfbfbf" stroke="black" points="0,-19.5 0,-38.5 195,-38.5 195,-19.5 0,-19.5"/>
<text text-anchor="middle" x="97.5" y="-26.5" font-family="Helvetica,sans-Serif" font-size="10.00">carta::Region::GetImageRegionMask</text>
</a>
</g>
</g>
<!-- Node2 -->
<g id="node2" class="node">
<title>Node2</title>
<g id="a_node2"><a xlink:href="classcarta_1_1Region.html#ab8bbf4338dd204b36962ebeb5483aad1" target="_top" xlink:title=" ">
<polygon fill="none" stroke="black" points="416,-14 416,-44 554,-44 554,-14 416,-14"/>
<text text-anchor="start" x="424" y="-32" font-family="Helvetica,sans-Serif" font-size="10.00">carta::Region::GetRegion</text>
<text text-anchor="middle" x="485" y="-21" font-family="Helvetica,sans-Serif" font-size="10.00">State</text>
</a>
</g>
</g>
<!-- Node1&#45;&gt;Node2 -->
<g id="edge1" class="edge">
<title>Node1&#45;&gt;Node2</title>
<path fill="none" stroke="midnightblue" d="M195.28,-29C260.22,-29 344.67,-29 405.44,-29"/>
<polygon fill="midnightblue" stroke="midnightblue" points="405.74,-32.5 415.74,-29 405.74,-25.5 405.74,-32.5"/>
</g>
<!-- Node3 -->
<g id="node3" class="node">
<title>Node3</title>
<g id="a_node3"><a xlink:href="classcarta_1_1Region.html#a9557b22b60d93d7d5933c08f3a2e19c2" target="_top" xlink:title=" ">
<polygon fill="none" stroke="black" points="231,-0.5 231,-19.5 380,-19.5 380,-0.5 231,-0.5"/>
<text text-anchor="middle" x="305.5" y="-7.5" font-family="Helvetica,sans-Serif" font-size="10.00">carta::Region::IsAnnotation</text>
</a>
</g>
</g>
<!-- Node1&#45;&gt;Node3 -->
<g id="edge2" class="edge">
<title>Node1&#45;&gt;Node3</title>
<path fill="none" stroke="midnightblue" d="M195.17,-20.08C203.71,-19.3 212.32,-18.5 220.74,-17.72"/>
<polygon fill="midnightblue" stroke="midnightblue" points="221.28,-21.19 230.92,-16.79 220.64,-14.22 221.28,-21.19"/>
</g>
<!-- Node3&#45;&gt;Node2 -->
<g id="edge3" class="edge">
<title>Node3&#45;&gt;Node2</title>
<path fill="none" stroke="midnightblue" d="M380.23,-17.89C388.72,-18.8 397.4,-19.73 405.94,-20.64"/>
<polygon fill="midnightblue" stroke="midnightblue" points="405.58,-24.13 415.89,-21.71 406.32,-17.17 405.58,-24.13"/>
</g>
</g>
</svg>
