<?xml version="1.0" encoding="UTF-8" standalone="no"?>
<!DOCTYPE svg PUBLIC "-//W3C//DTD SVG 1.1//EN"
 "http://www.w3.org/Graphics/SVG/1.1/DTD/svg11.dtd">
<!-- Generated by graphviz version 2.43.0 (0)
 -->
<!-- Title: Message::Point Pages: 1 -->
<svg width="1230pt" height="633pt"
 viewBox="0.00 0.00 1230.00 632.50" xmlns="http://www.w3.org/2000/svg" xmlns:xlink="http://www.w3.org/1999/xlink">
<g id="graph0" class="graph" transform="scale(1 1) rotate(0) translate(4 628.5)">
<title>Message::Point</title>
<!-- Node1 -->
<g id="node1" class="node">
<title>Node1</title>
<g id="a_node1"><a xlink:title=" ">
<polygon fill="#bfbfbf" stroke="black" points="1131,-326 1131,-345 1222,-345 1222,-326 1131,-326"/>
<text text-anchor="middle" x="1176.5" y="-333" font-family="Helvetica,sans-Serif" font-size="10.00">Message::Point</text>
</a>
</g>
</g>
<!-- Node2 -->
<g id="node2" class="node">
<title>Node2</title>
<g id="a_node2"><a xlink:href="classcarta_1_1Frame.html#a141a8029b71bbbb13ee36461d73fdcf8" target="_top" xlink:title=" ">
<polygon fill="none" stroke="black" points="919,-605 919,-624 1095,-624 1095,-605 919,-605"/>
<text text-anchor="middle" x="1007" y="-612" font-family="Helvetica,sans-Serif" font-size="10.00">carta::Frame::CalculateMoments</text>
</a>
</g>
</g>
<!-- Node1&#45;&gt;Node2 -->
<g id="edge1" class="edge">
<title>Node1&#45;&gt;Node2</title>
<path fill="none" stroke="midnightblue" d="M1175.68,-355.16C1174.98,-403.74 1166.05,-530.26 1095,-595.5 1090.9,-599.26 1086.23,-602.35 1081.24,-604.86"/>
<polygon fill="midnightblue" stroke="midnightblue" points="1179.18,-355.06 1175.71,-345.05 1172.18,-355.03 1179.18,-355.06"/>
</g>
<!-- Node3 -->
<g id="node3" class="node">
<title>Node3</title>
<g id="a_node3"><a xlink:href="classcarta_1_1RegionConverter.html#a8018d8b7af5c0be8cfdf3c55eb03bf6d" target="_top" xlink:title=" ">
<polygon fill="none" stroke="black" points="924.5,-506.5 924.5,-536.5 1089.5,-536.5 1089.5,-506.5 924.5,-506.5"/>
<text text-anchor="start" x="932.5" y="-524.5" font-family="Helvetica,sans-Serif" font-size="10.00">carta::RegionConverter</text>
<text text-anchor="middle" x="1007" y="-513.5" font-family="Helvetica,sans-Serif" font-size="10.00">::GetApproximateEllipsePoints</text>
</a>
</g>
</g>
<!-- Node1&#45;&gt;Node3 -->
<g id="edge2" class="edge">
<title>Node1&#45;&gt;Node3</title>
<path fill="none" stroke="midnightblue" d="M1171.21,-355.4C1162.78,-389.68 1140.72,-459.81 1095,-497.5 1090.89,-500.89 1086.34,-503.8 1081.53,-506.3"/>
<polygon fill="midnightblue" stroke="midnightblue" points="1174.72,-355.78 1173.57,-345.25 1167.9,-354.2 1174.72,-355.78"/>
</g>
<!-- Node8 -->
<g id="node8" class="node">
<title>Node8</title>
<g id="a_node8"><a xlink:href="classcarta_1_1RegionConverter.html#af3d0a6f1d47f24076c440c45e0492d7f" target="_top" xlink:title=" ">
<polygon fill="none" stroke="black" points="921,-555.5 921,-585.5 1093,-585.5 1093,-555.5 921,-555.5"/>
<text text-anchor="start" x="929" y="-573.5" font-family="Helvetica,sans-Serif" font-size="10.00">carta::RegionConverter</text>
<text text-anchor="middle" x="1007" y="-562.5" font-family="Helvetica,sans-Serif" font-size="10.00">::GetApproximatePolygonPoints</text>
</a>
</g>
</g>
<!-- Node1&#45;&gt;Node8 -->
<g id="edge8" class="edge">
<title>Node1&#45;&gt;Node8</title>
<path fill="none" stroke="midnightblue" d="M1173.81,-355.13C1169.16,-396.76 1152.4,-494.32 1095,-546.5 1091.29,-549.87 1087.15,-552.78 1082.74,-555.28"/>
<polygon fill="midnightblue" stroke="midnightblue" points="1177.3,-355.47 1174.81,-345.17 1170.33,-354.77 1177.3,-355.47"/>
</g>
<!-- Node9 -->
<g id="node9" class="node">
<title>Node9</title>
<g id="a_node9"><a xlink:href="classcarta_1_1LineBoxRegions.html#a9d3e0a811025ef9dba3b3aaa75289b96" target="_top" xlink:title=" ">
<polygon fill="none" stroke="black" points="740,-457.5 740,-487.5 868,-487.5 868,-457.5 740,-457.5"/>
<text text-anchor="start" x="748" y="-475.5" font-family="Helvetica,sans-Serif" font-size="10.00">carta::LineBoxRegions</text>
<text text-anchor="middle" x="804" y="-464.5" font-family="Helvetica,sans-Serif" font-size="10.00">::GetFixedPixelRegions</text>
</a>
</g>
</g>
<!-- Node1&#45;&gt;Node9 -->
<g id="edge10" class="edge">
<title>Node1&#45;&gt;Node9</title>
<path fill="none" stroke="midnightblue" d="M1161.19,-353.26C1146.43,-370.34 1121.83,-395.58 1095,-409.5 1089.92,-412.14 952.08,-441.48 868.3,-459.18"/>
<polygon fill="midnightblue" stroke="midnightblue" points="1164.23,-355.08 1167.98,-345.17 1158.87,-350.58 1164.23,-355.08"/>
</g>
<!-- Node16 -->
<g id="node16" class="node">
<title>Node16</title>
<g id="a_node16"><a xlink:href="classcarta_1_1LineBoxRegions.html#a984128ccf5350d17ce15c25bf001e5c7" target="_top" xlink:title=" ">
<polygon fill="none" stroke="black" points="938,-369.5 938,-399.5 1076,-399.5 1076,-369.5 938,-369.5"/>
<text text-anchor="start" x="946" y="-387.5" font-family="Helvetica,sans-Serif" font-size="10.00">carta::LineBoxRegions</text>
<text text-anchor="middle" x="1007" y="-376.5" font-family="Helvetica,sans-Serif" font-size="10.00">::GetPolygonRegionState</text>
</a>
</g>
</g>
<!-- Node1&#45;&gt;Node16 -->
<g id="edge17" class="edge">
<title>Node1&#45;&gt;Node16</title>
<path fill="none" stroke="midnightblue" d="M1135.79,-348.11C1122.81,-352.15 1108.32,-356.6 1095,-360.5 1084.93,-363.45 1074.17,-366.5 1063.77,-369.4"/>
<polygon fill="midnightblue" stroke="midnightblue" points="1136.87,-351.44 1145.37,-345.11 1134.78,-344.76 1136.87,-351.44"/>
</g>
<!-- Node18 -->
<g id="node18" class="node">
<title>Node18</title>
<g id="a_node18"><a xlink:href="classcarta_1_1RegionConverter.html#a3af0b6c9f41c962149fa715d22a0b40f" target="_top" xlink:title=" ">
<polygon fill="none" stroke="black" points="938.5,-457.5 938.5,-487.5 1075.5,-487.5 1075.5,-457.5 938.5,-457.5"/>
<text text-anchor="start" x="946.5" y="-475.5" font-family="Helvetica,sans-Serif" font-size="10.00">carta::RegionConverter</text>
<text text-anchor="middle" x="1007" y="-464.5" font-family="Helvetica,sans-Serif" font-size="10.00">::GetRectangleMidpoints</text>
</a>
</g>
</g>
<!-- Node1&#45;&gt;Node18 -->
<g id="edge20" class="edge">
<title>Node1&#45;&gt;Node18</title>
<path fill="none" stroke="midnightblue" d="M1166.11,-354.03C1153.18,-377.77 1127.73,-418.69 1095,-442.5 1086.73,-448.52 1077.16,-453.4 1067.45,-457.34"/>
<polygon fill="midnightblue" stroke="midnightblue" points="1169.3,-355.48 1170.87,-345 1163.11,-352.22 1169.3,-355.48"/>
</g>
<!-- Node19 -->
<g id="node19" class="node">
<title>Node19</title>
<g id="a_node19"><a xlink:href="classcarta_1_1RegionHandler.html#aa5624138d4060512518d54f2b6709a25" target="_top" xlink:title=" ">
<polygon fill="none" stroke="black" points="938.5,-320.5 938.5,-350.5 1075.5,-350.5 1075.5,-320.5 938.5,-320.5"/>
<text text-anchor="start" x="946.5" y="-338.5" font-family="Helvetica,sans-Serif" font-size="10.00">carta::RegionHandler</text>
<text text-anchor="middle" x="1007" y="-327.5" font-family="Helvetica,sans-Serif" font-size="10.00">::GetRegionSpectralData</text>
</a>
</g>
</g>
<!-- Node1&#45;&gt;Node19 -->
<g id="edge22" class="edge">
<title>Node1&#45;&gt;Node19</title>
<path fill="none" stroke="midnightblue" d="M1120.45,-335.5C1106.15,-335.5 1090.58,-335.5 1075.71,-335.5"/>
<polygon fill="midnightblue" stroke="midnightblue" points="1120.61,-339 1130.61,-335.5 1120.61,-332 1120.61,-339"/>
</g>
<!-- Node22 -->
<g id="node22" class="node">
<title>Node22</title>
<g id="a_node22"><a xlink:href="classcarta_1_1Ds9ImportExport.html#a9598157cad266cc8ee22e7157835f2f7" target="_top" xlink:title=" ">
<polygon fill="none" stroke="black" points="942,-271.5 942,-301.5 1072,-301.5 1072,-271.5 942,-271.5"/>
<text text-anchor="start" x="950" y="-289.5" font-family="Helvetica,sans-Serif" font-size="10.00">carta::Ds9ImportExport</text>
<text text-anchor="middle" x="1007" y="-278.5" font-family="Helvetica,sans-Serif" font-size="10.00">::ImportEllipseRegion</text>
</a>
</g>
</g>
<!-- Node1&#45;&gt;Node22 -->
<g id="edge26" class="edge">
<title>Node1&#45;&gt;Node22</title>
<path fill="none" stroke="midnightblue" d="M1134.05,-323.06C1121.51,-319.32 1107.7,-315.22 1095,-311.5 1083.99,-308.28 1072.18,-304.86 1060.93,-301.62"/>
<polygon fill="midnightblue" stroke="midnightblue" points="1133.2,-326.46 1143.79,-325.97 1135.21,-319.75 1133.2,-326.46"/>
</g>
<!-- Node28 -->
<g id="node28" class="node">
<title>Node28</title>
<g id="a_node28"><a xlink:href="classcarta_1_1Ds9ImportExport.html#a7a1c09491367f7052a63c65a679765b7" target="_top" xlink:title=" ">
<polygon fill="none" stroke="black" points="546,-186.5 546,-216.5 676,-216.5 676,-186.5 546,-186.5"/>
<text text-anchor="start" x="554" y="-204.5" font-family="Helvetica,sans-Serif" font-size="10.00">carta::Ds9ImportExport</text>
<text text-anchor="middle" x="611" y="-193.5" font-family="Helvetica,sans-Serif" font-size="10.00">::ImportPointRegion</text>
</a>
</g>
</g>
<!-- Node1&#45;&gt;Node28 -->
<g id="edge34" class="edge">
<title>Node1&#45;&gt;Node28</title>
<path fill="none" stroke="midnightblue" d="M1161.62,-317.75C1147.04,-300.51 1122.44,-275.12 1095,-262.5 956.02,-198.57 772.12,-194.55 676.29,-197.68"/>
<polygon fill="midnightblue" stroke="midnightblue" points="1159.26,-320.39 1168.3,-325.92 1164.68,-315.96 1159.26,-320.39"/>
</g>
<!-- Node29 -->
<g id="node29" class="node">
<title>Node29</title>
<g id="a_node29"><a xlink:href="classcarta_1_1Ds9ImportExport.html#a3f073f7079cfc236df596a6741297240" target="_top" xlink:title=" ">
<polygon fill="none" stroke="black" points="730,-142.5 730,-172.5 878,-172.5 878,-142.5 730,-142.5"/>
<text text-anchor="start" x="738" y="-160.5" font-family="Helvetica,sans-Serif" font-size="10.00">carta::Ds9ImportExport</text>
<text text-anchor="middle" x="804" y="-149.5" font-family="Helvetica,sans-Serif" font-size="10.00">::ImportPolygonLineRegion</text>
</a>
</g>
</g>
<!-- Node1&#45;&gt;Node29 -->
<g id="edge36" class="edge">
<title>Node1&#45;&gt;Node29</title>
<path fill="none" stroke="midnightblue" d="M1170.97,-315.78C1162.35,-283.18 1140.26,-218.68 1095,-188.5 1031.07,-145.87 941.03,-142.89 878.3,-147.53"/>
<polygon fill="midnightblue" stroke="midnightblue" points="1167.67,-317 1173.47,-325.87 1174.46,-315.32 1167.67,-317"/>
</g>
<!-- Node31 -->
<g id="node31" class="node">
<title>Node31</title>
<g id="a_node31"><a xlink:href="classcarta_1_1Ds9ImportExport.html#acc993d1c1309ea60c05b847df0eadfcd" target="_top" xlink:title=" ">
<polygon fill="none" stroke="black" points="542.5,-49.5 542.5,-79.5 679.5,-79.5 679.5,-49.5 542.5,-49.5"/>
<text text-anchor="start" x="550.5" y="-67.5" font-family="Helvetica,sans-Serif" font-size="10.00">carta::Ds9ImportExport</text>
<text text-anchor="middle" x="611" y="-56.5" font-family="Helvetica,sans-Serif" font-size="10.00">::ImportRectangleRegion</text>
</a>
</g>
</g>
<!-- Node1&#45;&gt;Node31 -->
<g id="edge40" class="edge">
<title>Node1&#45;&gt;Node31</title>
<path fill="none" stroke="midnightblue" d="M1173.63,-315.8C1168.7,-275.82 1151.56,-185.26 1095,-141.5 1029.33,-90.69 806.71,-104.26 725,-89.5 708.98,-86.61 691.79,-83.04 675.77,-79.52"/>
<polygon fill="midnightblue" stroke="midnightblue" points="1170.16,-316.3 1174.74,-325.86 1177.12,-315.53 1170.16,-316.3"/>
</g>
<!-- Node32 -->
<g id="node32" class="node">
<title>Node32</title>
<g id="a_node32"><a xlink:href="classcarta_1_1Ds9ImportExport.html#a2c97fef381891ea233cb193010b79614" target="_top" xlink:title=" ">
<polygon fill="none" stroke="black" points="546,-0.5 546,-30.5 676,-30.5 676,-0.5 546,-0.5"/>
<text text-anchor="start" x="554" y="-18.5" font-family="Helvetica,sans-Serif" font-size="10.00">carta::Ds9ImportExport</text>
<text text-anchor="middle" x="611" y="-7.5" font-family="Helvetica,sans-Serif" font-size="10.00">::ImportVectorRegion</text>
</a>
</g>
</g>
<!-- Node1&#45;&gt;Node32 -->
<g id="edge42" class="edge">
<title>Node1&#45;&gt;Node32</title>
<path fill="none" stroke="midnightblue" d="M1175.17,-315.85C1173.27,-269.98 1161.72,-155.47 1095,-98.5 1079.13,-84.95 803.74,-43.4 676.06,-24.74"/>
<polygon fill="midnightblue" stroke="midnightblue" points="1171.68,-316.06 1175.48,-325.95 1178.67,-315.85 1171.68,-316.06"/>
</g>
<!-- Node33 -->
<g id="node33" class="node">
<title>Node33</title>
<g id="a_node33"><a xlink:href="classMessage.html#a7305f83781e5ceeee5cb3243bd993062" target="_top" xlink:title=" ">
<polygon fill="none" stroke="black" points="961.5,-28 961.5,-47 1052.5,-47 1052.5,-28 961.5,-28"/>
<text text-anchor="middle" x="1007" y="-35" font-family="Helvetica,sans-Serif" font-size="10.00">Message::Point</text>
</a>
</g>
</g>
<!-- Node1&#45;&gt;Node33 -->
<g id="edge44" class="edge">
<title>Node1&#45;&gt;Node33</title>
<path fill="none" stroke="midnightblue" d="M1175.82,-315.72C1175.5,-265.64 1167.47,-132.78 1095,-61.5 1083.72,-50.4 1067.8,-44.33 1052.65,-41.04"/>
<polygon fill="midnightblue" stroke="midnightblue" points="1172.32,-315.83 1175.78,-325.84 1179.32,-315.86 1172.32,-315.83"/>
</g>
<!-- Node4 -->
<g id="node4" class="node">
<title>Node4</title>
<g id="a_node4"><a xlink:href="classcarta_1_1RegionConverter.html#a36104150d7b5ca14e604c07fc2afaae6" target="_top" xlink:title=" ">
<polygon fill="none" stroke="black" points="725,-555.5 725,-585.5 883,-585.5 883,-555.5 725,-555.5"/>
<text text-anchor="start" x="733" y="-573.5" font-family="Helvetica,sans-Serif" font-size="10.00">carta::RegionConverter</text>
<text text-anchor="middle" x="804" y="-562.5" font-family="Helvetica,sans-Serif" font-size="10.00">::GetReferencePolygonPoints</text>
</a>
</g>
</g>
<!-- Node3&#45;&gt;Node4 -->
<g id="edge3" class="edge">
<title>Node3&#45;&gt;Node4</title>
<path fill="none" stroke="midnightblue" d="M934.61,-538.9C912.37,-544.32 888.06,-550.25 866.56,-555.49"/>
<polygon fill="midnightblue" stroke="midnightblue" points="935.44,-542.3 944.33,-536.53 933.78,-535.5 935.44,-542.3"/>
</g>
<!-- Node7 -->
<g id="node7" class="node">
<title>Node7</title>
<g id="a_node7"><a xlink:href="classcarta_1_1RegionConverter.html#ad8cf08a897e85eb0bfc23ef07c8cebe5" target="_top" xlink:title=" ">
<polygon fill="none" stroke="black" points="732.5,-506.5 732.5,-536.5 875.5,-536.5 875.5,-506.5 732.5,-506.5"/>
<text text-anchor="start" x="740.5" y="-524.5" font-family="Helvetica,sans-Serif" font-size="10.00">carta::RegionConverter</text>
<text text-anchor="middle" x="804" y="-513.5" font-family="Helvetica,sans-Serif" font-size="10.00">::UseApproximatePolygon</text>
</a>
</g>
</g>
<!-- Node3&#45;&gt;Node7 -->
<g id="edge6" class="edge">
<title>Node3&#45;&gt;Node7</title>
<path fill="none" stroke="midnightblue" d="M913.99,-521.5C901.14,-521.5 888.1,-521.5 875.72,-521.5"/>
<polygon fill="midnightblue" stroke="midnightblue" points="914.25,-525 924.25,-521.5 914.25,-518 914.25,-525"/>
</g>
<!-- Node5 -->
<g id="node5" class="node">
<title>Node5</title>
<g id="a_node5"><a xlink:href="classcarta_1_1RegionConverter.html#a9f6c7af12bcee56cb3a98c17637a68de" target="_top" xlink:title=" ">
<polygon fill="none" stroke="black" points="536.5,-553.5 536.5,-583.5 685.5,-583.5 685.5,-553.5 536.5,-553.5"/>
<text text-anchor="start" x="544.5" y="-571.5" font-family="Helvetica,sans-Serif" font-size="10.00">carta::RegionConverter</text>
<text text-anchor="middle" x="611" y="-560.5" font-family="Helvetica,sans-Serif" font-size="10.00">::GetAppliedPolygonRegion</text>
</a>
</g>
</g>
<!-- Node4&#45;&gt;Node5 -->
<g id="edge4" class="edge">
<title>Node4&#45;&gt;Node5</title>
<path fill="none" stroke="midnightblue" d="M714.65,-569.57C704.9,-569.47 695.05,-569.37 685.5,-569.27"/>
<polygon fill="midnightblue" stroke="midnightblue" points="714.73,-573.08 724.76,-569.68 714.8,-566.08 714.73,-573.08"/>
</g>
<!-- Node6 -->
<g id="node6" class="node">
<title>Node6</title>
<g id="a_node6"><a xlink:href="classcarta_1_1RegionConverter.html#a89824e293ea029863be230ee9136a9c1" target="_top" xlink:title=" ">
<polygon fill="none" stroke="black" points="357.5,-530.5 357.5,-560.5 486.5,-560.5 486.5,-530.5 357.5,-530.5"/>
<text text-anchor="start" x="365.5" y="-548.5" font-family="Helvetica,sans-Serif" font-size="10.00">carta::RegionConverter</text>
<text text-anchor="middle" x="422" y="-537.5" font-family="Helvetica,sans-Serif" font-size="10.00">::GetImageRegion</text>
</a>
</g>
</g>
<!-- Node5&#45;&gt;Node6 -->
<g id="edge5" class="edge">
<title>Node5&#45;&gt;Node6</title>
<path fill="none" stroke="midnightblue" d="M526.25,-558.2C512.93,-556.56 499.34,-554.89 486.58,-553.32"/>
<polygon fill="midnightblue" stroke="midnightblue" points="526.01,-561.7 536.36,-559.44 526.86,-554.75 526.01,-561.7"/>
</g>
<!-- Node7&#45;&gt;Node6 -->
<g id="edge7" class="edge">
<title>Node7&#45;&gt;Node6</title>
<path fill="none" stroke="midnightblue" d="M722.26,-526.6C651.93,-531.04 551.32,-537.4 486.57,-541.48"/>
<polygon fill="midnightblue" stroke="midnightblue" points="722.66,-530.08 732.42,-525.96 722.21,-523.1 722.66,-530.08"/>
</g>
<!-- Node8&#45;&gt;Node4 -->
<g id="edge9" class="edge">
<title>Node8&#45;&gt;Node4</title>
<path fill="none" stroke="midnightblue" d="M910.73,-570.5C901.45,-570.5 892.11,-570.5 883.03,-570.5"/>
<polygon fill="midnightblue" stroke="midnightblue" points="910.76,-574 920.76,-570.5 910.76,-567 910.76,-574"/>
</g>
<!-- Node10 -->
<g id="node10" class="node">
<title>Node10</title>
<g id="a_node10"><a xlink:href="classcarta_1_1LineBoxRegions.html#aae7e0083e6c7541ed0121160bb1c8266" target="_top" xlink:title=" ">
<polygon fill="none" stroke="black" points="548.5,-410.5 548.5,-440.5 673.5,-440.5 673.5,-410.5 548.5,-410.5"/>
<text text-anchor="start" x="556.5" y="-428.5" font-family="Helvetica,sans-Serif" font-size="10.00">carta::LineBoxRegions</text>
<text text-anchor="middle" x="611" y="-417.5" font-family="Helvetica,sans-Serif" font-size="10.00">::GetLineBoxRegions</text>
</a>
</g>
</g>
<!-- Node9&#45;&gt;Node10 -->
<g id="edge11" class="edge">
<title>Node9&#45;&gt;Node10</title>
<path fill="none" stroke="midnightblue" d="M732.32,-455.11C712.85,-450.32 691.91,-445.16 673.03,-440.52"/>
<polygon fill="midnightblue" stroke="midnightblue" points="731.49,-458.51 742.04,-457.5 733.17,-451.71 731.49,-458.51"/>
</g>
<!-- Node11 -->
<g id="node11" class="node">
<title>Node11</title>
<g id="a_node11"><a xlink:href="classcarta_1_1RegionHandler.html#a7d419cae3ba9a6b3f2435cde1d6838ee" target="_top" xlink:title=" ">
<polygon fill="none" stroke="black" points="347,-410.5 347,-440.5 497,-440.5 497,-410.5 347,-410.5"/>
<text text-anchor="start" x="355" y="-428.5" font-family="Helvetica,sans-Serif" font-size="10.00">carta::RegionHandler</text>
<text text-anchor="middle" x="422" y="-417.5" font-family="Helvetica,sans-Serif" font-size="10.00">::CalculatePvPreviewImage</text>
</a>
</g>
</g>
<!-- Node10&#45;&gt;Node11 -->
<g id="edge12" class="edge">
<title>Node10&#45;&gt;Node11</title>
<path fill="none" stroke="midnightblue" d="M538.1,-425.5C524.65,-425.5 510.56,-425.5 497.04,-425.5"/>
<polygon fill="midnightblue" stroke="midnightblue" points="538.25,-429 548.25,-425.5 538.25,-422 538.25,-429"/>
</g>
<!-- Node12 -->
<g id="node12" class="node">
<title>Node12</title>
<g id="a_node12"><a xlink:href="classcarta_1_1RegionHandler.html#acbbfca854da73c657e5257de954b7048" target="_top" xlink:title=" ">
<polygon fill="none" stroke="black" points="362.5,-361.5 362.5,-391.5 481.5,-391.5 481.5,-361.5 362.5,-361.5"/>
<text text-anchor="start" x="370.5" y="-379.5" font-family="Helvetica,sans-Serif" font-size="10.00">carta::RegionHandler</text>
<text text-anchor="middle" x="422" y="-368.5" font-family="Helvetica,sans-Serif" font-size="10.00">::GetLineProfiles</text>
</a>
</g>
</g>
<!-- Node10&#45;&gt;Node12 -->
<g id="edge13" class="edge">
<title>Node10&#45;&gt;Node12</title>
<path fill="none" stroke="midnightblue" d="M542.75,-407.88C522.29,-402.52 500,-396.68 480.27,-391.51"/>
<polygon fill="midnightblue" stroke="midnightblue" points="542.06,-411.32 552.62,-410.47 543.84,-404.54 542.06,-411.32"/>
</g>
<!-- Node13 -->
<g id="node13" class="node">
<title>Node13</title>
<g id="a_node13"><a xlink:href="classcarta_1_1RegionHandler.html#a981ef720799967df543e0b272a17f6cb" target="_top" xlink:title=" ">
<polygon fill="none" stroke="black" points="186.5,-386.5 186.5,-416.5 305.5,-416.5 305.5,-386.5 186.5,-386.5"/>
<text text-anchor="start" x="194.5" y="-404.5" font-family="Helvetica,sans-Serif" font-size="10.00">carta::RegionHandler</text>
<text text-anchor="middle" x="246" y="-393.5" font-family="Helvetica,sans-Serif" font-size="10.00">::CalculatePvImage</text>
</a>
</g>
</g>
<!-- Node12&#45;&gt;Node13 -->
<g id="edge14" class="edge">
<title>Node12&#45;&gt;Node13</title>
<path fill="none" stroke="midnightblue" d="M352.1,-386.4C336.69,-388.61 320.49,-390.94 305.55,-393.09"/>
<polygon fill="midnightblue" stroke="midnightblue" points="352.69,-389.85 362.09,-384.96 351.7,-382.92 352.69,-389.85"/>
</g>
<!-- Node14 -->
<g id="node14" class="node">
<title>Node14</title>
<g id="a_node14"><a xlink:href="classcarta_1_1RegionHandler.html#ab65206f98fa5024447ab049a91cd4526" target="_top" xlink:title=" ">
<polygon fill="none" stroke="black" points="186.5,-337.5 186.5,-367.5 305.5,-367.5 305.5,-337.5 186.5,-337.5"/>
<text text-anchor="start" x="194.5" y="-355.5" font-family="Helvetica,sans-Serif" font-size="10.00">carta::RegionHandler</text>
<text text-anchor="middle" x="246" y="-344.5" font-family="Helvetica,sans-Serif" font-size="10.00">::GetLineSpatialData</text>
</a>
</g>
</g>
<!-- Node12&#45;&gt;Node14 -->
<g id="edge15" class="edge">
<title>Node12&#45;&gt;Node14</title>
<path fill="none" stroke="midnightblue" d="M352.1,-367C336.69,-364.87 320.49,-362.64 305.55,-360.58"/>
<polygon fill="midnightblue" stroke="midnightblue" points="351.71,-370.48 362.09,-368.37 352.66,-363.54 351.71,-370.48"/>
</g>
<!-- Node15 -->
<g id="node15" class="node">
<title>Node15</title>
<g id="a_node15"><a xlink:href="classcarta_1_1RegionHandler.html#a6bbb668cf434d85d9be739191dd15c19" target="_top" xlink:title=" ">
<polygon fill="none" stroke="black" points="0,-337.5 0,-367.5 145,-367.5 145,-337.5 0,-337.5"/>
<text text-anchor="start" x="8" y="-355.5" font-family="Helvetica,sans-Serif" font-size="10.00">carta::RegionHandler</text>
<text text-anchor="middle" x="72.5" y="-344.5" font-family="Helvetica,sans-Serif" font-size="10.00">::FillLineSpatialProfileData</text>
</a>
</g>
</g>
<!-- Node14&#45;&gt;Node15 -->
<g id="edge16" class="edge">
<title>Node14&#45;&gt;Node15</title>
<path fill="none" stroke="midnightblue" d="M176.33,-352.5C166.06,-352.5 155.46,-352.5 145.13,-352.5"/>
<polygon fill="midnightblue" stroke="midnightblue" points="176.46,-356 186.46,-352.5 176.46,-349 176.46,-356"/>
</g>
<!-- Node17 -->
<g id="node17" class="node">
<title>Node17</title>
<g id="a_node17"><a xlink:href="classcarta_1_1LineBoxRegions.html#a72a143302eecd02b957b4115727684aa" target="_top" xlink:title=" ">
<polygon fill="none" stroke="black" points="733,-408.5 733,-438.5 875,-438.5 875,-408.5 733,-408.5"/>
<text text-anchor="start" x="741" y="-426.5" font-family="Helvetica,sans-Serif" font-size="10.00">carta::LineBoxRegions</text>
<text text-anchor="middle" x="804" y="-415.5" font-family="Helvetica,sans-Serif" font-size="10.00">::GetFixedAngularRegions</text>
</a>
</g>
</g>
<!-- Node16&#45;&gt;Node17 -->
<g id="edge18" class="edge">
<title>Node16&#45;&gt;Node17</title>
<path fill="none" stroke="midnightblue" d="M927.83,-399.67C910.43,-403.04 892.09,-406.6 875.04,-409.91"/>
<polygon fill="midnightblue" stroke="midnightblue" points="928.8,-403.04 937.95,-397.7 927.47,-396.17 928.8,-403.04"/>
</g>
<!-- Node17&#45;&gt;Node10 -->
<g id="edge19" class="edge">
<title>Node17&#45;&gt;Node10</title>
<path fill="none" stroke="midnightblue" d="M722.8,-424.34C706.32,-424.51 689.21,-424.69 673.52,-424.86"/>
<polygon fill="midnightblue" stroke="midnightblue" points="723,-427.84 732.96,-424.23 722.93,-420.84 723,-427.84"/>
</g>
<!-- Node18&#45;&gt;Node7 -->
<g id="edge21" class="edge">
<title>Node18&#45;&gt;Node7</title>
<path fill="none" stroke="midnightblue" d="M934.61,-489.9C912.37,-495.32 888.06,-501.25 866.56,-506.49"/>
<polygon fill="midnightblue" stroke="midnightblue" points="935.44,-493.3 944.33,-487.53 933.78,-486.5 935.44,-493.3"/>
</g>
<!-- Node20 -->
<g id="node20" class="node">
<title>Node20</title>
<g id="a_node20"><a xlink:href="classcarta_1_1RegionHandler.html#adf0a26d068e926212c682fdf15d367fe" target="_top" xlink:title=" ">
<polygon fill="none" stroke="black" points="738.5,-359.5 738.5,-389.5 869.5,-389.5 869.5,-359.5 738.5,-359.5"/>
<text text-anchor="start" x="746.5" y="-377.5" font-family="Helvetica,sans-Serif" font-size="10.00">carta::RegionHandler</text>
<text text-anchor="middle" x="804" y="-366.5" font-family="Helvetica,sans-Serif" font-size="10.00">::FillSpectralProfileData</text>
</a>
</g>
</g>
<!-- Node19&#45;&gt;Node20 -->
<g id="edge23" class="edge">
<title>Node19&#45;&gt;Node20</title>
<path fill="none" stroke="midnightblue" d="M928.24,-350.59C908.91,-354.34 888.39,-358.32 869.75,-361.94"/>
<polygon fill="midnightblue" stroke="midnightblue" points="929.08,-353.99 938.23,-348.65 927.75,-347.12 929.08,-353.99"/>
</g>
<!-- Node21 -->
<g id="node21" class="node">
<title>Node21</title>
<g id="a_node21"><a xlink:href="classcarta_1_1RegionHandler.html#ab69f418daea6a6ecf8c58ed9434a6242" target="_top" xlink:title=" ">
<polygon fill="none" stroke="black" points="533,-361.5 533,-391.5 689,-391.5 689,-361.5 533,-361.5"/>
<text text-anchor="start" x="541" y="-379.5" font-family="Helvetica,sans-Serif" font-size="10.00">carta::RegionHandler</text>
<text text-anchor="middle" x="611" y="-368.5" font-family="Helvetica,sans-Serif" font-size="10.00">::GetTemporaryRegionProfile</text>
</a>
</g>
</g>
<!-- Node19&#45;&gt;Node21 -->
<g id="edge24" class="edge">
<title>Node19&#45;&gt;Node21</title>
<path fill="none" stroke="midnightblue" d="M928.1,-336.05C871.5,-337.33 793.2,-340.91 725,-350.5 706.46,-353.11 686.48,-357.25 668.55,-361.47"/>
<polygon fill="midnightblue" stroke="midnightblue" points="928.48,-339.55 938.4,-335.84 928.33,-332.55 928.48,-339.55"/>
</g>
<!-- Node21&#45;&gt;Node12 -->
<g id="edge25" class="edge">
<title>Node21&#45;&gt;Node12</title>
<path fill="none" stroke="midnightblue" d="M522.77,-376.5C508.84,-376.5 494.73,-376.5 481.67,-376.5"/>
<polygon fill="midnightblue" stroke="midnightblue" points="522.86,-380 532.86,-376.5 522.86,-373 522.86,-380"/>
</g>
<!-- Node23 -->
<g id="node23" class="node">
<title>Node23</title>
<g id="a_node23"><a xlink:href="classcarta_1_1Ds9ImportExport.html#a7c0d9e97465879eacb160e80fa8730a2" target="_top" xlink:title=" ">
<polygon fill="none" stroke="black" points="739,-271.5 739,-301.5 869,-301.5 869,-271.5 739,-271.5"/>
<text text-anchor="start" x="747" y="-289.5" font-family="Helvetica,sans-Serif" font-size="10.00">carta::Ds9ImportExport</text>
<text text-anchor="middle" x="804" y="-278.5" font-family="Helvetica,sans-Serif" font-size="10.00">::ImportCircleRegion</text>
</a>
</g>
</g>
<!-- Node22&#45;&gt;Node23 -->
<g id="edge27" class="edge">
<title>Node22&#45;&gt;Node23</title>
<path fill="none" stroke="midnightblue" d="M931.62,-286.5C911.13,-286.5 889.09,-286.5 869.23,-286.5"/>
<polygon fill="midnightblue" stroke="midnightblue" points="931.85,-290 941.85,-286.5 931.85,-283 931.85,-290"/>
</g>
<!-- Node25 -->
<g id="node25" class="node">
<title>Node25</title>
<g id="a_node25"><a xlink:href="classcarta_1_1Ds9ImportExport.html#aa2a42c3190f56fc57565646a5b98a45d" target="_top" xlink:title=" ">
<polygon fill="none" stroke="black" points="357,-164.5 357,-194.5 487,-194.5 487,-164.5 357,-164.5"/>
<text text-anchor="start" x="365" y="-182.5" font-family="Helvetica,sans-Serif" font-size="10.00">carta::Ds9ImportExport</text>
<text text-anchor="middle" x="422" y="-171.5" font-family="Helvetica,sans-Serif" font-size="10.00">::SetRegion</text>
</a>
</g>
</g>
<!-- Node22&#45;&gt;Node25 -->
<g id="edge33" class="edge">
<title>Node22&#45;&gt;Node25</title>
<path fill="none" stroke="midnightblue" d="M931.84,-270.91C915.78,-267.85 898.86,-264.86 883,-262.5 728.32,-239.5 684.39,-265.66 533,-226.5 504.25,-219.06 473.3,-205.27 451.57,-194.54"/>
<polygon fill="midnightblue" stroke="midnightblue" points="931.23,-274.36 941.71,-272.82 932.56,-267.48 931.23,-274.36"/>
</g>
<!-- Node24 -->
<g id="node24" class="node">
<title>Node24</title>
<g id="a_node24"><a xlink:href="classcarta_1_1Ds9ImportExport.html#ae033676706102c4f69a88711c1c6d9da" target="_top" xlink:title=" ">
<polygon fill="none" stroke="black" points="544,-312.5 544,-342.5 678,-342.5 678,-312.5 544,-312.5"/>
<text text-anchor="start" x="552" y="-330.5" font-family="Helvetica,sans-Serif" font-size="10.00">carta::Ds9ImportExport</text>
<text text-anchor="middle" x="611" y="-319.5" font-family="Helvetica,sans-Serif" font-size="10.00">::ImportCompassRegion</text>
</a>
</g>
</g>
<!-- Node23&#45;&gt;Node24 -->
<g id="edge28" class="edge">
<title>Node23&#45;&gt;Node24</title>
<path fill="none" stroke="midnightblue" d="M728.66,-302.46C712.03,-306.03 694.51,-309.79 678.25,-313.28"/>
<polygon fill="midnightblue" stroke="midnightblue" points="729.83,-305.79 738.87,-300.27 728.36,-298.94 729.83,-305.79"/>
</g>
<!-- Node23&#45;&gt;Node25 -->
<g id="edge32" class="edge">
<title>Node23&#45;&gt;Node25</title>
<path fill="none" stroke="midnightblue" d="M728.8,-289.39C673.17,-289.14 596.09,-283.55 533,-259.5 494.83,-244.95 458.01,-213.53 438.15,-194.69"/>
<polygon fill="midnightblue" stroke="midnightblue" points="728.93,-292.89 738.93,-289.38 728.92,-285.89 728.93,-292.89"/>
</g>
<!-- Node24&#45;&gt;Node25 -->
<g id="edge29" class="edge">
<title>Node24&#45;&gt;Node25</title>
<path fill="none" stroke="midnightblue" d="M552.27,-308.34C545.54,-305.15 538.96,-301.54 533,-297.5 489.89,-268.26 451.36,-219.22 433.51,-194.58"/>
<polygon fill="midnightblue" stroke="midnightblue" points="550.94,-311.58 561.5,-312.44 553.78,-305.18 550.94,-311.58"/>
</g>
<!-- Node26 -->
<g id="node26" class="node">
<title>Node26</title>
<g id="a_node26"><a xlink:href="classcarta_1_1Ds9ImportExport.html#ac30be76c02bcb4a5cac81596eef56588" target="_top" xlink:title=" ">
<polygon fill="none" stroke="black" points="181,-164.5 181,-194.5 311,-194.5 311,-164.5 181,-164.5"/>
<text text-anchor="start" x="189" y="-182.5" font-family="Helvetica,sans-Serif" font-size="10.00">carta::Ds9ImportExport</text>
<text text-anchor="middle" x="246" y="-171.5" font-family="Helvetica,sans-Serif" font-size="10.00">::ProcessFileLines</text>
</a>
</g>
</g>
<!-- Node25&#45;&gt;Node26 -->
<g id="edge30" class="edge">
<title>Node25&#45;&gt;Node26</title>
<path fill="none" stroke="midnightblue" d="M346.45,-179.5C334.66,-179.5 322.55,-179.5 311.03,-179.5"/>
<polygon fill="midnightblue" stroke="midnightblue" points="346.7,-183 356.7,-179.5 346.7,-176 346.7,-183"/>
</g>
<!-- Node27 -->
<g id="node27" class="node">
<title>Node27</title>
<g id="a_node27"><a xlink:href="classcarta_1_1Ds9ImportExport.html#aaf9d85eccbc3df844536b5105992cdeb" target="_top" xlink:title=" ">
<polygon fill="none" stroke="black" points="7.5,-164.5 7.5,-194.5 137.5,-194.5 137.5,-164.5 7.5,-164.5"/>
<text text-anchor="start" x="15.5" y="-182.5" font-family="Helvetica,sans-Serif" font-size="10.00">carta::Ds9ImportExport</text>
<text text-anchor="middle" x="72.5" y="-171.5" font-family="Helvetica,sans-Serif" font-size="10.00">::Ds9ImportExport</text>
</a>
</g>
</g>
<!-- Node26&#45;&gt;Node27 -->
<g id="edge31" class="edge">
<title>Node26&#45;&gt;Node27</title>
<path fill="none" stroke="midnightblue" d="M170.65,-179.5C159.65,-179.5 148.4,-179.5 137.64,-179.5"/>
<polygon fill="midnightblue" stroke="midnightblue" points="170.65,-183 180.65,-179.5 170.65,-176 170.65,-183"/>
</g>
<!-- Node28&#45;&gt;Node25 -->
<g id="edge35" class="edge">
<title>Node28&#45;&gt;Node25</title>
<path fill="none" stroke="midnightblue" d="M535.95,-192.79C519.77,-190.88 502.77,-188.88 487.01,-187.03"/>
<polygon fill="midnightblue" stroke="midnightblue" points="535.57,-196.27 545.91,-193.96 536.38,-189.32 535.57,-196.27"/>
</g>
<!-- Node29&#45;&gt;Node25 -->
<g id="edge39" class="edge">
<title>Node29&#45;&gt;Node25</title>
<path fill="none" stroke="midnightblue" d="M719.62,-162.33C649.65,-166.38 551.15,-172.08 487.19,-175.78"/>
<polygon fill="midnightblue" stroke="midnightblue" points="719.95,-165.81 729.73,-161.74 719.55,-158.83 719.95,-165.81"/>
</g>
<!-- Node30 -->
<g id="node30" class="node">
<title>Node30</title>
<g id="a_node30"><a xlink:href="classcarta_1_1Ds9ImportExport.html#a507821ef3a4c8908c429c7294880d29b" target="_top" xlink:title=" ">
<polygon fill="none" stroke="black" points="546,-98.5 546,-128.5 676,-128.5 676,-98.5 546,-98.5"/>
<text text-anchor="start" x="554" y="-116.5" font-family="Helvetica,sans-Serif" font-size="10.00">carta::Ds9ImportExport</text>
<text text-anchor="middle" x="611" y="-105.5" font-family="Helvetica,sans-Serif" font-size="10.00">::ImportRulerRegion</text>
</a>
</g>
</g>
<!-- Node29&#45;&gt;Node30 -->
<g id="edge37" class="edge">
<title>Node29&#45;&gt;Node30</title>
<path fill="none" stroke="midnightblue" d="M727.88,-140.19C710.81,-136.26 692.83,-132.12 676.26,-128.3"/>
<polygon fill="midnightblue" stroke="midnightblue" points="727.27,-143.65 737.8,-142.48 728.84,-136.83 727.27,-143.65"/>
</g>
<!-- Node30&#45;&gt;Node25 -->
<g id="edge38" class="edge">
<title>Node30&#45;&gt;Node25</title>
<path fill="none" stroke="midnightblue" d="M557.54,-132.02C528.54,-142.25 492.98,-154.8 465.7,-164.43"/>
<polygon fill="midnightblue" stroke="midnightblue" points="558.83,-135.27 567.1,-128.64 556.5,-128.67 558.83,-135.27"/>
</g>
<!-- Node31&#45;&gt;Node25 -->
<g id="edge41" class="edge">
<title>Node31&#45;&gt;Node25</title>
<path fill="none" stroke="midnightblue" d="M543.19,-83.51C539.69,-85.06 536.27,-86.73 533,-88.5 494.65,-109.28 457.04,-144.5 437.28,-164.48"/>
<polygon fill="midnightblue" stroke="midnightblue" points="544.7,-86.67 552.62,-79.63 542.04,-80.2 544.7,-86.67"/>
</g>
<!-- Node32&#45;&gt;Node25 -->
<g id="edge43" class="edge">
<title>Node32&#45;&gt;Node25</title>
<path fill="none" stroke="midnightblue" d="M540.02,-35.14C537.6,-36.5 535.25,-37.95 533,-39.5 483.88,-73.36 446.3,-135.74 430.78,-164.39"/>
<polygon fill="midnightblue" stroke="midnightblue" points="541.71,-38.21 549.08,-30.6 538.57,-31.95 541.71,-38.21"/>
</g>
</g>
</svg>
