<?xml version="1.0" encoding="UTF-8" standalone="no"?>
<!DOCTYPE svg PUBLIC "-//W3C//DTD SVG 1.1//EN"
 "http://www.w3.org/Graphics/SVG/1.1/DTD/svg11.dtd">
<!-- Generated by graphviz version 2.43.0 (0)
 -->
<!-- Title: carta::RegionHandler::CombineStokes Pages: 1 -->
<svg width="1541pt" height="235pt"
 viewBox="0.00 0.00 1541.00 235.00" xmlns="http://www.w3.org/2000/svg" xmlns:xlink="http://www.w3.org/1999/xlink">
<g id="graph0" class="graph" transform="scale(1 1) rotate(0) translate(4 231)">
<title>carta::RegionHandler::CombineStokes</title>
<!-- Node1 -->
<g id="node1" class="node">
<title>Node1</title>
<g id="a_node1"><a xlink:title=" ">
<polygon fill="#bfbfbf" stroke="black" points="1414,-98.5 1414,-128.5 1533,-128.5 1533,-98.5 1414,-98.5"/>
<text text-anchor="start" x="1422" y="-116.5" font-family="Helvetica,sans-Serif" font-size="10.00">carta::RegionHandler</text>
<text text-anchor="middle" x="1473.5" y="-105.5" font-family="Helvetica,sans-Serif" font-size="10.00">::CombineStokes</text>
</a>
</g>
</g>
<!-- Node2 -->
<g id="node2" class="node">
<title>Node2</title>
<g id="a_node2"><a xlink:href="classcarta_1_1RegionHandler.html#a6cbe0993d9c7c1efc36eb8252cfe6177" target="_top" xlink:title=" ">
<polygon fill="none" stroke="black" points="1259,-196.5 1259,-226.5 1378,-226.5 1378,-196.5 1259,-196.5"/>
<text text-anchor="start" x="1267" y="-214.5" font-family="Helvetica,sans-Serif" font-size="10.00">carta::RegionHandler</text>
<text text-anchor="middle" x="1318.5" y="-203.5" font-family="Helvetica,sans-Serif" font-size="10.00">::GetStokesPangle</text>
</a>
</g>
</g>
<!-- Node1&#45;&gt;Node2 -->
<g id="edge1" class="edge">
<title>Node1&#45;&gt;Node2</title>
<path fill="none" stroke="midnightblue" d="M1448.27,-135.53C1429.94,-151.42 1403.62,-172.6 1378,-187.5 1372.5,-190.7 1366.48,-193.68 1360.48,-196.38"/>
<polygon fill="midnightblue" stroke="midnightblue" points="1450.9,-137.88 1456.1,-128.64 1446.28,-132.62 1450.9,-137.88"/>
</g>
<!-- Node13 -->
<g id="node13" class="node">
<title>Node13</title>
<g id="a_node13"><a xlink:href="classcarta_1_1RegionHandler.html#a76c45b738a17f6e7a7776a66fc7f7a3b" target="_top" xlink:title=" ">
<polygon fill="none" stroke="black" points="1259,-147.5 1259,-177.5 1378,-177.5 1378,-147.5 1259,-147.5"/>
<text text-anchor="start" x="1267" y="-165.5" font-family="Helvetica,sans-Serif" font-size="10.00">carta::RegionHandler</text>
<text text-anchor="middle" x="1318.5" y="-154.5" font-family="Helvetica,sans-Serif" font-size="10.00">::GetStokesPflinear</text>
</a>
</g>
</g>
<!-- Node1&#45;&gt;Node13 -->
<g id="edge13" class="edge">
<title>Node1&#45;&gt;Node13</title>
<path fill="none" stroke="midnightblue" d="M1415.49,-131.76C1399.35,-136.93 1381.97,-142.49 1366.5,-147.45"/>
<polygon fill="midnightblue" stroke="midnightblue" points="1416.89,-134.98 1425.35,-128.6 1414.76,-128.32 1416.89,-134.98"/>
</g>
<!-- Node14 -->
<g id="node14" class="node">
<title>Node14</title>
<g id="a_node14"><a xlink:href="classcarta_1_1RegionHandler.html#ade6aad001ccf435eb382aeb3b58745ec" target="_top" xlink:title=" ">
<polygon fill="none" stroke="black" points="1259,-98.5 1259,-128.5 1378,-128.5 1378,-98.5 1259,-98.5"/>
<text text-anchor="start" x="1267" y="-116.5" font-family="Helvetica,sans-Serif" font-size="10.00">carta::RegionHandler</text>
<text text-anchor="middle" x="1318.5" y="-105.5" font-family="Helvetica,sans-Serif" font-size="10.00">::GetStokesPftotal</text>
</a>
</g>
</g>
<!-- Node1&#45;&gt;Node14 -->
<g id="edge15" class="edge">
<title>Node1&#45;&gt;Node14</title>
<path fill="none" stroke="midnightblue" d="M1403.51,-113.5C1395.01,-113.5 1386.38,-113.5 1378.06,-113.5"/>
<polygon fill="midnightblue" stroke="midnightblue" points="1403.78,-117 1413.78,-113.5 1403.78,-110 1403.78,-117"/>
</g>
<!-- Node15 -->
<g id="node15" class="node">
<title>Node15</title>
<g id="a_node15"><a xlink:href="classcarta_1_1RegionHandler.html#ad64e18c097313b54e8a1ee5f316b3125" target="_top" xlink:title=" ">
<polygon fill="none" stroke="black" points="1259,-49.5 1259,-79.5 1378,-79.5 1378,-49.5 1259,-49.5"/>
<text text-anchor="start" x="1267" y="-67.5" font-family="Helvetica,sans-Serif" font-size="10.00">carta::RegionHandler</text>
<text text-anchor="middle" x="1318.5" y="-56.5" font-family="Helvetica,sans-Serif" font-size="10.00">::GetStokesPlinear</text>
</a>
</g>
</g>
<!-- Node1&#45;&gt;Node15 -->
<g id="edge17" class="edge">
<title>Node1&#45;&gt;Node15</title>
<path fill="none" stroke="midnightblue" d="M1415.49,-95.24C1399.35,-90.07 1381.97,-84.51 1366.5,-79.55"/>
<polygon fill="midnightblue" stroke="midnightblue" points="1414.76,-98.68 1425.35,-98.4 1416.89,-92.02 1414.76,-98.68"/>
</g>
<!-- Node16 -->
<g id="node16" class="node">
<title>Node16</title>
<g id="a_node16"><a xlink:href="classcarta_1_1RegionHandler.html#ada1f63f7ba0572cd5dabd2dad0e3792c" target="_top" xlink:title=" ">
<polygon fill="none" stroke="black" points="1259,-0.5 1259,-30.5 1378,-30.5 1378,-0.5 1259,-0.5"/>
<text text-anchor="start" x="1267" y="-18.5" font-family="Helvetica,sans-Serif" font-size="10.00">carta::RegionHandler</text>
<text text-anchor="middle" x="1318.5" y="-7.5" font-family="Helvetica,sans-Serif" font-size="10.00">::GetStokesPtotal</text>
</a>
</g>
</g>
<!-- Node1&#45;&gt;Node16 -->
<g id="edge19" class="edge">
<title>Node1&#45;&gt;Node16</title>
<path fill="none" stroke="midnightblue" d="M1447.82,-91.62C1429.45,-76.04 1403.27,-55.33 1378,-40.5 1371.9,-36.92 1365.2,-33.57 1358.57,-30.56"/>
<polygon fill="midnightblue" stroke="midnightblue" points="1445.82,-94.51 1455.68,-98.37 1450.38,-89.2 1445.82,-94.51"/>
</g>
<!-- Node3 -->
<g id="node3" class="node">
<title>Node3</title>
<g id="a_node3"><a xlink:href="classcarta_1_1RegionHandler.html#abb010a0a0dc050115c0d88d88f6a3050" target="_top" xlink:title=" ">
<polygon fill="none" stroke="black" points="1065,-98.5 1065,-128.5 1223,-128.5 1223,-98.5 1065,-98.5"/>
<text text-anchor="start" x="1073" y="-116.5" font-family="Helvetica,sans-Serif" font-size="10.00">carta::RegionHandler</text>
<text text-anchor="middle" x="1144" y="-105.5" font-family="Helvetica,sans-Serif" font-size="10.00">::GetComputedStokesProfiles</text>
</a>
</g>
</g>
<!-- Node2&#45;&gt;Node3 -->
<g id="edge2" class="edge">
<title>Node2&#45;&gt;Node3</title>
<path fill="none" stroke="midnightblue" d="M1268.65,-192.27C1265.35,-190.72 1262.11,-189.13 1259,-187.5 1224.93,-169.65 1188.03,-144.53 1165.71,-128.64"/>
<polygon fill="midnightblue" stroke="midnightblue" points="1267.46,-195.57 1278.02,-196.48 1270.33,-189.19 1267.46,-195.57"/>
</g>
<!-- Node4 -->
<g id="node4" class="node">
<title>Node4</title>
<g id="a_node4"><a xlink:href="classcarta_1_1RegionHandler.html#aa5624138d4060512518d54f2b6709a25" target="_top" xlink:title=" ">
<polygon fill="none" stroke="black" points="892,-98.5 892,-128.5 1029,-128.5 1029,-98.5 892,-98.5"/>
<text text-anchor="start" x="900" y="-116.5" font-family="Helvetica,sans-Serif" font-size="10.00">carta::RegionHandler</text>
<text text-anchor="middle" x="960.5" y="-105.5" font-family="Helvetica,sans-Serif" font-size="10.00">::GetRegionSpectralData</text>
</a>
</g>
</g>
<!-- Node3&#45;&gt;Node4 -->
<g id="edge3" class="edge">
<title>Node3&#45;&gt;Node4</title>
<path fill="none" stroke="midnightblue" d="M1054.87,-113.5C1046.23,-113.5 1037.57,-113.5 1029.18,-113.5"/>
<polygon fill="midnightblue" stroke="midnightblue" points="1054.97,-117 1064.97,-113.5 1054.97,-110 1054.97,-117"/>
</g>
<!-- Node5 -->
<g id="node5" class="node">
<title>Node5</title>
<g id="a_node5"><a xlink:href="classcarta_1_1RegionHandler.html#adf0a26d068e926212c682fdf15d367fe" target="_top" xlink:title=" ">
<polygon fill="none" stroke="black" points="712.5,-123.5 712.5,-153.5 843.5,-153.5 843.5,-123.5 712.5,-123.5"/>
<text text-anchor="start" x="720.5" y="-141.5" font-family="Helvetica,sans-Serif" font-size="10.00">carta::RegionHandler</text>
<text text-anchor="middle" x="778" y="-130.5" font-family="Helvetica,sans-Serif" font-size="10.00">::FillSpectralProfileData</text>
</a>
</g>
</g>
<!-- Node4&#45;&gt;Node5 -->
<g id="edge4" class="edge">
<title>Node4&#45;&gt;Node5</title>
<path fill="none" stroke="midnightblue" d="M881.66,-124.28C868.94,-126.04 855.88,-127.85 843.52,-129.56"/>
<polygon fill="midnightblue" stroke="midnightblue" points="882.35,-127.72 891.77,-122.88 881.39,-120.79 882.35,-127.72"/>
</g>
<!-- Node6 -->
<g id="node6" class="node">
<title>Node6</title>
<g id="a_node6"><a xlink:href="classcarta_1_1RegionHandler.html#ab69f418daea6a6ecf8c58ed9434a6242" target="_top" xlink:title=" ">
<polygon fill="none" stroke="black" points="700,-74.5 700,-104.5 856,-104.5 856,-74.5 700,-74.5"/>
<text text-anchor="start" x="708" y="-92.5" font-family="Helvetica,sans-Serif" font-size="10.00">carta::RegionHandler</text>
<text text-anchor="middle" x="778" y="-81.5" font-family="Helvetica,sans-Serif" font-size="10.00">::GetTemporaryRegionProfile</text>
</a>
</g>
</g>
<!-- Node4&#45;&gt;Node6 -->
<g id="edge5" class="edge">
<title>Node4&#45;&gt;Node6</title>
<path fill="none" stroke="midnightblue" d="M881.6,-103.14C873.18,-102.02 864.62,-100.88 856.21,-99.77"/>
<polygon fill="midnightblue" stroke="midnightblue" points="881.4,-106.65 891.77,-104.5 882.32,-99.71 881.4,-106.65"/>
</g>
<!-- Node7 -->
<g id="node7" class="node">
<title>Node7</title>
<g id="a_node7"><a xlink:href="classcarta_1_1RegionHandler.html#abb5e03ccc3f1a8e0026c0b13ba5ed0d5" target="_top" xlink:title=" ">
<polygon fill="none" stroke="black" points="491,-99.5 491,-129.5 664,-129.5 664,-99.5 491,-99.5"/>
<text text-anchor="start" x="499" y="-117.5" font-family="Helvetica,sans-Serif" font-size="10.00">carta::RegionHandler</text>
<text text-anchor="middle" x="577.5" y="-106.5" font-family="Helvetica,sans-Serif" font-size="10.00">::GetFixedAngularRegionProfiles</text>
</a>
</g>
</g>
<!-- Node6&#45;&gt;Node7 -->
<g id="edge6" class="edge">
<title>Node6&#45;&gt;Node7</title>
<path fill="none" stroke="midnightblue" d="M689.95,-100.46C681.35,-101.55 672.63,-102.64 664.05,-103.73"/>
<polygon fill="midnightblue" stroke="midnightblue" points="690.49,-103.92 699.97,-99.2 689.61,-96.98 690.49,-103.92"/>
</g>
<!-- Node12 -->
<g id="node12" class="node">
<title>Node12</title>
<g id="a_node12"><a xlink:href="classcarta_1_1RegionHandler.html#a678aa8c7913af74fd1b483b3bd943a4c" target="_top" xlink:title=" ">
<polygon fill="none" stroke="black" points="498.5,-50.5 498.5,-80.5 656.5,-80.5 656.5,-50.5 498.5,-50.5"/>
<text text-anchor="start" x="506.5" y="-68.5" font-family="Helvetica,sans-Serif" font-size="10.00">carta::RegionHandler</text>
<text text-anchor="middle" x="577.5" y="-57.5" font-family="Helvetica,sans-Serif" font-size="10.00">::GetFixedPixelRegionProfiles</text>
</a>
</g>
</g>
<!-- Node6&#45;&gt;Node12 -->
<g id="edge11" class="edge">
<title>Node6&#45;&gt;Node12</title>
<path fill="none" stroke="midnightblue" d="M689.92,-78.97C678.9,-77.64 667.67,-76.28 656.8,-74.97"/>
<polygon fill="midnightblue" stroke="midnightblue" points="689.62,-82.46 699.97,-80.19 690.46,-75.51 689.62,-82.46"/>
</g>
<!-- Node8 -->
<g id="node8" class="node">
<title>Node8</title>
<g id="a_node8"><a xlink:href="classcarta_1_1RegionHandler.html#af0631842fe196a21fafb16e61b71401d" target="_top" xlink:title=" ">
<polygon fill="none" stroke="black" points="336,-74.5 336,-104.5 455,-104.5 455,-74.5 336,-74.5"/>
<text text-anchor="start" x="344" y="-92.5" font-family="Helvetica,sans-Serif" font-size="10.00">carta::RegionHandler</text>
<text text-anchor="middle" x="395.5" y="-81.5" font-family="Helvetica,sans-Serif" font-size="10.00">::GetLineProfiles</text>
</a>
</g>
</g>
<!-- Node7&#45;&gt;Node8 -->
<g id="edge7" class="edge">
<title>Node7&#45;&gt;Node8</title>
<path fill="none" stroke="midnightblue" d="M481,-101.24C472.18,-100.01 463.42,-98.79 455.08,-97.64"/>
<polygon fill="midnightblue" stroke="midnightblue" points="480.59,-104.71 490.98,-102.62 481.56,-97.78 480.59,-104.71"/>
</g>
<!-- Node9 -->
<g id="node9" class="node">
<title>Node9</title>
<g id="a_node9"><a xlink:href="classcarta_1_1RegionHandler.html#a53807aa22abb92b35725054a015e12aa" target="_top" xlink:title=" ">
<polygon fill="none" stroke="black" points="181,-99.5 181,-129.5 300,-129.5 300,-99.5 181,-99.5"/>
<text text-anchor="start" x="189" y="-117.5" font-family="Helvetica,sans-Serif" font-size="10.00">carta::RegionHandler</text>
<text text-anchor="middle" x="240.5" y="-106.5" font-family="Helvetica,sans-Serif" font-size="10.00">::CalculatePvImage</text>
</a>
</g>
</g>
<!-- Node8&#45;&gt;Node9 -->
<g id="edge8" class="edge">
<title>Node8&#45;&gt;Node9</title>
<path fill="none" stroke="midnightblue" d="M325.79,-100.73C317.2,-102.13 308.47,-103.56 300.06,-104.93"/>
<polygon fill="midnightblue" stroke="midnightblue" points="326.48,-104.16 335.78,-99.09 325.35,-97.25 326.48,-104.16"/>
</g>
<!-- Node10 -->
<g id="node10" class="node">
<title>Node10</title>
<g id="a_node10"><a xlink:href="classcarta_1_1RegionHandler.html#acf0d1aa0e6368d33b4631f3c383b3349" target="_top" xlink:title=" ">
<polygon fill="none" stroke="black" points="181,-50.5 181,-80.5 300,-80.5 300,-50.5 181,-50.5"/>
<text text-anchor="start" x="189" y="-68.5" font-family="Helvetica,sans-Serif" font-size="10.00">carta::RegionHandler</text>
<text text-anchor="middle" x="240.5" y="-57.5" font-family="Helvetica,sans-Serif" font-size="10.00">::GetLineSpatialData</text>
</a>
</g>
</g>
<!-- Node8&#45;&gt;Node10 -->
<g id="edge9" class="edge">
<title>Node8&#45;&gt;Node10</title>
<path fill="none" stroke="midnightblue" d="M325.79,-78.72C317.2,-77.37 308.47,-76.01 300.06,-74.69"/>
<polygon fill="midnightblue" stroke="midnightblue" points="325.36,-82.2 335.78,-80.29 326.45,-75.28 325.36,-82.2"/>
</g>
<!-- Node11 -->
<g id="node11" class="node">
<title>Node11</title>
<g id="a_node11"><a xlink:href="classcarta_1_1RegionHandler.html#a6bbb668cf434d85d9be739191dd15c19" target="_top" xlink:title=" ">
<polygon fill="none" stroke="black" points="0,-50.5 0,-80.5 145,-80.5 145,-50.5 0,-50.5"/>
<text text-anchor="start" x="8" y="-68.5" font-family="Helvetica,sans-Serif" font-size="10.00">carta::RegionHandler</text>
<text text-anchor="middle" x="72.5" y="-57.5" font-family="Helvetica,sans-Serif" font-size="10.00">::FillLineSpatialProfileData</text>
</a>
</g>
</g>
<!-- Node10&#45;&gt;Node11 -->
<g id="edge10" class="edge">
<title>Node10&#45;&gt;Node11</title>
<path fill="none" stroke="midnightblue" d="M170.79,-65.5C162.33,-65.5 153.67,-65.5 145.17,-65.5"/>
<polygon fill="midnightblue" stroke="midnightblue" points="170.97,-69 180.97,-65.5 170.97,-62 170.97,-69"/>
</g>
<!-- Node12&#45;&gt;Node8 -->
<g id="edge12" class="edge">
<title>Node12&#45;&gt;Node8</title>
<path fill="none" stroke="midnightblue" d="M488.42,-77.24C477.11,-78.75 465.76,-80.27 455.08,-81.69"/>
<polygon fill="midnightblue" stroke="midnightblue" points="488.89,-80.71 498.33,-75.92 487.96,-73.77 488.89,-80.71"/>
</g>
<!-- Node13&#45;&gt;Node3 -->
<g id="edge14" class="edge">
<title>Node13&#45;&gt;Node3</title>
<path fill="none" stroke="midnightblue" d="M1254.51,-144.61C1235.95,-139.34 1215.85,-133.62 1197.99,-128.55"/>
<polygon fill="midnightblue" stroke="midnightblue" points="1253.76,-148.03 1264.34,-147.4 1255.67,-141.3 1253.76,-148.03"/>
</g>
<!-- Node14&#45;&gt;Node3 -->
<g id="edge16" class="edge">
<title>Node14&#45;&gt;Node3</title>
<path fill="none" stroke="midnightblue" d="M1248.56,-113.5C1240.2,-113.5 1231.62,-113.5 1223.14,-113.5"/>
<polygon fill="midnightblue" stroke="midnightblue" points="1248.62,-117 1258.62,-113.5 1248.62,-110 1248.62,-117"/>
</g>
<!-- Node15&#45;&gt;Node3 -->
<g id="edge18" class="edge">
<title>Node15&#45;&gt;Node3</title>
<path fill="none" stroke="midnightblue" d="M1254.51,-82.39C1235.95,-87.66 1215.85,-93.38 1197.99,-98.45"/>
<polygon fill="midnightblue" stroke="midnightblue" points="1255.67,-85.7 1264.34,-79.6 1253.76,-78.97 1255.67,-85.7"/>
</g>
<!-- Node16&#45;&gt;Node3 -->
<g id="edge20" class="edge">
<title>Node16&#45;&gt;Node3</title>
<path fill="none" stroke="midnightblue" d="M1270.46,-34.79C1266.54,-36.64 1262.68,-38.55 1259,-40.5 1225.35,-58.31 1188.64,-82.81 1166.21,-98.4"/>
<polygon fill="midnightblue" stroke="midnightblue" points="1271.98,-37.94 1279.62,-30.6 1269.07,-31.57 1271.98,-37.94"/>
</g>
</g>
</svg>
