<?xml version="1.0" encoding="UTF-8" standalone="no"?>
<!DOCTYPE svg PUBLIC "-//W3C//DTD SVG 1.1//EN"
 "http://www.w3.org/Graphics/SVG/1.1/DTD/svg11.dtd">
<!-- Generated by graphviz version 2.43.0 (0)
 -->
<!-- Title: carta::HttpServer::HandleScriptingAction Pages: 1 -->
<svg width="629pt" height="284pt"
 viewBox="0.00 0.00 629.00 284.00" xmlns="http://www.w3.org/2000/svg" xmlns:xlink="http://www.w3.org/1999/xlink">
<g id="graph0" class="graph" transform="scale(1 1) rotate(0) translate(4 280)">
<title>carta::HttpServer::HandleScriptingAction</title>
<!-- Node1 -->
<g id="node1" class="node">
<title>Node1</title>
<g id="a_node1"><a xlink:title=" ">
<polygon fill="#bfbfbf" stroke="black" points="0,-122.5 0,-152.5 125,-152.5 125,-122.5 0,-122.5"/>
<text text-anchor="start" x="8" y="-140.5" font-family="Helvetica,sans-Serif" font-size="10.00">carta::HttpServer::</text>
<text text-anchor="middle" x="62.5" y="-129.5" font-family="Helvetica,sans-Serif" font-size="10.00">HandleScriptingAction</text>
</a>
</g>
</g>
<!-- Node2 -->
<g id="node2" class="node">
<title>Node2</title>
<g id="a_node2"><a xlink:href="classcarta_1_1HttpServer.html#a9f22cc64ac844efa362e5cae7e227b18" target="_top" xlink:title=" ">
<polygon fill="none" stroke="black" points="163,-245.5 163,-275.5 282,-275.5 282,-245.5 163,-245.5"/>
<text text-anchor="start" x="171" y="-263.5" font-family="Helvetica,sans-Serif" font-size="10.00">carta::HttpServer::</text>
<text text-anchor="middle" x="222.5" y="-252.5" font-family="Helvetica,sans-Serif" font-size="10.00">AddNoCacheHeaders</text>
</a>
</g>
</g>
<!-- Node1&#45;&gt;Node2 -->
<g id="edge1" class="edge">
<title>Node1&#45;&gt;Node2</title>
<path fill="none" stroke="midnightblue" d="M75.25,-152.63C92.23,-173.64 125.5,-211.74 161,-235.5 163.87,-237.42 166.92,-239.24 170.05,-240.96"/>
<polygon fill="midnightblue" stroke="midnightblue" points="168.55,-244.12 179.06,-245.5 171.71,-237.87 168.55,-244.12"/>
</g>
<!-- Node4 -->
<g id="node4" class="node">
<title>Node4</title>
<g id="a_node4"><a xlink:href="classcarta_1_1HttpServer.html#af169f00ad63df4365dabaff24daf8a38" target="_top" xlink:title=" ">
<polygon fill="none" stroke="black" points="169.5,-196.5 169.5,-226.5 275.5,-226.5 275.5,-196.5 169.5,-196.5"/>
<text text-anchor="start" x="177.5" y="-214.5" font-family="Helvetica,sans-Serif" font-size="10.00">carta::HttpServer::</text>
<text text-anchor="middle" x="222.5" y="-203.5" font-family="Helvetica,sans-Serif" font-size="10.00">IsAuthenticated</text>
</a>
</g>
</g>
<!-- Node1&#45;&gt;Node4 -->
<g id="edge3" class="edge">
<title>Node1&#45;&gt;Node4</title>
<path fill="none" stroke="midnightblue" d="M92.24,-152.65C111.52,-162.63 137.57,-175.79 161,-186.5 165.36,-188.49 169.92,-190.51 174.5,-192.48"/>
<polygon fill="midnightblue" stroke="midnightblue" points="173.3,-195.77 183.88,-196.46 176.04,-189.33 173.3,-195.77"/>
</g>
<!-- Node7 -->
<g id="node7" class="node">
<title>Node7</title>
<g id="a_node7"><a xlink:href="classcarta_1_1HttpServer.html#a5a0f38bf0416026e852b3ab1f69f7c57" target="_top" xlink:title=" ">
<polygon fill="none" stroke="black" points="169.5,-147.5 169.5,-177.5 275.5,-177.5 275.5,-147.5 169.5,-147.5"/>
<text text-anchor="start" x="177.5" y="-165.5" font-family="Helvetica,sans-Serif" font-size="10.00">carta::HttpServer::</text>
<text text-anchor="middle" x="222.5" y="-154.5" font-family="Helvetica,sans-Serif" font-size="10.00">OnScriptingAbort</text>
</a>
</g>
</g>
<!-- Node1&#45;&gt;Node7 -->
<g id="edge6" class="edge">
<title>Node1&#45;&gt;Node7</title>
<path fill="none" stroke="midnightblue" d="M125.04,-147.24C136.25,-149.01 147.96,-150.86 159.19,-152.64"/>
<polygon fill="midnightblue" stroke="midnightblue" points="158.92,-156.14 169.35,-154.25 160.02,-149.23 158.92,-156.14"/>
</g>
<!-- Node8 -->
<g id="node8" class="node">
<title>Node8</title>
<g id="a_node8"><a xlink:href="classcarta_1_1HttpServer.html#a4b2354257c27b9b6ac9f8c875ecbc8c3" target="_top" xlink:title=" ">
<polygon fill="none" stroke="black" points="162.5,-98.5 162.5,-128.5 282.5,-128.5 282.5,-98.5 162.5,-98.5"/>
<text text-anchor="start" x="170.5" y="-116.5" font-family="Helvetica,sans-Serif" font-size="10.00">carta::HttpServer::</text>
<text text-anchor="middle" x="222.5" y="-105.5" font-family="Helvetica,sans-Serif" font-size="10.00">OnScriptingResponse</text>
</a>
</g>
</g>
<!-- Node1&#45;&gt;Node8 -->
<g id="edge7" class="edge">
<title>Node1&#45;&gt;Node8</title>
<path fill="none" stroke="midnightblue" d="M125.04,-128.15C133.98,-126.79 143.23,-125.39 152.31,-124.01"/>
<polygon fill="midnightblue" stroke="midnightblue" points="153.1,-127.43 162.46,-122.47 152.05,-120.51 153.1,-127.43"/>
</g>
<!-- Node9 -->
<g id="node9" class="node">
<title>Node9</title>
<g id="a_node9"><a xlink:href="classcarta_1_1HttpServer.html#a84c66f1a1f6dd7ebbc074612244fd05f" target="_top" xlink:title=" ">
<polygon fill="none" stroke="black" points="161,-49.5 161,-79.5 284,-79.5 284,-49.5 161,-49.5"/>
<text text-anchor="start" x="169" y="-67.5" font-family="Helvetica,sans-Serif" font-size="10.00">carta::HttpServer::</text>
<text text-anchor="middle" x="222.5" y="-56.5" font-family="Helvetica,sans-Serif" font-size="10.00">SendScriptingRequest</text>
</a>
</g>
</g>
<!-- Node1&#45;&gt;Node9 -->
<g id="edge8" class="edge">
<title>Node1&#45;&gt;Node9</title>
<path fill="none" stroke="midnightblue" d="M91.77,-122.47C111.06,-112.41 137.32,-99.12 161,-88.5 164.77,-86.81 168.7,-85.11 172.66,-83.44"/>
<polygon fill="midnightblue" stroke="midnightblue" points="174,-86.68 181.91,-79.62 171.33,-80.2 174,-86.68"/>
</g>
<!-- Node10 -->
<g id="node10" class="node">
<title>Node10</title>
<g id="a_node10"><a xlink:href="classcarta_1_1HttpServer.html#adbfb962d9f1dd478618ca66b867728af" target="_top" xlink:title=" ">
<polygon fill="none" stroke="black" points="169.5,-0.5 169.5,-30.5 275.5,-30.5 275.5,-0.5 169.5,-0.5"/>
<text text-anchor="start" x="177.5" y="-18.5" font-family="Helvetica,sans-Serif" font-size="10.00">carta::HttpServer::</text>
<text text-anchor="middle" x="222.5" y="-7.5" font-family="Helvetica,sans-Serif" font-size="10.00">WaitForData</text>
</a>
</g>
</g>
<!-- Node1&#45;&gt;Node10 -->
<g id="edge9" class="edge">
<title>Node1&#45;&gt;Node10</title>
<path fill="none" stroke="midnightblue" d="M75.2,-122.3C92.13,-101.21 125.33,-63.01 161,-39.5 163.27,-38.01 165.64,-36.58 168.08,-35.23"/>
<polygon fill="midnightblue" stroke="midnightblue" points="169.81,-38.27 177.14,-30.62 166.64,-32.03 169.81,-38.27"/>
</g>
<!-- Node3 -->
<g id="node3" class="node">
<title>Node3</title>
<g id="a_node3"><a xlink:href="classcarta_1_1HttpServer.html#a3d73c3c23b0a75f2db9496c6a027d0e9" target="_top" xlink:title=" ">
<polygon fill="none" stroke="black" points="320.5,-245.5 320.5,-275.5 426.5,-275.5 426.5,-245.5 320.5,-245.5"/>
<text text-anchor="start" x="328.5" y="-263.5" font-family="Helvetica,sans-Serif" font-size="10.00">carta::HttpServer::</text>
<text text-anchor="middle" x="373.5" y="-252.5" font-family="Helvetica,sans-Serif" font-size="10.00">AddCorsHeaders</text>
</a>
</g>
</g>
<!-- Node2&#45;&gt;Node3 -->
<g id="edge2" class="edge">
<title>Node2&#45;&gt;Node3</title>
<path fill="none" stroke="midnightblue" d="M282.39,-260.5C291.49,-260.5 300.92,-260.5 310.09,-260.5"/>
<polygon fill="midnightblue" stroke="midnightblue" points="310.32,-264 320.32,-260.5 310.32,-257 310.32,-264"/>
</g>
<!-- Node5 -->
<g id="node5" class="node">
<title>Node5</title>
<g id="a_node5"><a xlink:href="Token_8cc.html#a9bdf5a1f3fa36deef988a7294f9f85b1" target="_top" xlink:title="Validate an HTTP request.">
<polygon fill="none" stroke="black" points="320,-202 320,-221 427,-221 427,-202 320,-202"/>
<text text-anchor="middle" x="373.5" y="-209" font-family="Helvetica,sans-Serif" font-size="10.00">ValidateAuthToken</text>
</a>
</g>
</g>
<!-- Node4&#45;&gt;Node5 -->
<g id="edge4" class="edge">
<title>Node4&#45;&gt;Node5</title>
<path fill="none" stroke="midnightblue" d="M275.61,-211.5C286.6,-211.5 298.3,-211.5 309.64,-211.5"/>
<polygon fill="midnightblue" stroke="midnightblue" points="309.91,-215 319.91,-211.5 309.91,-208 309.91,-215"/>
</g>
<!-- Node6 -->
<g id="node6" class="node">
<title>Node6</title>
<g id="a_node6"><a xlink:href="String_8cc.html#ac6e67fbe6974b4438e7f60fa751d5e75" target="_top" xlink:title=" ">
<polygon fill="none" stroke="black" points="463,-202 463,-221 621,-221 621,-202 463,-202"/>
<text text-anchor="middle" x="542" y="-209" font-family="Helvetica,sans-Serif" font-size="10.00">ConstantTimeStringCompare</text>
</a>
</g>
</g>
<!-- Node5&#45;&gt;Node6 -->
<g id="edge5" class="edge">
<title>Node5&#45;&gt;Node6</title>
<path fill="none" stroke="midnightblue" d="M427.18,-211.5C435.33,-211.5 443.93,-211.5 452.61,-211.5"/>
<polygon fill="midnightblue" stroke="midnightblue" points="452.81,-215 462.81,-211.5 452.81,-208 452.81,-215"/>
</g>
</g>
</svg>
