<?xml version="1.0" encoding="UTF-8" standalone="no"?>
<!DOCTYPE svg PUBLIC "-//W3C//DTD SVG 1.1//EN"
 "http://www.w3.org/Graphics/SVG/1.1/DTD/svg11.dtd">
<!-- Generated by graphviz version 2.43.0 (0)
 -->
<!-- Title: carta::Frame::IsValid Pages: 1 -->
<svg width="871pt" height="216pt"
 viewBox="0.00 0.00 871.00 216.19" xmlns="http://www.w3.org/2000/svg" xmlns:xlink="http://www.w3.org/1999/xlink">
<g id="graph0" class="graph" transform="scale(1 1) rotate(0) translate(4 212.19)">
<title>carta::Frame::IsValid</title>
<!-- Node1 -->
<g id="node1" class="node">
<title>Node1</title>
<g id="a_node1"><a xlink:title=" ">
<polygon fill="#bfbfbf" stroke="black" points="747,-153 747,-172 863,-172 863,-153 747,-153"/>
<text text-anchor="middle" x="805" y="-160" font-family="Helvetica,sans-Serif" font-size="10.00">carta::Frame::IsValid</text>
</a>
</g>
</g>
<!-- Node2 -->
<g id="node2" class="node">
<title>Node2</title>
<g id="a_node2"><a xlink:href="classcarta_1_1Frame.html#ac2682be139a17f645032107d7170d4c4" target="_top" xlink:title=" ">
<polygon fill="none" stroke="black" points="570,-169.5 570,-199.5 707,-199.5 707,-169.5 570,-169.5"/>
<text text-anchor="start" x="578" y="-187.5" font-family="Helvetica,sans-Serif" font-size="10.00">carta::Frame::Coordinate</text>
<text text-anchor="middle" x="638.5" y="-176.5" font-family="Helvetica,sans-Serif" font-size="10.00">System</text>
</a>
</g>
</g>
<!-- Node1&#45;&gt;Node2 -->
<g id="edge1" class="edge">
<title>Node1&#45;&gt;Node2</title>
<path fill="none" stroke="midnightblue" d="M736.87,-171.48C727.09,-172.79 717.01,-174.13 707.22,-175.44"/>
<polygon fill="midnightblue" stroke="midnightblue" points="737.48,-174.93 746.93,-170.13 736.55,-167.99 737.48,-174.93"/>
</g>
<!-- Node7 -->
<g id="node7" class="node">
<title>Node7</title>
<g id="a_node7"><a xlink:href="classcarta_1_1Frame.html#aeff1a00d7f22df6f180888b1d9eaf457" target="_top" xlink:title=" ">
<polygon fill="none" stroke="black" points="566,-131 566,-150 711,-150 711,-131 566,-131"/>
<text text-anchor="middle" x="638.5" y="-138" font-family="Helvetica,sans-Serif" font-size="10.00">carta::Frame::ImageShape</text>
</a>
</g>
</g>
<!-- Node1&#45;&gt;Node7 -->
<g id="edge8" class="edge">
<title>Node1&#45;&gt;Node7</title>
<path fill="none" stroke="midnightblue" d="M736.91,-153.53C728.26,-152.37 719.38,-151.18 710.67,-150.02"/>
<polygon fill="midnightblue" stroke="midnightblue" points="736.55,-157.01 746.93,-154.87 737.48,-150.07 736.55,-157.01"/>
</g>
<!-- Node3 -->
<g id="node3" class="node">
<title>Node3</title>
<g id="a_node3"><a xlink:href="classcarta_1_1Frame.html#aeb6afc8204ae9f00c0517b4f28be32d5" target="_top" xlink:title=" ">
<polygon fill="none" stroke="black" points="181,-175 181,-194 308,-194 308,-175 181,-175"/>
<text text-anchor="middle" x="244.5" y="-182" font-family="Helvetica,sans-Serif" font-size="10.00">carta::Frame::FitImage</text>
</a>
</g>
</g>
<!-- Node2&#45;&gt;Node3 -->
<g id="edge2" class="edge">
<title>Node2&#45;&gt;Node3</title>
<path fill="none" stroke="midnightblue" d="M559.84,-199.88C549.84,-201.38 539.7,-202.65 530,-203.5 456.5,-209.95 437.54,-209.36 364,-203.5 340.74,-201.65 315.15,-197.78 293.72,-194.01"/>
<polygon fill="midnightblue" stroke="midnightblue" points="560.45,-203.33 569.78,-198.32 559.36,-196.41 560.45,-203.33"/>
</g>
<!-- Node4 -->
<g id="node4" class="node">
<title>Node4</title>
<g id="a_node4"><a xlink:href="classcarta_1_1Frame.html#adf81c6e34d99da6b4238cde332b3c4cf" target="_top" xlink:title=" ">
<polygon fill="none" stroke="black" points="364,-137 364,-156 530,-156 530,-137 364,-137"/>
<text text-anchor="middle" x="447" y="-144" font-family="Helvetica,sans-Serif" font-size="10.00">carta::Frame::GetImageRegion</text>
</a>
</g>
</g>
<!-- Node2&#45;&gt;Node4 -->
<g id="edge3" class="edge">
<title>Node2&#45;&gt;Node4</title>
<path fill="none" stroke="midnightblue" d="M559.98,-168.96C538.19,-164.59 515.14,-159.96 495.66,-156.06"/>
<polygon fill="midnightblue" stroke="midnightblue" points="559.4,-172.41 569.89,-170.94 560.77,-165.54 559.4,-172.41"/>
</g>
<!-- Node6 -->
<g id="node6" class="node">
<title>Node6</title>
<g id="a_node6"><a xlink:href="classcarta_1_1Frame.html#adf31710bdcc36207949ebc1e3517f363" target="_top" xlink:title=" ">
<polygon fill="none" stroke="black" points="364.5,-175 364.5,-194 529.5,-194 529.5,-175 364.5,-175"/>
<text text-anchor="middle" x="447" y="-182" font-family="Helvetica,sans-Serif" font-size="10.00">carta::Frame::GetRegionShape</text>
</a>
</g>
</g>
<!-- Node2&#45;&gt;Node6 -->
<g id="edge6" class="edge">
<title>Node2&#45;&gt;Node6</title>
<path fill="none" stroke="midnightblue" d="M559.65,-184.5C549.71,-184.5 539.52,-184.5 529.52,-184.5"/>
<polygon fill="midnightblue" stroke="midnightblue" points="559.89,-188 569.89,-184.5 559.89,-181 559.89,-188"/>
</g>
<!-- Node4&#45;&gt;Node3 -->
<g id="edge4" class="edge">
<title>Node4&#45;&gt;Node3</title>
<path fill="none" stroke="midnightblue" d="M385.75,-157.92C357.07,-163.36 323.15,-169.78 295.86,-174.96"/>
<polygon fill="midnightblue" stroke="midnightblue" points="386.49,-161.34 395.66,-156.04 385.19,-154.46 386.49,-161.34"/>
</g>
<!-- Node5 -->
<g id="node5" class="node">
<title>Node5</title>
<g id="a_node5"><a xlink:href="classcarta_1_1Frame.html#a810937ee7606b48419b7f5d3ded16155" target="_top" xlink:title=" ">
<polygon fill="none" stroke="black" points="0,-77 0,-96 125,-96 125,-77 0,-77"/>
<text text-anchor="middle" x="62.5" y="-84" font-family="Helvetica,sans-Serif" font-size="10.00">carta::Frame::SaveFile</text>
</a>
</g>
</g>
<!-- Node4&#45;&gt;Node5 -->
<g id="edge5" class="edge">
<title>Node4&#45;&gt;Node5</title>
<path fill="none" stroke="midnightblue" d="M353.43,-145C297.21,-142.54 224.31,-136.58 161,-122.5 133.7,-116.43 103.71,-104.51 84.31,-96.05"/>
<polygon fill="midnightblue" stroke="midnightblue" points="353.6,-148.51 363.73,-145.42 353.88,-141.52 353.6,-148.51"/>
</g>
<!-- Node6&#45;&gt;Node3 -->
<g id="edge7" class="edge">
<title>Node6&#45;&gt;Node3</title>
<path fill="none" stroke="midnightblue" d="M354.27,-184.5C338.69,-184.5 322.83,-184.5 308.22,-184.5"/>
<polygon fill="midnightblue" stroke="midnightblue" points="354.45,-188 364.45,-184.5 354.45,-181 354.45,-188"/>
</g>
<!-- Node7&#45;&gt;Node4 -->
<g id="edge9" class="edge">
<title>Node7&#45;&gt;Node4</title>
<path fill="none" stroke="midnightblue" d="M555.66,-143.09C547.23,-143.36 538.67,-143.63 530.23,-143.9"/>
<polygon fill="midnightblue" stroke="midnightblue" points="555.97,-146.58 565.86,-142.77 555.75,-139.59 555.97,-146.58"/>
</g>
<!-- Node7&#45;&gt;Node5 -->
<g id="edge11" class="edge">
<title>Node7&#45;&gt;Node5</title>
<path fill="none" stroke="midnightblue" d="M555.69,-130.32C547.02,-129.33 538.33,-128.37 530,-127.5 385.05,-112.37 214.38,-98.33 125.06,-91.27"/>
<polygon fill="midnightblue" stroke="midnightblue" points="555.5,-133.83 565.83,-131.5 556.3,-126.87 555.5,-133.83"/>
</g>
<!-- Node7&#45;&gt;Node6 -->
<g id="edge10" class="edge">
<title>Node7&#45;&gt;Node6</title>
<path fill="none" stroke="midnightblue" d="M586.7,-152.32C568.78,-156.49 548.5,-161.21 530,-165.5 516.76,-168.57 502.32,-171.92 489.3,-174.94"/>
<polygon fill="midnightblue" stroke="midnightblue" points="587.72,-155.68 596.66,-150 586.13,-148.86 587.72,-155.68"/>
</g>
<!-- Node8 -->
<g id="node8" class="node">
<title>Node8</title>
<g id="a_node8"><a xlink:href="classcarta_1_1Frame.html#a3c05bb486183edc6f1020a6428bb31e5" target="_top" xlink:title=" ">
<polygon fill="none" stroke="black" points="365,-49.5 365,-79.5 529,-79.5 529,-49.5 365,-49.5"/>
<text text-anchor="start" x="373" y="-67.5" font-family="Helvetica,sans-Serif" font-size="10.00">carta::Frame::ValidateChannel</text>
<text text-anchor="middle" x="447" y="-56.5" font-family="Helvetica,sans-Serif" font-size="10.00">Stokes</text>
</a>
</g>
</g>
<!-- Node7&#45;&gt;Node8 -->
<g id="edge12" class="edge">
<title>Node7&#45;&gt;Node8</title>
<path fill="none" stroke="midnightblue" d="M606.98,-126.92C585.56,-117.52 556.18,-104.88 530,-94.5 517.32,-89.47 503.42,-84.27 490.72,-79.64"/>
<polygon fill="midnightblue" stroke="midnightblue" points="605.66,-130.17 616.22,-131 608.48,-123.76 605.66,-130.17"/>
</g>
<!-- Node9 -->
<g id="node9" class="node">
<title>Node9</title>
<g id="a_node9"><a xlink:href="classcarta_1_1Frame.html#ab8d23e30f45472bdf614e4830610289f" target="_top" xlink:title=" ">
<polygon fill="none" stroke="black" points="162.5,-0.5 162.5,-30.5 326.5,-30.5 326.5,-0.5 162.5,-0.5"/>
<text text-anchor="start" x="170.5" y="-18.5" font-family="Helvetica,sans-Serif" font-size="10.00">carta::Frame::GetExportImage</text>
<text text-anchor="middle" x="244.5" y="-7.5" font-family="Helvetica,sans-Serif" font-size="10.00">Slicer</text>
</a>
</g>
</g>
<!-- Node8&#45;&gt;Node9 -->
<g id="edge13" class="edge">
<title>Node8&#45;&gt;Node9</title>
<path fill="none" stroke="midnightblue" d="M374.49,-47.02C352.39,-41.62 328.26,-35.72 306.9,-30.51"/>
<polygon fill="midnightblue" stroke="midnightblue" points="373.94,-50.49 384.48,-49.47 375.6,-43.69 373.94,-50.49"/>
</g>
<!-- Node10 -->
<g id="node10" class="node">
<title>Node10</title>
<g id="a_node10"><a xlink:href="classcarta_1_1Frame.html#a789314994a5e12391e4e97d65bef436d" target="_top" xlink:title=" ">
<polygon fill="none" stroke="black" points="161,-49.5 161,-79.5 328,-79.5 328,-49.5 161,-49.5"/>
<text text-anchor="start" x="169" y="-67.5" font-family="Helvetica,sans-Serif" font-size="10.00">carta::Frame::GetExportRegion</text>
<text text-anchor="middle" x="244.5" y="-56.5" font-family="Helvetica,sans-Serif" font-size="10.00">Slicer</text>
</a>
</g>
</g>
<!-- Node8&#45;&gt;Node10 -->
<g id="edge15" class="edge">
<title>Node8&#45;&gt;Node10</title>
<path fill="none" stroke="midnightblue" d="M354.5,-64.5C345.73,-64.5 336.86,-64.5 328.18,-64.5"/>
<polygon fill="midnightblue" stroke="midnightblue" points="354.74,-68 364.74,-64.5 354.74,-61 354.74,-68"/>
</g>
<!-- Node9&#45;&gt;Node5 -->
<g id="edge14" class="edge">
<title>Node9&#45;&gt;Node5</title>
<path fill="none" stroke="midnightblue" d="M177.62,-33.59C171.96,-35.47 166.35,-37.45 161,-39.5 132.23,-50.53 100.3,-66.72 81.08,-76.93"/>
<polygon fill="midnightblue" stroke="midnightblue" points="178.71,-36.92 187.17,-30.53 176.58,-30.25 178.71,-36.92"/>
</g>
<!-- Node10&#45;&gt;Node5 -->
<g id="edge16" class="edge">
<title>Node10&#45;&gt;Node5</title>
<path fill="none" stroke="midnightblue" d="M150.72,-75.84C142.06,-76.9 133.43,-77.95 125.17,-78.96"/>
<polygon fill="midnightblue" stroke="midnightblue" points="151.37,-79.29 160.88,-74.6 150.52,-72.34 151.37,-79.29"/>
</g>
</g>
</svg>
