<?xml version="1.0" encoding="UTF-8" standalone="no"?>
<!DOCTYPE svg PUBLIC "-//W3C//DTD SVG 1.1//EN"
 "http://www.w3.org/Graphics/SVG/1.1/DTD/svg11.dtd">
<!-- Generated by graphviz version 2.43.0 (0)
 -->
<!-- Title: carta::FileLoader::ImageUpdated Pages: 1 -->
<svg width="586pt" height="113pt"
 viewBox="0.00 0.00 586.00 113.00" xmlns="http://www.w3.org/2000/svg" xmlns:xlink="http://www.w3.org/1999/xlink">
<g id="graph0" class="graph" transform="scale(1 1) rotate(0) translate(4 109)">
<title>carta::FileLoader::ImageUpdated</title>
<!-- Node1 -->
<g id="node1" class="node">
<title>Node1</title>
<g id="a_node1"><a xlink:title=" ">
<polygon fill="#bfbfbf" stroke="black" points="474,-24.5 474,-54.5 578,-54.5 578,-24.5 474,-24.5"/>
<text text-anchor="start" x="482" y="-42.5" font-family="Helvetica,sans-Serif" font-size="10.00">carta::FileLoader::</text>
<text text-anchor="middle" x="526" y="-31.5" font-family="Helvetica,sans-Serif" font-size="10.00">ImageUpdated</text>
</a>
</g>
</g>
<!-- Node2 -->
<g id="node2" class="node">
<title>Node2</title>
<g id="a_node2"><a xlink:href="classcarta_1_1FileLoader.html#a5101515d2dff6f6621b23699c5c7b3bf" target="_top" xlink:title=" ">
<polygon fill="none" stroke="black" points="316,-49.5 316,-79.5 438,-79.5 438,-49.5 316,-49.5"/>
<text text-anchor="start" x="324" y="-67.5" font-family="Helvetica,sans-Serif" font-size="10.00">carta::FileLoader::</text>
<text text-anchor="middle" x="377" y="-56.5" font-family="Helvetica,sans-Serif" font-size="10.00">CloseImageIfUpdated</text>
</a>
</g>
</g>
<!-- Node1&#45;&gt;Node2 -->
<g id="edge1" class="edge">
<title>Node1&#45;&gt;Node2</title>
<path fill="none" stroke="midnightblue" d="M464.04,-49.87C455.43,-51.33 446.59,-52.83 438.01,-54.29"/>
<polygon fill="midnightblue" stroke="midnightblue" points="464.73,-53.3 474,-48.17 463.55,-46.4 464.73,-53.3"/>
</g>
<!-- Node6 -->
<g id="node6" class="node">
<title>Node6</title>
<g id="a_node6"><a xlink:href="classcarta_1_1FileLoader.html#a93a405a4a9693d24f7f091a237ef476f" target="_top" xlink:title=" ">
<polygon fill="none" stroke="black" points="325,-0.5 325,-30.5 429,-30.5 429,-0.5 325,-0.5"/>
<text text-anchor="start" x="333" y="-18.5" font-family="Helvetica,sans-Serif" font-size="10.00">carta::FileLoader::</text>
<text text-anchor="middle" x="377" y="-7.5" font-family="Helvetica,sans-Serif" font-size="10.00">FileLoader</text>
</a>
</g>
</g>
<!-- Node1&#45;&gt;Node6 -->
<g id="edge5" class="edge">
<title>Node1&#45;&gt;Node6</title>
<path fill="none" stroke="midnightblue" d="M464.02,-29.54C452.52,-27.67 440.59,-25.72 429.41,-23.89"/>
<polygon fill="midnightblue" stroke="midnightblue" points="463.57,-33.02 474,-31.17 464.69,-26.11 463.57,-33.02"/>
</g>
<!-- Node3 -->
<g id="node3" class="node">
<title>Node3</title>
<g id="a_node3"><a xlink:href="classcarta_1_1FileLoader.html#afad62acd2ff74fdef47e6a31500fe070" target="_top" xlink:title=" ">
<polygon fill="none" stroke="black" points="167,-49.5 167,-79.5 280,-79.5 280,-49.5 167,-49.5"/>
<text text-anchor="start" x="175" y="-67.5" font-family="Helvetica,sans-Serif" font-size="10.00">carta::FileLoader::</text>
<text text-anchor="middle" x="223.5" y="-56.5" font-family="Helvetica,sans-Serif" font-size="10.00">CalculateBeamArea</text>
</a>
</g>
</g>
<!-- Node2&#45;&gt;Node3 -->
<g id="edge2" class="edge">
<title>Node2&#45;&gt;Node3</title>
<path fill="none" stroke="midnightblue" d="M305.43,-64.5C296.96,-64.5 288.4,-64.5 280.18,-64.5"/>
<polygon fill="midnightblue" stroke="midnightblue" points="305.69,-68 315.69,-64.5 305.69,-61 305.69,-68"/>
</g>
<!-- Node4 -->
<g id="node4" class="node">
<title>Node4</title>
<g id="a_node4"><a xlink:href="classcarta_1_1Hdf5Loader.html#a52cdfeb4f3e4b658a28a84bcf4219f04" target="_top" xlink:title=" ">
<polygon fill="none" stroke="black" points="0,-74.5 0,-104.5 131,-104.5 131,-74.5 0,-74.5"/>
<text text-anchor="start" x="8" y="-92.5" font-family="Helvetica,sans-Serif" font-size="10.00">carta::Hdf5Loader::</text>
<text text-anchor="middle" x="65.5" y="-81.5" font-family="Helvetica,sans-Serif" font-size="10.00">GetRegionSpectralData</text>
</a>
</g>
</g>
<!-- Node3&#45;&gt;Node4 -->
<g id="edge3" class="edge">
<title>Node3&#45;&gt;Node4</title>
<path fill="none" stroke="midnightblue" d="M156.74,-75.04C148.23,-76.4 139.51,-77.8 131.02,-79.16"/>
<polygon fill="midnightblue" stroke="midnightblue" points="157.3,-78.49 166.62,-73.45 156.19,-71.58 157.3,-78.49"/>
</g>
<!-- Node5 -->
<g id="node5" class="node">
<title>Node5</title>
<g id="a_node5"><a xlink:href="classcarta_1_1FileLoader.html#a4577664e7e2107a923c02da856c93b8d" target="_top" xlink:title=" ">
<polygon fill="none" stroke="black" points="13.5,-25.5 13.5,-55.5 117.5,-55.5 117.5,-25.5 13.5,-25.5"/>
<text text-anchor="start" x="21.5" y="-43.5" font-family="Helvetica,sans-Serif" font-size="10.00">carta::FileLoader::</text>
<text text-anchor="middle" x="65.5" y="-32.5" font-family="Helvetica,sans-Serif" font-size="10.00">LoadImageStats</text>
</a>
</g>
</g>
<!-- Node3&#45;&gt;Node5 -->
<g id="edge4" class="edge">
<title>Node3&#45;&gt;Node5</title>
<path fill="none" stroke="midnightblue" d="M156.73,-54.38C143.64,-52.37 130.08,-50.28 117.57,-48.36"/>
<polygon fill="midnightblue" stroke="midnightblue" points="156.21,-57.84 166.62,-55.9 157.27,-50.92 156.21,-57.84"/>
</g>
</g>
</svg>
