<?xml version="1.0" encoding="UTF-8" standalone="no"?>
<!DOCTYPE svg PUBLIC "-//W3C//DTD SVG 1.1//EN"
 "http://www.w3.org/Graphics/SVG/1.1/DTD/svg11.dtd">
<!-- Generated by graphviz version 2.43.0 (0)
 -->
<!-- Title: carta::CartaFitsImage::GetFitsHeaderString Pages: 1 -->
<!--zoomable 303 -->
<svg id="main" version="1.1" xmlns="http://www.w3.org/2000/svg" xmlns:xlink="http://www.w3.org/1999/xlink" xml:space="preserve" onload="init(evt)">
<style type="text/css"><![CDATA[
.edge:hover path { stroke: red; }
.edge:hover polygon { stroke: red; fill: red; }
]]></style>
<script type="text/javascript"><![CDATA[
var edges = document.getElementsByTagName('g');
if (edges && edges.length) {
  for (var i=0;i<edges.length;i++) {
    if (edges[i].id.substr(0,4)=='edge') {
      edges[i].setAttribute('class','edge');
    }
  }
}
]]></script>
        <defs>
                <circle id="rim" cx="0" cy="0" r="7"/>
                <circle id="rim2" cx="0" cy="0" r="3.5"/>
                <g id="zoomPlus">
                        <use xlink:href="#rim" fill="#404040">
                                <set attributeName="fill" to="#808080" begin="zoomplus.mouseover" end="zoomplus.mouseout"/>
                        </use>
                        <path d="M-4,0h8M0,-4v8" fill="none" stroke="white" stroke-width="1.5" pointer-events="none"/>
                </g>
                <g id="zoomMin">
                        <use xlink:href="#rim" fill="#404040">
                                <set attributeName="fill" to="#808080" begin="zoomminus.mouseover" end="zoomminus.mouseout"/>
                        </use>
                        <path d="M-4,0h8" fill="none" stroke="white" stroke-width="1.5" pointer-events="none"/>
                </g>
                <g id="dirArrow">
                        <path fill="none" stroke="white" stroke-width="1.5" d="M0,-3.0v7 M-2.5,-0.5L0,-3.0L2.5,-0.5"/>
                </g>
               <g id="resetDef">
                       <use xlink:href="#rim2" fill="#404040">
                               <set attributeName="fill" to="#808080" begin="reset.mouseover" end="reset.mouseout"/>
                       </use>
               </g>
        </defs>

<script type="text/javascript">
var viewWidth = 1862;
var viewHeight = 303;
var sectionId = 'dynsection-27';
</script>
<script xlink:href="svgpan.js"/>
<svg id="graph" class="graph">
<g id="viewport">
<title>carta::CartaFitsImage::GetFitsHeaderString</title>
<!-- Node1 -->
<g id="node1" class="node">
<title>Node1</title>
<g id="a_node1"><a xlink:title=" ">
<polygon fill="#bfbfbf" stroke="black" points="1732,-170 1732,-200 1854,-200 1854,-170 1732,-170"/>
<text text-anchor="start" x="1740" y="-188" font-family="Helvetica,sans-Serif" font-size="10.00">carta::CartaFitsImage</text>
<text text-anchor="middle" x="1793" y="-177" font-family="Helvetica,sans-Serif" font-size="10.00">::GetFitsHeaderString</text>
</a>
</g>
</g>
<!-- Node2 -->
<g id="node2" class="node">
<title>Node2</title>
<g id="a_node2"><a xlink:href="classcarta_1_1CartaFitsImage.html#afaac20c0c6137f4492de3b54dec402e2" target="_top" xlink:title=" ">
<polygon fill="none" stroke="black" points="1574,-195 1574,-225 1696,-225 1696,-195 1574,-195"/>
<text text-anchor="start" x="1582" y="-213" font-family="Helvetica,sans-Serif" font-size="10.00">carta::CartaFitsImage</text>
<text text-anchor="middle" x="1635" y="-202" font-family="Helvetica,sans-Serif" font-size="10.00">::FitsHeaderStrings</text>
</a>
</g>
</g>
<!-- Node1&#45;&gt;Node2 -->
<g id="edge1" class="edge">
<title>Node1&#45;&gt;Node2</title>
<path fill="none" stroke="midnightblue" d="M1721.74,-196.26C1713.2,-197.63 1704.53,-199.02 1696.15,-200.36"/>
<polygon fill="midnightblue" stroke="midnightblue" points="1722.37,-199.7 1731.69,-194.67 1721.26,-192.79 1722.37,-199.7"/>
</g>
<!-- Node16 -->
<g id="node16" class="node">
<title>Node16</title>
<g id="a_node16"><a xlink:href="classcarta_1_1CartaFitsImage.html#ad98c05e53c5163dfa7b87cdd5eda5db7" target="_top" xlink:title=" ">
<polygon fill="none" stroke="black" points="1574,-146 1574,-176 1696,-176 1696,-146 1574,-146"/>
<text text-anchor="start" x="1582" y="-164" font-family="Helvetica,sans-Serif" font-size="10.00">carta::CartaFitsImage</text>
<text text-anchor="middle" x="1635" y="-153" font-family="Helvetica,sans-Serif" font-size="10.00">::SetUpImage</text>
</a>
</g>
</g>
<!-- Node1&#45;&gt;Node16 -->
<g id="edge20" class="edge">
<title>Node1&#45;&gt;Node16</title>
<path fill="none" stroke="midnightblue" d="M1721.74,-174.19C1713.2,-172.88 1704.53,-171.54 1696.15,-170.25"/>
<polygon fill="midnightblue" stroke="midnightblue" points="1721.27,-177.66 1731.69,-175.72 1722.33,-170.74 1721.27,-177.66"/>
</g>
<!-- Node3 -->
<g id="node3" class="node">
<title>Node3</title>
<g id="a_node3"><a xlink:href="classcarta_1_1FileExtInfoLoader.html#a2b908c0f74ba5614a0602bfec4bf3aae" target="_top" xlink:title=" ">
<polygon fill="none" stroke="black" points="1406,-195 1406,-225 1538,-225 1538,-195 1406,-195"/>
<text text-anchor="start" x="1414" y="-213" font-family="Helvetica,sans-Serif" font-size="10.00">carta::FileExtInfoLoader</text>
<text text-anchor="middle" x="1472" y="-202" font-family="Helvetica,sans-Serif" font-size="10.00">::FillFileInfoFromImage</text>
</a>
</g>
</g>
<!-- Node2&#45;&gt;Node3 -->
<g id="edge2" class="edge">
<title>Node2&#45;&gt;Node3</title>
<path fill="none" stroke="midnightblue" d="M1563.41,-210C1554.98,-210 1546.4,-210 1538.06,-210"/>
<polygon fill="midnightblue" stroke="midnightblue" points="1563.59,-213.5 1573.59,-210 1563.59,-206.5 1563.59,-213.5"/>
</g>
<!-- Node4 -->
<g id="node4" class="node">
<title>Node4</title>
<g id="a_node4"><a xlink:href="classcarta_1_1FileExtInfoLoader.html#a30fc220f3dc42e8828e92d1fdb314c6c" target="_top" xlink:title=" ">
<polygon fill="none" stroke="black" points="1238,-195 1238,-225 1370,-225 1370,-195 1238,-195"/>
<text text-anchor="start" x="1246" y="-213" font-family="Helvetica,sans-Serif" font-size="10.00">carta::FileExtInfoLoader</text>
<text text-anchor="middle" x="1304" y="-202" font-family="Helvetica,sans-Serif" font-size="10.00">::FillFileExtInfo</text>
</a>
</g>
</g>
<!-- Node3&#45;&gt;Node4 -->
<g id="edge3" class="edge">
<title>Node3&#45;&gt;Node4</title>
<path fill="none" stroke="midnightblue" d="M1395.61,-210C1387.13,-210 1378.55,-210 1370.22,-210"/>
<polygon fill="midnightblue" stroke="midnightblue" points="1395.87,-213.5 1405.87,-210 1395.87,-206.5 1395.87,-213.5"/>
</g>
<!-- Node5 -->
<g id="node5" class="node">
<title>Node5</title>
<g id="a_node5"><a xlink:href="classcarta_1_1Session.html#ae5d6e7145e441059fb26e3f23834880d" target="_top" xlink:title=" ">
<polygon fill="none" stroke="black" points="883,-195 883,-225 1034,-225 1034,-195 883,-195"/>
<text text-anchor="start" x="891" y="-213" font-family="Helvetica,sans-Serif" font-size="10.00">carta::Session::FillExtended</text>
<text text-anchor="middle" x="958.5" y="-202" font-family="Helvetica,sans-Serif" font-size="10.00">FileInfo</text>
</a>
</g>
</g>
<!-- Node4&#45;&gt;Node5 -->
<g id="edge4" class="edge">
<title>Node4&#45;&gt;Node5</title>
<path fill="none" stroke="midnightblue" d="M1227.68,-211.66C1219.02,-211.8 1210.32,-211.92 1202,-212 1143.34,-212.58 1128.66,-212.53 1070,-212 1058.39,-211.89 1046.1,-211.73 1034.09,-211.53"/>
<polygon fill="midnightblue" stroke="midnightblue" points="1227.87,-215.15 1237.81,-211.48 1227.75,-208.15 1227.87,-215.15"/>
</g>
<!-- Node15 -->
<g id="node15" class="node">
<title>Node15</title>
<g id="a_node15"><a xlink:href="classcarta_1_1FileExtInfoLoader.html#a06c36c25d3286c3019c1bbdcabdd9f63" target="_top" xlink:title=" ">
<polygon fill="none" stroke="black" points="1070,-173 1070,-203 1202,-203 1202,-173 1070,-173"/>
<text text-anchor="start" x="1078" y="-191" font-family="Helvetica,sans-Serif" font-size="10.00">carta::FileExtInfoLoader</text>
<text text-anchor="middle" x="1136" y="-180" font-family="Helvetica,sans-Serif" font-size="10.00">::FillFitsFileInfoMap</text>
</a>
</g>
</g>
<!-- Node4&#45;&gt;Node15 -->
<g id="edge18" class="edge">
<title>Node4&#45;&gt;Node15</title>
<path fill="none" stroke="midnightblue" d="M1227.89,-200.05C1219.32,-198.91 1210.64,-197.76 1202.22,-196.64"/>
<polygon fill="midnightblue" stroke="midnightblue" points="1227.5,-203.52 1237.87,-201.37 1228.42,-196.58 1227.5,-203.52"/>
</g>
<!-- Node6 -->
<g id="node6" class="node">
<title>Node6</title>
<g id="a_node6"><a xlink:href="classcarta_1_1Session.html#a8874927da900745afae4a0d975ed0453" target="_top" xlink:title=" ">
<polygon fill="none" stroke="black" points="330,-264 330,-294 470,-294 470,-264 330,-264"/>
<text text-anchor="start" x="338" y="-282" font-family="Helvetica,sans-Serif" font-size="10.00">carta::Session::OnFileInfo</text>
<text text-anchor="middle" x="400" y="-271" font-family="Helvetica,sans-Serif" font-size="10.00">Request</text>
</a>
</g>
</g>
<!-- Node5&#45;&gt;Node6 -->
<g id="edge5" class="edge">
<title>Node5&#45;&gt;Node6</title>
<path fill="none" stroke="midnightblue" d="M872.81,-221.68C814.21,-229.65 734.41,-240.31 664,-249 598.32,-257.11 523.32,-265.59 470.26,-271.45"/>
<polygon fill="midnightblue" stroke="midnightblue" points="873.32,-225.14 882.76,-220.32 872.38,-218.2 873.32,-225.14"/>
</g>
<!-- Node9 -->
<g id="node9" class="node">
<title>Node9</title>
<g id="a_node9"><a xlink:href="classcarta_1_1Session.html#a54c5dc766deb62f608792ce551a1b885" target="_top" xlink:title=" ">
<polygon fill="none" stroke="black" points="700,-137.5 700,-156.5 847,-156.5 847,-137.5 700,-137.5"/>
<text text-anchor="middle" x="773.5" y="-144.5" font-family="Helvetica,sans-Serif" font-size="10.00">carta::Session::OnOpenFile</text>
</a>
</g>
</g>
<!-- Node5&#45;&gt;Node9 -->
<g id="edge8" class="edge">
<title>Node5&#45;&gt;Node9</title>
<path fill="none" stroke="midnightblue" d="M904.06,-191.6C870.75,-180.14 829.26,-165.85 802.33,-156.58"/>
<polygon fill="midnightblue" stroke="midnightblue" points="903.07,-194.96 913.67,-194.91 905.35,-188.35 903.07,-194.96"/>
</g>
<!-- Node7 -->
<g id="node7" class="node">
<title>Node7</title>
<g id="a_node7"><a xlink:href="classcarta_1_1SessionManager.html#a474c31666cb3b22fcbe8af5f945d2950" target="_top" xlink:title=" ">
<polygon fill="none" stroke="black" points="164,-201 164,-231 292,-231 292,-201 164,-201"/>
<text text-anchor="start" x="172" y="-219" font-family="Helvetica,sans-Serif" font-size="10.00">carta::SessionManager</text>
<text text-anchor="middle" x="228" y="-208" font-family="Helvetica,sans-Serif" font-size="10.00">::OnMessage</text>
</a>
</g>
</g>
<!-- Node6&#45;&gt;Node7 -->
<g id="edge6" class="edge">
<title>Node6&#45;&gt;Node7</title>
<path fill="none" stroke="midnightblue" d="M348.88,-260.43C323.65,-251.07 293.45,-239.89 269.68,-231.08"/>
<polygon fill="midnightblue" stroke="midnightblue" points="347.69,-263.72 358.28,-263.91 350.12,-257.15 347.69,-263.72"/>
</g>
<!-- Node8 -->
<g id="node8" class="node">
<title>Node8</title>
<g id="a_node8"><a xlink:href="classcarta_1_1SessionManager.html#ab4e4e7f0244bd6843e70ab91652debf6" target="_top" xlink:title=" ">
<polygon fill="none" stroke="black" points="0,-201 0,-231 128,-231 128,-201 0,-201"/>
<text text-anchor="start" x="8" y="-219" font-family="Helvetica,sans-Serif" font-size="10.00">carta::SessionManager</text>
<text text-anchor="middle" x="64" y="-208" font-family="Helvetica,sans-Serif" font-size="10.00">::RunApp</text>
</a>
</g>
</g>
<!-- Node7&#45;&gt;Node8 -->
<g id="edge7" class="edge">
<title>Node7&#45;&gt;Node8</title>
<path fill="none" stroke="midnightblue" d="M153.63,-216C145.14,-216 136.53,-216 128.19,-216"/>
<polygon fill="midnightblue" stroke="midnightblue" points="153.9,-219.5 163.9,-216 153.9,-212.5 153.9,-219.5"/>
</g>
<!-- Node9&#45;&gt;Node7 -->
<g id="edge14" class="edge">
<title>Node9&#45;&gt;Node7</title>
<path fill="none" stroke="midnightblue" d="M753.94,-163.14C733.5,-179.77 698.88,-204.68 664,-215 536.37,-252.77 378.29,-239.01 292.18,-226.77"/>
<polygon fill="midnightblue" stroke="midnightblue" points="756.36,-165.68 761.79,-156.59 751.87,-160.31 756.36,-165.68"/>
</g>
<!-- Node10 -->
<g id="node10" class="node">
<title>Node10</title>
<g id="a_node10"><a xlink:href="classcarta_1_1Session.html#aed12d0369de4c3391dba300cb77e9241" target="_top" xlink:title=" ">
<polygon fill="none" stroke="black" points="517,-176 517,-206 655,-206 655,-176 517,-176"/>
<text text-anchor="start" x="525" y="-194" font-family="Helvetica,sans-Serif" font-size="10.00">carta::Session::OnConcat</text>
<text text-anchor="middle" x="586" y="-183" font-family="Helvetica,sans-Serif" font-size="10.00">StokesFiles</text>
</a>
</g>
</g>
<!-- Node9&#45;&gt;Node10 -->
<g id="edge9" class="edge">
<title>Node9&#45;&gt;Node10</title>
<path fill="none" stroke="midnightblue" d="M722.4,-158.88C700.27,-164.13 674,-170.36 650.51,-175.93"/>
<polygon fill="midnightblue" stroke="midnightblue" points="723.33,-162.26 732.25,-156.55 721.71,-155.45 723.33,-162.26"/>
</g>
<!-- Node11 -->
<g id="node11" class="node">
<title>Node11</title>
<g id="a_node11"><a xlink:href="classcarta_1_1Session.html#afe5c090c017ef208f638b96a7eb1ecf0" target="_top" xlink:title=" ">
<polygon fill="none" stroke="black" points="328,-138 328,-168 472,-168 472,-138 328,-138"/>
<text text-anchor="start" x="336" y="-156" font-family="Helvetica,sans-Serif" font-size="10.00">carta::Session::OnResume</text>
<text text-anchor="middle" x="400" y="-145" font-family="Helvetica,sans-Serif" font-size="10.00">Session</text>
</a>
</g>
</g>
<!-- Node9&#45;&gt;Node11 -->
<g id="edge17" class="edge">
<title>Node9&#45;&gt;Node11</title>
<path fill="none" stroke="midnightblue" d="M689.72,-148.34C624.38,-149.39 534.17,-150.85 472.07,-151.85"/>
<polygon fill="midnightblue" stroke="midnightblue" points="690.05,-151.83 699.99,-148.17 689.93,-144.83 690.05,-151.83"/>
</g>
<!-- Node12 -->
<g id="node12" class="node">
<title>Node12</title>
<g id="a_node12"><a xlink:href="classcarta_1_1Session.html#a5589e4dca9e6a51055f15da1d9ac1b3c" target="_top" xlink:title=" ">
<polygon fill="none" stroke="black" points="518.5,-88 518.5,-118 653.5,-118 653.5,-88 518.5,-88"/>
<text text-anchor="start" x="526.5" y="-106" font-family="Helvetica,sans-Serif" font-size="10.00">carta::Session::OnFitting</text>
<text text-anchor="middle" x="586" y="-95" font-family="Helvetica,sans-Serif" font-size="10.00">Request</text>
</a>
</g>
</g>
<!-- Node9&#45;&gt;Node12 -->
<g id="edge13" class="edge">
<title>Node9&#45;&gt;Node12</title>
<path fill="none" stroke="midnightblue" d="M722.4,-135.12C700.27,-129.87 674,-123.64 650.51,-118.07"/>
<polygon fill="midnightblue" stroke="midnightblue" points="721.71,-138.55 732.25,-137.45 723.33,-131.74 721.71,-138.55"/>
</g>
<!-- Node13 -->
<g id="node13" class="node">
<title>Node13</title>
<g id="a_node13"><a xlink:href="classcarta_1_1Session.html#a8fe2527b0a83c67240ef4a31a86e4978" target="_top" xlink:title=" ">
<polygon fill="none" stroke="black" points="513.5,-39 513.5,-69 658.5,-69 658.5,-39 513.5,-39"/>
<text text-anchor="start" x="521.5" y="-57" font-family="Helvetica,sans-Serif" font-size="10.00">carta::Session::OnMoment</text>
<text text-anchor="middle" x="586" y="-46" font-family="Helvetica,sans-Serif" font-size="10.00">Request</text>
</a>
</g>
</g>
<!-- Node9&#45;&gt;Node13 -->
<g id="edge15" class="edge">
<title>Node9&#45;&gt;Node13</title>
<path fill="none" stroke="midnightblue" d="M751.54,-131.29C730.36,-116.01 696.25,-92.96 664,-78 656.89,-74.7 649.2,-71.7 641.53,-69.02"/>
<polygon fill="midnightblue" stroke="midnightblue" points="749.64,-134.24 759.78,-137.32 753.78,-128.59 749.64,-134.24"/>
</g>
<!-- Node14 -->
<g id="node14" class="node">
<title>Node14</title>
<g id="a_node14"><a xlink:href="classcarta_1_1Session.html#a07bfe19708d3e272d01fef6f18712aa2" target="_top" xlink:title=" ">
<polygon fill="none" stroke="black" points="508,-0.5 508,-19.5 664,-19.5 664,-0.5 508,-0.5"/>
<text text-anchor="middle" x="586" y="-7.5" font-family="Helvetica,sans-Serif" font-size="10.00">carta::Session::OnPvRequest</text>
</a>
</g>
</g>
<!-- Node9&#45;&gt;Node14 -->
<g id="edge16" class="edge">
<title>Node9&#45;&gt;Node14</title>
<path fill="none" stroke="midnightblue" d="M760.86,-128.68C743.2,-102.44 707.08,-54.51 664,-29 657.48,-25.14 650.21,-22.06 642.81,-19.61"/>
<polygon fill="midnightblue" stroke="midnightblue" points="758.1,-130.85 766.51,-137.29 763.95,-127.01 758.1,-130.85"/>
</g>
<!-- Node10&#45;&gt;Node7 -->
<g id="edge10" class="edge">
<title>Node10&#45;&gt;Node7</title>
<path fill="none" stroke="midnightblue" d="M506.67,-196.5C442.24,-201.03 352.11,-207.35 292.21,-211.56"/>
<polygon fill="midnightblue" stroke="midnightblue" points="507.05,-199.98 516.78,-195.79 506.56,-193 507.05,-199.98"/>
</g>
<!-- Node10&#45;&gt;Node11 -->
<g id="edge11" class="edge">
<title>Node10&#45;&gt;Node11</title>
<path fill="none" stroke="midnightblue" d="M506.76,-174.84C495.3,-172.47 483.54,-170.05 472.22,-167.71"/>
<polygon fill="midnightblue" stroke="midnightblue" points="506.25,-178.31 516.75,-176.9 507.66,-171.45 506.25,-178.31"/>
</g>
<!-- Node11&#45;&gt;Node7 -->
<g id="edge12" class="edge">
<title>Node11&#45;&gt;Node7</title>
<path fill="none" stroke="midnightblue" d="M348.88,-171.57C323.65,-180.93 293.45,-192.11 269.68,-200.92"/>
<polygon fill="midnightblue" stroke="midnightblue" points="350.12,-174.85 358.28,-168.09 347.69,-168.28 350.12,-174.85"/>
</g>
<!-- Node15&#45;&gt;Node5 -->
<g id="edge19" class="edge">
<title>Node15&#45;&gt;Node5</title>
<path fill="none" stroke="midnightblue" d="M1059.47,-197.47C1051.05,-198.52 1042.48,-199.6 1034.07,-200.65"/>
<polygon fill="midnightblue" stroke="midnightblue" points="1060.16,-200.91 1069.65,-196.19 1059.29,-193.96 1060.16,-200.91"/>
</g>
<!-- Node17 -->
<g id="node17" class="node">
<title>Node17</title>
<g id="a_node17"><a xlink:href="classcarta_1_1CartaFitsImage.html#a649f84fe0b691bcff9835e12769dd7d7" target="_top" xlink:title=" ">
<polygon fill="none" stroke="black" points="1411,-146 1411,-176 1533,-176 1533,-146 1411,-146"/>
<text text-anchor="start" x="1419" y="-164" font-family="Helvetica,sans-Serif" font-size="10.00">carta::CartaFitsImage</text>
<text text-anchor="middle" x="1472" y="-153" font-family="Helvetica,sans-Serif" font-size="10.00">::CartaFitsImage</text>
</a>
</g>
</g>
<!-- Node16&#45;&gt;Node17 -->
<g id="edge21" class="edge">
<title>Node16&#45;&gt;Node17</title>
<path fill="none" stroke="midnightblue" d="M1563.57,-161C1553.45,-161 1543.11,-161 1533.21,-161"/>
<polygon fill="midnightblue" stroke="midnightblue" points="1563.59,-164.5 1573.59,-161 1563.59,-157.5 1563.59,-164.5"/>
</g>
<!-- Node18 -->
<g id="node18" class="node">
<title>Node18</title>
<g id="a_node18"><a xlink:href="classcarta_1_1CartaFitsImage.html#ad0ca292e6e9b740437925114732cc956" target="_top" xlink:title=" ">
<polygon fill="none" stroke="black" points="1243,-146 1243,-176 1365,-176 1365,-146 1243,-146"/>
<text text-anchor="start" x="1251" y="-164" font-family="Helvetica,sans-Serif" font-size="10.00">carta::CartaFitsImage</text>
<text text-anchor="middle" x="1304" y="-153" font-family="Helvetica,sans-Serif" font-size="10.00">::cloneII</text>
</a>
</g>
</g>
<!-- Node17&#45;&gt;Node18 -->
<g id="edge22" class="edge">
<title>Node17&#45;&gt;Node18</title>
<path fill="none" stroke="midnightblue" d="M1400.38,-161C1388.63,-161 1376.54,-161 1365.08,-161"/>
<polygon fill="midnightblue" stroke="midnightblue" points="1400.6,-164.5 1410.6,-161 1400.6,-157.5 1400.6,-164.5"/>
</g>
</g>
</svg>
        <g id="navigator" transform="translate(0 0)" fill="#404254">
                <rect fill="#f2f5e9" fill-opacity="0.5" stroke="#606060" stroke-width=".5" x="0" y="0" width="60" height="60"/>
                <use id="zoomplus" xlink:href="#zoomPlus" x="17" y="9" onmousedown="handleZoom(evt,'in')"/>
                <use id="zoomminus" xlink:href="#zoomMin" x="42" y="9" onmousedown="handleZoom(evt,'out')"/>
                <use id="reset" xlink:href="#resetDef" x="30" y="36" onmousedown="handleReset()"/>
                <g id="arrowUp" xlink:href="#dirArrow" transform="translate(30 24)" onmousedown="handlePan(0,-1)">
                  <use xlink:href="#rim" fill="#404040">
                        <set attributeName="fill" to="#808080" begin="arrowUp.mouseover" end="arrowUp.mouseout"/>
                  </use>
                  <path fill="none" stroke="white" stroke-width="1.5" d="M0,-3.0v7 M-2.5,-0.5L0,-3.0L2.5,-0.5"/>
                </g>
                <g id="arrowRight" xlink:href="#dirArrow" transform="rotate(90) translate(36 -43)" onmousedown="handlePan(1,0)">
                  <use xlink:href="#rim" fill="#404040">
                        <set attributeName="fill" to="#808080" begin="arrowRight.mouseover" end="arrowRight.mouseout"/>
                  </use>
                  <path fill="none" stroke="white" stroke-width="1.5" d="M0,-3.0v7 M-2.5,-0.5L0,-3.0L2.5,-0.5"/>
                </g>
                <g id="arrowDown" xlink:href="#dirArrow" transform="rotate(180) translate(-30 -48)" onmousedown="handlePan(0,1)">
                  <use xlink:href="#rim" fill="#404040">
                        <set attributeName="fill" to="#808080" begin="arrowDown.mouseover" end="arrowDown.mouseout"/>
                  </use>
                  <path fill="none" stroke="white" stroke-width="1.5" d="M0,-3.0v7 M-2.5,-0.5L0,-3.0L2.5,-0.5"/>
                </g>
                <g id="arrowLeft" xlink:href="#dirArrow" transform="rotate(270) translate(-36 17)" onmousedown="handlePan(-1,0)">
                  <use xlink:href="#rim" fill="#404040">
                        <set attributeName="fill" to="#808080" begin="arrowLeft.mouseover" end="arrowLeft.mouseout"/>
                  </use>
                  <path fill="none" stroke="white" stroke-width="1.5" d="M0,-3.0v7 M-2.5,-0.5L0,-3.0L2.5,-0.5"/>
                </g>
        </g>
        <svg viewBox="0 0 15 15" width="100%" height="30px" preserveAspectRatio="xMaxYMin meet">
         <g id="arrow_out" transform="scale(0.3 0.3)">
          <a xlink:href="classcarta_1_1CartaFitsImage_aff1f2daec6344390f8d626744eebaafd_icgraph_org.svg" target="_base">
           <rect id="button" ry="5" rx="5" y="6" x="6" height="38" width="38"
                fill="#f2f5e9" fill-opacity="0.5" stroke="#606060" stroke-width="1.0"/>
           <path id="arrow"
             d="M 11.500037,31.436501 C 11.940474,20.09759 22.043105,11.32322 32.158766,21.979434 L 37.068811,17.246167 C 37.068811,17.246167 37.088388,32 37.088388,32 L 22.160133,31.978069 C 22.160133,31.978069 26.997745,27.140456 26.997745,27.140456 C 18.528582,18.264221 13.291696,25.230495 11.500037,31.436501 z"
             style="fill:#404040;"/>
          </a>
         </g>
        </svg>
</svg>
