<?xml version="1.0" encoding="UTF-8" standalone="no"?>
<!DOCTYPE svg PUBLIC "-//W3C//DTD SVG 1.1//EN"
 "http://www.w3.org/Graphics/SVG/1.1/DTD/svg11.dtd">
<!-- Generated by graphviz version 2.43.0 (0)
 -->
<!-- Title: carta::FileLoader::GetLoader Pages: 1 -->
<svg width="1371pt" height="303pt"
 viewBox="0.00 0.00 1371.00 302.50" xmlns="http://www.w3.org/2000/svg" xmlns:xlink="http://www.w3.org/1999/xlink">
<g id="graph0" class="graph" transform="scale(1 1) rotate(0) translate(4 298.5)">
<title>carta::FileLoader::GetLoader</title>
<!-- Node1 -->
<g id="node1" class="node">
<title>Node1</title>
<g id="a_node1"><a xlink:title=" ">
<polygon fill="#bfbfbf" stroke="black" points="1259,-132 1259,-162 1363,-162 1363,-132 1259,-132"/>
<text text-anchor="start" x="1267" y="-150" font-family="Helvetica,sans-Serif" font-size="10.00">carta::FileLoader::</text>
<text text-anchor="middle" x="1311" y="-139" font-family="Helvetica,sans-Serif" font-size="10.00">GetLoader</text>
</a>
</g>
</g>
<!-- Node2 -->
<g id="node2" class="node">
<title>Node2</title>
<g id="a_node2"><a xlink:href="classcarta_1_1Session.html#ac671b008e48c5074c520343edb43beec" target="_top" xlink:title=" ">
<polygon fill="none" stroke="black" points="1071.5,-176 1071.5,-206 1222.5,-206 1222.5,-176 1071.5,-176"/>
<text text-anchor="start" x="1079.5" y="-194" font-family="Helvetica,sans-Serif" font-size="10.00">carta::Session::FillExtended</text>
<text text-anchor="middle" x="1147" y="-183" font-family="Helvetica,sans-Serif" font-size="10.00">FileInfo</text>
</a>
</g>
</g>
<!-- Node1&#45;&gt;Node2 -->
<g id="edge1" class="edge">
<title>Node1&#45;&gt;Node2</title>
<path fill="none" stroke="midnightblue" d="M1249.06,-163.55C1234.08,-167.62 1218.12,-171.96 1203.41,-175.95"/>
<polygon fill="midnightblue" stroke="midnightblue" points="1250.01,-166.92 1258.74,-160.92 1248.17,-160.17 1250.01,-166.92"/>
</g>
<!-- Node3 -->
<g id="node3" class="node">
<title>Node3</title>
<g id="a_node3"><a xlink:href="classcarta_1_1LoaderCache.html#a341be9f1278d337b6e7a0a347de474c1" target="_top" xlink:title=" ">
<polygon fill="none" stroke="black" points="1080,-137.5 1080,-156.5 1214,-156.5 1214,-137.5 1080,-137.5"/>
<text text-anchor="middle" x="1147" y="-144.5" font-family="Helvetica,sans-Serif" font-size="10.00">carta::LoaderCache::Get</text>
</a>
</g>
</g>
<!-- Node1&#45;&gt;Node3 -->
<g id="edge2" class="edge">
<title>Node1&#45;&gt;Node3</title>
<path fill="none" stroke="midnightblue" d="M1248.56,-147C1237.29,-147 1225.47,-147 1214.07,-147"/>
<polygon fill="midnightblue" stroke="midnightblue" points="1248.74,-150.5 1258.74,-147 1248.74,-143.5 1248.74,-150.5"/>
</g>
<!-- Node14 -->
<g id="node14" class="node">
<title>Node14</title>
<g id="a_node14"><a xlink:href="classcarta_1_1StokesFilesConnector.html#a293ad12a37f9da0da1f6bcd140c68bd8" target="_top" xlink:title=" ">
<polygon fill="none" stroke="black" points="1071,-88 1071,-118 1223,-118 1223,-88 1071,-88"/>
<text text-anchor="start" x="1079" y="-106" font-family="Helvetica,sans-Serif" font-size="10.00">carta::StokesFilesConnector</text>
<text text-anchor="middle" x="1147" y="-95" font-family="Helvetica,sans-Serif" font-size="10.00">::OpenStokesFiles</text>
</a>
</g>
</g>
<!-- Node1&#45;&gt;Node14 -->
<g id="edge18" class="edge">
<title>Node1&#45;&gt;Node14</title>
<path fill="none" stroke="midnightblue" d="M1249.06,-130.45C1234.08,-126.38 1218.12,-122.04 1203.41,-118.05"/>
<polygon fill="midnightblue" stroke="midnightblue" points="1248.17,-133.83 1258.74,-133.08 1250.01,-127.08 1248.17,-133.83"/>
</g>
<!-- Node4 -->
<g id="node4" class="node">
<title>Node4</title>
<g id="a_node4"><a xlink:href="classcarta_1_1Session.html#ae5d6e7145e441059fb26e3f23834880d" target="_top" xlink:title=" ">
<polygon fill="none" stroke="black" points="883.5,-176 883.5,-206 1034.5,-206 1034.5,-176 883.5,-176"/>
<text text-anchor="start" x="891.5" y="-194" font-family="Helvetica,sans-Serif" font-size="10.00">carta::Session::FillExtended</text>
<text text-anchor="middle" x="959" y="-183" font-family="Helvetica,sans-Serif" font-size="10.00">FileInfo</text>
</a>
</g>
</g>
<!-- Node3&#45;&gt;Node4 -->
<g id="edge3" class="edge">
<title>Node3&#45;&gt;Node4</title>
<path fill="none" stroke="midnightblue" d="M1095.76,-158.88C1073.57,-164.13 1047.23,-170.36 1023.69,-175.93"/>
<polygon fill="midnightblue" stroke="midnightblue" points="1096.72,-162.26 1105.64,-156.55 1095.1,-155.44 1096.72,-162.26"/>
</g>
<!-- Node8 -->
<g id="node8" class="node">
<title>Node8</title>
<g id="a_node8"><a xlink:href="classcarta_1_1Session.html#a54c5dc766deb62f608792ce551a1b885" target="_top" xlink:title=" ">
<polygon fill="none" stroke="black" points="700,-137.5 700,-156.5 847,-156.5 847,-137.5 700,-137.5"/>
<text text-anchor="middle" x="773.5" y="-144.5" font-family="Helvetica,sans-Serif" font-size="10.00">carta::Session::OnOpenFile</text>
</a>
</g>
</g>
<!-- Node3&#45;&gt;Node8 -->
<g id="edge17" class="edge">
<title>Node3&#45;&gt;Node8</title>
<path fill="none" stroke="midnightblue" d="M1069.36,-147C1004.11,-147 911.04,-147 847.01,-147"/>
<polygon fill="midnightblue" stroke="midnightblue" points="1069.58,-150.5 1079.58,-147 1069.58,-143.5 1069.58,-150.5"/>
</g>
<!-- Node5 -->
<g id="node5" class="node">
<title>Node5</title>
<g id="a_node5"><a xlink:href="classcarta_1_1Session.html#a8874927da900745afae4a0d975ed0453" target="_top" xlink:title=" ">
<polygon fill="none" stroke="black" points="330,-264 330,-294 470,-294 470,-264 330,-264"/>
<text text-anchor="start" x="338" y="-282" font-family="Helvetica,sans-Serif" font-size="10.00">carta::Session::OnFileInfo</text>
<text text-anchor="middle" x="400" y="-271" font-family="Helvetica,sans-Serif" font-size="10.00">Request</text>
</a>
</g>
</g>
<!-- Node4&#45;&gt;Node5 -->
<g id="edge4" class="edge">
<title>Node4&#45;&gt;Node5</title>
<path fill="none" stroke="midnightblue" d="M873.5,-205.95C814.79,-216.19 734.71,-229.88 664,-241 598.26,-251.34 523.1,-262.09 470.01,-269.51"/>
<polygon fill="midnightblue" stroke="midnightblue" points="874.22,-209.37 883.47,-204.2 873.02,-202.48 874.22,-209.37"/>
</g>
<!-- Node4&#45;&gt;Node8 -->
<g id="edge7" class="edge">
<title>Node4&#45;&gt;Node8</title>
<path fill="none" stroke="midnightblue" d="M885.45,-173.6C861.16,-167.78 834.99,-161.5 814.17,-156.51"/>
<polygon fill="midnightblue" stroke="midnightblue" points="884.82,-177.05 895.36,-175.98 886.45,-170.25 884.82,-177.05"/>
</g>
<!-- Node6 -->
<g id="node6" class="node">
<title>Node6</title>
<g id="a_node6"><a xlink:href="classcarta_1_1SessionManager.html#a474c31666cb3b22fcbe8af5f945d2950" target="_top" xlink:title=" ">
<polygon fill="none" stroke="black" points="164,-201 164,-231 292,-231 292,-201 164,-201"/>
<text text-anchor="start" x="172" y="-219" font-family="Helvetica,sans-Serif" font-size="10.00">carta::SessionManager</text>
<text text-anchor="middle" x="228" y="-208" font-family="Helvetica,sans-Serif" font-size="10.00">::OnMessage</text>
</a>
</g>
</g>
<!-- Node5&#45;&gt;Node6 -->
<g id="edge5" class="edge">
<title>Node5&#45;&gt;Node6</title>
<path fill="none" stroke="midnightblue" d="M348.88,-260.43C323.65,-251.07 293.45,-239.89 269.68,-231.08"/>
<polygon fill="midnightblue" stroke="midnightblue" points="347.69,-263.72 358.28,-263.91 350.12,-257.15 347.69,-263.72"/>
</g>
<!-- Node7 -->
<g id="node7" class="node">
<title>Node7</title>
<g id="a_node7"><a xlink:href="classcarta_1_1SessionManager.html#ab4e4e7f0244bd6843e70ab91652debf6" target="_top" xlink:title=" ">
<polygon fill="none" stroke="black" points="0,-201 0,-231 128,-231 128,-201 0,-201"/>
<text text-anchor="start" x="8" y="-219" font-family="Helvetica,sans-Serif" font-size="10.00">carta::SessionManager</text>
<text text-anchor="middle" x="64" y="-208" font-family="Helvetica,sans-Serif" font-size="10.00">::RunApp</text>
</a>
</g>
</g>
<!-- Node6&#45;&gt;Node7 -->
<g id="edge6" class="edge">
<title>Node6&#45;&gt;Node7</title>
<path fill="none" stroke="midnightblue" d="M153.63,-216C145.14,-216 136.53,-216 128.19,-216"/>
<polygon fill="midnightblue" stroke="midnightblue" points="153.9,-219.5 163.9,-216 153.9,-212.5 153.9,-219.5"/>
</g>
<!-- Node8&#45;&gt;Node6 -->
<g id="edge13" class="edge">
<title>Node8&#45;&gt;Node6</title>
<path fill="none" stroke="midnightblue" d="M754.33,-163.18C733.99,-180.11 699.23,-205.65 664,-216 536.29,-253.53 378.24,-239.38 292.16,-226.93"/>
<polygon fill="midnightblue" stroke="midnightblue" points="756.79,-165.67 762.12,-156.51 752.25,-160.35 756.79,-165.67"/>
</g>
<!-- Node9 -->
<g id="node9" class="node">
<title>Node9</title>
<g id="a_node9"><a xlink:href="classcarta_1_1Session.html#aed12d0369de4c3391dba300cb77e9241" target="_top" xlink:title=" ">
<polygon fill="none" stroke="black" points="517,-176 517,-206 655,-206 655,-176 517,-176"/>
<text text-anchor="start" x="525" y="-194" font-family="Helvetica,sans-Serif" font-size="10.00">carta::Session::OnConcat</text>
<text text-anchor="middle" x="586" y="-183" font-family="Helvetica,sans-Serif" font-size="10.00">StokesFiles</text>
</a>
</g>
</g>
<!-- Node8&#45;&gt;Node9 -->
<g id="edge8" class="edge">
<title>Node8&#45;&gt;Node9</title>
<path fill="none" stroke="midnightblue" d="M722.4,-158.88C700.27,-164.13 674,-170.36 650.51,-175.93"/>
<polygon fill="midnightblue" stroke="midnightblue" points="723.33,-162.26 732.25,-156.55 721.71,-155.45 723.33,-162.26"/>
</g>
<!-- Node10 -->
<g id="node10" class="node">
<title>Node10</title>
<g id="a_node10"><a xlink:href="classcarta_1_1Session.html#afe5c090c017ef208f638b96a7eb1ecf0" target="_top" xlink:title=" ">
<polygon fill="none" stroke="black" points="328,-138 328,-168 472,-168 472,-138 328,-138"/>
<text text-anchor="start" x="336" y="-156" font-family="Helvetica,sans-Serif" font-size="10.00">carta::Session::OnResume</text>
<text text-anchor="middle" x="400" y="-145" font-family="Helvetica,sans-Serif" font-size="10.00">Session</text>
</a>
</g>
</g>
<!-- Node8&#45;&gt;Node10 -->
<g id="edge16" class="edge">
<title>Node8&#45;&gt;Node10</title>
<path fill="none" stroke="midnightblue" d="M689.72,-148.34C624.38,-149.39 534.17,-150.85 472.07,-151.85"/>
<polygon fill="midnightblue" stroke="midnightblue" points="690.05,-151.83 699.99,-148.17 689.93,-144.83 690.05,-151.83"/>
</g>
<!-- Node11 -->
<g id="node11" class="node">
<title>Node11</title>
<g id="a_node11"><a xlink:href="classcarta_1_1Session.html#a5589e4dca9e6a51055f15da1d9ac1b3c" target="_top" xlink:title=" ">
<polygon fill="none" stroke="black" points="518.5,-88 518.5,-118 653.5,-118 653.5,-88 518.5,-88"/>
<text text-anchor="start" x="526.5" y="-106" font-family="Helvetica,sans-Serif" font-size="10.00">carta::Session::OnFitting</text>
<text text-anchor="middle" x="586" y="-95" font-family="Helvetica,sans-Serif" font-size="10.00">Request</text>
</a>
</g>
</g>
<!-- Node8&#45;&gt;Node11 -->
<g id="edge12" class="edge">
<title>Node8&#45;&gt;Node11</title>
<path fill="none" stroke="midnightblue" d="M722.4,-135.12C700.27,-129.87 674,-123.64 650.51,-118.07"/>
<polygon fill="midnightblue" stroke="midnightblue" points="721.71,-138.55 732.25,-137.45 723.33,-131.74 721.71,-138.55"/>
</g>
<!-- Node12 -->
<g id="node12" class="node">
<title>Node12</title>
<g id="a_node12"><a xlink:href="classcarta_1_1Session.html#a8fe2527b0a83c67240ef4a31a86e4978" target="_top" xlink:title=" ">
<polygon fill="none" stroke="black" points="513.5,-39 513.5,-69 658.5,-69 658.5,-39 513.5,-39"/>
<text text-anchor="start" x="521.5" y="-57" font-family="Helvetica,sans-Serif" font-size="10.00">carta::Session::OnMoment</text>
<text text-anchor="middle" x="586" y="-46" font-family="Helvetica,sans-Serif" font-size="10.00">Request</text>
</a>
</g>
</g>
<!-- Node8&#45;&gt;Node12 -->
<g id="edge14" class="edge">
<title>Node8&#45;&gt;Node12</title>
<path fill="none" stroke="midnightblue" d="M751.54,-131.29C730.36,-116.01 696.25,-92.96 664,-78 656.89,-74.7 649.2,-71.7 641.53,-69.02"/>
<polygon fill="midnightblue" stroke="midnightblue" points="749.64,-134.24 759.78,-137.32 753.78,-128.59 749.64,-134.24"/>
</g>
<!-- Node13 -->
<g id="node13" class="node">
<title>Node13</title>
<g id="a_node13"><a xlink:href="classcarta_1_1Session.html#a07bfe19708d3e272d01fef6f18712aa2" target="_top" xlink:title=" ">
<polygon fill="none" stroke="black" points="508,-0.5 508,-19.5 664,-19.5 664,-0.5 508,-0.5"/>
<text text-anchor="middle" x="586" y="-7.5" font-family="Helvetica,sans-Serif" font-size="10.00">carta::Session::OnPvRequest</text>
</a>
</g>
</g>
<!-- Node8&#45;&gt;Node13 -->
<g id="edge15" class="edge">
<title>Node8&#45;&gt;Node13</title>
<path fill="none" stroke="midnightblue" d="M760.86,-128.68C743.2,-102.44 707.08,-54.51 664,-29 657.48,-25.14 650.21,-22.06 642.81,-19.61"/>
<polygon fill="midnightblue" stroke="midnightblue" points="758.1,-130.85 766.51,-137.29 763.95,-127.01 758.1,-130.85"/>
</g>
<!-- Node9&#45;&gt;Node6 -->
<g id="edge9" class="edge">
<title>Node9&#45;&gt;Node6</title>
<path fill="none" stroke="midnightblue" d="M506.67,-196.5C442.24,-201.03 352.11,-207.35 292.21,-211.56"/>
<polygon fill="midnightblue" stroke="midnightblue" points="507.05,-199.98 516.78,-195.79 506.56,-193 507.05,-199.98"/>
</g>
<!-- Node9&#45;&gt;Node10 -->
<g id="edge10" class="edge">
<title>Node9&#45;&gt;Node10</title>
<path fill="none" stroke="midnightblue" d="M506.76,-174.84C495.3,-172.47 483.54,-170.05 472.22,-167.71"/>
<polygon fill="midnightblue" stroke="midnightblue" points="506.25,-178.31 516.75,-176.9 507.66,-171.45 506.25,-178.31"/>
</g>
<!-- Node10&#45;&gt;Node6 -->
<g id="edge11" class="edge">
<title>Node10&#45;&gt;Node6</title>
<path fill="none" stroke="midnightblue" d="M348.88,-171.57C323.65,-180.93 293.45,-192.11 269.68,-200.92"/>
<polygon fill="midnightblue" stroke="midnightblue" points="350.12,-174.85 358.28,-168.09 347.69,-168.28 350.12,-174.85"/>
</g>
<!-- Node15 -->
<g id="node15" class="node">
<title>Node15</title>
<g id="a_node15"><a xlink:href="classcarta_1_1StokesFilesConnector.html#a99f6cac79a12711d8e47b4a1c6b4f381" target="_top" xlink:title=" ">
<polygon fill="none" stroke="black" points="883,-88 883,-118 1035,-118 1035,-88 883,-88"/>
<text text-anchor="start" x="891" y="-106" font-family="Helvetica,sans-Serif" font-size="10.00">carta::StokesFilesConnector</text>
<text text-anchor="middle" x="959" y="-95" font-family="Helvetica,sans-Serif" font-size="10.00">::DoConcat</text>
</a>
</g>
</g>
<!-- Node14&#45;&gt;Node15 -->
<g id="edge19" class="edge">
<title>Node14&#45;&gt;Node15</title>
<path fill="none" stroke="midnightblue" d="M1060.85,-103C1052.26,-103 1043.57,-103 1035.1,-103"/>
<polygon fill="midnightblue" stroke="midnightblue" points="1060.88,-106.5 1070.88,-103 1060.88,-99.5 1060.88,-106.5"/>
</g>
</g>
</svg>
