<?xml version="1.0" encoding="UTF-8" standalone="no"?>
<!DOCTYPE svg PUBLIC "-//W3C//DTD SVG 1.1//EN"
 "http://www.w3.org/Graphics/SVG/1.1/DTD/svg11.dtd">
<!-- Generated by graphviz version 2.43.0 (0)
 -->
<!-- Title: carta::Frame::GetSlicerData Pages: 1 -->
<svg width="694pt" height="154pt"
 viewBox="0.00 0.00 694.00 153.50" xmlns="http://www.w3.org/2000/svg" xmlns:xlink="http://www.w3.org/1999/xlink">
<g id="graph0" class="graph" transform="scale(1 1) rotate(0) translate(4 149.5)">
<title>carta::Frame::GetSlicerData</title>
<!-- Node1 -->
<g id="node1" class="node">
<title>Node1</title>
<g id="a_node1"><a xlink:title=" ">
<polygon fill="#bfbfbf" stroke="black" points="0,-57.5 0,-76.5 152,-76.5 152,-57.5 0,-57.5"/>
<text text-anchor="middle" x="76" y="-64.5" font-family="Helvetica,sans-Serif" font-size="10.00">carta::Frame::GetSlicerData</text>
</a>
</g>
</g>
<!-- Node2 -->
<g id="node2" class="node">
<title>Node2</title>
<g id="a_node2"><a xlink:href="classcarta_1_1Frame.html#aeff1a00d7f22df6f180888b1d9eaf457" target="_top" xlink:title=" ">
<polygon fill="none" stroke="black" points="199,-76.5 199,-95.5 344,-95.5 344,-76.5 199,-76.5"/>
<text text-anchor="middle" x="271.5" y="-83.5" font-family="Helvetica,sans-Serif" font-size="10.00">carta::Frame::ImageShape</text>
</a>
</g>
</g>
<!-- Node1&#45;&gt;Node2 -->
<g id="edge1" class="edge">
<title>Node1&#45;&gt;Node2</title>
<path fill="none" stroke="midnightblue" d="M152.09,-74.37C164.12,-75.55 176.63,-76.78 188.81,-77.98"/>
<polygon fill="midnightblue" stroke="midnightblue" points="188.65,-81.48 198.94,-78.97 189.33,-74.51 188.65,-81.48"/>
</g>
<!-- Node6 -->
<g id="node6" class="node">
<title>Node6</title>
<g id="a_node6"><a xlink:href="classcarta_1_1Frame.html#afe9bbcad03f6343aba029f48c4e66dc7" target="_top" xlink:title=" ">
<polygon fill="none" stroke="black" points="188,-38.5 188,-57.5 355,-57.5 355,-38.5 188,-38.5"/>
<text text-anchor="middle" x="271.5" y="-45.5" font-family="Helvetica,sans-Serif" font-size="10.00">carta::Frame::IsCurrentZStokes</text>
</a>
</g>
</g>
<!-- Node1&#45;&gt;Node6 -->
<g id="edge5" class="edge">
<title>Node1&#45;&gt;Node6</title>
<path fill="none" stroke="midnightblue" d="M152.09,-59.63C160.49,-58.8 169.12,-57.95 177.7,-57.11"/>
<polygon fill="midnightblue" stroke="midnightblue" points="178.14,-60.59 187.75,-56.13 177.45,-53.62 178.14,-60.59"/>
</g>
<!-- Node3 -->
<g id="node3" class="node">
<title>Node3</title>
<g id="a_node3"><a xlink:href="structStokesSource.html#a7651d6cbedb427f5c00925c5111feac8" target="_top" xlink:title=" ">
<polygon fill="none" stroke="black" points="400,-115 400,-145 534,-145 534,-115 400,-115"/>
<text text-anchor="start" x="408" y="-133" font-family="Helvetica,sans-Serif" font-size="10.00">StokesSource::IsOriginal</text>
<text text-anchor="middle" x="467" y="-122" font-family="Helvetica,sans-Serif" font-size="10.00">Image</text>
</a>
</g>
</g>
<!-- Node2&#45;&gt;Node3 -->
<g id="edge2" class="edge">
<title>Node2&#45;&gt;Node3</title>
<path fill="none" stroke="midnightblue" d="M314.49,-95.55C336.47,-100.55 364.07,-106.82 389.67,-112.64"/>
<polygon fill="midnightblue" stroke="midnightblue" points="389.22,-116.13 399.75,-114.93 390.77,-109.3 389.22,-116.13"/>
</g>
<!-- Node5 -->
<g id="node5" class="node">
<title>Node5</title>
<g id="a_node5"><a xlink:href="classcarta_1_1Frame.html#a8075c3310541d8a14cdc9dc8fc37b117" target="_top" xlink:title=" ">
<polygon fill="none" stroke="black" points="409,-76.5 409,-95.5 525,-95.5 525,-76.5 409,-76.5"/>
<text text-anchor="middle" x="467" y="-83.5" font-family="Helvetica,sans-Serif" font-size="10.00">carta::Frame::IsValid</text>
</a>
</g>
</g>
<!-- Node2&#45;&gt;Node5 -->
<g id="edge4" class="edge">
<title>Node2&#45;&gt;Node5</title>
<path fill="none" stroke="midnightblue" d="M344,-86C361.91,-86 381.06,-86 398.76,-86"/>
<polygon fill="midnightblue" stroke="midnightblue" points="398.99,-89.5 408.99,-86 398.99,-82.5 398.99,-89.5"/>
</g>
<!-- Node4 -->
<g id="node4" class="node">
<title>Node4</title>
<g id="a_node4"><a xlink:href="Stokes_8h.html#a30da07ffd67ed06c1e15e2da4d915e0c" target="_top" xlink:title=" ">
<polygon fill="none" stroke="black" points="579,-120.5 579,-139.5 686,-139.5 686,-120.5 579,-120.5"/>
<text text-anchor="middle" x="632.5" y="-127.5" font-family="Helvetica,sans-Serif" font-size="10.00">IsComputedStokes</text>
</a>
</g>
</g>
<!-- Node3&#45;&gt;Node4 -->
<g id="edge3" class="edge">
<title>Node3&#45;&gt;Node4</title>
<path fill="none" stroke="midnightblue" d="M534.03,-130C545.43,-130 557.25,-130 568.57,-130"/>
<polygon fill="midnightblue" stroke="midnightblue" points="568.79,-133.5 578.79,-130 568.79,-126.5 568.79,-133.5"/>
</g>
<!-- Node7 -->
<g id="node7" class="node">
<title>Node7</title>
<g id="a_node7"><a xlink:href="classcarta_1_1Frame.html#a30b016834ce04378ba3d0a34f373db3f" target="_top" xlink:title=" ">
<polygon fill="none" stroke="black" points="391,-38.5 391,-57.5 543,-57.5 543,-38.5 391,-38.5"/>
<text text-anchor="middle" x="467" y="-45.5" font-family="Helvetica,sans-Serif" font-size="10.00">carta::Frame::CurrentStokes</text>
</a>
</g>
</g>
<!-- Node6&#45;&gt;Node7 -->
<g id="edge6" class="edge">
<title>Node6&#45;&gt;Node7</title>
<path fill="none" stroke="midnightblue" d="M355.12,-48C363.52,-48 372.06,-48 380.49,-48"/>
<polygon fill="midnightblue" stroke="midnightblue" points="380.7,-51.5 390.7,-48 380.7,-44.5 380.7,-51.5"/>
</g>
<!-- Node8 -->
<g id="node8" class="node">
<title>Node8</title>
<g id="a_node8"><a xlink:href="classcarta_1_1Frame.html#a1eda290558f3e9a6be5d4149c06e1b7b" target="_top" xlink:title=" ">
<polygon fill="none" stroke="black" points="403.5,-0.5 403.5,-19.5 530.5,-19.5 530.5,-0.5 403.5,-0.5"/>
<text text-anchor="middle" x="467" y="-7.5" font-family="Helvetica,sans-Serif" font-size="10.00">carta::Frame::CurrentZ</text>
</a>
</g>
</g>
<!-- Node6&#45;&gt;Node8 -->
<g id="edge7" class="edge">
<title>Node6&#45;&gt;Node8</title>
<path fill="none" stroke="midnightblue" d="M321.33,-38.41C347.55,-33.26 380.06,-26.88 407.62,-21.47"/>
<polygon fill="midnightblue" stroke="midnightblue" points="408.38,-24.88 417.52,-19.52 407.04,-18.01 408.38,-24.88"/>
</g>
</g>
</svg>
