<?xml version="1.0" encoding="UTF-8" standalone="no"?>
<!DOCTYPE svg PUBLIC "-//W3C//DTD SVG 1.1//EN"
 "http://www.w3.org/Graphics/SVG/1.1/DTD/svg11.dtd">
<!-- Generated by graphviz version 2.43.0 (0)
 -->
<!-- Title: carta::CartaFitsImage Pages: 1 -->
<!--zoomable 375 -->
<svg id="main" version="1.1" xmlns="http://www.w3.org/2000/svg" xmlns:xlink="http://www.w3.org/1999/xlink" xml:space="preserve" onload="init(evt)">
<style type="text/css"><![CDATA[
.edge:hover path { stroke: red; }
.edge:hover polygon { stroke: red; fill: red; }
]]></style>
<script type="text/javascript"><![CDATA[
var edges = document.getElementsByTagName('g');
if (edges && edges.length) {
  for (var i=0;i<edges.length;i++) {
    if (edges[i].id.substr(0,4)=='edge') {
      edges[i].setAttribute('class','edge');
    }
  }
}
]]></script>
        <defs>
                <circle id="rim" cx="0" cy="0" r="7"/>
                <circle id="rim2" cx="0" cy="0" r="3.5"/>
                <g id="zoomPlus">
                        <use xlink:href="#rim" fill="#404040">
                                <set attributeName="fill" to="#808080" begin="zoomplus.mouseover" end="zoomplus.mouseout"/>
                        </use>
                        <path d="M-4,0h8M0,-4v8" fill="none" stroke="white" stroke-width="1.5" pointer-events="none"/>
                </g>
                <g id="zoomMin">
                        <use xlink:href="#rim" fill="#404040">
                                <set attributeName="fill" to="#808080" begin="zoomminus.mouseover" end="zoomminus.mouseout"/>
                        </use>
                        <path d="M-4,0h8" fill="none" stroke="white" stroke-width="1.5" pointer-events="none"/>
                </g>
                <g id="dirArrow">
                        <path fill="none" stroke="white" stroke-width="1.5" d="M0,-3.0v7 M-2.5,-0.5L0,-3.0L2.5,-0.5"/>
                </g>
               <g id="resetDef">
                       <use xlink:href="#rim2" fill="#404040">
                               <set attributeName="fill" to="#808080" begin="reset.mouseover" end="reset.mouseout"/>
                       </use>
               </g>
        </defs>

<script type="text/javascript">
var viewWidth = 569;
var viewHeight = 375;
var sectionId = 'dynsection-1';
</script>
<script xlink:href="svgpan.js"/>
<svg id="graph" class="graph">
<g id="viewport">
<title>carta::CartaFitsImage</title>
<!-- Node1 -->
<g id="node1" class="node">
<title>Node1</title>
<g id="a_node1"><a xlink:title=" ">
<polygon fill="#bfbfbf" stroke="black" points="439,-188.42 439,-207.42 561,-207.42 561,-188.42 439,-188.42"/>
<text text-anchor="middle" x="500" y="-195.42" font-family="Helvetica,sans-Serif" font-size="10.00">carta::CartaFitsImage</text>
</a>
</g>
</g>
<!-- Node2 -->
<g id="node2" class="node">
<title>Node2</title>
<g id="a_node2"><a xlink:title=" ">
<polygon fill="none" stroke="#bfbfbf" points="145,-336.92 145,-366.92 285,-366.92 285,-336.92 145,-336.92"/>
<text text-anchor="start" x="153" y="-354.92" font-family="Helvetica,sans-Serif" font-size="10.00">casacore::ImageInterface</text>
<text text-anchor="middle" x="215" y="-343.92" font-family="Helvetica,sans-Serif" font-size="10.00">&lt; float &gt;</text>
</a>
</g>
</g>
<!-- Node2&#45;&gt;Node1 -->
<g id="edge1" class="edge">
<title>Node2&#45;&gt;Node1</title>
<path fill="none" stroke="midnightblue" d="M295.31,-354.55C335.8,-352.36 384.16,-343.97 421,-319.92 463.94,-291.88 487.98,-231.06 495.97,-207.5"/>
<polygon fill="midnightblue" stroke="midnightblue" points="295.04,-351.06 285.19,-354.98 295.33,-358.05 295.04,-351.06"/>
</g>
<!-- Node3 -->
<g id="node3" class="node">
<title>Node3</title>
<g id="a_node3"><a xlink:title=" ">
<polygon fill="none" stroke="#bfbfbf" points="187.5,-298.42 187.5,-317.42 242.5,-317.42 242.5,-298.42 187.5,-298.42"/>
<text text-anchor="middle" x="215" y="-305.42" font-family="Helvetica,sans-Serif" font-size="10.00">fitsfile *</text>
</a>
</g>
</g>
<!-- Node3&#45;&gt;Node1 -->
<g id="edge2" class="edge">
<title>Node3&#45;&gt;Node1</title>
<path fill="none" stroke="#9a32cd" stroke-dasharray="5,2" d="M253.04,-308.61C295.76,-307.95 367.06,-302.27 421,-274.92 453.08,-258.65 480.3,-224.44 492.36,-207.64"/>
<polygon fill="#9a32cd" stroke="#9a32cd" points="252.79,-305.11 242.82,-308.68 252.84,-312.11 252.79,-305.11"/>
<text text-anchor="middle" x="364" y="-307.92" font-family="Helvetica,sans-Serif" font-size="10.00"> _fptr</text>
</g>
<!-- Node4 -->
<g id="node4" class="node">
<title>Node4</title>
<g id="a_node4"><a xlink:title=" ">
<polygon fill="none" stroke="#bfbfbf" points="164.5,-260.42 164.5,-279.42 265.5,-279.42 265.5,-260.42 164.5,-260.42"/>
<text text-anchor="middle" x="215" y="-267.42" font-family="Helvetica,sans-Serif" font-size="10.00">Lattice&lt; bool &gt; *</text>
</a>
</g>
</g>
<!-- Node4&#45;&gt;Node1 -->
<g id="edge3" class="edge">
<title>Node4&#45;&gt;Node1</title>
<path fill="none" stroke="#9a32cd" stroke-dasharray="5,2" d="M275.82,-265.13C317.31,-260.64 373.45,-252.24 421,-236.92 443.77,-229.58 468.14,-216.45 483.47,-207.46"/>
<polygon fill="#9a32cd" stroke="#9a32cd" points="275.45,-261.65 265.86,-266.16 276.17,-268.61 275.45,-261.65"/>
<text text-anchor="middle" x="364" y="-262.92" font-family="Helvetica,sans-Serif" font-size="10.00"> _pixel_mask</text>
</g>
<!-- Node5 -->
<g id="node5" class="node">
<title>Node5</title>
<g id="a_node5"><a xlink:title=" ">
<polygon fill="none" stroke="#bfbfbf" points="185.5,-222.42 185.5,-241.42 244.5,-241.42 244.5,-222.42 185.5,-222.42"/>
<text text-anchor="middle" x="215" y="-229.42" font-family="Helvetica,sans-Serif" font-size="10.00">IPosition</text>
</a>
</g>
</g>
<!-- Node5&#45;&gt;Node1 -->
<g id="edge4" class="edge">
<title>Node5&#45;&gt;Node1</title>
<path fill="none" stroke="#9a32cd" stroke-dasharray="5,2" d="M254.73,-228.29C296,-224.31 363.21,-217.46 421,-209.92 426.84,-209.16 432.92,-208.31 439,-207.43"/>
<polygon fill="#9a32cd" stroke="#9a32cd" points="254.19,-224.83 244.57,-229.27 254.86,-231.8 254.19,-224.83"/>
<text text-anchor="middle" x="364" y="-224.92" font-family="Helvetica,sans-Serif" font-size="10.00"> _shape</text>
</g>
<!-- Node6 -->
<g id="node6" class="node">
<title>Node6</title>
<g id="a_node6"><a xlink:title=" ">
<polygon fill="none" stroke="#bfbfbf" points="179.5,-184.42 179.5,-203.42 250.5,-203.42 250.5,-184.42 179.5,-184.42"/>
<text text-anchor="middle" x="215" y="-191.42" font-family="Helvetica,sans-Serif" font-size="10.00">TiledShape</text>
</a>
</g>
</g>
<!-- Node6&#45;&gt;Node1 -->
<g id="edge5" class="edge">
<title>Node6&#45;&gt;Node1</title>
<path fill="none" stroke="#9a32cd" stroke-dasharray="5,2" d="M260.8,-194.55C308.85,-195.23 385.43,-196.31 438.74,-197.07"/>
<polygon fill="#9a32cd" stroke="#9a32cd" points="260.75,-191.05 250.7,-194.41 260.65,-198.05 260.75,-191.05"/>
<text text-anchor="middle" x="364" y="-198.92" font-family="Helvetica,sans-Serif" font-size="10.00"> _tiled_shape</text>
</g>
<!-- Node7 -->
<g id="node7" class="node">
<title>Node7</title>
<g id="a_node7"><a xlink:title=" ">
<polygon fill="none" stroke="#bfbfbf" points="200.5,-143.42 200.5,-162.42 229.5,-162.42 229.5,-143.42 200.5,-143.42"/>
<text text-anchor="middle" x="215" y="-150.42" font-family="Helvetica,sans-Serif" font-size="10.00">int</text>
</a>
</g>
</g>
<!-- Node7&#45;&gt;Node1 -->
<g id="edge6" class="edge">
<title>Node7&#45;&gt;Node1</title>
<path fill="none" stroke="#9a32cd" stroke-dasharray="5,2" d="M239.83,-152.65C278.37,-152.68 356.59,-154.72 421,-168.92 441.03,-173.33 462.84,-181.77 478.29,-188.42"/>
<polygon fill="#9a32cd" stroke="#9a32cd" points="239.61,-149.15 229.62,-152.69 239.63,-156.15 239.61,-149.15"/>
<text text-anchor="middle" x="364" y="-182.92" font-family="Helvetica,sans-Serif" font-size="10.00"> _datatype</text>
<text text-anchor="middle" x="364" y="-171.92" font-family="Helvetica,sans-Serif" font-size="10.00">_hdu</text>
</g>
<!-- Node8 -->
<g id="node8" class="node">
<title>Node8</title>
<g id="a_node8"><a xlink:title=" ">
<polygon fill="none" stroke="#bfbfbf" points="196,-87.42 196,-106.42 234,-106.42 234,-87.42 196,-87.42"/>
<text text-anchor="middle" x="215" y="-94.42" font-family="Helvetica,sans-Serif" font-size="10.00">bool</text>
</a>
</g>
</g>
<!-- Node8&#45;&gt;Node1 -->
<g id="edge7" class="edge">
<title>Node8&#45;&gt;Node1</title>
<path fill="none" stroke="#9a32cd" stroke-dasharray="5,2" d="M244.21,-93.74C285.32,-90.38 363.09,-88.89 421,-116.92 454.74,-133.25 481.74,-170.65 493.14,-188.32"/>
<polygon fill="#9a32cd" stroke="#9a32cd" points="243.75,-90.27 234.11,-94.67 244.39,-97.24 243.75,-90.27"/>
<text text-anchor="middle" x="364" y="-141.92" font-family="Helvetica,sans-Serif" font-size="10.00"> _has_blanks</text>
<text text-anchor="middle" x="364" y="-130.92" font-family="Helvetica,sans-Serif" font-size="10.00">_is_compressed</text>
<text text-anchor="middle" x="364" y="-119.92" font-family="Helvetica,sans-Serif" font-size="10.00">_is_copy</text>
</g>
<!-- Node9 -->
<g id="node9" class="node">
<title>Node9</title>
<g id="a_node9"><a xlink:title=" ">
<polygon fill="none" stroke="#bfbfbf" points="182.5,-49.42 182.5,-68.42 247.5,-68.42 247.5,-49.42 182.5,-49.42"/>
<text text-anchor="middle" x="215" y="-56.42" font-family="Helvetica,sans-Serif" font-size="10.00">std::string</text>
</a>
</g>
</g>
<!-- Node9&#45;&gt;Node1 -->
<g id="edge8" class="edge">
<title>Node9&#45;&gt;Node1</title>
<path fill="none" stroke="#9a32cd" stroke-dasharray="5,2" d="M257.82,-52.4C301.72,-47.76 371.16,-46.85 421,-76.92 464.66,-103.26 488.27,-164.46 496.06,-188.23"/>
<polygon fill="#9a32cd" stroke="#9a32cd" points="257.3,-48.94 247.77,-53.58 258.11,-55.89 257.3,-48.94"/>
<text text-anchor="middle" x="364" y="-79.92" font-family="Helvetica,sans-Serif" font-size="10.00"> _filename</text>
</g>
<!-- Node10 -->
<g id="node10" class="node">
<title>Node10</title>
<g id="a_node10"><a xlink:title=" ">
<polygon fill="none" stroke="#bfbfbf" points="0,-43.92 0,-73.92 104,-73.92 104,-43.92 0,-43.92"/>
<text text-anchor="start" x="8" y="-61.92" font-family="Helvetica,sans-Serif" font-size="10.00">std::basic_string&lt;</text>
<text text-anchor="middle" x="52" y="-50.92" font-family="Helvetica,sans-Serif" font-size="10.00"> Char &gt;</text>
</a>
</g>
</g>
<!-- Node10&#45;&gt;Node9 -->
<g id="edge9" class="edge">
<title>Node10&#45;&gt;Node9</title>
<path fill="none" stroke="midnightblue" d="M114.48,-58.92C137.6,-58.92 162.95,-58.92 182.27,-58.92"/>
<polygon fill="midnightblue" stroke="midnightblue" points="114.38,-55.42 104.38,-58.92 114.38,-62.42 114.38,-55.42"/>
</g>
<!-- Node11 -->
<g id="node11" class="node">
<title>Node11</title>
<g id="a_node11"><a xlink:title=" ">
<polygon fill="none" stroke="#bfbfbf" points="141,-8.42 141,-27.42 289,-27.42 289,-8.42 141,-8.42"/>
<text text-anchor="middle" x="215" y="-15.42" font-family="Helvetica,sans-Serif" font-size="10.00">Vector&lt; casacore::String &gt;</text>
</a>
</g>
</g>
<!-- Node11&#45;&gt;Node1 -->
<g id="edge10" class="edge">
<title>Node11&#45;&gt;Node1</title>
<path fill="none" stroke="#9a32cd" stroke-dasharray="5,2" d="M262.82,-6.39C307.37,1.76 374.35,6.36 421,-24.92 479.29,-64 494.58,-157.81 498.07,-188.22"/>
<polygon fill="#9a32cd" stroke="#9a32cd" points="261.98,-2.99 252.84,-8.34 263.32,-9.86 261.98,-2.99"/>
<text text-anchor="middle" x="364" y="-38.92" font-family="Helvetica,sans-Serif" font-size="10.00"> _all_header_strings</text>
<text text-anchor="middle" x="364" y="-27.92" font-family="Helvetica,sans-Serif" font-size="10.00">_image_header_strings</text>
</g>
</g>
</svg>
        <g id="navigator" transform="translate(0 0)" fill="#404254">
                <rect fill="#f2f5e9" fill-opacity="0.5" stroke="#606060" stroke-width=".5" x="0" y="0" width="60" height="60"/>
                <use id="zoomplus" xlink:href="#zoomPlus" x="17" y="9" onmousedown="handleZoom(evt,'in')"/>
                <use id="zoomminus" xlink:href="#zoomMin" x="42" y="9" onmousedown="handleZoom(evt,'out')"/>
                <use id="reset" xlink:href="#resetDef" x="30" y="36" onmousedown="handleReset()"/>
                <g id="arrowUp" xlink:href="#dirArrow" transform="translate(30 24)" onmousedown="handlePan(0,-1)">
                  <use xlink:href="#rim" fill="#404040">
                        <set attributeName="fill" to="#808080" begin="arrowUp.mouseover" end="arrowUp.mouseout"/>
                  </use>
                  <path fill="none" stroke="white" stroke-width="1.5" d="M0,-3.0v7 M-2.5,-0.5L0,-3.0L2.5,-0.5"/>
                </g>
                <g id="arrowRight" xlink:href="#dirArrow" transform="rotate(90) translate(36 -43)" onmousedown="handlePan(1,0)">
                  <use xlink:href="#rim" fill="#404040">
                        <set attributeName="fill" to="#808080" begin="arrowRight.mouseover" end="arrowRight.mouseout"/>
                  </use>
                  <path fill="none" stroke="white" stroke-width="1.5" d="M0,-3.0v7 M-2.5,-0.5L0,-3.0L2.5,-0.5"/>
                </g>
                <g id="arrowDown" xlink:href="#dirArrow" transform="rotate(180) translate(-30 -48)" onmousedown="handlePan(0,1)">
                  <use xlink:href="#rim" fill="#404040">
                        <set attributeName="fill" to="#808080" begin="arrowDown.mouseover" end="arrowDown.mouseout"/>
                  </use>
                  <path fill="none" stroke="white" stroke-width="1.5" d="M0,-3.0v7 M-2.5,-0.5L0,-3.0L2.5,-0.5"/>
                </g>
                <g id="arrowLeft" xlink:href="#dirArrow" transform="rotate(270) translate(-36 17)" onmousedown="handlePan(-1,0)">
                  <use xlink:href="#rim" fill="#404040">
                        <set attributeName="fill" to="#808080" begin="arrowLeft.mouseover" end="arrowLeft.mouseout"/>
                  </use>
                  <path fill="none" stroke="white" stroke-width="1.5" d="M0,-3.0v7 M-2.5,-0.5L0,-3.0L2.5,-0.5"/>
                </g>
        </g>
        <svg viewBox="0 0 15 15" width="100%" height="30px" preserveAspectRatio="xMaxYMin meet">
         <g id="arrow_out" transform="scale(0.3 0.3)">
          <a xlink:href="classcarta_1_1CartaFitsImage__coll__graph_org.svg" target="_base">
           <rect id="button" ry="5" rx="5" y="6" x="6" height="38" width="38"
                fill="#f2f5e9" fill-opacity="0.5" stroke="#606060" stroke-width="1.0"/>
           <path id="arrow"
             d="M 11.500037,31.436501 C 11.940474,20.09759 22.043105,11.32322 32.158766,21.979434 L 37.068811,17.246167 C 37.068811,17.246167 37.088388,32 37.088388,32 L 22.160133,31.978069 C 22.160133,31.978069 26.997745,27.140456 26.997745,27.140456 C 18.528582,18.264221 13.291696,25.230495 11.500037,31.436501 z"
             style="fill:#404040;"/>
          </a>
         </g>
        </svg>
</svg>
