<?xml version="1.0" encoding="UTF-8" standalone="no"?>
<!DOCTYPE svg PUBLIC "-//W3C//DTD SVG 1.1//EN"
 "http://www.w3.org/Graphics/SVG/1.1/DTD/svg11.dtd">
<!-- Generated by graphviz version 2.43.0 (0)
 -->
<!-- Title: carta::BasicStatsCalculator&lt; T &gt; Pages: 1 -->
<svg width="252pt" height="117pt"
 viewBox="0.00 0.00 252.00 117.00" xmlns="http://www.w3.org/2000/svg" xmlns:xlink="http://www.w3.org/1999/xlink">
<g id="graph0" class="graph" transform="scale(1 1) rotate(0) translate(4 113)">
<title>carta::BasicStatsCalculator&lt; T &gt;</title>
<!-- Node1 -->
<g id="node1" class="node">
<title>Node1</title>
<g id="a_node1"><a xlink:title=" ">
<polygon fill="#bfbfbf" stroke="black" points="30,-0.5 30,-19.5 206,-19.5 206,-0.5 30,-0.5"/>
<text text-anchor="middle" x="118" y="-7.5" font-family="Helvetica,sans-Serif" font-size="10.00">carta::BasicStatsCalculator&lt; T &gt;</text>
</a>
</g>
</g>
<!-- Node2 -->
<g id="node2" class="node">
<title>Node2</title>
<g id="a_node2"><a xlink:title=" ">
<polygon fill="none" stroke="#bfbfbf" points="0,-89.5 0,-108.5 50,-108.5 50,-89.5 0,-89.5"/>
<text text-anchor="middle" x="25" y="-96.5" font-family="Helvetica,sans-Serif" font-size="10.00">double</text>
</a>
</g>
</g>
<!-- Node2&#45;&gt;Node1 -->
<g id="edge1" class="edge">
<title>Node2&#45;&gt;Node1</title>
<path fill="none" stroke="#9a32cd" stroke-dasharray="5,2" d="M26.62,-79.23C28.68,-66.14 33.36,-49.11 44,-38 52.23,-29.41 63.41,-23.54 74.59,-19.53"/>
<polygon fill="#9a32cd" stroke="#9a32cd" points="23.11,-79.11 25.4,-89.46 30.06,-79.94 23.11,-79.11"/>
<text text-anchor="middle" x="79" y="-57.5" font-family="Helvetica,sans-Serif" font-size="10.00"> _sum</text>
<text text-anchor="middle" x="79" y="-46.5" font-family="Helvetica,sans-Serif" font-size="10.00">_sum_squares</text>
</g>
<!-- Node3 -->
<g id="node3" class="node">
<title>Node3</title>
<g id="a_node3"><a xlink:title=" ">
<polygon fill="none" stroke="#bfbfbf" points="95.5,-89.5 95.5,-108.5 140.5,-108.5 140.5,-89.5 95.5,-89.5"/>
<text text-anchor="middle" x="118" y="-96.5" font-family="Helvetica,sans-Serif" font-size="10.00">size_t</text>
</a>
</g>
</g>
<!-- Node3&#45;&gt;Node1 -->
<g id="edge2" class="edge">
<title>Node3&#45;&gt;Node1</title>
<path fill="none" stroke="#9a32cd" stroke-dasharray="5,2" d="M118,-79.19C118,-60.74 118,-33.41 118,-19.62"/>
<polygon fill="#9a32cd" stroke="#9a32cd" points="114.5,-79.34 118,-89.34 121.5,-79.34 114.5,-79.34"/>
<text text-anchor="middle" x="148.5" y="-57.5" font-family="Helvetica,sans-Serif" font-size="10.00"> _data_size</text>
<text text-anchor="middle" x="148.5" y="-46.5" font-family="Helvetica,sans-Serif" font-size="10.00">_num_pixels</text>
</g>
<!-- Node4 -->
<g id="node4" class="node">
<title>Node4</title>
<g id="a_node4"><a xlink:title=" ">
<polygon fill="none" stroke="#bfbfbf" points="187.5,-89.5 187.5,-108.5 216.5,-108.5 216.5,-89.5 187.5,-89.5"/>
<text text-anchor="middle" x="202" y="-96.5" font-family="Helvetica,sans-Serif" font-size="10.00">T</text>
</a>
</g>
</g>
<!-- Node4&#45;&gt;Node1 -->
<g id="edge3" class="edge">
<title>Node4&#45;&gt;Node1</title>
<path fill="none" stroke="#9a32cd" stroke-dasharray="5,2" d="M199.06,-78.95C196.17,-66 190.59,-49.24 180,-38 172.11,-29.63 161.17,-23.71 150.68,-19.59"/>
<polygon fill="#9a32cd" stroke="#9a32cd" points="195.68,-79.93 200.96,-89.12 202.56,-78.65 195.68,-79.93"/>
<text text-anchor="middle" x="220" y="-63" font-family="Helvetica,sans-Serif" font-size="10.00"> _data</text>
<text text-anchor="middle" x="220" y="-52" font-family="Helvetica,sans-Serif" font-size="10.00">_max_val</text>
<text text-anchor="middle" x="220" y="-41" font-family="Helvetica,sans-Serif" font-size="10.00">_min_val</text>
</g>
</g>
</svg>
