<?xml version="1.0" encoding="UTF-8" standalone="no"?>
<!DOCTYPE svg PUBLIC "-//W3C//DTD SVG 1.1//EN"
 "http://www.w3.org/Graphics/SVG/1.1/DTD/svg11.dtd">
<!-- Generated by graphviz version 2.43.0 (0)
 -->
<!-- Title: carta::VectorField::CalculatePiPa Pages: 1 -->
<svg width="518pt" height="91pt"
 viewBox="0.00 0.00 518.00 91.00" xmlns="http://www.w3.org/2000/svg" xmlns:xlink="http://www.w3.org/1999/xlink">
<g id="graph0" class="graph" transform="scale(1 1) rotate(0) translate(4 87)">
<title>carta::VectorField::CalculatePiPa</title>
<!-- Node1 -->
<g id="node1" class="node">
<title>Node1</title>
<g id="a_node1"><a xlink:title=" ">
<polygon fill="#bfbfbf" stroke="black" points="0,-17 0,-47 101,-47 101,-17 0,-17"/>
<text text-anchor="start" x="8" y="-35" font-family="Helvetica,sans-Serif" font-size="10.00">carta::VectorField</text>
<text text-anchor="middle" x="50.5" y="-24" font-family="Helvetica,sans-Serif" font-size="10.00">::CalculatePiPa</text>
</a>
</g>
</g>
<!-- Node2 -->
<g id="node2" class="node">
<title>Node2</title>
<g id="a_node2"><a xlink:href="classcarta_1_1VectorField.html#af0437cf723f6770bc15bed7cfc224649" target="_top" xlink:title=" ">
<polygon fill="none" stroke="black" points="174.5,-39 174.5,-69 275.5,-69 275.5,-39 174.5,-39"/>
<text text-anchor="start" x="182.5" y="-57" font-family="Helvetica,sans-Serif" font-size="10.00">carta::VectorField</text>
<text text-anchor="middle" x="225" y="-46" font-family="Helvetica,sans-Serif" font-size="10.00">::FillTileData</text>
</a>
</g>
</g>
<!-- Node1&#45;&gt;Node2 -->
<g id="edge1" class="edge">
<title>Node1&#45;&gt;Node2</title>
<path fill="none" stroke="midnightblue" d="M101.39,-38.36C120.97,-40.86 143.61,-43.75 164.06,-46.36"/>
<polygon fill="midnightblue" stroke="midnightblue" points="163.86,-49.86 174.22,-47.65 164.74,-42.91 163.86,-49.86"/>
</g>
<!-- Node5 -->
<g id="node5" class="node">
<title>Node5</title>
<g id="a_node5"><a xlink:href="classMessage.html#ae2014883b61e59f5a8af13ab6109a659" target="_top" xlink:title=" ">
<polygon fill="none" stroke="black" points="137,-0.5 137,-19.5 313,-19.5 313,-0.5 137,-0.5"/>
<text text-anchor="middle" x="225" y="-7.5" font-family="Helvetica,sans-Serif" font-size="10.00">Message::VectorOverlayTileData</text>
</a>
</g>
</g>
<!-- Node1&#45;&gt;Node5 -->
<g id="edge4" class="edge">
<title>Node1&#45;&gt;Node5</title>
<path fill="none" stroke="midnightblue" d="M101.39,-25.64C113.37,-24.11 126.48,-22.44 139.55,-20.77"/>
<polygon fill="midnightblue" stroke="midnightblue" points="140.03,-24.24 149.5,-19.5 139.14,-17.29 140.03,-24.24"/>
</g>
<!-- Node3 -->
<g id="node3" class="node">
<title>Node3</title>
<g id="a_node3"><a xlink:href="namespacecarta.html#a10f0d86089ef00182ca768e7971e1657" target="_top" xlink:title=" ">
<polygon fill="none" stroke="black" points="381.5,-63.5 381.5,-82.5 477.5,-82.5 477.5,-63.5 381.5,-63.5"/>
<text text-anchor="middle" x="429.5" y="-70.5" font-family="Helvetica,sans-Serif" font-size="10.00">carta::Compress</text>
</a>
</g>
</g>
<!-- Node2&#45;&gt;Node3 -->
<g id="edge2" class="edge">
<title>Node2&#45;&gt;Node3</title>
<path fill="none" stroke="midnightblue" d="M275.54,-58.65C304.47,-61.36 341.09,-64.8 371.26,-67.63"/>
<polygon fill="midnightblue" stroke="midnightblue" points="370.93,-71.11 381.22,-68.56 371.59,-64.14 370.93,-71.11"/>
</g>
<!-- Node4 -->
<g id="node4" class="node">
<title>Node4</title>
<g id="a_node4"><a xlink:href="namespacecarta.html#a6f90f0f5fadc7ab7bfad3fdc20058cef" target="_top" xlink:title=" ">
<polygon fill="none" stroke="black" points="349,-25.5 349,-44.5 510,-44.5 510,-25.5 349,-25.5"/>
<text text-anchor="middle" x="429.5" y="-32.5" font-family="Helvetica,sans-Serif" font-size="10.00">carta::GetNanEncodingsBlock</text>
</a>
</g>
</g>
<!-- Node2&#45;&gt;Node4 -->
<g id="edge3" class="edge">
<title>Node2&#45;&gt;Node4</title>
<path fill="none" stroke="midnightblue" d="M275.54,-49.35C294.54,-47.57 316.87,-45.47 338.5,-43.44"/>
<polygon fill="midnightblue" stroke="midnightblue" points="339.08,-46.91 348.71,-42.49 338.42,-39.94 339.08,-46.91"/>
</g>
</g>
</svg>
