<?xml version="1.0" encoding="UTF-8" standalone="no"?>
<!DOCTYPE svg PUBLIC "-//W3C//DTD SVG 1.1//EN"
 "http://www.w3.org/Graphics/SVG/1.1/DTD/svg11.dtd">
<!-- Generated by graphviz version 2.43.0 (0)
 -->
<!-- Title: carta::RegionHandler::FitImage Pages: 1 -->
<svg width="892pt" height="568pt"
 viewBox="0.00 0.00 892.00 568.48" xmlns="http://www.w3.org/2000/svg" xmlns:xlink="http://www.w3.org/1999/xlink">
<g id="graph0" class="graph" transform="scale(1 1) rotate(0) translate(4 564.48)">
<title>carta::RegionHandler::FitImage</title>
<!-- Node1 -->
<g id="node1" class="node">
<title>Node1</title>
<g id="a_node1"><a xlink:title=" ">
<polygon fill="#bfbfbf" stroke="black" points="0,-311.5 0,-341.5 119,-341.5 119,-311.5 0,-311.5"/>
<text text-anchor="start" x="8" y="-329.5" font-family="Helvetica,sans-Serif" font-size="10.00">carta::RegionHandler</text>
<text text-anchor="middle" x="59.5" y="-318.5" font-family="Helvetica,sans-Serif" font-size="10.00">::FitImage</text>
</a>
</g>
</g>
<!-- Node2 -->
<g id="node2" class="node">
<title>Node2</title>
<g id="a_node2"><a xlink:href="classcarta_1_1RegionHandler.html#a5c734366cb3b4b307c54a66251dd270c" target="_top" xlink:title=" ">
<polygon fill="none" stroke="black" points="155,-359.5 155,-389.5 274,-389.5 274,-359.5 155,-359.5"/>
<text text-anchor="start" x="163" y="-377.5" font-family="Helvetica,sans-Serif" font-size="10.00">carta::RegionHandler</text>
<text text-anchor="middle" x="214.5" y="-366.5" font-family="Helvetica,sans-Serif" font-size="10.00">::ApplyRegionToFile</text>
</a>
</g>
</g>
<!-- Node1&#45;&gt;Node2 -->
<g id="edge1" class="edge">
<title>Node1&#45;&gt;Node2</title>
<path fill="none" stroke="midnightblue" d="M108.49,-341.56C123.59,-346.29 140.41,-351.57 156.09,-356.49"/>
<polygon fill="midnightblue" stroke="midnightblue" points="155.09,-359.84 165.68,-359.5 157.19,-353.16 155.09,-359.84"/>
</g>
<!-- Node5 -->
<g id="node5" class="node">
<title>Node5</title>
<g id="a_node5"><a xlink:href="classcarta_1_1RegionHandler.html#a9e8b41c9fe29c95b66a44f78490bbcae" target="_top" xlink:title=" ">
<polygon fill="none" stroke="black" points="765,-362.5 765,-392.5 884,-392.5 884,-362.5 765,-362.5"/>
<text text-anchor="start" x="773" y="-380.5" font-family="Helvetica,sans-Serif" font-size="10.00">carta::RegionHandler</text>
<text text-anchor="middle" x="824.5" y="-369.5" font-family="Helvetica,sans-Serif" font-size="10.00">::RegionSet</text>
</a>
</g>
</g>
<!-- Node1&#45;&gt;Node5 -->
<g id="edge12" class="edge">
<title>Node1&#45;&gt;Node5</title>
<path fill="none" stroke="midnightblue" d="M76.67,-341.71C114.14,-375.85 211.25,-458.08 310,-490.5 487.22,-548.68 563.85,-601.21 729,-514.5 774.01,-490.87 801.79,-435 814.76,-402.37"/>
<polygon fill="midnightblue" stroke="midnightblue" points="818.17,-403.26 818.46,-392.67 811.63,-400.77 818.17,-403.26"/>
</g>
<!-- Node9 -->
<g id="node9" class="node">
<title>Node9</title>
<g id="a_node9"><a xlink:href="classcarta_1_1RegionHandler.html#a2928967315eebcaef940d868586e5d85" target="_top" xlink:title=" ">
<polygon fill="none" stroke="black" points="155,-44.5 155,-74.5 274,-74.5 274,-44.5 155,-44.5"/>
<text text-anchor="start" x="163" y="-62.5" font-family="Helvetica,sans-Serif" font-size="10.00">carta::RegionHandler</text>
<text text-anchor="middle" x="214.5" y="-51.5" font-family="Helvetica,sans-Serif" font-size="10.00">::RemoveRegion</text>
</a>
</g>
</g>
<!-- Node1&#45;&gt;Node9 -->
<g id="edge13" class="edge">
<title>Node1&#45;&gt;Node9</title>
<path fill="none" stroke="midnightblue" d="M69.16,-311.38C94.51,-267.15 168.67,-137.74 199.65,-83.67"/>
<polygon fill="midnightblue" stroke="midnightblue" points="202.81,-85.2 204.74,-74.79 196.73,-81.72 202.81,-85.2"/>
</g>
<!-- Node11 -->
<g id="node11" class="node">
<title>Node11</title>
<g id="a_node11"><a xlink:href="classcarta_1_1RegionHandler.html#a16e2a6c2b25be9784d31a71c14bf6c31" target="_top" xlink:title=" ">
<polygon fill="none" stroke="black" points="348,-225.5 348,-255.5 467,-255.5 467,-225.5 348,-225.5"/>
<text text-anchor="start" x="356" y="-243.5" font-family="Helvetica,sans-Serif" font-size="10.00">carta::RegionHandler</text>
<text text-anchor="middle" x="407.5" y="-232.5" font-family="Helvetica,sans-Serif" font-size="10.00">::SetRegion</text>
</a>
</g>
</g>
<!-- Node1&#45;&gt;Node11 -->
<g id="edge16" class="edge">
<title>Node1&#45;&gt;Node11</title>
<path fill="none" stroke="midnightblue" d="M119.19,-311.91C179.68,-296.88 273.91,-273.46 337.82,-257.57"/>
<polygon fill="midnightblue" stroke="midnightblue" points="338.95,-260.9 347.81,-255.09 337.26,-254.1 338.95,-260.9"/>
</g>
<!-- Node3 -->
<g id="node3" class="node">
<title>Node3</title>
<g id="a_node3"><a xlink:href="classcarta_1_1RegionHandler.html#ab9501617a3845ac3fa32b6b88c5269eb" target="_top" xlink:title=" ">
<polygon fill="none" stroke="black" points="348,-384.5 348,-414.5 467,-414.5 467,-384.5 348,-384.5"/>
<text text-anchor="start" x="356" y="-402.5" font-family="Helvetica,sans-Serif" font-size="10.00">carta::RegionHandler</text>
<text text-anchor="middle" x="407.5" y="-391.5" font-family="Helvetica,sans-Serif" font-size="10.00">::IsClosedRegion</text>
</a>
</g>
</g>
<!-- Node2&#45;&gt;Node3 -->
<g id="edge2" class="edge">
<title>Node2&#45;&gt;Node3</title>
<path fill="none" stroke="midnightblue" d="M274.1,-382.17C294.18,-384.8 316.82,-387.76 337.63,-390.49"/>
<polygon fill="midnightblue" stroke="midnightblue" points="337.31,-393.97 347.68,-391.8 338.22,-387.03 337.31,-393.97"/>
</g>
<!-- Node6 -->
<g id="node6" class="node">
<title>Node6</title>
<g id="a_node6"><a xlink:href="classcarta_1_1RegionHandler.html#a94d939104654243dec3750ada83b370e" target="_top" xlink:title=" ">
<polygon fill="none" stroke="black" points="348,-335.5 348,-365.5 467,-365.5 467,-335.5 348,-335.5"/>
<text text-anchor="start" x="356" y="-353.5" font-family="Helvetica,sans-Serif" font-size="10.00">carta::RegionHandler</text>
<text text-anchor="middle" x="407.5" y="-342.5" font-family="Helvetica,sans-Serif" font-size="10.00">::IsPointRegion</text>
</a>
</g>
</g>
<!-- Node2&#45;&gt;Node6 -->
<g id="edge6" class="edge">
<title>Node2&#45;&gt;Node6</title>
<path fill="none" stroke="midnightblue" d="M274.1,-367.14C294.18,-364.61 316.82,-361.77 337.63,-359.15"/>
<polygon fill="midnightblue" stroke="midnightblue" points="338.19,-362.61 347.68,-357.89 337.32,-355.67 338.19,-362.61"/>
</g>
<!-- Node7 -->
<g id="node7" class="node">
<title>Node7</title>
<g id="a_node7"><a xlink:href="classcarta_1_1RegionHandler.html#a8c787facbcb265d7fa434e05324f2c9e" target="_top" xlink:title=" ">
<polygon fill="none" stroke="black" points="348,-450.5 348,-480.5 467,-480.5 467,-450.5 348,-450.5"/>
<text text-anchor="start" x="356" y="-468.5" font-family="Helvetica,sans-Serif" font-size="10.00">carta::RegionHandler</text>
<text text-anchor="middle" x="407.5" y="-457.5" font-family="Helvetica,sans-Serif" font-size="10.00">::RegionFileIdsValid</text>
</a>
</g>
</g>
<!-- Node2&#45;&gt;Node7 -->
<g id="edge9" class="edge">
<title>Node2&#45;&gt;Node7</title>
<path fill="none" stroke="midnightblue" d="M242.48,-389.56C261.22,-399.82 286.87,-413.49 310,-424.5 325.93,-432.08 343.62,-439.79 359.46,-446.46"/>
<polygon fill="midnightblue" stroke="midnightblue" points="358.48,-449.84 369.05,-450.46 361.17,-443.38 358.48,-449.84"/>
</g>
<!-- Node4 -->
<g id="node4" class="node">
<title>Node4</title>
<g id="a_node4"><a xlink:href="classcarta_1_1RegionHandler.html#a4d3eaa8da979a4b0640aa3b598a9415b" target="_top" xlink:title=" ">
<polygon fill="none" stroke="black" points="575.5,-362.5 575.5,-392.5 694.5,-392.5 694.5,-362.5 575.5,-362.5"/>
<text text-anchor="start" x="583.5" y="-380.5" font-family="Helvetica,sans-Serif" font-size="10.00">carta::RegionHandler</text>
<text text-anchor="middle" x="635" y="-369.5" font-family="Helvetica,sans-Serif" font-size="10.00">::GetRegion</text>
</a>
</g>
</g>
<!-- Node3&#45;&gt;Node4 -->
<g id="edge3" class="edge">
<title>Node3&#45;&gt;Node4</title>
<path fill="none" stroke="midnightblue" d="M467.16,-393.78C497.19,-390.85 533.92,-387.26 565.27,-384.21"/>
<polygon fill="midnightblue" stroke="midnightblue" points="565.63,-387.69 575.24,-383.23 564.95,-380.72 565.63,-387.69"/>
</g>
<!-- Node3&#45;&gt;Node5 -->
<g id="edge5" class="edge">
<title>Node3&#45;&gt;Node5</title>
<path fill="none" stroke="midnightblue" d="M467.28,-404.9C531.78,-409.7 638.23,-414.3 729,-402.5 741.35,-400.89 754.38,-398.15 766.7,-395.06"/>
<polygon fill="midnightblue" stroke="midnightblue" points="767.6,-398.44 776.39,-392.52 765.83,-391.67 767.6,-398.44"/>
</g>
<!-- Node4&#45;&gt;Node5 -->
<g id="edge4" class="edge">
<title>Node4&#45;&gt;Node5</title>
<path fill="none" stroke="midnightblue" d="M694.55,-377.5C713.59,-377.5 734.88,-377.5 754.6,-377.5"/>
<polygon fill="midnightblue" stroke="midnightblue" points="754.74,-381 764.74,-377.5 754.74,-374 754.74,-381"/>
</g>
<!-- Node6&#45;&gt;Node4 -->
<g id="edge7" class="edge">
<title>Node6&#45;&gt;Node4</title>
<path fill="none" stroke="midnightblue" d="M467.16,-357.52C497.19,-361.12 533.92,-365.52 565.27,-369.27"/>
<polygon fill="midnightblue" stroke="midnightblue" points="564.9,-372.75 575.24,-370.46 565.73,-365.8 564.9,-372.75"/>
</g>
<!-- Node6&#45;&gt;Node5 -->
<g id="edge8" class="edge">
<title>Node6&#45;&gt;Node5</title>
<path fill="none" stroke="midnightblue" d="M467.27,-346.86C531.77,-343.84 638.23,-341.72 729,-353.5 740.3,-354.97 752.18,-357.32 763.57,-359.99"/>
<polygon fill="midnightblue" stroke="midnightblue" points="762.87,-363.42 773.42,-362.41 764.54,-356.63 762.87,-363.42"/>
</g>
<!-- Node7&#45;&gt;Node5 -->
<g id="edge11" class="edge">
<title>Node7&#45;&gt;Node5</title>
<path fill="none" stroke="midnightblue" d="M447.96,-480.55C510.76,-501.95 635.84,-534.04 729,-490.5 767.96,-472.29 796.52,-429.24 811.52,-401.85"/>
<polygon fill="midnightblue" stroke="midnightblue" points="814.68,-403.35 816.26,-392.87 808.49,-400.08 814.68,-403.35"/>
</g>
<!-- Node8 -->
<g id="node8" class="node">
<title>Node8</title>
<g id="a_node8"><a xlink:href="classcarta_1_1RegionHandler.html#a16e8f0e73ba63be909517151bf11a450" target="_top" xlink:title=" ">
<polygon fill="none" stroke="black" points="575.5,-450.5 575.5,-480.5 694.5,-480.5 694.5,-450.5 575.5,-450.5"/>
<text text-anchor="start" x="583.5" y="-468.5" font-family="Helvetica,sans-Serif" font-size="10.00">carta::RegionHandler</text>
<text text-anchor="middle" x="635" y="-457.5" font-family="Helvetica,sans-Serif" font-size="10.00">::FrameSet</text>
</a>
</g>
</g>
<!-- Node7&#45;&gt;Node8 -->
<g id="edge10" class="edge">
<title>Node7&#45;&gt;Node8</title>
<path fill="none" stroke="midnightblue" d="M467.16,-465.5C497.06,-465.5 533.6,-465.5 564.86,-465.5"/>
<polygon fill="midnightblue" stroke="midnightblue" points="565.24,-469 575.24,-465.5 565.24,-462 565.24,-469"/>
</g>
<!-- Node9&#45;&gt;Node5 -->
<g id="edge14" class="edge">
<title>Node9&#45;&gt;Node5</title>
<path fill="none" stroke="midnightblue" d="M274.07,-53.54C393.37,-42.67 659.18,-25.33 729,-78.5 816.48,-145.12 824.75,-292.75 824.34,-352.08"/>
<polygon fill="midnightblue" stroke="midnightblue" points="820.83,-352.35 824.17,-362.41 827.83,-352.46 820.83,-352.35"/>
</g>
<!-- Node10 -->
<g id="node10" class="node">
<title>Node10</title>
<g id="a_node10"><a xlink:href="classcarta_1_1RegionHandler.html#a772046cac78b7c01f5562e68a07c7447" target="_top" xlink:title=" ">
<polygon fill="none" stroke="black" points="310,-0.5 310,-30.5 505,-30.5 505,-0.5 310,-0.5"/>
<text text-anchor="start" x="318" y="-18.5" font-family="Helvetica,sans-Serif" font-size="10.00">carta::RegionHandler</text>
<text text-anchor="middle" x="407.5" y="-7.5" font-family="Helvetica,sans-Serif" font-size="10.00">::RemoveRegionRequirementsCache</text>
</a>
</g>
</g>
<!-- Node9&#45;&gt;Node10 -->
<g id="edge15" class="edge">
<title>Node9&#45;&gt;Node10</title>
<path fill="none" stroke="midnightblue" d="M274.1,-46C292.22,-41.83 312.43,-37.17 331.49,-32.78"/>
<polygon fill="midnightblue" stroke="midnightblue" points="332.38,-36.17 341.34,-30.51 330.81,-29.34 332.38,-36.17"/>
</g>
<!-- Node11&#45;&gt;Node4 -->
<g id="edge20" class="edge">
<title>Node11&#45;&gt;Node4</title>
<path fill="none" stroke="midnightblue" d="M433.49,-255.68C474.24,-280.44 554.99,-329.5 600.61,-357.21"/>
<polygon fill="midnightblue" stroke="midnightblue" points="598.87,-360.25 609.24,-362.46 602.51,-354.27 598.87,-360.25"/>
</g>
<!-- Node11&#45;&gt;Node5 -->
<g id="edge21" class="edge">
<title>Node11&#45;&gt;Node5</title>
<path fill="none" stroke="midnightblue" d="M444.07,-225.46C506.43,-201.63 637.53,-162.96 729,-215.5 780.62,-245.15 806.7,-315.06 817.4,-352.62"/>
<polygon fill="midnightblue" stroke="midnightblue" points="814.03,-353.55 820.02,-362.29 820.79,-351.72 814.03,-353.55"/>
</g>
<!-- Node12 -->
<g id="node12" class="node">
<title>Node12</title>
<g id="a_node12"><a xlink:href="classcarta_1_1RegionHandler.html#a46657f081da273353708ae70ffaed031" target="_top" xlink:title=" ">
<polygon fill="none" stroke="black" points="575.5,-137.5 575.5,-167.5 694.5,-167.5 694.5,-137.5 575.5,-137.5"/>
<text text-anchor="start" x="583.5" y="-155.5" font-family="Helvetica,sans-Serif" font-size="10.00">carta::RegionHandler</text>
<text text-anchor="middle" x="635" y="-144.5" font-family="Helvetica,sans-Serif" font-size="10.00">::ClearRegionCache</text>
</a>
</g>
</g>
<!-- Node11&#45;&gt;Node12 -->
<g id="edge17" class="edge">
<title>Node11&#45;&gt;Node12</title>
<path fill="none" stroke="midnightblue" d="M440.52,-225.4C467.13,-213.12 506.13,-195.72 541,-182.5 551.67,-178.45 563.16,-174.46 574.3,-170.78"/>
<polygon fill="midnightblue" stroke="midnightblue" points="575.55,-174.05 583.97,-167.62 573.37,-167.4 575.55,-174.05"/>
</g>
<!-- Node13 -->
<g id="node13" class="node">
<title>Node13</title>
<g id="a_node13"><a xlink:href="classcarta_1_1RegionHandler.html#a43a9a50fcbb0fb348cd8a10cd52922e8" target="_top" xlink:title=" ">
<polygon fill="none" stroke="black" points="575.5,-88.5 575.5,-118.5 694.5,-118.5 694.5,-88.5 575.5,-88.5"/>
<text text-anchor="start" x="583.5" y="-106.5" font-family="Helvetica,sans-Serif" font-size="10.00">carta::RegionHandler</text>
<text text-anchor="middle" x="635" y="-95.5" font-family="Helvetica,sans-Serif" font-size="10.00">::GetNextRegionId</text>
</a>
</g>
</g>
<!-- Node11&#45;&gt;Node13 -->
<g id="edge18" class="edge">
<title>Node11&#45;&gt;Node13</title>
<path fill="none" stroke="midnightblue" d="M421.97,-225.2C444.28,-200.82 491.37,-153.3 541,-127.5 548.74,-123.48 557.2,-120.1 565.76,-117.26"/>
<polygon fill="midnightblue" stroke="midnightblue" points="566.91,-120.57 575.44,-114.29 564.85,-113.88 566.91,-120.57"/>
</g>
<!-- Node14 -->
<g id="node14" class="node">
<title>Node14</title>
<g id="a_node14"><a xlink:href="classcarta_1_1RegionHandler.html#a0aca77af88b2550b5b6f2a6e2d94e101" target="_top" xlink:title=" ">
<polygon fill="none" stroke="black" points="556,-274.5 556,-304.5 714,-304.5 714,-274.5 556,-274.5"/>
<text text-anchor="start" x="564" y="-292.5" font-family="Helvetica,sans-Serif" font-size="10.00">carta::RegionHandler</text>
<text text-anchor="middle" x="635" y="-281.5" font-family="Helvetica,sans-Serif" font-size="10.00">::GetNextTemporaryRegionId</text>
</a>
</g>
</g>
<!-- Node11&#45;&gt;Node14 -->
<g id="edge19" class="edge">
<title>Node11&#45;&gt;Node14</title>
<path fill="none" stroke="midnightblue" d="M467.16,-253.25C493.89,-259.06 525.94,-266.02 554.77,-272.28"/>
<polygon fill="midnightblue" stroke="midnightblue" points="554.31,-275.76 564.82,-274.47 555.79,-268.92 554.31,-275.76"/>
</g>
<!-- Node15 -->
<g id="node15" class="node">
<title>Node15</title>
<g id="a_node15"><a xlink:href="classcarta_1_1RegionHandler.html#a0eb05bb05f83089ec6767553981760a9" target="_top" xlink:title=" ">
<polygon fill="none" stroke="black" points="541,-225.5 541,-255.5 729,-255.5 729,-225.5 541,-225.5"/>
<text text-anchor="start" x="549" y="-243.5" font-family="Helvetica,sans-Serif" font-size="10.00">carta::RegionHandler</text>
<text text-anchor="middle" x="635" y="-232.5" font-family="Helvetica,sans-Serif" font-size="10.00">::UpdateNewSpectralRequirements</text>
</a>
</g>
</g>
<!-- Node11&#45;&gt;Node15 -->
<g id="edge22" class="edge">
<title>Node11&#45;&gt;Node15</title>
<path fill="none" stroke="midnightblue" d="M467.16,-240.5C486.54,-240.5 508.71,-240.5 530.42,-240.5"/>
<polygon fill="midnightblue" stroke="midnightblue" points="530.69,-244 540.69,-240.5 530.69,-237 530.69,-244"/>
</g>
</g>
</svg>
