<?xml version="1.0" encoding="UTF-8" standalone="no"?>
<!DOCTYPE svg PUBLIC "-//W3C//DTD SVG 1.1//EN"
 "http://www.w3.org/Graphics/SVG/1.1/DTD/svg11.dtd">
<!-- Generated by graphviz version 2.43.0 (0)
 -->
<!-- Title: carta::Session::CalculateCubeHistogram Pages: 1 -->
<svg width="946pt" height="471pt"
 viewBox="0.00 0.00 946.00 470.50" xmlns="http://www.w3.org/2000/svg" xmlns:xlink="http://www.w3.org/1999/xlink">
<g id="graph0" class="graph" transform="scale(1 1) rotate(0) translate(4 466.5)">
<title>carta::Session::CalculateCubeHistogram</title>
<!-- Node1 -->
<g id="node1" class="node">
<title>Node1</title>
<g id="a_node1"><a xlink:title=" ">
<polygon fill="#bfbfbf" stroke="black" points="0,-183.5 0,-213.5 137,-213.5 137,-183.5 0,-183.5"/>
<text text-anchor="start" x="8" y="-201.5" font-family="Helvetica,sans-Serif" font-size="10.00">carta::Session::Calculate</text>
<text text-anchor="middle" x="68.5" y="-190.5" font-family="Helvetica,sans-Serif" font-size="10.00">CubeHistogram</text>
</a>
</g>
</g>
<!-- Node2 -->
<g id="node2" class="node">
<title>Node2</title>
<g id="a_node2"><a xlink:href="classcarta_1_1Histogram.html#a56e2b8bfafd357f89b9197487c20446e" target="_top" xlink:title=" ">
<polygon fill="none" stroke="black" points="198.5,-364 198.5,-383 321.5,-383 321.5,-364 198.5,-364"/>
<text text-anchor="middle" x="260" y="-371" font-family="Helvetica,sans-Serif" font-size="10.00">carta::Histogram::Add</text>
</a>
</g>
</g>
<!-- Node1&#45;&gt;Node2 -->
<g id="edge1" class="edge">
<title>Node1&#45;&gt;Node2</title>
<path fill="none" stroke="midnightblue" d="M75.04,-213.77C87.37,-245.43 120.2,-318.28 173,-354.5 177.85,-357.82 183.18,-360.58 188.74,-362.86"/>
<polygon fill="midnightblue" stroke="midnightblue" points="187.67,-366.19 198.26,-366.27 190.03,-359.6 187.67,-366.19"/>
</g>
<!-- Node9 -->
<g id="node9" class="node">
<title>Node9</title>
<g id="a_node9"><a xlink:href="classcarta_1_1Timer.html#aad2702a80259920b910fb76642f97b88" target="_top" xlink:title=" ">
<polygon fill="none" stroke="black" points="200,-326 200,-345 320,-345 320,-326 200,-326"/>
<text text-anchor="middle" x="260" y="-333" font-family="Helvetica,sans-Serif" font-size="10.00">carta::Timer::Elapsed</text>
</a>
</g>
</g>
<!-- Node1&#45;&gt;Node9 -->
<g id="edge8" class="edge">
<title>Node1&#45;&gt;Node9</title>
<path fill="none" stroke="midnightblue" d="M78.19,-213.53C93.76,-239.01 128.91,-290.42 173,-316.5 178.35,-319.67 184.18,-322.31 190.19,-324.51"/>
<polygon fill="midnightblue" stroke="midnightblue" points="189.16,-327.85 199.75,-327.62 191.32,-321.2 189.16,-327.85"/>
</g>
<!-- Node10 -->
<g id="node10" class="node">
<title>Node10</title>
<g id="a_node10"><a xlink:href="Message_8cc.html#aadf644bd365f0198b09a7196f9990511" target="_top" xlink:title=" ">
<polygon fill="none" stroke="black" points="219,-288 219,-307 301,-307 301,-288 219,-288"/>
<text text-anchor="middle" x="260" y="-295" font-family="Helvetica,sans-Serif" font-size="10.00">FillHistogram</text>
</a>
</g>
</g>
<!-- Node1&#45;&gt;Node10 -->
<g id="edge9" class="edge">
<title>Node1&#45;&gt;Node10</title>
<path fill="none" stroke="midnightblue" d="M84.52,-213.66C103.46,-231.87 137.83,-262.04 173,-278.5 184.14,-283.72 196.78,-287.53 208.87,-290.31"/>
<polygon fill="midnightblue" stroke="midnightblue" points="208.34,-293.77 218.85,-292.41 209.78,-286.92 208.34,-293.77"/>
</g>
<!-- Node11 -->
<g id="node11" class="node">
<title>Node11</title>
<g id="a_node11"><a xlink:href="structcarta_1_1HistogramConfig.html#aee3b990962e991922bcf9f3779401bcd" target="_top" xlink:title=" ">
<polygon fill="none" stroke="black" points="195.5,-238.5 195.5,-268.5 324.5,-268.5 324.5,-238.5 195.5,-238.5"/>
<text text-anchor="start" x="203.5" y="-256.5" font-family="Helvetica,sans-Serif" font-size="10.00">carta::HistogramConfig</text>
<text text-anchor="middle" x="260" y="-245.5" font-family="Helvetica,sans-Serif" font-size="10.00">::GetBounds</text>
</a>
</g>
</g>
<!-- Node1&#45;&gt;Node11 -->
<g id="edge10" class="edge">
<title>Node1&#45;&gt;Node11</title>
<path fill="none" stroke="midnightblue" d="M121.28,-213.53C144.89,-220.38 173.01,-228.54 197.66,-235.7"/>
<polygon fill="midnightblue" stroke="midnightblue" points="196.7,-239.06 207.28,-238.49 198.65,-232.34 196.7,-239.06"/>
</g>
<!-- Node12 -->
<g id="node12" class="node">
<title>Node12</title>
<g id="a_node12"><a xlink:href="classcarta_1_1SessionContext.html#a28e9e5c979d1c244253a92f69b156c39" target="_top" xlink:title=" ">
<polygon fill="none" stroke="black" points="198.5,-178 198.5,-219 321.5,-219 321.5,-178 198.5,-178"/>
<text text-anchor="start" x="206.5" y="-207" font-family="Helvetica,sans-Serif" font-size="10.00">carta::SessionContext</text>
<text text-anchor="start" x="206.5" y="-196" font-family="Helvetica,sans-Serif" font-size="10.00">::is_group_execution</text>
<text text-anchor="middle" x="260" y="-185" font-family="Helvetica,sans-Serif" font-size="10.00">_cancelled</text>
</a>
</g>
</g>
<!-- Node1&#45;&gt;Node12 -->
<g id="edge11" class="edge">
<title>Node1&#45;&gt;Node12</title>
<path fill="none" stroke="midnightblue" d="M137.11,-198.5C153.66,-198.5 171.41,-198.5 188.11,-198.5"/>
<polygon fill="midnightblue" stroke="midnightblue" points="188.35,-202 198.35,-198.5 188.35,-195 188.35,-202"/>
</g>
<!-- Node13 -->
<g id="node13" class="node">
<title>Node13</title>
<g id="a_node13"><a xlink:href="structcarta_1_1BasicStats.html#a536adffa874e62bc21b8764a77ce09fd" target="_top" xlink:title=" ">
<polygon fill="none" stroke="black" points="199,-140 199,-159 321,-159 321,-140 199,-140"/>
<text text-anchor="middle" x="260" y="-147" font-family="Helvetica,sans-Serif" font-size="10.00">carta::BasicStats::join</text>
</a>
</g>
</g>
<!-- Node1&#45;&gt;Node13 -->
<g id="edge12" class="edge">
<title>Node1&#45;&gt;Node13</title>
<path fill="none" stroke="midnightblue" d="M119.07,-183.43C136.1,-178.43 155.33,-173.01 173,-168.5 182.78,-166.01 193.23,-163.53 203.36,-161.24"/>
<polygon fill="midnightblue" stroke="midnightblue" points="204.35,-164.61 213.35,-159.01 202.82,-157.77 204.35,-164.61"/>
</g>
<!-- Node14 -->
<g id="node14" class="node">
<title>Node14</title>
<g id="a_node14"><a xlink:href="classMessage.html#a730c49c8e93e27faf31796d44748088b" target="_top" xlink:title=" ">
<polygon fill="none" stroke="black" points="173,-102 173,-121 347,-121 347,-102 173,-102"/>
<text text-anchor="middle" x="260" y="-109" font-family="Helvetica,sans-Serif" font-size="10.00">Message::RegionHistogramData</text>
</a>
</g>
</g>
<!-- Node1&#45;&gt;Node14 -->
<g id="edge13" class="edge">
<title>Node1&#45;&gt;Node14</title>
<path fill="none" stroke="midnightblue" d="M87.77,-183.49C107.58,-167.97 140.71,-144.13 173,-130.5 178.92,-128 185.21,-125.81 191.59,-123.9"/>
<polygon fill="midnightblue" stroke="midnightblue" points="192.95,-127.15 201.65,-121.11 191.08,-120.41 192.95,-127.15"/>
</g>
<!-- Node15 -->
<g id="node15" class="node">
<title>Node15</title>
<g id="a_node15"><a xlink:href="classcarta_1_1Session.html#ae6ff58d2a61d3872bc741f12ed2b91d7" target="_top" xlink:title=" ">
<polygon fill="none" stroke="black" points="194,-52.5 194,-82.5 326,-82.5 326,-52.5 194,-52.5"/>
<text text-anchor="start" x="202" y="-70.5" font-family="Helvetica,sans-Serif" font-size="10.00">carta::Session::SendFile</text>
<text text-anchor="middle" x="260" y="-59.5" font-family="Helvetica,sans-Serif" font-size="10.00">Event</text>
</a>
</g>
</g>
<!-- Node1&#45;&gt;Node15 -->
<g id="edge14" class="edge">
<title>Node1&#45;&gt;Node15</title>
<path fill="none" stroke="midnightblue" d="M80.1,-183.46C97.09,-160.47 132.63,-116.7 173,-92.5 176.6,-90.34 180.4,-88.36 184.31,-86.54"/>
<polygon fill="midnightblue" stroke="midnightblue" points="185.78,-89.72 193.61,-82.59 183.04,-83.28 185.78,-89.72"/>
</g>
<!-- Node21 -->
<g id="node21" class="node">
<title>Node21</title>
<g id="a_node21"><a xlink:href="classcarta_1_1Session.html#a9614e33dea4622ec90432fa7aad7a451" target="_top" xlink:title=" ">
<polygon fill="none" stroke="black" points="180,-14 180,-33 340,-33 340,-14 180,-14"/>
<text text-anchor="middle" x="260" y="-21" font-family="Helvetica,sans-Serif" font-size="10.00">carta::Session::SendLogEvent</text>
</a>
</g>
</g>
<!-- Node1&#45;&gt;Node21 -->
<g id="edge20" class="edge">
<title>Node1&#45;&gt;Node21</title>
<path fill="none" stroke="midnightblue" d="M75.04,-183.23C87.37,-151.57 120.2,-78.72 173,-42.5 175.93,-40.49 179.03,-38.69 182.25,-37.08"/>
<polygon fill="midnightblue" stroke="midnightblue" points="183.83,-40.21 191.6,-33.01 181.04,-33.79 183.83,-40.21"/>
</g>
<!-- Node3 -->
<g id="node3" class="node">
<title>Node3</title>
<g id="a_node3"><a xlink:href="classcarta_1_1Histogram.html#a81787c73b6b71a8495c8c3ffcf4d7c46" target="_top" xlink:title=" ">
<polygon fill="none" stroke="black" points="398,-380.5 398,-410.5 562,-410.5 562,-380.5 398,-380.5"/>
<text text-anchor="start" x="406" y="-398.5" font-family="Helvetica,sans-Serif" font-size="10.00">carta::Histogram::Consistency</text>
<text text-anchor="middle" x="480" y="-387.5" font-family="Helvetica,sans-Serif" font-size="10.00">Check</text>
</a>
</g>
</g>
<!-- Node2&#45;&gt;Node3 -->
<g id="edge2" class="edge">
<title>Node2&#45;&gt;Node3</title>
<path fill="none" stroke="midnightblue" d="M321.73,-379.63C342.16,-381.69 365.42,-384.04 387.68,-386.28"/>
<polygon fill="midnightblue" stroke="midnightblue" points="387.52,-389.79 397.82,-387.31 388.22,-382.82 387.52,-389.79"/>
</g>
<!-- Node8 -->
<g id="node8" class="node">
<title>Node8</title>
<g id="a_node8"><a xlink:href="classcarta_1_1Histogram.html#a1efcb688ab3b0d60a6216d14d87fef5e" target="_top" xlink:title=" ">
<polygon fill="none" stroke="black" points="383,-342 383,-361 577,-361 577,-342 383,-342"/>
<text text-anchor="middle" x="480" y="-349" font-family="Helvetica,sans-Serif" font-size="10.00">carta::Histogram::GetHistogramBins</text>
</a>
</g>
</g>
<!-- Node2&#45;&gt;Node8 -->
<g id="edge7" class="edge">
<title>Node2&#45;&gt;Node8</title>
<path fill="none" stroke="midnightblue" d="M321.73,-367.37C338.2,-365.71 356.52,-363.86 374.67,-362.03"/>
<polygon fill="midnightblue" stroke="midnightblue" points="375.12,-365.5 384.72,-361.01 374.42,-358.54 375.12,-365.5"/>
</g>
<!-- Node4 -->
<g id="node4" class="node">
<title>Node4</title>
<g id="a_node4"><a xlink:href="classcarta_1_1Histogram.html#a1002f37e381eb1de20add01e234a8083" target="_top" xlink:title=" ">
<polygon fill="none" stroke="black" points="620.5,-443 620.5,-462 778.5,-462 778.5,-443 620.5,-443"/>
<text text-anchor="middle" x="699.5" y="-450" font-family="Helvetica,sans-Serif" font-size="10.00">carta::Histogram::GetBounds</text>
</a>
</g>
</g>
<!-- Node3&#45;&gt;Node4 -->
<g id="edge3" class="edge">
<title>Node3&#45;&gt;Node4</title>
<path fill="none" stroke="midnightblue" d="M530.63,-410.57C555.3,-417.86 585.62,-426.52 613,-433.5 622.73,-435.98 633.12,-438.44 643.19,-440.73"/>
<polygon fill="midnightblue" stroke="midnightblue" points="642.59,-444.19 653.12,-442.96 644.13,-437.36 642.59,-444.19"/>
</g>
<!-- Node5 -->
<g id="node5" class="node">
<title>Node5</title>
<g id="a_node5"><a xlink:href="classcarta_1_1Histogram.html#ae1f537df539939fde102e25b0b42a9aa" target="_top" xlink:title=" ">
<polygon fill="none" stroke="black" points="620.5,-405 620.5,-424 778.5,-424 778.5,-405 620.5,-405"/>
<text text-anchor="middle" x="699.5" y="-412" font-family="Helvetica,sans-Serif" font-size="10.00">carta::Histogram::GetMaxVal</text>
</a>
</g>
</g>
<!-- Node3&#45;&gt;Node5 -->
<g id="edge4" class="edge">
<title>Node3&#45;&gt;Node5</title>
<path fill="none" stroke="midnightblue" d="M562.3,-402.6C577.84,-403.96 594.18,-405.39 609.93,-406.76"/>
<polygon fill="midnightblue" stroke="midnightblue" points="609.92,-410.28 620.19,-407.66 610.53,-403.3 609.92,-410.28"/>
</g>
<!-- Node6 -->
<g id="node6" class="node">
<title>Node6</title>
<g id="a_node6"><a xlink:href="classcarta_1_1Histogram.html#a751eb7e111b661cf77a44995db151a3b" target="_top" xlink:title=" ">
<polygon fill="none" stroke="black" points="622,-367 622,-386 777,-386 777,-367 622,-367"/>
<text text-anchor="middle" x="699.5" y="-374" font-family="Helvetica,sans-Serif" font-size="10.00">carta::Histogram::GetMinVal</text>
</a>
</g>
</g>
<!-- Node3&#45;&gt;Node6 -->
<g id="edge5" class="edge">
<title>Node3&#45;&gt;Node6</title>
<path fill="none" stroke="midnightblue" d="M562.3,-388.4C578.49,-386.98 595.54,-385.49 611.9,-384.07"/>
<polygon fill="midnightblue" stroke="midnightblue" points="612.32,-387.54 621.98,-383.18 611.71,-380.57 612.32,-387.54"/>
</g>
<!-- Node7 -->
<g id="node7" class="node">
<title>Node7</title>
<g id="a_node7"><a xlink:href="classcarta_1_1Histogram.html#a70adaf5681547ca8d7aa22550bfb3206" target="_top" xlink:title=" ">
<polygon fill="none" stroke="black" points="625,-329 625,-348 774,-348 774,-329 625,-329"/>
<text text-anchor="middle" x="699.5" y="-336" font-family="Helvetica,sans-Serif" font-size="10.00">carta::Histogram::GetNbins</text>
</a>
</g>
</g>
<!-- Node3&#45;&gt;Node7 -->
<g id="edge6" class="edge">
<title>Node3&#45;&gt;Node7</title>
<path fill="none" stroke="midnightblue" d="M542.18,-380.47C553.8,-377.36 565.81,-373.97 577,-370.5 593.25,-365.46 596.66,-362.24 613,-357.5 621.79,-354.95 631.18,-352.54 640.4,-350.36"/>
<polygon fill="midnightblue" stroke="midnightblue" points="641.33,-353.74 650.29,-348.08 639.76,-346.91 641.33,-353.74"/>
</g>
<!-- Node16 -->
<g id="node16" class="node">
<title>Node16</title>
<g id="a_node16"><a xlink:href="classcarta_1_1Session.html#af5f45b72e3fb7d4ad6fbf32fcc9da912" target="_top" xlink:title=" ">
<polygon fill="none" stroke="black" points="408.5,-55 408.5,-74 551.5,-74 551.5,-55 408.5,-55"/>
<text text-anchor="middle" x="480" y="-62" font-family="Helvetica,sans-Serif" font-size="10.00">carta::Session::SendEvent</text>
</a>
</g>
</g>
<!-- Node15&#45;&gt;Node16 -->
<g id="edge15" class="edge">
<title>Node15&#45;&gt;Node16</title>
<path fill="none" stroke="midnightblue" d="M326.11,-66.6C348.73,-66.29 374.37,-65.94 398.1,-65.61"/>
<polygon fill="midnightblue" stroke="midnightblue" points="398.19,-69.11 408.14,-65.48 398.09,-62.11 398.19,-69.11"/>
</g>
<!-- Node17 -->
<g id="node17" class="node">
<title>Node17</title>
<g id="a_node17"><a xlink:href="namespacecarta_1_1logger.html#ab9e339746ee51ea21696ab43b50841d5" target="_top" xlink:title=" ">
<polygon fill="none" stroke="black" points="613,-99 613,-118 786,-118 786,-99 613,-99"/>
<text text-anchor="middle" x="699.5" y="-106" font-family="Helvetica,sans-Serif" font-size="10.00">carta::logger::LogSentEventType</text>
</a>
</g>
</g>
<!-- Node16&#45;&gt;Node17 -->
<g id="edge16" class="edge">
<title>Node16&#45;&gt;Node17</title>
<path fill="none" stroke="midnightblue" d="M528.19,-74.05C561.4,-80.76 606.02,-89.79 641.26,-96.92"/>
<polygon fill="midnightblue" stroke="midnightblue" points="640.9,-100.42 651.4,-98.97 642.29,-93.56 640.9,-100.42"/>
</g>
<!-- Node19 -->
<g id="node19" class="node">
<title>Node19</title>
<g id="a_node19"><a xlink:href="classcarta_1_1concurrent__queue.html#ab1a11795f017e1c7dd870fce5da5ede1" target="_top" xlink:title=" ">
<polygon fill="none" stroke="black" points="632.5,-49.5 632.5,-79.5 766.5,-79.5 766.5,-49.5 632.5,-49.5"/>
<text text-anchor="start" x="640.5" y="-67.5" font-family="Helvetica,sans-Serif" font-size="10.00">carta::concurrent_queue</text>
<text text-anchor="middle" x="699.5" y="-56.5" font-family="Helvetica,sans-Serif" font-size="10.00">::push</text>
</a>
</g>
</g>
<!-- Node16&#45;&gt;Node19 -->
<g id="edge18" class="edge">
<title>Node16&#45;&gt;Node19</title>
<path fill="none" stroke="midnightblue" d="M551.62,-64.5C574.2,-64.5 599.29,-64.5 622.26,-64.5"/>
<polygon fill="midnightblue" stroke="midnightblue" points="622.3,-68 632.3,-64.5 622.3,-61 622.3,-68"/>
</g>
<!-- Node20 -->
<g id="node20" class="node">
<title>Node20</title>
<g id="a_node20"><a xlink:href="classcarta_1_1concurrent__queue.html#a44dc990ae7a71921648cad573058357d" target="_top" xlink:title=" ">
<polygon fill="none" stroke="black" points="632.5,-0.5 632.5,-30.5 766.5,-30.5 766.5,-0.5 632.5,-0.5"/>
<text text-anchor="start" x="640.5" y="-18.5" font-family="Helvetica,sans-Serif" font-size="10.00">carta::concurrent_queue</text>
<text text-anchor="middle" x="699.5" y="-7.5" font-family="Helvetica,sans-Serif" font-size="10.00">::try_pop</text>
</a>
</g>
</g>
<!-- Node16&#45;&gt;Node20 -->
<g id="edge19" class="edge">
<title>Node16&#45;&gt;Node20</title>
<path fill="none" stroke="midnightblue" d="M523.19,-54.99C551.29,-48.66 589.03,-40.16 622.29,-32.67"/>
<polygon fill="midnightblue" stroke="midnightblue" points="623.47,-35.99 632.45,-30.38 621.93,-29.16 623.47,-35.99"/>
</g>
<!-- Node18 -->
<g id="node18" class="node">
<title>Node18</title>
<g id="a_node18"><a xlink:href="namespacecarta_1_1logger.html#a23c9bf75209165cf69eb8d50f64b81b4" target="_top" xlink:title=" ">
<polygon fill="none" stroke="black" points="822,-93.5 822,-123.5 938,-123.5 938,-93.5 822,-93.5"/>
<text text-anchor="start" x="830" y="-111.5" font-family="Helvetica,sans-Serif" font-size="10.00">carta::logger::log</text>
<text text-anchor="middle" x="880" y="-100.5" font-family="Helvetica,sans-Serif" font-size="10.00">_protocol_messages</text>
</a>
</g>
</g>
<!-- Node17&#45;&gt;Node18 -->
<g id="edge17" class="edge">
<title>Node17&#45;&gt;Node18</title>
<path fill="none" stroke="midnightblue" d="M786.09,-108.5C794.74,-108.5 803.44,-108.5 811.86,-108.5"/>
<polygon fill="midnightblue" stroke="midnightblue" points="811.96,-112 821.96,-108.5 811.96,-105 811.96,-112"/>
</g>
<!-- Node21&#45;&gt;Node16 -->
<g id="edge22" class="edge">
<title>Node21&#45;&gt;Node16</title>
<path fill="none" stroke="midnightblue" d="M311.56,-33.01C343.36,-38.99 384.59,-46.74 418.18,-53.06"/>
<polygon fill="midnightblue" stroke="midnightblue" points="417.86,-56.56 428.34,-54.97 419.15,-49.68 417.86,-56.56"/>
</g>
<!-- Node22 -->
<g id="node22" class="node">
<title>Node22</title>
<g id="a_node22"><a xlink:href="classMessage.html#a99e84f303d54a46b1cf582bf343c7f29" target="_top" xlink:title=" ">
<polygon fill="none" stroke="black" points="423.5,-14 423.5,-33 536.5,-33 536.5,-14 423.5,-14"/>
<text text-anchor="middle" x="480" y="-21" font-family="Helvetica,sans-Serif" font-size="10.00">Message::ErrorData</text>
</a>
</g>
</g>
<!-- Node21&#45;&gt;Node22 -->
<g id="edge21" class="edge">
<title>Node21&#45;&gt;Node22</title>
<path fill="none" stroke="midnightblue" d="M340.01,-23.5C364.11,-23.5 390.32,-23.5 413.42,-23.5"/>
<polygon fill="midnightblue" stroke="midnightblue" points="413.46,-27 423.46,-23.5 413.46,-20 413.46,-27"/>
</g>
</g>
</svg>
