<?xml version="1.0" encoding="UTF-8" standalone="no"?>
<!DOCTYPE svg PUBLIC "-//W3C//DTD SVG 1.1//EN"
 "http://www.w3.org/Graphics/SVG/1.1/DTD/svg11.dtd">
<!-- Generated by graphviz version 2.43.0 (0)
 -->
<!-- Title: carta::RegionHandler::FillRegionStatsData Pages: 1 -->
<svg width="751pt" height="186pt"
 viewBox="0.00 0.00 751.00 185.81" xmlns="http://www.w3.org/2000/svg" xmlns:xlink="http://www.w3.org/1999/xlink">
<g id="graph0" class="graph" transform="scale(1 1) rotate(0) translate(4 181.81)">
<title>carta::RegionHandler::FillRegionStatsData</title>
<!-- Node1 -->
<g id="node1" class="node">
<title>Node1</title>
<g id="a_node1"><a xlink:title=" ">
<polygon fill="#bfbfbf" stroke="black" points="0,-27.31 0,-57.31 119,-57.31 119,-27.31 0,-27.31"/>
<text text-anchor="start" x="8" y="-45.31" font-family="Helvetica,sans-Serif" font-size="10.00">carta::RegionHandler</text>
<text text-anchor="middle" x="59.5" y="-34.31" font-family="Helvetica,sans-Serif" font-size="10.00">::FillRegionStatsData</text>
</a>
</g>
</g>
<!-- Node2 -->
<g id="node2" class="node">
<title>Node2</title>
<g id="a_node2"><a xlink:href="classcarta_1_1RegionHandler.html#a5400b6dee0622f4ce2060ae424e1e559" target="_top" xlink:title=" ">
<polygon fill="none" stroke="black" points="155,-65.31 155,-95.31 277,-95.31 277,-65.31 155,-65.31"/>
<text text-anchor="start" x="163" y="-83.31" font-family="Helvetica,sans-Serif" font-size="10.00">carta::RegionHandler</text>
<text text-anchor="middle" x="216" y="-72.31" font-family="Helvetica,sans-Serif" font-size="10.00">::GetRegionStatsData</text>
</a>
</g>
</g>
<!-- Node1&#45;&gt;Node2 -->
<g id="edge1" class="edge">
<title>Node1&#45;&gt;Node2</title>
<path fill="none" stroke="midnightblue" d="M119.35,-56.78C127.69,-58.83 136.33,-60.96 144.85,-63.05"/>
<polygon fill="midnightblue" stroke="midnightblue" points="144.23,-66.5 154.78,-65.49 145.9,-59.71 144.23,-66.5"/>
</g>
<!-- Node6 -->
<g id="node6" class="node">
<title>Node6</title>
<g id="a_node6"><a xlink:href="classcarta_1_1RegionHandler.html#aa43ef4e45748b4142eb3f28233f6f0e6" target="_top" xlink:title=" ">
<polygon fill="none" stroke="black" points="469,-98.31 469,-128.31 588,-128.31 588,-98.31 469,-98.31"/>
<text text-anchor="start" x="477" y="-116.31" font-family="Helvetica,sans-Serif" font-size="10.00">carta::RegionHandler</text>
<text text-anchor="middle" x="528.5" y="-105.31" font-family="Helvetica,sans-Serif" font-size="10.00">::RegionFileIdsValid</text>
</a>
</g>
</g>
<!-- Node1&#45;&gt;Node6 -->
<g id="edge11" class="edge">
<title>Node1&#45;&gt;Node6</title>
<path fill="none" stroke="midnightblue" d="M109.36,-27.24C182.64,-7.38 324.03,20.28 433,-23.31 466.43,-36.68 494.77,-68.13 511.46,-90.06"/>
<polygon fill="midnightblue" stroke="midnightblue" points="508.72,-92.25 517.47,-98.22 514.36,-88.1 508.72,-92.25"/>
</g>
<!-- Node3 -->
<g id="node3" class="node">
<title>Node3</title>
<g id="a_node3"><a xlink:href="classcarta_1_1RegionHandler.html#a5c734366cb3b4b307c54a66251dd270c" target="_top" xlink:title=" ">
<polygon fill="none" stroke="black" points="313.5,-147.31 313.5,-177.31 432.5,-177.31 432.5,-147.31 313.5,-147.31"/>
<text text-anchor="start" x="321.5" y="-165.31" font-family="Helvetica,sans-Serif" font-size="10.00">carta::RegionHandler</text>
<text text-anchor="middle" x="373" y="-154.31" font-family="Helvetica,sans-Serif" font-size="10.00">::ApplyRegionToFile</text>
</a>
</g>
</g>
<!-- Node2&#45;&gt;Node3 -->
<g id="edge2" class="edge">
<title>Node2&#45;&gt;Node3</title>
<path fill="none" stroke="midnightblue" d="M240.56,-95.51C259.69,-107.56 287.57,-124.45 313,-137.31 316.8,-139.23 320.78,-141.13 324.8,-142.98"/>
<polygon fill="midnightblue" stroke="midnightblue" points="323.64,-146.3 334.2,-147.19 326.5,-139.91 323.64,-146.3"/>
</g>
<!-- Node8 -->
<g id="node8" class="node">
<title>Node8</title>
<g id="a_node8"><a xlink:href="classcarta_1_1Timer.html#aad2702a80259920b910fb76642f97b88" target="_top" xlink:title=" ">
<polygon fill="none" stroke="black" points="313,-108.81 313,-127.81 433,-127.81 433,-108.81 313,-108.81"/>
<text text-anchor="middle" x="373" y="-115.81" font-family="Helvetica,sans-Serif" font-size="10.00">carta::Timer::Elapsed</text>
</a>
</g>
</g>
<!-- Node2&#45;&gt;Node8 -->
<g id="edge8" class="edge">
<title>Node2&#45;&gt;Node8</title>
<path fill="none" stroke="midnightblue" d="M277.37,-95.11C292.57,-98.83 308.68,-102.78 323.23,-106.35"/>
<polygon fill="midnightblue" stroke="midnightblue" points="322.47,-109.77 333.02,-108.75 324.14,-102.97 322.47,-109.77"/>
</g>
<!-- Node9 -->
<g id="node9" class="node">
<title>Node9</title>
<g id="a_node9"><a xlink:href="Message_8cc.html#a30d3b3e61fe64e3f953b3a7a2ed9280e" target="_top" xlink:title=" ">
<polygon fill="none" stroke="black" points="335,-70.81 335,-89.81 411,-89.81 411,-70.81 335,-70.81"/>
<text text-anchor="middle" x="373" y="-77.81" font-family="Helvetica,sans-Serif" font-size="10.00">FillStatistics</text>
</a>
</g>
</g>
<!-- Node2&#45;&gt;Node9 -->
<g id="edge9" class="edge">
<title>Node2&#45;&gt;Node9</title>
<path fill="none" stroke="midnightblue" d="M277.37,-80.31C293.12,-80.31 309.86,-80.31 324.81,-80.31"/>
<polygon fill="midnightblue" stroke="midnightblue" points="324.84,-83.81 334.84,-80.31 324.84,-76.81 324.84,-83.81"/>
</g>
<!-- Node10 -->
<g id="node10" class="node">
<title>Node10</title>
<g id="a_node10"><a xlink:href="structcarta_1_1TimeDelta.html#a90b2dc0a7d70b0aa6f668f4bbad7fa58" target="_top" xlink:title=" ">
<polygon fill="none" stroke="black" points="313.5,-32.81 313.5,-51.81 432.5,-51.81 432.5,-32.81 313.5,-32.81"/>
<text text-anchor="middle" x="373" y="-39.81" font-family="Helvetica,sans-Serif" font-size="10.00">carta::TimeDelta::ms</text>
</a>
</g>
</g>
<!-- Node2&#45;&gt;Node10 -->
<g id="edge10" class="edge">
<title>Node2&#45;&gt;Node10</title>
<path fill="none" stroke="midnightblue" d="M277.37,-65.51C292.57,-61.78 308.68,-57.83 323.23,-54.26"/>
<polygon fill="midnightblue" stroke="midnightblue" points="324.14,-57.64 333.02,-51.86 322.47,-50.85 324.14,-57.64"/>
</g>
<!-- Node4 -->
<g id="node4" class="node">
<title>Node4</title>
<g id="a_node4"><a xlink:href="classcarta_1_1RegionHandler.html#a4d3eaa8da979a4b0640aa3b598a9415b" target="_top" xlink:title=" ">
<polygon fill="none" stroke="black" points="469,-147.31 469,-177.31 588,-177.31 588,-147.31 469,-147.31"/>
<text text-anchor="start" x="477" y="-165.31" font-family="Helvetica,sans-Serif" font-size="10.00">carta::RegionHandler</text>
<text text-anchor="middle" x="528.5" y="-154.31" font-family="Helvetica,sans-Serif" font-size="10.00">::GetRegion</text>
</a>
</g>
</g>
<!-- Node3&#45;&gt;Node4 -->
<g id="edge3" class="edge">
<title>Node3&#45;&gt;Node4</title>
<path fill="none" stroke="midnightblue" d="M432.91,-162.31C441.35,-162.31 450.11,-162.31 458.72,-162.31"/>
<polygon fill="midnightblue" stroke="midnightblue" points="458.75,-165.81 468.75,-162.31 458.75,-158.81 458.75,-165.81"/>
</g>
<!-- Node3&#45;&gt;Node6 -->
<g id="edge5" class="edge">
<title>Node3&#45;&gt;Node6</title>
<path fill="none" stroke="midnightblue" d="M421.31,-147.21C436.85,-142.25 454.28,-136.68 470.46,-131.51"/>
<polygon fill="midnightblue" stroke="midnightblue" points="471.89,-134.73 480.35,-128.36 469.76,-128.07 471.89,-134.73"/>
</g>
<!-- Node5 -->
<g id="node5" class="node">
<title>Node5</title>
<g id="a_node5"><a xlink:href="classcarta_1_1RegionHandler.html#a809f63096e4fabebdcdef49591ed1c70" target="_top" xlink:title=" ">
<polygon fill="none" stroke="black" points="624,-147.31 624,-177.31 743,-177.31 743,-147.31 624,-147.31"/>
<text text-anchor="start" x="632" y="-165.31" font-family="Helvetica,sans-Serif" font-size="10.00">carta::RegionHandler</text>
<text text-anchor="middle" x="683.5" y="-154.31" font-family="Helvetica,sans-Serif" font-size="10.00">::RegionSet</text>
</a>
</g>
</g>
<!-- Node4&#45;&gt;Node5 -->
<g id="edge4" class="edge">
<title>Node4&#45;&gt;Node5</title>
<path fill="none" stroke="midnightblue" d="M588.22,-162.31C596.54,-162.31 605.17,-162.31 613.67,-162.31"/>
<polygon fill="midnightblue" stroke="midnightblue" points="613.94,-165.81 623.94,-162.31 613.94,-158.81 613.94,-165.81"/>
</g>
<!-- Node6&#45;&gt;Node5 -->
<g id="edge7" class="edge">
<title>Node6&#45;&gt;Node5</title>
<path fill="none" stroke="midnightblue" d="M576.65,-128.41C592.14,-133.37 609.52,-138.93 625.65,-144.1"/>
<polygon fill="midnightblue" stroke="midnightblue" points="624.91,-147.54 635.5,-147.26 627.05,-140.87 624.91,-147.54"/>
</g>
<!-- Node7 -->
<g id="node7" class="node">
<title>Node7</title>
<g id="a_node7"><a xlink:href="classcarta_1_1RegionHandler.html#a16e8f0e73ba63be909517151bf11a450" target="_top" xlink:title=" ">
<polygon fill="none" stroke="black" points="624,-98.31 624,-128.31 743,-128.31 743,-98.31 624,-98.31"/>
<text text-anchor="start" x="632" y="-116.31" font-family="Helvetica,sans-Serif" font-size="10.00">carta::RegionHandler</text>
<text text-anchor="middle" x="683.5" y="-105.31" font-family="Helvetica,sans-Serif" font-size="10.00">::FrameSet</text>
</a>
</g>
</g>
<!-- Node6&#45;&gt;Node7 -->
<g id="edge6" class="edge">
<title>Node6&#45;&gt;Node7</title>
<path fill="none" stroke="midnightblue" d="M588.22,-113.31C596.54,-113.31 605.17,-113.31 613.67,-113.31"/>
<polygon fill="midnightblue" stroke="midnightblue" points="613.94,-116.81 623.94,-113.31 613.94,-109.81 613.94,-116.81"/>
</g>
</g>
</svg>
