<?xml version="1.0" encoding="UTF-8" standalone="no"?>
<!DOCTYPE svg PUBLIC "-//W3C//DTD SVG 1.1//EN"
 "http://www.w3.org/Graphics/SVG/1.1/DTD/svg11.dtd">
<!-- Generated by graphviz version 2.43.0 (0)
 -->
<!-- Title: carta::Session::OnSetStatsRequirements Pages: 1 -->
<svg width="1057pt" height="143pt"
 viewBox="0.00 0.00 1057.00 142.50" xmlns="http://www.w3.org/2000/svg" xmlns:xlink="http://www.w3.org/1999/xlink">
<g id="graph0" class="graph" transform="scale(1 1) rotate(0) translate(4 138.5)">
<title>carta::Session::OnSetStatsRequirements</title>
<!-- Node1 -->
<g id="node1" class="node">
<title>Node1</title>
<g id="a_node1"><a xlink:title=" ">
<polygon fill="#bfbfbf" stroke="black" points="0,-49.5 0,-79.5 145,-79.5 145,-49.5 0,-49.5"/>
<text text-anchor="start" x="8" y="-67.5" font-family="Helvetica,sans-Serif" font-size="10.00">carta::Session::OnSetStats</text>
<text text-anchor="middle" x="72.5" y="-56.5" font-family="Helvetica,sans-Serif" font-size="10.00">Requirements</text>
</a>
</g>
</g>
<!-- Node2 -->
<g id="node2" class="node">
<title>Node2</title>
<g id="a_node2"><a xlink:href="classcarta_1_1Session.html#a9614e33dea4622ec90432fa7aad7a451" target="_top" xlink:title=" ">
<polygon fill="none" stroke="black" points="181,-77 181,-96 341,-96 341,-77 181,-77"/>
<text text-anchor="middle" x="261" y="-84" font-family="Helvetica,sans-Serif" font-size="10.00">carta::Session::SendLogEvent</text>
</a>
</g>
</g>
<!-- Node1&#45;&gt;Node2 -->
<g id="edge1" class="edge">
<title>Node1&#45;&gt;Node2</title>
<path fill="none" stroke="midnightblue" d="M145.07,-72.94C153.49,-73.94 162.16,-74.96 170.78,-75.97"/>
<polygon fill="midnightblue" stroke="midnightblue" points="170.52,-79.47 180.86,-77.16 171.34,-72.52 170.52,-79.47"/>
</g>
<!-- Node9 -->
<g id="node9" class="node">
<title>Node9</title>
<g id="a_node9"><a xlink:href="classcarta_1_1Session.html#a5fd62896cf8474c7b37c27093a24459e" target="_top" xlink:title=" ">
<polygon fill="none" stroke="black" points="186.5,-27.5 186.5,-57.5 335.5,-57.5 335.5,-27.5 186.5,-27.5"/>
<text text-anchor="start" x="194.5" y="-45.5" font-family="Helvetica,sans-Serif" font-size="10.00">carta::Session::SendRegion</text>
<text text-anchor="middle" x="261" y="-34.5" font-family="Helvetica,sans-Serif" font-size="10.00">StatsData</text>
</a>
</g>
</g>
<!-- Node1&#45;&gt;Node9 -->
<g id="edge8" class="edge">
<title>Node1&#45;&gt;Node9</title>
<path fill="none" stroke="midnightblue" d="M145.07,-56.06C155.35,-54.85 166,-53.59 176.48,-52.35"/>
<polygon fill="midnightblue" stroke="midnightblue" points="176.94,-55.82 186.46,-51.18 176.12,-48.87 176.94,-55.82"/>
</g>
<!-- Node3 -->
<g id="node3" class="node">
<title>Node3</title>
<g id="a_node3"><a xlink:href="classMessage.html#a99e84f303d54a46b1cf582bf343c7f29" target="_top" xlink:title=" ">
<polygon fill="none" stroke="black" points="386.5,-115 386.5,-134 499.5,-134 499.5,-115 386.5,-115"/>
<text text-anchor="middle" x="443" y="-122" font-family="Helvetica,sans-Serif" font-size="10.00">Message::ErrorData</text>
</a>
</g>
</g>
<!-- Node2&#45;&gt;Node3 -->
<g id="edge2" class="edge">
<title>Node2&#45;&gt;Node3</title>
<path fill="none" stroke="midnightblue" d="M307.42,-96.09C331.6,-101.19 361.53,-107.51 387.01,-112.89"/>
<polygon fill="midnightblue" stroke="midnightblue" points="386.4,-116.34 396.91,-114.98 387.84,-109.49 386.4,-116.34"/>
</g>
<!-- Node4 -->
<g id="node4" class="node">
<title>Node4</title>
<g id="a_node4"><a xlink:href="classcarta_1_1Session.html#af5f45b72e3fb7d4ad6fbf32fcc9da912" target="_top" xlink:title=" ">
<polygon fill="none" stroke="black" points="545,-55 545,-74 688,-74 688,-55 545,-55"/>
<text text-anchor="middle" x="616.5" y="-62" font-family="Helvetica,sans-Serif" font-size="10.00">carta::Session::SendEvent</text>
</a>
</g>
</g>
<!-- Node2&#45;&gt;Node4 -->
<g id="edge3" class="edge">
<title>Node2&#45;&gt;Node4</title>
<path fill="none" stroke="midnightblue" d="M341.33,-81.56C398.94,-77.98 476.63,-73.14 534.6,-69.53"/>
<polygon fill="midnightblue" stroke="midnightblue" points="535.06,-73.01 544.82,-68.9 534.62,-66.03 535.06,-73.01"/>
</g>
<!-- Node5 -->
<g id="node5" class="node">
<title>Node5</title>
<g id="a_node5"><a xlink:href="namespacecarta_1_1logger.html#ab9e339746ee51ea21696ab43b50841d5" target="_top" xlink:title=" ">
<polygon fill="none" stroke="black" points="724,-99 724,-118 897,-118 897,-99 724,-99"/>
<text text-anchor="middle" x="810.5" y="-106" font-family="Helvetica,sans-Serif" font-size="10.00">carta::logger::LogSentEventType</text>
</a>
</g>
</g>
<!-- Node4&#45;&gt;Node5 -->
<g id="edge4" class="edge">
<title>Node4&#45;&gt;Node5</title>
<path fill="none" stroke="midnightblue" d="M659.16,-74.05C688.22,-80.71 727.19,-89.64 758.17,-96.74"/>
<polygon fill="midnightblue" stroke="midnightblue" points="757.39,-100.15 767.92,-98.97 758.95,-93.33 757.39,-100.15"/>
</g>
<!-- Node7 -->
<g id="node7" class="node">
<title>Node7</title>
<g id="a_node7"><a xlink:href="classcarta_1_1concurrent__queue.html#ab1a11795f017e1c7dd870fce5da5ede1" target="_top" xlink:title=" ">
<polygon fill="none" stroke="black" points="743.5,-49.5 743.5,-79.5 877.5,-79.5 877.5,-49.5 743.5,-49.5"/>
<text text-anchor="start" x="751.5" y="-67.5" font-family="Helvetica,sans-Serif" font-size="10.00">carta::concurrent_queue</text>
<text text-anchor="middle" x="810.5" y="-56.5" font-family="Helvetica,sans-Serif" font-size="10.00">::push</text>
</a>
</g>
</g>
<!-- Node4&#45;&gt;Node7 -->
<g id="edge6" class="edge">
<title>Node4&#45;&gt;Node7</title>
<path fill="none" stroke="midnightblue" d="M688.18,-64.5C702.86,-64.5 718.39,-64.5 733.26,-64.5"/>
<polygon fill="midnightblue" stroke="midnightblue" points="733.43,-68 743.43,-64.5 733.43,-61 733.43,-68"/>
</g>
<!-- Node8 -->
<g id="node8" class="node">
<title>Node8</title>
<g id="a_node8"><a xlink:href="classcarta_1_1concurrent__queue.html#a44dc990ae7a71921648cad573058357d" target="_top" xlink:title=" ">
<polygon fill="none" stroke="black" points="743.5,-0.5 743.5,-30.5 877.5,-30.5 877.5,-0.5 743.5,-0.5"/>
<text text-anchor="start" x="751.5" y="-18.5" font-family="Helvetica,sans-Serif" font-size="10.00">carta::concurrent_queue</text>
<text text-anchor="middle" x="810.5" y="-7.5" font-family="Helvetica,sans-Serif" font-size="10.00">::try_pop</text>
</a>
</g>
</g>
<!-- Node4&#45;&gt;Node8 -->
<g id="edge7" class="edge">
<title>Node4&#45;&gt;Node8</title>
<path fill="none" stroke="midnightblue" d="M654.98,-54.94C679.28,-48.73 711.69,-40.46 740.54,-33.1"/>
<polygon fill="midnightblue" stroke="midnightblue" points="741.76,-36.4 750.58,-30.54 740.02,-29.62 741.76,-36.4"/>
</g>
<!-- Node6 -->
<g id="node6" class="node">
<title>Node6</title>
<g id="a_node6"><a xlink:href="namespacecarta_1_1logger.html#a23c9bf75209165cf69eb8d50f64b81b4" target="_top" xlink:title=" ">
<polygon fill="none" stroke="black" points="933,-93.5 933,-123.5 1049,-123.5 1049,-93.5 933,-93.5"/>
<text text-anchor="start" x="941" y="-111.5" font-family="Helvetica,sans-Serif" font-size="10.00">carta::logger::log</text>
<text text-anchor="middle" x="991" y="-100.5" font-family="Helvetica,sans-Serif" font-size="10.00">_protocol_messages</text>
</a>
</g>
</g>
<!-- Node5&#45;&gt;Node6 -->
<g id="edge5" class="edge">
<title>Node5&#45;&gt;Node6</title>
<path fill="none" stroke="midnightblue" d="M897.09,-108.5C905.74,-108.5 914.44,-108.5 922.86,-108.5"/>
<polygon fill="midnightblue" stroke="midnightblue" points="922.96,-112 932.96,-108.5 922.96,-105 922.96,-112"/>
</g>
<!-- Node10 -->
<g id="node10" class="node">
<title>Node10</title>
<g id="a_node10"><a xlink:href="classcarta_1_1Session.html#ae6ff58d2a61d3872bc741f12ed2b91d7" target="_top" xlink:title=" ">
<polygon fill="none" stroke="black" points="377,-27.5 377,-57.5 509,-57.5 509,-27.5 377,-27.5"/>
<text text-anchor="start" x="385" y="-45.5" font-family="Helvetica,sans-Serif" font-size="10.00">carta::Session::SendFile</text>
<text text-anchor="middle" x="443" y="-34.5" font-family="Helvetica,sans-Serif" font-size="10.00">Event</text>
</a>
</g>
</g>
<!-- Node9&#45;&gt;Node10 -->
<g id="edge9" class="edge">
<title>Node9&#45;&gt;Node10</title>
<path fill="none" stroke="midnightblue" d="M335.73,-42.5C345.93,-42.5 356.41,-42.5 366.63,-42.5"/>
<polygon fill="midnightblue" stroke="midnightblue" points="366.75,-46 376.75,-42.5 366.75,-39 366.75,-46"/>
</g>
<!-- Node10&#45;&gt;Node4 -->
<g id="edge10" class="edge">
<title>Node10&#45;&gt;Node4</title>
<path fill="none" stroke="midnightblue" d="M509.33,-50.88C517.69,-51.95 526.34,-53.06 534.91,-54.16"/>
<polygon fill="midnightblue" stroke="midnightblue" points="534.56,-57.65 544.93,-55.45 535.45,-50.7 534.56,-57.65"/>
</g>
</g>
</svg>
