<?xml version="1.0" encoding="UTF-8" standalone="no"?>
<!DOCTYPE svg PUBLIC "-//W3C//DTD SVG 1.1//EN"
 "http://www.w3.org/Graphics/SVG/1.1/DTD/svg11.dtd">
<!-- Generated by graphviz version 2.43.0 (0)
 -->
<!-- Title: carta::ThreadManager::ApplyThreadLimit Pages: 1 -->
<svg width="1176pt" height="545pt"
 viewBox="0.00 0.00 1176.00 545.00" xmlns="http://www.w3.org/2000/svg" xmlns:xlink="http://www.w3.org/1999/xlink">
<g id="graph0" class="graph" transform="scale(1 1) rotate(0) translate(4 541)">
<title>carta::ThreadManager::ApplyThreadLimit</title>
<!-- Node1 -->
<g id="node1" class="node">
<title>Node1</title>
<g id="a_node1"><a xlink:title=" ">
<polygon fill="#bfbfbf" stroke="black" points="1044,-302.5 1044,-332.5 1168,-332.5 1168,-302.5 1044,-302.5"/>
<text text-anchor="start" x="1052" y="-320.5" font-family="Helvetica,sans-Serif" font-size="10.00">carta::ThreadManager</text>
<text text-anchor="middle" x="1106" y="-309.5" font-family="Helvetica,sans-Serif" font-size="10.00">::ApplyThreadLimit</text>
</a>
</g>
</g>
<!-- Node2 -->
<g id="node2" class="node">
<title>Node2</title>
<g id="a_node2"><a xlink:href="namespacecarta.html#aead2ccf135cb75c1b5d5f5d8b5a64849" target="_top" xlink:title=" ">
<polygon fill="none" stroke="black" points="851.5,-460 851.5,-479 993.5,-479 993.5,-460 851.5,-460"/>
<text text-anchor="middle" x="922.5" y="-467" font-family="Helvetica,sans-Serif" font-size="10.00">carta::BlockSmoothScalar</text>
</a>
</g>
</g>
<!-- Node1&#45;&gt;Node2 -->
<g id="edge1" class="edge">
<title>Node1&#45;&gt;Node2</title>
<path fill="none" stroke="midnightblue" d="M1092.96,-341.72C1077.32,-370.69 1047.3,-418.64 1008,-445.5 998.81,-451.78 987.99,-456.43 977.22,-459.87"/>
<polygon fill="midnightblue" stroke="midnightblue" points="1096.15,-343.16 1097.7,-332.68 1089.96,-339.9 1096.15,-343.16"/>
</g>
<!-- Node13 -->
<g id="node13" class="node">
<title>Node13</title>
<g id="a_node13"><a xlink:href="namespacecarta.html#a3d79fcec84ed84bfc770c589c2f12ea1" target="_top" xlink:title=" ">
<polygon fill="none" stroke="black" points="857.5,-498 857.5,-517 987.5,-517 987.5,-498 857.5,-498"/>
<text text-anchor="middle" x="922.5" y="-505" font-family="Helvetica,sans-Serif" font-size="10.00">carta::BlockSmoothSSE</text>
</a>
</g>
</g>
<!-- Node1&#45;&gt;Node13 -->
<g id="edge12" class="edge">
<title>Node1&#45;&gt;Node13</title>
<path fill="none" stroke="midnightblue" d="M1098.04,-342.33C1086.12,-380.05 1058.12,-451.34 1008,-488.5 1001.96,-492.98 995.06,-496.43 987.86,-499.09"/>
<polygon fill="midnightblue" stroke="midnightblue" points="1101.43,-343.22 1100.98,-332.63 1094.73,-341.19 1101.43,-343.22"/>
</g>
<!-- Node14 -->
<g id="node14" class="node">
<title>Node14</title>
<g id="a_node14"><a xlink:href="classcarta_1_1Table.html#a196951badfb7fc1fc447d5f775566585" target="_top" xlink:title=" ">
<polygon fill="none" stroke="black" points="837,-308 837,-327 1008,-327 1008,-308 837,-308"/>
<text text-anchor="middle" x="922.5" y="-315" font-family="Helvetica,sans-Serif" font-size="10.00">carta::Table::ConstructFromFITS</text>
</a>
</g>
</g>
<!-- Node1&#45;&gt;Node14 -->
<g id="edge14" class="edge">
<title>Node1&#45;&gt;Node14</title>
<path fill="none" stroke="midnightblue" d="M1033.74,-317.5C1025.38,-317.5 1016.79,-317.5 1008.27,-317.5"/>
<polygon fill="midnightblue" stroke="midnightblue" points="1033.81,-321 1043.81,-317.5 1033.81,-314 1033.81,-321"/>
</g>
<!-- Node16 -->
<g id="node16" class="node">
<title>Node16</title>
<g id="a_node16"><a xlink:href="classcarta_1_1Histogram.html#a79ff84c6442889f8b5f209714388ceed" target="_top" xlink:title=" ">
<polygon fill="none" stroke="black" points="863,-384 863,-403 982,-403 982,-384 863,-384"/>
<text text-anchor="middle" x="922.5" y="-391" font-family="Helvetica,sans-Serif" font-size="10.00">carta::Histogram::Fill</text>
</a>
</g>
</g>
<!-- Node1&#45;&gt;Node16 -->
<g id="edge16" class="edge">
<title>Node1&#45;&gt;Node16</title>
<path fill="none" stroke="midnightblue" d="M1071.38,-337.84C1053.1,-348.3 1029.82,-360.67 1008,-369.5 993.86,-375.22 977.88,-380.13 963.64,-384"/>
<polygon fill="midnightblue" stroke="midnightblue" points="1073.3,-340.77 1080.19,-332.73 1069.79,-334.72 1073.3,-340.77"/>
</g>
<!-- Node18 -->
<g id="node18" class="node">
<title>Node18</title>
<g id="a_node18"><a xlink:href="namespacecarta.html#a3ae47208421b1d4f81037729f3c08fc7" target="_top" xlink:title=" ">
<polygon fill="none" stroke="black" points="646.5,-232 646.5,-251 776.5,-251 776.5,-232 646.5,-232"/>
<text text-anchor="middle" x="711.5" y="-239" font-family="Helvetica,sans-Serif" font-size="10.00">carta::GaussianSmooth</text>
</a>
</g>
</g>
<!-- Node1&#45;&gt;Node18 -->
<g id="edge18" class="edge">
<title>Node1&#45;&gt;Node18</title>
<path fill="none" stroke="midnightblue" d="M1077.23,-296.43C1058.68,-283.59 1033.15,-268.22 1008,-260.5 930.96,-236.86 837.48,-235.05 776.57,-237.19"/>
<polygon fill="midnightblue" stroke="midnightblue" points="1075.32,-299.36 1085.49,-302.29 1079.37,-293.65 1075.32,-299.36"/>
</g>
<!-- Node19 -->
<g id="node19" class="node">
<title>Node19</title>
<g id="a_node19"><a xlink:href="namespacecarta.html#a724d5f79d7c1320592c011bd3bb57e98" target="_top" xlink:title=" ">
<polygon fill="none" stroke="black" points="646.5,-422 646.5,-441 776.5,-441 776.5,-422 646.5,-422"/>
<text text-anchor="middle" x="711.5" y="-429" font-family="Helvetica,sans-Serif" font-size="10.00">carta::NearestNeighbor</text>
</a>
</g>
</g>
<!-- Node1&#45;&gt;Node19 -->
<g id="edge20" class="edge">
<title>Node1&#45;&gt;Node19</title>
<path fill="none" stroke="midnightblue" d="M1089,-340.86C1071.9,-363.66 1042.55,-397.09 1008,-412.5 933.82,-445.59 838.64,-445.07 776.65,-439.83"/>
<polygon fill="midnightblue" stroke="midnightblue" points="1091.88,-342.85 1094.93,-332.71 1086.22,-338.73 1091.88,-342.85"/>
</g>
<!-- Node20 -->
<g id="node20" class="node">
<title>Node20</title>
<g id="a_node20"><a xlink:href="classcarta_1_1Session.html#ad769ec04ffbfb2289af256be174e3059" target="_top" xlink:title=" ">
<polygon fill="none" stroke="black" points="839,-95.5 839,-125.5 1006,-125.5 1006,-95.5 839,-95.5"/>
<text text-anchor="start" x="847" y="-113.5" font-family="Helvetica,sans-Serif" font-size="10.00">carta::Session::OnAddRequired</text>
<text text-anchor="middle" x="922.5" y="-102.5" font-family="Helvetica,sans-Serif" font-size="10.00">Tiles</text>
</a>
</g>
</g>
<!-- Node1&#45;&gt;Node20 -->
<g id="edge22" class="edge">
<title>Node1&#45;&gt;Node20</title>
<path fill="none" stroke="midnightblue" d="M1098.61,-292.46C1087.22,-252.92 1059.61,-176.24 1008,-134.5 1003.73,-131.05 998.99,-128.09 994,-125.56"/>
<polygon fill="midnightblue" stroke="midnightblue" points="1095.31,-293.64 1101.34,-302.34 1102.05,-291.77 1095.31,-293.64"/>
</g>
<!-- Node30 -->
<g id="node30" class="node">
<title>Node30</title>
<g id="a_node30"><a xlink:href="classcarta_1_1Table.html#a11d13db99482dc0845338a5ac76a8aa8" target="_top" xlink:title=" ">
<polygon fill="none" stroke="black" points="848.5,-270 848.5,-289 996.5,-289 996.5,-270 848.5,-270"/>
<text text-anchor="middle" x="922.5" y="-277" font-family="Helvetica,sans-Serif" font-size="10.00">carta::Table::PopulateRows</text>
</a>
</g>
</g>
<!-- Node1&#45;&gt;Node30 -->
<g id="edge32" class="edge">
<title>Node1&#45;&gt;Node30</title>
<path fill="none" stroke="midnightblue" d="M1033.9,-302.61C1012.04,-298.04 988.59,-293.13 968.94,-289.01"/>
<polygon fill="midnightblue" stroke="midnightblue" points="1033.3,-306.06 1043.81,-304.69 1034.73,-299.21 1033.3,-306.06"/>
</g>
<!-- Node32 -->
<g id="node32" class="node">
<title>Node32</title>
<g id="a_node32"><a xlink:href="namespacecarta.html#a14ef4865d709f274065adb74f068320e" target="_top" xlink:title=" ">
<polygon fill="none" stroke="black" points="874,-194 874,-213 971,-213 971,-194 874,-194"/>
<text text-anchor="middle" x="922.5" y="-201" font-family="Helvetica,sans-Serif" font-size="10.00">carta::RunKernel</text>
</a>
</g>
</g>
<!-- Node1&#45;&gt;Node32 -->
<g id="edge35" class="edge">
<title>Node1&#45;&gt;Node32</title>
<path fill="none" stroke="midnightblue" d="M1086.24,-294.83C1068.19,-274.41 1039.11,-245 1008,-227.5 996.7,-221.15 983.59,-216.36 971.12,-212.81"/>
<polygon fill="midnightblue" stroke="midnightblue" points="1083.64,-297.16 1092.83,-302.43 1088.93,-292.58 1083.64,-297.16"/>
</g>
<!-- Node33 -->
<g id="node33" class="node">
<title>Node33</title>
<g id="a_node33"><a xlink:href="classcarta_1_1ThreadManager.html#ad7de732e26f781a6bea5c74a2ec99ca5" target="_top" xlink:title=" ">
<polygon fill="none" stroke="black" points="860.5,-144.5 860.5,-174.5 984.5,-174.5 984.5,-144.5 860.5,-144.5"/>
<text text-anchor="start" x="868.5" y="-162.5" font-family="Helvetica,sans-Serif" font-size="10.00">carta::ThreadManager</text>
<text text-anchor="middle" x="922.5" y="-151.5" font-family="Helvetica,sans-Serif" font-size="10.00">::SetThreadLimit</text>
</a>
</g>
</g>
<!-- Node1&#45;&gt;Node33 -->
<g id="edge37" class="edge">
<title>Node1&#45;&gt;Node33</title>
<path fill="none" stroke="midnightblue" d="M1093.39,-292.88C1078.01,-262.89 1048.08,-212.76 1008,-184.5 1001,-179.56 993.02,-175.59 984.82,-172.39"/>
<polygon fill="midnightblue" stroke="midnightblue" points="1090.45,-294.83 1098.04,-302.22 1096.72,-291.7 1090.45,-294.83"/>
</g>
<!-- Node35 -->
<g id="node35" class="node">
<title>Node35</title>
<g id="a_node35"><a xlink:href="namespacecarta.html#a1fd808a97fe740e0021970ba4f77688a" target="_top" xlink:title=" ">
<polygon fill="none" stroke="black" points="653.5,-346 653.5,-365 769.5,-365 769.5,-346 653.5,-346"/>
<text text-anchor="middle" x="711.5" y="-353" font-family="Helvetica,sans-Serif" font-size="10.00">carta::TraceContours</text>
</a>
</g>
</g>
<!-- Node1&#45;&gt;Node35 -->
<g id="edge39" class="edge">
<title>Node1&#45;&gt;Node35</title>
<path fill="none" stroke="midnightblue" d="M1033.78,-332.54C1025.12,-334.04 1016.38,-335.41 1008,-336.5 925.54,-347.18 829.31,-351.95 769.64,-354.01"/>
<polygon fill="midnightblue" stroke="midnightblue" points="1034.66,-335.94 1043.88,-330.72 1033.42,-329.05 1034.66,-335.94"/>
</g>
<!-- Node3 -->
<g id="node3" class="node">
<title>Node3</title>
<g id="a_node3"><a xlink:href="namespacecarta.html#a5e8e9ea12c8402698a665a81e97cf13f" target="_top" xlink:title=" ">
<polygon fill="none" stroke="black" points="655.5,-463 655.5,-482 767.5,-482 767.5,-463 655.5,-463"/>
<text text-anchor="middle" x="711.5" y="-470" font-family="Helvetica,sans-Serif" font-size="10.00">carta::BlockSmooth</text>
</a>
</g>
</g>
<!-- Node2&#45;&gt;Node3 -->
<g id="edge2" class="edge">
<title>Node2&#45;&gt;Node3</title>
<path fill="none" stroke="midnightblue" d="M841.28,-470.65C816.67,-471 790.16,-471.39 767.63,-471.71"/>
<polygon fill="midnightblue" stroke="midnightblue" points="841.38,-474.15 851.32,-470.51 841.28,-467.15 841.38,-474.15"/>
</g>
<!-- Node4 -->
<g id="node4" class="node">
<title>Node4</title>
<g id="a_node4"><a xlink:href="classcarta_1_1Frame.html#addae4d13342b22a4b5e6790f2cc7275d" target="_top" xlink:title=" ">
<polygon fill="none" stroke="black" points="411,-457.5 411,-487.5 582,-487.5 582,-457.5 411,-457.5"/>
<text text-anchor="start" x="419" y="-475.5" font-family="Helvetica,sans-Serif" font-size="10.00">carta::Frame::GetDownsampled</text>
<text text-anchor="middle" x="496.5" y="-464.5" font-family="Helvetica,sans-Serif" font-size="10.00">RasterData</text>
</a>
</g>
</g>
<!-- Node3&#45;&gt;Node4 -->
<g id="edge3" class="edge">
<title>Node3&#45;&gt;Node4</title>
<path fill="none" stroke="midnightblue" d="M645.19,-472.5C625.3,-472.5 603.14,-472.5 582.16,-472.5"/>
<polygon fill="midnightblue" stroke="midnightblue" points="645.37,-476 655.37,-472.5 645.37,-469 645.37,-476"/>
</g>
<!-- Node7 -->
<g id="node7" class="node">
<title>Node7</title>
<g id="a_node7"><a xlink:href="classcarta_1_1Frame.html#a99070db9ce0098cba8ec37c0d3c1d850" target="_top" xlink:title=" ">
<polygon fill="none" stroke="black" points="418.5,-417 418.5,-436 574.5,-436 574.5,-417 418.5,-417"/>
<text text-anchor="middle" x="496.5" y="-424" font-family="Helvetica,sans-Serif" font-size="10.00">carta::Frame::GetRasterData</text>
</a>
</g>
</g>
<!-- Node3&#45;&gt;Node7 -->
<g id="edge6" class="edge">
<title>Node3&#45;&gt;Node7</title>
<path fill="none" stroke="midnightblue" d="M656.17,-460.77C620.64,-453.09 574.83,-443.2 541.58,-436.02"/>
<polygon fill="midnightblue" stroke="midnightblue" points="655.85,-464.28 666.37,-462.97 657.33,-457.44 655.85,-464.28"/>
</g>
<!-- Node11 -->
<g id="node11" class="node">
<title>Node11</title>
<g id="a_node11"><a xlink:href="classcarta_1_1PvPreviewCube.html#adaba25f353bc8314ec76eb5bdce35b39" target="_top" xlink:title=" ">
<polygon fill="none" stroke="black" points="435,-506.5 435,-536.5 558,-536.5 558,-506.5 435,-506.5"/>
<text text-anchor="start" x="443" y="-524.5" font-family="Helvetica,sans-Serif" font-size="10.00">carta::PvPreviewCube</text>
<text text-anchor="middle" x="496.5" y="-513.5" font-family="Helvetica,sans-Serif" font-size="10.00">::LoadCubeData</text>
</a>
</g>
</g>
<!-- Node3&#45;&gt;Node11 -->
<g id="edge10" class="edge">
<title>Node3&#45;&gt;Node11</title>
<path fill="none" stroke="midnightblue" d="M659.2,-484.3C628.75,-491.31 590,-500.22 558.06,-507.57"/>
<polygon fill="midnightblue" stroke="midnightblue" points="660.22,-487.66 669.18,-482.01 658.65,-480.84 660.22,-487.66"/>
</g>
<!-- Node5 -->
<g id="node5" class="node">
<title>Node5</title>
<g id="a_node5"><a xlink:href="classcarta_1_1Frame.html#aa0556decdd99bffc1dd869599f4db918" target="_top" xlink:title=" ">
<polygon fill="none" stroke="black" points="208,-457.5 208,-487.5 360,-487.5 360,-457.5 208,-457.5"/>
<text text-anchor="start" x="216" y="-475.5" font-family="Helvetica,sans-Serif" font-size="10.00">carta::Frame::DoVectorField</text>
<text text-anchor="middle" x="284" y="-464.5" font-family="Helvetica,sans-Serif" font-size="10.00">Calculation</text>
</a>
</g>
</g>
<!-- Node4&#45;&gt;Node5 -->
<g id="edge4" class="edge">
<title>Node4&#45;&gt;Node5</title>
<path fill="none" stroke="midnightblue" d="M400.48,-472.5C386.92,-472.5 373.14,-472.5 360.03,-472.5"/>
<polygon fill="midnightblue" stroke="midnightblue" points="400.79,-476 410.79,-472.5 400.79,-469 400.79,-476"/>
</g>
<!-- Node6 -->
<g id="node6" class="node">
<title>Node6</title>
<g id="a_node6"><a xlink:href="classcarta_1_1Frame.html#ae3ee51cc1bda05842764364c3f49db45" target="_top" xlink:title=" ">
<polygon fill="none" stroke="black" points="0,-458.5 0,-488.5 161,-488.5 161,-458.5 0,-458.5"/>
<text text-anchor="start" x="8" y="-476.5" font-family="Helvetica,sans-Serif" font-size="10.00">carta::Frame::CalculateVector</text>
<text text-anchor="middle" x="80.5" y="-465.5" font-family="Helvetica,sans-Serif" font-size="10.00">Field</text>
</a>
</g>
</g>
<!-- Node5&#45;&gt;Node6 -->
<g id="edge5" class="edge">
<title>Node5&#45;&gt;Node6</title>
<path fill="none" stroke="midnightblue" d="M197.88,-472.92C185.76,-472.98 173.33,-473.04 161.32,-473.1"/>
<polygon fill="midnightblue" stroke="midnightblue" points="197.99,-476.42 207.97,-472.87 197.95,-469.42 197.99,-476.42"/>
</g>
<!-- Node8 -->
<g id="node8" class="node">
<title>Node8</title>
<g id="a_node8"><a xlink:href="classcarta_1_1Frame.html#a958f69761afea8b1388de6bea20f8b78" target="_top" xlink:title=" ">
<polygon fill="none" stroke="black" points="207.5,-346 207.5,-365 360.5,-365 360.5,-346 207.5,-346"/>
<text text-anchor="middle" x="284" y="-353" font-family="Helvetica,sans-Serif" font-size="10.00">carta::Frame::ContourImage</text>
</a>
</g>
</g>
<!-- Node7&#45;&gt;Node8 -->
<g id="edge7" class="edge">
<title>Node7&#45;&gt;Node8</title>
<path fill="none" stroke="midnightblue" d="M457.62,-413.72C416.12,-399.73 350.51,-377.6 313.27,-365.04"/>
<polygon fill="midnightblue" stroke="midnightblue" points="456.52,-417.04 467.11,-416.92 458.75,-410.41 456.52,-417.04"/>
</g>
<!-- Node9 -->
<g id="node9" class="node">
<title>Node9</title>
<g id="a_node9"><a xlink:href="classcarta_1_1Frame.html#a3b8bcda7531d4fd25f6dbb7be1d4a35e" target="_top" xlink:title=" ">
<polygon fill="none" stroke="black" points="197,-416 197,-435 371,-435 371,-416 197,-416"/>
<text text-anchor="middle" x="284" y="-423" font-family="Helvetica,sans-Serif" font-size="10.00">carta::Frame::GetRasterTileData</text>
</a>
</g>
</g>
<!-- Node7&#45;&gt;Node9 -->
<g id="edge8" class="edge">
<title>Node7&#45;&gt;Node9</title>
<path fill="none" stroke="midnightblue" d="M408.12,-426.08C395.87,-426.03 383.29,-425.97 371.06,-425.91"/>
<polygon fill="midnightblue" stroke="midnightblue" points="408.3,-429.59 418.31,-426.13 408.33,-422.59 408.3,-429.59"/>
</g>
<!-- Node10 -->
<g id="node10" class="node">
<title>Node10</title>
<g id="a_node10"><a xlink:href="classcarta_1_1Frame.html#a8f2a50be837b3421d00d04f527838abd" target="_top" xlink:title=" ">
<polygon fill="none" stroke="black" points="15.5,-409.5 15.5,-439.5 145.5,-439.5 145.5,-409.5 15.5,-409.5"/>
<text text-anchor="start" x="23.5" y="-427.5" font-family="Helvetica,sans-Serif" font-size="10.00">carta::Frame::FillRaster</text>
<text text-anchor="middle" x="80.5" y="-416.5" font-family="Helvetica,sans-Serif" font-size="10.00">TileData</text>
</a>
</g>
</g>
<!-- Node9&#45;&gt;Node10 -->
<g id="edge9" class="edge">
<title>Node9&#45;&gt;Node10</title>
<path fill="none" stroke="midnightblue" d="M186.82,-425.02C172.84,-424.95 158.74,-424.88 145.61,-424.82"/>
<polygon fill="midnightblue" stroke="midnightblue" points="186.94,-428.52 196.96,-425.07 186.98,-421.52 186.94,-428.52"/>
</g>
<!-- Node12 -->
<g id="node12" class="node">
<title>Node12</title>
<g id="a_node12"><a xlink:href="classcarta_1_1PvPreviewCube.html#ad43529f919a8a0bf552fea83db62bdfc" target="_top" xlink:title=" ">
<polygon fill="none" stroke="black" points="222.5,-506.5 222.5,-536.5 345.5,-536.5 345.5,-506.5 222.5,-506.5"/>
<text text-anchor="start" x="230.5" y="-524.5" font-family="Helvetica,sans-Serif" font-size="10.00">carta::PvPreviewCube</text>
<text text-anchor="middle" x="284" y="-513.5" font-family="Helvetica,sans-Serif" font-size="10.00">::GetPreviewImage</text>
</a>
</g>
</g>
<!-- Node11&#45;&gt;Node12 -->
<g id="edge11" class="edge">
<title>Node11&#45;&gt;Node12</title>
<path fill="none" stroke="midnightblue" d="M424.84,-521.5C399.12,-521.5 370.3,-521.5 345.54,-521.5"/>
<polygon fill="midnightblue" stroke="midnightblue" points="424.9,-525 434.9,-521.5 424.9,-518 424.9,-525"/>
</g>
<!-- Node13&#45;&gt;Node3 -->
<g id="edge13" class="edge">
<title>Node13&#45;&gt;Node3</title>
<path fill="none" stroke="midnightblue" d="M854.53,-496.28C826.44,-491.58 794.18,-486.18 767.52,-481.71"/>
<polygon fill="midnightblue" stroke="midnightblue" points="854.23,-499.78 864.67,-497.98 855.38,-492.88 854.23,-499.78"/>
</g>
<!-- Node15 -->
<g id="node15" class="node">
<title>Node15</title>
<g id="a_node15"><a xlink:href="classcarta_1_1Table.html#af157765f3632349e5656375aedf4d94f" target="_top" xlink:title=" ">
<polygon fill="none" stroke="black" points="444.5,-299 444.5,-318 548.5,-318 548.5,-299 444.5,-299"/>
<text text-anchor="middle" x="496.5" y="-306" font-family="Helvetica,sans-Serif" font-size="10.00">carta::Table::Table</text>
</a>
</g>
</g>
<!-- Node14&#45;&gt;Node15 -->
<g id="edge15" class="edge">
<title>Node14&#45;&gt;Node15</title>
<path fill="none" stroke="midnightblue" d="M826.94,-315.49C740.97,-313.67 617.35,-311.04 548.59,-309.58"/>
<polygon fill="midnightblue" stroke="midnightblue" points="826.9,-318.99 836.97,-315.71 827.05,-311.99 826.9,-318.99"/>
</g>
<!-- Node17 -->
<g id="node17" class="node">
<title>Node17</title>
<g id="a_node17"><a xlink:href="classcarta_1_1Histogram.html#adca34b054443cfdc5585667dbd3ba61a" target="_top" xlink:title=" ">
<polygon fill="none" stroke="black" points="634,-384 634,-403 789,-403 789,-384 634,-384"/>
<text text-anchor="middle" x="711.5" y="-391" font-family="Helvetica,sans-Serif" font-size="10.00">carta::Histogram::Histogram</text>
</a>
</g>
</g>
<!-- Node16&#45;&gt;Node17 -->
<g id="edge17" class="edge">
<title>Node16&#45;&gt;Node17</title>
<path fill="none" stroke="midnightblue" d="M852.62,-393.5C832.31,-393.5 809.95,-393.5 789.18,-393.5"/>
<polygon fill="midnightblue" stroke="midnightblue" points="852.73,-397 862.73,-393.5 852.73,-390 852.73,-397"/>
</g>
<!-- Node18&#45;&gt;Node8 -->
<g id="edge19" class="edge">
<title>Node18&#45;&gt;Node8</title>
<path fill="none" stroke="midnightblue" d="M636.06,-246.22C573.56,-251.83 482.63,-263.9 407,-289.5 365.26,-303.63 320.85,-331.28 298.92,-345.91"/>
<polygon fill="midnightblue" stroke="midnightblue" points="636.56,-249.68 646.22,-245.34 635.96,-242.71 636.56,-249.68"/>
</g>
<!-- Node19&#45;&gt;Node7 -->
<g id="edge21" class="edge">
<title>Node19&#45;&gt;Node7</title>
<path fill="none" stroke="midnightblue" d="M636.08,-429.75C616.22,-429.29 594.72,-428.78 574.71,-428.31"/>
<polygon fill="midnightblue" stroke="midnightblue" points="636.22,-433.26 646.3,-429.99 636.39,-426.26 636.22,-433.26"/>
</g>
<!-- Node21 -->
<g id="node21" class="node">
<title>Node21</title>
<g id="a_node21"><a xlink:href="classcarta_1_1Session.html#aa550cd4106356e47e4254ecddff6f809" target="_top" xlink:title=" ">
<polygon fill="none" stroke="black" points="622,-98.5 622,-128.5 801,-128.5 801,-98.5 622,-98.5"/>
<text text-anchor="start" x="630" y="-116.5" font-family="Helvetica,sans-Serif" font-size="10.00">carta::Session::ExecuteAnimation</text>
<text text-anchor="middle" x="711.5" y="-105.5" font-family="Helvetica,sans-Serif" font-size="10.00">FrameInner</text>
</a>
</g>
</g>
<!-- Node20&#45;&gt;Node21 -->
<g id="edge23" class="edge">
<title>Node20&#45;&gt;Node21</title>
<path fill="none" stroke="midnightblue" d="M828.61,-111.83C819.45,-111.96 810.16,-112.1 801.04,-112.23"/>
<polygon fill="midnightblue" stroke="midnightblue" points="828.95,-115.33 838.9,-111.69 828.85,-108.33 828.95,-115.33"/>
</g>
<!-- Node24 -->
<g id="node24" class="node">
<title>Node24</title>
<g id="a_node24"><a xlink:href="classcarta_1_1Session.html#af5f49139f41c92e209aee736bb1cd260" target="_top" xlink:title=" ">
<polygon fill="none" stroke="black" points="636,-49.5 636,-79.5 787,-79.5 787,-49.5 636,-49.5"/>
<text text-anchor="start" x="644" y="-67.5" font-family="Helvetica,sans-Serif" font-size="10.00">carta::Session::OnSetImage</text>
<text text-anchor="middle" x="711.5" y="-56.5" font-family="Helvetica,sans-Serif" font-size="10.00">Channels</text>
</a>
</g>
</g>
<!-- Node20&#45;&gt;Node24 -->
<g id="edge26" class="edge">
<title>Node20&#45;&gt;Node24</title>
<path fill="none" stroke="midnightblue" d="M843.13,-93.25C822.61,-88.74 800.67,-83.91 780.73,-79.52"/>
<polygon fill="midnightblue" stroke="midnightblue" points="842.55,-96.71 853.07,-95.44 844.05,-89.87 842.55,-96.71"/>
</g>
<!-- Node22 -->
<g id="node22" class="node">
<title>Node22</title>
<g id="a_node22"><a xlink:href="classcarta_1_1Session.html#aa7cbd24871105659a8520975e92d4eab" target="_top" xlink:title=" ">
<polygon fill="none" stroke="black" points="407,-98.5 407,-128.5 586,-128.5 586,-98.5 407,-98.5"/>
<text text-anchor="start" x="415" y="-116.5" font-family="Helvetica,sans-Serif" font-size="10.00">carta::Session::ExecuteAnimation</text>
<text text-anchor="middle" x="496.5" y="-105.5" font-family="Helvetica,sans-Serif" font-size="10.00">Frame</text>
</a>
</g>
</g>
<!-- Node21&#45;&gt;Node22 -->
<g id="edge24" class="edge">
<title>Node21&#45;&gt;Node22</title>
<path fill="none" stroke="midnightblue" d="M611.46,-113.5C603.01,-113.5 594.5,-113.5 586.14,-113.5"/>
<polygon fill="midnightblue" stroke="midnightblue" points="611.71,-117 621.71,-113.5 611.71,-110 611.71,-117"/>
</g>
<!-- Node23 -->
<g id="node23" class="node">
<title>Node23</title>
<g id="a_node23"><a xlink:href="classcarta_1_1AnimationTask.html#a92a52915589d226cf4afd3428ffea271" target="_top" xlink:title=" ">
<polygon fill="none" stroke="black" points="224.5,-98.5 224.5,-128.5 343.5,-128.5 343.5,-98.5 224.5,-98.5"/>
<text text-anchor="start" x="232.5" y="-116.5" font-family="Helvetica,sans-Serif" font-size="10.00">carta::AnimationTask</text>
<text text-anchor="middle" x="284" y="-105.5" font-family="Helvetica,sans-Serif" font-size="10.00">::execute</text>
</a>
</g>
</g>
<!-- Node22&#45;&gt;Node23 -->
<g id="edge25" class="edge">
<title>Node22&#45;&gt;Node23</title>
<path fill="none" stroke="midnightblue" d="M396.78,-113.5C378.59,-113.5 360.15,-113.5 343.63,-113.5"/>
<polygon fill="midnightblue" stroke="midnightblue" points="396.84,-117 406.84,-113.5 396.84,-110 396.84,-117"/>
</g>
<!-- Node25 -->
<g id="node25" class="node">
<title>Node25</title>
<g id="a_node25"><a xlink:href="classcarta_1_1Session.html#a258addc8994b72cb71c51280d3850bf4" target="_top" xlink:title=" ">
<polygon fill="none" stroke="black" points="424,-0.5 424,-30.5 569,-30.5 569,-0.5 424,-0.5"/>
<text text-anchor="start" x="432" y="-18.5" font-family="Helvetica,sans-Serif" font-size="10.00">carta::Session::ExecuteSet</text>
<text text-anchor="middle" x="496.5" y="-7.5" font-family="Helvetica,sans-Serif" font-size="10.00">ChannelEvt</text>
</a>
</g>
</g>
<!-- Node24&#45;&gt;Node25 -->
<g id="edge27" class="edge">
<title>Node24&#45;&gt;Node25</title>
<path fill="none" stroke="midnightblue" d="M635.16,-47.17C611.52,-41.73 585.62,-35.77 562.73,-30.51"/>
<polygon fill="midnightblue" stroke="midnightblue" points="634.62,-50.63 645.15,-49.47 636.18,-43.81 634.62,-50.63"/>
</g>
<!-- Node27 -->
<g id="node27" class="node">
<title>Node27</title>
<g id="a_node27"><a xlink:href="classcarta_1_1Session.html#afe5c090c017ef208f638b96a7eb1ecf0" target="_top" xlink:title=" ">
<polygon fill="none" stroke="black" points="424.5,-49.5 424.5,-79.5 568.5,-79.5 568.5,-49.5 424.5,-49.5"/>
<text text-anchor="start" x="432.5" y="-67.5" font-family="Helvetica,sans-Serif" font-size="10.00">carta::Session::OnResume</text>
<text text-anchor="middle" x="496.5" y="-56.5" font-family="Helvetica,sans-Serif" font-size="10.00">Session</text>
</a>
</g>
</g>
<!-- Node24&#45;&gt;Node27 -->
<g id="edge29" class="edge">
<title>Node24&#45;&gt;Node27</title>
<path fill="none" stroke="midnightblue" d="M625.61,-64.5C606.7,-64.5 586.83,-64.5 568.54,-64.5"/>
<polygon fill="midnightblue" stroke="midnightblue" points="625.7,-68 635.7,-64.5 625.7,-61 625.7,-68"/>
</g>
<!-- Node26 -->
<g id="node26" class="node">
<title>Node26</title>
<g id="a_node26"><a xlink:href="classcarta_1_1SetImageChannelsTask.html#a060a6a6a22fa9d26231e36e640534527" target="_top" xlink:title=" ">
<polygon fill="none" stroke="black" points="203.5,-0.5 203.5,-30.5 364.5,-30.5 364.5,-0.5 203.5,-0.5"/>
<text text-anchor="start" x="211.5" y="-18.5" font-family="Helvetica,sans-Serif" font-size="10.00">carta::SetImageChannelsTask</text>
<text text-anchor="middle" x="284" y="-7.5" font-family="Helvetica,sans-Serif" font-size="10.00">::execute</text>
</a>
</g>
</g>
<!-- Node25&#45;&gt;Node26 -->
<g id="edge28" class="edge">
<title>Node25&#45;&gt;Node26</title>
<path fill="none" stroke="midnightblue" d="M413.52,-15.5C397.46,-15.5 380.65,-15.5 364.67,-15.5"/>
<polygon fill="midnightblue" stroke="midnightblue" points="413.94,-19 423.94,-15.5 413.94,-12 413.94,-19"/>
</g>
<!-- Node28 -->
<g id="node28" class="node">
<title>Node28</title>
<g id="a_node28"><a xlink:href="classcarta_1_1SessionManager.html#a474c31666cb3b22fcbe8af5f945d2950" target="_top" xlink:title=" ">
<polygon fill="none" stroke="black" points="220,-49.5 220,-79.5 348,-79.5 348,-49.5 220,-49.5"/>
<text text-anchor="start" x="228" y="-67.5" font-family="Helvetica,sans-Serif" font-size="10.00">carta::SessionManager</text>
<text text-anchor="middle" x="284" y="-56.5" font-family="Helvetica,sans-Serif" font-size="10.00">::OnMessage</text>
</a>
</g>
</g>
<!-- Node27&#45;&gt;Node28 -->
<g id="edge30" class="edge">
<title>Node27&#45;&gt;Node28</title>
<path fill="none" stroke="midnightblue" d="M413.97,-64.5C392.1,-64.5 368.78,-64.5 348.08,-64.5"/>
<polygon fill="midnightblue" stroke="midnightblue" points="414.23,-68 424.23,-64.5 414.23,-61 414.23,-68"/>
</g>
<!-- Node29 -->
<g id="node29" class="node">
<title>Node29</title>
<g id="a_node29"><a xlink:href="classcarta_1_1SessionManager.html#ab4e4e7f0244bd6843e70ab91652debf6" target="_top" xlink:title=" ">
<polygon fill="none" stroke="black" points="16.5,-49.5 16.5,-79.5 144.5,-79.5 144.5,-49.5 16.5,-49.5"/>
<text text-anchor="start" x="24.5" y="-67.5" font-family="Helvetica,sans-Serif" font-size="10.00">carta::SessionManager</text>
<text text-anchor="middle" x="80.5" y="-56.5" font-family="Helvetica,sans-Serif" font-size="10.00">::RunApp</text>
</a>
</g>
</g>
<!-- Node28&#45;&gt;Node29 -->
<g id="edge31" class="edge">
<title>Node28&#45;&gt;Node29</title>
<path fill="none" stroke="midnightblue" d="M209.54,-64.5C188.33,-64.5 165.37,-64.5 144.82,-64.5"/>
<polygon fill="midnightblue" stroke="midnightblue" points="209.8,-68 219.8,-64.5 209.8,-61 209.8,-68"/>
</g>
<!-- Node31 -->
<g id="node31" class="node">
<title>Node31</title>
<g id="a_node31"><a xlink:href="classcarta_1_1Table.html#a3991348408dd1a1e016abbfcab82f457" target="_top" xlink:title=" ">
<polygon fill="none" stroke="black" points="626,-270 626,-289 797,-289 797,-270 626,-270"/>
<text text-anchor="middle" x="711.5" y="-277" font-family="Helvetica,sans-Serif" font-size="10.00">carta::Table::ConstructFromXML</text>
</a>
</g>
</g>
<!-- Node30&#45;&gt;Node31 -->
<g id="edge33" class="edge">
<title>Node30&#45;&gt;Node31</title>
<path fill="none" stroke="midnightblue" d="M838.16,-279.5C824.62,-279.5 810.58,-279.5 797.01,-279.5"/>
<polygon fill="midnightblue" stroke="midnightblue" points="838.4,-283 848.4,-279.5 838.4,-276 838.4,-283"/>
</g>
<!-- Node31&#45;&gt;Node15 -->
<g id="edge34" class="edge">
<title>Node31&#45;&gt;Node15</title>
<path fill="none" stroke="midnightblue" d="M630.49,-290.39C603.08,-294.12 573.18,-298.2 548.68,-301.53"/>
<polygon fill="midnightblue" stroke="midnightblue" points="631.02,-293.85 640.46,-289.04 630.08,-286.92 631.02,-293.85"/>
</g>
<!-- Node32&#45;&gt;Node18 -->
<g id="edge36" class="edge">
<title>Node32&#45;&gt;Node18</title>
<path fill="none" stroke="midnightblue" d="M863.64,-214.02C832.79,-219.63 795.13,-226.48 765.12,-231.93"/>
<polygon fill="midnightblue" stroke="midnightblue" points="864.6,-217.4 873.81,-212.17 863.35,-210.52 864.6,-217.4"/>
</g>
<!-- Node34 -->
<g id="node34" class="node">
<title>Node34</title>
<g id="a_node34"><a xlink:href="Main_8cc.html#a0ddf1224851353fc92bfbff6f499fa97" target="_top" xlink:title=" ">
<polygon fill="none" stroke="black" points="691,-150 691,-169 732,-169 732,-150 691,-150"/>
<text text-anchor="middle" x="711.5" y="-157" font-family="Helvetica,sans-Serif" font-size="10.00">main</text>
</a>
</g>
</g>
<!-- Node33&#45;&gt;Node34 -->
<g id="edge38" class="edge">
<title>Node33&#45;&gt;Node34</title>
<path fill="none" stroke="midnightblue" d="M850.38,-159.5C808.8,-159.5 759.35,-159.5 732.42,-159.5"/>
<polygon fill="midnightblue" stroke="midnightblue" points="850.49,-163 860.49,-159.5 850.49,-156 850.49,-163"/>
</g>
<!-- Node35&#45;&gt;Node8 -->
<g id="edge40" class="edge">
<title>Node35&#45;&gt;Node8</title>
<path fill="none" stroke="midnightblue" d="M643.07,-355.5C566.24,-355.5 440.98,-355.5 360.82,-355.5"/>
<polygon fill="midnightblue" stroke="midnightblue" points="643.12,-359 653.12,-355.5 643.12,-352 643.12,-359"/>
</g>
</g>
</svg>
