<?xml version="1.0" encoding="UTF-8" standalone="no"?>
<!DOCTYPE svg PUBLIC "-//W3C//DTD SVG 1.1//EN"
 "http://www.w3.org/Graphics/SVG/1.1/DTD/svg11.dtd">
<!-- Generated by graphviz version 2.43.0 (0)
 -->
<!-- Title: carta::FileLoader::GetBeams Pages: 1 -->
<svg width="542pt" height="127pt"
 viewBox="0.00 0.00 542.00 126.50" xmlns="http://www.w3.org/2000/svg" xmlns:xlink="http://www.w3.org/1999/xlink">
<g id="graph0" class="graph" transform="scale(1 1) rotate(0) translate(4 122.5)">
<title>carta::FileLoader::GetBeams</title>
<!-- Node1 -->
<g id="node1" class="node">
<title>Node1</title>
<g id="a_node1"><a xlink:title=" ">
<polygon fill="#bfbfbf" stroke="black" points="0,-49.5 0,-79.5 104,-79.5 104,-49.5 0,-49.5"/>
<text text-anchor="start" x="8" y="-67.5" font-family="Helvetica,sans-Serif" font-size="10.00">carta::FileLoader::</text>
<text text-anchor="middle" x="52" y="-56.5" font-family="Helvetica,sans-Serif" font-size="10.00">GetBeams</text>
</a>
</g>
</g>
<!-- Node2 -->
<g id="node2" class="node">
<title>Node2</title>
<g id="a_node2"><a xlink:href="classMessage.html#a50066c9b8734724d4be0ced5e2143dfd" target="_top" xlink:title=" ">
<polygon fill="none" stroke="black" points="144.5,-99 144.5,-118 239.5,-118 239.5,-99 144.5,-99"/>
<text text-anchor="middle" x="192" y="-106" font-family="Helvetica,sans-Serif" font-size="10.00">Message::Beam</text>
</a>
</g>
</g>
<!-- Node1&#45;&gt;Node2 -->
<g id="edge1" class="edge">
<title>Node1&#45;&gt;Node2</title>
<path fill="none" stroke="midnightblue" d="M100.11,-79.52C116.79,-84.84 135.38,-90.76 151.37,-95.87"/>
<polygon fill="midnightblue" stroke="midnightblue" points="150.37,-99.22 160.96,-98.92 152.49,-92.55 150.37,-99.22"/>
</g>
<!-- Node3 -->
<g id="node3" class="node">
<title>Node3</title>
<g id="a_node3"><a xlink:href="classcarta_1_1FileLoader.html#ad006f05ccd020be05834212598e3a38b" target="_top" xlink:title=" ">
<polygon fill="none" stroke="black" points="140,-49.5 140,-79.5 244,-79.5 244,-49.5 140,-49.5"/>
<text text-anchor="start" x="148" y="-67.5" font-family="Helvetica,sans-Serif" font-size="10.00">carta::FileLoader::</text>
<text text-anchor="middle" x="192" y="-56.5" font-family="Helvetica,sans-Serif" font-size="10.00">GetImage</text>
</a>
</g>
</g>
<!-- Node1&#45;&gt;Node3 -->
<g id="edge2" class="edge">
<title>Node1&#45;&gt;Node3</title>
<path fill="none" stroke="midnightblue" d="M104.39,-64.5C112.56,-64.5 121.08,-64.5 129.46,-64.5"/>
<polygon fill="midnightblue" stroke="midnightblue" points="129.57,-68 139.57,-64.5 129.57,-61 129.57,-68"/>
</g>
<!-- Node8 -->
<g id="node8" class="node">
<title>Node8</title>
<g id="a_node8"><a xlink:href="classcarta_1_1FileLoader.html#a8e756d262c6f5a7af800a7d8e0e8ec17" target="_top" xlink:title=" ">
<polygon fill="none" stroke="black" points="140,-0.5 140,-30.5 244,-30.5 244,-0.5 140,-0.5"/>
<text text-anchor="start" x="148" y="-18.5" font-family="Helvetica,sans-Serif" font-size="10.00">carta::FileLoader::</text>
<text text-anchor="middle" x="192" y="-7.5" font-family="Helvetica,sans-Serif" font-size="10.00">IsHistoryBeam</text>
</a>
</g>
</g>
<!-- Node1&#45;&gt;Node8 -->
<g id="edge7" class="edge">
<title>Node1&#45;&gt;Node8</title>
<path fill="none" stroke="midnightblue" d="M95.53,-49.4C109.17,-44.55 124.44,-39.13 138.7,-34.07"/>
<polygon fill="midnightblue" stroke="midnightblue" points="140.12,-37.28 148.37,-30.64 137.78,-30.68 140.12,-37.28"/>
</g>
<!-- Node4 -->
<g id="node4" class="node">
<title>Node4</title>
<g id="a_node4"><a xlink:href="classcarta_1_1FileLoader.html#a1ec9887a1de28cd550d9ebe22f016976" target="_top" xlink:title=" ">
<polygon fill="none" stroke="black" points="280,-73.5 280,-103.5 394,-103.5 394,-73.5 280,-73.5"/>
<text text-anchor="start" x="288" y="-91.5" font-family="Helvetica,sans-Serif" font-size="10.00">carta::FileLoader::</text>
<text text-anchor="middle" x="337" y="-80.5" font-family="Helvetica,sans-Serif" font-size="10.00">IsComplexDataType</text>
</a>
</g>
</g>
<!-- Node3&#45;&gt;Node4 -->
<g id="edge3" class="edge">
<title>Node3&#45;&gt;Node4</title>
<path fill="none" stroke="midnightblue" d="M244.22,-73.1C252.52,-74.49 261.21,-75.95 269.8,-77.39"/>
<polygon fill="midnightblue" stroke="midnightblue" points="269.36,-80.86 279.8,-79.07 270.52,-73.96 269.36,-80.86"/>
</g>
<!-- Node5 -->
<g id="node5" class="node">
<title>Node5</title>
<g id="a_node5"><a xlink:href="classcarta_1_1FileLoader.html#a5d91045ea868fea755a7be026806cea0" target="_top" xlink:title=" ">
<polygon fill="none" stroke="black" points="285,-24.5 285,-54.5 389,-54.5 389,-24.5 285,-24.5"/>
<text text-anchor="start" x="293" y="-42.5" font-family="Helvetica,sans-Serif" font-size="10.00">carta::FileLoader::</text>
<text text-anchor="middle" x="337" y="-31.5" font-family="Helvetica,sans-Serif" font-size="10.00">OpenFile</text>
</a>
</g>
</g>
<!-- Node3&#45;&gt;Node5 -->
<g id="edge4" class="edge">
<title>Node3&#45;&gt;Node5</title>
<path fill="none" stroke="midnightblue" d="M244.22,-55.55C254.08,-53.82 264.5,-52 274.64,-50.23"/>
<polygon fill="midnightblue" stroke="midnightblue" points="275.41,-53.65 284.65,-48.48 274.2,-46.75 275.41,-53.65"/>
</g>
<!-- Node6 -->
<g id="node6" class="node">
<title>Node6</title>
<g id="a_node6"><a xlink:href="classcarta_1_1FileLoader.html#ad372c5af25778bf6f0621b587e1f9c78" target="_top" xlink:title=" ">
<polygon fill="none" stroke="black" points="430,-46.5 430,-76.5 534,-76.5 534,-46.5 430,-46.5"/>
<text text-anchor="start" x="438" y="-64.5" font-family="Helvetica,sans-Serif" font-size="10.00">carta::FileLoader::</text>
<text text-anchor="middle" x="482" y="-53.5" font-family="Helvetica,sans-Serif" font-size="10.00">AllocateImage</text>
</a>
</g>
</g>
<!-- Node5&#45;&gt;Node6 -->
<g id="edge5" class="edge">
<title>Node5&#45;&gt;Node6</title>
<path fill="none" stroke="midnightblue" d="M389.22,-47.38C399.08,-48.9 409.5,-50.5 419.64,-52.06"/>
<polygon fill="midnightblue" stroke="midnightblue" points="419.24,-55.54 429.65,-53.6 420.3,-48.62 419.24,-55.54"/>
</g>
<!-- Node7 -->
<g id="node7" class="node">
<title>Node7</title>
<g id="a_node7"><a xlink:href="Casacore_8cc.html#a8733accb41db0f83703779c667ae852e" target="_top" xlink:title=" ">
<polygon fill="none" stroke="black" points="438.5,-8 438.5,-27 525.5,-27 525.5,-8 438.5,-8"/>
<text text-anchor="middle" x="482" y="-15" font-family="Helvetica,sans-Serif" font-size="10.00">NormalizeUnit</text>
</a>
</g>
</g>
<!-- Node5&#45;&gt;Node7 -->
<g id="edge6" class="edge">
<title>Node5&#45;&gt;Node7</title>
<path fill="none" stroke="midnightblue" d="M389.22,-31.62C401.87,-29.67 415.44,-27.59 428.16,-25.63"/>
<polygon fill="midnightblue" stroke="midnightblue" points="428.8,-29.07 438.15,-24.09 427.73,-22.15 428.8,-29.07"/>
</g>
</g>
</svg>
