<?xml version="1.0" encoding="UTF-8" standalone="no"?>
<!DOCTYPE svg PUBLIC "-//W3C//DTD SVG 1.1//EN"
 "http://www.w3.org/Graphics/SVG/1.1/DTD/svg11.dtd">
<!-- Generated by graphviz version 2.43.0 (0)
 -->
<!-- Title: carta::RegionHandler::~RegionHandler Pages: 1 -->
<svg width="728pt" height="161pt"
 viewBox="0.00 0.00 728.00 161.00" xmlns="http://www.w3.org/2000/svg" xmlns:xlink="http://www.w3.org/1999/xlink">
<g id="graph0" class="graph" transform="scale(1 1) rotate(0) translate(4 157)">
<title>carta::RegionHandler::~RegionHandler</title>
<!-- Node1 -->
<g id="node1" class="node">
<title>Node1</title>
<g id="a_node1"><a xlink:title=" ">
<polygon fill="#bfbfbf" stroke="black" points="0,-48.5 0,-78.5 119,-78.5 119,-48.5 0,-48.5"/>
<text text-anchor="start" x="8" y="-66.5" font-family="Helvetica,sans-Serif" font-size="10.00">carta::RegionHandler</text>
<text text-anchor="middle" x="59.5" y="-55.5" font-family="Helvetica,sans-Serif" font-size="10.00">::~RegionHandler</text>
</a>
</g>
</g>
<!-- Node2 -->
<g id="node2" class="node">
<title>Node2</title>
<g id="a_node2"><a xlink:href="classcarta_1_1RegionHandler.html#a63f395d4e7fa9500f951598eaab516c7" target="_top" xlink:title=" ">
<polygon fill="none" stroke="black" points="155,-71.5 155,-101.5 274,-101.5 274,-71.5 155,-71.5"/>
<text text-anchor="start" x="163" y="-89.5" font-family="Helvetica,sans-Serif" font-size="10.00">carta::RegionHandler</text>
<text text-anchor="middle" x="214.5" y="-78.5" font-family="Helvetica,sans-Serif" font-size="10.00">::RemoveFrame</text>
</a>
</g>
</g>
<!-- Node1&#45;&gt;Node2 -->
<g id="edge1" class="edge">
<title>Node1&#45;&gt;Node2</title>
<path fill="none" stroke="midnightblue" d="M119.22,-72.33C127.64,-73.59 136.36,-74.9 144.95,-76.19"/>
<polygon fill="midnightblue" stroke="midnightblue" points="144.53,-79.67 154.94,-77.7 145.57,-72.75 144.53,-79.67"/>
</g>
<!-- Node4 -->
<g id="node4" class="node">
<title>Node4</title>
<g id="a_node4"><a xlink:href="classcarta_1_1RegionHandler.html#a2928967315eebcaef940d868586e5d85" target="_top" xlink:title=" ">
<polygon fill="none" stroke="black" points="340,-24.5 340,-54.5 459,-54.5 459,-24.5 340,-24.5"/>
<text text-anchor="start" x="348" y="-42.5" font-family="Helvetica,sans-Serif" font-size="10.00">carta::RegionHandler</text>
<text text-anchor="middle" x="399.5" y="-31.5" font-family="Helvetica,sans-Serif" font-size="10.00">::RemoveRegion</text>
</a>
</g>
</g>
<!-- Node1&#45;&gt;Node4 -->
<g id="edge7" class="edge">
<title>Node1&#45;&gt;Node4</title>
<path fill="none" stroke="midnightblue" d="M119.38,-59.32C177.96,-55.16 267.82,-48.78 329.67,-44.39"/>
<polygon fill="midnightblue" stroke="midnightblue" points="330.01,-47.87 339.73,-43.67 329.51,-40.89 330.01,-47.87"/>
</g>
<!-- Node3 -->
<g id="node3" class="node">
<title>Node3</title>
<g id="a_node3"><a xlink:href="classcarta_1_1RegionHandler.html#a390e02b6d680c5b09e8957a65468c8d0" target="_top" xlink:title=" ">
<polygon fill="none" stroke="black" points="310,-122.5 310,-152.5 489,-152.5 489,-122.5 310,-122.5"/>
<text text-anchor="start" x="318" y="-140.5" font-family="Helvetica,sans-Serif" font-size="10.00">carta::RegionHandler</text>
<text text-anchor="middle" x="399.5" y="-129.5" font-family="Helvetica,sans-Serif" font-size="10.00">::RemoveFileRequirementsCache</text>
</a>
</g>
</g>
<!-- Node2&#45;&gt;Node3 -->
<g id="edge2" class="edge">
<title>Node2&#45;&gt;Node3</title>
<path fill="none" stroke="midnightblue" d="M267.95,-101.62C281.63,-105.53 296.36,-109.7 310,-113.5 317.25,-115.52 324.84,-117.61 332.4,-119.68"/>
<polygon fill="midnightblue" stroke="midnightblue" points="331.72,-123.12 342.29,-122.38 333.56,-116.37 331.72,-123.12"/>
</g>
<!-- Node2&#45;&gt;Node4 -->
<g id="edge3" class="edge">
<title>Node2&#45;&gt;Node4</title>
<path fill="none" stroke="midnightblue" d="M273.91,-71.5C291.82,-66.9 311.68,-61.8 330.19,-57.04"/>
<polygon fill="midnightblue" stroke="midnightblue" points="331.21,-60.4 340.02,-54.52 329.47,-53.62 331.21,-60.4"/>
</g>
<!-- Node7 -->
<g id="node7" class="node">
<title>Node7</title>
<g id="a_node7"><a xlink:href="classcarta_1_1RegionHandler.html#a48531b61f365e6d5a8a790e8b1725464" target="_top" xlink:title=" ">
<polygon fill="none" stroke="black" points="340,-73.5 340,-103.5 459,-103.5 459,-73.5 340,-73.5"/>
<text text-anchor="start" x="348" y="-91.5" font-family="Helvetica,sans-Serif" font-size="10.00">carta::RegionHandler</text>
<text text-anchor="middle" x="399.5" y="-80.5" font-family="Helvetica,sans-Serif" font-size="10.00">::StopPvCalc</text>
</a>
</g>
</g>
<!-- Node2&#45;&gt;Node7 -->
<g id="edge6" class="edge">
<title>Node2&#45;&gt;Node7</title>
<path fill="none" stroke="midnightblue" d="M274.16,-87.14C291.89,-87.33 311.51,-87.55 329.84,-87.75"/>
<polygon fill="midnightblue" stroke="midnightblue" points="329.82,-91.25 339.86,-87.86 329.9,-84.25 329.82,-91.25"/>
</g>
<!-- Node5 -->
<g id="node5" class="node">
<title>Node5</title>
<g id="a_node5"><a xlink:href="classcarta_1_1RegionHandler.html#a9e8b41c9fe29c95b66a44f78490bbcae" target="_top" xlink:title=" ">
<polygon fill="none" stroke="black" points="563,-49.5 563,-79.5 682,-79.5 682,-49.5 563,-49.5"/>
<text text-anchor="start" x="571" y="-67.5" font-family="Helvetica,sans-Serif" font-size="10.00">carta::RegionHandler</text>
<text text-anchor="middle" x="622.5" y="-56.5" font-family="Helvetica,sans-Serif" font-size="10.00">::RegionSet</text>
</a>
</g>
</g>
<!-- Node4&#45;&gt;Node5 -->
<g id="edge4" class="edge">
<title>Node4&#45;&gt;Node5</title>
<path fill="none" stroke="midnightblue" d="M459.14,-46.13C487.98,-49.4 522.91,-53.35 552.97,-56.75"/>
<polygon fill="midnightblue" stroke="midnightblue" points="552.64,-60.23 562.97,-57.88 553.42,-53.28 552.64,-60.23"/>
</g>
<!-- Node6 -->
<g id="node6" class="node">
<title>Node6</title>
<g id="a_node6"><a xlink:href="classcarta_1_1RegionHandler.html#a772046cac78b7c01f5562e68a07c7447" target="_top" xlink:title=" ">
<polygon fill="none" stroke="black" points="525,-0.5 525,-30.5 720,-30.5 720,-0.5 525,-0.5"/>
<text text-anchor="start" x="533" y="-18.5" font-family="Helvetica,sans-Serif" font-size="10.00">carta::RegionHandler</text>
<text text-anchor="middle" x="622.5" y="-7.5" font-family="Helvetica,sans-Serif" font-size="10.00">::RemoveRegionRequirementsCache</text>
</a>
</g>
</g>
<!-- Node4&#45;&gt;Node6 -->
<g id="edge5" class="edge">
<title>Node4&#45;&gt;Node6</title>
<path fill="none" stroke="midnightblue" d="M459.14,-33.13C476.35,-31.26 495.72,-29.16 514.94,-27.07"/>
<polygon fill="midnightblue" stroke="midnightblue" points="515.4,-30.54 524.96,-25.98 514.64,-23.58 515.4,-30.54"/>
</g>
</g>
</svg>
