<?xml version="1.0" encoding="UTF-8" standalone="no"?>
<!DOCTYPE svg PUBLIC "-//W3C//DTD SVG 1.1//EN"
 "http://www.w3.org/Graphics/SVG/1.1/DTD/svg11.dtd">
<!-- Generated by graphviz version 2.43.0 (0)
 -->
<!-- Title: carta::RegionHandler::FrameSet Pages: 1 -->
<svg width="1306pt" height="655pt"
 viewBox="0.00 0.00 1306.00 655.16" xmlns="http://www.w3.org/2000/svg" xmlns:xlink="http://www.w3.org/1999/xlink">
<g id="graph0" class="graph" transform="scale(1 1) rotate(0) translate(4 651.16)">
<title>carta::RegionHandler::FrameSet</title>
<!-- Node1 -->
<g id="node1" class="node">
<title>Node1</title>
<g id="a_node1"><a xlink:title=" ">
<polygon fill="#bfbfbf" stroke="black" points="1179,-386.47 1179,-416.47 1298,-416.47 1298,-386.47 1179,-386.47"/>
<text text-anchor="start" x="1187" y="-404.47" font-family="Helvetica,sans-Serif" font-size="10.00">carta::RegionHandler</text>
<text text-anchor="middle" x="1238.5" y="-393.47" font-family="Helvetica,sans-Serif" font-size="10.00">::FrameSet</text>
</a>
</g>
</g>
<!-- Node2 -->
<g id="node2" class="node">
<title>Node2</title>
<g id="a_node2"><a xlink:href="classcarta_1_1RegionHandler.html#a53807aa22abb92b35725054a015e12aa" target="_top" xlink:title=" ">
<polygon fill="none" stroke="black" points="509.5,-616.47 509.5,-646.47 628.5,-646.47 628.5,-616.47 509.5,-616.47"/>
<text text-anchor="start" x="517.5" y="-634.47" font-family="Helvetica,sans-Serif" font-size="10.00">carta::RegionHandler</text>
<text text-anchor="middle" x="569" y="-623.47" font-family="Helvetica,sans-Serif" font-size="10.00">::CalculatePvImage</text>
</a>
</g>
</g>
<!-- Node1&#45;&gt;Node2 -->
<g id="edge1" class="edge">
<title>Node1&#45;&gt;Node2</title>
<path fill="none" stroke="midnightblue" d="M1219.12,-424.52C1181.43,-469.78 1090.31,-569.35 988,-609.47 867.24,-656.83 711.66,-648.84 628.53,-639.67"/>
<polygon fill="midnightblue" stroke="midnightblue" points="1221.88,-426.68 1225.52,-416.73 1216.47,-422.23 1221.88,-426.68"/>
</g>
<!-- Node3 -->
<g id="node3" class="node">
<title>Node3</title>
<g id="a_node3"><a xlink:href="classcarta_1_1RegionHandler.html#a8c787facbcb265d7fa434e05324f2c9e" target="_top" xlink:title=" ">
<polygon fill="none" stroke="black" points="1024,-173.47 1024,-203.47 1143,-203.47 1143,-173.47 1024,-173.47"/>
<text text-anchor="start" x="1032" y="-191.47" font-family="Helvetica,sans-Serif" font-size="10.00">carta::RegionHandler</text>
<text text-anchor="middle" x="1083.5" y="-180.47" font-family="Helvetica,sans-Serif" font-size="10.00">::RegionFileIdsValid</text>
</a>
</g>
</g>
<!-- Node1&#45;&gt;Node3 -->
<g id="edge2" class="edge">
<title>Node1&#45;&gt;Node3</title>
<path fill="none" stroke="midnightblue" d="M1220.48,-377.78C1188.83,-333.71 1121.71,-240.28 1095.4,-203.65"/>
<polygon fill="midnightblue" stroke="midnightblue" points="1217.82,-380.07 1226.5,-386.15 1223.51,-375.99 1217.82,-380.07"/>
</g>
<!-- Node4 -->
<g id="node4" class="node">
<title>Node4</title>
<g id="a_node4"><a xlink:href="classcarta_1_1RegionHandler.html#a5c734366cb3b4b307c54a66251dd270c" target="_top" xlink:title=" ">
<polygon fill="none" stroke="black" points="869,-317.47 869,-347.47 988,-347.47 988,-317.47 869,-317.47"/>
<text text-anchor="start" x="877" y="-335.47" font-family="Helvetica,sans-Serif" font-size="10.00">carta::RegionHandler</text>
<text text-anchor="middle" x="928.5" y="-324.47" font-family="Helvetica,sans-Serif" font-size="10.00">::ApplyRegionToFile</text>
</a>
</g>
</g>
<!-- Node3&#45;&gt;Node4 -->
<g id="edge3" class="edge">
<title>Node3&#45;&gt;Node4</title>
<path fill="none" stroke="midnightblue" d="M1058.98,-210.61C1027.65,-240.1 973.01,-291.52 945.83,-317.1"/>
<polygon fill="midnightblue" stroke="midnightblue" points="1061.53,-213.01 1066.42,-203.61 1056.73,-207.92 1061.53,-213.01"/>
</g>
<!-- Node9 -->
<g id="node9" class="node">
<title>Node9</title>
<g id="a_node9"><a xlink:href="classcarta_1_1RegionHandler.html#a0e7c8e5a778bb77b13dc9bdfe48f26bc" target="_top" xlink:title=" ">
<polygon fill="none" stroke="black" points="683.5,-528.47 683.5,-558.47 832.5,-558.47 832.5,-528.47 683.5,-528.47"/>
<text text-anchor="start" x="691.5" y="-546.47" font-family="Helvetica,sans-Serif" font-size="10.00">carta::RegionHandler</text>
<text text-anchor="middle" x="758" y="-535.47" font-family="Helvetica,sans-Serif" font-size="10.00">::FillPointSpatialProfileData</text>
</a>
</g>
</g>
<!-- Node3&#45;&gt;Node9 -->
<g id="edge26" class="edge">
<title>Node3&#45;&gt;Node9</title>
<path fill="none" stroke="midnightblue" d="M1071.65,-213.23C1042.84,-275.84 958,-441.01 833,-519.47 827.62,-522.85 821.73,-525.79 815.68,-528.35"/>
<polygon fill="midnightblue" stroke="midnightblue" points="1075,-214.32 1075.94,-203.77 1068.62,-211.43 1075,-214.32"/>
</g>
<!-- Node11 -->
<g id="node11" class="node">
<title>Node11</title>
<g id="a_node11"><a xlink:href="classcarta_1_1RegionHandler.html#a7797d9c5eca341dcb490a338fc66967a" target="_top" xlink:title=" ">
<polygon fill="none" stroke="black" points="684,-69.47 684,-99.47 832,-99.47 832,-69.47 684,-69.47"/>
<text text-anchor="start" x="692" y="-87.47" font-family="Helvetica,sans-Serif" font-size="10.00">carta::RegionHandler</text>
<text text-anchor="middle" x="758" y="-76.47" font-family="Helvetica,sans-Serif" font-size="10.00">::GetRegionHistogramData</text>
</a>
</g>
</g>
<!-- Node3&#45;&gt;Node11 -->
<g id="edge30" class="edge">
<title>Node3&#45;&gt;Node11</title>
<path fill="none" stroke="midnightblue" d="M1060.89,-165.94C1043.05,-148.83 1016.16,-126.29 988,-114.47 938.64,-93.76 878.49,-86.49 832.22,-84.28"/>
<polygon fill="midnightblue" stroke="midnightblue" points="1058.85,-168.84 1068.43,-173.36 1063.76,-163.85 1058.85,-168.84"/>
</g>
<!-- Node12 -->
<g id="node12" class="node">
<title>Node12</title>
<g id="a_node12"><a xlink:href="classcarta_1_1RegionHandler.html#a781809901786ab1cf5a4705a77ebe9bb" target="_top" xlink:title=" ">
<polygon fill="none" stroke="black" points="496.5,-58.47 496.5,-88.47 641.5,-88.47 641.5,-58.47 496.5,-58.47"/>
<text text-anchor="start" x="504.5" y="-76.47" font-family="Helvetica,sans-Serif" font-size="10.00">carta::RegionHandler</text>
<text text-anchor="middle" x="569" y="-65.47" font-family="Helvetica,sans-Serif" font-size="10.00">::FillRegionHistogramData</text>
</a>
</g>
</g>
<!-- Node3&#45;&gt;Node12 -->
<g id="edge27" class="edge">
<title>Node3&#45;&gt;Node12</title>
<path fill="none" stroke="midnightblue" d="M1068.11,-164.57C1051.91,-139.93 1023.2,-102.51 988,-83.47 874.67,-22.17 717.54,-41.07 631.84,-58.43"/>
<polygon fill="midnightblue" stroke="midnightblue" points="1065.37,-166.77 1073.7,-173.32 1071.27,-163.01 1065.37,-166.77"/>
</g>
<!-- Node13 -->
<g id="node13" class="node">
<title>Node13</title>
<g id="a_node13"><a xlink:href="classcarta_1_1RegionHandler.html#aa5624138d4060512518d54f2b6709a25" target="_top" xlink:title=" ">
<polygon fill="none" stroke="black" points="689.5,-195.47 689.5,-225.47 826.5,-225.47 826.5,-195.47 689.5,-195.47"/>
<text text-anchor="start" x="697.5" y="-213.47" font-family="Helvetica,sans-Serif" font-size="10.00">carta::RegionHandler</text>
<text text-anchor="middle" x="758" y="-202.47" font-family="Helvetica,sans-Serif" font-size="10.00">::GetRegionSpectralData</text>
</a>
</g>
</g>
<!-- Node3&#45;&gt;Node13 -->
<g id="edge31" class="edge">
<title>Node3&#45;&gt;Node13</title>
<path fill="none" stroke="midnightblue" d="M1013.88,-193.14C958.7,-196.89 881.58,-202.14 826.66,-205.87"/>
<polygon fill="midnightblue" stroke="midnightblue" points="1014.18,-196.63 1023.92,-192.46 1013.7,-189.64 1014.18,-196.63"/>
</g>
<!-- Node14 -->
<g id="node14" class="node">
<title>Node14</title>
<g id="a_node14"><a xlink:href="classcarta_1_1RegionHandler.html#adf0a26d068e926212c682fdf15d367fe" target="_top" xlink:title=" ">
<polygon fill="none" stroke="black" points="503.5,-123.47 503.5,-153.47 634.5,-153.47 634.5,-123.47 503.5,-123.47"/>
<text text-anchor="start" x="511.5" y="-141.47" font-family="Helvetica,sans-Serif" font-size="10.00">carta::RegionHandler</text>
<text text-anchor="middle" x="569" y="-130.47" font-family="Helvetica,sans-Serif" font-size="10.00">::FillSpectralProfileData</text>
</a>
</g>
</g>
<!-- Node3&#45;&gt;Node14 -->
<g id="edge29" class="edge">
<title>Node3&#45;&gt;Node14</title>
<path fill="none" stroke="midnightblue" d="M1014.16,-172.86C1005.39,-171.19 996.51,-169.67 988,-168.47 863.73,-150.95 717.14,-143.42 634.74,-140.37"/>
<polygon fill="midnightblue" stroke="midnightblue" points="1013.51,-176.29 1023.99,-174.79 1014.86,-169.43 1013.51,-176.29"/>
</g>
<!-- Node19 -->
<g id="node19" class="node">
<title>Node19</title>
<g id="a_node19"><a xlink:href="classcarta_1_1RegionHandler.html#a6bbb668cf434d85d9be739191dd15c19" target="_top" xlink:title=" ">
<polygon fill="none" stroke="black" points="0,-99.47 0,-129.47 145,-129.47 145,-99.47 0,-99.47"/>
<text text-anchor="start" x="8" y="-117.47" font-family="Helvetica,sans-Serif" font-size="10.00">carta::RegionHandler</text>
<text text-anchor="middle" x="72.5" y="-106.47" font-family="Helvetica,sans-Serif" font-size="10.00">::FillLineSpatialProfileData</text>
</a>
</g>
</g>
<!-- Node3&#45;&gt;Node19 -->
<g id="edge25" class="edge">
<title>Node3&#45;&gt;Node19</title>
<path fill="none" stroke="midnightblue" d="M1073.66,-163.8C1060.45,-130.74 1032.26,-72.8 988,-43.47 901.81,13.64 862.4,-2.47 759,-2.47 759,-2.47 759,-2.47 394.5,-2.47 278.22,-2.47 150.81,-68.8 98.26,-99.37"/>
<polygon fill="midnightblue" stroke="midnightblue" points="1070.42,-165.13 1077.28,-173.21 1076.95,-162.62 1070.42,-165.13"/>
</g>
<!-- Node21 -->
<g id="node21" class="node">
<title>Node21</title>
<g id="a_node21"><a xlink:href="classcarta_1_1RegionHandler.html#a409ecbf6d655eab69b1465b819cffb85" target="_top" xlink:title=" ">
<polygon fill="none" stroke="black" points="509.5,-213.47 509.5,-243.47 628.5,-243.47 628.5,-213.47 509.5,-213.47"/>
<text text-anchor="start" x="517.5" y="-231.47" font-family="Helvetica,sans-Serif" font-size="10.00">carta::RegionHandler</text>
<text text-anchor="middle" x="569" y="-220.47" font-family="Helvetica,sans-Serif" font-size="10.00">::FillRegionStatsData</text>
</a>
</g>
</g>
<!-- Node3&#45;&gt;Node21 -->
<g id="edge28" class="edge">
<title>Node3&#45;&gt;Node21</title>
<path fill="none" stroke="midnightblue" d="M1013.71,-180.16C933.55,-172.26 797.48,-164.43 683,-185.47 654.1,-190.79 623.01,-203.15 600.78,-213.26"/>
<polygon fill="midnightblue" stroke="midnightblue" points="1013.38,-183.64 1023.68,-181.17 1014.08,-176.68 1013.38,-183.64"/>
</g>
<!-- Node22 -->
<g id="node22" class="node">
<title>Node22</title>
<g id="a_node22"><a xlink:href="classcarta_1_1RegionHandler.html#a1791c682b1123057f3c70c4ed6378252" target="_top" xlink:title=" ">
<polygon fill="none" stroke="black" points="869,-569.47 869,-599.47 988,-599.47 988,-569.47 869,-569.47"/>
<text text-anchor="start" x="877" y="-587.47" font-family="Helvetica,sans-Serif" font-size="10.00">carta::RegionHandler</text>
<text text-anchor="middle" x="928.5" y="-576.47" font-family="Helvetica,sans-Serif" font-size="10.00">::CancelLineProfiles</text>
</a>
</g>
</g>
<!-- Node3&#45;&gt;Node22 -->
<g id="edge23" class="edge">
<title>Node3&#45;&gt;Node22</title>
<path fill="none" stroke="midnightblue" d="M1075.03,-213.18C1060.15,-261.63 1025.04,-372.27 988,-462.47 971.85,-501.8 949.29,-546.5 937.46,-569.32"/>
<polygon fill="midnightblue" stroke="midnightblue" points="1078.4,-214.13 1077.97,-203.55 1071.7,-212.09 1078.4,-214.13"/>
</g>
<!-- Node5 -->
<g id="node5" class="node">
<title>Node5</title>
<g id="a_node5"><a xlink:href="classcarta_1_1RegionHandler.html#aa839bd4075f976babaaa3e2f8d4a4f2f" target="_top" xlink:title=" ">
<polygon fill="none" stroke="black" points="698.5,-293.47 698.5,-323.47 817.5,-323.47 817.5,-293.47 698.5,-293.47"/>
<text text-anchor="start" x="706.5" y="-311.47" font-family="Helvetica,sans-Serif" font-size="10.00">carta::RegionHandler</text>
<text text-anchor="middle" x="758" y="-300.47" font-family="Helvetica,sans-Serif" font-size="10.00">::ApplyRegionToFile</text>
</a>
</g>
</g>
<!-- Node4&#45;&gt;Node5 -->
<g id="edge4" class="edge">
<title>Node4&#45;&gt;Node5</title>
<path fill="none" stroke="midnightblue" d="M858.35,-322.62C844.82,-320.7 830.76,-318.69 817.62,-316.82"/>
<polygon fill="midnightblue" stroke="midnightblue" points="858.17,-326.13 868.57,-324.08 859.16,-319.2 858.17,-326.13"/>
</g>
<!-- Node6 -->
<g id="node6" class="node">
<title>Node6</title>
<g id="a_node6"><a xlink:href="classcarta_1_1RegionHandler.html#a18c5dbca7dd3627e96767d039a80009d" target="_top" xlink:title=" ">
<polygon fill="none" stroke="black" points="698.5,-430.47 698.5,-460.47 817.5,-460.47 817.5,-430.47 698.5,-430.47"/>
<text text-anchor="start" x="706.5" y="-448.47" font-family="Helvetica,sans-Serif" font-size="10.00">carta::RegionHandler</text>
<text text-anchor="middle" x="758" y="-437.47" font-family="Helvetica,sans-Serif" font-size="10.00">::CalculateMoments</text>
</a>
</g>
</g>
<!-- Node4&#45;&gt;Node6 -->
<g id="edge5" class="edge">
<title>Node4&#45;&gt;Node6</title>
<path fill="none" stroke="midnightblue" d="M906.19,-354.99C888.07,-373.16 860.64,-398.41 833,-415.47 823.8,-421.15 813.33,-426.15 803.23,-430.37"/>
<polygon fill="midnightblue" stroke="midnightblue" points="908.86,-357.27 913.37,-347.68 903.86,-352.36 908.86,-357.27"/>
</g>
<!-- Node7 -->
<g id="node7" class="node">
<title>Node7</title>
<g id="a_node7"><a xlink:href="classcarta_1_1RegionHandler.html#a9fc8e855f922f23cc072d0706f53c805" target="_top" xlink:title=" ">
<polygon fill="none" stroke="black" points="683,-479.47 683,-509.47 833,-509.47 833,-479.47 683,-479.47"/>
<text text-anchor="start" x="691" y="-497.47" font-family="Helvetica,sans-Serif" font-size="10.00">carta::RegionHandler</text>
<text text-anchor="middle" x="758" y="-486.47" font-family="Helvetica,sans-Serif" font-size="10.00">::CalculatePvPreviewImage</text>
</a>
</g>
</g>
<!-- Node4&#45;&gt;Node7 -->
<g id="edge6" class="edge">
<title>Node4&#45;&gt;Node7</title>
<path fill="none" stroke="midnightblue" d="M913.6,-356.57C892.89,-391.74 854.13,-454.67 833,-470.47 828.46,-473.87 823.41,-476.8 818.15,-479.32"/>
<polygon fill="midnightblue" stroke="midnightblue" points="916.67,-358.26 918.69,-347.86 910.62,-354.73 916.67,-358.26"/>
</g>
<!-- Node4&#45;&gt;Node9 -->
<g id="edge9" class="edge">
<title>Node4&#45;&gt;Node9</title>
<path fill="none" stroke="midnightblue" d="M912.72,-356.34C900.36,-376.73 882.61,-407.04 869,-434.47 850.76,-471.22 863.24,-491.75 833,-519.47 829.22,-522.94 824.93,-525.91 820.36,-528.45"/>
<polygon fill="midnightblue" stroke="midnightblue" points="915.77,-358.07 917.99,-347.71 909.79,-354.42 915.77,-358.07"/>
</g>
<!-- Node10 -->
<g id="node10" class="node">
<title>Node10</title>
<g id="a_node10"><a xlink:href="classcarta_1_1RegionHandler.html#a8a692669b14a98aec1f36f2617910138" target="_top" xlink:title=" ">
<polygon fill="none" stroke="black" points="698.5,-342.47 698.5,-372.47 817.5,-372.47 817.5,-342.47 698.5,-342.47"/>
<text text-anchor="start" x="706.5" y="-360.47" font-family="Helvetica,sans-Serif" font-size="10.00">carta::RegionHandler</text>
<text text-anchor="middle" x="758" y="-349.47" font-family="Helvetica,sans-Serif" font-size="10.00">::FitImage</text>
</a>
</g>
</g>
<!-- Node4&#45;&gt;Node10 -->
<g id="edge10" class="edge">
<title>Node4&#45;&gt;Node10</title>
<path fill="none" stroke="midnightblue" d="M858.35,-342.73C844.82,-344.74 830.76,-346.83 817.62,-348.78"/>
<polygon fill="midnightblue" stroke="midnightblue" points="859.19,-346.15 868.57,-341.22 858.16,-339.22 859.19,-346.15"/>
</g>
<!-- Node4&#45;&gt;Node11 -->
<g id="edge11" class="edge">
<title>Node4&#45;&gt;Node11</title>
<path fill="none" stroke="midnightblue" d="M912.73,-308.52C894.5,-279.19 862.29,-228.12 833,-185.47 811.71,-154.47 785.4,-119.25 770.58,-99.66"/>
<polygon fill="midnightblue" stroke="midnightblue" points="909.9,-310.59 918.14,-317.25 915.85,-306.91 909.9,-310.59"/>
</g>
<!-- Node4&#45;&gt;Node13 -->
<g id="edge13" class="edge">
<title>Node4&#45;&gt;Node13</title>
<path fill="none" stroke="midnightblue" d="M910.09,-309.06C892.75,-287.23 864.26,-255.16 833,-235.47 826.92,-231.64 820.18,-228.33 813.33,-225.48"/>
<polygon fill="midnightblue" stroke="midnightblue" points="907.49,-311.41 916.39,-317.16 913.01,-307.11 907.49,-311.41"/>
</g>
<!-- Node15 -->
<g id="node15" class="node">
<title>Node15</title>
<g id="a_node15"><a xlink:href="classcarta_1_1RegionHandler.html#ab69f418daea6a6ecf8c58ed9434a6242" target="_top" xlink:title=" ">
<polygon fill="none" stroke="black" points="491,-329.47 491,-359.47 647,-359.47 647,-329.47 491,-329.47"/>
<text text-anchor="start" x="499" y="-347.47" font-family="Helvetica,sans-Serif" font-size="10.00">carta::RegionHandler</text>
<text text-anchor="middle" x="569" y="-336.47" font-family="Helvetica,sans-Serif" font-size="10.00">::GetTemporaryRegionProfile</text>
</a>
</g>
</g>
<!-- Node4&#45;&gt;Node15 -->
<g id="edge22" class="edge">
<title>Node4&#45;&gt;Node15</title>
<path fill="none" stroke="midnightblue" d="M897.43,-353.25C879.59,-364.3 856.01,-376.76 833,-382.47 768.3,-398.53 748.79,-393.24 683,-382.47 656.04,-378.06 626.84,-368.1 604.87,-359.48"/>
<polygon fill="midnightblue" stroke="midnightblue" points="899.67,-355.97 906.21,-347.64 895.9,-350.07 899.67,-355.97"/>
</g>
<!-- Node20 -->
<g id="node20" class="node">
<title>Node20</title>
<g id="a_node20"><a xlink:href="classcarta_1_1RegionHandler.html#a5400b6dee0622f4ce2060ae424e1e559" target="_top" xlink:title=" ">
<polygon fill="none" stroke="black" points="697,-244.47 697,-274.47 819,-274.47 819,-244.47 697,-244.47"/>
<text text-anchor="start" x="705" y="-262.47" font-family="Helvetica,sans-Serif" font-size="10.00">carta::RegionHandler</text>
<text text-anchor="middle" x="758" y="-251.47" font-family="Helvetica,sans-Serif" font-size="10.00">::GetRegionStatsData</text>
</a>
</g>
</g>
<!-- Node4&#45;&gt;Node20 -->
<g id="edge20" class="edge">
<title>Node4&#45;&gt;Node20</title>
<path fill="none" stroke="midnightblue" d="M891.1,-312.43C873.78,-303.3 852.61,-292.71 833,-284.47 824.62,-280.95 815.56,-277.56 806.75,-274.47"/>
<polygon fill="midnightblue" stroke="midnightblue" points="889.82,-315.72 900.29,-317.33 893.11,-309.54 889.82,-315.72"/>
</g>
<!-- Node7&#45;&gt;Node2 -->
<g id="edge7" class="edge">
<title>Node7&#45;&gt;Node2</title>
<path fill="none" stroke="midnightblue" d="M693.52,-513.71C689.88,-515.49 686.34,-517.41 683,-519.47 639.76,-546.18 600.3,-592.36 581.53,-616.22"/>
<polygon fill="midnightblue" stroke="midnightblue" points="695.04,-516.86 702.74,-509.58 692.18,-510.48 695.04,-516.86"/>
</g>
<!-- Node8 -->
<g id="node8" class="node">
<title>Node8</title>
<g id="a_node8"><a xlink:href="classcarta_1_1RegionHandler.html#ab556b1d44e6a4ca48fba195023769038" target="_top" xlink:title=" ">
<polygon fill="none" stroke="black" points="499,-479.47 499,-509.47 639,-509.47 639,-479.47 499,-479.47"/>
<text text-anchor="start" x="507" y="-497.47" font-family="Helvetica,sans-Serif" font-size="10.00">carta::RegionHandler</text>
<text text-anchor="middle" x="569" y="-486.47" font-family="Helvetica,sans-Serif" font-size="10.00">::UpdatePvPreviewImage</text>
</a>
</g>
</g>
<!-- Node7&#45;&gt;Node8 -->
<g id="edge8" class="edge">
<title>Node7&#45;&gt;Node8</title>
<path fill="none" stroke="midnightblue" d="M672.63,-494.47C661.45,-494.47 650.1,-494.47 639.22,-494.47"/>
<polygon fill="midnightblue" stroke="midnightblue" points="672.82,-497.97 682.82,-494.47 672.82,-490.97 672.82,-497.97"/>
</g>
<!-- Node11&#45;&gt;Node12 -->
<g id="edge12" class="edge">
<title>Node11&#45;&gt;Node12</title>
<path fill="none" stroke="midnightblue" d="M673.68,-79.57C662.95,-78.94 652.04,-78.3 641.52,-77.68"/>
<polygon fill="midnightblue" stroke="midnightblue" points="673.71,-83.08 683.9,-80.17 674.12,-76.09 673.71,-83.08"/>
</g>
<!-- Node13&#45;&gt;Node14 -->
<g id="edge14" class="edge">
<title>Node13&#45;&gt;Node14</title>
<path fill="none" stroke="midnightblue" d="M708.1,-191.65C677.25,-179.77 637.94,-164.63 609.15,-153.55"/>
<polygon fill="midnightblue" stroke="midnightblue" points="707.21,-195.05 717.8,-195.38 709.72,-188.52 707.21,-195.05"/>
</g>
<!-- Node13&#45;&gt;Node15 -->
<g id="edge15" class="edge">
<title>Node13&#45;&gt;Node15</title>
<path fill="none" stroke="midnightblue" d="M693.76,-229.66C690.04,-231.46 686.42,-233.39 683,-235.47 640.39,-261.4 600.95,-305.96 581.93,-329.26"/>
<polygon fill="midnightblue" stroke="midnightblue" points="695.45,-232.74 703.17,-225.5 692.61,-226.34 695.45,-232.74"/>
</g>
<!-- Node16 -->
<g id="node16" class="node">
<title>Node16</title>
<g id="a_node16"><a xlink:href="classcarta_1_1RegionHandler.html#acbbfca854da73c657e5257de954b7048" target="_top" xlink:title=" ">
<polygon fill="none" stroke="black" points="336,-329.47 336,-359.47 455,-359.47 455,-329.47 336,-329.47"/>
<text text-anchor="start" x="344" y="-347.47" font-family="Helvetica,sans-Serif" font-size="10.00">carta::RegionHandler</text>
<text text-anchor="middle" x="395.5" y="-336.47" font-family="Helvetica,sans-Serif" font-size="10.00">::GetLineProfiles</text>
</a>
</g>
</g>
<!-- Node15&#45;&gt;Node16 -->
<g id="edge16" class="edge">
<title>Node15&#45;&gt;Node16</title>
<path fill="none" stroke="midnightblue" d="M480.62,-344.47C471.96,-344.47 463.31,-344.47 455.05,-344.47"/>
<polygon fill="midnightblue" stroke="midnightblue" points="480.78,-347.97 490.78,-344.47 480.78,-340.97 480.78,-347.97"/>
</g>
<!-- Node17 -->
<g id="node17" class="node">
<title>Node17</title>
<g id="a_node17"><a xlink:href="classcarta_1_1RegionHandler.html#a981ef720799967df543e0b272a17f6cb" target="_top" xlink:title=" ">
<polygon fill="none" stroke="black" points="181,-280.47 181,-310.47 300,-310.47 300,-280.47 181,-280.47"/>
<text text-anchor="start" x="189" y="-298.47" font-family="Helvetica,sans-Serif" font-size="10.00">carta::RegionHandler</text>
<text text-anchor="middle" x="240.5" y="-287.47" font-family="Helvetica,sans-Serif" font-size="10.00">::CalculatePvImage</text>
</a>
</g>
</g>
<!-- Node16&#45;&gt;Node17 -->
<g id="edge17" class="edge">
<title>Node16&#45;&gt;Node17</title>
<path fill="none" stroke="midnightblue" d="M337.49,-326.21C321.35,-321.05 303.97,-315.48 288.5,-310.52"/>
<polygon fill="midnightblue" stroke="midnightblue" points="336.76,-329.65 347.35,-329.37 338.89,-322.99 336.76,-329.65"/>
</g>
<!-- Node18 -->
<g id="node18" class="node">
<title>Node18</title>
<g id="a_node18"><a xlink:href="classcarta_1_1RegionHandler.html#ab65206f98fa5024447ab049a91cd4526" target="_top" xlink:title=" ">
<polygon fill="none" stroke="black" points="181,-329.47 181,-359.47 300,-359.47 300,-329.47 181,-329.47"/>
<text text-anchor="start" x="189" y="-347.47" font-family="Helvetica,sans-Serif" font-size="10.00">carta::RegionHandler</text>
<text text-anchor="middle" x="240.5" y="-336.47" font-family="Helvetica,sans-Serif" font-size="10.00">::GetLineSpatialData</text>
</a>
</g>
</g>
<!-- Node16&#45;&gt;Node18 -->
<g id="edge18" class="edge">
<title>Node16&#45;&gt;Node18</title>
<path fill="none" stroke="midnightblue" d="M325.51,-344.47C317.01,-344.47 308.38,-344.47 300.06,-344.47"/>
<polygon fill="midnightblue" stroke="midnightblue" points="325.78,-347.97 335.78,-344.47 325.78,-340.97 325.78,-347.97"/>
</g>
<!-- Node18&#45;&gt;Node19 -->
<g id="edge19" class="edge">
<title>Node18&#45;&gt;Node19</title>
<path fill="none" stroke="midnightblue" d="M185.03,-323.83C183.63,-322.76 182.28,-321.64 181,-320.47 120.2,-265.01 88.04,-167.13 77.48,-129.65"/>
<polygon fill="midnightblue" stroke="midnightblue" points="183.24,-326.84 193.52,-329.39 187.07,-320.98 183.24,-326.84"/>
</g>
<!-- Node20&#45;&gt;Node21 -->
<g id="edge21" class="edge">
<title>Node20&#45;&gt;Node21</title>
<path fill="none" stroke="midnightblue" d="M686.68,-247.81C667.61,-244.65 647.17,-241.26 628.81,-238.22"/>
<polygon fill="midnightblue" stroke="midnightblue" points="686.36,-251.31 696.8,-249.49 687.51,-244.4 686.36,-251.31"/>
</g>
<!-- Node22&#45;&gt;Node16 -->
<g id="edge24" class="edge">
<title>Node22&#45;&gt;Node16</title>
<path fill="none" stroke="midnightblue" d="M858.79,-593.58C765.4,-602.05 597.82,-602.85 491,-519.47 436.43,-476.87 409.37,-393.66 400.2,-359.58"/>
<polygon fill="midnightblue" stroke="midnightblue" points="859.35,-597.04 868.97,-592.6 858.68,-590.07 859.35,-597.04"/>
</g>
</g>
</svg>
