<?xml version="1.0" encoding="UTF-8" standalone="no"?>
<!DOCTYPE svg PUBLIC "-//W3C//DTD SVG 1.1//EN"
 "http://www.w3.org/Graphics/SVG/1.1/DTD/svg11.dtd">
<!-- Generated by graphviz version 2.43.0 (0)
 -->
<!-- Title: carta::FitsLoader Pages: 1 -->
<!--zoomable 922 -->
<svg id="main" version="1.1" xmlns="http://www.w3.org/2000/svg" xmlns:xlink="http://www.w3.org/1999/xlink" xml:space="preserve" onload="init(evt)">
<style type="text/css"><![CDATA[
.edge:hover path { stroke: red; }
.edge:hover polygon { stroke: red; fill: red; }
]]></style>
<script type="text/javascript"><![CDATA[
var edges = document.getElementsByTagName('g');
if (edges && edges.length) {
  for (var i=0;i<edges.length;i++) {
    if (edges[i].id.substr(0,4)=='edge') {
      edges[i].setAttribute('class','edge');
    }
  }
}
]]></script>
        <defs>
                <circle id="rim" cx="0" cy="0" r="7"/>
                <circle id="rim2" cx="0" cy="0" r="3.5"/>
                <g id="zoomPlus">
                        <use xlink:href="#rim" fill="#404040">
                                <set attributeName="fill" to="#808080" begin="zoomplus.mouseover" end="zoomplus.mouseout"/>
                        </use>
                        <path d="M-4,0h8M0,-4v8" fill="none" stroke="white" stroke-width="1.5" pointer-events="none"/>
                </g>
                <g id="zoomMin">
                        <use xlink:href="#rim" fill="#404040">
                                <set attributeName="fill" to="#808080" begin="zoomminus.mouseover" end="zoomminus.mouseout"/>
                        </use>
                        <path d="M-4,0h8" fill="none" stroke="white" stroke-width="1.5" pointer-events="none"/>
                </g>
                <g id="dirArrow">
                        <path fill="none" stroke="white" stroke-width="1.5" d="M0,-3.0v7 M-2.5,-0.5L0,-3.0L2.5,-0.5"/>
                </g>
               <g id="resetDef">
                       <use xlink:href="#rim2" fill="#404040">
                               <set attributeName="fill" to="#808080" begin="reset.mouseover" end="reset.mouseout"/>
                       </use>
               </g>
        </defs>

<script type="text/javascript">
var viewWidth = 1100;
var viewHeight = 922;
var sectionId = 'dynsection-1';
</script>
<script xlink:href="svgpan.js"/>
<svg id="graph" class="graph">
<g id="viewport">
<title>carta::FitsLoader</title>
<!-- Node1 -->
<g id="node1" class="node">
<title>Node1</title>
<g id="a_node1"><a xlink:title=" ">
<polygon fill="#bfbfbf" stroke="black" points="994,-46.5 994,-65.5 1092,-65.5 1092,-46.5 994,-46.5"/>
<text text-anchor="middle" x="1043" y="-53.5" font-family="Helvetica,sans-Serif" font-size="10.00">carta::FitsLoader</text>
</a>
</g>
</g>
<!-- Node2 -->
<g id="node2" class="node">
<title>Node2</title>
<g id="a_node2"><a xlink:href="classcarta_1_1FileLoader.html" target="_top" xlink:title=" ">
<polygon fill="none" stroke="black" points="806,-402.5 806,-421.5 904,-421.5 904,-402.5 806,-402.5"/>
<text text-anchor="middle" x="855" y="-409.5" font-family="Helvetica,sans-Serif" font-size="10.00">carta::FileLoader</text>
</a>
</g>
</g>
<!-- Node2&#45;&gt;Node1 -->
<g id="edge1" class="edge">
<title>Node2&#45;&gt;Node1</title>
<path fill="none" stroke="midnightblue" d="M865.71,-393.41C899.56,-328.62 1011.68,-114.03 1036.92,-65.72"/>
<polygon fill="midnightblue" stroke="midnightblue" points="862.5,-391.99 860.98,-402.48 868.71,-395.24 862.5,-391.99"/>
</g>
<!-- Node3 -->
<g id="node3" class="node">
<title>Node3</title>
<g id="a_node3"><a xlink:title=" ">
<polygon fill="none" stroke="#bfbfbf" points="186.5,-828.5 186.5,-869.5 335.5,-869.5 335.5,-828.5 186.5,-828.5"/>
<text text-anchor="start" x="194.5" y="-857.5" font-family="Helvetica,sans-Serif" font-size="10.00">std::unordered_map</text>
<text text-anchor="start" x="194.5" y="-846.5" font-family="Helvetica,sans-Serif" font-size="10.00">&lt; CARTA::PolarizationType,</text>
<text text-anchor="middle" x="261" y="-835.5" font-family="Helvetica,sans-Serif" font-size="10.00"> int &gt;</text>
</a>
</g>
</g>
<!-- Node3&#45;&gt;Node2 -->
<g id="edge2" class="edge">
<title>Node3&#45;&gt;Node2</title>
<path fill="none" stroke="#9a32cd" stroke-dasharray="5,2" d="M345.68,-853.79C477.67,-859.43 725.64,-861.72 788,-804 846.24,-750.09 853.11,-476.63 853.9,-421.64"/>
<polygon fill="#9a32cd" stroke="#9a32cd" points="345.75,-850.29 335.61,-853.34 345.44,-857.28 345.75,-850.29"/>
<text text-anchor="middle" x="550.5" y="-859" font-family="Helvetica,sans-Serif" font-size="10.00"> _stokes_indices</text>
</g>
<!-- Node4 -->
<g id="node4" class="node">
<title>Node4</title>
<g id="a_node4"><a xlink:title=" ">
<polygon fill="none" stroke="#bfbfbf" points="0,-847.5 0,-866.5 97,-866.5 97,-847.5 0,-847.5"/>
<text text-anchor="middle" x="48.5" y="-854.5" font-family="Helvetica,sans-Serif" font-size="10.00">PolarizationType</text>
</a>
</g>
</g>
<!-- Node4&#45;&gt;Node3 -->
<g id="edge3" class="edge">
<title>Node4&#45;&gt;Node3</title>
<path fill="none" stroke="#9a32cd" stroke-dasharray="5,2" d="M107.18,-854.81C131.58,-853.88 160.31,-852.79 186.23,-851.8"/>
<polygon fill="#9a32cd" stroke="#9a32cd" points="106.86,-851.32 97,-855.19 107.13,-858.31 106.86,-851.32"/>
<text text-anchor="middle" x="139.5" y="-857" font-family="Helvetica,sans-Serif" font-size="10.00"> keys</text>
</g>
<!-- Node5 -->
<g id="node5" class="node">
<title>Node5</title>
<g id="a_node5"><a xlink:title=" ">
<polygon fill="none" stroke="#bfbfbf" points="34,-741.5 34,-760.5 63,-760.5 63,-741.5 34,-741.5"/>
<text text-anchor="middle" x="48.5" y="-748.5" font-family="Helvetica,sans-Serif" font-size="10.00">int</text>
</a>
</g>
</g>
<!-- Node5&#45;&gt;Node2 -->
<g id="edge24" class="edge">
<title>Node5&#45;&gt;Node2</title>
<path fill="none" stroke="#9a32cd" stroke-dasharray="5,2" d="M73.08,-758.12C85.44,-761.5 100.9,-765.2 115,-767 144.54,-770.78 152.22,-767.78 182,-768 316.82,-769.01 686.48,-827.71 788,-739 837.61,-695.65 851.17,-471.1 853.57,-421.64"/>
<polygon fill="#9a32cd" stroke="#9a32cd" points="73.71,-754.66 63.13,-755.28 71.79,-761.39 73.71,-754.66"/>
<text text-anchor="middle" x="400.5" y="-820" font-family="Helvetica,sans-Serif" font-size="10.00"> _modify_time</text>
<text text-anchor="middle" x="400.5" y="-809" font-family="Helvetica,sans-Serif" font-size="10.00">_stokes_axis</text>
<text text-anchor="middle" x="400.5" y="-798" font-family="Helvetica,sans-Serif" font-size="10.00">_stokes_cdelt</text>
<text text-anchor="middle" x="400.5" y="-787" font-family="Helvetica,sans-Serif" font-size="10.00">_z_axis</text>
</g>
<!-- Node5&#45;&gt;Node3 -->
<g id="edge4" class="edge">
<title>Node5&#45;&gt;Node3</title>
<path fill="none" stroke="#9a32cd" stroke-dasharray="5,2" d="M67.7,-767.55C80.26,-778.27 97.73,-791.88 115,-801 137.16,-812.7 162.72,-822.3 186.14,-829.76"/>
<polygon fill="#9a32cd" stroke="#9a32cd" points="69.69,-764.64 59.86,-760.68 65.08,-769.91 69.69,-764.64"/>
<text text-anchor="middle" x="139.5" y="-824" font-family="Helvetica,sans-Serif" font-size="10.00"> elements</text>
</g>
<!-- Node7 -->
<g id="node7" class="node">
<title>Node7</title>
<g id="a_node7"><a xlink:href="structStokesSource.html" target="_top" xlink:title=" ">
<polygon fill="none" stroke="black" points="509.5,-700.5 509.5,-719.5 591.5,-719.5 591.5,-700.5 509.5,-700.5"/>
<text text-anchor="middle" x="550.5" y="-707.5" font-family="Helvetica,sans-Serif" font-size="10.00">StokesSource</text>
</a>
</g>
</g>
<!-- Node5&#45;&gt;Node7 -->
<g id="edge7" class="edge">
<title>Node5&#45;&gt;Node7</title>
<path fill="none" stroke="#9a32cd" stroke-dasharray="5,2" d="M73.42,-752.06C135.05,-754.4 304.19,-758.28 443,-738 469.67,-734.1 499.27,-726.01 520.48,-719.52"/>
<polygon fill="#9a32cd" stroke="#9a32cd" points="73.32,-748.56 63.19,-751.65 73.04,-755.55 73.32,-748.56"/>
<text text-anchor="middle" x="261" y="-756" font-family="Helvetica,sans-Serif" font-size="10.00"> stokes</text>
</g>
<!-- Node8 -->
<g id="node8" class="node">
<title>Node8</title>
<g id="a_node8"><a xlink:href="structAxisRange.html" target="_top" xlink:title=" ">
<polygon fill="none" stroke="black" points="227,-695.5 227,-714.5 295,-714.5 295,-695.5 227,-695.5"/>
<text text-anchor="middle" x="261" y="-702.5" font-family="Helvetica,sans-Serif" font-size="10.00">AxisRange</text>
</a>
</g>
</g>
<!-- Node5&#45;&gt;Node8 -->
<g id="edge9" class="edge">
<title>Node5&#45;&gt;Node8</title>
<path fill="none" stroke="#9a32cd" stroke-dasharray="5,2" d="M71.38,-735.83C83.63,-728.17 99.52,-719.55 115,-715 152.16,-704.08 196.89,-702.66 226.75,-703.28"/>
<polygon fill="#9a32cd" stroke="#9a32cd" points="69.26,-733.04 62.78,-741.42 73.08,-738.9 69.26,-733.04"/>
<text text-anchor="middle" x="139.5" y="-729" font-family="Helvetica,sans-Serif" font-size="10.00"> from</text>
<text text-anchor="middle" x="139.5" y="-718" font-family="Helvetica,sans-Serif" font-size="10.00">to</text>
</g>
<!-- Node17 -->
<g id="node17" class="node">
<title>Node17</title>
<g id="a_node17"><a xlink:title=" ">
<polygon fill="none" stroke="#bfbfbf" points="209,-657.5 209,-676.5 313,-676.5 313,-657.5 209,-657.5"/>
<text text-anchor="middle" x="261" y="-664.5" font-family="Helvetica,sans-Serif" font-size="10.00">std::vector&lt; int &gt;</text>
</a>
</g>
</g>
<!-- Node5&#45;&gt;Node17 -->
<g id="edge19" class="edge">
<title>Node5&#45;&gt;Node17</title>
<path fill="none" stroke="#9a32cd" stroke-dasharray="5,2" d="M63.34,-733.27C75.4,-719.16 94.18,-700.15 115,-690 144.1,-675.82 180.01,-670.04 208.82,-667.83"/>
<polygon fill="#9a32cd" stroke="#9a32cd" points="60.39,-731.36 56.74,-741.3 65.8,-735.8 60.39,-731.36"/>
<text text-anchor="middle" x="139.5" y="-693" font-family="Helvetica,sans-Serif" font-size="10.00"> elements</text>
</g>
<!-- Node6 -->
<g id="node6" class="node">
<title>Node6</title>
<g id="a_node6"><a xlink:title=" ">
<polygon fill="none" stroke="#bfbfbf" points="198.5,-369 198.5,-399 323.5,-399 323.5,-369 198.5,-369"/>
<text text-anchor="start" x="206.5" y="-387" font-family="Helvetica,sans-Serif" font-size="10.00">vector&lt; carta::FileInfo</text>
<text text-anchor="middle" x="261" y="-376" font-family="Helvetica,sans-Serif" font-size="10.00">::ImageStats &gt;</text>
</a>
</g>
</g>
<!-- Node6&#45;&gt;Node2 -->
<g id="edge5" class="edge">
<title>Node6&#45;&gt;Node2</title>
<path fill="none" stroke="#9a32cd" stroke-dasharray="5,2" d="M333.93,-389.48C342.05,-390.03 350.2,-390.55 358,-391 522.13,-400.46 717.05,-407.48 805.75,-410.45"/>
<polygon fill="#9a32cd" stroke="#9a32cd" points="333.91,-385.97 323.69,-388.78 333.43,-392.96 333.91,-385.97"/>
<text text-anchor="middle" x="550.5" y="-408" font-family="Helvetica,sans-Serif" font-size="10.00"> _cube_stats</text>
</g>
<!-- Node24 -->
<g id="node24" class="node">
<title>Node24</title>
<g id="a_node24"><a xlink:title=" ">
<polygon fill="none" stroke="#bfbfbf" points="461,-345 461,-375 640,-375 640,-345 461,-345"/>
<text text-anchor="start" x="469" y="-363" font-family="Helvetica,sans-Serif" font-size="10.00">std::vector&lt; std::vector</text>
<text text-anchor="middle" x="550.5" y="-352" font-family="Helvetica,sans-Serif" font-size="10.00">&lt; carta::FileInfo::ImageStats &gt; &gt;</text>
</a>
</g>
</g>
<!-- Node6&#45;&gt;Node24 -->
<g id="edge31" class="edge">
<title>Node6&#45;&gt;Node24</title>
<path fill="none" stroke="#9a32cd" stroke-dasharray="5,2" d="M333.77,-378.01C372.29,-374.79 420.1,-370.8 460.92,-367.39"/>
<polygon fill="#9a32cd" stroke="#9a32cd" points="333.35,-374.53 323.68,-378.85 333.93,-381.51 333.35,-374.53"/>
<text text-anchor="middle" x="400.5" y="-379" font-family="Helvetica,sans-Serif" font-size="10.00"> elements</text>
</g>
<!-- Node7&#45;&gt;Node2 -->
<g id="edge6" class="edge">
<title>Node7&#45;&gt;Node2</title>
<path fill="none" stroke="#9a32cd" stroke-dasharray="5,2" d="M601.84,-719.98C654.74,-727.34 737.2,-729.51 788,-685 829.17,-648.93 848.89,-466.17 853.12,-421.74"/>
<polygon fill="#9a32cd" stroke="#9a32cd" points="602.08,-716.47 591.67,-718.45 601.04,-723.4 602.08,-716.47"/>
<text text-anchor="middle" x="723" y="-727" font-family="Helvetica,sans-Serif" font-size="10.00"> _stokes_source</text>
</g>
<!-- Node8&#45;&gt;Node7 -->
<g id="edge8" class="edge">
<title>Node8&#45;&gt;Node7</title>
<path fill="none" stroke="#9a32cd" stroke-dasharray="5,2" d="M305.37,-704.43C342.04,-704.08 395.97,-703.9 443,-705 464.93,-705.51 489.38,-706.62 509.31,-707.67"/>
<polygon fill="#9a32cd" stroke="#9a32cd" points="305,-700.93 295.03,-704.54 305.07,-707.93 305,-700.93"/>
<text text-anchor="middle" x="400.5" y="-730" font-family="Helvetica,sans-Serif" font-size="10.00"> x_range</text>
<text text-anchor="middle" x="400.5" y="-719" font-family="Helvetica,sans-Serif" font-size="10.00">y_range</text>
<text text-anchor="middle" x="400.5" y="-708" font-family="Helvetica,sans-Serif" font-size="10.00">z_range</text>
</g>
<!-- Node9 -->
<g id="node9" class="node">
<title>Node9</title>
<g id="a_node9"><a xlink:title=" ">
<polygon fill="none" stroke="#bfbfbf" points="29.5,-470.5 29.5,-489.5 67.5,-489.5 67.5,-470.5 29.5,-470.5"/>
<text text-anchor="middle" x="48.5" y="-477.5" font-family="Helvetica,sans-Serif" font-size="10.00">float</text>
</a>
</g>
</g>
<!-- Node9&#45;&gt;Node2 -->
<g id="edge10" class="edge">
<title>Node9&#45;&gt;Node2</title>
<path fill="none" stroke="#9a32cd" stroke-dasharray="5,2" d="M77.54,-478.53C175.55,-473.22 511.84,-453.72 788,-422 793.76,-421.34 799.78,-420.55 805.75,-419.72"/>
<polygon fill="#9a32cd" stroke="#9a32cd" points="77.34,-475.03 67.54,-479.06 77.71,-482.02 77.34,-475.03"/>
<text text-anchor="middle" x="400.5" y="-475" font-family="Helvetica,sans-Serif" font-size="10.00"> _stokes_crpix</text>
<text text-anchor="middle" x="400.5" y="-464" font-family="Helvetica,sans-Serif" font-size="10.00">_stokes_crval</text>
</g>
<!-- Node18 -->
<g id="node18" class="node">
<title>Node18</title>
<g id="a_node18"><a xlink:title=" ">
<polygon fill="none" stroke="#bfbfbf" points="204.5,-545.5 204.5,-564.5 317.5,-564.5 317.5,-545.5 204.5,-545.5"/>
<text text-anchor="middle" x="261" y="-552.5" font-family="Helvetica,sans-Serif" font-size="10.00">std::vector&lt; float &gt;</text>
</a>
</g>
</g>
<!-- Node9&#45;&gt;Node18 -->
<g id="edge21" class="edge">
<title>Node9&#45;&gt;Node18</title>
<path fill="none" stroke="#9a32cd" stroke-dasharray="5,2" d="M77.36,-489.93C117.99,-504.4 193.01,-531.13 233.1,-545.41"/>
<polygon fill="#9a32cd" stroke="#9a32cd" points="78.41,-486.58 67.81,-486.52 76.06,-493.18 78.41,-486.58"/>
<text text-anchor="middle" x="139.5" y="-523" font-family="Helvetica,sans-Serif" font-size="10.00"> elements</text>
</g>
<!-- Node10 -->
<g id="node10" class="node">
<title>Node10</title>
<g id="a_node10"><a xlink:title=" ">
<polygon fill="none" stroke="#bfbfbf" points="521,-306.5 521,-325.5 580,-325.5 580,-306.5 521,-306.5"/>
<text text-anchor="middle" x="550.5" y="-313.5" font-family="Helvetica,sans-Serif" font-size="10.00">IPosition</text>
</a>
</g>
</g>
<!-- Node10&#45;&gt;Node2 -->
<g id="edge11" class="edge">
<title>Node10&#45;&gt;Node2</title>
<path fill="none" stroke="#9a32cd" stroke-dasharray="5,2" d="M590.65,-319.2C648.55,-324.39 753.85,-335.74 788,-352 813.17,-363.98 835.57,-388.78 846.66,-402.44"/>
<polygon fill="#9a32cd" stroke="#9a32cd" points="590.69,-315.69 580.42,-318.3 590.08,-322.66 590.69,-315.69"/>
<text text-anchor="middle" x="723" y="-355" font-family="Helvetica,sans-Serif" font-size="10.00"> _image_shape</text>
</g>
<!-- Node11 -->
<g id="node11" class="node">
<title>Node11</title>
<g id="a_node11"><a xlink:title=" ">
<polygon fill="none" stroke="#bfbfbf" points="474.5,-246.5 474.5,-287.5 626.5,-287.5 626.5,-246.5 474.5,-246.5"/>
<text text-anchor="start" x="482.5" y="-275.5" font-family="Helvetica,sans-Serif" font-size="10.00">std::shared_ptr&lt; casacore</text>
<text text-anchor="start" x="482.5" y="-264.5" font-family="Helvetica,sans-Serif" font-size="10.00">::ImageInterface&lt; casacore</text>
<text text-anchor="middle" x="550.5" y="-253.5" font-family="Helvetica,sans-Serif" font-size="10.00">::Float &gt; &gt;</text>
</a>
</g>
</g>
<!-- Node11&#45;&gt;Node2 -->
<g id="edge12" class="edge">
<title>Node11&#45;&gt;Node2</title>
<path fill="none" stroke="#9a32cd" stroke-dasharray="5,2" d="M636.46,-281.56C701.61,-292.99 781.49,-307.66 788,-312 822.28,-334.84 843.01,-382.17 850.65,-402.44"/>
<polygon fill="#9a32cd" stroke="#9a32cd" points="637.01,-278.11 626.55,-279.83 635.8,-285 637.01,-278.11"/>
<text text-anchor="middle" x="723" y="-315" font-family="Helvetica,sans-Serif" font-size="10.00"> _image</text>
</g>
<!-- Node12 -->
<g id="node12" class="node">
<title>Node12</title>
<g id="a_node12"><a xlink:href="structcarta_1_1FileInfo_1_1ImageStats.html" target="_top" xlink:title=" ">
<polygon fill="none" stroke="black" points="478,-556.5 478,-575.5 623,-575.5 623,-556.5 478,-556.5"/>
<text text-anchor="middle" x="550.5" y="-563.5" font-family="Helvetica,sans-Serif" font-size="10.00">carta::FileInfo::ImageStats</text>
</a>
</g>
</g>
<!-- Node12&#45;&gt;Node2 -->
<g id="edge13" class="edge">
<title>Node12&#45;&gt;Node2</title>
<path fill="none" stroke="#9a32cd" stroke-dasharray="5,2" d="M633.19,-561.94C681.79,-556.09 742.62,-542.42 788,-511 821.46,-487.83 842.5,-441.7 850.43,-421.66"/>
<polygon fill="#9a32cd" stroke="#9a32cd" points="632.57,-558.49 623.02,-563.08 633.34,-565.45 632.57,-558.49"/>
<text text-anchor="middle" x="723" y="-561" font-family="Helvetica,sans-Serif" font-size="10.00"> _empty_stats</text>
</g>
<!-- Node13 -->
<g id="node13" class="node">
<title>Node13</title>
<g id="a_node13"><a xlink:title=" ">
<polygon fill="none" stroke="#bfbfbf" points="242,-495.5 242,-514.5 280,-514.5 280,-495.5 242,-495.5"/>
<text text-anchor="middle" x="261" y="-502.5" font-family="Helvetica,sans-Serif" font-size="10.00">bool</text>
</a>
</g>
</g>
<!-- Node13&#45;&gt;Node2 -->
<g id="edge26" class="edge">
<title>Node13&#45;&gt;Node2</title>
<path fill="none" stroke="#9a32cd" stroke-dasharray="5,2" d="M290.19,-505.04C385.69,-504.82 696.14,-501.29 788,-465 812.06,-455.5 834.23,-434.01 845.74,-421.51"/>
<polygon fill="#9a32cd" stroke="#9a32cd" points="290.13,-501.54 280.13,-505.05 290.13,-508.54 290.13,-501.54"/>
<text text-anchor="middle" x="550.5" y="-527" font-family="Helvetica,sans-Serif" font-size="10.00"> _has_pixel_mask</text>
<text text-anchor="middle" x="550.5" y="-516" font-family="Helvetica,sans-Serif" font-size="10.00">_is_generated</text>
<text text-anchor="middle" x="550.5" y="-505" font-family="Helvetica,sans-Serif" font-size="10.00">_is_gz</text>
</g>
<!-- Node13&#45;&gt;Node12 -->
<g id="edge14" class="edge">
<title>Node13&#45;&gt;Node12</title>
<path fill="none" stroke="#9a32cd" stroke-dasharray="5,2" d="M290.34,-508.08C326.18,-512.27 389.65,-520.68 443,-533 470.54,-539.36 501.3,-549.2 522.66,-556.48"/>
<polygon fill="#9a32cd" stroke="#9a32cd" points="290.48,-504.57 280.15,-506.91 289.69,-511.52 290.48,-504.57"/>
<text text-anchor="middle" x="400.5" y="-547" font-family="Helvetica,sans-Serif" font-size="10.00"> full</text>
<text text-anchor="middle" x="400.5" y="-536" font-family="Helvetica,sans-Serif" font-size="10.00">valid</text>
</g>
<!-- Node14 -->
<g id="node14" class="node">
<title>Node14</title>
<g id="a_node14"><a xlink:title=" ">
<polygon fill="none" stroke="#bfbfbf" points="182,-596 182,-626 340,-626 340,-596 182,-596"/>
<text text-anchor="start" x="190" y="-614" font-family="Helvetica,sans-Serif" font-size="10.00">std::map&lt; CARTA::StatsType,</text>
<text text-anchor="middle" x="261" y="-603" font-family="Helvetica,sans-Serif" font-size="10.00"> double &gt;</text>
</a>
</g>
</g>
<!-- Node14&#45;&gt;Node12 -->
<g id="edge15" class="edge">
<title>Node14&#45;&gt;Node12</title>
<path fill="none" stroke="#9a32cd" stroke-dasharray="5,2" d="M350.43,-601.15C379.94,-597.49 412.95,-593 443,-588 464.23,-584.46 487.67,-579.71 507.15,-575.53"/>
<polygon fill="#9a32cd" stroke="#9a32cd" points="349.65,-597.72 340.15,-602.41 350.5,-604.67 349.65,-597.72"/>
<text text-anchor="middle" x="400.5" y="-604" font-family="Helvetica,sans-Serif" font-size="10.00"> basic_stats</text>
</g>
<!-- Node15 -->
<g id="node15" class="node">
<title>Node15</title>
<g id="a_node15"><a xlink:title=" ">
<polygon fill="none" stroke="#bfbfbf" points="23.5,-614.5 23.5,-633.5 73.5,-633.5 73.5,-614.5 23.5,-614.5"/>
<text text-anchor="middle" x="48.5" y="-621.5" font-family="Helvetica,sans-Serif" font-size="10.00">double</text>
</a>
</g>
</g>
<!-- Node15&#45;&gt;Node14 -->
<g id="edge16" class="edge">
<title>Node15&#45;&gt;Node14</title>
<path fill="none" stroke="#9a32cd" stroke-dasharray="5,2" d="M83.94,-621.87C110.47,-620.23 148.2,-617.9 181.94,-615.82"/>
<polygon fill="#9a32cd" stroke="#9a32cd" points="83.41,-618.4 73.65,-622.51 83.84,-625.39 83.41,-618.4"/>
<text text-anchor="middle" x="139.5" y="-623" font-family="Helvetica,sans-Serif" font-size="10.00"> elements</text>
</g>
<!-- Node16 -->
<g id="node16" class="node">
<title>Node16</title>
<g id="a_node16"><a xlink:title=" ">
<polygon fill="none" stroke="#bfbfbf" points="16.5,-576.5 16.5,-595.5 80.5,-595.5 80.5,-576.5 16.5,-576.5"/>
<text text-anchor="middle" x="48.5" y="-583.5" font-family="Helvetica,sans-Serif" font-size="10.00">StatsType</text>
</a>
</g>
</g>
<!-- Node16&#45;&gt;Node14 -->
<g id="edge17" class="edge">
<title>Node16&#45;&gt;Node14</title>
<path fill="none" stroke="#9a32cd" stroke-dasharray="5,2" d="M90.78,-590.9C116.72,-593.98 151.02,-598.06 181.96,-601.73"/>
<polygon fill="#9a32cd" stroke="#9a32cd" points="90.9,-587.39 80.56,-589.69 90.08,-594.34 90.9,-587.39"/>
<text text-anchor="middle" x="139.5" y="-603" font-family="Helvetica,sans-Serif" font-size="10.00"> keys</text>
</g>
<!-- Node17&#45;&gt;Node2 -->
<g id="edge29" class="edge">
<title>Node17&#45;&gt;Node2</title>
<path fill="none" stroke="#9a32cd" stroke-dasharray="5,2" d="M323.25,-674.49C430.8,-684.06 654.8,-687.56 788,-573 836.1,-531.63 849.7,-449.8 853.03,-421.72"/>
<polygon fill="#9a32cd" stroke="#9a32cd" points="323.49,-671 313.21,-673.55 322.84,-677.96 323.49,-671"/>
<text text-anchor="middle" x="550.5" y="-680" font-family="Helvetica,sans-Serif" font-size="10.00"> _render_axes</text>
</g>
<!-- Node17&#45;&gt;Node12 -->
<g id="edge18" class="edge">
<title>Node17&#45;&gt;Node12</title>
<path fill="none" stroke="#9a32cd" stroke-dasharray="5,2" d="M313.19,-654.97C349.83,-645.78 400.08,-632 443,-616 474.96,-604.09 510.55,-586.44 531.42,-575.61"/>
<polygon fill="#9a32cd" stroke="#9a32cd" points="312.09,-651.63 303.23,-657.44 313.78,-658.43 312.09,-651.63"/>
<text text-anchor="middle" x="400.5" y="-645" font-family="Helvetica,sans-Serif" font-size="10.00"> histogram_bins</text>
</g>
<!-- Node18&#45;&gt;Node12 -->
<g id="edge20" class="edge">
<title>Node18&#45;&gt;Node12</title>
<path fill="none" stroke="#9a32cd" stroke-dasharray="5,2" d="M327.96,-557.52C372.71,-559.24 431.86,-561.5 477.78,-563.26"/>
<polygon fill="#9a32cd" stroke="#9a32cd" points="327.9,-554.02 317.77,-557.13 327.63,-561.01 327.9,-554.02"/>
<text text-anchor="middle" x="400.5" y="-576" font-family="Helvetica,sans-Serif" font-size="10.00"> percentile_ranks</text>
<text text-anchor="middle" x="400.5" y="-565" font-family="Helvetica,sans-Serif" font-size="10.00">percentiles</text>
</g>
<!-- Node19 -->
<g id="node19" class="node">
<title>Node19</title>
<g id="a_node19"><a xlink:title=" ">
<polygon fill="none" stroke="#bfbfbf" points="528,-208.5 528,-227.5 573,-227.5 573,-208.5 528,-208.5"/>
<text text-anchor="middle" x="550.5" y="-215.5" font-family="Helvetica,sans-Serif" font-size="10.00">size_t</text>
</a>
</g>
</g>
<!-- Node19&#45;&gt;Node2 -->
<g id="edge22" class="edge">
<title>Node19&#45;&gt;Node2</title>
<path fill="none" stroke="#9a32cd" stroke-dasharray="5,2" d="M583.6,-213.22C640.53,-205.46 756.2,-193.16 788,-216 850.99,-261.25 854.67,-369.68 854.28,-402.45"/>
<polygon fill="#9a32cd" stroke="#9a32cd" points="582.78,-209.8 573.36,-214.65 583.75,-216.73 582.78,-209.8"/>
<text text-anchor="middle" x="723" y="-274" font-family="Helvetica,sans-Serif" font-size="10.00"> _depth</text>
<text text-anchor="middle" x="723" y="-263" font-family="Helvetica,sans-Serif" font-size="10.00">_height</text>
<text text-anchor="middle" x="723" y="-252" font-family="Helvetica,sans-Serif" font-size="10.00">_image_plane_size</text>
<text text-anchor="middle" x="723" y="-241" font-family="Helvetica,sans-Serif" font-size="10.00">_num_dims</text>
<text text-anchor="middle" x="723" y="-230" font-family="Helvetica,sans-Serif" font-size="10.00">_num_stokes</text>
<text text-anchor="middle" x="723" y="-219" font-family="Helvetica,sans-Serif" font-size="10.00">_width</text>
</g>
<!-- Node20 -->
<g id="node20" class="node">
<title>Node20</title>
<g id="a_node20"><a xlink:title=" ">
<polygon fill="none" stroke="#bfbfbf" points="478.5,-159 478.5,-189 622.5,-189 622.5,-159 478.5,-159"/>
<text text-anchor="start" x="486.5" y="-177" font-family="Helvetica,sans-Serif" font-size="10.00">std::shared_ptr&lt; casacore</text>
<text text-anchor="middle" x="550.5" y="-166" font-family="Helvetica,sans-Serif" font-size="10.00">::CoordinateSystem &gt;</text>
</a>
</g>
</g>
<!-- Node20&#45;&gt;Node2 -->
<g id="edge23" class="edge">
<title>Node20&#45;&gt;Node2</title>
<path fill="none" stroke="#9a32cd" stroke-dasharray="5,2" d="M632.75,-169.16C691.54,-167.41 764.6,-169.4 788,-188 823.15,-215.94 846.88,-363.22 852.64,-402.41"/>
<polygon fill="#9a32cd" stroke="#9a32cd" points="632.58,-165.66 622.7,-169.5 632.82,-172.66 632.58,-165.66"/>
<text text-anchor="middle" x="723" y="-191" font-family="Helvetica,sans-Serif" font-size="10.00"> _coord_sys</text>
</g>
<!-- Node21 -->
<g id="node21" class="node">
<title>Node21</title>
<g id="a_node21"><a xlink:title=" ">
<polygon fill="none" stroke="#bfbfbf" points="474.5,-110 474.5,-140 626.5,-140 626.5,-110 474.5,-110"/>
<text text-anchor="start" x="482.5" y="-128" font-family="Helvetica,sans-Serif" font-size="10.00">std::shared_ptr&lt; casacore</text>
<text text-anchor="middle" x="550.5" y="-117" font-family="Helvetica,sans-Serif" font-size="10.00">::ImageInterface&lt; float &gt; &gt;</text>
</a>
</g>
</g>
<!-- Node21&#45;&gt;Node2 -->
<g id="edge25" class="edge">
<title>Node21&#45;&gt;Node2</title>
<path fill="none" stroke="#9a32cd" stroke-dasharray="5,2" d="M636.68,-125.57C695.09,-127.76 765.86,-134.54 788,-154 826.8,-188.11 848.16,-359.31 852.96,-402.23"/>
<polygon fill="#9a32cd" stroke="#9a32cd" points="636.79,-122.07 626.68,-125.24 636.56,-129.07 636.79,-122.07"/>
<text text-anchor="middle" x="723" y="-157" font-family="Helvetica,sans-Serif" font-size="10.00"> _computed_stokes_image</text>
</g>
<!-- Node22 -->
<g id="node22" class="node">
<title>Node22</title>
<g id="a_node22"><a xlink:title=" ">
<polygon fill="none" stroke="#bfbfbf" points="518,-59.5 518,-78.5 583,-78.5 583,-59.5 518,-59.5"/>
<text text-anchor="middle" x="550.5" y="-66.5" font-family="Helvetica,sans-Serif" font-size="10.00">std::string</text>
</a>
</g>
</g>
<!-- Node22&#45;&gt;Node1 -->
<g id="edge33" class="edge">
<title>Node22&#45;&gt;Node1</title>
<path fill="none" stroke="#9a32cd" stroke-dasharray="5,2" d="M593.48,-67.89C684.16,-65.48 897.86,-59.82 993.85,-57.28"/>
<polygon fill="#9a32cd" stroke="#9a32cd" points="593.21,-64.39 583.31,-68.16 593.39,-71.39 593.21,-64.39"/>
<text text-anchor="middle" x="855" y="-66" font-family="Helvetica,sans-Serif" font-size="10.00"> _unzip_file</text>
</g>
<!-- Node22&#45;&gt;Node2 -->
<g id="edge27" class="edge">
<title>Node22&#45;&gt;Node2</title>
<path fill="none" stroke="#9a32cd" stroke-dasharray="5,2" d="M593.49,-70.05C657.56,-72.04 773.83,-77.36 788,-90 836.32,-133.12 850.84,-352.95 853.51,-402.2"/>
<polygon fill="#9a32cd" stroke="#9a32cd" points="593.4,-66.54 583.3,-69.74 593.19,-73.54 593.4,-66.54"/>
<text text-anchor="middle" x="723" y="-115" font-family="Helvetica,sans-Serif" font-size="10.00"> _directory</text>
<text text-anchor="middle" x="723" y="-104" font-family="Helvetica,sans-Serif" font-size="10.00">_filename</text>
<text text-anchor="middle" x="723" y="-93" font-family="Helvetica,sans-Serif" font-size="10.00">_hdu</text>
</g>
<!-- Node23 -->
<g id="node23" class="node">
<title>Node23</title>
<g id="a_node23"><a xlink:title=" ">
<polygon fill="none" stroke="#bfbfbf" points="209,-54 209,-84 313,-84 313,-54 209,-54"/>
<text text-anchor="start" x="217" y="-72" font-family="Helvetica,sans-Serif" font-size="10.00">std::basic_string&lt;</text>
<text text-anchor="middle" x="261" y="-61" font-family="Helvetica,sans-Serif" font-size="10.00"> Char &gt;</text>
</a>
</g>
</g>
<!-- Node23&#45;&gt;Node22 -->
<g id="edge28" class="edge">
<title>Node23&#45;&gt;Node22</title>
<path fill="none" stroke="midnightblue" d="M323.1,-69C382.63,-69 470.8,-69 517.6,-69"/>
<polygon fill="midnightblue" stroke="midnightblue" points="323.07,-65.5 313.07,-69 323.07,-72.5 323.07,-65.5"/>
</g>
<!-- Node24&#45;&gt;Node2 -->
<g id="edge30" class="edge">
<title>Node24&#45;&gt;Node2</title>
<path fill="none" stroke="#9a32cd" stroke-dasharray="5,2" d="M650.15,-365.76C692.95,-369.67 743.38,-376.18 788,-387 803.36,-390.72 820,-397.04 832.73,-402.4"/>
<polygon fill="#9a32cd" stroke="#9a32cd" points="650.28,-362.26 640.02,-364.87 649.67,-369.23 650.28,-362.26"/>
<text text-anchor="middle" x="723" y="-390" font-family="Helvetica,sans-Serif" font-size="10.00"> _z_stats</text>
</g>
<!-- Node25 -->
<g id="node25" class="node">
<title>Node25</title>
<g id="a_node25"><a xlink:title=" ">
<polygon fill="none" stroke="#bfbfbf" points="519.5,-878.5 519.5,-897.5 581.5,-897.5 581.5,-878.5 519.5,-878.5"/>
<text text-anchor="middle" x="550.5" y="-885.5" font-family="Helvetica,sans-Serif" font-size="10.00">DataType</text>
</a>
</g>
</g>
<!-- Node25&#45;&gt;Node2 -->
<g id="edge32" class="edge">
<title>Node25&#45;&gt;Node2</title>
<path fill="none" stroke="#9a32cd" stroke-dasharray="5,2" d="M591.62,-897.06C644.19,-906.34 735.8,-913.15 788,-863 854.05,-799.54 854.61,-482.05 854.12,-421.86"/>
<polygon fill="#9a32cd" stroke="#9a32cd" points="592.12,-893.59 581.65,-895.19 590.83,-900.47 592.12,-893.59"/>
<text text-anchor="middle" x="723" y="-906" font-family="Helvetica,sans-Serif" font-size="10.00"> _data_type</text>
</g>
<!-- Node26 -->
<g id="node26" class="node">
<title>Node26</title>
<g id="a_node26"><a xlink:title=" ">
<polygon fill="none" stroke="#bfbfbf" points="837.5,-0.5 837.5,-19.5 872.5,-19.5 872.5,-0.5 837.5,-0.5"/>
<text text-anchor="middle" x="855" y="-7.5" font-family="Helvetica,sans-Serif" font-size="10.00">uInt</text>
</a>
</g>
</g>
<!-- Node26&#45;&gt;Node1 -->
<g id="edge34" class="edge">
<title>Node26&#45;&gt;Node1</title>
<path fill="none" stroke="#9a32cd" stroke-dasharray="5,2" d="M882.51,-13.17C907.04,-16.46 944.37,-22.33 976,-31 991.01,-35.12 1007.37,-41.3 1020.05,-46.49"/>
<polygon fill="#9a32cd" stroke="#9a32cd" points="882.89,-9.69 872.52,-11.89 881.99,-16.64 882.89,-9.69"/>
<text text-anchor="middle" x="949" y="-34" font-family="Helvetica,sans-Serif" font-size="10.00"> _hdu_num</text>
</g>
</g>
</svg>
        <g id="navigator" transform="translate(0 0)" fill="#404254">
                <rect fill="#f2f5e9" fill-opacity="0.5" stroke="#606060" stroke-width=".5" x="0" y="0" width="60" height="60"/>
                <use id="zoomplus" xlink:href="#zoomPlus" x="17" y="9" onmousedown="handleZoom(evt,'in')"/>
                <use id="zoomminus" xlink:href="#zoomMin" x="42" y="9" onmousedown="handleZoom(evt,'out')"/>
                <use id="reset" xlink:href="#resetDef" x="30" y="36" onmousedown="handleReset()"/>
                <g id="arrowUp" xlink:href="#dirArrow" transform="translate(30 24)" onmousedown="handlePan(0,-1)">
                  <use xlink:href="#rim" fill="#404040">
                        <set attributeName="fill" to="#808080" begin="arrowUp.mouseover" end="arrowUp.mouseout"/>
                  </use>
                  <path fill="none" stroke="white" stroke-width="1.5" d="M0,-3.0v7 M-2.5,-0.5L0,-3.0L2.5,-0.5"/>
                </g>
                <g id="arrowRight" xlink:href="#dirArrow" transform="rotate(90) translate(36 -43)" onmousedown="handlePan(1,0)">
                  <use xlink:href="#rim" fill="#404040">
                        <set attributeName="fill" to="#808080" begin="arrowRight.mouseover" end="arrowRight.mouseout"/>
                  </use>
                  <path fill="none" stroke="white" stroke-width="1.5" d="M0,-3.0v7 M-2.5,-0.5L0,-3.0L2.5,-0.5"/>
                </g>
                <g id="arrowDown" xlink:href="#dirArrow" transform="rotate(180) translate(-30 -48)" onmousedown="handlePan(0,1)">
                  <use xlink:href="#rim" fill="#404040">
                        <set attributeName="fill" to="#808080" begin="arrowDown.mouseover" end="arrowDown.mouseout"/>
                  </use>
                  <path fill="none" stroke="white" stroke-width="1.5" d="M0,-3.0v7 M-2.5,-0.5L0,-3.0L2.5,-0.5"/>
                </g>
                <g id="arrowLeft" xlink:href="#dirArrow" transform="rotate(270) translate(-36 17)" onmousedown="handlePan(-1,0)">
                  <use xlink:href="#rim" fill="#404040">
                        <set attributeName="fill" to="#808080" begin="arrowLeft.mouseover" end="arrowLeft.mouseout"/>
                  </use>
                  <path fill="none" stroke="white" stroke-width="1.5" d="M0,-3.0v7 M-2.5,-0.5L0,-3.0L2.5,-0.5"/>
                </g>
        </g>
        <svg viewBox="0 0 15 15" width="100%" height="30px" preserveAspectRatio="xMaxYMin meet">
         <g id="arrow_out" transform="scale(0.3 0.3)">
          <a xlink:href="classcarta_1_1FitsLoader__coll__graph_org.svg" target="_base">
           <rect id="button" ry="5" rx="5" y="6" x="6" height="38" width="38"
                fill="#f2f5e9" fill-opacity="0.5" stroke="#606060" stroke-width="1.0"/>
           <path id="arrow"
             d="M 11.500037,31.436501 C 11.940474,20.09759 22.043105,11.32322 32.158766,21.979434 L 37.068811,17.246167 C 37.068811,17.246167 37.088388,32 37.088388,32 L 22.160133,31.978069 C 22.160133,31.978069 26.997745,27.140456 26.997745,27.140456 C 18.528582,18.264221 13.291696,25.230495 11.500037,31.436501 z"
             style="fill:#404040;"/>
          </a>
         </g>
        </svg>
</svg>
