<?xml version="1.0" encoding="UTF-8" standalone="no"?>
<!DOCTYPE svg PUBLIC "-//W3C//DTD SVG 1.1//EN"
 "http://www.w3.org/Graphics/SVG/1.1/DTD/svg11.dtd">
<!-- Generated by graphviz version 2.43.0 (0)
 -->
<!-- Title: carta::FileLoader::FindCoordinateAxes Pages: 1 -->
<svg width="285pt" height="176pt"
 viewBox="0.00 0.00 285.00 176.00" xmlns="http://www.w3.org/2000/svg" xmlns:xlink="http://www.w3.org/1999/xlink">
<g id="graph0" class="graph" transform="scale(1 1) rotate(0) translate(4 172)">
<title>carta::FileLoader::FindCoordinateAxes</title>
<!-- Node1 -->
<g id="node1" class="node">
<title>Node1</title>
<g id="a_node1"><a xlink:title=" ">
<polygon fill="#bfbfbf" stroke="black" points="0,-66.5 0,-96.5 113,-96.5 113,-66.5 0,-66.5"/>
<text text-anchor="start" x="8" y="-84.5" font-family="Helvetica,sans-Serif" font-size="10.00">carta::FileLoader::</text>
<text text-anchor="middle" x="56.5" y="-73.5" font-family="Helvetica,sans-Serif" font-size="10.00">FindCoordinateAxes</text>
</a>
</g>
</g>
<!-- Node2 -->
<g id="node2" class="node">
<title>Node2</title>
<g id="a_node2"><a xlink:href="namespacecarta_1_1FileInfo.html#adb5dd85385b249a9f718ee5c87dfd57e" target="_top" xlink:title=" ">
<polygon fill="none" stroke="black" points="149,-137.5 149,-167.5 277,-167.5 277,-137.5 149,-137.5"/>
<text text-anchor="start" x="157" y="-155.5" font-family="Helvetica,sans-Serif" font-size="10.00">carta::FileInfo::Convert</text>
<text text-anchor="middle" x="213" y="-144.5" font-family="Helvetica,sans-Serif" font-size="10.00">FitsStokesValue</text>
</a>
</g>
</g>
<!-- Node1&#45;&gt;Node2 -->
<g id="edge1" class="edge">
<title>Node1&#45;&gt;Node2</title>
<path fill="none" stroke="midnightblue" d="M85.14,-96.71C103.1,-106.34 127.14,-118.76 149,-128.5 152.85,-130.22 156.86,-131.92 160.91,-133.59"/>
<polygon fill="midnightblue" stroke="midnightblue" points="159.81,-136.92 170.39,-137.4 162.41,-130.42 159.81,-136.92"/>
</g>
<!-- Node3 -->
<g id="node3" class="node">
<title>Node3</title>
<g id="a_node3"><a xlink:href="classcarta_1_1FileLoader.html#aeb8d99da8c8f96557aa830cfc7d358e7" target="_top" xlink:title=" ">
<polygon fill="none" stroke="black" points="161,-88.5 161,-118.5 265,-118.5 265,-88.5 161,-88.5"/>
<text text-anchor="start" x="169" y="-106.5" font-family="Helvetica,sans-Serif" font-size="10.00">carta::FileLoader::</text>
<text text-anchor="middle" x="213" y="-95.5" font-family="Helvetica,sans-Serif" font-size="10.00">GetRenderAxes</text>
</a>
</g>
</g>
<!-- Node1&#45;&gt;Node3 -->
<g id="edge2" class="edge">
<title>Node1&#45;&gt;Node3</title>
<path fill="none" stroke="midnightblue" d="M113.28,-89.44C125.43,-91.17 138.36,-93.01 150.71,-94.77"/>
<polygon fill="midnightblue" stroke="midnightblue" points="150.54,-98.28 160.93,-96.23 151.52,-91.35 150.54,-98.28"/>
</g>
<!-- Node4 -->
<g id="node4" class="node">
<title>Node4</title>
<g id="a_node4"><a xlink:href="Image_8cc.html#ab8c999df32574e3db2c2cc70f94c91cc" target="_top" xlink:title=" ">
<polygon fill="none" stroke="black" points="168.5,-50 168.5,-69 257.5,-69 257.5,-50 168.5,-50"/>
<text text-anchor="middle" x="213" y="-57" font-family="Helvetica,sans-Serif" font-size="10.00">GetStokesType</text>
</a>
</g>
</g>
<!-- Node1&#45;&gt;Node4 -->
<g id="edge3" class="edge">
<title>Node1&#45;&gt;Node4</title>
<path fill="none" stroke="midnightblue" d="M113.28,-73.56C127.88,-71.48 143.6,-69.24 158.11,-67.17"/>
<polygon fill="midnightblue" stroke="midnightblue" points="159.02,-70.58 168.42,-65.71 158.03,-63.65 159.02,-70.58"/>
</g>
<!-- Node5 -->
<g id="node5" class="node">
<title>Node5</title>
<g id="a_node5"><a xlink:href="classcarta_1_1FileLoader.html#aa240e8e3019302df9f2ab7b24d4c5c04" target="_top" xlink:title=" ">
<polygon fill="none" stroke="black" points="161,-0.5 161,-30.5 265,-30.5 265,-0.5 161,-0.5"/>
<text text-anchor="start" x="169" y="-18.5" font-family="Helvetica,sans-Serif" font-size="10.00">carta::FileLoader::</text>
<text text-anchor="middle" x="213" y="-7.5" font-family="Helvetica,sans-Serif" font-size="10.00">HasData</text>
</a>
</g>
</g>
<!-- Node1&#45;&gt;Node5 -->
<g id="edge4" class="edge">
<title>Node1&#45;&gt;Node5</title>
<path fill="none" stroke="midnightblue" d="M90.38,-66.35C107.74,-58.46 129.44,-48.76 149,-40.5 153.76,-38.49 158.73,-36.44 163.71,-34.41"/>
<polygon fill="midnightblue" stroke="midnightblue" points="165.28,-37.56 173.24,-30.57 162.66,-31.06 165.28,-37.56"/>
</g>
</g>
</svg>
