<?xml version="1.0" encoding="UTF-8" standalone="no"?>
<!DOCTYPE svg PUBLIC "-//W3C//DTD SVG 1.1//EN"
 "http://www.w3.org/Graphics/SVG/1.1/DTD/svg11.dtd">
<!-- Generated by graphviz version 2.43.0 (0)
 -->
<!-- Title: carta::RegionHandler::CalculatePvPreviewImage Pages: 1 -->
<!--zoomable 408 -->
<svg id="main" version="1.1" xmlns="http://www.w3.org/2000/svg" xmlns:xlink="http://www.w3.org/1999/xlink" xml:space="preserve" onload="init(evt)">
<style type="text/css"><![CDATA[
.edge:hover path { stroke: red; }
.edge:hover polygon { stroke: red; fill: red; }
]]></style>
<script type="text/javascript"><![CDATA[
var edges = document.getElementsByTagName('g');
if (edges && edges.length) {
  for (var i=0;i<edges.length;i++) {
    if (edges[i].id.substr(0,4)=='edge') {
      edges[i].setAttribute('class','edge');
    }
  }
}
]]></script>
        <defs>
                <circle id="rim" cx="0" cy="0" r="7"/>
                <circle id="rim2" cx="0" cy="0" r="3.5"/>
                <g id="zoomPlus">
                        <use xlink:href="#rim" fill="#404040">
                                <set attributeName="fill" to="#808080" begin="zoomplus.mouseover" end="zoomplus.mouseout"/>
                        </use>
                        <path d="M-4,0h8M0,-4v8" fill="none" stroke="white" stroke-width="1.5" pointer-events="none"/>
                </g>
                <g id="zoomMin">
                        <use xlink:href="#rim" fill="#404040">
                                <set attributeName="fill" to="#808080" begin="zoomminus.mouseover" end="zoomminus.mouseout"/>
                        </use>
                        <path d="M-4,0h8" fill="none" stroke="white" stroke-width="1.5" pointer-events="none"/>
                </g>
                <g id="dirArrow">
                        <path fill="none" stroke="white" stroke-width="1.5" d="M0,-3.0v7 M-2.5,-0.5L0,-3.0L2.5,-0.5"/>
                </g>
               <g id="resetDef">
                       <use xlink:href="#rim2" fill="#404040">
                               <set attributeName="fill" to="#808080" begin="reset.mouseover" end="reset.mouseout"/>
                       </use>
               </g>
        </defs>

<script type="text/javascript">
var viewWidth = 790;
var viewHeight = 408;
var sectionId = 'dynsection-8';
</script>
<script xlink:href="svgpan.js"/>
<svg id="graph" class="graph">
<g id="viewport">
<title>carta::RegionHandler::CalculatePvPreviewImage</title>
<!-- Node1 -->
<g id="node1" class="node">
<title>Node1</title>
<g id="a_node1"><a xlink:title=" ">
<polygon fill="#bfbfbf" stroke="black" points="0,-151 0,-181 150,-181 150,-151 0,-151"/>
<text text-anchor="start" x="8" y="-169" font-family="Helvetica,sans-Serif" font-size="10.00">carta::RegionHandler</text>
<text text-anchor="middle" x="75" y="-158" font-family="Helvetica,sans-Serif" font-size="10.00">::CalculatePvPreviewImage</text>
</a>
</g>
</g>
<!-- Node2 -->
<g id="node2" class="node">
<title>Node2</title>
<g id="a_node2"><a xlink:href="classcarta_1_1RegionHandler.html#a5c734366cb3b4b307c54a66251dd270c" target="_top" xlink:title=" ">
<polygon fill="none" stroke="black" points="192,-302 192,-332 311,-332 311,-302 192,-302"/>
<text text-anchor="start" x="200" y="-320" font-family="Helvetica,sans-Serif" font-size="10.00">carta::RegionHandler</text>
<text text-anchor="middle" x="251.5" y="-309" font-family="Helvetica,sans-Serif" font-size="10.00">::ApplyRegionToFile</text>
</a>
</g>
</g>
<!-- Node1&#45;&gt;Node2 -->
<g id="edge1" class="edge">
<title>Node1&#45;&gt;Node2</title>
<path fill="none" stroke="midnightblue" d="M86.63,-181.18C104.67,-206.01 143.46,-255.71 186,-287 191.09,-290.75 196.73,-294.19 202.48,-297.31"/>
<polygon fill="midnightblue" stroke="midnightblue" points="201.07,-300.52 211.57,-301.94 204.25,-294.28 201.07,-300.52"/>
</g>
<!-- Node3 -->
<g id="node3" class="node">
<title>Node3</title>
<g id="a_node3"><a xlink:href="classcarta_1_1RegionHandler.html#ab9501617a3845ac3fa32b6b88c5269eb" target="_top" xlink:title=" ">
<polygon fill="none" stroke="black" points="353,-214 353,-244 472,-244 472,-214 353,-214"/>
<text text-anchor="start" x="361" y="-232" font-family="Helvetica,sans-Serif" font-size="10.00">carta::RegionHandler</text>
<text text-anchor="middle" x="412.5" y="-221" font-family="Helvetica,sans-Serif" font-size="10.00">::IsClosedRegion</text>
</a>
</g>
</g>
<!-- Node1&#45;&gt;Node3 -->
<g id="edge22" class="edge">
<title>Node1&#45;&gt;Node3</title>
<path fill="none" stroke="midnightblue" d="M120.27,-181.04C140.17,-187.34 164.07,-194.28 186,-199 237.94,-210.17 297.56,-217.89 342.45,-222.69"/>
<polygon fill="midnightblue" stroke="midnightblue" points="342.35,-226.2 352.66,-223.76 343.08,-219.24 342.35,-226.2"/>
</g>
<!-- Node4 -->
<g id="node4" class="node">
<title>Node4</title>
<g id="a_node4"><a xlink:href="classcarta_1_1RegionHandler.html#a4d3eaa8da979a4b0640aa3b598a9415b" target="_top" xlink:title=" ">
<polygon fill="none" stroke="black" points="508,-258 508,-288 627,-288 627,-258 508,-258"/>
<text text-anchor="start" x="516" y="-276" font-family="Helvetica,sans-Serif" font-size="10.00">carta::RegionHandler</text>
<text text-anchor="middle" x="567.5" y="-265" font-family="Helvetica,sans-Serif" font-size="10.00">::GetRegion</text>
</a>
</g>
</g>
<!-- Node1&#45;&gt;Node4 -->
<g id="edge21" class="edge">
<title>Node1&#45;&gt;Node4</title>
<path fill="none" stroke="midnightblue" d="M99.98,-181.07C121.66,-194.04 154.88,-212.31 186,-223 290.78,-258.99 419.98,-269.32 497.67,-272.14"/>
<polygon fill="midnightblue" stroke="midnightblue" points="497.7,-275.64 507.81,-272.48 497.93,-268.65 497.7,-275.64"/>
</g>
<!-- Node5 -->
<g id="node5" class="node">
<title>Node5</title>
<g id="a_node5"><a xlink:href="classcarta_1_1RegionHandler.html#a9e8b41c9fe29c95b66a44f78490bbcae" target="_top" xlink:title=" ">
<polygon fill="none" stroke="black" points="663,-258 663,-288 782,-288 782,-258 663,-258"/>
<text text-anchor="start" x="671" y="-276" font-family="Helvetica,sans-Serif" font-size="10.00">carta::RegionHandler</text>
<text text-anchor="middle" x="722.5" y="-265" font-family="Helvetica,sans-Serif" font-size="10.00">::RegionSet</text>
</a>
</g>
</g>
<!-- Node1&#45;&gt;Node5 -->
<g id="edge24" class="edge">
<title>Node1&#45;&gt;Node5</title>
<path fill="none" stroke="midnightblue" d="M150.32,-166.34C257.78,-168.68 461.76,-180.06 627,-230 646.65,-235.94 667.53,-245.11 684.64,-253.45"/>
<polygon fill="midnightblue" stroke="midnightblue" points="683.22,-256.66 693.73,-257.98 686.34,-250.39 683.22,-256.66"/>
</g>
<!-- Node9 -->
<g id="node9" class="node">
<title>Node9</title>
<g id="a_node9"><a xlink:href="classcarta_1_1Timer.html#aad2702a80259920b910fb76642f97b88" target="_top" xlink:title=" ">
<polygon fill="none" stroke="black" points="191.5,-137.5 191.5,-156.5 311.5,-156.5 311.5,-137.5 191.5,-137.5"/>
<text text-anchor="middle" x="251.5" y="-144.5" font-family="Helvetica,sans-Serif" font-size="10.00">carta::Timer::Elapsed</text>
</a>
</g>
</g>
<!-- Node1&#45;&gt;Node9 -->
<g id="edge12" class="edge">
<title>Node1&#45;&gt;Node9</title>
<path fill="none" stroke="midnightblue" d="M150,-157.94C160.38,-156.81 171.02,-155.65 181.31,-154.53"/>
<polygon fill="midnightblue" stroke="midnightblue" points="181.89,-157.99 191.45,-153.43 181.13,-151.03 181.89,-157.99"/>
</g>
<!-- Node10 -->
<g id="node10" class="node">
<title>Node10</title>
<g id="a_node10"><a xlink:href="classcarta_1_1FileLoader.html#a581709c9a332af503acb77d79b8ae38f" target="_top" xlink:title=" ">
<polygon fill="none" stroke="black" points="199.5,-88 199.5,-118 303.5,-118 303.5,-88 199.5,-88"/>
<text text-anchor="start" x="207.5" y="-106" font-family="Helvetica,sans-Serif" font-size="10.00">carta::FileLoader::</text>
<text text-anchor="middle" x="251.5" y="-95" font-family="Helvetica,sans-Serif" font-size="10.00">GetLoader</text>
</a>
</g>
</g>
<!-- Node1&#45;&gt;Node10 -->
<g id="edge13" class="edge">
<title>Node1&#45;&gt;Node10</title>
<path fill="none" stroke="midnightblue" d="M117.8,-150.91C142.21,-142.1 173.2,-130.91 199.09,-121.56"/>
<polygon fill="midnightblue" stroke="midnightblue" points="200.52,-124.76 208.74,-118.08 198.15,-118.18 200.52,-124.76"/>
</g>
<!-- Node17 -->
<g id="node17" class="node">
<title>Node17</title>
<g id="a_node17"><a xlink:href="classcarta_1_1RegionHandler.html#ab0b3358b46e9265c92310a735aa44156" target="_top" xlink:title=" ">
<polygon fill="none" stroke="black" points="186,-39 186,-69 317,-69 317,-39 186,-39"/>
<text text-anchor="start" x="194" y="-57" font-family="Helvetica,sans-Serif" font-size="10.00">carta::RegionHandler</text>
<text text-anchor="middle" x="251.5" y="-46" font-family="Helvetica,sans-Serif" font-size="10.00">::GetPvPreviewFrameId</text>
</a>
</g>
</g>
<!-- Node1&#45;&gt;Node17 -->
<g id="edge20" class="edge">
<title>Node1&#45;&gt;Node17</title>
<path fill="none" stroke="midnightblue" d="M92.02,-150.76C112.49,-131.92 149.65,-99.79 186,-79 189.48,-77.01 193.14,-75.12 196.89,-73.32"/>
<polygon fill="midnightblue" stroke="midnightblue" points="198.63,-76.38 206.31,-69.09 195.76,-70 198.63,-76.38"/>
</g>
<!-- Node18 -->
<g id="node18" class="node">
<title>Node18</title>
<g id="a_node18"><a xlink:href="structcarta_1_1TimeDelta.html#a90b2dc0a7d70b0aa6f668f4bbad7fa58" target="_top" xlink:title=" ">
<polygon fill="none" stroke="black" points="192,-0.5 192,-19.5 311,-19.5 311,-0.5 192,-0.5"/>
<text text-anchor="middle" x="251.5" y="-7.5" font-family="Helvetica,sans-Serif" font-size="10.00">carta::TimeDelta::ms</text>
</a>
</g>
</g>
<!-- Node1&#45;&gt;Node18 -->
<g id="edge23" class="edge">
<title>Node1&#45;&gt;Node18</title>
<path fill="none" stroke="midnightblue" d="M84.07,-150.71C99.8,-122.36 137.35,-61.6 186,-29 189.09,-26.93 192.41,-25.08 195.86,-23.43"/>
<polygon fill="midnightblue" stroke="midnightblue" points="197.34,-26.6 205.2,-19.5 194.63,-20.15 197.34,-26.6"/>
</g>
<!-- Node2&#45;&gt;Node3 -->
<g id="edge2" class="edge">
<title>Node2&#45;&gt;Node3</title>
<path fill="none" stroke="midnightblue" d="M279.83,-301.87C306.19,-287.28 346.25,-265.11 375.26,-249.06"/>
<polygon fill="midnightblue" stroke="midnightblue" points="377.2,-251.98 384.26,-244.08 373.81,-245.86 377.2,-251.98"/>
</g>
<!-- Node6 -->
<g id="node6" class="node">
<title>Node6</title>
<g id="a_node6"><a xlink:href="classcarta_1_1RegionHandler.html#a94d939104654243dec3750ada83b370e" target="_top" xlink:title=" ">
<polygon fill="none" stroke="black" points="353,-302 353,-332 472,-332 472,-302 353,-302"/>
<text text-anchor="start" x="361" y="-320" font-family="Helvetica,sans-Serif" font-size="10.00">carta::RegionHandler</text>
<text text-anchor="middle" x="412.5" y="-309" font-family="Helvetica,sans-Serif" font-size="10.00">::IsPointRegion</text>
</a>
</g>
</g>
<!-- Node2&#45;&gt;Node6 -->
<g id="edge6" class="edge">
<title>Node2&#45;&gt;Node6</title>
<path fill="none" stroke="midnightblue" d="M311.25,-317C321.58,-317 332.4,-317 342.97,-317"/>
<polygon fill="midnightblue" stroke="midnightblue" points="342.99,-320.5 352.99,-317 342.99,-313.5 342.99,-320.5"/>
</g>
<!-- Node7 -->
<g id="node7" class="node">
<title>Node7</title>
<g id="a_node7"><a xlink:href="classcarta_1_1RegionHandler.html#a8c787facbcb265d7fa434e05324f2c9e" target="_top" xlink:title=" ">
<polygon fill="none" stroke="black" points="353,-351 353,-381 472,-381 472,-351 353,-351"/>
<text text-anchor="start" x="361" y="-369" font-family="Helvetica,sans-Serif" font-size="10.00">carta::RegionHandler</text>
<text text-anchor="middle" x="412.5" y="-358" font-family="Helvetica,sans-Serif" font-size="10.00">::RegionFileIdsValid</text>
</a>
</g>
</g>
<!-- Node2&#45;&gt;Node7 -->
<g id="edge9" class="edge">
<title>Node2&#45;&gt;Node7</title>
<path fill="none" stroke="midnightblue" d="M301.5,-332.1C317.75,-337.11 336,-342.73 352.89,-347.94"/>
<polygon fill="midnightblue" stroke="midnightblue" points="352.07,-351.35 362.66,-350.95 354.13,-344.66 352.07,-351.35"/>
</g>
<!-- Node3&#45;&gt;Node4 -->
<g id="edge3" class="edge">
<title>Node3&#45;&gt;Node4</title>
<path fill="none" stroke="midnightblue" d="M465.73,-244.02C478.21,-247.61 491.66,-251.48 504.54,-255.18"/>
<polygon fill="midnightblue" stroke="midnightblue" points="503.67,-258.57 514.25,-257.97 505.61,-251.85 503.67,-258.57"/>
</g>
<!-- Node3&#45;&gt;Node5 -->
<g id="edge5" class="edge">
<title>Node3&#45;&gt;Node5</title>
<path fill="none" stroke="midnightblue" d="M472.27,-232.04C515.34,-234.87 575.09,-240.03 627,-249 637.24,-250.77 648,-253.07 658.45,-255.54"/>
<polygon fill="midnightblue" stroke="midnightblue" points="657.79,-258.99 668.34,-257.96 659.45,-252.19 657.79,-258.99"/>
</g>
<!-- Node4&#45;&gt;Node5 -->
<g id="edge4" class="edge">
<title>Node4&#45;&gt;Node5</title>
<path fill="none" stroke="midnightblue" d="M627.22,-273C635.54,-273 644.17,-273 652.67,-273"/>
<polygon fill="midnightblue" stroke="midnightblue" points="652.94,-276.5 662.94,-273 652.94,-269.5 652.94,-276.5"/>
</g>
<!-- Node6&#45;&gt;Node4 -->
<g id="edge7" class="edge">
<title>Node6&#45;&gt;Node4</title>
<path fill="none" stroke="midnightblue" d="M465.73,-301.98C478.21,-298.39 491.66,-294.52 504.54,-290.82"/>
<polygon fill="midnightblue" stroke="midnightblue" points="505.61,-294.15 514.25,-288.03 503.67,-287.43 505.61,-294.15"/>
</g>
<!-- Node6&#45;&gt;Node5 -->
<g id="edge8" class="edge">
<title>Node6&#45;&gt;Node5</title>
<path fill="none" stroke="midnightblue" d="M472.3,-314.46C515.38,-311.94 575.14,-307.1 627,-298 638.12,-296.05 649.84,-293.42 661.1,-290.61"/>
<polygon fill="midnightblue" stroke="midnightblue" points="662.04,-293.98 670.85,-288.09 660.29,-287.2 662.04,-293.98"/>
</g>
<!-- Node7&#45;&gt;Node5 -->
<g id="edge11" class="edge">
<title>Node7&#45;&gt;Node5</title>
<path fill="none" stroke="midnightblue" d="M452.55,-381.12C496.98,-395.79 570.68,-412.32 627,-386 665.96,-367.79 694.52,-324.74 709.52,-297.35"/>
<polygon fill="midnightblue" stroke="midnightblue" points="712.68,-298.85 714.26,-288.37 706.49,-295.58 712.68,-298.85"/>
</g>
<!-- Node8 -->
<g id="node8" class="node">
<title>Node8</title>
<g id="a_node8"><a xlink:href="classcarta_1_1RegionHandler.html#a16e8f0e73ba63be909517151bf11a450" target="_top" xlink:title=" ">
<polygon fill="none" stroke="black" points="508,-346 508,-376 627,-376 627,-346 508,-346"/>
<text text-anchor="start" x="516" y="-364" font-family="Helvetica,sans-Serif" font-size="10.00">carta::RegionHandler</text>
<text text-anchor="middle" x="567.5" y="-353" font-family="Helvetica,sans-Serif" font-size="10.00">::FrameSet</text>
</a>
</g>
</g>
<!-- Node7&#45;&gt;Node8 -->
<g id="edge10" class="edge">
<title>Node7&#45;&gt;Node8</title>
<path fill="none" stroke="midnightblue" d="M472.22,-364.08C480.54,-363.81 489.17,-363.53 497.67,-363.25"/>
<polygon fill="midnightblue" stroke="midnightblue" points="498.06,-366.74 507.94,-362.91 497.83,-359.74 498.06,-366.74"/>
</g>
<!-- Node11 -->
<g id="node11" class="node">
<title>Node11</title>
<g id="a_node11"><a xlink:href="Casacore_8h.html#a7f2e1b7b1fdc56656757ae21fa22be67" target="_top" xlink:title=" ">
<polygon fill="none" stroke="black" points="355,-131.5 355,-150.5 470,-150.5 470,-131.5 355,-131.5"/>
<text text-anchor="middle" x="412.5" y="-138.5" font-family="Helvetica,sans-Serif" font-size="10.00">CasacoreImageType</text>
</a>
</g>
</g>
<!-- Node10&#45;&gt;Node11 -->
<g id="edge14" class="edge">
<title>Node10&#45;&gt;Node11</title>
<path fill="none" stroke="midnightblue" d="M303.68,-115.23C322.22,-119.66 343.12,-124.66 361.55,-129.06"/>
<polygon fill="midnightblue" stroke="midnightblue" points="360.96,-132.52 371.5,-131.44 362.59,-125.71 360.96,-132.52"/>
</g>
<!-- Node12 -->
<g id="node12" class="node">
<title>Node12</title>
<g id="a_node12"><a xlink:href="File_8cc.html#a75f8a4cb14c9fca8730255b6fee82794" target="_top" xlink:title=" ">
<polygon fill="none" stroke="black" points="361,-93.5 361,-112.5 464,-112.5 464,-93.5 361,-93.5"/>
<text text-anchor="middle" x="412.5" y="-100.5" font-family="Helvetica,sans-Serif" font-size="10.00">IsCompressedFits</text>
</a>
</g>
</g>
<!-- Node10&#45;&gt;Node12 -->
<g id="edge15" class="edge">
<title>Node10&#45;&gt;Node12</title>
<path fill="none" stroke="midnightblue" d="M303.68,-103C318.73,-103 335.33,-103 350.9,-103"/>
<polygon fill="midnightblue" stroke="midnightblue" points="350.96,-106.5 360.96,-103 350.96,-99.5 350.96,-106.5"/>
</g>
<!-- Node16 -->
<g id="node16" class="node">
<title>Node16</title>
<g id="a_node16"><a xlink:href="File_8cc.html#ac3253b9c72cf4368b08803ef2a0102bb" target="_top" xlink:title=" ">
<polygon fill="none" stroke="black" points="362,-55.5 362,-74.5 463,-74.5 463,-55.5 362,-55.5"/>
<text text-anchor="middle" x="412.5" y="-62.5" font-family="Helvetica,sans-Serif" font-size="10.00">IsRemoteHttpFile</text>
</a>
</g>
</g>
<!-- Node10&#45;&gt;Node16 -->
<g id="edge19" class="edge">
<title>Node10&#45;&gt;Node16</title>
<path fill="none" stroke="midnightblue" d="M303.68,-90.77C322.22,-86.34 343.12,-81.34 361.55,-76.94"/>
<polygon fill="midnightblue" stroke="midnightblue" points="362.59,-80.29 371.5,-74.56 360.96,-73.48 362.59,-80.29"/>
</g>
<!-- Node13 -->
<g id="node13" class="node">
<title>Node13</title>
<g id="a_node13"><a xlink:href="File_8cc.html#a7e6d57b61e0979a7171bb2e6519093f9" target="_top" xlink:title=" ">
<polygon fill="none" stroke="black" points="516.5,-131.5 516.5,-150.5 618.5,-150.5 618.5,-131.5 516.5,-131.5"/>
<text text-anchor="middle" x="567.5" y="-138.5" font-family="Helvetica,sans-Serif" font-size="10.00">GetMagicNumber</text>
</a>
</g>
</g>
<!-- Node12&#45;&gt;Node13 -->
<g id="edge16" class="edge">
<title>Node12&#45;&gt;Node13</title>
<path fill="none" stroke="midnightblue" d="M452.11,-112.59C472.21,-117.58 496.98,-123.73 518.32,-129.03"/>
<polygon fill="midnightblue" stroke="midnightblue" points="517.62,-132.47 528.17,-131.48 519.31,-125.67 517.62,-132.47"/>
</g>
<!-- Node14 -->
<g id="node14" class="node">
<title>Node14</title>
<g id="a_node14"><a xlink:href="String_8cc.html#a1540adc30610b9db4add6622c248b9d1" target="_top" xlink:title=" ">
<polygon fill="none" stroke="black" points="536,-93.5 536,-112.5 599,-112.5 599,-93.5 536,-93.5"/>
<text text-anchor="middle" x="567.5" y="-100.5" font-family="Helvetica,sans-Serif" font-size="10.00">HasSuffix</text>
</a>
</g>
</g>
<!-- Node12&#45;&gt;Node14 -->
<g id="edge17" class="edge">
<title>Node12&#45;&gt;Node14</title>
<path fill="none" stroke="midnightblue" d="M464.02,-103C484,-103 506.66,-103 525.58,-103"/>
<polygon fill="midnightblue" stroke="midnightblue" points="525.66,-106.5 535.66,-103 525.66,-99.5 525.66,-106.5"/>
</g>
<!-- Node15 -->
<g id="node15" class="node">
<title>Node15</title>
<g id="a_node15"><a xlink:href="File_8cc.html#a0b28b83747dc07e95f4a0e1b5b4db83e" target="_top" xlink:title=" ">
<polygon fill="none" stroke="black" points="514.5,-55.5 514.5,-74.5 620.5,-74.5 620.5,-55.5 514.5,-55.5"/>
<text text-anchor="middle" x="567.5" y="-62.5" font-family="Helvetica,sans-Serif" font-size="10.00">IsGzMagicNumber</text>
</a>
</g>
</g>
<!-- Node12&#45;&gt;Node15 -->
<g id="edge18" class="edge">
<title>Node12&#45;&gt;Node15</title>
<path fill="none" stroke="midnightblue" d="M452.11,-93.41C472.21,-88.42 496.98,-82.27 518.32,-76.97"/>
<polygon fill="midnightblue" stroke="midnightblue" points="519.31,-80.33 528.17,-74.52 517.62,-73.53 519.31,-80.33"/>
</g>
</g>
</svg>
        <g id="navigator" transform="translate(0 0)" fill="#404254">
                <rect fill="#f2f5e9" fill-opacity="0.5" stroke="#606060" stroke-width=".5" x="0" y="0" width="60" height="60"/>
                <use id="zoomplus" xlink:href="#zoomPlus" x="17" y="9" onmousedown="handleZoom(evt,'in')"/>
                <use id="zoomminus" xlink:href="#zoomMin" x="42" y="9" onmousedown="handleZoom(evt,'out')"/>
                <use id="reset" xlink:href="#resetDef" x="30" y="36" onmousedown="handleReset()"/>
                <g id="arrowUp" xlink:href="#dirArrow" transform="translate(30 24)" onmousedown="handlePan(0,-1)">
                  <use xlink:href="#rim" fill="#404040">
                        <set attributeName="fill" to="#808080" begin="arrowUp.mouseover" end="arrowUp.mouseout"/>
                  </use>
                  <path fill="none" stroke="white" stroke-width="1.5" d="M0,-3.0v7 M-2.5,-0.5L0,-3.0L2.5,-0.5"/>
                </g>
                <g id="arrowRight" xlink:href="#dirArrow" transform="rotate(90) translate(36 -43)" onmousedown="handlePan(1,0)">
                  <use xlink:href="#rim" fill="#404040">
                        <set attributeName="fill" to="#808080" begin="arrowRight.mouseover" end="arrowRight.mouseout"/>
                  </use>
                  <path fill="none" stroke="white" stroke-width="1.5" d="M0,-3.0v7 M-2.5,-0.5L0,-3.0L2.5,-0.5"/>
                </g>
                <g id="arrowDown" xlink:href="#dirArrow" transform="rotate(180) translate(-30 -48)" onmousedown="handlePan(0,1)">
                  <use xlink:href="#rim" fill="#404040">
                        <set attributeName="fill" to="#808080" begin="arrowDown.mouseover" end="arrowDown.mouseout"/>
                  </use>
                  <path fill="none" stroke="white" stroke-width="1.5" d="M0,-3.0v7 M-2.5,-0.5L0,-3.0L2.5,-0.5"/>
                </g>
                <g id="arrowLeft" xlink:href="#dirArrow" transform="rotate(270) translate(-36 17)" onmousedown="handlePan(-1,0)">
                  <use xlink:href="#rim" fill="#404040">
                        <set attributeName="fill" to="#808080" begin="arrowLeft.mouseover" end="arrowLeft.mouseout"/>
                  </use>
                  <path fill="none" stroke="white" stroke-width="1.5" d="M0,-3.0v7 M-2.5,-0.5L0,-3.0L2.5,-0.5"/>
                </g>
        </g>
        <svg viewBox="0 0 15 15" width="100%" height="30px" preserveAspectRatio="xMaxYMin meet">
         <g id="arrow_out" transform="scale(0.3 0.3)">
          <a xlink:href="classcarta_1_1RegionHandler_a9fc8e855f922f23cc072d0706f53c805_cgraph_org.svg" target="_base">
           <rect id="button" ry="5" rx="5" y="6" x="6" height="38" width="38"
                fill="#f2f5e9" fill-opacity="0.5" stroke="#606060" stroke-width="1.0"/>
           <path id="arrow"
             d="M 11.500037,31.436501 C 11.940474,20.09759 22.043105,11.32322 32.158766,21.979434 L 37.068811,17.246167 C 37.068811,17.246167 37.088388,32 37.088388,32 L 22.160133,31.978069 C 22.160133,31.978069 26.997745,27.140456 26.997745,27.140456 C 18.528582,18.264221 13.291696,25.230495 11.500037,31.436501 z"
             style="fill:#404040;"/>
          </a>
         </g>
        </svg>
</svg>
