<?xml version="1.0" encoding="UTF-8" standalone="no"?>
<!DOCTYPE svg PUBLIC "-//W3C//DTD SVG 1.1//EN"
 "http://www.w3.org/Graphics/SVG/1.1/DTD/svg11.dtd">
<!-- Generated by graphviz version 2.43.0 (0)
 -->
<!-- Title: carta::MomentGenerator::GetInputFileName Pages: 1 -->
<svg width="497pt" height="61pt"
 viewBox="0.00 0.00 497.00 61.00" xmlns="http://www.w3.org/2000/svg" xmlns:xlink="http://www.w3.org/1999/xlink">
<g id="graph0" class="graph" transform="scale(1 1) rotate(0) translate(4 57)">
<title>carta::MomentGenerator::GetInputFileName</title>
<!-- Node1 -->
<g id="node1" class="node">
<title>Node1</title>
<g id="a_node1"><a xlink:title=" ">
<polygon fill="#bfbfbf" stroke="black" points="352,-22.5 352,-52.5 489,-52.5 489,-22.5 352,-22.5"/>
<text text-anchor="start" x="360" y="-40.5" font-family="Helvetica,sans-Serif" font-size="10.00">carta::MomentGenerator</text>
<text text-anchor="middle" x="420.5" y="-29.5" font-family="Helvetica,sans-Serif" font-size="10.00">::GetInputFileName</text>
</a>
</g>
</g>
<!-- Node2 -->
<g id="node2" class="node">
<title>Node2</title>
<g id="a_node2"><a xlink:href="classcarta_1_1MomentGenerator.html#a72ed0de83810cde08599ca4af6f857ea" target="_top" xlink:title=" ">
<polygon fill="none" stroke="black" points="0,-22.5 0,-52.5 137,-52.5 137,-22.5 0,-22.5"/>
<text text-anchor="start" x="8" y="-40.5" font-family="Helvetica,sans-Serif" font-size="10.00">carta::MomentGenerator</text>
<text text-anchor="middle" x="68.5" y="-29.5" font-family="Helvetica,sans-Serif" font-size="10.00">::CalculateMoments</text>
</a>
</g>
</g>
<!-- Node1&#45;&gt;Node2 -->
<g id="edge1" class="edge">
<title>Node1&#45;&gt;Node2</title>
<path fill="none" stroke="midnightblue" d="M341.72,-40C333.04,-40.2 324.33,-40.38 316,-40.5 252.45,-41.42 236.55,-41.42 173,-40.5 161.41,-40.33 149.08,-40.06 137.14,-39.74"/>
<polygon fill="midnightblue" stroke="midnightblue" points="341.95,-43.49 351.86,-39.74 341.78,-36.5 341.95,-43.49"/>
</g>
<!-- Node3 -->
<g id="node3" class="node">
<title>Node3</title>
<g id="a_node3"><a xlink:href="classcarta_1_1MomentGenerator.html#a22e3b7a1f2c37719dee66c1ecb74dab6" target="_top" xlink:title=" ">
<polygon fill="none" stroke="black" points="173,-0.5 173,-30.5 316,-30.5 316,-0.5 173,-0.5"/>
<text text-anchor="start" x="181" y="-18.5" font-family="Helvetica,sans-Serif" font-size="10.00">carta::MomentGenerator</text>
<text text-anchor="middle" x="244.5" y="-7.5" font-family="Helvetica,sans-Serif" font-size="10.00">::SetMomentImageLogger</text>
</a>
</g>
</g>
<!-- Node1&#45;&gt;Node3 -->
<g id="edge2" class="edge">
<title>Node1&#45;&gt;Node3</title>
<path fill="none" stroke="midnightblue" d="M341.53,-27.64C333.11,-26.58 324.58,-25.5 316.25,-24.44"/>
<polygon fill="midnightblue" stroke="midnightblue" points="341.37,-31.15 351.73,-28.93 342.25,-24.2 341.37,-31.15"/>
</g>
<!-- Node3&#45;&gt;Node2 -->
<g id="edge3" class="edge">
<title>Node3&#45;&gt;Node2</title>
<path fill="none" stroke="midnightblue" d="M162.88,-25.69C154.23,-26.79 145.5,-27.89 137.02,-28.96"/>
<polygon fill="midnightblue" stroke="midnightblue" points="163.5,-29.14 172.98,-24.42 162.62,-22.2 163.5,-29.14"/>
</g>
</g>
</svg>
