<?xml version="1.0" encoding="UTF-8" standalone="no"?>
<!DOCTYPE svg PUBLIC "-//W3C//DTD SVG 1.1//EN"
 "http://www.w3.org/Graphics/SVG/1.1/DTD/svg11.dtd">
<!-- Generated by graphviz version 2.43.0 (0)
 -->
<!-- Title: carta::LineBoxRegions::GetFixedPixelRegions Pages: 1 -->
<svg width="472pt" height="171pt"
 viewBox="0.00 0.00 472.00 170.50" xmlns="http://www.w3.org/2000/svg" xmlns:xlink="http://www.w3.org/1999/xlink">
<g id="graph0" class="graph" transform="scale(1 1) rotate(0) translate(4 166.5)">
<title>carta::LineBoxRegions::GetFixedPixelRegions</title>
<!-- Node1 -->
<g id="node1" class="node">
<title>Node1</title>
<g id="a_node1"><a xlink:title=" ">
<polygon fill="#bfbfbf" stroke="black" points="0,-63 0,-93 128,-93 128,-63 0,-63"/>
<text text-anchor="start" x="8" y="-81" font-family="Helvetica,sans-Serif" font-size="10.00">carta::LineBoxRegions</text>
<text text-anchor="middle" x="64" y="-70" font-family="Helvetica,sans-Serif" font-size="10.00">::GetFixedPixelRegions</text>
</a>
</g>
</g>
<!-- Node2 -->
<g id="node2" class="node">
<title>Node2</title>
<g id="a_node2"><a xlink:href="classcarta_1_1LineBoxRegions.html#aaceeef29cfe324a7464ba7fb0e24b6e5" target="_top" xlink:title=" ">
<polygon fill="none" stroke="black" points="164,-88 164,-118 289,-118 289,-88 164,-88"/>
<text text-anchor="start" x="172" y="-106" font-family="Helvetica,sans-Serif" font-size="10.00">carta::LineBoxRegions</text>
<text text-anchor="middle" x="226.5" y="-95" font-family="Helvetica,sans-Serif" font-size="10.00">::CheckLinearOffsets</text>
</a>
</g>
</g>
<!-- Node1&#45;&gt;Node2 -->
<g id="edge1" class="edge">
<title>Node1&#45;&gt;Node2</title>
<path fill="none" stroke="midnightblue" d="M128.43,-87.88C136.81,-89.19 145.44,-90.53 153.94,-91.85"/>
<polygon fill="midnightblue" stroke="midnightblue" points="153.42,-95.31 163.84,-93.4 154.5,-88.4 153.42,-95.31"/>
</g>
<!-- Node3 -->
<g id="node3" class="node">
<title>Node3</title>
<g id="a_node3"><a xlink:href="classcarta_1_1LineBoxRegions.html#a427ea4115e09871b3b27e1be0201abc3" target="_top" xlink:title=" ">
<polygon fill="none" stroke="black" points="332,-132 332,-162 457,-162 457,-132 332,-132"/>
<text text-anchor="start" x="340" y="-150" font-family="Helvetica,sans-Serif" font-size="10.00">carta::LineBoxRegions</text>
<text text-anchor="middle" x="394.5" y="-139" font-family="Helvetica,sans-Serif" font-size="10.00">::GetPointSeparation</text>
</a>
</g>
</g>
<!-- Node1&#45;&gt;Node3 -->
<g id="edge5" class="edge">
<title>Node1&#45;&gt;Node3</title>
<path fill="none" stroke="midnightblue" d="M88.35,-93.05C107.77,-104.76 136.57,-120.26 164,-128 215.51,-142.54 275.91,-147.07 321.81,-148.08"/>
<polygon fill="midnightblue" stroke="midnightblue" points="321.91,-151.58 331.97,-148.25 322.03,-144.58 321.91,-151.58"/>
</g>
<!-- Node5 -->
<g id="node5" class="node">
<title>Node5</title>
<g id="a_node5"><a xlink:href="classcarta_1_1LineBoxRegions.html#a2e282e38eae566e015e13f72a9696e28" target="_top" xlink:title=" ">
<polygon fill="none" stroke="black" points="164,-39 164,-69 289,-69 289,-39 164,-39"/>
<text text-anchor="start" x="172" y="-57" font-family="Helvetica,sans-Serif" font-size="10.00">carta::LineBoxRegions</text>
<text text-anchor="middle" x="226.5" y="-46" font-family="Helvetica,sans-Serif" font-size="10.00">::GetLineRotation</text>
</a>
</g>
</g>
<!-- Node1&#45;&gt;Node5 -->
<g id="edge4" class="edge">
<title>Node1&#45;&gt;Node5</title>
<path fill="none" stroke="midnightblue" d="M128.43,-68.51C136.81,-67.26 145.44,-65.97 153.94,-64.7"/>
<polygon fill="midnightblue" stroke="midnightblue" points="154.47,-68.16 163.84,-63.22 153.43,-61.24 154.47,-68.16"/>
</g>
<!-- Node6 -->
<g id="node6" class="node">
<title>Node6</title>
<g id="a_node6"><a xlink:href="classMessage.html#a0c0bb5e50ad8b90bade291ab17a18cf5" target="_top" xlink:title=" ">
<polygon fill="none" stroke="black" points="181,-0.5 181,-19.5 272,-19.5 272,-0.5 181,-0.5"/>
<text text-anchor="middle" x="226.5" y="-7.5" font-family="Helvetica,sans-Serif" font-size="10.00">Message::Point</text>
</a>
</g>
</g>
<!-- Node1&#45;&gt;Node6 -->
<g id="edge6" class="edge">
<title>Node1&#45;&gt;Node6</title>
<path fill="none" stroke="midnightblue" d="M92.62,-62.84C112.18,-52.48 139.24,-38.88 164,-29 169.52,-26.8 175.4,-24.69 181.25,-22.73"/>
<polygon fill="midnightblue" stroke="midnightblue" points="182.56,-25.99 191.01,-19.59 180.41,-19.33 182.56,-25.99"/>
</g>
<!-- Node2&#45;&gt;Node3 -->
<g id="edge2" class="edge">
<title>Node2&#45;&gt;Node3</title>
<path fill="none" stroke="midnightblue" d="M284.16,-118.02C297.98,-121.68 312.87,-125.63 327.1,-129.4"/>
<polygon fill="midnightblue" stroke="midnightblue" points="326.25,-132.79 336.81,-131.97 328.04,-126.03 326.25,-132.79"/>
</g>
<!-- Node4 -->
<g id="node4" class="node">
<title>Node4</title>
<g id="a_node4"><a xlink:href="classcarta_1_1LineBoxRegions.html#a622d3a3a2a21711de9a278543fe0fc40" target="_top" xlink:title=" ">
<polygon fill="none" stroke="black" points="325,-83 325,-113 464,-113 464,-83 325,-83"/>
<text text-anchor="start" x="333" y="-101" font-family="Helvetica,sans-Serif" font-size="10.00">carta::LineBoxRegions</text>
<text text-anchor="middle" x="394.5" y="-90" font-family="Helvetica,sans-Serif" font-size="10.00">::GetSeparationTolerance</text>
</a>
</g>
</g>
<!-- Node2&#45;&gt;Node4 -->
<g id="edge3" class="edge">
<title>Node2&#45;&gt;Node4</title>
<path fill="none" stroke="midnightblue" d="M289.31,-101.14C297.66,-100.89 306.31,-100.63 314.91,-100.37"/>
<polygon fill="midnightblue" stroke="midnightblue" points="315.05,-103.86 324.94,-100.07 314.84,-96.87 315.05,-103.86"/>
</g>
</g>
</svg>
