<?xml version="1.0" encoding="UTF-8" standalone="no"?>
<!DOCTYPE svg PUBLIC "-//W3C//DTD SVG 1.1//EN"
 "http://www.w3.org/Graphics/SVG/1.1/DTD/svg11.dtd">
<!-- Generated by graphviz version 2.43.0 (0)
 -->
<!-- Title: carta::StartAnimationTask::execute Pages: 1 -->
<svg width="908pt" height="249pt"
 viewBox="0.00 0.00 908.00 249.00" xmlns="http://www.w3.org/2000/svg" xmlns:xlink="http://www.w3.org/1999/xlink">
<g id="graph0" class="graph" transform="scale(1 1) rotate(0) translate(4 245)">
<title>carta::StartAnimationTask::execute</title>
<!-- Node1 -->
<g id="node1" class="node">
<title>Node1</title>
<g id="a_node1"><a xlink:title=" ">
<polygon fill="#bfbfbf" stroke="black" points="0,-98.5 0,-128.5 143,-128.5 143,-98.5 0,-98.5"/>
<text text-anchor="start" x="8" y="-116.5" font-family="Helvetica,sans-Serif" font-size="10.00">carta::StartAnimationTask</text>
<text text-anchor="middle" x="71.5" y="-105.5" font-family="Helvetica,sans-Serif" font-size="10.00">::execute</text>
</a>
</g>
</g>
<!-- Node2 -->
<g id="node2" class="node">
<title>Node2</title>
<g id="a_node2"><a xlink:href="classcarta_1_1Session.html#a1f7a52d2700e13dd2d835a3cac5af53a" target="_top" xlink:title=" ">
<polygon fill="none" stroke="black" points="191.5,-196.5 191.5,-226.5 332.5,-226.5 332.5,-196.5 191.5,-196.5"/>
<text text-anchor="start" x="199.5" y="-214.5" font-family="Helvetica,sans-Serif" font-size="10.00">carta::Session::Animation</text>
<text text-anchor="middle" x="262" y="-203.5" font-family="Helvetica,sans-Serif" font-size="10.00">Active</text>
</a>
</g>
</g>
<!-- Node1&#45;&gt;Node2 -->
<g id="edge1" class="edge">
<title>Node1&#45;&gt;Node2</title>
<path fill="none" stroke="midnightblue" d="M90.23,-128.53C110.51,-145.05 145.28,-171.38 179,-187.5 183.02,-189.42 187.23,-191.23 191.53,-192.91"/>
<polygon fill="midnightblue" stroke="midnightblue" points="190.44,-196.24 201.03,-196.41 192.86,-189.67 190.44,-196.24"/>
</g>
<!-- Node3 -->
<g id="node3" class="node">
<title>Node3</title>
<g id="a_node3"><a xlink:href="classcarta_1_1Session.html#af35d01f76314dfa92b6cb9b63280210a" target="_top" xlink:title=" ">
<polygon fill="none" stroke="black" points="179,-147.5 179,-177.5 345,-177.5 345,-147.5 179,-147.5"/>
<text text-anchor="start" x="187" y="-165.5" font-family="Helvetica,sans-Serif" font-size="10.00">carta::Session::BuildAnimation</text>
<text text-anchor="middle" x="262" y="-154.5" font-family="Helvetica,sans-Serif" font-size="10.00">Object</text>
</a>
</g>
</g>
<!-- Node1&#45;&gt;Node3 -->
<g id="edge2" class="edge">
<title>Node1&#45;&gt;Node3</title>
<path fill="none" stroke="midnightblue" d="M130.34,-128.53C150.24,-133.71 172.7,-139.55 193.32,-144.91"/>
<polygon fill="midnightblue" stroke="midnightblue" points="192.71,-148.37 203.27,-147.49 194.47,-141.59 192.71,-148.37"/>
</g>
<!-- Node10 -->
<g id="node10" class="node">
<title>Node10</title>
<g id="a_node10"><a xlink:href="classcarta_1_1ThreadManager.html#a5a2489e2d7dfb13701cda9077f3c1db7" target="_top" xlink:title=" ">
<polygon fill="none" stroke="black" points="200,-98.5 200,-128.5 324,-128.5 324,-98.5 200,-98.5"/>
<text text-anchor="start" x="208" y="-116.5" font-family="Helvetica,sans-Serif" font-size="10.00">carta::ThreadManager</text>
<text text-anchor="middle" x="262" y="-105.5" font-family="Helvetica,sans-Serif" font-size="10.00">::QueueTask</text>
</a>
</g>
</g>
<!-- Node1&#45;&gt;Node10 -->
<g id="edge9" class="edge">
<title>Node1&#45;&gt;Node10</title>
<path fill="none" stroke="midnightblue" d="M143.23,-113.5C158.34,-113.5 174.31,-113.5 189.45,-113.5"/>
<polygon fill="midnightblue" stroke="midnightblue" points="189.77,-117 199.77,-113.5 189.77,-110 189.77,-117"/>
</g>
<!-- Node11 -->
<g id="node11" class="node">
<title>Node11</title>
<g id="a_node11"><a xlink:href="classcarta_1_1Session.html#adc48fa2da283f2ece0ae232158891942" target="_top" xlink:title=" ">
<polygon fill="none" stroke="black" points="183.5,-49.5 183.5,-79.5 340.5,-79.5 340.5,-49.5 183.5,-49.5"/>
<text text-anchor="start" x="191.5" y="-67.5" font-family="Helvetica,sans-Serif" font-size="10.00">carta::Session::SetAnimation</text>
<text text-anchor="middle" x="262" y="-56.5" font-family="Helvetica,sans-Serif" font-size="10.00">Active</text>
</a>
</g>
</g>
<!-- Node1&#45;&gt;Node11 -->
<g id="edge10" class="edge">
<title>Node1&#45;&gt;Node11</title>
<path fill="none" stroke="midnightblue" d="M130.34,-98.47C150.24,-93.29 172.7,-87.45 193.32,-82.09"/>
<polygon fill="midnightblue" stroke="midnightblue" points="194.47,-85.41 203.27,-79.51 192.71,-78.63 194.47,-85.41"/>
</g>
<!-- Node12 -->
<g id="node12" class="node">
<title>Node12</title>
<g id="a_node12"><a xlink:href="classcarta_1_1StartAnimationTask.html#a6c408180ee1941d910fcb3b14f05edc0" target="_top" xlink:title=" ">
<polygon fill="none" stroke="black" points="190.5,-0.5 190.5,-30.5 333.5,-30.5 333.5,-0.5 190.5,-0.5"/>
<text text-anchor="start" x="198.5" y="-18.5" font-family="Helvetica,sans-Serif" font-size="10.00">carta::StartAnimationTask</text>
<text text-anchor="middle" x="262" y="-7.5" font-family="Helvetica,sans-Serif" font-size="10.00">::StartAnimationTask</text>
</a>
</g>
</g>
<!-- Node1&#45;&gt;Node12 -->
<g id="edge11" class="edge">
<title>Node1&#45;&gt;Node12</title>
<path fill="none" stroke="midnightblue" d="M90.23,-98.47C110.51,-81.95 145.28,-55.62 179,-39.5 183.02,-37.58 187.23,-35.77 191.53,-34.09"/>
<polygon fill="midnightblue" stroke="midnightblue" points="192.86,-37.33 201.03,-30.59 190.44,-30.76 192.86,-37.33"/>
</g>
<!-- Node4 -->
<g id="node4" class="node">
<title>Node4</title>
<g id="a_node4"><a xlink:href="classcarta_1_1Session.html#af5f45b72e3fb7d4ad6fbf32fcc9da912" target="_top" xlink:title=" ">
<polygon fill="none" stroke="black" points="388.5,-172 388.5,-191 531.5,-191 531.5,-172 388.5,-172"/>
<text text-anchor="middle" x="460" y="-179" font-family="Helvetica,sans-Serif" font-size="10.00">carta::Session::SendEvent</text>
</a>
</g>
</g>
<!-- Node3&#45;&gt;Node4 -->
<g id="edge3" class="edge">
<title>Node3&#45;&gt;Node4</title>
<path fill="none" stroke="midnightblue" d="M345.27,-170.48C356.26,-171.54 367.52,-172.63 378.48,-173.69"/>
<polygon fill="midnightblue" stroke="midnightblue" points="378.15,-177.18 388.44,-174.66 378.82,-170.21 378.15,-177.18"/>
</g>
<!-- Node9 -->
<g id="node9" class="node">
<title>Node9</title>
<g id="a_node9"><a xlink:href="classMessage.html#aaec7bf7eebf4becb13bb7d65ed54bfb6" target="_top" xlink:title=" ">
<polygon fill="none" stroke="black" points="381,-134 381,-153 539,-153 539,-134 381,-134"/>
<text text-anchor="middle" x="460" y="-141" font-family="Helvetica,sans-Serif" font-size="10.00">Message::StartAnimationAck</text>
</a>
</g>
</g>
<!-- Node3&#45;&gt;Node9 -->
<g id="edge8" class="edge">
<title>Node3&#45;&gt;Node9</title>
<path fill="none" stroke="midnightblue" d="M345.27,-154.52C353.61,-153.72 362.11,-152.89 370.51,-152.08"/>
<polygon fill="midnightblue" stroke="midnightblue" points="371.08,-155.54 380.7,-151.09 370.41,-148.57 371.08,-155.54"/>
</g>
<!-- Node5 -->
<g id="node5" class="node">
<title>Node5</title>
<g id="a_node5"><a xlink:href="namespacecarta_1_1logger.html#ab9e339746ee51ea21696ab43b50841d5" target="_top" xlink:title=" ">
<polygon fill="none" stroke="black" points="575,-216 575,-235 748,-235 748,-216 575,-216"/>
<text text-anchor="middle" x="661.5" y="-223" font-family="Helvetica,sans-Serif" font-size="10.00">carta::logger::LogSentEventType</text>
</a>
</g>
</g>
<!-- Node4&#45;&gt;Node5 -->
<g id="edge4" class="edge">
<title>Node4&#45;&gt;Node5</title>
<path fill="none" stroke="midnightblue" d="M504.29,-191.05C534.48,-197.71 574.97,-206.64 607.16,-213.74"/>
<polygon fill="midnightblue" stroke="midnightblue" points="606.78,-217.24 617.3,-215.97 608.28,-210.4 606.78,-217.24"/>
</g>
<!-- Node7 -->
<g id="node7" class="node">
<title>Node7</title>
<g id="a_node7"><a xlink:href="classcarta_1_1concurrent__queue.html#ab1a11795f017e1c7dd870fce5da5ede1" target="_top" xlink:title=" ">
<polygon fill="none" stroke="black" points="594.5,-166.5 594.5,-196.5 728.5,-196.5 728.5,-166.5 594.5,-166.5"/>
<text text-anchor="start" x="602.5" y="-184.5" font-family="Helvetica,sans-Serif" font-size="10.00">carta::concurrent_queue</text>
<text text-anchor="middle" x="661.5" y="-173.5" font-family="Helvetica,sans-Serif" font-size="10.00">::push</text>
</a>
</g>
</g>
<!-- Node4&#45;&gt;Node7 -->
<g id="edge6" class="edge">
<title>Node4&#45;&gt;Node7</title>
<path fill="none" stroke="midnightblue" d="M531.62,-181.5C548.67,-181.5 566.97,-181.5 584.27,-181.5"/>
<polygon fill="midnightblue" stroke="midnightblue" points="584.32,-185 594.32,-181.5 584.32,-178 584.32,-185"/>
</g>
<!-- Node8 -->
<g id="node8" class="node">
<title>Node8</title>
<g id="a_node8"><a xlink:href="classcarta_1_1concurrent__queue.html#a44dc990ae7a71921648cad573058357d" target="_top" xlink:title=" ">
<polygon fill="none" stroke="black" points="594.5,-117.5 594.5,-147.5 728.5,-147.5 728.5,-117.5 594.5,-117.5"/>
<text text-anchor="start" x="602.5" y="-135.5" font-family="Helvetica,sans-Serif" font-size="10.00">carta::concurrent_queue</text>
<text text-anchor="middle" x="661.5" y="-124.5" font-family="Helvetica,sans-Serif" font-size="10.00">::try_pop</text>
</a>
</g>
</g>
<!-- Node4&#45;&gt;Node8 -->
<g id="edge7" class="edge">
<title>Node4&#45;&gt;Node8</title>
<path fill="none" stroke="midnightblue" d="M500.29,-171.96C512.67,-168.94 526.41,-165.59 539,-162.5 555.34,-158.49 572.91,-154.17 589.47,-150.08"/>
<polygon fill="midnightblue" stroke="midnightblue" points="590.76,-153.36 599.63,-147.57 589.09,-146.57 590.76,-153.36"/>
</g>
<!-- Node6 -->
<g id="node6" class="node">
<title>Node6</title>
<g id="a_node6"><a xlink:href="namespacecarta_1_1logger.html#a23c9bf75209165cf69eb8d50f64b81b4" target="_top" xlink:title=" ">
<polygon fill="none" stroke="black" points="784,-210.5 784,-240.5 900,-240.5 900,-210.5 784,-210.5"/>
<text text-anchor="start" x="792" y="-228.5" font-family="Helvetica,sans-Serif" font-size="10.00">carta::logger::log</text>
<text text-anchor="middle" x="842" y="-217.5" font-family="Helvetica,sans-Serif" font-size="10.00">_protocol_messages</text>
</a>
</g>
</g>
<!-- Node5&#45;&gt;Node6 -->
<g id="edge5" class="edge">
<title>Node5&#45;&gt;Node6</title>
<path fill="none" stroke="midnightblue" d="M748.09,-225.5C756.74,-225.5 765.44,-225.5 773.86,-225.5"/>
<polygon fill="midnightblue" stroke="midnightblue" points="773.96,-229 783.96,-225.5 773.96,-222 773.96,-229"/>
</g>
</g>
</svg>
