<?xml version="1.0" encoding="UTF-8" standalone="no"?>
<!DOCTYPE svg PUBLIC "-//W3C//DTD SVG 1.1//EN"
 "http://www.w3.org/Graphics/SVG/1.1/DTD/svg11.dtd">
<!-- Generated by graphviz version 2.43.0 (0)
 -->
<!-- Title: carta::Frame::Frame Pages: 1 -->
<svg width="1047pt" height="161pt"
 viewBox="0.00 0.00 1047.00 161.00" xmlns="http://www.w3.org/2000/svg" xmlns:xlink="http://www.w3.org/1999/xlink">
<g id="graph0" class="graph" transform="scale(1 1) rotate(0) translate(4 157)">
<title>carta::Frame::Frame</title>
<!-- Node1 -->
<g id="node1" class="node">
<title>Node1</title>
<g id="a_node1"><a xlink:title=" ">
<polygon fill="#bfbfbf" stroke="black" points="0,-76.5 0,-95.5 115,-95.5 115,-76.5 0,-76.5"/>
<text text-anchor="middle" x="57.5" y="-83.5" font-family="Helvetica,sans-Serif" font-size="10.00">carta::Frame::Frame</text>
</a>
</g>
</g>
<!-- Node2 -->
<g id="node2" class="node">
<title>Node2</title>
<g id="a_node2"><a xlink:href="classcarta_1_1Frame.html#a6ad0a2d3fbde3a9f346684e5ce541da6" target="_top" xlink:title=" ">
<polygon fill="none" stroke="black" points="151,-95.5 151,-114.5 310,-114.5 310,-95.5 151,-95.5"/>
<text text-anchor="middle" x="230.5" y="-102.5" font-family="Helvetica,sans-Serif" font-size="10.00">carta::Frame::FillImageCache</text>
</a>
</g>
</g>
<!-- Node1&#45;&gt;Node2 -->
<g id="edge1" class="edge">
<title>Node1&#45;&gt;Node2</title>
<path fill="none" stroke="midnightblue" d="M115.44,-92.33C123.61,-93.23 132.17,-94.19 140.78,-95.14"/>
<polygon fill="midnightblue" stroke="midnightblue" points="140.56,-98.64 150.88,-96.26 141.33,-91.68 140.56,-98.64"/>
</g>
<!-- Node13 -->
<g id="node13" class="node">
<title>Node13</title>
<g id="a_node13"><a xlink:href="classcarta_1_1TileCache.html#a30894b306a6ca80e895c5eef2a8671e5" target="_top" xlink:title="Reset the cache for a new Z coordinate and/or Stokes coordinate, clearing all tiles.">
<polygon fill="none" stroke="black" points="166,-57.5 166,-76.5 295,-76.5 295,-57.5 166,-57.5"/>
<text text-anchor="middle" x="230.5" y="-64.5" font-family="Helvetica,sans-Serif" font-size="10.00">carta::TileCache::Reset</text>
</a>
</g>
</g>
<!-- Node1&#45;&gt;Node13 -->
<g id="edge12" class="edge">
<title>Node1&#45;&gt;Node13</title>
<path fill="none" stroke="midnightblue" d="M115.44,-79.67C128.29,-78.25 142.12,-76.71 155.55,-75.22"/>
<polygon fill="midnightblue" stroke="midnightblue" points="156.18,-78.67 165.73,-74.09 155.41,-71.71 156.18,-78.67"/>
</g>
<!-- Node3 -->
<g id="node3" class="node">
<title>Node3</title>
<g id="a_node3"><a xlink:href="classcarta_1_1Timer.html#aad2702a80259920b910fb76642f97b88" target="_top" xlink:title=" ">
<polygon fill="none" stroke="black" points="365.5,-133.5 365.5,-152.5 485.5,-152.5 485.5,-133.5 365.5,-133.5"/>
<text text-anchor="middle" x="425.5" y="-140.5" font-family="Helvetica,sans-Serif" font-size="10.00">carta::Timer::Elapsed</text>
</a>
</g>
</g>
<!-- Node2&#45;&gt;Node3 -->
<g id="edge2" class="edge">
<title>Node2&#45;&gt;Node3</title>
<path fill="none" stroke="midnightblue" d="M280.2,-114.59C306.36,-119.74 338.78,-126.12 366.27,-131.53"/>
<polygon fill="midnightblue" stroke="midnightblue" points="365.66,-134.98 376.15,-133.48 367.01,-128.11 365.66,-134.98"/>
</g>
<!-- Node4 -->
<g id="node4" class="node">
<title>Node4</title>
<g id="a_node4"><a xlink:href="classcarta_1_1Frame.html#a9e748d02f7394ed01b69276b61a79825" target="_top" xlink:title=" ">
<polygon fill="none" stroke="black" points="346,-95.5 346,-114.5 505,-114.5 505,-95.5 346,-95.5"/>
<text text-anchor="middle" x="425.5" y="-102.5" font-family="Helvetica,sans-Serif" font-size="10.00">carta::Frame::GetImageSlicer</text>
</a>
</g>
</g>
<!-- Node2&#45;&gt;Node4 -->
<g id="edge3" class="edge">
<title>Node2&#45;&gt;Node4</title>
<path fill="none" stroke="midnightblue" d="M310,-105C318.48,-105 327.14,-105 335.73,-105"/>
<polygon fill="midnightblue" stroke="midnightblue" points="335.76,-108.5 345.76,-105 335.76,-101.5 335.76,-108.5"/>
</g>
<!-- Node5 -->
<g id="node5" class="node">
<title>Node5</title>
<g id="a_node5"><a xlink:href="classcarta_1_1Frame.html#a79c789ebc62771151da94673a325a31a" target="_top" xlink:title=" ">
<polygon fill="none" stroke="black" points="349.5,-57.5 349.5,-76.5 501.5,-76.5 501.5,-57.5 349.5,-57.5"/>
<text text-anchor="middle" x="425.5" y="-64.5" font-family="Helvetica,sans-Serif" font-size="10.00">carta::Frame::GetSlicerData</text>
</a>
</g>
</g>
<!-- Node2&#45;&gt;Node5 -->
<g id="edge4" class="edge">
<title>Node2&#45;&gt;Node5</title>
<path fill="none" stroke="midnightblue" d="M280.2,-95.41C306.36,-90.26 338.78,-83.88 366.27,-78.47"/>
<polygon fill="midnightblue" stroke="midnightblue" points="367.01,-81.89 376.15,-76.52 365.66,-75.02 367.01,-81.89"/>
</g>
<!-- Node6 -->
<g id="node6" class="node">
<title>Node6</title>
<g id="a_node6"><a xlink:href="classcarta_1_1Frame.html#aeff1a00d7f22df6f180888b1d9eaf457" target="_top" xlink:title=" ">
<polygon fill="none" stroke="black" points="552,-76.5 552,-95.5 697,-95.5 697,-76.5 552,-76.5"/>
<text text-anchor="middle" x="624.5" y="-83.5" font-family="Helvetica,sans-Serif" font-size="10.00">carta::Frame::ImageShape</text>
</a>
</g>
</g>
<!-- Node5&#45;&gt;Node6 -->
<g id="edge5" class="edge">
<title>Node5&#45;&gt;Node6</title>
<path fill="none" stroke="midnightblue" d="M501.54,-74.24C514.71,-75.51 528.47,-76.84 541.81,-78.12"/>
<polygon fill="midnightblue" stroke="midnightblue" points="541.63,-81.62 551.92,-79.1 542.3,-74.65 541.63,-81.62"/>
</g>
<!-- Node10 -->
<g id="node10" class="node">
<title>Node10</title>
<g id="a_node10"><a xlink:href="classcarta_1_1Frame.html#afe9bbcad03f6343aba029f48c4e66dc7" target="_top" xlink:title=" ">
<polygon fill="none" stroke="black" points="541,-38.5 541,-57.5 708,-57.5 708,-38.5 541,-38.5"/>
<text text-anchor="middle" x="624.5" y="-45.5" font-family="Helvetica,sans-Serif" font-size="10.00">carta::Frame::IsCurrentZStokes</text>
</a>
</g>
</g>
<!-- Node5&#45;&gt;Node10 -->
<g id="edge9" class="edge">
<title>Node5&#45;&gt;Node10</title>
<path fill="none" stroke="midnightblue" d="M501.54,-59.76C511.06,-58.84 520.9,-57.9 530.65,-56.95"/>
<polygon fill="midnightblue" stroke="midnightblue" points="531.16,-60.42 540.78,-55.98 530.49,-53.45 531.16,-60.42"/>
</g>
<!-- Node7 -->
<g id="node7" class="node">
<title>Node7</title>
<g id="a_node7"><a xlink:href="structStokesSource.html#a7651d6cbedb427f5c00925c5111feac8" target="_top" xlink:title=" ">
<polygon fill="none" stroke="black" points="753,-115 753,-145 887,-145 887,-115 753,-115"/>
<text text-anchor="start" x="761" y="-133" font-family="Helvetica,sans-Serif" font-size="10.00">StokesSource::IsOriginal</text>
<text text-anchor="middle" x="820" y="-122" font-family="Helvetica,sans-Serif" font-size="10.00">Image</text>
</a>
</g>
</g>
<!-- Node6&#45;&gt;Node7 -->
<g id="edge6" class="edge">
<title>Node6&#45;&gt;Node7</title>
<path fill="none" stroke="midnightblue" d="M667.49,-95.55C689.47,-100.55 717.07,-106.82 742.67,-112.64"/>
<polygon fill="midnightblue" stroke="midnightblue" points="742.22,-116.13 752.75,-114.93 743.77,-109.3 742.22,-116.13"/>
</g>
<!-- Node9 -->
<g id="node9" class="node">
<title>Node9</title>
<g id="a_node9"><a xlink:href="classcarta_1_1Frame.html#a8075c3310541d8a14cdc9dc8fc37b117" target="_top" xlink:title=" ">
<polygon fill="none" stroke="black" points="762,-76.5 762,-95.5 878,-95.5 878,-76.5 762,-76.5"/>
<text text-anchor="middle" x="820" y="-83.5" font-family="Helvetica,sans-Serif" font-size="10.00">carta::Frame::IsValid</text>
</a>
</g>
</g>
<!-- Node6&#45;&gt;Node9 -->
<g id="edge8" class="edge">
<title>Node6&#45;&gt;Node9</title>
<path fill="none" stroke="midnightblue" d="M697,-86C714.91,-86 734.06,-86 751.76,-86"/>
<polygon fill="midnightblue" stroke="midnightblue" points="751.99,-89.5 761.99,-86 751.99,-82.5 751.99,-89.5"/>
</g>
<!-- Node8 -->
<g id="node8" class="node">
<title>Node8</title>
<g id="a_node8"><a xlink:href="Stokes_8h.html#a30da07ffd67ed06c1e15e2da4d915e0c" target="_top" xlink:title=" ">
<polygon fill="none" stroke="black" points="932,-120.5 932,-139.5 1039,-139.5 1039,-120.5 932,-120.5"/>
<text text-anchor="middle" x="985.5" y="-127.5" font-family="Helvetica,sans-Serif" font-size="10.00">IsComputedStokes</text>
</a>
</g>
</g>
<!-- Node7&#45;&gt;Node8 -->
<g id="edge7" class="edge">
<title>Node7&#45;&gt;Node8</title>
<path fill="none" stroke="midnightblue" d="M887.03,-130C898.43,-130 910.25,-130 921.57,-130"/>
<polygon fill="midnightblue" stroke="midnightblue" points="921.79,-133.5 931.79,-130 921.79,-126.5 921.79,-133.5"/>
</g>
<!-- Node11 -->
<g id="node11" class="node">
<title>Node11</title>
<g id="a_node11"><a xlink:href="classcarta_1_1Frame.html#a30b016834ce04378ba3d0a34f373db3f" target="_top" xlink:title=" ">
<polygon fill="none" stroke="black" points="744,-38.5 744,-57.5 896,-57.5 896,-38.5 744,-38.5"/>
<text text-anchor="middle" x="820" y="-45.5" font-family="Helvetica,sans-Serif" font-size="10.00">carta::Frame::CurrentStokes</text>
</a>
</g>
</g>
<!-- Node10&#45;&gt;Node11 -->
<g id="edge10" class="edge">
<title>Node10&#45;&gt;Node11</title>
<path fill="none" stroke="midnightblue" d="M708.12,-48C716.52,-48 725.06,-48 733.49,-48"/>
<polygon fill="midnightblue" stroke="midnightblue" points="733.7,-51.5 743.7,-48 733.7,-44.5 733.7,-51.5"/>
</g>
<!-- Node12 -->
<g id="node12" class="node">
<title>Node12</title>
<g id="a_node12"><a xlink:href="classcarta_1_1Frame.html#a1eda290558f3e9a6be5d4149c06e1b7b" target="_top" xlink:title=" ">
<polygon fill="none" stroke="black" points="756.5,-0.5 756.5,-19.5 883.5,-19.5 883.5,-0.5 756.5,-0.5"/>
<text text-anchor="middle" x="820" y="-7.5" font-family="Helvetica,sans-Serif" font-size="10.00">carta::Frame::CurrentZ</text>
</a>
</g>
</g>
<!-- Node10&#45;&gt;Node12 -->
<g id="edge11" class="edge">
<title>Node10&#45;&gt;Node12</title>
<path fill="none" stroke="midnightblue" d="M674.33,-38.41C700.55,-33.26 733.06,-26.88 760.62,-21.47"/>
<polygon fill="midnightblue" stroke="midnightblue" points="761.38,-24.88 770.52,-19.52 760.04,-18.01 761.38,-24.88"/>
</g>
</g>
</svg>
