<?xml version="1.0" encoding="UTF-8" standalone="no"?>
<!DOCTYPE svg PUBLIC "-//W3C//DTD SVG 1.1//EN"
 "http://www.w3.org/Graphics/SVG/1.1/DTD/svg11.dtd">
<!-- Generated by graphviz version 2.43.0 (0)
 -->
<!-- Title: carta::FileInfoLoader Pages: 1 -->
<svg width="167pt" height="163pt"
 viewBox="0.00 0.00 167.00 163.00" xmlns="http://www.w3.org/2000/svg" xmlns:xlink="http://www.w3.org/1999/xlink">
<g id="graph0" class="graph" transform="scale(1 1) rotate(0) translate(4 159)">
<title>carta::FileInfoLoader</title>
<!-- Node1 -->
<g id="node1" class="node">
<title>Node1</title>
<g id="a_node1"><a xlink:title=" ">
<polygon fill="#bfbfbf" stroke="black" points="33,-0.5 33,-19.5 149,-19.5 149,-0.5 33,-0.5"/>
<text text-anchor="middle" x="91" y="-7.5" font-family="Helvetica,sans-Serif" font-size="10.00">carta::FileInfoLoader</text>
</a>
</g>
</g>
<!-- Node2 -->
<g id="node2" class="node">
<title>Node2</title>
<g id="a_node2"><a xlink:title=" ">
<polygon fill="none" stroke="#bfbfbf" points="19.5,-67.5 19.5,-86.5 84.5,-86.5 84.5,-67.5 19.5,-67.5"/>
<text text-anchor="middle" x="52" y="-74.5" font-family="Helvetica,sans-Serif" font-size="10.00">std::string</text>
</a>
</g>
</g>
<!-- Node2&#45;&gt;Node1 -->
<g id="edge1" class="edge">
<title>Node2&#45;&gt;Node1</title>
<path fill="none" stroke="#9a32cd" stroke-dasharray="5,2" d="M51.7,-56.83C52.32,-50.5 53.8,-43.65 57,-38 61.31,-30.39 68.69,-24.13 75.48,-19.57"/>
<polygon fill="#9a32cd" stroke="#9a32cd" points="48.19,-57.16 51.35,-67.27 55.18,-57.39 48.19,-57.16"/>
<text text-anchor="middle" x="83" y="-41" font-family="Helvetica,sans-Serif" font-size="10.00"> _filename</text>
</g>
<!-- Node3 -->
<g id="node3" class="node">
<title>Node3</title>
<g id="a_node3"><a xlink:title=" ">
<polygon fill="none" stroke="#bfbfbf" points="0,-124.5 0,-154.5 104,-154.5 104,-124.5 0,-124.5"/>
<text text-anchor="start" x="8" y="-142.5" font-family="Helvetica,sans-Serif" font-size="10.00">std::basic_string&lt;</text>
<text text-anchor="middle" x="52" y="-131.5" font-family="Helvetica,sans-Serif" font-size="10.00"> Char &gt;</text>
</a>
</g>
</g>
<!-- Node3&#45;&gt;Node2 -->
<g id="edge2" class="edge">
<title>Node3&#45;&gt;Node2</title>
<path fill="none" stroke="midnightblue" d="M52,-114.35C52,-104.51 52,-93.78 52,-86.54"/>
<polygon fill="midnightblue" stroke="midnightblue" points="48.5,-114.47 52,-124.47 55.5,-114.47 48.5,-114.47"/>
</g>
<!-- Node4 -->
<g id="node4" class="node">
<title>Node4</title>
<g id="a_node4"><a xlink:title=" ">
<polygon fill="none" stroke="#bfbfbf" points="103,-67.5 103,-86.5 159,-86.5 159,-67.5 103,-67.5"/>
<text text-anchor="middle" x="131" y="-74.5" font-family="Helvetica,sans-Serif" font-size="10.00">FileType</text>
</a>
</g>
</g>
<!-- Node4&#45;&gt;Node1 -->
<g id="edge3" class="edge">
<title>Node4&#45;&gt;Node1</title>
<path fill="none" stroke="#9a32cd" stroke-dasharray="5,2" d="M121.31,-58.74C117.56,-52.19 113.17,-44.7 109,-38 105.19,-31.88 100.69,-25.13 97.14,-19.91"/>
<polygon fill="#9a32cd" stroke="#9a32cd" points="118.28,-60.49 126.26,-67.46 124.37,-57.03 118.28,-60.49"/>
<text text-anchor="middle" x="130.5" y="-41" font-family="Helvetica,sans-Serif" font-size="10.00"> _type</text>
</g>
</g>
</svg>
