<?xml version="1.0" encoding="UTF-8" standalone="no"?>
<!DOCTYPE svg PUBLIC "-//W3C//DTD SVG 1.1//EN"
 "http://www.w3.org/Graphics/SVG/1.1/DTD/svg11.dtd">
<!-- Generated by graphviz version 2.43.0 (0)
 -->
<!-- Title: carta::Frame::Depth Pages: 1 -->
<svg width="550pt" height="192pt"
 viewBox="0.00 0.00 550.00 192.00" xmlns="http://www.w3.org/2000/svg" xmlns:xlink="http://www.w3.org/1999/xlink">
<g id="graph0" class="graph" transform="scale(1 1) rotate(0) translate(4 188)">
<title>carta::Frame::Depth</title>
<!-- Node1 -->
<g id="node1" class="node">
<title>Node1</title>
<g id="a_node1"><a xlink:title=" ">
<polygon fill="#bfbfbf" stroke="black" points="429,-88.5 429,-107.5 542,-107.5 542,-88.5 429,-88.5"/>
<text text-anchor="middle" x="485.5" y="-95.5" font-family="Helvetica,sans-Serif" font-size="10.00">carta::Frame::Depth</text>
</a>
</g>
</g>
<!-- Node2 -->
<g id="node2" class="node">
<title>Node2</title>
<g id="a_node2"><a xlink:href="classcarta_1_1Frame.html#a2e88a8481229d116d2976f51b32ac326" target="_top" xlink:title=" ">
<polygon fill="none" stroke="black" points="212,-164.5 212,-183.5 393,-183.5 393,-164.5 212,-164.5"/>
<text text-anchor="middle" x="302.5" y="-171.5" font-family="Helvetica,sans-Serif" font-size="10.00">carta::Frame::CalculateHistogram</text>
</a>
</g>
</g>
<!-- Node1&#45;&gt;Node2 -->
<g id="edge1" class="edge">
<title>Node1&#45;&gt;Node2</title>
<path fill="none" stroke="midnightblue" d="M461.55,-113.23C443.53,-124.65 417.47,-139.96 393,-150 378.71,-155.86 362.55,-160.7 347.94,-164.46"/>
<polygon fill="midnightblue" stroke="midnightblue" points="463.68,-116.03 470.19,-107.67 459.89,-110.14 463.68,-116.03"/>
</g>
<!-- Node3 -->
<g id="node3" class="node">
<title>Node3</title>
<g id="a_node3"><a xlink:href="classcarta_1_1Frame.html#add5c6cc7f22b6a5d87d7080d29f214fb" target="_top" xlink:title=" ">
<polygon fill="none" stroke="black" points="22,-151 22,-181 154,-181 154,-151 22,-151"/>
<text text-anchor="start" x="30" y="-169" font-family="Helvetica,sans-Serif" font-size="10.00">carta::Frame::FillRegion</text>
<text text-anchor="middle" x="88" y="-158" font-family="Helvetica,sans-Serif" font-size="10.00">HistogramData</text>
</a>
</g>
</g>
<!-- Node1&#45;&gt;Node3 -->
<g id="edge6" class="edge">
<title>Node1&#45;&gt;Node3</title>
<path fill="none" stroke="midnightblue" d="M430.28,-109.68C418.04,-112.2 405.09,-114.77 393,-117 310.85,-132.14 215.74,-147.05 154.08,-156.38"/>
<polygon fill="midnightblue" stroke="midnightblue" points="431.29,-113.04 440.37,-107.58 429.86,-106.19 431.29,-113.04"/>
</g>
<!-- Node4 -->
<g id="node4" class="node">
<title>Node4</title>
<g id="a_node4"><a xlink:href="classcarta_1_1Frame.html#a197494c0f0b5dc6ab6414e2dec20c088" target="_top" xlink:title=" ">
<polygon fill="none" stroke="black" points="242,-88.5 242,-107.5 363,-107.5 363,-88.5 242,-88.5"/>
<text text-anchor="middle" x="302.5" y="-95.5" font-family="Helvetica,sans-Serif" font-size="10.00">carta::Frame::CheckZ</text>
</a>
</g>
</g>
<!-- Node1&#45;&gt;Node4 -->
<g id="edge3" class="edge">
<title>Node1&#45;&gt;Node4</title>
<path fill="none" stroke="midnightblue" d="M418.54,-98C400.43,-98 380.91,-98 363.18,-98"/>
<polygon fill="midnightblue" stroke="midnightblue" points="418.72,-101.5 428.72,-98 418.72,-94.5 418.72,-101.5"/>
</g>
<!-- Node7 -->
<g id="node7" class="node">
<title>Node7</title>
<g id="a_node7"><a xlink:href="classcarta_1_1Frame.html#ad1fb3b57f336f8f186fe08eca46b0101" target="_top" xlink:title=" ">
<polygon fill="none" stroke="black" points="233.5,-39 233.5,-69 371.5,-69 371.5,-39 233.5,-39"/>
<text text-anchor="start" x="241.5" y="-57" font-family="Helvetica,sans-Serif" font-size="10.00">carta::Frame::FillSpectral</text>
<text text-anchor="middle" x="302.5" y="-46" font-family="Helvetica,sans-Serif" font-size="10.00">ProfileData</text>
</a>
</g>
</g>
<!-- Node1&#45;&gt;Node7 -->
<g id="edge7" class="edge">
<title>Node1&#45;&gt;Node7</title>
<path fill="none" stroke="midnightblue" d="M435.32,-86.04C413.79,-80.81 388.28,-74.61 365.47,-69.07"/>
<polygon fill="midnightblue" stroke="midnightblue" points="434.68,-89.49 445.23,-88.45 436.34,-82.69 434.68,-89.49"/>
</g>
<!-- Node8 -->
<g id="node8" class="node">
<title>Node8</title>
<g id="a_node8"><a xlink:href="classcarta_1_1Frame.html#a10cd86b1997bfb9a7bb2fc6388db469c" target="_top" xlink:title=" ">
<polygon fill="none" stroke="black" points="223,-0.5 223,-19.5 382,-19.5 382,-0.5 223,-0.5"/>
<text text-anchor="middle" x="302.5" y="-7.5" font-family="Helvetica,sans-Serif" font-size="10.00">carta::Frame::GetImageSlicer</text>
</a>
</g>
</g>
<!-- Node1&#45;&gt;Node8 -->
<g id="edge8" class="edge">
<title>Node1&#45;&gt;Node8</title>
<path fill="none" stroke="midnightblue" d="M467.16,-81.18C449.8,-65.3 421.63,-42.05 393,-29 384.47,-25.11 375.12,-22.01 365.78,-19.53"/>
<polygon fill="midnightblue" stroke="midnightblue" points="465.07,-84.02 474.76,-88.3 469.86,-78.91 465.07,-84.02"/>
</g>
<!-- Node2&#45;&gt;Node3 -->
<g id="edge2" class="edge">
<title>Node2&#45;&gt;Node3</title>
<path fill="none" stroke="midnightblue" d="M201.94,-170.25C185.73,-169.64 169.3,-169.02 154.19,-168.45"/>
<polygon fill="midnightblue" stroke="midnightblue" points="201.87,-173.75 212,-170.63 202.14,-166.76 201.87,-173.75"/>
</g>
<!-- Node5 -->
<g id="node5" class="node">
<title>Node5</title>
<g id="a_node5"><a xlink:href="classcarta_1_1Frame.html#a79ce1feaf284a71a3f640073c1012246" target="_top" xlink:title=" ">
<polygon fill="none" stroke="black" points="5,-96.5 5,-115.5 171,-115.5 171,-96.5 5,-96.5"/>
<text text-anchor="middle" x="88" y="-103.5" font-family="Helvetica,sans-Serif" font-size="10.00">carta::Frame::GetImageRegion</text>
</a>
</g>
</g>
<!-- Node4&#45;&gt;Node5 -->
<g id="edge4" class="edge">
<title>Node4&#45;&gt;Node5</title>
<path fill="none" stroke="midnightblue" d="M231.54,-100.63C212.28,-101.36 191.2,-102.15 171.3,-102.9"/>
<polygon fill="midnightblue" stroke="midnightblue" points="231.88,-104.12 241.74,-100.25 231.62,-97.13 231.88,-104.12"/>
</g>
<!-- Node6 -->
<g id="node6" class="node">
<title>Node6</title>
<g id="a_node6"><a xlink:href="classcarta_1_1Frame.html#ab9d76715b355e3d68f6280bc031ba7da" target="_top" xlink:title=" ">
<polygon fill="none" stroke="black" points="0,-58.5 0,-77.5 176,-77.5 176,-58.5 0,-58.5"/>
<text text-anchor="middle" x="88" y="-65.5" font-family="Helvetica,sans-Serif" font-size="10.00">carta::Frame::SetImageChannels</text>
</a>
</g>
</g>
<!-- Node4&#45;&gt;Node6 -->
<g id="edge5" class="edge">
<title>Node4&#45;&gt;Node6</title>
<path fill="none" stroke="midnightblue" d="M231.59,-88.13C207.46,-84.72 180.48,-80.91 156.54,-77.53"/>
<polygon fill="midnightblue" stroke="midnightblue" points="231.35,-91.63 241.74,-89.56 232.33,-84.7 231.35,-91.63"/>
</g>
</g>
</svg>
