<?xml version="1.0" encoding="UTF-8" standalone="no"?>
<!DOCTYPE svg PUBLIC "-//W3C//DTD SVG 1.1//EN"
 "http://www.w3.org/Graphics/SVG/1.1/DTD/svg11.dtd">
<!-- Generated by graphviz version 2.43.0 (0)
 -->
<!-- Title: carta::ImageMoments&lt; T &gt; Pages: 1 -->
<svg width="516pt" height="252pt"
 viewBox="0.00 0.00 516.00 252.00" xmlns="http://www.w3.org/2000/svg" xmlns:xlink="http://www.w3.org/1999/xlink">
<g id="graph0" class="graph" transform="scale(1 1) rotate(0) translate(4 248)">
<title>carta::ImageMoments&lt; T &gt;</title>
<!-- Node1 -->
<g id="node1" class="node">
<title>Node1</title>
<g id="a_node1"><a xlink:title=" ">
<polygon fill="#bfbfbf" stroke="black" points="356,-100.5 356,-119.5 508,-119.5 508,-100.5 356,-100.5"/>
<text text-anchor="middle" x="432" y="-107.5" font-family="Helvetica,sans-Serif" font-size="10.00">carta::ImageMoments&lt; T &gt;</text>
</a>
</g>
</g>
<!-- Node2 -->
<g id="node2" class="node">
<title>Node2</title>
<g id="a_node2"><a xlink:title=" ">
<polygon fill="none" stroke="#bfbfbf" points="14,-224.5 14,-243.5 157,-243.5 157,-224.5 14,-224.5"/>
<text text-anchor="middle" x="85.5" y="-231.5" font-family="Helvetica,sans-Serif" font-size="10.00">casa::MomentsBase&lt; T &gt;</text>
</a>
</g>
</g>
<!-- Node2&#45;&gt;Node1 -->
<g id="edge1" class="edge">
<title>Node2&#45;&gt;Node1</title>
<path fill="none" stroke="midnightblue" d="M167.2,-229.81C218.19,-224.65 284.33,-213.23 338,-188 374.04,-171.06 407.56,-136.62 422.63,-119.75"/>
<polygon fill="midnightblue" stroke="midnightblue" points="166.84,-226.33 157.22,-230.76 167.5,-233.3 166.84,-226.33"/>
</g>
<!-- Node3 -->
<g id="node3" class="node">
<title>Node3</title>
<g id="a_node3"><a xlink:title=" ">
<polygon fill="none" stroke="#bfbfbf" points="9.5,-175 9.5,-205 161.5,-205 161.5,-175 9.5,-175"/>
<text text-anchor="start" x="17.5" y="-193" font-family="Helvetica,sans-Serif" font-size="10.00">std::unique_ptr&lt; casa</text>
<text text-anchor="middle" x="85.5" y="-182" font-family="Helvetica,sans-Serif" font-size="10.00">::ImageMomentsProgress &gt;</text>
</a>
</g>
</g>
<!-- Node3&#45;&gt;Node1 -->
<g id="edge2" class="edge">
<title>Node3&#45;&gt;Node1</title>
<path fill="none" stroke="#9a32cd" stroke-dasharray="5,2" d="M171.56,-176.25C220.58,-167.63 283.16,-155.42 338,-141 361.04,-134.94 386.7,-126.24 405.21,-119.59"/>
<polygon fill="#9a32cd" stroke="#9a32cd" points="170.88,-172.82 161.63,-177.98 172.08,-179.71 170.88,-172.82"/>
<text text-anchor="middle" x="263.5" y="-176" font-family="Helvetica,sans-Serif" font-size="10.00"> _progress_monitor</text>
</g>
<!-- Node4 -->
<g id="node4" class="node">
<title>Node4</title>
<g id="a_node4"><a xlink:title=" ">
<polygon fill="none" stroke="#bfbfbf" points="0,-114.5 0,-155.5 171,-155.5 171,-114.5 0,-114.5"/>
<text text-anchor="start" x="8" y="-143.5" font-family="Helvetica,sans-Serif" font-size="10.00">std::unique_ptr&lt; carta</text>
<text text-anchor="start" x="8" y="-132.5" font-family="Helvetica,sans-Serif" font-size="10.00">::Image2DConvolver&lt; casacore</text>
<text text-anchor="middle" x="85.5" y="-121.5" font-family="Helvetica,sans-Serif" font-size="10.00">::Float &gt; &gt;</text>
</a>
</g>
</g>
<!-- Node4&#45;&gt;Node1 -->
<g id="edge3" class="edge">
<title>Node4&#45;&gt;Node1</title>
<path fill="none" stroke="#9a32cd" stroke-dasharray="5,2" d="M181.33,-128.12C236.37,-124.12 304.73,-119.16 355.99,-115.44"/>
<polygon fill="#9a32cd" stroke="#9a32cd" points="180.94,-124.64 171.22,-128.85 181.44,-131.62 180.94,-124.64"/>
<text text-anchor="middle" x="263.5" y="-129" font-family="Helvetica,sans-Serif" font-size="10.00"> _image_2d_convolver</text>
</g>
<!-- Node5 -->
<g id="node5" class="node">
<title>Node5</title>
<g id="a_node5"><a xlink:title=" ">
<polygon fill="none" stroke="#bfbfbf" points="66.5,-76.5 66.5,-95.5 104.5,-95.5 104.5,-76.5 66.5,-76.5"/>
<text text-anchor="middle" x="85.5" y="-83.5" font-family="Helvetica,sans-Serif" font-size="10.00">bool</text>
</a>
</g>
</g>
<!-- Node5&#45;&gt;Node1 -->
<g id="edge4" class="edge">
<title>Node5&#45;&gt;Node1</title>
<path fill="none" stroke="#9a32cd" stroke-dasharray="5,2" d="M114.71,-87.59C161.25,-90.26 257.02,-95.94 338,-102 343.82,-102.44 349.84,-102.91 355.89,-103.39"/>
<polygon fill="#9a32cd" stroke="#9a32cd" points="114.69,-84.08 104.5,-87.01 114.29,-91.07 114.69,-84.08"/>
<text text-anchor="middle" x="263.5" y="-105" font-family="Helvetica,sans-Serif" font-size="10.00"> _stop</text>
</g>
<!-- Node6 -->
<g id="node6" class="node">
<title>Node6</title>
<g id="a_node6"><a xlink:title=" ">
<polygon fill="none" stroke="#bfbfbf" points="68,-38.5 68,-57.5 103,-57.5 103,-38.5 68,-38.5"/>
<text text-anchor="middle" x="85.5" y="-45.5" font-family="Helvetica,sans-Serif" font-size="10.00">uInt</text>
</a>
</g>
</g>
<!-- Node6&#45;&gt;Node1 -->
<g id="edge5" class="edge">
<title>Node6&#45;&gt;Node1</title>
<path fill="none" stroke="#9a32cd" stroke-dasharray="5,2" d="M113.32,-49.1C159.67,-51.45 257.53,-58.34 338,-77 362.7,-82.73 389.92,-92.86 408.5,-100.39"/>
<polygon fill="#9a32cd" stroke="#9a32cd" points="113.35,-45.6 103.2,-48.62 113.02,-52.59 113.35,-45.6"/>
<text text-anchor="middle" x="263.5" y="-80" font-family="Helvetica,sans-Serif" font-size="10.00"> _steps_for_beam_convolution</text>
</g>
<!-- Node7 -->
<g id="node7" class="node">
<title>Node7</title>
<g id="a_node7"><a xlink:title=" ">
<polygon fill="none" stroke="#bfbfbf" points="62,-0.5 62,-19.5 109,-19.5 109,-0.5 62,-0.5"/>
<text text-anchor="middle" x="85.5" y="-7.5" font-family="Helvetica,sans-Serif" font-size="10.00">SPCIIT</text>
</a>
</g>
</g>
<!-- Node7&#45;&gt;Node1 -->
<g id="edge6" class="edge">
<title>Node7&#45;&gt;Node1</title>
<path fill="none" stroke="#9a32cd" stroke-dasharray="5,2" d="M119.45,-8.35C168.83,-7.06 264.14,-9.21 338,-39 373.23,-53.21 406.61,-84.54 422.05,-100.4"/>
<polygon fill="#9a32cd" stroke="#9a32cd" points="119.22,-4.86 109.34,-8.68 119.45,-11.85 119.22,-4.86"/>
<text text-anchor="middle" x="263.5" y="-42" font-family="Helvetica,sans-Serif" font-size="10.00"> _image</text>
</g>
</g>
</svg>
