<?xml version="1.0" encoding="UTF-8" standalone="no"?>
<!DOCTYPE svg PUBLIC "-//W3C//DTD SVG 1.1//EN"
 "http://www.w3.org/Graphics/SVG/1.1/DTD/svg11.dtd">
<!-- Generated by graphviz version 2.43.0 (0)
 -->
<!-- Title: carta::Session::SendSpectralProfileData Pages: 1 -->
<!--zoomable 272 -->
<svg id="main" version="1.1" xmlns="http://www.w3.org/2000/svg" xmlns:xlink="http://www.w3.org/1999/xlink" xml:space="preserve" onload="init(evt)">
<style type="text/css"><![CDATA[
.edge:hover path { stroke: red; }
.edge:hover polygon { stroke: red; fill: red; }
]]></style>
<script type="text/javascript"><![CDATA[
var edges = document.getElementsByTagName('g');
if (edges && edges.length) {
  for (var i=0;i<edges.length;i++) {
    if (edges[i].id.substr(0,4)=='edge') {
      edges[i].setAttribute('class','edge');
    }
  }
}
]]></script>
        <defs>
                <circle id="rim" cx="0" cy="0" r="7"/>
                <circle id="rim2" cx="0" cy="0" r="3.5"/>
                <g id="zoomPlus">
                        <use xlink:href="#rim" fill="#404040">
                                <set attributeName="fill" to="#808080" begin="zoomplus.mouseover" end="zoomplus.mouseout"/>
                        </use>
                        <path d="M-4,0h8M0,-4v8" fill="none" stroke="white" stroke-width="1.5" pointer-events="none"/>
                </g>
                <g id="zoomMin">
                        <use xlink:href="#rim" fill="#404040">
                                <set attributeName="fill" to="#808080" begin="zoomminus.mouseover" end="zoomminus.mouseout"/>
                        </use>
                        <path d="M-4,0h8" fill="none" stroke="white" stroke-width="1.5" pointer-events="none"/>
                </g>
                <g id="dirArrow">
                        <path fill="none" stroke="white" stroke-width="1.5" d="M0,-3.0v7 M-2.5,-0.5L0,-3.0L2.5,-0.5"/>
                </g>
               <g id="resetDef">
                       <use xlink:href="#rim2" fill="#404040">
                               <set attributeName="fill" to="#808080" begin="reset.mouseover" end="reset.mouseout"/>
                       </use>
               </g>
        </defs>

<script type="text/javascript">
var viewWidth = 1173;
var viewHeight = 272;
var sectionId = 'dynsection-132';
</script>
<script xlink:href="svgpan.js"/>
<svg id="graph" class="graph">
<g id="viewport">
<title>carta::Session::SendSpectralProfileData</title>
<!-- Node1 -->
<g id="node1" class="node">
<title>Node1</title>
<g id="a_node1"><a xlink:title=" ">
<polygon fill="#bfbfbf" stroke="black" points="1010,-150 1010,-180 1165,-180 1165,-150 1010,-150"/>
<text text-anchor="start" x="1018" y="-168" font-family="Helvetica,sans-Serif" font-size="10.00">carta::Session::SendSpectral</text>
<text text-anchor="middle" x="1087.5" y="-157" font-family="Helvetica,sans-Serif" font-size="10.00">ProfileData</text>
</a>
</g>
</g>
<!-- Node2 -->
<g id="node2" class="node">
<title>Node2</title>
<g id="a_node2"><a xlink:href="classcarta_1_1SpectralProfileTask.html#a798e4a9edcd28210edd2e8193ad1c160" target="_top" xlink:title=" ">
<polygon fill="none" stroke="black" points="812.5,-219 812.5,-249 952.5,-249 952.5,-219 812.5,-219"/>
<text text-anchor="start" x="820.5" y="-237" font-family="Helvetica,sans-Serif" font-size="10.00">carta::SpectralProfileTask</text>
<text text-anchor="middle" x="882.5" y="-226" font-family="Helvetica,sans-Serif" font-size="10.00">::execute</text>
</a>
</g>
</g>
<!-- Node1&#45;&gt;Node2 -->
<g id="edge1" class="edge">
<title>Node1&#45;&gt;Node2</title>
<path fill="none" stroke="midnightblue" d="M1041.51,-183.83C1021.08,-192.05 996.5,-201.51 974,-209 963.64,-212.45 952.5,-215.8 941.7,-218.88"/>
<polygon fill="midnightblue" stroke="midnightblue" points="1042.92,-187.03 1050.87,-180.02 1040.29,-180.54 1042.92,-187.03"/>
</g>
<!-- Node3 -->
<g id="node3" class="node">
<title>Node3</title>
<g id="a_node3"><a xlink:href="classcarta_1_1Session.html#aa076ddc044321ae415f7d1d29df176da" target="_top" xlink:title=" ">
<polygon fill="none" stroke="black" points="806.5,-180.5 806.5,-199.5 958.5,-199.5 958.5,-180.5 806.5,-180.5"/>
<text text-anchor="middle" x="882.5" y="-187.5" font-family="Helvetica,sans-Serif" font-size="10.00">carta::Session::OnSetCursor</text>
</a>
</g>
</g>
<!-- Node1&#45;&gt;Node3 -->
<g id="edge2" class="edge">
<title>Node1&#45;&gt;Node3</title>
<path fill="none" stroke="midnightblue" d="M999.46,-175.72C985.88,-177.39 971.95,-179.11 958.67,-180.74"/>
<polygon fill="midnightblue" stroke="midnightblue" points="1000.26,-179.15 1009.75,-174.45 999.4,-172.2 1000.26,-179.15"/>
</g>
<!-- Node9 -->
<g id="node9" class="node">
<title>Node9</title>
<g id="a_node9"><a xlink:href="classcarta_1_1Session.html#aef4b334b4727ea531b229d242c3108b2" target="_top" xlink:title=" ">
<polygon fill="none" stroke="black" points="792.5,-136.5 792.5,-155.5 972.5,-155.5 972.5,-136.5 792.5,-136.5"/>
<text text-anchor="middle" x="882.5" y="-143.5" font-family="Helvetica,sans-Serif" font-size="10.00">carta::Session::UpdateImageData</text>
</a>
</g>
</g>
<!-- Node1&#45;&gt;Node9 -->
<g id="edge8" class="edge">
<title>Node1&#45;&gt;Node9</title>
<path fill="none" stroke="midnightblue" d="M999.71,-156.88C990.74,-156.04 981.62,-155.18 972.62,-154.34"/>
<polygon fill="midnightblue" stroke="midnightblue" points="999.47,-160.37 1009.75,-157.82 1000.12,-153.4 999.47,-160.37"/>
</g>
<!-- Node18 -->
<g id="node18" class="node">
<title>Node18</title>
<g id="a_node18"><a xlink:href="classcarta_1_1Session.html#ac86d5f7886628a9429955f05426f25ab" target="_top" xlink:title=" ">
<polygon fill="none" stroke="black" points="791,-93.5 791,-112.5 974,-112.5 974,-93.5 791,-93.5"/>
<text text-anchor="middle" x="882.5" y="-100.5" font-family="Helvetica,sans-Serif" font-size="10.00">carta::Session::UpdateRegionData</text>
</a>
</g>
</g>
<!-- Node1&#45;&gt;Node18 -->
<g id="edge18" class="edge">
<title>Node1&#45;&gt;Node18</title>
<path fill="none" stroke="midnightblue" d="M1034.59,-146.66C1015.62,-140.17 993.92,-133 974,-127 957.03,-121.89 938.11,-116.78 921.97,-112.6"/>
<polygon fill="midnightblue" stroke="midnightblue" points="1033.65,-150.04 1044.24,-149.98 1035.93,-143.42 1033.65,-150.04"/>
</g>
<!-- Node4 -->
<g id="node4" class="node">
<title>Node4</title>
<g id="a_node4"><a xlink:href="classcarta_1_1CursorSettings.html#a0d6e27c8a1772bede7d5d4276df452bd" target="_top" xlink:title=" ">
<polygon fill="none" stroke="black" points="606,-231 606,-261 725,-261 725,-231 606,-231"/>
<text text-anchor="start" x="614" y="-249" font-family="Helvetica,sans-Serif" font-size="10.00">carta::CursorSettings</text>
<text text-anchor="middle" x="665.5" y="-238" font-family="Helvetica,sans-Serif" font-size="10.00">::ExecuteOne</text>
</a>
</g>
</g>
<!-- Node3&#45;&gt;Node4 -->
<g id="edge3" class="edge">
<title>Node3&#45;&gt;Node4</title>
<path fill="none" stroke="midnightblue" d="M825.81,-201.72C814.27,-204.31 802.22,-207.14 791,-210 766.04,-216.36 738.5,-224.23 715.68,-230.99"/>
<polygon fill="midnightblue" stroke="midnightblue" points="826.79,-205.09 835.79,-199.51 825.27,-198.25 826.79,-205.09"/>
</g>
<!-- Node6 -->
<g id="node6" class="node">
<title>Node6</title>
<g id="a_node6"><a xlink:href="classcarta_1_1Session.html#afe5c090c017ef208f638b96a7eb1ecf0" target="_top" xlink:title=" ">
<polygon fill="none" stroke="black" points="378.5,-184 378.5,-214 522.5,-214 522.5,-184 378.5,-184"/>
<text text-anchor="start" x="386.5" y="-202" font-family="Helvetica,sans-Serif" font-size="10.00">carta::Session::OnResume</text>
<text text-anchor="middle" x="450.5" y="-191" font-family="Helvetica,sans-Serif" font-size="10.00">Session</text>
</a>
</g>
</g>
<!-- Node3&#45;&gt;Node6 -->
<g id="edge5" class="edge">
<title>Node3&#45;&gt;Node6</title>
<path fill="none" stroke="midnightblue" d="M796.05,-191.79C715.94,-193.47 597.57,-195.94 522.52,-197.51"/>
<polygon fill="midnightblue" stroke="midnightblue" points="796.18,-195.29 806.11,-191.58 796.04,-188.29 796.18,-195.29"/>
</g>
<!-- Node5 -->
<g id="node5" class="node">
<title>Node5</title>
<g id="a_node5"><a xlink:href="classcarta_1_1SetCursorTask.html#a4ae7952b66399be7c43433ef94d4ae39" target="_top" xlink:title=" ">
<polygon fill="none" stroke="black" points="392.5,-233 392.5,-263 508.5,-263 508.5,-233 392.5,-233"/>
<text text-anchor="start" x="400.5" y="-251" font-family="Helvetica,sans-Serif" font-size="10.00">carta::SetCursorTask</text>
<text text-anchor="middle" x="450.5" y="-240" font-family="Helvetica,sans-Serif" font-size="10.00">::execute</text>
</a>
</g>
</g>
<!-- Node4&#45;&gt;Node5 -->
<g id="edge4" class="edge">
<title>Node4&#45;&gt;Node5</title>
<path fill="none" stroke="midnightblue" d="M595.58,-246.65C567.47,-246.91 535.37,-247.21 508.6,-247.46"/>
<polygon fill="midnightblue" stroke="midnightblue" points="595.77,-250.15 605.73,-246.55 595.7,-243.15 595.77,-250.15"/>
</g>
<!-- Node7 -->
<g id="node7" class="node">
<title>Node7</title>
<g id="a_node7"><a xlink:href="classcarta_1_1SessionManager.html#a474c31666cb3b22fcbe8af5f945d2950" target="_top" xlink:title=" ">
<polygon fill="none" stroke="black" points="180.5,-184 180.5,-214 308.5,-214 308.5,-184 180.5,-184"/>
<text text-anchor="start" x="188.5" y="-202" font-family="Helvetica,sans-Serif" font-size="10.00">carta::SessionManager</text>
<text text-anchor="middle" x="244.5" y="-191" font-family="Helvetica,sans-Serif" font-size="10.00">::OnMessage</text>
</a>
</g>
</g>
<!-- Node6&#45;&gt;Node7 -->
<g id="edge6" class="edge">
<title>Node6&#45;&gt;Node7</title>
<path fill="none" stroke="midnightblue" d="M368.22,-199C348.45,-199 327.61,-199 308.82,-199"/>
<polygon fill="midnightblue" stroke="midnightblue" points="368.44,-202.5 378.44,-199 368.44,-195.5 368.44,-202.5"/>
</g>
<!-- Node8 -->
<g id="node8" class="node">
<title>Node8</title>
<g id="a_node8"><a xlink:href="classcarta_1_1SessionManager.html#ab4e4e7f0244bd6843e70ab91652debf6" target="_top" xlink:title=" ">
<polygon fill="none" stroke="black" points="0,-184 0,-214 128,-214 128,-184 0,-184"/>
<text text-anchor="start" x="8" y="-202" font-family="Helvetica,sans-Serif" font-size="10.00">carta::SessionManager</text>
<text text-anchor="middle" x="64" y="-191" font-family="Helvetica,sans-Serif" font-size="10.00">::RunApp</text>
</a>
</g>
</g>
<!-- Node7&#45;&gt;Node8 -->
<g id="edge7" class="edge">
<title>Node7&#45;&gt;Node8</title>
<path fill="none" stroke="midnightblue" d="M170.25,-199C156.26,-199 141.73,-199 128.1,-199"/>
<polygon fill="midnightblue" stroke="midnightblue" points="170.32,-202.5 180.32,-199 170.32,-195.5 170.32,-202.5"/>
</g>
<!-- Node10 -->
<g id="node10" class="node">
<title>Node10</title>
<g id="a_node10"><a xlink:href="classcarta_1_1Session.html#aa550cd4106356e47e4254ecddff6f809" target="_top" xlink:title=" ">
<polygon fill="none" stroke="black" points="576,-88 576,-118 755,-118 755,-88 576,-88"/>
<text text-anchor="start" x="584" y="-106" font-family="Helvetica,sans-Serif" font-size="10.00">carta::Session::ExecuteAnimation</text>
<text text-anchor="middle" x="665.5" y="-95" font-family="Helvetica,sans-Serif" font-size="10.00">FrameInner</text>
</a>
</g>
</g>
<!-- Node9&#45;&gt;Node10 -->
<g id="edge9" class="edge">
<title>Node9&#45;&gt;Node10</title>
<path fill="none" stroke="midnightblue" d="M823.97,-134.49C798.65,-129.43 768.58,-123.42 741.53,-118.01"/>
<polygon fill="midnightblue" stroke="midnightblue" points="823.29,-137.93 833.78,-136.46 824.67,-131.06 823.29,-137.93"/>
</g>
<!-- Node13 -->
<g id="node13" class="node">
<title>Node13</title>
<g id="a_node13"><a xlink:href="classcarta_1_1Session.html#af5f49139f41c92e209aee736bb1cd260" target="_top" xlink:title=" ">
<polygon fill="none" stroke="black" points="590,-137 590,-167 741,-167 741,-137 590,-137"/>
<text text-anchor="start" x="598" y="-155" font-family="Helvetica,sans-Serif" font-size="10.00">carta::Session::OnSetImage</text>
<text text-anchor="middle" x="665.5" y="-144" font-family="Helvetica,sans-Serif" font-size="10.00">Channels</text>
</a>
</g>
</g>
<!-- Node9&#45;&gt;Node13 -->
<g id="edge12" class="edge">
<title>Node9&#45;&gt;Node13</title>
<path fill="none" stroke="midnightblue" d="M782.42,-148.76C768.52,-149.15 754.42,-149.55 741.08,-149.92"/>
<polygon fill="midnightblue" stroke="midnightblue" points="782.6,-152.26 792.5,-148.48 782.41,-145.26 782.6,-152.26"/>
</g>
<!-- Node16 -->
<g id="node16" class="node">
<title>Node16</title>
<g id="a_node16"><a xlink:href="classcarta_1_1Session.html#a4565eed986a6f5ed57ab3a0a6c5b6110" target="_top" xlink:title=" ">
<polygon fill="none" stroke="black" points="591.5,-39 591.5,-69 739.5,-69 739.5,-39 591.5,-39"/>
<text text-anchor="start" x="599.5" y="-57" font-family="Helvetica,sans-Serif" font-size="10.00">carta::Session::RegionData</text>
<text text-anchor="middle" x="665.5" y="-46" font-family="Helvetica,sans-Serif" font-size="10.00">Streams</text>
</a>
</g>
</g>
<!-- Node9&#45;&gt;Node16 -->
<g id="edge16" class="edge">
<title>Node9&#45;&gt;Node16</title>
<path fill="none" stroke="midnightblue" d="M814.15,-133.17C806.02,-130.18 798.1,-126.51 791,-122 769.97,-108.62 775.92,-92.55 755,-79 749.1,-75.18 742.62,-71.94 735.92,-69.18"/>
<polygon fill="midnightblue" stroke="midnightblue" points="813.16,-136.53 823.75,-136.36 815.37,-129.88 813.16,-136.53"/>
</g>
<!-- Node11 -->
<g id="node11" class="node">
<title>Node11</title>
<g id="a_node11"><a xlink:href="classcarta_1_1Session.html#aa7cbd24871105659a8520975e92d4eab" target="_top" xlink:title=" ">
<polygon fill="none" stroke="black" points="361,-86 361,-116 540,-116 540,-86 361,-86"/>
<text text-anchor="start" x="369" y="-104" font-family="Helvetica,sans-Serif" font-size="10.00">carta::Session::ExecuteAnimation</text>
<text text-anchor="middle" x="450.5" y="-93" font-family="Helvetica,sans-Serif" font-size="10.00">Frame</text>
</a>
</g>
</g>
<!-- Node10&#45;&gt;Node11 -->
<g id="edge10" class="edge">
<title>Node10&#45;&gt;Node11</title>
<path fill="none" stroke="midnightblue" d="M565.46,-102.07C557.01,-101.99 548.5,-101.91 540.14,-101.83"/>
<polygon fill="midnightblue" stroke="midnightblue" points="565.68,-105.57 575.71,-102.17 565.74,-98.57 565.68,-105.57"/>
</g>
<!-- Node12 -->
<g id="node12" class="node">
<title>Node12</title>
<g id="a_node12"><a xlink:href="classcarta_1_1AnimationTask.html#a92a52915589d226cf4afd3428ffea271" target="_top" xlink:title=" ">
<polygon fill="none" stroke="black" points="185,-86 185,-116 304,-116 304,-86 185,-86"/>
<text text-anchor="start" x="193" y="-104" font-family="Helvetica,sans-Serif" font-size="10.00">carta::AnimationTask</text>
<text text-anchor="middle" x="244.5" y="-93" font-family="Helvetica,sans-Serif" font-size="10.00">::execute</text>
</a>
</g>
</g>
<!-- Node11&#45;&gt;Node12 -->
<g id="edge11" class="edge">
<title>Node11&#45;&gt;Node12</title>
<path fill="none" stroke="midnightblue" d="M350.49,-101C334.58,-101 318.58,-101 304.03,-101"/>
<polygon fill="midnightblue" stroke="midnightblue" points="350.91,-104.5 360.91,-101 350.91,-97.5 350.91,-104.5"/>
</g>
<!-- Node13&#45;&gt;Node6 -->
<g id="edge15" class="edge">
<title>Node13&#45;&gt;Node6</title>
<path fill="none" stroke="midnightblue" d="M586.57,-169.2C564.61,-174.04 540.9,-179.27 519.56,-183.98"/>
<polygon fill="midnightblue" stroke="midnightblue" points="587.51,-172.57 596.52,-167 586,-165.74 587.51,-172.57"/>
</g>
<!-- Node14 -->
<g id="node14" class="node">
<title>Node14</title>
<g id="a_node14"><a xlink:href="classcarta_1_1Session.html#a258addc8994b72cb71c51280d3850bf4" target="_top" xlink:title=" ">
<polygon fill="none" stroke="black" points="378,-135 378,-165 523,-165 523,-135 378,-135"/>
<text text-anchor="start" x="386" y="-153" font-family="Helvetica,sans-Serif" font-size="10.00">carta::Session::ExecuteSet</text>
<text text-anchor="middle" x="450.5" y="-142" font-family="Helvetica,sans-Serif" font-size="10.00">ChannelEvt</text>
</a>
</g>
</g>
<!-- Node13&#45;&gt;Node14 -->
<g id="edge13" class="edge">
<title>Node13&#45;&gt;Node14</title>
<path fill="none" stroke="midnightblue" d="M579.46,-151.2C560.84,-151.03 541.3,-150.84 523.25,-150.67"/>
<polygon fill="midnightblue" stroke="midnightblue" points="579.67,-154.7 589.7,-151.3 579.74,-147.7 579.67,-154.7"/>
</g>
<!-- Node15 -->
<g id="node15" class="node">
<title>Node15</title>
<g id="a_node15"><a xlink:href="classcarta_1_1SetImageChannelsTask.html#a060a6a6a22fa9d26231e36e640534527" target="_top" xlink:title=" ">
<polygon fill="none" stroke="black" points="164,-135 164,-165 325,-165 325,-135 164,-135"/>
<text text-anchor="start" x="172" y="-153" font-family="Helvetica,sans-Serif" font-size="10.00">carta::SetImageChannelsTask</text>
<text text-anchor="middle" x="244.5" y="-142" font-family="Helvetica,sans-Serif" font-size="10.00">::execute</text>
</a>
</g>
</g>
<!-- Node14&#45;&gt;Node15 -->
<g id="edge14" class="edge">
<title>Node14&#45;&gt;Node15</title>
<path fill="none" stroke="midnightblue" d="M367.78,-150C353.79,-150 339.26,-150 325.31,-150"/>
<polygon fill="midnightblue" stroke="midnightblue" points="367.86,-153.5 377.86,-150 367.86,-146.5 367.86,-153.5"/>
</g>
<!-- Node17 -->
<g id="node17" class="node">
<title>Node17</title>
<g id="a_node17"><a xlink:href="classcarta_1_1RegionDataStreamsTask.html#a38cdf00f163c90d07819252c648c47c4" target="_top" xlink:title=" ">
<polygon fill="none" stroke="black" points="378,-37 378,-67 523,-67 523,-37 378,-37"/>
<text text-anchor="start" x="386" y="-55" font-family="Helvetica,sans-Serif" font-size="10.00">carta::RegionDataStreams</text>
<text text-anchor="middle" x="450.5" y="-44" font-family="Helvetica,sans-Serif" font-size="10.00">Task::execute</text>
</a>
</g>
</g>
<!-- Node16&#45;&gt;Node17 -->
<g id="edge17" class="edge">
<title>Node16&#45;&gt;Node17</title>
<path fill="none" stroke="midnightblue" d="M581.29,-53.22C562.14,-53.04 541.94,-52.85 523.33,-52.67"/>
<polygon fill="midnightblue" stroke="midnightblue" points="581.46,-56.72 591.5,-53.31 581.53,-49.72 581.46,-56.72"/>
</g>
<!-- Node18&#45;&gt;Node10 -->
<g id="edge19" class="edge">
<title>Node18&#45;&gt;Node10</title>
<path fill="none" stroke="midnightblue" d="M780.92,-103C772.34,-103 763.71,-103 755.23,-103"/>
<polygon fill="midnightblue" stroke="midnightblue" points="780.94,-106.5 790.94,-103 780.94,-99.5 780.94,-106.5"/>
</g>
<!-- Node18&#45;&gt;Node13 -->
<g id="edge21" class="edge">
<title>Node18&#45;&gt;Node13</title>
<path fill="none" stroke="midnightblue" d="M829.81,-114.78C800.64,-121.43 763.88,-129.81 732.63,-136.93"/>
<polygon fill="midnightblue" stroke="midnightblue" points="830.82,-118.14 839.79,-112.51 829.26,-111.32 830.82,-118.14"/>
</g>
<!-- Node18&#45;&gt;Node16 -->
<g id="edge22" class="edge">
<title>Node18&#45;&gt;Node16</title>
<path fill="none" stroke="midnightblue" d="M829.81,-91.22C800.64,-84.57 763.88,-76.19 732.63,-69.07"/>
<polygon fill="midnightblue" stroke="midnightblue" points="829.26,-94.68 839.79,-93.49 830.82,-87.86 829.26,-94.68"/>
</g>
<!-- Node19 -->
<g id="node19" class="node">
<title>Node19</title>
<g id="a_node19"><a xlink:href="classcarta_1_1Session.html#ae9c7b649790d7ab36f01a4a966674a63" target="_top" xlink:title=" ">
<polygon fill="none" stroke="black" points="592,-0.5 592,-19.5 739,-19.5 739,-0.5 592,-0.5"/>
<text text-anchor="middle" x="665.5" y="-7.5" font-family="Helvetica,sans-Serif" font-size="10.00">carta::Session::OnOpenFile</text>
</a>
</g>
</g>
<!-- Node18&#45;&gt;Node19 -->
<g id="edge20" class="edge">
<title>Node18&#45;&gt;Node19</title>
<path fill="none" stroke="midnightblue" d="M859.71,-87.34C835.34,-70.52 794.12,-44.19 755,-29 745.19,-25.19 734.45,-22.07 723.94,-19.54"/>
<polygon fill="midnightblue" stroke="midnightblue" points="857.99,-90.4 868.19,-93.27 862.01,-84.67 857.99,-90.4"/>
</g>
</g>
</svg>
        <g id="navigator" transform="translate(0 0)" fill="#404254">
                <rect fill="#f2f5e9" fill-opacity="0.5" stroke="#606060" stroke-width=".5" x="0" y="0" width="60" height="60"/>
                <use id="zoomplus" xlink:href="#zoomPlus" x="17" y="9" onmousedown="handleZoom(evt,'in')"/>
                <use id="zoomminus" xlink:href="#zoomMin" x="42" y="9" onmousedown="handleZoom(evt,'out')"/>
                <use id="reset" xlink:href="#resetDef" x="30" y="36" onmousedown="handleReset()"/>
                <g id="arrowUp" xlink:href="#dirArrow" transform="translate(30 24)" onmousedown="handlePan(0,-1)">
                  <use xlink:href="#rim" fill="#404040">
                        <set attributeName="fill" to="#808080" begin="arrowUp.mouseover" end="arrowUp.mouseout"/>
                  </use>
                  <path fill="none" stroke="white" stroke-width="1.5" d="M0,-3.0v7 M-2.5,-0.5L0,-3.0L2.5,-0.5"/>
                </g>
                <g id="arrowRight" xlink:href="#dirArrow" transform="rotate(90) translate(36 -43)" onmousedown="handlePan(1,0)">
                  <use xlink:href="#rim" fill="#404040">
                        <set attributeName="fill" to="#808080" begin="arrowRight.mouseover" end="arrowRight.mouseout"/>
                  </use>
                  <path fill="none" stroke="white" stroke-width="1.5" d="M0,-3.0v7 M-2.5,-0.5L0,-3.0L2.5,-0.5"/>
                </g>
                <g id="arrowDown" xlink:href="#dirArrow" transform="rotate(180) translate(-30 -48)" onmousedown="handlePan(0,1)">
                  <use xlink:href="#rim" fill="#404040">
                        <set attributeName="fill" to="#808080" begin="arrowDown.mouseover" end="arrowDown.mouseout"/>
                  </use>
                  <path fill="none" stroke="white" stroke-width="1.5" d="M0,-3.0v7 M-2.5,-0.5L0,-3.0L2.5,-0.5"/>
                </g>
                <g id="arrowLeft" xlink:href="#dirArrow" transform="rotate(270) translate(-36 17)" onmousedown="handlePan(-1,0)">
                  <use xlink:href="#rim" fill="#404040">
                        <set attributeName="fill" to="#808080" begin="arrowLeft.mouseover" end="arrowLeft.mouseout"/>
                  </use>
                  <path fill="none" stroke="white" stroke-width="1.5" d="M0,-3.0v7 M-2.5,-0.5L0,-3.0L2.5,-0.5"/>
                </g>
        </g>
        <svg viewBox="0 0 15 15" width="100%" height="30px" preserveAspectRatio="xMaxYMin meet">
         <g id="arrow_out" transform="scale(0.3 0.3)">
          <a xlink:href="classcarta_1_1Session_a64e272e7aec6edd051745e773d47c0f2_icgraph_org.svg" target="_base">
           <rect id="button" ry="5" rx="5" y="6" x="6" height="38" width="38"
                fill="#f2f5e9" fill-opacity="0.5" stroke="#606060" stroke-width="1.0"/>
           <path id="arrow"
             d="M 11.500037,31.436501 C 11.940474,20.09759 22.043105,11.32322 32.158766,21.979434 L 37.068811,17.246167 C 37.068811,17.246167 37.088388,32 37.088388,32 L 22.160133,31.978069 C 22.160133,31.978069 26.997745,27.140456 26.997745,27.140456 C 18.528582,18.264221 13.291696,25.230495 11.500037,31.436501 z"
             style="fill:#404040;"/>
          </a>
         </g>
        </svg>
</svg>
