<?xml version="1.0" encoding="UTF-8" standalone="no"?>
<!DOCTYPE svg PUBLIC "-//W3C//DTD SVG 1.1//EN"
 "http://www.w3.org/Graphics/SVG/1.1/DTD/svg11.dtd">
<!-- Generated by graphviz version 2.43.0 (0)
 -->
<!-- Title: carta::FileInfoLoader::FillFileInfo Pages: 1 -->
<svg width="1390pt" height="390pt"
 viewBox="0.00 0.00 1390.00 390.00" xmlns="http://www.w3.org/2000/svg" xmlns:xlink="http://www.w3.org/1999/xlink">
<g id="graph0" class="graph" transform="scale(1 1) rotate(0) translate(4 386)">
<title>carta::FileInfoLoader::FillFileInfo</title>
<!-- Node1 -->
<g id="node1" class="node">
<title>Node1</title>
<g id="a_node1"><a xlink:title=" ">
<polygon fill="#bfbfbf" stroke="black" points="1266,-90.5 1266,-120.5 1382,-120.5 1382,-90.5 1266,-90.5"/>
<text text-anchor="start" x="1274" y="-108.5" font-family="Helvetica,sans-Serif" font-size="10.00">carta::FileInfoLoader</text>
<text text-anchor="middle" x="1324" y="-97.5" font-family="Helvetica,sans-Serif" font-size="10.00">::FillFileInfo</text>
</a>
</g>
</g>
<!-- Node2 -->
<g id="node2" class="node">
<title>Node2</title>
<g id="a_node2"><a xlink:href="classcarta_1_1Session.html#a6c490d8acff0517270d57a70a6956dc6" target="_top" xlink:title=" ">
<polygon fill="none" stroke="black" points="1089,-120 1089,-139 1230,-139 1230,-120 1089,-120"/>
<text text-anchor="middle" x="1159.5" y="-127" font-family="Helvetica,sans-Serif" font-size="10.00">carta::Session::FillFileInfo</text>
</a>
</g>
</g>
<!-- Node1&#45;&gt;Node2 -->
<g id="edge1" class="edge">
<title>Node1&#45;&gt;Node2</title>
<path fill="none" stroke="midnightblue" d="M1255.69,-115.44C1245.55,-116.94 1235.11,-118.48 1225.03,-119.97"/>
<polygon fill="midnightblue" stroke="midnightblue" points="1256.33,-118.89 1265.71,-113.96 1255.3,-111.96 1256.33,-118.89"/>
</g>
<!-- Node16 -->
<g id="node16" class="node">
<title>Node16</title>
<g id="a_node16"><a xlink:href="classcarta_1_1FileListHandler.html#a1c0729f201216e2ee578126c9fa49f41" target="_top" xlink:title=" ">
<polygon fill="none" stroke="black" points="1099.5,-68.5 1099.5,-98.5 1219.5,-98.5 1219.5,-68.5 1099.5,-68.5"/>
<text text-anchor="start" x="1107.5" y="-86.5" font-family="Helvetica,sans-Serif" font-size="10.00">carta::FileListHandler</text>
<text text-anchor="middle" x="1159.5" y="-75.5" font-family="Helvetica,sans-Serif" font-size="10.00">::GetFileList</text>
</a>
</g>
</g>
<!-- Node1&#45;&gt;Node16 -->
<g id="edge21" class="edge">
<title>Node1&#45;&gt;Node16</title>
<path fill="none" stroke="midnightblue" d="M1255.79,-96.4C1243.83,-94.78 1231.46,-93.11 1219.75,-91.52"/>
<polygon fill="midnightblue" stroke="midnightblue" points="1255.33,-99.87 1265.71,-97.74 1256.27,-92.93 1255.33,-99.87"/>
</g>
<!-- Node3 -->
<g id="node3" class="node">
<title>Node3</title>
<g id="a_node3"><a xlink:href="classcarta_1_1Session.html#a3dc8e818765159809dfb28472a3c95a6" target="_top" xlink:title=" ">
<polygon fill="none" stroke="black" points="902,-117.5 902,-147.5 1053,-147.5 1053,-117.5 902,-117.5"/>
<text text-anchor="start" x="910" y="-135.5" font-family="Helvetica,sans-Serif" font-size="10.00">carta::Session::FillExtended</text>
<text text-anchor="middle" x="977.5" y="-124.5" font-family="Helvetica,sans-Serif" font-size="10.00">FileInfo</text>
</a>
</g>
</g>
<!-- Node2&#45;&gt;Node3 -->
<g id="edge2" class="edge">
<title>Node2&#45;&gt;Node3</title>
<path fill="none" stroke="midnightblue" d="M1078.68,-130.83C1070.24,-130.97 1061.67,-131.11 1053.28,-131.25"/>
<polygon fill="midnightblue" stroke="midnightblue" points="1078.97,-134.33 1088.91,-130.66 1078.85,-127.33 1078.97,-134.33"/>
</g>
<!-- Node4 -->
<g id="node4" class="node">
<title>Node4</title>
<g id="a_node4"><a xlink:href="classcarta_1_1Session.html#a8874927da900745afae4a0d975ed0453" target="_top" xlink:title=" ">
<polygon fill="none" stroke="black" points="330,-351.5 330,-381.5 470,-381.5 470,-351.5 330,-351.5"/>
<text text-anchor="start" x="338" y="-369.5" font-family="Helvetica,sans-Serif" font-size="10.00">carta::Session::OnFileInfo</text>
<text text-anchor="middle" x="400" y="-358.5" font-family="Helvetica,sans-Serif" font-size="10.00">Request</text>
</a>
</g>
</g>
<!-- Node3&#45;&gt;Node4 -->
<g id="edge3" class="edge">
<title>Node3&#45;&gt;Node4</title>
<path fill="none" stroke="midnightblue" d="M951.2,-154.37C900.58,-196.77 781.55,-289.73 664,-332.5 600.94,-355.44 524.44,-363.28 470.24,-365.78"/>
<polygon fill="midnightblue" stroke="midnightblue" points="953.63,-156.9 959.01,-147.77 949.11,-151.55 953.63,-156.9"/>
</g>
<!-- Node7 -->
<g id="node7" class="node">
<title>Node7</title>
<g id="a_node7"><a xlink:href="classcarta_1_1Session.html#a54c5dc766deb62f608792ce551a1b885" target="_top" xlink:title=" ">
<polygon fill="none" stroke="black" points="709.5,-156 709.5,-175 856.5,-175 856.5,-156 709.5,-156"/>
<text text-anchor="middle" x="783" y="-163" font-family="Helvetica,sans-Serif" font-size="10.00">carta::Session::OnOpenFile</text>
</a>
</g>
</g>
<!-- Node3&#45;&gt;Node7 -->
<g id="edge6" class="edge">
<title>Node3&#45;&gt;Node7</title>
<path fill="none" stroke="midnightblue" d="M891.51,-147.07C873.9,-150.09 855.78,-153.19 839.56,-155.98"/>
<polygon fill="midnightblue" stroke="midnightblue" points="892.53,-150.45 901.8,-145.31 891.35,-143.55 892.53,-150.45"/>
</g>
<!-- Node12 -->
<g id="node12" class="node">
<title>Node12</title>
<g id="a_node12"><a xlink:href="classcarta_1_1Session.html#a07bfe19708d3e272d01fef6f18712aa2" target="_top" xlink:title=" ">
<polygon fill="none" stroke="black" points="508,-50 508,-69 664,-69 664,-50 508,-50"/>
<text text-anchor="middle" x="586" y="-57" font-family="Helvetica,sans-Serif" font-size="10.00">carta::Session::OnPvRequest</text>
</a>
</g>
</g>
<!-- Node3&#45;&gt;Node12 -->
<g id="edge18" class="edge">
<title>Node3&#45;&gt;Node12</title>
<path fill="none" stroke="midnightblue" d="M891.64,-116.6C814.18,-102.08 702.23,-81.1 637.82,-69.02"/>
<polygon fill="midnightblue" stroke="midnightblue" points="891.39,-120.11 901.86,-118.51 892.68,-113.23 891.39,-120.11"/>
</g>
<!-- Node14 -->
<g id="node14" class="node">
<title>Node14</title>
<g id="a_node14"><a xlink:href="classcarta_1_1Session.html#af8a5cb91e4f627673631d7648bbaed75" target="_top" xlink:title=" ">
<polygon fill="none" stroke="black" points="700,-41 700,-60 866,-60 866,-41 700,-41"/>
<text text-anchor="middle" x="783" y="-48" font-family="Helvetica,sans-Serif" font-size="10.00">carta::Session::SendPvPreview</text>
</a>
</g>
</g>
<!-- Node3&#45;&gt;Node14 -->
<g id="edge19" class="edge">
<title>Node3&#45;&gt;Node14</title>
<path fill="none" stroke="midnightblue" d="M914.1,-113.53C909.93,-111.66 905.86,-109.65 902,-107.5 883.82,-97.35 884.21,-87.6 866,-77.5 852.63,-70.08 836.9,-64.29 822.81,-60.01"/>
<polygon fill="midnightblue" stroke="midnightblue" points="912.77,-116.77 923.35,-117.39 915.47,-110.31 912.77,-116.77"/>
</g>
<!-- Node5 -->
<g id="node5" class="node">
<title>Node5</title>
<g id="a_node5"><a xlink:href="classcarta_1_1SessionManager.html#a474c31666cb3b22fcbe8af5f945d2950" target="_top" xlink:title=" ">
<polygon fill="none" stroke="black" points="164,-266.5 164,-296.5 292,-296.5 292,-266.5 164,-266.5"/>
<text text-anchor="start" x="172" y="-284.5" font-family="Helvetica,sans-Serif" font-size="10.00">carta::SessionManager</text>
<text text-anchor="middle" x="228" y="-273.5" font-family="Helvetica,sans-Serif" font-size="10.00">::OnMessage</text>
</a>
</g>
</g>
<!-- Node4&#45;&gt;Node5 -->
<g id="edge4" class="edge">
<title>Node4&#45;&gt;Node5</title>
<path fill="none" stroke="midnightblue" d="M351.8,-347.39C343.79,-343.91 335.61,-340.21 328,-336.5 302.37,-324.01 274.01,-308.02 254.24,-296.51"/>
<polygon fill="midnightblue" stroke="midnightblue" points="350.51,-350.65 361.08,-351.36 353.26,-344.21 350.51,-350.65"/>
</g>
<!-- Node6 -->
<g id="node6" class="node">
<title>Node6</title>
<g id="a_node6"><a xlink:href="classcarta_1_1SessionManager.html#ab4e4e7f0244bd6843e70ab91652debf6" target="_top" xlink:title=" ">
<polygon fill="none" stroke="black" points="0,-266.5 0,-296.5 128,-296.5 128,-266.5 0,-266.5"/>
<text text-anchor="start" x="8" y="-284.5" font-family="Helvetica,sans-Serif" font-size="10.00">carta::SessionManager</text>
<text text-anchor="middle" x="64" y="-273.5" font-family="Helvetica,sans-Serif" font-size="10.00">::RunApp</text>
</a>
</g>
</g>
<!-- Node5&#45;&gt;Node6 -->
<g id="edge5" class="edge">
<title>Node5&#45;&gt;Node6</title>
<path fill="none" stroke="midnightblue" d="M153.63,-281.5C145.14,-281.5 136.53,-281.5 128.19,-281.5"/>
<polygon fill="midnightblue" stroke="midnightblue" points="153.9,-285 163.9,-281.5 153.9,-278 153.9,-285"/>
</g>
<!-- Node7&#45;&gt;Node5 -->
<g id="edge12" class="edge">
<title>Node7&#45;&gt;Node5</title>
<path fill="none" stroke="midnightblue" d="M772.76,-184.45C756.11,-216.11 717.74,-278.75 664,-303.5 532.48,-364.09 354.31,-321.72 272.88,-296.52"/>
<polygon fill="midnightblue" stroke="midnightblue" points="775.97,-185.84 777.39,-175.34 769.74,-182.67 775.97,-185.84"/>
</g>
<!-- Node8 -->
<g id="node8" class="node">
<title>Node8</title>
<g id="a_node8"><a xlink:href="classcarta_1_1Session.html#aed12d0369de4c3391dba300cb77e9241" target="_top" xlink:title=" ">
<polygon fill="none" stroke="black" points="517,-263.5 517,-293.5 655,-293.5 655,-263.5 517,-263.5"/>
<text text-anchor="start" x="525" y="-281.5" font-family="Helvetica,sans-Serif" font-size="10.00">carta::Session::OnConcat</text>
<text text-anchor="middle" x="586" y="-270.5" font-family="Helvetica,sans-Serif" font-size="10.00">StokesFiles</text>
</a>
</g>
</g>
<!-- Node7&#45;&gt;Node8 -->
<g id="edge7" class="edge">
<title>Node7&#45;&gt;Node8</title>
<path fill="none" stroke="midnightblue" d="M762.38,-181.55C739.71,-199.54 700.8,-228.77 664,-248.5 653.63,-254.06 642.01,-259.14 630.99,-263.47"/>
<polygon fill="midnightblue" stroke="midnightblue" points="764.62,-184.23 770.23,-175.25 760.24,-178.77 764.62,-184.23"/>
</g>
<!-- Node9 -->
<g id="node9" class="node">
<title>Node9</title>
<g id="a_node9"><a xlink:href="classcarta_1_1Session.html#afe5c090c017ef208f638b96a7eb1ecf0" target="_top" xlink:title=" ">
<polygon fill="none" stroke="black" points="328,-222.5 328,-252.5 472,-252.5 472,-222.5 328,-222.5"/>
<text text-anchor="start" x="336" y="-240.5" font-family="Helvetica,sans-Serif" font-size="10.00">carta::Session::OnResume</text>
<text text-anchor="middle" x="400" y="-229.5" font-family="Helvetica,sans-Serif" font-size="10.00">Session</text>
</a>
</g>
</g>
<!-- Node7&#45;&gt;Node9 -->
<g id="edge17" class="edge">
<title>Node7&#45;&gt;Node9</title>
<path fill="none" stroke="midnightblue" d="M755.27,-179.73C731.89,-191.46 696.65,-207.44 664,-215.5 600.28,-231.24 525.52,-236.25 472.03,-237.61"/>
<polygon fill="midnightblue" stroke="midnightblue" points="756.91,-182.82 764.22,-175.15 753.73,-176.59 756.91,-182.82"/>
</g>
<!-- Node10 -->
<g id="node10" class="node">
<title>Node10</title>
<g id="a_node10"><a xlink:href="classcarta_1_1Session.html#a5589e4dca9e6a51055f15da1d9ac1b3c" target="_top" xlink:title=" ">
<polygon fill="none" stroke="black" points="518.5,-175.5 518.5,-205.5 653.5,-205.5 653.5,-175.5 518.5,-175.5"/>
<text text-anchor="start" x="526.5" y="-193.5" font-family="Helvetica,sans-Serif" font-size="10.00">carta::Session::OnFitting</text>
<text text-anchor="middle" x="586" y="-182.5" font-family="Helvetica,sans-Serif" font-size="10.00">Request</text>
</a>
</g>
</g>
<!-- Node7&#45;&gt;Node10 -->
<g id="edge11" class="edge">
<title>Node7&#45;&gt;Node10</title>
<path fill="none" stroke="midnightblue" d="M699.42,-176.09C684.11,-178.05 668.3,-180.08 653.55,-181.97"/>
<polygon fill="midnightblue" stroke="midnightblue" points="699.92,-179.55 709.39,-174.81 699.03,-172.61 699.92,-179.55"/>
</g>
<!-- Node11 -->
<g id="node11" class="node">
<title>Node11</title>
<g id="a_node11"><a xlink:href="classcarta_1_1Session.html#a8fe2527b0a83c67240ef4a31a86e4978" target="_top" xlink:title=" ">
<polygon fill="none" stroke="black" points="513.5,-126.5 513.5,-156.5 658.5,-156.5 658.5,-126.5 513.5,-126.5"/>
<text text-anchor="start" x="521.5" y="-144.5" font-family="Helvetica,sans-Serif" font-size="10.00">carta::Session::OnMoment</text>
<text text-anchor="middle" x="586" y="-133.5" font-family="Helvetica,sans-Serif" font-size="10.00">Request</text>
</a>
</g>
</g>
<!-- Node7&#45;&gt;Node11 -->
<g id="edge13" class="edge">
<title>Node7&#45;&gt;Node11</title>
<path fill="none" stroke="midnightblue" d="M699.18,-155.31C685.72,-153.65 671.87,-151.95 658.7,-150.32"/>
<polygon fill="midnightblue" stroke="midnightblue" points="699.04,-158.82 709.39,-156.56 699.89,-151.87 699.04,-158.82"/>
</g>
<!-- Node7&#45;&gt;Node12 -->
<g id="edge14" class="edge">
<title>Node7&#45;&gt;Node12</title>
<path fill="none" stroke="midnightblue" d="M761.19,-149.88C733,-128.94 683.9,-93.23 664,-83.5 652.05,-77.66 638.36,-72.85 625.88,-69.11"/>
<polygon fill="midnightblue" stroke="midnightblue" points="759.1,-152.7 769.21,-155.87 763.29,-147.08 759.1,-152.7"/>
</g>
<!-- Node13 -->
<g id="node13" class="node">
<title>Node13</title>
<g id="a_node13"><a xlink:href="classcarta_1_1Session.html#a45b9623e5dd0c0d54307ab148e8745aa" target="_top" xlink:title=" ">
<polygon fill="none" stroke="black" points="328.5,-129.5 328.5,-159.5 471.5,-159.5 471.5,-129.5 328.5,-129.5"/>
<text text-anchor="start" x="336.5" y="-147.5" font-family="Helvetica,sans-Serif" font-size="10.00">carta::Session::OnRemote</text>
<text text-anchor="middle" x="400" y="-136.5" font-family="Helvetica,sans-Serif" font-size="10.00">FileRequest</text>
</a>
</g>
</g>
<!-- Node7&#45;&gt;Node13 -->
<g id="edge15" class="edge">
<title>Node7&#45;&gt;Node13</title>
<path fill="none" stroke="midnightblue" d="M755.76,-151.38C732.43,-139.68 697,-123.96 664,-117.5 595.96,-104.19 576.8,-108.95 508,-117.5 488.7,-119.9 467.89,-124.64 449.79,-129.49"/>
<polygon fill="midnightblue" stroke="midnightblue" points="754.18,-154.5 764.67,-155.95 757.37,-148.27 754.18,-154.5"/>
</g>
<!-- Node8&#45;&gt;Node5 -->
<g id="edge8" class="edge">
<title>Node8&#45;&gt;Node5</title>
<path fill="none" stroke="midnightblue" d="M506.67,-279.16C442.24,-279.7 352.11,-280.46 292.21,-280.97"/>
<polygon fill="midnightblue" stroke="midnightblue" points="506.81,-282.66 516.78,-279.07 506.75,-275.66 506.81,-282.66"/>
</g>
<!-- Node8&#45;&gt;Node9 -->
<g id="edge9" class="edge">
<title>Node8&#45;&gt;Node9</title>
<path fill="none" stroke="midnightblue" d="M507.67,-261.27C494.64,-258.37 481.21,-255.37 468.46,-252.53"/>
<polygon fill="midnightblue" stroke="midnightblue" points="507.01,-264.71 517.53,-263.47 508.53,-257.87 507.01,-264.71"/>
</g>
<!-- Node9&#45;&gt;Node5 -->
<g id="edge10" class="edge">
<title>Node9&#45;&gt;Node5</title>
<path fill="none" stroke="midnightblue" d="M331.02,-255.09C316.46,-258.86 301.2,-262.81 287.06,-266.47"/>
<polygon fill="midnightblue" stroke="midnightblue" points="332.17,-258.41 340.97,-252.52 330.41,-251.64 332.17,-258.41"/>
</g>
<!-- Node13&#45;&gt;Node5 -->
<g id="edge16" class="edge">
<title>Node13&#45;&gt;Node5</title>
<path fill="none" stroke="midnightblue" d="M372.32,-166C337.63,-193.96 277.89,-242.1 247.67,-266.46"/>
<polygon fill="midnightblue" stroke="midnightblue" points="374.57,-168.68 380.16,-159.68 370.17,-163.23 374.57,-168.68"/>
</g>
<!-- Node15 -->
<g id="node15" class="node">
<title>Node15</title>
<g id="a_node15"><a xlink:href="classcarta_1_1PvPreviewUpdateTask.html#ad8fc7c242731d4bae2e2928f0cdf613a" target="_top" xlink:title=" ">
<polygon fill="none" stroke="black" points="508.5,-0.5 508.5,-30.5 663.5,-30.5 663.5,-0.5 508.5,-0.5"/>
<text text-anchor="start" x="516.5" y="-18.5" font-family="Helvetica,sans-Serif" font-size="10.00">carta::PvPreviewUpdateTask</text>
<text text-anchor="middle" x="586" y="-7.5" font-family="Helvetica,sans-Serif" font-size="10.00">::execute</text>
</a>
</g>
</g>
<!-- Node14&#45;&gt;Node15 -->
<g id="edge20" class="edge">
<title>Node14&#45;&gt;Node15</title>
<path fill="none" stroke="midnightblue" d="M718.85,-39.17C701.3,-36.02 682.04,-32.56 663.8,-29.28"/>
<polygon fill="midnightblue" stroke="midnightblue" points="718.51,-42.66 728.97,-40.98 719.75,-35.77 718.51,-42.66"/>
</g>
<!-- Node17 -->
<g id="node17" class="node">
<title>Node17</title>
<g id="a_node17"><a xlink:href="classcarta_1_1FileListHandler.html#a91a3c3b56d4f7c53b6f20026bab0390c" target="_top" xlink:title=" ">
<polygon fill="none" stroke="black" points="917.5,-68.5 917.5,-98.5 1037.5,-98.5 1037.5,-68.5 917.5,-68.5"/>
<text text-anchor="start" x="925.5" y="-86.5" font-family="Helvetica,sans-Serif" font-size="10.00">carta::FileListHandler</text>
<text text-anchor="middle" x="977.5" y="-75.5" font-family="Helvetica,sans-Serif" font-size="10.00">::OnFileListRequest</text>
</a>
</g>
</g>
<!-- Node16&#45;&gt;Node17 -->
<g id="edge22" class="edge">
<title>Node16&#45;&gt;Node17</title>
<path fill="none" stroke="midnightblue" d="M1088.7,-83.5C1071.8,-83.5 1053.91,-83.5 1037.57,-83.5"/>
<polygon fill="midnightblue" stroke="midnightblue" points="1089.06,-87 1099.06,-83.5 1089.06,-80 1089.06,-87"/>
</g>
<!-- Node18 -->
<g id="node18" class="node">
<title>Node18</title>
<g id="a_node18"><a xlink:href="classcarta_1_1FileListHandler.html#a71b0e5293a630376d925b100876c3726" target="_top" xlink:title=" ">
<polygon fill="none" stroke="black" points="914,-19.5 914,-49.5 1041,-49.5 1041,-19.5 914,-19.5"/>
<text text-anchor="start" x="922" y="-37.5" font-family="Helvetica,sans-Serif" font-size="10.00">carta::FileListHandler</text>
<text text-anchor="middle" x="977.5" y="-26.5" font-family="Helvetica,sans-Serif" font-size="10.00">::OnRegionListRequest</text>
</a>
</g>
</g>
<!-- Node16&#45;&gt;Node18 -->
<g id="edge23" class="edge">
<title>Node16&#45;&gt;Node18</title>
<path fill="none" stroke="midnightblue" d="M1093.3,-65.75C1073.79,-60.44 1052.6,-54.67 1033.79,-49.55"/>
<polygon fill="midnightblue" stroke="midnightblue" points="1092.46,-69.15 1103.03,-68.4 1094.3,-62.39 1092.46,-69.15"/>
</g>
</g>
</svg>
