<?xml version="1.0" encoding="UTF-8" standalone="no"?>
<!DOCTYPE svg PUBLIC "-//W3C//DTD SVG 1.1//EN"
 "http://www.w3.org/Graphics/SVG/1.1/DTD/svg11.dtd">
<!-- Generated by graphviz version 2.43.0 (0)
 -->
<!-- Title: carta::CompressedFits::AddHeaderEntry Pages: 1 -->
<!--zoomable 390 -->
<svg id="main" version="1.1" xmlns="http://www.w3.org/2000/svg" xmlns:xlink="http://www.w3.org/1999/xlink" xml:space="preserve" onload="init(evt)">
<style type="text/css"><![CDATA[
.edge:hover path { stroke: red; }
.edge:hover polygon { stroke: red; fill: red; }
]]></style>
<script type="text/javascript"><![CDATA[
var edges = document.getElementsByTagName('g');
if (edges && edges.length) {
  for (var i=0;i<edges.length;i++) {
    if (edges[i].id.substr(0,4)=='edge') {
      edges[i].setAttribute('class','edge');
    }
  }
}
]]></script>
        <defs>
                <circle id="rim" cx="0" cy="0" r="7"/>
                <circle id="rim2" cx="0" cy="0" r="3.5"/>
                <g id="zoomPlus">
                        <use xlink:href="#rim" fill="#404040">
                                <set attributeName="fill" to="#808080" begin="zoomplus.mouseover" end="zoomplus.mouseout"/>
                        </use>
                        <path d="M-4,0h8M0,-4v8" fill="none" stroke="white" stroke-width="1.5" pointer-events="none"/>
                </g>
                <g id="zoomMin">
                        <use xlink:href="#rim" fill="#404040">
                                <set attributeName="fill" to="#808080" begin="zoomminus.mouseover" end="zoomminus.mouseout"/>
                        </use>
                        <path d="M-4,0h8" fill="none" stroke="white" stroke-width="1.5" pointer-events="none"/>
                </g>
                <g id="dirArrow">
                        <path fill="none" stroke="white" stroke-width="1.5" d="M0,-3.0v7 M-2.5,-0.5L0,-3.0L2.5,-0.5"/>
                </g>
               <g id="resetDef">
                       <use xlink:href="#rim2" fill="#404040">
                               <set attributeName="fill" to="#808080" begin="reset.mouseover" end="reset.mouseout"/>
                       </use>
               </g>
        </defs>

<script type="text/javascript">
var viewWidth = 1731;
var viewHeight = 390;
var sectionId = 'dynsection-2';
</script>
<script xlink:href="svgpan.js"/>
<svg id="graph" class="graph">
<g id="viewport">
<title>carta::CompressedFits::AddHeaderEntry</title>
<!-- Node1 -->
<g id="node1" class="node">
<title>Node1</title>
<g id="a_node1"><a xlink:title=" ">
<polygon fill="#bfbfbf" stroke="black" points="1598,-95.5 1598,-125.5 1723,-125.5 1723,-95.5 1598,-95.5"/>
<text text-anchor="start" x="1606" y="-113.5" font-family="Helvetica,sans-Serif" font-size="10.00">carta::CompressedFits</text>
<text text-anchor="middle" x="1660.5" y="-102.5" font-family="Helvetica,sans-Serif" font-size="10.00">::AddHeaderEntry</text>
</a>
</g>
</g>
<!-- Node2 -->
<g id="node2" class="node">
<title>Node2</title>
<g id="a_node2"><a xlink:href="classcarta_1_1CompressedFits.html#a94e623f08d835889943c9d7a2fcb7f76" target="_top" xlink:title=" ">
<polygon fill="none" stroke="black" points="1276,-117.5 1276,-147.5 1401,-147.5 1401,-117.5 1276,-117.5"/>
<text text-anchor="start" x="1284" y="-135.5" font-family="Helvetica,sans-Serif" font-size="10.00">carta::CompressedFits</text>
<text text-anchor="middle" x="1338.5" y="-124.5" font-family="Helvetica,sans-Serif" font-size="10.00">::GetFitsHeaderInfo</text>
</a>
</g>
</g>
<!-- Node1&#45;&gt;Node2 -->
<g id="edge1" class="edge">
<title>Node1&#45;&gt;Node2</title>
<path fill="none" stroke="midnightblue" d="M1587.57,-115.44C1531.44,-119.3 1454.3,-124.61 1401.01,-128.27"/>
<polygon fill="midnightblue" stroke="midnightblue" points="1588.06,-118.92 1597.8,-114.74 1587.58,-111.94 1588.06,-118.92"/>
</g>
<!-- Node17 -->
<g id="node17" class="node">
<title>Node17</title>
<g id="a_node17"><a xlink:href="classcarta_1_1CompressedFits.html#a3f351f377123ea8f6041f78ef57f4d55" target="_top" xlink:title=" ">
<polygon fill="none" stroke="black" points="1437,-73.5 1437,-103.5 1562,-103.5 1562,-73.5 1437,-73.5"/>
<text text-anchor="start" x="1445" y="-91.5" font-family="Helvetica,sans-Serif" font-size="10.00">carta::CompressedFits</text>
<text text-anchor="middle" x="1499.5" y="-80.5" font-family="Helvetica,sans-Serif" font-size="10.00">::IsImageHdu</text>
</a>
</g>
</g>
<!-- Node1&#45;&gt;Node17 -->
<g id="edge22" class="edge">
<title>Node1&#45;&gt;Node17</title>
<path fill="none" stroke="midnightblue" d="M1587.41,-100.53C1579.01,-99.36 1570.5,-98.19 1562.26,-97.05"/>
<polygon fill="midnightblue" stroke="midnightblue" points="1587.19,-104.03 1597.57,-101.93 1588.15,-97.09 1587.19,-104.03"/>
</g>
<!-- Node3 -->
<g id="node3" class="node">
<title>Node3</title>
<g id="a_node3"><a xlink:href="classcarta_1_1FileExtInfoLoader.html#a06c36c25d3286c3019c1bbdcabdd9f63" target="_top" xlink:title=" ">
<polygon fill="none" stroke="black" points="1098.5,-117.5 1098.5,-147.5 1230.5,-147.5 1230.5,-117.5 1098.5,-117.5"/>
<text text-anchor="start" x="1106.5" y="-135.5" font-family="Helvetica,sans-Serif" font-size="10.00">carta::FileExtInfoLoader</text>
<text text-anchor="middle" x="1164.5" y="-124.5" font-family="Helvetica,sans-Serif" font-size="10.00">::FillFitsFileInfoMap</text>
</a>
</g>
</g>
<!-- Node2&#45;&gt;Node3 -->
<g id="edge2" class="edge">
<title>Node2&#45;&gt;Node3</title>
<path fill="none" stroke="midnightblue" d="M1265.79,-132.5C1254.18,-132.5 1242.2,-132.5 1230.75,-132.5"/>
<polygon fill="midnightblue" stroke="midnightblue" points="1265.89,-136 1275.89,-132.5 1265.89,-129 1265.89,-136"/>
</g>
<!-- Node4 -->
<g id="node4" class="node">
<title>Node4</title>
<g id="a_node4"><a xlink:href="classcarta_1_1Session.html#a3dc8e818765159809dfb28472a3c95a6" target="_top" xlink:title=" ">
<polygon fill="none" stroke="black" points="902,-117.5 902,-147.5 1053,-147.5 1053,-117.5 902,-117.5"/>
<text text-anchor="start" x="910" y="-135.5" font-family="Helvetica,sans-Serif" font-size="10.00">carta::Session::FillExtended</text>
<text text-anchor="middle" x="977.5" y="-124.5" font-family="Helvetica,sans-Serif" font-size="10.00">FileInfo</text>
</a>
</g>
</g>
<!-- Node3&#45;&gt;Node4 -->
<g id="edge3" class="edge">
<title>Node3&#45;&gt;Node4</title>
<path fill="none" stroke="midnightblue" d="M1088.24,-132.5C1076.7,-132.5 1064.78,-132.5 1053.24,-132.5"/>
<polygon fill="midnightblue" stroke="midnightblue" points="1088.28,-136 1098.28,-132.5 1088.28,-129 1088.28,-136"/>
</g>
<!-- Node5 -->
<g id="node5" class="node">
<title>Node5</title>
<g id="a_node5"><a xlink:href="classcarta_1_1Session.html#a8874927da900745afae4a0d975ed0453" target="_top" xlink:title=" ">
<polygon fill="none" stroke="black" points="330,-351.5 330,-381.5 470,-381.5 470,-351.5 330,-351.5"/>
<text text-anchor="start" x="338" y="-369.5" font-family="Helvetica,sans-Serif" font-size="10.00">carta::Session::OnFileInfo</text>
<text text-anchor="middle" x="400" y="-358.5" font-family="Helvetica,sans-Serif" font-size="10.00">Request</text>
</a>
</g>
</g>
<!-- Node4&#45;&gt;Node5 -->
<g id="edge4" class="edge">
<title>Node4&#45;&gt;Node5</title>
<path fill="none" stroke="midnightblue" d="M951.2,-154.37C900.58,-196.77 781.55,-289.73 664,-332.5 600.94,-355.44 524.44,-363.28 470.24,-365.78"/>
<polygon fill="midnightblue" stroke="midnightblue" points="953.63,-156.9 959.01,-147.77 949.11,-151.55 953.63,-156.9"/>
</g>
<!-- Node8 -->
<g id="node8" class="node">
<title>Node8</title>
<g id="a_node8"><a xlink:href="classcarta_1_1Session.html#a54c5dc766deb62f608792ce551a1b885" target="_top" xlink:title=" ">
<polygon fill="none" stroke="black" points="709.5,-156 709.5,-175 856.5,-175 856.5,-156 709.5,-156"/>
<text text-anchor="middle" x="783" y="-163" font-family="Helvetica,sans-Serif" font-size="10.00">carta::Session::OnOpenFile</text>
</a>
</g>
</g>
<!-- Node4&#45;&gt;Node8 -->
<g id="edge7" class="edge">
<title>Node4&#45;&gt;Node8</title>
<path fill="none" stroke="midnightblue" d="M891.51,-147.07C873.9,-150.09 855.78,-153.19 839.56,-155.98"/>
<polygon fill="midnightblue" stroke="midnightblue" points="892.53,-150.45 901.8,-145.31 891.35,-143.55 892.53,-150.45"/>
</g>
<!-- Node13 -->
<g id="node13" class="node">
<title>Node13</title>
<g id="a_node13"><a xlink:href="classcarta_1_1Session.html#a07bfe19708d3e272d01fef6f18712aa2" target="_top" xlink:title=" ">
<polygon fill="none" stroke="black" points="508,-50 508,-69 664,-69 664,-50 508,-50"/>
<text text-anchor="middle" x="586" y="-57" font-family="Helvetica,sans-Serif" font-size="10.00">carta::Session::OnPvRequest</text>
</a>
</g>
</g>
<!-- Node4&#45;&gt;Node13 -->
<g id="edge19" class="edge">
<title>Node4&#45;&gt;Node13</title>
<path fill="none" stroke="midnightblue" d="M891.64,-116.6C814.18,-102.08 702.23,-81.1 637.82,-69.02"/>
<polygon fill="midnightblue" stroke="midnightblue" points="891.39,-120.11 901.86,-118.51 892.68,-113.23 891.39,-120.11"/>
</g>
<!-- Node15 -->
<g id="node15" class="node">
<title>Node15</title>
<g id="a_node15"><a xlink:href="classcarta_1_1Session.html#af8a5cb91e4f627673631d7648bbaed75" target="_top" xlink:title=" ">
<polygon fill="none" stroke="black" points="700,-41 700,-60 866,-60 866,-41 700,-41"/>
<text text-anchor="middle" x="783" y="-48" font-family="Helvetica,sans-Serif" font-size="10.00">carta::Session::SendPvPreview</text>
</a>
</g>
</g>
<!-- Node4&#45;&gt;Node15 -->
<g id="edge20" class="edge">
<title>Node4&#45;&gt;Node15</title>
<path fill="none" stroke="midnightblue" d="M939.87,-112.61C918.64,-101.5 891.21,-87.86 866,-77.5 850.06,-70.95 831.89,-64.83 816.72,-60.09"/>
<polygon fill="midnightblue" stroke="midnightblue" points="938.38,-115.78 948.86,-117.35 941.65,-109.59 938.38,-115.78"/>
</g>
<!-- Node6 -->
<g id="node6" class="node">
<title>Node6</title>
<g id="a_node6"><a xlink:href="classcarta_1_1SessionManager.html#a474c31666cb3b22fcbe8af5f945d2950" target="_top" xlink:title=" ">
<polygon fill="none" stroke="black" points="164,-266.5 164,-296.5 292,-296.5 292,-266.5 164,-266.5"/>
<text text-anchor="start" x="172" y="-284.5" font-family="Helvetica,sans-Serif" font-size="10.00">carta::SessionManager</text>
<text text-anchor="middle" x="228" y="-273.5" font-family="Helvetica,sans-Serif" font-size="10.00">::OnMessage</text>
</a>
</g>
</g>
<!-- Node5&#45;&gt;Node6 -->
<g id="edge5" class="edge">
<title>Node5&#45;&gt;Node6</title>
<path fill="none" stroke="midnightblue" d="M351.8,-347.39C343.79,-343.91 335.61,-340.21 328,-336.5 302.37,-324.01 274.01,-308.02 254.24,-296.51"/>
<polygon fill="midnightblue" stroke="midnightblue" points="350.51,-350.65 361.08,-351.36 353.26,-344.21 350.51,-350.65"/>
</g>
<!-- Node7 -->
<g id="node7" class="node">
<title>Node7</title>
<g id="a_node7"><a xlink:href="classcarta_1_1SessionManager.html#ab4e4e7f0244bd6843e70ab91652debf6" target="_top" xlink:title=" ">
<polygon fill="none" stroke="black" points="0,-266.5 0,-296.5 128,-296.5 128,-266.5 0,-266.5"/>
<text text-anchor="start" x="8" y="-284.5" font-family="Helvetica,sans-Serif" font-size="10.00">carta::SessionManager</text>
<text text-anchor="middle" x="64" y="-273.5" font-family="Helvetica,sans-Serif" font-size="10.00">::RunApp</text>
</a>
</g>
</g>
<!-- Node6&#45;&gt;Node7 -->
<g id="edge6" class="edge">
<title>Node6&#45;&gt;Node7</title>
<path fill="none" stroke="midnightblue" d="M153.63,-281.5C145.14,-281.5 136.53,-281.5 128.19,-281.5"/>
<polygon fill="midnightblue" stroke="midnightblue" points="153.9,-285 163.9,-281.5 153.9,-278 153.9,-285"/>
</g>
<!-- Node8&#45;&gt;Node6 -->
<g id="edge13" class="edge">
<title>Node8&#45;&gt;Node6</title>
<path fill="none" stroke="midnightblue" d="M772.76,-184.45C756.11,-216.11 717.74,-278.75 664,-303.5 532.48,-364.09 354.31,-321.72 272.88,-296.52"/>
<polygon fill="midnightblue" stroke="midnightblue" points="775.97,-185.84 777.39,-175.34 769.74,-182.67 775.97,-185.84"/>
</g>
<!-- Node9 -->
<g id="node9" class="node">
<title>Node9</title>
<g id="a_node9"><a xlink:href="classcarta_1_1Session.html#aed12d0369de4c3391dba300cb77e9241" target="_top" xlink:title=" ">
<polygon fill="none" stroke="black" points="517,-263.5 517,-293.5 655,-293.5 655,-263.5 517,-263.5"/>
<text text-anchor="start" x="525" y="-281.5" font-family="Helvetica,sans-Serif" font-size="10.00">carta::Session::OnConcat</text>
<text text-anchor="middle" x="586" y="-270.5" font-family="Helvetica,sans-Serif" font-size="10.00">StokesFiles</text>
</a>
</g>
</g>
<!-- Node8&#45;&gt;Node9 -->
<g id="edge8" class="edge">
<title>Node8&#45;&gt;Node9</title>
<path fill="none" stroke="midnightblue" d="M762.38,-181.55C739.71,-199.54 700.8,-228.77 664,-248.5 653.63,-254.06 642.01,-259.14 630.99,-263.47"/>
<polygon fill="midnightblue" stroke="midnightblue" points="764.62,-184.23 770.23,-175.25 760.24,-178.77 764.62,-184.23"/>
</g>
<!-- Node10 -->
<g id="node10" class="node">
<title>Node10</title>
<g id="a_node10"><a xlink:href="classcarta_1_1Session.html#afe5c090c017ef208f638b96a7eb1ecf0" target="_top" xlink:title=" ">
<polygon fill="none" stroke="black" points="328,-222.5 328,-252.5 472,-252.5 472,-222.5 328,-222.5"/>
<text text-anchor="start" x="336" y="-240.5" font-family="Helvetica,sans-Serif" font-size="10.00">carta::Session::OnResume</text>
<text text-anchor="middle" x="400" y="-229.5" font-family="Helvetica,sans-Serif" font-size="10.00">Session</text>
</a>
</g>
</g>
<!-- Node8&#45;&gt;Node10 -->
<g id="edge18" class="edge">
<title>Node8&#45;&gt;Node10</title>
<path fill="none" stroke="midnightblue" d="M755.27,-179.73C731.89,-191.46 696.65,-207.44 664,-215.5 600.28,-231.24 525.52,-236.25 472.03,-237.61"/>
<polygon fill="midnightblue" stroke="midnightblue" points="756.91,-182.82 764.22,-175.15 753.73,-176.59 756.91,-182.82"/>
</g>
<!-- Node11 -->
<g id="node11" class="node">
<title>Node11</title>
<g id="a_node11"><a xlink:href="classcarta_1_1Session.html#a5589e4dca9e6a51055f15da1d9ac1b3c" target="_top" xlink:title=" ">
<polygon fill="none" stroke="black" points="518.5,-175.5 518.5,-205.5 653.5,-205.5 653.5,-175.5 518.5,-175.5"/>
<text text-anchor="start" x="526.5" y="-193.5" font-family="Helvetica,sans-Serif" font-size="10.00">carta::Session::OnFitting</text>
<text text-anchor="middle" x="586" y="-182.5" font-family="Helvetica,sans-Serif" font-size="10.00">Request</text>
</a>
</g>
</g>
<!-- Node8&#45;&gt;Node11 -->
<g id="edge12" class="edge">
<title>Node8&#45;&gt;Node11</title>
<path fill="none" stroke="midnightblue" d="M699.42,-176.09C684.11,-178.05 668.3,-180.08 653.55,-181.97"/>
<polygon fill="midnightblue" stroke="midnightblue" points="699.92,-179.55 709.39,-174.81 699.03,-172.61 699.92,-179.55"/>
</g>
<!-- Node12 -->
<g id="node12" class="node">
<title>Node12</title>
<g id="a_node12"><a xlink:href="classcarta_1_1Session.html#a8fe2527b0a83c67240ef4a31a86e4978" target="_top" xlink:title=" ">
<polygon fill="none" stroke="black" points="513.5,-126.5 513.5,-156.5 658.5,-156.5 658.5,-126.5 513.5,-126.5"/>
<text text-anchor="start" x="521.5" y="-144.5" font-family="Helvetica,sans-Serif" font-size="10.00">carta::Session::OnMoment</text>
<text text-anchor="middle" x="586" y="-133.5" font-family="Helvetica,sans-Serif" font-size="10.00">Request</text>
</a>
</g>
</g>
<!-- Node8&#45;&gt;Node12 -->
<g id="edge14" class="edge">
<title>Node8&#45;&gt;Node12</title>
<path fill="none" stroke="midnightblue" d="M699.18,-155.31C685.72,-153.65 671.87,-151.95 658.7,-150.32"/>
<polygon fill="midnightblue" stroke="midnightblue" points="699.04,-158.82 709.39,-156.56 699.89,-151.87 699.04,-158.82"/>
</g>
<!-- Node8&#45;&gt;Node13 -->
<g id="edge15" class="edge">
<title>Node8&#45;&gt;Node13</title>
<path fill="none" stroke="midnightblue" d="M761.19,-149.88C733,-128.94 683.9,-93.23 664,-83.5 652.05,-77.66 638.36,-72.85 625.88,-69.11"/>
<polygon fill="midnightblue" stroke="midnightblue" points="759.1,-152.7 769.21,-155.87 763.29,-147.08 759.1,-152.7"/>
</g>
<!-- Node14 -->
<g id="node14" class="node">
<title>Node14</title>
<g id="a_node14"><a xlink:href="classcarta_1_1Session.html#a45b9623e5dd0c0d54307ab148e8745aa" target="_top" xlink:title=" ">
<polygon fill="none" stroke="black" points="328.5,-129.5 328.5,-159.5 471.5,-159.5 471.5,-129.5 328.5,-129.5"/>
<text text-anchor="start" x="336.5" y="-147.5" font-family="Helvetica,sans-Serif" font-size="10.00">carta::Session::OnRemote</text>
<text text-anchor="middle" x="400" y="-136.5" font-family="Helvetica,sans-Serif" font-size="10.00">FileRequest</text>
</a>
</g>
</g>
<!-- Node8&#45;&gt;Node14 -->
<g id="edge16" class="edge">
<title>Node8&#45;&gt;Node14</title>
<path fill="none" stroke="midnightblue" d="M755.76,-151.38C732.43,-139.68 697,-123.96 664,-117.5 595.96,-104.19 576.8,-108.95 508,-117.5 488.7,-119.9 467.89,-124.64 449.79,-129.49"/>
<polygon fill="midnightblue" stroke="midnightblue" points="754.18,-154.5 764.67,-155.95 757.37,-148.27 754.18,-154.5"/>
</g>
<!-- Node9&#45;&gt;Node6 -->
<g id="edge9" class="edge">
<title>Node9&#45;&gt;Node6</title>
<path fill="none" stroke="midnightblue" d="M506.67,-279.16C442.24,-279.7 352.11,-280.46 292.21,-280.97"/>
<polygon fill="midnightblue" stroke="midnightblue" points="506.81,-282.66 516.78,-279.07 506.75,-275.66 506.81,-282.66"/>
</g>
<!-- Node9&#45;&gt;Node10 -->
<g id="edge10" class="edge">
<title>Node9&#45;&gt;Node10</title>
<path fill="none" stroke="midnightblue" d="M507.67,-261.27C494.64,-258.37 481.21,-255.37 468.46,-252.53"/>
<polygon fill="midnightblue" stroke="midnightblue" points="507.01,-264.71 517.53,-263.47 508.53,-257.87 507.01,-264.71"/>
</g>
<!-- Node10&#45;&gt;Node6 -->
<g id="edge11" class="edge">
<title>Node10&#45;&gt;Node6</title>
<path fill="none" stroke="midnightblue" d="M331.02,-255.09C316.46,-258.86 301.2,-262.81 287.06,-266.47"/>
<polygon fill="midnightblue" stroke="midnightblue" points="332.17,-258.41 340.97,-252.52 330.41,-251.64 332.17,-258.41"/>
</g>
<!-- Node14&#45;&gt;Node6 -->
<g id="edge17" class="edge">
<title>Node14&#45;&gt;Node6</title>
<path fill="none" stroke="midnightblue" d="M372.32,-166C337.63,-193.96 277.89,-242.1 247.67,-266.46"/>
<polygon fill="midnightblue" stroke="midnightblue" points="374.57,-168.68 380.16,-159.68 370.17,-163.23 374.57,-168.68"/>
</g>
<!-- Node16 -->
<g id="node16" class="node">
<title>Node16</title>
<g id="a_node16"><a xlink:href="classcarta_1_1PvPreviewUpdateTask.html#ad8fc7c242731d4bae2e2928f0cdf613a" target="_top" xlink:title=" ">
<polygon fill="none" stroke="black" points="508.5,-0.5 508.5,-30.5 663.5,-30.5 663.5,-0.5 508.5,-0.5"/>
<text text-anchor="start" x="516.5" y="-18.5" font-family="Helvetica,sans-Serif" font-size="10.00">carta::PvPreviewUpdateTask</text>
<text text-anchor="middle" x="586" y="-7.5" font-family="Helvetica,sans-Serif" font-size="10.00">::execute</text>
</a>
</g>
</g>
<!-- Node15&#45;&gt;Node16 -->
<g id="edge21" class="edge">
<title>Node15&#45;&gt;Node16</title>
<path fill="none" stroke="midnightblue" d="M718.85,-39.17C701.3,-36.02 682.04,-32.56 663.8,-29.28"/>
<polygon fill="midnightblue" stroke="midnightblue" points="718.51,-42.66 728.97,-40.98 719.75,-35.77 718.51,-42.66"/>
</g>
<!-- Node17&#45;&gt;Node2 -->
<g id="edge25" class="edge">
<title>Node17&#45;&gt;Node2</title>
<path fill="none" stroke="midnightblue" d="M1434.53,-106.2C1421.03,-109.94 1406.9,-113.85 1393.8,-117.47"/>
<polygon fill="midnightblue" stroke="midnightblue" points="1435.52,-109.56 1444.23,-103.52 1433.65,-102.81 1435.52,-109.56"/>
</g>
<!-- Node18 -->
<g id="node18" class="node">
<title>Node18</title>
<g id="a_node18"><a xlink:href="classcarta_1_1CompressedFits.html#a265e6e3df28f138336939ae3f4c09e2a" target="_top" xlink:title=" ">
<polygon fill="none" stroke="black" points="1276,-68.5 1276,-98.5 1401,-98.5 1401,-68.5 1276,-68.5"/>
<text text-anchor="start" x="1284" y="-86.5" font-family="Helvetica,sans-Serif" font-size="10.00">carta::CompressedFits</text>
<text text-anchor="middle" x="1338.5" y="-75.5" font-family="Helvetica,sans-Serif" font-size="10.00">::GetFirstImageHdu</text>
</a>
</g>
</g>
<!-- Node17&#45;&gt;Node18 -->
<g id="edge23" class="edge">
<title>Node17&#45;&gt;Node18</title>
<path fill="none" stroke="midnightblue" d="M1426.41,-86.23C1418.01,-85.97 1409.5,-85.7 1401.26,-85.44"/>
<polygon fill="midnightblue" stroke="midnightblue" points="1426.47,-89.74 1436.57,-86.55 1426.69,-82.74 1426.47,-89.74"/>
</g>
<!-- Node19 -->
<g id="node19" class="node">
<title>Node19</title>
<g id="a_node19"><a xlink:href="classcarta_1_1Session.html#a69d1ec0dfd2c518a8b4cdf56fa57b0b0" target="_top" xlink:title=" ">
<polygon fill="none" stroke="black" points="1089,-68.5 1089,-98.5 1240,-98.5 1240,-68.5 1089,-68.5"/>
<text text-anchor="start" x="1097" y="-86.5" font-family="Helvetica,sans-Serif" font-size="10.00">carta::Session::FillExtended</text>
<text text-anchor="middle" x="1164.5" y="-75.5" font-family="Helvetica,sans-Serif" font-size="10.00">FileInfo</text>
</a>
</g>
</g>
<!-- Node18&#45;&gt;Node19 -->
<g id="edge24" class="edge">
<title>Node18&#45;&gt;Node19</title>
<path fill="none" stroke="midnightblue" d="M1265.72,-83.5C1257.29,-83.5 1248.67,-83.5 1240.2,-83.5"/>
<polygon fill="midnightblue" stroke="midnightblue" points="1265.89,-87 1275.89,-83.5 1265.89,-80 1265.89,-87"/>
</g>
</g>
</svg>
        <g id="navigator" transform="translate(0 0)" fill="#404254">
                <rect fill="#f2f5e9" fill-opacity="0.5" stroke="#606060" stroke-width=".5" x="0" y="0" width="60" height="60"/>
                <use id="zoomplus" xlink:href="#zoomPlus" x="17" y="9" onmousedown="handleZoom(evt,'in')"/>
                <use id="zoomminus" xlink:href="#zoomMin" x="42" y="9" onmousedown="handleZoom(evt,'out')"/>
                <use id="reset" xlink:href="#resetDef" x="30" y="36" onmousedown="handleReset()"/>
                <g id="arrowUp" xlink:href="#dirArrow" transform="translate(30 24)" onmousedown="handlePan(0,-1)">
                  <use xlink:href="#rim" fill="#404040">
                        <set attributeName="fill" to="#808080" begin="arrowUp.mouseover" end="arrowUp.mouseout"/>
                  </use>
                  <path fill="none" stroke="white" stroke-width="1.5" d="M0,-3.0v7 M-2.5,-0.5L0,-3.0L2.5,-0.5"/>
                </g>
                <g id="arrowRight" xlink:href="#dirArrow" transform="rotate(90) translate(36 -43)" onmousedown="handlePan(1,0)">
                  <use xlink:href="#rim" fill="#404040">
                        <set attributeName="fill" to="#808080" begin="arrowRight.mouseover" end="arrowRight.mouseout"/>
                  </use>
                  <path fill="none" stroke="white" stroke-width="1.5" d="M0,-3.0v7 M-2.5,-0.5L0,-3.0L2.5,-0.5"/>
                </g>
                <g id="arrowDown" xlink:href="#dirArrow" transform="rotate(180) translate(-30 -48)" onmousedown="handlePan(0,1)">
                  <use xlink:href="#rim" fill="#404040">
                        <set attributeName="fill" to="#808080" begin="arrowDown.mouseover" end="arrowDown.mouseout"/>
                  </use>
                  <path fill="none" stroke="white" stroke-width="1.5" d="M0,-3.0v7 M-2.5,-0.5L0,-3.0L2.5,-0.5"/>
                </g>
                <g id="arrowLeft" xlink:href="#dirArrow" transform="rotate(270) translate(-36 17)" onmousedown="handlePan(-1,0)">
                  <use xlink:href="#rim" fill="#404040">
                        <set attributeName="fill" to="#808080" begin="arrowLeft.mouseover" end="arrowLeft.mouseout"/>
                  </use>
                  <path fill="none" stroke="white" stroke-width="1.5" d="M0,-3.0v7 M-2.5,-0.5L0,-3.0L2.5,-0.5"/>
                </g>
        </g>
        <svg viewBox="0 0 15 15" width="100%" height="30px" preserveAspectRatio="xMaxYMin meet">
         <g id="arrow_out" transform="scale(0.3 0.3)">
          <a xlink:href="classcarta_1_1CompressedFits_a90e27790d73c48808973a18ac42a5d9a_icgraph_org.svg" target="_base">
           <rect id="button" ry="5" rx="5" y="6" x="6" height="38" width="38"
                fill="#f2f5e9" fill-opacity="0.5" stroke="#606060" stroke-width="1.0"/>
           <path id="arrow"
             d="M 11.500037,31.436501 C 11.940474,20.09759 22.043105,11.32322 32.158766,21.979434 L 37.068811,17.246167 C 37.068811,17.246167 37.088388,32 37.088388,32 L 22.160133,31.978069 C 22.160133,31.978069 26.997745,27.140456 26.997745,27.140456 C 18.528582,18.264221 13.291696,25.230495 11.500037,31.436501 z"
             style="fill:#404040;"/>
          </a>
         </g>
        </svg>
</svg>
