<?xml version="1.0" encoding="UTF-8" standalone="no"?>
<!DOCTYPE svg PUBLIC "-//W3C//DTD SVG 1.1//EN"
 "http://www.w3.org/Graphics/SVG/1.1/DTD/svg11.dtd">
<!-- Generated by graphviz version 2.43.0 (0)
 -->
<!-- Title: carta::Ds9ImportExport::ImportEllipseRegion Pages: 1 -->
<svg width="334pt" height="225pt"
 viewBox="0.00 0.00 334.00 225.00" xmlns="http://www.w3.org/2000/svg" xmlns:xlink="http://www.w3.org/1999/xlink">
<g id="graph0" class="graph" transform="scale(1 1) rotate(0) translate(4 221)">
<title>carta::Ds9ImportExport::ImportEllipseRegion</title>
<!-- Node1 -->
<g id="node1" class="node">
<title>Node1</title>
<g id="a_node1"><a xlink:title=" ">
<polygon fill="#bfbfbf" stroke="black" points="0,-88.5 0,-118.5 130,-118.5 130,-88.5 0,-88.5"/>
<text text-anchor="start" x="8" y="-106.5" font-family="Helvetica,sans-Serif" font-size="10.00">carta::Ds9ImportExport</text>
<text text-anchor="middle" x="65" y="-95.5" font-family="Helvetica,sans-Serif" font-size="10.00">::ImportEllipseRegion</text>
</a>
</g>
</g>
<!-- Node2 -->
<g id="node2" class="node">
<title>Node2</title>
<g id="a_node2"><a xlink:href="classcarta_1_1Ds9ImportExport.html#a4a98d6ed0d10b49582df9c3cf885a25c" target="_top" xlink:title=" ">
<polygon fill="none" stroke="black" points="166,-186.5 166,-216.5 326,-216.5 326,-186.5 166,-186.5"/>
<text text-anchor="start" x="174" y="-204.5" font-family="Helvetica,sans-Serif" font-size="10.00">carta::Ds9ImportExport</text>
<text text-anchor="middle" x="246" y="-193.5" font-family="Helvetica,sans-Serif" font-size="10.00">::CheckAndConvertParameter</text>
</a>
</g>
</g>
<!-- Node1&#45;&gt;Node2 -->
<g id="edge1" class="edge">
<title>Node1&#45;&gt;Node2</title>
<path fill="none" stroke="midnightblue" d="M82.51,-118.53C101.43,-135.06 133.97,-161.39 166,-177.5 169.75,-179.38 173.67,-181.15 177.67,-182.8"/>
<polygon fill="midnightblue" stroke="midnightblue" points="176.55,-186.12 187.14,-186.45 179.07,-179.59 176.55,-186.12"/>
</g>
<!-- Node3 -->
<g id="node3" class="node">
<title>Node3</title>
<g id="a_node3"><a xlink:href="classcarta_1_1RegionImportExport.html#a4dbf1bb6405ba5cbc0dea6803c3d2eef" target="_top" xlink:title=" ">
<polygon fill="none" stroke="black" points="173.5,-137.5 173.5,-167.5 318.5,-167.5 318.5,-137.5 173.5,-137.5"/>
<text text-anchor="start" x="181.5" y="-155.5" font-family="Helvetica,sans-Serif" font-size="10.00">carta::RegionImportExport</text>
<text text-anchor="middle" x="246" y="-144.5" font-family="Helvetica,sans-Serif" font-size="10.00">::ConvertPointToPixels</text>
</a>
</g>
</g>
<!-- Node1&#45;&gt;Node3 -->
<g id="edge2" class="edge">
<title>Node1&#45;&gt;Node3</title>
<path fill="none" stroke="midnightblue" d="M121.17,-118.6C139.88,-123.73 160.96,-129.5 180.35,-134.8"/>
<polygon fill="midnightblue" stroke="midnightblue" points="179.45,-138.18 190.02,-137.45 181.29,-131.43 179.45,-138.18"/>
</g>
<!-- Node4 -->
<g id="node4" class="node">
<title>Node4</title>
<g id="a_node4"><a xlink:href="classcarta_1_1Ds9ImportExport.html#a6a6e823ab33b1fc63fcd8748e97603e0" target="_top" xlink:title=" ">
<polygon fill="none" stroke="black" points="171,-88.5 171,-118.5 321,-118.5 321,-88.5 171,-88.5"/>
<text text-anchor="start" x="179" y="-106.5" font-family="Helvetica,sans-Serif" font-size="10.00">carta::Ds9ImportExport</text>
<text text-anchor="middle" x="246" y="-95.5" font-family="Helvetica,sans-Serif" font-size="10.00">::ConvertTimeFormatToDeg</text>
</a>
</g>
</g>
<!-- Node1&#45;&gt;Node4 -->
<g id="edge3" class="edge">
<title>Node1&#45;&gt;Node4</title>
<path fill="none" stroke="midnightblue" d="M130.12,-103.5C140.05,-103.5 150.43,-103.5 160.73,-103.5"/>
<polygon fill="midnightblue" stroke="midnightblue" points="160.97,-107 170.97,-103.5 160.97,-100 160.97,-107"/>
</g>
<!-- Node5 -->
<g id="node5" class="node">
<title>Node5</title>
<g id="a_node5"><a xlink:href="classMessage.html#a0c0bb5e50ad8b90bade291ab17a18cf5" target="_top" xlink:title=" ">
<polygon fill="none" stroke="black" points="200.5,-50 200.5,-69 291.5,-69 291.5,-50 200.5,-50"/>
<text text-anchor="middle" x="246" y="-57" font-family="Helvetica,sans-Serif" font-size="10.00">Message::Point</text>
</a>
</g>
</g>
<!-- Node1&#45;&gt;Node5 -->
<g id="edge4" class="edge">
<title>Node1&#45;&gt;Node5</title>
<path fill="none" stroke="midnightblue" d="M127.1,-88.48C149.75,-82.91 175.1,-76.68 196.47,-71.43"/>
<polygon fill="midnightblue" stroke="midnightblue" points="197.43,-74.8 206.3,-69.01 195.76,-68 197.43,-74.8"/>
</g>
<!-- Node6 -->
<g id="node6" class="node">
<title>Node6</title>
<g id="a_node6"><a xlink:href="classcarta_1_1RegionImportExport.html#a316dd4dbbc4907464ac3ed89c6b41cf5" target="_top" xlink:title=" ">
<polygon fill="none" stroke="black" points="173.5,-0.5 173.5,-30.5 318.5,-30.5 318.5,-0.5 173.5,-0.5"/>
<text text-anchor="start" x="181.5" y="-18.5" font-family="Helvetica,sans-Serif" font-size="10.00">carta::RegionImportExport</text>
<text text-anchor="middle" x="246" y="-7.5" font-family="Helvetica,sans-Serif" font-size="10.00">::WorldToPixelLength</text>
</a>
</g>
</g>
<!-- Node1&#45;&gt;Node6 -->
<g id="edge5" class="edge">
<title>Node1&#45;&gt;Node6</title>
<path fill="none" stroke="midnightblue" d="M86.56,-88.34C106.18,-74.42 136.96,-53.97 166,-40.5 170.89,-38.23 176.05,-36.09 181.28,-34.09"/>
<polygon fill="midnightblue" stroke="midnightblue" points="182.56,-37.35 190.75,-30.64 180.16,-30.77 182.56,-37.35"/>
</g>
</g>
</svg>
