<?xml version="1.0" encoding="UTF-8" standalone="no"?>
<!DOCTYPE svg PUBLIC "-//W3C//DTD SVG 1.1//EN"
 "http://www.w3.org/Graphics/SVG/1.1/DTD/svg11.dtd">
<!-- Generated by graphviz version 2.43.0 (0)
 -->
<!-- Title: carta::Histogram::Histogram Pages: 1 -->
<svg width="503pt" height="78pt"
 viewBox="0.00 0.00 503.00 77.50" xmlns="http://www.w3.org/2000/svg" xmlns:xlink="http://www.w3.org/1999/xlink">
<g id="graph0" class="graph" transform="scale(1 1) rotate(0) translate(4 73.5)">
<title>carta::Histogram::Histogram</title>
<!-- Node1 -->
<g id="node1" class="node">
<title>Node1</title>
<g id="a_node1"><a xlink:title=" ">
<polygon fill="#bfbfbf" stroke="black" points="0,-22.5 0,-41.5 155,-41.5 155,-22.5 0,-22.5"/>
<text text-anchor="middle" x="77.5" y="-29.5" font-family="Helvetica,sans-Serif" font-size="10.00">carta::Histogram::Histogram</text>
</a>
</g>
</g>
<!-- Node2 -->
<g id="node2" class="node">
<title>Node2</title>
<g id="a_node2"><a xlink:href="classcarta_1_1Histogram.html#a79ff84c6442889f8b5f209714388ceed" target="_top" xlink:title=" ">
<polygon fill="none" stroke="black" points="191,-22.5 191,-41.5 310,-41.5 310,-22.5 191,-22.5"/>
<text text-anchor="middle" x="250.5" y="-29.5" font-family="Helvetica,sans-Serif" font-size="10.00">carta::Histogram::Fill</text>
</a>
</g>
</g>
<!-- Node1&#45;&gt;Node2 -->
<g id="edge1" class="edge">
<title>Node1&#45;&gt;Node2</title>
<path fill="none" stroke="midnightblue" d="M155.5,-32C163.94,-32 172.5,-32 180.83,-32"/>
<polygon fill="midnightblue" stroke="midnightblue" points="180.87,-35.5 190.87,-32 180.87,-28.5 180.87,-35.5"/>
</g>
<!-- Node3 -->
<g id="node3" class="node">
<title>Node3</title>
<g id="a_node3"><a xlink:href="classcarta_1_1ThreadManager.html#a82cbb5d8370c091ac96c24d0fc4984dc" target="_top" xlink:title=" ">
<polygon fill="none" stroke="black" points="358.5,-39 358.5,-69 482.5,-69 482.5,-39 358.5,-39"/>
<text text-anchor="start" x="366.5" y="-57" font-family="Helvetica,sans-Serif" font-size="10.00">carta::ThreadManager</text>
<text text-anchor="middle" x="420.5" y="-46" font-family="Helvetica,sans-Serif" font-size="10.00">::ApplyThreadLimit</text>
</a>
</g>
</g>
<!-- Node2&#45;&gt;Node3 -->
<g id="edge2" class="edge">
<title>Node2&#45;&gt;Node3</title>
<path fill="none" stroke="midnightblue" d="M310.26,-39.69C322.58,-41.31 335.7,-43.03 348.41,-44.69"/>
<polygon fill="midnightblue" stroke="midnightblue" points="348.13,-48.18 358.5,-46.01 349.03,-41.24 348.13,-48.18"/>
</g>
<!-- Node4 -->
<g id="node4" class="node">
<title>Node4</title>
<g id="a_node4"><a xlink:href="classcarta_1_1Histogram.html#a70adaf5681547ca8d7aa22550bfb3206" target="_top" xlink:title=" ">
<polygon fill="none" stroke="black" points="346,-0.5 346,-19.5 495,-19.5 495,-0.5 346,-0.5"/>
<text text-anchor="middle" x="420.5" y="-7.5" font-family="Helvetica,sans-Serif" font-size="10.00">carta::Histogram::GetNbins</text>
</a>
</g>
</g>
<!-- Node2&#45;&gt;Node4 -->
<g id="edge3" class="edge">
<title>Node2&#45;&gt;Node4</title>
<path fill="none" stroke="midnightblue" d="M310.26,-24.31C318.85,-23.18 327.83,-22 336.8,-20.83"/>
<polygon fill="midnightblue" stroke="midnightblue" points="337.42,-24.28 346.89,-19.51 336.52,-17.34 337.42,-24.28"/>
</g>
</g>
</svg>
