<?xml version="1.0" encoding="UTF-8" standalone="no"?>
<!DOCTYPE svg PUBLIC "-//W3C//DTD SVG 1.1//EN"
 "http://www.w3.org/Graphics/SVG/1.1/DTD/svg11.dtd">
<!-- Generated by graphviz version 2.43.0 (0)
 -->
<!-- Title: carta::FileListHandler::GetRelativePath Pages: 1 -->
<svg width="447pt" height="88pt"
 viewBox="0.00 0.00 447.00 88.00" xmlns="http://www.w3.org/2000/svg" xmlns:xlink="http://www.w3.org/1999/xlink">
<g id="graph0" class="graph" transform="scale(1 1) rotate(0) translate(4 84)">
<title>carta::FileListHandler::GetRelativePath</title>
<!-- Node1 -->
<g id="node1" class="node">
<title>Node1</title>
<g id="a_node1"><a xlink:title=" ">
<polygon fill="#bfbfbf" stroke="black" points="319,-24.5 319,-54.5 439,-54.5 439,-24.5 319,-24.5"/>
<text text-anchor="start" x="327" y="-42.5" font-family="Helvetica,sans-Serif" font-size="10.00">carta::FileListHandler</text>
<text text-anchor="middle" x="379" y="-31.5" font-family="Helvetica,sans-Serif" font-size="10.00">::GetRelativePath</text>
</a>
</g>
</g>
<!-- Node2 -->
<g id="node2" class="node">
<title>Node2</title>
<g id="a_node2"><a xlink:href="classcarta_1_1FileListHandler.html#a1c0729f201216e2ee578126c9fa49f41" target="_top" xlink:title=" ">
<polygon fill="none" stroke="black" points="163,-24.5 163,-54.5 283,-54.5 283,-24.5 163,-24.5"/>
<text text-anchor="start" x="171" y="-42.5" font-family="Helvetica,sans-Serif" font-size="10.00">carta::FileListHandler</text>
<text text-anchor="middle" x="223" y="-31.5" font-family="Helvetica,sans-Serif" font-size="10.00">::GetFileList</text>
</a>
</g>
</g>
<!-- Node1&#45;&gt;Node2 -->
<g id="edge1" class="edge">
<title>Node1&#45;&gt;Node2</title>
<path fill="none" stroke="midnightblue" d="M308.63,-39.5C300.14,-39.5 291.52,-39.5 283.2,-39.5"/>
<polygon fill="midnightblue" stroke="midnightblue" points="308.9,-43 318.9,-39.5 308.9,-36 308.9,-43"/>
</g>
<!-- Node3 -->
<g id="node3" class="node">
<title>Node3</title>
<g id="a_node3"><a xlink:href="classcarta_1_1FileListHandler.html#a91a3c3b56d4f7c53b6f20026bab0390c" target="_top" xlink:title=" ">
<polygon fill="none" stroke="black" points="3.5,-49.5 3.5,-79.5 123.5,-79.5 123.5,-49.5 3.5,-49.5"/>
<text text-anchor="start" x="11.5" y="-67.5" font-family="Helvetica,sans-Serif" font-size="10.00">carta::FileListHandler</text>
<text text-anchor="middle" x="63.5" y="-56.5" font-family="Helvetica,sans-Serif" font-size="10.00">::OnFileListRequest</text>
</a>
</g>
</g>
<!-- Node2&#45;&gt;Node3 -->
<g id="edge2" class="edge">
<title>Node2&#45;&gt;Node3</title>
<path fill="none" stroke="midnightblue" d="M152.86,-50.47C143.12,-52.02 133.19,-53.6 123.66,-55.11"/>
<polygon fill="midnightblue" stroke="midnightblue" points="153.58,-53.9 162.9,-48.88 152.48,-46.99 153.58,-53.9"/>
</g>
<!-- Node4 -->
<g id="node4" class="node">
<title>Node4</title>
<g id="a_node4"><a xlink:href="classcarta_1_1FileListHandler.html#a71b0e5293a630376d925b100876c3726" target="_top" xlink:title=" ">
<polygon fill="none" stroke="black" points="0,-0.5 0,-30.5 127,-30.5 127,-0.5 0,-0.5"/>
<text text-anchor="start" x="8" y="-18.5" font-family="Helvetica,sans-Serif" font-size="10.00">carta::FileListHandler</text>
<text text-anchor="middle" x="63.5" y="-7.5" font-family="Helvetica,sans-Serif" font-size="10.00">::OnRegionListRequest</text>
</a>
</g>
</g>
<!-- Node2&#45;&gt;Node4 -->
<g id="edge3" class="edge">
<title>Node2&#45;&gt;Node4</title>
<path fill="none" stroke="midnightblue" d="M152.91,-28.97C144.32,-27.66 135.57,-26.33 127.09,-25.04"/>
<polygon fill="midnightblue" stroke="midnightblue" points="152.49,-32.45 162.9,-30.5 153.55,-25.53 152.49,-32.45"/>
</g>
</g>
</svg>
