<?xml version="1.0" encoding="UTF-8" standalone="no"?>
<!DOCTYPE svg PUBLIC "-//W3C//DTD SVG 1.1//EN"
 "http://www.w3.org/Graphics/SVG/1.1/DTD/svg11.dtd">
<!-- Generated by graphviz version 2.43.0 (0)
 -->
<!-- Title: carta::Frame::FillRegionHistogramData Pages: 1 -->
<!--zoomable 531 -->
<svg id="main" version="1.1" xmlns="http://www.w3.org/2000/svg" xmlns:xlink="http://www.w3.org/1999/xlink" xml:space="preserve" onload="init(evt)">
<style type="text/css"><![CDATA[
.edge:hover path { stroke: red; }
.edge:hover polygon { stroke: red; fill: red; }
]]></style>
<script type="text/javascript"><![CDATA[
var edges = document.getElementsByTagName('g');
if (edges && edges.length) {
  for (var i=0;i<edges.length;i++) {
    if (edges[i].id.substr(0,4)=='edge') {
      edges[i].setAttribute('class','edge');
    }
  }
}
]]></script>
        <defs>
                <circle id="rim" cx="0" cy="0" r="7"/>
                <circle id="rim2" cx="0" cy="0" r="3.5"/>
                <g id="zoomPlus">
                        <use xlink:href="#rim" fill="#404040">
                                <set attributeName="fill" to="#808080" begin="zoomplus.mouseover" end="zoomplus.mouseout"/>
                        </use>
                        <path d="M-4,0h8M0,-4v8" fill="none" stroke="white" stroke-width="1.5" pointer-events="none"/>
                </g>
                <g id="zoomMin">
                        <use xlink:href="#rim" fill="#404040">
                                <set attributeName="fill" to="#808080" begin="zoomminus.mouseover" end="zoomminus.mouseout"/>
                        </use>
                        <path d="M-4,0h8" fill="none" stroke="white" stroke-width="1.5" pointer-events="none"/>
                </g>
                <g id="dirArrow">
                        <path fill="none" stroke="white" stroke-width="1.5" d="M0,-3.0v7 M-2.5,-0.5L0,-3.0L2.5,-0.5"/>
                </g>
               <g id="resetDef">
                       <use xlink:href="#rim2" fill="#404040">
                               <set attributeName="fill" to="#808080" begin="reset.mouseover" end="reset.mouseout"/>
                       </use>
               </g>
        </defs>

<script type="text/javascript">
var viewWidth = 1142;
var viewHeight = 531;
var sectionId = 'dynsection-32';
</script>
<script xlink:href="svgpan.js"/>
<svg id="graph" class="graph">
<g id="viewport">
<title>carta::Frame::FillRegionHistogramData</title>
<!-- Node1 -->
<g id="node1" class="node">
<title>Node1</title>
<g id="a_node1"><a xlink:title=" ">
<polygon fill="#bfbfbf" stroke="black" points="0,-223 0,-253 132,-253 132,-223 0,-223"/>
<text text-anchor="start" x="8" y="-241" font-family="Helvetica,sans-Serif" font-size="10.00">carta::Frame::FillRegion</text>
<text text-anchor="middle" x="66" y="-230" font-family="Helvetica,sans-Serif" font-size="10.00">HistogramData</text>
</a>
</g>
</g>
<!-- Node2 -->
<g id="node2" class="node">
<title>Node2</title>
<g id="a_node2"><a xlink:href="classcarta_1_1Frame.html#a2627ae9873e0f4ab013e34f588e65433" target="_top" xlink:title=" ">
<polygon fill="none" stroke="black" points="563,-266.5 563,-285.5 744,-285.5 744,-266.5 563,-266.5"/>
<text text-anchor="middle" x="653.5" y="-273.5" font-family="Helvetica,sans-Serif" font-size="10.00">carta::Frame::CalculateHistogram</text>
</a>
</g>
</g>
<!-- Node1&#45;&gt;Node2 -->
<g id="edge1" class="edge">
<title>Node1&#45;&gt;Node2</title>
<path fill="none" stroke="midnightblue" d="M132.1,-247.88C144.02,-249.45 156.37,-250.91 168,-252 300.61,-264.45 454.28,-270.68 552.39,-273.62"/>
<polygon fill="midnightblue" stroke="midnightblue" points="552.49,-277.12 562.59,-273.92 552.7,-270.13 552.49,-277.12"/>
</g>
<!-- Node7 -->
<g id="node7" class="node">
<title>Node7</title>
<g id="a_node7"><a xlink:href="classcarta_1_1Frame.html#a1eda290558f3e9a6be5d4149c06e1b7b" target="_top" xlink:title=" ">
<polygon fill="none" stroke="black" points="796,-134.5 796,-153.5 923,-153.5 923,-134.5 796,-134.5"/>
<text text-anchor="middle" x="859.5" y="-141.5" font-family="Helvetica,sans-Serif" font-size="10.00">carta::Frame::CurrentZ</text>
</a>
</g>
</g>
<!-- Node1&#45;&gt;Node7 -->
<g id="edge15" class="edge">
<title>Node1&#45;&gt;Node7</title>
<path fill="none" stroke="midnightblue" d="M80.46,-222.9C98.47,-203.66 132.31,-170.78 168,-153 253.7,-110.31 282.86,-115.73 378,-105 531.55,-87.67 713.55,-115.63 803.09,-132.56"/>
<polygon fill="midnightblue" stroke="midnightblue" points="802.55,-136.02 813.03,-134.46 803.87,-129.14 802.55,-136.02"/>
</g>
<!-- Node8 -->
<g id="node8" class="node">
<title>Node8</title>
<g id="a_node8"><a xlink:href="classcarta_1_1Frame.html#ad0db7c41f9da68619616cccb059edbb4" target="_top" xlink:title=" ">
<polygon fill="none" stroke="black" points="803,-459.5 803,-478.5 916,-478.5 916,-459.5 803,-459.5"/>
<text text-anchor="middle" x="859.5" y="-466.5" font-family="Helvetica,sans-Serif" font-size="10.00">carta::Frame::Depth</text>
</a>
</g>
</g>
<!-- Node1&#45;&gt;Node8 -->
<g id="edge16" class="edge">
<title>Node1&#45;&gt;Node8</title>
<path fill="none" stroke="midnightblue" d="M70.31,-253.01C79.17,-289.47 107.02,-383.08 168,-429 367.69,-579.38 699.24,-511.63 816.13,-481.07"/>
<polygon fill="midnightblue" stroke="midnightblue" points="817.03,-484.46 825.79,-478.5 815.23,-477.69 817.03,-484.46"/>
</g>
<!-- Node10 -->
<g id="node10" class="node">
<title>Node10</title>
<g id="a_node10"><a xlink:href="classcarta_1_1Timer.html#aad2702a80259920b910fb76642f97b88" target="_top" xlink:title=" ">
<polygon fill="none" stroke="black" points="994.5,-107.5 994.5,-126.5 1114.5,-126.5 1114.5,-107.5 994.5,-107.5"/>
<text text-anchor="middle" x="1054.5" y="-114.5" font-family="Helvetica,sans-Serif" font-size="10.00">carta::Timer::Elapsed</text>
</a>
</g>
</g>
<!-- Node1&#45;&gt;Node10 -->
<g id="edge17" class="edge">
<title>Node1&#45;&gt;Node10</title>
<path fill="none" stroke="midnightblue" d="M73.94,-222.76C87.6,-194.59 120.83,-134.56 168,-105 276.9,-36.75 322.98,-48 451.5,-48 451.5,-48 451.5,-48 654.5,-48 786.26,-48 938.97,-84.99 1011.32,-104.8"/>
<polygon fill="midnightblue" stroke="midnightblue" points="1010.41,-108.18 1020.99,-107.48 1012.28,-101.44 1010.41,-108.18"/>
</g>
<!-- Node14 -->
<g id="node14" class="node">
<title>Node14</title>
<g id="a_node14"><a xlink:href="Message_8cc.html#aadf644bd365f0198b09a7196f9990511" target="_top" xlink:title=" ">
<polygon fill="none" stroke="black" points="612.5,-441.5 612.5,-460.5 694.5,-460.5 694.5,-441.5 612.5,-441.5"/>
<text text-anchor="middle" x="653.5" y="-448.5" font-family="Helvetica,sans-Serif" font-size="10.00">FillHistogram</text>
</a>
</g>
</g>
<!-- Node1&#45;&gt;Node14 -->
<g id="edge18" class="edge">
<title>Node1&#45;&gt;Node14</title>
<path fill="none" stroke="midnightblue" d="M73.27,-253.41C86.22,-283.24 118.91,-348.84 168,-382 303.21,-473.35 508.22,-466.47 602.22,-457.34"/>
<polygon fill="midnightblue" stroke="midnightblue" points="602.72,-460.8 612.31,-456.3 602,-453.84 602.72,-460.8"/>
</g>
<!-- Node15 -->
<g id="node15" class="node">
<title>Node15</title>
<g id="a_node15"><a xlink:href="classcarta_1_1Frame.html#a81ac6f87981449dccd193fa2c81dddcf" target="_top" xlink:title=" ">
<polygon fill="none" stroke="black" points="180.5,-343 180.5,-373 329.5,-373 329.5,-343 180.5,-343"/>
<text text-anchor="start" x="188.5" y="-361" font-family="Helvetica,sans-Serif" font-size="10.00">carta::Frame::FillHistogram</text>
<text text-anchor="middle" x="255" y="-350" font-family="Helvetica,sans-Serif" font-size="10.00">FromCache</text>
</a>
</g>
</g>
<!-- Node1&#45;&gt;Node15 -->
<g id="edge19" class="edge">
<title>Node1&#45;&gt;Node15</title>
<path fill="none" stroke="midnightblue" d="M90.68,-253.2C123.98,-274.57 184.74,-313.55 222.02,-337.48"/>
<polygon fill="midnightblue" stroke="midnightblue" points="220.2,-340.47 230.51,-342.93 223.98,-334.58 220.2,-340.47"/>
</g>
<!-- Node17 -->
<g id="node17" class="node">
<title>Node17</title>
<g id="a_node17"><a xlink:href="classcarta_1_1Frame.html#a1bd6cad34fcc337311218150f6771850" target="_top" xlink:title=" ">
<polygon fill="none" stroke="black" points="577.5,-228.5 577.5,-247.5 729.5,-247.5 729.5,-228.5 577.5,-228.5"/>
<text text-anchor="middle" x="653.5" y="-235.5" font-family="Helvetica,sans-Serif" font-size="10.00">carta::Frame::GetBasicStats</text>
</a>
</g>
</g>
<!-- Node1&#45;&gt;Node17 -->
<g id="edge37" class="edge">
<title>Node1&#45;&gt;Node17</title>
<path fill="none" stroke="midnightblue" d="M132.18,-238C238.47,-238 449.11,-238 567.18,-238"/>
<polygon fill="midnightblue" stroke="midnightblue" points="567.26,-241.5 577.26,-238 567.26,-234.5 567.26,-241.5"/>
</g>
<!-- Node24 -->
<g id="node24" class="node">
<title>Node24</title>
<g id="a_node24"><a xlink:href="classcarta_1_1Frame.html#aad7fc7f3462a849a9cea9562fb45e220" target="_top" xlink:title=" ">
<polygon fill="none" stroke="black" points="177,-163 177,-193 333,-193 333,-163 177,-163"/>
<text text-anchor="start" x="185" y="-181" font-family="Helvetica,sans-Serif" font-size="10.00">carta::Frame::GetStokesType</text>
<text text-anchor="middle" x="255" y="-170" font-family="Helvetica,sans-Serif" font-size="10.00">Index</text>
</a>
</g>
</g>
<!-- Node1&#45;&gt;Node24 -->
<g id="edge38" class="edge">
<title>Node1&#45;&gt;Node24</title>
<path fill="none" stroke="midnightblue" d="M114.19,-222.86C139.53,-214.73 170.95,-204.65 197.58,-196.1"/>
<polygon fill="midnightblue" stroke="midnightblue" points="198.7,-199.42 207.15,-193.03 196.56,-192.75 198.7,-199.42"/>
</g>
<!-- Node27 -->
<g id="node27" class="node">
<title>Node27</title>
<g id="a_node27"><a xlink:href="classMessage.html#af13c35c35a5f3fd50a68319be9287611" target="_top" xlink:title=" ">
<polygon fill="none" stroke="black" points="168,-0.5 168,-19.5 342,-19.5 342,-0.5 168,-0.5"/>
<text text-anchor="middle" x="255" y="-7.5" font-family="Helvetica,sans-Serif" font-size="10.00">Message::RegionHistogramData</text>
</a>
</g>
</g>
<!-- Node1&#45;&gt;Node27 -->
<g id="edge42" class="edge">
<title>Node1&#45;&gt;Node27</title>
<path fill="none" stroke="midnightblue" d="M70.06,-222.81C78.5,-184.92 105.75,-85.54 168,-34 173.01,-29.85 178.7,-26.41 184.7,-23.57"/>
<polygon fill="midnightblue" stroke="midnightblue" points="186.44,-26.64 194.33,-19.57 183.75,-20.17 186.44,-26.64"/>
</g>
<!-- Node3 -->
<g id="node3" class="node">
<title>Node3</title>
<g id="a_node3"><a xlink:href="classcarta_1_1Frame.html#a54fa0e39d0db24c3f5913668935f69ef" target="_top" xlink:title=" ">
<polygon fill="none" stroke="black" points="788,-402.5 788,-421.5 931,-421.5 931,-402.5 788,-402.5"/>
<text text-anchor="middle" x="859.5" y="-409.5" font-family="Helvetica,sans-Serif" font-size="10.00">carta::Frame::AutoBinSize</text>
</a>
</g>
</g>
<!-- Node2&#45;&gt;Node3 -->
<g id="edge2" class="edge">
<title>Node2&#45;&gt;Node3</title>
<path fill="none" stroke="midnightblue" d="M729.15,-285.51C734.51,-288.04 739.55,-291.17 744,-295 778.54,-324.72 746.25,-360.38 780,-391 782.83,-393.57 785.94,-395.83 789.24,-397.82"/>
<polygon fill="midnightblue" stroke="midnightblue" points="787.86,-401.04 798.36,-402.47 791.04,-394.8 787.86,-401.04"/>
</g>
<!-- Node4 -->
<g id="node4" class="node">
<title>Node4</title>
<g id="a_node4"><a xlink:href="classcarta_1_1Frame.html#a1614c68dbc09df9dd7212cbcf909fa43" target="_top" xlink:title=" ">
<polygon fill="none" stroke="black" points="793.5,-362.5 793.5,-381.5 925.5,-381.5 925.5,-362.5 793.5,-362.5"/>
<text text-anchor="middle" x="859.5" y="-369.5" font-family="Helvetica,sans-Serif" font-size="10.00">carta::Frame::CacheKey</text>
</a>
</g>
</g>
<!-- Node2&#45;&gt;Node4 -->
<g id="edge3" class="edge">
<title>Node2&#45;&gt;Node4</title>
<path fill="none" stroke="midnightblue" d="M726.12,-285.6C732.46,-288.08 738.54,-291.17 744,-295 768.83,-312.44 755.42,-335.21 780,-353 782.67,-354.93 785.51,-356.67 788.47,-358.23"/>
<polygon fill="midnightblue" stroke="midnightblue" points="787.09,-361.45 797.64,-362.41 789.99,-355.08 787.09,-361.45"/>
</g>
<!-- Node5 -->
<g id="node5" class="node">
<title>Node5</title>
<g id="a_node5"><a xlink:href="namespacecarta.html#af038996ac9ec0abf3fe540ed6e37fde3" target="_top" xlink:title=" ">
<polygon fill="none" stroke="black" points="800,-324.5 800,-343.5 919,-343.5 919,-324.5 800,-324.5"/>
<text text-anchor="middle" x="859.5" y="-331.5" font-family="Helvetica,sans-Serif" font-size="10.00">carta::CalcHistogram</text>
</a>
</g>
</g>
<!-- Node2&#45;&gt;Node5 -->
<g id="edge4" class="edge">
<title>Node2&#45;&gt;Node5</title>
<path fill="none" stroke="midnightblue" d="M712.04,-285.56C722.83,-288.1 733.88,-291.21 744,-295 761.14,-301.42 762.95,-308.34 780,-315 786.41,-317.5 793.24,-319.74 800.1,-321.73"/>
<polygon fill="midnightblue" stroke="midnightblue" points="799.56,-325.21 810.13,-324.46 801.4,-318.46 799.56,-325.21"/>
</g>
<!-- Node6 -->
<g id="node6" class="node">
<title>Node6</title>
<g id="a_node6"><a xlink:href="classcarta_1_1Frame.html#a30b016834ce04378ba3d0a34f373db3f" target="_top" xlink:title=" ">
<polygon fill="none" stroke="black" points="783.5,-172.5 783.5,-191.5 935.5,-191.5 935.5,-172.5 783.5,-172.5"/>
<text text-anchor="middle" x="859.5" y="-179.5" font-family="Helvetica,sans-Serif" font-size="10.00">carta::Frame::CurrentStokes</text>
</a>
</g>
</g>
<!-- Node2&#45;&gt;Node6 -->
<g id="edge5" class="edge">
<title>Node2&#45;&gt;Node6</title>
<path fill="none" stroke="midnightblue" d="M725.6,-266.49C732.12,-263.99 738.38,-260.88 744,-257 768.35,-240.19 755.89,-218.15 780,-201 782.74,-199.05 785.66,-197.3 788.7,-195.72"/>
<polygon fill="midnightblue" stroke="midnightblue" points="790.4,-198.79 798.1,-191.52 787.55,-192.4 790.4,-198.79"/>
</g>
<!-- Node2&#45;&gt;Node7 -->
<g id="edge6" class="edge">
<title>Node2&#45;&gt;Node7</title>
<path fill="none" stroke="midnightblue" d="M729.12,-266.46C734.49,-263.93 739.53,-260.82 744,-257 778.01,-227.94 746.4,-192.54 780,-163 782.03,-161.22 784.19,-159.6 786.47,-158.12"/>
<polygon fill="midnightblue" stroke="midnightblue" points="788.56,-160.97 795.69,-153.13 785.23,-154.81 788.56,-160.97"/>
</g>
<!-- Node2&#45;&gt;Node8 -->
<g id="edge7" class="edge">
<title>Node2&#45;&gt;Node8</title>
<path fill="none" stroke="midnightblue" d="M730.86,-285.68C735.64,-288.21 740.09,-291.28 744,-295 789.3,-338.1 740.23,-382.75 780,-431 788.9,-441.8 801.61,-449.76 814.22,-455.51"/>
<polygon fill="midnightblue" stroke="midnightblue" points="813.19,-458.88 823.77,-459.5 815.89,-452.42 813.19,-458.88"/>
</g>
<!-- Node9 -->
<g id="node9" class="node">
<title>Node9</title>
<g id="a_node9"><a xlink:href="classcarta_1_1Frame.html#a6ad0a2d3fbde3a9f346684e5ce541da6" target="_top" xlink:title=" ">
<polygon fill="none" stroke="black" points="780,-210.5 780,-229.5 939,-229.5 939,-210.5 780,-210.5"/>
<text text-anchor="middle" x="859.5" y="-217.5" font-family="Helvetica,sans-Serif" font-size="10.00">carta::Frame::FillImageCache</text>
</a>
</g>
</g>
<!-- Node2&#45;&gt;Node9 -->
<g id="edge8" class="edge">
<title>Node2&#45;&gt;Node9</title>
<path fill="none" stroke="midnightblue" d="M710.49,-266.41C721.73,-263.84 733.35,-260.72 744,-257 760.89,-251.09 763.2,-245.14 780,-239 786.88,-236.48 794.22,-234.2 801.55,-232.17"/>
<polygon fill="midnightblue" stroke="midnightblue" points="802.72,-235.48 811.49,-229.54 800.93,-228.71 802.72,-235.48"/>
</g>
<!-- Node13 -->
<g id="node13" class="node">
<title>Node13</title>
<g id="a_node13"><a xlink:href="classcarta_1_1Frame.html#a68a31253118f829703cbfb42e0c81257" target="_top" xlink:title=" ">
<polygon fill="none" stroke="black" points="789.5,-248.5 789.5,-267.5 929.5,-267.5 929.5,-248.5 789.5,-248.5"/>
<text text-anchor="middle" x="859.5" y="-255.5" font-family="Helvetica,sans-Serif" font-size="10.00">carta::Frame::GetZMatrix</text>
</a>
</g>
</g>
<!-- Node2&#45;&gt;Node13 -->
<g id="edge12" class="edge">
<title>Node2&#45;&gt;Node13</title>
<path fill="none" stroke="midnightblue" d="M744.27,-268.08C755.81,-267.06 767.57,-266.02 778.93,-265.02"/>
<polygon fill="midnightblue" stroke="midnightblue" points="779.58,-268.48 789.23,-264.11 778.96,-261.5 779.58,-268.48"/>
</g>
<!-- Node9&#45;&gt;Node10 -->
<g id="edge9" class="edge">
<title>Node9&#45;&gt;Node10</title>
<path fill="none" stroke="midnightblue" d="M912.59,-210.47C921.61,-207.96 930.74,-204.84 939,-201 976.7,-183.47 1014.41,-152.59 1035.76,-133.55"/>
<polygon fill="midnightblue" stroke="midnightblue" points="1038.31,-135.97 1043.36,-126.66 1033.6,-130.78 1038.31,-135.97"/>
</g>
<!-- Node11 -->
<g id="node11" class="node">
<title>Node11</title>
<g id="a_node11"><a xlink:href="classcarta_1_1Frame.html#a9e748d02f7394ed01b69276b61a79825" target="_top" xlink:title=" ">
<polygon fill="none" stroke="black" points="975,-207.5 975,-226.5 1134,-226.5 1134,-207.5 975,-207.5"/>
<text text-anchor="middle" x="1054.5" y="-214.5" font-family="Helvetica,sans-Serif" font-size="10.00">carta::Frame::GetImageSlicer</text>
</a>
</g>
</g>
<!-- Node9&#45;&gt;Node11 -->
<g id="edge10" class="edge">
<title>Node9&#45;&gt;Node11</title>
<path fill="none" stroke="midnightblue" d="M939,-218.78C947.48,-218.65 956.14,-218.51 964.73,-218.38"/>
<polygon fill="midnightblue" stroke="midnightblue" points="964.81,-221.88 974.76,-218.22 964.7,-214.88 964.81,-221.88"/>
</g>
<!-- Node12 -->
<g id="node12" class="node">
<title>Node12</title>
<g id="a_node12"><a xlink:href="classcarta_1_1Frame.html#a79c789ebc62771151da94673a325a31a" target="_top" xlink:title=" ">
<polygon fill="none" stroke="black" points="978.5,-245.5 978.5,-264.5 1130.5,-264.5 1130.5,-245.5 978.5,-245.5"/>
<text text-anchor="middle" x="1054.5" y="-252.5" font-family="Helvetica,sans-Serif" font-size="10.00">carta::Frame::GetSlicerData</text>
</a>
</g>
</g>
<!-- Node9&#45;&gt;Node12 -->
<g id="edge11" class="edge">
<title>Node9&#45;&gt;Node12</title>
<path fill="none" stroke="midnightblue" d="M912.98,-229.52C937.13,-233.9 965.95,-239.12 991.19,-243.7"/>
<polygon fill="midnightblue" stroke="midnightblue" points="990.56,-247.14 1001.03,-245.48 991.81,-240.26 990.56,-247.14"/>
</g>
<!-- Node13&#45;&gt;Node11 -->
<g id="edge13" class="edge">
<title>Node13&#45;&gt;Node11</title>
<path fill="none" stroke="midnightblue" d="M905.26,-248.49C933.05,-242.59 968.97,-234.96 998.49,-228.69"/>
<polygon fill="midnightblue" stroke="midnightblue" points="999.59,-232.03 1008.65,-226.53 998.14,-225.18 999.59,-232.03"/>
</g>
<!-- Node13&#45;&gt;Node12 -->
<g id="edge14" class="edge">
<title>Node13&#45;&gt;Node12</title>
<path fill="none" stroke="midnightblue" d="M929.63,-256.93C942.09,-256.73 955.22,-256.53 968.08,-256.33"/>
<polygon fill="midnightblue" stroke="midnightblue" points="968.37,-259.82 978.31,-256.17 968.26,-252.82 968.37,-259.82"/>
</g>
<!-- Node16 -->
<g id="node16" class="node">
<title>Node16</title>
<g id="a_node16"><a xlink:href="classcarta_1_1Frame.html#af4487db12b8553663cadf357d5c4c9f3" target="_top" xlink:title=" ">
<polygon fill="none" stroke="black" points="378,-343 378,-373 527,-373 527,-343 378,-343"/>
<text text-anchor="start" x="386" y="-361" font-family="Helvetica,sans-Serif" font-size="10.00">carta::Frame::FillHistogram</text>
<text text-anchor="middle" x="452.5" y="-350" font-family="Helvetica,sans-Serif" font-size="10.00">FromFrameCache</text>
</a>
</g>
</g>
<!-- Node15&#45;&gt;Node16 -->
<g id="edge20" class="edge">
<title>Node15&#45;&gt;Node16</title>
<path fill="none" stroke="midnightblue" d="M329.63,-358C342.1,-358 355.13,-358 367.83,-358"/>
<polygon fill="midnightblue" stroke="midnightblue" points="367.93,-361.5 377.93,-358 367.93,-354.5 367.93,-361.5"/>
</g>
<!-- Node23 -->
<g id="node23" class="node">
<title>Node23</title>
<g id="a_node23"><a xlink:href="classcarta_1_1Frame.html#afe5a0151cdf414ebe9707ad5ba670e82" target="_top" xlink:title=" ">
<polygon fill="none" stroke="black" points="378,-392 378,-422 527,-422 527,-392 378,-392"/>
<text text-anchor="start" x="386" y="-410" font-family="Helvetica,sans-Serif" font-size="10.00">carta::Frame::FillHistogram</text>
<text text-anchor="middle" x="452.5" y="-399" font-family="Helvetica,sans-Serif" font-size="10.00">FromLoaderCache</text>
</a>
</g>
</g>
<!-- Node15&#45;&gt;Node23 -->
<g id="edge35" class="edge">
<title>Node15&#45;&gt;Node23</title>
<path fill="none" stroke="midnightblue" d="M315.99,-373.03C336.81,-378.26 360.35,-384.15 381.89,-389.55"/>
<polygon fill="midnightblue" stroke="midnightblue" points="381.08,-392.96 391.63,-391.99 382.78,-386.17 381.08,-392.96"/>
</g>
<!-- Node16&#45;&gt;Node3 -->
<g id="edge21" class="edge">
<title>Node16&#45;&gt;Node3</title>
<path fill="none" stroke="midnightblue" d="M499.69,-373.05C528.06,-382.24 559.62,-392.36 563,-393 634.75,-406.56 717.84,-410.92 777.61,-412.12"/>
<polygon fill="midnightblue" stroke="midnightblue" points="777.68,-415.62 787.74,-412.3 777.8,-408.62 777.68,-415.62"/>
</g>
<!-- Node16&#45;&gt;Node14 -->
<g id="edge22" class="edge">
<title>Node16&#45;&gt;Node14</title>
<path fill="none" stroke="midnightblue" d="M510.87,-373.03C516.54,-375.59 522.03,-378.56 527,-382 548.05,-396.59 541.56,-412.98 563,-427 574.81,-434.72 589.03,-439.97 602.63,-443.53"/>
<polygon fill="midnightblue" stroke="midnightblue" points="601.84,-446.94 612.38,-445.84 603.45,-440.13 601.84,-446.94"/>
</g>
<!-- Node16&#45;&gt;Node17 -->
<g id="edge23" class="edge">
<title>Node16&#45;&gt;Node17</title>
<path fill="none" stroke="midnightblue" d="M465.18,-342.98C483.48,-320.54 521.19,-278.62 563,-257 567.56,-254.64 572.39,-252.58 577.35,-250.77"/>
<polygon fill="midnightblue" stroke="midnightblue" points="578.62,-254.04 587.03,-247.6 576.43,-247.39 578.62,-254.04"/>
</g>
<!-- Node21 -->
<g id="node21" class="node">
<title>Node21</title>
<g id="a_node21"><a xlink:href="classcarta_1_1Frame.html#ad9567a14e7b8b2770249aa7062c89e72" target="_top" xlink:title=" ">
<polygon fill="none" stroke="black" points="572.5,-305 572.5,-335 734.5,-335 734.5,-305 572.5,-305"/>
<text text-anchor="start" x="580.5" y="-323" font-family="Helvetica,sans-Serif" font-size="10.00">carta::Frame::GetCachedCube</text>
<text text-anchor="middle" x="653.5" y="-312" font-family="Helvetica,sans-Serif" font-size="10.00">Histogram</text>
</a>
</g>
</g>
<!-- Node16&#45;&gt;Node21 -->
<g id="edge32" class="edge">
<title>Node16&#45;&gt;Node21</title>
<path fill="none" stroke="midnightblue" d="M527.03,-343.96C539.09,-341.66 551.69,-339.25 564.07,-336.89"/>
<polygon fill="midnightblue" stroke="midnightblue" points="564.76,-340.32 573.92,-335 563.44,-333.44 564.76,-340.32"/>
</g>
<!-- Node22 -->
<g id="node22" class="node">
<title>Node22</title>
<g id="a_node22"><a xlink:href="classcarta_1_1Frame.html#a12a1464ae152ffc4dad5e1a9bcf5cac4" target="_top" xlink:title=" ">
<polygon fill="none" stroke="black" points="569.5,-354 569.5,-384 737.5,-384 737.5,-354 569.5,-354"/>
<text text-anchor="start" x="577.5" y="-372" font-family="Helvetica,sans-Serif" font-size="10.00">carta::Frame::GetCachedImage</text>
<text text-anchor="middle" x="653.5" y="-361" font-family="Helvetica,sans-Serif" font-size="10.00">Histogram</text>
</a>
</g>
</g>
<!-- Node16&#45;&gt;Node22 -->
<g id="edge33" class="edge">
<title>Node16&#45;&gt;Node22</title>
<path fill="none" stroke="midnightblue" d="M527.03,-362.06C537.44,-362.64 548.25,-363.24 558.97,-363.83"/>
<polygon fill="midnightblue" stroke="midnightblue" points="559.02,-367.34 569.2,-364.4 559.41,-360.35 559.02,-367.34"/>
</g>
<!-- Node17&#45;&gt;Node4 -->
<g id="edge24" class="edge">
<title>Node17&#45;&gt;Node4</title>
<path fill="none" stroke="midnightblue" d="M729.15,-247.51C734.51,-250.04 739.55,-253.17 744,-257 778.54,-286.72 745.88,-322.79 780,-353 781.75,-354.55 783.6,-355.98 785.54,-357.29"/>
<polygon fill="midnightblue" stroke="midnightblue" points="784.08,-360.49 794.5,-362.37 787.53,-354.4 784.08,-360.49"/>
</g>
<!-- Node17&#45;&gt;Node6 -->
<g id="edge28" class="edge">
<title>Node17&#45;&gt;Node6</title>
<path fill="none" stroke="midnightblue" d="M693.03,-228.43C708.9,-224.29 727.42,-219.21 744,-214 760.23,-208.9 763.71,-205.9 780,-201 788.2,-198.53 796.96,-196.16 805.54,-193.98"/>
<polygon fill="midnightblue" stroke="midnightblue" points="806.63,-197.32 815.49,-191.51 804.95,-190.52 806.63,-197.32"/>
</g>
<!-- Node17&#45;&gt;Node7 -->
<g id="edge29" class="edge">
<title>Node17&#45;&gt;Node7</title>
<path fill="none" stroke="midnightblue" d="M667.72,-228.25C689.85,-212.36 736.3,-180.86 780,-163 786.19,-160.47 792.8,-158.22 799.46,-156.24"/>
<polygon fill="midnightblue" stroke="midnightblue" points="800.51,-159.58 809.2,-153.52 798.63,-152.84 800.51,-159.58"/>
</g>
<!-- Node17&#45;&gt;Node9 -->
<g id="edge30" class="edge">
<title>Node17&#45;&gt;Node9</title>
<path fill="none" stroke="midnightblue" d="M729.59,-231.37C742.63,-230.22 756.3,-229.02 769.66,-227.84"/>
<polygon fill="midnightblue" stroke="midnightblue" points="770.15,-231.31 779.8,-226.94 769.53,-224.34 770.15,-231.31"/>
</g>
<!-- Node17&#45;&gt;Node13 -->
<g id="edge31" class="edge">
<title>Node17&#45;&gt;Node13</title>
<path fill="none" stroke="midnightblue" d="M729.59,-245.36C745.77,-246.95 762.93,-248.63 779.26,-250.23"/>
<polygon fill="midnightblue" stroke="midnightblue" points="779.02,-253.72 789.31,-251.22 779.7,-246.76 779.02,-253.72"/>
</g>
<!-- Node18 -->
<g id="node18" class="node">
<title>Node18</title>
<g id="a_node18"><a xlink:href="namespacecarta.html#a96f7cab56516141317895bada342c0b1" target="_top" xlink:title=" ">
<polygon fill="none" stroke="black" points="800,-286.5 800,-305.5 919,-305.5 919,-286.5 800,-286.5"/>
<text text-anchor="middle" x="859.5" y="-293.5" font-family="Helvetica,sans-Serif" font-size="10.00">carta::CalcBasicStats</text>
</a>
</g>
</g>
<!-- Node17&#45;&gt;Node18 -->
<g id="edge25" class="edge">
<title>Node17&#45;&gt;Node18</title>
<path fill="none" stroke="midnightblue" d="M712.04,-247.56C722.83,-250.1 733.88,-253.21 744,-257 761.14,-263.42 762.95,-270.34 780,-277 786.41,-279.5 793.24,-281.74 800.1,-283.73"/>
<polygon fill="midnightblue" stroke="midnightblue" points="799.56,-287.21 810.13,-286.46 801.4,-280.46 799.56,-287.21"/>
</g>
<!-- Node19 -->
<g id="node19" class="node">
<title>Node19</title>
<g id="a_node19"><a xlink:href="classcarta_1_1BasicStatsCalculator.html#a29d141b4a8a8e26a6ef58c982447efea" target="_top" xlink:title=" ">
<polygon fill="none" stroke="black" points="980.5,-333 980.5,-363 1128.5,-363 1128.5,-333 980.5,-333"/>
<text text-anchor="start" x="988.5" y="-351" font-family="Helvetica,sans-Serif" font-size="10.00">carta::BasicStatsCalculator</text>
<text text-anchor="middle" x="1054.5" y="-340" font-family="Helvetica,sans-Serif" font-size="10.00">::GetStats</text>
</a>
</g>
</g>
<!-- Node18&#45;&gt;Node19 -->
<g id="edge26" class="edge">
<title>Node18&#45;&gt;Node19</title>
<path fill="none" stroke="midnightblue" d="M901.33,-305.53C913.48,-308.46 926.8,-311.77 939,-315 956.64,-319.67 975.71,-325.04 993.14,-330.08"/>
<polygon fill="midnightblue" stroke="midnightblue" points="992.61,-333.57 1003.18,-332.99 994.56,-326.84 992.61,-333.57"/>
</g>
<!-- Node20 -->
<g id="node20" class="node">
<title>Node20</title>
<g id="a_node20"><a xlink:href="classcarta_1_1BasicStatsCalculator.html#a14873f9d84d2abb0fabe85f4b70d0a44" target="_top" xlink:title=" ">
<polygon fill="none" stroke="black" points="980.5,-284 980.5,-314 1128.5,-314 1128.5,-284 980.5,-284"/>
<text text-anchor="start" x="988.5" y="-302" font-family="Helvetica,sans-Serif" font-size="10.00">carta::BasicStatsCalculator</text>
<text text-anchor="middle" x="1054.5" y="-291" font-family="Helvetica,sans-Serif" font-size="10.00">::reduce</text>
</a>
</g>
</g>
<!-- Node18&#45;&gt;Node20 -->
<g id="edge27" class="edge">
<title>Node18&#45;&gt;Node20</title>
<path fill="none" stroke="midnightblue" d="M919.19,-296.91C935.32,-297.16 953.13,-297.44 970.35,-297.71"/>
<polygon fill="midnightblue" stroke="midnightblue" points="970.36,-301.21 980.41,-297.86 970.47,-294.21 970.36,-301.21"/>
</g>
<!-- Node22&#45;&gt;Node4 -->
<g id="edge34" class="edge">
<title>Node22&#45;&gt;Node4</title>
<path fill="none" stroke="midnightblue" d="M737.77,-370.22C752.81,-370.45 768.41,-370.68 783.2,-370.89"/>
<polygon fill="midnightblue" stroke="midnightblue" points="783.25,-374.39 793.3,-371.04 783.35,-367.39 783.25,-374.39"/>
</g>
<!-- Node23&#45;&gt;Node14 -->
<g id="edge36" class="edge">
<title>Node23&#45;&gt;Node14</title>
<path fill="none" stroke="midnightblue" d="M521.43,-422.02C548.05,-427.91 578.03,-434.53 602.6,-439.97"/>
<polygon fill="midnightblue" stroke="midnightblue" points="601.9,-443.4 612.42,-442.14 603.41,-436.56 601.9,-443.4"/>
</g>
<!-- Node24&#45;&gt;Node6 -->
<g id="edge39" class="edge">
<title>Node24&#45;&gt;Node6</title>
<path fill="none" stroke="midnightblue" d="M333.12,-180.16C348.01,-180.5 363.49,-180.81 378,-181 516.23,-182.84 676.84,-182.72 772.93,-182.4"/>
<polygon fill="midnightblue" stroke="midnightblue" points="773.19,-185.9 783.18,-182.37 773.17,-178.9 773.19,-185.9"/>
</g>
<!-- Node25 -->
<g id="node25" class="node">
<title>Node25</title>
<g id="a_node25"><a xlink:href="Image_8cc.html#a30da07ffd67ed06c1e15e2da4d915e0c" target="_top" xlink:title=" ">
<polygon fill="none" stroke="black" points="399,-114.5 399,-133.5 506,-133.5 506,-114.5 399,-114.5"/>
<text text-anchor="middle" x="452.5" y="-121.5" font-family="Helvetica,sans-Serif" font-size="10.00">IsComputedStokes</text>
</a>
</g>
</g>
<!-- Node24&#45;&gt;Node25 -->
<g id="edge40" class="edge">
<title>Node24&#45;&gt;Node25</title>
<path fill="none" stroke="midnightblue" d="M307.26,-162.97C329.04,-156.67 354.72,-149.35 378,-143 386.32,-140.73 395.18,-138.38 403.77,-136.14"/>
<polygon fill="midnightblue" stroke="midnightblue" points="404.88,-139.47 413.68,-133.57 403.12,-132.7 404.88,-139.47"/>
</g>
<!-- Node26 -->
<g id="node26" class="node">
<title>Node26</title>
<g id="a_node26"><a xlink:href="classcarta_1_1Frame.html#a98d7c0c04b6d04f7617c41e6068362a9" target="_top" xlink:title=" ">
<polygon fill="none" stroke="black" points="382.5,-152.5 382.5,-171.5 522.5,-171.5 522.5,-152.5 382.5,-152.5"/>
<text text-anchor="middle" x="452.5" y="-159.5" font-family="Helvetica,sans-Serif" font-size="10.00">carta::Frame::NumStokes</text>
</a>
</g>
</g>
<!-- Node24&#45;&gt;Node26 -->
<g id="edge41" class="edge">
<title>Node24&#45;&gt;Node26</title>
<path fill="none" stroke="midnightblue" d="M333.27,-171.68C346.07,-170.63 359.36,-169.54 372.21,-168.49"/>
<polygon fill="midnightblue" stroke="midnightblue" points="372.72,-171.96 382.4,-167.66 372.15,-164.98 372.72,-171.96"/>
</g>
</g>
</svg>
        <g id="navigator" transform="translate(0 0)" fill="#404254">
                <rect fill="#f2f5e9" fill-opacity="0.5" stroke="#606060" stroke-width=".5" x="0" y="0" width="60" height="60"/>
                <use id="zoomplus" xlink:href="#zoomPlus" x="17" y="9" onmousedown="handleZoom(evt,'in')"/>
                <use id="zoomminus" xlink:href="#zoomMin" x="42" y="9" onmousedown="handleZoom(evt,'out')"/>
                <use id="reset" xlink:href="#resetDef" x="30" y="36" onmousedown="handleReset()"/>
                <g id="arrowUp" xlink:href="#dirArrow" transform="translate(30 24)" onmousedown="handlePan(0,-1)">
                  <use xlink:href="#rim" fill="#404040">
                        <set attributeName="fill" to="#808080" begin="arrowUp.mouseover" end="arrowUp.mouseout"/>
                  </use>
                  <path fill="none" stroke="white" stroke-width="1.5" d="M0,-3.0v7 M-2.5,-0.5L0,-3.0L2.5,-0.5"/>
                </g>
                <g id="arrowRight" xlink:href="#dirArrow" transform="rotate(90) translate(36 -43)" onmousedown="handlePan(1,0)">
                  <use xlink:href="#rim" fill="#404040">
                        <set attributeName="fill" to="#808080" begin="arrowRight.mouseover" end="arrowRight.mouseout"/>
                  </use>
                  <path fill="none" stroke="white" stroke-width="1.5" d="M0,-3.0v7 M-2.5,-0.5L0,-3.0L2.5,-0.5"/>
                </g>
                <g id="arrowDown" xlink:href="#dirArrow" transform="rotate(180) translate(-30 -48)" onmousedown="handlePan(0,1)">
                  <use xlink:href="#rim" fill="#404040">
                        <set attributeName="fill" to="#808080" begin="arrowDown.mouseover" end="arrowDown.mouseout"/>
                  </use>
                  <path fill="none" stroke="white" stroke-width="1.5" d="M0,-3.0v7 M-2.5,-0.5L0,-3.0L2.5,-0.5"/>
                </g>
                <g id="arrowLeft" xlink:href="#dirArrow" transform="rotate(270) translate(-36 17)" onmousedown="handlePan(-1,0)">
                  <use xlink:href="#rim" fill="#404040">
                        <set attributeName="fill" to="#808080" begin="arrowLeft.mouseover" end="arrowLeft.mouseout"/>
                  </use>
                  <path fill="none" stroke="white" stroke-width="1.5" d="M0,-3.0v7 M-2.5,-0.5L0,-3.0L2.5,-0.5"/>
                </g>
        </g>
        <svg viewBox="0 0 15 15" width="100%" height="30px" preserveAspectRatio="xMaxYMin meet">
         <g id="arrow_out" transform="scale(0.3 0.3)">
          <a xlink:href="classcarta_1_1Frame_add5c6cc7f22b6a5d87d7080d29f214fb_cgraph_org.svg" target="_base">
           <rect id="button" ry="5" rx="5" y="6" x="6" height="38" width="38"
                fill="#f2f5e9" fill-opacity="0.5" stroke="#606060" stroke-width="1.0"/>
           <path id="arrow"
             d="M 11.500037,31.436501 C 11.940474,20.09759 22.043105,11.32322 32.158766,21.979434 L 37.068811,17.246167 C 37.068811,17.246167 37.088388,32 37.088388,32 L 22.160133,31.978069 C 22.160133,31.978069 26.997745,27.140456 26.997745,27.140456 C 18.528582,18.264221 13.291696,25.230495 11.500037,31.436501 z"
             style="fill:#404040;"/>
          </a>
         </g>
        </svg>
</svg>
