<?xml version="1.0" encoding="UTF-8" standalone="no"?>
<!DOCTYPE svg PUBLIC "-//W3C//DTD SVG 1.1//EN"
 "http://www.w3.org/Graphics/SVG/1.1/DTD/svg11.dtd">
<!-- Generated by graphviz version 2.43.0 (0)
 -->
<!-- Title: carta::VectorField Pages: 1 -->
<!--zoomable 172 -->
<svg id="main" version="1.1" xmlns="http://www.w3.org/2000/svg" xmlns:xlink="http://www.w3.org/1999/xlink" xml:space="preserve" onload="init(evt)">
<style type="text/css"><![CDATA[
.edge:hover path { stroke: red; }
.edge:hover polygon { stroke: red; fill: red; }
]]></style>
<script type="text/javascript"><![CDATA[
var edges = document.getElementsByTagName('g');
if (edges && edges.length) {
  for (var i=0;i<edges.length;i++) {
    if (edges[i].id.substr(0,4)=='edge') {
      edges[i].setAttribute('class','edge');
    }
  }
}
]]></script>
        <defs>
                <circle id="rim" cx="0" cy="0" r="7"/>
                <circle id="rim2" cx="0" cy="0" r="3.5"/>
                <g id="zoomPlus">
                        <use xlink:href="#rim" fill="#404040">
                                <set attributeName="fill" to="#808080" begin="zoomplus.mouseover" end="zoomplus.mouseout"/>
                        </use>
                        <path d="M-4,0h8M0,-4v8" fill="none" stroke="white" stroke-width="1.5" pointer-events="none"/>
                </g>
                <g id="zoomMin">
                        <use xlink:href="#rim" fill="#404040">
                                <set attributeName="fill" to="#808080" begin="zoomminus.mouseover" end="zoomminus.mouseout"/>
                        </use>
                        <path d="M-4,0h8" fill="none" stroke="white" stroke-width="1.5" pointer-events="none"/>
                </g>
                <g id="dirArrow">
                        <path fill="none" stroke="white" stroke-width="1.5" d="M0,-3.0v7 M-2.5,-0.5L0,-3.0L2.5,-0.5"/>
                </g>
               <g id="resetDef">
                       <use xlink:href="#rim2" fill="#404040">
                               <set attributeName="fill" to="#808080" begin="reset.mouseover" end="reset.mouseout"/>
                       </use>
               </g>
        </defs>

<script type="text/javascript">
var viewWidth = 573;
var viewHeight = 172;
var sectionId = 'dynsection-0';
</script>
<script xlink:href="svgpan.js"/>
<svg id="graph" class="graph">
<g id="viewport">
<title>carta::VectorField</title>
<!-- Node1 -->
<g id="node1" class="node">
<title>Node1</title>
<g id="a_node1"><a xlink:title=" ">
<polygon fill="#bfbfbf" stroke="black" points="182.5,-0.5 182.5,-19.5 283.5,-19.5 283.5,-0.5 182.5,-0.5"/>
<text text-anchor="middle" x="233" y="-7.5" font-family="Helvetica,sans-Serif" font-size="10.00">carta::VectorField</text>
</a>
</g>
</g>
<!-- Node2 -->
<g id="node2" class="node">
<title>Node2</title>
<g id="a_node2"><a xlink:title=" ">
<polygon fill="none" stroke="#bfbfbf" points="0,-144.5 0,-163.5 50,-163.5 50,-144.5 0,-144.5"/>
<text text-anchor="middle" x="25" y="-151.5" font-family="Helvetica,sans-Serif" font-size="10.00">double</text>
</a>
</g>
</g>
<!-- Node2&#45;&gt;Node1 -->
<g id="edge1" class="edge">
<title>Node2&#45;&gt;Node1</title>
<path fill="none" stroke="#9a32cd" stroke-dasharray="5,2" d="M21.47,-134.42C17.81,-108.92 15.69,-63.35 41,-38 60.27,-18.71 132.03,-13.02 182.14,-11.44"/>
<polygon fill="#9a32cd" stroke="#9a32cd" points="18.02,-135.01 23.12,-144.29 24.93,-133.86 18.02,-135.01"/>
<text text-anchor="middle" x="67" y="-90.5" font-family="Helvetica,sans-Serif" font-size="10.00"> _q_error</text>
<text text-anchor="middle" x="67" y="-79.5" font-family="Helvetica,sans-Serif" font-size="10.00">_threshold</text>
<text text-anchor="middle" x="67" y="-68.5" font-family="Helvetica,sans-Serif" font-size="10.00">_u_error</text>
</g>
<!-- Node3 -->
<g id="node3" class="node">
<title>Node3</title>
<g id="a_node3"><a xlink:title=" ">
<polygon fill="none" stroke="#bfbfbf" points="81,-144.5 81,-163.5 119,-163.5 119,-144.5 81,-144.5"/>
<text text-anchor="middle" x="100" y="-151.5" font-family="Helvetica,sans-Serif" font-size="10.00">float</text>
</a>
</g>
</g>
<!-- Node3&#45;&gt;Node1 -->
<g id="edge2" class="edge">
<title>Node3&#45;&gt;Node1</title>
<path fill="none" stroke="#9a32cd" stroke-dasharray="5,2" d="M97.32,-134.34C94.83,-109.09 94.57,-64.17 119,-38 127.85,-28.52 156.16,-21.79 182.35,-17.41"/>
<polygon fill="#9a32cd" stroke="#9a32cd" points="93.87,-134.92 98.55,-144.43 100.82,-134.08 93.87,-134.92"/>
<text text-anchor="middle" x="174" y="-79.5" font-family="Helvetica,sans-Serif" font-size="10.00"> _compression_quality</text>
</g>
<!-- Node4 -->
<g id="node4" class="node">
<title>Node4</title>
<g id="a_node4"><a xlink:title=" ">
<polygon fill="none" stroke="#bfbfbf" points="181.5,-144.5 181.5,-163.5 284.5,-163.5 284.5,-144.5 181.5,-144.5"/>
<text text-anchor="middle" x="233" y="-151.5" font-family="Helvetica,sans-Serif" font-size="10.00">CompressionType</text>
</a>
</g>
</g>
<!-- Node4&#45;&gt;Node1 -->
<g id="edge3" class="edge">
<title>Node4&#45;&gt;Node1</title>
<path fill="none" stroke="#9a32cd" stroke-dasharray="5,2" d="M233,-134.11C233,-102.93 233,-41.93 233,-19.52"/>
<polygon fill="#9a32cd" stroke="#9a32cd" points="229.5,-134.12 233,-144.12 236.5,-134.12 229.5,-134.12"/>
<text text-anchor="middle" x="282" y="-79.5" font-family="Helvetica,sans-Serif" font-size="10.00"> _compression_type</text>
</g>
<!-- Node5 -->
<g id="node5" class="node">
<title>Node5</title>
<g id="a_node5"><a xlink:title=" ">
<polygon fill="none" stroke="#bfbfbf" points="339.5,-144.5 339.5,-163.5 368.5,-163.5 368.5,-144.5 339.5,-144.5"/>
<text text-anchor="middle" x="354" y="-151.5" font-family="Helvetica,sans-Serif" font-size="10.00">int</text>
</a>
</g>
</g>
<!-- Node5&#45;&gt;Node1 -->
<g id="edge4" class="edge">
<title>Node5&#45;&gt;Node1</title>
<path fill="none" stroke="#9a32cd" stroke-dasharray="5,2" d="M352.79,-134.32C350.54,-105.42 344.74,-51.76 332,-38 319.6,-24.6 301.25,-17.6 283.72,-14.03"/>
<polygon fill="#9a32cd" stroke="#9a32cd" points="349.31,-134.64 353.51,-144.37 356.29,-134.15 349.31,-134.64"/>
<text text-anchor="middle" x="396.5" y="-96" font-family="Helvetica,sans-Serif" font-size="10.00"> _file_id</text>
<text text-anchor="middle" x="396.5" y="-85" font-family="Helvetica,sans-Serif" font-size="10.00">_smoothing_factor</text>
<text text-anchor="middle" x="396.5" y="-74" font-family="Helvetica,sans-Serif" font-size="10.00">_stokes_angle</text>
<text text-anchor="middle" x="396.5" y="-63" font-family="Helvetica,sans-Serif" font-size="10.00">_stokes_intensity</text>
</g>
<!-- Node6 -->
<g id="node6" class="node">
<title>Node6</title>
<g id="a_node6"><a xlink:title=" ">
<polygon fill="none" stroke="#bfbfbf" points="449,-144.5 449,-163.5 487,-163.5 487,-144.5 449,-144.5"/>
<text text-anchor="middle" x="468" y="-151.5" font-family="Helvetica,sans-Serif" font-size="10.00">bool</text>
</a>
</g>
</g>
<!-- Node6&#45;&gt;Node1 -->
<g id="edge5" class="edge">
<title>Node6&#45;&gt;Node1</title>
<path fill="none" stroke="#9a32cd" stroke-dasharray="5,2" d="M470.47,-134.25C472.71,-108.54 472.33,-62.73 446,-38 423.24,-16.63 339.08,-11.67 283.61,-10.79"/>
<polygon fill="#9a32cd" stroke="#9a32cd" points="466.99,-133.89 469.39,-144.21 473.95,-134.65 466.99,-133.89"/>
<text text-anchor="middle" x="518" y="-118" font-family="Helvetica,sans-Serif" font-size="10.00"> _calculate_pa</text>
<text text-anchor="middle" x="518" y="-107" font-family="Helvetica,sans-Serif" font-size="10.00">_calculate_pi</text>
<text text-anchor="start" x="471" y="-96" font-family="Helvetica,sans-Serif" font-size="10.00">_current_stokes_as</text>
<text text-anchor="middle" x="518" y="-85" font-family="Helvetica,sans-Serif" font-size="10.00">_pa</text>
<text text-anchor="start" x="471" y="-74" font-family="Helvetica,sans-Serif" font-size="10.00">_current_stokes</text>
<text text-anchor="middle" x="518" y="-63" font-family="Helvetica,sans-Serif" font-size="10.00">_as_pi</text>
<text text-anchor="middle" x="518" y="-52" font-family="Helvetica,sans-Serif" font-size="10.00">_debiasing</text>
<text text-anchor="middle" x="518" y="-41" font-family="Helvetica,sans-Serif" font-size="10.00">_fractional</text>
</g>
</g>
</svg>
        <g id="navigator" transform="translate(0 0)" fill="#404254">
                <rect fill="#f2f5e9" fill-opacity="0.5" stroke="#606060" stroke-width=".5" x="0" y="0" width="60" height="60"/>
                <use id="zoomplus" xlink:href="#zoomPlus" x="17" y="9" onmousedown="handleZoom(evt,'in')"/>
                <use id="zoomminus" xlink:href="#zoomMin" x="42" y="9" onmousedown="handleZoom(evt,'out')"/>
                <use id="reset" xlink:href="#resetDef" x="30" y="36" onmousedown="handleReset()"/>
                <g id="arrowUp" xlink:href="#dirArrow" transform="translate(30 24)" onmousedown="handlePan(0,-1)">
                  <use xlink:href="#rim" fill="#404040">
                        <set attributeName="fill" to="#808080" begin="arrowUp.mouseover" end="arrowUp.mouseout"/>
                  </use>
                  <path fill="none" stroke="white" stroke-width="1.5" d="M0,-3.0v7 M-2.5,-0.5L0,-3.0L2.5,-0.5"/>
                </g>
                <g id="arrowRight" xlink:href="#dirArrow" transform="rotate(90) translate(36 -43)" onmousedown="handlePan(1,0)">
                  <use xlink:href="#rim" fill="#404040">
                        <set attributeName="fill" to="#808080" begin="arrowRight.mouseover" end="arrowRight.mouseout"/>
                  </use>
                  <path fill="none" stroke="white" stroke-width="1.5" d="M0,-3.0v7 M-2.5,-0.5L0,-3.0L2.5,-0.5"/>
                </g>
                <g id="arrowDown" xlink:href="#dirArrow" transform="rotate(180) translate(-30 -48)" onmousedown="handlePan(0,1)">
                  <use xlink:href="#rim" fill="#404040">
                        <set attributeName="fill" to="#808080" begin="arrowDown.mouseover" end="arrowDown.mouseout"/>
                  </use>
                  <path fill="none" stroke="white" stroke-width="1.5" d="M0,-3.0v7 M-2.5,-0.5L0,-3.0L2.5,-0.5"/>
                </g>
                <g id="arrowLeft" xlink:href="#dirArrow" transform="rotate(270) translate(-36 17)" onmousedown="handlePan(-1,0)">
                  <use xlink:href="#rim" fill="#404040">
                        <set attributeName="fill" to="#808080" begin="arrowLeft.mouseover" end="arrowLeft.mouseout"/>
                  </use>
                  <path fill="none" stroke="white" stroke-width="1.5" d="M0,-3.0v7 M-2.5,-0.5L0,-3.0L2.5,-0.5"/>
                </g>
        </g>
        <svg viewBox="0 0 15 15" width="100%" height="30px" preserveAspectRatio="xMaxYMin meet">
         <g id="arrow_out" transform="scale(0.3 0.3)">
          <a xlink:href="classcarta_1_1VectorField__coll__graph_org.svg" target="_base">
           <rect id="button" ry="5" rx="5" y="6" x="6" height="38" width="38"
                fill="#f2f5e9" fill-opacity="0.5" stroke="#606060" stroke-width="1.0"/>
           <path id="arrow"
             d="M 11.500037,31.436501 C 11.940474,20.09759 22.043105,11.32322 32.158766,21.979434 L 37.068811,17.246167 C 37.068811,17.246167 37.088388,32 37.088388,32 L 22.160133,31.978069 C 22.160133,31.978069 26.997745,27.140456 26.997745,27.140456 C 18.528582,18.264221 13.291696,25.230495 11.500037,31.436501 z"
             style="fill:#404040;"/>
          </a>
         </g>
        </svg>
</svg>
