<?xml version="1.0" encoding="UTF-8" standalone="no"?>
<!DOCTYPE svg PUBLIC "-//W3C//DTD SVG 1.1//EN"
 "http://www.w3.org/Graphics/SVG/1.1/DTD/svg11.dtd">
<!-- Generated by graphviz version 2.43.0 (0)
 -->
<!-- Title: carta::FileLoader::GetStokesImage Pages: 1 -->
<!--zoomable 345 -->
<svg id="main" version="1.1" xmlns="http://www.w3.org/2000/svg" xmlns:xlink="http://www.w3.org/1999/xlink" xml:space="preserve" onload="init(evt)">
<style type="text/css"><![CDATA[
.edge:hover path { stroke: red; }
.edge:hover polygon { stroke: red; fill: red; }
]]></style>
<script type="text/javascript"><![CDATA[
var edges = document.getElementsByTagName('g');
if (edges && edges.length) {
  for (var i=0;i<edges.length;i++) {
    if (edges[i].id.substr(0,4)=='edge') {
      edges[i].setAttribute('class','edge');
    }
  }
}
]]></script>
        <defs>
                <circle id="rim" cx="0" cy="0" r="7"/>
                <circle id="rim2" cx="0" cy="0" r="3.5"/>
                <g id="zoomPlus">
                        <use xlink:href="#rim" fill="#404040">
                                <set attributeName="fill" to="#808080" begin="zoomplus.mouseover" end="zoomplus.mouseout"/>
                        </use>
                        <path d="M-4,0h8M0,-4v8" fill="none" stroke="white" stroke-width="1.5" pointer-events="none"/>
                </g>
                <g id="zoomMin">
                        <use xlink:href="#rim" fill="#404040">
                                <set attributeName="fill" to="#808080" begin="zoomminus.mouseover" end="zoomminus.mouseout"/>
                        </use>
                        <path d="M-4,0h8" fill="none" stroke="white" stroke-width="1.5" pointer-events="none"/>
                </g>
                <g id="dirArrow">
                        <path fill="none" stroke="white" stroke-width="1.5" d="M0,-3.0v7 M-2.5,-0.5L0,-3.0L2.5,-0.5"/>
                </g>
               <g id="resetDef">
                       <use xlink:href="#rim2" fill="#404040">
                               <set attributeName="fill" to="#808080" begin="reset.mouseover" end="reset.mouseout"/>
                       </use>
               </g>
        </defs>

<script type="text/javascript">
var viewWidth = 572;
var viewHeight = 345;
var sectionId = 'dynsection-20';
</script>
<script xlink:href="svgpan.js"/>
<svg id="graph" class="graph">
<g id="viewport">
<title>carta::FileLoader::GetStokesImage</title>
<!-- Node1 -->
<g id="node1" class="node">
<title>Node1</title>
<g id="a_node1"><a xlink:title=" ">
<polygon fill="#bfbfbf" stroke="black" points="0,-147.5 0,-177.5 104,-177.5 104,-147.5 0,-147.5"/>
<text text-anchor="start" x="8" y="-165.5" font-family="Helvetica,sans-Serif" font-size="10.00">carta::FileLoader::</text>
<text text-anchor="middle" x="52" y="-154.5" font-family="Helvetica,sans-Serif" font-size="10.00">GetStokesImage</text>
</a>
</g>
</g>
<!-- Node2 -->
<g id="node2" class="node">
<title>Node2</title>
<g id="a_node2"><a xlink:href="classcarta_1_1PolarizationCalculator.html#af6937bd807c038cf00fd0cc89ae9c2e8" target="_top" xlink:title=" ">
<polygon fill="none" stroke="black" points="140,-306.5 140,-336.5 343,-336.5 343,-306.5 140,-306.5"/>
<text text-anchor="start" x="148" y="-324.5" font-family="Helvetica,sans-Serif" font-size="10.00">carta::PolarizationCalculator</text>
<text text-anchor="middle" x="241.5" y="-313.5" font-family="Helvetica,sans-Serif" font-size="10.00">::ComputeFractionalPolarizedIntensity</text>
</a>
</g>
</g>
<!-- Node1&#45;&gt;Node2 -->
<g id="edge1" class="edge">
<title>Node1&#45;&gt;Node2</title>
<path fill="none" stroke="midnightblue" d="M58.4,-177.79C69.22,-206.09 96.32,-266.55 140,-297.5 142.11,-299 144.31,-300.4 146.57,-301.72"/>
<polygon fill="midnightblue" stroke="midnightblue" points="145.09,-304.89 155.58,-306.38 148.3,-298.68 145.09,-304.89"/>
</g>
<!-- Node6 -->
<g id="node6" class="node">
<title>Node6</title>
<g id="a_node6"><a xlink:href="classcarta_1_1PolarizationCalculator.html#ab48307d44c2a4541caa908d24a3683a0" target="_top" xlink:title=" ">
<polygon fill="none" stroke="black" points="164,-147.5 164,-177.5 319,-177.5 319,-147.5 164,-147.5"/>
<text text-anchor="start" x="172" y="-165.5" font-family="Helvetica,sans-Serif" font-size="10.00">carta::PolarizationCalculator</text>
<text text-anchor="middle" x="241.5" y="-154.5" font-family="Helvetica,sans-Serif" font-size="10.00">::ComputePolarizedAngle</text>
</a>
</g>
</g>
<!-- Node1&#45;&gt;Node6 -->
<g id="edge5" class="edge">
<title>Node1&#45;&gt;Node6</title>
<path fill="none" stroke="midnightblue" d="M104.24,-162.5C119.5,-162.5 136.67,-162.5 153.55,-162.5"/>
<polygon fill="midnightblue" stroke="midnightblue" points="154,-166 164,-162.5 154,-159 154,-166"/>
</g>
<!-- Node7 -->
<g id="node7" class="node">
<title>Node7</title>
<g id="a_node7"><a xlink:href="classcarta_1_1PolarizationCalculator.html#a2cb6200df64e7dde3eacf173a97f894c" target="_top" xlink:title=" ">
<polygon fill="none" stroke="black" points="164,-257.5 164,-287.5 319,-287.5 319,-257.5 164,-257.5"/>
<text text-anchor="start" x="172" y="-275.5" font-family="Helvetica,sans-Serif" font-size="10.00">carta::PolarizationCalculator</text>
<text text-anchor="middle" x="241.5" y="-264.5" font-family="Helvetica,sans-Serif" font-size="10.00">::ComputePolarizedIntensity</text>
</a>
</g>
</g>
<!-- Node1&#45;&gt;Node7 -->
<g id="edge7" class="edge">
<title>Node1&#45;&gt;Node7</title>
<path fill="none" stroke="midnightblue" d="M64.18,-177.57C79.25,-196.77 107.91,-229.6 140,-247.5 144.55,-250.04 149.35,-252.32 154.29,-254.37"/>
<polygon fill="midnightblue" stroke="midnightblue" points="153.35,-257.76 163.94,-258.04 155.84,-251.21 153.35,-257.76"/>
</g>
<!-- Node8 -->
<g id="node8" class="node">
<title>Node8</title>
<g id="a_node8"><a xlink:href="classcarta_1_1PolarizationCalculator.html#a5285a6db684ea0071d71b95458923c4c" target="_top" xlink:title=" ">
<polygon fill="none" stroke="black" points="150,-197 150,-238 333,-238 333,-197 150,-197"/>
<text text-anchor="start" x="158" y="-226" font-family="Helvetica,sans-Serif" font-size="10.00">carta::PolarizationCalculator</text>
<text text-anchor="start" x="158" y="-215" font-family="Helvetica,sans-Serif" font-size="10.00">::ComputeTotalFractionalPolarized</text>
<text text-anchor="middle" x="241.5" y="-204" font-family="Helvetica,sans-Serif" font-size="10.00">Intensity</text>
</a>
</g>
</g>
<!-- Node1&#45;&gt;Node8 -->
<g id="edge11" class="edge">
<title>Node1&#45;&gt;Node8</title>
<path fill="none" stroke="midnightblue" d="M104.24,-177.53C121.67,-182.64 141.6,-188.49 160.73,-194.1"/>
<polygon fill="midnightblue" stroke="midnightblue" points="159.77,-197.47 170.35,-196.92 161.74,-190.75 159.77,-197.47"/>
</g>
<!-- Node10 -->
<g id="node10" class="node">
<title>Node10</title>
<g id="a_node10"><a xlink:href="classcarta_1_1PolarizationCalculator.html#a0c5c13e6761ffb096ac20ab00190367a" target="_top" xlink:title=" ">
<polygon fill="none" stroke="black" points="152.5,-98.5 152.5,-128.5 330.5,-128.5 330.5,-98.5 152.5,-98.5"/>
<text text-anchor="start" x="160.5" y="-116.5" font-family="Helvetica,sans-Serif" font-size="10.00">carta::PolarizationCalculator</text>
<text text-anchor="middle" x="241.5" y="-105.5" font-family="Helvetica,sans-Serif" font-size="10.00">::ComputeTotalPolarizedIntensity</text>
</a>
</g>
</g>
<!-- Node1&#45;&gt;Node10 -->
<g id="edge15" class="edge">
<title>Node1&#45;&gt;Node10</title>
<path fill="none" stroke="midnightblue" d="M104.01,-148.2C115.81,-144.95 128.33,-141.56 140,-138.5 149.46,-136.02 159.43,-133.47 169.27,-130.98"/>
<polygon fill="midnightblue" stroke="midnightblue" points="170.21,-134.35 179.05,-128.52 168.5,-127.57 170.21,-134.35"/>
</g>
<!-- Node11 -->
<g id="node11" class="node">
<title>Node11</title>
<g id="a_node11"><a xlink:href="classcarta_1_1FileLoader.html#ad006f05ccd020be05834212598e3a38b" target="_top" xlink:title=" ">
<polygon fill="none" stroke="black" points="189.5,-49.5 189.5,-79.5 293.5,-79.5 293.5,-49.5 189.5,-49.5"/>
<text text-anchor="start" x="197.5" y="-67.5" font-family="Helvetica,sans-Serif" font-size="10.00">carta::FileLoader::</text>
<text text-anchor="middle" x="241.5" y="-56.5" font-family="Helvetica,sans-Serif" font-size="10.00">GetImage</text>
</a>
</g>
</g>
<!-- Node1&#45;&gt;Node11 -->
<g id="edge19" class="edge">
<title>Node1&#45;&gt;Node11</title>
<path fill="none" stroke="midnightblue" d="M66.88,-147.28C82.91,-130.64 110.83,-104.35 140,-89.5 152.13,-83.32 165.87,-78.61 179.22,-75.04"/>
<polygon fill="midnightblue" stroke="midnightblue" points="180.45,-78.34 189.31,-72.53 178.76,-71.55 180.45,-78.34"/>
</g>
<!-- Node14 -->
<g id="node14" class="node">
<title>Node14</title>
<g id="a_node14"><a xlink:href="structStokesSource.html#a7651d6cbedb427f5c00925c5111feac8" target="_top" xlink:title=" ">
<polygon fill="none" stroke="black" points="174.5,-0.5 174.5,-30.5 308.5,-30.5 308.5,-0.5 174.5,-0.5"/>
<text text-anchor="start" x="182.5" y="-18.5" font-family="Helvetica,sans-Serif" font-size="10.00">StokesSource::IsOriginal</text>
<text text-anchor="middle" x="241.5" y="-7.5" font-family="Helvetica,sans-Serif" font-size="10.00">Image</text>
</a>
</g>
</g>
<!-- Node1&#45;&gt;Node14 -->
<g id="edge22" class="edge">
<title>Node1&#45;&gt;Node14</title>
<path fill="none" stroke="midnightblue" d="M59.34,-147.33C71.15,-121.04 99.05,-67.2 140,-39.5 147.53,-34.41 156.01,-30.39 164.78,-27.22"/>
<polygon fill="midnightblue" stroke="midnightblue" points="165.95,-30.52 174.38,-24.11 163.79,-23.87 165.95,-30.52"/>
</g>
<!-- Node3 -->
<g id="node3" class="node">
<title>Node3</title>
<g id="a_node3"><a xlink:href="classcarta_1_1PolarizationCalculator.html#a972eab3776df84d99cbd231b49e3a969" target="_top" xlink:title=" ">
<polygon fill="none" stroke="black" points="394,-202.5 394,-232.5 549,-232.5 549,-202.5 394,-202.5"/>
<text text-anchor="start" x="402" y="-220.5" font-family="Helvetica,sans-Serif" font-size="10.00">carta::PolarizationCalculator</text>
<text text-anchor="middle" x="471.5" y="-209.5" font-family="Helvetica,sans-Serif" font-size="10.00">::FiddleStokesCoordinate</text>
</a>
</g>
</g>
<!-- Node2&#45;&gt;Node3 -->
<g id="edge2" class="edge">
<title>Node2&#45;&gt;Node3</title>
<path fill="none" stroke="midnightblue" d="M326.79,-306.43C332.5,-303.89 337.97,-300.94 343,-297.5 366.2,-281.63 356.31,-262.09 379,-245.5 383.44,-242.25 388.27,-239.38 393.3,-236.83"/>
<polygon fill="midnightblue" stroke="midnightblue" points="394.92,-239.94 402.55,-232.6 392,-233.58 394.92,-239.94"/>
</g>
<!-- Node4 -->
<g id="node4" class="node">
<title>Node4</title>
<g id="a_node4"><a xlink:href="classcarta_1_1PolarizationCalculator.html#af800918471188ab3eb863931a4f89dfe" target="_top" xlink:title=" ">
<polygon fill="none" stroke="black" points="390.5,-304.5 390.5,-334.5 552.5,-334.5 552.5,-304.5 390.5,-304.5"/>
<text text-anchor="start" x="398.5" y="-322.5" font-family="Helvetica,sans-Serif" font-size="10.00">carta::PolarizationCalculator</text>
<text text-anchor="middle" x="471.5" y="-311.5" font-family="Helvetica,sans-Serif" font-size="10.00">::MakePolarizedIntensityNode</text>
</a>
</g>
</g>
<!-- Node2&#45;&gt;Node4 -->
<g id="edge3" class="edge">
<title>Node2&#45;&gt;Node4</title>
<path fill="none" stroke="midnightblue" d="M343.17,-320.62C355.47,-320.51 367.98,-320.4 380.12,-320.29"/>
<polygon fill="midnightblue" stroke="midnightblue" points="380.25,-323.79 390.22,-320.2 380.19,-316.79 380.25,-323.79"/>
</g>
<!-- Node5 -->
<g id="node5" class="node">
<title>Node5</title>
<g id="a_node5"><a xlink:href="classcarta_1_1PolarizationCalculator.html#aa60a0830e45e2bef241b5ce2636a89a5" target="_top" xlink:title=" ">
<polygon fill="none" stroke="black" points="394,-254.5 394,-284.5 549,-284.5 549,-254.5 394,-254.5"/>
<text text-anchor="start" x="402" y="-272.5" font-family="Helvetica,sans-Serif" font-size="10.00">carta::PolarizationCalculator</text>
<text text-anchor="middle" x="471.5" y="-261.5" font-family="Helvetica,sans-Serif" font-size="10.00">::SetImageStokesInfo</text>
</a>
</g>
</g>
<!-- Node2&#45;&gt;Node5 -->
<g id="edge4" class="edge">
<title>Node2&#45;&gt;Node5</title>
<path fill="none" stroke="midnightblue" d="M308.45,-306.46C335.39,-300.32 366.71,-293.17 394.6,-286.81"/>
<polygon fill="midnightblue" stroke="midnightblue" points="395.73,-290.14 404.7,-284.51 394.17,-283.32 395.73,-290.14"/>
</g>
<!-- Node6&#45;&gt;Node3 -->
<g id="edge6" class="edge">
<title>Node6&#45;&gt;Node3</title>
<path fill="none" stroke="midnightblue" d="M304.8,-177.53C333.71,-184.5 368.23,-192.83 398.27,-200.08"/>
<polygon fill="midnightblue" stroke="midnightblue" points="397.73,-203.55 408.27,-202.49 399.37,-196.74 397.73,-203.55"/>
</g>
<!-- Node7&#45;&gt;Node3 -->
<g id="edge8" class="edge">
<title>Node7&#45;&gt;Node3</title>
<path fill="none" stroke="midnightblue" d="M304.8,-257.47C333.71,-250.5 368.23,-242.17 398.27,-234.92"/>
<polygon fill="midnightblue" stroke="midnightblue" points="399.37,-238.26 408.27,-232.51 397.73,-231.45 399.37,-238.26"/>
</g>
<!-- Node7&#45;&gt;Node4 -->
<g id="edge9" class="edge">
<title>Node7&#45;&gt;Node4</title>
<path fill="none" stroke="midnightblue" d="M315.27,-287.5C338.3,-292.25 363.93,-297.53 387.62,-302.42"/>
<polygon fill="midnightblue" stroke="midnightblue" points="387.14,-305.89 397.64,-304.48 388.55,-299.03 387.14,-305.89"/>
</g>
<!-- Node7&#45;&gt;Node5 -->
<g id="edge10" class="edge">
<title>Node7&#45;&gt;Node5</title>
<path fill="none" stroke="midnightblue" d="M319.05,-271.49C339.83,-271.22 362.47,-270.92 383.76,-270.64"/>
<polygon fill="midnightblue" stroke="midnightblue" points="383.81,-274.14 393.76,-270.51 383.71,-267.14 383.81,-274.14"/>
</g>
<!-- Node8&#45;&gt;Node3 -->
<g id="edge12" class="edge">
<title>Node8&#45;&gt;Node3</title>
<path fill="none" stroke="midnightblue" d="M333.27,-217.5C349.93,-217.5 367.28,-217.5 383.81,-217.5"/>
<polygon fill="midnightblue" stroke="midnightblue" points="383.99,-221 393.99,-217.5 383.99,-214 383.99,-221"/>
</g>
<!-- Node8&#45;&gt;Node5 -->
<g id="edge14" class="edge">
<title>Node8&#45;&gt;Node5</title>
<path fill="none" stroke="midnightblue" d="M332.61,-238.05C353.16,-242.74 374.8,-247.67 394.68,-252.21"/>
<polygon fill="midnightblue" stroke="midnightblue" points="394.07,-255.66 404.6,-254.47 395.62,-248.83 394.07,-255.66"/>
</g>
<!-- Node9 -->
<g id="node9" class="node">
<title>Node9</title>
<g id="a_node9"><a xlink:href="classcarta_1_1PolarizationCalculator.html#a43f010357e88c2e9676ad43032e88f51" target="_top" xlink:title=" ">
<polygon fill="none" stroke="black" points="379,-149.5 379,-179.5 564,-179.5 564,-149.5 379,-149.5"/>
<text text-anchor="start" x="387" y="-167.5" font-family="Helvetica,sans-Serif" font-size="10.00">carta::PolarizationCalculator</text>
<text text-anchor="middle" x="471.5" y="-156.5" font-family="Helvetica,sans-Serif" font-size="10.00">::MakeTotalPolarizedIntensityNode</text>
</a>
</g>
</g>
<!-- Node8&#45;&gt;Node9 -->
<g id="edge13" class="edge">
<title>Node8&#45;&gt;Node9</title>
<path fill="none" stroke="midnightblue" d="M330.98,-196.93C352.38,-191.96 375.06,-186.69 395.76,-181.87"/>
<polygon fill="midnightblue" stroke="midnightblue" points="396.8,-185.22 405.75,-179.55 395.22,-178.41 396.8,-185.22"/>
</g>
<!-- Node10&#45;&gt;Node3 -->
<g id="edge16" class="edge">
<title>Node10&#45;&gt;Node3</title>
<path fill="none" stroke="midnightblue" d="M324.49,-128.51C331.02,-131.29 337.29,-134.59 343,-138.5 365.9,-154.17 356.53,-173.23 379,-189.5 383.46,-192.73 388.29,-195.59 393.34,-198.12"/>
<polygon fill="midnightblue" stroke="midnightblue" points="392.04,-201.38 402.6,-202.34 394.95,-195.01 392.04,-201.38"/>
</g>
<!-- Node10&#45;&gt;Node5 -->
<g id="edge18" class="edge">
<title>Node10&#45;&gt;Node5</title>
<path fill="none" stroke="midnightblue" d="M328.93,-128.51C334,-131.32 338.75,-134.62 343,-138.5 379.1,-171.51 343.62,-208.72 379,-242.5 381.46,-244.84 384.11,-246.99 386.9,-248.94"/>
<polygon fill="midnightblue" stroke="midnightblue" points="385.32,-252.08 395.68,-254.28 388.95,-246.1 385.32,-252.08"/>
</g>
<!-- Node10&#45;&gt;Node9 -->
<g id="edge17" class="edge">
<title>Node10&#45;&gt;Node9</title>
<path fill="none" stroke="midnightblue" d="M309.67,-128.53C336,-134.41 366.35,-141.2 393.55,-147.29"/>
<polygon fill="midnightblue" stroke="midnightblue" points="392.89,-150.73 403.41,-149.49 394.42,-143.89 392.89,-150.73"/>
</g>
<!-- Node12 -->
<g id="node12" class="node">
<title>Node12</title>
<g id="a_node12"><a xlink:href="classcarta_1_1FileLoader.html#a1ec9887a1de28cd550d9ebe22f016976" target="_top" xlink:title=" ">
<polygon fill="none" stroke="black" points="414.5,-47.5 414.5,-77.5 528.5,-77.5 528.5,-47.5 414.5,-47.5"/>
<text text-anchor="start" x="422.5" y="-65.5" font-family="Helvetica,sans-Serif" font-size="10.00">carta::FileLoader::</text>
<text text-anchor="middle" x="471.5" y="-54.5" font-family="Helvetica,sans-Serif" font-size="10.00">IsComplexDataType</text>
</a>
</g>
</g>
<!-- Node11&#45;&gt;Node12 -->
<g id="edge20" class="edge">
<title>Node11&#45;&gt;Node12</title>
<path fill="none" stroke="midnightblue" d="M293.67,-64.05C326.29,-63.76 368.9,-63.39 404.11,-63.08"/>
<polygon fill="midnightblue" stroke="midnightblue" points="404.34,-66.58 414.31,-62.99 404.28,-59.58 404.34,-66.58"/>
</g>
<!-- Node13 -->
<g id="node13" class="node">
<title>Node13</title>
<g id="a_node13"><a xlink:href="classcarta_1_1FileLoader.html#aa94f8789f059e022e03e1e5a1da942eb" target="_top" xlink:title=" ">
<polygon fill="none" stroke="black" points="419.5,-96.5 419.5,-126.5 523.5,-126.5 523.5,-96.5 419.5,-96.5"/>
<text text-anchor="start" x="427.5" y="-114.5" font-family="Helvetica,sans-Serif" font-size="10.00">carta::FileLoader::</text>
<text text-anchor="middle" x="471.5" y="-103.5" font-family="Helvetica,sans-Serif" font-size="10.00">OpenFile</text>
</a>
</g>
</g>
<!-- Node11&#45;&gt;Node13 -->
<g id="edge21" class="edge">
<title>Node11&#45;&gt;Node13</title>
<path fill="none" stroke="midnightblue" d="M293.67,-75.05C327.87,-82.1 373.05,-91.41 409.18,-98.86"/>
<polygon fill="midnightblue" stroke="midnightblue" points="408.61,-102.32 419.11,-100.91 410.02,-95.46 408.61,-102.32"/>
</g>
<!-- Node15 -->
<g id="node15" class="node">
<title>Node15</title>
<g id="a_node15"><a xlink:href="Stokes_8h.html#a30da07ffd67ed06c1e15e2da4d915e0c" target="_top" xlink:title=" ">
<polygon fill="none" stroke="black" points="418,-6 418,-25 525,-25 525,-6 418,-6"/>
<text text-anchor="middle" x="471.5" y="-13" font-family="Helvetica,sans-Serif" font-size="10.00">IsComputedStokes</text>
</a>
</g>
</g>
<!-- Node14&#45;&gt;Node15 -->
<g id="edge23" class="edge">
<title>Node14&#45;&gt;Node15</title>
<path fill="none" stroke="midnightblue" d="M308.75,-15.5C339.94,-15.5 376.94,-15.5 407.68,-15.5"/>
<polygon fill="midnightblue" stroke="midnightblue" points="407.85,-19 417.85,-15.5 407.85,-12 407.85,-19"/>
</g>
</g>
</svg>
        <g id="navigator" transform="translate(0 0)" fill="#404254">
                <rect fill="#f2f5e9" fill-opacity="0.5" stroke="#606060" stroke-width=".5" x="0" y="0" width="60" height="60"/>
                <use id="zoomplus" xlink:href="#zoomPlus" x="17" y="9" onmousedown="handleZoom(evt,'in')"/>
                <use id="zoomminus" xlink:href="#zoomMin" x="42" y="9" onmousedown="handleZoom(evt,'out')"/>
                <use id="reset" xlink:href="#resetDef" x="30" y="36" onmousedown="handleReset()"/>
                <g id="arrowUp" xlink:href="#dirArrow" transform="translate(30 24)" onmousedown="handlePan(0,-1)">
                  <use xlink:href="#rim" fill="#404040">
                        <set attributeName="fill" to="#808080" begin="arrowUp.mouseover" end="arrowUp.mouseout"/>
                  </use>
                  <path fill="none" stroke="white" stroke-width="1.5" d="M0,-3.0v7 M-2.5,-0.5L0,-3.0L2.5,-0.5"/>
                </g>
                <g id="arrowRight" xlink:href="#dirArrow" transform="rotate(90) translate(36 -43)" onmousedown="handlePan(1,0)">
                  <use xlink:href="#rim" fill="#404040">
                        <set attributeName="fill" to="#808080" begin="arrowRight.mouseover" end="arrowRight.mouseout"/>
                  </use>
                  <path fill="none" stroke="white" stroke-width="1.5" d="M0,-3.0v7 M-2.5,-0.5L0,-3.0L2.5,-0.5"/>
                </g>
                <g id="arrowDown" xlink:href="#dirArrow" transform="rotate(180) translate(-30 -48)" onmousedown="handlePan(0,1)">
                  <use xlink:href="#rim" fill="#404040">
                        <set attributeName="fill" to="#808080" begin="arrowDown.mouseover" end="arrowDown.mouseout"/>
                  </use>
                  <path fill="none" stroke="white" stroke-width="1.5" d="M0,-3.0v7 M-2.5,-0.5L0,-3.0L2.5,-0.5"/>
                </g>
                <g id="arrowLeft" xlink:href="#dirArrow" transform="rotate(270) translate(-36 17)" onmousedown="handlePan(-1,0)">
                  <use xlink:href="#rim" fill="#404040">
                        <set attributeName="fill" to="#808080" begin="arrowLeft.mouseover" end="arrowLeft.mouseout"/>
                  </use>
                  <path fill="none" stroke="white" stroke-width="1.5" d="M0,-3.0v7 M-2.5,-0.5L0,-3.0L2.5,-0.5"/>
                </g>
        </g>
        <svg viewBox="0 0 15 15" width="100%" height="30px" preserveAspectRatio="xMaxYMin meet">
         <g id="arrow_out" transform="scale(0.3 0.3)">
          <a xlink:href="classcarta_1_1FileLoader_a5680d87d09f6ddb4cc1bb1a3d713d2c3_cgraph_org.svg" target="_base">
           <rect id="button" ry="5" rx="5" y="6" x="6" height="38" width="38"
                fill="#f2f5e9" fill-opacity="0.5" stroke="#606060" stroke-width="1.0"/>
           <path id="arrow"
             d="M 11.500037,31.436501 C 11.940474,20.09759 22.043105,11.32322 32.158766,21.979434 L 37.068811,17.246167 C 37.068811,17.246167 37.088388,32 37.088388,32 L 22.160133,31.978069 C 22.160133,31.978069 26.997745,27.140456 26.997745,27.140456 C 18.528582,18.264221 13.291696,25.230495 11.500037,31.436501 z"
             style="fill:#404040;"/>
          </a>
         </g>
        </svg>
</svg>
