<?xml version="1.0" encoding="UTF-8" standalone="no"?>
<!DOCTYPE svg PUBLIC "-//W3C//DTD SVG 1.1//EN"
 "http://www.w3.org/Graphics/SVG/1.1/DTD/svg11.dtd">
<!-- Generated by graphviz version 2.43.0 (0)
 -->
<!-- Title: carta::Ds9ImportExport::Ds9ImportExport Pages: 1 -->
<svg width="323pt" height="186pt"
 viewBox="0.00 0.00 323.00 186.00" xmlns="http://www.w3.org/2000/svg" xmlns:xlink="http://www.w3.org/1999/xlink">
<g id="graph0" class="graph" transform="scale(1 1) rotate(0) translate(4 182)">
<title>carta::Ds9ImportExport::Ds9ImportExport</title>
<!-- Node1 -->
<g id="node1" class="node">
<title>Node1</title>
<g id="a_node1"><a xlink:title=" ">
<polygon fill="#bfbfbf" stroke="black" points="0,-73.5 0,-103.5 130,-103.5 130,-73.5 0,-73.5"/>
<text text-anchor="start" x="8" y="-91.5" font-family="Helvetica,sans-Serif" font-size="10.00">carta::Ds9ImportExport</text>
<text text-anchor="middle" x="65" y="-80.5" font-family="Helvetica,sans-Serif" font-size="10.00">::Ds9ImportExport</text>
</a>
</g>
</g>
<!-- Node2 -->
<g id="node2" class="node">
<title>Node2</title>
<g id="a_node2"><a xlink:href="classcarta_1_1Ds9ImportExport.html#a4b96a19ceeb9a1c10fe31c9f1df7ce96" target="_top" xlink:title=" ">
<polygon fill="none" stroke="black" points="175.5,-147.5 175.5,-177.5 305.5,-177.5 305.5,-147.5 175.5,-147.5"/>
<text text-anchor="start" x="183.5" y="-165.5" font-family="Helvetica,sans-Serif" font-size="10.00">carta::Ds9ImportExport</text>
<text text-anchor="middle" x="240.5" y="-154.5" font-family="Helvetica,sans-Serif" font-size="10.00">::AddHeader</text>
</a>
</g>
</g>
<!-- Node1&#45;&gt;Node2 -->
<g id="edge1" class="edge">
<title>Node1&#45;&gt;Node2</title>
<path fill="none" stroke="midnightblue" d="M93.51,-103.64C113.31,-114.19 140.86,-128.18 166,-138.5 170.69,-140.43 175.6,-142.31 180.56,-144.11"/>
<polygon fill="midnightblue" stroke="midnightblue" points="179.51,-147.46 190.11,-147.49 181.85,-140.86 179.51,-147.46"/>
</g>
<!-- Node3 -->
<g id="node3" class="node">
<title>Node3</title>
<g id="a_node3"><a xlink:href="classcarta_1_1Ds9ImportExport.html#aaac8bab62a7548d289e45ec4b9486c60" target="_top" xlink:title=" ">
<polygon fill="none" stroke="black" points="175.5,-98.5 175.5,-128.5 305.5,-128.5 305.5,-98.5 175.5,-98.5"/>
<text text-anchor="start" x="183.5" y="-116.5" font-family="Helvetica,sans-Serif" font-size="10.00">carta::Ds9ImportExport</text>
<text text-anchor="middle" x="240.5" y="-105.5" font-family="Helvetica,sans-Serif" font-size="10.00">::InitDs9CoordMap</text>
</a>
</g>
</g>
<!-- Node1&#45;&gt;Node3 -->
<g id="edge2" class="edge">
<title>Node1&#45;&gt;Node3</title>
<path fill="none" stroke="midnightblue" d="M130.11,-97.74C141.54,-99.38 153.52,-101.11 165.2,-102.79"/>
<polygon fill="midnightblue" stroke="midnightblue" points="164.96,-106.3 175.36,-104.26 165.96,-99.37 164.96,-106.3"/>
</g>
<!-- Node4 -->
<g id="node4" class="node">
<title>Node4</title>
<g id="a_node4"><a xlink:href="classcarta_1_1Ds9ImportExport.html#a0880d0f323730974dd2acfa7fa0f0fda" target="_top" xlink:title=" ">
<polygon fill="none" stroke="black" points="175.5,-49.5 175.5,-79.5 305.5,-79.5 305.5,-49.5 175.5,-49.5"/>
<text text-anchor="start" x="183.5" y="-67.5" font-family="Helvetica,sans-Serif" font-size="10.00">carta::Ds9ImportExport</text>
<text text-anchor="middle" x="240.5" y="-56.5" font-family="Helvetica,sans-Serif" font-size="10.00">::InitGlobalProperties</text>
</a>
</g>
</g>
<!-- Node1&#45;&gt;Node4 -->
<g id="edge3" class="edge">
<title>Node1&#45;&gt;Node4</title>
<path fill="none" stroke="midnightblue" d="M130.11,-79.63C141.54,-78.05 153.52,-76.39 165.2,-74.78"/>
<polygon fill="midnightblue" stroke="midnightblue" points="165.94,-78.21 175.36,-73.37 164.98,-71.28 165.94,-78.21"/>
</g>
<!-- Node5 -->
<g id="node5" class="node">
<title>Node5</title>
<g id="a_node5"><a xlink:href="classcarta_1_1Ds9ImportExport.html#a6567342006ecbbae65a144260c12cd16" target="_top" xlink:title=" ">
<polygon fill="none" stroke="black" points="166,-0.5 166,-30.5 315,-30.5 315,-0.5 166,-0.5"/>
<text text-anchor="start" x="174" y="-18.5" font-family="Helvetica,sans-Serif" font-size="10.00">carta::Ds9ImportExport</text>
<text text-anchor="middle" x="240.5" y="-7.5" font-family="Helvetica,sans-Serif" font-size="10.00">::SetImageReferenceFrame</text>
</a>
</g>
</g>
<!-- Node1&#45;&gt;Node5 -->
<g id="edge4" class="edge">
<title>Node1&#45;&gt;Node5</title>
<path fill="none" stroke="midnightblue" d="M94.9,-73.49C114.65,-63.52 141.58,-50.47 166,-40.5 171.44,-38.28 177.15,-36.09 182.89,-33.99"/>
<polygon fill="midnightblue" stroke="midnightblue" points="184.29,-37.2 192.53,-30.54 181.94,-30.61 184.29,-37.2"/>
</g>
</g>
</svg>
