<?xml version="1.0" encoding="UTF-8" standalone="no"?>
<!DOCTYPE svg PUBLIC "-//W3C//DTD SVG 1.1//EN"
 "http://www.w3.org/Graphics/SVG/1.1/DTD/svg11.dtd">
<!-- Generated by graphviz version 2.43.0 (0)
 -->
<!-- Title: carta::MomentGenerator::CalculateMoments Pages: 1 -->
<svg width="497pt" height="470pt"
 viewBox="0.00 0.00 497.00 470.00" xmlns="http://www.w3.org/2000/svg" xmlns:xlink="http://www.w3.org/1999/xlink">
<g id="graph0" class="graph" transform="scale(1 1) rotate(0) translate(4 466)">
<title>carta::MomentGenerator::CalculateMoments</title>
<!-- Node1 -->
<g id="node1" class="node">
<title>Node1</title>
<g id="a_node1"><a xlink:title=" ">
<polygon fill="#bfbfbf" stroke="black" points="0,-220.5 0,-250.5 137,-250.5 137,-220.5 0,-220.5"/>
<text text-anchor="start" x="8" y="-238.5" font-family="Helvetica,sans-Serif" font-size="10.00">carta::MomentGenerator</text>
<text text-anchor="middle" x="68.5" y="-227.5" font-family="Helvetica,sans-Serif" font-size="10.00">::CalculateMoments</text>
</a>
</g>
</g>
<!-- Node2 -->
<g id="node2" class="node">
<title>Node2</title>
<g id="a_node2"><a xlink:href="classcarta_1_1MomentGenerator.html#a919bc1d0130fd72f91824ad548135023" target="_top" xlink:title=" ">
<polygon fill="none" stroke="black" points="176,-431.5 176,-461.5 313,-461.5 313,-431.5 176,-431.5"/>
<text text-anchor="start" x="184" y="-449.5" font-family="Helvetica,sans-Serif" font-size="10.00">carta::MomentGenerator</text>
<text text-anchor="middle" x="244.5" y="-438.5" font-family="Helvetica,sans-Serif" font-size="10.00">::GetErrorMessage</text>
</a>
</g>
</g>
<!-- Node1&#45;&gt;Node2 -->
<g id="edge1" class="edge">
<title>Node1&#45;&gt;Node2</title>
<path fill="none" stroke="midnightblue" d="M74.34,-250.53C86,-284.56 118.76,-368.27 173,-416.5 177.33,-420.35 182.23,-423.76 187.38,-426.77"/>
<polygon fill="midnightblue" stroke="midnightblue" points="185.74,-429.86 196.22,-431.45 189.02,-423.68 185.74,-429.86"/>
</g>
<!-- Node3 -->
<g id="node3" class="node">
<title>Node3</title>
<g id="a_node3"><a xlink:href="classcarta_1_1MomentGenerator.html#a2e57bd8fb8135af526944dc3db30749d" target="_top" xlink:title=" ">
<polygon fill="none" stroke="black" points="352,-242.5 352,-272.5 489,-272.5 489,-242.5 352,-242.5"/>
<text text-anchor="start" x="360" y="-260.5" font-family="Helvetica,sans-Serif" font-size="10.00">carta::MomentGenerator</text>
<text text-anchor="middle" x="420.5" y="-249.5" font-family="Helvetica,sans-Serif" font-size="10.00">::GetInputFileName</text>
</a>
</g>
</g>
<!-- Node1&#45;&gt;Node3 -->
<g id="edge2" class="edge">
<title>Node1&#45;&gt;Node3</title>
<path fill="none" stroke="midnightblue" d="M74.73,-250.91C86.46,-282.7 118.22,-354.96 173,-383.5 229.37,-412.86 258.54,-410.66 316,-383.5 360.34,-362.54 392.07,-312.24 407.95,-281.91"/>
<polygon fill="midnightblue" stroke="midnightblue" points="411.15,-283.34 412.54,-272.83 404.9,-280.18 411.15,-283.34"/>
</g>
<!-- Node4 -->
<g id="node4" class="node">
<title>Node4</title>
<g id="a_node4"><a xlink:href="classcarta_1_1MomentGenerator.html#aefca675b86247cabd5021beb462d6a37" target="_top" xlink:title=" ">
<polygon fill="none" stroke="black" points="176,-343.5 176,-373.5 313,-373.5 313,-343.5 176,-343.5"/>
<text text-anchor="start" x="184" y="-361.5" font-family="Helvetica,sans-Serif" font-size="10.00">carta::MomentGenerator</text>
<text text-anchor="middle" x="244.5" y="-350.5" font-family="Helvetica,sans-Serif" font-size="10.00">::GetMomentSuffix</text>
</a>
</g>
</g>
<!-- Node1&#45;&gt;Node4 -->
<g id="edge3" class="edge">
<title>Node1&#45;&gt;Node4</title>
<path fill="none" stroke="midnightblue" d="M81.63,-250.71C99.51,-272.2 134.95,-311.4 173,-334.5 175.76,-336.18 178.66,-337.76 181.63,-339.24"/>
<polygon fill="midnightblue" stroke="midnightblue" points="180.2,-342.43 190.75,-343.41 183.11,-336.07 180.2,-342.43"/>
</g>
<!-- Node5 -->
<g id="node5" class="node">
<title>Node5</title>
<g id="a_node5"><a xlink:href="classcarta_1_1MomentGenerator.html#a2f12ef0e960352180c45f9c5b17efd7d" target="_top" xlink:title=" ">
<polygon fill="none" stroke="black" points="176,-294.5 176,-324.5 313,-324.5 313,-294.5 176,-294.5"/>
<text text-anchor="start" x="184" y="-312.5" font-family="Helvetica,sans-Serif" font-size="10.00">carta::MomentGenerator</text>
<text text-anchor="middle" x="244.5" y="-301.5" font-family="Helvetica,sans-Serif" font-size="10.00">::IsCancelled</text>
</a>
</g>
</g>
<!-- Node1&#45;&gt;Node5 -->
<g id="edge4" class="edge">
<title>Node1&#45;&gt;Node5</title>
<path fill="none" stroke="midnightblue" d="M98.51,-250.69C119.03,-261.14 147.33,-274.98 173,-285.5 177.47,-287.33 182.15,-289.15 186.86,-290.9"/>
<polygon fill="midnightblue" stroke="midnightblue" points="185.96,-294.3 196.56,-294.41 188.35,-287.72 185.96,-294.3"/>
</g>
<!-- Node6 -->
<g id="node6" class="node">
<title>Node6</title>
<g id="a_node6"><a xlink:href="classcarta_1_1MomentGenerator.html#a562b38c84d048b37f2458bb64f21e374" target="_top" xlink:title=" ">
<polygon fill="none" stroke="black" points="176,-245.5 176,-275.5 313,-275.5 313,-245.5 176,-245.5"/>
<text text-anchor="start" x="184" y="-263.5" font-family="Helvetica,sans-Serif" font-size="10.00">carta::MomentGenerator</text>
<text text-anchor="middle" x="244.5" y="-252.5" font-family="Helvetica,sans-Serif" font-size="10.00">::IsSuccess</text>
</a>
</g>
</g>
<!-- Node1&#45;&gt;Node6 -->
<g id="edge5" class="edge">
<title>Node1&#45;&gt;Node6</title>
<path fill="none" stroke="midnightblue" d="M137.27,-245.24C146.69,-246.59 156.43,-247.99 166.01,-249.37"/>
<polygon fill="midnightblue" stroke="midnightblue" points="165.52,-252.83 175.91,-250.79 166.51,-245.9 165.52,-252.83"/>
</g>
<!-- Node7 -->
<g id="node7" class="node">
<title>Node7</title>
<g id="a_node7"><a xlink:href="classcarta_1_1MomentGenerator.html#acaf7fc08b7ea9611c6524d8fdac4c8a9" target="_top" xlink:title=" ">
<polygon fill="none" stroke="black" points="176,-196.5 176,-226.5 313,-226.5 313,-196.5 176,-196.5"/>
<text text-anchor="start" x="184" y="-214.5" font-family="Helvetica,sans-Serif" font-size="10.00">carta::MomentGenerator</text>
<text text-anchor="middle" x="244.5" y="-203.5" font-family="Helvetica,sans-Serif" font-size="10.00">::ResetImageMoments</text>
</a>
</g>
</g>
<!-- Node1&#45;&gt;Node7 -->
<g id="edge6" class="edge">
<title>Node1&#45;&gt;Node7</title>
<path fill="none" stroke="midnightblue" d="M137.27,-226.15C146.69,-224.85 156.43,-223.51 166.01,-222.19"/>
<polygon fill="midnightblue" stroke="midnightblue" points="166.49,-225.66 175.91,-220.82 165.53,-218.72 166.49,-225.66"/>
</g>
<!-- Node8 -->
<g id="node8" class="node">
<title>Node8</title>
<g id="a_node8"><a xlink:href="classcarta_1_1MomentGenerator.html#abcd6aacf4fc48f624f10452876cacca3" target="_top" xlink:title=" ">
<polygon fill="none" stroke="black" points="176,-147.5 176,-177.5 313,-177.5 313,-147.5 176,-147.5"/>
<text text-anchor="start" x="184" y="-165.5" font-family="Helvetica,sans-Serif" font-size="10.00">carta::MomentGenerator</text>
<text text-anchor="middle" x="244.5" y="-154.5" font-family="Helvetica,sans-Serif" font-size="10.00">::SetMomentAxis</text>
</a>
</g>
</g>
<!-- Node1&#45;&gt;Node8 -->
<g id="edge7" class="edge">
<title>Node1&#45;&gt;Node8</title>
<path fill="none" stroke="midnightblue" d="M99.96,-220.46C120.41,-210.59 148.06,-197.68 173,-187.5 178.31,-185.33 183.9,-183.17 189.49,-181.07"/>
<polygon fill="midnightblue" stroke="midnightblue" points="190.71,-184.35 198.88,-177.61 188.29,-177.78 190.71,-184.35"/>
</g>
<!-- Node9 -->
<g id="node9" class="node">
<title>Node9</title>
<g id="a_node9"><a xlink:href="classcarta_1_1MomentGenerator.html#a22e3b7a1f2c37719dee66c1ecb74dab6" target="_top" xlink:title=" ">
<polygon fill="none" stroke="black" points="173,-98.5 173,-128.5 316,-128.5 316,-98.5 173,-98.5"/>
<text text-anchor="start" x="181" y="-116.5" font-family="Helvetica,sans-Serif" font-size="10.00">carta::MomentGenerator</text>
<text text-anchor="middle" x="244.5" y="-105.5" font-family="Helvetica,sans-Serif" font-size="10.00">::SetMomentImageLogger</text>
</a>
</g>
</g>
<!-- Node1&#45;&gt;Node9 -->
<g id="edge8" class="edge">
<title>Node1&#45;&gt;Node9</title>
<path fill="none" stroke="midnightblue" d="M82.04,-220.32C100.15,-199.29 135.56,-161.3 173,-138.5 176.4,-136.43 179.99,-134.5 183.68,-132.7"/>
<polygon fill="midnightblue" stroke="midnightblue" points="185.33,-135.8 193.02,-128.51 182.46,-129.42 185.33,-135.8"/>
</g>
<!-- Node10 -->
<g id="node10" class="node">
<title>Node10</title>
<g id="a_node10"><a xlink:href="classcarta_1_1MomentGenerator.html#a30ecdaf742c16d7dafa01fcef4845845" target="_top" xlink:title=" ">
<polygon fill="none" stroke="black" points="176,-49.5 176,-79.5 313,-79.5 313,-49.5 176,-49.5"/>
<text text-anchor="start" x="184" y="-67.5" font-family="Helvetica,sans-Serif" font-size="10.00">carta::MomentGenerator</text>
<text text-anchor="middle" x="244.5" y="-56.5" font-family="Helvetica,sans-Serif" font-size="10.00">::SetMomentTypes</text>
</a>
</g>
</g>
<!-- Node1&#45;&gt;Node10 -->
<g id="edge10" class="edge">
<title>Node1&#45;&gt;Node10</title>
<path fill="none" stroke="midnightblue" d="M76.24,-220.2C90.08,-190.5 124.53,-124.79 173,-88.5 174.85,-87.11 176.79,-85.81 178.79,-84.57"/>
<polygon fill="midnightblue" stroke="midnightblue" points="180.8,-87.46 187.9,-79.6 177.45,-81.31 180.8,-87.46"/>
</g>
<!-- Node12 -->
<g id="node12" class="node">
<title>Node12</title>
<g id="a_node12"><a xlink:href="classcarta_1_1MomentGenerator.html#ae6edcb070973e556bd3393b8e5f1c928" target="_top" xlink:title=" ">
<polygon fill="none" stroke="black" points="176,-0.5 176,-30.5 313,-30.5 313,-0.5 176,-0.5"/>
<text text-anchor="start" x="184" y="-18.5" font-family="Helvetica,sans-Serif" font-size="10.00">carta::MomentGenerator</text>
<text text-anchor="middle" x="244.5" y="-7.5" font-family="Helvetica,sans-Serif" font-size="10.00">::SetPixelRange</text>
</a>
</g>
</g>
<!-- Node1&#45;&gt;Node12 -->
<g id="edge12" class="edge">
<title>Node1&#45;&gt;Node12</title>
<path fill="none" stroke="midnightblue" d="M73.33,-220.3C83.32,-183.74 113.58,-90.21 173,-39.5 174.51,-38.21 176.1,-36.99 177.74,-35.83"/>
<polygon fill="midnightblue" stroke="midnightblue" points="179.66,-38.76 186.38,-30.57 176.02,-32.78 179.66,-38.76"/>
</g>
<!-- Node9&#45;&gt;Node3 -->
<g id="edge9" class="edge">
<title>Node9&#45;&gt;Node3</title>
<path fill="none" stroke="midnightblue" d="M297.82,-128.58C304.2,-131.41 310.42,-134.7 316,-138.5 353.82,-164.25 386.37,-207.09 404.41,-233.74"/>
<polygon fill="midnightblue" stroke="midnightblue" points="401.51,-235.7 409.96,-242.1 407.35,-231.84 401.51,-235.7"/>
</g>
<!-- Node11 -->
<g id="node11" class="node">
<title>Node11</title>
<g id="a_node11"><a xlink:href="classcarta_1_1MomentGenerator.html#af1595d5da6e76291c15ef5e954e4b77f" target="_top" xlink:title=" ">
<polygon fill="none" stroke="black" points="352,-49.5 352,-79.5 489,-79.5 489,-49.5 352,-49.5"/>
<text text-anchor="start" x="360" y="-67.5" font-family="Helvetica,sans-Serif" font-size="10.00">carta::MomentGenerator</text>
<text text-anchor="middle" x="420.5" y="-56.5" font-family="Helvetica,sans-Serif" font-size="10.00">::GetMomentMode</text>
</a>
</g>
</g>
<!-- Node10&#45;&gt;Node11 -->
<g id="edge11" class="edge">
<title>Node10&#45;&gt;Node11</title>
<path fill="none" stroke="midnightblue" d="M313.27,-64.5C322.59,-64.5 332.22,-64.5 341.7,-64.5"/>
<polygon fill="midnightblue" stroke="midnightblue" points="341.91,-68 351.91,-64.5 341.91,-61 341.91,-68"/>
</g>
</g>
</svg>
