<?xml version="1.0" encoding="UTF-8" standalone="no"?>
<!DOCTYPE svg PUBLIC "-//W3C//DTD SVG 1.1//EN"
 "http://www.w3.org/Graphics/SVG/1.1/DTD/svg11.dtd">
<!-- Generated by graphviz version 2.43.0 (0)
 -->
<!-- Title: carta::RegionHandler::ApplyRegionToFile Pages: 1 -->
<svg width="592pt" height="182pt"
 viewBox="0.00 0.00 592.00 181.60" xmlns="http://www.w3.org/2000/svg" xmlns:xlink="http://www.w3.org/1999/xlink">
<g id="graph0" class="graph" transform="scale(1 1) rotate(0) translate(4 177.6)">
<title>carta::RegionHandler::ApplyRegionToFile</title>
<!-- Node1 -->
<g id="node1" class="node">
<title>Node1</title>
<g id="a_node1"><a xlink:title=" ">
<polygon fill="#bfbfbf" stroke="black" points="0,-87.5 0,-117.5 119,-117.5 119,-87.5 0,-87.5"/>
<text text-anchor="start" x="8" y="-105.5" font-family="Helvetica,sans-Serif" font-size="10.00">carta::RegionHandler</text>
<text text-anchor="middle" x="59.5" y="-94.5" font-family="Helvetica,sans-Serif" font-size="10.00">::ApplyRegionToFile</text>
</a>
</g>
</g>
<!-- Node2 -->
<g id="node2" class="node">
<title>Node2</title>
<g id="a_node2"><a xlink:href="classcarta_1_1RegionHandler.html#ab9501617a3845ac3fa32b6b88c5269eb" target="_top" xlink:title=" ">
<polygon fill="none" stroke="black" points="155,-136.5 155,-166.5 274,-166.5 274,-136.5 155,-136.5"/>
<text text-anchor="start" x="163" y="-154.5" font-family="Helvetica,sans-Serif" font-size="10.00">carta::RegionHandler</text>
<text text-anchor="middle" x="214.5" y="-143.5" font-family="Helvetica,sans-Serif" font-size="10.00">::IsClosedRegion</text>
</a>
</g>
</g>
<!-- Node1&#45;&gt;Node2 -->
<g id="edge1" class="edge">
<title>Node1&#45;&gt;Node2</title>
<path fill="none" stroke="midnightblue" d="M107.65,-117.6C123.14,-122.56 140.52,-128.13 156.65,-133.29"/>
<polygon fill="midnightblue" stroke="midnightblue" points="155.91,-136.73 166.5,-136.45 158.05,-130.07 155.91,-136.73"/>
</g>
<!-- Node5 -->
<g id="node5" class="node">
<title>Node5</title>
<g id="a_node5"><a xlink:href="classcarta_1_1RegionHandler.html#a94d939104654243dec3750ada83b370e" target="_top" xlink:title=" ">
<polygon fill="none" stroke="black" points="155,-87.5 155,-117.5 274,-117.5 274,-87.5 155,-87.5"/>
<text text-anchor="start" x="163" y="-105.5" font-family="Helvetica,sans-Serif" font-size="10.00">carta::RegionHandler</text>
<text text-anchor="middle" x="214.5" y="-94.5" font-family="Helvetica,sans-Serif" font-size="10.00">::IsPointRegion</text>
</a>
</g>
</g>
<!-- Node1&#45;&gt;Node5 -->
<g id="edge5" class="edge">
<title>Node1&#45;&gt;Node5</title>
<path fill="none" stroke="midnightblue" d="M119.22,-102.5C127.54,-102.5 136.17,-102.5 144.67,-102.5"/>
<polygon fill="midnightblue" stroke="midnightblue" points="144.94,-106 154.94,-102.5 144.94,-99 144.94,-106"/>
</g>
<!-- Node6 -->
<g id="node6" class="node">
<title>Node6</title>
<g id="a_node6"><a xlink:href="classcarta_1_1RegionHandler.html#a8c787facbcb265d7fa434e05324f2c9e" target="_top" xlink:title=" ">
<polygon fill="none" stroke="black" points="155,-38.5 155,-68.5 274,-68.5 274,-38.5 155,-38.5"/>
<text text-anchor="start" x="163" y="-56.5" font-family="Helvetica,sans-Serif" font-size="10.00">carta::RegionHandler</text>
<text text-anchor="middle" x="214.5" y="-45.5" font-family="Helvetica,sans-Serif" font-size="10.00">::RegionFileIdsValid</text>
</a>
</g>
</g>
<!-- Node1&#45;&gt;Node6 -->
<g id="edge8" class="edge">
<title>Node1&#45;&gt;Node6</title>
<path fill="none" stroke="midnightblue" d="M107.65,-87.4C123.14,-82.44 140.52,-76.87 156.65,-71.71"/>
<polygon fill="midnightblue" stroke="midnightblue" points="158.05,-74.93 166.5,-68.55 155.91,-68.27 158.05,-74.93"/>
</g>
<!-- Node3 -->
<g id="node3" class="node">
<title>Node3</title>
<g id="a_node3"><a xlink:href="classcarta_1_1RegionHandler.html#a4d3eaa8da979a4b0640aa3b598a9415b" target="_top" xlink:title=" ">
<polygon fill="none" stroke="black" points="310,-126.5 310,-156.5 429,-156.5 429,-126.5 310,-126.5"/>
<text text-anchor="start" x="318" y="-144.5" font-family="Helvetica,sans-Serif" font-size="10.00">carta::RegionHandler</text>
<text text-anchor="middle" x="369.5" y="-133.5" font-family="Helvetica,sans-Serif" font-size="10.00">::GetRegion</text>
</a>
</g>
</g>
<!-- Node2&#45;&gt;Node3 -->
<g id="edge2" class="edge">
<title>Node2&#45;&gt;Node3</title>
<path fill="none" stroke="midnightblue" d="M274.22,-147.66C282.64,-147.11 291.36,-146.54 299.95,-145.98"/>
<polygon fill="midnightblue" stroke="midnightblue" points="300.19,-149.47 309.94,-145.33 299.73,-142.49 300.19,-149.47"/>
</g>
<!-- Node4 -->
<g id="node4" class="node">
<title>Node4</title>
<g id="a_node4"><a xlink:href="classcarta_1_1RegionHandler.html#a9e8b41c9fe29c95b66a44f78490bbcae" target="_top" xlink:title=" ">
<polygon fill="none" stroke="black" points="465,-104.5 465,-134.5 584,-134.5 584,-104.5 465,-104.5"/>
<text text-anchor="start" x="473" y="-122.5" font-family="Helvetica,sans-Serif" font-size="10.00">carta::RegionHandler</text>
<text text-anchor="middle" x="524.5" y="-111.5" font-family="Helvetica,sans-Serif" font-size="10.00">::RegionSet</text>
</a>
</g>
</g>
<!-- Node2&#45;&gt;Node4 -->
<g id="edge4" class="edge">
<title>Node2&#45;&gt;Node4</title>
<path fill="none" stroke="midnightblue" d="M274.25,-164.95C317.56,-172.63 377.64,-178.57 429,-166.5 451.18,-161.29 474.1,-150.05 491.82,-139.88"/>
<polygon fill="midnightblue" stroke="midnightblue" points="493.76,-142.8 500.58,-134.69 490.19,-136.77 493.76,-142.8"/>
</g>
<!-- Node3&#45;&gt;Node4 -->
<g id="edge3" class="edge">
<title>Node3&#45;&gt;Node4</title>
<path fill="none" stroke="midnightblue" d="M429.22,-133.06C437.64,-131.85 446.36,-130.59 454.95,-129.36"/>
<polygon fill="midnightblue" stroke="midnightblue" points="455.54,-132.81 464.94,-127.92 454.54,-125.88 455.54,-132.81"/>
</g>
<!-- Node5&#45;&gt;Node3 -->
<g id="edge6" class="edge">
<title>Node5&#45;&gt;Node3</title>
<path fill="none" stroke="midnightblue" d="M274.22,-117.47C282.73,-119.64 291.55,-121.88 300.23,-124.1"/>
<polygon fill="midnightblue" stroke="midnightblue" points="299.39,-127.49 309.94,-126.57 301.12,-120.71 299.39,-127.49"/>
</g>
<!-- Node5&#45;&gt;Node4 -->
<g id="edge7" class="edge">
<title>Node5&#45;&gt;Node4</title>
<path fill="none" stroke="midnightblue" d="M274.16,-105.74C325.56,-108.57 400.33,-112.7 454.58,-115.7"/>
<polygon fill="midnightblue" stroke="midnightblue" points="454.62,-119.2 464.8,-116.26 455.01,-112.21 454.62,-119.2"/>
</g>
<!-- Node6&#45;&gt;Node4 -->
<g id="edge10" class="edge">
<title>Node6&#45;&gt;Node4</title>
<path fill="none" stroke="midnightblue" d="M274.16,-66.07C325.67,-77.11 400.64,-93.17 454.92,-104.8"/>
<polygon fill="midnightblue" stroke="midnightblue" points="454.29,-108.25 464.8,-106.92 455.75,-101.4 454.29,-108.25"/>
</g>
<!-- Node7 -->
<g id="node7" class="node">
<title>Node7</title>
<g id="a_node7"><a xlink:href="classcarta_1_1RegionHandler.html#a16e8f0e73ba63be909517151bf11a450" target="_top" xlink:title=" ">
<polygon fill="none" stroke="black" points="310,-0.5 310,-30.5 429,-30.5 429,-0.5 310,-0.5"/>
<text text-anchor="start" x="318" y="-18.5" font-family="Helvetica,sans-Serif" font-size="10.00">carta::RegionHandler</text>
<text text-anchor="middle" x="369.5" y="-7.5" font-family="Helvetica,sans-Serif" font-size="10.00">::FrameSet</text>
</a>
</g>
</g>
<!-- Node6&#45;&gt;Node7 -->
<g id="edge9" class="edge">
<title>Node6&#45;&gt;Node7</title>
<path fill="none" stroke="midnightblue" d="M274.22,-38.92C282.73,-36.8 291.55,-34.61 300.23,-32.46"/>
<polygon fill="midnightblue" stroke="midnightblue" points="301.08,-35.85 309.94,-30.04 299.39,-29.06 301.08,-35.85"/>
</g>
</g>
</svg>
