<?xml version="1.0" encoding="UTF-8" standalone="no"?>
<!DOCTYPE svg PUBLIC "-//W3C//DTD SVG 1.1//EN"
 "http://www.w3.org/Graphics/SVG/1.1/DTD/svg11.dtd">
<!-- Generated by graphviz version 2.43.0 (0)
 -->
<!-- Title: carta::RegionHandler::IsPointRegion Pages: 1 -->
<!--zoomable 426 -->
<svg id="main" version="1.1" xmlns="http://www.w3.org/2000/svg" xmlns:xlink="http://www.w3.org/1999/xlink" xml:space="preserve" onload="init(evt)">
<style type="text/css"><![CDATA[
.edge:hover path { stroke: red; }
.edge:hover polygon { stroke: red; fill: red; }
]]></style>
<script type="text/javascript"><![CDATA[
var edges = document.getElementsByTagName('g');
if (edges && edges.length) {
  for (var i=0;i<edges.length;i++) {
    if (edges[i].id.substr(0,4)=='edge') {
      edges[i].setAttribute('class','edge');
    }
  }
}
]]></script>
        <defs>
                <circle id="rim" cx="0" cy="0" r="7"/>
                <circle id="rim2" cx="0" cy="0" r="3.5"/>
                <g id="zoomPlus">
                        <use xlink:href="#rim" fill="#404040">
                                <set attributeName="fill" to="#808080" begin="zoomplus.mouseover" end="zoomplus.mouseout"/>
                        </use>
                        <path d="M-4,0h8M0,-4v8" fill="none" stroke="white" stroke-width="1.5" pointer-events="none"/>
                </g>
                <g id="zoomMin">
                        <use xlink:href="#rim" fill="#404040">
                                <set attributeName="fill" to="#808080" begin="zoomminus.mouseover" end="zoomminus.mouseout"/>
                        </use>
                        <path d="M-4,0h8" fill="none" stroke="white" stroke-width="1.5" pointer-events="none"/>
                </g>
                <g id="dirArrow">
                        <path fill="none" stroke="white" stroke-width="1.5" d="M0,-3.0v7 M-2.5,-0.5L0,-3.0L2.5,-0.5"/>
                </g>
               <g id="resetDef">
                       <use xlink:href="#rim2" fill="#404040">
                               <set attributeName="fill" to="#808080" begin="reset.mouseover" end="reset.mouseout"/>
                       </use>
               </g>
        </defs>

<script type="text/javascript">
var viewWidth = 1178;
var viewHeight = 426;
var sectionId = 'dynsection-63';
</script>
<script xlink:href="svgpan.js"/>
<svg id="graph" class="graph">
<g id="viewport">
<title>carta::RegionHandler::IsPointRegion</title>
<!-- Node1 -->
<g id="node1" class="node">
<title>Node1</title>
<g id="a_node1"><a xlink:title=" ">
<polygon fill="#bfbfbf" stroke="black" points="1051,-190.5 1051,-220.5 1170,-220.5 1170,-190.5 1051,-190.5"/>
<text text-anchor="start" x="1059" y="-208.5" font-family="Helvetica,sans-Serif" font-size="10.00">carta::RegionHandler</text>
<text text-anchor="middle" x="1110.5" y="-197.5" font-family="Helvetica,sans-Serif" font-size="10.00">::IsPointRegion</text>
</a>
</g>
</g>
<!-- Node2 -->
<g id="node2" class="node">
<title>Node2</title>
<g id="a_node2"><a xlink:href="classcarta_1_1RegionHandler.html#a5c734366cb3b4b307c54a66251dd270c" target="_top" xlink:title=" ">
<polygon fill="none" stroke="black" points="882.5,-215.5 882.5,-245.5 1001.5,-245.5 1001.5,-215.5 882.5,-215.5"/>
<text text-anchor="start" x="890.5" y="-233.5" font-family="Helvetica,sans-Serif" font-size="10.00">carta::RegionHandler</text>
<text text-anchor="middle" x="942" y="-222.5" font-family="Helvetica,sans-Serif" font-size="10.00">::ApplyRegionToFile</text>
</a>
</g>
</g>
<!-- Node1&#45;&gt;Node2 -->
<g id="edge1" class="edge">
<title>Node1&#45;&gt;Node2</title>
<path fill="none" stroke="midnightblue" d="M1040.58,-215.85C1027.67,-217.79 1014.29,-219.8 1001.73,-221.68"/>
<polygon fill="midnightblue" stroke="midnightblue" points="1041.43,-219.26 1050.8,-214.31 1040.39,-212.34 1041.43,-219.26"/>
</g>
<!-- Node8 -->
<g id="node8" class="node">
<title>Node8</title>
<g id="a_node8"><a xlink:href="classcarta_1_1RegionHandler.html#a0e7c8e5a778bb77b13dc9bdfe48f26bc" target="_top" xlink:title=" ">
<polygon fill="none" stroke="black" points="683.5,-387.5 683.5,-417.5 832.5,-417.5 832.5,-387.5 683.5,-387.5"/>
<text text-anchor="start" x="691.5" y="-405.5" font-family="Helvetica,sans-Serif" font-size="10.00">carta::RegionHandler</text>
<text text-anchor="middle" x="758" y="-394.5" font-family="Helvetica,sans-Serif" font-size="10.00">::FillPointSpatialProfileData</text>
</a>
</g>
</g>
<!-- Node1&#45;&gt;Node8 -->
<g id="edge21" class="edge">
<title>Node1&#45;&gt;Node8</title>
<path fill="none" stroke="midnightblue" d="M1081.18,-226.53C1032.55,-261.87 929.1,-333.69 833,-378.5 826.02,-381.75 818.48,-384.75 810.98,-387.44"/>
<polygon fill="midnightblue" stroke="midnightblue" points="1083.33,-229.3 1089.34,-220.57 1079.2,-223.65 1083.33,-229.3"/>
</g>
<!-- Node21 -->
<g id="node21" class="node">
<title>Node21</title>
<g id="a_node21"><a xlink:href="classcarta_1_1RegionHandler.html#aaa29bac6b3845d7b15ec257a1683e028" target="_top" xlink:title=" ">
<polygon fill="none" stroke="black" points="872,-166.5 872,-196.5 1012,-196.5 1012,-166.5 872,-166.5"/>
<text text-anchor="start" x="880" y="-184.5" font-family="Helvetica,sans-Serif" font-size="10.00">carta::RegionHandler</text>
<text text-anchor="middle" x="942" y="-173.5" font-family="Helvetica,sans-Serif" font-size="10.00">::SetSpatialRequirements</text>
</a>
</g>
</g>
<!-- Node1&#45;&gt;Node21 -->
<g id="edge22" class="edge">
<title>Node1&#45;&gt;Node21</title>
<path fill="none" stroke="midnightblue" d="M1040.73,-195.59C1031.34,-194.23 1021.69,-192.84 1012.29,-191.49"/>
<polygon fill="midnightblue" stroke="midnightblue" points="1040.4,-199.08 1050.8,-197.04 1041.4,-192.15 1040.4,-199.08"/>
</g>
<!-- Node22 -->
<g id="node22" class="node">
<title>Node22</title>
<g id="a_node22"><a xlink:href="classcarta_1_1RegionHandler.html#ae05f9bc832b30378281c5897edee7339" target="_top" xlink:title=" ">
<polygon fill="none" stroke="black" points="869,-117.5 869,-147.5 1015,-147.5 1015,-117.5 869,-117.5"/>
<text text-anchor="start" x="877" y="-135.5" font-family="Helvetica,sans-Serif" font-size="10.00">carta::RegionHandler</text>
<text text-anchor="middle" x="942" y="-124.5" font-family="Helvetica,sans-Serif" font-size="10.00">::SetSpectralRequirements</text>
</a>
</g>
</g>
<!-- Node1&#45;&gt;Node22 -->
<g id="edge23" class="edge">
<title>Node1&#45;&gt;Node22</title>
<path fill="none" stroke="midnightblue" d="M1073.07,-185.53C1055.74,-176.42 1034.57,-165.82 1015,-157.5 1006.84,-154.03 998.02,-150.66 989.45,-147.59"/>
<polygon fill="midnightblue" stroke="midnightblue" points="1071.79,-188.82 1082.26,-190.42 1075.08,-182.64 1071.79,-188.82"/>
</g>
<!-- Node3 -->
<g id="node3" class="node">
<title>Node3</title>
<g id="a_node3"><a xlink:href="classcarta_1_1RegionHandler.html#aa839bd4075f976babaaa3e2f8d4a4f2f" target="_top" xlink:title=" ">
<polygon fill="none" stroke="black" points="698.5,-338.5 698.5,-368.5 817.5,-368.5 817.5,-338.5 698.5,-338.5"/>
<text text-anchor="start" x="706.5" y="-356.5" font-family="Helvetica,sans-Serif" font-size="10.00">carta::RegionHandler</text>
<text text-anchor="middle" x="758" y="-345.5" font-family="Helvetica,sans-Serif" font-size="10.00">::ApplyRegionToFile</text>
</a>
</g>
</g>
<!-- Node2&#45;&gt;Node3 -->
<g id="edge2" class="edge">
<title>Node2&#45;&gt;Node3</title>
<path fill="none" stroke="midnightblue" d="M921.44,-253.42C901.32,-275.7 868.03,-309.08 833,-329.5 827.17,-332.9 820.79,-335.89 814.3,-338.5"/>
<polygon fill="midnightblue" stroke="midnightblue" points="924.22,-255.56 928.24,-245.76 918.99,-250.91 924.22,-255.56"/>
</g>
<!-- Node4 -->
<g id="node4" class="node">
<title>Node4</title>
<g id="a_node4"><a xlink:href="classcarta_1_1RegionHandler.html#a18c5dbca7dd3627e96767d039a80009d" target="_top" xlink:title=" ">
<polygon fill="none" stroke="black" points="698.5,-289.5 698.5,-319.5 817.5,-319.5 817.5,-289.5 698.5,-289.5"/>
<text text-anchor="start" x="706.5" y="-307.5" font-family="Helvetica,sans-Serif" font-size="10.00">carta::RegionHandler</text>
<text text-anchor="middle" x="758" y="-296.5" font-family="Helvetica,sans-Serif" font-size="10.00">::CalculateMoments</text>
</a>
</g>
</g>
<!-- Node2&#45;&gt;Node4 -->
<g id="edge3" class="edge">
<title>Node2&#45;&gt;Node4</title>
<path fill="none" stroke="midnightblue" d="M901.49,-250.18C881.26,-259.9 856.08,-271.45 833,-280.5 825.08,-283.61 816.57,-286.64 808.25,-289.44"/>
<polygon fill="midnightblue" stroke="midnightblue" points="903.23,-253.23 910.7,-245.72 900.17,-246.93 903.23,-253.23"/>
</g>
<!-- Node5 -->
<g id="node5" class="node">
<title>Node5</title>
<g id="a_node5"><a xlink:href="classcarta_1_1RegionHandler.html#a9fc8e855f922f23cc072d0706f53c805" target="_top" xlink:title=" ">
<polygon fill="none" stroke="black" points="683,-240.5 683,-270.5 833,-270.5 833,-240.5 683,-240.5"/>
<text text-anchor="start" x="691" y="-258.5" font-family="Helvetica,sans-Serif" font-size="10.00">carta::RegionHandler</text>
<text text-anchor="middle" x="758" y="-247.5" font-family="Helvetica,sans-Serif" font-size="10.00">::CalculatePvPreviewImage</text>
</a>
</g>
</g>
<!-- Node2&#45;&gt;Node5 -->
<g id="edge4" class="edge">
<title>Node2&#45;&gt;Node5</title>
<path fill="none" stroke="midnightblue" d="M872.31,-239.94C859.51,-241.69 846.09,-243.54 833.14,-245.32"/>
<polygon fill="midnightblue" stroke="midnightblue" points="872.98,-243.38 882.41,-238.55 872.03,-236.44 872.98,-243.38"/>
</g>
<!-- Node2&#45;&gt;Node8 -->
<g id="edge7" class="edge">
<title>Node2&#45;&gt;Node8</title>
<path fill="none" stroke="midnightblue" d="M925.06,-253.97C898.08,-293.44 845.15,-369.69 833,-378.5 828.3,-381.91 823.09,-384.85 817.67,-387.38"/>
<polygon fill="midnightblue" stroke="midnightblue" points="927.97,-255.92 930.71,-245.69 922.18,-251.98 927.97,-255.92"/>
</g>
<!-- Node9 -->
<g id="node9" class="node">
<title>Node9</title>
<g id="a_node9"><a xlink:href="classcarta_1_1RegionHandler.html#a8a692669b14a98aec1f36f2617910138" target="_top" xlink:title=" ">
<polygon fill="none" stroke="black" points="698.5,-191.5 698.5,-221.5 817.5,-221.5 817.5,-191.5 698.5,-191.5"/>
<text text-anchor="start" x="706.5" y="-209.5" font-family="Helvetica,sans-Serif" font-size="10.00">carta::RegionHandler</text>
<text text-anchor="middle" x="758" y="-198.5" font-family="Helvetica,sans-Serif" font-size="10.00">::FitImage</text>
</a>
</g>
</g>
<!-- Node2&#45;&gt;Node9 -->
<g id="edge8" class="edge">
<title>Node2&#45;&gt;Node9</title>
<path fill="none" stroke="midnightblue" d="M872.3,-221.44C854.35,-219.07 835.17,-216.54 817.79,-214.25"/>
<polygon fill="midnightblue" stroke="midnightblue" points="872.04,-224.94 882.41,-222.77 872.96,-218 872.04,-224.94"/>
</g>
<!-- Node10 -->
<g id="node10" class="node">
<title>Node10</title>
<g id="a_node10"><a xlink:href="classcarta_1_1RegionHandler.html#a7797d9c5eca341dcb490a338fc66967a" target="_top" xlink:title=" ">
<polygon fill="none" stroke="black" points="684,-142.5 684,-172.5 832,-172.5 832,-142.5 684,-142.5"/>
<text text-anchor="start" x="692" y="-160.5" font-family="Helvetica,sans-Serif" font-size="10.00">carta::RegionHandler</text>
<text text-anchor="middle" x="758" y="-149.5" font-family="Helvetica,sans-Serif" font-size="10.00">::GetRegionHistogramData</text>
</a>
</g>
</g>
<!-- Node2&#45;&gt;Node10 -->
<g id="edge9" class="edge">
<title>Node2&#45;&gt;Node10</title>
<path fill="none" stroke="midnightblue" d="M880.6,-211.71C876.63,-210.06 872.73,-208.32 869,-206.5 851.73,-198.05 850.26,-190.98 833,-182.5 825.58,-178.85 817.49,-175.52 809.48,-172.57"/>
<polygon fill="midnightblue" stroke="midnightblue" points="879.38,-214.99 889.97,-215.38 881.93,-208.47 879.38,-214.99"/>
</g>
<!-- Node12 -->
<g id="node12" class="node">
<title>Node12</title>
<g id="a_node12"><a xlink:href="classcarta_1_1RegionHandler.html#aa5624138d4060512518d54f2b6709a25" target="_top" xlink:title=" ">
<polygon fill="none" stroke="black" points="689.5,-93.5 689.5,-123.5 826.5,-123.5 826.5,-93.5 689.5,-93.5"/>
<text text-anchor="start" x="697.5" y="-111.5" font-family="Helvetica,sans-Serif" font-size="10.00">carta::RegionHandler</text>
<text text-anchor="middle" x="758" y="-100.5" font-family="Helvetica,sans-Serif" font-size="10.00">::GetRegionSpectralData</text>
</a>
</g>
</g>
<!-- Node2&#45;&gt;Node12 -->
<g id="edge11" class="edge">
<title>Node2&#45;&gt;Node12</title>
<path fill="none" stroke="midnightblue" d="M873.67,-210.19C872.05,-209.03 870.49,-207.8 869,-206.5 841.74,-182.72 860.22,-157.33 833,-133.5 828.61,-129.66 823.61,-126.4 818.33,-123.64"/>
<polygon fill="midnightblue" stroke="midnightblue" points="871.86,-213.19 882.21,-215.47 875.55,-207.23 871.86,-213.19"/>
</g>
<!-- Node14 -->
<g id="node14" class="node">
<title>Node14</title>
<g id="a_node14"><a xlink:href="classcarta_1_1RegionHandler.html#ab69f418daea6a6ecf8c58ed9434a6242" target="_top" xlink:title=" ">
<polygon fill="none" stroke="black" points="491,-49.5 491,-79.5 647,-79.5 647,-49.5 491,-49.5"/>
<text text-anchor="start" x="499" y="-67.5" font-family="Helvetica,sans-Serif" font-size="10.00">carta::RegionHandler</text>
<text text-anchor="middle" x="569" y="-56.5" font-family="Helvetica,sans-Serif" font-size="10.00">::GetTemporaryRegionProfile</text>
</a>
</g>
</g>
<!-- Node2&#45;&gt;Node14 -->
<g id="edge20" class="edge">
<title>Node2&#45;&gt;Node14</title>
<path fill="none" stroke="midnightblue" d="M873.59,-210.71C871.98,-209.39 870.44,-207.99 869,-206.5 829.73,-165.83 876.96,-120.04 833,-84.5 780.21,-41.82 700.36,-41.87 642.5,-49.46"/>
<polygon fill="midnightblue" stroke="midnightblue" points="872,-213.85 882.24,-216.57 875.93,-208.06 872,-213.85"/>
</g>
<!-- Node19 -->
<g id="node19" class="node">
<title>Node19</title>
<g id="a_node19"><a xlink:href="classcarta_1_1RegionHandler.html#a5400b6dee0622f4ce2060ae424e1e559" target="_top" xlink:title=" ">
<polygon fill="none" stroke="black" points="697,-3.5 697,-33.5 819,-33.5 819,-3.5 697,-3.5"/>
<text text-anchor="start" x="705" y="-21.5" font-family="Helvetica,sans-Serif" font-size="10.00">carta::RegionHandler</text>
<text text-anchor="middle" x="758" y="-10.5" font-family="Helvetica,sans-Serif" font-size="10.00">::GetRegionStatsData</text>
</a>
</g>
</g>
<!-- Node2&#45;&gt;Node19 -->
<g id="edge18" class="edge">
<title>Node2&#45;&gt;Node19</title>
<path fill="none" stroke="midnightblue" d="M873.99,-211.26C872.22,-209.79 870.55,-208.2 869,-206.5 821.13,-153.85 878.55,-105.16 833,-50.5 827.18,-43.51 819.54,-38.01 811.38,-33.69"/>
<polygon fill="midnightblue" stroke="midnightblue" points="872.11,-214.21 882.33,-217.01 876.09,-208.45 872.11,-214.21"/>
</g>
<!-- Node6 -->
<g id="node6" class="node">
<title>Node6</title>
<g id="a_node6"><a xlink:href="classcarta_1_1RegionHandler.html#a53807aa22abb92b35725054a015e12aa" target="_top" xlink:title=" ">
<polygon fill="none" stroke="black" points="509.5,-267.5 509.5,-297.5 628.5,-297.5 628.5,-267.5 509.5,-267.5"/>
<text text-anchor="start" x="517.5" y="-285.5" font-family="Helvetica,sans-Serif" font-size="10.00">carta::RegionHandler</text>
<text text-anchor="middle" x="569" y="-274.5" font-family="Helvetica,sans-Serif" font-size="10.00">::CalculatePvImage</text>
</a>
</g>
</g>
<!-- Node5&#45;&gt;Node6 -->
<g id="edge5" class="edge">
<title>Node5&#45;&gt;Node6</title>
<path fill="none" stroke="midnightblue" d="M672.58,-267.69C657.7,-269.84 642.5,-272.03 628.52,-274.05"/>
<polygon fill="midnightblue" stroke="midnightblue" points="673.43,-271.1 682.82,-266.21 672.43,-264.17 673.43,-271.1"/>
</g>
<!-- Node7 -->
<g id="node7" class="node">
<title>Node7</title>
<g id="a_node7"><a xlink:href="classcarta_1_1RegionHandler.html#ab556b1d44e6a4ca48fba195023769038" target="_top" xlink:title=" ">
<polygon fill="none" stroke="black" points="499,-218.5 499,-248.5 639,-248.5 639,-218.5 499,-218.5"/>
<text text-anchor="start" x="507" y="-236.5" font-family="Helvetica,sans-Serif" font-size="10.00">carta::RegionHandler</text>
<text text-anchor="middle" x="569" y="-225.5" font-family="Helvetica,sans-Serif" font-size="10.00">::UpdatePvPreviewImage</text>
</a>
</g>
</g>
<!-- Node5&#45;&gt;Node7 -->
<g id="edge6" class="edge">
<title>Node5&#45;&gt;Node7</title>
<path fill="none" stroke="midnightblue" d="M672.63,-245.57C661.45,-244.26 650.1,-242.92 639.22,-241.64"/>
<polygon fill="midnightblue" stroke="midnightblue" points="672.48,-249.08 682.82,-246.77 673.3,-242.13 672.48,-249.08"/>
</g>
<!-- Node11 -->
<g id="node11" class="node">
<title>Node11</title>
<g id="a_node11"><a xlink:href="classcarta_1_1RegionHandler.html#a781809901786ab1cf5a4705a77ebe9bb" target="_top" xlink:title=" ">
<polygon fill="none" stroke="black" points="496.5,-147.5 496.5,-177.5 641.5,-177.5 641.5,-147.5 496.5,-147.5"/>
<text text-anchor="start" x="504.5" y="-165.5" font-family="Helvetica,sans-Serif" font-size="10.00">carta::RegionHandler</text>
<text text-anchor="middle" x="569" y="-154.5" font-family="Helvetica,sans-Serif" font-size="10.00">::FillRegionHistogramData</text>
</a>
</g>
</g>
<!-- Node10&#45;&gt;Node11 -->
<g id="edge10" class="edge">
<title>Node10&#45;&gt;Node11</title>
<path fill="none" stroke="midnightblue" d="M673.68,-159.73C662.95,-160.01 652.04,-160.31 641.52,-160.59"/>
<polygon fill="midnightblue" stroke="midnightblue" points="673.99,-163.22 683.9,-159.45 673.81,-156.22 673.99,-163.22"/>
</g>
<!-- Node13 -->
<g id="node13" class="node">
<title>Node13</title>
<g id="a_node13"><a xlink:href="classcarta_1_1RegionHandler.html#adf0a26d068e926212c682fdf15d367fe" target="_top" xlink:title=" ">
<polygon fill="none" stroke="black" points="503.5,-98.5 503.5,-128.5 634.5,-128.5 634.5,-98.5 503.5,-98.5"/>
<text text-anchor="start" x="511.5" y="-116.5" font-family="Helvetica,sans-Serif" font-size="10.00">carta::RegionHandler</text>
<text text-anchor="middle" x="569" y="-105.5" font-family="Helvetica,sans-Serif" font-size="10.00">::FillSpectralProfileData</text>
</a>
</g>
</g>
<!-- Node12&#45;&gt;Node13 -->
<g id="edge12" class="edge">
<title>Node12&#45;&gt;Node13</title>
<path fill="none" stroke="midnightblue" d="M679.3,-110.58C664.43,-110.98 649.01,-111.39 634.6,-111.77"/>
<polygon fill="midnightblue" stroke="midnightblue" points="679.59,-114.07 689.49,-110.31 679.4,-107.07 679.59,-114.07"/>
</g>
<!-- Node12&#45;&gt;Node14 -->
<g id="edge13" class="edge">
<title>Node12&#45;&gt;Node14</title>
<path fill="none" stroke="midnightblue" d="M683.15,-91.12C666.85,-87.29 649.72,-83.26 633.86,-79.53"/>
<polygon fill="midnightblue" stroke="midnightblue" points="682.63,-94.6 693.17,-93.48 684.24,-87.78 682.63,-94.6"/>
</g>
<!-- Node15 -->
<g id="node15" class="node">
<title>Node15</title>
<g id="a_node15"><a xlink:href="classcarta_1_1RegionHandler.html#acbbfca854da73c657e5257de954b7048" target="_top" xlink:title=" ">
<polygon fill="none" stroke="black" points="336,-49.5 336,-79.5 455,-79.5 455,-49.5 336,-49.5"/>
<text text-anchor="start" x="344" y="-67.5" font-family="Helvetica,sans-Serif" font-size="10.00">carta::RegionHandler</text>
<text text-anchor="middle" x="395.5" y="-56.5" font-family="Helvetica,sans-Serif" font-size="10.00">::GetLineProfiles</text>
</a>
</g>
</g>
<!-- Node14&#45;&gt;Node15 -->
<g id="edge14" class="edge">
<title>Node14&#45;&gt;Node15</title>
<path fill="none" stroke="midnightblue" d="M480.62,-64.5C471.96,-64.5 463.31,-64.5 455.05,-64.5"/>
<polygon fill="midnightblue" stroke="midnightblue" points="480.78,-68 490.78,-64.5 480.78,-61 480.78,-68"/>
</g>
<!-- Node16 -->
<g id="node16" class="node">
<title>Node16</title>
<g id="a_node16"><a xlink:href="classcarta_1_1RegionHandler.html#a981ef720799967df543e0b272a17f6cb" target="_top" xlink:title=" ">
<polygon fill="none" stroke="black" points="181,-74.5 181,-104.5 300,-104.5 300,-74.5 181,-74.5"/>
<text text-anchor="start" x="189" y="-92.5" font-family="Helvetica,sans-Serif" font-size="10.00">carta::RegionHandler</text>
<text text-anchor="middle" x="240.5" y="-81.5" font-family="Helvetica,sans-Serif" font-size="10.00">::CalculatePvImage</text>
</a>
</g>
</g>
<!-- Node15&#45;&gt;Node16 -->
<g id="edge15" class="edge">
<title>Node15&#45;&gt;Node16</title>
<path fill="none" stroke="midnightblue" d="M325.79,-75.73C317.2,-77.13 308.47,-78.56 300.06,-79.93"/>
<polygon fill="midnightblue" stroke="midnightblue" points="326.48,-79.16 335.78,-74.09 325.35,-72.25 326.48,-79.16"/>
</g>
<!-- Node17 -->
<g id="node17" class="node">
<title>Node17</title>
<g id="a_node17"><a xlink:href="classcarta_1_1RegionHandler.html#ab65206f98fa5024447ab049a91cd4526" target="_top" xlink:title=" ">
<polygon fill="none" stroke="black" points="181,-25.5 181,-55.5 300,-55.5 300,-25.5 181,-25.5"/>
<text text-anchor="start" x="189" y="-43.5" font-family="Helvetica,sans-Serif" font-size="10.00">carta::RegionHandler</text>
<text text-anchor="middle" x="240.5" y="-32.5" font-family="Helvetica,sans-Serif" font-size="10.00">::GetLineSpatialData</text>
</a>
</g>
</g>
<!-- Node15&#45;&gt;Node17 -->
<g id="edge16" class="edge">
<title>Node15&#45;&gt;Node17</title>
<path fill="none" stroke="midnightblue" d="M325.79,-53.72C317.2,-52.37 308.47,-51.01 300.06,-49.69"/>
<polygon fill="midnightblue" stroke="midnightblue" points="325.36,-57.2 335.78,-55.29 326.45,-50.28 325.36,-57.2"/>
</g>
<!-- Node18 -->
<g id="node18" class="node">
<title>Node18</title>
<g id="a_node18"><a xlink:href="classcarta_1_1RegionHandler.html#a6bbb668cf434d85d9be739191dd15c19" target="_top" xlink:title=" ">
<polygon fill="none" stroke="black" points="0,-25.5 0,-55.5 145,-55.5 145,-25.5 0,-25.5"/>
<text text-anchor="start" x="8" y="-43.5" font-family="Helvetica,sans-Serif" font-size="10.00">carta::RegionHandler</text>
<text text-anchor="middle" x="72.5" y="-32.5" font-family="Helvetica,sans-Serif" font-size="10.00">::FillLineSpatialProfileData</text>
</a>
</g>
</g>
<!-- Node17&#45;&gt;Node18 -->
<g id="edge17" class="edge">
<title>Node17&#45;&gt;Node18</title>
<path fill="none" stroke="midnightblue" d="M170.79,-40.5C162.33,-40.5 153.67,-40.5 145.17,-40.5"/>
<polygon fill="midnightblue" stroke="midnightblue" points="170.97,-44 180.97,-40.5 170.97,-37 170.97,-44"/>
</g>
<!-- Node20 -->
<g id="node20" class="node">
<title>Node20</title>
<g id="a_node20"><a xlink:href="classcarta_1_1RegionHandler.html#a409ecbf6d655eab69b1465b819cffb85" target="_top" xlink:title=" ">
<polygon fill="none" stroke="black" points="509.5,-0.5 509.5,-30.5 628.5,-30.5 628.5,-0.5 509.5,-0.5"/>
<text text-anchor="start" x="517.5" y="-18.5" font-family="Helvetica,sans-Serif" font-size="10.00">carta::RegionHandler</text>
<text text-anchor="middle" x="569" y="-7.5" font-family="Helvetica,sans-Serif" font-size="10.00">::FillRegionStatsData</text>
</a>
</g>
</g>
<!-- Node19&#45;&gt;Node20 -->
<g id="edge19" class="edge">
<title>Node19&#45;&gt;Node20</title>
<path fill="none" stroke="midnightblue" d="M686.68,-17.37C667.61,-17.07 647.17,-16.74 628.81,-16.44"/>
<polygon fill="midnightblue" stroke="midnightblue" points="686.75,-20.87 696.8,-17.53 686.86,-13.87 686.75,-20.87"/>
</g>
</g>
</svg>
        <g id="navigator" transform="translate(0 0)" fill="#404254">
                <rect fill="#f2f5e9" fill-opacity="0.5" stroke="#606060" stroke-width=".5" x="0" y="0" width="60" height="60"/>
                <use id="zoomplus" xlink:href="#zoomPlus" x="17" y="9" onmousedown="handleZoom(evt,'in')"/>
                <use id="zoomminus" xlink:href="#zoomMin" x="42" y="9" onmousedown="handleZoom(evt,'out')"/>
                <use id="reset" xlink:href="#resetDef" x="30" y="36" onmousedown="handleReset()"/>
                <g id="arrowUp" xlink:href="#dirArrow" transform="translate(30 24)" onmousedown="handlePan(0,-1)">
                  <use xlink:href="#rim" fill="#404040">
                        <set attributeName="fill" to="#808080" begin="arrowUp.mouseover" end="arrowUp.mouseout"/>
                  </use>
                  <path fill="none" stroke="white" stroke-width="1.5" d="M0,-3.0v7 M-2.5,-0.5L0,-3.0L2.5,-0.5"/>
                </g>
                <g id="arrowRight" xlink:href="#dirArrow" transform="rotate(90) translate(36 -43)" onmousedown="handlePan(1,0)">
                  <use xlink:href="#rim" fill="#404040">
                        <set attributeName="fill" to="#808080" begin="arrowRight.mouseover" end="arrowRight.mouseout"/>
                  </use>
                  <path fill="none" stroke="white" stroke-width="1.5" d="M0,-3.0v7 M-2.5,-0.5L0,-3.0L2.5,-0.5"/>
                </g>
                <g id="arrowDown" xlink:href="#dirArrow" transform="rotate(180) translate(-30 -48)" onmousedown="handlePan(0,1)">
                  <use xlink:href="#rim" fill="#404040">
                        <set attributeName="fill" to="#808080" begin="arrowDown.mouseover" end="arrowDown.mouseout"/>
                  </use>
                  <path fill="none" stroke="white" stroke-width="1.5" d="M0,-3.0v7 M-2.5,-0.5L0,-3.0L2.5,-0.5"/>
                </g>
                <g id="arrowLeft" xlink:href="#dirArrow" transform="rotate(270) translate(-36 17)" onmousedown="handlePan(-1,0)">
                  <use xlink:href="#rim" fill="#404040">
                        <set attributeName="fill" to="#808080" begin="arrowLeft.mouseover" end="arrowLeft.mouseout"/>
                  </use>
                  <path fill="none" stroke="white" stroke-width="1.5" d="M0,-3.0v7 M-2.5,-0.5L0,-3.0L2.5,-0.5"/>
                </g>
        </g>
        <svg viewBox="0 0 15 15" width="100%" height="30px" preserveAspectRatio="xMaxYMin meet">
         <g id="arrow_out" transform="scale(0.3 0.3)">
          <a xlink:href="classcarta_1_1RegionHandler_a94d939104654243dec3750ada83b370e_icgraph_org.svg" target="_base">
           <rect id="button" ry="5" rx="5" y="6" x="6" height="38" width="38"
                fill="#f2f5e9" fill-opacity="0.5" stroke="#606060" stroke-width="1.0"/>
           <path id="arrow"
             d="M 11.500037,31.436501 C 11.940474,20.09759 22.043105,11.32322 32.158766,21.979434 L 37.068811,17.246167 C 37.068811,17.246167 37.088388,32 37.088388,32 L 22.160133,31.978069 C 22.160133,31.978069 26.997745,27.140456 26.997745,27.140456 C 18.528582,18.264221 13.291696,25.230495 11.500037,31.436501 z"
             style="fill:#404040;"/>
          </a>
         </g>
        </svg>
</svg>
