<?xml version="1.0" encoding="UTF-8" standalone="no"?>
<!DOCTYPE svg PUBLIC "-//W3C//DTD SVG 1.1//EN"
 "http://www.w3.org/Graphics/SVG/1.1/DTD/svg11.dtd">
<!-- Generated by graphviz version 2.43.0 (0)
 -->
<!-- Title: carta::StokesFilesConnector::OpenStokesFiles Pages: 1 -->
<svg width="617pt" height="185pt"
 viewBox="0.00 0.00 617.00 184.86" xmlns="http://www.w3.org/2000/svg" xmlns:xlink="http://www.w3.org/1999/xlink">
<g id="graph0" class="graph" transform="scale(1 1) rotate(0) translate(4 180.86)">
<title>carta::StokesFilesConnector::OpenStokesFiles</title>
<!-- Node1 -->
<g id="node1" class="node">
<title>Node1</title>
<g id="a_node1"><a xlink:title=" ">
<polygon fill="#bfbfbf" stroke="black" points="0,-77 0,-107 152,-107 152,-77 0,-77"/>
<text text-anchor="start" x="8" y="-95" font-family="Helvetica,sans-Serif" font-size="10.00">carta::StokesFilesConnector</text>
<text text-anchor="middle" x="76" y="-84" font-family="Helvetica,sans-Serif" font-size="10.00">::OpenStokesFiles</text>
</a>
</g>
</g>
<!-- Node2 -->
<g id="node2" class="node">
<title>Node2</title>
<g id="a_node2"><a xlink:href="Casacore_8h.html#a7f2e1b7b1fdc56656757ae21fa22be67" target="_top" xlink:title=" ">
<polygon fill="none" stroke="black" points="352,-147.5 352,-166.5 467,-166.5 467,-147.5 352,-147.5"/>
<text text-anchor="middle" x="409.5" y="-154.5" font-family="Helvetica,sans-Serif" font-size="10.00">CasacoreImageType</text>
</a>
</g>
</g>
<!-- Node1&#45;&gt;Node2 -->
<g id="edge1" class="edge">
<title>Node1&#45;&gt;Node2</title>
<path fill="none" stroke="midnightblue" d="M93.05,-107.26C113.3,-125.36 150.09,-154.52 188,-166 244.25,-183.03 312.26,-176.42 357.74,-168.39"/>
<polygon fill="midnightblue" stroke="midnightblue" points="358.46,-171.81 367.66,-166.55 357.19,-164.93 358.46,-171.81"/>
</g>
<!-- Node3 -->
<g id="node3" class="node">
<title>Node3</title>
<g id="a_node3"><a xlink:href="namespacecarta_1_1FileInfo.html#adb5dd85385b249a9f718ee5c87dfd57e" target="_top" xlink:title=" ">
<polygon fill="none" stroke="black" points="188,-126 188,-156 316,-156 316,-126 188,-126"/>
<text text-anchor="start" x="196" y="-144" font-family="Helvetica,sans-Serif" font-size="10.00">carta::FileInfo::Convert</text>
<text text-anchor="middle" x="252" y="-133" font-family="Helvetica,sans-Serif" font-size="10.00">FitsStokesValue</text>
</a>
</g>
</g>
<!-- Node1&#45;&gt;Node3 -->
<g id="edge2" class="edge">
<title>Node1&#45;&gt;Node3</title>
<path fill="none" stroke="midnightblue" d="M130.63,-107.1C148.74,-112.2 169.12,-117.94 187.9,-123.23"/>
<polygon fill="midnightblue" stroke="midnightblue" points="186.98,-126.61 197.55,-125.95 188.87,-119.87 186.98,-126.61"/>
</g>
<!-- Node4 -->
<g id="node4" class="node">
<title>Node4</title>
<g id="a_node4"><a xlink:href="classcarta_1_1FileLoader.html#a581709c9a332af503acb77d79b8ae38f" target="_top" xlink:title=" ">
<polygon fill="none" stroke="black" points="200,-77 200,-107 304,-107 304,-77 200,-77"/>
<text text-anchor="start" x="208" y="-95" font-family="Helvetica,sans-Serif" font-size="10.00">carta::FileLoader::</text>
<text text-anchor="middle" x="252" y="-84" font-family="Helvetica,sans-Serif" font-size="10.00">GetLoader</text>
</a>
</g>
</g>
<!-- Node1&#45;&gt;Node4 -->
<g id="edge3" class="edge">
<title>Node1&#45;&gt;Node4</title>
<path fill="none" stroke="midnightblue" d="M152.05,-92C164.63,-92 177.54,-92 189.72,-92"/>
<polygon fill="midnightblue" stroke="midnightblue" points="189.75,-95.5 199.75,-92 189.75,-88.5 189.75,-95.5"/>
</g>
<!-- Node9 -->
<g id="node9" class="node">
<title>Node9</title>
<g id="a_node9"><a xlink:href="Casacore_8cc.html#adaf629920399b9ef31d6579a0693c4bb" target="_top" xlink:title=" ">
<polygon fill="none" stroke="black" points="190,-38.5 190,-57.5 314,-57.5 314,-38.5 190,-38.5"/>
<text text-anchor="middle" x="252" y="-45.5" font-family="Helvetica,sans-Serif" font-size="10.00">GetResolvedFilename</text>
</a>
</g>
</g>
<!-- Node1&#45;&gt;Node9 -->
<g id="edge9" class="edge">
<title>Node1&#45;&gt;Node9</title>
<path fill="none" stroke="midnightblue" d="M136.39,-76.98C158.31,-71.44 182.83,-65.24 203.55,-60"/>
<polygon fill="midnightblue" stroke="midnightblue" points="204.55,-63.36 213.38,-57.51 202.83,-56.57 204.55,-63.36"/>
</g>
<!-- Node10 -->
<g id="node10" class="node">
<title>Node10</title>
<g id="a_node10"><a xlink:href="Image_8cc.html#a231a322f47657ea555657510bc70bfac" target="_top" xlink:title=" ">
<polygon fill="none" stroke="black" points="205.5,-0.5 205.5,-19.5 298.5,-19.5 298.5,-0.5 205.5,-0.5"/>
<text text-anchor="middle" x="252" y="-7.5" font-family="Helvetica,sans-Serif" font-size="10.00">GetStokesValue</text>
</a>
</g>
</g>
<!-- Node1&#45;&gt;Node10 -->
<g id="edge10" class="edge">
<title>Node1&#45;&gt;Node10</title>
<path fill="none" stroke="midnightblue" d="M100.03,-76.9C121.96,-63.02 156.22,-42.61 188,-29 193.31,-26.72 198.99,-24.61 204.68,-22.67"/>
<polygon fill="midnightblue" stroke="midnightblue" points="205.76,-26 214.19,-19.59 203.6,-19.34 205.76,-26"/>
</g>
<!-- Node4&#45;&gt;Node2 -->
<g id="edge4" class="edge">
<title>Node4&#45;&gt;Node2</title>
<path fill="none" stroke="midnightblue" d="M291.39,-107.02C299.53,-110.26 308.06,-113.71 316,-117 336.59,-125.54 359.6,-135.48 377.52,-143.32"/>
<polygon fill="midnightblue" stroke="midnightblue" points="376.34,-146.63 386.9,-147.44 379.15,-140.22 376.34,-146.63"/>
</g>
<!-- Node5 -->
<g id="node5" class="node">
<title>Node5</title>
<g id="a_node5"><a xlink:href="File_8cc.html#a75f8a4cb14c9fca8730255b6fee82794" target="_top" xlink:title=" ">
<polygon fill="none" stroke="black" points="358,-82.5 358,-101.5 461,-101.5 461,-82.5 358,-82.5"/>
<text text-anchor="middle" x="409.5" y="-89.5" font-family="Helvetica,sans-Serif" font-size="10.00">IsCompressedFits</text>
</a>
</g>
</g>
<!-- Node4&#45;&gt;Node5 -->
<g id="edge5" class="edge">
<title>Node4&#45;&gt;Node5</title>
<path fill="none" stroke="midnightblue" d="M304.35,-92C318.16,-92 333.23,-92 347.51,-92"/>
<polygon fill="midnightblue" stroke="midnightblue" points="347.74,-95.5 357.74,-92 347.74,-88.5 347.74,-95.5"/>
</g>
<!-- Node6 -->
<g id="node6" class="node">
<title>Node6</title>
<g id="a_node6"><a xlink:href="File_8cc.html#a7e6d57b61e0979a7171bb2e6519093f9" target="_top" xlink:title=" ">
<polygon fill="none" stroke="black" points="505,-120.5 505,-139.5 607,-139.5 607,-120.5 505,-120.5"/>
<text text-anchor="middle" x="556" y="-127.5" font-family="Helvetica,sans-Serif" font-size="10.00">GetMagicNumber</text>
</a>
</g>
</g>
<!-- Node5&#45;&gt;Node6 -->
<g id="edge6" class="edge">
<title>Node5&#45;&gt;Node6</title>
<path fill="none" stroke="midnightblue" d="M446.96,-101.59C465.77,-106.54 488.91,-112.62 508.95,-117.89"/>
<polygon fill="midnightblue" stroke="midnightblue" points="508.24,-121.32 518.8,-120.48 510.02,-114.55 508.24,-121.32"/>
</g>
<!-- Node7 -->
<g id="node7" class="node">
<title>Node7</title>
<g id="a_node7"><a xlink:href="String_8cc.html#a1540adc30610b9db4add6622c248b9d1" target="_top" xlink:title=" ">
<polygon fill="none" stroke="black" points="524.5,-82.5 524.5,-101.5 587.5,-101.5 587.5,-82.5 524.5,-82.5"/>
<text text-anchor="middle" x="556" y="-89.5" font-family="Helvetica,sans-Serif" font-size="10.00">HasSuffix</text>
</a>
</g>
</g>
<!-- Node5&#45;&gt;Node7 -->
<g id="edge7" class="edge">
<title>Node5&#45;&gt;Node7</title>
<path fill="none" stroke="midnightblue" d="M461.04,-92C478.4,-92 497.6,-92 514.1,-92"/>
<polygon fill="midnightblue" stroke="midnightblue" points="514.5,-95.5 524.5,-92 514.5,-88.5 514.5,-95.5"/>
</g>
<!-- Node8 -->
<g id="node8" class="node">
<title>Node8</title>
<g id="a_node8"><a xlink:href="File_8cc.html#a0b28b83747dc07e95f4a0e1b5b4db83e" target="_top" xlink:title=" ">
<polygon fill="none" stroke="black" points="503,-44.5 503,-63.5 609,-63.5 609,-44.5 503,-44.5"/>
<text text-anchor="middle" x="556" y="-51.5" font-family="Helvetica,sans-Serif" font-size="10.00">IsGzMagicNumber</text>
</a>
</g>
</g>
<!-- Node5&#45;&gt;Node8 -->
<g id="edge8" class="edge">
<title>Node5&#45;&gt;Node8</title>
<path fill="none" stroke="midnightblue" d="M446.96,-82.41C465.77,-77.46 488.91,-71.38 508.95,-66.11"/>
<polygon fill="midnightblue" stroke="midnightblue" points="510.02,-69.45 518.8,-63.52 508.24,-62.68 510.02,-69.45"/>
</g>
</g>
</svg>
