<?xml version="1.0" encoding="UTF-8" standalone="no"?>
<!DOCTYPE svg PUBLIC "-//W3C//DTD SVG 1.1//EN"
 "http://www.w3.org/Graphics/SVG/1.1/DTD/svg11.dtd">
<!-- Generated by graphviz version 2.43.0 (0)
 -->
<!-- Title: carta::Frame::FillSpatialProfileData Pages: 1 -->
<!--zoomable 641 -->
<svg id="main" version="1.1" xmlns="http://www.w3.org/2000/svg" xmlns:xlink="http://www.w3.org/1999/xlink" xml:space="preserve" onload="init(evt)">
<style type="text/css"><![CDATA[
.edge:hover path { stroke: red; }
.edge:hover polygon { stroke: red; fill: red; }
]]></style>
<script type="text/javascript"><![CDATA[
var edges = document.getElementsByTagName('g');
if (edges && edges.length) {
  for (var i=0;i<edges.length;i++) {
    if (edges[i].id.substr(0,4)=='edge') {
      edges[i].setAttribute('class','edge');
    }
  }
}
]]></script>
        <defs>
                <circle id="rim" cx="0" cy="0" r="7"/>
                <circle id="rim2" cx="0" cy="0" r="3.5"/>
                <g id="zoomPlus">
                        <use xlink:href="#rim" fill="#404040">
                                <set attributeName="fill" to="#808080" begin="zoomplus.mouseover" end="zoomplus.mouseout"/>
                        </use>
                        <path d="M-4,0h8M0,-4v8" fill="none" stroke="white" stroke-width="1.5" pointer-events="none"/>
                </g>
                <g id="zoomMin">
                        <use xlink:href="#rim" fill="#404040">
                                <set attributeName="fill" to="#808080" begin="zoomminus.mouseover" end="zoomminus.mouseout"/>
                        </use>
                        <path d="M-4,0h8" fill="none" stroke="white" stroke-width="1.5" pointer-events="none"/>
                </g>
                <g id="dirArrow">
                        <path fill="none" stroke="white" stroke-width="1.5" d="M0,-3.0v7 M-2.5,-0.5L0,-3.0L2.5,-0.5"/>
                </g>
               <g id="resetDef">
                       <use xlink:href="#rim2" fill="#404040">
                               <set attributeName="fill" to="#808080" begin="reset.mouseover" end="reset.mouseout"/>
                       </use>
               </g>
        </defs>

<script type="text/javascript">
var viewWidth = 869;
var viewHeight = 641;
var sectionId = 'dynsection-32';
</script>
<script xlink:href="svgpan.js"/>
<svg id="graph" class="graph">
<g id="viewport">
<title>carta::Frame::FillSpatialProfileData</title>
<!-- Node1 -->
<g id="node1" class="node">
<title>Node1</title>
<g id="a_node1"><a xlink:title=" ">
<polygon fill="#bfbfbf" stroke="black" points="0,-263 0,-293 132,-293 132,-263 0,-263"/>
<text text-anchor="start" x="8" y="-281" font-family="Helvetica,sans-Serif" font-size="10.00">carta::Frame::FillSpatial</text>
<text text-anchor="middle" x="66" y="-270" font-family="Helvetica,sans-Serif" font-size="10.00">ProfileData</text>
</a>
</g>
</g>
<!-- Node2 -->
<g id="node2" class="node">
<title>Node2</title>
<g id="a_node2"><a xlink:href="classcarta_1_1TileCache.html#a33c4defad803515b8b2213511e097044" target="_top" xlink:title="Calculate the key for the chunk that contains the given tile.">
<polygon fill="none" stroke="black" points="371.5,-613.5 371.5,-632.5 521.5,-632.5 521.5,-613.5 371.5,-613.5"/>
<text text-anchor="middle" x="446.5" y="-620.5" font-family="Helvetica,sans-Serif" font-size="10.00">carta::TileCache::ChunkKey</text>
</a>
</g>
</g>
<!-- Node1&#45;&gt;Node2 -->
<g id="edge1" class="edge">
<title>Node1&#45;&gt;Node2</title>
<path fill="none" stroke="midnightblue" d="M67.38,-293.02C69.46,-340.98 82.81,-491.57 168,-566 220.7,-612.04 300.53,-624.51 361.06,-626.5"/>
<polygon fill="midnightblue" stroke="midnightblue" points="361.28,-630.01 371.36,-626.75 361.45,-623.01 361.28,-630.01"/>
</g>
<!-- Node3 -->
<g id="node3" class="node">
<title>Node3</title>
<g id="a_node3"><a xlink:href="classcarta_1_1Frame.html#a30b016834ce04378ba3d0a34f373db3f" target="_top" xlink:title=" ">
<polygon fill="none" stroke="black" points="566,-290.5 566,-309.5 718,-309.5 718,-290.5 566,-290.5"/>
<text text-anchor="middle" x="642" y="-297.5" font-family="Helvetica,sans-Serif" font-size="10.00">carta::Frame::CurrentStokes</text>
</a>
</g>
</g>
<!-- Node1&#45;&gt;Node3 -->
<g id="edge2" class="edge">
<title>Node1&#45;&gt;Node3</title>
<path fill="none" stroke="midnightblue" d="M132.01,-280.49C236,-284.48 439.81,-292.29 555.49,-296.72"/>
<polygon fill="midnightblue" stroke="midnightblue" points="555.59,-300.23 565.71,-297.11 555.86,-293.23 555.59,-300.23"/>
</g>
<!-- Node4 -->
<g id="node4" class="node">
<title>Node4</title>
<g id="a_node4"><a xlink:href="classcarta_1_1Frame.html#a1eda290558f3e9a6be5d4149c06e1b7b" target="_top" xlink:title=" ">
<polygon fill="none" stroke="black" points="578.5,-385.5 578.5,-404.5 705.5,-404.5 705.5,-385.5 578.5,-385.5"/>
<text text-anchor="middle" x="642" y="-392.5" font-family="Helvetica,sans-Serif" font-size="10.00">carta::Frame::CurrentZ</text>
</a>
</g>
</g>
<!-- Node1&#45;&gt;Node4 -->
<g id="edge3" class="edge">
<title>Node1&#45;&gt;Node4</title>
<path fill="none" stroke="midnightblue" d="M71.43,-293.1C81.95,-325.78 111.81,-402.55 168,-433 238.96,-471.45 478.36,-428.79 586.81,-406.65"/>
<polygon fill="midnightblue" stroke="midnightblue" points="587.8,-410.02 596.89,-404.57 586.39,-403.16 587.8,-410.02"/>
</g>
<!-- Node5 -->
<g id="node5" class="node">
<title>Node5</title>
<g id="a_node5"><a xlink:href="classcarta_1_1Timer.html#aad2702a80259920b910fb76642f97b88" target="_top" xlink:title=" ">
<polygon fill="none" stroke="black" points="187.5,-404.5 187.5,-423.5 307.5,-423.5 307.5,-404.5 187.5,-404.5"/>
<text text-anchor="middle" x="247.5" y="-411.5" font-family="Helvetica,sans-Serif" font-size="10.00">carta::Timer::Elapsed</text>
</a>
</g>
</g>
<!-- Node1&#45;&gt;Node5 -->
<g id="edge4" class="edge">
<title>Node1&#45;&gt;Node5</title>
<path fill="none" stroke="midnightblue" d="M75.72,-293.22C91.02,-318.48 125.17,-368.85 168,-395 171.57,-397.18 175.37,-399.11 179.3,-400.81"/>
<polygon fill="midnightblue" stroke="midnightblue" points="178.08,-404.09 188.67,-404.41 180.59,-397.56 178.08,-404.09"/>
</g>
<!-- Node6 -->
<g id="node6" class="node">
<title>Node6</title>
<g id="a_node6"><a xlink:href="classcarta_1_1TileCache.html#a4eda64cc5324f96a16c6b877ab4ce7cc" target="_top" xlink:title="Retrieve a tile from the cache.">
<polygon fill="none" stroke="black" points="188,-537.5 188,-556.5 307,-556.5 307,-537.5 188,-537.5"/>
<text text-anchor="middle" x="247.5" y="-544.5" font-family="Helvetica,sans-Serif" font-size="10.00">carta::TileCache::Get</text>
</a>
</g>
</g>
<!-- Node1&#45;&gt;Node6 -->
<g id="edge5" class="edge">
<title>Node1&#45;&gt;Node6</title>
<path fill="none" stroke="midnightblue" d="M73.43,-293.21C87.78,-326.3 124.59,-406.63 168,-466 185.88,-490.45 210.81,-514.93 227.75,-530.47"/>
<polygon fill="midnightblue" stroke="midnightblue" points="225.59,-533.24 235.35,-537.35 230.28,-528.04 225.59,-533.24"/>
</g>
<!-- Node10 -->
<g id="node10" class="node">
<title>Node10</title>
<g id="a_node10"><a xlink:href="classcarta_1_1Frame.html#a9e748d02f7394ed01b69276b61a79825" target="_top" xlink:title=" ">
<polygon fill="none" stroke="black" points="168,-328.5 168,-347.5 327,-347.5 327,-328.5 168,-328.5"/>
<text text-anchor="middle" x="247.5" y="-335.5" font-family="Helvetica,sans-Serif" font-size="10.00">carta::Frame::GetImageSlicer</text>
</a>
</g>
</g>
<!-- Node1&#45;&gt;Node10 -->
<g id="edge11" class="edge">
<title>Node1&#45;&gt;Node10</title>
<path fill="none" stroke="midnightblue" d="M108.13,-293.14C126.4,-299.74 148.21,-307.45 168,-314 179.73,-317.88 192.52,-321.89 204.31,-325.49"/>
<polygon fill="midnightblue" stroke="midnightblue" points="203.35,-328.85 213.93,-328.41 205.38,-322.15 203.35,-328.85"/>
</g>
<!-- Node11 -->
<g id="node11" class="node">
<title>Node11</title>
<g id="a_node11"><a xlink:href="classcarta_1_1Frame.html#a79c789ebc62771151da94673a325a31a" target="_top" xlink:title=" ">
<polygon fill="none" stroke="black" points="171.5,-366.5 171.5,-385.5 323.5,-385.5 323.5,-366.5 171.5,-366.5"/>
<text text-anchor="middle" x="247.5" y="-373.5" font-family="Helvetica,sans-Serif" font-size="10.00">carta::Frame::GetSlicerData</text>
</a>
</g>
</g>
<!-- Node1&#45;&gt;Node11 -->
<g id="edge12" class="edge">
<title>Node1&#45;&gt;Node11</title>
<path fill="none" stroke="midnightblue" d="M82,-293.18C100.57,-311.09 133.93,-340.52 168,-357 172.97,-359.4 178.27,-361.52 183.68,-363.38"/>
<polygon fill="midnightblue" stroke="midnightblue" points="182.89,-366.8 193.48,-366.45 184.98,-360.12 182.89,-366.8"/>
</g>
<!-- Node17 -->
<g id="node17" class="node">
<title>Node17</title>
<g id="a_node17"><a xlink:href="classcarta_1_1Frame.html#aad7fc7f3462a849a9cea9562fb45e220" target="_top" xlink:title=" ">
<polygon fill="none" stroke="black" points="169.5,-241 169.5,-271 325.5,-271 325.5,-241 169.5,-241"/>
<text text-anchor="start" x="177.5" y="-259" font-family="Helvetica,sans-Serif" font-size="10.00">carta::Frame::GetStokesType</text>
<text text-anchor="middle" x="247.5" y="-248" font-family="Helvetica,sans-Serif" font-size="10.00">Index</text>
</a>
</g>
</g>
<!-- Node1&#45;&gt;Node17 -->
<g id="edge20" class="edge">
<title>Node1&#45;&gt;Node17</title>
<path fill="none" stroke="midnightblue" d="M132.06,-270.03C140.97,-268.93 150.24,-267.8 159.47,-266.67"/>
<polygon fill="midnightblue" stroke="midnightblue" points="159.95,-270.13 169.45,-265.44 159.1,-263.19 159.95,-270.13"/>
</g>
<!-- Node18 -->
<g id="node18" class="node">
<title>Node18</title>
<g id="a_node18"><a xlink:href="Stokes_8cc.html#a30da07ffd67ed06c1e15e2da4d915e0c" target="_top" xlink:title=" ">
<polygon fill="none" stroke="black" points="393,-176.5 393,-195.5 500,-195.5 500,-176.5 393,-176.5"/>
<text text-anchor="middle" x="446.5" y="-183.5" font-family="Helvetica,sans-Serif" font-size="10.00">IsComputedStokes</text>
</a>
</g>
</g>
<!-- Node1&#45;&gt;Node18 -->
<g id="edge26" class="edge">
<title>Node1&#45;&gt;Node18</title>
<path fill="none" stroke="midnightblue" d="M94.95,-262.85C114.81,-252.7 142.38,-239.81 168,-232 239.9,-210.09 325.66,-197.9 382.62,-191.66"/>
<polygon fill="midnightblue" stroke="midnightblue" points="383.33,-195.1 392.91,-190.56 382.59,-188.14 383.33,-195.1"/>
</g>
<!-- Node20 -->
<g id="node20" class="node">
<title>Node20</title>
<g id="a_node20"><a xlink:href="structPointXy.html#ae53c1507f25ca4218505925d7505b464" target="_top" xlink:title=" ">
<polygon fill="none" stroke="black" points="198,-164.5 198,-183.5 297,-183.5 297,-164.5 198,-164.5"/>
<text text-anchor="middle" x="247.5" y="-171.5" font-family="Helvetica,sans-Serif" font-size="10.00">PointXy::InImage</text>
</a>
</g>
</g>
<!-- Node1&#45;&gt;Node20 -->
<g id="edge24" class="edge">
<title>Node1&#45;&gt;Node20</title>
<path fill="none" stroke="midnightblue" d="M82.14,-262.96C100.84,-245.15 134.33,-215.67 168,-198 176.52,-193.53 186.01,-189.74 195.37,-186.6"/>
<polygon fill="midnightblue" stroke="midnightblue" points="196.54,-189.9 205.02,-183.55 194.43,-183.22 196.54,-189.9"/>
</g>
<!-- Node21 -->
<g id="node21" class="node">
<title>Node21</title>
<g id="a_node21"><a xlink:href="structPointXy.html#a8346106fda170e511b843f0d47fe3dfa" target="_top" xlink:title=" ">
<polygon fill="none" stroke="black" points="398,-138.5 398,-157.5 495,-157.5 495,-138.5 398,-138.5"/>
<text text-anchor="middle" x="446.5" y="-145.5" font-family="Helvetica,sans-Serif" font-size="10.00">PointXy::ToIndex</text>
</a>
</g>
</g>
<!-- Node1&#45;&gt;Node21 -->
<g id="edge34" class="edge">
<title>Node1&#45;&gt;Node21</title>
<path fill="none" stroke="midnightblue" d="M74.06,-262.72C87.7,-235.23 120.58,-178.16 168,-155 239.29,-120.19 333.64,-127.25 391.91,-136.73"/>
<polygon fill="midnightblue" stroke="midnightblue" points="391.56,-140.22 402.01,-138.46 392.74,-133.32 391.56,-140.22"/>
</g>
<!-- Node22 -->
<g id="node22" class="node">
<title>Node22</title>
<g id="a_node22"><a xlink:href="structcarta_1_1TimeDelta.html#a90b2dc0a7d70b0aa6f668f4bbad7fa58" target="_top" xlink:title=" ">
<polygon fill="none" stroke="black" points="188,-88.5 188,-107.5 307,-107.5 307,-88.5 188,-88.5"/>
<text text-anchor="middle" x="247.5" y="-95.5" font-family="Helvetica,sans-Serif" font-size="10.00">carta::TimeDelta::ms</text>
</a>
</g>
</g>
<!-- Node1&#45;&gt;Node22 -->
<g id="edge27" class="edge">
<title>Node1&#45;&gt;Node22</title>
<path fill="none" stroke="midnightblue" d="M72.73,-262.59C85.13,-231.3 117.52,-160.09 168,-122 173.79,-117.63 180.37,-114.05 187.22,-111.12"/>
<polygon fill="midnightblue" stroke="midnightblue" points="188.56,-114.35 196.65,-107.51 186.06,-107.82 188.56,-114.35"/>
</g>
<!-- Node23 -->
<g id="node23" class="node">
<title>Node23</title>
<g id="a_node23"><a xlink:href="classcarta_1_1queuing__rw__mutex__scoped.html#a54adaa778387baae91e6da63ae892ca6" target="_top" xlink:title=" ">
<polygon fill="none" stroke="black" points="177.5,-39 177.5,-69 317.5,-69 317.5,-39 177.5,-39"/>
<text text-anchor="start" x="185.5" y="-57" font-family="Helvetica,sans-Serif" font-size="10.00">carta::queuing_rw_mutex</text>
<text text-anchor="middle" x="247.5" y="-46" font-family="Helvetica,sans-Serif" font-size="10.00">_scoped::release</text>
</a>
</g>
</g>
<!-- Node1&#45;&gt;Node23 -->
<g id="edge28" class="edge">
<title>Node1&#45;&gt;Node23</title>
<path fill="none" stroke="midnightblue" d="M70.42,-262.77C79.54,-225.7 107.94,-130.08 168,-79 170,-77.3 172.12,-75.71 174.33,-74.23"/>
<polygon fill="midnightblue" stroke="midnightblue" points="176.36,-77.1 183.24,-69.04 172.84,-71.05 176.36,-77.1"/>
</g>
<!-- Node27 -->
<g id="node27" class="node">
<title>Node27</title>
<g id="a_node27"><a xlink:href="classMessage.html#afc5c954ad1784b8c550c42331df6dd2c" target="_top" xlink:title=" ">
<polygon fill="none" stroke="black" points="170.5,-0.5 170.5,-19.5 324.5,-19.5 324.5,-0.5 170.5,-0.5"/>
<text text-anchor="middle" x="247.5" y="-7.5" font-family="Helvetica,sans-Serif" font-size="10.00">Message::SpatialProfileData</text>
</a>
</g>
</g>
<!-- Node1&#45;&gt;Node27 -->
<g id="edge33" class="edge">
<title>Node1&#45;&gt;Node27</title>
<path fill="none" stroke="midnightblue" d="M68.52,-262.76C73.68,-219.33 94.57,-93.98 168,-30 170.49,-27.83 173.19,-25.89 176.03,-24.15"/>
<polygon fill="midnightblue" stroke="midnightblue" points="177.66,-27.25 184.93,-19.54 174.44,-21.03 177.66,-27.25"/>
</g>
<!-- Node6&#45;&gt;Node2 -->
<g id="edge6" class="edge">
<title>Node6&#45;&gt;Node2</title>
<path fill="none" stroke="midnightblue" d="M264.65,-556.57C286.35,-569.07 326.42,-590.89 363,-604 370.12,-606.55 377.71,-608.84 385.29,-610.88"/>
<polygon fill="midnightblue" stroke="midnightblue" points="384.67,-614.33 395.22,-613.41 386.39,-607.55 384.67,-614.33"/>
</g>
<!-- Node7 -->
<g id="node7" class="node">
<title>Node7</title>
<g id="a_node7"><a xlink:href="classcarta_1_1TileCache.html#a32436ee71719f6852e8e07891f8aecf7" target="_top" xlink:title="Load a chunk from the file into the cache.">
<polygon fill="none" stroke="black" points="369,-575.5 369,-594.5 524,-594.5 524,-575.5 369,-575.5"/>
<text text-anchor="middle" x="446.5" y="-582.5" font-family="Helvetica,sans-Serif" font-size="10.00">carta::TileCache::LoadChunk</text>
</a>
</g>
</g>
<!-- Node6&#45;&gt;Node7 -->
<g id="edge7" class="edge">
<title>Node6&#45;&gt;Node7</title>
<path fill="none" stroke="midnightblue" d="M297.96,-556.54C324.65,-561.69 357.8,-568.08 385.92,-573.51"/>
<polygon fill="midnightblue" stroke="midnightblue" points="385.54,-577 396.02,-575.46 386.87,-570.13 385.54,-577"/>
</g>
<!-- Node8 -->
<g id="node8" class="node">
<title>Node8</title>
<g id="a_node8"><a xlink:href="classcarta_1_1TileCache.html#a75bc5452ceb7180fabcc601bb5a2533e" target="_top" xlink:title="Update the access time of a tile.">
<polygon fill="none" stroke="black" points="577.5,-549.5 577.5,-568.5 706.5,-568.5 706.5,-549.5 577.5,-549.5"/>
<text text-anchor="middle" x="642" y="-556.5" font-family="Helvetica,sans-Serif" font-size="10.00">carta::TileCache::Touch</text>
</a>
</g>
</g>
<!-- Node6&#45;&gt;Node8 -->
<g id="edge9" class="edge">
<title>Node6&#45;&gt;Node8</title>
<path fill="none" stroke="midnightblue" d="M307.26,-548.8C376.5,-550.91 491.63,-554.43 566.92,-556.74"/>
<polygon fill="midnightblue" stroke="midnightblue" points="567.17,-560.24 577.27,-557.05 567.38,-553.25 567.17,-560.24"/>
</g>
<!-- Node9 -->
<g id="node9" class="node">
<title>Node9</title>
<g id="a_node9"><a xlink:href="classcarta_1_1TileCache.html#a2d177c8da40cd3050f42848ca8f661d3" target="_top" xlink:title="Retrieve a tile from the cache.">
<polygon fill="none" stroke="black" points="366.5,-499.5 366.5,-518.5 526.5,-518.5 526.5,-499.5 366.5,-499.5"/>
<text text-anchor="middle" x="446.5" y="-506.5" font-family="Helvetica,sans-Serif" font-size="10.00">carta::TileCache::UnsafePeek</text>
</a>
</g>
</g>
<!-- Node6&#45;&gt;Node9 -->
<g id="edge10" class="edge">
<title>Node6&#45;&gt;Node9</title>
<path fill="none" stroke="midnightblue" d="M297.96,-537.46C324.65,-532.31 357.8,-525.92 385.92,-520.49"/>
<polygon fill="midnightblue" stroke="midnightblue" points="386.87,-523.87 396.02,-518.54 385.54,-517 386.87,-523.87"/>
</g>
<!-- Node7&#45;&gt;Node8 -->
<g id="edge8" class="edge">
<title>Node7&#45;&gt;Node8</title>
<path fill="none" stroke="midnightblue" d="M518.45,-575.47C534.29,-573.34 551.12,-571.08 567.08,-568.93"/>
<polygon fill="midnightblue" stroke="midnightblue" points="567.97,-572.34 577.42,-567.54 567.04,-565.41 567.97,-572.34"/>
</g>
<!-- Node12 -->
<g id="node12" class="node">
<title>Node12</title>
<g id="a_node12"><a xlink:href="classcarta_1_1Frame.html#aeff1a00d7f22df6f180888b1d9eaf457" target="_top" xlink:title=" ">
<polygon fill="none" stroke="black" points="374,-461.5 374,-480.5 519,-480.5 519,-461.5 374,-461.5"/>
<text text-anchor="middle" x="446.5" y="-468.5" font-family="Helvetica,sans-Serif" font-size="10.00">carta::Frame::ImageShape</text>
</a>
</g>
</g>
<!-- Node11&#45;&gt;Node12 -->
<g id="edge13" class="edge">
<title>Node11&#45;&gt;Node12</title>
<path fill="none" stroke="midnightblue" d="M298.72,-385.52C308.3,-388.06 318.1,-391.2 327,-395 364.1,-410.86 402.63,-437.87 425.32,-455.05"/>
<polygon fill="midnightblue" stroke="midnightblue" points="423.41,-458 433.47,-461.33 427.68,-452.46 423.41,-458"/>
</g>
<!-- Node16 -->
<g id="node16" class="node">
<title>Node16</title>
<g id="a_node16"><a xlink:href="classcarta_1_1Frame.html#afe9bbcad03f6343aba029f48c4e66dc7" target="_top" xlink:title=" ">
<polygon fill="none" stroke="black" points="363,-366.5 363,-385.5 530,-385.5 530,-366.5 363,-366.5"/>
<text text-anchor="middle" x="446.5" y="-373.5" font-family="Helvetica,sans-Serif" font-size="10.00">carta::Frame::IsCurrentZStokes</text>
</a>
</g>
</g>
<!-- Node11&#45;&gt;Node16 -->
<g id="edge17" class="edge">
<title>Node11&#45;&gt;Node16</title>
<path fill="none" stroke="midnightblue" d="M323.54,-376C333.06,-376 342.9,-376 352.65,-376"/>
<polygon fill="midnightblue" stroke="midnightblue" points="352.78,-379.5 362.78,-376 352.78,-372.5 352.78,-379.5"/>
</g>
<!-- Node13 -->
<g id="node13" class="node">
<title>Node13</title>
<g id="a_node13"><a xlink:href="structStokesSource.html#a7651d6cbedb427f5c00925c5111feac8" target="_top" xlink:title=" ">
<polygon fill="none" stroke="black" points="575,-443 575,-473 709,-473 709,-443 575,-443"/>
<text text-anchor="start" x="583" y="-461" font-family="Helvetica,sans-Serif" font-size="10.00">StokesSource::IsOriginal</text>
<text text-anchor="middle" x="642" y="-450" font-family="Helvetica,sans-Serif" font-size="10.00">Image</text>
</a>
</g>
</g>
<!-- Node12&#45;&gt;Node13 -->
<g id="edge14" class="edge">
<title>Node12&#45;&gt;Node13</title>
<path fill="none" stroke="midnightblue" d="M519,-466.2C533.87,-465.2 549.6,-464.14 564.64,-463.13"/>
<polygon fill="midnightblue" stroke="midnightblue" points="565.17,-466.6 574.92,-462.44 564.71,-459.62 565.17,-466.6"/>
</g>
<!-- Node15 -->
<g id="node15" class="node">
<title>Node15</title>
<g id="a_node15"><a xlink:href="classcarta_1_1Frame.html#a8075c3310541d8a14cdc9dc8fc37b117" target="_top" xlink:title=" ">
<polygon fill="none" stroke="black" points="584,-492.5 584,-511.5 700,-511.5 700,-492.5 584,-492.5"/>
<text text-anchor="middle" x="642" y="-499.5" font-family="Helvetica,sans-Serif" font-size="10.00">carta::Frame::IsValid</text>
</a>
</g>
</g>
<!-- Node12&#45;&gt;Node15 -->
<g id="edge16" class="edge">
<title>Node12&#45;&gt;Node15</title>
<path fill="none" stroke="midnightblue" d="M506.87,-480.51C527.97,-483.89 551.87,-487.72 573.59,-491.2"/>
<polygon fill="midnightblue" stroke="midnightblue" points="573.3,-494.7 583.73,-492.83 574.41,-487.79 573.3,-494.7"/>
</g>
<!-- Node14 -->
<g id="node14" class="node">
<title>Node14</title>
<g id="a_node14"><a xlink:href="Stokes_8h.html#a30da07ffd67ed06c1e15e2da4d915e0c" target="_top" xlink:title=" ">
<polygon fill="none" stroke="black" points="754,-448.5 754,-467.5 861,-467.5 861,-448.5 754,-448.5"/>
<text text-anchor="middle" x="807.5" y="-455.5" font-family="Helvetica,sans-Serif" font-size="10.00">IsComputedStokes</text>
</a>
</g>
</g>
<!-- Node13&#45;&gt;Node14 -->
<g id="edge15" class="edge">
<title>Node13&#45;&gt;Node14</title>
<path fill="none" stroke="midnightblue" d="M709.03,-458C720.43,-458 732.25,-458 743.57,-458"/>
<polygon fill="midnightblue" stroke="midnightblue" points="743.79,-461.5 753.79,-458 743.79,-454.5 743.79,-461.5"/>
</g>
<!-- Node16&#45;&gt;Node3 -->
<g id="edge18" class="edge">
<title>Node16&#45;&gt;Node3</title>
<path fill="none" stroke="midnightblue" d="M472.01,-366.37C506.17,-352.95 568.27,-328.57 606.93,-313.38"/>
<polygon fill="midnightblue" stroke="midnightblue" points="608.66,-316.46 616.69,-309.55 606.1,-309.95 608.66,-316.46"/>
</g>
<!-- Node16&#45;&gt;Node4 -->
<g id="edge19" class="edge">
<title>Node16&#45;&gt;Node4</title>
<path fill="none" stroke="midnightblue" d="M530.12,-384.11C542.72,-385.35 555.65,-386.62 568.02,-387.83"/>
<polygon fill="midnightblue" stroke="midnightblue" points="567.97,-391.35 578.26,-388.84 568.65,-384.38 567.97,-391.35"/>
</g>
<!-- Node17&#45;&gt;Node3 -->
<g id="edge21" class="edge">
<title>Node17&#45;&gt;Node3</title>
<path fill="none" stroke="midnightblue" d="M325.61,-263.81C382.2,-269.65 460.92,-277.96 530,-286 538.69,-287.01 547.76,-288.1 556.81,-289.21"/>
<polygon fill="midnightblue" stroke="midnightblue" points="556.63,-292.71 566.99,-290.46 557.49,-285.77 556.63,-292.71"/>
</g>
<!-- Node17&#45;&gt;Node18 -->
<g id="edge22" class="edge">
<title>Node17&#45;&gt;Node18</title>
<path fill="none" stroke="midnightblue" d="M291.81,-240.89C303.4,-236.46 315.81,-231.36 327,-226 343.71,-218 345.78,-211.82 363,-205 369.43,-202.45 376.28,-200.2 383.18,-198.22"/>
<polygon fill="midnightblue" stroke="midnightblue" points="384.53,-201.48 393.28,-195.51 382.71,-194.72 384.53,-201.48"/>
</g>
<!-- Node19 -->
<g id="node19" class="node">
<title>Node19</title>
<g id="a_node19"><a xlink:href="classcarta_1_1Frame.html#a98d7c0c04b6d04f7617c41e6068362a9" target="_top" xlink:title=" ">
<polygon fill="none" stroke="black" points="376.5,-214.5 376.5,-233.5 516.5,-233.5 516.5,-214.5 376.5,-214.5"/>
<text text-anchor="middle" x="446.5" y="-221.5" font-family="Helvetica,sans-Serif" font-size="10.00">carta::Frame::NumStokes</text>
</a>
</g>
</g>
<!-- Node17&#45;&gt;Node19 -->
<g id="edge23" class="edge">
<title>Node17&#45;&gt;Node19</title>
<path fill="none" stroke="midnightblue" d="M325.51,-243.49C342.4,-240.75 360.18,-237.86 376.72,-235.17"/>
<polygon fill="midnightblue" stroke="midnightblue" points="377.53,-238.59 386.84,-233.53 376.41,-231.68 377.53,-238.59"/>
</g>
<!-- Node20&#45;&gt;Node21 -->
<g id="edge25" class="edge">
<title>Node20&#45;&gt;Node21</title>
<path fill="none" stroke="midnightblue" d="M297.2,-167.57C324.61,-163.95 359.02,-159.41 387.78,-155.62"/>
<polygon fill="midnightblue" stroke="midnightblue" points="388.25,-159.09 397.7,-154.31 387.33,-152.15 388.25,-159.09"/>
</g>
<!-- Node24 -->
<g id="node24" class="node">
<title>Node24</title>
<g id="a_node24"><a xlink:href="classcarta_1_1queuing__rw__mutex.html#a604cdab74206f5521604334d5dc0d634" target="_top" xlink:title=" ">
<polygon fill="none" stroke="black" points="376.5,-64 376.5,-94 516.5,-94 516.5,-64 376.5,-64"/>
<text text-anchor="start" x="384.5" y="-82" font-family="Helvetica,sans-Serif" font-size="10.00">carta::queuing_rw_mutex</text>
<text text-anchor="middle" x="446.5" y="-71" font-family="Helvetica,sans-Serif" font-size="10.00">::reader_leave</text>
</a>
</g>
</g>
<!-- Node23&#45;&gt;Node24 -->
<g id="edge29" class="edge">
<title>Node23&#45;&gt;Node24</title>
<path fill="none" stroke="midnightblue" d="M317.68,-62.78C333.47,-64.78 350.37,-66.93 366.53,-68.98"/>
<polygon fill="midnightblue" stroke="midnightblue" points="366.13,-72.46 376.49,-70.24 367.01,-65.51 366.13,-72.46"/>
</g>
<!-- Node26 -->
<g id="node26" class="node">
<title>Node26</title>
<g id="a_node26"><a xlink:href="classcarta_1_1queuing__rw__mutex.html#ae90899b9fc49562d1c53fac3b786b12d" target="_top" xlink:title=" ">
<polygon fill="none" stroke="black" points="376.5,-15 376.5,-45 516.5,-45 516.5,-15 376.5,-15"/>
<text text-anchor="start" x="384.5" y="-33" font-family="Helvetica,sans-Serif" font-size="10.00">carta::queuing_rw_mutex</text>
<text text-anchor="middle" x="446.5" y="-22" font-family="Helvetica,sans-Serif" font-size="10.00">::writer_leave</text>
</a>
</g>
</g>
<!-- Node23&#45;&gt;Node26 -->
<g id="edge31" class="edge">
<title>Node23&#45;&gt;Node26</title>
<path fill="none" stroke="midnightblue" d="M317.68,-45.57C333.47,-43.65 350.37,-41.59 366.53,-39.62"/>
<polygon fill="midnightblue" stroke="midnightblue" points="366.99,-43.09 376.49,-38.41 366.14,-36.14 366.99,-43.09"/>
</g>
<!-- Node25 -->
<g id="node25" class="node">
<title>Node25</title>
<g id="a_node25"><a xlink:href="classcarta_1_1queuing__rw__mutex.html#af7d20dfc496517e34f93151e4032a9c9" target="_top" xlink:title=" ">
<polygon fill="none" stroke="black" points="572,-40 572,-70 712,-70 712,-40 572,-40"/>
<text text-anchor="start" x="580" y="-58" font-family="Helvetica,sans-Serif" font-size="10.00">carta::queuing_rw_mutex</text>
<text text-anchor="middle" x="642" y="-47" font-family="Helvetica,sans-Serif" font-size="10.00">::dequeue_one_writer</text>
</a>
</g>
</g>
<!-- Node24&#45;&gt;Node25 -->
<g id="edge30" class="edge">
<title>Node24&#45;&gt;Node25</title>
<path fill="none" stroke="midnightblue" d="M516.54,-70.44C531.18,-68.62 546.74,-66.69 561.73,-64.83"/>
<polygon fill="midnightblue" stroke="midnightblue" points="562.5,-68.26 571.99,-63.56 561.63,-61.32 562.5,-68.26"/>
</g>
<!-- Node26&#45;&gt;Node25 -->
<g id="edge32" class="edge">
<title>Node26&#45;&gt;Node25</title>
<path fill="none" stroke="midnightblue" d="M516.54,-38.92C531.18,-40.81 546.74,-42.82 561.73,-44.76"/>
<polygon fill="midnightblue" stroke="midnightblue" points="561.62,-48.27 571.99,-46.08 562.52,-41.33 561.62,-48.27"/>
</g>
</g>
</svg>
        <g id="navigator" transform="translate(0 0)" fill="#404254">
                <rect fill="#f2f5e9" fill-opacity="0.5" stroke="#606060" stroke-width=".5" x="0" y="0" width="60" height="60"/>
                <use id="zoomplus" xlink:href="#zoomPlus" x="17" y="9" onmousedown="handleZoom(evt,'in')"/>
                <use id="zoomminus" xlink:href="#zoomMin" x="42" y="9" onmousedown="handleZoom(evt,'out')"/>
                <use id="reset" xlink:href="#resetDef" x="30" y="36" onmousedown="handleReset()"/>
                <g id="arrowUp" xlink:href="#dirArrow" transform="translate(30 24)" onmousedown="handlePan(0,-1)">
                  <use xlink:href="#rim" fill="#404040">
                        <set attributeName="fill" to="#808080" begin="arrowUp.mouseover" end="arrowUp.mouseout"/>
                  </use>
                  <path fill="none" stroke="white" stroke-width="1.5" d="M0,-3.0v7 M-2.5,-0.5L0,-3.0L2.5,-0.5"/>
                </g>
                <g id="arrowRight" xlink:href="#dirArrow" transform="rotate(90) translate(36 -43)" onmousedown="handlePan(1,0)">
                  <use xlink:href="#rim" fill="#404040">
                        <set attributeName="fill" to="#808080" begin="arrowRight.mouseover" end="arrowRight.mouseout"/>
                  </use>
                  <path fill="none" stroke="white" stroke-width="1.5" d="M0,-3.0v7 M-2.5,-0.5L0,-3.0L2.5,-0.5"/>
                </g>
                <g id="arrowDown" xlink:href="#dirArrow" transform="rotate(180) translate(-30 -48)" onmousedown="handlePan(0,1)">
                  <use xlink:href="#rim" fill="#404040">
                        <set attributeName="fill" to="#808080" begin="arrowDown.mouseover" end="arrowDown.mouseout"/>
                  </use>
                  <path fill="none" stroke="white" stroke-width="1.5" d="M0,-3.0v7 M-2.5,-0.5L0,-3.0L2.5,-0.5"/>
                </g>
                <g id="arrowLeft" xlink:href="#dirArrow" transform="rotate(270) translate(-36 17)" onmousedown="handlePan(-1,0)">
                  <use xlink:href="#rim" fill="#404040">
                        <set attributeName="fill" to="#808080" begin="arrowLeft.mouseover" end="arrowLeft.mouseout"/>
                  </use>
                  <path fill="none" stroke="white" stroke-width="1.5" d="M0,-3.0v7 M-2.5,-0.5L0,-3.0L2.5,-0.5"/>
                </g>
        </g>
        <svg viewBox="0 0 15 15" width="100%" height="30px" preserveAspectRatio="xMaxYMin meet">
         <g id="arrow_out" transform="scale(0.3 0.3)">
          <a xlink:href="classcarta_1_1Frame_a3d1f8594ec63ae8f16524981c5f21ce2_cgraph_org.svg" target="_base">
           <rect id="button" ry="5" rx="5" y="6" x="6" height="38" width="38"
                fill="#f2f5e9" fill-opacity="0.5" stroke="#606060" stroke-width="1.0"/>
           <path id="arrow"
             d="M 11.500037,31.436501 C 11.940474,20.09759 22.043105,11.32322 32.158766,21.979434 L 37.068811,17.246167 C 37.068811,17.246167 37.088388,32 37.088388,32 L 22.160133,31.978069 C 22.160133,31.978069 26.997745,27.140456 26.997745,27.140456 C 18.528582,18.264221 13.291696,25.230495 11.500037,31.436501 z"
             style="fill:#404040;"/>
          </a>
         </g>
        </svg>
</svg>
