<?xml version="1.0" encoding="UTF-8" standalone="no"?>
<!DOCTYPE svg PUBLIC "-//W3C//DTD SVG 1.1//EN"
 "http://www.w3.org/Graphics/SVG/1.1/DTD/svg11.dtd">
<!-- Generated by graphviz version 2.43.0 (0)
 -->
<!-- Title: carta::FileListHandler Pages: 1 -->
<svg width="492pt" height="207pt"
 viewBox="0.00 0.00 491.50 207.00" xmlns="http://www.w3.org/2000/svg" xmlns:xlink="http://www.w3.org/1999/xlink">
<g id="graph0" class="graph" transform="scale(1 1) rotate(0) translate(4 203)">
<title>carta::FileListHandler</title>
<!-- Node1 -->
<g id="node1" class="node">
<title>Node1</title>
<g id="a_node1"><a xlink:title=" ">
<polygon fill="#bfbfbf" stroke="black" points="156.5,-0.5 156.5,-19.5 276.5,-19.5 276.5,-0.5 156.5,-0.5"/>
<text text-anchor="middle" x="216.5" y="-7.5" font-family="Helvetica,sans-Serif" font-size="10.00">carta::FileListHandler</text>
</a>
</g>
</g>
<!-- Node2 -->
<g id="node2" class="node">
<title>Node2</title>
<g id="a_node2"><a xlink:title=" ">
<polygon fill="none" stroke="#bfbfbf" points="0,-106 0,-125 69,-125 69,-106 0,-106"/>
<text text-anchor="middle" x="34.5" y="-113" font-family="Helvetica,sans-Serif" font-size="10.00">std::mutex</text>
</a>
</g>
</g>
<!-- Node2&#45;&gt;Node1 -->
<g id="edge1" class="edge">
<title>Node2&#45;&gt;Node1</title>
<path fill="none" stroke="#9a32cd" stroke-dasharray="5,2" d="M30.67,-95.74C28.31,-78.42 28.08,-53.16 42.5,-38 57.88,-21.83 112.31,-15.32 156.25,-12.72"/>
<polygon fill="#9a32cd" stroke="#9a32cd" points="27.25,-96.52 32.39,-105.78 34.15,-95.34 27.25,-96.52"/>
<text text-anchor="middle" x="89.5" y="-63" font-family="Helvetica,sans-Serif" font-size="10.00"> _file_list_mutex</text>
<text text-anchor="middle" x="89.5" y="-52" font-family="Helvetica,sans-Serif" font-size="10.00">_region_list_mutex</text>
</g>
<!-- Node3 -->
<g id="node3" class="node">
<title>Node3</title>
<g id="a_node3"><a xlink:title=" ">
<polygon fill="none" stroke="#bfbfbf" points="132.5,-106 132.5,-125 170.5,-125 170.5,-106 132.5,-106"/>
<text text-anchor="middle" x="151.5" y="-113" font-family="Helvetica,sans-Serif" font-size="10.00">bool</text>
</a>
</g>
</g>
<!-- Node3&#45;&gt;Node1 -->
<g id="edge2" class="edge">
<title>Node3&#45;&gt;Node1</title>
<path fill="none" stroke="#9a32cd" stroke-dasharray="5,2" d="M144.99,-95.88C140.43,-79.25 136.99,-54.96 148.5,-38 154.35,-29.38 163.43,-23.52 173.07,-19.52"/>
<polygon fill="#9a32cd" stroke="#9a32cd" points="141.69,-97.04 148.01,-105.55 148.37,-94.96 141.69,-97.04"/>
<text text-anchor="middle" x="202" y="-63" font-family="Helvetica,sans-Serif" font-size="10.00"> _first_report_made</text>
<text text-anchor="middle" x="202" y="-52" font-family="Helvetica,sans-Serif" font-size="10.00">_stop_getting_file_list</text>
</g>
<!-- Node4 -->
<g id="node4" class="node">
<title>Node4</title>
<g id="a_node4"><a xlink:title=" ">
<polygon fill="none" stroke="#bfbfbf" points="246,-106 246,-125 311,-125 311,-106 246,-106"/>
<text text-anchor="middle" x="278.5" y="-113" font-family="Helvetica,sans-Serif" font-size="10.00">std::string</text>
</a>
</g>
</g>
<!-- Node4&#45;&gt;Node1 -->
<g id="edge3" class="edge">
<title>Node4&#45;&gt;Node1</title>
<path fill="none" stroke="#9a32cd" stroke-dasharray="5,2" d="M277.7,-95.47C276.15,-78.89 271.76,-54.93 259.5,-38 253.81,-30.15 245.07,-24.06 236.96,-19.67"/>
<polygon fill="#9a32cd" stroke="#9a32cd" points="274.22,-95.84 278.38,-105.59 281.21,-95.37 274.22,-95.84"/>
<text text-anchor="middle" x="318" y="-74" font-family="Helvetica,sans-Serif" font-size="10.00"> _filelist_folder</text>
<text text-anchor="middle" x="318" y="-63" font-family="Helvetica,sans-Serif" font-size="10.00">_regionlist_folder</text>
<text text-anchor="middle" x="318" y="-52" font-family="Helvetica,sans-Serif" font-size="10.00">_starting_folder</text>
<text text-anchor="middle" x="318" y="-41" font-family="Helvetica,sans-Serif" font-size="10.00">_top_level_folder</text>
</g>
<!-- Node5 -->
<g id="node5" class="node">
<title>Node5</title>
<g id="a_node5"><a xlink:title=" ">
<polygon fill="none" stroke="#bfbfbf" points="226.5,-168.5 226.5,-198.5 330.5,-198.5 330.5,-168.5 226.5,-168.5"/>
<text text-anchor="start" x="234.5" y="-186.5" font-family="Helvetica,sans-Serif" font-size="10.00">std::basic_string&lt;</text>
<text text-anchor="middle" x="278.5" y="-175.5" font-family="Helvetica,sans-Serif" font-size="10.00"> Char &gt;</text>
</a>
</g>
</g>
<!-- Node5&#45;&gt;Node4 -->
<g id="edge4" class="edge">
<title>Node5&#45;&gt;Node4</title>
<path fill="none" stroke="midnightblue" d="M278.5,-157.88C278.5,-146.47 278.5,-133.64 278.5,-125.33"/>
<polygon fill="midnightblue" stroke="midnightblue" points="275,-158.18 278.5,-168.18 282,-158.18 275,-158.18"/>
</g>
<!-- Node6 -->
<g id="node6" class="node">
<title>Node6</title>
<g id="a_node6"><a xlink:title=" ">
<polygon fill="none" stroke="#bfbfbf" points="329.5,-100.5 329.5,-130.5 453.5,-130.5 453.5,-100.5 329.5,-100.5"/>
<text text-anchor="start" x="337.5" y="-118.5" font-family="Helvetica,sans-Serif" font-size="10.00">function&lt; void(CARTA</text>
<text text-anchor="middle" x="391.5" y="-107.5" font-family="Helvetica,sans-Serif" font-size="10.00">::ListProgress)&gt;</text>
</a>
</g>
</g>
<!-- Node6&#45;&gt;Node1 -->
<g id="edge5" class="edge">
<title>Node6&#45;&gt;Node1</title>
<path fill="none" stroke="#9a32cd" stroke-dasharray="5,2" d="M389.2,-89.89C386.28,-72.81 379.62,-50.89 364.5,-38 351.23,-26.69 311.56,-19.83 276.62,-15.86"/>
<polygon fill="#9a32cd" stroke="#9a32cd" points="385.8,-90.85 390.64,-100.27 392.74,-89.89 385.8,-90.85"/>
<text text-anchor="middle" x="435" y="-57.5" font-family="Helvetica,sans-Serif" font-size="10.00"> _progress_callback</text>
</g>
</g>
</svg>
