<?xml version="1.0" encoding="UTF-8" standalone="no"?>
<!DOCTYPE svg PUBLIC "-//W3C//DTD SVG 1.1//EN"
 "http://www.w3.org/Graphics/SVG/1.1/DTD/svg11.dtd">
<!-- Generated by graphviz version 2.43.0 (0)
 -->
<!-- Title: carta::FileExtInfoLoader::FitsHeaderStrings Pages: 1 -->
<!--zoomable 409 -->

<svg id="main" version="1.1" xmlns="http://www.w3.org/2000/svg" xmlns:xlink="http://www.w3.org/1999/xlink" xml:space="preserve" onload="init(evt)">
<style type="text/css"><![CDATA[
.node, .edge {opacity: 0.7;}
.node.selected, .edge.selected {opacity: 1;}
.edge:hover path { stroke: red; }
.edge:hover polygon { stroke: red; fill: red; }
]]></style>

<defs>
  <circle id="rim" cx="0" cy="0" r="7"/>
  <circle id="rim2" cx="0" cy="0" r="3.5"/>
  <g id="zoomPlus">
    <use xlink:href="#rim" fill="#404040"><set attributeName="fill" to="#808080" begin="zoomplus.mouseover" end="zoomplus.mouseout"/></use>
    <path d="M-4,0h8M0,-4v8" fill="none" stroke="white" stroke-width="1.5" pointer-events="none"/>
  </g>
  <g id="zoomMin">
    <use xlink:href="#rim" fill="#404040"><set attributeName="fill" to="#808080" begin="zoomminus.mouseover" end="zoomminus.mouseout"/></use>
    <path d="M-4,0h8" fill="none" stroke="white" stroke-width="1.5" pointer-events="none"/>
  </g>
  <g id="arrowUp" transform="translate(30 24)">
    <use xlink:href="#rim"/>
    <path pointer-events="none" fill="none" stroke="white" stroke-width="1.5" d="M0,-3.0v7 M-2.5,-0.5L0,-3.0L2.5,-0.5"/>
  </g>
  <g id="arrowRight" transform="rotate(90) translate(36 -43)">
    <use xlink:href="#rim"/>
    <path pointer-events="none" fill="none" stroke="white" stroke-width="1.5" d="M0,-3.0v7 M-2.5,-0.5L0,-3.0L2.5,-0.5"/>
  </g>
  <g id="arrowDown" transform="rotate(180) translate(-30 -48)">
    <use xlink:href="#rim"/>
    <path pointer-events="none" fill="none" stroke="white" stroke-width="1.5" d="M0,-3.0v7 M-2.5,-0.5L0,-3.0L2.5,-0.5"/>
  </g>
  <g id="arrowLeft" transform="rotate(270) translate(-36 17)">
    <use xlink:href="#rim"/>
    <path pointer-events="none" fill="none" stroke="white" stroke-width="1.5" d="M0,-3.0v7 M-2.5,-0.5L0,-3.0L2.5,-0.5"/>
  </g>
  <g id="resetDef">
    <use xlink:href="#rim2" fill="#404040"><set attributeName="fill" to="#808080" begin="reset.mouseover" end="reset.mouseout"/></use>
  </g>
</defs>
<script type="application/ecmascript">
var viewWidth = 1759;
var viewHeight = 409;
var sectionId = 'dynsection-26';
</script>
<script type="application/ecmascript" xlink:href="svg.min.js"/>
<svg id="graph" class="graph">
<g id="viewport">
<title>carta::FileExtInfoLoader::FitsHeaderStrings</title>
<!-- Node1 -->
<g id="Node000001" class="node">
<title>Node1</title>
<g id="a_Node000001"><a xlink:title=" ">
<polygon fill="#999999" stroke="#666666" points="1751,-148 1619,-148 1619,-118 1751,-118 1751,-148"/>
<text text-anchor="start" x="1627" y="-136" font-family="Helvetica,sans-Serif" font-size="10.00">carta::FileExtInfoLoader</text>
<text text-anchor="middle" x="1685" y="-125" font-family="Helvetica,sans-Serif" font-size="10.00">::FitsHeaderStrings</text>
</a>
</g>
</g>
<!-- Node2 -->
<g id="Node000002" class="node">
<title>Node2</title>
<g id="a_Node000002"><a xlink:href="classcarta_1_1FileExtInfoLoader.html#a2b908c0f74ba5614a0602bfec4bf3aae" target="_top" xlink:title=" ">
<polygon fill="white" stroke="#666666" points="1583,-148 1451,-148 1451,-118 1583,-118 1583,-148"/>
<text text-anchor="start" x="1459" y="-136" font-family="Helvetica,sans-Serif" font-size="10.00">carta::FileExtInfoLoader</text>
<text text-anchor="middle" x="1517" y="-125" font-family="Helvetica,sans-Serif" font-size="10.00">::FillFileInfoFromImage</text>
</a>
</g>
</g>
<!-- Node1&#45;&gt;Node2 -->
<g id="edge1_Node000001_Node000002" class="edge">
<title>Node1&#45;&gt;Node2</title>
<g id="a_edge1_Node000001_Node000002"><a xlink:title=" ">
<path fill="none" stroke="#63b8ff" d="M1608.61,-133C1600.13,-133 1591.55,-133 1583.22,-133"/>
<polygon fill="#63b8ff" stroke="#63b8ff" points="1608.87,-136.5 1618.87,-133 1608.87,-129.5 1608.87,-136.5"/>
</a>
</g>
</g>
<!-- Node3 -->
<g id="Node000003" class="node">
<title>Node3</title>
<g id="a_Node000003"><a xlink:href="classcarta_1_1FileExtInfoLoader.html#a30fc220f3dc42e8828e92d1fdb314c6c" target="_top" xlink:title=" ">
<polygon fill="white" stroke="#666666" points="1415,-148 1283,-148 1283,-118 1415,-118 1415,-148"/>
<text text-anchor="start" x="1291" y="-136" font-family="Helvetica,sans-Serif" font-size="10.00">carta::FileExtInfoLoader</text>
<text text-anchor="middle" x="1349" y="-125" font-family="Helvetica,sans-Serif" font-size="10.00">::FillFileExtInfo</text>
</a>
</g>
</g>
<!-- Node2&#45;&gt;Node3 -->
<g id="edge2_Node000002_Node000003" class="edge">
<title>Node2&#45;&gt;Node3</title>
<g id="a_edge2_Node000002_Node000003"><a xlink:title=" ">
<path fill="none" stroke="#63b8ff" d="M1440.61,-133C1432.13,-133 1423.55,-133 1415.22,-133"/>
<polygon fill="#63b8ff" stroke="#63b8ff" points="1440.87,-136.5 1450.87,-133 1440.87,-129.5 1440.87,-136.5"/>
</a>
</g>
</g>
<!-- Node4 -->
<g id="Node000004" class="node">
<title>Node4</title>
<g id="a_Node000004"><a xlink:href="classcarta_1_1Session.html#a69d1ec0dfd2c518a8b4cdf56fa57b0b0" target="_top" xlink:title=" ">
<polygon fill="white" stroke="#666666" points="1247,-218 1096,-218 1096,-188 1247,-188 1247,-218"/>
<text text-anchor="start" x="1104" y="-206" font-family="Helvetica,sans-Serif" font-size="10.00">carta::Session::FillExtended</text>
<text text-anchor="middle" x="1171.5" y="-195" font-family="Helvetica,sans-Serif" font-size="10.00">FileInfo</text>
</a>
</g>
</g>
<!-- Node3&#45;&gt;Node4 -->
<g id="edge3_Node000003_Node000004" class="edge">
<title>Node3&#45;&gt;Node4</title>
<g id="a_edge3_Node000003_Node000004"><a xlink:title=" ">
<path fill="none" stroke="#63b8ff" d="M1308.21,-152.41C1289.79,-161.06 1267.5,-171.06 1247,-179 1239.02,-182.09 1230.45,-185.12 1222.07,-187.92"/>
<polygon fill="#63b8ff" stroke="#63b8ff" points="1309.91,-155.48 1317.45,-148.03 1306.92,-149.15 1309.91,-155.48"/>
</a>
</g>
</g>
<!-- Node5 -->
<g id="Node000005" class="node">
<title>Node5</title>
<g id="a_Node000005"><a xlink:href="classcarta_1_1Session.html#af580ae817369fb79315758e7f8d3b6a9" target="_top" xlink:title=" ">
<polygon fill="white" stroke="#666666" points="1247,-170 1096,-170 1096,-140 1247,-140 1247,-170"/>
<text text-anchor="start" x="1104" y="-158" font-family="Helvetica,sans-Serif" font-size="10.00">carta::Session::FillExtended</text>
<text text-anchor="middle" x="1171.5" y="-147" font-family="Helvetica,sans-Serif" font-size="10.00">FileInfo</text>
</a>
</g>
</g>
<!-- Node3&#45;&gt;Node5 -->
<g id="edge4_Node000003_Node000005" class="edge">
<title>Node3&#45;&gt;Node5</title>
<g id="a_edge4_Node000003_Node000005"><a xlink:title=" ">
<path fill="none" stroke="#63b8ff" d="M1272.47,-142.47C1264.05,-143.52 1255.48,-144.6 1247.07,-145.65"/>
<polygon fill="#63b8ff" stroke="#63b8ff" points="1273.16,-145.91 1282.65,-141.19 1272.29,-138.96 1273.16,-145.91"/>
</a>
</g>
</g>
<!-- Node6 -->
<g id="Node000006" class="node">
<title>Node6</title>
<g id="a_Node000006"><a xlink:href="classcarta_1_1Session.html#a3dc8e818765159809dfb28472a3c95a6" target="_top" xlink:title=" ">
<polygon fill="white" stroke="#666666" points="1060,-105 909,-105 909,-75 1060,-75 1060,-105"/>
<text text-anchor="start" x="917" y="-93" font-family="Helvetica,sans-Serif" font-size="10.00">carta::Session::FillExtended</text>
<text text-anchor="middle" x="984.5" y="-82" font-family="Helvetica,sans-Serif" font-size="10.00">FileInfo</text>
</a>
</g>
</g>
<!-- Node3&#45;&gt;Node6 -->
<g id="edge5_Node000003_Node000006" class="edge">
<title>Node3&#45;&gt;Node6</title>
<g id="a_edge5_Node000003_Node000006"><a xlink:title=" ">
<path fill="none" stroke="#63b8ff" d="M1272.62,-124.06C1210.32,-116.67 1122.32,-106.23 1060.21,-98.86"/>
<polygon fill="#63b8ff" stroke="#63b8ff" points="1272.43,-127.56 1282.77,-125.26 1273.26,-120.61 1272.43,-127.56"/>
</a>
</g>
</g>
<!-- Node21 -->
<g id="Node000021" class="node">
<title>Node21</title>
<g id="a_Node000021"><a xlink:href="classcarta_1_1FileExtInfoLoader.html#a06c36c25d3286c3019c1bbdcabdd9f63" target="_top" xlink:title=" ">
<polygon fill="white" stroke="#666666" points="1237.5,-84 1105.5,-84 1105.5,-54 1237.5,-54 1237.5,-84"/>
<text text-anchor="start" x="1113.5" y="-72" font-family="Helvetica,sans-Serif" font-size="10.00">carta::FileExtInfoLoader</text>
<text text-anchor="middle" x="1171.5" y="-61" font-family="Helvetica,sans-Serif" font-size="10.00">::FillFitsFileInfoMap</text>
</a>
</g>
</g>
<!-- Node3&#45;&gt;Node21 -->
<g id="edge29_Node000003_Node000021" class="edge">
<title>Node3&#45;&gt;Node21</title>
<g id="a_edge29_Node000003_Node000021"><a xlink:title=" ">
<path fill="none" stroke="#63b8ff" d="M1297.35,-114.53C1270.8,-104.85 1238.7,-93.14 1213.69,-84.02"/>
<polygon fill="#63b8ff" stroke="#63b8ff" points="1296.26,-117.86 1306.85,-117.99 1298.66,-111.28 1296.26,-117.86"/>
</a>
</g>
</g>
<!-- Node7 -->
<g id="Node000007" class="node">
<title>Node7</title>
<g id="a_Node000007"><a xlink:href="classcarta_1_1Session.html#a8874927da900745afae4a0d975ed0453" target="_top" xlink:title=" ">
<polygon fill="white" stroke="#666666" points="473.5,-100 333.5,-100 333.5,-70 473.5,-70 473.5,-100"/>
<text text-anchor="start" x="341.5" y="-88" font-family="Helvetica,sans-Serif" font-size="10.00">carta::Session::OnFileInfo</text>
<text text-anchor="middle" x="403.5" y="-77" font-family="Helvetica,sans-Serif" font-size="10.00">Request</text>
</a>
</g>
</g>
<!-- Node6&#45;&gt;Node7 -->
<g id="edge6_Node000006_Node000007" class="edge">
<title>Node6&#45;&gt;Node7</title>
<g id="a_edge6_Node000006_Node000007"><a xlink:title=" ">
<path fill="none" stroke="#63b8ff" d="M898.82,-89.27C783.76,-88.28 580.21,-86.52 473.76,-85.6"/>
<polygon fill="#63b8ff" stroke="#63b8ff" points="898.96,-92.77 908.99,-89.36 899.02,-85.77 898.96,-92.77"/>
</a>
</g>
</g>
<!-- Node10 -->
<g id="Node000010" class="node">
<title>Node10</title>
<g id="a_Node000010"><a xlink:href="classcarta_1_1Session.html#a54c5dc766deb62f608792ce551a1b885" target="_top" xlink:title=" ">
<polygon fill="white" stroke="#666666" points="863.5,-244.5 716.5,-244.5 716.5,-225.5 863.5,-225.5 863.5,-244.5"/>
<text text-anchor="middle" x="790" y="-232.5" font-family="Helvetica,sans-Serif" font-size="10.00">carta::Session::OnOpenFile</text>
</a>
</g>
</g>
<!-- Node6&#45;&gt;Node10 -->
<g id="edge9_Node000006_Node000010" class="edge">
<title>Node6&#45;&gt;Node10</title>
<g id="a_edge9_Node000006_Node000010"><a xlink:title=" ">
<path fill="none" stroke="#63b8ff" d="M955.05,-111.43C912.74,-143.3 834.91,-201.93 804.07,-225.15"/>
<polygon fill="#63b8ff" stroke="#63b8ff" points="957.38,-114.06 963.26,-105.24 953.17,-108.46 957.38,-114.06"/>
</a>
</g>
</g>
<!-- Node16 -->
<g id="Node000016" class="node">
<title>Node16</title>
<g id="a_Node000016"><a xlink:href="classcarta_1_1Session.html#a07bfe19708d3e272d01fef6f18712aa2" target="_top" xlink:title=" ">
<polygon fill="white" stroke="#666666" points="671,-400.5 515,-400.5 515,-381.5 671,-381.5 671,-400.5"/>
<text text-anchor="middle" x="593" y="-388.5" font-family="Helvetica,sans-Serif" font-size="10.00">carta::Session::OnPvRequest</text>
</a>
</g>
</g>
<!-- Node6&#45;&gt;Node16 -->
<g id="edge26_Node000006_Node000016" class="edge">
<title>Node6&#45;&gt;Node16</title>
<g id="a_edge26_Node000006_Node000016"><a xlink:title=" ">
<path fill="none" stroke="#63b8ff" d="M973.98,-114.43C958.12,-152.44 923.01,-226.12 873,-272 805.19,-334.21 699.95,-366.94 639.98,-381.45"/>
<polygon fill="#63b8ff" stroke="#63b8ff" points="977.24,-115.72 977.77,-105.14 970.75,-113.08 977.24,-115.72"/>
</a>
</g>
</g>
<!-- Node18 -->
<g id="Node000018" class="node">
<title>Node18</title>
<g id="a_Node000018"><a xlink:href="classcarta_1_1Session.html#a8cd9fa434ef36f11b2be824d20ea6bde" target="_top" xlink:title=" ">
<polygon fill="white" stroke="#666666" points="863.5,-61.5 716.5,-61.5 716.5,-42.5 863.5,-42.5 863.5,-61.5"/>
<text text-anchor="middle" x="790" y="-49.5" font-family="Helvetica,sans-Serif" font-size="10.00">carta::Session::OnOpenFile</text>
</a>
</g>
</g>
<!-- Node6&#45;&gt;Node18 -->
<g id="edge25_Node000006_Node000018" class="edge">
<title>Node6&#45;&gt;Node18</title>
<g id="a_edge25_Node000006_Node000018"><a xlink:title=" ">
<path fill="none" stroke="#63b8ff" d="M898.86,-73.29C878.45,-69.26 857.34,-65.1 839.27,-61.53"/>
<polygon fill="#63b8ff" stroke="#63b8ff" points="898.31,-76.75 908.8,-75.25 899.67,-69.88 898.31,-76.75"/>
</a>
</g>
</g>
<!-- Node19 -->
<g id="Node000019" class="node">
<title>Node19</title>
<g id="a_Node000019"><a xlink:href="classcarta_1_1Session.html#af8a5cb91e4f627673631d7648bbaed75" target="_top" xlink:title=" ">
<polygon fill="white" stroke="#666666" points="873,-24.5 707,-24.5 707,-5.5 873,-5.5 873,-24.5"/>
<text text-anchor="middle" x="790" y="-12.5" font-family="Helvetica,sans-Serif" font-size="10.00">carta::Session::SendPvPreview</text>
</a>
</g>
</g>
<!-- Node6&#45;&gt;Node19 -->
<g id="edge27_Node000006_Node000019" class="edge">
<title>Node6&#45;&gt;Node19</title>
<g id="a_edge27_Node000006_Node000019"><a xlink:title=" ">
<path fill="none" stroke="#63b8ff" d="M950.19,-69.92C928.78,-57.75 900.01,-42.74 873,-33 863.81,-29.69 853.82,-26.87 844.07,-24.53"/>
<polygon fill="#63b8ff" stroke="#63b8ff" points="948.48,-72.97 958.89,-74.93 951.98,-66.9 948.48,-72.97"/>
</a>
</g>
</g>
<!-- Node8 -->
<g id="Node000008" class="node">
<title>Node8</title>
<g id="a_Node000008"><a xlink:href="classcarta_1_1SessionManager.html#a474c31666cb3b22fcbe8af5f945d2950" target="_top" xlink:title=" ">
<polygon fill="white" stroke="#666666" points="292,-186 164,-186 164,-156 292,-156 292,-186"/>
<text text-anchor="start" x="172" y="-174" font-family="Helvetica,sans-Serif" font-size="10.00">carta::SessionManager</text>
<text text-anchor="middle" x="228" y="-163" font-family="Helvetica,sans-Serif" font-size="10.00">::OnMessage</text>
</a>
</g>
</g>
<!-- Node7&#45;&gt;Node8 -->
<g id="edge7_Node000007_Node000008" class="edge">
<title>Node7&#45;&gt;Node8</title>
<g id="a_edge7_Node000007_Node000008"><a xlink:title=" ">
<path fill="none" stroke="#63b8ff" d="M351.17,-103.8C343.33,-107.01 335.39,-110.46 328,-114 301.53,-126.68 272.58,-143.75 252.86,-155.9"/>
<polygon fill="#63b8ff" stroke="#63b8ff" points="352.66,-106.97 360.65,-100.01 350.06,-100.47 352.66,-106.97"/>
</a>
</g>
</g>
<!-- Node9 -->
<g id="Node000009" class="node">
<title>Node9</title>
<g id="a_Node000009"><a xlink:href="classcarta_1_1SessionManager.html#ab4e4e7f0244bd6843e70ab91652debf6" target="_top" xlink:title=" ">
<polygon fill="white" stroke="#666666" points="128,-186 0,-186 0,-156 128,-156 128,-186"/>
<text text-anchor="start" x="8" y="-174" font-family="Helvetica,sans-Serif" font-size="10.00">carta::SessionManager</text>
<text text-anchor="middle" x="64" y="-163" font-family="Helvetica,sans-Serif" font-size="10.00">::RunApp</text>
</a>
</g>
</g>
<!-- Node8&#45;&gt;Node9 -->
<g id="edge8_Node000008_Node000009" class="edge">
<title>Node8&#45;&gt;Node9</title>
<g id="a_edge8_Node000008_Node000009"><a xlink:title=" ">
<path fill="none" stroke="#63b8ff" d="M153.63,-171C145.14,-171 136.53,-171 128.19,-171"/>
<polygon fill="#63b8ff" stroke="#63b8ff" points="153.9,-174.5 163.9,-171 153.9,-167.5 153.9,-174.5"/>
</a>
</g>
</g>
<!-- Node10&#45;&gt;Node8 -->
<g id="edge16_Node000010_Node000008" class="edge">
<title>Node10&#45;&gt;Node8</title>
<g id="a_edge16_Node000010_Node000008"><a xlink:title=" ">
<path fill="none" stroke="#63b8ff" d="M768.25,-219.4C745.63,-203.29 707.74,-178.9 671,-167 525.73,-119.94 479.62,-128.88 328,-147 312.55,-148.85 296.02,-152.26 280.98,-155.94"/>
<polygon fill="#63b8ff" stroke="#63b8ff" points="766.26,-222.28 776.41,-225.32 770.37,-216.61 766.26,-222.28"/>
</a>
</g>
</g>
<!-- Node10&#45;&gt;Node10 -->
<g id="edge19_Node000010_Node000010" class="edge">
<title>Node10&#45;&gt;Node10</title>
<g id="a_edge19_Node000010_Node000010"><a xlink:title=" ">
<path fill="none" stroke="#63b8ff" d="M826.36,-252.57C825.82,-258.12 813.71,-262.5 790,-262.5 755.52,-262.5 745.55,-253.23 760.1,-244.58"/>
<polygon fill="#63b8ff" stroke="#63b8ff" points="828.91,-250.16 819.9,-244.58 823.46,-254.56 828.91,-250.16"/>
</a>
</g>
</g>
<!-- Node11 -->
<g id="Node000011" class="node">
<title>Node11</title>
<g id="a_Node000011"><a xlink:href="classcarta_1_1Session.html#aed12d0369de4c3391dba300cb77e9241" target="_top" xlink:title=" ">
<polygon fill="white" stroke="#666666" points="662,-229 524,-229 524,-199 662,-199 662,-229"/>
<text text-anchor="start" x="532" y="-217" font-family="Helvetica,sans-Serif" font-size="10.00">carta::Session::OnConcat</text>
<text text-anchor="middle" x="593" y="-206" font-family="Helvetica,sans-Serif" font-size="10.00">StokesFiles</text>
</a>
</g>
</g>
<!-- Node10&#45;&gt;Node11 -->
<g id="edge10_Node000010_Node000011" class="edge">
<title>Node10&#45;&gt;Node11</title>
<g id="a_edge10_Node000010_Node000011"><a xlink:title=" ">
<path fill="none" stroke="#63b8ff" d="M706.29,-226.09C691.58,-224.51 676.4,-222.87 662.15,-221.34"/>
<polygon fill="#63b8ff" stroke="#63b8ff" points="706.07,-229.59 716.39,-227.18 706.82,-222.63 706.07,-229.59"/>
</a>
</g>
</g>
<!-- Node12 -->
<g id="Node000012" class="node">
<title>Node12</title>
<g id="a_Node000012"><a xlink:href="classcarta_1_1Session.html#afe5c090c017ef208f638b96a7eb1ecf0" target="_top" xlink:title=" ">
<polygon fill="white" stroke="#666666" points="475.5,-272 331.5,-272 331.5,-242 475.5,-242 475.5,-272"/>
<text text-anchor="start" x="339.5" y="-260" font-family="Helvetica,sans-Serif" font-size="10.00">carta::Session::OnResume</text>
<text text-anchor="middle" x="403.5" y="-249" font-family="Helvetica,sans-Serif" font-size="10.00">Session</text>
</a>
</g>
</g>
<!-- Node10&#45;&gt;Node12 -->
<g id="edge24_Node000010_Node000012" class="edge">
<title>Node10&#45;&gt;Node12</title>
<g id="a_edge24_Node000010_Node000012"><a xlink:title=" ">
<path fill="none" stroke="#63b8ff" d="M705.88,-239.76C637.23,-243.68 540.82,-249.2 475.68,-252.93"/>
<polygon fill="#63b8ff" stroke="#63b8ff" points="706.44,-243.23 716.23,-239.16 706.04,-236.24 706.44,-243.23"/>
</a>
</g>
</g>
<!-- Node13 -->
<g id="Node000013" class="node">
<title>Node13</title>
<g id="a_Node000013"><a xlink:href="classcarta_1_1Session.html#a5589e4dca9e6a51055f15da1d9ac1b3c" target="_top" xlink:title=" ">
<polygon fill="white" stroke="#666666" points="660.5,-315 525.5,-315 525.5,-285 660.5,-285 660.5,-315"/>
<text text-anchor="start" x="533.5" y="-303" font-family="Helvetica,sans-Serif" font-size="10.00">carta::Session::OnFitting</text>
<text text-anchor="middle" x="593" y="-292" font-family="Helvetica,sans-Serif" font-size="10.00">Request</text>
</a>
</g>
</g>
<!-- Node10&#45;&gt;Node13 -->
<g id="edge14_Node000010_Node000013" class="edge">
<title>Node10&#45;&gt;Node13</title>
<g id="a_edge14_Node000010_Node000013"><a xlink:title=" ">
<path fill="none" stroke="#63b8ff" d="M750.35,-247.88C718.35,-258.55 672.85,-273.72 639.18,-284.94"/>
<polygon fill="#63b8ff" stroke="#63b8ff" points="751.85,-251.07 760.23,-244.59 749.63,-244.43 751.85,-251.07"/>
</a>
</g>
</g>
<!-- Node15 -->
<g id="Node000015" class="node">
<title>Node15</title>
<g id="a_Node000015"><a xlink:href="classcarta_1_1Session.html#a8fe2527b0a83c67240ef4a31a86e4978" target="_top" xlink:title=" ">
<polygon fill="white" stroke="#666666" points="665.5,-363 520.5,-363 520.5,-333 665.5,-333 665.5,-363"/>
<text text-anchor="start" x="528.5" y="-351" font-family="Helvetica,sans-Serif" font-size="10.00">carta::Session::OnMoment</text>
<text text-anchor="middle" x="593" y="-340" font-family="Helvetica,sans-Serif" font-size="10.00">Request</text>
</a>
</g>
</g>
<!-- Node10&#45;&gt;Node15 -->
<g id="edge17_Node000010_Node000015" class="edge">
<title>Node10&#45;&gt;Node15</title>
<g id="a_edge17_Node000010_Node000015"><a xlink:title=" ">
<path fill="none" stroke="#63b8ff" d="M771.23,-251.55C749.23,-271.27 709.87,-304.05 671,-324 664.52,-327.32 657.5,-330.29 650.42,-332.9"/>
<polygon fill="#63b8ff" stroke="#63b8ff" points="773.74,-254.01 778.78,-244.69 769.03,-248.83 773.74,-254.01"/>
</a>
</g>
</g>
<!-- Node10&#45;&gt;Node16 -->
<g id="edge20_Node000010_Node000016" class="edge">
<title>Node10&#45;&gt;Node16</title>
<g id="a_edge20_Node000010_Node000016"><a xlink:title=" ">
<path fill="none" stroke="#63b8ff" d="M774.91,-252.53C746.54,-287.64 684.13,-363.93 671,-372 664.66,-375.89 657.58,-378.99 650.33,-381.45"/>
<polygon fill="#63b8ff" stroke="#63b8ff" points="777.78,-254.54 781.34,-244.56 772.34,-250.14 777.78,-254.54"/>
</a>
</g>
</g>
<!-- Node17 -->
<g id="Node000017" class="node">
<title>Node17</title>
<g id="a_Node000017"><a xlink:href="classcarta_1_1Session.html#a45b9623e5dd0c0d54307ab148e8745aa" target="_top" xlink:title=" ">
<polygon fill="white" stroke="#666666" points="475,-186 332,-186 332,-156 475,-156 475,-186"/>
<text text-anchor="start" x="340" y="-174" font-family="Helvetica,sans-Serif" font-size="10.00">carta::Session::OnRemote</text>
<text text-anchor="middle" x="403.5" y="-163" font-family="Helvetica,sans-Serif" font-size="10.00">FileRequest</text>
</a>
</g>
</g>
<!-- Node10&#45;&gt;Node17 -->
<g id="edge22_Node000010_Node000017" class="edge">
<title>Node10&#45;&gt;Node17</title>
<g id="a_edge22_Node000010_Node000017"><a xlink:title=" ">
<path fill="none" stroke="#63b8ff" d="M759.74,-221.07C736.3,-210.6 702.28,-196.92 671,-190 605.67,-175.55 529.35,-171.35 475.17,-170.44"/>
<polygon fill="#63b8ff" stroke="#63b8ff" points="758.54,-224.37 769.09,-225.33 761.44,-218 758.54,-224.37"/>
</a>
</g>
</g>
<!-- Node11&#45;&gt;Node8 -->
<g id="edge11_Node000011_Node000008" class="edge">
<title>Node11&#45;&gt;Node8</title>
<g id="a_edge11_Node000011_Node000008"><a xlink:title=" ">
<path fill="none" stroke="#63b8ff" d="M513.53,-211.76C460.82,-209.43 389.93,-204.67 328,-195 313.58,-192.75 298.18,-189.46 283.92,-186.03"/>
<polygon fill="#63b8ff" stroke="#63b8ff" points="513.69,-215.27 523.83,-212.2 513.98,-208.28 513.69,-215.27"/>
</a>
</g>
</g>
<!-- Node11&#45;&gt;Node12 -->
<g id="edge12_Node000011_Node000012" class="edge">
<title>Node11&#45;&gt;Node12</title>
<g id="a_edge12_Node000011_Node000012"><a xlink:title=" ">
<path fill="none" stroke="#63b8ff" d="M516.44,-231.33C501.07,-234.85 485.03,-238.53 470.04,-241.97"/>
<polygon fill="#63b8ff" stroke="#63b8ff" points="517.46,-234.69 526.42,-229.04 515.89,-227.86 517.46,-234.69"/>
</a>
</g>
</g>
<!-- Node12&#45;&gt;Node8 -->
<g id="edge13_Node000012_Node000008" class="edge">
<title>Node12&#45;&gt;Node8</title>
<g id="a_edge13_Node000012_Node000008"><a xlink:title=" ">
<path fill="none" stroke="#63b8ff" d="M351.17,-238.2C343.33,-234.99 335.39,-231.54 328,-228 301.53,-215.32 272.58,-198.25 252.86,-186.1"/>
<polygon fill="#63b8ff" stroke="#63b8ff" points="350.06,-241.53 360.65,-241.99 352.66,-235.03 350.06,-241.53"/>
</a>
</g>
</g>
<!-- Node14 -->
<g id="Node000014" class="node">
<title>Node14</title>
<g id="a_Node000014"><a xlink:href="classcarta_1_1GeneralMessageTask.html#ae6144bb7288b7da35f513bb6a37e3de2" target="_top" xlink:title=" ">
<polygon fill="white" stroke="#666666" points="479,-363 328,-363 328,-333 479,-333 479,-363"/>
<text text-anchor="start" x="336" y="-351" font-family="Helvetica,sans-Serif" font-size="10.00">carta::GeneralMessageTask</text>
<text text-anchor="middle" x="403.5" y="-340" font-family="Helvetica,sans-Serif" font-size="10.00">::execute</text>
</a>
</g>
</g>
<!-- Node13&#45;&gt;Node14 -->
<g id="edge15_Node000013_Node000014" class="edge">
<title>Node13&#45;&gt;Node14</title>
<g id="a_edge15_Node000013_Node000014"><a xlink:title=" ">
<path fill="none" stroke="#63b8ff" d="M523.33,-317.58C503.56,-322.64 482.2,-328.11 463.1,-333"/>
<polygon fill="#63b8ff" stroke="#63b8ff" points="524.37,-320.93 533.19,-315.06 522.63,-314.15 524.37,-320.93"/>
</a>
</g>
</g>
<!-- Node15&#45;&gt;Node14 -->
<g id="edge18_Node000015_Node000014" class="edge">
<title>Node15&#45;&gt;Node14</title>
<g id="a_edge18_Node000015_Node000014"><a xlink:title=" ">
<path fill="none" stroke="#63b8ff" d="M510.13,-348C499.87,-348 489.41,-348 479.26,-348"/>
<polygon fill="#63b8ff" stroke="#63b8ff" points="510.31,-351.5 520.31,-348 510.31,-344.5 510.31,-351.5"/>
</a>
</g>
</g>
<!-- Node16&#45;&gt;Node14 -->
<g id="edge21_Node000016_Node000014" class="edge">
<title>Node16&#45;&gt;Node14</title>
<g id="a_edge21_Node000016_Node000014"><a xlink:title=" ">
<path fill="none" stroke="#63b8ff" d="M540.36,-379.16C518.59,-374.16 493,-368.3 469.93,-363.01"/>
<polygon fill="#63b8ff" stroke="#63b8ff" points="539.86,-382.63 550.39,-381.46 541.42,-375.81 539.86,-382.63"/>
</a>
</g>
</g>
<!-- Node17&#45;&gt;Node8 -->
<g id="edge23_Node000017_Node000008" class="edge">
<title>Node17&#45;&gt;Node8</title>
<g id="a_edge23_Node000017_Node000008"><a xlink:title=" ">
<path fill="none" stroke="#63b8ff" d="M321.69,-171C311.81,-171 301.82,-171 292.25,-171"/>
<polygon fill="#63b8ff" stroke="#63b8ff" points="321.93,-174.5 331.93,-171 321.93,-167.5 321.93,-174.5"/>
</a>
</g>
</g>
<!-- Node20 -->
<g id="Node000020" class="node">
<title>Node20</title>
<g id="a_Node000020"><a xlink:href="classcarta_1_1PvPreviewUpdateTask.html#ad8fc7c242731d4bae2e2928f0cdf613a" target="_top" xlink:title=" ">
<polygon fill="white" stroke="#666666" points="670.5,-30 515.5,-30 515.5,0 670.5,0 670.5,-30"/>
<text text-anchor="start" x="523.5" y="-18" font-family="Helvetica,sans-Serif" font-size="10.00">carta::PvPreviewUpdateTask</text>
<text text-anchor="middle" x="593" y="-7" font-family="Helvetica,sans-Serif" font-size="10.00">::execute</text>
</a>
</g>
</g>
<!-- Node19&#45;&gt;Node20 -->
<g id="edge28_Node000019_Node000020" class="edge">
<title>Node19&#45;&gt;Node20</title>
<g id="a_edge28_Node000019_Node000020"><a xlink:title=" ">
<path fill="none" stroke="#63b8ff" d="M696.71,-15C688.02,-15 679.28,-15 670.75,-15"/>
<polygon fill="#63b8ff" stroke="#63b8ff" points="696.87,-18.5 706.87,-15 696.87,-11.5 696.87,-18.5"/>
</a>
</g>
</g>
<!-- Node21&#45;&gt;Node6 -->
<g id="edge30_Node000021_Node000006" class="edge">
<title>Node21&#45;&gt;Node6</title>
<g id="a_edge30_Node000021_Node000006"><a xlink:title=" ">
<path fill="none" stroke="#63b8ff" d="M1095.24,-77.54C1083.7,-78.85 1071.78,-80.21 1060.24,-81.52"/>
<polygon fill="#63b8ff" stroke="#63b8ff" points="1095.73,-81.01 1105.28,-76.4 1094.94,-74.05 1095.73,-81.01"/>
</a>
</g>
</g>
</g>
</svg>

<g id="navigator" transform="translate(0 0)" fill="#404254">
  <rect fill="#f2f5e9" fill-opacity="0.5" stroke="#606060" stroke-width=".5" x="0" y="0" width="60" height="60"/>
  <use id="zoomplus" xlink:href="#zoomPlus" x="17" y="9" onmousedown="handleZoom(evt,'in')"/>
  <use id="zoomminus" xlink:href="#zoomMin" x="42" y="9" onmousedown="handleZoom(evt,'out')"/>
  <use id="reset" xlink:href="#resetDef" x="30" y="36" onmousedown="handleReset()"/>
   <use id="arrowup" xlink:href="#arrowUp" x="0" y="0" onmousedown="handlePan(0,-1)"/>
  <use id="arrowright" xlink:href="#arrowRight" x="0" y="0" onmousedown="handlePan(1,0)"/>
  <use id="arrowdown" xlink:href="#arrowDown" x="0" y="0" onmousedown="handlePan(0,1)"/>
  <use id="arrowleft" xlink:href="#arrowLeft" x="0" y="0" onmousedown="handlePan(-1,0)"/>
</g>
<svg viewBox="0 0 15 15" width="100%" height="30px" preserveAspectRatio="xMaxYMin meet">
 <g id="arrow_out" transform="scale(0.3 0.3)">
  <a xlink:href="classcarta_1_1FileExtInfoLoader_a7cb64132f92a7f2c68bdcdae4a25491d_icgraph_org.svg" target="_base">
   <rect id="button" ry="5" rx="5" y="6" x="6" height="38" width="38"
        fill="#f2f5e9" fill-opacity="0.5" stroke="#606060" stroke-width="1.0"/>
   <path id="arrow"
     d="M 11.500037,31.436501 C 11.940474,20.09759 22.043105,11.32322 32.158766,21.979434 L 37.068811,17.246167 C 37.068811,17.246167 37.088388,32 37.088388,32 L 22.160133,31.978069 C 22.160133,31.978069 26.997745,27.140456 26.997745,27.140456 C 18.528582,18.264221 13.291696,25.230495 11.500037,31.436501 z"
     style="fill:#404040;"/>
  </a>
 </g>
</svg>

<style type='text/css'>
<![CDATA[
[data-mouse-over-selected='false'] { opacity: 0.7; }
[data-mouse-over-selected='true']  { opacity: 1.0; }
]]>
</style>
<script type="application/ecmascript"><![CDATA[
document.addEventListener('DOMContentLoaded', (event) => {
  highlightEdges();
  highlightAdjacentNodes();
});
]]></script>
</svg>
