<?xml version="1.0" encoding="UTF-8" standalone="no"?>
<!DOCTYPE svg PUBLIC "-//W3C//DTD SVG 1.1//EN"
 "http://www.w3.org/Graphics/SVG/1.1/DTD/svg11.dtd">
<!-- Generated by graphviz version 2.43.0 (0)
 -->
<!-- Title: carta::RegionHandler::FrameSet Pages: 1 -->
<svg width="1514pt" height="611pt"
 viewBox="0.00 0.00 1514.00 610.96" xmlns="http://www.w3.org/2000/svg" xmlns:xlink="http://www.w3.org/1999/xlink">
<g id="graph0" class="graph" transform="scale(1 1) rotate(0) translate(4 606.96)">
<title>carta::RegionHandler::FrameSet</title>
<!-- Node1 -->
<g id="node1" class="node">
<title>Node1</title>
<g id="a_node1"><a xlink:title=" ">
<polygon fill="#bfbfbf" stroke="black" points="1387,-308.96 1387,-338.96 1506,-338.96 1506,-308.96 1387,-308.96"/>
<text text-anchor="start" x="1395" y="-326.96" font-family="Helvetica,sans-Serif" font-size="10.00">carta::RegionHandler</text>
<text text-anchor="middle" x="1446.5" y="-315.96" font-family="Helvetica,sans-Serif" font-size="10.00">::FrameSet</text>
</a>
</g>
</g>
<!-- Node2 -->
<g id="node2" class="node">
<title>Node2</title>
<g id="a_node2"><a xlink:href="classcarta_1_1RegionHandler.html#a53807aa22abb92b35725054a015e12aa" target="_top" xlink:title=" ">
<polygon fill="none" stroke="black" points="181,-508.96 181,-538.96 300,-538.96 300,-508.96 181,-508.96"/>
<text text-anchor="start" x="189" y="-526.96" font-family="Helvetica,sans-Serif" font-size="10.00">carta::RegionHandler</text>
<text text-anchor="middle" x="240.5" y="-515.96" font-family="Helvetica,sans-Serif" font-size="10.00">::CalculatePvImage</text>
</a>
</g>
</g>
<!-- Node1&#45;&gt;Node2 -->
<g id="edge1" class="edge">
<title>Node1&#45;&gt;Node2</title>
<path fill="none" stroke="midnightblue" d="M1433.76,-348.05C1398.88,-415.78 1288.79,-602.96 1137.5,-602.96 1137.5,-602.96 1137.5,-602.96 576.5,-602.96 466.25,-602.96 340.91,-561.93 279.5,-539.01"/>
<polygon fill="midnightblue" stroke="midnightblue" points="1436.97,-349.47 1438.36,-338.96 1430.72,-346.31 1436.97,-349.47"/>
</g>
<!-- Node3 -->
<g id="node3" class="node">
<title>Node3</title>
<g id="a_node3"><a xlink:href="classcarta_1_1RegionHandler.html#a8c787facbcb265d7fa434e05324f2c9e" target="_top" xlink:title=" ">
<polygon fill="none" stroke="black" points="1232,-308.96 1232,-338.96 1351,-338.96 1351,-308.96 1232,-308.96"/>
<text text-anchor="start" x="1240" y="-326.96" font-family="Helvetica,sans-Serif" font-size="10.00">carta::RegionHandler</text>
<text text-anchor="middle" x="1291.5" y="-315.96" font-family="Helvetica,sans-Serif" font-size="10.00">::RegionFileIdsValid</text>
</a>
</g>
</g>
<!-- Node1&#45;&gt;Node3 -->
<g id="edge2" class="edge">
<title>Node1&#45;&gt;Node3</title>
<path fill="none" stroke="midnightblue" d="M1376.51,-323.96C1368.01,-323.96 1359.38,-323.96 1351.06,-323.96"/>
<polygon fill="midnightblue" stroke="midnightblue" points="1376.78,-327.46 1386.78,-323.96 1376.78,-320.46 1376.78,-327.46"/>
</g>
<!-- Node22 -->
<g id="node22" class="node">
<title>Node22</title>
<g id="a_node22"><a xlink:href="classcarta_1_1RegionHandler.html#a48531b61f365e6d5a8a790e8b1725464" target="_top" xlink:title=" ">
<polygon fill="none" stroke="black" points="1232,-259.96 1232,-289.96 1351,-289.96 1351,-259.96 1232,-259.96"/>
<text text-anchor="start" x="1240" y="-277.96" font-family="Helvetica,sans-Serif" font-size="10.00">carta::RegionHandler</text>
<text text-anchor="middle" x="1291.5" y="-266.96" font-family="Helvetica,sans-Serif" font-size="10.00">::StopPvCalc</text>
</a>
</g>
</g>
<!-- Node1&#45;&gt;Node22 -->
<g id="edge34" class="edge">
<title>Node1&#45;&gt;Node22</title>
<path fill="none" stroke="midnightblue" d="M1388.49,-305.7C1372.35,-300.53 1354.97,-294.97 1339.5,-290.01"/>
<polygon fill="midnightblue" stroke="midnightblue" points="1387.76,-309.14 1398.35,-308.86 1389.89,-302.48 1387.76,-309.14"/>
</g>
<!-- Node4 -->
<g id="node4" class="node">
<title>Node4</title>
<g id="a_node4"><a xlink:href="classcarta_1_1RegionHandler.html#a5c734366cb3b4b307c54a66251dd270c" target="_top" xlink:title=" ">
<polygon fill="none" stroke="black" points="1077,-286.96 1077,-316.96 1196,-316.96 1196,-286.96 1077,-286.96"/>
<text text-anchor="start" x="1085" y="-304.96" font-family="Helvetica,sans-Serif" font-size="10.00">carta::RegionHandler</text>
<text text-anchor="middle" x="1136.5" y="-293.96" font-family="Helvetica,sans-Serif" font-size="10.00">::ApplyRegionToFile</text>
</a>
</g>
</g>
<!-- Node3&#45;&gt;Node4 -->
<g id="edge3" class="edge">
<title>Node3&#45;&gt;Node4</title>
<path fill="none" stroke="midnightblue" d="M1221.79,-314.08C1213.2,-312.85 1204.47,-311.59 1196.06,-310.38"/>
<polygon fill="midnightblue" stroke="midnightblue" points="1221.39,-317.56 1231.78,-315.52 1222.38,-310.63 1221.39,-317.56"/>
</g>
<!-- Node7 -->
<g id="node7" class="node">
<title>Node7</title>
<g id="a_node7"><a xlink:href="classcarta_1_1RegionHandler.html#a0e7c8e5a778bb77b13dc9bdfe48f26bc" target="_top" xlink:title=" ">
<polygon fill="none" stroke="black" points="892,-467.96 892,-497.96 1041,-497.96 1041,-467.96 892,-467.96"/>
<text text-anchor="start" x="900" y="-485.96" font-family="Helvetica,sans-Serif" font-size="10.00">carta::RegionHandler</text>
<text text-anchor="middle" x="966.5" y="-474.96" font-family="Helvetica,sans-Serif" font-size="10.00">::FillPointSpatialProfileData</text>
</a>
</g>
</g>
<!-- Node3&#45;&gt;Node7 -->
<g id="edge28" class="edge">
<title>Node3&#45;&gt;Node7</title>
<path fill="none" stroke="midnightblue" d="M1257.29,-344.45C1210.36,-372.81 1121.39,-424.42 1041,-458.96 1033.6,-462.14 1025.63,-465.15 1017.77,-467.89"/>
<polygon fill="midnightblue" stroke="midnightblue" points="1259.37,-347.28 1266.1,-339.1 1255.73,-341.3 1259.37,-347.28"/>
</g>
<!-- Node9 -->
<g id="node9" class="node">
<title>Node9</title>
<g id="a_node9"><a xlink:href="classcarta_1_1RegionHandler.html#a7797d9c5eca341dcb490a338fc66967a" target="_top" xlink:title=" ">
<polygon fill="none" stroke="black" points="892.5,-57.96 892.5,-87.96 1040.5,-87.96 1040.5,-57.96 892.5,-57.96"/>
<text text-anchor="start" x="900.5" y="-75.96" font-family="Helvetica,sans-Serif" font-size="10.00">carta::RegionHandler</text>
<text text-anchor="middle" x="966.5" y="-64.96" font-family="Helvetica,sans-Serif" font-size="10.00">::GetRegionHistogramData</text>
</a>
</g>
</g>
<!-- Node3&#45;&gt;Node9 -->
<g id="edge32" class="edge">
<title>Node3&#45;&gt;Node9</title>
<path fill="none" stroke="midnightblue" d="M1235.11,-302.43C1234.01,-301.33 1232.97,-300.17 1232,-298.96 1176.7,-229.78 1260.21,-163.97 1196,-102.96 1155.39,-64.38 1090.86,-59.02 1040.72,-62.09"/>
<polygon fill="midnightblue" stroke="midnightblue" points="1233.14,-305.34 1243.11,-308.92 1237.55,-299.9 1233.14,-305.34"/>
</g>
<!-- Node10 -->
<g id="node10" class="node">
<title>Node10</title>
<g id="a_node10"><a xlink:href="classcarta_1_1RegionHandler.html#a781809901786ab1cf5a4705a77ebe9bb" target="_top" xlink:title=" ">
<polygon fill="none" stroke="black" points="705.5,-35.96 705.5,-65.96 850.5,-65.96 850.5,-35.96 705.5,-35.96"/>
<text text-anchor="start" x="713.5" y="-53.96" font-family="Helvetica,sans-Serif" font-size="10.00">carta::RegionHandler</text>
<text text-anchor="middle" x="778" y="-42.96" font-family="Helvetica,sans-Serif" font-size="10.00">::FillRegionHistogramData</text>
</a>
</g>
</g>
<!-- Node3&#45;&gt;Node10 -->
<g id="edge29" class="edge">
<title>Node3&#45;&gt;Node10</title>
<path fill="none" stroke="midnightblue" d="M1234.98,-302.4C1233.93,-301.31 1232.93,-300.16 1232,-298.96 1165.8,-213.25 1275.72,-131.26 1196,-57.96 1091.8,37.85 903.56,-8.59 820.4,-35.9"/>
<polygon fill="midnightblue" stroke="midnightblue" points="1232.78,-305.12 1242.7,-308.84 1237.26,-299.74 1232.78,-305.12"/>
</g>
<!-- Node11 -->
<g id="node11" class="node">
<title>Node11</title>
<g id="a_node11"><a xlink:href="classcarta_1_1RegionHandler.html#aa5624138d4060512518d54f2b6709a25" target="_top" xlink:title=" ">
<polygon fill="none" stroke="black" points="898,-330.96 898,-360.96 1035,-360.96 1035,-330.96 898,-330.96"/>
<text text-anchor="start" x="906" y="-348.96" font-family="Helvetica,sans-Serif" font-size="10.00">carta::RegionHandler</text>
<text text-anchor="middle" x="966.5" y="-337.96" font-family="Helvetica,sans-Serif" font-size="10.00">::GetRegionSpectralData</text>
</a>
</g>
</g>
<!-- Node3&#45;&gt;Node11 -->
<g id="edge33" class="edge">
<title>Node3&#45;&gt;Node11</title>
<path fill="none" stroke="midnightblue" d="M1221.62,-328.65C1166.59,-332.4 1089.89,-337.63 1035.18,-341.35"/>
<polygon fill="midnightblue" stroke="midnightblue" points="1221.89,-332.14 1231.63,-327.97 1221.42,-325.16 1221.89,-332.14"/>
</g>
<!-- Node12 -->
<g id="node12" class="node">
<title>Node12</title>
<g id="a_node12"><a xlink:href="classcarta_1_1RegionHandler.html#adf0a26d068e926212c682fdf15d367fe" target="_top" xlink:title=" ">
<polygon fill="none" stroke="black" points="712.5,-235.96 712.5,-265.96 843.5,-265.96 843.5,-235.96 712.5,-235.96"/>
<text text-anchor="start" x="720.5" y="-253.96" font-family="Helvetica,sans-Serif" font-size="10.00">carta::RegionHandler</text>
<text text-anchor="middle" x="778" y="-242.96" font-family="Helvetica,sans-Serif" font-size="10.00">::FillSpectralProfileData</text>
</a>
</g>
</g>
<!-- Node3&#45;&gt;Node12 -->
<g id="edge31" class="edge">
<title>Node3&#45;&gt;Node12</title>
<path fill="none" stroke="midnightblue" d="M1243.44,-304.71C1239.53,-302.86 1235.67,-300.93 1232,-298.96 1142.57,-251.07 1138.22,-202.95 1041,-173.96 977.54,-155.04 955.28,-154.45 892,-173.96 852.75,-186.06 814.95,-216.97 794.56,-235.74"/>
<polygon fill="midnightblue" stroke="midnightblue" points="1242.04,-307.93 1252.59,-308.92 1244.96,-301.56 1242.04,-307.93"/>
</g>
<!-- Node17 -->
<g id="node17" class="node">
<title>Node17</title>
<g id="a_node17"><a xlink:href="classcarta_1_1RegionHandler.html#a6bbb668cf434d85d9be739191dd15c19" target="_top" xlink:title=" ">
<polygon fill="none" stroke="black" points="0,-264.96 0,-294.96 145,-294.96 145,-264.96 0,-264.96"/>
<text text-anchor="start" x="8" y="-282.96" font-family="Helvetica,sans-Serif" font-size="10.00">carta::RegionHandler</text>
<text text-anchor="middle" x="72.5" y="-271.96" font-family="Helvetica,sans-Serif" font-size="10.00">::FillLineSpatialProfileData</text>
</a>
</g>
</g>
<!-- Node3&#45;&gt;Node17 -->
<g id="edge27" class="edge">
<title>Node3&#45;&gt;Node17</title>
<path fill="none" stroke="midnightblue" d="M1235.82,-302.73C1234.48,-301.54 1233.2,-300.29 1232,-298.96 1196.08,-259.24 1234.21,-221.49 1196,-183.96 1120.49,-109.81 1073.33,-116.96 967.5,-116.96 967.5,-116.96 967.5,-116.96 394.5,-116.96 264.49,-116.96 133.84,-224.57 89.41,-264.92"/>
<polygon fill="midnightblue" stroke="midnightblue" points="1234.03,-305.76 1244.15,-308.88 1238.18,-300.13 1234.03,-305.76"/>
</g>
<!-- Node20 -->
<g id="node20" class="node">
<title>Node20</title>
<g id="a_node20"><a xlink:href="classcarta_1_1RegionHandler.html#a409ecbf6d655eab69b1465b819cffb85" target="_top" xlink:title=" ">
<polygon fill="none" stroke="black" points="718.5,-423.96 718.5,-453.96 837.5,-453.96 837.5,-423.96 718.5,-423.96"/>
<text text-anchor="start" x="726.5" y="-441.96" font-family="Helvetica,sans-Serif" font-size="10.00">carta::RegionHandler</text>
<text text-anchor="middle" x="778" y="-430.96" font-family="Helvetica,sans-Serif" font-size="10.00">::FillRegionStatsData</text>
</a>
</g>
</g>
<!-- Node3&#45;&gt;Node20 -->
<g id="edge30" class="edge">
<title>Node3&#45;&gt;Node20</title>
<path fill="none" stroke="midnightblue" d="M1272.8,-347.21C1255.09,-369.39 1226.21,-402.75 1196,-425.96 1134.2,-473.44 1116.64,-489.19 1041,-507.96 976.73,-523.92 951.84,-536.32 892,-507.96 869.17,-497.14 876.86,-478.22 856,-463.96 850.43,-460.16 844.24,-456.9 837.86,-454.12"/>
<polygon fill="midnightblue" stroke="midnightblue" points="1275.59,-349.33 1279.02,-339.31 1270.08,-345 1275.59,-349.33"/>
</g>
<!-- Node21 -->
<g id="node21" class="node">
<title>Node21</title>
<g id="a_node21"><a xlink:href="classcarta_1_1RegionHandler.html#a1791c682b1123057f3c70c4ed6378252" target="_top" xlink:title=" ">
<polygon fill="none" stroke="black" points="718.5,-472.96 718.5,-502.96 837.5,-502.96 837.5,-472.96 718.5,-472.96"/>
<text text-anchor="start" x="726.5" y="-490.96" font-family="Helvetica,sans-Serif" font-size="10.00">carta::RegionHandler</text>
<text text-anchor="middle" x="778" y="-479.96" font-family="Helvetica,sans-Serif" font-size="10.00">::CancelLineProfiles</text>
</a>
</g>
</g>
<!-- Node3&#45;&gt;Node21 -->
<g id="edge23" class="edge">
<title>Node3&#45;&gt;Node21</title>
<path fill="none" stroke="midnightblue" d="M1281.19,-348.6C1267.43,-381.82 1238.62,-440.75 1196,-474.96 1138.99,-520.71 1113.04,-517.56 1041,-529.96 975.74,-541.2 957.18,-541.68 892,-529.96 863.37,-524.81 832.51,-512.87 810.29,-503.03"/>
<polygon fill="midnightblue" stroke="midnightblue" points="1284.5,-349.75 1284.97,-339.17 1278,-347.14 1284.5,-349.75"/>
</g>
<!-- Node5 -->
<g id="node5" class="node">
<title>Node5</title>
<g id="a_node5"><a xlink:href="classcarta_1_1RegionHandler.html#aa1d36f8d9ad35aeca13bc882748af022" target="_top" xlink:title=" ">
<polygon fill="none" stroke="black" points="907,-232.96 907,-262.96 1026,-262.96 1026,-232.96 907,-232.96"/>
<text text-anchor="start" x="915" y="-250.96" font-family="Helvetica,sans-Serif" font-size="10.00">carta::RegionHandler</text>
<text text-anchor="middle" x="966.5" y="-239.96" font-family="Helvetica,sans-Serif" font-size="10.00">::ApplyRegionToFile</text>
</a>
</g>
</g>
<!-- Node4&#45;&gt;Node5 -->
<g id="edge4" class="edge">
<title>Node4&#45;&gt;Node5</title>
<path fill="none" stroke="midnightblue" d="M1078.94,-283.78C1057.94,-277.03 1034.37,-269.46 1014.34,-263.02"/>
<polygon fill="midnightblue" stroke="midnightblue" points="1078.11,-287.19 1088.7,-286.92 1080.25,-280.53 1078.11,-287.19"/>
</g>
<!-- Node6 -->
<g id="node6" class="node">
<title>Node6</title>
<g id="a_node6"><a xlink:href="classcarta_1_1RegionHandler.html#a18c5dbca7dd3627e96767d039a80009d" target="_top" xlink:title=" ">
<polygon fill="none" stroke="black" points="907,-183.96 907,-213.96 1026,-213.96 1026,-183.96 907,-183.96"/>
<text text-anchor="start" x="915" y="-201.96" font-family="Helvetica,sans-Serif" font-size="10.00">carta::RegionHandler</text>
<text text-anchor="middle" x="966.5" y="-190.96" font-family="Helvetica,sans-Serif" font-size="10.00">::CalculateMoments</text>
</a>
</g>
</g>
<!-- Node4&#45;&gt;Node6 -->
<g id="edge5" class="edge">
<title>Node4&#45;&gt;Node6</title>
<path fill="none" stroke="midnightblue" d="M1113.97,-279.79C1095.9,-262.27 1068.66,-238.29 1041,-222.96 1035.01,-219.64 1028.49,-216.7 1021.89,-214.1"/>
<polygon fill="midnightblue" stroke="midnightblue" points="1111.55,-282.32 1121.13,-286.86 1116.47,-277.34 1111.55,-282.32"/>
</g>
<!-- Node4&#45;&gt;Node7 -->
<g id="edge6" class="edge">
<title>Node4&#45;&gt;Node7</title>
<path fill="none" stroke="midnightblue" d="M1123.58,-326.19C1103.83,-365.46 1064.23,-440.47 1041,-458.96 1036.69,-462.39 1031.88,-465.33 1026.84,-467.86"/>
<polygon fill="midnightblue" stroke="midnightblue" points="1126.81,-327.55 1128.15,-317.04 1120.55,-324.42 1126.81,-327.55"/>
</g>
<!-- Node8 -->
<g id="node8" class="node">
<title>Node8</title>
<g id="a_node8"><a xlink:href="classcarta_1_1RegionHandler.html#a8a692669b14a98aec1f36f2617910138" target="_top" xlink:title=" ">
<polygon fill="none" stroke="black" points="907,-281.96 907,-311.96 1026,-311.96 1026,-281.96 907,-281.96"/>
<text text-anchor="start" x="915" y="-299.96" font-family="Helvetica,sans-Serif" font-size="10.00">carta::RegionHandler</text>
<text text-anchor="middle" x="966.5" y="-288.96" font-family="Helvetica,sans-Serif" font-size="10.00">::FitImage</text>
</a>
</g>
</g>
<!-- Node4&#45;&gt;Node8 -->
<g id="edge7" class="edge">
<title>Node4&#45;&gt;Node8</title>
<path fill="none" stroke="midnightblue" d="M1066.62,-299.91C1053.21,-299.51 1039.27,-299.1 1026.23,-298.71"/>
<polygon fill="midnightblue" stroke="midnightblue" points="1066.64,-303.41 1076.74,-300.21 1066.85,-296.42 1066.64,-303.41"/>
</g>
<!-- Node4&#45;&gt;Node9 -->
<g id="edge8" class="edge">
<title>Node4&#45;&gt;Node9</title>
<path fill="none" stroke="midnightblue" d="M1118.37,-278.61C1083.95,-231.69 1007.21,-127.09 978.56,-88.04"/>
<polygon fill="midnightblue" stroke="midnightblue" points="1115.74,-280.94 1124.48,-286.94 1121.38,-276.8 1115.74,-280.94"/>
</g>
<!-- Node4&#45;&gt;Node11 -->
<g id="edge10" class="edge">
<title>Node4&#45;&gt;Node11</title>
<path fill="none" stroke="midnightblue" d="M1068.32,-319.56C1053.93,-323.32 1038.85,-327.27 1024.87,-330.94"/>
<polygon fill="midnightblue" stroke="midnightblue" points="1069.37,-322.9 1078.15,-316.98 1067.59,-316.13 1069.37,-322.9"/>
</g>
<!-- Node13 -->
<g id="node13" class="node">
<title>Node13</title>
<g id="a_node13"><a xlink:href="classcarta_1_1RegionHandler.html#ab69f418daea6a6ecf8c58ed9434a6242" target="_top" xlink:title=" ">
<polygon fill="none" stroke="black" points="700,-374.96 700,-404.96 856,-404.96 856,-374.96 700,-374.96"/>
<text text-anchor="start" x="708" y="-392.96" font-family="Helvetica,sans-Serif" font-size="10.00">carta::RegionHandler</text>
<text text-anchor="middle" x="778" y="-381.96" font-family="Helvetica,sans-Serif" font-size="10.00">::GetTemporaryRegionProfile</text>
</a>
</g>
</g>
<!-- Node4&#45;&gt;Node13 -->
<g id="edge22" class="edge">
<title>Node4&#45;&gt;Node13</title>
<path fill="none" stroke="midnightblue" d="M1112.75,-323.91C1094.81,-339.73 1068.33,-359.99 1041,-369.96 981.54,-391.66 909.57,-395.72 856.12,-394.88"/>
<polygon fill="midnightblue" stroke="midnightblue" points="1115.3,-326.31 1120.36,-317 1110.6,-321.13 1115.3,-326.31"/>
</g>
<!-- Node19 -->
<g id="node19" class="node">
<title>Node19</title>
<g id="a_node19"><a xlink:href="classcarta_1_1RegionHandler.html#a5400b6dee0622f4ce2060ae424e1e559" target="_top" xlink:title=" ">
<polygon fill="none" stroke="black" points="905.5,-418.96 905.5,-448.96 1027.5,-448.96 1027.5,-418.96 905.5,-418.96"/>
<text text-anchor="start" x="913.5" y="-436.96" font-family="Helvetica,sans-Serif" font-size="10.00">carta::RegionHandler</text>
<text text-anchor="middle" x="966.5" y="-425.96" font-family="Helvetica,sans-Serif" font-size="10.00">::GetRegionStatsData</text>
</a>
</g>
</g>
<!-- Node4&#45;&gt;Node19 -->
<g id="edge20" class="edge">
<title>Node4&#45;&gt;Node19</title>
<path fill="none" stroke="midnightblue" d="M1118.87,-325.13C1101.59,-347.8 1072.68,-382.03 1041,-403.96 1032.61,-409.77 1022.94,-414.72 1013.41,-418.84"/>
<polygon fill="midnightblue" stroke="midnightblue" points="1121.72,-327.16 1124.91,-317.05 1116.11,-322.97 1121.72,-327.16"/>
</g>
<!-- Node9&#45;&gt;Node10 -->
<g id="edge9" class="edge">
<title>Node9&#45;&gt;Node10</title>
<path fill="none" stroke="midnightblue" d="M882.3,-63.15C871.77,-61.91 861.07,-60.64 850.74,-59.42"/>
<polygon fill="midnightblue" stroke="midnightblue" points="881.98,-66.63 892.33,-64.33 882.8,-59.68 881.98,-66.63"/>
</g>
<!-- Node11&#45;&gt;Node12 -->
<g id="edge11" class="edge">
<title>Node11&#45;&gt;Node12</title>
<path fill="none" stroke="midnightblue" d="M906.61,-327.27C901.61,-325.28 896.68,-323.17 892,-320.96 858.4,-305.09 822.37,-281.5 800.25,-266.17"/>
<polygon fill="midnightblue" stroke="midnightblue" points="905.66,-330.66 916.26,-330.94 908.15,-324.11 905.66,-330.66"/>
</g>
<!-- Node11&#45;&gt;Node13 -->
<g id="edge12" class="edge">
<title>Node11&#45;&gt;Node13</title>
<path fill="none" stroke="midnightblue" d="M891.85,-363.34C875.59,-367.17 858.51,-371.2 842.69,-374.94"/>
<polygon fill="midnightblue" stroke="midnightblue" points="892.91,-366.68 901.84,-360.98 891.3,-359.87 892.91,-366.68"/>
</g>
<!-- Node14 -->
<g id="node14" class="node">
<title>Node14</title>
<g id="a_node14"><a xlink:href="classcarta_1_1RegionHandler.html#abb5e03ccc3f1a8e0026c0b13ba5ed0d5" target="_top" xlink:title=" ">
<polygon fill="none" stroke="black" points="491,-379.96 491,-409.96 664,-409.96 664,-379.96 491,-379.96"/>
<text text-anchor="start" x="499" y="-397.96" font-family="Helvetica,sans-Serif" font-size="10.00">carta::RegionHandler</text>
<text text-anchor="middle" x="577.5" y="-386.96" font-family="Helvetica,sans-Serif" font-size="10.00">::GetFixedAngularRegionProfiles</text>
</a>
</g>
</g>
<!-- Node13&#45;&gt;Node14 -->
<g id="edge13" class="edge">
<title>Node13&#45;&gt;Node14</title>
<path fill="none" stroke="midnightblue" d="M689.95,-392.15C681.35,-392.37 672.63,-392.59 664.05,-392.81"/>
<polygon fill="midnightblue" stroke="midnightblue" points="690.06,-395.65 699.97,-391.9 689.89,-388.65 690.06,-395.65"/>
</g>
<!-- Node18 -->
<g id="node18" class="node">
<title>Node18</title>
<g id="a_node18"><a xlink:href="classcarta_1_1RegionHandler.html#a678aa8c7913af74fd1b483b3bd943a4c" target="_top" xlink:title=" ">
<polygon fill="none" stroke="black" points="498.5,-428.96 498.5,-458.96 656.5,-458.96 656.5,-428.96 498.5,-428.96"/>
<text text-anchor="start" x="506.5" y="-446.96" font-family="Helvetica,sans-Serif" font-size="10.00">carta::RegionHandler</text>
<text text-anchor="middle" x="577.5" y="-435.96" font-family="Helvetica,sans-Serif" font-size="10.00">::GetFixedPixelRegionProfiles</text>
</a>
</g>
</g>
<!-- Node13&#45;&gt;Node18 -->
<g id="edge18" class="edge">
<title>Node13&#45;&gt;Node18</title>
<path fill="none" stroke="midnightblue" d="M711.85,-407.68C686.63,-414.55 658.05,-422.32 633.84,-428.91"/>
<polygon fill="midnightblue" stroke="midnightblue" points="712.98,-411.01 721.71,-405 711.14,-404.25 712.98,-411.01"/>
</g>
<!-- Node15 -->
<g id="node15" class="node">
<title>Node15</title>
<g id="a_node15"><a xlink:href="classcarta_1_1RegionHandler.html#af0631842fe196a21fafb16e61b71401d" target="_top" xlink:title=" ">
<polygon fill="none" stroke="black" points="336,-428.96 336,-458.96 455,-458.96 455,-428.96 336,-428.96"/>
<text text-anchor="start" x="344" y="-446.96" font-family="Helvetica,sans-Serif" font-size="10.00">carta::RegionHandler</text>
<text text-anchor="middle" x="395.5" y="-435.96" font-family="Helvetica,sans-Serif" font-size="10.00">::GetLineProfiles</text>
</a>
</g>
</g>
<!-- Node14&#45;&gt;Node15 -->
<g id="edge14" class="edge">
<title>Node14&#45;&gt;Node15</title>
<path fill="none" stroke="midnightblue" d="M511.3,-412.71C491.79,-418.02 470.6,-423.79 451.79,-428.91"/>
<polygon fill="midnightblue" stroke="midnightblue" points="512.3,-416.07 521.03,-410.06 510.46,-409.31 512.3,-416.07"/>
</g>
<!-- Node15&#45;&gt;Node2 -->
<g id="edge15" class="edge">
<title>Node15&#45;&gt;Node2</title>
<path fill="none" stroke="midnightblue" d="M356.68,-463.74C330.01,-477.68 294.84,-496.07 270.41,-508.85"/>
<polygon fill="midnightblue" stroke="midnightblue" points="358.48,-466.74 365.72,-459.01 355.24,-460.54 358.48,-466.74"/>
</g>
<!-- Node16 -->
<g id="node16" class="node">
<title>Node16</title>
<g id="a_node16"><a xlink:href="classcarta_1_1RegionHandler.html#acf0d1aa0e6368d33b4631f3c383b3349" target="_top" xlink:title=" ">
<polygon fill="none" stroke="black" points="181,-346.96 181,-376.96 300,-376.96 300,-346.96 181,-346.96"/>
<text text-anchor="start" x="189" y="-364.96" font-family="Helvetica,sans-Serif" font-size="10.00">carta::RegionHandler</text>
<text text-anchor="middle" x="240.5" y="-353.96" font-family="Helvetica,sans-Serif" font-size="10.00">::GetLineSpatialData</text>
</a>
</g>
</g>
<!-- Node15&#45;&gt;Node16 -->
<g id="edge16" class="edge">
<title>Node15&#45;&gt;Node16</title>
<path fill="none" stroke="midnightblue" d="M357.29,-424.02C330.27,-409.54 294.29,-390.25 269.64,-377.05"/>
<polygon fill="midnightblue" stroke="midnightblue" points="355.97,-427.28 366.44,-428.92 359.28,-421.11 355.97,-427.28"/>
</g>
<!-- Node16&#45;&gt;Node17 -->
<g id="edge17" class="edge">
<title>Node16&#45;&gt;Node17</title>
<path fill="none" stroke="midnightblue" d="M199.89,-342.4C170.5,-327.88 131,-308.37 104.03,-295.05"/>
<polygon fill="midnightblue" stroke="midnightblue" points="198.54,-345.63 209.05,-346.92 201.64,-339.35 198.54,-345.63"/>
</g>
<!-- Node18&#45;&gt;Node15 -->
<g id="edge19" class="edge">
<title>Node18&#45;&gt;Node15</title>
<path fill="none" stroke="midnightblue" d="M488.08,-443.96C476.88,-443.96 465.65,-443.96 455.08,-443.96"/>
<polygon fill="midnightblue" stroke="midnightblue" points="488.33,-447.46 498.33,-443.96 488.33,-440.46 488.33,-447.46"/>
</g>
<!-- Node19&#45;&gt;Node20 -->
<g id="edge21" class="edge">
<title>Node19&#45;&gt;Node20</title>
<path fill="none" stroke="midnightblue" d="M895.36,-435.84C876.35,-436.35 855.96,-436.9 837.65,-437.39"/>
<polygon fill="midnightblue" stroke="midnightblue" points="895.56,-439.34 905.46,-435.57 895.37,-432.34 895.56,-439.34"/>
</g>
<!-- Node21&#45;&gt;Node14 -->
<g id="edge24" class="edge">
<title>Node21&#45;&gt;Node14</title>
<path fill="none" stroke="midnightblue" d="M709.05,-469.34C705.91,-467.69 702.87,-465.9 700,-463.96 679.06,-449.83 685.07,-433.91 664,-419.96 658.2,-416.12 651.79,-412.86 645.18,-410.09"/>
<polygon fill="midnightblue" stroke="midnightblue" points="707.6,-472.52 718.14,-473.62 710.59,-466.19 707.6,-472.52"/>
</g>
<!-- Node21&#45;&gt;Node15 -->
<g id="edge26" class="edge">
<title>Node21&#45;&gt;Node15</title>
<path fill="none" stroke="midnightblue" d="M708.11,-487.09C649.91,-485.47 564.54,-481.02 491,-468.96 476.26,-466.55 460.49,-462.84 446.14,-459.01"/>
<polygon fill="midnightblue" stroke="midnightblue" points="708.2,-490.59 718.29,-487.35 708.38,-483.6 708.2,-490.59"/>
</g>
<!-- Node21&#45;&gt;Node18 -->
<g id="edge25" class="edge">
<title>Node21&#45;&gt;Node18</title>
<path fill="none" stroke="midnightblue" d="M708.24,-472.72C688.14,-468.27 666.2,-463.4 646.17,-458.96"/>
<polygon fill="midnightblue" stroke="midnightblue" points="707.73,-476.19 718.25,-474.94 709.24,-469.36 707.73,-476.19"/>
</g>
</g>
</svg>
