<?xml version="1.0" encoding="UTF-8" standalone="no"?>
<!DOCTYPE svg PUBLIC "-//W3C//DTD SVG 1.1//EN"
 "http://www.w3.org/Graphics/SVG/1.1/DTD/svg11.dtd">
<!-- Generated by graphviz version 2.43.0 (0)
 -->
<!-- Title: carta::Session::CurrentFlowWindowSize Pages: 1 -->
<svg width="698pt" height="88pt"
 viewBox="0.00 0.00 698.00 88.00" xmlns="http://www.w3.org/2000/svg" xmlns:xlink="http://www.w3.org/1999/xlink">
<g id="graph0" class="graph" transform="scale(1 1) rotate(0) translate(4 84)">
<title>carta::Session::CurrentFlowWindowSize</title>
<!-- Node1 -->
<g id="node1" class="node">
<title>Node1</title>
<g id="a_node1"><a xlink:title=" ">
<polygon fill="#bfbfbf" stroke="black" points="540,-24.5 540,-54.5 690,-54.5 690,-24.5 540,-24.5"/>
<text text-anchor="start" x="548" y="-42.5" font-family="Helvetica,sans-Serif" font-size="10.00">carta::Session::CurrentFlow</text>
<text text-anchor="middle" x="615" y="-31.5" font-family="Helvetica,sans-Serif" font-size="10.00">WindowSize</text>
</a>
</g>
</g>
<!-- Node2 -->
<g id="node2" class="node">
<title>Node2</title>
<g id="a_node2"><a xlink:href="classcarta_1_1AnimationTask.html#a92a52915589d226cf4afd3428ffea271" target="_top" xlink:title=" ">
<polygon fill="none" stroke="black" points="356.5,-49.5 356.5,-79.5 475.5,-79.5 475.5,-49.5 356.5,-49.5"/>
<text text-anchor="start" x="364.5" y="-67.5" font-family="Helvetica,sans-Serif" font-size="10.00">carta::AnimationTask</text>
<text text-anchor="middle" x="416" y="-56.5" font-family="Helvetica,sans-Serif" font-size="10.00">::execute</text>
</a>
</g>
</g>
<!-- Node1&#45;&gt;Node2 -->
<g id="edge1" class="edge">
<title>Node1&#45;&gt;Node2</title>
<path fill="none" stroke="midnightblue" d="M529.78,-50.19C511.6,-52.5 492.75,-54.89 475.78,-57.04"/>
<polygon fill="midnightblue" stroke="midnightblue" points="530.32,-53.65 539.8,-48.92 529.44,-46.7 530.32,-53.65"/>
</g>
<!-- Node3 -->
<g id="node3" class="node">
<title>Node3</title>
<g id="a_node3"><a xlink:href="classcarta_1_1Session.html#a5738e575acc2761f8fa66254811b38e4" target="_top" xlink:title=" ">
<polygon fill="none" stroke="black" points="328,-0.5 328,-30.5 504,-30.5 504,-0.5 328,-0.5"/>
<text text-anchor="start" x="336" y="-18.5" font-family="Helvetica,sans-Serif" font-size="10.00">carta::Session::HandleAnimation</text>
<text text-anchor="middle" x="416" y="-7.5" font-family="Helvetica,sans-Serif" font-size="10.00">FlowControlEvt</text>
</a>
</g>
</g>
<!-- Node1&#45;&gt;Node3 -->
<g id="edge2" class="edge">
<title>Node1&#45;&gt;Node3</title>
<path fill="none" stroke="midnightblue" d="M529.86,-29.25C521.31,-28.21 512.62,-27.15 504.05,-26.1"/>
<polygon fill="midnightblue" stroke="midnightblue" points="529.45,-32.73 539.8,-30.46 530.3,-25.78 529.45,-32.73"/>
</g>
<!-- Node4 -->
<g id="node4" class="node">
<title>Node4</title>
<g id="a_node4"><a xlink:href="classcarta_1_1SessionManager.html#a474c31666cb3b22fcbe8af5f945d2950" target="_top" xlink:title=" ">
<polygon fill="none" stroke="black" points="164,-0.5 164,-30.5 292,-30.5 292,-0.5 164,-0.5"/>
<text text-anchor="start" x="172" y="-18.5" font-family="Helvetica,sans-Serif" font-size="10.00">carta::SessionManager</text>
<text text-anchor="middle" x="228" y="-7.5" font-family="Helvetica,sans-Serif" font-size="10.00">::OnMessage</text>
</a>
</g>
</g>
<!-- Node3&#45;&gt;Node4 -->
<g id="edge3" class="edge">
<title>Node3&#45;&gt;Node4</title>
<path fill="none" stroke="midnightblue" d="M317.77,-15.5C309.06,-15.5 300.4,-15.5 292.1,-15.5"/>
<polygon fill="midnightblue" stroke="midnightblue" points="317.99,-19 327.99,-15.5 317.99,-12 317.99,-19"/>
</g>
<!-- Node5 -->
<g id="node5" class="node">
<title>Node5</title>
<g id="a_node5"><a xlink:href="classcarta_1_1SessionManager.html#ab4e4e7f0244bd6843e70ab91652debf6" target="_top" xlink:title=" ">
<polygon fill="none" stroke="black" points="0,-0.5 0,-30.5 128,-30.5 128,-0.5 0,-0.5"/>
<text text-anchor="start" x="8" y="-18.5" font-family="Helvetica,sans-Serif" font-size="10.00">carta::SessionManager</text>
<text text-anchor="middle" x="64" y="-7.5" font-family="Helvetica,sans-Serif" font-size="10.00">::RunApp</text>
</a>
</g>
</g>
<!-- Node4&#45;&gt;Node5 -->
<g id="edge4" class="edge">
<title>Node4&#45;&gt;Node5</title>
<path fill="none" stroke="midnightblue" d="M153.63,-15.5C145.14,-15.5 136.53,-15.5 128.19,-15.5"/>
<polygon fill="midnightblue" stroke="midnightblue" points="153.9,-19 163.9,-15.5 153.9,-12 153.9,-19"/>
</g>
</g>
</svg>
