<?xml version="1.0" encoding="UTF-8" standalone="no"?>
<!DOCTYPE svg PUBLIC "-//W3C//DTD SVG 1.1//EN"
 "http://www.w3.org/Graphics/SVG/1.1/DTD/svg11.dtd">
<!-- Generated by graphviz version 2.43.0 (0)
 -->
<!-- Title: carta::LoaderCache::Remove Pages: 1 -->
<svg width="1001pt" height="253pt"
 viewBox="0.00 0.00 1001.00 252.50" xmlns="http://www.w3.org/2000/svg" xmlns:xlink="http://www.w3.org/1999/xlink">
<g id="graph0" class="graph" transform="scale(1 1) rotate(0) translate(4 248.5)">
<title>carta::LoaderCache::Remove</title>
<!-- Node1 -->
<g id="node1" class="node">
<title>Node1</title>
<g id="a_node1"><a xlink:title=" ">
<polygon fill="#bfbfbf" stroke="black" points="883,-110 883,-140 993,-140 993,-110 883,-110"/>
<text text-anchor="start" x="891" y="-128" font-family="Helvetica,sans-Serif" font-size="10.00">carta::LoaderCache</text>
<text text-anchor="middle" x="938" y="-117" font-family="Helvetica,sans-Serif" font-size="10.00">::Remove</text>
</a>
</g>
</g>
<!-- Node2 -->
<g id="node2" class="node">
<title>Node2</title>
<g id="a_node2"><a xlink:href="classcarta_1_1Session.html#a54c5dc766deb62f608792ce551a1b885" target="_top" xlink:title=" ">
<polygon fill="none" stroke="black" points="700,-115.5 700,-134.5 847,-134.5 847,-115.5 700,-115.5"/>
<text text-anchor="middle" x="773.5" y="-122.5" font-family="Helvetica,sans-Serif" font-size="10.00">carta::Session::OnOpenFile</text>
</a>
</g>
</g>
<!-- Node1&#45;&gt;Node2 -->
<g id="edge1" class="edge">
<title>Node1&#45;&gt;Node2</title>
<path fill="none" stroke="midnightblue" d="M872.78,-125C864.37,-125 855.71,-125 847.17,-125"/>
<polygon fill="midnightblue" stroke="midnightblue" points="872.89,-128.5 882.89,-125 872.89,-121.5 872.89,-128.5"/>
</g>
<!-- Node3 -->
<g id="node3" class="node">
<title>Node3</title>
<g id="a_node3"><a xlink:href="classcarta_1_1Session.html#aed12d0369de4c3391dba300cb77e9241" target="_top" xlink:title=" ">
<polygon fill="none" stroke="black" points="517,-214 517,-244 655,-244 655,-214 517,-214"/>
<text text-anchor="start" x="525" y="-232" font-family="Helvetica,sans-Serif" font-size="10.00">carta::Session::OnConcat</text>
<text text-anchor="middle" x="586" y="-221" font-family="Helvetica,sans-Serif" font-size="10.00">StokesFiles</text>
</a>
</g>
</g>
<!-- Node2&#45;&gt;Node3 -->
<g id="edge2" class="edge">
<title>Node2&#45;&gt;Node3</title>
<path fill="none" stroke="midnightblue" d="M752.18,-140.94C731.02,-157.03 696.48,-181.88 664,-199 653.59,-204.49 641.95,-209.53 630.94,-213.86"/>
<polygon fill="midnightblue" stroke="midnightblue" points="754.59,-143.5 760.39,-134.63 750.33,-137.95 754.59,-143.5"/>
</g>
<!-- Node4 -->
<g id="node4" class="node">
<title>Node4</title>
<g id="a_node4"><a xlink:href="classcarta_1_1SessionManager.html#a474c31666cb3b22fcbe8af5f945d2950" target="_top" xlink:title=" ">
<polygon fill="none" stroke="black" points="164,-176 164,-206 292,-206 292,-176 164,-176"/>
<text text-anchor="start" x="172" y="-194" font-family="Helvetica,sans-Serif" font-size="10.00">carta::SessionManager</text>
<text text-anchor="middle" x="228" y="-183" font-family="Helvetica,sans-Serif" font-size="10.00">::OnMessage</text>
</a>
</g>
</g>
<!-- Node2&#45;&gt;Node4 -->
<g id="edge8" class="edge">
<title>Node2&#45;&gt;Node4</title>
<path fill="none" stroke="midnightblue" d="M689.61,-129.27C599.98,-134.71 453.14,-146.03 328,-167 313.96,-169.35 298.96,-172.6 284.99,-175.94"/>
<polygon fill="midnightblue" stroke="midnightblue" points="689.94,-132.75 699.71,-128.66 689.52,-125.76 689.94,-132.75"/>
</g>
<!-- Node6 -->
<g id="node6" class="node">
<title>Node6</title>
<g id="a_node6"><a xlink:href="classcarta_1_1Session.html#afe5c090c017ef208f638b96a7eb1ecf0" target="_top" xlink:title=" ">
<polygon fill="none" stroke="black" points="328,-176 328,-206 472,-206 472,-176 328,-176"/>
<text text-anchor="start" x="336" y="-194" font-family="Helvetica,sans-Serif" font-size="10.00">carta::Session::OnResume</text>
<text text-anchor="middle" x="400" y="-183" font-family="Helvetica,sans-Serif" font-size="10.00">Session</text>
</a>
</g>
</g>
<!-- Node2&#45;&gt;Node6 -->
<g id="edge11" class="edge">
<title>Node2&#45;&gt;Node6</title>
<path fill="none" stroke="midnightblue" d="M738.84,-138.17C717.67,-145.95 689.6,-155.36 664,-161 599.94,-175.12 525.54,-182.82 472.26,-186.87"/>
<polygon fill="midnightblue" stroke="midnightblue" points="740.2,-141.4 748.34,-134.62 737.75,-134.84 740.2,-141.4"/>
</g>
<!-- Node7 -->
<g id="node7" class="node">
<title>Node7</title>
<g id="a_node7"><a xlink:href="classcarta_1_1Session.html#a5589e4dca9e6a51055f15da1d9ac1b3c" target="_top" xlink:title=" ">
<polygon fill="none" stroke="black" points="518.5,-88 518.5,-118 653.5,-118 653.5,-88 518.5,-88"/>
<text text-anchor="start" x="526.5" y="-106" font-family="Helvetica,sans-Serif" font-size="10.00">carta::Session::OnFitting</text>
<text text-anchor="middle" x="586" y="-95" font-family="Helvetica,sans-Serif" font-size="10.00">Request</text>
</a>
</g>
</g>
<!-- Node2&#45;&gt;Node7 -->
<g id="edge7" class="edge">
<title>Node2&#45;&gt;Node7</title>
<path fill="none" stroke="midnightblue" d="M689.89,-115.2C677.79,-113.77 665.45,-112.3 653.71,-110.91"/>
<polygon fill="midnightblue" stroke="midnightblue" points="689.64,-118.7 699.98,-116.4 690.47,-111.75 689.64,-118.7"/>
</g>
<!-- Node8 -->
<g id="node8" class="node">
<title>Node8</title>
<g id="a_node8"><a xlink:href="classcarta_1_1Session.html#a8fe2527b0a83c67240ef4a31a86e4978" target="_top" xlink:title=" ">
<polygon fill="none" stroke="black" points="513.5,-39 513.5,-69 658.5,-69 658.5,-39 513.5,-39"/>
<text text-anchor="start" x="521.5" y="-57" font-family="Helvetica,sans-Serif" font-size="10.00">carta::Session::OnMoment</text>
<text text-anchor="middle" x="586" y="-46" font-family="Helvetica,sans-Serif" font-size="10.00">Request</text>
</a>
</g>
</g>
<!-- Node2&#45;&gt;Node8 -->
<g id="edge9" class="edge">
<title>Node2&#45;&gt;Node8</title>
<path fill="none" stroke="midnightblue" d="M742.68,-111.06C721.07,-101.21 691.04,-88.04 664,-78 655.73,-74.93 646.87,-71.92 638.2,-69.12"/>
<polygon fill="midnightblue" stroke="midnightblue" points="741.42,-114.33 751.97,-115.32 744.34,-107.97 741.42,-114.33"/>
</g>
<!-- Node9 -->
<g id="node9" class="node">
<title>Node9</title>
<g id="a_node9"><a xlink:href="classcarta_1_1Session.html#a07bfe19708d3e272d01fef6f18712aa2" target="_top" xlink:title=" ">
<polygon fill="none" stroke="black" points="508,-0.5 508,-19.5 664,-19.5 664,-0.5 508,-0.5"/>
<text text-anchor="middle" x="586" y="-7.5" font-family="Helvetica,sans-Serif" font-size="10.00">carta::Session::OnPvRequest</text>
</a>
</g>
</g>
<!-- Node2&#45;&gt;Node9 -->
<g id="edge10" class="edge">
<title>Node2&#45;&gt;Node9</title>
<path fill="none" stroke="midnightblue" d="M757.84,-107.66C738.55,-85.96 702.54,-49.22 664,-29 656.68,-25.16 648.57,-22.08 640.43,-19.61"/>
<polygon fill="midnightblue" stroke="midnightblue" points="755.4,-110.18 764.61,-115.43 760.68,-105.59 755.4,-110.18"/>
</g>
<!-- Node3&#45;&gt;Node4 -->
<g id="edge3" class="edge">
<title>Node3&#45;&gt;Node4</title>
<path fill="none" stroke="midnightblue" d="M506.68,-229.03C455.57,-228.06 387.52,-224.93 328,-216 312.4,-213.66 295.68,-209.92 280.5,-206.05"/>
<polygon fill="midnightblue" stroke="midnightblue" points="506.94,-232.53 517,-229.19 507.06,-225.53 506.94,-232.53"/>
</g>
<!-- Node3&#45;&gt;Node6 -->
<g id="edge5" class="edge">
<title>Node3&#45;&gt;Node6</title>
<path fill="none" stroke="midnightblue" d="M506.76,-212.84C495.3,-210.47 483.54,-208.05 472.22,-205.71"/>
<polygon fill="midnightblue" stroke="midnightblue" points="506.25,-216.31 516.75,-214.9 507.66,-209.45 506.25,-216.31"/>
</g>
<!-- Node5 -->
<g id="node5" class="node">
<title>Node5</title>
<g id="a_node5"><a xlink:href="classcarta_1_1SessionManager.html#ab4e4e7f0244bd6843e70ab91652debf6" target="_top" xlink:title=" ">
<polygon fill="none" stroke="black" points="0,-176 0,-206 128,-206 128,-176 0,-176"/>
<text text-anchor="start" x="8" y="-194" font-family="Helvetica,sans-Serif" font-size="10.00">carta::SessionManager</text>
<text text-anchor="middle" x="64" y="-183" font-family="Helvetica,sans-Serif" font-size="10.00">::RunApp</text>
</a>
</g>
</g>
<!-- Node4&#45;&gt;Node5 -->
<g id="edge4" class="edge">
<title>Node4&#45;&gt;Node5</title>
<path fill="none" stroke="midnightblue" d="M153.63,-191C145.14,-191 136.53,-191 128.19,-191"/>
<polygon fill="midnightblue" stroke="midnightblue" points="153.9,-194.5 163.9,-191 153.9,-187.5 153.9,-194.5"/>
</g>
<!-- Node6&#45;&gt;Node4 -->
<g id="edge6" class="edge">
<title>Node6&#45;&gt;Node4</title>
<path fill="none" stroke="midnightblue" d="M317.84,-191C309.25,-191 300.6,-191 292.25,-191"/>
<polygon fill="midnightblue" stroke="midnightblue" points="317.89,-194.5 327.89,-191 317.89,-187.5 317.89,-194.5"/>
</g>
</g>
</svg>
