<?xml version="1.0" encoding="UTF-8" standalone="no"?>
<!DOCTYPE svg PUBLIC "-//W3C//DTD SVG 1.1//EN"
 "http://www.w3.org/Graphics/SVG/1.1/DTD/svg11.dtd">
<!-- Generated by graphviz version 2.43.0 (0)
 -->
<!-- Title: carta::PolarizationCalculator::SetImageStokesInfo Pages: 1 -->
<svg width="848pt" height="198pt"
 viewBox="0.00 0.00 848.00 198.00" xmlns="http://www.w3.org/2000/svg" xmlns:xlink="http://www.w3.org/1999/xlink">
<g id="graph0" class="graph" transform="scale(1 1) rotate(0) translate(4 194)">
<title>carta::PolarizationCalculator::SetImageStokesInfo</title>
<!-- Node1 -->
<g id="node1" class="node">
<title>Node1</title>
<g id="a_node1"><a xlink:title=" ">
<polygon fill="#bfbfbf" stroke="black" points="685,-82.5 685,-112.5 840,-112.5 840,-82.5 685,-82.5"/>
<text text-anchor="start" x="693" y="-100.5" font-family="Helvetica,sans-Serif" font-size="10.00">carta::PolarizationCalculator</text>
<text text-anchor="middle" x="762.5" y="-89.5" font-family="Helvetica,sans-Serif" font-size="10.00">::SetImageStokesInfo</text>
</a>
</g>
</g>
<!-- Node2 -->
<g id="node2" class="node">
<title>Node2</title>
<g id="a_node2"><a xlink:href="classcarta_1_1PolarizationCalculator.html#af6937bd807c038cf00fd0cc89ae9c2e8" target="_top" xlink:title=" ">
<polygon fill="none" stroke="black" points="446,-159.5 446,-189.5 649,-189.5 649,-159.5 446,-159.5"/>
<text text-anchor="start" x="454" y="-177.5" font-family="Helvetica,sans-Serif" font-size="10.00">carta::PolarizationCalculator</text>
<text text-anchor="middle" x="547.5" y="-166.5" font-family="Helvetica,sans-Serif" font-size="10.00">::ComputeFractionalPolarizedIntensity</text>
</a>
</g>
</g>
<!-- Node1&#45;&gt;Node2 -->
<g id="edge1" class="edge">
<title>Node1&#45;&gt;Node2</title>
<path fill="none" stroke="midnightblue" d="M724.39,-117.35C702.84,-128.27 674.91,-141.41 649,-150.5 639.61,-153.8 629.56,-156.79 619.59,-159.46"/>
<polygon fill="midnightblue" stroke="midnightblue" points="726.22,-120.35 733.51,-112.67 723.02,-114.12 726.22,-120.35"/>
</g>
<!-- Node8 -->
<g id="node8" class="node">
<title>Node8</title>
<g id="a_node8"><a xlink:href="classcarta_1_1PolarizationCalculator.html#a2cb6200df64e7dde3eacf173a97f894c" target="_top" xlink:title=" ">
<polygon fill="none" stroke="black" points="470,-110.5 470,-140.5 625,-140.5 625,-110.5 470,-110.5"/>
<text text-anchor="start" x="478" y="-128.5" font-family="Helvetica,sans-Serif" font-size="10.00">carta::PolarizationCalculator</text>
<text text-anchor="middle" x="547.5" y="-117.5" font-family="Helvetica,sans-Serif" font-size="10.00">::ComputePolarizedIntensity</text>
</a>
</g>
</g>
<!-- Node1&#45;&gt;Node8 -->
<g id="edge7" class="edge">
<title>Node1&#45;&gt;Node8</title>
<path fill="none" stroke="midnightblue" d="M674.77,-108.9C658.33,-111.06 641.23,-113.31 625.13,-115.43"/>
<polygon fill="midnightblue" stroke="midnightblue" points="675.44,-112.34 684.9,-107.57 674.53,-105.4 675.44,-112.34"/>
</g>
<!-- Node9 -->
<g id="node9" class="node">
<title>Node9</title>
<g id="a_node9"><a xlink:href="classcarta_1_1PolarizationCalculator.html#a5285a6db684ea0071d71b95458923c4c" target="_top" xlink:title=" ">
<polygon fill="none" stroke="black" points="456,-50 456,-91 639,-91 639,-50 456,-50"/>
<text text-anchor="start" x="464" y="-79" font-family="Helvetica,sans-Serif" font-size="10.00">carta::PolarizationCalculator</text>
<text text-anchor="start" x="464" y="-68" font-family="Helvetica,sans-Serif" font-size="10.00">::ComputeTotalFractionalPolarized</text>
<text text-anchor="middle" x="547.5" y="-57" font-family="Helvetica,sans-Serif" font-size="10.00">Intensity</text>
</a>
</g>
</g>
<!-- Node1&#45;&gt;Node9 -->
<g id="edge9" class="edge">
<title>Node1&#45;&gt;Node9</title>
<path fill="none" stroke="midnightblue" d="M674.74,-86.5C663.06,-85.02 651.05,-83.5 639.3,-82.01"/>
<polygon fill="midnightblue" stroke="midnightblue" points="674.54,-90.01 684.9,-87.79 675.42,-83.06 674.54,-90.01"/>
</g>
<!-- Node10 -->
<g id="node10" class="node">
<title>Node10</title>
<g id="a_node10"><a xlink:href="classcarta_1_1PolarizationCalculator.html#a0c5c13e6761ffb096ac20ab00190367a" target="_top" xlink:title=" ">
<polygon fill="none" stroke="black" points="458.5,-0.5 458.5,-30.5 636.5,-30.5 636.5,-0.5 458.5,-0.5"/>
<text text-anchor="start" x="466.5" y="-18.5" font-family="Helvetica,sans-Serif" font-size="10.00">carta::PolarizationCalculator</text>
<text text-anchor="middle" x="547.5" y="-7.5" font-family="Helvetica,sans-Serif" font-size="10.00">::ComputeTotalPolarizedIntensity</text>
</a>
</g>
</g>
<!-- Node1&#45;&gt;Node10 -->
<g id="edge11" class="edge">
<title>Node1&#45;&gt;Node10</title>
<path fill="none" stroke="midnightblue" d="M727.01,-77.47C705.2,-65.45 676.11,-50.59 649,-40.5 639.06,-36.8 628.36,-33.48 617.78,-30.55"/>
<polygon fill="midnightblue" stroke="midnightblue" points="725.45,-80.6 735.89,-82.42 728.86,-74.49 725.45,-80.6"/>
</g>
<!-- Node3 -->
<g id="node3" class="node">
<title>Node3</title>
<g id="a_node3"><a xlink:href="classcarta_1_1FileLoader.html#a5680d87d09f6ddb4cc1bb1a3d713d2c3" target="_top" xlink:title=" ">
<polygon fill="none" stroke="black" points="306,-82.5 306,-112.5 410,-112.5 410,-82.5 306,-82.5"/>
<text text-anchor="start" x="314" y="-100.5" font-family="Helvetica,sans-Serif" font-size="10.00">carta::FileLoader::</text>
<text text-anchor="middle" x="358" y="-89.5" font-family="Helvetica,sans-Serif" font-size="10.00">GetStokesImage</text>
</a>
</g>
</g>
<!-- Node2&#45;&gt;Node3 -->
<g id="edge2" class="edge">
<title>Node2&#45;&gt;Node3</title>
<path fill="none" stroke="midnightblue" d="M461.95,-156.37C456.49,-154.57 451.13,-152.61 446,-150.5 421.8,-140.53 396.5,-124.37 379.47,-112.52"/>
<polygon fill="midnightblue" stroke="midnightblue" points="461.26,-159.82 471.85,-159.45 463.34,-153.14 461.26,-159.82"/>
</g>
<!-- Node4 -->
<g id="node4" class="node">
<title>Node4</title>
<g id="a_node4"><a xlink:href="classcarta_1_1FileLoader.html#a6c78d61804342a45dbf7e3e668357f2c" target="_top" xlink:title=" ">
<polygon fill="none" stroke="black" points="146,-131.5 146,-161.5 270,-161.5 270,-131.5 146,-131.5"/>
<text text-anchor="start" x="154" y="-149.5" font-family="Helvetica,sans-Serif" font-size="10.00">carta::FileLoader::</text>
<text text-anchor="middle" x="208" y="-138.5" font-family="Helvetica,sans-Serif" font-size="10.00">GetCoordinateSystem</text>
</a>
</g>
</g>
<!-- Node3&#45;&gt;Node4 -->
<g id="edge3" class="edge">
<title>Node3&#45;&gt;Node4</title>
<path fill="none" stroke="midnightblue" d="M301.85,-115.76C286.24,-120.93 269.43,-126.49 254.46,-131.45"/>
<polygon fill="midnightblue" stroke="midnightblue" points="302.99,-119.07 311.39,-112.6 300.79,-112.42 302.99,-119.07"/>
</g>
<!-- Node5 -->
<g id="node5" class="node">
<title>Node5</title>
<g id="a_node5"><a xlink:href="classcarta_1_1FileLoader.html#a1ef8462007320a75dcdc04929cdb28b0" target="_top" xlink:title=" ">
<polygon fill="none" stroke="black" points="156,-82.5 156,-112.5 260,-112.5 260,-82.5 156,-82.5"/>
<text text-anchor="start" x="164" y="-100.5" font-family="Helvetica,sans-Serif" font-size="10.00">carta::FileLoader::</text>
<text text-anchor="middle" x="208" y="-89.5" font-family="Helvetica,sans-Serif" font-size="10.00">GetSlice</text>
</a>
</g>
</g>
<!-- Node3&#45;&gt;Node5 -->
<g id="edge4" class="edge">
<title>Node3&#45;&gt;Node5</title>
<path fill="none" stroke="midnightblue" d="M295.49,-97.5C283.77,-97.5 271.62,-97.5 260.26,-97.5"/>
<polygon fill="midnightblue" stroke="midnightblue" points="295.65,-101 305.65,-97.5 295.65,-94 295.65,-101"/>
</g>
<!-- Node7 -->
<g id="node7" class="node">
<title>Node7</title>
<g id="a_node7"><a xlink:href="classcarta_1_1FileLoader.html#a96c849a9ee61ae91b8f8e7393d54133c" target="_top" xlink:title=" ">
<polygon fill="none" stroke="black" points="156,-33.5 156,-63.5 260,-63.5 260,-33.5 156,-33.5"/>
<text text-anchor="start" x="164" y="-51.5" font-family="Helvetica,sans-Serif" font-size="10.00">carta::FileLoader::</text>
<text text-anchor="middle" x="208" y="-40.5" font-family="Helvetica,sans-Serif" font-size="10.00">GetSubImage</text>
</a>
</g>
</g>
<!-- Node3&#45;&gt;Node7 -->
<g id="edge6" class="edge">
<title>Node3&#45;&gt;Node7</title>
<path fill="none" stroke="midnightblue" d="M301.85,-79.24C286.24,-74.07 269.43,-68.51 254.46,-63.55"/>
<polygon fill="midnightblue" stroke="midnightblue" points="300.79,-82.58 311.39,-82.4 302.99,-75.93 300.79,-82.58"/>
</g>
<!-- Node6 -->
<g id="node6" class="node">
<title>Node6</title>
<g id="a_node6"><a xlink:href="classcarta_1_1Hdf5Loader.html#af2e0b172ffce7502373066db92815ced" target="_top" xlink:title=" ">
<polygon fill="none" stroke="black" points="0,-82.5 0,-112.5 110,-112.5 110,-82.5 0,-82.5"/>
<text text-anchor="start" x="8" y="-100.5" font-family="Helvetica,sans-Serif" font-size="10.00">carta::Hdf5Loader::</text>
<text text-anchor="middle" x="55" y="-89.5" font-family="Helvetica,sans-Serif" font-size="10.00">GetChunk</text>
</a>
</g>
</g>
<!-- Node5&#45;&gt;Node6 -->
<g id="edge5" class="edge">
<title>Node5&#45;&gt;Node6</title>
<path fill="none" stroke="midnightblue" d="M145.69,-97.5C133.93,-97.5 121.69,-97.5 110.17,-97.5"/>
<polygon fill="midnightblue" stroke="midnightblue" points="145.88,-101 155.88,-97.5 145.88,-94 145.88,-101"/>
</g>
<!-- Node8&#45;&gt;Node3 -->
<g id="edge8" class="edge">
<title>Node8&#45;&gt;Node3</title>
<path fill="none" stroke="midnightblue" d="M459.98,-112.58C442.92,-110.03 425.54,-107.44 410.11,-105.13"/>
<polygon fill="midnightblue" stroke="midnightblue" points="459.56,-116.06 469.97,-114.07 460.59,-109.13 459.56,-116.06"/>
</g>
<!-- Node9&#45;&gt;Node3 -->
<g id="edge10" class="edge">
<title>Node9&#45;&gt;Node3</title>
<path fill="none" stroke="midnightblue" d="M445.83,-85C433.47,-86.78 421.26,-88.53 410.08,-90.14"/>
<polygon fill="midnightblue" stroke="midnightblue" points="446.37,-88.45 455.77,-83.57 445.37,-81.53 446.37,-88.45"/>
</g>
<!-- Node10&#45;&gt;Node3 -->
<g id="edge12" class="edge">
<title>Node10&#45;&gt;Node3</title>
<path fill="none" stroke="midnightblue" d="M463.9,-33.63C457.76,-35.71 451.73,-38 446,-40.5 420.85,-51.49 394.89,-69.52 377.96,-82.36"/>
<polygon fill="midnightblue" stroke="midnightblue" points="465.15,-36.91 473.61,-30.53 463.02,-30.24 465.15,-36.91"/>
</g>
</g>
</svg>
