<?xml version="1.0" encoding="UTF-8" standalone="no"?>
<!DOCTYPE svg PUBLIC "-//W3C//DTD SVG 1.1//EN"
 "http://www.w3.org/Graphics/SVG/1.1/DTD/svg11.dtd">
<!-- Generated by graphviz version 2.43.0 (0)
 -->
<!-- Title: carta::Region::ConvertPointsToImagePixels Pages: 1 -->
<svg width="573pt" height="132pt"
 viewBox="0.00 0.00 573.00 132.00" xmlns="http://www.w3.org/2000/svg" xmlns:xlink="http://www.w3.org/1999/xlink">
<g id="graph0" class="graph" transform="scale(1 1) rotate(0) translate(4 128)">
<title>carta::Region::ConvertPointsToImagePixels</title>
<!-- Node1 -->
<g id="node1" class="node">
<title>Node1</title>
<g id="a_node1"><a xlink:title=" ">
<polygon fill="#bfbfbf" stroke="black" points="410,-44.5 410,-74.5 565,-74.5 565,-44.5 410,-44.5"/>
<text text-anchor="start" x="418" y="-62.5" font-family="Helvetica,sans-Serif" font-size="10.00">carta::Region::ConvertPoints</text>
<text text-anchor="middle" x="487.5" y="-51.5" font-family="Helvetica,sans-Serif" font-size="10.00">ToImagePixels</text>
</a>
</g>
</g>
<!-- Node2 -->
<g id="node2" class="node">
<title>Node2</title>
<g id="a_node2"><a xlink:href="classcarta_1_1Region.html#ac4d35d2ebd7a1bc9365a5c75b6758d50" target="_top" xlink:title=" ">
<polygon fill="none" stroke="black" points="219,-93.5 219,-123.5 360,-123.5 360,-93.5 219,-93.5"/>
<text text-anchor="start" x="227" y="-111.5" font-family="Helvetica,sans-Serif" font-size="10.00">carta::Region::GetApplied</text>
<text text-anchor="middle" x="289.5" y="-100.5" font-family="Helvetica,sans-Serif" font-size="10.00">PolygonRegion</text>
</a>
</g>
</g>
<!-- Node1&#45;&gt;Node2 -->
<g id="edge1" class="edge">
<title>Node1&#45;&gt;Node2</title>
<path fill="none" stroke="midnightblue" d="M416.59,-76.98C394.99,-82.38 371.4,-88.28 350.52,-93.49"/>
<polygon fill="midnightblue" stroke="midnightblue" points="417.51,-80.36 426.36,-74.53 415.81,-73.56 417.51,-80.36"/>
</g>
<!-- Node4 -->
<g id="node4" class="node">
<title>Node4</title>
<g id="a_node4"><a xlink:href="classcarta_1_1Region.html#af22052c10d0059e65d3ef5a5f9ffa441" target="_top" xlink:title=" ">
<polygon fill="none" stroke="black" points="210.5,-6 210.5,-25 368.5,-25 368.5,-6 210.5,-6"/>
<text text-anchor="middle" x="289.5" y="-13" font-family="Helvetica,sans-Serif" font-size="10.00">carta::Region::GetLineRecord</text>
</a>
</g>
</g>
<!-- Node1&#45;&gt;Node4 -->
<g id="edge3" class="edge">
<title>Node1&#45;&gt;Node4</title>
<path fill="none" stroke="midnightblue" d="M409.7,-42.26C383.56,-36.39 355.31,-30.05 332.87,-25.01"/>
<polygon fill="midnightblue" stroke="midnightblue" points="409.07,-45.71 419.6,-44.48 410.61,-38.88 409.07,-45.71"/>
</g>
<!-- Node6 -->
<g id="node6" class="node">
<title>Node6</title>
<g id="a_node6"><a xlink:href="classcarta_1_1Region.html#a5ce51737dfb759cf79397872ebd67f72" target="_top" xlink:title=" ">
<polygon fill="none" stroke="black" points="205,-44.5 205,-74.5 374,-74.5 374,-44.5 205,-44.5"/>
<text text-anchor="start" x="213" y="-62.5" font-family="Helvetica,sans-Serif" font-size="10.00">carta::Region::UseApproximate</text>
<text text-anchor="middle" x="289.5" y="-51.5" font-family="Helvetica,sans-Serif" font-size="10.00">Polygon</text>
</a>
</g>
</g>
<!-- Node1&#45;&gt;Node6 -->
<g id="edge5" class="edge">
<title>Node1&#45;&gt;Node6</title>
<path fill="none" stroke="midnightblue" d="M399.64,-59.5C391.19,-59.5 382.62,-59.5 374.2,-59.5"/>
<polygon fill="midnightblue" stroke="midnightblue" points="399.88,-63 409.88,-59.5 399.88,-56 399.88,-63"/>
</g>
<!-- Node3 -->
<g id="node3" class="node">
<title>Node3</title>
<g id="a_node3"><a xlink:href="classcarta_1_1Region.html#a9ec0878ba3ff01974517769cbed3b352" target="_top" xlink:title=" ">
<polygon fill="none" stroke="black" points="0,-74 0,-93 169,-93 169,-74 0,-74"/>
<text text-anchor="middle" x="84.5" y="-81" font-family="Helvetica,sans-Serif" font-size="10.00">carta::Region::GetImageRegion</text>
</a>
</g>
</g>
<!-- Node2&#45;&gt;Node3 -->
<g id="edge2" class="edge">
<title>Node2&#45;&gt;Node3</title>
<path fill="none" stroke="midnightblue" d="M208.58,-98.66C193.46,-96.8 177.67,-94.85 162.64,-93"/>
<polygon fill="midnightblue" stroke="midnightblue" points="208.57,-102.18 218.92,-99.93 209.43,-95.24 208.57,-102.18"/>
</g>
<!-- Node5 -->
<g id="node5" class="node">
<title>Node5</title>
<g id="a_node5"><a xlink:href="classcarta_1_1Region.html#abb634583b379802b8712f1b7e2312a36" target="_top" xlink:title=" ">
<polygon fill="none" stroke="black" points="0,-0.5 0,-30.5 169,-30.5 169,-0.5 0,-0.5"/>
<text text-anchor="start" x="8" y="-18.5" font-family="Helvetica,sans-Serif" font-size="10.00">carta::Region::GetImageRegion</text>
<text text-anchor="middle" x="84.5" y="-7.5" font-family="Helvetica,sans-Serif" font-size="10.00">Record</text>
</a>
</g>
</g>
<!-- Node4&#45;&gt;Node5 -->
<g id="edge4" class="edge">
<title>Node4&#45;&gt;Node5</title>
<path fill="none" stroke="midnightblue" d="M200.08,-15.5C189.77,-15.5 179.28,-15.5 169.04,-15.5"/>
<polygon fill="midnightblue" stroke="midnightblue" points="200.31,-19 210.31,-15.5 200.31,-12 200.31,-19"/>
</g>
<!-- Node6&#45;&gt;Node3 -->
<g id="edge6" class="edge">
<title>Node6&#45;&gt;Node3</title>
<path fill="none" stroke="midnightblue" d="M194.81,-70.58C185.22,-71.71 175.54,-72.85 166.11,-73.97"/>
<polygon fill="midnightblue" stroke="midnightblue" points="195.24,-74.05 204.76,-69.4 194.42,-67.1 195.24,-74.05"/>
</g>
</g>
</svg>
