<?xml version="1.0" encoding="UTF-8" standalone="no"?>
<!DOCTYPE svg PUBLIC "-//W3C//DTD SVG 1.1//EN"
 "http://www.w3.org/Graphics/SVG/1.1/DTD/svg11.dtd">
<!-- Generated by graphviz version 2.43.0 (0)
 -->
<!-- Title: carta::RegionHandler::GetRegionSpectralData Pages: 1 -->
<!--zoomable 373 -->
<svg id="main" version="1.1" xmlns="http://www.w3.org/2000/svg" xmlns:xlink="http://www.w3.org/1999/xlink" xml:space="preserve" onload="init(evt)">
<style type="text/css"><![CDATA[
.edge:hover path { stroke: red; }
.edge:hover polygon { stroke: red; fill: red; }
]]></style>
<script type="text/javascript"><![CDATA[
var edges = document.getElementsByTagName('g');
if (edges && edges.length) {
  for (var i=0;i<edges.length;i++) {
    if (edges[i].id.substr(0,4)=='edge') {
      edges[i].setAttribute('class','edge');
    }
  }
}
]]></script>
        <defs>
                <circle id="rim" cx="0" cy="0" r="7"/>
                <circle id="rim2" cx="0" cy="0" r="3.5"/>
                <g id="zoomPlus">
                        <use xlink:href="#rim" fill="#404040">
                                <set attributeName="fill" to="#808080" begin="zoomplus.mouseover" end="zoomplus.mouseout"/>
                        </use>
                        <path d="M-4,0h8M0,-4v8" fill="none" stroke="white" stroke-width="1.5" pointer-events="none"/>
                </g>
                <g id="zoomMin">
                        <use xlink:href="#rim" fill="#404040">
                                <set attributeName="fill" to="#808080" begin="zoomminus.mouseover" end="zoomminus.mouseout"/>
                        </use>
                        <path d="M-4,0h8" fill="none" stroke="white" stroke-width="1.5" pointer-events="none"/>
                </g>
                <g id="dirArrow">
                        <path fill="none" stroke="white" stroke-width="1.5" d="M0,-3.0v7 M-2.5,-0.5L0,-3.0L2.5,-0.5"/>
                </g>
               <g id="resetDef">
                       <use xlink:href="#rim2" fill="#404040">
                               <set attributeName="fill" to="#808080" begin="reset.mouseover" end="reset.mouseout"/>
                       </use>
               </g>
        </defs>

<script type="text/javascript">
var viewWidth = 804;
var viewHeight = 373;
var sectionId = 'dynsection-43';
</script>
<script xlink:href="svgpan.js"/>
<svg id="graph" class="graph">
<g id="viewport">
<title>carta::RegionHandler::GetRegionSpectralData</title>
<!-- Node1 -->
<g id="node1" class="node">
<title>Node1</title>
<g id="a_node1"><a xlink:title=" ">
<polygon fill="#bfbfbf" stroke="black" points="0,-164 0,-194 137,-194 137,-164 0,-164"/>
<text text-anchor="start" x="8" y="-182" font-family="Helvetica,sans-Serif" font-size="10.00">carta::RegionHandler</text>
<text text-anchor="middle" x="68.5" y="-171" font-family="Helvetica,sans-Serif" font-size="10.00">::GetRegionSpectralData</text>
</a>
</g>
</g>
<!-- Node2 -->
<g id="node2" class="node">
<title>Node2</title>
<g id="a_node2"><a xlink:href="classcarta_1_1RegionHandler.html#a5c734366cb3b4b307c54a66251dd270c" target="_top" xlink:title=" ">
<polygon fill="none" stroke="black" points="192.5,-290 192.5,-320 311.5,-320 311.5,-290 192.5,-290"/>
<text text-anchor="start" x="200.5" y="-308" font-family="Helvetica,sans-Serif" font-size="10.00">carta::RegionHandler</text>
<text text-anchor="middle" x="252" y="-297" font-family="Helvetica,sans-Serif" font-size="10.00">::ApplyRegionToFile</text>
</a>
</g>
</g>
<!-- Node1&#45;&gt;Node2 -->
<g id="edge1" class="edge">
<title>Node1&#45;&gt;Node2</title>
<path fill="none" stroke="midnightblue" d="M82.47,-194.23C100.8,-214.94 136.19,-252.05 173,-275 179.35,-278.96 186.3,-282.54 193.36,-285.73"/>
<polygon fill="midnightblue" stroke="midnightblue" points="192.44,-289.14 203.01,-289.85 195.19,-282.71 192.44,-289.14"/>
</g>
<!-- Node3 -->
<g id="node3" class="node">
<title>Node3</title>
<g id="a_node3"><a xlink:href="classcarta_1_1RegionHandler.html#a4d3eaa8da979a4b0640aa3b598a9415b" target="_top" xlink:title=" ">
<polygon fill="none" stroke="black" points="367,-334 367,-364 486,-364 486,-334 367,-334"/>
<text text-anchor="start" x="375" y="-352" font-family="Helvetica,sans-Serif" font-size="10.00">carta::RegionHandler</text>
<text text-anchor="middle" x="426.5" y="-341" font-family="Helvetica,sans-Serif" font-size="10.00">::GetRegion</text>
</a>
</g>
</g>
<!-- Node1&#45;&gt;Node3 -->
<g id="edge21" class="edge">
<title>Node1&#45;&gt;Node3</title>
<path fill="none" stroke="midnightblue" d="M74.81,-194.39C86.7,-226.18 118.74,-298.75 173,-330 228.74,-362.1 303.25,-363.71 356.86,-359.2"/>
<polygon fill="midnightblue" stroke="midnightblue" points="357.33,-362.67 366.96,-358.26 356.68,-355.71 357.33,-362.67"/>
</g>
<!-- Node5 -->
<g id="node5" class="node">
<title>Node5</title>
<g id="a_node5"><a xlink:href="classcarta_1_1RegionHandler.html#aa43ef4e45748b4142eb3f28233f6f0e6" target="_top" xlink:title=" ">
<polygon fill="none" stroke="black" points="367,-285 367,-315 486,-315 486,-285 367,-285"/>
<text text-anchor="start" x="375" y="-303" font-family="Helvetica,sans-Serif" font-size="10.00">carta::RegionHandler</text>
<text text-anchor="middle" x="426.5" y="-292" font-family="Helvetica,sans-Serif" font-size="10.00">::RegionFileIdsValid</text>
</a>
</g>
</g>
<!-- Node1&#45;&gt;Node5 -->
<g id="edge26" class="edge">
<title>Node1&#45;&gt;Node5</title>
<path fill="none" stroke="midnightblue" d="M89.85,-194.12C110,-208.41 142.21,-229.48 173,-242 190.03,-248.92 288.26,-270.65 357.05,-285.46"/>
<polygon fill="midnightblue" stroke="midnightblue" points="356.46,-288.91 366.97,-287.59 357.93,-282.07 356.46,-288.91"/>
</g>
<!-- Node7 -->
<g id="node7" class="node">
<title>Node7</title>
<g id="a_node7"><a xlink:href="classcarta_1_1Timer.html#aad2702a80259920b910fb76642f97b88" target="_top" xlink:title=" ">
<polygon fill="none" stroke="black" points="192,-213.5 192,-232.5 312,-232.5 312,-213.5 192,-213.5"/>
<text text-anchor="middle" x="252" y="-220.5" font-family="Helvetica,sans-Serif" font-size="10.00">carta::Timer::Elapsed</text>
</a>
</g>
</g>
<!-- Node1&#45;&gt;Node7 -->
<g id="edge7" class="edge">
<title>Node1&#45;&gt;Node7</title>
<path fill="none" stroke="midnightblue" d="M131.45,-194.02C154.42,-199.59 180.12,-205.82 201.79,-211.07"/>
<polygon fill="midnightblue" stroke="midnightblue" points="201.22,-214.53 211.76,-213.49 202.87,-207.73 201.22,-214.53"/>
</g>
<!-- Node8 -->
<g id="node8" class="node">
<title>Node8</title>
<g id="a_node8"><a xlink:href="classcarta_1_1RegionHandler.html#abb010a0a0dc050115c0d88d88f6a3050" target="_top" xlink:title=" ">
<polygon fill="none" stroke="black" points="173,-164 173,-194 331,-194 331,-164 173,-164"/>
<text text-anchor="start" x="181" y="-182" font-family="Helvetica,sans-Serif" font-size="10.00">carta::RegionHandler</text>
<text text-anchor="middle" x="252" y="-171" font-family="Helvetica,sans-Serif" font-size="10.00">::GetComputedStokesProfiles</text>
</a>
</g>
</g>
<!-- Node1&#45;&gt;Node8 -->
<g id="edge8" class="edge">
<title>Node1&#45;&gt;Node8</title>
<path fill="none" stroke="midnightblue" d="M137.08,-179C145.49,-179 154.17,-179 162.83,-179"/>
<polygon fill="midnightblue" stroke="midnightblue" points="162.96,-182.5 172.96,-179 162.96,-175.5 162.96,-182.5"/>
</g>
<!-- Node16 -->
<g id="node16" class="node">
<title>Node16</title>
<g id="a_node16"><a xlink:href="classcarta_1_1RegionHandler.html#aa447d1d2f60c4f8b54e06530329e1b75" target="_top" xlink:title=" ">
<polygon fill="none" stroke="black" points="177.5,-115 177.5,-145 326.5,-145 326.5,-115 177.5,-115"/>
<text text-anchor="start" x="185.5" y="-133" font-family="Helvetica,sans-Serif" font-size="10.00">carta::RegionHandler</text>
<text text-anchor="middle" x="252" y="-122" font-family="Helvetica,sans-Serif" font-size="10.00">::HasSpectralRequirements</text>
</a>
</g>
</g>
<!-- Node1&#45;&gt;Node16 -->
<g id="edge22" class="edge">
<title>Node1&#45;&gt;Node16</title>
<path fill="none" stroke="midnightblue" d="M125.44,-163.9C144.42,-158.77 165.79,-153 185.45,-147.7"/>
<polygon fill="midnightblue" stroke="midnightblue" points="186.51,-151.04 195.25,-145.05 184.68,-144.28 186.51,-151.04"/>
</g>
<!-- Node17 -->
<g id="node17" class="node">
<title>Node17</title>
<g id="a_node17"><a xlink:href="Image_8cc.html#a30da07ffd67ed06c1e15e2da4d915e0c" target="_top" xlink:title=" ">
<polygon fill="none" stroke="black" points="198.5,-76.5 198.5,-95.5 305.5,-95.5 305.5,-76.5 198.5,-76.5"/>
<text text-anchor="middle" x="252" y="-83.5" font-family="Helvetica,sans-Serif" font-size="10.00">IsComputedStokes</text>
</a>
</g>
</g>
<!-- Node1&#45;&gt;Node17 -->
<g id="edge23" class="edge">
<title>Node1&#45;&gt;Node17</title>
<path fill="none" stroke="midnightblue" d="M86.59,-163.95C106.18,-147.45 139.86,-121.3 173,-106 179.14,-103.16 185.74,-100.69 192.42,-98.53"/>
<polygon fill="midnightblue" stroke="midnightblue" points="193.63,-101.82 202.2,-95.6 191.62,-95.12 193.63,-101.82"/>
</g>
<!-- Node18 -->
<g id="node18" class="node">
<title>Node18</title>
<g id="a_node18"><a xlink:href="structcarta_1_1TimeDelta.html#a90b2dc0a7d70b0aa6f668f4bbad7fa58" target="_top" xlink:title=" ">
<polygon fill="none" stroke="black" points="192.5,-38.5 192.5,-57.5 311.5,-57.5 311.5,-38.5 192.5,-38.5"/>
<text text-anchor="middle" x="252" y="-45.5" font-family="Helvetica,sans-Serif" font-size="10.00">carta::TimeDelta::ms</text>
</a>
</g>
</g>
<!-- Node1&#45;&gt;Node18 -->
<g id="edge24" class="edge">
<title>Node1&#45;&gt;Node18</title>
<path fill="none" stroke="midnightblue" d="M79.23,-163.67C95.53,-139.27 130.79,-91.84 173,-67 176.72,-64.81 180.67,-62.88 184.76,-61.16"/>
<polygon fill="midnightblue" stroke="midnightblue" points="186.32,-64.32 194.47,-57.56 183.88,-57.76 186.32,-64.32"/>
</g>
<!-- Node19 -->
<g id="node19" class="node">
<title>Node19</title>
<g id="a_node19"><a xlink:href="classMessage.html#a0c0bb5e50ad8b90bade291ab17a18cf5" target="_top" xlink:title=" ">
<polygon fill="none" stroke="black" points="206.5,-0.5 206.5,-19.5 297.5,-19.5 297.5,-0.5 206.5,-0.5"/>
<text text-anchor="middle" x="252" y="-7.5" font-family="Helvetica,sans-Serif" font-size="10.00">Message::Point</text>
</a>
</g>
</g>
<!-- Node1&#45;&gt;Node19 -->
<g id="edge25" class="edge">
<title>Node1&#45;&gt;Node19</title>
<path fill="none" stroke="midnightblue" d="M75.47,-163.94C88.39,-133.41 121.92,-64.16 173,-29 180.01,-24.17 188.12,-20.57 196.4,-17.87"/>
<polygon fill="midnightblue" stroke="midnightblue" points="197.48,-21.21 206.15,-15.12 195.57,-14.47 197.48,-21.21"/>
</g>
<!-- Node2&#45;&gt;Node3 -->
<g id="edge2" class="edge">
<title>Node2&#45;&gt;Node3</title>
<path fill="none" stroke="midnightblue" d="M311.88,-320.02C326.45,-323.74 342.19,-327.75 357.17,-331.57"/>
<polygon fill="midnightblue" stroke="midnightblue" points="356.33,-334.97 366.88,-334.05 358.06,-328.19 356.33,-334.97"/>
</g>
<!-- Node2&#45;&gt;Node5 -->
<g id="edge4" class="edge">
<title>Node2&#45;&gt;Node5</title>
<path fill="none" stroke="midnightblue" d="M311.88,-303.29C326.32,-302.87 341.89,-302.42 356.74,-301.99"/>
<polygon fill="midnightblue" stroke="midnightblue" points="356.99,-305.49 366.88,-301.7 356.79,-298.49 356.99,-305.49"/>
</g>
<!-- Node4 -->
<g id="node4" class="node">
<title>Node4</title>
<g id="a_node4"><a xlink:href="classcarta_1_1RegionHandler.html#a809f63096e4fabebdcdef49591ed1c70" target="_top" xlink:title=" ">
<polygon fill="none" stroke="black" points="522,-334 522,-364 641,-364 641,-334 522,-334"/>
<text text-anchor="start" x="530" y="-352" font-family="Helvetica,sans-Serif" font-size="10.00">carta::RegionHandler</text>
<text text-anchor="middle" x="581.5" y="-341" font-family="Helvetica,sans-Serif" font-size="10.00">::RegionSet</text>
</a>
</g>
</g>
<!-- Node3&#45;&gt;Node4 -->
<g id="edge3" class="edge">
<title>Node3&#45;&gt;Node4</title>
<path fill="none" stroke="midnightblue" d="M486.22,-349C494.54,-349 503.17,-349 511.67,-349"/>
<polygon fill="midnightblue" stroke="midnightblue" points="511.94,-352.5 521.94,-349 511.94,-345.5 511.94,-352.5"/>
</g>
<!-- Node5&#45;&gt;Node4 -->
<g id="edge6" class="edge">
<title>Node5&#45;&gt;Node4</title>
<path fill="none" stroke="midnightblue" d="M474.65,-315.1C490.14,-320.06 507.52,-325.63 523.65,-330.79"/>
<polygon fill="midnightblue" stroke="midnightblue" points="522.91,-334.23 533.5,-333.95 525.05,-327.57 522.91,-334.23"/>
</g>
<!-- Node6 -->
<g id="node6" class="node">
<title>Node6</title>
<g id="a_node6"><a xlink:href="classcarta_1_1RegionHandler.html#a16e8f0e73ba63be909517151bf11a450" target="_top" xlink:title=" ">
<polygon fill="none" stroke="black" points="522,-285 522,-315 641,-315 641,-285 522,-285"/>
<text text-anchor="start" x="530" y="-303" font-family="Helvetica,sans-Serif" font-size="10.00">carta::RegionHandler</text>
<text text-anchor="middle" x="581.5" y="-292" font-family="Helvetica,sans-Serif" font-size="10.00">::FrameSet</text>
</a>
</g>
</g>
<!-- Node5&#45;&gt;Node6 -->
<g id="edge5" class="edge">
<title>Node5&#45;&gt;Node6</title>
<path fill="none" stroke="midnightblue" d="M486.22,-300C494.54,-300 503.17,-300 511.67,-300"/>
<polygon fill="midnightblue" stroke="midnightblue" points="511.94,-303.5 521.94,-300 511.94,-296.5 511.94,-303.5"/>
</g>
<!-- Node9 -->
<g id="node9" class="node">
<title>Node9</title>
<g id="a_node9"><a xlink:href="classcarta_1_1RegionHandler.html#a6cbe0993d9c7c1efc36eb8252cfe6177" target="_top" xlink:title=" ">
<polygon fill="none" stroke="black" points="367,-236 367,-266 486,-266 486,-236 367,-236"/>
<text text-anchor="start" x="375" y="-254" font-family="Helvetica,sans-Serif" font-size="10.00">carta::RegionHandler</text>
<text text-anchor="middle" x="426.5" y="-243" font-family="Helvetica,sans-Serif" font-size="10.00">::GetStokesPangle</text>
</a>
</g>
</g>
<!-- Node8&#45;&gt;Node9 -->
<g id="edge9" class="edge">
<title>Node8&#45;&gt;Node9</title>
<path fill="none" stroke="midnightblue" d="M306.58,-194.14C314.89,-197.07 323.28,-200.37 331,-204 348.18,-212.08 350.15,-218.25 367,-227 370.11,-228.62 373.36,-230.2 376.66,-231.74"/>
<polygon fill="midnightblue" stroke="midnightblue" points="375.48,-235.05 386.04,-235.94 378.34,-228.66 375.48,-235.05"/>
</g>
<!-- Node12 -->
<g id="node12" class="node">
<title>Node12</title>
<g id="a_node12"><a xlink:href="classcarta_1_1RegionHandler.html#a76c45b738a17f6e7a7776a66fc7f7a3b" target="_top" xlink:title=" ">
<polygon fill="none" stroke="black" points="367,-40 367,-70 486,-70 486,-40 367,-40"/>
<text text-anchor="start" x="375" y="-58" font-family="Helvetica,sans-Serif" font-size="10.00">carta::RegionHandler</text>
<text text-anchor="middle" x="426.5" y="-47" font-family="Helvetica,sans-Serif" font-size="10.00">::GetStokesPflinear</text>
</a>
</g>
</g>
<!-- Node8&#45;&gt;Node12 -->
<g id="edge12" class="edge">
<title>Node8&#45;&gt;Node12</title>
<path fill="none" stroke="midnightblue" d="M317.88,-163.89C322.59,-161.37 327.04,-158.43 331,-155 359.26,-130.54 339.88,-104.72 367,-79 368.12,-77.94 369.29,-76.92 370.51,-75.94"/>
<polygon fill="midnightblue" stroke="midnightblue" points="372.79,-78.63 379.09,-70.11 368.86,-72.84 372.79,-78.63"/>
</g>
<!-- Node13 -->
<g id="node13" class="node">
<title>Node13</title>
<g id="a_node13"><a xlink:href="classcarta_1_1RegionHandler.html#ade6aad001ccf435eb382aeb3b58745ec" target="_top" xlink:title=" ">
<polygon fill="none" stroke="black" points="367,-187 367,-217 486,-217 486,-187 367,-187"/>
<text text-anchor="start" x="375" y="-205" font-family="Helvetica,sans-Serif" font-size="10.00">carta::RegionHandler</text>
<text text-anchor="middle" x="426.5" y="-194" font-family="Helvetica,sans-Serif" font-size="10.00">::GetStokesPftotal</text>
</a>
</g>
</g>
<!-- Node8&#45;&gt;Node13 -->
<g id="edge15" class="edge">
<title>Node8&#45;&gt;Node13</title>
<path fill="none" stroke="midnightblue" d="M331.17,-189.42C339.73,-190.56 348.39,-191.72 356.82,-192.84"/>
<polygon fill="midnightblue" stroke="midnightblue" points="356.59,-196.34 366.96,-194.2 357.51,-189.4 356.59,-196.34"/>
</g>
<!-- Node14 -->
<g id="node14" class="node">
<title>Node14</title>
<g id="a_node14"><a xlink:href="classcarta_1_1RegionHandler.html#ad64e18c097313b54e8a1ee5f316b3125" target="_top" xlink:title=" ">
<polygon fill="none" stroke="black" points="367,-138 367,-168 486,-168 486,-138 367,-138"/>
<text text-anchor="start" x="375" y="-156" font-family="Helvetica,sans-Serif" font-size="10.00">carta::RegionHandler</text>
<text text-anchor="middle" x="426.5" y="-145" font-family="Helvetica,sans-Serif" font-size="10.00">::GetStokesPlinear</text>
</a>
</g>
</g>
<!-- Node8&#45;&gt;Node14 -->
<g id="edge17" class="edge">
<title>Node8&#45;&gt;Node14</title>
<path fill="none" stroke="midnightblue" d="M331.17,-167.22C339.73,-165.93 348.39,-164.62 356.82,-163.35"/>
<polygon fill="midnightblue" stroke="midnightblue" points="357.6,-166.77 366.96,-161.82 356.55,-159.85 357.6,-166.77"/>
</g>
<!-- Node15 -->
<g id="node15" class="node">
<title>Node15</title>
<g id="a_node15"><a xlink:href="classcarta_1_1RegionHandler.html#ada1f63f7ba0572cd5dabd2dad0e3792c" target="_top" xlink:title=" ">
<polygon fill="none" stroke="black" points="367,-89 367,-119 486,-119 486,-89 367,-89"/>
<text text-anchor="start" x="375" y="-107" font-family="Helvetica,sans-Serif" font-size="10.00">carta::RegionHandler</text>
<text text-anchor="middle" x="426.5" y="-96" font-family="Helvetica,sans-Serif" font-size="10.00">::GetStokesPtotal</text>
</a>
</g>
</g>
<!-- Node8&#45;&gt;Node15 -->
<g id="edge19" class="edge">
<title>Node8&#45;&gt;Node15</title>
<path fill="none" stroke="midnightblue" d="M309.67,-163.97C317,-161.34 324.28,-158.35 331,-155 348.67,-146.2 349.82,-138.72 367,-129 370.42,-127.07 374.01,-125.19 377.67,-123.39"/>
<polygon fill="midnightblue" stroke="midnightblue" points="379.27,-126.5 386.83,-119.08 376.3,-120.17 379.27,-126.5"/>
</g>
<!-- Node10 -->
<g id="node10" class="node">
<title>Node10</title>
<g id="a_node10"><a xlink:href="classcarta_1_1RegionHandler.html#a63047c5d563b8fb75ec430d47833ec11" target="_top" xlink:title=" ">
<polygon fill="none" stroke="black" points="522,-113 522,-143 641,-143 641,-113 522,-113"/>
<text text-anchor="start" x="530" y="-131" font-family="Helvetica,sans-Serif" font-size="10.00">carta::RegionHandler</text>
<text text-anchor="middle" x="581.5" y="-120" font-family="Helvetica,sans-Serif" font-size="10.00">::CombineStokes</text>
</a>
</g>
</g>
<!-- Node9&#45;&gt;Node10 -->
<g id="edge10" class="edge">
<title>Node9&#45;&gt;Node10</title>
<path fill="none" stroke="midnightblue" d="M470.14,-236C475.67,-233.34 481.1,-230.34 486,-227 516.84,-205.95 545.42,-173.44 562.9,-151.47"/>
<polygon fill="midnightblue" stroke="midnightblue" points="565.86,-153.37 569.26,-143.33 560.34,-149.06 565.86,-153.37"/>
</g>
<!-- Node11 -->
<g id="node11" class="node">
<title>Node11</title>
<g id="a_node11"><a xlink:href="classcarta_1_1RegionHandler.html#a8f74993ebeac47b9031a2558833f3ee1" target="_top" xlink:title=" ">
<polygon fill="none" stroke="black" points="677,-89 677,-119 796,-119 796,-89 677,-89"/>
<text text-anchor="start" x="685" y="-107" font-family="Helvetica,sans-Serif" font-size="10.00">carta::RegionHandler</text>
<text text-anchor="middle" x="736.5" y="-96" font-family="Helvetica,sans-Serif" font-size="10.00">::IsValid</text>
</a>
</g>
</g>
<!-- Node10&#45;&gt;Node11 -->
<g id="edge11" class="edge">
<title>Node10&#45;&gt;Node11</title>
<path fill="none" stroke="midnightblue" d="M641.22,-118.79C649.64,-117.47 658.36,-116.1 666.95,-114.75"/>
<polygon fill="midnightblue" stroke="midnightblue" points="667.6,-118.19 676.94,-113.19 666.52,-111.28 667.6,-118.19"/>
</g>
<!-- Node12&#45;&gt;Node10 -->
<g id="edge13" class="edge">
<title>Node12&#45;&gt;Node10</title>
<path fill="none" stroke="midnightblue" d="M465.48,-70C472.35,-72.88 479.43,-75.95 486,-79 505.38,-87.98 526.53,-98.84 543.89,-108.05"/>
<polygon fill="midnightblue" stroke="midnightblue" points="542.65,-111.35 553.12,-112.98 545.95,-105.18 542.65,-111.35"/>
</g>
<!-- Node12&#45;&gt;Node11 -->
<g id="edge14" class="edge">
<title>Node12&#45;&gt;Node11</title>
<path fill="none" stroke="midnightblue" d="M486.16,-64.33C537.67,-72.53 612.64,-84.45 666.92,-93.09"/>
<polygon fill="midnightblue" stroke="midnightblue" points="666.37,-96.55 676.8,-94.66 667.47,-89.63 666.37,-96.55"/>
</g>
<!-- Node13&#45;&gt;Node10 -->
<g id="edge16" class="edge">
<title>Node13&#45;&gt;Node10</title>
<path fill="none" stroke="midnightblue" d="M465.81,-186.91C472.59,-184.06 479.54,-181.03 486,-178 505.57,-168.83 526.89,-157.66 544.32,-148.21"/>
<polygon fill="midnightblue" stroke="midnightblue" points="546.47,-151.02 553.56,-143.15 543.11,-144.88 546.47,-151.02"/>
</g>
<!-- Node14&#45;&gt;Node10 -->
<g id="edge18" class="edge">
<title>Node14&#45;&gt;Node10</title>
<path fill="none" stroke="midnightblue" d="M486.22,-143.41C494.64,-142.03 503.36,-140.6 511.95,-139.2"/>
<polygon fill="midnightblue" stroke="midnightblue" points="512.64,-142.64 521.94,-137.57 511.51,-135.73 512.64,-142.64"/>
</g>
<!-- Node15&#45;&gt;Node10 -->
<g id="edge20" class="edge">
<title>Node15&#45;&gt;Node10</title>
<path fill="none" stroke="midnightblue" d="M486.22,-113.21C494.64,-114.53 503.36,-115.9 511.95,-117.25"/>
<polygon fill="midnightblue" stroke="midnightblue" points="511.52,-120.72 521.94,-118.81 512.6,-113.81 511.52,-120.72"/>
</g>
</g>
</svg>
        <g id="navigator" transform="translate(0 0)" fill="#404254">
                <rect fill="#f2f5e9" fill-opacity="0.5" stroke="#606060" stroke-width=".5" x="0" y="0" width="60" height="60"/>
                <use id="zoomplus" xlink:href="#zoomPlus" x="17" y="9" onmousedown="handleZoom(evt,'in')"/>
                <use id="zoomminus" xlink:href="#zoomMin" x="42" y="9" onmousedown="handleZoom(evt,'out')"/>
                <use id="reset" xlink:href="#resetDef" x="30" y="36" onmousedown="handleReset()"/>
                <g id="arrowUp" xlink:href="#dirArrow" transform="translate(30 24)" onmousedown="handlePan(0,-1)">
                  <use xlink:href="#rim" fill="#404040">
                        <set attributeName="fill" to="#808080" begin="arrowUp.mouseover" end="arrowUp.mouseout"/>
                  </use>
                  <path fill="none" stroke="white" stroke-width="1.5" d="M0,-3.0v7 M-2.5,-0.5L0,-3.0L2.5,-0.5"/>
                </g>
                <g id="arrowRight" xlink:href="#dirArrow" transform="rotate(90) translate(36 -43)" onmousedown="handlePan(1,0)">
                  <use xlink:href="#rim" fill="#404040">
                        <set attributeName="fill" to="#808080" begin="arrowRight.mouseover" end="arrowRight.mouseout"/>
                  </use>
                  <path fill="none" stroke="white" stroke-width="1.5" d="M0,-3.0v7 M-2.5,-0.5L0,-3.0L2.5,-0.5"/>
                </g>
                <g id="arrowDown" xlink:href="#dirArrow" transform="rotate(180) translate(-30 -48)" onmousedown="handlePan(0,1)">
                  <use xlink:href="#rim" fill="#404040">
                        <set attributeName="fill" to="#808080" begin="arrowDown.mouseover" end="arrowDown.mouseout"/>
                  </use>
                  <path fill="none" stroke="white" stroke-width="1.5" d="M0,-3.0v7 M-2.5,-0.5L0,-3.0L2.5,-0.5"/>
                </g>
                <g id="arrowLeft" xlink:href="#dirArrow" transform="rotate(270) translate(-36 17)" onmousedown="handlePan(-1,0)">
                  <use xlink:href="#rim" fill="#404040">
                        <set attributeName="fill" to="#808080" begin="arrowLeft.mouseover" end="arrowLeft.mouseout"/>
                  </use>
                  <path fill="none" stroke="white" stroke-width="1.5" d="M0,-3.0v7 M-2.5,-0.5L0,-3.0L2.5,-0.5"/>
                </g>
        </g>
        <svg viewBox="0 0 15 15" width="100%" height="30px" preserveAspectRatio="xMaxYMin meet">
         <g id="arrow_out" transform="scale(0.3 0.3)">
          <a xlink:href="classcarta_1_1RegionHandler_aa5624138d4060512518d54f2b6709a25_cgraph_org.svg" target="_base">
           <rect id="button" ry="5" rx="5" y="6" x="6" height="38" width="38"
                fill="#f2f5e9" fill-opacity="0.5" stroke="#606060" stroke-width="1.0"/>
           <path id="arrow"
             d="M 11.500037,31.436501 C 11.940474,20.09759 22.043105,11.32322 32.158766,21.979434 L 37.068811,17.246167 C 37.068811,17.246167 37.088388,32 37.088388,32 L 22.160133,31.978069 C 22.160133,31.978069 26.997745,27.140456 26.997745,27.140456 C 18.528582,18.264221 13.291696,25.230495 11.500037,31.436501 z"
             style="fill:#404040;"/>
          </a>
         </g>
        </svg>
</svg>
