<?xml version="1.0" encoding="UTF-8" standalone="no"?>
<!DOCTYPE svg PUBLIC "-//W3C//DTD SVG 1.1//EN"
 "http://www.w3.org/Graphics/SVG/1.1/DTD/svg11.dtd">
<!-- Generated by graphviz version 2.43.0 (0)
 -->
<!-- Title: carta::Frame::GetBasicStats Pages: 1 -->
<svg width="698pt" height="61pt"
 viewBox="0.00 0.00 698.00 61.00" xmlns="http://www.w3.org/2000/svg" xmlns:xlink="http://www.w3.org/1999/xlink">
<g id="graph0" class="graph" transform="scale(1 1) rotate(0) translate(4 57)">
<title>carta::Frame::GetBasicStats</title>
<!-- Node1 -->
<g id="node1" class="node">
<title>Node1</title>
<g id="a_node1"><a xlink:title=" ">
<polygon fill="#bfbfbf" stroke="black" points="538,-6 538,-25 690,-25 690,-6 538,-6"/>
<text text-anchor="middle" x="614" y="-13" font-family="Helvetica,sans-Serif" font-size="10.00">carta::Frame::GetBasicStats</text>
</a>
</g>
</g>
<!-- Node2 -->
<g id="node2" class="node">
<title>Node2</title>
<g id="a_node2"><a xlink:href="classcarta_1_1Frame.html#af4487db12b8553663cadf357d5c4c9f3" target="_top" xlink:title=" ">
<polygon fill="none" stroke="black" points="353,-22.5 353,-52.5 502,-52.5 502,-22.5 353,-22.5"/>
<text text-anchor="start" x="361" y="-40.5" font-family="Helvetica,sans-Serif" font-size="10.00">carta::Frame::FillHistogram</text>
<text text-anchor="middle" x="427.5" y="-29.5" font-family="Helvetica,sans-Serif" font-size="10.00">FromFrameCache</text>
</a>
</g>
</g>
<!-- Node1&#45;&gt;Node2 -->
<g id="edge1" class="edge">
<title>Node1&#45;&gt;Node2</title>
<path fill="none" stroke="midnightblue" d="M527.95,-25.64C519.38,-26.66 510.72,-27.7 502.28,-28.7"/>
<polygon fill="midnightblue" stroke="midnightblue" points="528.44,-29.11 537.96,-24.45 527.61,-22.16 528.44,-29.11"/>
</g>
<!-- Node4 -->
<g id="node4" class="node">
<title>Node4</title>
<g id="a_node4"><a xlink:href="classcarta_1_1Frame.html#add5c6cc7f22b6a5d87d7080d29f214fb" target="_top" xlink:title=" ">
<polygon fill="none" stroke="black" points="0,-0.5 0,-30.5 132,-30.5 132,-0.5 0,-0.5"/>
<text text-anchor="start" x="8" y="-18.5" font-family="Helvetica,sans-Serif" font-size="10.00">carta::Frame::FillRegion</text>
<text text-anchor="middle" x="66" y="-7.5" font-family="Helvetica,sans-Serif" font-size="10.00">HistogramData</text>
</a>
</g>
</g>
<!-- Node1&#45;&gt;Node4 -->
<g id="edge4" class="edge">
<title>Node1&#45;&gt;Node4</title>
<path fill="none" stroke="midnightblue" d="M527.63,-12.96C518.97,-12.77 510.31,-12.61 502,-12.5 353.57,-10.49 316.43,-10.3 168,-12.5 156.42,-12.67 144.1,-12.95 132.19,-13.28"/>
<polygon fill="midnightblue" stroke="midnightblue" points="527.7,-16.46 537.77,-13.19 527.86,-9.46 527.7,-16.46"/>
</g>
<!-- Node3 -->
<g id="node3" class="node">
<title>Node3</title>
<g id="a_node3"><a xlink:href="classcarta_1_1Frame.html#a81ac6f87981449dccd193fa2c81dddcf" target="_top" xlink:title=" ">
<polygon fill="none" stroke="black" points="168,-22.5 168,-52.5 317,-52.5 317,-22.5 168,-22.5"/>
<text text-anchor="start" x="176" y="-40.5" font-family="Helvetica,sans-Serif" font-size="10.00">carta::Frame::FillHistogram</text>
<text text-anchor="middle" x="242.5" y="-29.5" font-family="Helvetica,sans-Serif" font-size="10.00">FromCache</text>
</a>
</g>
</g>
<!-- Node2&#45;&gt;Node3 -->
<g id="edge2" class="edge">
<title>Node2&#45;&gt;Node3</title>
<path fill="none" stroke="midnightblue" d="M342.61,-37.5C334.16,-37.5 325.62,-37.5 317.29,-37.5"/>
<polygon fill="midnightblue" stroke="midnightblue" points="342.86,-41 352.86,-37.5 342.86,-34 342.86,-41"/>
</g>
<!-- Node3&#45;&gt;Node4 -->
<g id="edge3" class="edge">
<title>Node3&#45;&gt;Node4</title>
<path fill="none" stroke="midnightblue" d="M157.72,-26.94C149.14,-25.86 140.52,-24.77 132.19,-23.72"/>
<polygon fill="midnightblue" stroke="midnightblue" points="157.39,-30.42 167.75,-28.2 158.27,-23.48 157.39,-30.42"/>
</g>
</g>
</svg>
