<?xml version="1.0" encoding="UTF-8" standalone="no"?>
<!DOCTYPE svg PUBLIC "-//W3C//DTD SVG 1.1//EN"
 "http://www.w3.org/Graphics/SVG/1.1/DTD/svg11.dtd">
<!-- Generated by graphviz version 2.43.0 (0)
 -->
<!-- Title: carta::LineBoxRegions::GetPolygonRegionState Pages: 1 -->
<svg width="504pt" height="78pt"
 viewBox="0.00 0.00 504.00 77.50" xmlns="http://www.w3.org/2000/svg" xmlns:xlink="http://www.w3.org/1999/xlink">
<g id="graph0" class="graph" transform="scale(1 1) rotate(0) translate(4 73.5)">
<title>carta::LineBoxRegions::GetPolygonRegionState</title>
<!-- Node1 -->
<g id="node1" class="node">
<title>Node1</title>
<g id="a_node1"><a xlink:title=" ">
<polygon fill="#bfbfbf" stroke="black" points="0,-17 0,-47 138,-47 138,-17 0,-17"/>
<text text-anchor="start" x="8" y="-35" font-family="Helvetica,sans-Serif" font-size="10.00">carta::LineBoxRegions</text>
<text text-anchor="middle" x="69" y="-24" font-family="Helvetica,sans-Serif" font-size="10.00">::GetPolygonRegionState</text>
</a>
</g>
</g>
<!-- Node2 -->
<g id="node2" class="node">
<title>Node2</title>
<g id="a_node2"><a xlink:href="classcarta_1_1LineBoxRegions.html#aa1bb79738d6d9bd46aa5907c0493f7be" target="_top" xlink:title=" ">
<polygon fill="none" stroke="black" points="174,-39 174,-69 335,-69 335,-39 174,-39"/>
<text text-anchor="start" x="182" y="-57" font-family="Helvetica,sans-Serif" font-size="10.00">carta::LineBoxRegions</text>
<text text-anchor="middle" x="254.5" y="-46" font-family="Helvetica,sans-Serif" font-size="10.00">::FindPointAtTargetSeparation</text>
</a>
</g>
</g>
<!-- Node1&#45;&gt;Node2 -->
<g id="edge1" class="edge">
<title>Node1&#45;&gt;Node2</title>
<path fill="none" stroke="midnightblue" d="M138.07,-40.16C146.43,-41.16 155.06,-42.2 163.68,-43.23"/>
<polygon fill="midnightblue" stroke="midnightblue" points="163.42,-46.73 173.77,-44.44 164.25,-39.78 163.42,-46.73"/>
</g>
<!-- Node4 -->
<g id="node4" class="node">
<title>Node4</title>
<g id="a_node4"><a xlink:href="classMessage.html#a0c0bb5e50ad8b90bade291ab17a18cf5" target="_top" xlink:title=" ">
<polygon fill="none" stroke="black" points="209,-0.5 209,-19.5 300,-19.5 300,-0.5 209,-0.5"/>
<text text-anchor="middle" x="254.5" y="-7.5" font-family="Helvetica,sans-Serif" font-size="10.00">Message::Point</text>
</a>
</g>
</g>
<!-- Node1&#45;&gt;Node4 -->
<g id="edge3" class="edge">
<title>Node1&#45;&gt;Node4</title>
<path fill="none" stroke="midnightblue" d="M138.07,-23.84C158.13,-21.43 179.81,-18.84 198.9,-16.55"/>
<polygon fill="midnightblue" stroke="midnightblue" points="199.41,-20.01 208.92,-15.34 198.58,-13.06 199.41,-20.01"/>
</g>
<!-- Node3 -->
<g id="node3" class="node">
<title>Node3</title>
<g id="a_node3"><a xlink:href="classcarta_1_1LineBoxRegions.html#a427ea4115e09871b3b27e1be0201abc3" target="_top" xlink:title=" ">
<polygon fill="none" stroke="black" points="371,-39 371,-69 496,-69 496,-39 371,-39"/>
<text text-anchor="start" x="379" y="-57" font-family="Helvetica,sans-Serif" font-size="10.00">carta::LineBoxRegions</text>
<text text-anchor="middle" x="433.5" y="-46" font-family="Helvetica,sans-Serif" font-size="10.00">::GetPointSeparation</text>
</a>
</g>
</g>
<!-- Node2&#45;&gt;Node3 -->
<g id="edge2" class="edge">
<title>Node2&#45;&gt;Node3</title>
<path fill="none" stroke="midnightblue" d="M335.2,-54C343.68,-54 352.27,-54 360.65,-54"/>
<polygon fill="midnightblue" stroke="midnightblue" points="360.75,-57.5 370.75,-54 360.75,-50.5 360.75,-57.5"/>
</g>
</g>
</svg>
