<?xml version="1.0" encoding="UTF-8" standalone="no"?>
<!DOCTYPE svg PUBLIC "-//W3C//DTD SVG 1.1//EN"
 "http://www.w3.org/Graphics/SVG/1.1/DTD/svg11.dtd">
<!-- Generated by graphviz version 2.43.0 (0)
 -->
<!-- Title: carta::Session::UpdateImageData Pages: 1 -->
<svg width="1365pt" height="438pt"
 viewBox="0.00 0.00 1365.00 437.50" xmlns="http://www.w3.org/2000/svg" xmlns:xlink="http://www.w3.org/1999/xlink">
<g id="graph0" class="graph" transform="scale(1 1) rotate(0) translate(4 433.5)">
<title>carta::Session::UpdateImageData</title>
<!-- Node1 -->
<g id="node1" class="node">
<title>Node1</title>
<g id="a_node1"><a xlink:title=" ">
<polygon fill="#bfbfbf" stroke="black" points="0,-77 0,-96 180,-96 180,-77 0,-77"/>
<text text-anchor="middle" x="90" y="-84" font-family="Helvetica,sans-Serif" font-size="10.00">carta::Session::UpdateImageData</text>
</a>
</g>
</g>
<!-- Node2 -->
<g id="node2" class="node">
<title>Node2</title>
<g id="a_node2"><a xlink:href="classcarta_1_1Session.html#af0bc6048baa8b0e803edc7bfb1161e87" target="_top" xlink:title=" ">
<polygon fill="none" stroke="black" points="219,-137.5 219,-167.5 368,-167.5 368,-137.5 219,-137.5"/>
<text text-anchor="start" x="227" y="-155.5" font-family="Helvetica,sans-Serif" font-size="10.00">carta::Session::SendRegion</text>
<text text-anchor="middle" x="293.5" y="-144.5" font-family="Helvetica,sans-Serif" font-size="10.00">HistogramData</text>
</a>
</g>
</g>
<!-- Node1&#45;&gt;Node2 -->
<g id="edge1" class="edge">
<title>Node1&#45;&gt;Node2</title>
<path fill="none" stroke="midnightblue" d="M120.3,-96.1C150.66,-106.04 198.85,-121.83 236.54,-134.17"/>
<polygon fill="midnightblue" stroke="midnightblue" points="235.78,-137.61 246.38,-137.39 237.96,-130.95 235.78,-137.61"/>
</g>
<!-- Node23 -->
<g id="node23" class="node">
<title>Node23</title>
<g id="a_node23"><a xlink:href="classcarta_1_1Session.html#a5fd62896cf8474c7b37c27093a24459e" target="_top" xlink:title=" ">
<polygon fill="none" stroke="black" points="407,-93.5 407,-123.5 556,-123.5 556,-93.5 407,-93.5"/>
<text text-anchor="start" x="415" y="-111.5" font-family="Helvetica,sans-Serif" font-size="10.00">carta::Session::SendRegion</text>
<text text-anchor="middle" x="481.5" y="-100.5" font-family="Helvetica,sans-Serif" font-size="10.00">StatsData</text>
</a>
</g>
</g>
<!-- Node1&#45;&gt;Node23 -->
<g id="edge25" class="edge">
<title>Node1&#45;&gt;Node23</title>
<path fill="none" stroke="midnightblue" d="M180.36,-91.55C245.49,-95.23 333.12,-100.18 396.88,-103.78"/>
<polygon fill="midnightblue" stroke="midnightblue" points="396.72,-107.27 406.9,-104.34 397.11,-100.28 396.72,-107.27"/>
</g>
<!-- Node24 -->
<g id="node24" class="node">
<title>Node24</title>
<g id="a_node24"><a xlink:href="classcarta_1_1Session.html#a85b4eb14c9181087b03046119b117789" target="_top" xlink:title=" ">
<polygon fill="none" stroke="black" points="219,-49.5 219,-79.5 368,-79.5 368,-49.5 219,-49.5"/>
<text text-anchor="start" x="227" y="-67.5" font-family="Helvetica,sans-Serif" font-size="10.00">carta::Session::SendSpatial</text>
<text text-anchor="middle" x="293.5" y="-56.5" font-family="Helvetica,sans-Serif" font-size="10.00">ProfileDataByFileId</text>
</a>
</g>
</g>
<!-- Node1&#45;&gt;Node24 -->
<g id="edge27" class="edge">
<title>Node1&#45;&gt;Node24</title>
<path fill="none" stroke="midnightblue" d="M178.21,-76.98C188.34,-75.87 198.66,-74.75 208.74,-73.64"/>
<polygon fill="midnightblue" stroke="midnightblue" points="209.17,-77.12 218.73,-72.55 208.41,-70.16 209.17,-77.12"/>
</g>
<!-- Node26 -->
<g id="node26" class="node">
<title>Node26</title>
<g id="a_node26"><a xlink:href="classcarta_1_1Session.html#a64e272e7aec6edd051745e773d47c0f2" target="_top" xlink:title=" ">
<polygon fill="none" stroke="black" points="216,-0.5 216,-30.5 371,-30.5 371,-0.5 216,-0.5"/>
<text text-anchor="start" x="224" y="-18.5" font-family="Helvetica,sans-Serif" font-size="10.00">carta::Session::SendSpectral</text>
<text text-anchor="middle" x="293.5" y="-7.5" font-family="Helvetica,sans-Serif" font-size="10.00">ProfileData</text>
</a>
</g>
</g>
<!-- Node1&#45;&gt;Node26 -->
<g id="edge31" class="edge">
<title>Node1&#45;&gt;Node26</title>
<path fill="none" stroke="midnightblue" d="M115.29,-76.91C140.37,-67.11 180.71,-51.66 216,-39.5 221.56,-37.58 227.38,-35.64 233.21,-33.74"/>
<polygon fill="midnightblue" stroke="midnightblue" points="234.54,-36.99 242.99,-30.59 232.39,-30.33 234.54,-36.99"/>
</g>
<!-- Node3 -->
<g id="node3" class="node">
<title>Node3</title>
<g id="a_node3"><a xlink:href="classcarta_1_1Session.html#aa9e908b20d1e35ff162cc1f361dbfe56" target="_top" xlink:title=" ">
<polygon fill="none" stroke="black" points="413,-181.5 413,-211.5 550,-211.5 550,-181.5 413,-181.5"/>
<text text-anchor="start" x="421" y="-199.5" font-family="Helvetica,sans-Serif" font-size="10.00">carta::Session::Calculate</text>
<text text-anchor="middle" x="481.5" y="-188.5" font-family="Helvetica,sans-Serif" font-size="10.00">CubeHistogram</text>
</a>
</g>
</g>
<!-- Node2&#45;&gt;Node3 -->
<g id="edge2" class="edge">
<title>Node2&#45;&gt;Node3</title>
<path fill="none" stroke="midnightblue" d="M357.99,-167.52C373.76,-171.25 390.8,-175.28 407.01,-179.12"/>
<polygon fill="midnightblue" stroke="midnightblue" points="406.44,-182.58 416.98,-181.47 408.05,-175.77 406.44,-182.58"/>
</g>
<!-- Node15 -->
<g id="node15" class="node">
<title>Node15</title>
<g id="a_node15"><a xlink:href="classcarta_1_1Session.html#ae6ff58d2a61d3872bc741f12ed2b91d7" target="_top" xlink:title=" ">
<polygon fill="none" stroke="black" points="613,-88.5 613,-118.5 745,-118.5 745,-88.5 613,-88.5"/>
<text text-anchor="start" x="621" y="-106.5" font-family="Helvetica,sans-Serif" font-size="10.00">carta::Session::SendFile</text>
<text text-anchor="middle" x="679" y="-95.5" font-family="Helvetica,sans-Serif" font-size="10.00">Event</text>
</a>
</g>
</g>
<!-- Node2&#45;&gt;Node15 -->
<g id="edge23" class="edge">
<title>Node2&#45;&gt;Node15</title>
<path fill="none" stroke="midnightblue" d="M368.15,-150.46C420.75,-148.2 493.06,-143.45 556,-133.5 575.54,-130.41 596.54,-125.74 615.53,-121.01"/>
<polygon fill="midnightblue" stroke="midnightblue" points="616.42,-124.39 625.25,-118.53 614.7,-117.61 616.42,-124.39"/>
</g>
<!-- Node21 -->
<g id="node21" class="node">
<title>Node21</title>
<g id="a_node21"><a xlink:href="classcarta_1_1Session.html#a9614e33dea4622ec90432fa7aad7a451" target="_top" xlink:title=" ">
<polygon fill="none" stroke="black" points="599,-50 599,-69 759,-69 759,-50 599,-50"/>
<text text-anchor="middle" x="679" y="-57" font-family="Helvetica,sans-Serif" font-size="10.00">carta::Session::SendLogEvent</text>
</a>
</g>
</g>
<!-- Node2&#45;&gt;Node21 -->
<g id="edge24" class="edge">
<title>Node2&#45;&gt;Node21</title>
<path fill="none" stroke="midnightblue" d="M316.12,-137.47C332.33,-125.58 354.46,-107.95 371,-89.5 390.5,-67.74 381.3,-48.39 407,-34.5 485.09,7.72 594.54,-25.5 647.24,-46.17"/>
<polygon fill="midnightblue" stroke="midnightblue" points="646.12,-49.49 656.7,-49.98 648.74,-43 646.12,-49.49"/>
</g>
<!-- Node4 -->
<g id="node4" class="node">
<title>Node4</title>
<g id="a_node4"><a xlink:href="classcarta_1_1Histogram.html#a56e2b8bfafd357f89b9197487c20446e" target="_top" xlink:title=" ">
<polygon fill="none" stroke="black" points="617.5,-350 617.5,-369 740.5,-369 740.5,-350 617.5,-350"/>
<text text-anchor="middle" x="679" y="-357" font-family="Helvetica,sans-Serif" font-size="10.00">carta::Histogram::Add</text>
</a>
</g>
</g>
<!-- Node3&#45;&gt;Node4 -->
<g id="edge3" class="edge">
<title>Node3&#45;&gt;Node4</title>
<path fill="none" stroke="midnightblue" d="M489.4,-211.51C503.88,-241.22 540.41,-307.5 592,-340.5 596.75,-343.54 601.92,-346.1 607.28,-348.25"/>
<polygon fill="midnightblue" stroke="midnightblue" points="606.5,-351.68 617.1,-351.7 608.83,-345.08 606.5,-351.68"/>
</g>
<!-- Node10 -->
<g id="node10" class="node">
<title>Node10</title>
<g id="a_node10"><a xlink:href="classcarta_1_1Timer.html#aad2702a80259920b910fb76642f97b88" target="_top" xlink:title=" ">
<polygon fill="none" stroke="black" points="619,-312 619,-331 739,-331 739,-312 619,-312"/>
<text text-anchor="middle" x="679" y="-319" font-family="Helvetica,sans-Serif" font-size="10.00">carta::Timer::Elapsed</text>
</a>
</g>
</g>
<!-- Node3&#45;&gt;Node10 -->
<g id="edge9" class="edge">
<title>Node3&#45;&gt;Node10</title>
<path fill="none" stroke="midnightblue" d="M493.73,-211.85C511.72,-235.26 549.35,-279.57 592,-302.5 597.26,-305.33 602.92,-307.74 608.74,-309.79"/>
<polygon fill="midnightblue" stroke="midnightblue" points="608.03,-313.24 618.62,-312.91 610.14,-306.56 608.03,-313.24"/>
</g>
<!-- Node11 -->
<g id="node11" class="node">
<title>Node11</title>
<g id="a_node11"><a xlink:href="Message_8cc.html#aadf644bd365f0198b09a7196f9990511" target="_top" xlink:title=" ">
<polygon fill="none" stroke="black" points="638,-274 638,-293 720,-293 720,-274 638,-274"/>
<text text-anchor="middle" x="679" y="-281" font-family="Helvetica,sans-Serif" font-size="10.00">FillHistogram</text>
</a>
</g>
</g>
<!-- Node3&#45;&gt;Node11 -->
<g id="edge10" class="edge">
<title>Node3&#45;&gt;Node11</title>
<path fill="none" stroke="midnightblue" d="M502.37,-211.74C523.49,-227.23 558.42,-250.83 592,-264.5 603.29,-269.09 615.88,-272.67 627.87,-275.41"/>
<polygon fill="midnightblue" stroke="midnightblue" points="627.25,-278.86 637.76,-277.53 628.71,-272.02 627.25,-278.86"/>
</g>
<!-- Node12 -->
<g id="node12" class="node">
<title>Node12</title>
<g id="a_node12"><a xlink:href="classcarta_1_1SessionContext.html#a28e9e5c979d1c244253a92f69b156c39" target="_top" xlink:title=" ">
<polygon fill="none" stroke="black" points="617.5,-214 617.5,-255 740.5,-255 740.5,-214 617.5,-214"/>
<text text-anchor="start" x="625.5" y="-243" font-family="Helvetica,sans-Serif" font-size="10.00">carta::SessionContext</text>
<text text-anchor="start" x="625.5" y="-232" font-family="Helvetica,sans-Serif" font-size="10.00">::is_group_execution</text>
<text text-anchor="middle" x="679" y="-221" font-family="Helvetica,sans-Serif" font-size="10.00">_cancelled</text>
</a>
</g>
</g>
<!-- Node3&#45;&gt;Node12 -->
<g id="edge11" class="edge">
<title>Node3&#45;&gt;Node12</title>
<path fill="none" stroke="midnightblue" d="M550.05,-209.63C568.58,-213.23 588.71,-217.14 607.4,-220.78"/>
<polygon fill="midnightblue" stroke="midnightblue" points="606.83,-224.23 617.32,-222.7 608.17,-217.36 606.83,-224.23"/>
</g>
<!-- Node13 -->
<g id="node13" class="node">
<title>Node13</title>
<g id="a_node13"><a xlink:href="structcarta_1_1BasicStats.html#a536adffa874e62bc21b8764a77ce09fd" target="_top" xlink:title=" ">
<polygon fill="none" stroke="black" points="618,-176 618,-195 740,-195 740,-176 618,-176"/>
<text text-anchor="middle" x="679" y="-183" font-family="Helvetica,sans-Serif" font-size="10.00">carta::BasicStats::join</text>
</a>
</g>
</g>
<!-- Node3&#45;&gt;Node13 -->
<g id="edge12" class="edge">
<title>Node3&#45;&gt;Node13</title>
<path fill="none" stroke="midnightblue" d="M550.05,-192.7C568.76,-191.65 589.11,-190.5 607.96,-189.44"/>
<polygon fill="midnightblue" stroke="midnightblue" points="608.17,-192.93 617.96,-188.88 607.78,-185.95 608.17,-192.93"/>
</g>
<!-- Node14 -->
<g id="node14" class="node">
<title>Node14</title>
<g id="a_node14"><a xlink:href="classMessage.html#af13c35c35a5f3fd50a68319be9287611" target="_top" xlink:title=" ">
<polygon fill="none" stroke="black" points="592,-138 592,-157 766,-157 766,-138 592,-138"/>
<text text-anchor="middle" x="679" y="-145" font-family="Helvetica,sans-Serif" font-size="10.00">Message::RegionHistogramData</text>
</a>
</g>
</g>
<!-- Node3&#45;&gt;Node14 -->
<g id="edge13" class="edge">
<title>Node3&#45;&gt;Node14</title>
<path fill="none" stroke="midnightblue" d="M535.27,-181.47C553.22,-176.51 573.44,-171.09 592,-166.5 602.01,-164.02 612.72,-161.53 623.06,-159.21"/>
<polygon fill="midnightblue" stroke="midnightblue" points="623.82,-162.63 632.82,-157.04 622.3,-155.79 623.82,-162.63"/>
</g>
<!-- Node3&#45;&gt;Node15 -->
<g id="edge14" class="edge">
<title>Node3&#45;&gt;Node15</title>
<path fill="none" stroke="midnightblue" d="M527.98,-181.47C537.63,-177.33 547.47,-172.34 556,-166.5 575.2,-153.36 572.14,-140.61 592,-128.5 595.58,-126.31 599.37,-124.31 603.27,-122.48"/>
<polygon fill="midnightblue" stroke="midnightblue" points="604.74,-125.65 612.56,-118.5 601.99,-119.22 604.74,-125.65"/>
</g>
<!-- Node3&#45;&gt;Node21 -->
<g id="edge20" class="edge">
<title>Node3&#45;&gt;Node21</title>
<path fill="none" stroke="midnightblue" d="M503.18,-181.28C518.7,-169.28 539.95,-151.61 556,-133.5 575.13,-111.91 568.29,-95.92 592,-79.5 595.54,-77.05 599.35,-74.89 603.31,-72.99"/>
<polygon fill="midnightblue" stroke="midnightblue" points="604.92,-76.12 612.8,-69.03 602.22,-69.66 604.92,-76.12"/>
</g>
<!-- Node5 -->
<g id="node5" class="node">
<title>Node5</title>
<g id="a_node5"><a xlink:href="classcarta_1_1Histogram.html#a81787c73b6b71a8495c8c3ffcf4d7c46" target="_top" xlink:title=" ">
<polygon fill="none" stroke="black" points="817,-366.5 817,-396.5 981,-396.5 981,-366.5 817,-366.5"/>
<text text-anchor="start" x="825" y="-384.5" font-family="Helvetica,sans-Serif" font-size="10.00">carta::Histogram::Consistency</text>
<text text-anchor="middle" x="899" y="-373.5" font-family="Helvetica,sans-Serif" font-size="10.00">Check</text>
</a>
</g>
</g>
<!-- Node4&#45;&gt;Node5 -->
<g id="edge4" class="edge">
<title>Node4&#45;&gt;Node5</title>
<path fill="none" stroke="midnightblue" d="M740.73,-365.63C761.16,-367.69 784.42,-370.04 806.68,-372.28"/>
<polygon fill="midnightblue" stroke="midnightblue" points="806.52,-375.79 816.82,-373.31 807.22,-368.82 806.52,-375.79"/>
</g>
<!-- Node9 -->
<g id="node9" class="node">
<title>Node9</title>
<g id="a_node9"><a xlink:href="classcarta_1_1Histogram.html#a1efcb688ab3b0d60a6216d14d87fef5e" target="_top" xlink:title=" ">
<polygon fill="none" stroke="black" points="802,-328 802,-347 996,-347 996,-328 802,-328"/>
<text text-anchor="middle" x="899" y="-335" font-family="Helvetica,sans-Serif" font-size="10.00">carta::Histogram::GetHistogramBins</text>
</a>
</g>
</g>
<!-- Node4&#45;&gt;Node9 -->
<g id="edge8" class="edge">
<title>Node4&#45;&gt;Node9</title>
<path fill="none" stroke="midnightblue" d="M740.73,-353.37C757.2,-351.71 775.52,-349.86 793.67,-348.03"/>
<polygon fill="midnightblue" stroke="midnightblue" points="794.12,-351.5 803.72,-347.01 793.42,-344.54 794.12,-351.5"/>
</g>
<!-- Node6 -->
<g id="node6" class="node">
<title>Node6</title>
<g id="a_node6"><a xlink:href="classcarta_1_1Histogram.html#ae1f537df539939fde102e25b0b42a9aa" target="_top" xlink:title=" ">
<polygon fill="none" stroke="black" points="1039.5,-410 1039.5,-429 1197.5,-429 1197.5,-410 1039.5,-410"/>
<text text-anchor="middle" x="1118.5" y="-417" font-family="Helvetica,sans-Serif" font-size="10.00">carta::Histogram::GetMaxVal</text>
</a>
</g>
</g>
<!-- Node5&#45;&gt;Node6 -->
<g id="edge5" class="edge">
<title>Node5&#45;&gt;Node6</title>
<path fill="none" stroke="midnightblue" d="M981.3,-395.7C1004.95,-399.84 1030.45,-404.29 1052.92,-408.22"/>
<polygon fill="midnightblue" stroke="midnightblue" points="1052.56,-411.71 1063.01,-409.98 1053.76,-404.81 1052.56,-411.71"/>
</g>
<!-- Node7 -->
<g id="node7" class="node">
<title>Node7</title>
<g id="a_node7"><a xlink:href="classcarta_1_1Histogram.html#a751eb7e111b661cf77a44995db151a3b" target="_top" xlink:title=" ">
<polygon fill="none" stroke="black" points="1041,-372 1041,-391 1196,-391 1196,-372 1041,-372"/>
<text text-anchor="middle" x="1118.5" y="-379" font-family="Helvetica,sans-Serif" font-size="10.00">carta::Histogram::GetMinVal</text>
</a>
</g>
</g>
<!-- Node5&#45;&gt;Node7 -->
<g id="edge6" class="edge">
<title>Node5&#45;&gt;Node7</title>
<path fill="none" stroke="midnightblue" d="M981.3,-381.5C997.49,-381.5 1014.54,-381.5 1030.9,-381.5"/>
<polygon fill="midnightblue" stroke="midnightblue" points="1030.98,-385 1040.98,-381.5 1030.98,-378 1030.98,-385"/>
</g>
<!-- Node8 -->
<g id="node8" class="node">
<title>Node8</title>
<g id="a_node8"><a xlink:href="classcarta_1_1Histogram.html#a70adaf5681547ca8d7aa22550bfb3206" target="_top" xlink:title=" ">
<polygon fill="none" stroke="black" points="1044,-334 1044,-353 1193,-353 1193,-334 1044,-334"/>
<text text-anchor="middle" x="1118.5" y="-341" font-family="Helvetica,sans-Serif" font-size="10.00">carta::Histogram::GetNbins</text>
</a>
</g>
</g>
<!-- Node5&#45;&gt;Node8 -->
<g id="edge7" class="edge">
<title>Node5&#45;&gt;Node8</title>
<path fill="none" stroke="midnightblue" d="M981.3,-367.3C1004.95,-363.16 1030.45,-358.71 1052.92,-354.78"/>
<polygon fill="midnightblue" stroke="midnightblue" points="1053.76,-358.19 1063.01,-353.02 1052.56,-351.29 1053.76,-358.19"/>
</g>
<!-- Node16 -->
<g id="node16" class="node">
<title>Node16</title>
<g id="a_node16"><a xlink:href="classcarta_1_1Session.html#af5f45b72e3fb7d4ad6fbf32fcc9da912" target="_top" xlink:title=" ">
<polygon fill="none" stroke="black" points="827.5,-91 827.5,-110 970.5,-110 970.5,-91 827.5,-91"/>
<text text-anchor="middle" x="899" y="-98" font-family="Helvetica,sans-Serif" font-size="10.00">carta::Session::SendEvent</text>
</a>
</g>
</g>
<!-- Node15&#45;&gt;Node16 -->
<g id="edge15" class="edge">
<title>Node15&#45;&gt;Node16</title>
<path fill="none" stroke="midnightblue" d="M745.11,-102.6C767.73,-102.29 793.37,-101.94 817.1,-101.61"/>
<polygon fill="midnightblue" stroke="midnightblue" points="817.19,-105.11 827.14,-101.48 817.09,-98.11 817.19,-105.11"/>
</g>
<!-- Node17 -->
<g id="node17" class="node">
<title>Node17</title>
<g id="a_node17"><a xlink:href="namespacecarta_1_1logger.html#ab9e339746ee51ea21696ab43b50841d5" target="_top" xlink:title=" ">
<polygon fill="none" stroke="black" points="1032,-135 1032,-154 1205,-154 1205,-135 1032,-135"/>
<text text-anchor="middle" x="1118.5" y="-142" font-family="Helvetica,sans-Serif" font-size="10.00">carta::logger::LogSentEventType</text>
</a>
</g>
</g>
<!-- Node16&#45;&gt;Node17 -->
<g id="edge16" class="edge">
<title>Node16&#45;&gt;Node17</title>
<path fill="none" stroke="midnightblue" d="M947.19,-110.05C980.4,-116.76 1025.02,-125.79 1060.26,-132.92"/>
<polygon fill="midnightblue" stroke="midnightblue" points="1059.9,-136.42 1070.4,-134.97 1061.29,-129.56 1059.9,-136.42"/>
</g>
<!-- Node19 -->
<g id="node19" class="node">
<title>Node19</title>
<g id="a_node19"><a xlink:href="classcarta_1_1concurrent__queue.html#ab1a11795f017e1c7dd870fce5da5ede1" target="_top" xlink:title=" ">
<polygon fill="none" stroke="black" points="1051.5,-85.5 1051.5,-115.5 1185.5,-115.5 1185.5,-85.5 1051.5,-85.5"/>
<text text-anchor="start" x="1059.5" y="-103.5" font-family="Helvetica,sans-Serif" font-size="10.00">carta::concurrent_queue</text>
<text text-anchor="middle" x="1118.5" y="-92.5" font-family="Helvetica,sans-Serif" font-size="10.00">::push</text>
</a>
</g>
</g>
<!-- Node16&#45;&gt;Node19 -->
<g id="edge18" class="edge">
<title>Node16&#45;&gt;Node19</title>
<path fill="none" stroke="midnightblue" d="M970.62,-100.5C993.2,-100.5 1018.29,-100.5 1041.26,-100.5"/>
<polygon fill="midnightblue" stroke="midnightblue" points="1041.3,-104 1051.3,-100.5 1041.3,-97 1041.3,-104"/>
</g>
<!-- Node20 -->
<g id="node20" class="node">
<title>Node20</title>
<g id="a_node20"><a xlink:href="classcarta_1_1concurrent__queue.html#a44dc990ae7a71921648cad573058357d" target="_top" xlink:title=" ">
<polygon fill="none" stroke="black" points="1051.5,-36.5 1051.5,-66.5 1185.5,-66.5 1185.5,-36.5 1051.5,-36.5"/>
<text text-anchor="start" x="1059.5" y="-54.5" font-family="Helvetica,sans-Serif" font-size="10.00">carta::concurrent_queue</text>
<text text-anchor="middle" x="1118.5" y="-43.5" font-family="Helvetica,sans-Serif" font-size="10.00">::try_pop</text>
</a>
</g>
</g>
<!-- Node16&#45;&gt;Node20 -->
<g id="edge19" class="edge">
<title>Node16&#45;&gt;Node20</title>
<path fill="none" stroke="midnightblue" d="M942.19,-90.99C970.29,-84.66 1008.03,-76.16 1041.29,-68.67"/>
<polygon fill="midnightblue" stroke="midnightblue" points="1042.47,-71.99 1051.45,-66.38 1040.93,-65.16 1042.47,-71.99"/>
</g>
<!-- Node18 -->
<g id="node18" class="node">
<title>Node18</title>
<g id="a_node18"><a xlink:href="namespacecarta_1_1logger.html#a23c9bf75209165cf69eb8d50f64b81b4" target="_top" xlink:title=" ">
<polygon fill="none" stroke="black" points="1241,-129.5 1241,-159.5 1357,-159.5 1357,-129.5 1241,-129.5"/>
<text text-anchor="start" x="1249" y="-147.5" font-family="Helvetica,sans-Serif" font-size="10.00">carta::logger::log</text>
<text text-anchor="middle" x="1299" y="-136.5" font-family="Helvetica,sans-Serif" font-size="10.00">_protocol_messages</text>
</a>
</g>
</g>
<!-- Node17&#45;&gt;Node18 -->
<g id="edge17" class="edge">
<title>Node17&#45;&gt;Node18</title>
<path fill="none" stroke="midnightblue" d="M1205.09,-144.5C1213.74,-144.5 1222.44,-144.5 1230.86,-144.5"/>
<polygon fill="midnightblue" stroke="midnightblue" points="1230.96,-148 1240.96,-144.5 1230.96,-141 1230.96,-148"/>
</g>
<!-- Node21&#45;&gt;Node16 -->
<g id="edge22" class="edge">
<title>Node21&#45;&gt;Node16</title>
<path fill="none" stroke="midnightblue" d="M730.56,-69.01C762.36,-74.99 803.59,-82.74 837.18,-89.06"/>
<polygon fill="midnightblue" stroke="midnightblue" points="836.86,-92.56 847.34,-90.97 838.15,-85.68 836.86,-92.56"/>
</g>
<!-- Node22 -->
<g id="node22" class="node">
<title>Node22</title>
<g id="a_node22"><a xlink:href="classMessage.html#a99e84f303d54a46b1cf582bf343c7f29" target="_top" xlink:title=" ">
<polygon fill="none" stroke="black" points="842.5,-50 842.5,-69 955.5,-69 955.5,-50 842.5,-50"/>
<text text-anchor="middle" x="899" y="-57" font-family="Helvetica,sans-Serif" font-size="10.00">Message::ErrorData</text>
</a>
</g>
</g>
<!-- Node21&#45;&gt;Node22 -->
<g id="edge21" class="edge">
<title>Node21&#45;&gt;Node22</title>
<path fill="none" stroke="midnightblue" d="M759.01,-59.5C783.11,-59.5 809.32,-59.5 832.42,-59.5"/>
<polygon fill="midnightblue" stroke="midnightblue" points="832.46,-63 842.46,-59.5 832.46,-56 832.46,-63"/>
</g>
<!-- Node23&#45;&gt;Node15 -->
<g id="edge26" class="edge">
<title>Node23&#45;&gt;Node15</title>
<path fill="none" stroke="midnightblue" d="M556.13,-106.62C571.26,-106.23 587.21,-105.82 602.4,-105.43"/>
<polygon fill="midnightblue" stroke="midnightblue" points="602.87,-108.92 612.78,-105.17 602.69,-101.92 602.87,-108.92"/>
</g>
<!-- Node25 -->
<g id="node25" class="node">
<title>Node25</title>
<g id="a_node25"><a xlink:href="classcarta_1_1Session.html#a120e85ac57a07414f829a228618ab5fe" target="_top" xlink:title=" ">
<polygon fill="none" stroke="black" points="407,-44.5 407,-74.5 556,-74.5 556,-44.5 407,-44.5"/>
<text text-anchor="start" x="415" y="-62.5" font-family="Helvetica,sans-Serif" font-size="10.00">carta::Session::SendSpatial</text>
<text text-anchor="middle" x="481.5" y="-51.5" font-family="Helvetica,sans-Serif" font-size="10.00">ProfileData</text>
</a>
</g>
</g>
<!-- Node24&#45;&gt;Node25 -->
<g id="edge28" class="edge">
<title>Node24&#45;&gt;Node25</title>
<path fill="none" stroke="midnightblue" d="M368.01,-62.52C377.41,-62.27 387.08,-62.01 396.63,-61.75"/>
<polygon fill="midnightblue" stroke="midnightblue" points="397.01,-65.25 406.91,-61.48 396.82,-58.25 397.01,-65.25"/>
</g>
<!-- Node25&#45;&gt;Node15 -->
<g id="edge29" class="edge">
<title>Node25&#45;&gt;Node15</title>
<path fill="none" stroke="midnightblue" d="M549.23,-74.52C566.43,-78.39 585.06,-82.58 602.66,-86.54"/>
<polygon fill="midnightblue" stroke="midnightblue" points="602.37,-90.07 612.89,-88.85 603.9,-83.24 602.37,-90.07"/>
</g>
<!-- Node25&#45;&gt;Node21 -->
<g id="edge30" class="edge">
<title>Node25&#45;&gt;Node21</title>
<path fill="none" stroke="midnightblue" d="M556.13,-59.5C566.82,-59.5 577.92,-59.5 588.88,-59.5"/>
<polygon fill="midnightblue" stroke="midnightblue" points="588.88,-63 598.88,-59.5 588.88,-56 588.88,-63"/>
</g>
</g>
</svg>
