<?xml version="1.0" encoding="UTF-8" standalone="no"?>
<!DOCTYPE svg PUBLIC "-//W3C//DTD SVG 1.1//EN"
 "http://www.w3.org/Graphics/SVG/1.1/DTD/svg11.dtd">
<!-- Generated by graphviz version 2.43.0 (0)
 -->
<!-- Title: carta::FileLoader::CalculateBeamArea Pages: 1 -->
<svg width="429pt" height="137pt"
 viewBox="0.00 0.00 429.00 137.00" xmlns="http://www.w3.org/2000/svg" xmlns:xlink="http://www.w3.org/1999/xlink">
<g id="graph0" class="graph" transform="scale(1 1) rotate(0) translate(4 133)">
<title>carta::FileLoader::CalculateBeamArea</title>
<!-- Node1 -->
<g id="node1" class="node">
<title>Node1</title>
<g id="a_node1"><a xlink:title=" ">
<polygon fill="#bfbfbf" stroke="black" points="0,-73.5 0,-103.5 113,-103.5 113,-73.5 0,-73.5"/>
<text text-anchor="start" x="8" y="-91.5" font-family="Helvetica,sans-Serif" font-size="10.00">carta::FileLoader::</text>
<text text-anchor="middle" x="56.5" y="-80.5" font-family="Helvetica,sans-Serif" font-size="10.00">CalculateBeamArea</text>
</a>
</g>
</g>
<!-- Node2 -->
<g id="node2" class="node">
<title>Node2</title>
<g id="a_node2"><a xlink:href="classcarta_1_1FileLoader.html#a5101515d2dff6f6621b23699c5c7b3bf" target="_top" xlink:title=" ">
<polygon fill="none" stroke="black" points="149,-98.5 149,-128.5 271,-128.5 271,-98.5 149,-98.5"/>
<text text-anchor="start" x="157" y="-116.5" font-family="Helvetica,sans-Serif" font-size="10.00">carta::FileLoader::</text>
<text text-anchor="middle" x="210" y="-105.5" font-family="Helvetica,sans-Serif" font-size="10.00">CloseImageIfUpdated</text>
</a>
</g>
</g>
<!-- Node1&#45;&gt;Node2 -->
<g id="edge1" class="edge">
<title>Node1&#45;&gt;Node2</title>
<path fill="none" stroke="midnightblue" d="M113.05,-97.67C121.43,-99.05 130.16,-100.49 138.8,-101.92"/>
<polygon fill="midnightblue" stroke="midnightblue" points="138.42,-105.4 148.86,-103.58 139.56,-98.49 138.42,-105.4"/>
</g>
<!-- Node4 -->
<g id="node4" class="node">
<title>Node4</title>
<g id="a_node4"><a xlink:href="classcarta_1_1FileLoader.html#ad006f05ccd020be05834212598e3a38b" target="_top" xlink:title=" ">
<polygon fill="none" stroke="black" points="158,-49.5 158,-79.5 262,-79.5 262,-49.5 158,-49.5"/>
<text text-anchor="start" x="166" y="-67.5" font-family="Helvetica,sans-Serif" font-size="10.00">carta::FileLoader::</text>
<text text-anchor="middle" x="210" y="-56.5" font-family="Helvetica,sans-Serif" font-size="10.00">GetImage</text>
</a>
</g>
</g>
<!-- Node1&#45;&gt;Node4 -->
<g id="edge3" class="edge">
<title>Node1&#45;&gt;Node4</title>
<path fill="none" stroke="midnightblue" d="M113.05,-79.7C124.42,-77.9 136.44,-76 147.98,-74.17"/>
<polygon fill="midnightblue" stroke="midnightblue" points="148.65,-77.6 157.98,-72.58 147.55,-70.69 148.65,-77.6"/>
</g>
<!-- Node3 -->
<g id="node3" class="node">
<title>Node3</title>
<g id="a_node3"><a xlink:href="classcarta_1_1FileLoader.html#ab555e1d6ee27d451b910faeff3cf9796" target="_top" xlink:title=" ">
<polygon fill="none" stroke="black" points="312,-98.5 312,-128.5 416,-128.5 416,-98.5 312,-98.5"/>
<text text-anchor="start" x="320" y="-116.5" font-family="Helvetica,sans-Serif" font-size="10.00">carta::FileLoader::</text>
<text text-anchor="middle" x="364" y="-105.5" font-family="Helvetica,sans-Serif" font-size="10.00">ImageUpdated</text>
</a>
</g>
</g>
<!-- Node2&#45;&gt;Node3 -->
<g id="edge2" class="edge">
<title>Node2&#45;&gt;Node3</title>
<path fill="none" stroke="midnightblue" d="M271.07,-113.5C281.05,-113.5 291.41,-113.5 301.43,-113.5"/>
<polygon fill="midnightblue" stroke="midnightblue" points="301.71,-117 311.71,-113.5 301.71,-110 301.71,-117"/>
</g>
<!-- Node5 -->
<g id="node5" class="node">
<title>Node5</title>
<g id="a_node5"><a xlink:href="classcarta_1_1FileLoader.html#a1ec9887a1de28cd550d9ebe22f016976" target="_top" xlink:title=" ">
<polygon fill="none" stroke="black" points="307,-49.5 307,-79.5 421,-79.5 421,-49.5 307,-49.5"/>
<text text-anchor="start" x="315" y="-67.5" font-family="Helvetica,sans-Serif" font-size="10.00">carta::FileLoader::</text>
<text text-anchor="middle" x="364" y="-56.5" font-family="Helvetica,sans-Serif" font-size="10.00">IsComplexDataType</text>
</a>
</g>
</g>
<!-- Node4&#45;&gt;Node5 -->
<g id="edge4" class="edge">
<title>Node4&#45;&gt;Node5</title>
<path fill="none" stroke="midnightblue" d="M262.04,-64.5C273.18,-64.5 285.12,-64.5 296.76,-64.5"/>
<polygon fill="midnightblue" stroke="midnightblue" points="296.87,-68 306.87,-64.5 296.87,-61 296.87,-68"/>
</g>
<!-- Node6 -->
<g id="node6" class="node">
<title>Node6</title>
<g id="a_node6"><a xlink:href="classcarta_1_1FileLoader.html#aa94f8789f059e022e03e1e5a1da942eb" target="_top" xlink:title=" ">
<polygon fill="none" stroke="black" points="312,-0.5 312,-30.5 416,-30.5 416,-0.5 312,-0.5"/>
<text text-anchor="start" x="320" y="-18.5" font-family="Helvetica,sans-Serif" font-size="10.00">carta::FileLoader::</text>
<text text-anchor="middle" x="364" y="-7.5" font-family="Helvetica,sans-Serif" font-size="10.00">OpenFile</text>
</a>
</g>
</g>
<!-- Node4&#45;&gt;Node6 -->
<g id="edge5" class="edge">
<title>Node4&#45;&gt;Node6</title>
<path fill="none" stroke="midnightblue" d="M257.85,-49.4C273.23,-44.44 290.5,-38.87 306.52,-33.71"/>
<polygon fill="midnightblue" stroke="midnightblue" points="307.87,-36.95 316.31,-30.55 305.72,-30.29 307.87,-36.95"/>
</g>
</g>
</svg>
