<?xml version="1.0" encoding="UTF-8" standalone="no"?>
<!DOCTYPE svg PUBLIC "-//W3C//DTD SVG 1.1//EN"
 "http://www.w3.org/Graphics/SVG/1.1/DTD/svg11.dtd">
<!-- Generated by graphviz version 2.43.0 (0)
 -->
<!-- Title: carta::CompressedFits Pages: 1 -->
<svg width="633pt" height="282pt"
 viewBox="0.00 0.00 633.00 282.00" xmlns="http://www.w3.org/2000/svg" xmlns:xlink="http://www.w3.org/1999/xlink">
<g id="graph0" class="graph" transform="scale(1 1) rotate(0) translate(4 278)">
<title>carta::CompressedFits</title>
<!-- Node1 -->
<g id="node1" class="node">
<title>Node1</title>
<g id="a_node1"><a xlink:title=" ">
<polygon fill="#bfbfbf" stroke="black" points="500,-126.5 500,-145.5 625,-145.5 625,-126.5 500,-126.5"/>
<text text-anchor="middle" x="562.5" y="-133.5" font-family="Helvetica,sans-Serif" font-size="10.00">carta::CompressedFits</text>
</a>
</g>
</g>
<!-- Node2 -->
<g id="node2" class="node">
<title>Node2</title>
<g id="a_node2"><a xlink:title=" ">
<polygon fill="none" stroke="#bfbfbf" points="189,-252.5 189,-271.5 344,-271.5 344,-252.5 189,-252.5"/>
<text text-anchor="middle" x="266.5" y="-259.5" font-family="Helvetica,sans-Serif" font-size="10.00">Matrix&lt; casacore::Double &gt;</text>
</a>
</g>
</g>
<!-- Node2&#45;&gt;Node1 -->
<g id="edge1" class="edge">
<title>Node2&#45;&gt;Node1</title>
<path fill="none" stroke="#9a32cd" stroke-dasharray="5,2" d="M354.48,-264.04C395.41,-261.56 443.56,-253.45 482,-232 519.22,-211.22 546.24,-165.57 556.71,-145.64"/>
<polygon fill="#9a32cd" stroke="#9a32cd" points="354.05,-260.56 344.24,-264.55 354.4,-267.55 354.05,-260.56"/>
<text text-anchor="middle" x="422" y="-266" font-family="Helvetica,sans-Serif" font-size="10.00"> _xform</text>
</g>
<!-- Node3 -->
<g id="node3" class="node">
<title>Node3</title>
<g id="a_node3"><a xlink:title=" ">
<polygon fill="none" stroke="#bfbfbf" points="237,-214.5 237,-233.5 296,-233.5 296,-214.5 237,-214.5"/>
<text text-anchor="middle" x="266.5" y="-221.5" font-family="Helvetica,sans-Serif" font-size="10.00">IPosition</text>
</a>
</g>
</g>
<!-- Node3&#45;&gt;Node1 -->
<g id="edge2" class="edge">
<title>Node3&#45;&gt;Node1</title>
<path fill="none" stroke="#9a32cd" stroke-dasharray="5,2" d="M306.27,-222.6C350.26,-219.9 423.49,-212.02 482,-189 508.86,-178.43 535.93,-157.74 550.52,-145.58"/>
<polygon fill="#9a32cd" stroke="#9a32cd" points="306.07,-219.1 296.28,-223.15 306.46,-226.09 306.07,-219.1"/>
<text text-anchor="middle" x="422" y="-220" font-family="Helvetica,sans-Serif" font-size="10.00"> _shape</text>
</g>
<!-- Node4 -->
<g id="node4" class="node">
<title>Node4</title>
<g id="a_node4"><a xlink:title=" ">
<polygon fill="none" stroke="#bfbfbf" points="205,-165 205,-195 328,-195 328,-165 205,-165"/>
<text text-anchor="start" x="213" y="-183" font-family="Helvetica,sans-Serif" font-size="10.00">std::vector&lt; casacore</text>
<text text-anchor="middle" x="266.5" y="-172" font-family="Helvetica,sans-Serif" font-size="10.00">::String &gt;</text>
</a>
</g>
</g>
<!-- Node4&#45;&gt;Node1 -->
<g id="edge3" class="edge">
<title>Node4&#45;&gt;Node1</title>
<path fill="none" stroke="#9a32cd" stroke-dasharray="5,2" d="M338.17,-176.36C380.22,-173.39 434.47,-168.12 482,-159 499.21,-155.7 518.08,-150.32 533.11,-145.59"/>
<polygon fill="#9a32cd" stroke="#9a32cd" points="337.76,-172.88 328.02,-177.05 338.24,-179.87 337.76,-172.88"/>
<text text-anchor="middle" x="422" y="-177" font-family="Helvetica,sans-Serif" font-size="10.00"> _history_beam_headers</text>
</g>
<!-- Node5 -->
<g id="node5" class="node">
<title>Node5</title>
<g id="a_node5"><a xlink:title=" ">
<polygon fill="none" stroke="#bfbfbf" points="29.5,-170.5 29.5,-189.5 74.5,-189.5 74.5,-170.5 29.5,-170.5"/>
<text text-anchor="middle" x="52" y="-177.5" font-family="Helvetica,sans-Serif" font-size="10.00">String</text>
</a>
</g>
</g>
<!-- Node5&#45;&gt;Node4 -->
<g id="edge4" class="edge">
<title>Node5&#45;&gt;Node4</title>
<path fill="none" stroke="#9a32cd" stroke-dasharray="5,2" d="M84.95,-180C116.57,-180 165.77,-180 204.82,-180"/>
<polygon fill="#9a32cd" stroke="#9a32cd" points="84.55,-176.5 74.55,-180 84.55,-183.5 84.55,-176.5"/>
<text text-anchor="middle" x="146.5" y="-183" font-family="Helvetica,sans-Serif" font-size="10.00"> elements</text>
</g>
<!-- Node6 -->
<g id="node6" class="node">
<title>Node6</title>
<g id="a_node6"><a xlink:title=" ">
<polygon fill="none" stroke="#bfbfbf" points="252,-126.5 252,-145.5 281,-145.5 281,-126.5 252,-126.5"/>
<text text-anchor="middle" x="266.5" y="-133.5" font-family="Helvetica,sans-Serif" font-size="10.00">int</text>
</a>
</g>
</g>
<!-- Node6&#45;&gt;Node1 -->
<g id="edge5" class="edge">
<title>Node6&#45;&gt;Node1</title>
<path fill="none" stroke="#9a32cd" stroke-dasharray="5,2" d="M291.53,-136C336.58,-136 434.97,-136 499.7,-136"/>
<polygon fill="#9a32cd" stroke="#9a32cd" points="291.29,-132.5 281.29,-136 291.29,-139.5 291.29,-132.5"/>
<text text-anchor="middle" x="422" y="-150" font-family="Helvetica,sans-Serif" font-size="10.00"> _spectral_axis</text>
<text text-anchor="middle" x="422" y="-139" font-family="Helvetica,sans-Serif" font-size="10.00">_stokes_axis</text>
</g>
<!-- Node7 -->
<g id="node7" class="node">
<title>Node7</title>
<g id="a_node7"><a xlink:title=" ">
<polygon fill="none" stroke="#bfbfbf" points="247.5,-81.5 247.5,-100.5 285.5,-100.5 285.5,-81.5 247.5,-81.5"/>
<text text-anchor="middle" x="266.5" y="-88.5" font-family="Helvetica,sans-Serif" font-size="10.00">bool</text>
</a>
</g>
</g>
<!-- Node7&#45;&gt;Node1 -->
<g id="edge6" class="edge">
<title>Node7&#45;&gt;Node1</title>
<path fill="none" stroke="#9a32cd" stroke-dasharray="5,2" d="M295.93,-91.47C337.29,-92.61 416.27,-96.53 482,-110 500.92,-113.88 521.64,-120.75 537.18,-126.45"/>
<polygon fill="#9a32cd" stroke="#9a32cd" points="295.86,-87.96 285.78,-91.22 295.69,-94.96 295.86,-87.96"/>
<text text-anchor="middle" x="422" y="-124" font-family="Helvetica,sans-Serif" font-size="10.00"> _is_history_beam</text>
<text text-anchor="middle" x="422" y="-113" font-family="Helvetica,sans-Serif" font-size="10.00">_support_aips_beam</text>
</g>
<!-- Node8 -->
<g id="node8" class="node">
<title>Node8</title>
<g id="a_node8"><a xlink:title=" ">
<polygon fill="none" stroke="#bfbfbf" points="234,-38.5 234,-57.5 299,-57.5 299,-38.5 234,-38.5"/>
<text text-anchor="middle" x="266.5" y="-45.5" font-family="Helvetica,sans-Serif" font-size="10.00">std::string</text>
</a>
</g>
</g>
<!-- Node8&#45;&gt;Node1 -->
<g id="edge7" class="edge">
<title>Node8&#45;&gt;Node1</title>
<path fill="none" stroke="#9a32cd" stroke-dasharray="5,2" d="M309.28,-44.93C353.85,-43.26 425.66,-45.25 482,-69 512.6,-81.9 540.28,-110.87 553.43,-126.14"/>
<polygon fill="#9a32cd" stroke="#9a32cd" points="308.93,-41.45 299.1,-45.4 309.25,-48.44 308.93,-41.45"/>
<text text-anchor="middle" x="422" y="-83" font-family="Helvetica,sans-Serif" font-size="10.00"> _filename</text>
<text text-anchor="middle" x="422" y="-72" font-family="Helvetica,sans-Serif" font-size="10.00">_unzip_filename</text>
</g>
<!-- Node9 -->
<g id="node9" class="node">
<title>Node9</title>
<g id="a_node9"><a xlink:title=" ">
<polygon fill="none" stroke="#bfbfbf" points="0,-33 0,-63 104,-63 104,-33 0,-33"/>
<text text-anchor="start" x="8" y="-51" font-family="Helvetica,sans-Serif" font-size="10.00">std::basic_string&lt;</text>
<text text-anchor="middle" x="52" y="-40" font-family="Helvetica,sans-Serif" font-size="10.00"> Char &gt;</text>
</a>
</g>
</g>
<!-- Node9&#45;&gt;Node8 -->
<g id="edge8" class="edge">
<title>Node9&#45;&gt;Node8</title>
<path fill="none" stroke="midnightblue" d="M114.39,-48C153.47,-48 202.47,-48 233.89,-48"/>
<polygon fill="midnightblue" stroke="midnightblue" points="114.17,-44.5 104.17,-48 114.17,-51.5 114.17,-44.5"/>
</g>
<!-- Node10 -->
<g id="node10" class="node">
<title>Node10</title>
<g id="a_node10"><a xlink:title=" ">
<polygon fill="none" stroke="#bfbfbf" points="220.5,-0.5 220.5,-19.5 312.5,-19.5 312.5,-0.5 220.5,-0.5"/>
<text text-anchor="middle" x="266.5" y="-7.5" font-family="Helvetica,sans-Serif" font-size="10.00">ImageBeamSet</text>
</a>
</g>
</g>
<!-- Node10&#45;&gt;Node1 -->
<g id="edge9" class="edge">
<title>Node10&#45;&gt;Node1</title>
<path fill="none" stroke="#9a32cd" stroke-dasharray="5,2" d="M322.9,-3.68C368.48,-1.12 433.28,-3.74 482,-31 521.91,-53.33 547.98,-104.86 557.48,-126.33"/>
<polygon fill="#9a32cd" stroke="#9a32cd" points="322.65,-0.19 312.9,-4.34 323.11,-7.18 322.65,-0.19"/>
<text text-anchor="middle" x="422" y="-34" font-family="Helvetica,sans-Serif" font-size="10.00"> _beam_set</text>
</g>
</g>
</svg>
