<?xml version="1.0" encoding="UTF-8" standalone="no"?>
<!DOCTYPE svg PUBLIC "-//W3C//DTD SVG 1.1//EN"
 "http://www.w3.org/Graphics/SVG/1.1/DTD/svg11.dtd">
<!-- Generated by graphviz version 2.43.0 (0)
 -->
<!-- Title: carta::Frame::GetImageSlicer Pages: 1 -->
<svg width="498pt" height="154pt"
 viewBox="0.00 0.00 498.00 153.50" xmlns="http://www.w3.org/2000/svg" xmlns:xlink="http://www.w3.org/1999/xlink">
<g id="graph0" class="graph" transform="scale(1 1) rotate(0) translate(4 149.5)">
<title>carta::Frame::GetImageSlicer</title>
<!-- Node1 -->
<g id="node1" class="node">
<title>Node1</title>
<g id="a_node1"><a xlink:title=" ">
<polygon fill="#bfbfbf" stroke="black" points="0,-69 0,-88 159,-88 159,-69 0,-69"/>
<text text-anchor="middle" x="79.5" y="-76" font-family="Helvetica,sans-Serif" font-size="10.00">carta::Frame::GetImageSlicer</text>
</a>
</g>
</g>
<!-- Node2 -->
<g id="node2" class="node">
<title>Node2</title>
<g id="a_node2"><a xlink:href="classcarta_1_1Frame.html#a30b016834ce04378ba3d0a34f373db3f" target="_top" xlink:title=" ">
<polygon fill="none" stroke="black" points="195,-126 195,-145 347,-145 347,-126 195,-126"/>
<text text-anchor="middle" x="271" y="-133" font-family="Helvetica,sans-Serif" font-size="10.00">carta::Frame::CurrentStokes</text>
</a>
</g>
</g>
<!-- Node1&#45;&gt;Node2 -->
<g id="edge1" class="edge">
<title>Node1&#45;&gt;Node2</title>
<path fill="none" stroke="midnightblue" d="M107.63,-88.12C130.72,-96.16 164.84,-107.69 195,-116.5 203.15,-118.88 211.86,-121.25 220.34,-123.46"/>
<polygon fill="midnightblue" stroke="midnightblue" points="219.6,-126.88 230.15,-125.97 221.34,-120.1 219.6,-126.88"/>
</g>
<!-- Node3 -->
<g id="node3" class="node">
<title>Node3</title>
<g id="a_node3"><a xlink:href="classcarta_1_1Frame.html#a1eda290558f3e9a6be5d4149c06e1b7b" target="_top" xlink:title=" ">
<polygon fill="none" stroke="black" points="207.5,-88 207.5,-107 334.5,-107 334.5,-88 207.5,-88"/>
<text text-anchor="middle" x="271" y="-95" font-family="Helvetica,sans-Serif" font-size="10.00">carta::Frame::CurrentZ</text>
</a>
</g>
</g>
<!-- Node1&#45;&gt;Node3 -->
<g id="edge2" class="edge">
<title>Node1&#45;&gt;Node3</title>
<path fill="none" stroke="midnightblue" d="M159.22,-86.39C171.77,-87.65 184.71,-88.95 197.12,-90.19"/>
<polygon fill="midnightblue" stroke="midnightblue" points="197.1,-93.71 207.4,-91.22 197.8,-86.74 197.1,-93.71"/>
</g>
<!-- Node4 -->
<g id="node4" class="node">
<title>Node4</title>
<g id="a_node4"><a xlink:href="classcarta_1_1Frame.html#ad0db7c41f9da68619616cccb059edbb4" target="_top" xlink:title=" ">
<polygon fill="none" stroke="black" points="214.5,-50 214.5,-69 327.5,-69 327.5,-50 214.5,-50"/>
<text text-anchor="middle" x="271" y="-57" font-family="Helvetica,sans-Serif" font-size="10.00">carta::Frame::Depth</text>
</a>
</g>
</g>
<!-- Node1&#45;&gt;Node4 -->
<g id="edge3" class="edge">
<title>Node1&#45;&gt;Node4</title>
<path fill="none" stroke="midnightblue" d="M159.22,-70.61C174.11,-69.11 189.55,-67.57 204,-66.12"/>
<polygon fill="midnightblue" stroke="midnightblue" points="204.73,-69.56 214.33,-65.08 204.03,-62.6 204.73,-69.56"/>
</g>
<!-- Node5 -->
<g id="node5" class="node">
<title>Node5</title>
<g id="a_node5"><a xlink:href="structStokesSource.html#a7651d6cbedb427f5c00925c5111feac8" target="_top" xlink:title=" ">
<polygon fill="none" stroke="black" points="204,-0.5 204,-30.5 338,-30.5 338,-0.5 204,-0.5"/>
<text text-anchor="start" x="212" y="-18.5" font-family="Helvetica,sans-Serif" font-size="10.00">StokesSource::IsOriginal</text>
<text text-anchor="middle" x="271" y="-7.5" font-family="Helvetica,sans-Serif" font-size="10.00">Image</text>
</a>
</g>
</g>
<!-- Node1&#45;&gt;Node5 -->
<g id="edge4" class="edge">
<title>Node1&#45;&gt;Node5</title>
<path fill="none" stroke="midnightblue" d="M109.28,-68.93C137.29,-59.62 180.58,-45.23 215.18,-33.73"/>
<polygon fill="midnightblue" stroke="midnightblue" points="216.3,-37.04 224.69,-30.57 214.09,-30.4 216.3,-37.04"/>
</g>
<!-- Node6 -->
<g id="node6" class="node">
<title>Node6</title>
<g id="a_node6"><a xlink:href="Image_8h.html#a30da07ffd67ed06c1e15e2da4d915e0c" target="_top" xlink:title=" ">
<polygon fill="none" stroke="black" points="383,-6 383,-25 490,-25 490,-6 383,-6"/>
<text text-anchor="middle" x="436.5" y="-13" font-family="Helvetica,sans-Serif" font-size="10.00">IsComputedStokes</text>
</a>
</g>
</g>
<!-- Node5&#45;&gt;Node6 -->
<g id="edge5" class="edge">
<title>Node5&#45;&gt;Node6</title>
<path fill="none" stroke="midnightblue" d="M338.03,-15.5C349.43,-15.5 361.25,-15.5 372.57,-15.5"/>
<polygon fill="midnightblue" stroke="midnightblue" points="372.79,-19 382.79,-15.5 372.79,-12 372.79,-19"/>
</g>
</g>
</svg>
