<?xml version="1.0" encoding="UTF-8" standalone="no"?>
<!DOCTYPE svg PUBLIC "-//W3C//DTD SVG 1.1//EN"
 "http://www.w3.org/Graphics/SVG/1.1/DTD/svg11.dtd">
<!-- Generated by graphviz version 2.43.0 (0)
 -->
<!-- Title: carta::CompressedFits::GetDecompressSize Pages: 1 -->
<svg width="491pt" height="214pt"
 viewBox="0.00 0.00 491.00 214.00" xmlns="http://www.w3.org/2000/svg" xmlns:xlink="http://www.w3.org/1999/xlink">
<g id="graph0" class="graph" transform="scale(1 1) rotate(0) translate(4 210)">
<title>carta::CompressedFits::GetDecompressSize</title>
<!-- Node1 -->
<g id="node1" class="node">
<title>Node1</title>
<g id="a_node1"><a xlink:title=" ">
<polygon fill="#bfbfbf" stroke="black" points="0,-93.5 0,-123.5 125,-123.5 125,-93.5 0,-93.5"/>
<text text-anchor="start" x="8" y="-111.5" font-family="Helvetica,sans-Serif" font-size="10.00">carta::CompressedFits</text>
<text text-anchor="middle" x="62.5" y="-100.5" font-family="Helvetica,sans-Serif" font-size="10.00">::GetDecompressSize</text>
</a>
</g>
</g>
<!-- Node2 -->
<g id="node2" class="node">
<title>Node2</title>
<g id="a_node2"><a xlink:href="classcarta_1_1CompressedFits.html#a7d1a86de8246054b56ff34759f89c974" target="_top" xlink:title=" ">
<polygon fill="none" stroke="black" points="161,-175.5 161,-205.5 303,-205.5 303,-175.5 161,-175.5"/>
<text text-anchor="start" x="169" y="-193.5" font-family="Helvetica,sans-Serif" font-size="10.00">carta::CompressedFits</text>
<text text-anchor="middle" x="232" y="-182.5" font-family="Helvetica,sans-Serif" font-size="10.00">::DecompressedFileExists</text>
</a>
</g>
</g>
<!-- Node1&#45;&gt;Node2 -->
<g id="edge1" class="edge">
<title>Node1&#45;&gt;Node2</title>
<path fill="none" stroke="midnightblue" d="M86.48,-123.58C105.83,-135.88 134.52,-153.16 161,-165.5 165.63,-167.66 170.51,-169.75 175.44,-171.74"/>
<polygon fill="midnightblue" stroke="midnightblue" points="174.36,-175.07 184.94,-175.43 176.89,-168.55 174.36,-175.07"/>
</g>
<!-- Node4 -->
<g id="node4" class="node">
<title>Node4</title>
<g id="a_node4"><a xlink:href="classcarta_1_1Timer.html#aad2702a80259920b910fb76642f97b88" target="_top" xlink:title=" ">
<polygon fill="none" stroke="black" points="172,-137 172,-156 292,-156 292,-137 172,-137"/>
<text text-anchor="middle" x="232" y="-144" font-family="Helvetica,sans-Serif" font-size="10.00">carta::Timer::Elapsed</text>
</a>
</g>
</g>
<!-- Node1&#45;&gt;Node4 -->
<g id="edge3" class="edge">
<title>Node1&#45;&gt;Node4</title>
<path fill="none" stroke="midnightblue" d="M125.39,-122.54C143.08,-126.55 162.16,-130.88 179.18,-134.74"/>
<polygon fill="midnightblue" stroke="midnightblue" points="178.4,-138.16 188.93,-136.96 179.95,-131.33 178.4,-138.16"/>
</g>
<!-- Node5 -->
<g id="node5" class="node">
<title>Node5</title>
<g id="a_node5"><a xlink:href="structcarta_1_1TimeDelta.html#a90b2dc0a7d70b0aa6f668f4bbad7fa58" target="_top" xlink:title=" ">
<polygon fill="none" stroke="black" points="172.5,-99 172.5,-118 291.5,-118 291.5,-99 172.5,-99"/>
<text text-anchor="middle" x="232" y="-106" font-family="Helvetica,sans-Serif" font-size="10.00">carta::TimeDelta::ms</text>
</a>
</g>
</g>
<!-- Node1&#45;&gt;Node5 -->
<g id="edge4" class="edge">
<title>Node1&#45;&gt;Node5</title>
<path fill="none" stroke="midnightblue" d="M125.39,-108.5C137.41,-108.5 150.07,-108.5 162.28,-108.5"/>
<polygon fill="midnightblue" stroke="midnightblue" points="162.42,-112 172.42,-108.5 162.42,-105 162.42,-112"/>
</g>
<!-- Node6 -->
<g id="node6" class="node">
<title>Node6</title>
<g id="a_node6"><a xlink:href="classcarta_1_1CompressedFits.html#ab9ca1735c175f61848ebf768295ccc5c" target="_top" xlink:title=" ">
<polygon fill="none" stroke="black" points="169.5,-49.5 169.5,-79.5 294.5,-79.5 294.5,-49.5 169.5,-49.5"/>
<text text-anchor="start" x="177.5" y="-67.5" font-family="Helvetica,sans-Serif" font-size="10.00">carta::CompressedFits</text>
<text text-anchor="middle" x="232" y="-56.5" font-family="Helvetica,sans-Serif" font-size="10.00">::OpenGzFile</text>
</a>
</g>
</g>
<!-- Node1&#45;&gt;Node6 -->
<g id="edge5" class="edge">
<title>Node1&#45;&gt;Node6</title>
<path fill="none" stroke="midnightblue" d="M120.68,-93.48C134.61,-89.82 149.65,-85.87 164,-82.1"/>
<polygon fill="midnightblue" stroke="midnightblue" points="165.02,-85.45 173.8,-79.53 163.24,-78.68 165.02,-85.45"/>
</g>
<!-- Node7 -->
<g id="node7" class="node">
<title>Node7</title>
<g id="a_node7"><a xlink:href="classcarta_1_1CompressedFits.html#a44ffd0a06a3f94f38e9f714a265f4910" target="_top" xlink:title=" ">
<polygon fill="none" stroke="black" points="169.5,-0.5 169.5,-30.5 294.5,-30.5 294.5,-0.5 169.5,-0.5"/>
<text text-anchor="start" x="177.5" y="-18.5" font-family="Helvetica,sans-Serif" font-size="10.00">carta::CompressedFits</text>
<text text-anchor="middle" x="232" y="-7.5" font-family="Helvetica,sans-Serif" font-size="10.00">::ParseFitsCard</text>
</a>
</g>
</g>
<!-- Node1&#45;&gt;Node7 -->
<g id="edge6" class="edge">
<title>Node1&#45;&gt;Node7</title>
<path fill="none" stroke="midnightblue" d="M81.54,-93.33C100.38,-78.08 131.28,-54.71 161,-39.5 164.5,-37.71 168.17,-36 171.91,-34.38"/>
<polygon fill="midnightblue" stroke="midnightblue" points="173.37,-37.57 181.31,-30.55 170.73,-31.09 173.37,-37.57"/>
</g>
<!-- Node3 -->
<g id="node3" class="node">
<title>Node3</title>
<g id="a_node3"><a xlink:href="classcarta_1_1CompressedFits.html#a2c28421b2571b6b00d81c79e426a821e" target="_top" xlink:title=" ">
<polygon fill="none" stroke="black" points="339,-175.5 339,-205.5 483,-205.5 483,-175.5 339,-175.5"/>
<text text-anchor="start" x="347" y="-193.5" font-family="Helvetica,sans-Serif" font-size="10.00">carta::CompressedFits</text>
<text text-anchor="middle" x="411" y="-182.5" font-family="Helvetica,sans-Serif" font-size="10.00">::SetDecompressFilename</text>
</a>
</g>
</g>
<!-- Node2&#45;&gt;Node3 -->
<g id="edge2" class="edge">
<title>Node2&#45;&gt;Node3</title>
<path fill="none" stroke="midnightblue" d="M303.21,-190.5C311.51,-190.5 320.04,-190.5 328.48,-190.5"/>
<polygon fill="midnightblue" stroke="midnightblue" points="328.72,-194 338.72,-190.5 328.72,-187 328.72,-194"/>
</g>
<!-- Node8 -->
<g id="node8" class="node">
<title>Node8</title>
<g id="a_node8"><a xlink:href="String_8cc.html#a2ae58d8319d2fb200c76f1e0e7951a77" target="_top" xlink:title=" ">
<polygon fill="none" stroke="black" points="377.5,-6 377.5,-25 444.5,-25 444.5,-6 377.5,-6"/>
<text text-anchor="middle" x="411" y="-13" font-family="Helvetica,sans-Serif" font-size="10.00">SplitString</text>
</a>
</g>
</g>
<!-- Node7&#45;&gt;Node8 -->
<g id="edge7" class="edge">
<title>Node7&#45;&gt;Node8</title>
<path fill="none" stroke="midnightblue" d="M294.91,-15.5C318.72,-15.5 345.37,-15.5 367.03,-15.5"/>
<polygon fill="midnightblue" stroke="midnightblue" points="367.22,-19 377.22,-15.5 367.22,-12 367.22,-19"/>
</g>
</g>
</svg>
