<?xml version="1.0" encoding="UTF-8" standalone="no"?>
<!DOCTYPE svg PUBLIC "-//W3C//DTD SVG 1.1//EN"
 "http://www.w3.org/Graphics/SVG/1.1/DTD/svg11.dtd">
<!-- Generated by graphviz version 2.43.0 (0)
 -->
<!-- Title: carta::Region::ConvertCartaPointToWorld Pages: 1 -->
<!--zoomable 225 -->
<svg id="main" version="1.1" xmlns="http://www.w3.org/2000/svg" xmlns:xlink="http://www.w3.org/1999/xlink" xml:space="preserve" onload="init(evt)">
<style type="text/css"><![CDATA[
.edge:hover path { stroke: red; }
.edge:hover polygon { stroke: red; fill: red; }
]]></style>
<script type="text/javascript"><![CDATA[
var edges = document.getElementsByTagName('g');
if (edges && edges.length) {
  for (var i=0;i<edges.length;i++) {
    if (edges[i].id.substr(0,4)=='edge') {
      edges[i].setAttribute('class','edge');
    }
  }
}
]]></script>
        <defs>
                <circle id="rim" cx="0" cy="0" r="7"/>
                <circle id="rim2" cx="0" cy="0" r="3.5"/>
                <g id="zoomPlus">
                        <use xlink:href="#rim" fill="#404040">
                                <set attributeName="fill" to="#808080" begin="zoomplus.mouseover" end="zoomplus.mouseout"/>
                        </use>
                        <path d="M-4,0h8M0,-4v8" fill="none" stroke="white" stroke-width="1.5" pointer-events="none"/>
                </g>
                <g id="zoomMin">
                        <use xlink:href="#rim" fill="#404040">
                                <set attributeName="fill" to="#808080" begin="zoomminus.mouseover" end="zoomminus.mouseout"/>
                        </use>
                        <path d="M-4,0h8" fill="none" stroke="white" stroke-width="1.5" pointer-events="none"/>
                </g>
                <g id="dirArrow">
                        <path fill="none" stroke="white" stroke-width="1.5" d="M0,-3.0v7 M-2.5,-0.5L0,-3.0L2.5,-0.5"/>
                </g>
               <g id="resetDef">
                       <use xlink:href="#rim2" fill="#404040">
                               <set attributeName="fill" to="#808080" begin="reset.mouseover" end="reset.mouseout"/>
                       </use>
               </g>
        </defs>

<script type="text/javascript">
var viewWidth = 946;
var viewHeight = 225;
var sectionId = 'dynsection-8';
</script>
<script xlink:href="svgpan.js"/>
<svg id="graph" class="graph">
<g id="viewport">
<title>carta::Region::ConvertCartaPointToWorld</title>
<!-- Node1 -->
<g id="node1" class="node">
<title>Node1</title>
<g id="a_node1"><a xlink:title=" ">
<polygon fill="#bfbfbf" stroke="black" points="786,-93.5 786,-123.5 938,-123.5 938,-93.5 786,-93.5"/>
<text text-anchor="start" x="794" y="-111.5" font-family="Helvetica,sans-Serif" font-size="10.00">carta::Region::ConvertCarta</text>
<text text-anchor="middle" x="862" y="-100.5" font-family="Helvetica,sans-Serif" font-size="10.00">PointToWorld</text>
</a>
</g>
</g>
<!-- Node2 -->
<g id="node2" class="node">
<title>Node2</title>
<g id="a_node2"><a xlink:href="classcarta_1_1Region.html#ad108d4cb9b98967b6fc1011b1a8f6705" target="_top" xlink:title=" ">
<polygon fill="none" stroke="black" points="410,-137.5 410,-167.5 565,-167.5 565,-137.5 410,-137.5"/>
<text text-anchor="start" x="418" y="-155.5" font-family="Helvetica,sans-Serif" font-size="10.00">carta::Region::ConvertPoints</text>
<text text-anchor="middle" x="487.5" y="-144.5" font-family="Helvetica,sans-Serif" font-size="10.00">ToImagePixels</text>
</a>
</g>
</g>
<!-- Node1&#45;&gt;Node2 -->
<g id="edge1" class="edge">
<title>Node1&#45;&gt;Node2</title>
<path fill="none" stroke="midnightblue" d="M792.03,-125.71C778.18,-128.69 763.68,-131.47 750,-133.5 688.2,-142.65 617.5,-147.45 565.21,-149.94"/>
<polygon fill="midnightblue" stroke="midnightblue" points="792.96,-129.08 801.97,-123.51 791.45,-122.25 792.96,-129.08"/>
</g>
<!-- Node8 -->
<g id="node8" class="node">
<title>Node8</title>
<g id="a_node8"><a xlink:href="classcarta_1_1Region.html#a1eeffb075bd57ea317c37a2d99cbeff5" target="_top" xlink:title=" ">
<polygon fill="none" stroke="black" points="601,-93.5 601,-123.5 750,-123.5 750,-93.5 601,-93.5"/>
<text text-anchor="start" x="609" y="-111.5" font-family="Helvetica,sans-Serif" font-size="10.00">carta::Region::EllipsePoints</text>
<text text-anchor="middle" x="675.5" y="-100.5" font-family="Helvetica,sans-Serif" font-size="10.00">ToWorld</text>
</a>
</g>
</g>
<!-- Node1&#45;&gt;Node8 -->
<g id="edge8" class="edge">
<title>Node1&#45;&gt;Node8</title>
<path fill="none" stroke="midnightblue" d="M775.95,-108.5C767.38,-108.5 758.72,-108.5 750.28,-108.5"/>
<polygon fill="midnightblue" stroke="midnightblue" points="775.96,-112 785.96,-108.5 775.96,-105 775.96,-112"/>
</g>
<!-- Node9 -->
<g id="node9" class="node">
<title>Node9</title>
<g id="a_node9"><a xlink:href="classcarta_1_1Region.html#a64e897a14f3153f717c8b8a5a0290764" target="_top" xlink:title=" ">
<polygon fill="none" stroke="black" points="411.5,-49.5 411.5,-79.5 563.5,-79.5 563.5,-49.5 411.5,-49.5"/>
<text text-anchor="start" x="419.5" y="-67.5" font-family="Helvetica,sans-Serif" font-size="10.00">carta::Region::SetReference</text>
<text text-anchor="middle" x="487.5" y="-56.5" font-family="Helvetica,sans-Serif" font-size="10.00">Region</text>
</a>
</g>
</g>
<!-- Node1&#45;&gt;Node9 -->
<g id="edge15" class="edge">
<title>Node1&#45;&gt;Node9</title>
<path fill="none" stroke="midnightblue" d="M792.03,-91.29C778.18,-88.31 763.68,-85.53 750,-83.5 687.52,-74.25 615.95,-69.44 563.5,-66.98"/>
<polygon fill="midnightblue" stroke="midnightblue" points="791.45,-94.75 801.97,-93.49 792.96,-87.92 791.45,-94.75"/>
</g>
<!-- Node3 -->
<g id="node3" class="node">
<title>Node3</title>
<g id="a_node3"><a xlink:href="classcarta_1_1Region.html#ac4d35d2ebd7a1bc9365a5c75b6758d50" target="_top" xlink:title=" ">
<polygon fill="none" stroke="black" points="219,-186.5 219,-216.5 360,-216.5 360,-186.5 219,-186.5"/>
<text text-anchor="start" x="227" y="-204.5" font-family="Helvetica,sans-Serif" font-size="10.00">carta::Region::GetApplied</text>
<text text-anchor="middle" x="289.5" y="-193.5" font-family="Helvetica,sans-Serif" font-size="10.00">PolygonRegion</text>
</a>
</g>
</g>
<!-- Node2&#45;&gt;Node3 -->
<g id="edge2" class="edge">
<title>Node2&#45;&gt;Node3</title>
<path fill="none" stroke="midnightblue" d="M416.59,-169.98C394.99,-175.38 371.4,-181.28 350.52,-186.49"/>
<polygon fill="midnightblue" stroke="midnightblue" points="417.51,-173.36 426.36,-167.53 415.81,-166.56 417.51,-173.36"/>
</g>
<!-- Node5 -->
<g id="node5" class="node">
<title>Node5</title>
<g id="a_node5"><a xlink:href="classcarta_1_1Region.html#af22052c10d0059e65d3ef5a5f9ffa441" target="_top" xlink:title=" ">
<polygon fill="none" stroke="black" points="210.5,-99 210.5,-118 368.5,-118 368.5,-99 210.5,-99"/>
<text text-anchor="middle" x="289.5" y="-106" font-family="Helvetica,sans-Serif" font-size="10.00">carta::Region::GetLineRecord</text>
</a>
</g>
</g>
<!-- Node2&#45;&gt;Node5 -->
<g id="edge4" class="edge">
<title>Node2&#45;&gt;Node5</title>
<path fill="none" stroke="midnightblue" d="M409.7,-135.26C383.56,-129.39 355.31,-123.05 332.87,-118.01"/>
<polygon fill="midnightblue" stroke="midnightblue" points="409.07,-138.71 419.6,-137.48 410.61,-131.88 409.07,-138.71"/>
</g>
<!-- Node7 -->
<g id="node7" class="node">
<title>Node7</title>
<g id="a_node7"><a xlink:href="classcarta_1_1Region.html#a5ce51737dfb759cf79397872ebd67f72" target="_top" xlink:title=" ">
<polygon fill="none" stroke="black" points="205,-137.5 205,-167.5 374,-167.5 374,-137.5 205,-137.5"/>
<text text-anchor="start" x="213" y="-155.5" font-family="Helvetica,sans-Serif" font-size="10.00">carta::Region::UseApproximate</text>
<text text-anchor="middle" x="289.5" y="-144.5" font-family="Helvetica,sans-Serif" font-size="10.00">Polygon</text>
</a>
</g>
</g>
<!-- Node2&#45;&gt;Node7 -->
<g id="edge6" class="edge">
<title>Node2&#45;&gt;Node7</title>
<path fill="none" stroke="midnightblue" d="M399.64,-152.5C391.19,-152.5 382.62,-152.5 374.2,-152.5"/>
<polygon fill="midnightblue" stroke="midnightblue" points="399.88,-156 409.88,-152.5 399.88,-149 399.88,-156"/>
</g>
<!-- Node4 -->
<g id="node4" class="node">
<title>Node4</title>
<g id="a_node4"><a xlink:href="classcarta_1_1Region.html#a9ec0878ba3ff01974517769cbed3b352" target="_top" xlink:title=" ">
<polygon fill="none" stroke="black" points="0,-143 0,-162 169,-162 169,-143 0,-143"/>
<text text-anchor="middle" x="84.5" y="-150" font-family="Helvetica,sans-Serif" font-size="10.00">carta::Region::GetImageRegion</text>
</a>
</g>
</g>
<!-- Node3&#45;&gt;Node4 -->
<g id="edge3" class="edge">
<title>Node3&#45;&gt;Node4</title>
<path fill="none" stroke="midnightblue" d="M216.38,-184.09C185.62,-176.67 150.91,-168.29 124.97,-162.03"/>
<polygon fill="midnightblue" stroke="midnightblue" points="215.67,-187.52 226.21,-186.47 217.31,-180.72 215.67,-187.52"/>
</g>
<!-- Node6 -->
<g id="node6" class="node">
<title>Node6</title>
<g id="a_node6"><a xlink:href="classcarta_1_1Region.html#abb634583b379802b8712f1b7e2312a36" target="_top" xlink:title=" ">
<polygon fill="none" stroke="black" points="0,-49.5 0,-79.5 169,-79.5 169,-49.5 0,-49.5"/>
<text text-anchor="start" x="8" y="-67.5" font-family="Helvetica,sans-Serif" font-size="10.00">carta::Region::GetImageRegion</text>
<text text-anchor="middle" x="84.5" y="-56.5" font-family="Helvetica,sans-Serif" font-size="10.00">Record</text>
</a>
</g>
</g>
<!-- Node5&#45;&gt;Node6 -->
<g id="edge5" class="edge">
<title>Node5&#45;&gt;Node6</title>
<path fill="none" stroke="midnightblue" d="M234.65,-96.83C210.23,-91.54 181.05,-85.21 155.01,-79.57"/>
<polygon fill="midnightblue" stroke="midnightblue" points="233.94,-100.25 244.45,-98.95 235.42,-93.41 233.94,-100.25"/>
</g>
<!-- Node7&#45;&gt;Node4 -->
<g id="edge7" class="edge">
<title>Node7&#45;&gt;Node4</title>
<path fill="none" stroke="midnightblue" d="M194.74,-152.5C186.17,-152.5 177.52,-152.5 169.05,-152.5"/>
<polygon fill="midnightblue" stroke="midnightblue" points="194.76,-156 204.76,-152.5 194.76,-149 194.76,-156"/>
</g>
<!-- Node8&#45;&gt;Node9 -->
<g id="edge9" class="edge">
<title>Node8&#45;&gt;Node9</title>
<path fill="none" stroke="midnightblue" d="M601.04,-91.12C584.83,-87.29 567.8,-83.26 552.02,-79.53"/>
<polygon fill="midnightblue" stroke="midnightblue" points="600.47,-94.58 611.01,-93.48 602.08,-87.77 600.47,-94.58"/>
</g>
<!-- Node10 -->
<g id="node10" class="node">
<title>Node10</title>
<g id="a_node10"><a xlink:href="classcarta_1_1Region.html#adbd31c126ba3250aaab8f07e904836f1" target="_top" xlink:title=" ">
<polygon fill="none" stroke="black" points="212,-49.5 212,-79.5 367,-79.5 367,-49.5 212,-49.5"/>
<text text-anchor="start" x="220" y="-67.5" font-family="Helvetica,sans-Serif" font-size="10.00">carta::Region::GetConverted</text>
<text text-anchor="middle" x="289.5" y="-56.5" font-family="Helvetica,sans-Serif" font-size="10.00">LCRegion</text>
</a>
</g>
</g>
<!-- Node9&#45;&gt;Node10 -->
<g id="edge10" class="edge">
<title>Node9&#45;&gt;Node10</title>
<path fill="none" stroke="midnightblue" d="M401.01,-64.5C389.74,-64.5 378.25,-64.5 367.14,-64.5"/>
<polygon fill="midnightblue" stroke="midnightblue" points="401.28,-68 411.28,-64.5 401.28,-61 401.28,-68"/>
</g>
<!-- Node11 -->
<g id="node11" class="node">
<title>Node11</title>
<g id="a_node11"><a xlink:href="classcarta_1_1Region.html#a1a2fb79566c14c07764aaf101398ac42" target="_top" xlink:title=" ">
<polygon fill="none" stroke="black" points="220.5,-0.5 220.5,-30.5 358.5,-30.5 358.5,-0.5 220.5,-0.5"/>
<text text-anchor="start" x="228.5" y="-18.5" font-family="Helvetica,sans-Serif" font-size="10.00">carta::Region::GetRegion</text>
<text text-anchor="middle" x="289.5" y="-7.5" font-family="Helvetica,sans-Serif" font-size="10.00">PointsRecord</text>
</a>
</g>
</g>
<!-- Node9&#45;&gt;Node11 -->
<g id="edge13" class="edge">
<title>Node9&#45;&gt;Node11</title>
<path fill="none" stroke="midnightblue" d="M416.59,-47.02C394.99,-41.62 371.4,-35.72 350.52,-30.51"/>
<polygon fill="midnightblue" stroke="midnightblue" points="415.81,-50.44 426.36,-49.47 417.51,-43.64 415.81,-50.44"/>
</g>
<!-- Node10&#45;&gt;Node4 -->
<g id="edge11" class="edge">
<title>Node10&#45;&gt;Node4</title>
<path fill="none" stroke="midnightblue" d="M223.05,-82.76C216.89,-84.88 210.79,-87.13 205,-89.5 166.36,-105.3 123.68,-129.58 101.26,-142.92"/>
<polygon fill="midnightblue" stroke="midnightblue" points="224.34,-86.02 232.73,-79.55 222.14,-79.38 224.34,-86.02"/>
</g>
<!-- Node10&#45;&gt;Node6 -->
<g id="edge12" class="edge">
<title>Node10&#45;&gt;Node6</title>
<path fill="none" stroke="midnightblue" d="M201.54,-64.5C190.8,-64.5 179.83,-64.5 169.14,-64.5"/>
<polygon fill="midnightblue" stroke="midnightblue" points="201.75,-68 211.75,-64.5 201.75,-61 201.75,-68"/>
</g>
<!-- Node11&#45;&gt;Node6 -->
<g id="edge14" class="edge">
<title>Node11&#45;&gt;Node6</title>
<path fill="none" stroke="midnightblue" d="M216.4,-32.9C193.94,-38.32 169.38,-44.25 147.67,-49.49"/>
<polygon fill="midnightblue" stroke="midnightblue" points="217.31,-36.28 226.21,-30.53 215.67,-29.48 217.31,-36.28"/>
</g>
</g>
</svg>
        <g id="navigator" transform="translate(0 0)" fill="#404254">
                <rect fill="#f2f5e9" fill-opacity="0.5" stroke="#606060" stroke-width=".5" x="0" y="0" width="60" height="60"/>
                <use id="zoomplus" xlink:href="#zoomPlus" x="17" y="9" onmousedown="handleZoom(evt,'in')"/>
                <use id="zoomminus" xlink:href="#zoomMin" x="42" y="9" onmousedown="handleZoom(evt,'out')"/>
                <use id="reset" xlink:href="#resetDef" x="30" y="36" onmousedown="handleReset()"/>
                <g id="arrowUp" xlink:href="#dirArrow" transform="translate(30 24)" onmousedown="handlePan(0,-1)">
                  <use xlink:href="#rim" fill="#404040">
                        <set attributeName="fill" to="#808080" begin="arrowUp.mouseover" end="arrowUp.mouseout"/>
                  </use>
                  <path fill="none" stroke="white" stroke-width="1.5" d="M0,-3.0v7 M-2.5,-0.5L0,-3.0L2.5,-0.5"/>
                </g>
                <g id="arrowRight" xlink:href="#dirArrow" transform="rotate(90) translate(36 -43)" onmousedown="handlePan(1,0)">
                  <use xlink:href="#rim" fill="#404040">
                        <set attributeName="fill" to="#808080" begin="arrowRight.mouseover" end="arrowRight.mouseout"/>
                  </use>
                  <path fill="none" stroke="white" stroke-width="1.5" d="M0,-3.0v7 M-2.5,-0.5L0,-3.0L2.5,-0.5"/>
                </g>
                <g id="arrowDown" xlink:href="#dirArrow" transform="rotate(180) translate(-30 -48)" onmousedown="handlePan(0,1)">
                  <use xlink:href="#rim" fill="#404040">
                        <set attributeName="fill" to="#808080" begin="arrowDown.mouseover" end="arrowDown.mouseout"/>
                  </use>
                  <path fill="none" stroke="white" stroke-width="1.5" d="M0,-3.0v7 M-2.5,-0.5L0,-3.0L2.5,-0.5"/>
                </g>
                <g id="arrowLeft" xlink:href="#dirArrow" transform="rotate(270) translate(-36 17)" onmousedown="handlePan(-1,0)">
                  <use xlink:href="#rim" fill="#404040">
                        <set attributeName="fill" to="#808080" begin="arrowLeft.mouseover" end="arrowLeft.mouseout"/>
                  </use>
                  <path fill="none" stroke="white" stroke-width="1.5" d="M0,-3.0v7 M-2.5,-0.5L0,-3.0L2.5,-0.5"/>
                </g>
        </g>
        <svg viewBox="0 0 15 15" width="100%" height="30px" preserveAspectRatio="xMaxYMin meet">
         <g id="arrow_out" transform="scale(0.3 0.3)">
          <a xlink:href="classcarta_1_1Region_a0dd77dcd58e6a5d7b71f3be8c357943c_icgraph_org.svg" target="_base">
           <rect id="button" ry="5" rx="5" y="6" x="6" height="38" width="38"
                fill="#f2f5e9" fill-opacity="0.5" stroke="#606060" stroke-width="1.0"/>
           <path id="arrow"
             d="M 11.500037,31.436501 C 11.940474,20.09759 22.043105,11.32322 32.158766,21.979434 L 37.068811,17.246167 C 37.068811,17.246167 37.088388,32 37.088388,32 L 22.160133,31.978069 C 22.160133,31.978069 26.997745,27.140456 26.997745,27.140456 C 18.528582,18.264221 13.291696,25.230495 11.500037,31.436501 z"
             style="fill:#404040;"/>
          </a>
         </g>
        </svg>
</svg>
