<?xml version="1.0" encoding="UTF-8" standalone="no"?>
<!DOCTYPE svg PUBLIC "-//W3C//DTD SVG 1.1//EN"
 "http://www.w3.org/Graphics/SVG/1.1/DTD/svg11.dtd">
<!-- Generated by graphviz version 2.43.0 (0)
 -->
<!-- Title: carta::Session::FillExtendedFileInfo Pages: 1 -->
<svg width="1159pt" height="1115pt"
 viewBox="0.00 0.00 1159.00 1115.00" xmlns="http://www.w3.org/2000/svg" xmlns:xlink="http://www.w3.org/1999/xlink">
<g id="graph0" class="graph" transform="scale(1 1) rotate(0) translate(4 1111)">
<title>carta::Session::FillExtendedFileInfo</title>
<!-- Node1 -->
<g id="node1" class="node">
<title>Node1</title>
<g id="a_node1"><a xlink:title=" ">
<polygon fill="#bfbfbf" stroke="black" points="0,-395.5 0,-425.5 151,-425.5 151,-395.5 0,-395.5"/>
<text text-anchor="start" x="8" y="-413.5" font-family="Helvetica,sans-Serif" font-size="10.00">carta::Session::FillExtended</text>
<text text-anchor="middle" x="75.5" y="-402.5" font-family="Helvetica,sans-Serif" font-size="10.00">FileInfo</text>
</a>
</g>
</g>
<!-- Node2 -->
<g id="node2" class="node">
<title>Node2</title>
<g id="a_node2"><a xlink:href="classcarta_1_1FileExtInfoLoader.html#a30fc220f3dc42e8828e92d1fdb314c6c" target="_top" xlink:title=" ">
<polygon fill="none" stroke="black" points="201,-668.5 201,-698.5 333,-698.5 333,-668.5 201,-668.5"/>
<text text-anchor="start" x="209" y="-686.5" font-family="Helvetica,sans-Serif" font-size="10.00">carta::FileExtInfoLoader</text>
<text text-anchor="middle" x="267" y="-675.5" font-family="Helvetica,sans-Serif" font-size="10.00">::FillFileExtInfo</text>
</a>
</g>
</g>
<!-- Node1&#45;&gt;Node2 -->
<g id="edge1" class="edge">
<title>Node1&#45;&gt;Node2</title>
<path fill="none" stroke="midnightblue" d="M86.96,-425.57C118.34,-470.78 211.88,-605.53 249.78,-660.14"/>
<polygon fill="midnightblue" stroke="midnightblue" points="247,-662.26 255.57,-668.48 252.75,-658.27 247,-662.26"/>
</g>
<!-- Node37 -->
<g id="node23" class="node">
<title>Node37</title>
<g id="a_node23"><a xlink:href="classcarta_1_1Session.html#a6c490d8acff0517270d57a70a6956dc6" target="_top" xlink:title=" ">
<polygon fill="none" stroke="black" points="196.5,-538 196.5,-557 337.5,-557 337.5,-538 196.5,-538"/>
<text text-anchor="middle" x="267" y="-545" font-family="Helvetica,sans-Serif" font-size="10.00">carta::Session::FillFileInfo</text>
</a>
</g>
</g>
<!-- Node1&#45;&gt;Node37 -->
<g id="edge28" class="edge">
<title>Node1&#45;&gt;Node37</title>
<path fill="none" stroke="midnightblue" d="M97.5,-425.68C133.75,-451.89 207.67,-505.33 244.36,-531.85"/>
<polygon fill="midnightblue" stroke="midnightblue" points="242.68,-534.96 252.83,-537.98 246.78,-529.29 242.68,-534.96"/>
</g>
<!-- Node41 -->
<g id="node27" class="node">
<title>Node41</title>
<g id="a_node27"><a xlink:href="classcarta_1_1LoaderCache.html#a341be9f1278d337b6e7a0a347de474c1" target="_top" xlink:title=" ">
<polygon fill="none" stroke="black" points="200,-445 200,-464 334,-464 334,-445 200,-445"/>
<text text-anchor="middle" x="267" y="-452" font-family="Helvetica,sans-Serif" font-size="10.00">carta::LoaderCache::Get</text>
</a>
</g>
</g>
<!-- Node1&#45;&gt;Node41 -->
<g id="edge32" class="edge">
<title>Node1&#45;&gt;Node41</title>
<path fill="none" stroke="midnightblue" d="M141.19,-425.52C165.38,-431.14 192.48,-437.43 215.24,-442.71"/>
<polygon fill="midnightblue" stroke="midnightblue" points="214.5,-446.14 225.03,-444.99 216.08,-439.32 214.5,-446.14"/>
</g>
<!-- Node45 -->
<g id="node31" class="node">
<title>Node45</title>
<g id="a_node31"><a xlink:href="File_8cc.html#a75f8a4cb14c9fca8730255b6fee82794" target="_top" xlink:title=" ">
<polygon fill="none" stroke="black" points="597,-401 597,-420 700,-420 700,-401 597,-401"/>
<text text-anchor="middle" x="648.5" y="-408" font-family="Helvetica,sans-Serif" font-size="10.00">IsCompressedFits</text>
</a>
</g>
</g>
<!-- Node1&#45;&gt;Node45 -->
<g id="edge51" class="edge">
<title>Node1&#45;&gt;Node45</title>
<path fill="none" stroke="midnightblue" d="M151.15,-410.5C265.39,-410.5 481.41,-410.5 586.71,-410.5"/>
<polygon fill="midnightblue" stroke="midnightblue" points="586.86,-414 596.85,-410.5 586.85,-407 586.86,-414"/>
</g>
<!-- Node50 -->
<g id="node36" class="node">
<title>Node50</title>
<g id="a_node36"><a xlink:href="classcarta_1_1CompressedFits.html#a265e6e3df28f138336939ae3f4c09e2a" target="_top" xlink:title=" ">
<polygon fill="none" stroke="black" points="204.5,-225.5 204.5,-255.5 329.5,-255.5 329.5,-225.5 204.5,-225.5"/>
<text text-anchor="start" x="212.5" y="-243.5" font-family="Helvetica,sans-Serif" font-size="10.00">carta::CompressedFits</text>
<text text-anchor="middle" x="267" y="-232.5" font-family="Helvetica,sans-Serif" font-size="10.00">::GetFirstImageHdu</text>
</a>
</g>
</g>
<!-- Node1&#45;&gt;Node50 -->
<g id="edge41" class="edge">
<title>Node1&#45;&gt;Node50</title>
<path fill="none" stroke="midnightblue" d="M93.32,-395.41C126.89,-365.3 202.35,-297.6 241.46,-262.52"/>
<polygon fill="midnightblue" stroke="midnightblue" points="244.11,-264.84 249.22,-255.55 239.44,-259.62 244.11,-264.84"/>
</g>
<!-- Node58 -->
<g id="node43" class="node">
<title>Node58</title>
<g id="a_node43"><a xlink:href="classcarta_1_1FitsHduList.html#aae758ae3882416bb039c090209fcf5ad" target="_top" xlink:title=" ">
<polygon fill="none" stroke="black" points="216.5,-351.5 216.5,-381.5 317.5,-381.5 317.5,-351.5 216.5,-351.5"/>
<text text-anchor="start" x="224.5" y="-369.5" font-family="Helvetica,sans-Serif" font-size="10.00">carta::FitsHduList</text>
<text text-anchor="middle" x="267" y="-358.5" font-family="Helvetica,sans-Serif" font-size="10.00">::GetHduList</text>
</a>
</g>
</g>
<!-- Node1&#45;&gt;Node58 -->
<g id="edge48" class="edge">
<title>Node1&#45;&gt;Node58</title>
<path fill="none" stroke="midnightblue" d="M141.19,-395.48C162.29,-390.58 185.61,-385.17 206.32,-380.36"/>
<polygon fill="midnightblue" stroke="midnightblue" points="207.31,-383.72 216.26,-378.05 205.73,-376.9 207.31,-383.72"/>
</g>
<!-- Node60 -->
<g id="node45" class="node">
<title>Node60</title>
<g id="a_node45"><a xlink:href="classcarta_1_1Session.html#a9614e33dea4622ec90432fa7aad7a451" target="_top" xlink:title=" ">
<polygon fill="none" stroke="black" points="187,-98 187,-117 347,-117 347,-98 187,-98"/>
<text text-anchor="middle" x="267" y="-105" font-family="Helvetica,sans-Serif" font-size="10.00">carta::Session::SendLogEvent</text>
</a>
</g>
</g>
<!-- Node1&#45;&gt;Node60 -->
<g id="edge52" class="edge">
<title>Node1&#45;&gt;Node60</title>
<path fill="none" stroke="midnightblue" d="M84.41,-395.32C101.84,-362.19 145.32,-281.17 187,-216.5 208.38,-183.32 235.93,-146.49 252.21,-125.25"/>
<polygon fill="midnightblue" stroke="midnightblue" points="255.11,-127.22 258.44,-117.17 249.56,-122.95 255.11,-127.22"/>
</g>
<!-- Node3 -->
<g id="node3" class="node">
<title>Node3</title>
<g id="a_node3"><a xlink:href="classcarta_1_1FileExtInfoLoader.html#a2b908c0f74ba5614a0602bfec4bf3aae" target="_top" xlink:title=" ">
<polygon fill="none" stroke="black" points="388.5,-816.5 388.5,-846.5 520.5,-846.5 520.5,-816.5 388.5,-816.5"/>
<text text-anchor="start" x="396.5" y="-834.5" font-family="Helvetica,sans-Serif" font-size="10.00">carta::FileExtInfoLoader</text>
<text text-anchor="middle" x="454.5" y="-823.5" font-family="Helvetica,sans-Serif" font-size="10.00">::FillFileInfoFromImage</text>
</a>
</g>
</g>
<!-- Node2&#45;&gt;Node3 -->
<g id="edge2" class="edge">
<title>Node2&#45;&gt;Node3</title>
<path fill="none" stroke="midnightblue" d="M286.81,-698.51C319.86,-724.88 388.47,-779.62 426.55,-810"/>
<polygon fill="midnightblue" stroke="midnightblue" points="424.64,-812.95 434.64,-816.45 429.01,-807.48 424.64,-812.95"/>
</g>
<!-- Node4 -->
<g id="node4" class="node">
<title>Node4</title>
<g id="a_node4"><a xlink:href="classcarta_1_1FileExtInfoLoader.html#affaa06fa3899ed316c5afff483869fd7" target="_top" xlink:title=" ">
<polygon fill="none" stroke="black" points="582.5,-841.5 582.5,-871.5 714.5,-871.5 714.5,-841.5 582.5,-841.5"/>
<text text-anchor="start" x="590.5" y="-859.5" font-family="Helvetica,sans-Serif" font-size="10.00">carta::FileExtInfoLoader</text>
<text text-anchor="middle" x="648.5" y="-848.5" font-family="Helvetica,sans-Serif" font-size="10.00">::AddComputedEntries</text>
</a>
</g>
</g>
<!-- Node3&#45;&gt;Node4 -->
<g id="edge3" class="edge">
<title>Node3&#45;&gt;Node4</title>
<path fill="none" stroke="midnightblue" d="M520.5,-839.96C537.14,-842.13 555.18,-844.48 572.29,-846.71"/>
<polygon fill="midnightblue" stroke="midnightblue" points="571.87,-850.18 582.24,-848 572.77,-843.24 571.87,-850.18"/>
</g>
<!-- Node18 -->
<g id="node12" class="node">
<title>Node18</title>
<g id="a_node12"><a xlink:href="classcarta_1_1FileExtInfoLoader.html#a1e5d73b90a01fb2eac64c9e186c99348" target="_top" xlink:title=" ">
<polygon fill="none" stroke="black" points="582.5,-743.5 582.5,-773.5 714.5,-773.5 714.5,-743.5 582.5,-743.5"/>
<text text-anchor="start" x="590.5" y="-761.5" font-family="Helvetica,sans-Serif" font-size="10.00">carta::FileExtInfoLoader</text>
<text text-anchor="middle" x="648.5" y="-750.5" font-family="Helvetica,sans-Serif" font-size="10.00">::AddDataTypeEntry</text>
</a>
</g>
</g>
<!-- Node3&#45;&gt;Node18 -->
<g id="edge16" class="edge">
<title>Node3&#45;&gt;Node18</title>
<path fill="none" stroke="midnightblue" d="M485.79,-816.49C506.85,-806.39 535.75,-793.2 562,-783.5 568.43,-781.12 575.2,-778.82 582,-776.63"/>
<polygon fill="midnightblue" stroke="midnightblue" points="583.44,-779.85 591.94,-773.53 581.35,-773.17 583.44,-779.85"/>
</g>
<!-- Node19 -->
<g id="node13" class="node">
<title>Node19</title>
<g id="a_node13"><a xlink:href="classcarta_1_1FileExtInfoLoader.html#a9a7099a65e803d42d6da0619f83bfd7c" target="_top" xlink:title=" ">
<polygon fill="none" stroke="black" points="564,-792.5 564,-822.5 733,-822.5 733,-792.5 564,-792.5"/>
<text text-anchor="start" x="572" y="-810.5" font-family="Helvetica,sans-Serif" font-size="10.00">carta::FileExtInfoLoader</text>
<text text-anchor="middle" x="648.5" y="-799.5" font-family="Helvetica,sans-Serif" font-size="10.00">::AddEntriesFromHeaderStrings</text>
</a>
</g>
</g>
<!-- Node3&#45;&gt;Node19 -->
<g id="edge17" class="edge">
<title>Node3&#45;&gt;Node19</title>
<path fill="none" stroke="midnightblue" d="M520.5,-823.37C531.16,-822.04 542.4,-820.64 553.59,-819.24"/>
<polygon fill="midnightblue" stroke="midnightblue" points="554.36,-822.67 563.84,-817.96 553.49,-815.72 554.36,-822.67"/>
</g>
<!-- Node21 -->
<g id="node15" class="node">
<title>Node21</title>
<g id="a_node15"><a xlink:href="classcarta_1_1FileExtInfoLoader.html#ae0eb44133b06ce14972f8b0b94ca7eee" target="_top" xlink:title=" ">
<polygon fill="none" stroke="black" points="582.5,-694.5 582.5,-724.5 714.5,-724.5 714.5,-694.5 582.5,-694.5"/>
<text text-anchor="start" x="590.5" y="-712.5" font-family="Helvetica,sans-Serif" font-size="10.00">carta::FileExtInfoLoader</text>
<text text-anchor="middle" x="648.5" y="-701.5" font-family="Helvetica,sans-Serif" font-size="10.00">::AddShapeEntries</text>
</a>
</g>
</g>
<!-- Node3&#45;&gt;Node21 -->
<g id="edge20" class="edge">
<title>Node3&#45;&gt;Node21</title>
<path fill="none" stroke="midnightblue" d="M468.01,-816.4C486.45,-795.11 522.97,-756.42 562,-734.5 565.9,-732.31 570.01,-730.3 574.23,-728.45"/>
<polygon fill="midnightblue" stroke="midnightblue" points="575.65,-731.65 583.61,-724.66 573.03,-725.16 575.65,-731.65"/>
</g>
<!-- Node22 -->
<g id="node16" class="node">
<title>Node22</title>
<g id="a_node16"><a xlink:href="classcarta_1_1CartaFitsImage.html#a4633816d0ab77523c236fb1afae746e8" target="_top" xlink:title=" ">
<polygon fill="none" stroke="red" points="587.5,-645.5 587.5,-675.5 709.5,-675.5 709.5,-645.5 587.5,-645.5"/>
<text text-anchor="start" x="595.5" y="-663.5" font-family="Helvetica,sans-Serif" font-size="10.00">carta::CartaFitsImage</text>
<text text-anchor="middle" x="648.5" y="-652.5" font-family="Helvetica,sans-Serif" font-size="10.00">::dataType</text>
</a>
</g>
</g>
<!-- Node3&#45;&gt;Node22 -->
<g id="edge21" class="edge">
<title>Node3&#45;&gt;Node22</title>
<path fill="none" stroke="midnightblue" d="M462.45,-816.11C476.72,-786.3 512.2,-720.49 562,-685.5 566.86,-682.08 572.19,-679.13 577.74,-676.57"/>
<polygon fill="midnightblue" stroke="midnightblue" points="579.34,-679.7 587.24,-672.64 576.66,-673.23 579.34,-679.7"/>
</g>
<!-- Node24 -->
<g id="node17" class="node">
<title>Node24</title>
<g id="a_node17"><a xlink:href="classcarta_1_1FileExtInfoLoader.html#a3f73d0fb1820aaf9b2eda5fa8af4465f" target="_top" xlink:title=" ">
<polygon fill="none" stroke="black" points="562,-596.5 562,-626.5 735,-626.5 735,-596.5 562,-596.5"/>
<text text-anchor="start" x="570" y="-614.5" font-family="Helvetica,sans-Serif" font-size="10.00">carta::FileExtInfoLoader</text>
<text text-anchor="middle" x="648.5" y="-603.5" font-family="Helvetica,sans-Serif" font-size="10.00">::FitsHeaderInfoToHeaderEntries</text>
</a>
</g>
</g>
<!-- Node3&#45;&gt;Node24 -->
<g id="edge22" class="edge">
<title>Node3&#45;&gt;Node24</title>
<path fill="none" stroke="midnightblue" d="M459.38,-816.47C469.62,-779.91 500.85,-685.72 562,-636.5 564.26,-634.68 566.65,-633 569.13,-631.43"/>
<polygon fill="midnightblue" stroke="midnightblue" points="570.85,-634.48 577.9,-626.58 567.46,-628.36 570.85,-634.48"/>
</g>
<!-- Node25 -->
<g id="node18" class="node">
<title>Node25</title>
<g id="a_node18"><a xlink:href="classcarta_1_1CartaFitsImage.html#afaac20c0c6137f4492de3b54dec402e2" target="_top" xlink:title=" ">
<polygon fill="none" stroke="red" points="587.5,-1076.5 587.5,-1106.5 709.5,-1106.5 709.5,-1076.5 587.5,-1076.5"/>
<text text-anchor="start" x="595.5" y="-1094.5" font-family="Helvetica,sans-Serif" font-size="10.00">carta::CartaFitsImage</text>
<text text-anchor="middle" x="648.5" y="-1083.5" font-family="Helvetica,sans-Serif" font-size="10.00">::FitsHeaderStrings</text>
</a>
</g>
</g>
<!-- Node3&#45;&gt;Node25 -->
<g id="edge23" class="edge">
<title>Node3&#45;&gt;Node25</title>
<path fill="none" stroke="midnightblue" d="M457.8,-846.55C464.99,-888.28 490.94,-1006.39 562,-1067.5 566.76,-1071.59 572.16,-1074.99 577.89,-1077.81"/>
<polygon fill="midnightblue" stroke="midnightblue" points="576.53,-1081.03 587.1,-1081.78 579.3,-1074.61 576.53,-1081.03"/>
</g>
<!-- Node31 -->
<g id="node19" class="node">
<title>Node31</title>
<g id="a_node19"><a xlink:href="classcarta_1_1CartaHdf5Image.html#a4da383c4556276436d01463c8e977d2c" target="_top" xlink:title=" ">
<polygon fill="none" stroke="black" points="584.5,-1027.5 584.5,-1057.5 712.5,-1057.5 712.5,-1027.5 584.5,-1027.5"/>
<text text-anchor="start" x="592.5" y="-1045.5" font-family="Helvetica,sans-Serif" font-size="10.00">carta::CartaHdf5Image</text>
<text text-anchor="middle" x="648.5" y="-1034.5" font-family="Helvetica,sans-Serif" font-size="10.00">::FitsHeaderStrings</text>
</a>
</g>
</g>
<!-- Node3&#45;&gt;Node31 -->
<g id="edge24" class="edge">
<title>Node3&#45;&gt;Node31</title>
<path fill="none" stroke="midnightblue" d="M459.78,-846.75C470.6,-882.46 502.54,-972.03 562,-1018.5 565.89,-1021.54 570.16,-1024.2 574.63,-1026.52"/>
<polygon fill="midnightblue" stroke="midnightblue" points="573.51,-1029.86 584.06,-1030.83 576.42,-1023.49 573.51,-1029.86"/>
</g>
<!-- Node32 -->
<g id="node20" class="node">
<title>Node32</title>
<g id="a_node20"><a xlink:href="classcarta_1_1FileExtInfoLoader.html#a7cb64132f92a7f2c68bdcdae4a25491d" target="_top" xlink:title=" ">
<polygon fill="none" stroke="black" points="582.5,-978.5 582.5,-1008.5 714.5,-1008.5 714.5,-978.5 582.5,-978.5"/>
<text text-anchor="start" x="590.5" y="-996.5" font-family="Helvetica,sans-Serif" font-size="10.00">carta::FileExtInfoLoader</text>
<text text-anchor="middle" x="648.5" y="-985.5" font-family="Helvetica,sans-Serif" font-size="10.00">::FitsHeaderStrings</text>
</a>
</g>
</g>
<!-- Node3&#45;&gt;Node32 -->
<g id="edge25" class="edge">
<title>Node3&#45;&gt;Node32</title>
<path fill="none" stroke="midnightblue" d="M463.17,-846.81C478.18,-875.17 514.17,-935.97 562,-968.5 565.52,-970.9 569.28,-973.07 573.18,-975.03"/>
<polygon fill="midnightblue" stroke="midnightblue" points="571.94,-978.31 582.49,-979.26 574.83,-971.94 571.94,-978.31"/>
</g>
<!-- Node33 -->
<g id="node21" class="node">
<title>Node33</title>
<g id="a_node21"><a xlink:href="namespacecarta_1_1FileInfo.html#a9d39a2471bd27de0ee08bc5d6d3af17e" target="_top" xlink:title=" ">
<polygon fill="none" stroke="black" points="577,-940 577,-959 720,-959 720,-940 577,-940"/>
<text text-anchor="middle" x="648.5" y="-947" font-family="Helvetica,sans-Serif" font-size="10.00">carta::FileInfo::GetFitsHdu</text>
</a>
</g>
</g>
<!-- Node3&#45;&gt;Node33 -->
<g id="edge26" class="edge">
<title>Node3&#45;&gt;Node33</title>
<path fill="none" stroke="midnightblue" d="M467.15,-846.54C485.06,-868.56 521.55,-909.25 562,-930.5 566.51,-932.87 571.31,-934.95 576.24,-936.76"/>
<polygon fill="midnightblue" stroke="midnightblue" points="575.24,-940.12 585.84,-939.95 577.45,-933.48 575.24,-940.12"/>
</g>
<!-- Node34 -->
<g id="node22" class="node">
<title>Node34</title>
<g id="a_node22"><a xlink:href="classcarta_1_1FileExtInfoLoader.html#ac86bdc3adc7d180ed0f3a98ebb95f412" target="_top" xlink:title=" ">
<polygon fill="none" stroke="red" points="582.5,-890.5 582.5,-920.5 714.5,-920.5 714.5,-890.5 582.5,-890.5"/>
<text text-anchor="start" x="590.5" y="-908.5" font-family="Helvetica,sans-Serif" font-size="10.00">carta::FileExtInfoLoader</text>
<text text-anchor="middle" x="648.5" y="-897.5" font-family="Helvetica,sans-Serif" font-size="10.00">::GetFITSHeader</text>
</a>
</g>
</g>
<!-- Node3&#45;&gt;Node34 -->
<g id="edge27" class="edge">
<title>Node3&#45;&gt;Node34</title>
<path fill="none" stroke="midnightblue" d="M484.33,-846.62C505.44,-857.31 535.01,-871.45 562,-881.5 567.46,-883.53 573.17,-885.49 578.94,-887.35"/>
<polygon fill="midnightblue" stroke="midnightblue" points="578.09,-890.74 588.68,-890.37 580.17,-884.06 578.09,-890.74"/>
</g>
<!-- Node5 -->
<g id="node5" class="node">
<title>Node5</title>
<g id="a_node5"><a xlink:href="classcarta_1_1FileExtInfoLoader.html#a52df8914847de227ba7be055b5c24d21" target="_top" xlink:title=" ">
<polygon fill="none" stroke="black" points="1008.5,-883.5 1008.5,-913.5 1140.5,-913.5 1140.5,-883.5 1008.5,-883.5"/>
<text text-anchor="start" x="1016.5" y="-901.5" font-family="Helvetica,sans-Serif" font-size="10.00">carta::FileExtInfoLoader</text>
<text text-anchor="middle" x="1074.5" y="-890.5" font-family="Helvetica,sans-Serif" font-size="10.00">::AddBeamEntry</text>
</a>
</g>
</g>
<!-- Node4&#45;&gt;Node5 -->
<g id="edge4" class="edge">
<title>Node4&#45;&gt;Node5</title>
<path fill="none" stroke="midnightblue" d="M708.64,-871.57C717.62,-874.49 726.66,-877.81 735,-881.5 752.15,-889.09 752.95,-898.42 771,-903.5 846.2,-924.66 936.11,-919.54 998.27,-911.54"/>
<polygon fill="midnightblue" stroke="midnightblue" points="998.94,-914.99 1008.39,-910.19 998.01,-908.05 998.94,-914.99"/>
</g>
<!-- Node6 -->
<g id="node6" class="node">
<title>Node6</title>
<g id="a_node6"><a xlink:href="classcarta_1_1FileExtInfoLoader.html#aef51db70dd4f72d6f222e833a5c68b58" target="_top" xlink:title=" ">
<polygon fill="none" stroke="red" points="771,-863.5 771,-893.5 962,-893.5 962,-863.5 771,-863.5"/>
<text text-anchor="start" x="779" y="-881.5" font-family="Helvetica,sans-Serif" font-size="10.00">carta::FileExtInfoLoader</text>
<text text-anchor="middle" x="866.5" y="-870.5" font-family="Helvetica,sans-Serif" font-size="10.00">::AddComputedEntriesFromHeaders</text>
</a>
</g>
</g>
<!-- Node4&#45;&gt;Node6 -->
<g id="edge5" class="edge">
<title>Node4&#45;&gt;Node6</title>
<path fill="none" stroke="midnightblue" d="M714.6,-863.13C729.07,-864.6 744.77,-866.2 760.38,-867.79"/>
<polygon fill="midnightblue" stroke="midnightblue" points="760.31,-871.3 770.62,-868.84 761.02,-864.34 760.31,-871.3"/>
</g>
<!-- Node7 -->
<g id="node7" class="node">
<title>Node7</title>
<g id="a_node7"><a xlink:href="classcarta_1_1FileExtInfoLoader.html#a02cd16701178cf515aca3f5623537611" target="_top" xlink:title=" ">
<polygon fill="none" stroke="black" points="1008.5,-833.5 1008.5,-863.5 1140.5,-863.5 1140.5,-833.5 1008.5,-833.5"/>
<text text-anchor="start" x="1016.5" y="-851.5" font-family="Helvetica,sans-Serif" font-size="10.00">carta::FileExtInfoLoader</text>
<text text-anchor="middle" x="1074.5" y="-840.5" font-family="Helvetica,sans-Serif" font-size="10.00">::AddCoordRanges</text>
</a>
</g>
</g>
<!-- Node4&#45;&gt;Node7 -->
<g id="edge12" class="edge">
<title>Node4&#45;&gt;Node7</title>
<path fill="none" stroke="midnightblue" d="M714.82,-855.27C791.34,-853.82 917.87,-851.44 998.38,-849.92"/>
<polygon fill="midnightblue" stroke="midnightblue" points="998.52,-853.42 1008.45,-849.73 998.39,-846.42 998.52,-853.42"/>
</g>
<!-- Node8 -->
<g id="node8" class="node">
<title>Node8</title>
<g id="a_node8"><a xlink:href="classcarta_1_1FileExtInfoLoader.html#adb3998e3b3756d1ee8a2bb91f445c4d7" target="_top" xlink:title=" ">
<polygon fill="none" stroke="black" points="1008.5,-781.5 1008.5,-811.5 1140.5,-811.5 1140.5,-781.5 1008.5,-781.5"/>
<text text-anchor="start" x="1016.5" y="-799.5" font-family="Helvetica,sans-Serif" font-size="10.00">carta::FileExtInfoLoader</text>
<text text-anchor="middle" x="1074.5" y="-788.5" font-family="Helvetica,sans-Serif" font-size="10.00">::ConvertCoordsToDeg</text>
</a>
</g>
</g>
<!-- Node4&#45;&gt;Node8 -->
<g id="edge13" class="edge">
<title>Node4&#45;&gt;Node8</title>
<path fill="none" stroke="midnightblue" d="M714.82,-847.26C791.34,-836.43 917.87,-818.52 998.38,-807.13"/>
<polygon fill="midnightblue" stroke="midnightblue" points="999.04,-810.57 1008.45,-805.7 998.06,-803.64 999.04,-810.57"/>
</g>
<!-- Node9 -->
<g id="node9" class="node">
<title>Node9</title>
<g id="a_node9"><a xlink:href="classcarta_1_1FileExtInfoLoader.html#ac36abc843ecdd6253cbb9524c77bc5ce" target="_top" xlink:title=" ">
<polygon fill="none" stroke="black" points="998,-982.5 998,-1012.5 1151,-1012.5 1151,-982.5 998,-982.5"/>
<text text-anchor="start" x="1006" y="-1000.5" font-family="Helvetica,sans-Serif" font-size="10.00">carta::FileExtInfoLoader</text>
<text text-anchor="middle" x="1074.5" y="-989.5" font-family="Helvetica,sans-Serif" font-size="10.00">::ConvertIncrementToArcsec</text>
</a>
</g>
</g>
<!-- Node4&#45;&gt;Node9 -->
<g id="edge14" class="edge">
<title>Node4&#45;&gt;Node9</title>
<path fill="none" stroke="midnightblue" d="M714.58,-869.13C721.96,-872.36 728.97,-876.41 735,-881.5 762.94,-905.1 741.4,-934.01 771,-955.5 833.31,-1000.74 922.28,-1008.17 987.6,-1006.13"/>
<polygon fill="midnightblue" stroke="midnightblue" points="988.02,-1009.61 997.88,-1005.72 987.75,-1002.62 988.02,-1009.61"/>
</g>
<!-- Node16 -->
<g id="node10" class="node">
<title>Node16</title>
<g id="a_node10"><a xlink:href="classcarta_1_1FileExtInfoLoader.html#afa0abc9c6dd40164f472c7554adc32b6" target="_top" xlink:title=" ">
<polygon fill="none" stroke="black" points="1008.5,-933.5 1008.5,-963.5 1140.5,-963.5 1140.5,-933.5 1008.5,-933.5"/>
<text text-anchor="start" x="1016.5" y="-951.5" font-family="Helvetica,sans-Serif" font-size="10.00">carta::FileExtInfoLoader</text>
<text text-anchor="middle" x="1074.5" y="-940.5" font-family="Helvetica,sans-Serif" font-size="10.00">::MakeAngleString</text>
</a>
</g>
</g>
<!-- Node4&#45;&gt;Node16 -->
<g id="edge15" class="edge">
<title>Node4&#45;&gt;Node16</title>
<path fill="none" stroke="midnightblue" d="M714.81,-871.15C721.9,-874.02 728.79,-877.44 735,-881.5 755.86,-895.14 748.85,-913.07 771,-924.5 841.77,-961.03 934.43,-962.78 998.46,-958.1"/>
<polygon fill="midnightblue" stroke="midnightblue" points="998.8,-961.58 1008.48,-957.3 998.24,-954.61 998.8,-961.58"/>
</g>
<!-- Node6&#45;&gt;Node5 -->
<g id="edge6" class="edge">
<title>Node6&#45;&gt;Node5</title>
<path fill="none" stroke="midnightblue" d="M962.06,-887.68C974.17,-888.86 986.43,-890.05 998.18,-891.19"/>
<polygon fill="midnightblue" stroke="midnightblue" points="998.06,-894.69 1008.35,-892.17 998.73,-887.72 998.06,-894.69"/>
</g>
<!-- Node6&#45;&gt;Node7 -->
<g id="edge7" class="edge">
<title>Node6&#45;&gt;Node7</title>
<path fill="none" stroke="midnightblue" d="M962.06,-864.73C974.17,-862.97 986.43,-861.18 998.18,-859.47"/>
<polygon fill="midnightblue" stroke="midnightblue" points="998.96,-862.89 1008.35,-857.99 997.95,-855.97 998.96,-862.89"/>
</g>
<!-- Node6&#45;&gt;Node8 -->
<g id="edge8" class="edge">
<title>Node6&#45;&gt;Node8</title>
<path fill="none" stroke="midnightblue" d="M902.8,-863.47C928.98,-852.44 965.59,-837.21 998,-824.5 1005.86,-821.42 1014.21,-818.23 1022.38,-815.16"/>
<polygon fill="midnightblue" stroke="midnightblue" points="1023.71,-818.4 1031.86,-811.63 1021.26,-811.85 1023.71,-818.4"/>
</g>
<!-- Node6&#45;&gt;Node9 -->
<g id="edge9" class="edge">
<title>Node6&#45;&gt;Node9</title>
<path fill="none" stroke="midnightblue" d="M884.47,-893.66C908.3,-914.26 953.74,-951.1 998,-973.5 1001.56,-975.3 1005.28,-977 1009.08,-978.6"/>
<polygon fill="midnightblue" stroke="midnightblue" points="1008.05,-981.96 1018.64,-982.37 1010.62,-975.45 1008.05,-981.96"/>
</g>
<!-- Node6&#45;&gt;Node16 -->
<g id="edge10" class="edge">
<title>Node6&#45;&gt;Node16</title>
<path fill="none" stroke="midnightblue" d="M910.66,-893.53C936.06,-902.34 968.83,-913.64 998,-923.5 1004.42,-925.67 1011.14,-927.92 1017.83,-930.15"/>
<polygon fill="midnightblue" stroke="midnightblue" points="1016.96,-933.55 1027.55,-933.39 1019.17,-926.91 1016.96,-933.55"/>
</g>
<!-- Node17 -->
<g id="node11" class="node">
<title>Node17</title>
<g id="a_node11"><a xlink:href="Casacore_8cc.html#a8733accb41db0f83703779c667ae852e" target="_top" xlink:title=" ">
<polygon fill="none" stroke="black" points="1031,-721 1031,-740 1118,-740 1118,-721 1031,-721"/>
<text text-anchor="middle" x="1074.5" y="-728" font-family="Helvetica,sans-Serif" font-size="10.00">NormalizeUnit</text>
</a>
</g>
</g>
<!-- Node6&#45;&gt;Node17 -->
<g id="edge11" class="edge">
<title>Node6&#45;&gt;Node17</title>
<path fill="none" stroke="midnightblue" d="M884.07,-863.45C908.17,-841.94 954.73,-801.78 998,-772.5 1012.98,-762.36 1030.6,-752.46 1045.05,-744.81"/>
<polygon fill="midnightblue" stroke="midnightblue" points="1046.77,-747.86 1054.03,-740.14 1043.54,-741.65 1046.77,-747.86"/>
</g>
<!-- Node19&#45;&gt;Node17 -->
<g id="edge19" class="edge">
<title>Node19&#45;&gt;Node17</title>
<path fill="none" stroke="midnightblue" d="M719.63,-792.46C725.07,-789.93 730.27,-786.96 735,-783.5 758.56,-766.23 745.3,-742.39 771,-728.5 854.59,-683.31 971.12,-703 1032.28,-718.43"/>
<polygon fill="midnightblue" stroke="midnightblue" points="1031.4,-721.82 1041.96,-720.95 1033.17,-715.04 1031.4,-721.82"/>
</g>
<!-- Node20 -->
<g id="node14" class="node">
<title>Node20</title>
<g id="a_node14"><a xlink:href="classcarta_1_1FileExtInfoLoader.html#a9569d63b1ec07f806edb9f3469b15fd5" target="_top" xlink:title=" ">
<polygon fill="none" stroke="black" points="779,-737.5 779,-767.5 954,-767.5 954,-737.5 779,-737.5"/>
<text text-anchor="start" x="787" y="-755.5" font-family="Helvetica,sans-Serif" font-size="10.00">carta::FileExtInfoLoader</text>
<text text-anchor="middle" x="866.5" y="-744.5" font-family="Helvetica,sans-Serif" font-size="10.00">::ConvertHeaderValueToNumeric</text>
</a>
</g>
</g>
<!-- Node19&#45;&gt;Node20 -->
<g id="edge18" class="edge">
<title>Node19&#45;&gt;Node20</title>
<path fill="none" stroke="midnightblue" d="M708.52,-792.47C735.79,-785.53 768.33,-777.24 796.7,-770.02"/>
<polygon fill="midnightblue" stroke="midnightblue" points="797.72,-773.37 806.55,-767.51 795.99,-766.59 797.72,-773.37"/>
</g>
<!-- Node38 -->
<g id="node24" class="node">
<title>Node38</title>
<g id="a_node24"><a xlink:href="classcarta_1_1FileInfoLoader.html#a6752fdbf616d2e16e10e24903afbc1a4" target="_top" xlink:title=" ">
<polygon fill="none" stroke="black" points="396.5,-576.5 396.5,-606.5 512.5,-606.5 512.5,-576.5 396.5,-576.5"/>
<text text-anchor="start" x="404.5" y="-594.5" font-family="Helvetica,sans-Serif" font-size="10.00">carta::FileInfoLoader</text>
<text text-anchor="middle" x="454.5" y="-583.5" font-family="Helvetica,sans-Serif" font-size="10.00">::FillFileInfo</text>
</a>
</g>
</g>
<!-- Node37&#45;&gt;Node38 -->
<g id="edge29" class="edge">
<title>Node37&#45;&gt;Node38</title>
<path fill="none" stroke="midnightblue" d="M308.25,-557.05C331.12,-562.47 360.33,-569.4 386.55,-575.62"/>
<polygon fill="midnightblue" stroke="midnightblue" points="385.9,-579.06 396.44,-577.96 387.51,-572.25 385.9,-579.06"/>
</g>
<!-- Node40 -->
<g id="node26" class="node">
<title>Node40</title>
<g id="a_node26"><a xlink:href="Casacore_8cc.html#a5c9a1def63cd54cea5e9cf5b893b5708" target="_top" xlink:title=" ">
<polygon fill="none" stroke="black" points="392.5,-538 392.5,-557 516.5,-557 516.5,-538 392.5,-538"/>
<text text-anchor="middle" x="454.5" y="-545" font-family="Helvetica,sans-Serif" font-size="10.00">GetResolvedFilename</text>
</a>
</g>
</g>
<!-- Node37&#45;&gt;Node40 -->
<g id="edge31" class="edge">
<title>Node37&#45;&gt;Node40</title>
<path fill="none" stroke="midnightblue" d="M337.6,-547.5C352.22,-547.5 367.66,-547.5 382.33,-547.5"/>
<polygon fill="midnightblue" stroke="midnightblue" points="382.35,-551 392.35,-547.5 382.35,-544 382.35,-551"/>
</g>
<!-- Node39 -->
<g id="node25" class="node">
<title>Node39</title>
<g id="a_node25"><a xlink:href="classcarta_1_1FileInfoLoader.html#a3395971925347571f4724f7ee714a85a" target="_top" xlink:title=" ">
<polygon fill="none" stroke="black" points="590.5,-547.5 590.5,-577.5 706.5,-577.5 706.5,-547.5 590.5,-547.5"/>
<text text-anchor="start" x="598.5" y="-565.5" font-family="Helvetica,sans-Serif" font-size="10.00">carta::FileInfoLoader</text>
<text text-anchor="middle" x="648.5" y="-554.5" font-family="Helvetica,sans-Serif" font-size="10.00">::GetHdf5HduList</text>
</a>
</g>
</g>
<!-- Node38&#45;&gt;Node39 -->
<g id="edge30" class="edge">
<title>Node38&#45;&gt;Node39</title>
<path fill="none" stroke="midnightblue" d="M512.59,-582.88C533.87,-579.66 558.22,-575.99 580.32,-572.65"/>
<polygon fill="midnightblue" stroke="midnightblue" points="580.94,-576.09 590.3,-571.14 579.89,-569.17 580.94,-576.09"/>
</g>
<!-- Node42 -->
<g id="node28" class="node">
<title>Node42</title>
<g id="a_node28"><a xlink:href="classcarta_1_1LoaderCache.html#a266bb1e531c331928d9af7f7c3c5b05d" target="_top" xlink:title=" ">
<polygon fill="none" stroke="black" points="399.5,-488.5 399.5,-518.5 509.5,-518.5 509.5,-488.5 399.5,-488.5"/>
<text text-anchor="start" x="407.5" y="-506.5" font-family="Helvetica,sans-Serif" font-size="10.00">carta::LoaderCache</text>
<text text-anchor="middle" x="454.5" y="-495.5" font-family="Helvetica,sans-Serif" font-size="10.00">::GetKey</text>
</a>
</g>
</g>
<!-- Node41&#45;&gt;Node42 -->
<g id="edge33" class="edge">
<title>Node41&#45;&gt;Node42</title>
<path fill="none" stroke="midnightblue" d="M304.21,-464.06C328.45,-470.47 361.02,-479.07 389.55,-486.61"/>
<polygon fill="midnightblue" stroke="midnightblue" points="388.89,-490.05 399.46,-489.22 390.68,-483.29 388.89,-490.05"/>
</g>
<!-- Node43 -->
<g id="node29" class="node">
<title>Node43</title>
<g id="a_node29"><a xlink:href="classcarta_1_1FileLoader.html#a581709c9a332af503acb77d79b8ae38f" target="_top" xlink:title=" ">
<polygon fill="none" stroke="black" points="402.5,-439.5 402.5,-469.5 506.5,-469.5 506.5,-439.5 402.5,-439.5"/>
<text text-anchor="start" x="410.5" y="-457.5" font-family="Helvetica,sans-Serif" font-size="10.00">carta::FileLoader::</text>
<text text-anchor="middle" x="454.5" y="-446.5" font-family="Helvetica,sans-Serif" font-size="10.00">GetLoader</text>
</a>
</g>
</g>
<!-- Node41&#45;&gt;Node43 -->
<g id="edge34" class="edge">
<title>Node41&#45;&gt;Node43</title>
<path fill="none" stroke="midnightblue" d="M334.18,-454.5C353.06,-454.5 373.54,-454.5 392.11,-454.5"/>
<polygon fill="midnightblue" stroke="midnightblue" points="392.22,-458 402.22,-454.5 392.22,-451 392.22,-458"/>
</g>
<!-- Node44 -->
<g id="node30" class="node">
<title>Node44</title>
<g id="a_node30"><a xlink:href="Casacore_8h.html#a7f2e1b7b1fdc56656757ae21fa22be67" target="_top" xlink:title=" ">
<polygon fill="none" stroke="black" points="591,-480 591,-499 706,-499 706,-480 591,-480"/>
<text text-anchor="middle" x="648.5" y="-487" font-family="Helvetica,sans-Serif" font-size="10.00">CasacoreImageType</text>
</a>
</g>
</g>
<!-- Node43&#45;&gt;Node44 -->
<g id="edge35" class="edge">
<title>Node43&#45;&gt;Node44</title>
<path fill="none" stroke="midnightblue" d="M506.7,-463.83C530.83,-468.23 559.82,-473.52 585.21,-478.14"/>
<polygon fill="midnightblue" stroke="midnightblue" points="584.64,-481.6 595.11,-479.95 585.9,-474.71 584.64,-481.6"/>
</g>
<!-- Node43&#45;&gt;Node45 -->
<g id="edge36" class="edge">
<title>Node43&#45;&gt;Node45</title>
<path fill="none" stroke="midnightblue" d="M506.7,-442.77C534.3,-436.44 568.28,-428.66 595.94,-422.32"/>
<polygon fill="midnightblue" stroke="midnightblue" points="596.85,-425.7 605.82,-420.05 595.29,-418.87 596.85,-425.7"/>
</g>
<!-- Node49 -->
<g id="node35" class="node">
<title>Node49</title>
<g id="a_node35"><a xlink:href="File_8cc.html#ac3253b9c72cf4368b08803ef2a0102bb" target="_top" xlink:title=" ">
<polygon fill="none" stroke="black" points="598,-442 598,-461 699,-461 699,-442 598,-442"/>
<text text-anchor="middle" x="648.5" y="-449" font-family="Helvetica,sans-Serif" font-size="10.00">IsRemoteHttpFile</text>
</a>
</g>
</g>
<!-- Node43&#45;&gt;Node49 -->
<g id="edge40" class="edge">
<title>Node43&#45;&gt;Node49</title>
<path fill="none" stroke="midnightblue" d="M506.7,-453.7C531.61,-453.31 561.71,-452.84 587.67,-452.43"/>
<polygon fill="midnightblue" stroke="midnightblue" points="587.83,-455.93 597.77,-452.28 587.72,-448.93 587.83,-455.93"/>
</g>
<!-- Node46 -->
<g id="node32" class="node">
<title>Node46</title>
<g id="a_node32"><a xlink:href="File_8cc.html#a7e6d57b61e0979a7171bb2e6519093f9" target="_top" xlink:title=" ">
<polygon fill="none" stroke="black" points="815.5,-439 815.5,-458 917.5,-458 917.5,-439 815.5,-439"/>
<text text-anchor="middle" x="866.5" y="-446" font-family="Helvetica,sans-Serif" font-size="10.00">GetMagicNumber</text>
</a>
</g>
</g>
<!-- Node45&#45;&gt;Node46 -->
<g id="edge37" class="edge">
<title>Node45&#45;&gt;Node46</title>
<path fill="none" stroke="midnightblue" d="M700.14,-419.41C731.56,-424.94 772.09,-432.07 805.17,-437.89"/>
<polygon fill="midnightblue" stroke="midnightblue" points="804.72,-441.36 815.17,-439.65 805.93,-434.47 804.72,-441.36"/>
</g>
<!-- Node47 -->
<g id="node33" class="node">
<title>Node47</title>
<g id="a_node33"><a xlink:href="String_8cc.html#a1540adc30610b9db4add6622c248b9d1" target="_top" xlink:title=" ">
<polygon fill="none" stroke="black" points="835,-401 835,-420 898,-420 898,-401 835,-401"/>
<text text-anchor="middle" x="866.5" y="-408" font-family="Helvetica,sans-Serif" font-size="10.00">HasSuffix</text>
</a>
</g>
</g>
<!-- Node45&#45;&gt;Node47 -->
<g id="edge38" class="edge">
<title>Node45&#45;&gt;Node47</title>
<path fill="none" stroke="midnightblue" d="M700.14,-410.5C738,-410.5 789.1,-410.5 824.43,-410.5"/>
<polygon fill="midnightblue" stroke="midnightblue" points="824.85,-414 834.85,-410.5 824.85,-407 824.85,-414"/>
</g>
<!-- Node48 -->
<g id="node34" class="node">
<title>Node48</title>
<g id="a_node34"><a xlink:href="File_8cc.html#a0b28b83747dc07e95f4a0e1b5b4db83e" target="_top" xlink:title=" ">
<polygon fill="none" stroke="black" points="813.5,-363 813.5,-382 919.5,-382 919.5,-363 813.5,-363"/>
<text text-anchor="middle" x="866.5" y="-370" font-family="Helvetica,sans-Serif" font-size="10.00">IsGzMagicNumber</text>
</a>
</g>
</g>
<!-- Node45&#45;&gt;Node48 -->
<g id="edge39" class="edge">
<title>Node45&#45;&gt;Node48</title>
<path fill="none" stroke="midnightblue" d="M700.14,-401.59C730.99,-396.16 770.64,-389.19 803.38,-383.43"/>
<polygon fill="midnightblue" stroke="midnightblue" points="804.06,-386.86 813.3,-381.68 802.84,-379.97 804.06,-386.86"/>
</g>
<!-- Node51 -->
<g id="node37" class="node">
<title>Node51</title>
<g id="a_node37"><a xlink:href="classcarta_1_1Timer.html#aad2702a80259920b910fb76642f97b88" target="_top" xlink:title=" ">
<polygon fill="none" stroke="black" points="394.5,-187 394.5,-206 514.5,-206 514.5,-187 394.5,-187"/>
<text text-anchor="middle" x="454.5" y="-194" font-family="Helvetica,sans-Serif" font-size="10.00">carta::Timer::Elapsed</text>
</a>
</g>
</g>
<!-- Node50&#45;&gt;Node51 -->
<g id="edge42" class="edge">
<title>Node50&#45;&gt;Node51</title>
<path fill="none" stroke="midnightblue" d="M329.51,-225.91C353.58,-220.2 380.83,-213.74 403.64,-208.33"/>
<polygon fill="midnightblue" stroke="midnightblue" points="404.53,-211.71 413.45,-206 402.91,-204.9 404.53,-211.71"/>
</g>
<!-- Node52 -->
<g id="node38" class="node">
<title>Node52</title>
<g id="a_node38"><a xlink:href="classcarta_1_1CompressedFits.html#a3f351f377123ea8f6041f78ef57f4d55" target="_top" xlink:title=" ">
<polygon fill="none" stroke="black" points="392,-137.5 392,-167.5 517,-167.5 517,-137.5 392,-137.5"/>
<text text-anchor="start" x="400" y="-155.5" font-family="Helvetica,sans-Serif" font-size="10.00">carta::CompressedFits</text>
<text text-anchor="middle" x="454.5" y="-144.5" font-family="Helvetica,sans-Serif" font-size="10.00">::IsImageHdu</text>
</a>
</g>
</g>
<!-- Node50&#45;&gt;Node52 -->
<g id="edge43" class="edge">
<title>Node50&#45;&gt;Node52</title>
<path fill="none" stroke="midnightblue" d="M292.98,-225.29C315.89,-211.71 351,-191.83 383,-177.5 387.77,-175.37 392.78,-173.28 397.83,-171.29"/>
<polygon fill="midnightblue" stroke="midnightblue" points="399.47,-174.42 407.57,-167.58 396.98,-167.87 399.47,-174.42"/>
</g>
<!-- Node56 -->
<g id="node41" class="node">
<title>Node56</title>
<g id="a_node41"><a xlink:href="structcarta_1_1TimeDelta.html#a90b2dc0a7d70b0aa6f668f4bbad7fa58" target="_top" xlink:title=" ">
<polygon fill="none" stroke="black" points="395,-275 395,-294 514,-294 514,-275 395,-275"/>
<text text-anchor="middle" x="454.5" y="-282" font-family="Helvetica,sans-Serif" font-size="10.00">carta::TimeDelta::ms</text>
</a>
</g>
</g>
<!-- Node50&#45;&gt;Node56 -->
<g id="edge46" class="edge">
<title>Node50&#45;&gt;Node56</title>
<path fill="none" stroke="midnightblue" d="M329.51,-255.09C353.58,-260.8 380.83,-267.26 403.64,-272.67"/>
<polygon fill="midnightblue" stroke="midnightblue" points="402.91,-276.1 413.45,-275 404.53,-269.29 402.91,-276.1"/>
</g>
<!-- Node57 -->
<g id="node42" class="node">
<title>Node57</title>
<g id="a_node42"><a xlink:href="classcarta_1_1CompressedFits.html#ab9ca1735c175f61848ebf768295ccc5c" target="_top" xlink:title=" ">
<polygon fill="none" stroke="black" points="392,-225.5 392,-255.5 517,-255.5 517,-225.5 392,-225.5"/>
<text text-anchor="start" x="400" y="-243.5" font-family="Helvetica,sans-Serif" font-size="10.00">carta::CompressedFits</text>
<text text-anchor="middle" x="454.5" y="-232.5" font-family="Helvetica,sans-Serif" font-size="10.00">::OpenGzFile</text>
</a>
</g>
</g>
<!-- Node50&#45;&gt;Node57 -->
<g id="edge47" class="edge">
<title>Node50&#45;&gt;Node57</title>
<path fill="none" stroke="midnightblue" d="M329.51,-240.5C346.26,-240.5 364.55,-240.5 381.81,-240.5"/>
<polygon fill="midnightblue" stroke="midnightblue" points="381.84,-244 391.84,-240.5 381.84,-237 381.84,-244"/>
</g>
<!-- Node53 -->
<g id="node39" class="node">
<title>Node53</title>
<g id="a_node39"><a xlink:href="classcarta_1_1CompressedFits.html#a90e27790d73c48808973a18ac42a5d9a" target="_top" xlink:title=" ">
<polygon fill="none" stroke="black" points="586,-186.5 586,-216.5 711,-216.5 711,-186.5 586,-186.5"/>
<text text-anchor="start" x="594" y="-204.5" font-family="Helvetica,sans-Serif" font-size="10.00">carta::CompressedFits</text>
<text text-anchor="middle" x="648.5" y="-193.5" font-family="Helvetica,sans-Serif" font-size="10.00">::AddHeaderEntry</text>
</a>
</g>
</g>
<!-- Node52&#45;&gt;Node53 -->
<g id="edge44" class="edge">
<title>Node52&#45;&gt;Node53</title>
<path fill="none" stroke="midnightblue" d="M514.41,-167.53C534.78,-172.73 557.77,-178.6 578.85,-183.98"/>
<polygon fill="midnightblue" stroke="midnightblue" points="578.15,-187.41 588.7,-186.49 579.88,-180.63 578.15,-187.41"/>
</g>
<!-- Node54 -->
<g id="node40" class="node">
<title>Node54</title>
<g id="a_node40"><a xlink:href="classcarta_1_1CompressedFits.html#a44ffd0a06a3f94f38e9f714a265f4910" target="_top" xlink:title=" ">
<polygon fill="none" stroke="red" points="586,-137.5 586,-167.5 711,-167.5 711,-137.5 586,-137.5"/>
<text text-anchor="start" x="594" y="-155.5" font-family="Helvetica,sans-Serif" font-size="10.00">carta::CompressedFits</text>
<text text-anchor="middle" x="648.5" y="-144.5" font-family="Helvetica,sans-Serif" font-size="10.00">::ParseFitsCard</text>
</a>
</g>
</g>
<!-- Node52&#45;&gt;Node54 -->
<g id="edge45" class="edge">
<title>Node52&#45;&gt;Node54</title>
<path fill="none" stroke="midnightblue" d="M517.04,-152.5C535.73,-152.5 556.43,-152.5 575.73,-152.5"/>
<polygon fill="midnightblue" stroke="midnightblue" points="575.98,-156 585.98,-152.5 575.98,-149 575.98,-156"/>
</g>
<!-- Node58&#45;&gt;Node45 -->
<g id="edge50" class="edge">
<title>Node58&#45;&gt;Node45</title>
<path fill="none" stroke="midnightblue" d="M317.61,-372.25C386.79,-380.27 512.11,-394.8 586.78,-403.46"/>
<polygon fill="midnightblue" stroke="midnightblue" points="586.63,-406.97 596.97,-404.64 587.44,-400.01 586.63,-406.97"/>
</g>
<!-- Node59 -->
<g id="node44" class="node">
<title>Node59</title>
<g id="a_node44"><a xlink:href="classcarta_1_1FitsHduList.html#a55f0f93cc0c2dd4811cc702559455856" target="_top" xlink:title=" ">
<polygon fill="none" stroke="black" points="399.5,-313.5 399.5,-343.5 509.5,-343.5 509.5,-313.5 399.5,-313.5"/>
<text text-anchor="start" x="407.5" y="-331.5" font-family="Helvetica,sans-Serif" font-size="10.00">carta::FitsHduList</text>
<text text-anchor="middle" x="454.5" y="-320.5" font-family="Helvetica,sans-Serif" font-size="10.00">::CheckFitsHeaders</text>
</a>
</g>
</g>
<!-- Node58&#45;&gt;Node59 -->
<g id="edge49" class="edge">
<title>Node58&#45;&gt;Node59</title>
<path fill="none" stroke="midnightblue" d="M317.71,-356.32C339.78,-351.8 366.02,-346.42 389.53,-341.6"/>
<polygon fill="midnightblue" stroke="midnightblue" points="390.32,-345.02 399.42,-339.58 388.92,-338.16 390.32,-345.02"/>
</g>
<!-- Node61 -->
<g id="node46" class="node">
<title>Node61</title>
<g id="a_node46"><a xlink:href="classMessage.html#a99e84f303d54a46b1cf582bf343c7f29" target="_top" xlink:title=" ">
<polygon fill="none" stroke="black" points="398,-98 398,-117 511,-117 511,-98 398,-98"/>
<text text-anchor="middle" x="454.5" y="-105" font-family="Helvetica,sans-Serif" font-size="10.00">Message::ErrorData</text>
</a>
</g>
</g>
<!-- Node60&#45;&gt;Node61 -->
<g id="edge53" class="edge">
<title>Node60&#45;&gt;Node61</title>
<path fill="none" stroke="midnightblue" d="M347.21,-107.5C360.65,-107.5 374.48,-107.5 387.54,-107.5"/>
<polygon fill="midnightblue" stroke="midnightblue" points="387.82,-111 397.82,-107.5 387.82,-104 387.82,-111"/>
</g>
<!-- Node62 -->
<g id="node47" class="node">
<title>Node62</title>
<g id="a_node47"><a xlink:href="classcarta_1_1Session.html#af5f45b72e3fb7d4ad6fbf32fcc9da912" target="_top" xlink:title=" ">
<polygon fill="none" stroke="black" points="383,-57 383,-76 526,-76 526,-57 383,-57"/>
<text text-anchor="middle" x="454.5" y="-64" font-family="Helvetica,sans-Serif" font-size="10.00">carta::Session::SendEvent</text>
</a>
</g>
</g>
<!-- Node60&#45;&gt;Node62 -->
<g id="edge54" class="edge">
<title>Node60&#45;&gt;Node62</title>
<path fill="none" stroke="midnightblue" d="M311.02,-97.99C337.62,-92.11 371.96,-84.52 400.26,-78.27"/>
<polygon fill="midnightblue" stroke="midnightblue" points="401.38,-81.6 410.39,-76.03 399.87,-74.77 401.38,-81.6"/>
</g>
<!-- Node63 -->
<g id="node48" class="node">
<title>Node63</title>
<g id="a_node48"><a xlink:href="namespacecarta_1_1logger.html#ab9e339746ee51ea21696ab43b50841d5" target="_top" xlink:title=" ">
<polygon fill="none" stroke="red" points="562,-99 562,-118 735,-118 735,-99 562,-99"/>
<text text-anchor="middle" x="648.5" y="-106" font-family="Helvetica,sans-Serif" font-size="10.00">carta::logger::LogSentEventType</text>
</a>
</g>
</g>
<!-- Node62&#45;&gt;Node63 -->
<g id="edge55" class="edge">
<title>Node62&#45;&gt;Node63</title>
<path fill="none" stroke="midnightblue" d="M499.07,-76.03C527.2,-82.18 564,-90.23 593.91,-96.78"/>
<polygon fill="midnightblue" stroke="midnightblue" points="593.26,-100.22 603.77,-98.93 594.75,-93.38 593.26,-100.22"/>
</g>
<!-- Node65 -->
<g id="node49" class="node">
<title>Node65</title>
<g id="a_node49"><a xlink:href="classcarta_1_1concurrent__queue.html#ab1a11795f017e1c7dd870fce5da5ede1" target="_top" xlink:title=" ">
<polygon fill="none" stroke="black" points="581.5,-49.5 581.5,-79.5 715.5,-79.5 715.5,-49.5 581.5,-49.5"/>
<text text-anchor="start" x="589.5" y="-67.5" font-family="Helvetica,sans-Serif" font-size="10.00">carta::concurrent_queue</text>
<text text-anchor="middle" x="648.5" y="-56.5" font-family="Helvetica,sans-Serif" font-size="10.00">::push</text>
</a>
</g>
</g>
<!-- Node62&#45;&gt;Node65 -->
<g id="edge56" class="edge">
<title>Node62&#45;&gt;Node65</title>
<path fill="none" stroke="midnightblue" d="M526.18,-65.76C540.86,-65.61 556.39,-65.45 571.26,-65.29"/>
<polygon fill="midnightblue" stroke="midnightblue" points="571.47,-68.79 581.43,-65.19 571.4,-61.79 571.47,-68.79"/>
</g>
<!-- Node66 -->
<g id="node50" class="node">
<title>Node66</title>
<g id="a_node50"><a xlink:href="classcarta_1_1concurrent__queue.html#a44dc990ae7a71921648cad573058357d" target="_top" xlink:title=" ">
<polygon fill="none" stroke="black" points="581.5,-0.5 581.5,-30.5 715.5,-30.5 715.5,-0.5 581.5,-0.5"/>
<text text-anchor="start" x="589.5" y="-18.5" font-family="Helvetica,sans-Serif" font-size="10.00">carta::concurrent_queue</text>
<text text-anchor="middle" x="648.5" y="-7.5" font-family="Helvetica,sans-Serif" font-size="10.00">::try_pop</text>
</a>
</g>
</g>
<!-- Node62&#45;&gt;Node66 -->
<g id="edge57" class="edge">
<title>Node62&#45;&gt;Node66</title>
<path fill="none" stroke="midnightblue" d="M491.61,-56.91C516.7,-50.24 550.86,-41.17 580.81,-33.21"/>
<polygon fill="midnightblue" stroke="midnightblue" points="582.02,-36.51 590.79,-30.56 580.23,-29.75 582.02,-36.51"/>
</g>
</g>
</svg>
