<?xml version="1.0" encoding="UTF-8" standalone="no"?>
<!DOCTYPE svg PUBLIC "-//W3C//DTD SVG 1.1//EN"
 "http://www.w3.org/Graphics/SVG/1.1/DTD/svg11.dtd">
<!-- Generated by graphviz version 2.43.0 (0)
 -->
<!-- Title: carta::TableController::ApplyFilter Pages: 1 -->
<svg width="496pt" height="127pt"
 viewBox="0.00 0.00 496.00 126.50" xmlns="http://www.w3.org/2000/svg" xmlns:xlink="http://www.w3.org/1999/xlink">
<g id="graph0" class="graph" transform="scale(1 1) rotate(0) translate(4 122.5)">
<title>carta::TableController::ApplyFilter</title>
<!-- Node1 -->
<g id="node1" class="node">
<title>Node1</title>
<g id="a_node1"><a xlink:title=" ">
<polygon fill="#bfbfbf" stroke="black" points="0,-49.5 0,-79.5 121,-79.5 121,-49.5 0,-49.5"/>
<text text-anchor="start" x="8" y="-67.5" font-family="Helvetica,sans-Serif" font-size="10.00">carta::TableController</text>
<text text-anchor="middle" x="60.5" y="-56.5" font-family="Helvetica,sans-Serif" font-size="10.00">::ApplyFilter</text>
</a>
</g>
</g>
<!-- Node2 -->
<g id="node2" class="node">
<title>Node2</title>
<g id="a_node2"><a xlink:href="classcarta_1_1TableView.html#a8b3a5d2f07d9f361246f4583cf61f856" target="_top" xlink:title=" ">
<polygon fill="none" stroke="black" points="157,-99 157,-118 302,-118 302,-99 157,-99"/>
<text text-anchor="middle" x="229.5" y="-106" font-family="Helvetica,sans-Serif" font-size="10.00">carta::TableView::GetTable</text>
</a>
</g>
</g>
<!-- Node1&#45;&gt;Node2 -->
<g id="edge1" class="edge">
<title>Node1&#45;&gt;Node2</title>
<path fill="none" stroke="midnightblue" d="M118.5,-79.52C139.36,-85.01 162.67,-91.16 182.45,-96.37"/>
<polygon fill="midnightblue" stroke="midnightblue" points="181.58,-99.76 192.15,-98.92 183.37,-92.99 181.58,-99.76"/>
</g>
<!-- Node3 -->
<g id="node3" class="node">
<title>Node3</title>
<g id="a_node3"><a xlink:href="classcarta_1_1TableView.html#a0e5b9336c7ab649c04e138c3e1b35608" target="_top" xlink:title=" ">
<polygon fill="none" stroke="black" points="158,-49.5 158,-79.5 301,-79.5 301,-49.5 158,-49.5"/>
<text text-anchor="start" x="166" y="-67.5" font-family="Helvetica,sans-Serif" font-size="10.00">carta::TableView::Numeric</text>
<text text-anchor="middle" x="229.5" y="-56.5" font-family="Helvetica,sans-Serif" font-size="10.00">Filter</text>
</a>
</g>
</g>
<!-- Node1&#45;&gt;Node3 -->
<g id="edge2" class="edge">
<title>Node1&#45;&gt;Node3</title>
<path fill="none" stroke="midnightblue" d="M121.32,-64.5C129.96,-64.5 138.96,-64.5 147.92,-64.5"/>
<polygon fill="midnightblue" stroke="midnightblue" points="147.99,-68 157.99,-64.5 147.99,-61 147.99,-68"/>
</g>
<!-- Node6 -->
<g id="node6" class="node">
<title>Node6</title>
<g id="a_node6"><a xlink:href="classcarta_1_1TableView.html#a250dc196a9ee279a9efba395b1df297b" target="_top" xlink:title=" ">
<polygon fill="none" stroke="black" points="164,-0.5 164,-30.5 295,-30.5 295,-0.5 164,-0.5"/>
<text text-anchor="start" x="172" y="-18.5" font-family="Helvetica,sans-Serif" font-size="10.00">carta::TableView::String</text>
<text text-anchor="middle" x="229.5" y="-7.5" font-family="Helvetica,sans-Serif" font-size="10.00">Filter</text>
</a>
</g>
</g>
<!-- Node1&#45;&gt;Node6 -->
<g id="edge5" class="edge">
<title>Node1&#45;&gt;Node6</title>
<path fill="none" stroke="midnightblue" d="M112.97,-49.4C130.19,-44.34 149.56,-38.66 167.44,-33.42"/>
<polygon fill="midnightblue" stroke="midnightblue" points="168.59,-36.73 177.2,-30.55 166.62,-30.01 168.59,-36.73"/>
</g>
<!-- Node4 -->
<g id="node4" class="node">
<title>Node4</title>
<g id="a_node4"><a xlink:href="classcarta_1_1Column.html#aaab77c078586ede33eb6a14f0945c11a" target="_top" xlink:title=" ">
<polygon fill="none" stroke="black" points="338,-90 338,-109 488,-109 488,-90 338,-90"/>
<text text-anchor="middle" x="413" y="-97" font-family="Helvetica,sans-Serif" font-size="10.00">carta::Column::FilterIndices</text>
</a>
</g>
</g>
<!-- Node3&#45;&gt;Node4 -->
<g id="edge3" class="edge">
<title>Node3&#45;&gt;Node4</title>
<path fill="none" stroke="midnightblue" d="M301.19,-78.13C318.17,-81.41 336.14,-84.87 352.55,-88.04"/>
<polygon fill="midnightblue" stroke="midnightblue" points="352.06,-91.51 362.54,-89.96 353.39,-84.63 352.06,-91.51"/>
</g>
<!-- Node5 -->
<g id="node5" class="node">
<title>Node5</title>
<g id="a_node5"><a xlink:href="classcarta_1_1Column.html#a67245941f2ccebabd2e37de41acc55ec" target="_top" xlink:title=" ">
<polygon fill="none" stroke="black" points="339,-52 339,-71 487,-71 487,-52 339,-52"/>
<text text-anchor="middle" x="413" y="-59" font-family="Helvetica,sans-Serif" font-size="10.00">carta::Column::NumEntries</text>
</a>
</g>
</g>
<!-- Node3&#45;&gt;Node5 -->
<g id="edge4" class="edge">
<title>Node3&#45;&gt;Node5</title>
<path fill="none" stroke="midnightblue" d="M301.19,-63.33C310.16,-63.18 319.4,-63.03 328.55,-62.88"/>
<polygon fill="midnightblue" stroke="midnightblue" points="328.87,-66.37 338.81,-62.71 328.75,-59.38 328.87,-66.37"/>
</g>
<!-- Node7 -->
<g id="node7" class="node">
<title>Node7</title>
<g id="a_node7"><a xlink:href="classcarta_1_1DataColumn.html#ad8041f37686aa5add5dd1515e5e088b6" target="_top" xlink:title=" ">
<polygon fill="none" stroke="black" points="356,-0.5 356,-30.5 470,-30.5 470,-0.5 356,-0.5"/>
<text text-anchor="start" x="364" y="-18.5" font-family="Helvetica,sans-Serif" font-size="10.00">carta::DataColumn::</text>
<text text-anchor="middle" x="413" y="-7.5" font-family="Helvetica,sans-Serif" font-size="10.00">TryCast</text>
</a>
</g>
</g>
<!-- Node6&#45;&gt;Node7 -->
<g id="edge6" class="edge">
<title>Node6&#45;&gt;Node7</title>
<path fill="none" stroke="midnightblue" d="M295,-15.5C311.45,-15.5 329.17,-15.5 345.71,-15.5"/>
<polygon fill="midnightblue" stroke="midnightblue" points="345.84,-19 355.84,-15.5 345.84,-12 345.84,-19"/>
</g>
</g>
</svg>
