<?xml version="1.0" encoding="UTF-8" standalone="no"?>
<!DOCTYPE svg PUBLIC "-//W3C//DTD SVG 1.1//EN"
 "http://www.w3.org/Graphics/SVG/1.1/DTD/svg11.dtd">
<!-- Generated by graphviz version 2.43.0 (0)
 -->
<!-- Title: carta::Session::OnSetImageChannels Pages: 1 -->
<svg width="701pt" height="88pt"
 viewBox="0.00 0.00 701.00 88.00" xmlns="http://www.w3.org/2000/svg" xmlns:xlink="http://www.w3.org/1999/xlink">
<g id="graph0" class="graph" transform="scale(1 1) rotate(0) translate(4 84)">
<title>carta::Session::OnSetImageChannels</title>
<!-- Node1 -->
<g id="node1" class="node">
<title>Node1</title>
<g id="a_node1"><a xlink:title=" ">
<polygon fill="#bfbfbf" stroke="black" points="542,-24.5 542,-54.5 693,-54.5 693,-24.5 542,-24.5"/>
<text text-anchor="start" x="550" y="-42.5" font-family="Helvetica,sans-Serif" font-size="10.00">carta::Session::OnSetImage</text>
<text text-anchor="middle" x="617.5" y="-31.5" font-family="Helvetica,sans-Serif" font-size="10.00">Channels</text>
</a>
</g>
</g>
<!-- Node2 -->
<g id="node2" class="node">
<title>Node2</title>
<g id="a_node2"><a xlink:href="classcarta_1_1Session.html#a258addc8994b72cb71c51280d3850bf4" target="_top" xlink:title=" ">
<polygon fill="none" stroke="black" points="361,-49.5 361,-79.5 506,-79.5 506,-49.5 361,-49.5"/>
<text text-anchor="start" x="369" y="-67.5" font-family="Helvetica,sans-Serif" font-size="10.00">carta::Session::ExecuteSet</text>
<text text-anchor="middle" x="433.5" y="-56.5" font-family="Helvetica,sans-Serif" font-size="10.00">ChannelEvt</text>
</a>
</g>
</g>
<!-- Node1&#45;&gt;Node2 -->
<g id="edge1" class="edge">
<title>Node1&#45;&gt;Node2</title>
<path fill="none" stroke="midnightblue" d="M531.94,-51.12C523.36,-52.29 514.71,-53.48 506.29,-54.64"/>
<polygon fill="midnightblue" stroke="midnightblue" points="532.52,-54.57 541.95,-49.74 531.57,-47.63 532.52,-54.57"/>
</g>
<!-- Node4 -->
<g id="node4" class="node">
<title>Node4</title>
<g id="a_node4"><a xlink:href="classcarta_1_1Session.html#afe5c090c017ef208f638b96a7eb1ecf0" target="_top" xlink:title=" ">
<polygon fill="none" stroke="black" points="361.5,-0.5 361.5,-30.5 505.5,-30.5 505.5,-0.5 361.5,-0.5"/>
<text text-anchor="start" x="369.5" y="-18.5" font-family="Helvetica,sans-Serif" font-size="10.00">carta::Session::OnResume</text>
<text text-anchor="middle" x="433.5" y="-7.5" font-family="Helvetica,sans-Serif" font-size="10.00">Session</text>
</a>
</g>
</g>
<!-- Node1&#45;&gt;Node4 -->
<g id="edge3" class="edge">
<title>Node1&#45;&gt;Node4</title>
<path fill="none" stroke="midnightblue" d="M531.77,-28.33C523.05,-27.18 514.26,-26.02 505.71,-24.89"/>
<polygon fill="midnightblue" stroke="midnightblue" points="531.58,-31.83 541.95,-29.67 532.49,-24.89 531.58,-31.83"/>
</g>
<!-- Node3 -->
<g id="node3" class="node">
<title>Node3</title>
<g id="a_node3"><a xlink:href="classcarta_1_1SetImageChannelsTask.html#a060a6a6a22fa9d26231e36e640534527" target="_top" xlink:title=" ">
<polygon fill="none" stroke="black" points="164,-49.5 164,-79.5 325,-79.5 325,-49.5 164,-49.5"/>
<text text-anchor="start" x="172" y="-67.5" font-family="Helvetica,sans-Serif" font-size="10.00">carta::SetImageChannelsTask</text>
<text text-anchor="middle" x="244.5" y="-56.5" font-family="Helvetica,sans-Serif" font-size="10.00">::execute</text>
</a>
</g>
</g>
<!-- Node2&#45;&gt;Node3 -->
<g id="edge2" class="edge">
<title>Node2&#45;&gt;Node3</title>
<path fill="none" stroke="midnightblue" d="M350.54,-64.5C342.12,-64.5 333.57,-64.5 325.17,-64.5"/>
<polygon fill="midnightblue" stroke="midnightblue" points="350.74,-68 360.74,-64.5 350.74,-61 350.74,-68"/>
</g>
<!-- Node5 -->
<g id="node5" class="node">
<title>Node5</title>
<g id="a_node5"><a xlink:href="classcarta_1_1SessionManager.html#a474c31666cb3b22fcbe8af5f945d2950" target="_top" xlink:title=" ">
<polygon fill="none" stroke="black" points="180.5,-0.5 180.5,-30.5 308.5,-30.5 308.5,-0.5 180.5,-0.5"/>
<text text-anchor="start" x="188.5" y="-18.5" font-family="Helvetica,sans-Serif" font-size="10.00">carta::SessionManager</text>
<text text-anchor="middle" x="244.5" y="-7.5" font-family="Helvetica,sans-Serif" font-size="10.00">::OnMessage</text>
</a>
</g>
</g>
<!-- Node4&#45;&gt;Node5 -->
<g id="edge4" class="edge">
<title>Node4&#45;&gt;Node5</title>
<path fill="none" stroke="midnightblue" d="M351,-15.5C336.79,-15.5 322.2,-15.5 308.57,-15.5"/>
<polygon fill="midnightblue" stroke="midnightblue" points="351.27,-19 361.27,-15.5 351.27,-12 351.27,-19"/>
</g>
<!-- Node6 -->
<g id="node6" class="node">
<title>Node6</title>
<g id="a_node6"><a xlink:href="classcarta_1_1SessionManager.html#ab4e4e7f0244bd6843e70ab91652debf6" target="_top" xlink:title=" ">
<polygon fill="none" stroke="black" points="0,-0.5 0,-30.5 128,-30.5 128,-0.5 0,-0.5"/>
<text text-anchor="start" x="8" y="-18.5" font-family="Helvetica,sans-Serif" font-size="10.00">carta::SessionManager</text>
<text text-anchor="middle" x="64" y="-7.5" font-family="Helvetica,sans-Serif" font-size="10.00">::RunApp</text>
</a>
</g>
</g>
<!-- Node5&#45;&gt;Node6 -->
<g id="edge5" class="edge">
<title>Node5&#45;&gt;Node6</title>
<path fill="none" stroke="midnightblue" d="M170.25,-15.5C156.26,-15.5 141.73,-15.5 128.1,-15.5"/>
<polygon fill="midnightblue" stroke="midnightblue" points="170.32,-19 180.32,-15.5 170.32,-12 170.32,-19"/>
</g>
</g>
</svg>
