<?xml version="1.0" encoding="UTF-8" standalone="no"?>
<!DOCTYPE svg PUBLIC "-//W3C//DTD SVG 1.1//EN"
 "http://www.w3.org/Graphics/SVG/1.1/DTD/svg11.dtd">
<!-- Generated by graphviz version 2.43.0 (0)
 -->
<!-- Title: carta::LoaderCache::Get Pages: 1 -->
<!--zoomable 330 -->
<svg id="main" version="1.1" xmlns="http://www.w3.org/2000/svg" xmlns:xlink="http://www.w3.org/1999/xlink" xml:space="preserve" onload="init(evt)">
<style type="text/css"><![CDATA[
.edge:hover path { stroke: red; }
.edge:hover polygon { stroke: red; fill: red; }
]]></style>
<script type="text/javascript"><![CDATA[
var edges = document.getElementsByTagName('g');
if (edges && edges.length) {
  for (var i=0;i<edges.length;i++) {
    if (edges[i].id.substr(0,4)=='edge') {
      edges[i].setAttribute('class','edge');
    }
  }
}
]]></script>
        <defs>
                <circle id="rim" cx="0" cy="0" r="7"/>
                <circle id="rim2" cx="0" cy="0" r="3.5"/>
                <g id="zoomPlus">
                        <use xlink:href="#rim" fill="#404040">
                                <set attributeName="fill" to="#808080" begin="zoomplus.mouseover" end="zoomplus.mouseout"/>
                        </use>
                        <path d="M-4,0h8M0,-4v8" fill="none" stroke="white" stroke-width="1.5" pointer-events="none"/>
                </g>
                <g id="zoomMin">
                        <use xlink:href="#rim" fill="#404040">
                                <set attributeName="fill" to="#808080" begin="zoomminus.mouseover" end="zoomminus.mouseout"/>
                        </use>
                        <path d="M-4,0h8" fill="none" stroke="white" stroke-width="1.5" pointer-events="none"/>
                </g>
                <g id="dirArrow">
                        <path fill="none" stroke="white" stroke-width="1.5" d="M0,-3.0v7 M-2.5,-0.5L0,-3.0L2.5,-0.5"/>
                </g>
               <g id="resetDef">
                       <use xlink:href="#rim2" fill="#404040">
                               <set attributeName="fill" to="#808080" begin="reset.mouseover" end="reset.mouseout"/>
                       </use>
               </g>
        </defs>

<script type="text/javascript">
var viewWidth = 1231;
var viewHeight = 330;
var sectionId = 'dynsection-2';
</script>
<script xlink:href="svgpan.js"/>
<svg id="graph" class="graph">
<g id="viewport">
<title>carta::LoaderCache::Get</title>
<!-- Node1 -->
<g id="node1" class="node">
<title>Node1</title>
<g id="a_node1"><a xlink:title=" ">
<polygon fill="#bfbfbf" stroke="black" points="1089,-110 1089,-129 1223,-129 1223,-110 1089,-110"/>
<text text-anchor="middle" x="1156" y="-117" font-family="Helvetica,sans-Serif" font-size="10.00">carta::LoaderCache::Get</text>
</a>
</g>
</g>
<!-- Node2 -->
<g id="node2" class="node">
<title>Node2</title>
<g id="a_node2"><a xlink:href="classcarta_1_1Session.html#ae5d6e7145e441059fb26e3f23834880d" target="_top" xlink:title=" ">
<polygon fill="none" stroke="black" points="902,-82.5 902,-112.5 1053,-112.5 1053,-82.5 902,-82.5"/>
<text text-anchor="start" x="910" y="-100.5" font-family="Helvetica,sans-Serif" font-size="10.00">carta::Session::FillExtended</text>
<text text-anchor="middle" x="977.5" y="-89.5" font-family="Helvetica,sans-Serif" font-size="10.00">FileInfo</text>
</a>
</g>
</g>
<!-- Node1&#45;&gt;Node2 -->
<g id="edge1" class="edge">
<title>Node1&#45;&gt;Node2</title>
<path fill="none" stroke="midnightblue" d="M1078.84,-110.01C1070.31,-108.94 1061.62,-107.86 1053.1,-106.8"/>
<polygon fill="midnightblue" stroke="midnightblue" points="1078.42,-113.48 1088.78,-111.25 1079.29,-106.54 1078.42,-113.48"/>
</g>
<!-- Node6 -->
<g id="node6" class="node">
<title>Node6</title>
<g id="a_node6"><a xlink:href="classcarta_1_1Session.html#a54c5dc766deb62f608792ce551a1b885" target="_top" xlink:title=" ">
<polygon fill="none" stroke="black" points="709.5,-160 709.5,-179 856.5,-179 856.5,-160 709.5,-160"/>
<text text-anchor="middle" x="783" y="-167" font-family="Helvetica,sans-Serif" font-size="10.00">carta::Session::OnOpenFile</text>
</a>
</g>
</g>
<!-- Node1&#45;&gt;Node6 -->
<g id="edge18" class="edge">
<title>Node1&#45;&gt;Node6</title>
<path fill="none" stroke="midnightblue" d="M1078.38,-129.83C1012.68,-138.68 918.77,-151.34 854.81,-159.96"/>
<polygon fill="midnightblue" stroke="midnightblue" points="1079.23,-133.24 1088.67,-128.44 1078.29,-126.31 1079.23,-133.24"/>
</g>
<!-- Node3 -->
<g id="node3" class="node">
<title>Node3</title>
<g id="a_node3"><a xlink:href="classcarta_1_1Session.html#a8874927da900745afae4a0d975ed0453" target="_top" xlink:title=" ">
<polygon fill="none" stroke="black" points="330,-60.5 330,-90.5 470,-90.5 470,-60.5 330,-60.5"/>
<text text-anchor="start" x="338" y="-78.5" font-family="Helvetica,sans-Serif" font-size="10.00">carta::Session::OnFileInfo</text>
<text text-anchor="middle" x="400" y="-67.5" font-family="Helvetica,sans-Serif" font-size="10.00">Request</text>
</a>
</g>
</g>
<!-- Node2&#45;&gt;Node3 -->
<g id="edge2" class="edge">
<title>Node2&#45;&gt;Node3</title>
<path fill="none" stroke="midnightblue" d="M891.47,-91.19C828.66,-86.81 741.05,-81.28 664,-78.5 598.29,-76.13 523.29,-75.48 470.24,-75.36"/>
<polygon fill="midnightblue" stroke="midnightblue" points="891.51,-94.71 901.73,-91.91 892,-87.72 891.51,-94.71"/>
</g>
<!-- Node2&#45;&gt;Node6 -->
<g id="edge5" class="edge">
<title>Node2&#45;&gt;Node6</title>
<path fill="none" stroke="midnightblue" d="M926.42,-116.23C888.96,-130.24 839.27,-148.83 809.58,-159.93"/>
<polygon fill="midnightblue" stroke="midnightblue" points="928.01,-119.38 936.15,-112.59 925.55,-112.82 928.01,-119.38"/>
</g>
<!-- Node11 -->
<g id="node11" class="node">
<title>Node11</title>
<g id="a_node11"><a xlink:href="classcarta_1_1Session.html#a07bfe19708d3e272d01fef6f18712aa2" target="_top" xlink:title=" ">
<polygon fill="none" stroke="black" points="508,-88 508,-107 664,-107 664,-88 508,-88"/>
<text text-anchor="middle" x="586" y="-95" font-family="Helvetica,sans-Serif" font-size="10.00">carta::Session::OnPvRequest</text>
</a>
</g>
</g>
<!-- Node2&#45;&gt;Node11 -->
<g id="edge15" class="edge">
<title>Node2&#45;&gt;Node11</title>
<path fill="none" stroke="midnightblue" d="M891.64,-97.5C823.86,-97.5 729.68,-97.5 664.05,-97.5"/>
<polygon fill="midnightblue" stroke="midnightblue" points="891.86,-101 901.86,-97.5 891.86,-94 891.86,-101"/>
</g>
<!-- Node12 -->
<g id="node12" class="node">
<title>Node12</title>
<g id="a_node12"><a xlink:href="classcarta_1_1Session.html#af8a5cb91e4f627673631d7648bbaed75" target="_top" xlink:title=" ">
<polygon fill="none" stroke="black" points="700,-9 700,-28 866,-28 866,-9 700,-9"/>
<text text-anchor="middle" x="783" y="-16" font-family="Helvetica,sans-Serif" font-size="10.00">carta::Session::SendPvPreview</text>
</a>
</g>
</g>
<!-- Node2&#45;&gt;Node12 -->
<g id="edge16" class="edge">
<title>Node2&#45;&gt;Node12</title>
<path fill="none" stroke="midnightblue" d="M937.7,-77.82C916.74,-67.56 890.26,-55.16 866,-45.5 849.85,-39.07 831.5,-32.92 816.26,-28.12"/>
<polygon fill="midnightblue" stroke="midnightblue" points="936.4,-81.09 946.92,-82.37 939.5,-74.81 936.4,-81.09"/>
</g>
<!-- Node4 -->
<g id="node4" class="node">
<title>Node4</title>
<g id="a_node4"><a xlink:href="classcarta_1_1SessionManager.html#a474c31666cb3b22fcbe8af5f945d2950" target="_top" xlink:title=" ">
<polygon fill="none" stroke="black" points="164,-139.5 164,-169.5 292,-169.5 292,-139.5 164,-139.5"/>
<text text-anchor="start" x="172" y="-157.5" font-family="Helvetica,sans-Serif" font-size="10.00">carta::SessionManager</text>
<text text-anchor="middle" x="228" y="-146.5" font-family="Helvetica,sans-Serif" font-size="10.00">::OnMessage</text>
</a>
</g>
</g>
<!-- Node3&#45;&gt;Node4 -->
<g id="edge3" class="edge">
<title>Node3&#45;&gt;Node4</title>
<path fill="none" stroke="midnightblue" d="M357.4,-94.83C327.88,-108.55 288.8,-126.71 261.54,-139.38"/>
<polygon fill="midnightblue" stroke="midnightblue" points="359.03,-97.93 366.62,-90.55 356.08,-91.59 359.03,-97.93"/>
</g>
<!-- Node5 -->
<g id="node5" class="node">
<title>Node5</title>
<g id="a_node5"><a xlink:href="classcarta_1_1SessionManager.html#ab4e4e7f0244bd6843e70ab91652debf6" target="_top" xlink:title=" ">
<polygon fill="none" stroke="black" points="0,-139.5 0,-169.5 128,-169.5 128,-139.5 0,-139.5"/>
<text text-anchor="start" x="8" y="-157.5" font-family="Helvetica,sans-Serif" font-size="10.00">carta::SessionManager</text>
<text text-anchor="middle" x="64" y="-146.5" font-family="Helvetica,sans-Serif" font-size="10.00">::RunApp</text>
</a>
</g>
</g>
<!-- Node4&#45;&gt;Node5 -->
<g id="edge4" class="edge">
<title>Node4&#45;&gt;Node5</title>
<path fill="none" stroke="midnightblue" d="M153.63,-154.5C145.14,-154.5 136.53,-154.5 128.19,-154.5"/>
<polygon fill="midnightblue" stroke="midnightblue" points="153.9,-158 163.9,-154.5 153.9,-151 153.9,-158"/>
</g>
<!-- Node6&#45;&gt;Node4 -->
<g id="edge11" class="edge">
<title>Node6&#45;&gt;Node4</title>
<path fill="none" stroke="midnightblue" d="M702.87,-158.83C689.9,-157.45 676.59,-156.26 664,-155.5 531.89,-147.54 376.8,-150.01 292.1,-152.36"/>
<polygon fill="midnightblue" stroke="midnightblue" points="702.85,-162.35 713.17,-159.98 703.62,-155.4 702.85,-162.35"/>
</g>
<!-- Node7 -->
<g id="node7" class="node">
<title>Node7</title>
<g id="a_node7"><a xlink:href="classcarta_1_1Session.html#aed12d0369de4c3391dba300cb77e9241" target="_top" xlink:title=" ">
<polygon fill="none" stroke="black" points="517,-164.5 517,-194.5 655,-194.5 655,-164.5 517,-164.5"/>
<text text-anchor="start" x="525" y="-182.5" font-family="Helvetica,sans-Serif" font-size="10.00">carta::Session::OnConcat</text>
<text text-anchor="middle" x="586" y="-171.5" font-family="Helvetica,sans-Serif" font-size="10.00">StokesFiles</text>
</a>
</g>
</g>
<!-- Node6&#45;&gt;Node7 -->
<g id="edge6" class="edge">
<title>Node6&#45;&gt;Node7</title>
<path fill="none" stroke="midnightblue" d="M699.29,-173.74C684.58,-174.5 669.4,-175.27 655.15,-176.01"/>
<polygon fill="midnightblue" stroke="midnightblue" points="699.58,-177.23 709.39,-173.22 699.22,-170.24 699.58,-177.23"/>
</g>
<!-- Node8 -->
<g id="node8" class="node">
<title>Node8</title>
<g id="a_node8"><a xlink:href="classcarta_1_1Session.html#afe5c090c017ef208f638b96a7eb1ecf0" target="_top" xlink:title=" ">
<polygon fill="none" stroke="black" points="328,-202.5 328,-232.5 472,-232.5 472,-202.5 328,-202.5"/>
<text text-anchor="start" x="336" y="-220.5" font-family="Helvetica,sans-Serif" font-size="10.00">carta::Session::OnResume</text>
<text text-anchor="middle" x="400" y="-209.5" font-family="Helvetica,sans-Serif" font-size="10.00">Session</text>
</a>
</g>
</g>
<!-- Node6&#45;&gt;Node8 -->
<g id="edge14" class="edge">
<title>Node6&#45;&gt;Node8</title>
<path fill="none" stroke="midnightblue" d="M772.32,-188.22C755.25,-218.91 716.59,-278.86 664,-302.5 600.76,-330.93 573.46,-325.34 508,-302.5 468.35,-288.67 432.38,-253.33 413.95,-232.84"/>
<polygon fill="midnightblue" stroke="midnightblue" points="775.43,-189.84 777.09,-179.37 769.26,-186.51 775.43,-189.84"/>
</g>
<!-- Node9 -->
<g id="node9" class="node">
<title>Node9</title>
<g id="a_node9"><a xlink:href="classcarta_1_1Session.html#a5589e4dca9e6a51055f15da1d9ac1b3c" target="_top" xlink:title=" ">
<polygon fill="none" stroke="black" points="518.5,-262.5 518.5,-292.5 653.5,-292.5 653.5,-262.5 518.5,-262.5"/>
<text text-anchor="start" x="526.5" y="-280.5" font-family="Helvetica,sans-Serif" font-size="10.00">carta::Session::OnFitting</text>
<text text-anchor="middle" x="586" y="-269.5" font-family="Helvetica,sans-Serif" font-size="10.00">Request</text>
</a>
</g>
</g>
<!-- Node6&#45;&gt;Node9 -->
<g id="edge10" class="edge">
<title>Node6&#45;&gt;Node9</title>
<path fill="none" stroke="midnightblue" d="M763.36,-185.64C741.06,-204.25 701.95,-234.68 664,-253.5 657.35,-256.8 650.16,-259.76 642.92,-262.38"/>
<polygon fill="midnightblue" stroke="midnightblue" points="765.68,-188.27 771.05,-179.14 761.15,-182.92 765.68,-188.27"/>
</g>
<!-- Node10 -->
<g id="node10" class="node">
<title>Node10</title>
<g id="a_node10"><a xlink:href="classcarta_1_1Session.html#a8fe2527b0a83c67240ef4a31a86e4978" target="_top" xlink:title=" ">
<polygon fill="none" stroke="black" points="513.5,-213.5 513.5,-243.5 658.5,-243.5 658.5,-213.5 513.5,-213.5"/>
<text text-anchor="start" x="521.5" y="-231.5" font-family="Helvetica,sans-Serif" font-size="10.00">carta::Session::OnMoment</text>
<text text-anchor="middle" x="586" y="-220.5" font-family="Helvetica,sans-Serif" font-size="10.00">Request</text>
</a>
</g>
</g>
<!-- Node6&#45;&gt;Node10 -->
<g id="edge12" class="edge">
<title>Node6&#45;&gt;Node10</title>
<path fill="none" stroke="midnightblue" d="M740.39,-182.09C710.03,-191.28 668.76,-203.76 636.67,-213.47"/>
<polygon fill="midnightblue" stroke="midnightblue" points="741.68,-185.36 750.24,-179.11 739.65,-178.66 741.68,-185.36"/>
</g>
<!-- Node6&#45;&gt;Node11 -->
<g id="edge13" class="edge">
<title>Node6&#45;&gt;Node11</title>
<path fill="none" stroke="midnightblue" d="M750.54,-155.86C726.93,-145.83 693.69,-132.15 664,-121.5 649.63,-116.35 633.54,-111.23 619.8,-107.06"/>
<polygon fill="midnightblue" stroke="midnightblue" points="749.46,-159.2 760.03,-159.92 752.21,-152.77 749.46,-159.2"/>
</g>
<!-- Node7&#45;&gt;Node4 -->
<g id="edge7" class="edge">
<title>Node7&#45;&gt;Node4</title>
<path fill="none" stroke="midnightblue" d="M506.67,-174C442.24,-169.47 352.11,-163.15 292.21,-158.94"/>
<polygon fill="midnightblue" stroke="midnightblue" points="506.56,-177.5 516.78,-174.71 507.05,-170.52 506.56,-177.5"/>
</g>
<!-- Node7&#45;&gt;Node8 -->
<g id="edge8" class="edge">
<title>Node7&#45;&gt;Node8</title>
<path fill="none" stroke="midnightblue" d="M506.76,-195.66C495.3,-198.03 483.54,-200.45 472.22,-202.79"/>
<polygon fill="midnightblue" stroke="midnightblue" points="507.66,-199.05 516.75,-193.6 506.25,-192.19 507.66,-199.05"/>
</g>
<!-- Node8&#45;&gt;Node4 -->
<g id="edge9" class="edge">
<title>Node8&#45;&gt;Node4</title>
<path fill="none" stroke="midnightblue" d="M348.88,-198.93C323.65,-189.57 293.45,-178.39 269.68,-169.58"/>
<polygon fill="midnightblue" stroke="midnightblue" points="347.69,-202.22 358.28,-202.41 350.12,-195.65 347.69,-202.22"/>
</g>
<!-- Node13 -->
<g id="node13" class="node">
<title>Node13</title>
<g id="a_node13"><a xlink:href="classcarta_1_1PvPreviewUpdateTask.html#ad8fc7c242731d4bae2e2928f0cdf613a" target="_top" xlink:title=" ">
<polygon fill="none" stroke="black" points="508.5,-0.5 508.5,-30.5 663.5,-30.5 663.5,-0.5 508.5,-0.5"/>
<text text-anchor="start" x="516.5" y="-18.5" font-family="Helvetica,sans-Serif" font-size="10.00">carta::PvPreviewUpdateTask</text>
<text text-anchor="middle" x="586" y="-7.5" font-family="Helvetica,sans-Serif" font-size="10.00">::execute</text>
</a>
</g>
</g>
<!-- Node12&#45;&gt;Node13 -->
<g id="edge17" class="edge">
<title>Node12&#45;&gt;Node13</title>
<path fill="none" stroke="midnightblue" d="M689.71,-17.08C681.02,-16.95 672.28,-16.81 663.75,-16.68"/>
<polygon fill="midnightblue" stroke="midnightblue" points="689.81,-20.58 699.87,-17.24 689.92,-13.58 689.81,-20.58"/>
</g>
</g>
</svg>
        <g id="navigator" transform="translate(0 0)" fill="#404254">
                <rect fill="#f2f5e9" fill-opacity="0.5" stroke="#606060" stroke-width=".5" x="0" y="0" width="60" height="60"/>
                <use id="zoomplus" xlink:href="#zoomPlus" x="17" y="9" onmousedown="handleZoom(evt,'in')"/>
                <use id="zoomminus" xlink:href="#zoomMin" x="42" y="9" onmousedown="handleZoom(evt,'out')"/>
                <use id="reset" xlink:href="#resetDef" x="30" y="36" onmousedown="handleReset()"/>
                <g id="arrowUp" xlink:href="#dirArrow" transform="translate(30 24)" onmousedown="handlePan(0,-1)">
                  <use xlink:href="#rim" fill="#404040">
                        <set attributeName="fill" to="#808080" begin="arrowUp.mouseover" end="arrowUp.mouseout"/>
                  </use>
                  <path fill="none" stroke="white" stroke-width="1.5" d="M0,-3.0v7 M-2.5,-0.5L0,-3.0L2.5,-0.5"/>
                </g>
                <g id="arrowRight" xlink:href="#dirArrow" transform="rotate(90) translate(36 -43)" onmousedown="handlePan(1,0)">
                  <use xlink:href="#rim" fill="#404040">
                        <set attributeName="fill" to="#808080" begin="arrowRight.mouseover" end="arrowRight.mouseout"/>
                  </use>
                  <path fill="none" stroke="white" stroke-width="1.5" d="M0,-3.0v7 M-2.5,-0.5L0,-3.0L2.5,-0.5"/>
                </g>
                <g id="arrowDown" xlink:href="#dirArrow" transform="rotate(180) translate(-30 -48)" onmousedown="handlePan(0,1)">
                  <use xlink:href="#rim" fill="#404040">
                        <set attributeName="fill" to="#808080" begin="arrowDown.mouseover" end="arrowDown.mouseout"/>
                  </use>
                  <path fill="none" stroke="white" stroke-width="1.5" d="M0,-3.0v7 M-2.5,-0.5L0,-3.0L2.5,-0.5"/>
                </g>
                <g id="arrowLeft" xlink:href="#dirArrow" transform="rotate(270) translate(-36 17)" onmousedown="handlePan(-1,0)">
                  <use xlink:href="#rim" fill="#404040">
                        <set attributeName="fill" to="#808080" begin="arrowLeft.mouseover" end="arrowLeft.mouseout"/>
                  </use>
                  <path fill="none" stroke="white" stroke-width="1.5" d="M0,-3.0v7 M-2.5,-0.5L0,-3.0L2.5,-0.5"/>
                </g>
        </g>
        <svg viewBox="0 0 15 15" width="100%" height="30px" preserveAspectRatio="xMaxYMin meet">
         <g id="arrow_out" transform="scale(0.3 0.3)">
          <a xlink:href="classcarta_1_1LoaderCache_a341be9f1278d337b6e7a0a347de474c1_icgraph_org.svg" target="_base">
           <rect id="button" ry="5" rx="5" y="6" x="6" height="38" width="38"
                fill="#f2f5e9" fill-opacity="0.5" stroke="#606060" stroke-width="1.0"/>
           <path id="arrow"
             d="M 11.500037,31.436501 C 11.940474,20.09759 22.043105,11.32322 32.158766,21.979434 L 37.068811,17.246167 C 37.068811,17.246167 37.088388,32 37.088388,32 L 22.160133,31.978069 C 22.160133,31.978069 26.997745,27.140456 26.997745,27.140456 C 18.528582,18.264221 13.291696,25.230495 11.500037,31.436501 z"
             style="fill:#404040;"/>
          </a>
         </g>
        </svg>
</svg>
