<?xml version="1.0" encoding="UTF-8" standalone="no"?>
<!DOCTYPE svg PUBLIC "-//W3C//DTD SVG 1.1//EN"
 "http://www.w3.org/Graphics/SVG/1.1/DTD/svg11.dtd">
<!-- Generated by graphviz version 2.43.0 (0)
 -->
<!-- Title: carta::FileExtInfoLoader::AddComputedEntries Pages: 1 -->
<svg width="747pt" height="431pt"
 viewBox="0.00 0.00 747.00 431.00" xmlns="http://www.w3.org/2000/svg" xmlns:xlink="http://www.w3.org/1999/xlink">
<g id="graph0" class="graph" transform="scale(1 1) rotate(0) translate(4 427)">
<title>carta::FileExtInfoLoader::AddComputedEntries</title>
<!-- Node1 -->
<g id="node1" class="node">
<title>Node1</title>
<g id="a_node1"><a xlink:title=" ">
<polygon fill="#bfbfbf" stroke="black" points="0,-218.5 0,-248.5 132,-248.5 132,-218.5 0,-218.5"/>
<text text-anchor="start" x="8" y="-236.5" font-family="Helvetica,sans-Serif" font-size="10.00">carta::FileExtInfoLoader</text>
<text text-anchor="middle" x="66" y="-225.5" font-family="Helvetica,sans-Serif" font-size="10.00">::AddComputedEntries</text>
</a>
</g>
</g>
<!-- Node2 -->
<g id="node2" class="node">
<title>Node2</title>
<g id="a_node2"><a xlink:href="classcarta_1_1FileExtInfoLoader.html#ab48aafc0658d62a106134eb6a3836bb2" target="_top" xlink:title=" ">
<polygon fill="none" stroke="black" points="197.5,-322.5 197.5,-352.5 329.5,-352.5 329.5,-322.5 197.5,-322.5"/>
<text text-anchor="start" x="205.5" y="-340.5" font-family="Helvetica,sans-Serif" font-size="10.00">carta::FileExtInfoLoader</text>
<text text-anchor="middle" x="263.5" y="-329.5" font-family="Helvetica,sans-Serif" font-size="10.00">::AddBeamEntry</text>
</a>
</g>
</g>
<!-- Node1&#45;&gt;Node2 -->
<g id="edge1" class="edge">
<title>Node1&#45;&gt;Node2</title>
<path fill="none" stroke="midnightblue" d="M84.09,-248.75C103.31,-265.21 136.02,-291.26 168,-307.5 176.54,-311.84 185.84,-315.71 195.16,-319.11"/>
<polygon fill="midnightblue" stroke="midnightblue" points="194.25,-322.5 204.84,-322.48 196.55,-315.89 194.25,-322.5"/>
</g>
<!-- Node3 -->
<g id="node3" class="node">
<title>Node3</title>
<g id="a_node3"><a xlink:href="classcarta_1_1FileExtInfoLoader.html#a8342f64879c5561486247de8766a12c9" target="_top" xlink:title=" ">
<polygon fill="none" stroke="black" points="168,-196.5 168,-226.5 359,-226.5 359,-196.5 168,-196.5"/>
<text text-anchor="start" x="176" y="-214.5" font-family="Helvetica,sans-Serif" font-size="10.00">carta::FileExtInfoLoader</text>
<text text-anchor="middle" x="263.5" y="-203.5" font-family="Helvetica,sans-Serif" font-size="10.00">::AddComputedEntriesFromHeaders</text>
</a>
</g>
</g>
<!-- Node1&#45;&gt;Node3 -->
<g id="edge2" class="edge">
<title>Node1&#45;&gt;Node3</title>
<path fill="none" stroke="midnightblue" d="M132.1,-226.17C140.32,-225.25 148.89,-224.28 157.54,-223.31"/>
<polygon fill="midnightblue" stroke="midnightblue" points="158.16,-226.76 167.71,-222.17 157.38,-219.81 158.16,-226.76"/>
</g>
<!-- Node4 -->
<g id="node4" class="node">
<title>Node4</title>
<g id="a_node4"><a xlink:href="classcarta_1_1FileExtInfoLoader.html#a02cd16701178cf515aca3f5623537611" target="_top" xlink:title=" ">
<polygon fill="none" stroke="black" points="405.5,-392.5 405.5,-422.5 537.5,-422.5 537.5,-392.5 405.5,-392.5"/>
<text text-anchor="start" x="413.5" y="-410.5" font-family="Helvetica,sans-Serif" font-size="10.00">carta::FileExtInfoLoader</text>
<text text-anchor="middle" x="471.5" y="-399.5" font-family="Helvetica,sans-Serif" font-size="10.00">::AddCoordRanges</text>
</a>
</g>
</g>
<!-- Node1&#45;&gt;Node4 -->
<g id="edge13" class="edge">
<title>Node1&#45;&gt;Node4</title>
<path fill="none" stroke="midnightblue" d="M101.08,-248.68C120.42,-256.87 145.24,-266.66 168,-273.5 251.07,-298.45 290.01,-260.94 359,-313.5 386.83,-334.7 368.28,-360.91 395,-383.5 396.54,-384.8 398.14,-386.03 399.81,-387.19"/>
<polygon fill="midnightblue" stroke="midnightblue" points="398.18,-390.3 408.55,-392.47 401.8,-384.3 398.18,-390.3"/>
</g>
<!-- Node5 -->
<g id="node5" class="node">
<title>Node5</title>
<g id="a_node5"><a xlink:href="classcarta_1_1FileExtInfoLoader.html#adb3998e3b3756d1ee8a2bb91f445c4d7" target="_top" xlink:title=" ">
<polygon fill="none" stroke="black" points="405.5,-343.5 405.5,-373.5 537.5,-373.5 537.5,-343.5 405.5,-343.5"/>
<text text-anchor="start" x="413.5" y="-361.5" font-family="Helvetica,sans-Serif" font-size="10.00">carta::FileExtInfoLoader</text>
<text text-anchor="middle" x="471.5" y="-350.5" font-family="Helvetica,sans-Serif" font-size="10.00">::ConvertCoordsToDeg</text>
</a>
</g>
</g>
<!-- Node1&#45;&gt;Node5 -->
<g id="edge14" class="edge">
<title>Node1&#45;&gt;Node5</title>
<path fill="none" stroke="midnightblue" d="M132.3,-237.65C206.65,-243.42 322.52,-255.93 359,-279.5 383.54,-295.36 371.73,-316.83 395,-334.5 396.82,-335.89 398.73,-337.19 400.7,-338.42"/>
<polygon fill="midnightblue" stroke="midnightblue" points="399.24,-341.62 409.69,-343.37 402.61,-335.48 399.24,-341.62"/>
</g>
<!-- Node6 -->
<g id="node6" class="node">
<title>Node6</title>
<g id="a_node6"><a xlink:href="classcarta_1_1FileExtInfoLoader.html#ac36abc843ecdd6253cbb9524c77bc5ce" target="_top" xlink:title=" ">
<polygon fill="none" stroke="black" points="395,-49.5 395,-79.5 548,-79.5 548,-49.5 395,-49.5"/>
<text text-anchor="start" x="403" y="-67.5" font-family="Helvetica,sans-Serif" font-size="10.00">carta::FileExtInfoLoader</text>
<text text-anchor="middle" x="471.5" y="-56.5" font-family="Helvetica,sans-Serif" font-size="10.00">::ConvertIncrementToArcsec</text>
</a>
</g>
</g>
<!-- Node1&#45;&gt;Node6 -->
<g id="edge15" class="edge">
<title>Node1&#45;&gt;Node6</title>
<path fill="none" stroke="midnightblue" d="M97.7,-218.47C155.18,-190.67 283.32,-130.24 395,-88.5 400.15,-86.57 405.54,-84.66 410.96,-82.81"/>
<polygon fill="midnightblue" stroke="midnightblue" points="412.34,-86.04 420.71,-79.55 410.12,-79.4 412.34,-86.04"/>
</g>
<!-- Node13 -->
<g id="node13" class="node">
<title>Node13</title>
<g id="a_node13"><a xlink:href="classcarta_1_1FileExtInfoLoader.html#afa0abc9c6dd40164f472c7554adc32b6" target="_top" xlink:title=" ">
<polygon fill="none" stroke="black" points="405.5,-0.5 405.5,-30.5 537.5,-30.5 537.5,-0.5 405.5,-0.5"/>
<text text-anchor="start" x="413.5" y="-18.5" font-family="Helvetica,sans-Serif" font-size="10.00">carta::FileExtInfoLoader</text>
<text text-anchor="middle" x="471.5" y="-7.5" font-family="Helvetica,sans-Serif" font-size="10.00">::MakeAngleString</text>
</a>
</g>
</g>
<!-- Node1&#45;&gt;Node13 -->
<g id="edge16" class="edge">
<title>Node1&#45;&gt;Node13</title>
<path fill="none" stroke="midnightblue" d="M74.07,-218.34C87.97,-190.26 121.56,-130.15 168,-98.5 236.46,-51.85 330.36,-31.34 395.3,-22.37"/>
<polygon fill="midnightblue" stroke="midnightblue" points="396.01,-25.8 405.47,-21.02 395.1,-18.86 396.01,-25.8"/>
</g>
<!-- Node3&#45;&gt;Node4 -->
<g id="edge3" class="edge">
<title>Node3&#45;&gt;Node4</title>
<path fill="none" stroke="midnightblue" d="M294.27,-226.5C315.04,-238.34 341.98,-256.64 359,-279.5 388.22,-318.73 359.98,-349.36 395,-383.5 396.11,-384.58 397.26,-385.61 398.46,-386.6"/>
<polygon fill="midnightblue" stroke="midnightblue" points="396.7,-389.63 406.91,-392.45 400.68,-383.88 396.7,-389.63"/>
</g>
<!-- Node3&#45;&gt;Node5 -->
<g id="edge4" class="edge">
<title>Node3&#45;&gt;Node5</title>
<path fill="none" stroke="midnightblue" d="M336.46,-226.61C344.71,-230.49 352.48,-235.37 359,-241.5 391.3,-271.85 362.71,-304.14 395,-334.5 396.13,-335.56 397.3,-336.57 398.52,-337.54"/>
<polygon fill="midnightblue" stroke="midnightblue" points="396.81,-340.61 407.05,-343.31 400.72,-334.81 396.81,-340.61"/>
</g>
<!-- Node3&#45;&gt;Node6 -->
<g id="edge5" class="edge">
<title>Node3&#45;&gt;Node6</title>
<path fill="none" stroke="midnightblue" d="M298.07,-196.32C317.61,-186.26 341.7,-171.59 359,-153.5 381.82,-129.63 369.45,-109.43 395,-88.5 396.56,-87.23 398.18,-86.02 399.86,-84.87"/>
<polygon fill="midnightblue" stroke="midnightblue" points="401.84,-87.77 408.67,-79.67 398.28,-81.74 401.84,-87.77"/>
</g>
<!-- Node7 -->
<g id="node7" class="node">
<title>Node7</title>
<g id="a_node7"><a xlink:href="classcarta_1_1FileExtInfoLoader.html#a807261055dc7071b232cf87138dba416" target="_top" xlink:title=" ">
<polygon fill="none" stroke="black" points="405.5,-196.5 405.5,-226.5 537.5,-226.5 537.5,-196.5 405.5,-196.5"/>
<text text-anchor="start" x="413.5" y="-214.5" font-family="Helvetica,sans-Serif" font-size="10.00">carta::FileExtInfoLoader</text>
<text text-anchor="middle" x="471.5" y="-203.5" font-family="Helvetica,sans-Serif" font-size="10.00">::GetCoordNames</text>
</a>
</g>
</g>
<!-- Node3&#45;&gt;Node7 -->
<g id="edge6" class="edge">
<title>Node3&#45;&gt;Node7</title>
<path fill="none" stroke="midnightblue" d="M359.06,-211.5C371.17,-211.5 383.43,-211.5 395.18,-211.5"/>
<polygon fill="midnightblue" stroke="midnightblue" points="395.35,-215 405.35,-211.5 395.35,-208 395.35,-215"/>
</g>
<!-- Node8 -->
<g id="node8" class="node">
<title>Node8</title>
<g id="a_node8"><a xlink:href="classcarta_1_1CompressedFits.html#a067a3b895e9c95ecec6ebef781b5b002" target="_top" xlink:title=" ">
<polygon fill="none" stroke="black" points="409,-147.5 409,-177.5 534,-177.5 534,-147.5 409,-147.5"/>
<text text-anchor="start" x="417" y="-165.5" font-family="Helvetica,sans-Serif" font-size="10.00">carta::CompressedFits</text>
<text text-anchor="middle" x="471.5" y="-154.5" font-family="Helvetica,sans-Serif" font-size="10.00">::GetShape</text>
</a>
</g>
</g>
<!-- Node3&#45;&gt;Node8 -->
<g id="edge7" class="edge">
<title>Node3&#45;&gt;Node8</title>
<path fill="none" stroke="midnightblue" d="M327.71,-196.47C350.27,-191.1 375.84,-185.02 399.04,-179.5"/>
<polygon fill="midnightblue" stroke="midnightblue" points="399.91,-182.89 408.83,-177.17 398.29,-176.08 399.91,-182.89"/>
</g>
<!-- Node9 -->
<g id="node9" class="node">
<title>Node9</title>
<g id="a_node9"><a xlink:href="classcarta_1_1CompressedFits.html#a94ad95eeea905e363783008bdc03fd73" target="_top" xlink:title=" ">
<polygon fill="none" stroke="black" points="409,-98.5 409,-128.5 534,-128.5 534,-98.5 409,-98.5"/>
<text text-anchor="start" x="417" y="-116.5" font-family="Helvetica,sans-Serif" font-size="10.00">carta::CompressedFits</text>
<text text-anchor="middle" x="471.5" y="-105.5" font-family="Helvetica,sans-Serif" font-size="10.00">::GetSpecSuffix</text>
</a>
</g>
</g>
<!-- Node3&#45;&gt;Node9 -->
<g id="edge8" class="edge">
<title>Node3&#45;&gt;Node9</title>
<path fill="none" stroke="midnightblue" d="M287.78,-196.32C313.31,-180.16 355.86,-154.6 395,-137.5 399.34,-135.6 403.88,-133.78 408.49,-132.05"/>
<polygon fill="midnightblue" stroke="midnightblue" points="409.77,-135.31 417.99,-128.63 407.4,-128.73 409.77,-135.31"/>
</g>
<!-- Node10 -->
<g id="node10" class="node">
<title>Node10</title>
<g id="a_node10"><a xlink:href="classcarta_1_1CompressedFits.html#ab35da87aa3352a33b11cc1a457ae309c" target="_top" xlink:title=" ">
<polygon fill="none" stroke="black" points="409,-294.5 409,-324.5 534,-324.5 534,-294.5 409,-294.5"/>
<text text-anchor="start" x="417" y="-312.5" font-family="Helvetica,sans-Serif" font-size="10.00">carta::CompressedFits</text>
<text text-anchor="middle" x="471.5" y="-301.5" font-family="Helvetica,sans-Serif" font-size="10.00">::GetStokesSuffix</text>
</a>
</g>
</g>
<!-- Node3&#45;&gt;Node10 -->
<g id="edge9" class="edge">
<title>Node3&#45;&gt;Node10</title>
<path fill="none" stroke="midnightblue" d="M329.35,-226.56C339.75,-230.5 350.03,-235.41 359,-241.5 379.91,-255.69 374.1,-271.31 395,-285.5 397.27,-287.04 399.64,-288.49 402.09,-289.84"/>
<polygon fill="midnightblue" stroke="midnightblue" points="400.71,-293.07 411.23,-294.38 403.82,-286.8 400.71,-293.07"/>
</g>
<!-- Node11 -->
<g id="node11" class="node">
<title>Node11</title>
<g id="a_node11"><a xlink:href="classcarta_1_1CompressedFits.html#a08d166346f4e5dd3261602727205943d" target="_top" xlink:title=" ">
<polygon fill="none" stroke="black" points="409,-245.5 409,-275.5 534,-275.5 534,-245.5 409,-245.5"/>
<text text-anchor="start" x="417" y="-263.5" font-family="Helvetica,sans-Serif" font-size="10.00">carta::CompressedFits</text>
<text text-anchor="middle" x="471.5" y="-252.5" font-family="Helvetica,sans-Serif" font-size="10.00">::GetTransformMatrix</text>
</a>
</g>
</g>
<!-- Node3&#45;&gt;Node11 -->
<g id="edge10" class="edge">
<title>Node3&#45;&gt;Node11</title>
<path fill="none" stroke="midnightblue" d="M327.71,-226.53C350.27,-231.9 375.84,-237.98 399.04,-243.5"/>
<polygon fill="midnightblue" stroke="midnightblue" points="398.29,-246.92 408.83,-245.83 399.91,-240.11 398.29,-246.92"/>
</g>
<!-- Node3&#45;&gt;Node13 -->
<g id="edge12" class="edge">
<title>Node3&#45;&gt;Node13</title>
<path fill="none" stroke="midnightblue" d="M271.84,-196.37C288.78,-162.99 333.91,-82.63 395,-39.5 397.11,-38.01 399.32,-36.61 401.61,-35.29"/>
<polygon fill="midnightblue" stroke="midnightblue" points="403.41,-38.29 410.71,-30.61 400.21,-32.07 403.41,-38.29"/>
</g>
<!-- Node12 -->
<g id="node12" class="node">
<title>Node12</title>
<g id="a_node12"><a xlink:href="classcarta_1_1CompressedFits.html#a27e31cc4d4f75f55f592a274b898c416" target="_top" xlink:title=" ">
<polygon fill="none" stroke="black" points="584,-245.5 584,-275.5 739,-275.5 739,-245.5 584,-245.5"/>
<text text-anchor="start" x="592" y="-263.5" font-family="Helvetica,sans-Serif" font-size="10.00">carta::CompressedFits</text>
<text text-anchor="middle" x="661.5" y="-252.5" font-family="Helvetica,sans-Serif" font-size="10.00">::SetDefaultTransformMatrix</text>
</a>
</g>
</g>
<!-- Node11&#45;&gt;Node12 -->
<g id="edge11" class="edge">
<title>Node11&#45;&gt;Node12</title>
<path fill="none" stroke="midnightblue" d="M534.06,-260.5C546.69,-260.5 560.21,-260.5 573.54,-260.5"/>
<polygon fill="midnightblue" stroke="midnightblue" points="573.68,-264 583.68,-260.5 573.68,-257 573.68,-264"/>
</g>
</g>
</svg>
