<?xml version="1.0" encoding="UTF-8" standalone="no"?>
<!DOCTYPE svg PUBLIC "-//W3C//DTD SVG 1.1//EN"
 "http://www.w3.org/Graphics/SVG/1.1/DTD/svg11.dtd">
<!-- Generated by graphviz version 2.43.0 (0)
 -->
<!-- Title: carta::CrtfImportExport::CrtfImportExport Pages: 1 -->
<svg width="421pt" height="137pt"
 viewBox="0.00 0.00 421.00 137.00" xmlns="http://www.w3.org/2000/svg" xmlns:xlink="http://www.w3.org/1999/xlink">
<g id="graph0" class="graph" transform="scale(1 1) rotate(0) translate(4 133)">
<title>carta::CrtfImportExport::CrtfImportExport</title>
<!-- Node1 -->
<g id="node1" class="node">
<title>Node1</title>
<g id="a_node1"><a xlink:title=" ">
<polygon fill="#bfbfbf" stroke="black" points="0,-49.5 0,-79.5 129,-79.5 129,-49.5 0,-49.5"/>
<text text-anchor="start" x="8" y="-67.5" font-family="Helvetica,sans-Serif" font-size="10.00">carta::CrtfImportExport</text>
<text text-anchor="middle" x="64.5" y="-56.5" font-family="Helvetica,sans-Serif" font-size="10.00">::CrtfImportExport</text>
</a>
</g>
</g>
<!-- Node2 -->
<g id="node2" class="node">
<title>Node2</title>
<g id="a_node2"><a xlink:href="classcarta_1_1CrtfImportExport.html#a56822ffcdfaf92e84091ca60c84e0747" target="_top" xlink:title=" ">
<polygon fill="none" stroke="black" points="173,-98.5 173,-128.5 302,-128.5 302,-98.5 173,-98.5"/>
<text text-anchor="start" x="181" y="-116.5" font-family="Helvetica,sans-Serif" font-size="10.00">carta::CrtfImportExport</text>
<text text-anchor="middle" x="237.5" y="-105.5" font-family="Helvetica,sans-Serif" font-size="10.00">::ProcessFileLines</text>
</a>
</g>
</g>
<!-- Node1&#45;&gt;Node2 -->
<g id="edge1" class="edge">
<title>Node1&#45;&gt;Node2</title>
<path fill="none" stroke="midnightblue" d="M118.2,-79.6C135.92,-84.68 155.85,-90.39 174.23,-95.66"/>
<polygon fill="midnightblue" stroke="midnightblue" points="173.4,-99.06 183.97,-98.45 175.32,-92.33 173.4,-99.06"/>
</g>
<!-- Node3 -->
<g id="node3" class="node">
<title>Node3</title>
<g id="a_node3"><a xlink:href="classcarta_1_1RegionImportExport.html#a98aad0229b8b63943800e4920c10b71c" target="_top" xlink:title=" ">
<polygon fill="none" stroke="black" points="165,-49.5 165,-79.5 310,-79.5 310,-49.5 165,-49.5"/>
<text text-anchor="start" x="173" y="-67.5" font-family="Helvetica,sans-Serif" font-size="10.00">carta::RegionImportExport</text>
<text text-anchor="middle" x="237.5" y="-56.5" font-family="Helvetica,sans-Serif" font-size="10.00">::ReadRegionFile</text>
</a>
</g>
</g>
<!-- Node1&#45;&gt;Node3 -->
<g id="edge2" class="edge">
<title>Node1&#45;&gt;Node3</title>
<path fill="none" stroke="midnightblue" d="M129.17,-64.5C137.5,-64.5 146.12,-64.5 154.7,-64.5"/>
<polygon fill="midnightblue" stroke="midnightblue" points="154.72,-68 164.72,-64.5 154.72,-61 154.72,-68"/>
</g>
<!-- Node5 -->
<g id="node5" class="node">
<title>Node5</title>
<g id="a_node5"><a xlink:href="classcarta_1_1RegionImportExport.html#a948056d082fdce1689ce12c9c4c353dc" target="_top" xlink:title=" ">
<polygon fill="none" stroke="black" points="165,-0.5 165,-30.5 310,-30.5 310,-0.5 165,-0.5"/>
<text text-anchor="start" x="173" y="-18.5" font-family="Helvetica,sans-Serif" font-size="10.00">carta::RegionImportExport</text>
<text text-anchor="middle" x="237.5" y="-7.5" font-family="Helvetica,sans-Serif" font-size="10.00">::SetParserDelim</text>
</a>
</g>
</g>
<!-- Node1&#45;&gt;Node5 -->
<g id="edge4" class="edge">
<title>Node1&#45;&gt;Node5</title>
<path fill="none" stroke="midnightblue" d="M118.2,-49.4C135.92,-44.32 155.85,-38.61 174.23,-33.34"/>
<polygon fill="midnightblue" stroke="midnightblue" points="175.32,-36.67 183.97,-30.55 173.4,-29.94 175.32,-36.67"/>
</g>
<!-- Node4 -->
<g id="node4" class="node">
<title>Node4</title>
<g id="a_node4"><a xlink:href="String_8cc.html#a2ae58d8319d2fb200c76f1e0e7951a77" target="_top" xlink:title=" ">
<polygon fill="none" stroke="black" points="346,-55 346,-74 413,-74 413,-55 346,-55"/>
<text text-anchor="middle" x="379.5" y="-62" font-family="Helvetica,sans-Serif" font-size="10.00">SplitString</text>
</a>
</g>
</g>
<!-- Node3&#45;&gt;Node4 -->
<g id="edge3" class="edge">
<title>Node3&#45;&gt;Node4</title>
<path fill="none" stroke="midnightblue" d="M310.14,-64.5C318.84,-64.5 327.51,-64.5 335.6,-64.5"/>
<polygon fill="midnightblue" stroke="midnightblue" points="335.87,-68 345.87,-64.5 335.87,-61 335.87,-68"/>
</g>
</g>
</svg>
