<?xml version="1.0" encoding="UTF-8" standalone="no"?>
<!DOCTYPE svg PUBLIC "-//W3C//DTD SVG 1.1//EN"
 "http://www.w3.org/Graphics/SVG/1.1/DTD/svg11.dtd">
<!-- Generated by graphviz version 2.43.0 (0)
 -->
<!-- Title: carta::Ds9ImportExport::ImportRectangleRegion Pages: 1 -->
<svg width="520pt" height="176pt"
 viewBox="0.00 0.00 520.00 176.00" xmlns="http://www.w3.org/2000/svg" xmlns:xlink="http://www.w3.org/1999/xlink">
<g id="graph0" class="graph" transform="scale(1 1) rotate(0) translate(4 172)">
<title>carta::Ds9ImportExport::ImportRectangleRegion</title>
<!-- Node1 -->
<g id="node1" class="node">
<title>Node1</title>
<g id="a_node1"><a xlink:title=" ">
<polygon fill="#bfbfbf" stroke="black" points="0,-66.5 0,-96.5 137,-96.5 137,-66.5 0,-66.5"/>
<text text-anchor="start" x="8" y="-84.5" font-family="Helvetica,sans-Serif" font-size="10.00">carta::Ds9ImportExport</text>
<text text-anchor="middle" x="68.5" y="-73.5" font-family="Helvetica,sans-Serif" font-size="10.00">::ImportRectangleRegion</text>
</a>
</g>
</g>
<!-- Node2 -->
<g id="node2" class="node">
<title>Node2</title>
<g id="a_node2"><a xlink:href="classcarta_1_1RegionImportExport.html#a4dbf1bb6405ba5cbc0dea6803c3d2eef" target="_top" xlink:title=" ">
<polygon fill="none" stroke="black" points="173,-137.5 173,-167.5 318,-167.5 318,-137.5 173,-137.5"/>
<text text-anchor="start" x="181" y="-155.5" font-family="Helvetica,sans-Serif" font-size="10.00">carta::RegionImportExport</text>
<text text-anchor="middle" x="245.5" y="-144.5" font-family="Helvetica,sans-Serif" font-size="10.00">::ConvertPointToPixels</text>
</a>
</g>
</g>
<!-- Node1&#45;&gt;Node2 -->
<g id="edge1" class="edge">
<title>Node1&#45;&gt;Node2</title>
<path fill="none" stroke="midnightblue" d="M101.84,-96.69C122.11,-106.01 148.87,-117.94 173,-127.5 178.48,-129.67 184.24,-131.85 190,-133.97"/>
<polygon fill="midnightblue" stroke="midnightblue" points="189.07,-137.35 199.67,-137.46 191.45,-130.77 189.07,-137.35"/>
</g>
<!-- Node3 -->
<g id="node3" class="node">
<title>Node3</title>
<g id="a_node3"><a xlink:href="classcarta_1_1Ds9ImportExport.html#ac467f316f95fb7df1f782c59834cc104" target="_top" xlink:title=" ">
<polygon fill="none" stroke="black" points="180.5,-88.5 180.5,-118.5 310.5,-118.5 310.5,-88.5 180.5,-88.5"/>
<text text-anchor="start" x="188.5" y="-106.5" font-family="Helvetica,sans-Serif" font-size="10.00">carta::Ds9ImportExport</text>
<text text-anchor="middle" x="245.5" y="-95.5" font-family="Helvetica,sans-Serif" font-size="10.00">::ParamToQuantity</text>
</a>
</g>
</g>
<!-- Node1&#45;&gt;Node3 -->
<g id="edge2" class="edge">
<title>Node1&#45;&gt;Node3</title>
<path fill="none" stroke="midnightblue" d="M137.16,-90.01C148.06,-91.38 159.39,-92.8 170.43,-94.19"/>
<polygon fill="midnightblue" stroke="midnightblue" points="170.11,-97.68 180.47,-95.45 170.98,-90.73 170.11,-97.68"/>
</g>
<!-- Node6 -->
<g id="node6" class="node">
<title>Node6</title>
<g id="a_node6"><a xlink:href="classMessage.html#a0c0bb5e50ad8b90bade291ab17a18cf5" target="_top" xlink:title=" ">
<polygon fill="none" stroke="black" points="200,-50 200,-69 291,-69 291,-50 200,-50"/>
<text text-anchor="middle" x="245.5" y="-57" font-family="Helvetica,sans-Serif" font-size="10.00">Message::Point</text>
</a>
</g>
</g>
<!-- Node1&#45;&gt;Node6 -->
<g id="edge5" class="edge">
<title>Node1&#45;&gt;Node6</title>
<path fill="none" stroke="midnightblue" d="M137.16,-72.99C154.6,-70.8 173.16,-68.47 189.85,-66.37"/>
<polygon fill="midnightblue" stroke="midnightblue" points="190.48,-69.82 199.97,-65.1 189.61,-62.87 190.48,-69.82"/>
</g>
<!-- Node7 -->
<g id="node7" class="node">
<title>Node7</title>
<g id="a_node7"><a xlink:href="classcarta_1_1RegionImportExport.html#a316dd4dbbc4907464ac3ed89c6b41cf5" target="_top" xlink:title=" ">
<polygon fill="none" stroke="black" points="173,-0.5 173,-30.5 318,-30.5 318,-0.5 173,-0.5"/>
<text text-anchor="start" x="181" y="-18.5" font-family="Helvetica,sans-Serif" font-size="10.00">carta::RegionImportExport</text>
<text text-anchor="middle" x="245.5" y="-7.5" font-family="Helvetica,sans-Serif" font-size="10.00">::WorldToPixelLength</text>
</a>
</g>
</g>
<!-- Node1&#45;&gt;Node7 -->
<g id="edge6" class="edge">
<title>Node1&#45;&gt;Node7</title>
<path fill="none" stroke="midnightblue" d="M106.73,-66.33C126.36,-58.43 150.91,-48.73 173,-40.5 178.82,-38.33 184.93,-36.11 191.02,-33.93"/>
<polygon fill="midnightblue" stroke="midnightblue" points="192.28,-37.2 200.54,-30.56 189.94,-30.6 192.28,-37.2"/>
</g>
<!-- Node4 -->
<g id="node4" class="node">
<title>Node4</title>
<g id="a_node4"><a xlink:href="classcarta_1_1Ds9ImportExport.html#a4a6b4a25d131ae9fc0a4f3380e6b6521" target="_top" xlink:title=" ">
<polygon fill="none" stroke="black" points="354,-112.5 354,-142.5 512,-142.5 512,-112.5 354,-112.5"/>
<text text-anchor="start" x="362" y="-130.5" font-family="Helvetica,sans-Serif" font-size="10.00">carta::Ds9ImportExport</text>
<text text-anchor="middle" x="433" y="-119.5" font-family="Helvetica,sans-Serif" font-size="10.00">::ConvertTimeFormatToAngle</text>
</a>
</g>
</g>
<!-- Node3&#45;&gt;Node4 -->
<g id="edge3" class="edge">
<title>Node3&#45;&gt;Node4</title>
<path fill="none" stroke="midnightblue" d="M310.6,-111.79C321.26,-113.17 332.49,-114.62 343.63,-116.07"/>
<polygon fill="midnightblue" stroke="midnightblue" points="343.45,-119.57 353.81,-117.38 344.35,-112.63 343.45,-119.57"/>
</g>
<!-- Node5 -->
<g id="node5" class="node">
<title>Node5</title>
<g id="a_node5"><a xlink:href="classcarta_1_1Ds9ImportExport.html#a59d1155bdf996a30a72faed8fc5ef384" target="_top" xlink:title=" ">
<polygon fill="none" stroke="black" points="368,-63.5 368,-93.5 498,-93.5 498,-63.5 368,-63.5"/>
<text text-anchor="start" x="376" y="-81.5" font-family="Helvetica,sans-Serif" font-size="10.00">carta::Ds9ImportExport</text>
<text text-anchor="middle" x="433" y="-70.5" font-family="Helvetica,sans-Serif" font-size="10.00">::Ds9ToCasacoreUnit</text>
</a>
</g>
</g>
<!-- Node3&#45;&gt;Node5 -->
<g id="edge4" class="edge">
<title>Node3&#45;&gt;Node5</title>
<path fill="none" stroke="midnightblue" d="M310.6,-94.86C325.8,-92.81 342.15,-90.61 357.76,-88.51"/>
<polygon fill="midnightblue" stroke="midnightblue" points="358.46,-91.94 367.9,-87.14 357.52,-85.01 358.46,-91.94"/>
</g>
</g>
</svg>
