<?xml version="1.0" encoding="UTF-8" standalone="no"?>
<!DOCTYPE svg PUBLIC "-//W3C//DTD SVG 1.1//EN"
 "http://www.w3.org/Graphics/SVG/1.1/DTD/svg11.dtd">
<!-- Generated by graphviz version 2.43.0 (0)
 -->
<!-- Title: carta::Ds9ImportExport::ImportEllipseRegion Pages: 1 -->
<svg width="513pt" height="176pt"
 viewBox="0.00 0.00 513.00 176.00" xmlns="http://www.w3.org/2000/svg" xmlns:xlink="http://www.w3.org/1999/xlink">
<g id="graph0" class="graph" transform="scale(1 1) rotate(0) translate(4 172)">
<title>carta::Ds9ImportExport::ImportEllipseRegion</title>
<!-- Node1 -->
<g id="node1" class="node">
<title>Node1</title>
<g id="a_node1"><a xlink:title=" ">
<polygon fill="#bfbfbf" stroke="black" points="0,-66.5 0,-96.5 130,-96.5 130,-66.5 0,-66.5"/>
<text text-anchor="start" x="8" y="-84.5" font-family="Helvetica,sans-Serif" font-size="10.00">carta::Ds9ImportExport</text>
<text text-anchor="middle" x="65" y="-73.5" font-family="Helvetica,sans-Serif" font-size="10.00">::ImportEllipseRegion</text>
</a>
</g>
</g>
<!-- Node2 -->
<g id="node2" class="node">
<title>Node2</title>
<g id="a_node2"><a xlink:href="classcarta_1_1RegionImportExport.html#a4dbf1bb6405ba5cbc0dea6803c3d2eef" target="_top" xlink:title=" ">
<polygon fill="none" stroke="black" points="166,-137.5 166,-167.5 311,-167.5 311,-137.5 166,-137.5"/>
<text text-anchor="start" x="174" y="-155.5" font-family="Helvetica,sans-Serif" font-size="10.00">carta::RegionImportExport</text>
<text text-anchor="middle" x="238.5" y="-144.5" font-family="Helvetica,sans-Serif" font-size="10.00">::ConvertPointToPixels</text>
</a>
</g>
</g>
<!-- Node1&#45;&gt;Node2 -->
<g id="edge1" class="edge">
<title>Node1&#45;&gt;Node2</title>
<path fill="none" stroke="midnightblue" d="M96.75,-96.56C116.36,-105.94 142.43,-117.98 166,-127.5 171.39,-129.68 177.05,-131.85 182.73,-133.95"/>
<polygon fill="midnightblue" stroke="midnightblue" points="181.66,-137.28 192.25,-137.41 184.05,-130.7 181.66,-137.28"/>
</g>
<!-- Node3 -->
<g id="node3" class="node">
<title>Node3</title>
<g id="a_node3"><a xlink:href="classcarta_1_1Ds9ImportExport.html#ac467f316f95fb7df1f782c59834cc104" target="_top" xlink:title=" ">
<polygon fill="none" stroke="black" points="173.5,-88.5 173.5,-118.5 303.5,-118.5 303.5,-88.5 173.5,-88.5"/>
<text text-anchor="start" x="181.5" y="-106.5" font-family="Helvetica,sans-Serif" font-size="10.00">carta::Ds9ImportExport</text>
<text text-anchor="middle" x="238.5" y="-95.5" font-family="Helvetica,sans-Serif" font-size="10.00">::ParamToQuantity</text>
</a>
</g>
</g>
<!-- Node1&#45;&gt;Node3 -->
<g id="edge2" class="edge">
<title>Node1&#45;&gt;Node3</title>
<path fill="none" stroke="midnightblue" d="M130.35,-89.75C141.12,-91.14 152.37,-92.58 163.36,-93.99"/>
<polygon fill="midnightblue" stroke="midnightblue" points="163,-97.47 173.36,-95.27 163.89,-90.53 163,-97.47"/>
</g>
<!-- Node6 -->
<g id="node6" class="node">
<title>Node6</title>
<g id="a_node6"><a xlink:href="classMessage.html#a0c0bb5e50ad8b90bade291ab17a18cf5" target="_top" xlink:title=" ">
<polygon fill="none" stroke="black" points="193,-50 193,-69 284,-69 284,-50 193,-50"/>
<text text-anchor="middle" x="238.5" y="-57" font-family="Helvetica,sans-Serif" font-size="10.00">Message::Point</text>
</a>
</g>
</g>
<!-- Node1&#45;&gt;Node6 -->
<g id="edge5" class="edge">
<title>Node1&#45;&gt;Node6</title>
<path fill="none" stroke="midnightblue" d="M130.35,-73.25C147.59,-71.03 166.06,-68.66 182.72,-66.53"/>
<polygon fill="midnightblue" stroke="midnightblue" points="183.37,-69.97 192.84,-65.23 182.48,-63.03 183.37,-69.97"/>
</g>
<!-- Node7 -->
<g id="node7" class="node">
<title>Node7</title>
<g id="a_node7"><a xlink:href="classcarta_1_1RegionImportExport.html#a316dd4dbbc4907464ac3ed89c6b41cf5" target="_top" xlink:title=" ">
<polygon fill="none" stroke="black" points="166,-0.5 166,-30.5 311,-30.5 311,-0.5 166,-0.5"/>
<text text-anchor="start" x="174" y="-18.5" font-family="Helvetica,sans-Serif" font-size="10.00">carta::RegionImportExport</text>
<text text-anchor="middle" x="238.5" y="-7.5" font-family="Helvetica,sans-Serif" font-size="10.00">::WorldToPixelLength</text>
</a>
</g>
</g>
<!-- Node1&#45;&gt;Node7 -->
<g id="edge6" class="edge">
<title>Node1&#45;&gt;Node7</title>
<path fill="none" stroke="midnightblue" d="M101.46,-66.43C120.49,-58.47 144.42,-48.69 166,-40.5 171.59,-38.38 177.45,-36.22 183.31,-34.11"/>
<polygon fill="midnightblue" stroke="midnightblue" points="184.88,-37.26 193.12,-30.61 182.53,-30.67 184.88,-37.26"/>
</g>
<!-- Node4 -->
<g id="node4" class="node">
<title>Node4</title>
<g id="a_node4"><a xlink:href="classcarta_1_1Ds9ImportExport.html#a4a6b4a25d131ae9fc0a4f3380e6b6521" target="_top" xlink:title=" ">
<polygon fill="none" stroke="black" points="347,-112.5 347,-142.5 505,-142.5 505,-112.5 347,-112.5"/>
<text text-anchor="start" x="355" y="-130.5" font-family="Helvetica,sans-Serif" font-size="10.00">carta::Ds9ImportExport</text>
<text text-anchor="middle" x="426" y="-119.5" font-family="Helvetica,sans-Serif" font-size="10.00">::ConvertTimeFormatToAngle</text>
</a>
</g>
</g>
<!-- Node3&#45;&gt;Node4 -->
<g id="edge3" class="edge">
<title>Node3&#45;&gt;Node4</title>
<path fill="none" stroke="midnightblue" d="M303.6,-111.79C314.26,-113.17 325.49,-114.62 336.63,-116.07"/>
<polygon fill="midnightblue" stroke="midnightblue" points="336.45,-119.57 346.81,-117.38 337.35,-112.63 336.45,-119.57"/>
</g>
<!-- Node5 -->
<g id="node5" class="node">
<title>Node5</title>
<g id="a_node5"><a xlink:href="classcarta_1_1Ds9ImportExport.html#a59d1155bdf996a30a72faed8fc5ef384" target="_top" xlink:title=" ">
<polygon fill="none" stroke="black" points="361,-63.5 361,-93.5 491,-93.5 491,-63.5 361,-63.5"/>
<text text-anchor="start" x="369" y="-81.5" font-family="Helvetica,sans-Serif" font-size="10.00">carta::Ds9ImportExport</text>
<text text-anchor="middle" x="426" y="-70.5" font-family="Helvetica,sans-Serif" font-size="10.00">::Ds9ToCasacoreUnit</text>
</a>
</g>
</g>
<!-- Node3&#45;&gt;Node5 -->
<g id="edge4" class="edge">
<title>Node3&#45;&gt;Node5</title>
<path fill="none" stroke="midnightblue" d="M303.6,-94.86C318.8,-92.81 335.15,-90.61 350.76,-88.51"/>
<polygon fill="midnightblue" stroke="midnightblue" points="351.46,-91.94 360.9,-87.14 350.52,-85.01 351.46,-91.94"/>
</g>
</g>
</svg>
