<?xml version="1.0" encoding="UTF-8" standalone="no"?>
<!DOCTYPE svg PUBLIC "-//W3C//DTD SVG 1.1//EN"
 "http://www.w3.org/Graphics/SVG/1.1/DTD/svg11.dtd">
<!-- Generated by graphviz version 2.43.0 (0)
 -->
<!-- Title: carta::Column::FillColumnData Pages: 1 -->
<svg width="516pt" height="39pt"
 viewBox="0.00 0.00 516.00 39.00" xmlns="http://www.w3.org/2000/svg" xmlns:xlink="http://www.w3.org/1999/xlink">
<g id="graph0" class="graph" transform="scale(1 1) rotate(0) translate(4 35)">
<title>carta::Column::FillColumnData</title>
<!-- Node1 -->
<g id="node1" class="node">
<title>Node1</title>
<g id="a_node1"><a xlink:title=" ">
<polygon fill="#bfbfbf" stroke="black" points="342,-6 342,-25 508,-25 508,-6 342,-6"/>
<text text-anchor="middle" x="425" y="-13" font-family="Helvetica,sans-Serif" font-size="10.00">carta::Column::FillColumnData</text>
</a>
</g>
</g>
<!-- Node2 -->
<g id="node2" class="node">
<title>Node2</title>
<g id="a_node2"><a xlink:href="classcarta_1_1TableView.html#ab37fd435400ce7b95589c10beb003bc0" target="_top" xlink:title=" ">
<polygon fill="none" stroke="black" points="157,-6 157,-25 306,-25 306,-6 157,-6"/>
<text text-anchor="middle" x="231.5" y="-13" font-family="Helvetica,sans-Serif" font-size="10.00">carta::TableView::FillValues</text>
</a>
</g>
</g>
<!-- Node1&#45;&gt;Node2 -->
<g id="edge1" class="edge">
<title>Node1&#45;&gt;Node2</title>
<path fill="none" stroke="midnightblue" d="M331.88,-15.5C323.27,-15.5 314.62,-15.5 306.21,-15.5"/>
<polygon fill="midnightblue" stroke="midnightblue" points="331.95,-19 341.95,-15.5 331.95,-12 331.95,-19"/>
</g>
<!-- Node3 -->
<g id="node3" class="node">
<title>Node3</title>
<g id="a_node3"><a xlink:href="classcarta_1_1TableController.html#a3057e31ec0c81bb9f4bde8b7371cb8e0" target="_top" xlink:title=" ">
<polygon fill="none" stroke="black" points="0,-0.5 0,-30.5 121,-30.5 121,-0.5 0,-0.5"/>
<text text-anchor="start" x="8" y="-18.5" font-family="Helvetica,sans-Serif" font-size="10.00">carta::TableController</text>
<text text-anchor="middle" x="60.5" y="-7.5" font-family="Helvetica,sans-Serif" font-size="10.00">::OnOpenFileRequest</text>
</a>
</g>
</g>
<!-- Node2&#45;&gt;Node3 -->
<g id="edge2" class="edge">
<title>Node2&#45;&gt;Node3</title>
<path fill="none" stroke="midnightblue" d="M146.76,-15.5C138.13,-15.5 129.49,-15.5 121.2,-15.5"/>
<polygon fill="midnightblue" stroke="midnightblue" points="146.87,-19 156.87,-15.5 146.87,-12 146.87,-19"/>
</g>
</g>
</svg>
