<?xml version="1.0" encoding="UTF-8" standalone="no"?>
<!DOCTYPE svg PUBLIC "-//W3C//DTD SVG 1.1//EN"
 "http://www.w3.org/Graphics/SVG/1.1/DTD/svg11.dtd">
<!-- Generated by graphviz version 2.43.0 (0)
 -->
<!-- Title: carta::Frame::ContourImage Pages: 1 -->
<svg width="1085pt" height="570pt"
 viewBox="0.00 0.00 1085.00 569.50" xmlns="http://www.w3.org/2000/svg" xmlns:xlink="http://www.w3.org/1999/xlink">
<g id="graph0" class="graph" transform="scale(1 1) rotate(0) translate(4 565.5)">
<title>carta::Frame::ContourImage</title>
<!-- Node1 -->
<g id="node1" class="node">
<title>Node1</title>
<g id="a_node1"><a xlink:title=" ">
<polygon fill="#bfbfbf" stroke="black" points="0,-241 0,-260 153,-260 153,-241 0,-241"/>
<text text-anchor="middle" x="76.5" y="-248" font-family="Helvetica,sans-Serif" font-size="10.00">carta::Frame::ContourImage</text>
</a>
</g>
</g>
<!-- Node2 -->
<g id="node2" class="node">
<title>Node2</title>
<g id="a_node2"><a xlink:href="classcarta_1_1Frame.html#a6ad0a2d3fbde3a9f346684e5ce541da6" target="_top" xlink:title=" ">
<polygon fill="none" stroke="black" points="189,-402 189,-421 348,-421 348,-402 189,-402"/>
<text text-anchor="middle" x="268.5" y="-409" font-family="Helvetica,sans-Serif" font-size="10.00">carta::Frame::FillImageCache</text>
</a>
</g>
</g>
<!-- Node1&#45;&gt;Node2 -->
<g id="edge1" class="edge">
<title>Node1&#45;&gt;Node2</title>
<path fill="none" stroke="midnightblue" d="M88.88,-260.23C109.02,-277.47 152.31,-314.45 189,-345.5 209.07,-362.48 232.1,-381.83 248,-395.17"/>
<polygon fill="midnightblue" stroke="midnightblue" points="246.13,-398.16 256.04,-401.9 250.62,-392.8 246.13,-398.16"/>
</g>
<!-- Node13 -->
<g id="node13" class="node">
<title>Node13</title>
<g id="a_node13"><a xlink:href="namespacecarta.html#a3ae47208421b1d4f81037729f3c08fc7" target="_top" xlink:title=" ">
<polygon fill="none" stroke="black" points="203.5,-317 203.5,-336 333.5,-336 333.5,-317 203.5,-317"/>
<text text-anchor="middle" x="268.5" y="-324" font-family="Helvetica,sans-Serif" font-size="10.00">carta::GaussianSmooth</text>
</a>
</g>
</g>
<!-- Node1&#45;&gt;Node13 -->
<g id="edge12" class="edge">
<title>Node1&#45;&gt;Node13</title>
<path fill="none" stroke="midnightblue" d="M101.56,-260.13C135.11,-273.55 196.08,-297.93 234.04,-313.12"/>
<polygon fill="midnightblue" stroke="midnightblue" points="233.05,-316.49 243.63,-316.95 235.65,-309.99 233.05,-316.49"/>
</g>
<!-- Node20 -->
<g id="node20" class="node">
<title>Node20</title>
<g id="a_node20"><a xlink:href="classcarta_1_1Frame.html#a99070db9ce0098cba8ec37c0d3c1d850" target="_top" xlink:title=" ">
<polygon fill="none" stroke="black" points="190.5,-260 190.5,-279 346.5,-279 346.5,-260 190.5,-260"/>
<text text-anchor="middle" x="268.5" y="-267" font-family="Helvetica,sans-Serif" font-size="10.00">carta::Frame::GetRasterData</text>
</a>
</g>
</g>
<!-- Node1&#45;&gt;Node20 -->
<g id="edge21" class="edge">
<title>Node1&#45;&gt;Node20</title>
<path fill="none" stroke="midnightblue" d="M153.14,-258.06C162.01,-258.95 171.12,-259.86 180.13,-260.76"/>
<polygon fill="midnightblue" stroke="midnightblue" points="179.96,-264.26 190.26,-261.78 180.65,-257.3 179.96,-264.26"/>
</g>
<!-- Node25 -->
<g id="node25" class="node">
<title>Node25</title>
<g id="a_node25"><a xlink:href="classMessage.html#a2db1e87dde5d0eb661c819b9a6f02604" target="_top" xlink:title=" ">
<polygon fill="none" stroke="black" points="202,-222 202,-241 335,-241 335,-222 202,-222"/>
<text text-anchor="middle" x="268.5" y="-229" font-family="Helvetica,sans-Serif" font-size="10.00">Message::ImageBounds</text>
</a>
</g>
</g>
<!-- Node1&#45;&gt;Node25 -->
<g id="edge31" class="edge">
<title>Node1&#45;&gt;Node25</title>
<path fill="none" stroke="midnightblue" d="M153.14,-242.94C165.88,-241.66 179.1,-240.34 191.84,-239.07"/>
<polygon fill="midnightblue" stroke="midnightblue" points="192.33,-242.53 201.93,-238.06 191.64,-235.57 192.33,-242.53"/>
</g>
<!-- Node26 -->
<g id="node26" class="node">
<title>Node26</title>
<g id="a_node26"><a xlink:href="classcarta_1_1queuing__rw__mutex__scoped.html#a54adaa778387baae91e6da63ae892ca6" target="_top" xlink:title=" ">
<polygon fill="none" stroke="black" points="198.5,-49.5 198.5,-79.5 338.5,-79.5 338.5,-49.5 198.5,-49.5"/>
<text text-anchor="start" x="206.5" y="-67.5" font-family="Helvetica,sans-Serif" font-size="10.00">carta::queuing_rw_mutex</text>
<text text-anchor="middle" x="268.5" y="-56.5" font-family="Helvetica,sans-Serif" font-size="10.00">_scoped::release</text>
</a>
</g>
</g>
<!-- Node1&#45;&gt;Node26 -->
<g id="edge32" class="edge">
<title>Node1&#45;&gt;Node26</title>
<path fill="none" stroke="midnightblue" d="M87.45,-240.76C116.78,-212.05 203.43,-127.22 244.89,-86.63"/>
<polygon fill="midnightblue" stroke="midnightblue" points="247.39,-89.08 252.09,-79.59 242.49,-84.08 247.39,-89.08"/>
</g>
<!-- Node30 -->
<g id="node30" class="node">
<title>Node30</title>
<g id="a_node30"><a xlink:href="namespacecarta.html#a1fd808a97fe740e0021970ba4f77688a" target="_top" xlink:title=" ">
<polygon fill="none" stroke="black" points="210.5,-184 210.5,-203 326.5,-203 326.5,-184 210.5,-184"/>
<text text-anchor="middle" x="268.5" y="-191" font-family="Helvetica,sans-Serif" font-size="10.00">carta::TraceContours</text>
</a>
</g>
</g>
<!-- Node1&#45;&gt;Node30 -->
<g id="edge37" class="edge">
<title>Node1&#45;&gt;Node30</title>
<path fill="none" stroke="midnightblue" d="M103.42,-240.92C125.88,-232.79 159.35,-221.12 189,-212.5 197.41,-210.05 206.4,-207.67 215.17,-205.46"/>
<polygon fill="midnightblue" stroke="midnightblue" points="216.07,-208.85 224.94,-203.05 214.4,-202.05 216.07,-208.85"/>
</g>
<!-- Node3 -->
<g id="node3" class="node">
<title>Node3</title>
<g id="a_node3"><a xlink:href="classcarta_1_1Timer.html#aad2702a80259920b910fb76642f97b88" target="_top" xlink:title=" ">
<polygon fill="none" stroke="black" points="403.5,-289 403.5,-308 523.5,-308 523.5,-289 403.5,-289"/>
<text text-anchor="middle" x="463.5" y="-296" font-family="Helvetica,sans-Serif" font-size="10.00">carta::Timer::Elapsed</text>
</a>
</g>
</g>
<!-- Node2&#45;&gt;Node3 -->
<g id="edge2" class="edge">
<title>Node2&#45;&gt;Node3</title>
<path fill="none" stroke="midnightblue" d="M285.96,-401.87C319.78,-382.06 397.32,-336.66 437.43,-313.18"/>
<polygon fill="midnightblue" stroke="midnightblue" points="439.23,-316.18 446.09,-308.11 435.69,-310.14 439.23,-316.18"/>
</g>
<!-- Node4 -->
<g id="node4" class="node">
<title>Node4</title>
<g id="a_node4"><a xlink:href="classcarta_1_1Frame.html#a9e748d02f7394ed01b69276b61a79825" target="_top" xlink:title=" ">
<polygon fill="none" stroke="black" points="384,-441 384,-460 543,-460 543,-441 384,-441"/>
<text text-anchor="middle" x="463.5" y="-448" font-family="Helvetica,sans-Serif" font-size="10.00">carta::Frame::GetImageSlicer</text>
</a>
</g>
</g>
<!-- Node2&#45;&gt;Node4 -->
<g id="edge3" class="edge">
<title>Node2&#45;&gt;Node4</title>
<path fill="none" stroke="midnightblue" d="M316.71,-421.04C343.45,-426.44 377.08,-433.24 405.31,-438.94"/>
<polygon fill="midnightblue" stroke="midnightblue" points="404.95,-442.44 415.44,-440.99 406.33,-435.58 404.95,-442.44"/>
</g>
<!-- Node5 -->
<g id="node5" class="node">
<title>Node5</title>
<g id="a_node5"><a xlink:href="classcarta_1_1Frame.html#a79c789ebc62771151da94673a325a31a" target="_top" xlink:title=" ">
<polygon fill="none" stroke="black" points="387.5,-479 387.5,-498 539.5,-498 539.5,-479 387.5,-479"/>
<text text-anchor="middle" x="463.5" y="-486" font-family="Helvetica,sans-Serif" font-size="10.00">carta::Frame::GetSlicerData</text>
</a>
</g>
</g>
<!-- Node2&#45;&gt;Node5 -->
<g id="edge4" class="edge">
<title>Node2&#45;&gt;Node5</title>
<path fill="none" stroke="midnightblue" d="M285.65,-421.19C307.34,-433.86 347.41,-456.01 384,-469.5 390.87,-472.03 398.21,-474.33 405.54,-476.37"/>
<polygon fill="midnightblue" stroke="midnightblue" points="404.92,-479.82 415.48,-479 406.71,-473.06 404.92,-479.82"/>
</g>
<!-- Node6 -->
<g id="node6" class="node">
<title>Node6</title>
<g id="a_node6"><a xlink:href="classcarta_1_1Frame.html#aeff1a00d7f22df6f180888b1d9eaf457" target="_top" xlink:title=" ">
<polygon fill="none" stroke="black" points="590,-460 590,-479 735,-479 735,-460 590,-460"/>
<text text-anchor="middle" x="662.5" y="-467" font-family="Helvetica,sans-Serif" font-size="10.00">carta::Frame::ImageShape</text>
</a>
</g>
</g>
<!-- Node5&#45;&gt;Node6 -->
<g id="edge5" class="edge">
<title>Node5&#45;&gt;Node6</title>
<path fill="none" stroke="midnightblue" d="M539.54,-481.26C552.71,-479.99 566.47,-478.66 579.81,-477.38"/>
<polygon fill="midnightblue" stroke="midnightblue" points="580.3,-480.85 589.92,-476.4 579.63,-473.88 580.3,-480.85"/>
</g>
<!-- Node10 -->
<g id="node10" class="node">
<title>Node10</title>
<g id="a_node10"><a xlink:href="classcarta_1_1Frame.html#afe9bbcad03f6343aba029f48c4e66dc7" target="_top" xlink:title=" ">
<polygon fill="none" stroke="black" points="579,-504 579,-523 746,-523 746,-504 579,-504"/>
<text text-anchor="middle" x="662.5" y="-511" font-family="Helvetica,sans-Serif" font-size="10.00">carta::Frame::IsCurrentZStokes</text>
</a>
</g>
</g>
<!-- Node5&#45;&gt;Node10 -->
<g id="edge9" class="edge">
<title>Node5&#45;&gt;Node10</title>
<path fill="none" stroke="midnightblue" d="M539.54,-498.02C551.52,-499.54 563.99,-501.13 576.18,-502.67"/>
<polygon fill="midnightblue" stroke="midnightblue" points="575.98,-506.18 586.34,-503.96 576.86,-499.23 575.98,-506.18"/>
</g>
<!-- Node7 -->
<g id="node7" class="node">
<title>Node7</title>
<g id="a_node7"><a xlink:href="structStokesSource.html#a7651d6cbedb427f5c00925c5111feac8" target="_top" xlink:title=" ">
<polygon fill="none" stroke="black" points="791,-454.5 791,-484.5 925,-484.5 925,-454.5 791,-454.5"/>
<text text-anchor="start" x="799" y="-472.5" font-family="Helvetica,sans-Serif" font-size="10.00">StokesSource::IsOriginal</text>
<text text-anchor="middle" x="858" y="-461.5" font-family="Helvetica,sans-Serif" font-size="10.00">Image</text>
</a>
</g>
</g>
<!-- Node6&#45;&gt;Node7 -->
<g id="edge6" class="edge">
<title>Node6&#45;&gt;Node7</title>
<path fill="none" stroke="midnightblue" d="M735,-469.5C749.87,-469.5 765.6,-469.5 780.64,-469.5"/>
<polygon fill="midnightblue" stroke="midnightblue" points="780.92,-473 790.92,-469.5 780.92,-466 780.92,-473"/>
</g>
<!-- Node9 -->
<g id="node9" class="node">
<title>Node9</title>
<g id="a_node9"><a xlink:href="classcarta_1_1Frame.html#a8075c3310541d8a14cdc9dc8fc37b117" target="_top" xlink:title=" ">
<polygon fill="none" stroke="black" points="800,-416 800,-435 916,-435 916,-416 800,-416"/>
<text text-anchor="middle" x="858" y="-423" font-family="Helvetica,sans-Serif" font-size="10.00">carta::Frame::IsValid</text>
</a>
</g>
</g>
<!-- Node6&#45;&gt;Node9 -->
<g id="edge8" class="edge">
<title>Node6&#45;&gt;Node9</title>
<path fill="none" stroke="midnightblue" d="M705.49,-459.95C734.77,-453.29 774.04,-444.36 805.26,-437.26"/>
<polygon fill="midnightblue" stroke="midnightblue" points="806.12,-440.66 815.1,-435.03 804.57,-433.83 806.12,-440.66"/>
</g>
<!-- Node8 -->
<g id="node8" class="node">
<title>Node8</title>
<g id="a_node8"><a xlink:href="Stokes_8h.html#a30da07ffd67ed06c1e15e2da4d915e0c" target="_top" xlink:title=" ">
<polygon fill="none" stroke="black" points="970,-460 970,-479 1077,-479 1077,-460 970,-460"/>
<text text-anchor="middle" x="1023.5" y="-467" font-family="Helvetica,sans-Serif" font-size="10.00">IsComputedStokes</text>
</a>
</g>
</g>
<!-- Node7&#45;&gt;Node8 -->
<g id="edge7" class="edge">
<title>Node7&#45;&gt;Node8</title>
<path fill="none" stroke="midnightblue" d="M925.03,-469.5C936.43,-469.5 948.25,-469.5 959.57,-469.5"/>
<polygon fill="midnightblue" stroke="midnightblue" points="959.79,-473 969.79,-469.5 959.79,-466 959.79,-473"/>
</g>
<!-- Node11 -->
<g id="node11" class="node">
<title>Node11</title>
<g id="a_node11"><a xlink:href="classcarta_1_1Frame.html#a30b016834ce04378ba3d0a34f373db3f" target="_top" xlink:title=" ">
<polygon fill="none" stroke="black" points="782,-542 782,-561 934,-561 934,-542 782,-542"/>
<text text-anchor="middle" x="858" y="-549" font-family="Helvetica,sans-Serif" font-size="10.00">carta::Frame::CurrentStokes</text>
</a>
</g>
</g>
<!-- Node10&#45;&gt;Node11 -->
<g id="edge10" class="edge">
<title>Node10&#45;&gt;Node11</title>
<path fill="none" stroke="midnightblue" d="M712.33,-523.09C738.55,-528.24 771.06,-534.62 798.62,-540.03"/>
<polygon fill="midnightblue" stroke="midnightblue" points="798.04,-543.49 808.52,-541.98 799.38,-536.62 798.04,-543.49"/>
</g>
<!-- Node12 -->
<g id="node12" class="node">
<title>Node12</title>
<g id="a_node12"><a xlink:href="classcarta_1_1Frame.html#a1eda290558f3e9a6be5d4149c06e1b7b" target="_top" xlink:title=" ">
<polygon fill="none" stroke="black" points="794.5,-504 794.5,-523 921.5,-523 921.5,-504 794.5,-504"/>
<text text-anchor="middle" x="858" y="-511" font-family="Helvetica,sans-Serif" font-size="10.00">carta::Frame::CurrentZ</text>
</a>
</g>
</g>
<!-- Node10&#45;&gt;Node12 -->
<g id="edge11" class="edge">
<title>Node10&#45;&gt;Node12</title>
<path fill="none" stroke="midnightblue" d="M746.12,-513.5C758.72,-513.5 771.65,-513.5 784.02,-513.5"/>
<polygon fill="midnightblue" stroke="midnightblue" points="784.26,-517 794.26,-513.5 784.26,-510 784.26,-517"/>
</g>
<!-- Node13&#45;&gt;Node3 -->
<g id="edge14" class="edge">
<title>Node13&#45;&gt;Node3</title>
<path fill="none" stroke="midnightblue" d="M333.77,-317.18C352.91,-314.4 373.96,-311.34 393.4,-308.52"/>
<polygon fill="midnightblue" stroke="midnightblue" points="394.01,-311.97 403.4,-307.07 393,-305.05 394.01,-311.97"/>
</g>
<!-- Node14 -->
<g id="node14" class="node">
<title>Node14</title>
<g id="a_node14"><a xlink:href="classcarta_1_1ThreadManager.html#a82cbb5d8370c091ac96c24d0fc4984dc" target="_top" xlink:title=" ">
<polygon fill="none" stroke="black" points="796,-264.5 796,-294.5 920,-294.5 920,-264.5 796,-264.5"/>
<text text-anchor="start" x="804" y="-282.5" font-family="Helvetica,sans-Serif" font-size="10.00">carta::ThreadManager</text>
<text text-anchor="middle" x="858" y="-271.5" font-family="Helvetica,sans-Serif" font-size="10.00">::ApplyThreadLimit</text>
</a>
</g>
</g>
<!-- Node13&#45;&gt;Node14 -->
<g id="edge13" class="edge">
<title>Node13&#45;&gt;Node14</title>
<path fill="none" stroke="midnightblue" d="M333.69,-331.54C425.78,-337.37 600.34,-343.16 746,-317.5 768.58,-313.52 792.77,-305.69 812.78,-298.17"/>
<polygon fill="midnightblue" stroke="midnightblue" points="814.18,-301.39 822.25,-294.52 811.66,-294.85 814.18,-301.39"/>
</g>
<!-- Node15 -->
<g id="node15" class="node">
<title>Node15</title>
<g id="a_node15"><a xlink:href="namespacecarta.html#a497f02167a001abee3a4c3aadaa3c837" target="_top" xlink:title=" ">
<polygon fill="none" stroke="black" points="411.5,-365 411.5,-384 515.5,-384 515.5,-365 411.5,-365"/>
<text text-anchor="middle" x="463.5" y="-372" font-family="Helvetica,sans-Serif" font-size="10.00">carta::MakeKernel</text>
</a>
</g>
</g>
<!-- Node13&#45;&gt;Node15 -->
<g id="edge15" class="edge">
<title>Node13&#45;&gt;Node15</title>
<path fill="none" stroke="midnightblue" d="M308.09,-336.1C338.6,-343.69 381.36,-354.32 414.14,-362.47"/>
<polygon fill="midnightblue" stroke="midnightblue" points="413.43,-365.9 423.97,-364.92 415.11,-359.11 413.43,-365.9"/>
</g>
<!-- Node17 -->
<g id="node17" class="node">
<title>Node17</title>
<g id="a_node17"><a xlink:href="namespacecarta.html#a14ef4865d709f274065adb74f068320e" target="_top" xlink:title=" ">
<polygon fill="none" stroke="black" points="614,-403 614,-422 711,-422 711,-403 614,-403"/>
<text text-anchor="middle" x="662.5" y="-410" font-family="Helvetica,sans-Serif" font-size="10.00">carta::RunKernel</text>
</a>
</g>
</g>
<!-- Node13&#45;&gt;Node17 -->
<g id="edge17" class="edge">
<title>Node13&#45;&gt;Node17</title>
<path fill="none" stroke="midnightblue" d="M281.64,-336.21C301.62,-351.55 343.28,-380.95 384,-393.5 457.2,-416.06 546.23,-417.95 603.37,-416.13"/>
<polygon fill="midnightblue" stroke="midnightblue" points="603.79,-419.62 613.66,-415.76 603.54,-412.63 603.79,-419.62"/>
</g>
<!-- Node19 -->
<g id="node19" class="node">
<title>Node19</title>
<g id="a_node19"><a xlink:href="structcarta_1_1TimeDelta.html#a2cc2c64715140bada3160a3ca890b1a8" target="_top" xlink:title=" ">
<polygon fill="none" stroke="black" points="405.5,-213 405.5,-232 521.5,-232 521.5,-213 405.5,-213"/>
<text text-anchor="middle" x="463.5" y="-220" font-family="Helvetica,sans-Serif" font-size="10.00">carta::TimeDelta::us</text>
</a>
</g>
</g>
<!-- Node13&#45;&gt;Node19 -->
<g id="edge20" class="edge">
<title>Node13&#45;&gt;Node19</title>
<path fill="none" stroke="midnightblue" d="M296.74,-316.98C312.74,-310.54 332.74,-300.94 348,-288.5 368.39,-271.87 361.95,-255.86 384,-241.5 387.74,-239.07 391.75,-236.94 395.93,-235.09"/>
<polygon fill="midnightblue" stroke="midnightblue" points="397.21,-238.35 405.26,-231.46 394.68,-231.83 397.21,-238.35"/>
</g>
<!-- Node16 -->
<g id="node16" class="node">
<title>Node16</title>
<g id="a_node16"><a xlink:href="namespacecarta.html#ae89ff7b7585126d14f73afe321bdc72e" target="_top" xlink:title=" ">
<polygon fill="none" stroke="black" points="617.5,-365 617.5,-384 707.5,-384 707.5,-365 617.5,-365"/>
<text text-anchor="middle" x="662.5" y="-372" font-family="Helvetica,sans-Serif" font-size="10.00">carta::NormPdf</text>
</a>
</g>
</g>
<!-- Node15&#45;&gt;Node16 -->
<g id="edge16" class="edge">
<title>Node15&#45;&gt;Node16</title>
<path fill="none" stroke="midnightblue" d="M515.75,-374.5C543.77,-374.5 578.48,-374.5 607,-374.5"/>
<polygon fill="midnightblue" stroke="midnightblue" points="607.2,-378 617.2,-374.5 607.2,-371 607.2,-378"/>
</g>
<!-- Node17&#45;&gt;Node14 -->
<g id="edge18" class="edge">
<title>Node17&#45;&gt;Node14</title>
<path fill="none" stroke="midnightblue" d="M711.12,-407.34C723.17,-404.52 735.62,-400.18 746,-393.5 768.13,-379.26 764.11,-365.79 782,-346.5 797.02,-330.3 815.52,-313.74 830.39,-301.14"/>
<polygon fill="midnightblue" stroke="midnightblue" points="832.81,-303.67 838.23,-294.57 828.32,-298.31 832.81,-303.67"/>
</g>
<!-- Node18 -->
<g id="node18" class="node">
<title>Node18</title>
<g id="a_node18"><a xlink:href="namespacecarta.html#a64f1569d1c90db30af9f2d719f9ffe59" target="_top" xlink:title=" ">
<polygon fill="none" stroke="black" points="813.5,-356 813.5,-375 902.5,-375 902.5,-356 813.5,-356"/>
<text text-anchor="middle" x="858" y="-363" font-family="Helvetica,sans-Serif" font-size="10.00">carta::IsInfinity</text>
</a>
</g>
</g>
<!-- Node17&#45;&gt;Node18 -->
<g id="edge19" class="edge">
<title>Node17&#45;&gt;Node18</title>
<path fill="none" stroke="midnightblue" d="M705.93,-402.9C718.82,-399.94 733,-396.64 746,-393.5 767.16,-388.4 790.52,-382.54 810.34,-377.5"/>
<polygon fill="midnightblue" stroke="midnightblue" points="811.22,-380.89 820.05,-375.03 809.49,-374.1 811.22,-380.89"/>
</g>
<!-- Node20&#45;&gt;Node3 -->
<g id="edge28" class="edge">
<title>Node20&#45;&gt;Node3</title>
<path fill="none" stroke="midnightblue" d="M332.96,-279.04C352.24,-281.93 373.51,-285.13 393.15,-288.08"/>
<polygon fill="midnightblue" stroke="midnightblue" points="392.84,-291.57 403.25,-289.6 393.88,-284.65 392.84,-291.57"/>
</g>
<!-- Node21 -->
<g id="node21" class="node">
<title>Node21</title>
<g id="a_node21"><a xlink:href="namespacecarta.html#a5e8e9ea12c8402698a665a81e97cf13f" target="_top" xlink:title=" ">
<polygon fill="none" stroke="black" points="407.5,-251 407.5,-270 519.5,-270 519.5,-251 407.5,-251"/>
<text text-anchor="middle" x="463.5" y="-258" font-family="Helvetica,sans-Serif" font-size="10.00">carta::BlockSmooth</text>
</a>
</g>
</g>
<!-- Node20&#45;&gt;Node21 -->
<g id="edge22" class="edge">
<title>Node20&#45;&gt;Node21</title>
<path fill="none" stroke="midnightblue" d="M346.61,-265.9C363.32,-265.12 380.84,-264.31 397.05,-263.55"/>
<polygon fill="midnightblue" stroke="midnightblue" points="397.66,-267.03 407.49,-263.07 397.34,-260.03 397.66,-267.03"/>
</g>
<!-- Node24 -->
<g id="node24" class="node">
<title>Node24</title>
<g id="a_node24"><a xlink:href="namespacecarta.html#a724d5f79d7c1320592c011bd3bb57e98" target="_top" xlink:title=" ">
<polygon fill="none" stroke="black" points="597.5,-194 597.5,-213 727.5,-213 727.5,-194 597.5,-194"/>
<text text-anchor="middle" x="662.5" y="-201" font-family="Helvetica,sans-Serif" font-size="10.00">carta::NearestNeighbor</text>
</a>
</g>
</g>
<!-- Node20&#45;&gt;Node24 -->
<g id="edge29" class="edge">
<title>Node20&#45;&gt;Node24</title>
<path fill="none" stroke="midnightblue" d="M328.37,-259.97C335.29,-257.5 342.01,-254.4 348,-250.5 370.05,-236.14 360.41,-215.15 384,-203.5 458.58,-166.68 558.77,-179.52 616.11,-191.79"/>
<polygon fill="midnightblue" stroke="midnightblue" points="615.44,-195.22 625.96,-193.98 616.96,-188.39 615.44,-195.22"/>
</g>
<!-- Node22 -->
<g id="node22" class="node">
<title>Node22</title>
<g id="a_node22"><a xlink:href="namespacecarta.html#aead2ccf135cb75c1b5d5f5d8b5a64849" target="_top" xlink:title=" ">
<polygon fill="none" stroke="black" points="591.5,-251 591.5,-270 733.5,-270 733.5,-251 591.5,-251"/>
<text text-anchor="middle" x="662.5" y="-258" font-family="Helvetica,sans-Serif" font-size="10.00">carta::BlockSmoothScalar</text>
</a>
</g>
</g>
<!-- Node21&#45;&gt;Node22 -->
<g id="edge23" class="edge">
<title>Node21&#45;&gt;Node22</title>
<path fill="none" stroke="midnightblue" d="M519.64,-260.5C538.71,-260.5 560.5,-260.5 581.18,-260.5"/>
<polygon fill="midnightblue" stroke="midnightblue" points="581.22,-264 591.22,-260.5 581.22,-257 581.22,-264"/>
</g>
<!-- Node23 -->
<g id="node23" class="node">
<title>Node23</title>
<g id="a_node23"><a xlink:href="namespacecarta.html#a3d79fcec84ed84bfc770c589c2f12ea1" target="_top" xlink:title=" ">
<polygon fill="none" stroke="black" points="597.5,-289 597.5,-308 727.5,-308 727.5,-289 597.5,-289"/>
<text text-anchor="middle" x="662.5" y="-296" font-family="Helvetica,sans-Serif" font-size="10.00">carta::BlockSmoothSSE</text>
</a>
</g>
</g>
<!-- Node21&#45;&gt;Node23 -->
<g id="edge25" class="edge">
<title>Node21&#45;&gt;Node23</title>
<path fill="none" stroke="midnightblue" d="M513.96,-270.04C540.65,-275.19 573.8,-281.58 601.92,-287.01"/>
<polygon fill="midnightblue" stroke="midnightblue" points="601.54,-290.5 612.02,-288.96 602.87,-283.63 601.54,-290.5"/>
</g>
<!-- Node22&#45;&gt;Node14 -->
<g id="edge24" class="edge">
<title>Node22&#45;&gt;Node14</title>
<path fill="none" stroke="midnightblue" d="M733.63,-267.39C750.47,-269.04 768.48,-270.81 785.38,-272.47"/>
<polygon fill="midnightblue" stroke="midnightblue" points="785.45,-275.99 795.74,-273.49 786.13,-269.02 785.45,-275.99"/>
</g>
<!-- Node23&#45;&gt;Node14 -->
<g id="edge26" class="edge">
<title>Node23&#45;&gt;Node14</title>
<path fill="none" stroke="midnightblue" d="M727.66,-292.2C746.31,-290.37 766.79,-288.36 785.85,-286.49"/>
<polygon fill="midnightblue" stroke="midnightblue" points="786.35,-289.95 795.96,-285.49 785.67,-282.99 786.35,-289.95"/>
</g>
<!-- Node23&#45;&gt;Node18 -->
<g id="edge27" class="edge">
<title>Node23&#45;&gt;Node18</title>
<path fill="none" stroke="midnightblue" d="M691.22,-308.1C724.99,-319.79 782.16,-339.59 819.75,-352.6"/>
<polygon fill="midnightblue" stroke="midnightblue" points="818.73,-355.95 829.33,-355.92 821.02,-349.34 818.73,-355.95"/>
</g>
<!-- Node24&#45;&gt;Node14 -->
<g id="edge30" class="edge">
<title>Node24&#45;&gt;Node14</title>
<path fill="none" stroke="midnightblue" d="M688.01,-213.13C718.38,-225.06 770.83,-245.66 809.26,-260.75"/>
<polygon fill="midnightblue" stroke="midnightblue" points="808.12,-264.06 818.71,-264.46 810.68,-257.55 808.12,-264.06"/>
</g>
<!-- Node27 -->
<g id="node27" class="node">
<title>Node27</title>
<g id="a_node27"><a xlink:href="classcarta_1_1queuing__rw__mutex.html#a604cdab74206f5521604334d5dc0d634" target="_top" xlink:title=" ">
<polygon fill="none" stroke="black" points="393.5,-0.5 393.5,-30.5 533.5,-30.5 533.5,-0.5 393.5,-0.5"/>
<text text-anchor="start" x="401.5" y="-18.5" font-family="Helvetica,sans-Serif" font-size="10.00">carta::queuing_rw_mutex</text>
<text text-anchor="middle" x="463.5" y="-7.5" font-family="Helvetica,sans-Serif" font-size="10.00">::reader_leave</text>
</a>
</g>
</g>
<!-- Node26&#45;&gt;Node27 -->
<g id="edge33" class="edge">
<title>Node26&#45;&gt;Node27</title>
<path fill="none" stroke="midnightblue" d="M328.72,-49.47C349.19,-44.27 372.3,-38.4 393.49,-33.02"/>
<polygon fill="midnightblue" stroke="midnightblue" points="394.56,-36.36 403.39,-30.51 392.84,-29.57 394.56,-36.36"/>
</g>
<!-- Node29 -->
<g id="node29" class="node">
<title>Node29</title>
<g id="a_node29"><a xlink:href="classcarta_1_1queuing__rw__mutex.html#ae90899b9fc49562d1c53fac3b786b12d" target="_top" xlink:title=" ">
<polygon fill="none" stroke="black" points="393.5,-49.5 393.5,-79.5 533.5,-79.5 533.5,-49.5 393.5,-49.5"/>
<text text-anchor="start" x="401.5" y="-67.5" font-family="Helvetica,sans-Serif" font-size="10.00">carta::queuing_rw_mutex</text>
<text text-anchor="middle" x="463.5" y="-56.5" font-family="Helvetica,sans-Serif" font-size="10.00">::writer_leave</text>
</a>
</g>
</g>
<!-- Node26&#45;&gt;Node29 -->
<g id="edge35" class="edge">
<title>Node26&#45;&gt;Node29</title>
<path fill="none" stroke="midnightblue" d="M338.63,-64.5C353.04,-64.5 368.35,-64.5 383.1,-64.5"/>
<polygon fill="midnightblue" stroke="midnightblue" points="383.2,-68 393.2,-64.5 383.2,-61 383.2,-68"/>
</g>
<!-- Node28 -->
<g id="node28" class="node">
<title>Node28</title>
<g id="a_node28"><a xlink:href="classcarta_1_1queuing__rw__mutex.html#af7d20dfc496517e34f93151e4032a9c9" target="_top" xlink:title=" ">
<polygon fill="none" stroke="black" points="592.5,-25.5 592.5,-55.5 732.5,-55.5 732.5,-25.5 592.5,-25.5"/>
<text text-anchor="start" x="600.5" y="-43.5" font-family="Helvetica,sans-Serif" font-size="10.00">carta::queuing_rw_mutex</text>
<text text-anchor="middle" x="662.5" y="-32.5" font-family="Helvetica,sans-Serif" font-size="10.00">::dequeue_one_writer</text>
</a>
</g>
</g>
<!-- Node27&#45;&gt;Node28 -->
<g id="edge34" class="edge">
<title>Node27&#45;&gt;Node28</title>
<path fill="none" stroke="midnightblue" d="M533.68,-24.28C549.47,-26.28 566.37,-28.43 582.53,-30.48"/>
<polygon fill="midnightblue" stroke="midnightblue" points="582.13,-33.96 592.49,-31.74 583.01,-27.01 582.13,-33.96"/>
</g>
<!-- Node29&#45;&gt;Node28 -->
<g id="edge36" class="edge">
<title>Node29&#45;&gt;Node28</title>
<path fill="none" stroke="midnightblue" d="M533.68,-56.07C549.47,-54.15 566.37,-52.09 582.53,-50.12"/>
<polygon fill="midnightblue" stroke="midnightblue" points="582.99,-53.59 592.49,-48.91 582.14,-46.64 582.99,-53.59"/>
</g>
<!-- Node30&#45;&gt;Node3 -->
<g id="edge39" class="edge">
<title>Node30&#45;&gt;Node3</title>
<path fill="none" stroke="midnightblue" d="M326.59,-201.24C334.27,-203.96 341.67,-207.61 348,-212.5 374.75,-233.16 357.25,-258.84 384,-279.5 387.16,-281.94 390.58,-284.07 394.17,-285.93"/>
<polygon fill="midnightblue" stroke="midnightblue" points="392.83,-289.16 403.39,-290.02 395.68,-282.77 392.83,-289.16"/>
</g>
<!-- Node30&#45;&gt;Node14 -->
<g id="edge38" class="edge">
<title>Node30&#45;&gt;Node14</title>
<path fill="none" stroke="midnightblue" d="M304.61,-183.97C385.79,-163.8 591.32,-123.42 746,-184.5 784.03,-199.52 818.18,-233.29 838.26,-256.25"/>
<polygon fill="midnightblue" stroke="midnightblue" points="835.85,-258.82 845,-264.16 841.18,-254.28 835.85,-258.82"/>
</g>
<!-- Node30&#45;&gt;Node19 -->
<g id="edge42" class="edge">
<title>Node30&#45;&gt;Node19</title>
<path fill="none" stroke="midnightblue" d="M326.62,-202.08C348.12,-205.31 372.76,-209.02 395.1,-212.37"/>
<polygon fill="midnightblue" stroke="midnightblue" points="394.78,-215.86 405.19,-213.89 395.82,-208.94 394.78,-215.86"/>
</g>
<!-- Node31 -->
<g id="node31" class="node">
<title>Node31</title>
<g id="a_node31"><a xlink:href="namespacecarta.html#a7e1f615d908d735552aa446444b3fc72" target="_top" xlink:title=" ">
<polygon fill="none" stroke="black" points="414,-99 414,-118 513,-118 513,-99 414,-99"/>
<text text-anchor="middle" x="463.5" y="-106" font-family="Helvetica,sans-Serif" font-size="10.00">carta::TraceLevel</text>
</a>
</g>
</g>
<!-- Node30&#45;&gt;Node31 -->
<g id="edge40" class="edge">
<title>Node30&#45;&gt;Node31</title>
<path fill="none" stroke="midnightblue" d="M285.33,-183.8C306.99,-170.82 347.38,-147.68 384,-132.5 394.28,-128.24 405.59,-124.34 416.35,-120.99"/>
<polygon fill="midnightblue" stroke="midnightblue" points="417.47,-124.3 426.03,-118.06 415.45,-117.6 417.47,-124.3"/>
</g>
<!-- Node32 -->
<g id="node32" class="node">
<title>Node32</title>
<g id="a_node32"><a xlink:href="namespacecarta.html#af7359c825e152777546c5e50b44b6e20" target="_top" xlink:title=" ">
<polygon fill="none" stroke="black" points="604.5,-99 604.5,-118 720.5,-118 720.5,-99 604.5,-99"/>
<text text-anchor="middle" x="662.5" y="-106" font-family="Helvetica,sans-Serif" font-size="10.00">carta::TraceSegment</text>
</a>
</g>
</g>
<!-- Node31&#45;&gt;Node32 -->
<g id="edge41" class="edge">
<title>Node31&#45;&gt;Node32</title>
<path fill="none" stroke="midnightblue" d="M513.2,-108.5C537.65,-108.5 567.65,-108.5 594.26,-108.5"/>
<polygon fill="midnightblue" stroke="midnightblue" points="594.28,-112 604.28,-108.5 594.28,-105 594.28,-112"/>
</g>
</g>
</svg>
