<?xml version="1.0" encoding="UTF-8" standalone="no"?>
<!DOCTYPE svg PUBLIC "-//W3C//DTD SVG 1.1//EN"
 "http://www.w3.org/Graphics/SVG/1.1/DTD/svg11.dtd">
<!-- Generated by graphviz version 2.43.0 (0)
 -->
<!-- Title: carta::ExprLoader::OpenFile Pages: 1 -->
<svg width="1093pt" height="137pt"
 viewBox="0.00 0.00 1093.00 137.00" xmlns="http://www.w3.org/2000/svg" xmlns:xlink="http://www.w3.org/1999/xlink">
<g id="graph0" class="graph" transform="scale(1 1) rotate(0) translate(4 133)">
<title>carta::ExprLoader::OpenFile</title>
<!-- Node1 -->
<g id="node1" class="node">
<title>Node1</title>
<g id="a_node1"><a xlink:title=" ">
<polygon fill="#bfbfbf" stroke="black" points="0,-24.5 0,-54.5 108,-54.5 108,-24.5 0,-24.5"/>
<text text-anchor="start" x="8" y="-42.5" font-family="Helvetica,sans-Serif" font-size="10.00">carta::ExprLoader::</text>
<text text-anchor="middle" x="54" y="-31.5" font-family="Helvetica,sans-Serif" font-size="10.00">OpenFile</text>
</a>
</g>
</g>
<!-- Node2 -->
<g id="node2" class="node">
<title>Node2</title>
<g id="a_node2"><a xlink:href="classcarta_1_1CartaHdf5Image.html#aa6d40fb4a674d41a64c73408e8c05b89" target="_top" xlink:title=" ">
<polygon fill="none" stroke="black" points="144,-24.5 144,-54.5 274,-54.5 274,-24.5 144,-24.5"/>
<text text-anchor="start" x="152" y="-42.5" font-family="Helvetica,sans-Serif" font-size="10.00">carta::CartaHdf5Image</text>
<text text-anchor="middle" x="209" y="-31.5" font-family="Helvetica,sans-Serif" font-size="10.00">::RegisterOpenFunction</text>
</a>
</g>
</g>
<!-- Node1&#45;&gt;Node2 -->
<g id="edge1" class="edge">
<title>Node1&#45;&gt;Node2</title>
<path fill="none" stroke="midnightblue" d="M108.08,-39.5C116.4,-39.5 125.12,-39.5 133.8,-39.5"/>
<polygon fill="midnightblue" stroke="midnightblue" points="133.94,-43 143.94,-39.5 133.94,-36 133.94,-43"/>
</g>
<!-- Node3 -->
<g id="node3" class="node">
<title>Node3</title>
<g id="a_node3"><a xlink:href="classcarta_1_1CartaHdf5Image.html#a70fa8ffe224050e4f928c0bce6077feb" target="_top" xlink:title=" ">
<polygon fill="none" stroke="black" points="310,-24.5 310,-54.5 438,-54.5 438,-24.5 310,-24.5"/>
<text text-anchor="start" x="318" y="-42.5" font-family="Helvetica,sans-Serif" font-size="10.00">carta::CartaHdf5Image</text>
<text text-anchor="middle" x="374" y="-31.5" font-family="Helvetica,sans-Serif" font-size="10.00">::OpenCartaHdf5Image</text>
</a>
</g>
</g>
<!-- Node2&#45;&gt;Node3 -->
<g id="edge2" class="edge">
<title>Node2&#45;&gt;Node3</title>
<path fill="none" stroke="midnightblue" d="M274.42,-39.5C282.71,-39.5 291.24,-39.5 299.66,-39.5"/>
<polygon fill="midnightblue" stroke="midnightblue" points="299.85,-43 309.85,-39.5 299.85,-36 299.85,-43"/>
</g>
<!-- Node4 -->
<g id="node4" class="node">
<title>Node4</title>
<g id="a_node4"><a xlink:href="classcarta_1_1CartaHdf5Image.html#ae1308aff32b5f1a90989ca6fb1e27cbc" target="_top" xlink:title=" ">
<polygon fill="none" stroke="black" points="474,-49.5 474,-79.5 602,-79.5 602,-49.5 474,-49.5"/>
<text text-anchor="start" x="482" y="-67.5" font-family="Helvetica,sans-Serif" font-size="10.00">carta::CartaHdf5Image</text>
<text text-anchor="middle" x="538" y="-56.5" font-family="Helvetica,sans-Serif" font-size="10.00">::CartaHdf5Image</text>
</a>
</g>
</g>
<!-- Node3&#45;&gt;Node4 -->
<g id="edge3" class="edge">
<title>Node3&#45;&gt;Node4</title>
<path fill="none" stroke="midnightblue" d="M438.1,-49.24C446.53,-50.54 455.23,-51.88 463.81,-53.21"/>
<polygon fill="midnightblue" stroke="midnightblue" points="463.39,-56.68 473.81,-54.75 464.46,-49.76 463.39,-56.68"/>
</g>
<!-- Node10 -->
<g id="node10" class="node">
<title>Node10</title>
<g id="a_node10"><a xlink:href="classcarta_1_1CartaHdf5Image.html#a3b9ca60ae8616bc15fa88a76719f8083" target="_top" xlink:title=" ">
<polygon fill="none" stroke="black" points="474,-0.5 474,-30.5 602,-30.5 602,-0.5 474,-0.5"/>
<text text-anchor="start" x="482" y="-18.5" font-family="Helvetica,sans-Serif" font-size="10.00">carta::CartaHdf5Image</text>
<text text-anchor="middle" x="538" y="-7.5" font-family="Helvetica,sans-Serif" font-size="10.00">::name</text>
</a>
</g>
</g>
<!-- Node3&#45;&gt;Node10 -->
<g id="edge9" class="edge">
<title>Node3&#45;&gt;Node10</title>
<path fill="none" stroke="midnightblue" d="M438.1,-30.15C446.53,-28.9 455.23,-27.61 463.81,-26.34"/>
<polygon fill="midnightblue" stroke="midnightblue" points="464.43,-29.79 473.81,-24.86 463.4,-22.87 464.43,-29.79"/>
</g>
<!-- Node5 -->
<g id="node5" class="node">
<title>Node5</title>
<g id="a_node5"><a xlink:href="classcarta_1_1CartaHdf5Image.html#aa65f2118cfdb1ac57b10f4237b211e59" target="_top" xlink:title=" ">
<polygon fill="none" stroke="black" points="638,-49.5 638,-79.5 766,-79.5 766,-49.5 638,-49.5"/>
<text text-anchor="start" x="646" y="-67.5" font-family="Helvetica,sans-Serif" font-size="10.00">carta::CartaHdf5Image</text>
<text text-anchor="middle" x="702" y="-56.5" font-family="Helvetica,sans-Serif" font-size="10.00">::SetUpImage</text>
</a>
</g>
</g>
<!-- Node4&#45;&gt;Node5 -->
<g id="edge4" class="edge">
<title>Node4&#45;&gt;Node5</title>
<path fill="none" stroke="midnightblue" d="M602.1,-64.5C610.43,-64.5 619.04,-64.5 627.53,-64.5"/>
<polygon fill="midnightblue" stroke="midnightblue" points="627.81,-68 637.81,-64.5 627.81,-61 627.81,-68"/>
</g>
<!-- Node6 -->
<g id="node6" class="node">
<title>Node6</title>
<g id="a_node6"><a xlink:href="classcarta_1_1Hdf5Attributes.html#aa67e6a53484aa895b42f414a42c3cc08" target="_top" xlink:title=" ">
<polygon fill="none" stroke="black" points="806.5,-98.5 806.5,-128.5 925.5,-128.5 925.5,-98.5 806.5,-98.5"/>
<text text-anchor="start" x="814.5" y="-116.5" font-family="Helvetica,sans-Serif" font-size="10.00">carta::Hdf5Attributes</text>
<text text-anchor="middle" x="866" y="-105.5" font-family="Helvetica,sans-Serif" font-size="10.00">::ReadAttributes</text>
</a>
</g>
</g>
<!-- Node5&#45;&gt;Node6 -->
<g id="edge5" class="edge">
<title>Node5&#45;&gt;Node6</title>
<path fill="none" stroke="midnightblue" d="M752.93,-79.6C769.48,-84.61 788.07,-90.23 805.29,-95.44"/>
<polygon fill="midnightblue" stroke="midnightblue" points="804.65,-98.9 815.24,-98.45 806.68,-92.2 804.65,-98.9"/>
</g>
<!-- Node8 -->
<g id="node8" class="node">
<title>Node8</title>
<g id="a_node8"><a xlink:href="classcarta_1_1CartaHdf5Image.html#ac8ff052eb1036a7fb701497d25df6092" target="_top" xlink:title=" ">
<polygon fill="none" stroke="black" points="802,-49.5 802,-79.5 930,-79.5 930,-49.5 802,-49.5"/>
<text text-anchor="start" x="810" y="-67.5" font-family="Helvetica,sans-Serif" font-size="10.00">carta::CartaHdf5Image</text>
<text text-anchor="middle" x="866" y="-56.5" font-family="Helvetica,sans-Serif" font-size="10.00">::shape</text>
</a>
</g>
</g>
<!-- Node5&#45;&gt;Node8 -->
<g id="edge7" class="edge">
<title>Node5&#45;&gt;Node8</title>
<path fill="none" stroke="midnightblue" d="M766.1,-64.5C774.43,-64.5 783.04,-64.5 791.53,-64.5"/>
<polygon fill="midnightblue" stroke="midnightblue" points="791.81,-68 801.81,-64.5 791.81,-61 791.81,-68"/>
</g>
<!-- Node9 -->
<g id="node9" class="node">
<title>Node9</title>
<g id="a_node9"><a xlink:href="String_8cc.html#a2ae58d8319d2fb200c76f1e0e7951a77" target="_top" xlink:title=" ">
<polygon fill="none" stroke="black" points="832.5,-11 832.5,-30 899.5,-30 899.5,-11 832.5,-11"/>
<text text-anchor="middle" x="866" y="-18" font-family="Helvetica,sans-Serif" font-size="10.00">SplitString</text>
</a>
</g>
</g>
<!-- Node5&#45;&gt;Node9 -->
<g id="edge8" class="edge">
<title>Node5&#45;&gt;Node9</title>
<path fill="none" stroke="midnightblue" d="M758.3,-49.48C779.22,-43.8 802.69,-37.42 822.28,-32.1"/>
<polygon fill="midnightblue" stroke="midnightblue" points="823.4,-35.43 832.13,-29.43 821.57,-28.67 823.4,-35.43"/>
</g>
<!-- Node7 -->
<g id="node7" class="node">
<title>Node7</title>
<g id="a_node7"><a xlink:href="classcarta_1_1Hdf5Attributes.html#a7d0a7d0f4924978b3a0bf430284d13dd" target="_top" xlink:title=" ">
<polygon fill="none" stroke="black" points="966,-98.5 966,-128.5 1085,-128.5 1085,-98.5 966,-98.5"/>
<text text-anchor="start" x="974" y="-116.5" font-family="Helvetica,sans-Serif" font-size="10.00">carta::Hdf5Attributes</text>
<text text-anchor="middle" x="1025.5" y="-105.5" font-family="Helvetica,sans-Serif" font-size="10.00">::ReadScalar</text>
</a>
</g>
</g>
<!-- Node6&#45;&gt;Node7 -->
<g id="edge6" class="edge">
<title>Node6&#45;&gt;Node7</title>
<path fill="none" stroke="midnightblue" d="M925.65,-113.5C935.38,-113.5 945.56,-113.5 955.52,-113.5"/>
<polygon fill="midnightblue" stroke="midnightblue" points="955.8,-117 965.8,-113.5 955.8,-110 955.8,-117"/>
</g>
</g>
</svg>
