<?xml version="1.0" encoding="UTF-8" standalone="no"?>
<!DOCTYPE svg PUBLIC "-//W3C//DTD SVG 1.1//EN"
 "http://www.w3.org/Graphics/SVG/1.1/DTD/svg11.dtd">
<!-- Generated by graphviz version 2.43.0 (0)
 -->
<!-- Title: carta::RegionHandler::SetSpatialRequirements Pages: 1 -->
<svg width="613pt" height="99pt"
 viewBox="0.00 0.00 613.00 99.00" xmlns="http://www.w3.org/2000/svg" xmlns:xlink="http://www.w3.org/1999/xlink">
<g id="graph0" class="graph" transform="scale(1 1) rotate(0) translate(4 95)">
<title>carta::RegionHandler::SetSpatialRequirements</title>
<!-- Node1 -->
<g id="node1" class="node">
<title>Node1</title>
<g id="a_node1"><a xlink:title=" ">
<polygon fill="#bfbfbf" stroke="black" points="0,-0.5 0,-30.5 140,-30.5 140,-0.5 0,-0.5"/>
<text text-anchor="start" x="8" y="-18.5" font-family="Helvetica,sans-Serif" font-size="10.00">carta::RegionHandler</text>
<text text-anchor="middle" x="70" y="-7.5" font-family="Helvetica,sans-Serif" font-size="10.00">::SetSpatialRequirements</text>
</a>
</g>
</g>
<!-- Node2 -->
<g id="node2" class="node">
<title>Node2</title>
<g id="a_node2"><a xlink:href="classcarta_1_1RegionHandler.html#ab9501617a3845ac3fa32b6b88c5269eb" target="_top" xlink:title=" ">
<polygon fill="none" stroke="black" points="176,-22.5 176,-52.5 295,-52.5 295,-22.5 176,-22.5"/>
<text text-anchor="start" x="184" y="-40.5" font-family="Helvetica,sans-Serif" font-size="10.00">carta::RegionHandler</text>
<text text-anchor="middle" x="235.5" y="-29.5" font-family="Helvetica,sans-Serif" font-size="10.00">::IsClosedRegion</text>
</a>
</g>
</g>
<!-- Node1&#45;&gt;Node2 -->
<g id="edge1" class="edge">
<title>Node1&#45;&gt;Node2</title>
<path fill="none" stroke="midnightblue" d="M140.34,-24.83C148.75,-25.96 157.35,-27.12 165.76,-28.25"/>
<polygon fill="midnightblue" stroke="midnightblue" points="165.51,-31.75 175.89,-29.61 166.45,-24.81 165.51,-31.75"/>
</g>
<!-- Node4 -->
<g id="node4" class="node">
<title>Node4</title>
<g id="a_node4"><a xlink:href="classcarta_1_1RegionHandler.html#a809f63096e4fabebdcdef49591ed1c70" target="_top" xlink:title=" ">
<polygon fill="none" stroke="black" points="486,-16.5 486,-46.5 605,-46.5 605,-16.5 486,-16.5"/>
<text text-anchor="start" x="494" y="-34.5" font-family="Helvetica,sans-Serif" font-size="10.00">carta::RegionHandler</text>
<text text-anchor="middle" x="545.5" y="-23.5" font-family="Helvetica,sans-Serif" font-size="10.00">::RegionSet</text>
</a>
</g>
</g>
<!-- Node1&#45;&gt;Node4 -->
<g id="edge5" class="edge">
<title>Node1&#45;&gt;Node4</title>
<path fill="none" stroke="midnightblue" d="M140.18,-13.24C152.13,-12.93 164.42,-12.67 176,-12.5 228.88,-11.74 242.15,-10.49 295,-12.5 356.22,-14.83 425.71,-20.36 475.78,-24.85"/>
<polygon fill="midnightblue" stroke="midnightblue" points="475.57,-28.35 485.84,-25.77 476.2,-21.38 475.57,-28.35"/>
</g>
<!-- Node3 -->
<g id="node3" class="node">
<title>Node3</title>
<g id="a_node3"><a xlink:href="classcarta_1_1RegionHandler.html#a4d3eaa8da979a4b0640aa3b598a9415b" target="_top" xlink:title=" ">
<polygon fill="none" stroke="black" points="331,-60.5 331,-90.5 450,-90.5 450,-60.5 331,-60.5"/>
<text text-anchor="start" x="339" y="-78.5" font-family="Helvetica,sans-Serif" font-size="10.00">carta::RegionHandler</text>
<text text-anchor="middle" x="390.5" y="-67.5" font-family="Helvetica,sans-Serif" font-size="10.00">::GetRegion</text>
</a>
</g>
</g>
<!-- Node2&#45;&gt;Node3 -->
<g id="edge2" class="edge">
<title>Node2&#45;&gt;Node3</title>
<path fill="none" stroke="midnightblue" d="M295.22,-52.08C303.73,-54.2 312.55,-56.39 321.23,-58.54"/>
<polygon fill="midnightblue" stroke="midnightblue" points="320.39,-61.94 330.94,-60.96 322.08,-55.15 320.39,-61.94"/>
</g>
<!-- Node2&#45;&gt;Node4 -->
<g id="edge4" class="edge">
<title>Node2&#45;&gt;Node4</title>
<path fill="none" stroke="midnightblue" d="M295.16,-36.36C346.56,-35.36 421.33,-33.9 475.58,-32.84"/>
<polygon fill="midnightblue" stroke="midnightblue" points="475.87,-36.34 485.8,-32.64 475.73,-29.34 475.87,-36.34"/>
</g>
<!-- Node3&#45;&gt;Node4 -->
<g id="edge3" class="edge">
<title>Node3&#45;&gt;Node4</title>
<path fill="none" stroke="midnightblue" d="M443.73,-60.48C456.21,-56.89 469.66,-53.02 482.54,-49.32"/>
<polygon fill="midnightblue" stroke="midnightblue" points="483.61,-52.65 492.25,-46.53 481.67,-45.93 483.61,-52.65"/>
</g>
</g>
</svg>
