<?xml version="1.0" encoding="UTF-8" standalone="no"?>
<!DOCTYPE svg PUBLIC "-//W3C//DTD SVG 1.1//EN"
 "http://www.w3.org/Graphics/SVG/1.1/DTD/svg11.dtd">
<!-- Generated by graphviz version 2.43.0 (0)
 -->
<!-- Title: carta::FileExtInfoLoader::AddInitialComputedEntries Pages: 1 -->
<svg width="329pt" height="235pt"
 viewBox="0.00 0.00 329.00 235.00" xmlns="http://www.w3.org/2000/svg" xmlns:xlink="http://www.w3.org/1999/xlink">
<g id="graph0" class="graph" transform="scale(1 1) rotate(0) translate(4 231)">
<title>carta::FileExtInfoLoader::AddInitialComputedEntries</title>
<!-- Node1 -->
<g id="node1" class="node">
<title>Node1</title>
<g id="a_node1"><a xlink:title=" ">
<polygon fill="#bfbfbf" stroke="black" points="0,-98.5 0,-128.5 153,-128.5 153,-98.5 0,-98.5"/>
<text text-anchor="start" x="8" y="-116.5" font-family="Helvetica,sans-Serif" font-size="10.00">carta::FileExtInfoLoader</text>
<text text-anchor="middle" x="76.5" y="-105.5" font-family="Helvetica,sans-Serif" font-size="10.00">::AddInitialComputedEntries</text>
</a>
</g>
</g>
<!-- Node2 -->
<g id="node2" class="node">
<title>Node2</title>
<g id="a_node2"><a xlink:href="classcarta_1_1FileExtInfoLoader.html#ae41e978649253da4adc64d03bdd12f82" target="_top" xlink:title=" ">
<polygon fill="none" stroke="black" points="189,-196.5 189,-226.5 321,-226.5 321,-196.5 189,-196.5"/>
<text text-anchor="start" x="197" y="-214.5" font-family="Helvetica,sans-Serif" font-size="10.00">carta::FileExtInfoLoader</text>
<text text-anchor="middle" x="255" y="-203.5" font-family="Helvetica,sans-Serif" font-size="10.00">::AddDataTypeEntry</text>
</a>
</g>
</g>
<!-- Node1&#45;&gt;Node2 -->
<g id="edge1" class="edge">
<title>Node1&#45;&gt;Node2</title>
<path fill="none" stroke="midnightblue" d="M97.19,-128.62C118.82,-144.73 155.03,-170.25 189,-187.5 192.46,-189.26 196.08,-190.95 199.77,-192.57"/>
<polygon fill="midnightblue" stroke="midnightblue" points="198.43,-195.81 209.01,-196.44 201.14,-189.35 198.43,-195.81"/>
</g>
<!-- Node3 -->
<g id="node3" class="node">
<title>Node3</title>
<g id="a_node3"><a xlink:href="classcarta_1_1FileExtInfoLoader.html#ae0eb44133b06ce14972f8b0b94ca7eee" target="_top" xlink:title=" ">
<polygon fill="none" stroke="black" points="189,-147.5 189,-177.5 321,-177.5 321,-147.5 189,-147.5"/>
<text text-anchor="start" x="197" y="-165.5" font-family="Helvetica,sans-Serif" font-size="10.00">carta::FileExtInfoLoader</text>
<text text-anchor="middle" x="255" y="-154.5" font-family="Helvetica,sans-Serif" font-size="10.00">::AddShapeEntries</text>
</a>
</g>
</g>
<!-- Node1&#45;&gt;Node3 -->
<g id="edge2" class="edge">
<title>Node1&#45;&gt;Node3</title>
<path fill="none" stroke="midnightblue" d="M131.9,-128.6C150.27,-133.7 170.95,-139.44 189.99,-144.73"/>
<polygon fill="midnightblue" stroke="midnightblue" points="189.21,-148.15 199.78,-147.45 191.08,-141.4 189.21,-148.15"/>
</g>
<!-- Node4 -->
<g id="node4" class="node">
<title>Node4</title>
<g id="a_node4"><a xlink:href="classcarta_1_1CompressedFits.html#ae61f2a12e075ef2b396a97f50d3a81e9" target="_top" xlink:title=" ">
<polygon fill="none" stroke="black" points="192.5,-98.5 192.5,-128.5 317.5,-128.5 317.5,-98.5 192.5,-98.5"/>
<text text-anchor="start" x="200.5" y="-116.5" font-family="Helvetica,sans-Serif" font-size="10.00">carta::CompressedFits</text>
<text text-anchor="middle" x="255" y="-105.5" font-family="Helvetica,sans-Serif" font-size="10.00">::SetShape</text>
</a>
</g>
</g>
<!-- Node1&#45;&gt;Node4 -->
<g id="edge3" class="edge">
<title>Node1&#45;&gt;Node4</title>
<path fill="none" stroke="midnightblue" d="M153.12,-113.5C162.74,-113.5 172.56,-113.5 182.12,-113.5"/>
<polygon fill="midnightblue" stroke="midnightblue" points="182.37,-117 192.37,-113.5 182.37,-110 182.37,-117"/>
</g>
<!-- Node5 -->
<g id="node5" class="node">
<title>Node5</title>
<g id="a_node5"><a xlink:href="classcarta_1_1CompressedFits.html#aecf35360903917cce06bd9f75a62dacf" target="_top" xlink:title=" ">
<polygon fill="none" stroke="black" points="192.5,-49.5 192.5,-79.5 317.5,-79.5 317.5,-49.5 192.5,-49.5"/>
<text text-anchor="start" x="200.5" y="-67.5" font-family="Helvetica,sans-Serif" font-size="10.00">carta::CompressedFits</text>
<text text-anchor="middle" x="255" y="-56.5" font-family="Helvetica,sans-Serif" font-size="10.00">::SetSpecSuffix</text>
</a>
</g>
</g>
<!-- Node1&#45;&gt;Node5 -->
<g id="edge4" class="edge">
<title>Node1&#45;&gt;Node5</title>
<path fill="none" stroke="midnightblue" d="M131.9,-98.4C150.27,-93.3 170.95,-87.56 189.99,-82.27"/>
<polygon fill="midnightblue" stroke="midnightblue" points="191.08,-85.6 199.78,-79.55 189.21,-78.85 191.08,-85.6"/>
</g>
<!-- Node6 -->
<g id="node6" class="node">
<title>Node6</title>
<g id="a_node6"><a xlink:href="classcarta_1_1CompressedFits.html#a1f4f4ff7d90873232c9a10f8b735db7a" target="_top" xlink:title=" ">
<polygon fill="none" stroke="black" points="192.5,-0.5 192.5,-30.5 317.5,-30.5 317.5,-0.5 192.5,-0.5"/>
<text text-anchor="start" x="200.5" y="-18.5" font-family="Helvetica,sans-Serif" font-size="10.00">carta::CompressedFits</text>
<text text-anchor="middle" x="255" y="-7.5" font-family="Helvetica,sans-Serif" font-size="10.00">::SetStokesSuffix</text>
</a>
</g>
</g>
<!-- Node1&#45;&gt;Node6 -->
<g id="edge5" class="edge">
<title>Node1&#45;&gt;Node6</title>
<path fill="none" stroke="midnightblue" d="M97.66,-98.41C119.41,-82.59 155.43,-57.7 189,-40.5 192.98,-38.46 197.17,-36.49 201.42,-34.61"/>
<polygon fill="midnightblue" stroke="midnightblue" points="202.94,-37.77 210.78,-30.64 200.2,-31.32 202.94,-37.77"/>
</g>
</g>
</svg>
