<?xml version="1.0" encoding="UTF-8" standalone="no"?>
<!DOCTYPE svg PUBLIC "-//W3C//DTD SVG 1.1//EN"
 "http://www.w3.org/Graphics/SVG/1.1/DTD/svg11.dtd">
<!-- Generated by graphviz version 2.43.0 (0)
 -->
<!-- Title: carta::RegionConverter::PointsToImagePixels Pages: 1 -->
<svg width="669pt" height="137pt"
 viewBox="0.00 0.00 669.00 137.00" xmlns="http://www.w3.org/2000/svg" xmlns:xlink="http://www.w3.org/1999/xlink">
<g id="graph0" class="graph" transform="scale(1 1) rotate(0) translate(4 133)">
<title>carta::RegionConverter::PointsToImagePixels</title>
<!-- Node1 -->
<g id="node1" class="node">
<title>Node1</title>
<g id="a_node1"><a xlink:title=" ">
<polygon fill="#bfbfbf" stroke="black" points="532,-49.5 532,-79.5 661,-79.5 661,-49.5 532,-49.5"/>
<text text-anchor="start" x="540" y="-67.5" font-family="Helvetica,sans-Serif" font-size="10.00">carta::RegionConverter</text>
<text text-anchor="middle" x="596.5" y="-56.5" font-family="Helvetica,sans-Serif" font-size="10.00">::PointsToImagePixels</text>
</a>
</g>
</g>
<!-- Node2 -->
<g id="node2" class="node">
<title>Node2</title>
<g id="a_node2"><a xlink:href="classcarta_1_1RegionConverter.html#a9f6c7af12bcee56cb3a98c17637a68de" target="_top" xlink:title=" ">
<polygon fill="none" stroke="black" points="347,-98.5 347,-128.5 496,-128.5 496,-98.5 347,-98.5"/>
<text text-anchor="start" x="355" y="-116.5" font-family="Helvetica,sans-Serif" font-size="10.00">carta::RegionConverter</text>
<text text-anchor="middle" x="421.5" y="-105.5" font-family="Helvetica,sans-Serif" font-size="10.00">::GetAppliedPolygonRegion</text>
</a>
</g>
</g>
<!-- Node1&#45;&gt;Node2 -->
<g id="edge1" class="edge">
<title>Node1&#45;&gt;Node2</title>
<path fill="none" stroke="midnightblue" d="M532.32,-82.39C513.72,-87.66 493.55,-93.38 475.64,-98.45"/>
<polygon fill="midnightblue" stroke="midnightblue" points="533.51,-85.69 542.18,-79.6 531.61,-78.96 533.51,-85.69"/>
</g>
<!-- Node4 -->
<g id="node4" class="node">
<title>Node4</title>
<g id="a_node4"><a xlink:href="classcarta_1_1RegionConverter.html#a77a82b99c8e7f2bcf84d1a78c1963005" target="_top" xlink:title=" ">
<polygon fill="none" stroke="black" points="357,-0.5 357,-30.5 486,-30.5 486,-0.5 357,-0.5"/>
<text text-anchor="start" x="365" y="-18.5" font-family="Helvetica,sans-Serif" font-size="10.00">carta::RegionConverter</text>
<text text-anchor="middle" x="421.5" y="-7.5" font-family="Helvetica,sans-Serif" font-size="10.00">::GetLineRecord</text>
</a>
</g>
</g>
<!-- Node1&#45;&gt;Node4 -->
<g id="edge3" class="edge">
<title>Node1&#45;&gt;Node4</title>
<path fill="none" stroke="midnightblue" d="M532.32,-46.61C513.72,-41.34 493.55,-35.62 475.64,-30.55"/>
<polygon fill="midnightblue" stroke="midnightblue" points="531.61,-50.04 542.18,-49.4 533.51,-43.31 531.61,-50.04"/>
</g>
<!-- Node7 -->
<g id="node7" class="node">
<title>Node7</title>
<g id="a_node7"><a xlink:href="classcarta_1_1RegionConverter.html#ad8cf08a897e85eb0bfc23ef07c8cebe5" target="_top" xlink:title=" ">
<polygon fill="none" stroke="black" points="350,-49.5 350,-79.5 493,-79.5 493,-49.5 350,-49.5"/>
<text text-anchor="start" x="358" y="-67.5" font-family="Helvetica,sans-Serif" font-size="10.00">carta::RegionConverter</text>
<text text-anchor="middle" x="421.5" y="-56.5" font-family="Helvetica,sans-Serif" font-size="10.00">::UseApproximatePolygon</text>
</a>
</g>
</g>
<!-- Node1&#45;&gt;Node7 -->
<g id="edge6" class="edge">
<title>Node1&#45;&gt;Node7</title>
<path fill="none" stroke="midnightblue" d="M521.48,-64.5C512.09,-64.5 502.49,-64.5 493.15,-64.5"/>
<polygon fill="midnightblue" stroke="midnightblue" points="521.57,-68 531.57,-64.5 521.57,-61 521.57,-68"/>
</g>
<!-- Node3 -->
<g id="node3" class="node">
<title>Node3</title>
<g id="a_node3"><a xlink:href="classcarta_1_1RegionConverter.html#a89824e293ea029863be230ee9136a9c1" target="_top" xlink:title=" ">
<polygon fill="none" stroke="black" points="178,-73.5 178,-103.5 307,-103.5 307,-73.5 178,-73.5"/>
<text text-anchor="start" x="186" y="-91.5" font-family="Helvetica,sans-Serif" font-size="10.00">carta::RegionConverter</text>
<text text-anchor="middle" x="242.5" y="-80.5" font-family="Helvetica,sans-Serif" font-size="10.00">::GetImageRegion</text>
</a>
</g>
</g>
<!-- Node2&#45;&gt;Node3 -->
<g id="edge2" class="edge">
<title>Node2&#45;&gt;Node3</title>
<path fill="none" stroke="midnightblue" d="M337.01,-101.71C326.99,-100.29 316.89,-98.87 307.21,-97.5"/>
<polygon fill="midnightblue" stroke="midnightblue" points="336.58,-105.18 346.97,-103.11 337.56,-98.25 336.58,-105.18"/>
</g>
<!-- Node5 -->
<g id="node5" class="node">
<title>Node5</title>
<g id="a_node5"><a xlink:href="classcarta_1_1RegionConverter.html#ae5ee2134120de5a8facae68c4babebdc" target="_top" xlink:title=" ">
<polygon fill="none" stroke="black" points="174,-0.5 174,-30.5 311,-30.5 311,-0.5 174,-0.5"/>
<text text-anchor="start" x="182" y="-18.5" font-family="Helvetica,sans-Serif" font-size="10.00">carta::RegionConverter</text>
<text text-anchor="middle" x="242.5" y="-7.5" font-family="Helvetica,sans-Serif" font-size="10.00">::GetRegionPointsRecord</text>
</a>
</g>
</g>
<!-- Node4&#45;&gt;Node5 -->
<g id="edge4" class="edge">
<title>Node4&#45;&gt;Node5</title>
<path fill="none" stroke="midnightblue" d="M346.44,-15.5C334.75,-15.5 322.72,-15.5 311.19,-15.5"/>
<polygon fill="midnightblue" stroke="midnightblue" points="346.6,-19 356.6,-15.5 346.6,-12 346.6,-19"/>
</g>
<!-- Node6 -->
<g id="node6" class="node">
<title>Node6</title>
<g id="a_node6"><a xlink:href="classcarta_1_1RegionConverter.html#a27a07e5b73b1f32aefadb83b9ba61994" target="_top" xlink:title=" ">
<polygon fill="none" stroke="black" points="0,-0.5 0,-30.5 138,-30.5 138,-0.5 0,-0.5"/>
<text text-anchor="start" x="8" y="-18.5" font-family="Helvetica,sans-Serif" font-size="10.00">carta::RegionConverter</text>
<text text-anchor="middle" x="69" y="-7.5" font-family="Helvetica,sans-Serif" font-size="10.00">::GetImageRegionRecord</text>
</a>
</g>
</g>
<!-- Node5&#45;&gt;Node6 -->
<g id="edge5" class="edge">
<title>Node5&#45;&gt;Node6</title>
<path fill="none" stroke="midnightblue" d="M163.47,-15.5C155.02,-15.5 146.46,-15.5 138.13,-15.5"/>
<polygon fill="midnightblue" stroke="midnightblue" points="163.72,-19 173.72,-15.5 163.72,-12 163.72,-19"/>
</g>
<!-- Node7&#45;&gt;Node3 -->
<g id="edge7" class="edge">
<title>Node7&#45;&gt;Node3</title>
<path fill="none" stroke="midnightblue" d="M339.81,-75.44C328.89,-76.92 317.8,-78.42 307.23,-79.86"/>
<polygon fill="midnightblue" stroke="midnightblue" points="340.34,-78.9 349.78,-74.09 339.4,-71.96 340.34,-78.9"/>
</g>
</g>
</svg>
