<?xml version="1.0" encoding="UTF-8" standalone="no"?>
<!DOCTYPE svg PUBLIC "-//W3C//DTD SVG 1.1//EN"
 "http://www.w3.org/Graphics/SVG/1.1/DTD/svg11.dtd">
<!-- Generated by graphviz version 2.43.0 (0)
 -->
<!-- Title: carta::Frame::FillImageCache Pages: 1 -->
<svg width="949pt" height="203pt"
 viewBox="0.00 0.00 949.00 203.49" xmlns="http://www.w3.org/2000/svg" xmlns:xlink="http://www.w3.org/1999/xlink">
<g id="graph0" class="graph" transform="scale(1 1) rotate(0) translate(4 199.49)">
<title>carta::Frame::FillImageCache</title>
<!-- Node1 -->
<g id="node1" class="node">
<title>Node1</title>
<g id="a_node1"><a xlink:title=" ">
<polygon fill="#bfbfbf" stroke="black" points="782,-95.5 782,-114.5 941,-114.5 941,-95.5 782,-95.5"/>
<text text-anchor="middle" x="861.5" y="-102.5" font-family="Helvetica,sans-Serif" font-size="10.00">carta::Frame::FillImageCache</text>
</a>
</g>
</g>
<!-- Node2 -->
<g id="node2" class="node">
<title>Node2</title>
<g id="a_node2"><a xlink:href="classcarta_1_1Frame.html#a2627ae9873e0f4ab013e34f588e65433" target="_top" xlink:title=" ">
<polygon fill="none" stroke="black" points="353,-155.5 353,-174.5 534,-174.5 534,-155.5 353,-155.5"/>
<text text-anchor="middle" x="443.5" y="-162.5" font-family="Helvetica,sans-Serif" font-size="10.00">carta::Frame::CalculateHistogram</text>
</a>
</g>
</g>
<!-- Node1&#45;&gt;Node2 -->
<g id="edge1" class="edge">
<title>Node1&#45;&gt;Node2</title>
<path fill="none" stroke="midnightblue" d="M843.05,-121.46C821.97,-140.1 784.52,-169.38 746,-181 653.41,-208.93 537.68,-188.29 480.25,-174.58"/>
<polygon fill="midnightblue" stroke="midnightblue" points="845.48,-123.97 850.54,-114.67 840.78,-118.79 845.48,-123.97"/>
</g>
<!-- Node4 -->
<g id="node4" class="node">
<title>Node4</title>
<g id="a_node4"><a xlink:href="classcarta_1_1Frame.html#a958f69761afea8b1388de6bea20f8b78" target="_top" xlink:title=" ">
<polygon fill="none" stroke="black" points="581.5,-152.5 581.5,-171.5 734.5,-171.5 734.5,-152.5 581.5,-152.5"/>
<text text-anchor="middle" x="658" y="-159.5" font-family="Helvetica,sans-Serif" font-size="10.00">carta::Frame::ContourImage</text>
</a>
</g>
</g>
<!-- Node1&#45;&gt;Node4 -->
<g id="edge3" class="edge">
<title>Node1&#45;&gt;Node4</title>
<path fill="none" stroke="midnightblue" d="M824.91,-117.89C802.45,-125.75 772.74,-135.66 746,-143 733.48,-146.44 719.8,-149.66 707.09,-152.45"/>
<polygon fill="midnightblue" stroke="midnightblue" points="826.1,-121.18 834.36,-114.55 823.77,-114.58 826.1,-121.18"/>
</g>
<!-- Node5 -->
<g id="node5" class="node">
<title>Node5</title>
<g id="a_node5"><a xlink:href="classcarta_1_1Frame.html#aeb6afc8204ae9f00c0517b4f28be32d5" target="_top" xlink:title=" ">
<polygon fill="none" stroke="black" points="594.5,-114.5 594.5,-133.5 721.5,-133.5 721.5,-114.5 594.5,-114.5"/>
<text text-anchor="middle" x="658" y="-121.5" font-family="Helvetica,sans-Serif" font-size="10.00">carta::Frame::FitImage</text>
</a>
</g>
</g>
<!-- Node1&#45;&gt;Node5 -->
<g id="edge4" class="edge">
<title>Node1&#45;&gt;Node5</title>
<path fill="none" stroke="midnightblue" d="M771.34,-113.41C754.53,-114.99 737.29,-116.62 721.51,-118.11"/>
<polygon fill="midnightblue" stroke="midnightblue" points="772.1,-116.85 781.73,-112.43 771.44,-109.88 772.1,-116.85"/>
</g>
<!-- Node6 -->
<g id="node6" class="node">
<title>Node6</title>
<g id="a_node6"><a xlink:href="classcarta_1_1Frame.html#a7c5b058faaa1622f53b38c64af50efbc" target="_top" xlink:title=" ">
<polygon fill="none" stroke="black" points="600.5,-76.5 600.5,-95.5 715.5,-95.5 715.5,-76.5 600.5,-76.5"/>
<text text-anchor="middle" x="658" y="-83.5" font-family="Helvetica,sans-Serif" font-size="10.00">carta::Frame::Frame</text>
</a>
</g>
</g>
<!-- Node1&#45;&gt;Node6 -->
<g id="edge5" class="edge">
<title>Node1&#45;&gt;Node6</title>
<path fill="none" stroke="midnightblue" d="M771.55,-96.61C752.55,-94.82 732.97,-92.98 715.59,-91.34"/>
<polygon fill="midnightblue" stroke="midnightblue" points="771.44,-100.12 781.73,-97.57 772.1,-93.15 771.44,-100.12"/>
</g>
<!-- Node7 -->
<g id="node7" class="node">
<title>Node7</title>
<g id="a_node7"><a xlink:href="classcarta_1_1Frame.html#a1bd6cad34fcc337311218150f6771850" target="_top" xlink:title=" ">
<polygon fill="none" stroke="black" points="582,-38.5 582,-57.5 734,-57.5 734,-38.5 582,-38.5"/>
<text text-anchor="middle" x="658" y="-45.5" font-family="Helvetica,sans-Serif" font-size="10.00">carta::Frame::GetBasicStats</text>
</a>
</g>
</g>
<!-- Node1&#45;&gt;Node7 -->
<g id="edge6" class="edge">
<title>Node1&#45;&gt;Node7</title>
<path fill="none" stroke="midnightblue" d="M824.91,-92.11C802.45,-84.25 772.74,-74.34 746,-67 733.48,-63.56 719.8,-60.34 707.09,-57.55"/>
<polygon fill="midnightblue" stroke="midnightblue" points="823.77,-95.42 834.36,-95.45 826.1,-88.82 823.77,-95.42"/>
</g>
<!-- Node10 -->
<g id="node10" class="node">
<title>Node10</title>
<g id="a_node10"><a xlink:href="classcarta_1_1Frame.html#ab9d76715b355e3d68f6280bc031ba7da" target="_top" xlink:title=" ">
<polygon fill="none" stroke="black" points="570,-0.5 570,-19.5 746,-19.5 746,-0.5 570,-0.5"/>
<text text-anchor="middle" x="658" y="-7.5" font-family="Helvetica,sans-Serif" font-size="10.00">carta::Frame::SetImageChannels</text>
</a>
</g>
</g>
<!-- Node1&#45;&gt;Node10 -->
<g id="edge11" class="edge">
<title>Node1&#45;&gt;Node10</title>
<path fill="none" stroke="midnightblue" d="M841.51,-89.14C819.77,-71.8 782.46,-44.44 746,-29 736.89,-25.14 726.9,-22.03 717.03,-19.52"/>
<polygon fill="midnightblue" stroke="midnightblue" points="839.33,-91.88 849.3,-95.46 843.74,-86.44 839.33,-91.88"/>
</g>
<!-- Node3 -->
<g id="node3" class="node">
<title>Node3</title>
<g id="a_node3"><a xlink:href="classcarta_1_1Frame.html#add5c6cc7f22b6a5d87d7080d29f214fb" target="_top" xlink:title=" ">
<polygon fill="none" stroke="black" points="0,-77 0,-107 132,-107 132,-77 0,-77"/>
<text text-anchor="start" x="8" y="-95" font-family="Helvetica,sans-Serif" font-size="10.00">carta::Frame::FillRegion</text>
<text text-anchor="middle" x="66" y="-84" font-family="Helvetica,sans-Serif" font-size="10.00">HistogramData</text>
</a>
</g>
</g>
<!-- Node2&#45;&gt;Node3 -->
<g id="edge2" class="edge">
<title>Node2&#45;&gt;Node3</title>
<path fill="none" stroke="midnightblue" d="M383.24,-153.48C314.91,-140.2 202.93,-118.43 132.18,-104.67"/>
<polygon fill="midnightblue" stroke="midnightblue" points="382.93,-156.98 393.41,-155.46 384.26,-150.11 382.93,-156.98"/>
</g>
<!-- Node7&#45;&gt;Node3 -->
<g id="edge10" class="edge">
<title>Node7&#45;&gt;Node3</title>
<path fill="none" stroke="midnightblue" d="M603.69,-59.71C576.97,-65.4 547.48,-71.37 534,-73 391.42,-90.28 222.75,-92.75 132.24,-92.62"/>
<polygon fill="midnightblue" stroke="midnightblue" points="604.72,-63.07 613.76,-57.55 603.25,-56.22 604.72,-63.07"/>
</g>
<!-- Node8 -->
<g id="node8" class="node">
<title>Node8</title>
<g id="a_node8"><a xlink:href="classcarta_1_1Frame.html#af4487db12b8553663cadf357d5c4c9f3" target="_top" xlink:title=" ">
<polygon fill="none" stroke="black" points="369,-33 369,-63 518,-63 518,-33 369,-33"/>
<text text-anchor="start" x="377" y="-51" font-family="Helvetica,sans-Serif" font-size="10.00">carta::Frame::FillHistogram</text>
<text text-anchor="middle" x="443.5" y="-40" font-family="Helvetica,sans-Serif" font-size="10.00">FromFrameCache</text>
</a>
</g>
</g>
<!-- Node7&#45;&gt;Node8 -->
<g id="edge7" class="edge">
<title>Node7&#45;&gt;Node8</title>
<path fill="none" stroke="midnightblue" d="M571.49,-48C553.83,-48 535.38,-48 518.19,-48"/>
<polygon fill="midnightblue" stroke="midnightblue" points="571.78,-51.5 581.78,-48 571.78,-44.5 571.78,-51.5"/>
</g>
<!-- Node9 -->
<g id="node9" class="node">
<title>Node9</title>
<g id="a_node9"><a xlink:href="classcarta_1_1Frame.html#a81ac6f87981449dccd193fa2c81dddcf" target="_top" xlink:title=" ">
<polygon fill="none" stroke="black" points="168,-33 168,-63 317,-63 317,-33 168,-33"/>
<text text-anchor="start" x="176" y="-51" font-family="Helvetica,sans-Serif" font-size="10.00">carta::Frame::FillHistogram</text>
<text text-anchor="middle" x="242.5" y="-40" font-family="Helvetica,sans-Serif" font-size="10.00">FromCache</text>
</a>
</g>
</g>
<!-- Node8&#45;&gt;Node9 -->
<g id="edge8" class="edge">
<title>Node8&#45;&gt;Node9</title>
<path fill="none" stroke="midnightblue" d="M358.93,-48C345.03,-48 330.7,-48 317.06,-48"/>
<polygon fill="midnightblue" stroke="midnightblue" points="358.97,-51.5 368.97,-48 358.97,-44.5 358.97,-51.5"/>
</g>
<!-- Node9&#45;&gt;Node3 -->
<g id="edge9" class="edge">
<title>Node9&#45;&gt;Node3</title>
<path fill="none" stroke="midnightblue" d="M172.15,-65.49C157.08,-69.29 141.25,-73.28 126.59,-76.97"/>
<polygon fill="midnightblue" stroke="midnightblue" points="173.09,-68.86 181.94,-63.02 171.38,-62.07 173.09,-68.86"/>
</g>
</g>
</svg>
