<?xml version="1.0" encoding="UTF-8" standalone="no"?>
<!DOCTYPE svg PUBLIC "-//W3C//DTD SVG 1.1//EN"
 "http://www.w3.org/Graphics/SVG/1.1/DTD/svg11.dtd">
<!-- Generated by graphviz version 2.43.0 (0)
 -->
<!-- Title: carta::FileListHandler::FillRegionFileInfo Pages: 1 -->
<svg width="366pt" height="39pt"
 viewBox="0.00 0.00 366.00 39.00" xmlns="http://www.w3.org/2000/svg" xmlns:xlink="http://www.w3.org/1999/xlink">
<g id="graph0" class="graph" transform="scale(1 1) rotate(0) translate(4 35)">
<title>carta::FileListHandler::FillRegionFileInfo</title>
<!-- Node1 -->
<g id="node1" class="node">
<title>Node1</title>
<g id="a_node1"><a xlink:title=" ">
<polygon fill="#bfbfbf" stroke="black" points="0,-0.5 0,-30.5 120,-30.5 120,-0.5 0,-0.5"/>
<text text-anchor="start" x="8" y="-18.5" font-family="Helvetica,sans-Serif" font-size="10.00">carta::FileListHandler</text>
<text text-anchor="middle" x="60" y="-7.5" font-family="Helvetica,sans-Serif" font-size="10.00">::FillRegionFileInfo</text>
</a>
</g>
</g>
<!-- Node2 -->
<g id="node2" class="node">
<title>Node2</title>
<g id="a_node2"><a xlink:href="File_8cc.html#af9947f7bb03abff3412672068ab7acdf" target="_top" xlink:title=" ">
<polygon fill="none" stroke="black" points="156,-6 156,-25 259,-25 259,-6 156,-6"/>
<text text-anchor="middle" x="207.5" y="-13" font-family="Helvetica,sans-Serif" font-size="10.00">GuessRegionType</text>
</a>
</g>
</g>
<!-- Node1&#45;&gt;Node2 -->
<g id="edge1" class="edge">
<title>Node1&#45;&gt;Node2</title>
<path fill="none" stroke="midnightblue" d="M120.18,-15.5C128.57,-15.5 137.21,-15.5 145.63,-15.5"/>
<polygon fill="midnightblue" stroke="midnightblue" points="145.76,-19 155.76,-15.5 145.76,-12 145.76,-19"/>
</g>
<!-- Node3 -->
<g id="node3" class="node">
<title>Node3</title>
<g id="a_node3"><a xlink:href="String_8cc.html#a1540adc30610b9db4add6622c248b9d1" target="_top" xlink:title=" ">
<polygon fill="none" stroke="black" points="295,-6 295,-25 358,-25 358,-6 295,-6"/>
<text text-anchor="middle" x="326.5" y="-13" font-family="Helvetica,sans-Serif" font-size="10.00">HasSuffix</text>
</a>
</g>
</g>
<!-- Node2&#45;&gt;Node3 -->
<g id="edge2" class="edge">
<title>Node2&#45;&gt;Node3</title>
<path fill="none" stroke="midnightblue" d="M259.14,-15.5C267.65,-15.5 276.39,-15.5 284.61,-15.5"/>
<polygon fill="midnightblue" stroke="midnightblue" points="284.7,-19 294.7,-15.5 284.7,-12 284.7,-19"/>
</g>
</g>
</svg>
