<?xml version="1.0" encoding="UTF-8" standalone="no"?>
<!DOCTYPE svg PUBLIC "-//W3C//DTD SVG 1.1//EN"
 "http://www.w3.org/Graphics/SVG/1.1/DTD/svg11.dtd">
<!-- Generated by graphviz version 2.43.0 (0)
 -->
<!-- Title: carta::LoaderCache::Get Pages: 1 -->
<svg width="581pt" height="121pt"
 viewBox="0.00 0.00 581.00 120.50" xmlns="http://www.w3.org/2000/svg" xmlns:xlink="http://www.w3.org/1999/xlink">
<g id="graph0" class="graph" transform="scale(1 1) rotate(0) translate(4 116.5)">
<title>carta::LoaderCache::Get</title>
<!-- Node1 -->
<g id="node1" class="node">
<title>Node1</title>
<g id="a_node1"><a xlink:title=" ">
<polygon fill="#bfbfbf" stroke="black" points="0,-62.5 0,-81.5 134,-81.5 134,-62.5 0,-62.5"/>
<text text-anchor="middle" x="67" y="-69.5" font-family="Helvetica,sans-Serif" font-size="10.00">carta::LoaderCache::Get</text>
</a>
</g>
</g>
<!-- Node2 -->
<g id="node2" class="node">
<title>Node2</title>
<g id="a_node2"><a xlink:href="classcarta_1_1LoaderCache.html#a266bb1e531c331928d9af7f7c3c5b05d" target="_top" xlink:title=" ">
<polygon fill="none" stroke="black" points="170,-82 170,-112 280,-112 280,-82 170,-82"/>
<text text-anchor="start" x="178" y="-100" font-family="Helvetica,sans-Serif" font-size="10.00">carta::LoaderCache</text>
<text text-anchor="middle" x="225" y="-89" font-family="Helvetica,sans-Serif" font-size="10.00">::GetKey</text>
</a>
</g>
</g>
<!-- Node1&#45;&gt;Node2 -->
<g id="edge1" class="edge">
<title>Node1&#45;&gt;Node2</title>
<path fill="none" stroke="midnightblue" d="M127.42,-81.52C137.99,-83.22 149.05,-84.99 159.74,-86.7"/>
<polygon fill="midnightblue" stroke="midnightblue" points="159.44,-90.2 169.86,-88.32 160.54,-83.29 159.44,-90.2"/>
</g>
<!-- Node3 -->
<g id="node3" class="node">
<title>Node3</title>
<g id="a_node3"><a xlink:href="classcarta_1_1FileLoader.html#a581709c9a332af503acb77d79b8ae38f" target="_top" xlink:title=" ">
<polygon fill="none" stroke="black" points="173,-33 173,-63 277,-63 277,-33 173,-33"/>
<text text-anchor="start" x="181" y="-51" font-family="Helvetica,sans-Serif" font-size="10.00">carta::FileLoader::</text>
<text text-anchor="middle" x="225" y="-40" font-family="Helvetica,sans-Serif" font-size="10.00">GetLoader</text>
</a>
</g>
</g>
<!-- Node1&#45;&gt;Node3 -->
<g id="edge2" class="edge">
<title>Node1&#45;&gt;Node3</title>
<path fill="none" stroke="midnightblue" d="M130.1,-62.45C140.79,-60.8 151.9,-59.09 162.57,-57.45"/>
<polygon fill="midnightblue" stroke="midnightblue" points="163.29,-60.88 172.64,-55.9 162.22,-53.96 163.29,-60.88"/>
</g>
<!-- Node4 -->
<g id="node4" class="node">
<title>Node4</title>
<g id="a_node4"><a xlink:href="Casacore_8h.html#a7f2e1b7b1fdc56656757ae21fa22be67" target="_top" xlink:title=" ">
<polygon fill="none" stroke="black" points="316,-76.5 316,-95.5 431,-95.5 431,-76.5 316,-76.5"/>
<text text-anchor="middle" x="373.5" y="-83.5" font-family="Helvetica,sans-Serif" font-size="10.00">CasacoreImageType</text>
</a>
</g>
</g>
<!-- Node3&#45;&gt;Node4 -->
<g id="edge3" class="edge">
<title>Node3&#45;&gt;Node4</title>
<path fill="none" stroke="midnightblue" d="M277.24,-61.29C293.08,-65.4 310.43,-69.9 325.93,-73.92"/>
<polygon fill="midnightblue" stroke="midnightblue" points="325.26,-77.36 335.82,-76.49 327.02,-70.59 325.26,-77.36"/>
</g>
<!-- Node5 -->
<g id="node5" class="node">
<title>Node5</title>
<g id="a_node5"><a xlink:href="File_8cc.html#a75f8a4cb14c9fca8730255b6fee82794" target="_top" xlink:title=" ">
<polygon fill="none" stroke="black" points="322,-38.5 322,-57.5 425,-57.5 425,-38.5 322,-38.5"/>
<text text-anchor="middle" x="373.5" y="-45.5" font-family="Helvetica,sans-Serif" font-size="10.00">IsCompressedFits</text>
</a>
</g>
</g>
<!-- Node3&#45;&gt;Node5 -->
<g id="edge4" class="edge">
<title>Node3&#45;&gt;Node5</title>
<path fill="none" stroke="midnightblue" d="M277.24,-48C288.23,-48 299.95,-48 311.28,-48"/>
<polygon fill="midnightblue" stroke="midnightblue" points="311.54,-51.5 321.54,-48 311.54,-44.5 311.54,-51.5"/>
</g>
<!-- Node9 -->
<g id="node9" class="node">
<title>Node9</title>
<g id="a_node9"><a xlink:href="File_8cc.html#ac3253b9c72cf4368b08803ef2a0102bb" target="_top" xlink:title=" ">
<polygon fill="none" stroke="black" points="323,-0.5 323,-19.5 424,-19.5 424,-0.5 323,-0.5"/>
<text text-anchor="middle" x="373.5" y="-7.5" font-family="Helvetica,sans-Serif" font-size="10.00">IsRemoteHttpFile</text>
</a>
</g>
</g>
<!-- Node3&#45;&gt;Node9 -->
<g id="edge8" class="edge">
<title>Node3&#45;&gt;Node9</title>
<path fill="none" stroke="midnightblue" d="M277.24,-34.71C293.08,-30.6 310.43,-26.1 325.93,-22.08"/>
<polygon fill="midnightblue" stroke="midnightblue" points="327.02,-25.41 335.82,-19.51 325.26,-18.64 327.02,-25.41"/>
</g>
<!-- Node6 -->
<g id="node6" class="node">
<title>Node6</title>
<g id="a_node6"><a xlink:href="File_8cc.html#a7e6d57b61e0979a7171bb2e6519093f9" target="_top" xlink:title=" ">
<polygon fill="none" stroke="black" points="469,-76.5 469,-95.5 571,-95.5 571,-76.5 469,-76.5"/>
<text text-anchor="middle" x="520" y="-83.5" font-family="Helvetica,sans-Serif" font-size="10.00">GetMagicNumber</text>
</a>
</g>
</g>
<!-- Node5&#45;&gt;Node6 -->
<g id="edge5" class="edge">
<title>Node5&#45;&gt;Node6</title>
<path fill="none" stroke="midnightblue" d="M410.96,-57.59C429.77,-62.54 452.91,-68.62 472.95,-73.89"/>
<polygon fill="midnightblue" stroke="midnightblue" points="472.24,-77.32 482.8,-76.48 474.02,-70.55 472.24,-77.32"/>
</g>
<!-- Node7 -->
<g id="node7" class="node">
<title>Node7</title>
<g id="a_node7"><a xlink:href="String_8cc.html#a1540adc30610b9db4add6622c248b9d1" target="_top" xlink:title=" ">
<polygon fill="none" stroke="black" points="488.5,-38.5 488.5,-57.5 551.5,-57.5 551.5,-38.5 488.5,-38.5"/>
<text text-anchor="middle" x="520" y="-45.5" font-family="Helvetica,sans-Serif" font-size="10.00">HasSuffix</text>
</a>
</g>
</g>
<!-- Node5&#45;&gt;Node7 -->
<g id="edge6" class="edge">
<title>Node5&#45;&gt;Node7</title>
<path fill="none" stroke="midnightblue" d="M425.04,-48C442.4,-48 461.6,-48 478.1,-48"/>
<polygon fill="midnightblue" stroke="midnightblue" points="478.5,-51.5 488.5,-48 478.5,-44.5 478.5,-51.5"/>
</g>
<!-- Node8 -->
<g id="node8" class="node">
<title>Node8</title>
<g id="a_node8"><a xlink:href="File_8cc.html#a0b28b83747dc07e95f4a0e1b5b4db83e" target="_top" xlink:title=" ">
<polygon fill="none" stroke="black" points="467,-0.5 467,-19.5 573,-19.5 573,-0.5 467,-0.5"/>
<text text-anchor="middle" x="520" y="-7.5" font-family="Helvetica,sans-Serif" font-size="10.00">IsGzMagicNumber</text>
</a>
</g>
</g>
<!-- Node5&#45;&gt;Node8 -->
<g id="edge7" class="edge">
<title>Node5&#45;&gt;Node8</title>
<path fill="none" stroke="midnightblue" d="M410.96,-38.41C429.77,-33.46 452.91,-27.38 472.95,-22.11"/>
<polygon fill="midnightblue" stroke="midnightblue" points="474.02,-25.45 482.8,-19.52 472.24,-18.68 474.02,-25.45"/>
</g>
</g>
</svg>
