<?xml version="1.0" encoding="UTF-8" standalone="no"?>
<!DOCTYPE svg PUBLIC "-//W3C//DTD SVG 1.1//EN"
 "http://www.w3.org/Graphics/SVG/1.1/DTD/svg11.dtd">
<!-- Generated by graphviz version 2.43.0 (0)
 -->
<!-- Title: carta::Ds9ImportExport::AddExportRegion Pages: 1 -->
<svg width="508pt" height="39pt"
 viewBox="0.00 0.00 508.00 39.00" xmlns="http://www.w3.org/2000/svg" xmlns:xlink="http://www.w3.org/1999/xlink">
<g id="graph0" class="graph" transform="scale(1 1) rotate(0) translate(4 35)">
<title>carta::Ds9ImportExport::AddExportRegion</title>
<!-- Node1 -->
<g id="node1" class="node">
<title>Node1</title>
<g id="a_node1"><a xlink:title=" ">
<polygon fill="#bfbfbf" stroke="black" points="0,-0.5 0,-30.5 130,-30.5 130,-0.5 0,-0.5"/>
<text text-anchor="start" x="8" y="-18.5" font-family="Helvetica,sans-Serif" font-size="10.00">carta::Ds9ImportExport</text>
<text text-anchor="middle" x="65" y="-7.5" font-family="Helvetica,sans-Serif" font-size="10.00">::AddExportRegion</text>
</a>
</g>
</g>
<!-- Node2 -->
<g id="node2" class="node">
<title>Node2</title>
<g id="a_node2"><a xlink:href="classcarta_1_1Ds9ImportExport.html#ab42c36f91f7ee1ea85e4a34485144bc2" target="_top" xlink:title=" ">
<polygon fill="none" stroke="black" points="166,-0.5 166,-30.5 319,-30.5 319,-0.5 166,-0.5"/>
<text text-anchor="start" x="174" y="-18.5" font-family="Helvetica,sans-Serif" font-size="10.00">carta::Ds9ImportExport</text>
<text text-anchor="middle" x="242.5" y="-7.5" font-family="Helvetica,sans-Serif" font-size="10.00">::AddExportStyleParameters</text>
</a>
</g>
</g>
<!-- Node1&#45;&gt;Node2 -->
<g id="edge1" class="edge">
<title>Node1&#45;&gt;Node2</title>
<path fill="none" stroke="midnightblue" d="M130.35,-15.5C138.65,-15.5 147.25,-15.5 155.82,-15.5"/>
<polygon fill="midnightblue" stroke="midnightblue" points="155.85,-19 165.85,-15.5 155.85,-12 155.85,-19"/>
</g>
<!-- Node3 -->
<g id="node3" class="node">
<title>Node3</title>
<g id="a_node3"><a xlink:href="classcarta_1_1RegionImportExport.html#af21c3543b73c915a0a007b3472a74b0f" target="_top" xlink:title=" ">
<polygon fill="none" stroke="black" points="355,-0.5 355,-30.5 500,-30.5 500,-0.5 355,-0.5"/>
<text text-anchor="start" x="363" y="-18.5" font-family="Helvetica,sans-Serif" font-size="10.00">carta::RegionImportExport</text>
<text text-anchor="middle" x="427.5" y="-7.5" font-family="Helvetica,sans-Serif" font-size="10.00">::FormatColor</text>
</a>
</g>
</g>
<!-- Node2&#45;&gt;Node3 -->
<g id="edge2" class="edge">
<title>Node2&#45;&gt;Node3</title>
<path fill="none" stroke="midnightblue" d="M319.25,-15.5C327.64,-15.5 336.21,-15.5 344.67,-15.5"/>
<polygon fill="midnightblue" stroke="midnightblue" points="344.92,-19 354.92,-15.5 344.92,-12 344.92,-19"/>
</g>
</g>
</svg>
