<?xml version="1.0" encoding="UTF-8" standalone="no"?>
<!DOCTYPE svg PUBLIC "-//W3C//DTD SVG 1.1//EN"
 "http://www.w3.org/Graphics/SVG/1.1/DTD/svg11.dtd">
<!-- Generated by graphviz version 2.43.0 (0)
 -->
<!-- Title: carta::SessionContext::cancel_group_execution Pages: 1 -->
<svg width="863pt" height="181pt"
 viewBox="0.00 0.00 863.00 181.00" xmlns="http://www.w3.org/2000/svg" xmlns:xlink="http://www.w3.org/1999/xlink">
<g id="graph0" class="graph" transform="scale(1 1) rotate(0) translate(4 177)">
<title>carta::SessionContext::cancel_group_execution</title>
<!-- Node1 -->
<g id="node1" class="node">
<title>Node1</title>
<g id="a_node1"><a xlink:title=" ">
<polygon fill="#bfbfbf" stroke="black" points="715,-76.5 715,-106.5 855,-106.5 855,-76.5 715,-76.5"/>
<text text-anchor="start" x="723" y="-94.5" font-family="Helvetica,sans-Serif" font-size="10.00">carta::SessionContext</text>
<text text-anchor="middle" x="785" y="-83.5" font-family="Helvetica,sans-Serif" font-size="10.00">::cancel_group_execution</text>
</a>
</g>
</g>
<!-- Node2 -->
<g id="node2" class="node">
<title>Node2</title>
<g id="a_node2"><a xlink:href="classcarta_1_1AnimationObject.html#a93cb86a2a46601786173d587a22ff8bf" target="_top" xlink:title=" ">
<polygon fill="none" stroke="black" points="529,-142.5 529,-172.5 658,-172.5 658,-142.5 529,-142.5"/>
<text text-anchor="start" x="537" y="-160.5" font-family="Helvetica,sans-Serif" font-size="10.00">carta::AnimationObject</text>
<text text-anchor="middle" x="593.5" y="-149.5" font-family="Helvetica,sans-Serif" font-size="10.00">::CancelExecution</text>
</a>
</g>
</g>
<!-- Node1&#45;&gt;Node2 -->
<g id="edge1" class="edge">
<title>Node1&#45;&gt;Node2</title>
<path fill="none" stroke="midnightblue" d="M730.84,-110.02C701.46,-120.25 665.42,-132.8 637.77,-142.43"/>
<polygon fill="midnightblue" stroke="midnightblue" points="732.23,-113.24 740.52,-106.64 729.93,-106.63 732.23,-113.24"/>
</g>
<!-- Node3 -->
<g id="node3" class="node">
<title>Node3</title>
<g id="a_node3"><a xlink:href="classcarta_1_1Session.html#af3d3769b4c8c329adb06d27f98163cc5" target="_top" xlink:title=" ">
<polygon fill="none" stroke="black" points="330,-98.5 330,-128.5 470,-128.5 470,-98.5 330,-98.5"/>
<text text-anchor="start" x="338" y="-116.5" font-family="Helvetica,sans-Serif" font-size="10.00">carta::Session::CancelSet</text>
<text text-anchor="middle" x="400" y="-105.5" font-family="Helvetica,sans-Serif" font-size="10.00">HistRequirements</text>
</a>
</g>
</g>
<!-- Node1&#45;&gt;Node3 -->
<g id="edge2" class="edge">
<title>Node1&#45;&gt;Node3</title>
<path fill="none" stroke="midnightblue" d="M704.24,-96.08C635.08,-100.05 536.02,-105.74 470.17,-109.53"/>
<polygon fill="midnightblue" stroke="midnightblue" points="704.86,-99.55 714.64,-95.48 704.46,-92.56 704.86,-99.55"/>
</g>
<!-- Node6 -->
<g id="node6" class="node">
<title>Node6</title>
<g id="a_node6"><a xlink:href="classcarta_1_1Session.html#a58a607b5c97ef56c8967084ce2d3e6da" target="_top" xlink:title=" ">
<polygon fill="none" stroke="black" points="508,-54.5 508,-84.5 679,-84.5 679,-54.5 508,-54.5"/>
<text text-anchor="start" x="516" y="-72.5" font-family="Helvetica,sans-Serif" font-size="10.00">carta::Session::OnSetHistogram</text>
<text text-anchor="middle" x="593.5" y="-61.5" font-family="Helvetica,sans-Serif" font-size="10.00">Requirements</text>
</a>
</g>
</g>
<!-- Node1&#45;&gt;Node6 -->
<g id="edge5" class="edge">
<title>Node1&#45;&gt;Node6</title>
<path fill="none" stroke="midnightblue" d="M704.58,-82.28C696.13,-81.3 687.51,-80.3 679,-79.31"/>
<polygon fill="midnightblue" stroke="midnightblue" points="704.44,-85.79 714.78,-83.46 705.25,-78.83 704.44,-85.79"/>
</g>
<!-- Node7 -->
<g id="node7" class="node">
<title>Node7</title>
<g id="a_node7"><a xlink:href="classcarta_1_1Session.html#a7f682c7e48eada830bf9ed4a27ced3ae" target="_top" xlink:title=" ">
<polygon fill="none" stroke="black" points="519,-5.5 519,-35.5 668,-35.5 668,-5.5 519,-5.5"/>
<text text-anchor="start" x="527" y="-23.5" font-family="Helvetica,sans-Serif" font-size="10.00">carta::Session::WaitForTask</text>
<text text-anchor="middle" x="593.5" y="-12.5" font-family="Helvetica,sans-Serif" font-size="10.00">Cancellation</text>
</a>
</g>
</g>
<!-- Node1&#45;&gt;Node7 -->
<g id="edge6" class="edge">
<title>Node1&#45;&gt;Node7</title>
<path fill="none" stroke="midnightblue" d="M742.91,-72.07C723.72,-63.37 700.43,-53.33 679,-45.5 669.37,-41.98 659,-38.59 648.92,-35.51"/>
<polygon fill="midnightblue" stroke="midnightblue" points="741.71,-75.37 752.26,-76.35 744.62,-69.01 741.71,-75.37"/>
</g>
<!-- Node4 -->
<g id="node4" class="node">
<title>Node4</title>
<g id="a_node4"><a xlink:href="classcarta_1_1SessionManager.html#a474c31666cb3b22fcbe8af5f945d2950" target="_top" xlink:title=" ">
<polygon fill="none" stroke="black" points="164,-49.5 164,-79.5 292,-79.5 292,-49.5 164,-49.5"/>
<text text-anchor="start" x="172" y="-67.5" font-family="Helvetica,sans-Serif" font-size="10.00">carta::SessionManager</text>
<text text-anchor="middle" x="228" y="-56.5" font-family="Helvetica,sans-Serif" font-size="10.00">::OnMessage</text>
</a>
</g>
</g>
<!-- Node3&#45;&gt;Node4 -->
<g id="edge3" class="edge">
<title>Node3&#45;&gt;Node4</title>
<path fill="none" stroke="midnightblue" d="M336.92,-95.61C318.63,-90.34 298.82,-84.62 281.22,-79.55"/>
<polygon fill="midnightblue" stroke="midnightblue" points="336.03,-98.99 346.61,-98.4 337.97,-92.27 336.03,-98.99"/>
</g>
<!-- Node5 -->
<g id="node5" class="node">
<title>Node5</title>
<g id="a_node5"><a xlink:href="classcarta_1_1SessionManager.html#ab4e4e7f0244bd6843e70ab91652debf6" target="_top" xlink:title=" ">
<polygon fill="none" stroke="black" points="0,-24.5 0,-54.5 128,-54.5 128,-24.5 0,-24.5"/>
<text text-anchor="start" x="8" y="-42.5" font-family="Helvetica,sans-Serif" font-size="10.00">carta::SessionManager</text>
<text text-anchor="middle" x="64" y="-31.5" font-family="Helvetica,sans-Serif" font-size="10.00">::RunApp</text>
</a>
</g>
</g>
<!-- Node4&#45;&gt;Node5 -->
<g id="edge4" class="edge">
<title>Node4&#45;&gt;Node5</title>
<path fill="none" stroke="midnightblue" d="M153.91,-53.22C145.32,-51.9 136.62,-50.55 128.19,-49.25"/>
<polygon fill="midnightblue" stroke="midnightblue" points="153.49,-56.7 163.9,-54.76 154.55,-49.78 153.49,-56.7"/>
</g>
<!-- Node8 -->
<g id="node8" class="node">
<title>Node8</title>
<g id="a_node8"><a xlink:href="classcarta_1_1SessionManager.html#a692b5f2bcc6bdc21ce76424e09e50151" target="_top" xlink:title=" ">
<polygon fill="none" stroke="black" points="336,-0.5 336,-30.5 464,-30.5 464,-0.5 336,-0.5"/>
<text text-anchor="start" x="344" y="-18.5" font-family="Helvetica,sans-Serif" font-size="10.00">carta::SessionManager</text>
<text text-anchor="middle" x="400" y="-7.5" font-family="Helvetica,sans-Serif" font-size="10.00">::DeleteSession</text>
</a>
</g>
</g>
<!-- Node7&#45;&gt;Node8 -->
<g id="edge7" class="edge">
<title>Node7&#45;&gt;Node8</title>
<path fill="none" stroke="midnightblue" d="M508.5,-18.31C493.61,-17.92 478.33,-17.52 464.13,-17.15"/>
<polygon fill="midnightblue" stroke="midnightblue" points="508.65,-21.81 518.74,-18.57 508.83,-14.81 508.65,-21.81"/>
</g>
<!-- Node10 -->
<g id="node10" class="node">
<title>Node10</title>
<g id="a_node10"><a xlink:href="classcarta_1_1Session.html#afe5c090c017ef208f638b96a7eb1ecf0" target="_top" xlink:title=" ">
<polygon fill="none" stroke="black" points="328,-49.5 328,-79.5 472,-79.5 472,-49.5 328,-49.5"/>
<text text-anchor="start" x="336" y="-67.5" font-family="Helvetica,sans-Serif" font-size="10.00">carta::Session::OnResume</text>
<text text-anchor="middle" x="400" y="-56.5" font-family="Helvetica,sans-Serif" font-size="10.00">Session</text>
</a>
</g>
</g>
<!-- Node7&#45;&gt;Node10 -->
<g id="edge10" class="edge">
<title>Node7&#45;&gt;Node10</title>
<path fill="none" stroke="midnightblue" d="M517.34,-37.77C500.51,-41.64 482.79,-45.71 466.4,-49.47"/>
<polygon fill="midnightblue" stroke="midnightblue" points="518.17,-41.17 527.13,-35.52 516.6,-34.35 518.17,-41.17"/>
</g>
<!-- Node9 -->
<g id="node9" class="node">
<title>Node9</title>
<g id="a_node9"><a xlink:href="classcarta_1_1SessionManager.html#afb5dc4f3c2e187bd2e7921912d45dde0" target="_top" xlink:title=" ">
<polygon fill="none" stroke="black" points="164,-0.5 164,-30.5 292,-30.5 292,-0.5 164,-0.5"/>
<text text-anchor="start" x="172" y="-18.5" font-family="Helvetica,sans-Serif" font-size="10.00">carta::SessionManager</text>
<text text-anchor="middle" x="228" y="-7.5" font-family="Helvetica,sans-Serif" font-size="10.00">::OnDisconnect</text>
</a>
</g>
</g>
<!-- Node8&#45;&gt;Node9 -->
<g id="edge8" class="edge">
<title>Node8&#45;&gt;Node9</title>
<path fill="none" stroke="midnightblue" d="M325.55,-15.5C314.4,-15.5 302.98,-15.5 292.07,-15.5"/>
<polygon fill="midnightblue" stroke="midnightblue" points="325.7,-19 335.7,-15.5 325.7,-12 325.7,-19"/>
</g>
<!-- Node9&#45;&gt;Node5 -->
<g id="edge9" class="edge">
<title>Node9&#45;&gt;Node5</title>
<path fill="none" stroke="midnightblue" d="M153.91,-26.33C145.32,-27.6 136.62,-28.89 128.19,-30.14"/>
<polygon fill="midnightblue" stroke="midnightblue" points="154.52,-29.78 163.9,-24.85 153.5,-22.85 154.52,-29.78"/>
</g>
<!-- Node10&#45;&gt;Node4 -->
<g id="edge11" class="edge">
<title>Node10&#45;&gt;Node4</title>
<path fill="none" stroke="midnightblue" d="M317.84,-64.5C309.25,-64.5 300.6,-64.5 292.25,-64.5"/>
<polygon fill="midnightblue" stroke="midnightblue" points="317.89,-68 327.89,-64.5 317.89,-61 317.89,-68"/>
</g>
</g>
</svg>
