<?xml version="1.0" encoding="UTF-8" standalone="no"?>
<!DOCTYPE svg PUBLIC "-//W3C//DTD SVG 1.1//EN"
 "http://www.w3.org/Graphics/SVG/1.1/DTD/svg11.dtd">
<!-- Generated by graphviz version 2.43.0 (0)
 -->
<!-- Title: carta::Frame::CurrentZ Pages: 1 -->
<svg width="715pt" height="279pt"
 viewBox="0.00 0.00 715.00 279.00" xmlns="http://www.w3.org/2000/svg" xmlns:xlink="http://www.w3.org/1999/xlink">
<g id="graph0" class="graph" transform="scale(1 1) rotate(0) translate(4 275)">
<title>carta::Frame::CurrentZ</title>
<!-- Node1 -->
<g id="node1" class="node">
<title>Node1</title>
<g id="a_node1"><a xlink:title=" ">
<polygon fill="#bfbfbf" stroke="black" points="580,-120.5 580,-139.5 707,-139.5 707,-120.5 580,-120.5"/>
<text text-anchor="middle" x="643.5" y="-127.5" font-family="Helvetica,sans-Serif" font-size="10.00">carta::Frame::CurrentZ</text>
</a>
</g>
</g>
<!-- Node2 -->
<g id="node2" class="node">
<title>Node2</title>
<g id="a_node2"><a xlink:href="classcarta_1_1Frame.html#a2e88a8481229d116d2976f51b32ac326" target="_top" xlink:title=" ">
<polygon fill="none" stroke="black" points="168,-251.5 168,-270.5 349,-270.5 349,-251.5 168,-251.5"/>
<text text-anchor="middle" x="258.5" y="-258.5" font-family="Helvetica,sans-Serif" font-size="10.00">carta::Frame::CalculateHistogram</text>
</a>
</g>
</g>
<!-- Node1&#45;&gt;Node2 -->
<g id="edge1" class="edge">
<title>Node1&#45;&gt;Node2</title>
<path fill="none" stroke="midnightblue" d="M631.73,-148.48C616.02,-173.5 584.24,-217.29 544,-237 483.68,-266.54 407.51,-271.54 349.17,-269.69"/>
<polygon fill="midnightblue" stroke="midnightblue" points="634.92,-149.97 637.13,-139.6 628.94,-146.33 634.92,-149.97"/>
</g>
<!-- Node3 -->
<g id="node3" class="node">
<title>Node3</title>
<g id="a_node3"><a xlink:href="classcarta_1_1Frame.html#add5c6cc7f22b6a5d87d7080d29f214fb" target="_top" xlink:title=" ">
<polygon fill="none" stroke="black" points="0,-177 0,-207 132,-207 132,-177 0,-177"/>
<text text-anchor="start" x="8" y="-195" font-family="Helvetica,sans-Serif" font-size="10.00">carta::Frame::FillRegion</text>
<text text-anchor="middle" x="66" y="-184" font-family="Helvetica,sans-Serif" font-size="10.00">HistogramData</text>
</a>
</g>
</g>
<!-- Node1&#45;&gt;Node3 -->
<g id="edge3" class="edge">
<title>Node1&#45;&gt;Node3</title>
<path fill="none" stroke="midnightblue" d="M626.62,-147.25C608.63,-165.39 577.43,-192.84 544,-204 402.56,-251.21 224.2,-226.1 130.76,-207.03"/>
<polygon fill="midnightblue" stroke="midnightblue" points="629.51,-149.29 633.92,-139.65 624.47,-144.44 629.51,-149.29"/>
</g>
<!-- Node4 -->
<g id="node4" class="node">
<title>Node4</title>
<g id="a_node4"><a xlink:href="classcarta_1_1Frame.html#a7b6124c45df53a4dc2e8096ce5314b18" target="_top" xlink:title=" ">
<polygon fill="none" stroke="black" points="398.5,-164 398.5,-194 530.5,-194 530.5,-164 398.5,-164"/>
<text text-anchor="start" x="406.5" y="-182" font-family="Helvetica,sans-Serif" font-size="10.00">carta::Frame::FillRegion</text>
<text text-anchor="middle" x="464.5" y="-171" font-family="Helvetica,sans-Serif" font-size="10.00">StatsData</text>
</a>
</g>
</g>
<!-- Node1&#45;&gt;Node4 -->
<g id="edge4" class="edge">
<title>Node1&#45;&gt;Node4</title>
<path fill="none" stroke="midnightblue" d="M598.15,-142.28C574.4,-148.85 544.94,-157.01 519.82,-163.96"/>
<polygon fill="midnightblue" stroke="midnightblue" points="599.25,-145.61 607.95,-139.56 597.38,-138.86 599.25,-145.61"/>
</g>
<!-- Node5 -->
<g id="node5" class="node">
<title>Node5</title>
<g id="a_node5"><a xlink:href="classcarta_1_1Frame.html#a3d1f8594ec63ae8f16524981c5f21ce2" target="_top" xlink:title=" ">
<polygon fill="none" stroke="black" points="398.5,-115 398.5,-145 530.5,-145 530.5,-115 398.5,-115"/>
<text text-anchor="start" x="406.5" y="-133" font-family="Helvetica,sans-Serif" font-size="10.00">carta::Frame::FillSpatial</text>
<text text-anchor="middle" x="464.5" y="-122" font-family="Helvetica,sans-Serif" font-size="10.00">ProfileData</text>
</a>
</g>
</g>
<!-- Node1&#45;&gt;Node5 -->
<g id="edge5" class="edge">
<title>Node1&#45;&gt;Node5</title>
<path fill="none" stroke="midnightblue" d="M569.4,-130C556.53,-130 543.22,-130 530.59,-130"/>
<polygon fill="midnightblue" stroke="midnightblue" points="569.6,-133.5 579.6,-130 569.6,-126.5 569.6,-133.5"/>
</g>
<!-- Node6 -->
<g id="node6" class="node">
<title>Node6</title>
<g id="a_node6"><a xlink:href="classcarta_1_1Frame.html#aeb6afc8204ae9f00c0517b4f28be32d5" target="_top" xlink:title=" ">
<polygon fill="none" stroke="black" points="401,-76.5 401,-95.5 528,-95.5 528,-76.5 401,-76.5"/>
<text text-anchor="middle" x="464.5" y="-83.5" font-family="Helvetica,sans-Serif" font-size="10.00">carta::Frame::FitImage</text>
</a>
</g>
</g>
<!-- Node1&#45;&gt;Node6 -->
<g id="edge6" class="edge">
<title>Node1&#45;&gt;Node6</title>
<path fill="none" stroke="midnightblue" d="M594.35,-118.03C565.9,-110.96 530.37,-102.13 503.83,-95.53"/>
<polygon fill="midnightblue" stroke="midnightblue" points="593.54,-121.44 604.09,-120.45 595.23,-114.64 593.54,-121.44"/>
</g>
<!-- Node7 -->
<g id="node7" class="node">
<title>Node7</title>
<g id="a_node7"><a xlink:href="classcarta_1_1Frame.html#a1bd6cad34fcc337311218150f6771850" target="_top" xlink:title=" ">
<polygon fill="none" stroke="black" points="388.5,-38.5 388.5,-57.5 540.5,-57.5 540.5,-38.5 388.5,-38.5"/>
<text text-anchor="middle" x="464.5" y="-45.5" font-family="Helvetica,sans-Serif" font-size="10.00">carta::Frame::GetBasicStats</text>
</a>
</g>
</g>
<!-- Node1&#45;&gt;Node7 -->
<g id="edge7" class="edge">
<title>Node1&#45;&gt;Node7</title>
<path fill="none" stroke="midnightblue" d="M622.52,-114.39C603.37,-100.13 573.14,-79.43 544,-67 535.1,-63.2 525.3,-60.07 515.72,-57.53"/>
<polygon fill="midnightblue" stroke="midnightblue" points="620.41,-117.18 630.5,-120.43 624.64,-111.6 620.41,-117.18"/>
</g>
<!-- Node9 -->
<g id="node9" class="node">
<title>Node9</title>
<g id="a_node9"><a xlink:href="classcarta_1_1Frame.html#a10cd86b1997bfb9a7bb2fc6388db469c" target="_top" xlink:title=" ">
<polygon fill="none" stroke="black" points="385,-0.5 385,-19.5 544,-19.5 544,-0.5 385,-0.5"/>
<text text-anchor="middle" x="464.5" y="-7.5" font-family="Helvetica,sans-Serif" font-size="10.00">carta::Frame::GetImageSlicer</text>
</a>
</g>
</g>
<!-- Node1&#45;&gt;Node9 -->
<g id="edge11" class="edge">
<title>Node1&#45;&gt;Node9</title>
<path fill="none" stroke="midnightblue" d="M630.28,-112.36C613.52,-89.53 581.2,-50.19 544,-29 537.18,-25.11 529.58,-22.02 521.88,-19.55"/>
<polygon fill="midnightblue" stroke="midnightblue" points="627.44,-114.4 636.11,-120.49 633.13,-110.32 627.44,-114.4"/>
</g>
<!-- Node2&#45;&gt;Node3 -->
<g id="edge2" class="edge">
<title>Node2&#45;&gt;Node3</title>
<path fill="none" stroke="midnightblue" d="M206.56,-248.82C193.84,-245.38 180.32,-241.37 168,-237 143.75,-228.41 117.22,-216.48 97.43,-207.07"/>
<polygon fill="midnightblue" stroke="midnightblue" points="205.98,-252.29 216.54,-251.46 207.77,-245.52 205.98,-252.29"/>
</g>
<!-- Node7&#45;&gt;Node3 -->
<g id="edge10" class="edge">
<title>Node7&#45;&gt;Node3</title>
<path fill="none" stroke="midnightblue" d="M399.69,-60.78C394.62,-62.59 389.66,-64.66 385,-67 366.39,-76.36 367.18,-86.84 349,-97 279.45,-135.89 191.33,-162.41 132.27,-177.34"/>
<polygon fill="midnightblue" stroke="midnightblue" points="401.11,-64 409.55,-57.59 398.96,-57.34 401.11,-64"/>
</g>
<!-- Node8 -->
<g id="node8" class="node">
<title>Node8</title>
<g id="a_node8"><a xlink:href="classcarta_1_1Frame.html#a3a4bc30034d44066062d5794044da1b6" target="_top" xlink:title=" ">
<polygon fill="none" stroke="black" points="184,-57 184,-87 333,-87 333,-57 184,-57"/>
<text text-anchor="start" x="192" y="-75" font-family="Helvetica,sans-Serif" font-size="10.00">carta::Frame::FillHistogram</text>
<text text-anchor="middle" x="258.5" y="-64" font-family="Helvetica,sans-Serif" font-size="10.00">FromFrameCache</text>
</a>
</g>
</g>
<!-- Node7&#45;&gt;Node8 -->
<g id="edge8" class="edge">
<title>Node7&#45;&gt;Node8</title>
<path fill="none" stroke="midnightblue" d="M378.13,-58.04C363.16,-59.8 347.69,-61.62 333.07,-63.34"/>
<polygon fill="midnightblue" stroke="midnightblue" points="378.88,-61.48 388.41,-56.83 378.07,-54.53 378.88,-61.48"/>
</g>
<!-- Node8&#45;&gt;Node3 -->
<g id="edge9" class="edge">
<title>Node8&#45;&gt;Node3</title>
<path fill="none" stroke="midnightblue" d="M224.7,-92.66C186.63,-116.64 124.75,-155.62 90.93,-176.93"/>
<polygon fill="midnightblue" stroke="midnightblue" points="226.78,-95.49 233.37,-87.2 223.05,-89.57 226.78,-95.49"/>
</g>
</g>
</svg>
