<?xml version="1.0" encoding="UTF-8" standalone="no"?>
<!DOCTYPE svg PUBLIC "-//W3C//DTD SVG 1.1//EN"
 "http://www.w3.org/Graphics/SVG/1.1/DTD/svg11.dtd">
<!-- Generated by graphviz version 2.43.0 (0)
 -->
<!-- Title: carta::TableView::NumericFilter Pages: 1 -->
<svg width="337pt" height="66pt"
 viewBox="0.00 0.00 337.00 66.00" xmlns="http://www.w3.org/2000/svg" xmlns:xlink="http://www.w3.org/1999/xlink">
<g id="graph0" class="graph" transform="scale(1 1) rotate(0) translate(4 62)">
<title>carta::TableView::NumericFilter</title>
<!-- Node1 -->
<g id="node1" class="node">
<title>Node1</title>
<g id="a_node1"><a xlink:title=" ">
<polygon fill="#bfbfbf" stroke="black" points="0,-14 0,-44 143,-44 143,-14 0,-14"/>
<text text-anchor="start" x="8" y="-32" font-family="Helvetica,sans-Serif" font-size="10.00">carta::TableView::Numeric</text>
<text text-anchor="middle" x="71.5" y="-21" font-family="Helvetica,sans-Serif" font-size="10.00">Filter</text>
</a>
</g>
</g>
<!-- Node2 -->
<g id="node2" class="node">
<title>Node2</title>
<g id="a_node2"><a xlink:href="classcarta_1_1Column.html#aaab77c078586ede33eb6a14f0945c11a" target="_top" xlink:title=" ">
<polygon fill="none" stroke="black" points="179,-38.5 179,-57.5 329,-57.5 329,-38.5 179,-38.5"/>
<text text-anchor="middle" x="254" y="-45.5" font-family="Helvetica,sans-Serif" font-size="10.00">carta::Column::FilterIndices</text>
</a>
</g>
</g>
<!-- Node1&#45;&gt;Node2 -->
<g id="edge1" class="edge">
<title>Node1&#45;&gt;Node2</title>
<path fill="none" stroke="midnightblue" d="M143.06,-36.43C151.52,-37.32 160.22,-38.23 168.84,-39.14"/>
<polygon fill="midnightblue" stroke="midnightblue" points="168.6,-42.64 178.91,-40.2 169.34,-35.67 168.6,-42.64"/>
</g>
<!-- Node3 -->
<g id="node3" class="node">
<title>Node3</title>
<g id="a_node3"><a xlink:href="classcarta_1_1Column.html#a67245941f2ccebabd2e37de41acc55ec" target="_top" xlink:title=" ">
<polygon fill="none" stroke="black" points="180,-0.5 180,-19.5 328,-19.5 328,-0.5 180,-0.5"/>
<text text-anchor="middle" x="254" y="-7.5" font-family="Helvetica,sans-Serif" font-size="10.00">carta::Column::NumEntries</text>
</a>
</g>
</g>
<!-- Node1&#45;&gt;Node3 -->
<g id="edge2" class="edge">
<title>Node1&#45;&gt;Node3</title>
<path fill="none" stroke="midnightblue" d="M143.06,-21.57C151.83,-20.65 160.85,-19.7 169.78,-18.76"/>
<polygon fill="midnightblue" stroke="midnightblue" points="170.23,-22.23 179.81,-17.7 169.5,-15.27 170.23,-22.23"/>
</g>
</g>
</svg>
