<?xml version="1.0" encoding="UTF-8" standalone="no"?>
<!DOCTYPE svg PUBLIC "-//W3C//DTD SVG 1.1//EN"
 "http://www.w3.org/Graphics/SVG/1.1/DTD/svg11.dtd">
<!-- Generated by graphviz version 2.43.0 (0)
 -->
<!-- Title: carta::Frame::CacheKey Pages: 1 -->
<svg width="729pt" height="152pt"
 viewBox="0.00 0.00 729.00 151.61" xmlns="http://www.w3.org/2000/svg" xmlns:xlink="http://www.w3.org/1999/xlink">
<g id="graph0" class="graph" transform="scale(1 1) rotate(0) translate(4 147.61)">
<title>carta::Frame::CacheKey</title>
<!-- Node1 -->
<g id="node1" class="node">
<title>Node1</title>
<g id="a_node1"><a xlink:title=" ">
<polygon fill="#bfbfbf" stroke="black" points="589,-72 589,-91 721,-91 721,-72 589,-72"/>
<text text-anchor="middle" x="655" y="-79" font-family="Helvetica,sans-Serif" font-size="10.00">carta::Frame::CacheKey</text>
</a>
</g>
</g>
<!-- Node2 -->
<g id="node2" class="node">
<title>Node2</title>
<g id="a_node2"><a xlink:href="classcarta_1_1Frame.html#a2e88a8481229d116d2976f51b32ac326" target="_top" xlink:title=" ">
<polygon fill="none" stroke="black" points="168,-124 168,-143 349,-143 349,-124 168,-124"/>
<text text-anchor="middle" x="258.5" y="-131" font-family="Helvetica,sans-Serif" font-size="10.00">carta::Frame::CalculateHistogram</text>
</a>
</g>
</g>
<!-- Node1&#45;&gt;Node2 -->
<g id="edge1" class="edge">
<title>Node1&#45;&gt;Node2</title>
<path fill="none" stroke="midnightblue" d="M629.98,-96.19C610.14,-107.45 580.82,-122.09 553,-128.5 485.95,-143.94 408,-144.48 349.29,-141.55"/>
<polygon fill="midnightblue" stroke="midnightblue" points="631.77,-99.2 638.65,-91.15 628.25,-93.15 631.77,-99.2"/>
</g>
<!-- Node4 -->
<g id="node4" class="node">
<title>Node4</title>
<g id="a_node4"><a xlink:href="classcarta_1_1Frame.html#a7b6124c45df53a4dc2e8096ce5314b18" target="_top" xlink:title=" ">
<polygon fill="none" stroke="black" points="403,-88.5 403,-118.5 535,-118.5 535,-88.5 403,-88.5"/>
<text text-anchor="start" x="411" y="-106.5" font-family="Helvetica,sans-Serif" font-size="10.00">carta::Frame::FillRegion</text>
<text text-anchor="middle" x="469" y="-95.5" font-family="Helvetica,sans-Serif" font-size="10.00">StatsData</text>
</a>
</g>
</g>
<!-- Node1&#45;&gt;Node4 -->
<g id="edge3" class="edge">
<title>Node1&#45;&gt;Node4</title>
<path fill="none" stroke="midnightblue" d="M578.91,-90.48C564.36,-92.22 549.23,-94.03 535.04,-95.72"/>
<polygon fill="midnightblue" stroke="midnightblue" points="579.36,-93.95 588.87,-89.29 578.52,-87 579.36,-93.95"/>
</g>
<!-- Node5 -->
<g id="node5" class="node">
<title>Node5</title>
<g id="a_node5"><a xlink:href="classcarta_1_1Frame.html#a1bd6cad34fcc337311218150f6771850" target="_top" xlink:title=" ">
<polygon fill="none" stroke="black" points="393,-50 393,-69 545,-69 545,-50 393,-50"/>
<text text-anchor="middle" x="469" y="-57" font-family="Helvetica,sans-Serif" font-size="10.00">carta::Frame::GetBasicStats</text>
</a>
</g>
</g>
<!-- Node1&#45;&gt;Node5 -->
<g id="edge4" class="edge">
<title>Node1&#45;&gt;Node5</title>
<path fill="none" stroke="midnightblue" d="M578.78,-72.51C567.66,-71.18 556.21,-69.81 545.1,-68.48"/>
<polygon fill="midnightblue" stroke="midnightblue" points="578.52,-76 588.87,-73.71 579.36,-69.05 578.52,-76"/>
</g>
<!-- Node7 -->
<g id="node7" class="node">
<title>Node7</title>
<g id="a_node7"><a xlink:href="classcarta_1_1Frame.html#ac69e2783075a77c44ffc888d4e09a9b8" target="_top" xlink:title=" ">
<polygon fill="none" stroke="black" points="385,-0.5 385,-30.5 553,-30.5 553,-0.5 385,-0.5"/>
<text text-anchor="start" x="393" y="-18.5" font-family="Helvetica,sans-Serif" font-size="10.00">carta::Frame::GetCachedImage</text>
<text text-anchor="middle" x="469" y="-7.5" font-family="Helvetica,sans-Serif" font-size="10.00">Histogram</text>
</a>
</g>
</g>
<!-- Node1&#45;&gt;Node7 -->
<g id="edge8" class="edge">
<title>Node1&#45;&gt;Node7</title>
<path fill="none" stroke="midnightblue" d="M622.72,-67.92C602.91,-59.55 576.66,-48.85 553,-40.5 543.21,-37.05 532.66,-33.64 522.49,-30.5"/>
<polygon fill="midnightblue" stroke="midnightblue" points="621.59,-71.25 632.16,-71.95 624.33,-64.81 621.59,-71.25"/>
</g>
<!-- Node3 -->
<g id="node3" class="node">
<title>Node3</title>
<g id="a_node3"><a xlink:href="classcarta_1_1Frame.html#add5c6cc7f22b6a5d87d7080d29f214fb" target="_top" xlink:title=" ">
<polygon fill="none" stroke="black" points="0,-66.5 0,-96.5 132,-96.5 132,-66.5 0,-66.5"/>
<text text-anchor="start" x="8" y="-84.5" font-family="Helvetica,sans-Serif" font-size="10.00">carta::Frame::FillRegion</text>
<text text-anchor="middle" x="66" y="-73.5" font-family="Helvetica,sans-Serif" font-size="10.00">HistogramData</text>
</a>
</g>
</g>
<!-- Node2&#45;&gt;Node3 -->
<g id="edge2" class="edge">
<title>Node2&#45;&gt;Node3</title>
<path fill="none" stroke="midnightblue" d="M212.6,-121.24C185.59,-113.87 150.98,-104.42 122.29,-96.59"/>
<polygon fill="midnightblue" stroke="midnightblue" points="211.99,-124.71 222.56,-123.96 213.83,-117.95 211.99,-124.71"/>
</g>
<!-- Node5&#45;&gt;Node3 -->
<g id="edge7" class="edge">
<title>Node5&#45;&gt;Node3</title>
<path fill="none" stroke="midnightblue" d="M382.23,-64.21C307.32,-68.32 200.21,-74.19 132.14,-77.93"/>
<polygon fill="midnightblue" stroke="midnightblue" points="382.78,-67.68 392.57,-63.64 382.4,-60.69 382.78,-67.68"/>
</g>
<!-- Node6 -->
<g id="node6" class="node">
<title>Node6</title>
<g id="a_node6"><a xlink:href="classcarta_1_1Frame.html#a3a4bc30034d44066062d5794044da1b6" target="_top" xlink:title=" ">
<polygon fill="none" stroke="black" points="184,-22.5 184,-52.5 333,-52.5 333,-22.5 184,-22.5"/>
<text text-anchor="start" x="192" y="-40.5" font-family="Helvetica,sans-Serif" font-size="10.00">carta::Frame::FillHistogram</text>
<text text-anchor="middle" x="258.5" y="-29.5" font-family="Helvetica,sans-Serif" font-size="10.00">FromFrameCache</text>
</a>
</g>
</g>
<!-- Node5&#45;&gt;Node6 -->
<g id="edge5" class="edge">
<title>Node5&#45;&gt;Node6</title>
<path fill="none" stroke="midnightblue" d="M382.63,-50.49C366.25,-48.76 349.24,-46.97 333.27,-45.28"/>
<polygon fill="midnightblue" stroke="midnightblue" points="382.41,-53.99 392.73,-51.56 383.15,-47.03 382.41,-53.99"/>
</g>
<!-- Node6&#45;&gt;Node3 -->
<g id="edge6" class="edge">
<title>Node6&#45;&gt;Node3</title>
<path fill="none" stroke="midnightblue" d="M182.27,-54.88C165.66,-58.71 148.21,-62.74 132.06,-66.47"/>
<polygon fill="midnightblue" stroke="midnightblue" points="183.52,-58.18 192.47,-52.52 181.94,-51.36 183.52,-58.18"/>
</g>
<!-- Node7&#45;&gt;Node6 -->
<g id="edge9" class="edge">
<title>Node7&#45;&gt;Node6</title>
<path fill="none" stroke="midnightblue" d="M374.87,-25.33C360.88,-26.8 346.62,-28.31 333.11,-29.73"/>
<polygon fill="midnightblue" stroke="midnightblue" points="375.42,-28.79 385,-24.26 374.68,-21.83 375.42,-28.79"/>
</g>
</g>
</svg>
