<?xml version="1.0" encoding="UTF-8" standalone="no"?>
<!DOCTYPE svg PUBLIC "-//W3C//DTD SVG 1.1//EN"
 "http://www.w3.org/Graphics/SVG/1.1/DTD/svg11.dtd">
<!-- Generated by graphviz version 2.43.0 (0)
 -->
<!-- Title: Compression.h Pages: 1 -->
<svg width="1675pt" height="476pt"
 viewBox="0.00 0.00 1675.00 476.00" xmlns="http://www.w3.org/2000/svg" xmlns:xlink="http://www.w3.org/1999/xlink">
<g id="graph0" class="graph" transform="scale(1 1) rotate(0) translate(4 472)">
<title>Compression.h</title>
<!-- Node1 -->
<g id="node1" class="node">
<title>Node1</title>
<g id="a_node1"><a xlink:title=" ">
<polygon fill="#bfbfbf" stroke="black" points="1042.5,-448.5 1042.5,-467.5 1131.5,-467.5 1131.5,-448.5 1042.5,-448.5"/>
<text text-anchor="middle" x="1087" y="-455.5" font-family="Helvetica,sans-Serif" font-size="10.00">Compression.h</text>
</a>
</g>
</g>
<!-- Node2 -->
<g id="node2" class="node">
<title>Node2</title>
<g id="a_node2"><a xlink:href="Compression_8cc.html" target="_top" xlink:title=" ">
<polygon fill="none" stroke="black" points="866,-392.5 866,-411.5 960,-411.5 960,-392.5 866,-392.5"/>
<text text-anchor="middle" x="913" y="-399.5" font-family="Helvetica,sans-Serif" font-size="10.00">Compression.cc</text>
</a>
</g>
</g>
<!-- Node1&#45;&gt;Node2 -->
<g id="edge1" class="edge">
<title>Node1&#45;&gt;Node2</title>
<path fill="none" stroke="midnightblue" d="M1049.74,-445.44C1016.93,-435.26 969.92,-420.66 940.44,-411.52"/>
<polygon fill="midnightblue" stroke="midnightblue" points="1048.84,-448.82 1059.43,-448.44 1050.92,-442.14 1048.84,-448.82"/>
</g>
<!-- Node3 -->
<g id="node3" class="node">
<title>Node3</title>
<g id="a_node3"><a xlink:href="VectorField_8h.html" target="_top" xlink:title=" ">
<polygon fill="none" stroke="black" points="978,-392.5 978,-411.5 1058,-411.5 1058,-392.5 978,-392.5"/>
<text text-anchor="middle" x="1018" y="-399.5" font-family="Helvetica,sans-Serif" font-size="10.00">VectorField.h</text>
</a>
</g>
</g>
<!-- Node1&#45;&gt;Node3 -->
<g id="edge2" class="edge">
<title>Node1&#45;&gt;Node3</title>
<path fill="none" stroke="midnightblue" d="M1067.96,-442.1C1055.54,-432.38 1039.76,-420.03 1029.29,-411.83"/>
<polygon fill="midnightblue" stroke="midnightblue" points="1065.88,-444.92 1075.91,-448.32 1070.2,-439.4 1065.88,-444.92"/>
</g>
<!-- Node6 -->
<g id="node6" class="node">
<title>Node6</title>
<g id="a_node6"><a xlink:href="Frame_8cc.html" target="_top" xlink:title=" ">
<polygon fill="none" stroke="black" points="1010.5,-280.5 1010.5,-299.5 1071.5,-299.5 1071.5,-280.5 1010.5,-280.5"/>
<text text-anchor="middle" x="1041" y="-287.5" font-family="Helvetica,sans-Serif" font-size="10.00">Frame.cc</text>
</a>
</g>
</g>
<!-- Node1&#45;&gt;Node6 -->
<g id="edge47" class="edge">
<title>Node1&#45;&gt;Node6</title>
<path fill="none" stroke="midnightblue" d="M1086.27,-438.21C1084.84,-413.94 1080.59,-370.68 1068,-336 1063.09,-322.47 1053.96,-308.5 1047.68,-299.79"/>
<polygon fill="midnightblue" stroke="midnightblue" points="1082.78,-438.39 1086.76,-448.21 1089.77,-438.05 1082.78,-438.39"/>
</g>
<!-- Node23 -->
<g id="node23" class="node">
<title>Node23</title>
<g id="a_node23"><a xlink:href="Session_8cc.html" target="_top" xlink:title=" ">
<polygon fill="none" stroke="black" points="1599,-0.5 1599,-19.5 1667,-19.5 1667,-0.5 1599,-0.5"/>
<text text-anchor="middle" x="1633" y="-7.5" font-family="Helvetica,sans-Serif" font-size="10.00">Session.cc</text>
</a>
</g>
</g>
<!-- Node1&#45;&gt;Node23 -->
<g id="edge48" class="edge">
<title>Node1&#45;&gt;Node23</title>
<path fill="none" stroke="midnightblue" d="M1108.95,-442.27C1134.14,-423.43 1172,-388.24 1172,-347 1172,-347 1172,-347 1172,-121 1172,-110.03 1491.89,-41.01 1598.73,-18.26"/>
<polygon fill="midnightblue" stroke="midnightblue" points="1106.73,-439.56 1100.66,-448.24 1110.82,-445.24 1106.73,-439.56"/>
</g>
<!-- Node37 -->
<g id="node37" class="node">
<title>Node37</title>
<g id="a_node37"><a xlink:href="Message_8cc.html" target="_top" xlink:title=" ">
<polygon fill="none" stroke="black" points="1200,-392.5 1200,-411.5 1274,-411.5 1274,-392.5 1200,-392.5"/>
<text text-anchor="middle" x="1237" y="-399.5" font-family="Helvetica,sans-Serif" font-size="10.00">Message.cc</text>
</a>
</g>
</g>
<!-- Node1&#45;&gt;Node37 -->
<g id="edge49" class="edge">
<title>Node1&#45;&gt;Node37</title>
<path fill="none" stroke="midnightblue" d="M1120.22,-445.04C1148.45,-434.88 1188.26,-420.55 1213.34,-411.52"/>
<polygon fill="midnightblue" stroke="midnightblue" points="1118.99,-441.76 1110.77,-448.44 1121.36,-448.35 1118.99,-441.76"/>
</g>
<!-- Node4 -->
<g id="node4" class="node">
<title>Node4</title>
<g id="a_node4"><a xlink:href="VectorField_8cc.html" target="_top" xlink:title=" ">
<polygon fill="none" stroke="black" points="975,-336.5 975,-355.5 1059,-355.5 1059,-336.5 975,-336.5"/>
<text text-anchor="middle" x="1017" y="-343.5" font-family="Helvetica,sans-Serif" font-size="10.00">VectorField.cc</text>
</a>
</g>
</g>
<!-- Node3&#45;&gt;Node4 -->
<g id="edge3" class="edge">
<title>Node3&#45;&gt;Node4</title>
<path fill="none" stroke="midnightblue" d="M1017.64,-381.8C1017.48,-372.91 1017.29,-362.78 1017.16,-355.75"/>
<polygon fill="midnightblue" stroke="midnightblue" points="1014.15,-382.15 1017.83,-392.08 1021.15,-382.02 1014.15,-382.15"/>
</g>
<!-- Node5 -->
<g id="node5" class="node">
<title>Node5</title>
<g id="a_node5"><a xlink:href="Frame_8h.html" target="_top" xlink:title=" ">
<polygon fill="none" stroke="black" points="782,-336.5 782,-355.5 838,-355.5 838,-336.5 782,-336.5"/>
<text text-anchor="middle" x="810" y="-343.5" font-family="Helvetica,sans-Serif" font-size="10.00">Frame.h</text>
</a>
</g>
</g>
<!-- Node3&#45;&gt;Node5 -->
<g id="edge4" class="edge">
<title>Node3&#45;&gt;Node5</title>
<path fill="none" stroke="midnightblue" d="M975.32,-389.92C934.28,-379.27 873.43,-363.47 838.13,-354.3"/>
<polygon fill="midnightblue" stroke="midnightblue" points="974.48,-393.32 985.04,-392.44 976.24,-386.54 974.48,-393.32"/>
</g>
<!-- Node5&#45;&gt;Node6 -->
<g id="edge5" class="edge">
<title>Node5&#45;&gt;Node6</title>
<path fill="none" stroke="midnightblue" d="M848.09,-336.1C893.46,-325.49 968.36,-307.98 1010.24,-298.19"/>
<polygon fill="midnightblue" stroke="midnightblue" points="847.27,-332.69 838.33,-338.38 848.86,-339.51 847.27,-332.69"/>
</g>
<!-- Node7 -->
<g id="node7" class="node">
<title>Node7</title>
<g id="a_node7"><a xlink:href="Hdf5Loader_8h.html" target="_top" xlink:title=" ">
<polygon fill="none" stroke="black" points="103.5,-280.5 103.5,-299.5 184.5,-299.5 184.5,-280.5 103.5,-280.5"/>
<text text-anchor="middle" x="144" y="-287.5" font-family="Helvetica,sans-Serif" font-size="10.00">Hdf5Loader.h</text>
</a>
</g>
</g>
<!-- Node5&#45;&gt;Node7 -->
<g id="edge6" class="edge">
<title>Node5&#45;&gt;Node7</title>
<path fill="none" stroke="midnightblue" d="M771.56,-341.88C654.74,-332.41 304.58,-304.02 184.74,-294.3"/>
<polygon fill="midnightblue" stroke="midnightblue" points="771.56,-345.39 781.81,-342.71 772.12,-338.42 771.56,-345.39"/>
</g>
<!-- Node10 -->
<g id="node10" class="node">
<title>Node10</title>
<g id="a_node10"><a xlink:href="RegionHandler_8h.html" target="_top" xlink:title=" ">
<polygon fill="none" stroke="black" points="595.5,-280.5 595.5,-299.5 692.5,-299.5 692.5,-280.5 595.5,-280.5"/>
<text text-anchor="middle" x="644" y="-287.5" font-family="Helvetica,sans-Serif" font-size="10.00">RegionHandler.h</text>
</a>
</g>
</g>
<!-- Node5&#45;&gt;Node10 -->
<g id="edge9" class="edge">
<title>Node5&#45;&gt;Node10</title>
<path fill="none" stroke="midnightblue" d="M774.05,-333.3C742.77,-323.13 698.18,-308.62 670.18,-299.52"/>
<polygon fill="midnightblue" stroke="midnightblue" points="773.1,-336.68 783.7,-336.44 775.27,-330.02 773.1,-336.68"/>
</g>
<!-- Node19 -->
<g id="node19" class="node">
<title>Node19</title>
<g id="a_node19"><a xlink:href="Session_8h.html" target="_top" xlink:title=" ">
<polygon fill="none" stroke="black" points="778.5,-224.5 778.5,-243.5 841.5,-243.5 841.5,-224.5 778.5,-224.5"/>
<text text-anchor="middle" x="810" y="-231.5" font-family="Helvetica,sans-Serif" font-size="10.00">Session.h</text>
</a>
</g>
</g>
<!-- Node5&#45;&gt;Node19 -->
<g id="edge46" class="edge">
<title>Node5&#45;&gt;Node19</title>
<path fill="none" stroke="midnightblue" d="M810,-326.35C810,-302.25 810,-261.31 810,-243.59"/>
<polygon fill="midnightblue" stroke="midnightblue" points="806.5,-326.37 810,-336.37 813.5,-326.37 806.5,-326.37"/>
</g>
<!-- Node8 -->
<g id="node8" class="node">
<title>Node8</title>
<g id="a_node8"><a xlink:href="FileLoader_8cc.html" target="_top" xlink:title=" ">
<polygon fill="none" stroke="black" points="104,-224.5 104,-243.5 184,-243.5 184,-224.5 104,-224.5"/>
<text text-anchor="middle" x="144" y="-231.5" font-family="Helvetica,sans-Serif" font-size="10.00">FileLoader.cc</text>
</a>
</g>
</g>
<!-- Node7&#45;&gt;Node8 -->
<g id="edge7" class="edge">
<title>Node7&#45;&gt;Node8</title>
<path fill="none" stroke="midnightblue" d="M144,-269.8C144,-260.91 144,-250.78 144,-243.75"/>
<polygon fill="midnightblue" stroke="midnightblue" points="140.5,-270.08 144,-280.08 147.5,-270.08 140.5,-270.08"/>
</g>
<!-- Node9 -->
<g id="node9" class="node">
<title>Node9</title>
<g id="a_node9"><a xlink:href="Hdf5Loader_8cc.html" target="_top" xlink:title=" ">
<polygon fill="none" stroke="black" points="0,-224.5 0,-243.5 86,-243.5 86,-224.5 0,-224.5"/>
<text text-anchor="middle" x="43" y="-231.5" font-family="Helvetica,sans-Serif" font-size="10.00">Hdf5Loader.cc</text>
</a>
</g>
</g>
<!-- Node7&#45;&gt;Node9 -->
<g id="edge8" class="edge">
<title>Node7&#45;&gt;Node9</title>
<path fill="none" stroke="midnightblue" d="M118.92,-275.59C100.24,-265.61 75.3,-252.27 59.19,-243.65"/>
<polygon fill="midnightblue" stroke="midnightblue" points="117.3,-278.7 127.77,-280.32 120.6,-272.52 117.3,-278.7"/>
</g>
<!-- Node11 -->
<g id="node11" class="node">
<title>Node11</title>
<g id="a_node11"><a xlink:href="RegionHandler_8cc.html" target="_top" xlink:title=" ">
<polygon fill="none" stroke="black" points="119.5,-112.5 119.5,-131.5 220.5,-131.5 220.5,-112.5 119.5,-112.5"/>
<text text-anchor="middle" x="170" y="-119.5" font-family="Helvetica,sans-Serif" font-size="10.00">RegionHandler.cc</text>
</a>
</g>
</g>
<!-- Node10&#45;&gt;Node11 -->
<g id="edge10" class="edge">
<title>Node10&#45;&gt;Node11</title>
<path fill="none" stroke="midnightblue" d="M585.25,-286.01C500.96,-279.31 343.48,-257.71 231,-188 206.53,-172.84 185.42,-145.39 175.7,-131.52"/>
<polygon fill="midnightblue" stroke="midnightblue" points="585.18,-289.51 595.41,-286.77 585.7,-282.53 585.18,-289.51"/>
</g>
<!-- Node12 -->
<g id="node12" class="node">
<title>Node12</title>
<g id="a_node12"><a xlink:href="RegionImportExport_8h.html" target="_top" xlink:title=" ">
<polygon fill="none" stroke="black" points="426.5,-224.5 426.5,-243.5 549.5,-243.5 549.5,-224.5 426.5,-224.5"/>
<text text-anchor="middle" x="488" y="-231.5" font-family="Helvetica,sans-Serif" font-size="10.00">RegionImportExport.h</text>
</a>
</g>
</g>
<!-- Node10&#45;&gt;Node12 -->
<g id="edge11" class="edge">
<title>Node10&#45;&gt;Node12</title>
<path fill="none" stroke="midnightblue" d="M609.83,-277.17C580.46,-267 538.8,-252.59 512.6,-243.52"/>
<polygon fill="midnightblue" stroke="midnightblue" points="608.69,-280.48 619.28,-280.44 610.98,-273.86 608.69,-280.48"/>
</g>
<!-- Node10&#45;&gt;Node19 -->
<g id="edge20" class="edge">
<title>Node10&#45;&gt;Node19</title>
<path fill="none" stroke="midnightblue" d="M679.95,-277.3C711.23,-267.13 755.82,-252.62 783.82,-243.52"/>
<polygon fill="midnightblue" stroke="midnightblue" points="678.73,-274.02 670.3,-280.44 680.9,-280.68 678.73,-274.02"/>
</g>
<!-- Node13 -->
<g id="node13" class="node">
<title>Node13</title>
<g id="a_node13"><a xlink:href="CrtfImportExport_8h.html" target="_top" xlink:title=" ">
<polygon fill="none" stroke="black" points="240.5,-168.5 240.5,-187.5 347.5,-187.5 347.5,-168.5 240.5,-168.5"/>
<text text-anchor="middle" x="294" y="-175.5" font-family="Helvetica,sans-Serif" font-size="10.00">CrtfImportExport.h</text>
</a>
</g>
</g>
<!-- Node12&#45;&gt;Node13 -->
<g id="edge12" class="edge">
<title>Node12&#45;&gt;Node13</title>
<path fill="none" stroke="midnightblue" d="M447.4,-221.7C410.78,-211.51 357.74,-196.74 324.6,-187.52"/>
<polygon fill="midnightblue" stroke="midnightblue" points="446.69,-225.13 457.26,-224.44 448.56,-218.39 446.69,-225.13"/>
</g>
<!-- Node15 -->
<g id="node15" class="node">
<title>Node15</title>
<g id="a_node15"><a xlink:href="Ds9ImportExport_8h.html" target="_top" xlink:title=" ">
<polygon fill="none" stroke="black" points="366,-168.5 366,-187.5 474,-187.5 474,-168.5 366,-168.5"/>
<text text-anchor="middle" x="420" y="-175.5" font-family="Helvetica,sans-Serif" font-size="10.00">Ds9ImportExport.h</text>
</a>
</g>
</g>
<!-- Node12&#45;&gt;Node15 -->
<g id="edge15" class="edge">
<title>Node12&#45;&gt;Node15</title>
<path fill="none" stroke="midnightblue" d="M469.24,-218.1C457,-208.38 441.44,-196.03 431.12,-187.83"/>
<polygon fill="midnightblue" stroke="midnightblue" points="467.07,-220.85 477.07,-224.32 471.42,-215.36 467.07,-220.85"/>
</g>
<!-- Node18 -->
<g id="node18" class="node">
<title>Node18</title>
<g id="a_node18"><a xlink:href="RegionImportExport_8cc.html" target="_top" xlink:title=" ">
<polygon fill="none" stroke="black" points="492,-168.5 492,-187.5 620,-187.5 620,-168.5 492,-168.5"/>
<text text-anchor="middle" x="556" y="-175.5" font-family="Helvetica,sans-Serif" font-size="10.00">RegionImportExport.cc</text>
</a>
</g>
</g>
<!-- Node12&#45;&gt;Node18 -->
<g id="edge19" class="edge">
<title>Node12&#45;&gt;Node18</title>
<path fill="none" stroke="midnightblue" d="M506.76,-218.1C519,-208.38 534.56,-196.03 544.88,-187.83"/>
<polygon fill="midnightblue" stroke="midnightblue" points="504.58,-215.36 498.93,-224.32 508.93,-220.85 504.58,-215.36"/>
</g>
<!-- Node13&#45;&gt;Node11 -->
<g id="edge14" class="edge">
<title>Node13&#45;&gt;Node11</title>
<path fill="none" stroke="midnightblue" d="M264.99,-164.37C241.77,-154.26 209.84,-140.35 189.56,-131.52"/>
<polygon fill="midnightblue" stroke="midnightblue" points="263.79,-167.66 274.35,-168.44 266.58,-161.24 263.79,-167.66"/>
</g>
<!-- Node14 -->
<g id="node14" class="node">
<title>Node14</title>
<g id="a_node14"><a xlink:href="CrtfImportExport_8cc.html" target="_top" xlink:title=" ">
<polygon fill="none" stroke="black" points="239,-112.5 239,-131.5 351,-131.5 351,-112.5 239,-112.5"/>
<text text-anchor="middle" x="295" y="-119.5" font-family="Helvetica,sans-Serif" font-size="10.00">CrtfImportExport.cc</text>
</a>
</g>
</g>
<!-- Node13&#45;&gt;Node14 -->
<g id="edge13" class="edge">
<title>Node13&#45;&gt;Node14</title>
<path fill="none" stroke="midnightblue" d="M294.36,-157.8C294.52,-148.91 294.71,-138.78 294.84,-131.75"/>
<polygon fill="midnightblue" stroke="midnightblue" points="290.85,-158.02 294.17,-168.08 297.85,-158.15 290.85,-158.02"/>
</g>
<!-- Node15&#45;&gt;Node11 -->
<g id="edge18" class="edge">
<title>Node15&#45;&gt;Node11</title>
<path fill="none" stroke="midnightblue" d="M370.38,-166.28C323.13,-156.08 252.96,-140.92 209.43,-131.52"/>
<polygon fill="midnightblue" stroke="midnightblue" points="369.87,-169.75 380.39,-168.44 371.35,-162.91 369.87,-169.75"/>
</g>
<!-- Node16 -->
<g id="node16" class="node">
<title>Node16</title>
<g id="a_node16"><a xlink:href="FileListHandler_8cc.html" target="_top" xlink:title=" ">
<polygon fill="none" stroke="black" points="369,-112.5 369,-131.5 471,-131.5 471,-112.5 369,-112.5"/>
<text text-anchor="middle" x="420" y="-119.5" font-family="Helvetica,sans-Serif" font-size="10.00">FileListHandler.cc</text>
</a>
</g>
</g>
<!-- Node15&#45;&gt;Node16 -->
<g id="edge16" class="edge">
<title>Node15&#45;&gt;Node16</title>
<path fill="none" stroke="midnightblue" d="M420,-157.8C420,-148.91 420,-138.78 420,-131.75"/>
<polygon fill="midnightblue" stroke="midnightblue" points="416.5,-158.08 420,-168.08 423.5,-158.08 416.5,-158.08"/>
</g>
<!-- Node17 -->
<g id="node17" class="node">
<title>Node17</title>
<g id="a_node17"><a xlink:href="Ds9ImportExport_8cc.html" target="_top" xlink:title=" ">
<polygon fill="none" stroke="black" points="489.5,-112.5 489.5,-131.5 602.5,-131.5 602.5,-112.5 489.5,-112.5"/>
<text text-anchor="middle" x="546" y="-119.5" font-family="Helvetica,sans-Serif" font-size="10.00">Ds9ImportExport.cc</text>
</a>
</g>
</g>
<!-- Node15&#45;&gt;Node17 -->
<g id="edge17" class="edge">
<title>Node15&#45;&gt;Node17</title>
<path fill="none" stroke="midnightblue" d="M449.16,-164.5C472.78,-154.38 505.43,-140.39 526.13,-131.52"/>
<polygon fill="midnightblue" stroke="midnightblue" points="447.78,-161.29 439.97,-168.44 450.54,-167.72 447.78,-161.29"/>
</g>
<!-- Node20 -->
<g id="node20" class="node">
<title>Node20</title>
<g id="a_node20"><a xlink:href="CursorSettings_8cc.html" target="_top" xlink:title=" ">
<polygon fill="none" stroke="black" points="638.5,-168.5 638.5,-187.5 739.5,-187.5 739.5,-168.5 638.5,-168.5"/>
<text text-anchor="middle" x="689" y="-175.5" font-family="Helvetica,sans-Serif" font-size="10.00">CursorSettings.cc</text>
</a>
</g>
</g>
<!-- Node19&#45;&gt;Node20 -->
<g id="edge21" class="edge">
<title>Node19&#45;&gt;Node20</title>
<path fill="none" stroke="midnightblue" d="M781.69,-220.37C759.03,-210.26 727.87,-196.35 708.08,-187.52"/>
<polygon fill="midnightblue" stroke="midnightblue" points="780.27,-223.56 790.83,-224.44 783.12,-217.17 780.27,-223.56"/>
</g>
<!-- Node21 -->
<g id="node21" class="node">
<title>Node21</title>
<g id="a_node21"><a xlink:href="OnMessageTask_8h.html" target="_top" xlink:title=" ">
<polygon fill="none" stroke="black" points="838,-112.5 838,-131.5 942,-131.5 942,-112.5 838,-112.5"/>
<text text-anchor="middle" x="890" y="-119.5" font-family="Helvetica,sans-Serif" font-size="10.00">OnMessageTask.h</text>
</a>
</g>
</g>
<!-- Node19&#45;&gt;Node21 -->
<g id="edge22" class="edge">
<title>Node19&#45;&gt;Node21</title>
<path fill="none" stroke="midnightblue" d="M836.09,-219.11C848.28,-211.42 862.05,-200.81 871,-188 883.25,-170.46 887.69,-145.01 889.23,-131.76"/>
<polygon fill="midnightblue" stroke="midnightblue" points="833.98,-216.29 827.18,-224.41 837.56,-222.31 833.98,-216.29"/>
</g>
<!-- Node19&#45;&gt;Node23 -->
<g id="edge38" class="edge">
<title>Node19&#45;&gt;Node23</title>
<path fill="none" stroke="midnightblue" d="M835.85,-219.51C913.54,-179 1140.73,-60.91 1158,-56 1343.33,-3.34 1399.35,-47.79 1590,-20 1592.87,-19.58 1595.83,-19.09 1598.8,-18.55"/>
<polygon fill="midnightblue" stroke="midnightblue" points="833.97,-216.54 826.73,-224.27 837.21,-222.75 833.97,-216.54"/>
</g>
<!-- Node34 -->
<g id="node34" class="node">
<title>Node34</title>
<g id="a_node34"><a xlink:href="SessionManager_8h.html" target="_top" xlink:title=" ">
<polygon fill="none" stroke="black" points="757.5,-168.5 757.5,-187.5 862.5,-187.5 862.5,-168.5 757.5,-168.5"/>
<text text-anchor="middle" x="810" y="-175.5" font-family="Helvetica,sans-Serif" font-size="10.00">SessionManager.h</text>
</a>
</g>
</g>
<!-- Node19&#45;&gt;Node34 -->
<g id="edge39" class="edge">
<title>Node19&#45;&gt;Node34</title>
<path fill="none" stroke="midnightblue" d="M810,-213.8C810,-204.91 810,-194.78 810,-187.75"/>
<polygon fill="midnightblue" stroke="midnightblue" points="806.5,-214.08 810,-224.08 813.5,-214.08 806.5,-214.08"/>
</g>
<!-- Node22 -->
<g id="node22" class="node">
<title>Node22</title>
<g id="a_node22"><a xlink:href="OnMessageTask_8cc.html" target="_top" xlink:title=" ">
<polygon fill="none" stroke="black" points="768.5,-0.5 768.5,-19.5 877.5,-19.5 877.5,-0.5 768.5,-0.5"/>
<text text-anchor="middle" x="823" y="-7.5" font-family="Helvetica,sans-Serif" font-size="10.00">OnMessageTask.cc</text>
</a>
</g>
</g>
<!-- Node21&#45;&gt;Node22 -->
<g id="edge23" class="edge">
<title>Node21&#45;&gt;Node22</title>
<path fill="none" stroke="midnightblue" d="M884.58,-102.52C880.16,-89.03 873.17,-70.63 864,-56 855.13,-41.85 841.59,-28.02 832.53,-19.51"/>
<polygon fill="midnightblue" stroke="midnightblue" points="881.25,-103.6 887.56,-112.12 887.94,-101.53 881.25,-103.6"/>
</g>
<!-- Node21&#45;&gt;Node23 -->
<g id="edge24" class="edge">
<title>Node21&#45;&gt;Node23</title>
<path fill="none" stroke="midnightblue" d="M947.08,-110.35C984.56,-102.6 1034.35,-90.88 1077,-76 1096.9,-69.06 1099.61,-61.33 1120,-56 1322.68,-2.97 1382.59,-49.52 1590,-20 1592.87,-19.59 1595.83,-19.11 1598.8,-18.58"/>
<polygon fill="midnightblue" stroke="midnightblue" points="945.95,-107 936.85,-112.42 947.35,-113.86 945.95,-107"/>
</g>
<!-- Node24 -->
<g id="node24" class="node">
<title>Node24</title>
<g id="a_node24"><a xlink:href="SessionManager_8cc.html" target="_top" xlink:title=" ">
<polygon fill="none" stroke="black" points="640,-0.5 640,-19.5 750,-19.5 750,-0.5 640,-0.5"/>
<text text-anchor="middle" x="695" y="-7.5" font-family="Helvetica,sans-Serif" font-size="10.00">SessionManager.cc</text>
</a>
</g>
</g>
<!-- Node21&#45;&gt;Node24 -->
<g id="edge25" class="edge">
<title>Node21&#45;&gt;Node24</title>
<path fill="none" stroke="midnightblue" d="M876.63,-104.47C864.11,-89.94 844.2,-69.12 823,-56 794.76,-38.52 758.8,-26.65 732.19,-19.5"/>
<polygon fill="midnightblue" stroke="midnightblue" points="873.99,-106.77 883.1,-112.19 879.36,-102.28 873.99,-106.77"/>
</g>
<!-- Node25 -->
<g id="node25" class="node">
<title>Node25</title>
<g id="a_node25"><a xlink:href="ThreadingManager_8h.html" target="_top" xlink:title=" ">
<polygon fill="none" stroke="black" points="952,-56.5 952,-75.5 1068,-75.5 1068,-56.5 952,-56.5"/>
<text text-anchor="middle" x="1010" y="-63.5" font-family="Helvetica,sans-Serif" font-size="10.00">ThreadingManager.h</text>
</a>
</g>
</g>
<!-- Node21&#45;&gt;Node25 -->
<g id="edge26" class="edge">
<title>Node21&#45;&gt;Node25</title>
<path fill="none" stroke="midnightblue" d="M918.37,-108.23C940.82,-98.13 971.54,-84.31 991.07,-75.52"/>
<polygon fill="midnightblue" stroke="midnightblue" points="916.7,-105.15 909.01,-112.44 919.57,-111.53 916.7,-105.15"/>
</g>
<!-- Node25&#45;&gt;Node22 -->
<g id="edge31" class="edge">
<title>Node25&#45;&gt;Node22</title>
<path fill="none" stroke="midnightblue" d="M970.41,-53.57C935.13,-43.38 884.31,-28.7 852.49,-19.52"/>
<polygon fill="midnightblue" stroke="midnightblue" points="969.79,-57.03 980.37,-56.44 971.73,-50.31 969.79,-57.03"/>
</g>
<!-- Node25&#45;&gt;Node23 -->
<g id="edge32" class="edge">
<title>Node25&#45;&gt;Node23</title>
<path fill="none" stroke="midnightblue" d="M1078.16,-56.38C1079.45,-56.25 1080.73,-56.12 1082,-56 1307.27,-33.95 1365.82,-51.26 1590,-20 1592.87,-19.6 1595.84,-19.12 1598.81,-18.59"/>
<polygon fill="midnightblue" stroke="midnightblue" points="1077.7,-52.91 1068.13,-57.46 1078.45,-59.87 1077.7,-52.91"/>
</g>
<!-- Node25&#45;&gt;Node24 -->
<g id="edge33" class="edge">
<title>Node25&#45;&gt;Node24</title>
<path fill="none" stroke="midnightblue" d="M950.08,-54.73C890.55,-44.52 800.34,-29.06 744.68,-19.52"/>
<polygon fill="midnightblue" stroke="midnightblue" points="949.64,-58.2 960.09,-56.44 950.82,-51.3 949.64,-58.2"/>
</g>
<!-- Node26 -->
<g id="node26" class="node">
<title>Node26</title>
<g id="a_node26"><a xlink:href="Contouring_8cc.html" target="_top" xlink:title=" ">
<polygon fill="none" stroke="black" points="1206.5,-0.5 1206.5,-19.5 1289.5,-19.5 1289.5,-0.5 1206.5,-0.5"/>
<text text-anchor="middle" x="1248" y="-7.5" font-family="Helvetica,sans-Serif" font-size="10.00">Contouring.cc</text>
</a>
</g>
</g>
<!-- Node25&#45;&gt;Node26 -->
<g id="edge27" class="edge">
<title>Node25&#45;&gt;Node26</title>
<path fill="none" stroke="midnightblue" d="M1057.52,-54.22C1102.5,-44.01 1169.1,-28.9 1210.46,-19.52"/>
<polygon fill="midnightblue" stroke="midnightblue" points="1056.69,-50.82 1047.71,-56.44 1058.24,-57.64 1056.69,-50.82"/>
</g>
<!-- Node27 -->
<g id="node27" class="node">
<title>Node27</title>
<g id="a_node27"><a xlink:href="Smoothing_8cc.html" target="_top" xlink:title=" ">
<polygon fill="none" stroke="black" points="1307.5,-0.5 1307.5,-19.5 1390.5,-19.5 1390.5,-0.5 1307.5,-0.5"/>
<text text-anchor="middle" x="1349" y="-7.5" font-family="Helvetica,sans-Serif" font-size="10.00">Smoothing.cc</text>
</a>
</g>
</g>
<!-- Node25&#45;&gt;Node27 -->
<g id="edge28" class="edge">
<title>Node25&#45;&gt;Node27</title>
<path fill="none" stroke="midnightblue" d="M1077.61,-54.93C1136.22,-46.1 1223.3,-32.71 1299,-20 1301.7,-19.55 1304.47,-19.07 1307.27,-18.59"/>
<polygon fill="midnightblue" stroke="midnightblue" points="1076.73,-51.53 1067.37,-56.48 1077.78,-58.45 1076.73,-51.53"/>
</g>
<!-- Node28 -->
<g id="node28" class="node">
<title>Node28</title>
<g id="a_node28"><a xlink:href="Histogram_8cc.html" target="_top" xlink:title=" ">
<polygon fill="none" stroke="black" points="1408.5,-0.5 1408.5,-19.5 1489.5,-19.5 1489.5,-0.5 1408.5,-0.5"/>
<text text-anchor="middle" x="1449" y="-7.5" font-family="Helvetica,sans-Serif" font-size="10.00">Histogram.cc</text>
</a>
</g>
</g>
<!-- Node25&#45;&gt;Node28 -->
<g id="edge29" class="edge">
<title>Node25&#45;&gt;Node28</title>
<path fill="none" stroke="midnightblue" d="M1078.17,-56.46C1079.45,-56.3 1080.73,-56.15 1082,-56 1223.24,-39.18 1259.3,-40.86 1400,-20 1402.74,-19.59 1405.56,-19.15 1408.39,-18.68"/>
<polygon fill="midnightblue" stroke="midnightblue" points="1077.66,-52.99 1068.15,-57.67 1078.5,-59.94 1077.66,-52.99"/>
</g>
<!-- Node29 -->
<g id="node29" class="node">
<title>Node29</title>
<g id="a_node29"><a xlink:href="Main_8cc.html" target="_top" xlink:title=" ">
<polygon fill="none" stroke="black" points="568,-0.5 568,-19.5 622,-19.5 622,-0.5 568,-0.5"/>
<text text-anchor="middle" x="595" y="-7.5" font-family="Helvetica,sans-Serif" font-size="10.00">Main.cc</text>
</a>
</g>
</g>
<!-- Node25&#45;&gt;Node29 -->
<g id="edge30" class="edge">
<title>Node25&#45;&gt;Node29</title>
<path fill="none" stroke="midnightblue" d="M941.46,-59.5C865.24,-52.77 738.68,-39.77 631,-20 628.09,-19.46 625.06,-18.83 622.05,-18.15"/>
<polygon fill="midnightblue" stroke="midnightblue" points="941.6,-63.02 951.87,-60.4 942.21,-56.05 941.6,-63.02"/>
</g>
<!-- Node30 -->
<g id="node30" class="node">
<title>Node30</title>
<g id="a_node30"><a xlink:href="Columns_8cc.html" target="_top" xlink:title=" ">
<polygon fill="none" stroke="black" points="1507.5,-0.5 1507.5,-19.5 1580.5,-19.5 1580.5,-0.5 1507.5,-0.5"/>
<text text-anchor="middle" x="1544" y="-7.5" font-family="Helvetica,sans-Serif" font-size="10.00">Columns.cc</text>
</a>
</g>
</g>
<!-- Node25&#45;&gt;Node30 -->
<g id="edge34" class="edge">
<title>Node25&#45;&gt;Node30</title>
<path fill="none" stroke="midnightblue" d="M1078.16,-56.41C1079.45,-56.27 1080.73,-56.13 1082,-56 1266.99,-36.46 1314.84,-46.28 1499,-20 1501.68,-19.62 1504.44,-19.18 1507.22,-18.7"/>
<polygon fill="midnightblue" stroke="midnightblue" points="1077.68,-52.94 1068.14,-57.54 1078.47,-59.9 1077.68,-52.94"/>
</g>
<!-- Node31 -->
<g id="node31" class="node">
<title>Node31</title>
<g id="a_node31"><a xlink:href="Table_8cc.html" target="_top" xlink:title=" ">
<polygon fill="none" stroke="black" points="896,-0.5 896,-19.5 952,-19.5 952,-0.5 896,-0.5"/>
<text text-anchor="middle" x="924" y="-7.5" font-family="Helvetica,sans-Serif" font-size="10.00">Table.cc</text>
</a>
</g>
</g>
<!-- Node25&#45;&gt;Node31 -->
<g id="edge35" class="edge">
<title>Node25&#45;&gt;Node31</title>
<path fill="none" stroke="midnightblue" d="M987.55,-50.9C971.78,-41 951.19,-28.07 937.78,-19.65"/>
<polygon fill="midnightblue" stroke="midnightblue" points="985.85,-53.97 996.18,-56.32 989.57,-48.04 985.85,-53.97"/>
</g>
<!-- Node32 -->
<g id="node32" class="node">
<title>Node32</title>
<g id="a_node32"><a xlink:href="TableView_8cc.html" target="_top" xlink:title=" ">
<polygon fill="none" stroke="black" points="970.5,-0.5 970.5,-19.5 1049.5,-19.5 1049.5,-0.5 970.5,-0.5"/>
<text text-anchor="middle" x="1010" y="-7.5" font-family="Helvetica,sans-Serif" font-size="10.00">TableView.cc</text>
</a>
</g>
</g>
<!-- Node25&#45;&gt;Node32 -->
<g id="edge36" class="edge">
<title>Node25&#45;&gt;Node32</title>
<path fill="none" stroke="midnightblue" d="M1010,-45.8C1010,-36.91 1010,-26.78 1010,-19.75"/>
<polygon fill="midnightblue" stroke="midnightblue" points="1006.5,-46.08 1010,-56.08 1013.5,-46.08 1006.5,-46.08"/>
</g>
<!-- Node33 -->
<g id="node33" class="node">
<title>Node33</title>
<g id="a_node33"><a xlink:href="ThreadingManager_8cc.html" target="_top" xlink:title=" ">
<polygon fill="none" stroke="black" points="1067.5,-0.5 1067.5,-19.5 1188.5,-19.5 1188.5,-0.5 1067.5,-0.5"/>
<text text-anchor="middle" x="1128" y="-7.5" font-family="Helvetica,sans-Serif" font-size="10.00">ThreadingManager.cc</text>
</a>
</g>
</g>
<!-- Node25&#45;&gt;Node33 -->
<g id="edge37" class="edge">
<title>Node25&#45;&gt;Node33</title>
<path fill="none" stroke="midnightblue" d="M1037.9,-52.23C1059.97,-42.13 1090.18,-28.31 1109.39,-19.52"/>
<polygon fill="midnightblue" stroke="midnightblue" points="1036.33,-49.1 1028.7,-56.44 1039.25,-55.46 1036.33,-49.1"/>
</g>
<!-- Node34&#45;&gt;Node21 -->
<g id="edge44" class="edge">
<title>Node34&#45;&gt;Node21</title>
<path fill="none" stroke="midnightblue" d="M831.3,-162.62C845.92,-152.76 864.83,-139.99 877.18,-131.65"/>
<polygon fill="midnightblue" stroke="midnightblue" points="829.18,-159.83 822.85,-168.32 833.1,-165.63 829.18,-159.83"/>
</g>
<!-- Node34&#45;&gt;Node24 -->
<g id="edge45" class="edge">
<title>Node34&#45;&gt;Node24</title>
<path fill="none" stroke="midnightblue" d="M811.95,-158.1C813.56,-132.37 812.68,-86.07 790,-56 775.94,-37.35 752.19,-26.1 731.95,-19.51"/>
<polygon fill="midnightblue" stroke="midnightblue" points="808.44,-158.09 811.1,-168.34 815.41,-158.67 808.44,-158.09"/>
</g>
<!-- Node34&#45;&gt;Node29 -->
<g id="edge43" class="edge">
<title>Node34&#45;&gt;Node29</title>
<path fill="none" stroke="midnightblue" d="M763.6,-165.55C740.62,-158.39 713.3,-147.52 692,-132 647.39,-99.5 612.03,-41.46 599.7,-19.62"/>
<polygon fill="midnightblue" stroke="midnightblue" points="762.9,-168.99 773.49,-168.49 764.9,-162.28 762.9,-168.99"/>
</g>
<!-- Node35 -->
<g id="node35" class="node">
<title>Node35</title>
<g id="a_node35"><a xlink:href="HttpServer_8h.html" target="_top" xlink:title=" ">
<polygon fill="none" stroke="black" points="701.5,-112.5 701.5,-131.5 778.5,-131.5 778.5,-112.5 701.5,-112.5"/>
<text text-anchor="middle" x="740" y="-119.5" font-family="Helvetica,sans-Serif" font-size="10.00">HttpServer.h</text>
</a>
</g>
</g>
<!-- Node34&#45;&gt;Node35 -->
<g id="edge40" class="edge">
<title>Node34&#45;&gt;Node35</title>
<path fill="none" stroke="midnightblue" d="M790.69,-162.1C778.09,-152.38 762.07,-140.03 751.45,-131.83"/>
<polygon fill="midnightblue" stroke="midnightblue" points="788.7,-164.99 798.75,-168.32 792.97,-159.44 788.7,-164.99"/>
</g>
<!-- Node35&#45;&gt;Node29 -->
<g id="edge42" class="edge">
<title>Node35&#45;&gt;Node29</title>
<path fill="none" stroke="midnightblue" d="M720.38,-106.12C689.6,-82.77 630.95,-38.27 606.33,-19.59"/>
<polygon fill="midnightblue" stroke="midnightblue" points="718.54,-109.11 728.62,-112.37 722.77,-103.54 718.54,-109.11"/>
</g>
<!-- Node36 -->
<g id="node36" class="node">
<title>Node36</title>
<g id="a_node36"><a xlink:href="HttpServer_8cc.html" target="_top" xlink:title=" ">
<polygon fill="none" stroke="black" points="699,-56.5 699,-75.5 781,-75.5 781,-56.5 699,-56.5"/>
<text text-anchor="middle" x="740" y="-63.5" font-family="Helvetica,sans-Serif" font-size="10.00">HttpServer.cc</text>
</a>
</g>
</g>
<!-- Node35&#45;&gt;Node36 -->
<g id="edge41" class="edge">
<title>Node35&#45;&gt;Node36</title>
<path fill="none" stroke="midnightblue" d="M740,-101.8C740,-92.91 740,-82.78 740,-75.75"/>
<polygon fill="midnightblue" stroke="midnightblue" points="736.5,-102.08 740,-112.08 743.5,-102.08 736.5,-102.08"/>
</g>
</g>
</svg>
