<?xml version="1.0" encoding="UTF-8" standalone="no"?>
<!DOCTYPE svg PUBLIC "-//W3C//DTD SVG 1.1//EN"
 "http://www.w3.org/Graphics/SVG/1.1/DTD/svg11.dtd">
<!-- Generated by graphviz version 2.43.0 (0)
 -->
<!-- Title: Contouring.h Pages: 1 -->
<!--zoomable 420 -->
<svg id="main" version="1.1" xmlns="http://www.w3.org/2000/svg" xmlns:xlink="http://www.w3.org/1999/xlink" xml:space="preserve" onload="init(evt)">
<style type="text/css"><![CDATA[
.edge:hover path { stroke: red; }
.edge:hover polygon { stroke: red; fill: red; }
]]></style>
<script type="text/javascript"><![CDATA[
var edges = document.getElementsByTagName('g');
if (edges && edges.length) {
  for (var i=0;i<edges.length;i++) {
    if (edges[i].id.substr(0,4)=='edge') {
      edges[i].setAttribute('class','edge');
    }
  }
}
]]></script>
        <defs>
                <circle id="rim" cx="0" cy="0" r="7"/>
                <circle id="rim2" cx="0" cy="0" r="3.5"/>
                <g id="zoomPlus">
                        <use xlink:href="#rim" fill="#404040">
                                <set attributeName="fill" to="#808080" begin="zoomplus.mouseover" end="zoomplus.mouseout"/>
                        </use>
                        <path d="M-4,0h8M0,-4v8" fill="none" stroke="white" stroke-width="1.5" pointer-events="none"/>
                </g>
                <g id="zoomMin">
                        <use xlink:href="#rim" fill="#404040">
                                <set attributeName="fill" to="#808080" begin="zoomminus.mouseover" end="zoomminus.mouseout"/>
                        </use>
                        <path d="M-4,0h8" fill="none" stroke="white" stroke-width="1.5" pointer-events="none"/>
                </g>
                <g id="dirArrow">
                        <path fill="none" stroke="white" stroke-width="1.5" d="M0,-3.0v7 M-2.5,-0.5L0,-3.0L2.5,-0.5"/>
                </g>
               <g id="resetDef">
                       <use xlink:href="#rim2" fill="#404040">
                               <set attributeName="fill" to="#808080" begin="reset.mouseover" end="reset.mouseout"/>
                       </use>
               </g>
        </defs>

<script type="text/javascript">
var viewWidth = 1367;
var viewHeight = 420;
var sectionId = 'dynsection-1';
</script>
<script xlink:href="svgpan.js"/>
<svg id="graph" class="graph">
<g id="viewport">
<title>Contouring.h</title>
<!-- Node1 -->
<g id="node1" class="node">
<title>Node1</title>
<g id="a_node1"><a xlink:title=" ">
<polygon fill="#bfbfbf" stroke="black" points="600,-392.5 600,-411.5 679,-411.5 679,-392.5 600,-392.5"/>
<text text-anchor="middle" x="639.5" y="-399.5" font-family="Helvetica,sans-Serif" font-size="10.00">Contouring.h</text>
</a>
</g>
</g>
<!-- Node2 -->
<g id="node2" class="node">
<title>Node2</title>
<g id="a_node2"><a xlink:href="Contouring_8cc.html" target="_top" xlink:title=" ">
<polygon fill="none" stroke="black" points="0,-0.5 0,-19.5 83,-19.5 83,-0.5 0,-0.5"/>
<text text-anchor="middle" x="41.5" y="-7.5" font-family="Helvetica,sans-Serif" font-size="10.00">Contouring.cc</text>
</a>
</g>
</g>
<!-- Node1&#45;&gt;Node2 -->
<g id="edge1" class="edge">
<title>Node1&#45;&gt;Node2</title>
<path fill="none" stroke="midnightblue" d="M589.61,-401.11C458,-400.06 111.5,-388.09 111.5,-291 111.5,-291 111.5,-291 111.5,-121 111.5,-77.09 71.3,-36.56 51.83,-19.5"/>
<polygon fill="midnightblue" stroke="midnightblue" points="589.79,-404.61 599.81,-401.17 589.84,-397.61 589.79,-404.61"/>
</g>
<!-- Node3 -->
<g id="node3" class="node">
<title>Node3</title>
<g id="a_node3"><a xlink:href="Frame_8cc.html" target="_top" xlink:title=" ">
<polygon fill="none" stroke="black" points="609,-280.5 609,-299.5 670,-299.5 670,-280.5 609,-280.5"/>
<text text-anchor="middle" x="639.5" y="-287.5" font-family="Helvetica,sans-Serif" font-size="10.00">Frame.cc</text>
</a>
</g>
</g>
<!-- Node1&#45;&gt;Node3 -->
<g id="edge2" class="edge">
<title>Node1&#45;&gt;Node3</title>
<path fill="none" stroke="midnightblue" d="M639.5,-382.35C639.5,-358.25 639.5,-317.31 639.5,-299.59"/>
<polygon fill="midnightblue" stroke="midnightblue" points="636,-382.37 639.5,-392.37 643,-382.37 636,-382.37"/>
</g>
<!-- Node4 -->
<g id="node4" class="node">
<title>Node4</title>
<g id="a_node4"><a xlink:href="Frame_8h.html" target="_top" xlink:title=" ">
<polygon fill="none" stroke="black" points="746.5,-336.5 746.5,-355.5 802.5,-355.5 802.5,-336.5 746.5,-336.5"/>
<text text-anchor="middle" x="774.5" y="-343.5" font-family="Helvetica,sans-Serif" font-size="10.00">Frame.h</text>
</a>
</g>
</g>
<!-- Node1&#45;&gt;Node4 -->
<g id="edge3" class="edge">
<title>Node1&#45;&gt;Node4</title>
<path fill="none" stroke="midnightblue" d="M670.41,-388.64C695.74,-378.5 730.93,-364.43 753.21,-355.52"/>
<polygon fill="midnightblue" stroke="midnightblue" points="668.88,-385.48 660.89,-392.44 671.48,-391.98 668.88,-385.48"/>
</g>
<!-- Node4&#45;&gt;Node3 -->
<g id="edge4" class="edge">
<title>Node4&#45;&gt;Node3</title>
<path fill="none" stroke="midnightblue" d="M743.59,-332.64C718.26,-322.5 683.07,-308.43 660.79,-299.52"/>
<polygon fill="midnightblue" stroke="midnightblue" points="742.52,-335.98 753.11,-336.44 745.12,-329.48 742.52,-335.98"/>
</g>
<!-- Node5 -->
<g id="node5" class="node">
<title>Node5</title>
<g id="a_node5"><a xlink:href="VectorFieldCalculator_8h.html" target="_top" xlink:title=" ">
<polygon fill="none" stroke="black" points="926.5,-280.5 926.5,-299.5 1054.5,-299.5 1054.5,-280.5 926.5,-280.5"/>
<text text-anchor="middle" x="990.5" y="-287.5" font-family="Helvetica,sans-Serif" font-size="10.00">VectorFieldCalculator.h</text>
</a>
</g>
</g>
<!-- Node4&#45;&gt;Node5 -->
<g id="edge5" class="edge">
<title>Node4&#45;&gt;Node5</title>
<path fill="none" stroke="midnightblue" d="M812.54,-335.49C853.19,-325.33 917.04,-309.36 956.2,-299.58"/>
<polygon fill="midnightblue" stroke="midnightblue" points="811.59,-332.12 802.74,-337.94 813.29,-338.91 811.59,-332.12"/>
</g>
<!-- Node8 -->
<g id="node8" class="node">
<title>Node8</title>
<g id="a_node8"><a xlink:href="Hdf5Loader_8h.html" target="_top" xlink:title=" ">
<polygon fill="none" stroke="black" points="1174,-280.5 1174,-299.5 1255,-299.5 1255,-280.5 1174,-280.5"/>
<text text-anchor="middle" x="1214.5" y="-287.5" font-family="Helvetica,sans-Serif" font-size="10.00">Hdf5Loader.h</text>
</a>
</g>
</g>
<!-- Node4&#45;&gt;Node8 -->
<g id="edge8" class="edge">
<title>Node4&#45;&gt;Node8</title>
<path fill="none" stroke="midnightblue" d="M812.64,-340.32C895.09,-330.2 1089.29,-306.37 1173.9,-295.98"/>
<polygon fill="midnightblue" stroke="midnightblue" points="812.19,-336.85 802.69,-341.54 813.05,-343.8 812.19,-336.85"/>
</g>
<!-- Node11 -->
<g id="node11" class="node">
<title>Node11</title>
<g id="a_node11"><a xlink:href="RegionHandler_8h.html" target="_top" xlink:title=" ">
<polygon fill="none" stroke="black" points="688,-280.5 688,-299.5 785,-299.5 785,-280.5 688,-280.5"/>
<text text-anchor="middle" x="736.5" y="-287.5" font-family="Helvetica,sans-Serif" font-size="10.00">RegionHandler.h</text>
</a>
</g>
</g>
<!-- Node4&#45;&gt;Node11 -->
<g id="edge11" class="edge">
<title>Node4&#45;&gt;Node11</title>
<path fill="none" stroke="midnightblue" d="M762.44,-327.86C755.86,-318.5 747.99,-307.33 742.66,-299.75"/>
<polygon fill="midnightblue" stroke="midnightblue" points="759.61,-329.92 768.23,-336.08 765.33,-325.89 759.61,-329.92"/>
</g>
<!-- Node20 -->
<g id="node20" class="node">
<title>Node20</title>
<g id="a_node20"><a xlink:href="Session_8h.html" target="_top" xlink:title=" ">
<polygon fill="none" stroke="black" points="782,-224.5 782,-243.5 845,-243.5 845,-224.5 782,-224.5"/>
<text text-anchor="middle" x="813.5" y="-231.5" font-family="Helvetica,sans-Serif" font-size="10.00">Session.h</text>
</a>
</g>
</g>
<!-- Node4&#45;&gt;Node20 -->
<g id="edge48" class="edge">
<title>Node4&#45;&gt;Node20</title>
<path fill="none" stroke="midnightblue" d="M782.51,-327.19C786.07,-318.99 790.2,-309.08 793.5,-300 800.77,-280.03 807.7,-256.01 811.18,-243.5"/>
<polygon fill="midnightblue" stroke="midnightblue" points="779.25,-325.91 778.4,-336.48 785.65,-328.75 779.25,-325.91"/>
</g>
<!-- Node6 -->
<g id="node6" class="node">
<title>Node6</title>
<g id="a_node6"><a xlink:href="VectorFieldCalculator_8cc.html" target="_top" xlink:title=" ">
<polygon fill="none" stroke="black" points="924,-224.5 924,-243.5 1057,-243.5 1057,-224.5 924,-224.5"/>
<text text-anchor="middle" x="990.5" y="-231.5" font-family="Helvetica,sans-Serif" font-size="10.00">VectorFieldCalculator.cc</text>
</a>
</g>
</g>
<!-- Node5&#45;&gt;Node6 -->
<g id="edge6" class="edge">
<title>Node5&#45;&gt;Node6</title>
<path fill="none" stroke="midnightblue" d="M990.5,-269.8C990.5,-260.91 990.5,-250.78 990.5,-243.75"/>
<polygon fill="midnightblue" stroke="midnightblue" points="987,-270.08 990.5,-280.08 994,-270.08 987,-270.08"/>
</g>
<!-- Node7 -->
<g id="node7" class="node">
<title>Node7</title>
<g id="a_node7"><a xlink:href="Session_8cc.html" target="_top" xlink:title=" ">
<polygon fill="none" stroke="black" points="1059.5,-0.5 1059.5,-19.5 1127.5,-19.5 1127.5,-0.5 1059.5,-0.5"/>
<text text-anchor="middle" x="1093.5" y="-7.5" font-family="Helvetica,sans-Serif" font-size="10.00">Session.cc</text>
</a>
</g>
</g>
<!-- Node5&#45;&gt;Node7 -->
<g id="edge7" class="edge">
<title>Node5&#45;&gt;Node7</title>
<path fill="none" stroke="midnightblue" d="M1036.88,-277.52C1082.87,-263.03 1146.5,-233.18 1146.5,-179 1146.5,-179 1146.5,-179 1146.5,-121 1146.5,-79.66 1115.75,-37.48 1101.09,-19.72"/>
<polygon fill="midnightblue" stroke="midnightblue" points="1035.65,-274.23 1027.08,-280.46 1037.66,-280.94 1035.65,-274.23"/>
</g>
<!-- Node9 -->
<g id="node9" class="node">
<title>Node9</title>
<g id="a_node9"><a xlink:href="FileLoader_8cc.html" target="_top" xlink:title=" ">
<polygon fill="none" stroke="black" points="1174.5,-224.5 1174.5,-243.5 1254.5,-243.5 1254.5,-224.5 1174.5,-224.5"/>
<text text-anchor="middle" x="1214.5" y="-231.5" font-family="Helvetica,sans-Serif" font-size="10.00">FileLoader.cc</text>
</a>
</g>
</g>
<!-- Node8&#45;&gt;Node9 -->
<g id="edge9" class="edge">
<title>Node8&#45;&gt;Node9</title>
<path fill="none" stroke="midnightblue" d="M1214.5,-269.8C1214.5,-260.91 1214.5,-250.78 1214.5,-243.75"/>
<polygon fill="midnightblue" stroke="midnightblue" points="1211,-270.08 1214.5,-280.08 1218,-270.08 1211,-270.08"/>
</g>
<!-- Node10 -->
<g id="node10" class="node">
<title>Node10</title>
<g id="a_node10"><a xlink:href="Hdf5Loader_8cc.html" target="_top" xlink:title=" ">
<polygon fill="none" stroke="black" points="1272.5,-224.5 1272.5,-243.5 1358.5,-243.5 1358.5,-224.5 1272.5,-224.5"/>
<text text-anchor="middle" x="1315.5" y="-231.5" font-family="Helvetica,sans-Serif" font-size="10.00">Hdf5Loader.cc</text>
</a>
</g>
</g>
<!-- Node8&#45;&gt;Node10 -->
<g id="edge10" class="edge">
<title>Node8&#45;&gt;Node10</title>
<path fill="none" stroke="midnightblue" d="M1239.58,-275.59C1258.26,-265.61 1283.2,-252.27 1299.31,-243.65"/>
<polygon fill="midnightblue" stroke="midnightblue" points="1237.9,-272.52 1230.73,-280.32 1241.2,-278.7 1237.9,-272.52"/>
</g>
<!-- Node12 -->
<g id="node12" class="node">
<title>Node12</title>
<g id="a_node12"><a xlink:href="RegionHandler_8cc.html" target="_top" xlink:title=" ">
<polygon fill="none" stroke="black" points="176,-112.5 176,-131.5 277,-131.5 277,-112.5 176,-112.5"/>
<text text-anchor="middle" x="226.5" y="-119.5" font-family="Helvetica,sans-Serif" font-size="10.00">RegionHandler.cc</text>
</a>
</g>
</g>
<!-- Node11&#45;&gt;Node12 -->
<g id="edge12" class="edge">
<title>Node11&#45;&gt;Node12</title>
<path fill="none" stroke="midnightblue" d="M677.76,-279.77C603.57,-268.04 483.05,-248.76 462.5,-244 378.39,-224.52 347.57,-237.02 276.5,-188 254.7,-172.97 238.18,-145.46 230.78,-131.55"/>
<polygon fill="midnightblue" stroke="midnightblue" points="677.48,-283.27 687.91,-281.37 678.57,-276.35 677.48,-283.27"/>
</g>
<!-- Node13 -->
<g id="node13" class="node">
<title>Node13</title>
<g id="a_node13"><a xlink:href="RegionImportExport_8h.html" target="_top" xlink:title=" ">
<polygon fill="none" stroke="black" points="472,-224.5 472,-243.5 595,-243.5 595,-224.5 472,-224.5"/>
<text text-anchor="middle" x="533.5" y="-231.5" font-family="Helvetica,sans-Serif" font-size="10.00">RegionImportExport.h</text>
</a>
</g>
</g>
<!-- Node11&#45;&gt;Node13 -->
<g id="edge13" class="edge">
<title>Node11&#45;&gt;Node13</title>
<path fill="none" stroke="midnightblue" d="M694.51,-277.83C656.18,-267.63 600.35,-252.78 565.52,-243.52"/>
<polygon fill="midnightblue" stroke="midnightblue" points="693.77,-281.26 704.33,-280.44 695.57,-274.49 693.77,-281.26"/>
</g>
<!-- Node11&#45;&gt;Node20 -->
<g id="edge22" class="edge">
<title>Node11&#45;&gt;Node20</title>
<path fill="none" stroke="midnightblue" d="M757.4,-274.34C771.41,-264.52 789.38,-251.91 801.16,-243.65"/>
<polygon fill="midnightblue" stroke="midnightblue" points="755.05,-271.72 748.87,-280.32 759.07,-277.45 755.05,-271.72"/>
</g>
<!-- Node14 -->
<g id="node14" class="node">
<title>Node14</title>
<g id="a_node14"><a xlink:href="CrtfImportExport_8h.html" target="_top" xlink:title=" ">
<polygon fill="none" stroke="black" points="286,-168.5 286,-187.5 393,-187.5 393,-168.5 286,-168.5"/>
<text text-anchor="middle" x="339.5" y="-175.5" font-family="Helvetica,sans-Serif" font-size="10.00">CrtfImportExport.h</text>
</a>
</g>
</g>
<!-- Node13&#45;&gt;Node14 -->
<g id="edge14" class="edge">
<title>Node13&#45;&gt;Node14</title>
<path fill="none" stroke="midnightblue" d="M492.9,-221.7C456.28,-211.51 403.24,-196.74 370.1,-187.52"/>
<polygon fill="midnightblue" stroke="midnightblue" points="492.19,-225.13 502.76,-224.44 494.06,-218.39 492.19,-225.13"/>
</g>
<!-- Node16 -->
<g id="node16" class="node">
<title>Node16</title>
<g id="a_node16"><a xlink:href="Ds9ImportExport_8h.html" target="_top" xlink:title=" ">
<polygon fill="none" stroke="black" points="411.5,-168.5 411.5,-187.5 519.5,-187.5 519.5,-168.5 411.5,-168.5"/>
<text text-anchor="middle" x="465.5" y="-175.5" font-family="Helvetica,sans-Serif" font-size="10.00">Ds9ImportExport.h</text>
</a>
</g>
</g>
<!-- Node13&#45;&gt;Node16 -->
<g id="edge17" class="edge">
<title>Node13&#45;&gt;Node16</title>
<path fill="none" stroke="midnightblue" d="M514.74,-218.1C502.5,-208.38 486.94,-196.03 476.62,-187.83"/>
<polygon fill="midnightblue" stroke="midnightblue" points="512.57,-220.85 522.57,-224.32 516.92,-215.36 512.57,-220.85"/>
</g>
<!-- Node19 -->
<g id="node19" class="node">
<title>Node19</title>
<g id="a_node19"><a xlink:href="RegionImportExport_8cc.html" target="_top" xlink:title=" ">
<polygon fill="none" stroke="black" points="537.5,-168.5 537.5,-187.5 665.5,-187.5 665.5,-168.5 537.5,-168.5"/>
<text text-anchor="middle" x="601.5" y="-175.5" font-family="Helvetica,sans-Serif" font-size="10.00">RegionImportExport.cc</text>
</a>
</g>
</g>
<!-- Node13&#45;&gt;Node19 -->
<g id="edge21" class="edge">
<title>Node13&#45;&gt;Node19</title>
<path fill="none" stroke="midnightblue" d="M552.26,-218.1C564.5,-208.38 580.06,-196.03 590.38,-187.83"/>
<polygon fill="midnightblue" stroke="midnightblue" points="550.08,-215.36 544.43,-224.32 554.43,-220.85 550.08,-215.36"/>
</g>
<!-- Node14&#45;&gt;Node12 -->
<g id="edge16" class="edge">
<title>Node14&#45;&gt;Node12</title>
<path fill="none" stroke="midnightblue" d="M312.5,-164.1C291.39,-154.01 262.64,-140.27 244.32,-131.52"/>
<polygon fill="midnightblue" stroke="midnightblue" points="311.06,-167.29 321.59,-168.44 314.08,-160.97 311.06,-167.29"/>
</g>
<!-- Node15 -->
<g id="node15" class="node">
<title>Node15</title>
<g id="a_node15"><a xlink:href="CrtfImportExport_8cc.html" target="_top" xlink:title=" ">
<polygon fill="none" stroke="black" points="295.5,-112.5 295.5,-131.5 407.5,-131.5 407.5,-112.5 295.5,-112.5"/>
<text text-anchor="middle" x="351.5" y="-119.5" font-family="Helvetica,sans-Serif" font-size="10.00">CrtfImportExport.cc</text>
</a>
</g>
</g>
<!-- Node14&#45;&gt;Node15 -->
<g id="edge15" class="edge">
<title>Node14&#45;&gt;Node15</title>
<path fill="none" stroke="midnightblue" d="M343.7,-158.1C345.69,-149.14 347.98,-138.86 349.56,-131.75"/>
<polygon fill="midnightblue" stroke="midnightblue" points="340.23,-157.56 341.48,-168.08 347.07,-159.08 340.23,-157.56"/>
</g>
<!-- Node16&#45;&gt;Node12 -->
<g id="edge20" class="edge">
<title>Node16&#45;&gt;Node12</title>
<path fill="none" stroke="midnightblue" d="M417.78,-166.22C372.61,-156.01 305.73,-140.9 264.19,-131.52"/>
<polygon fill="midnightblue" stroke="midnightblue" points="417.1,-169.65 427.63,-168.44 418.65,-162.83 417.1,-169.65"/>
</g>
<!-- Node17 -->
<g id="node17" class="node">
<title>Node17</title>
<g id="a_node17"><a xlink:href="FileListHandler_8cc.html" target="_top" xlink:title=" ">
<polygon fill="none" stroke="black" points="425.5,-112.5 425.5,-131.5 527.5,-131.5 527.5,-112.5 425.5,-112.5"/>
<text text-anchor="middle" x="476.5" y="-119.5" font-family="Helvetica,sans-Serif" font-size="10.00">FileListHandler.cc</text>
</a>
</g>
</g>
<!-- Node16&#45;&gt;Node17 -->
<g id="edge18" class="edge">
<title>Node16&#45;&gt;Node17</title>
<path fill="none" stroke="midnightblue" d="M469.35,-158.1C471.18,-149.14 473.27,-138.86 474.72,-131.75"/>
<polygon fill="midnightblue" stroke="midnightblue" points="465.88,-157.59 467.32,-168.08 472.74,-158.98 465.88,-157.59"/>
</g>
<!-- Node18 -->
<g id="node18" class="node">
<title>Node18</title>
<g id="a_node18"><a xlink:href="Ds9ImportExport_8cc.html" target="_top" xlink:title=" ">
<polygon fill="none" stroke="black" points="546,-112.5 546,-131.5 659,-131.5 659,-112.5 546,-112.5"/>
<text text-anchor="middle" x="602.5" y="-119.5" font-family="Helvetica,sans-Serif" font-size="10.00">Ds9ImportExport.cc</text>
</a>
</g>
</g>
<!-- Node16&#45;&gt;Node18 -->
<g id="edge19" class="edge">
<title>Node16&#45;&gt;Node18</title>
<path fill="none" stroke="midnightblue" d="M496.52,-164.77C522.26,-154.63 558.19,-140.47 580.89,-131.52"/>
<polygon fill="midnightblue" stroke="midnightblue" points="495.23,-161.52 487.21,-168.44 497.79,-168.03 495.23,-161.52"/>
</g>
<!-- Node20&#45;&gt;Node7 -->
<g id="edge40" class="edge">
<title>Node20&#45;&gt;Node7</title>
<path fill="none" stroke="midnightblue" d="M854.99,-224.38C884.26,-217.23 923.75,-205.41 955.5,-188 1023.56,-150.68 1054.48,-145.27 1089.5,-76 1098.78,-57.64 1096.89,-32.53 1095.02,-19.55"/>
<polygon fill="midnightblue" stroke="midnightblue" points="854.03,-221.01 845.1,-226.71 855.63,-227.82 854.03,-221.01"/>
</g>
<!-- Node21 -->
<g id="node21" class="node">
<title>Node21</title>
<g id="a_node21"><a xlink:href="CursorSettings_8cc.html" target="_top" xlink:title=" ">
<polygon fill="none" stroke="black" points="684,-168.5 684,-187.5 785,-187.5 785,-168.5 684,-168.5"/>
<text text-anchor="middle" x="734.5" y="-175.5" font-family="Helvetica,sans-Serif" font-size="10.00">CursorSettings.cc</text>
</a>
</g>
</g>
<!-- Node20&#45;&gt;Node21 -->
<g id="edge23" class="edge">
<title>Node20&#45;&gt;Node21</title>
<path fill="none" stroke="midnightblue" d="M792.47,-218.62C778.03,-208.76 759.36,-195.99 747.16,-187.65"/>
<polygon fill="midnightblue" stroke="midnightblue" points="790.58,-221.57 800.81,-224.32 794.53,-215.79 790.58,-221.57"/>
</g>
<!-- Node22 -->
<g id="node22" class="node">
<title>Node22</title>
<g id="a_node22"><a xlink:href="OnMessageTask_8h.html" target="_top" xlink:title=" ">
<polygon fill="none" stroke="black" points="724.5,-112.5 724.5,-131.5 828.5,-131.5 828.5,-112.5 724.5,-112.5"/>
<text text-anchor="middle" x="776.5" y="-119.5" font-family="Helvetica,sans-Serif" font-size="10.00">OnMessageTask.h</text>
</a>
</g>
</g>
<!-- Node20&#45;&gt;Node22 -->
<g id="edge24" class="edge">
<title>Node20&#45;&gt;Node22</title>
<path fill="none" stroke="midnightblue" d="M808.12,-214.43C804.26,-201.37 798.82,-183.53 793.5,-168 789.12,-155.2 783.47,-140.58 779.92,-131.57"/>
<polygon fill="midnightblue" stroke="midnightblue" points="804.79,-215.5 810.96,-224.11 811.51,-213.53 804.79,-215.5"/>
</g>
<!-- Node33 -->
<g id="node33" class="node">
<title>Node33</title>
<g id="a_node33"><a xlink:href="SessionManager_8h.html" target="_top" xlink:title=" ">
<polygon fill="none" stroke="black" points="842,-168.5 842,-187.5 947,-187.5 947,-168.5 842,-168.5"/>
<text text-anchor="middle" x="894.5" y="-175.5" font-family="Helvetica,sans-Serif" font-size="10.00">SessionManager.h</text>
</a>
</g>
</g>
<!-- Node20&#45;&gt;Node33 -->
<g id="edge41" class="edge">
<title>Node20&#45;&gt;Node33</title>
<path fill="none" stroke="midnightblue" d="M835.07,-218.62C849.86,-208.76 869.01,-195.99 881.52,-187.65"/>
<polygon fill="midnightblue" stroke="midnightblue" points="832.89,-215.86 826.51,-224.32 836.78,-221.69 832.89,-215.86"/>
</g>
<!-- Node22&#45;&gt;Node7 -->
<g id="edge26" class="edge">
<title>Node22&#45;&gt;Node7</title>
<path fill="none" stroke="midnightblue" d="M810.78,-109.1C875.1,-86.79 1012.43,-39.13 1068.69,-19.61"/>
<polygon fill="midnightblue" stroke="midnightblue" points="809.41,-105.88 801.11,-112.46 811.71,-112.49 809.41,-105.88"/>
</g>
<!-- Node23 -->
<g id="node23" class="node">
<title>Node23</title>
<g id="a_node23"><a xlink:href="OnMessageTask_8cc.html" target="_top" xlink:title=" ">
<polygon fill="none" stroke="black" points="101,-0.5 101,-19.5 210,-19.5 210,-0.5 101,-0.5"/>
<text text-anchor="middle" x="155.5" y="-7.5" font-family="Helvetica,sans-Serif" font-size="10.00">OnMessageTask.cc</text>
</a>
</g>
</g>
<!-- Node22&#45;&gt;Node23 -->
<g id="edge25" class="edge">
<title>Node22&#45;&gt;Node23</title>
<path fill="none" stroke="midnightblue" d="M718.4,-110.71C596.56,-89.13 316.33,-39.49 203.68,-19.53"/>
<polygon fill="midnightblue" stroke="midnightblue" points="717.83,-114.16 728.29,-112.46 719.05,-107.27 717.83,-114.16"/>
</g>
<!-- Node24 -->
<g id="node24" class="node">
<title>Node24</title>
<g id="a_node24"><a xlink:href="SessionManager_8cc.html" target="_top" xlink:title=" ">
<polygon fill="none" stroke="black" points="830.5,-0.5 830.5,-19.5 940.5,-19.5 940.5,-0.5 830.5,-0.5"/>
<text text-anchor="middle" x="885.5" y="-7.5" font-family="Helvetica,sans-Serif" font-size="10.00">SessionManager.cc</text>
</a>
</g>
</g>
<!-- Node22&#45;&gt;Node24 -->
<g id="edge27" class="edge">
<title>Node22&#45;&gt;Node24</title>
<path fill="none" stroke="midnightblue" d="M792.15,-105.21C815.51,-81.63 858.72,-38.03 876.99,-19.59"/>
<polygon fill="midnightblue" stroke="midnightblue" points="789.61,-102.8 785.05,-112.37 794.58,-107.73 789.61,-102.8"/>
</g>
<!-- Node25 -->
<g id="node25" class="node">
<title>Node25</title>
<g id="a_node25"><a xlink:href="ThreadingManager_8h.html" target="_top" xlink:title=" ">
<polygon fill="none" stroke="black" points="553.5,-56.5 553.5,-75.5 669.5,-75.5 669.5,-56.5 553.5,-56.5"/>
<text text-anchor="middle" x="611.5" y="-63.5" font-family="Helvetica,sans-Serif" font-size="10.00">ThreadingManager.h</text>
</a>
</g>
</g>
<!-- Node22&#45;&gt;Node25 -->
<g id="edge28" class="edge">
<title>Node22&#45;&gt;Node25</title>
<path fill="none" stroke="midnightblue" d="M740.76,-109.3C709.67,-99.13 665.35,-84.62 637.52,-75.52"/>
<polygon fill="midnightblue" stroke="midnightblue" points="739.76,-112.66 750.36,-112.44 741.94,-106.01 739.76,-112.66"/>
</g>
<!-- Node25&#45;&gt;Node2 -->
<g id="edge29" class="edge">
<title>Node25&#45;&gt;Node2</title>
<path fill="none" stroke="midnightblue" d="M542.98,-61.08C443.31,-54.92 252.65,-41.43 91.5,-20 88.79,-19.64 86,-19.23 83.2,-18.8"/>
<polygon fill="midnightblue" stroke="midnightblue" points="543.02,-64.59 553.21,-61.71 543.44,-57.6 543.02,-64.59"/>
</g>
<!-- Node25&#45;&gt;Node7 -->
<g id="edge34" class="edge">
<title>Node25&#45;&gt;Node7</title>
<path fill="none" stroke="midnightblue" d="M679.7,-57.83C761.09,-49.2 901.29,-34.11 1021.5,-20 1033.89,-18.55 1047.46,-16.87 1059.45,-15.36"/>
<polygon fill="midnightblue" stroke="midnightblue" points="679.16,-54.37 669.58,-58.9 679.9,-61.33 679.16,-54.37"/>
</g>
<!-- Node25&#45;&gt;Node23 -->
<g id="edge33" class="edge">
<title>Node25&#45;&gt;Node23</title>
<path fill="none" stroke="midnightblue" d="M542.94,-57.74C464.46,-49.28 332.09,-34.61 218.5,-20 215.76,-19.65 212.96,-19.28 210.12,-18.9"/>
<polygon fill="midnightblue" stroke="midnightblue" points="542.86,-61.25 553.18,-58.84 543.61,-54.29 542.86,-61.25"/>
</g>
<!-- Node25&#45;&gt;Node24 -->
<g id="edge35" class="edge">
<title>Node25&#45;&gt;Node24</title>
<path fill="none" stroke="midnightblue" d="M664.91,-54.47C716.7,-44.27 794.27,-28.98 842.29,-19.52"/>
<polygon fill="midnightblue" stroke="midnightblue" points="664.05,-51.08 654.92,-56.44 665.4,-57.94 664.05,-51.08"/>
</g>
<!-- Node26 -->
<g id="node26" class="node">
<title>Node26</title>
<g id="a_node26"><a xlink:href="Smoothing_8cc.html" target="_top" xlink:title=" ">
<polygon fill="none" stroke="black" points="630,-0.5 630,-19.5 713,-19.5 713,-0.5 630,-0.5"/>
<text text-anchor="middle" x="671.5" y="-7.5" font-family="Helvetica,sans-Serif" font-size="10.00">Smoothing.cc</text>
</a>
</g>
</g>
<!-- Node25&#45;&gt;Node26 -->
<g id="edge30" class="edge">
<title>Node25&#45;&gt;Node26</title>
<path fill="none" stroke="midnightblue" d="M628.68,-49.54C639.38,-39.91 652.76,-27.87 661.68,-19.83"/>
<polygon fill="midnightblue" stroke="midnightblue" points="626.23,-47.03 621.14,-56.32 630.91,-52.24 626.23,-47.03"/>
</g>
<!-- Node27 -->
<g id="node27" class="node">
<title>Node27</title>
<g id="a_node27"><a xlink:href="Histogram_8cc.html" target="_top" xlink:title=" ">
<polygon fill="none" stroke="black" points="731,-0.5 731,-19.5 812,-19.5 812,-0.5 731,-0.5"/>
<text text-anchor="middle" x="771.5" y="-7.5" font-family="Helvetica,sans-Serif" font-size="10.00">Histogram.cc</text>
</a>
</g>
</g>
<!-- Node25&#45;&gt;Node27 -->
<g id="edge31" class="edge">
<title>Node25&#45;&gt;Node27</title>
<path fill="none" stroke="midnightblue" d="M646.55,-53.17C676.67,-43 719.4,-28.59 746.27,-19.52"/>
<polygon fill="midnightblue" stroke="midnightblue" points="645.21,-49.93 636.85,-56.44 647.45,-56.56 645.21,-49.93"/>
</g>
<!-- Node28 -->
<g id="node28" class="node">
<title>Node28</title>
<g id="a_node28"><a xlink:href="Main_8cc.html" target="_top" xlink:title=" ">
<polygon fill="none" stroke="black" points="958.5,-0.5 958.5,-19.5 1012.5,-19.5 1012.5,-0.5 958.5,-0.5"/>
<text text-anchor="middle" x="985.5" y="-7.5" font-family="Helvetica,sans-Serif" font-size="10.00">Main.cc</text>
</a>
</g>
</g>
<!-- Node25&#45;&gt;Node28 -->
<g id="edge32" class="edge">
<title>Node25&#45;&gt;Node28</title>
<path fill="none" stroke="midnightblue" d="M679.76,-58.2C748.29,-50.83 856.72,-37.72 949.5,-20 952.41,-19.44 955.44,-18.8 958.45,-18.11"/>
<polygon fill="midnightblue" stroke="midnightblue" points="679.11,-54.75 669.53,-59.28 679.85,-61.71 679.11,-54.75"/>
</g>
<!-- Node29 -->
<g id="node29" class="node">
<title>Node29</title>
<g id="a_node29"><a xlink:href="Columns_8cc.html" target="_top" xlink:title=" ">
<polygon fill="none" stroke="black" points="228,-0.5 228,-19.5 301,-19.5 301,-0.5 228,-0.5"/>
<text text-anchor="middle" x="264.5" y="-7.5" font-family="Helvetica,sans-Serif" font-size="10.00">Columns.cc</text>
</a>
</g>
</g>
<!-- Node25&#45;&gt;Node29 -->
<g id="edge36" class="edge">
<title>Node25&#45;&gt;Node29</title>
<path fill="none" stroke="midnightblue" d="M543.48,-55.72C482.39,-47.17 390.28,-33.76 310.5,-20 307.45,-19.47 304.3,-18.91 301.13,-18.32"/>
<polygon fill="midnightblue" stroke="midnightblue" points="543,-59.19 553.39,-57.1 543.97,-52.25 543,-59.19"/>
</g>
<!-- Node30 -->
<g id="node30" class="node">
<title>Node30</title>
<g id="a_node30"><a xlink:href="Table_8cc.html" target="_top" xlink:title=" ">
<polygon fill="none" stroke="black" points="319.5,-0.5 319.5,-19.5 375.5,-19.5 375.5,-0.5 319.5,-0.5"/>
<text text-anchor="middle" x="347.5" y="-7.5" font-family="Helvetica,sans-Serif" font-size="10.00">Table.cc</text>
</a>
</g>
</g>
<!-- Node25&#45;&gt;Node30 -->
<g id="edge37" class="edge">
<title>Node25&#45;&gt;Node30</title>
<path fill="none" stroke="midnightblue" d="M555.22,-54.54C509.2,-45.82 442.49,-32.8 384.5,-20 381.66,-19.37 378.7,-18.7 375.75,-18"/>
<polygon fill="midnightblue" stroke="midnightblue" points="554.82,-58.02 565.29,-56.44 556.12,-51.15 554.82,-58.02"/>
</g>
<!-- Node31 -->
<g id="node31" class="node">
<title>Node31</title>
<g id="a_node31"><a xlink:href="TableView_8cc.html" target="_top" xlink:title=" ">
<polygon fill="none" stroke="black" points="394,-0.5 394,-19.5 473,-19.5 473,-0.5 394,-0.5"/>
<text text-anchor="middle" x="433.5" y="-7.5" font-family="Helvetica,sans-Serif" font-size="10.00">TableView.cc</text>
</a>
</g>
</g>
<!-- Node25&#45;&gt;Node31 -->
<g id="edge38" class="edge">
<title>Node25&#45;&gt;Node31</title>
<path fill="none" stroke="midnightblue" d="M573.38,-53.44C539.82,-43.26 491.73,-28.66 461.57,-19.52"/>
<polygon fill="midnightblue" stroke="midnightblue" points="572.71,-56.89 583.3,-56.44 574.74,-50.19 572.71,-56.89"/>
</g>
<!-- Node32 -->
<g id="node32" class="node">
<title>Node32</title>
<g id="a_node32"><a xlink:href="ThreadingManager_8cc.html" target="_top" xlink:title=" ">
<polygon fill="none" stroke="black" points="491,-0.5 491,-19.5 612,-19.5 612,-0.5 491,-0.5"/>
<text text-anchor="middle" x="551.5" y="-7.5" font-family="Helvetica,sans-Serif" font-size="10.00">ThreadingManager.cc</text>
</a>
</g>
</g>
<!-- Node25&#45;&gt;Node32 -->
<g id="edge39" class="edge">
<title>Node25&#45;&gt;Node32</title>
<path fill="none" stroke="midnightblue" d="M594.32,-49.54C583.62,-39.91 570.24,-27.87 561.32,-19.83"/>
<polygon fill="midnightblue" stroke="midnightblue" points="592.09,-52.24 601.86,-56.32 596.77,-47.03 592.09,-52.24"/>
</g>
<!-- Node33&#45;&gt;Node22 -->
<g id="edge46" class="edge">
<title>Node33&#45;&gt;Node22</title>
<path fill="none" stroke="midnightblue" d="M866.6,-164.23C844.53,-154.13 814.32,-140.31 795.11,-131.52"/>
<polygon fill="midnightblue" stroke="midnightblue" points="865.25,-167.46 875.8,-168.44 868.17,-161.1 865.25,-167.46"/>
</g>
<!-- Node33&#45;&gt;Node24 -->
<g id="edge47" class="edge">
<title>Node33&#45;&gt;Node24</title>
<path fill="none" stroke="midnightblue" d="M887.45,-158.74C884.69,-150.67 881.87,-141 880.5,-132 874.15,-90.22 880.85,-39.45 884.03,-19.57"/>
<polygon fill="midnightblue" stroke="midnightblue" points="884.19,-160.02 890.9,-168.22 890.77,-157.63 884.19,-160.02"/>
</g>
<!-- Node33&#45;&gt;Node28 -->
<g id="edge45" class="edge">
<title>Node33&#45;&gt;Node28</title>
<path fill="none" stroke="midnightblue" d="M901.4,-159.02C906.68,-145.77 914.41,-127.46 922.5,-112 941.09,-76.48 967.69,-36.79 979.48,-19.65"/>
<polygon fill="midnightblue" stroke="midnightblue" points="898.11,-157.81 897.73,-168.4 904.63,-160.36 898.11,-157.81"/>
</g>
<!-- Node34 -->
<g id="node34" class="node">
<title>Node34</title>
<g id="a_node34"><a xlink:href="HttpServer_8h.html" target="_top" xlink:title=" ">
<polygon fill="none" stroke="black" points="932,-112.5 932,-131.5 1009,-131.5 1009,-112.5 932,-112.5"/>
<text text-anchor="middle" x="970.5" y="-119.5" font-family="Helvetica,sans-Serif" font-size="10.00">HttpServer.h</text>
</a>
</g>
</g>
<!-- Node33&#45;&gt;Node34 -->
<g id="edge42" class="edge">
<title>Node33&#45;&gt;Node34</title>
<path fill="none" stroke="midnightblue" d="M915.08,-162.38C928.81,-152.62 946.43,-140.11 958.07,-131.83"/>
<polygon fill="midnightblue" stroke="midnightblue" points="912.84,-159.68 906.71,-168.32 916.89,-165.38 912.84,-159.68"/>
</g>
<!-- Node34&#45;&gt;Node28 -->
<g id="edge44" class="edge">
<title>Node34&#45;&gt;Node28</title>
<path fill="none" stroke="midnightblue" d="M973.04,-102.35C976.33,-78.25 981.91,-37.31 984.33,-19.59"/>
<polygon fill="midnightblue" stroke="midnightblue" points="969.56,-101.99 971.68,-112.37 976.5,-102.93 969.56,-101.99"/>
</g>
<!-- Node35 -->
<g id="node35" class="node">
<title>Node35</title>
<g id="a_node35"><a xlink:href="HttpServer_8cc.html" target="_top" xlink:title=" ">
<polygon fill="none" stroke="black" points="998.5,-56.5 998.5,-75.5 1080.5,-75.5 1080.5,-56.5 998.5,-56.5"/>
<text text-anchor="middle" x="1039.5" y="-63.5" font-family="Helvetica,sans-Serif" font-size="10.00">HttpServer.cc</text>
</a>
</g>
</g>
<!-- Node34&#45;&gt;Node35 -->
<g id="edge43" class="edge">
<title>Node34&#45;&gt;Node35</title>
<path fill="none" stroke="midnightblue" d="M989.54,-106.1C1001.96,-96.38 1017.74,-84.03 1028.21,-75.83"/>
<polygon fill="midnightblue" stroke="midnightblue" points="987.3,-103.4 981.59,-112.32 991.62,-108.92 987.3,-103.4"/>
</g>
</g>
</svg>
        <g id="navigator" transform="translate(0 0)" fill="#404254">
                <rect fill="#f2f5e9" fill-opacity="0.5" stroke="#606060" stroke-width=".5" x="0" y="0" width="60" height="60"/>
                <use id="zoomplus" xlink:href="#zoomPlus" x="17" y="9" onmousedown="handleZoom(evt,'in')"/>
                <use id="zoomminus" xlink:href="#zoomMin" x="42" y="9" onmousedown="handleZoom(evt,'out')"/>
                <use id="reset" xlink:href="#resetDef" x="30" y="36" onmousedown="handleReset()"/>
                <g id="arrowUp" xlink:href="#dirArrow" transform="translate(30 24)" onmousedown="handlePan(0,-1)">
                  <use xlink:href="#rim" fill="#404040">
                        <set attributeName="fill" to="#808080" begin="arrowUp.mouseover" end="arrowUp.mouseout"/>
                  </use>
                  <path fill="none" stroke="white" stroke-width="1.5" d="M0,-3.0v7 M-2.5,-0.5L0,-3.0L2.5,-0.5"/>
                </g>
                <g id="arrowRight" xlink:href="#dirArrow" transform="rotate(90) translate(36 -43)" onmousedown="handlePan(1,0)">
                  <use xlink:href="#rim" fill="#404040">
                        <set attributeName="fill" to="#808080" begin="arrowRight.mouseover" end="arrowRight.mouseout"/>
                  </use>
                  <path fill="none" stroke="white" stroke-width="1.5" d="M0,-3.0v7 M-2.5,-0.5L0,-3.0L2.5,-0.5"/>
                </g>
                <g id="arrowDown" xlink:href="#dirArrow" transform="rotate(180) translate(-30 -48)" onmousedown="handlePan(0,1)">
                  <use xlink:href="#rim" fill="#404040">
                        <set attributeName="fill" to="#808080" begin="arrowDown.mouseover" end="arrowDown.mouseout"/>
                  </use>
                  <path fill="none" stroke="white" stroke-width="1.5" d="M0,-3.0v7 M-2.5,-0.5L0,-3.0L2.5,-0.5"/>
                </g>
                <g id="arrowLeft" xlink:href="#dirArrow" transform="rotate(270) translate(-36 17)" onmousedown="handlePan(-1,0)">
                  <use xlink:href="#rim" fill="#404040">
                        <set attributeName="fill" to="#808080" begin="arrowLeft.mouseover" end="arrowLeft.mouseout"/>
                  </use>
                  <path fill="none" stroke="white" stroke-width="1.5" d="M0,-3.0v7 M-2.5,-0.5L0,-3.0L2.5,-0.5"/>
                </g>
        </g>
        <svg viewBox="0 0 15 15" width="100%" height="30px" preserveAspectRatio="xMaxYMin meet">
         <g id="arrow_out" transform="scale(0.3 0.3)">
          <a xlink:href="Contouring_8h__dep__incl_org.svg" target="_base">
           <rect id="button" ry="5" rx="5" y="6" x="6" height="38" width="38"
                fill="#f2f5e9" fill-opacity="0.5" stroke="#606060" stroke-width="1.0"/>
           <path id="arrow"
             d="M 11.500037,31.436501 C 11.940474,20.09759 22.043105,11.32322 32.158766,21.979434 L 37.068811,17.246167 C 37.068811,17.246167 37.088388,32 37.088388,32 L 22.160133,31.978069 C 22.160133,31.978069 26.997745,27.140456 26.997745,27.140456 C 18.528582,18.264221 13.291696,25.230495 11.500037,31.436501 z"
             style="fill:#404040;"/>
          </a>
         </g>
        </svg>
</svg>
