<?xml version="1.0" encoding="UTF-8" standalone="no"?>
<!DOCTYPE svg PUBLIC "-//W3C//DTD SVG 1.1//EN"
 "http://www.w3.org/Graphics/SVG/1.1/DTD/svg11.dtd">
<!-- Generated by graphviz version 2.43.0 (0)
 -->
<!-- Title: CrtfImportExport.cc Pages: 1 -->
<!--zoomable 475 -->
<svg id="main" version="1.1" xmlns="http://www.w3.org/2000/svg" xmlns:xlink="http://www.w3.org/1999/xlink" xml:space="preserve" onload="init(evt)">
<style type="text/css"><![CDATA[
.edge:hover path { stroke: red; }
.edge:hover polygon { stroke: red; fill: red; }
]]></style>
<script type="text/javascript"><![CDATA[
var edges = document.getElementsByTagName('g');
if (edges && edges.length) {
  for (var i=0;i<edges.length;i++) {
    if (edges[i].id.substr(0,4)=='edge') {
      edges[i].setAttribute('class','edge');
    }
  }
}
]]></script>
        <defs>
                <circle id="rim" cx="0" cy="0" r="7"/>
                <circle id="rim2" cx="0" cy="0" r="3.5"/>
                <g id="zoomPlus">
                        <use xlink:href="#rim" fill="#404040">
                                <set attributeName="fill" to="#808080" begin="zoomplus.mouseover" end="zoomplus.mouseout"/>
                        </use>
                        <path d="M-4,0h8M0,-4v8" fill="none" stroke="white" stroke-width="1.5" pointer-events="none"/>
                </g>
                <g id="zoomMin">
                        <use xlink:href="#rim" fill="#404040">
                                <set attributeName="fill" to="#808080" begin="zoomminus.mouseover" end="zoomminus.mouseout"/>
                        </use>
                        <path d="M-4,0h8" fill="none" stroke="white" stroke-width="1.5" pointer-events="none"/>
                </g>
                <g id="dirArrow">
                        <path fill="none" stroke="white" stroke-width="1.5" d="M0,-3.0v7 M-2.5,-0.5L0,-3.0L2.5,-0.5"/>
                </g>
               <g id="resetDef">
                       <use xlink:href="#rim2" fill="#404040">
                               <set attributeName="fill" to="#808080" begin="reset.mouseover" end="reset.mouseout"/>
                       </use>
               </g>
        </defs>

<script type="text/javascript">
var viewWidth = 4092;
var viewHeight = 475;
var sectionId = 'dynsection-0';
</script>
<script xlink:href="svgpan.js"/>
<svg id="graph" class="graph">
<g id="viewport">
<title>CrtfImportExport.cc</title>
<!-- Node1 -->
<g id="node1" class="node">
<title>Node1</title>
<g id="a_node1"><a xlink:title=" ">
<polygon fill="#bfbfbf" stroke="black" points="2450.35,-447.5 2450.35,-466.5 2562.35,-466.5 2562.35,-447.5 2450.35,-447.5"/>
<text text-anchor="middle" x="2506.35" y="-454.5" font-family="Helvetica,sans-Serif" font-size="10.00">CrtfImportExport.cc</text>
</a>
</g>
</g>
<!-- Node2 -->
<g id="node2" class="node">
<title>Node2</title>
<g id="a_node2"><a xlink:href="CrtfImportExport_8h.html" target="_top" xlink:title=" ">
<polygon fill="none" stroke="black" points="545.85,-386 545.85,-405 652.85,-405 652.85,-386 545.85,-386"/>
<text text-anchor="middle" x="599.35" y="-393" font-family="Helvetica,sans-Serif" font-size="10.00">CrtfImportExport.h</text>
</a>
</g>
</g>
<!-- Node1&#45;&gt;Node2 -->
<g id="edge1" class="edge">
<title>Node1&#45;&gt;Node2</title>
<path fill="none" stroke="midnightblue" d="M2450.31,-454.25C2173.82,-445.62 956.58,-407.65 663.16,-398.49"/>
<polygon fill="midnightblue" stroke="midnightblue" points="663.21,-394.99 653.11,-398.18 663,-401.99 663.21,-394.99"/>
</g>
<!-- Node23 -->
<g id="node22" class="node">
<title>Node23</title>
<g id="a_node22"><a xlink:title=" ">
<polygon fill="none" stroke="#bfbfbf" points="1415.35,-0.5 1415.35,-19.5 1561.35,-19.5 1561.35,-0.5 1415.35,-0.5"/>
<text text-anchor="middle" x="1488.35" y="-7.5" font-family="Helvetica,sans-Serif" font-size="10.00">carta&#45;protobuf/enums.pb.h</text>
</a>
</g>
</g>
<!-- Node1&#45;&gt;Node23 -->
<g id="edge35" class="edge">
<title>Node1&#45;&gt;Node23</title>
<path fill="none" stroke="midnightblue" d="M2450.11,-454.81C2265.16,-450.68 1683.03,-435.82 1602.35,-411 1547.64,-394.17 1520.69,-393.74 1492.35,-344 1461.63,-290.08 1479.62,-92.44 1486.23,-30.02"/>
<polygon fill="midnightblue" stroke="midnightblue" points="1489.75,-30.04 1487.35,-19.72 1482.79,-29.28 1489.75,-30.04"/>
</g>
<!-- Node58 -->
<g id="node24" class="node">
<title>Node58</title>
<g id="a_node24"><a xlink:title=" ">
<polygon fill="none" stroke="#bfbfbf" points="37.35,-56.5 37.35,-86.5 161.35,-86.5 161.35,-56.5 37.35,-56.5"/>
<text text-anchor="start" x="45.35" y="-74.5" font-family="Helvetica,sans-Serif" font-size="10.00">casacore/casa/Quanta</text>
<text text-anchor="middle" x="99.35" y="-63.5" font-family="Helvetica,sans-Serif" font-size="10.00">/Quantum.h</text>
</a>
</g>
</g>
<!-- Node1&#45;&gt;Node58 -->
<g id="edge37" class="edge">
<title>Node1&#45;&gt;Node58</title>
<path fill="none" stroke="midnightblue" d="M2450.2,-456.19C2079.63,-457.09 0.35,-456.48 0.35,-329.5 0.35,-329.5 0.35,-329.5 0.35,-199 0.35,-164.18 -1.06,-151.21 19.35,-123 28.83,-109.9 42.85,-99.41 56.51,-91.46"/>
<polygon fill="midnightblue" stroke="midnightblue" points="58.3,-94.47 65.39,-86.59 54.94,-88.33 58.3,-94.47"/>
</g>
<!-- Node158 -->
<g id="node27" class="node">
<title>Node158</title>
<g id="a_node27"><a xlink:title=" ">
<polygon fill="none" stroke="#bfbfbf" points="1723.35,-380.5 1723.35,-410.5 1847.35,-410.5 1847.35,-380.5 1723.35,-380.5"/>
<text text-anchor="start" x="1731.35" y="-398.5" font-family="Helvetica,sans-Serif" font-size="10.00">casacore/casa/Quanta</text>
<text text-anchor="middle" x="1785.35" y="-387.5" font-family="Helvetica,sans-Serif" font-size="10.00">/QMath.h</text>
</a>
</g>
</g>
<!-- Node1&#45;&gt;Node158 -->
<g id="edge36" class="edge">
<title>Node1&#45;&gt;Node158</title>
<path fill="none" stroke="midnightblue" d="M2450.02,-454.61C2338.63,-451.31 2082.29,-441.02 1857.61,-411.05"/>
<polygon fill="midnightblue" stroke="midnightblue" points="1857.99,-407.57 1847.61,-409.7 1857.05,-414.51 1857.99,-407.57"/>
</g>
<!-- Node159 -->
<g id="node28" class="node">
<title>Node159</title>
<g id="a_node28"><a xlink:title=" ">
<polygon fill="none" stroke="#bfbfbf" points="1865.35,-380.5 1865.35,-410.5 2053.35,-410.5 2053.35,-380.5 1865.35,-380.5"/>
<text text-anchor="start" x="1873.35" y="-398.5" font-family="Helvetica,sans-Serif" font-size="10.00">casacore/coordinates</text>
<text text-anchor="middle" x="1959.35" y="-387.5" font-family="Helvetica,sans-Serif" font-size="10.00">/Coordinates/DirectionCoordinate.h</text>
</a>
</g>
</g>
<!-- Node1&#45;&gt;Node159 -->
<g id="edge38" class="edge">
<title>Node1&#45;&gt;Node159</title>
<path fill="none" stroke="midnightblue" d="M2450.2,-451.01C2367.77,-443.54 2208.91,-428.54 2063.37,-411.09"/>
<polygon fill="midnightblue" stroke="midnightblue" points="2063.7,-407.61 2053.36,-409.89 2062.87,-414.56 2063.7,-407.61"/>
</g>
<!-- Node160 -->
<g id="node29" class="node">
<title>Node160</title>
<g id="a_node29"><a xlink:title=" ">
<polygon fill="none" stroke="#bfbfbf" points="2071.35,-380.5 2071.35,-410.5 2247.35,-410.5 2247.35,-380.5 2071.35,-380.5"/>
<text text-anchor="start" x="2079.35" y="-398.5" font-family="Helvetica,sans-Serif" font-size="10.00">casacore/coordinates</text>
<text text-anchor="middle" x="2159.35" y="-387.5" font-family="Helvetica,sans-Serif" font-size="10.00">/Coordinates/StokesCoordinate.h</text>
</a>
</g>
</g>
<!-- Node1&#45;&gt;Node160 -->
<g id="edge39" class="edge">
<title>Node1&#45;&gt;Node160</title>
<path fill="none" stroke="midnightblue" d="M2456.64,-447.48C2403.16,-438.31 2316.95,-423.52 2251.11,-412.23"/>
<polygon fill="midnightblue" stroke="midnightblue" points="2251.58,-408.76 2241.13,-410.52 2250.4,-415.66 2251.58,-408.76"/>
</g>
<!-- Node161 -->
<g id="node30" class="node">
<title>Node161</title>
<g id="a_node30"><a xlink:title=" ">
<polygon fill="none" stroke="#bfbfbf" points="2264.85,-380.5 2264.85,-410.5 2413.85,-410.5 2413.85,-380.5 2264.85,-380.5"/>
<text text-anchor="start" x="2272.85" y="-398.5" font-family="Helvetica,sans-Serif" font-size="10.00">imageanalysis/Annotations</text>
<text text-anchor="middle" x="2339.35" y="-387.5" font-family="Helvetica,sans-Serif" font-size="10.00">/AnnCenterBox.h</text>
</a>
</g>
</g>
<!-- Node1&#45;&gt;Node161 -->
<g id="edge40" class="edge">
<title>Node1&#45;&gt;Node161</title>
<path fill="none" stroke="midnightblue" d="M2482.43,-447.48C2458.01,-438.78 2419.42,-425.03 2388.46,-414"/>
<polygon fill="midnightblue" stroke="midnightblue" points="2389.31,-410.58 2378.71,-410.52 2386.96,-417.18 2389.31,-410.58"/>
</g>
<!-- Node162 -->
<g id="node31" class="node">
<title>Node162</title>
<g id="a_node31"><a xlink:title=" ">
<polygon fill="none" stroke="#bfbfbf" points="2431.85,-380.5 2431.85,-410.5 2580.85,-410.5 2580.85,-380.5 2431.85,-380.5"/>
<text text-anchor="start" x="2439.85" y="-398.5" font-family="Helvetica,sans-Serif" font-size="10.00">imageanalysis/Annotations</text>
<text text-anchor="middle" x="2506.35" y="-387.5" font-family="Helvetica,sans-Serif" font-size="10.00">/AnnCircle.h</text>
</a>
</g>
</g>
<!-- Node1&#45;&gt;Node162 -->
<g id="edge41" class="edge">
<title>Node1&#45;&gt;Node162</title>
<path fill="none" stroke="midnightblue" d="M2506.35,-447.48C2506.35,-440.47 2506.35,-430.19 2506.35,-420.7"/>
<polygon fill="midnightblue" stroke="midnightblue" points="2509.85,-420.52 2506.35,-410.52 2502.85,-420.52 2509.85,-420.52"/>
</g>
<!-- Node163 -->
<g id="node32" class="node">
<title>Node163</title>
<g id="a_node32"><a xlink:title=" ">
<polygon fill="none" stroke="#bfbfbf" points="2598.85,-380.5 2598.85,-410.5 2747.85,-410.5 2747.85,-380.5 2598.85,-380.5"/>
<text text-anchor="start" x="2606.85" y="-398.5" font-family="Helvetica,sans-Serif" font-size="10.00">imageanalysis/Annotations</text>
<text text-anchor="middle" x="2673.35" y="-387.5" font-family="Helvetica,sans-Serif" font-size="10.00">/AnnEllipse.h</text>
</a>
</g>
</g>
<!-- Node1&#45;&gt;Node163 -->
<g id="edge42" class="edge">
<title>Node1&#45;&gt;Node163</title>
<path fill="none" stroke="midnightblue" d="M2530.28,-447.48C2554.69,-438.78 2593.29,-425.03 2624.24,-414"/>
<polygon fill="midnightblue" stroke="midnightblue" points="2625.75,-417.18 2633.99,-410.52 2623.4,-410.58 2625.75,-417.18"/>
</g>
<!-- Node164 -->
<g id="node33" class="node">
<title>Node164</title>
<g id="a_node33"><a xlink:title=" ">
<polygon fill="none" stroke="#bfbfbf" points="2765.85,-380.5 2765.85,-410.5 2914.85,-410.5 2914.85,-380.5 2765.85,-380.5"/>
<text text-anchor="start" x="2773.85" y="-398.5" font-family="Helvetica,sans-Serif" font-size="10.00">imageanalysis/Annotations</text>
<text text-anchor="middle" x="2840.35" y="-387.5" font-family="Helvetica,sans-Serif" font-size="10.00">/AnnLine.h</text>
</a>
</g>
</g>
<!-- Node1&#45;&gt;Node164 -->
<g id="edge43" class="edge">
<title>Node1&#45;&gt;Node164</title>
<path fill="none" stroke="midnightblue" d="M2554.21,-447.48C2606.69,-438.13 2691.92,-422.94 2755.73,-411.57"/>
<polygon fill="midnightblue" stroke="midnightblue" points="2756.55,-414.98 2765.78,-409.78 2755.33,-408.09 2756.55,-414.98"/>
</g>
<!-- Node165 -->
<g id="node34" class="node">
<title>Node165</title>
<g id="a_node34"><a xlink:title=" ">
<polygon fill="none" stroke="#bfbfbf" points="2932.85,-380.5 2932.85,-410.5 3081.85,-410.5 3081.85,-380.5 2932.85,-380.5"/>
<text text-anchor="start" x="2940.85" y="-398.5" font-family="Helvetica,sans-Serif" font-size="10.00">imageanalysis/Annotations</text>
<text text-anchor="middle" x="3007.35" y="-387.5" font-family="Helvetica,sans-Serif" font-size="10.00">/AnnPolygon.h</text>
</a>
</g>
</g>
<!-- Node1&#45;&gt;Node165 -->
<g id="edge44" class="edge">
<title>Node1&#45;&gt;Node165</title>
<path fill="none" stroke="midnightblue" d="M2562.61,-451.13C2641.06,-444.07 2787.95,-429.91 2922.64,-411.19"/>
<polygon fill="midnightblue" stroke="midnightblue" points="2923.31,-414.63 2932.73,-409.77 2922.34,-407.7 2923.31,-414.63"/>
</g>
<!-- Node166 -->
<g id="node35" class="node">
<title>Node166</title>
<g id="a_node35"><a xlink:title=" ">
<polygon fill="none" stroke="#bfbfbf" points="3099.85,-380.5 3099.85,-410.5 3248.85,-410.5 3248.85,-380.5 3099.85,-380.5"/>
<text text-anchor="start" x="3107.85" y="-398.5" font-family="Helvetica,sans-Serif" font-size="10.00">imageanalysis/Annotations</text>
<text text-anchor="middle" x="3174.35" y="-387.5" font-family="Helvetica,sans-Serif" font-size="10.00">/AnnPolyline.h</text>
</a>
</g>
</g>
<!-- Node1&#45;&gt;Node166 -->
<g id="edge45" class="edge">
<title>Node1&#45;&gt;Node166</title>
<path fill="none" stroke="midnightblue" d="M2562.6,-453.48C2665.34,-448.47 2890.42,-435.7 3089.68,-411.14"/>
<polygon fill="midnightblue" stroke="midnightblue" points="3090.26,-414.59 3099.75,-409.88 3089.39,-407.64 3090.26,-414.59"/>
</g>
<!-- Node167 -->
<g id="node36" class="node">
<title>Node167</title>
<g id="a_node36"><a xlink:title=" ">
<polygon fill="none" stroke="#bfbfbf" points="3266.85,-380.5 3266.85,-410.5 3415.85,-410.5 3415.85,-380.5 3266.85,-380.5"/>
<text text-anchor="start" x="3274.85" y="-398.5" font-family="Helvetica,sans-Serif" font-size="10.00">imageanalysis/Annotations</text>
<text text-anchor="middle" x="3341.35" y="-387.5" font-family="Helvetica,sans-Serif" font-size="10.00">/AnnRectBox.h</text>
</a>
</g>
</g>
<!-- Node1&#45;&gt;Node167 -->
<g id="edge46" class="edge">
<title>Node1&#45;&gt;Node167</title>
<path fill="none" stroke="midnightblue" d="M2562.67,-454.81C2686.46,-451.71 2991.64,-441.52 3256.56,-411.13"/>
<polygon fill="midnightblue" stroke="midnightblue" points="3257.22,-414.57 3266.75,-409.94 3256.42,-407.62 3257.22,-414.57"/>
</g>
<!-- Node168 -->
<g id="node37" class="node">
<title>Node168</title>
<g id="a_node37"><a xlink:title=" ">
<polygon fill="none" stroke="#bfbfbf" points="3433.85,-380.5 3433.85,-410.5 3582.85,-410.5 3582.85,-380.5 3433.85,-380.5"/>
<text text-anchor="start" x="3441.85" y="-398.5" font-family="Helvetica,sans-Serif" font-size="10.00">imageanalysis/Annotations</text>
<text text-anchor="middle" x="3508.35" y="-387.5" font-family="Helvetica,sans-Serif" font-size="10.00">/AnnRegion.h</text>
</a>
</g>
</g>
<!-- Node1&#45;&gt;Node168 -->
<g id="edge47" class="edge">
<title>Node1&#45;&gt;Node168</title>
<path fill="none" stroke="midnightblue" d="M2562.49,-455.67C2704.89,-454.32 3091.85,-447.4 3423.47,-411.12"/>
<polygon fill="midnightblue" stroke="midnightblue" points="3424.2,-414.56 3433.76,-409.98 3423.43,-407.6 3424.2,-414.56"/>
</g>
<!-- Node169 -->
<g id="node38" class="node">
<title>Node169</title>
<g id="a_node38"><a xlink:title=" ">
<polygon fill="none" stroke="#bfbfbf" points="3600.85,-380.5 3600.85,-410.5 3749.85,-410.5 3749.85,-380.5 3600.85,-380.5"/>
<text text-anchor="start" x="3608.85" y="-398.5" font-family="Helvetica,sans-Serif" font-size="10.00">imageanalysis/Annotations</text>
<text text-anchor="middle" x="3675.35" y="-387.5" font-family="Helvetica,sans-Serif" font-size="10.00">/AnnRotBox.h</text>
</a>
</g>
</g>
<!-- Node1&#45;&gt;Node169 -->
<g id="edge48" class="edge">
<title>Node1&#45;&gt;Node169</title>
<path fill="none" stroke="midnightblue" d="M2562.5,-456.27C2722.05,-456.49 3191.87,-453.3 3590.76,-411.08"/>
<polygon fill="midnightblue" stroke="midnightblue" points="3591.19,-414.55 3600.76,-410.01 3590.45,-407.59 3591.19,-414.55"/>
</g>
<!-- Node170 -->
<g id="node39" class="node">
<title>Node170</title>
<g id="a_node39"><a xlink:title=" ">
<polygon fill="none" stroke="#bfbfbf" points="3767.85,-380.5 3767.85,-410.5 3916.85,-410.5 3916.85,-380.5 3767.85,-380.5"/>
<text text-anchor="start" x="3775.85" y="-398.5" font-family="Helvetica,sans-Serif" font-size="10.00">imageanalysis/Annotations</text>
<text text-anchor="middle" x="3842.35" y="-387.5" font-family="Helvetica,sans-Serif" font-size="10.00">/AnnText.h</text>
</a>
</g>
</g>
<!-- Node1&#45;&gt;Node170 -->
<g id="edge49" class="edge">
<title>Node1&#45;&gt;Node170</title>
<path fill="none" stroke="midnightblue" d="M2562.45,-455.01C2771.06,-451.17 3502.66,-436.25 3757.8,-411.04"/>
<polygon fill="midnightblue" stroke="midnightblue" points="3758.17,-414.52 3767.76,-410.03 3757.46,-407.56 3758.17,-414.52"/>
</g>
<!-- Node171 -->
<g id="node40" class="node">
<title>Node171</title>
<g id="a_node40"><a xlink:title=" ">
<polygon fill="none" stroke="#bfbfbf" points="3934.85,-380.5 3934.85,-410.5 4083.85,-410.5 4083.85,-380.5 3934.85,-380.5"/>
<text text-anchor="start" x="3942.85" y="-398.5" font-family="Helvetica,sans-Serif" font-size="10.00">imageanalysis/Annotations</text>
<text text-anchor="middle" x="4009.35" y="-387.5" font-family="Helvetica,sans-Serif" font-size="10.00">/AnnVector.h</text>
</a>
</g>
</g>
<!-- Node1&#45;&gt;Node171 -->
<g id="edge50" class="edge">
<title>Node1&#45;&gt;Node171</title>
<path fill="none" stroke="midnightblue" d="M2562.74,-455.28C2789.32,-452.21 3634.78,-439.18 3924.69,-411.05"/>
<polygon fill="midnightblue" stroke="midnightblue" points="3925.16,-414.52 3934.76,-410.04 3924.47,-407.55 3925.16,-414.52"/>
</g>
<!-- Node97 -->
<g id="node41" class="node">
<title>Node97</title>
<g id="a_node41"><a xlink:href="Logger_8h.html" target="_top" xlink:title=" ">
<polygon fill="none" stroke="black" points="1611.35,-386 1611.35,-405 1705.35,-405 1705.35,-386 1611.35,-386"/>
<text text-anchor="middle" x="1658.35" y="-393" font-family="Helvetica,sans-Serif" font-size="10.00">Logger/Logger.h</text>
</a>
</g>
</g>
<!-- Node1&#45;&gt;Node97 -->
<g id="edge51" class="edge">
<title>Node1&#45;&gt;Node97</title>
<path fill="none" stroke="midnightblue" d="M2450.26,-456.58C2320.12,-457.11 1987.85,-453.75 1714.35,-411 1708.57,-410.1 1702.51,-408.85 1696.61,-407.47"/>
<polygon fill="midnightblue" stroke="midnightblue" points="1697.45,-404.07 1686.9,-405.05 1695.76,-410.86 1697.45,-404.07"/>
</g>
<!-- Node172 -->
<g id="node50" class="node">
<title>Node172</title>
<g id="a_node50"><a xlink:href="String_8h.html" target="_top" xlink:title=" ">
<polygon fill="none" stroke="black" points="1386.35,-190.5 1386.35,-209.5 1460.35,-209.5 1460.35,-190.5 1386.35,-190.5"/>
<text text-anchor="middle" x="1423.35" y="-197.5" font-family="Helvetica,sans-Serif" font-size="10.00">Util/String.h</text>
</a>
</g>
</g>
<!-- Node1&#45;&gt;Node172 -->
<g id="edge61" class="edge">
<title>Node1&#45;&gt;Node172</title>
<path fill="none" stroke="midnightblue" d="M2450.13,-455.52C2238.07,-453.47 1496.77,-443.95 1459.35,-411 1403.78,-362.06 1413.11,-261.26 1419.81,-219.62"/>
<polygon fill="midnightblue" stroke="midnightblue" points="1423.3,-219.99 1421.58,-209.54 1416.41,-218.78 1423.3,-219.99"/>
</g>
<!-- Node3 -->
<g id="node3" class="node">
<title>Node3</title>
<g id="a_node3"><a xlink:title=" ">
<polygon fill="none" stroke="#bfbfbf" points="474.35,-246.5 474.35,-276.5 594.35,-276.5 594.35,-246.5 474.35,-246.5"/>
<text text-anchor="start" x="482.35" y="-264.5" font-family="Helvetica,sans-Serif" font-size="10.00">casacore/casa/Arrays</text>
<text text-anchor="middle" x="534.35" y="-253.5" font-family="Helvetica,sans-Serif" font-size="10.00">/IPosition.h</text>
</a>
</g>
</g>
<!-- Node2&#45;&gt;Node3 -->
<g id="edge2" class="edge">
<title>Node2&#45;&gt;Node3</title>
<path fill="none" stroke="midnightblue" d="M572.02,-385.96C552.68,-378.32 528.17,-365.03 516.35,-344 506.26,-326.05 512.92,-302.91 520.84,-285.88"/>
<polygon fill="midnightblue" stroke="midnightblue" points="524.13,-287.14 525.54,-276.64 517.89,-283.97 524.13,-287.14"/>
</g>
<!-- Node4 -->
<g id="node4" class="node">
<title>Node4</title>
<g id="a_node4"><a xlink:title=" ">
<polygon fill="none" stroke="#bfbfbf" points="28.35,-123.5 28.35,-153.5 208.35,-153.5 208.35,-123.5 28.35,-123.5"/>
<text text-anchor="start" x="36.35" y="-141.5" font-family="Helvetica,sans-Serif" font-size="10.00">casacore/coordinates</text>
<text text-anchor="middle" x="118.35" y="-130.5" font-family="Helvetica,sans-Serif" font-size="10.00">/Coordinates/CoordinateSystem.h</text>
</a>
</g>
</g>
<!-- Node2&#45;&gt;Node4 -->
<g id="edge3" class="edge">
<title>Node2&#45;&gt;Node4</title>
<path fill="none" stroke="midnightblue" d="M545.46,-392.38C429.72,-387.29 165.54,-372.65 137.35,-344 89.75,-295.62 102.44,-206.11 112.07,-163.39"/>
<polygon fill="midnightblue" stroke="midnightblue" points="115.49,-164.13 114.42,-153.59 108.68,-162.5 115.49,-164.13"/>
</g>
<!-- Node5 -->
<g id="node5" class="node">
<title>Node5</title>
<g id="a_node5"><a xlink:title=" ">
<polygon fill="none" stroke="#bfbfbf" points="524.85,-313.5 524.85,-343.5 673.85,-343.5 673.85,-313.5 524.85,-313.5"/>
<text text-anchor="start" x="532.85" y="-331.5" font-family="Helvetica,sans-Serif" font-size="10.00">imageanalysis/Annotations</text>
<text text-anchor="middle" x="599.35" y="-320.5" font-family="Helvetica,sans-Serif" font-size="10.00">/AnnSymbol.h</text>
</a>
</g>
</g>
<!-- Node2&#45;&gt;Node5 -->
<g id="edge4" class="edge">
<title>Node2&#45;&gt;Node5</title>
<path fill="none" stroke="midnightblue" d="M599.35,-385.73C599.35,-377.54 599.35,-364.92 599.35,-353.71"/>
<polygon fill="midnightblue" stroke="midnightblue" points="602.85,-353.59 599.35,-343.59 595.85,-353.59 602.85,-353.59"/>
</g>
<!-- Node6 -->
<g id="node6" class="node">
<title>Node6</title>
<g id="a_node6"><a xlink:title=" ">
<polygon fill="none" stroke="#bfbfbf" points="691.85,-313.5 691.85,-343.5 840.85,-343.5 840.85,-313.5 691.85,-313.5"/>
<text text-anchor="start" x="699.85" y="-331.5" font-family="Helvetica,sans-Serif" font-size="10.00">imageanalysis/Annotations</text>
<text text-anchor="middle" x="766.35" y="-320.5" font-family="Helvetica,sans-Serif" font-size="10.00">/AnnotationBase.h</text>
</a>
</g>
</g>
<!-- Node2&#45;&gt;Node6 -->
<g id="edge5" class="edge">
<title>Node2&#45;&gt;Node6</title>
<path fill="none" stroke="midnightblue" d="M621.53,-385.87C646.7,-376.07 688.43,-359.83 720.65,-347.29"/>
<polygon fill="midnightblue" stroke="midnightblue" points="722.26,-350.42 730.31,-343.53 719.72,-343.89 722.26,-350.42"/>
</g>
<!-- Node7 -->
<g id="node7" class="node">
<title>Node7</title>
<g id="a_node7"><a xlink:title=" ">
<polygon fill="none" stroke="#bfbfbf" points="895.85,-313.5 895.85,-343.5 1044.85,-343.5 1044.85,-313.5 895.85,-313.5"/>
<text text-anchor="start" x="903.85" y="-331.5" font-family="Helvetica,sans-Serif" font-size="10.00">imageanalysis/Annotations</text>
<text text-anchor="middle" x="970.35" y="-320.5" font-family="Helvetica,sans-Serif" font-size="10.00">/RegionTextList.h</text>
</a>
</g>
</g>
<!-- Node2&#45;&gt;Node7 -->
<g id="edge6" class="edge">
<title>Node2&#45;&gt;Node7</title>
<path fill="none" stroke="midnightblue" d="M648.24,-385.94C708.56,-375.37 812.14,-357.22 885.54,-344.36"/>
<polygon fill="midnightblue" stroke="midnightblue" points="886.44,-347.76 895.69,-342.58 885.23,-340.86 886.44,-347.76"/>
</g>
<!-- Node8 -->
<g id="node8" class="node">
<title>Node8</title>
<g id="a_node8"><a xlink:title=" ">
<polygon fill="none" stroke="#bfbfbf" points="146.85,-313.5 146.85,-343.5 327.85,-343.5 327.85,-313.5 146.85,-313.5"/>
<text text-anchor="start" x="154.85" y="-331.5" font-family="Helvetica,sans-Serif" font-size="10.00">imageanalysis/IO/AsciiAnnotation</text>
<text text-anchor="middle" x="237.35" y="-320.5" font-family="Helvetica,sans-Serif" font-size="10.00">FileLine.h</text>
</a>
</g>
</g>
<!-- Node2&#45;&gt;Node8 -->
<g id="edge7" class="edge">
<title>Node2&#45;&gt;Node8</title>
<path fill="none" stroke="midnightblue" d="M551.65,-385.94C494.26,-375.63 396.74,-358.12 325.52,-345.33"/>
<polygon fill="midnightblue" stroke="midnightblue" points="326.11,-341.88 315.65,-343.56 324.88,-348.77 326.11,-341.88"/>
</g>
<!-- Node9 -->
<g id="node9" class="node">
<title>Node9</title>
<g id="a_node9"><a xlink:href="Region_8h.html" target="_top" xlink:title=" ">
<polygon fill="none" stroke="black" points="788.85,-190.5 788.85,-209.5 847.85,-209.5 847.85,-190.5 788.85,-190.5"/>
<text text-anchor="middle" x="818.35" y="-197.5" font-family="Helvetica,sans-Serif" font-size="10.00">Region.h</text>
</a>
</g>
</g>
<!-- Node2&#45;&gt;Node9 -->
<g id="edge8" class="edge">
<title>Node2&#45;&gt;Node9</title>
<path fill="none" stroke="midnightblue" d="M652.86,-391.46C719.01,-386.46 825.89,-373.88 850.35,-344 880.62,-307.04 849.27,-247.36 830.41,-218.18"/>
<polygon fill="midnightblue" stroke="midnightblue" points="833.08,-215.88 824.6,-209.53 827.27,-219.78 833.08,-215.88"/>
</g>
<!-- Node65 -->
<g id="node25" class="node">
<title>Node65</title>
<g id="a_node25"><a xlink:href="RegionImportExport_8h.html" target="_top" xlink:title=" ">
<polygon fill="none" stroke="black" points="345.85,-319 345.85,-338 468.85,-338 468.85,-319 345.85,-319"/>
<text text-anchor="middle" x="407.35" y="-326" font-family="Helvetica,sans-Serif" font-size="10.00">RegionImportExport.h</text>
</a>
</g>
</g>
<!-- Node2&#45;&gt;Node65 -->
<g id="edge28" class="edge">
<title>Node2&#45;&gt;Node65</title>
<path fill="none" stroke="midnightblue" d="M573.86,-385.87C540.05,-374.42 480.26,-354.18 442.27,-341.32"/>
<polygon fill="midnightblue" stroke="midnightblue" points="443.24,-337.96 432.65,-338.06 441,-344.59 443.24,-337.96"/>
</g>
<!-- Node9&#45;&gt;Node4 -->
<g id="edge13" class="edge">
<title>Node9&#45;&gt;Node4</title>
<path fill="none" stroke="midnightblue" d="M788.58,-197.52C702.17,-193.06 443.73,-178.6 218.45,-154.07"/>
<polygon fill="midnightblue" stroke="midnightblue" points="218.75,-150.58 208.43,-152.97 217.98,-157.54 218.75,-150.58"/>
</g>
<!-- Node10 -->
<g id="node10" class="node">
<title>Node10</title>
<g id="a_node10"><a xlink:title=" ">
<polygon fill="none" stroke="#bfbfbf" points="1202.35,-129 1202.35,-148 1252.35,-148 1252.35,-129 1202.35,-129"/>
<text text-anchor="middle" x="1227.35" y="-136" font-family="Helvetica,sans-Serif" font-size="10.00">atomic</text>
</a>
</g>
</g>
<!-- Node9&#45;&gt;Node10 -->
<g id="edge9" class="edge">
<title>Node9&#45;&gt;Node10</title>
<path fill="none" stroke="midnightblue" d="M848.06,-198.28C912.19,-196.12 1067.93,-187.54 1193.35,-154 1195.71,-153.37 1198.11,-152.61 1200.5,-151.77"/>
<polygon fill="midnightblue" stroke="midnightblue" points="1202.02,-154.93 1210.04,-148 1199.46,-148.42 1202.02,-154.93"/>
</g>
<!-- Node11 -->
<g id="node11" class="node">
<title>Node11</title>
<g id="a_node11"><a xlink:title=" ">
<polygon fill="none" stroke="#bfbfbf" points="1270.35,-129 1270.35,-148 1356.35,-148 1356.35,-129 1270.35,-129"/>
<text text-anchor="middle" x="1313.35" y="-136" font-family="Helvetica,sans-Serif" font-size="10.00">shared_mutex</text>
</a>
</g>
</g>
<!-- Node9&#45;&gt;Node11 -->
<g id="edge10" class="edge">
<title>Node9&#45;&gt;Node11</title>
<path fill="none" stroke="midnightblue" d="M847.89,-197.74C919.41,-194.32 1107.34,-183.08 1261.35,-154 1266.16,-153.09 1271.18,-151.95 1276.11,-150.71"/>
<polygon fill="midnightblue" stroke="midnightblue" points="1277.27,-154.02 1286.03,-148.06 1275.47,-147.26 1277.27,-154.02"/>
</g>
<!-- Node12 -->
<g id="node12" class="node">
<title>Node12</title>
<g id="a_node12"><a xlink:title=" ">
<polygon fill="none" stroke="#bfbfbf" points="848.35,-0.5 848.35,-19.5 892.35,-19.5 892.35,-0.5 848.35,-0.5"/>
<text text-anchor="middle" x="870.35" y="-7.5" font-family="Helvetica,sans-Serif" font-size="10.00">string</text>
</a>
</g>
</g>
<!-- Node9&#45;&gt;Node12 -->
<g id="edge11" class="edge">
<title>Node9&#45;&gt;Node12</title>
<path fill="none" stroke="midnightblue" d="M826.94,-190.18C834.69,-181.66 845.71,-168.02 851.35,-154 868.27,-111.93 870.76,-57.84 870.77,-29.78"/>
<polygon fill="midnightblue" stroke="midnightblue" points="874.27,-29.72 870.66,-19.76 867.27,-29.79 874.27,-29.72"/>
</g>
<!-- Node13 -->
<g id="node13" class="node">
<title>Node13</title>
<g id="a_node13"><a xlink:title=" ">
<polygon fill="none" stroke="#bfbfbf" points="1374.85,-129 1374.85,-148 1421.85,-148 1421.85,-129 1374.85,-129"/>
<text text-anchor="middle" x="1398.35" y="-136" font-family="Helvetica,sans-Serif" font-size="10.00">vector</text>
</a>
</g>
</g>
<!-- Node9&#45;&gt;Node13 -->
<g id="edge12" class="edge">
<title>Node9&#45;&gt;Node13</title>
<path fill="none" stroke="midnightblue" d="M847.96,-197.86C946.99,-193.83 1265.94,-179.18 1365.35,-154 1367.66,-153.42 1370,-152.69 1372.33,-151.87"/>
<polygon fill="midnightblue" stroke="midnightblue" points="1373.63,-155.12 1381.61,-148.14 1371.02,-148.62 1373.63,-155.12"/>
</g>
<!-- Node14 -->
<g id="node14" class="node">
<title>Node14</title>
<g id="a_node14"><a xlink:title=" ">
<polygon fill="none" stroke="#bfbfbf" points="372.85,-123.5 372.85,-153.5 513.85,-153.5 513.85,-123.5 372.85,-123.5"/>
<text text-anchor="start" x="380.85" y="-141.5" font-family="Helvetica,sans-Serif" font-size="10.00">casacore/images/Regions</text>
<text text-anchor="middle" x="443.35" y="-130.5" font-family="Helvetica,sans-Serif" font-size="10.00">/WCRegion.h</text>
</a>
</g>
</g>
<!-- Node9&#45;&gt;Node14 -->
<g id="edge14" class="edge">
<title>Node9&#45;&gt;Node14</title>
<path fill="none" stroke="midnightblue" d="M788.58,-194.74C736.97,-187.29 627.32,-171.21 523.98,-154.08"/>
<polygon fill="midnightblue" stroke="midnightblue" points="524.44,-150.61 514,-152.42 523.29,-157.51 524.44,-150.61"/>
</g>
<!-- Node15 -->
<g id="node15" class="node">
<title>Node15</title>
<g id="a_node15"><a xlink:title=" ">
<polygon fill="none" stroke="#bfbfbf" points="532.35,-123.5 532.35,-153.5 678.35,-153.5 678.35,-123.5 532.35,-123.5"/>
<text text-anchor="start" x="540.35" y="-141.5" font-family="Helvetica,sans-Serif" font-size="10.00">casacore/lattices/LRegions</text>
<text text-anchor="middle" x="605.35" y="-130.5" font-family="Helvetica,sans-Serif" font-size="10.00">/LCPolygon.h</text>
</a>
</g>
</g>
<!-- Node9&#45;&gt;Node15 -->
<g id="edge15" class="edge">
<title>Node9&#45;&gt;Node15</title>
<path fill="none" stroke="midnightblue" d="M788.74,-190.73C756.95,-181.85 705.6,-167.5 665.31,-156.25"/>
<polygon fill="midnightblue" stroke="midnightblue" points="666.16,-152.85 655.59,-153.53 664.28,-159.59 666.16,-152.85"/>
</g>
<!-- Node16 -->
<g id="node16" class="node">
<title>Node16</title>
<g id="a_node16"><a xlink:title=" ">
<polygon fill="none" stroke="#bfbfbf" points="696.35,-123.5 696.35,-153.5 842.35,-153.5 842.35,-123.5 696.35,-123.5"/>
<text text-anchor="start" x="704.35" y="-141.5" font-family="Helvetica,sans-Serif" font-size="10.00">casacore/lattices/LRegions</text>
<text text-anchor="middle" x="769.35" y="-130.5" font-family="Helvetica,sans-Serif" font-size="10.00">/LCRegion.h</text>
</a>
</g>
</g>
<!-- Node9&#45;&gt;Node16 -->
<g id="edge16" class="edge">
<title>Node9&#45;&gt;Node16</title>
<path fill="none" stroke="midnightblue" d="M811.33,-190.48C805.07,-182.87 795.62,-171.4 787.28,-161.26"/>
<polygon fill="midnightblue" stroke="midnightblue" points="789.96,-159.02 780.9,-153.52 784.56,-163.47 789.96,-159.02"/>
</g>
<!-- Node17 -->
<g id="node17" class="node">
<title>Node17</title>
<g id="a_node17"><a xlink:title=" ">
<polygon fill="none" stroke="#bfbfbf" points="898.35,-123.5 898.35,-153.5 1038.35,-153.5 1038.35,-123.5 898.35,-123.5"/>
<text text-anchor="start" x="906.35" y="-141.5" font-family="Helvetica,sans-Serif" font-size="10.00">casacore/lattices/Lattices</text>
<text text-anchor="middle" x="968.35" y="-130.5" font-family="Helvetica,sans-Serif" font-size="10.00">/ArrayLattice.h</text>
</a>
</g>
</g>
<!-- Node9&#45;&gt;Node17 -->
<g id="edge17" class="edge">
<title>Node9&#45;&gt;Node17</title>
<path fill="none" stroke="midnightblue" d="M839.84,-190.48C861.58,-181.85 895.84,-168.26 923.52,-157.29"/>
<polygon fill="midnightblue" stroke="midnightblue" points="925,-160.46 933,-153.52 922.41,-153.96 925,-160.46"/>
</g>
<!-- Node18 -->
<g id="node18" class="node">
<title>Node18</title>
<g id="a_node18"><a xlink:title=" ">
<polygon fill="none" stroke="#bfbfbf" points="1056.85,-123.5 1056.85,-153.5 1183.85,-153.5 1183.85,-123.5 1056.85,-123.5"/>
<text text-anchor="start" x="1064.85" y="-141.5" font-family="Helvetica,sans-Serif" font-size="10.00">casacore/tables/Tables</text>
<text text-anchor="middle" x="1120.35" y="-130.5" font-family="Helvetica,sans-Serif" font-size="10.00">/TableRecord.h</text>
</a>
</g>
</g>
<!-- Node9&#45;&gt;Node18 -->
<g id="edge18" class="edge">
<title>Node9&#45;&gt;Node18</title>
<path fill="none" stroke="midnightblue" d="M848,-193.19C889.87,-184.99 968.97,-169.48 1046.69,-154.13"/>
<polygon fill="midnightblue" stroke="midnightblue" points="1047.52,-157.53 1056.65,-152.16 1046.16,-150.66 1047.52,-157.53"/>
</g>
<!-- Node19 -->
<g id="node19" class="node">
<title>Node19</title>
<g id="a_node19"><a xlink:href="Image_8h.html" target="_top" xlink:title=" ">
<polygon fill="none" stroke="red" points="309.85,-62 309.85,-81 386.85,-81 386.85,-62 309.85,-62"/>
<text text-anchor="middle" x="348.35" y="-69" font-family="Helvetica,sans-Serif" font-size="10.00">Util/Image.h</text>
</a>
</g>
</g>
<!-- Node9&#45;&gt;Node19 -->
<g id="edge19" class="edge">
<title>Node9&#45;&gt;Node19</title>
<path fill="none" stroke="midnightblue" d="M788.83,-198.11C692.95,-194.94 394.68,-182.82 363.35,-154 346.26,-138.28 344.76,-109.98 345.98,-91.22"/>
<polygon fill="midnightblue" stroke="midnightblue" points="349.47,-91.49 346.95,-81.2 342.5,-90.82 349.47,-91.49"/>
</g>
<!-- Node28 -->
<g id="node23" class="node">
<title>Node28</title>
<g id="a_node23"><a xlink:href="Message_8h.html" target="_top" xlink:title=" ">
<polygon fill="none" stroke="red" points="226.85,-129 226.85,-148 315.85,-148 315.85,-129 226.85,-129"/>
<text text-anchor="middle" x="271.35" y="-136" font-family="Helvetica,sans-Serif" font-size="10.00">Util/Message.h</text>
</a>
</g>
</g>
<!-- Node9&#45;&gt;Node28 -->
<g id="edge24" class="edge">
<title>Node9&#45;&gt;Node28</title>
<path fill="none" stroke="midnightblue" d="M788.73,-197.81C712.33,-194.4 502.57,-182.94 330.35,-154 324.49,-153.01 318.35,-151.76 312.33,-150.4"/>
<polygon fill="midnightblue" stroke="midnightblue" points="312.94,-146.95 302.4,-148.05 311.33,-153.76 312.94,-146.95"/>
</g>
<!-- Node19&#45;&gt;Node12 -->
<g id="edge21" class="edge">
<title>Node19&#45;&gt;Node12</title>
<path fill="none" stroke="midnightblue" d="M387.16,-66.08C486.14,-54.79 746.62,-25.1 838.06,-14.68"/>
<polygon fill="midnightblue" stroke="midnightblue" points="838.57,-18.15 848.11,-13.54 837.77,-11.19 838.57,-18.15"/>
</g>
<!-- Node20 -->
<g id="node20" class="node">
<title>Node20</title>
<g id="a_node20"><a xlink:title=" ">
<polygon fill="none" stroke="#bfbfbf" points="329.85,-0.5 329.85,-19.5 376.85,-19.5 376.85,-0.5 329.85,-0.5"/>
<text text-anchor="middle" x="353.35" y="-7.5" font-family="Helvetica,sans-Serif" font-size="10.00">cmath</text>
</a>
</g>
</g>
<!-- Node19&#45;&gt;Node20 -->
<g id="edge20" class="edge">
<title>Node19&#45;&gt;Node20</title>
<path fill="none" stroke="midnightblue" d="M349.07,-61.98C349.77,-53.58 350.88,-40.48 351.78,-29.66"/>
<polygon fill="midnightblue" stroke="midnightblue" points="355.29,-29.77 352.64,-19.51 348.31,-29.18 355.29,-29.77"/>
</g>
<!-- Node22 -->
<g id="node21" class="node">
<title>Node22</title>
<g id="a_node21"><a xlink:title=" ">
<polygon fill="none" stroke="#bfbfbf" points="177.35,-0.5 177.35,-19.5 311.35,-19.5 311.35,-0.5 177.35,-0.5"/>
<text text-anchor="middle" x="244.35" y="-7.5" font-family="Helvetica,sans-Serif" font-size="10.00">carta&#45;protobuf/defs.pb.h</text>
</a>
</g>
</g>
<!-- Node19&#45;&gt;Node22 -->
<g id="edge22" class="edge">
<title>Node19&#45;&gt;Node22</title>
<path fill="none" stroke="midnightblue" d="M333.45,-61.98C316.38,-52.21 288.19,-36.08 268.09,-24.58"/>
<polygon fill="midnightblue" stroke="midnightblue" points="269.64,-21.44 259.23,-19.51 266.17,-27.51 269.64,-21.44"/>
</g>
<!-- Node19&#45;&gt;Node23 -->
<g id="edge23" class="edge">
<title>Node19&#45;&gt;Node23</title>
<path fill="none" stroke="midnightblue" d="M386.94,-68.49C548.97,-60.03 1176.52,-27.28 1404.76,-15.36"/>
<polygon fill="midnightblue" stroke="midnightblue" points="1405.19,-18.85 1414.99,-14.83 1404.83,-11.85 1405.19,-18.85"/>
</g>
<!-- Node28&#45;&gt;Node19 -->
<g id="edge27" class="edge">
<title>Node28&#45;&gt;Node19</title>
<path fill="none" stroke="midnightblue" d="M281.74,-128.73C294.21,-118.21 315.33,-100.38 330.44,-87.62"/>
<polygon fill="midnightblue" stroke="midnightblue" points="332.75,-90.25 338.13,-81.13 328.23,-84.9 332.75,-90.25"/>
</g>
<!-- Node28&#45;&gt;Node22 -->
<g id="edge25" class="edge">
<title>Node28&#45;&gt;Node22</title>
<path fill="none" stroke="midnightblue" d="M269.5,-128.81C265.16,-108.49 254.29,-57.55 248.36,-29.78"/>
<polygon fill="midnightblue" stroke="midnightblue" points="251.73,-28.8 246.22,-19.76 244.89,-30.27 251.73,-28.8"/>
</g>
<!-- Node28&#45;&gt;Node58 -->
<g id="edge26" class="edge">
<title>Node28&#45;&gt;Node58</title>
<path fill="none" stroke="midnightblue" d="M248.51,-128.87C222.48,-119.03 179.24,-102.69 146,-90.13"/>
<polygon fill="midnightblue" stroke="midnightblue" points="147.06,-86.79 136.47,-86.53 144.59,-93.34 147.06,-86.79"/>
</g>
<!-- Node65&#45;&gt;Node3 -->
<g id="edge30" class="edge">
<title>Node65&#45;&gt;Node3</title>
<path fill="none" stroke="midnightblue" d="M424.22,-318.87C442.88,-309.31 473.53,-293.63 497.77,-281.22"/>
<polygon fill="midnightblue" stroke="midnightblue" points="499.4,-284.32 506.7,-276.65 496.21,-278.09 499.4,-284.32"/>
</g>
<!-- Node65&#45;&gt;Node4 -->
<g id="edge31" class="edge">
<title>Node65&#45;&gt;Node4</title>
<path fill="none" stroke="midnightblue" d="M394.18,-318.93C350.72,-290.66 211.04,-199.8 148.79,-159.3"/>
<polygon fill="midnightblue" stroke="midnightblue" points="150.48,-156.22 140.19,-153.7 146.66,-162.09 150.48,-156.22"/>
</g>
<!-- Node65&#45;&gt;Node22 -->
<g id="edge29" class="edge">
<title>Node65&#45;&gt;Node22</title>
<path fill="none" stroke="midnightblue" d="M378.01,-318.94C294.87,-294.04 60.99,-219.23 19.35,-154 7.63,-135.63 16.62,-68.61 28.35,-56 47.15,-35.81 113.17,-24.09 167.33,-17.71"/>
<polygon fill="midnightblue" stroke="midnightblue" points="167.74,-21.18 177.29,-16.57 166.95,-14.22 167.74,-21.18"/>
</g>
<!-- Node66 -->
<g id="node26" class="node">
<title>Node66</title>
<g id="a_node26"><a xlink:href="RegionHandler_8h.html" target="_top" xlink:title=" ">
<polygon fill="none" stroke="red" points="358.85,-252 358.85,-271 455.85,-271 455.85,-252 358.85,-252"/>
<text text-anchor="middle" x="407.35" y="-259" font-family="Helvetica,sans-Serif" font-size="10.00">RegionHandler.h</text>
</a>
</g>
</g>
<!-- Node65&#45;&gt;Node66 -->
<g id="edge32" class="edge">
<title>Node65&#45;&gt;Node66</title>
<path fill="none" stroke="midnightblue" d="M407.35,-318.73C407.35,-309.18 407.35,-293.62 407.35,-281.28"/>
<polygon fill="midnightblue" stroke="midnightblue" points="410.85,-281.13 407.35,-271.13 403.85,-281.13 410.85,-281.13"/>
</g>
<!-- Node66&#45;&gt;Node9 -->
<g id="edge34" class="edge">
<title>Node66&#45;&gt;Node9</title>
<path fill="none" stroke="midnightblue" d="M438.51,-251.99C447.16,-249.83 456.58,-247.65 465.35,-246 577.79,-224.85 712.28,-210.75 778.08,-204.57"/>
<polygon fill="midnightblue" stroke="midnightblue" points="778.78,-208.02 788.41,-203.61 778.13,-201.05 778.78,-208.02"/>
</g>
<!-- Node66&#45;&gt;Node13 -->
<g id="edge33" class="edge">
<title>Node66&#45;&gt;Node13</title>
<path fill="none" stroke="midnightblue" d="M437.87,-251.94C446.68,-249.72 456.35,-247.53 465.35,-246 861.76,-178.66 976.98,-258.1 1365.35,-154 1367.65,-153.38 1369.99,-152.63 1372.31,-151.8"/>
<polygon fill="midnightblue" stroke="midnightblue" points="1373.63,-155.04 1381.58,-148.04 1371,-148.55 1373.63,-155.04"/>
</g>
<!-- Node97&#45;&gt;Node23 -->
<g id="edge58" class="edge">
<title>Node97&#45;&gt;Node23</title>
<path fill="none" stroke="midnightblue" d="M1655.14,-385.99C1647.59,-365.22 1629.35,-310.13 1629.35,-262.5 1629.35,-262.5 1629.35,-262.5 1629.35,-137.5 1629.35,-79.68 1562.85,-41.62 1521.19,-23.44"/>
<polygon fill="midnightblue" stroke="midnightblue" points="1522.53,-20.21 1511.95,-19.56 1519.81,-26.66 1522.53,-20.21"/>
</g>
<!-- Node27 -->
<g id="node42" class="node">
<title>Node27</title>
<g id="a_node42"><a xlink:title=" ">
<polygon fill="none" stroke="#bfbfbf" points="1657.35,-319 1657.35,-338 1717.35,-338 1717.35,-319 1657.35,-319"/>
<text text-anchor="middle" x="1687.35" y="-326" font-family="Helvetica,sans-Serif" font-size="10.00">iostream</text>
</a>
</g>
</g>
<!-- Node97&#45;&gt;Node27 -->
<g id="edge52" class="edge">
<title>Node97&#45;&gt;Node27</title>
<path fill="none" stroke="midnightblue" d="M1662.26,-385.73C1666.61,-375.99 1673.75,-359.98 1679.31,-347.53"/>
<polygon fill="midnightblue" stroke="midnightblue" points="1682.63,-348.69 1683.5,-338.13 1676.23,-345.83 1682.63,-348.69"/>
</g>
<!-- Node98 -->
<g id="node43" class="node">
<title>Node98</title>
<g id="a_node43"><a xlink:title=" ">
<polygon fill="none" stroke="#bfbfbf" points="1735.35,-319 1735.35,-338 1839.35,-338 1839.35,-319 1735.35,-319"/>
<text text-anchor="middle" x="1787.35" y="-326" font-family="Helvetica,sans-Serif" font-size="10.00">spdlog/common.h</text>
</a>
</g>
</g>
<!-- Node97&#45;&gt;Node98 -->
<g id="edge53" class="edge">
<title>Node97&#45;&gt;Node98</title>
<path fill="none" stroke="midnightblue" d="M1675.48,-385.87C1697.36,-374.84 1735.44,-355.66 1761.02,-342.77"/>
<polygon fill="midnightblue" stroke="midnightblue" points="1762.8,-345.79 1770.15,-338.17 1759.65,-339.54 1762.8,-345.79"/>
</g>
<!-- Node99 -->
<g id="node44" class="node">
<title>Node99</title>
<g id="a_node44"><a xlink:title=" ">
<polygon fill="none" stroke="#bfbfbf" points="1857.85,-313.5 1857.85,-343.5 1960.85,-343.5 1960.85,-313.5 1857.85,-313.5"/>
<text text-anchor="start" x="1865.85" y="-331.5" font-family="Helvetica,sans-Serif" font-size="10.00">spdlog/details/log</text>
<text text-anchor="middle" x="1909.35" y="-320.5" font-family="Helvetica,sans-Serif" font-size="10.00">_msg.h</text>
</a>
</g>
</g>
<!-- Node97&#45;&gt;Node99 -->
<g id="edge54" class="edge">
<title>Node97&#45;&gt;Node99</title>
<path fill="none" stroke="midnightblue" d="M1691.42,-385.94C1731.03,-375.68 1798.19,-358.29 1847.51,-345.52"/>
<polygon fill="midnightblue" stroke="midnightblue" points="1848.63,-348.84 1857.43,-342.95 1846.87,-342.06 1848.63,-348.84"/>
</g>
<!-- Node100 -->
<g id="node45" class="node">
<title>Node100</title>
<g id="a_node45"><a xlink:title=" ">
<polygon fill="none" stroke="#bfbfbf" points="1978.85,-313.5 1978.85,-343.5 2097.85,-343.5 2097.85,-313.5 1978.85,-313.5"/>
<text text-anchor="start" x="1986.85" y="-331.5" font-family="Helvetica,sans-Serif" font-size="10.00">spdlog/sinks/rotating</text>
<text text-anchor="middle" x="2038.35" y="-320.5" font-family="Helvetica,sans-Serif" font-size="10.00">_file_sink.h</text>
</a>
</g>
</g>
<!-- Node97&#45;&gt;Node100 -->
<g id="edge55" class="edge">
<title>Node97&#45;&gt;Node100</title>
<path fill="none" stroke="midnightblue" d="M1688.72,-385.97C1696.99,-383.83 1705.98,-381.67 1714.35,-380 1823.85,-358.2 1855.43,-363.65 1968.59,-344.23"/>
<polygon fill="midnightblue" stroke="midnightblue" points="1969.44,-347.64 1978.69,-342.47 1968.24,-340.74 1969.44,-347.64"/>
</g>
<!-- Node101 -->
<g id="node46" class="node">
<title>Node101</title>
<g id="a_node46"><a xlink:title=" ">
<polygon fill="none" stroke="#bfbfbf" points="2115.85,-313.5 2115.85,-343.5 2226.85,-343.5 2226.85,-313.5 2115.85,-313.5"/>
<text text-anchor="start" x="2123.85" y="-331.5" font-family="Helvetica,sans-Serif" font-size="10.00">spdlog/sinks/stdout</text>
<text text-anchor="middle" x="2171.35" y="-320.5" font-family="Helvetica,sans-Serif" font-size="10.00">_color_sinks.h</text>
</a>
</g>
</g>
<!-- Node97&#45;&gt;Node101 -->
<g id="edge56" class="edge">
<title>Node97&#45;&gt;Node101</title>
<path fill="none" stroke="midnightblue" d="M1687.51,-386C1696.1,-383.75 1705.55,-381.53 1714.35,-380 1883.95,-350.48 1932.33,-370.66 2105.62,-344.14"/>
<polygon fill="midnightblue" stroke="midnightblue" points="2106.25,-347.59 2115.59,-342.59 2105.17,-340.67 2106.25,-347.59"/>
</g>
<!-- Node102 -->
<g id="node47" class="node">
<title>Node102</title>
<g id="a_node47"><a xlink:title=" ">
<polygon fill="none" stroke="#bfbfbf" points="2244.85,-319 2244.85,-338 2337.85,-338 2337.85,-319 2244.85,-319"/>
<text text-anchor="middle" x="2291.35" y="-326" font-family="Helvetica,sans-Serif" font-size="10.00">spdlog/spdlog.h</text>
</a>
</g>
</g>
<!-- Node97&#45;&gt;Node102 -->
<g id="edge57" class="edge">
<title>Node97&#45;&gt;Node102</title>
<path fill="none" stroke="midnightblue" d="M1687.2,-385.95C1695.86,-383.67 1705.43,-381.45 1714.35,-380 1943.89,-342.7 2006.9,-381.81 2236.35,-344 2241.83,-343.1 2247.56,-341.89 2253.16,-340.56"/>
<polygon fill="midnightblue" stroke="midnightblue" points="2254.19,-343.91 2263.03,-338.06 2252.47,-337.12 2254.19,-343.91"/>
</g>
<!-- Node103 -->
<g id="node48" class="node">
<title>Node103</title>
<g id="a_node48"><a xlink:href="FileSystem_8h.html" target="_top" xlink:title=" ">
<polygon fill="none" stroke="black" points="1501.35,-319 1501.35,-338 1601.35,-338 1601.35,-319 1501.35,-319"/>
<text text-anchor="middle" x="1551.35" y="-326" font-family="Helvetica,sans-Serif" font-size="10.00">Util/FileSystem.h</text>
</a>
</g>
</g>
<!-- Node97&#45;&gt;Node103 -->
<g id="edge59" class="edge">
<title>Node97&#45;&gt;Node103</title>
<path fill="none" stroke="midnightblue" d="M1643.92,-385.73C1626.03,-374.87 1595.33,-356.22 1574.22,-343.39"/>
<polygon fill="midnightblue" stroke="midnightblue" points="1575.92,-340.33 1565.55,-338.13 1572.28,-346.31 1575.92,-340.33"/>
</g>
<!-- Node104 -->
<g id="node49" class="node">
<title>Node104</title>
<g id="a_node49"><a xlink:title=" ">
<polygon fill="none" stroke="#bfbfbf" points="1517.35,-252 1517.35,-271 1585.35,-271 1585.35,-252 1517.35,-252"/>
<text text-anchor="middle" x="1551.35" y="-259" font-family="Helvetica,sans-Serif" font-size="10.00">filesystem</text>
</a>
</g>
</g>
<!-- Node103&#45;&gt;Node104 -->
<g id="edge60" class="edge">
<title>Node103&#45;&gt;Node104</title>
<path fill="none" stroke="midnightblue" d="M1551.35,-318.73C1551.35,-309.18 1551.35,-293.62 1551.35,-281.28"/>
<polygon fill="midnightblue" stroke="midnightblue" points="1554.85,-281.13 1551.35,-271.13 1547.85,-281.13 1554.85,-281.13"/>
</g>
<!-- Node172&#45;&gt;Node12 -->
<g id="edge62" class="edge">
<title>Node172&#45;&gt;Node12</title>
<path fill="none" stroke="midnightblue" d="M1427.86,-190.34C1435.19,-174.91 1447.34,-142.49 1431.35,-123 1363.39,-40.13 1011.32,-17.39 902.46,-12.29"/>
<polygon fill="midnightblue" stroke="midnightblue" points="902.56,-8.79 892.41,-11.83 902.25,-15.78 902.56,-8.79"/>
</g>
<!-- Node172&#45;&gt;Node13 -->
<g id="edge63" class="edge">
<title>Node172&#45;&gt;Node13</title>
<path fill="none" stroke="midnightblue" d="M1419.77,-190.48C1416.17,-181.9 1410.51,-168.43 1405.91,-157.48"/>
<polygon fill="midnightblue" stroke="midnightblue" points="1409.03,-155.87 1401.93,-148.01 1402.57,-158.58 1409.03,-155.87"/>
</g>
</g>
</svg>
        <g id="navigator" transform="translate(0 0)" fill="#404254">
                <rect fill="#f2f5e9" fill-opacity="0.5" stroke="#606060" stroke-width=".5" x="0" y="0" width="60" height="60"/>
                <use id="zoomplus" xlink:href="#zoomPlus" x="17" y="9" onmousedown="handleZoom(evt,'in')"/>
                <use id="zoomminus" xlink:href="#zoomMin" x="42" y="9" onmousedown="handleZoom(evt,'out')"/>
                <use id="reset" xlink:href="#resetDef" x="30" y="36" onmousedown="handleReset()"/>
                <g id="arrowUp" xlink:href="#dirArrow" transform="translate(30 24)" onmousedown="handlePan(0,-1)">
                  <use xlink:href="#rim" fill="#404040">
                        <set attributeName="fill" to="#808080" begin="arrowUp.mouseover" end="arrowUp.mouseout"/>
                  </use>
                  <path fill="none" stroke="white" stroke-width="1.5" d="M0,-3.0v7 M-2.5,-0.5L0,-3.0L2.5,-0.5"/>
                </g>
                <g id="arrowRight" xlink:href="#dirArrow" transform="rotate(90) translate(36 -43)" onmousedown="handlePan(1,0)">
                  <use xlink:href="#rim" fill="#404040">
                        <set attributeName="fill" to="#808080" begin="arrowRight.mouseover" end="arrowRight.mouseout"/>
                  </use>
                  <path fill="none" stroke="white" stroke-width="1.5" d="M0,-3.0v7 M-2.5,-0.5L0,-3.0L2.5,-0.5"/>
                </g>
                <g id="arrowDown" xlink:href="#dirArrow" transform="rotate(180) translate(-30 -48)" onmousedown="handlePan(0,1)">
                  <use xlink:href="#rim" fill="#404040">
                        <set attributeName="fill" to="#808080" begin="arrowDown.mouseover" end="arrowDown.mouseout"/>
                  </use>
                  <path fill="none" stroke="white" stroke-width="1.5" d="M0,-3.0v7 M-2.5,-0.5L0,-3.0L2.5,-0.5"/>
                </g>
                <g id="arrowLeft" xlink:href="#dirArrow" transform="rotate(270) translate(-36 17)" onmousedown="handlePan(-1,0)">
                  <use xlink:href="#rim" fill="#404040">
                        <set attributeName="fill" to="#808080" begin="arrowLeft.mouseover" end="arrowLeft.mouseout"/>
                  </use>
                  <path fill="none" stroke="white" stroke-width="1.5" d="M0,-3.0v7 M-2.5,-0.5L0,-3.0L2.5,-0.5"/>
                </g>
        </g>
        <svg viewBox="0 0 15 15" width="100%" height="30px" preserveAspectRatio="xMaxYMin meet">
         <g id="arrow_out" transform="scale(0.3 0.3)">
          <a xlink:href="CrtfImportExport_8cc__incl_org.svg" target="_base">
           <rect id="button" ry="5" rx="5" y="6" x="6" height="38" width="38"
                fill="#f2f5e9" fill-opacity="0.5" stroke="#606060" stroke-width="1.0"/>
           <path id="arrow"
             d="M 11.500037,31.436501 C 11.940474,20.09759 22.043105,11.32322 32.158766,21.979434 L 37.068811,17.246167 C 37.068811,17.246167 37.088388,32 37.088388,32 L 22.160133,31.978069 C 22.160133,31.978069 26.997745,27.140456 26.997745,27.140456 C 18.528582,18.264221 13.291696,25.230495 11.500037,31.436501 z"
             style="fill:#404040;"/>
          </a>
         </g>
        </svg>
</svg>
