<?xml version="1.0" encoding="UTF-8" standalone="no"?>
<!DOCTYPE svg PUBLIC "-//W3C//DTD SVG 1.1//EN"
 "http://www.w3.org/Graphics/SVG/1.1/DTD/svg11.dtd">
<!-- Generated by graphviz version 2.43.0 (0)
 -->
<!-- Title: CrtfImportExport.h Pages: 1 -->
<svg width="3734pt" height="475pt"
 viewBox="0.00 0.00 3733.97 475.00" xmlns="http://www.w3.org/2000/svg" xmlns:xlink="http://www.w3.org/1999/xlink">
<g id="graph0" class="graph" transform="scale(1 1) rotate(0) translate(4 471)">
<title>CrtfImportExport.h</title>
<!-- Node1 -->
<g id="node1" class="node">
<title>Node1</title>
<g id="a_node1"><a xlink:title=" ">
<polygon fill="#bfbfbf" stroke="black" points="362.47,-447.5 362.47,-466.5 469.47,-466.5 469.47,-447.5 362.47,-447.5"/>
<text text-anchor="middle" x="415.97" y="-454.5" font-family="Helvetica,sans-Serif" font-size="10.00">CrtfImportExport.h</text>
</a>
</g>
</g>
<!-- Node2 -->
<g id="node2" class="node">
<title>Node2</title>
<g id="a_node2"><a xlink:title=" ">
<polygon fill="none" stroke="#bfbfbf" points="24.97,-313.5 24.97,-343.5 144.97,-343.5 144.97,-313.5 24.97,-313.5"/>
<text text-anchor="start" x="32.97" y="-331.5" font-family="Helvetica,sans-Serif" font-size="10.00">casacore/casa/Arrays</text>
<text text-anchor="middle" x="84.97" y="-320.5" font-family="Helvetica,sans-Serif" font-size="10.00">/IPosition.h</text>
</a>
</g>
</g>
<!-- Node1&#45;&gt;Node2 -->
<g id="edge1" class="edge">
<title>Node1&#45;&gt;Node2</title>
<path fill="none" stroke="midnightblue" d="M362.2,-452.29C292.58,-446.63 175.9,-434 139.97,-411 118.42,-397.21 103.25,-371.63 94.38,-352.79"/>
<polygon fill="midnightblue" stroke="midnightblue" points="97.57,-351.37 90.31,-343.66 91.18,-354.22 97.57,-351.37"/>
</g>
<!-- Node3 -->
<g id="node3" class="node">
<title>Node3</title>
<g id="a_node3"><a xlink:title=" ">
<polygon fill="none" stroke="#bfbfbf" points="2.97,-190.5 2.97,-220.5 182.97,-220.5 182.97,-190.5 2.97,-190.5"/>
<text text-anchor="start" x="10.97" y="-208.5" font-family="Helvetica,sans-Serif" font-size="10.00">casacore/coordinates</text>
<text text-anchor="middle" x="92.97" y="-197.5" font-family="Helvetica,sans-Serif" font-size="10.00">/Coordinates/CoordinateSystem.h</text>
</a>
</g>
</g>
<!-- Node1&#45;&gt;Node3 -->
<g id="edge2" class="edge">
<title>Node1&#45;&gt;Node3</title>
<path fill="none" stroke="midnightblue" d="M362.24,-455.99C298.92,-454.24 191.59,-445.75 106.97,-411 60.51,-391.92 38.62,-388.82 15.97,-344 -5.34,-301.86 37.07,-254.05 66.98,-227.36"/>
<polygon fill="midnightblue" stroke="midnightblue" points="69.37,-229.92 74.64,-220.73 64.79,-224.63 69.37,-229.92"/>
</g>
<!-- Node4 -->
<g id="node4" class="node">
<title>Node4</title>
<g id="a_node4"><a xlink:title=" ">
<polygon fill="none" stroke="#bfbfbf" points="392.47,-380.5 392.47,-410.5 541.47,-410.5 541.47,-380.5 392.47,-380.5"/>
<text text-anchor="start" x="400.47" y="-398.5" font-family="Helvetica,sans-Serif" font-size="10.00">imageanalysis/Annotations</text>
<text text-anchor="middle" x="466.97" y="-387.5" font-family="Helvetica,sans-Serif" font-size="10.00">/AnnSymbol.h</text>
</a>
</g>
</g>
<!-- Node1&#45;&gt;Node4 -->
<g id="edge3" class="edge">
<title>Node1&#45;&gt;Node4</title>
<path fill="none" stroke="midnightblue" d="M423.27,-447.48C429.79,-439.87 439.62,-428.4 448.31,-418.26"/>
<polygon fill="midnightblue" stroke="midnightblue" points="451.09,-420.39 454.95,-410.52 445.78,-415.84 451.09,-420.39"/>
</g>
<!-- Node5 -->
<g id="node5" class="node">
<title>Node5</title>
<g id="a_node5"><a xlink:title=" ">
<polygon fill="none" stroke="#bfbfbf" points="559.47,-380.5 559.47,-410.5 708.47,-410.5 708.47,-380.5 559.47,-380.5"/>
<text text-anchor="start" x="567.47" y="-398.5" font-family="Helvetica,sans-Serif" font-size="10.00">imageanalysis/Annotations</text>
<text text-anchor="middle" x="633.97" y="-387.5" font-family="Helvetica,sans-Serif" font-size="10.00">/AnnotationBase.h</text>
</a>
</g>
</g>
<!-- Node1&#45;&gt;Node5 -->
<g id="edge4" class="edge">
<title>Node1&#45;&gt;Node5</title>
<path fill="none" stroke="midnightblue" d="M447.2,-447.48C479.83,-438.57 531.86,-424.37 572.72,-413.22"/>
<polygon fill="midnightblue" stroke="midnightblue" points="573.86,-416.53 582.59,-410.52 572.02,-409.78 573.86,-416.53"/>
</g>
<!-- Node6 -->
<g id="node6" class="node">
<title>Node6</title>
<g id="a_node6"><a xlink:title=" ">
<polygon fill="none" stroke="#bfbfbf" points="726.47,-380.5 726.47,-410.5 875.47,-410.5 875.47,-380.5 726.47,-380.5"/>
<text text-anchor="start" x="734.47" y="-398.5" font-family="Helvetica,sans-Serif" font-size="10.00">imageanalysis/Annotations</text>
<text text-anchor="middle" x="800.97" y="-387.5" font-family="Helvetica,sans-Serif" font-size="10.00">/RegionTextList.h</text>
</a>
</g>
</g>
<!-- Node1&#45;&gt;Node6 -->
<g id="edge5" class="edge">
<title>Node1&#45;&gt;Node6</title>
<path fill="none" stroke="midnightblue" d="M469.49,-448.44C527.78,-440.11 624.03,-426.09 716.26,-411.25"/>
<polygon fill="midnightblue" stroke="midnightblue" points="717.01,-414.68 726.32,-409.63 715.89,-407.77 717.01,-414.68"/>
</g>
<!-- Node7 -->
<g id="node7" class="node">
<title>Node7</title>
<g id="a_node7"><a xlink:title=" ">
<polygon fill="none" stroke="#bfbfbf" points="893.47,-380.5 893.47,-410.5 1074.47,-410.5 1074.47,-380.5 893.47,-380.5"/>
<text text-anchor="start" x="901.47" y="-398.5" font-family="Helvetica,sans-Serif" font-size="10.00">imageanalysis/IO/AsciiAnnotation</text>
<text text-anchor="middle" x="983.97" y="-387.5" font-family="Helvetica,sans-Serif" font-size="10.00">FileLine.h</text>
</a>
</g>
</g>
<!-- Node1&#45;&gt;Node7 -->
<g id="edge6" class="edge">
<title>Node1&#45;&gt;Node7</title>
<path fill="none" stroke="midnightblue" d="M469.51,-451.73C554.84,-444.75 727.13,-429.85 883.1,-411.19"/>
<polygon fill="midnightblue" stroke="midnightblue" points="883.84,-414.63 893.35,-409.96 883.01,-407.68 883.84,-414.63"/>
</g>
<!-- Node8 -->
<g id="node8" class="node">
<title>Node8</title>
<g id="a_node8"><a xlink:href="Region_8h.html" target="_top" xlink:title=" ">
<polygon fill="none" stroke="black" points="2054.47,-257.5 2054.47,-276.5 2113.47,-276.5 2113.47,-257.5 2054.47,-257.5"/>
<text text-anchor="middle" x="2083.97" y="-264.5" font-family="Helvetica,sans-Serif" font-size="10.00">Region.h</text>
</a>
</g>
</g>
<!-- Node1&#45;&gt;Node8 -->
<g id="edge7" class="edge">
<title>Node1&#45;&gt;Node8</title>
<path fill="none" stroke="midnightblue" d="M406.97,-447.41C392.01,-432.1 365.37,-399.86 383.97,-380 442.63,-317.34 1793.07,-276.22 2044.03,-269.1"/>
<polygon fill="midnightblue" stroke="midnightblue" points="2044.25,-272.6 2054.15,-268.82 2044.06,-265.6 2044.25,-272.6"/>
</g>
<!-- Node64 -->
<g id="node49" class="node">
<title>Node64</title>
<g id="a_node49"><a xlink:href="RegionImportExport_8h.html" target="_top" xlink:title=" ">
<polygon fill="none" stroke="black" points="149.47,-386 149.47,-405 272.47,-405 272.47,-386 149.47,-386"/>
<text text-anchor="middle" x="210.97" y="-393" font-family="Helvetica,sans-Serif" font-size="10.00">RegionImportExport.h</text>
</a>
</g>
</g>
<!-- Node1&#45;&gt;Node64 -->
<g id="edge54" class="edge">
<title>Node1&#45;&gt;Node64</title>
<path fill="none" stroke="midnightblue" d="M386.59,-447.48C350.67,-437.05 289.73,-419.36 249.92,-407.81"/>
<polygon fill="midnightblue" stroke="midnightblue" points="250.86,-404.44 240.28,-405.01 248.91,-411.16 250.86,-404.44"/>
</g>
<!-- Node8&#45;&gt;Node3 -->
<g id="edge12" class="edge">
<title>Node8&#45;&gt;Node3</title>
<path fill="none" stroke="midnightblue" d="M2054.27,-265.11C1842.87,-258.79 563.36,-220.56 193.2,-209.5"/>
<polygon fill="midnightblue" stroke="midnightblue" points="193.14,-205.99 183.04,-209.19 192.93,-212.99 193.14,-205.99"/>
</g>
<!-- Node9 -->
<g id="node9" class="node">
<title>Node9</title>
<g id="a_node9"><a xlink:title=" ">
<polygon fill="none" stroke="#bfbfbf" points="2560.97,-196 2560.97,-215 2610.97,-215 2610.97,-196 2560.97,-196"/>
<text text-anchor="middle" x="2585.97" y="-203" font-family="Helvetica,sans-Serif" font-size="10.00">atomic</text>
</a>
</g>
</g>
<!-- Node8&#45;&gt;Node9 -->
<g id="edge8" class="edge">
<title>Node8&#45;&gt;Node9</title>
<path fill="none" stroke="midnightblue" d="M2113.53,-266.27C2188.24,-266.3 2390.21,-262.21 2551.97,-221 2554.33,-220.4 2556.73,-219.66 2559.12,-218.83"/>
<polygon fill="midnightblue" stroke="midnightblue" points="2560.64,-221.99 2568.68,-215.08 2558.09,-215.48 2560.64,-221.99"/>
</g>
<!-- Node10 -->
<g id="node10" class="node">
<title>Node10</title>
<g id="a_node10"><a xlink:title=" ">
<polygon fill="none" stroke="#bfbfbf" points="2628.97,-196 2628.97,-215 2714.97,-215 2714.97,-196 2628.97,-196"/>
<text text-anchor="middle" x="2671.97" y="-203" font-family="Helvetica,sans-Serif" font-size="10.00">shared_mutex</text>
</a>
</g>
</g>
<!-- Node8&#45;&gt;Node10 -->
<g id="edge9" class="edge">
<title>Node8&#45;&gt;Node10</title>
<path fill="none" stroke="midnightblue" d="M2113.56,-265.46C2194.99,-263.57 2429.02,-255.32 2619.97,-221 2625.02,-220.09 2630.3,-218.91 2635.47,-217.6"/>
<polygon fill="midnightblue" stroke="midnightblue" points="2636.44,-220.97 2645.2,-215 2634.63,-214.21 2636.44,-220.97"/>
</g>
<!-- Node11 -->
<g id="node11" class="node">
<title>Node11</title>
<g id="a_node11"><a xlink:title=" ">
<polygon fill="none" stroke="#bfbfbf" points="3681.97,-62 3681.97,-81 3725.97,-81 3725.97,-62 3681.97,-62"/>
<text text-anchor="middle" x="3703.97" y="-69" font-family="Helvetica,sans-Serif" font-size="10.00">string</text>
</a>
</g>
</g>
<!-- Node8&#45;&gt;Node11 -->
<g id="edge10" class="edge">
<title>Node8&#45;&gt;Node11</title>
<path fill="none" stroke="midnightblue" d="M2113.66,-265.97C2235.02,-265.59 2705.1,-261.43 3088.97,-221 3269.1,-202.03 3316.17,-201.49 3490.97,-154 3559.27,-135.44 3636.04,-103.06 3676.15,-85.21"/>
<polygon fill="midnightblue" stroke="midnightblue" points="3677.61,-88.4 3685.3,-81.11 3674.74,-82.01 3677.61,-88.4"/>
</g>
<!-- Node12 -->
<g id="node12" class="node">
<title>Node12</title>
<g id="a_node12"><a xlink:title=" ">
<polygon fill="none" stroke="#bfbfbf" points="856.47,-196 856.47,-215 903.47,-215 903.47,-196 856.47,-196"/>
<text text-anchor="middle" x="879.97" y="-203" font-family="Helvetica,sans-Serif" font-size="10.00">vector</text>
</a>
</g>
</g>
<!-- Node8&#45;&gt;Node12 -->
<g id="edge11" class="edge">
<title>Node8&#45;&gt;Node12</title>
<path fill="none" stroke="midnightblue" d="M2054.2,-264.53C1889.27,-256.38 1088.55,-216.81 913.72,-208.17"/>
<polygon fill="midnightblue" stroke="midnightblue" points="913.74,-204.66 903.58,-207.67 913.39,-211.66 913.74,-204.66"/>
</g>
<!-- Node13 -->
<g id="node13" class="node">
<title>Node13</title>
<g id="a_node13"><a xlink:title=" ">
<polygon fill="none" stroke="#bfbfbf" points="1769.47,-190.5 1769.47,-220.5 1910.47,-220.5 1910.47,-190.5 1769.47,-190.5"/>
<text text-anchor="start" x="1777.47" y="-208.5" font-family="Helvetica,sans-Serif" font-size="10.00">casacore/images/Regions</text>
<text text-anchor="middle" x="1839.97" y="-197.5" font-family="Helvetica,sans-Serif" font-size="10.00">/WCRegion.h</text>
</a>
</g>
</g>
<!-- Node8&#45;&gt;Node13 -->
<g id="edge13" class="edge">
<title>Node8&#45;&gt;Node13</title>
<path fill="none" stroke="midnightblue" d="M2054.05,-258.7C2017.73,-249.85 1955.4,-234.65 1907.33,-222.93"/>
<polygon fill="midnightblue" stroke="midnightblue" points="1908.16,-219.53 1897.62,-220.56 1906.5,-226.33 1908.16,-219.53"/>
</g>
<!-- Node14 -->
<g id="node14" class="node">
<title>Node14</title>
<g id="a_node14"><a xlink:title=" ">
<polygon fill="none" stroke="#bfbfbf" points="1928.97,-190.5 1928.97,-220.5 2074.97,-220.5 2074.97,-190.5 1928.97,-190.5"/>
<text text-anchor="start" x="1936.97" y="-208.5" font-family="Helvetica,sans-Serif" font-size="10.00">casacore/lattices/LRegions</text>
<text text-anchor="middle" x="2001.97" y="-197.5" font-family="Helvetica,sans-Serif" font-size="10.00">/LCPolygon.h</text>
</a>
</g>
</g>
<!-- Node8&#45;&gt;Node14 -->
<g id="edge14" class="edge">
<title>Node8&#45;&gt;Node14</title>
<path fill="none" stroke="midnightblue" d="M2072.22,-257.48C2061.11,-249.42 2044.03,-237.02 2029.49,-226.47"/>
<polygon fill="midnightblue" stroke="midnightblue" points="2031.44,-223.56 2021.29,-220.52 2027.33,-229.23 2031.44,-223.56"/>
</g>
<!-- Node15 -->
<g id="node15" class="node">
<title>Node15</title>
<g id="a_node15"><a xlink:title=" ">
<polygon fill="none" stroke="#bfbfbf" points="2092.97,-190.5 2092.97,-220.5 2238.97,-220.5 2238.97,-190.5 2092.97,-190.5"/>
<text text-anchor="start" x="2100.97" y="-208.5" font-family="Helvetica,sans-Serif" font-size="10.00">casacore/lattices/LRegions</text>
<text text-anchor="middle" x="2165.97" y="-197.5" font-family="Helvetica,sans-Serif" font-size="10.00">/LCRegion.h</text>
</a>
</g>
</g>
<!-- Node8&#45;&gt;Node15 -->
<g id="edge15" class="edge">
<title>Node8&#45;&gt;Node15</title>
<path fill="none" stroke="midnightblue" d="M2095.71,-257.48C2106.82,-249.42 2123.9,-237.02 2138.44,-226.47"/>
<polygon fill="midnightblue" stroke="midnightblue" points="2140.6,-229.23 2146.64,-220.52 2136.49,-223.56 2140.6,-229.23"/>
</g>
<!-- Node16 -->
<g id="node16" class="node">
<title>Node16</title>
<g id="a_node16"><a xlink:title=" ">
<polygon fill="none" stroke="#bfbfbf" points="2256.97,-190.5 2256.97,-220.5 2396.97,-220.5 2396.97,-190.5 2256.97,-190.5"/>
<text text-anchor="start" x="2264.97" y="-208.5" font-family="Helvetica,sans-Serif" font-size="10.00">casacore/lattices/Lattices</text>
<text text-anchor="middle" x="2326.97" y="-197.5" font-family="Helvetica,sans-Serif" font-size="10.00">/ArrayLattice.h</text>
</a>
</g>
</g>
<!-- Node8&#45;&gt;Node16 -->
<g id="edge16" class="edge">
<title>Node8&#45;&gt;Node16</title>
<path fill="none" stroke="midnightblue" d="M2113.76,-258.7C2149.85,-249.87 2211.74,-234.71 2259.57,-223"/>
<polygon fill="midnightblue" stroke="midnightblue" points="2260.67,-226.34 2269.55,-220.56 2259.01,-219.54 2260.67,-226.34"/>
</g>
<!-- Node17 -->
<g id="node17" class="node">
<title>Node17</title>
<g id="a_node17"><a xlink:title=" ">
<polygon fill="none" stroke="#bfbfbf" points="2415.47,-190.5 2415.47,-220.5 2542.47,-220.5 2542.47,-190.5 2415.47,-190.5"/>
<text text-anchor="start" x="2423.47" y="-208.5" font-family="Helvetica,sans-Serif" font-size="10.00">casacore/tables/Tables</text>
<text text-anchor="middle" x="2478.97" y="-197.5" font-family="Helvetica,sans-Serif" font-size="10.00">/TableRecord.h</text>
</a>
</g>
</g>
<!-- Node8&#45;&gt;Node17 -->
<g id="edge17" class="edge">
<title>Node8&#45;&gt;Node17</title>
<path fill="none" stroke="midnightblue" d="M2113.8,-262.41C2169.13,-255.63 2291.63,-240.03 2405.38,-221.04"/>
<polygon fill="midnightblue" stroke="midnightblue" points="2406.02,-224.48 2415.3,-219.37 2404.86,-217.58 2406.02,-224.48"/>
</g>
<!-- Node18 -->
<g id="node18" class="node">
<title>Node18</title>
<g id="a_node18"><a xlink:href="Image_8h.html" target="_top" xlink:title=" ">
<polygon fill="none" stroke="black" points="3404.47,-129 3404.47,-148 3481.47,-148 3481.47,-129 3404.47,-129"/>
<text text-anchor="middle" x="3442.97" y="-136" font-family="Helvetica,sans-Serif" font-size="10.00">Util/Image.h</text>
</a>
</g>
</g>
<!-- Node8&#45;&gt;Node18 -->
<g id="edge18" class="edge">
<title>Node8&#45;&gt;Node18</title>
<path fill="none" stroke="midnightblue" d="M2113.88,-265.96C2257.56,-265.22 2890.66,-256.07 3395.97,-154 3400.11,-153.16 3404.41,-152.11 3408.64,-150.95"/>
<polygon fill="midnightblue" stroke="midnightblue" points="3409.71,-154.28 3418.32,-148.12 3407.74,-147.57 3409.71,-154.28"/>
</g>
<!-- Node27 -->
<g id="node25" class="node">
<title>Node27</title>
<g id="a_node25"><a xlink:href="Message_8h.html" target="_top" xlink:title=" ">
<polygon fill="none" stroke="red" points="1662.47,-196 1662.47,-215 1751.47,-215 1751.47,-196 1662.47,-196"/>
<text text-anchor="middle" x="1706.97" y="-203" font-family="Helvetica,sans-Serif" font-size="10.00">Util/Message.h</text>
</a>
</g>
</g>
<!-- Node8&#45;&gt;Node27 -->
<g id="edge27" class="edge">
<title>Node8&#45;&gt;Node27</title>
<path fill="none" stroke="midnightblue" d="M2054.36,-263.12C1997.26,-257.28 1868.05,-242.75 1760.97,-221 1756.16,-220.02 1751.16,-218.87 1746.21,-217.65"/>
<polygon fill="midnightblue" stroke="midnightblue" points="1746.79,-214.18 1736.24,-215.07 1745.04,-220.96 1746.79,-214.18"/>
</g>
<!-- Node18&#45;&gt;Node11 -->
<g id="edge21" class="edge">
<title>Node18&#45;&gt;Node11</title>
<path fill="none" stroke="midnightblue" d="M3481.68,-130.79C3526.92,-122.49 3603.75,-106.99 3667.97,-87 3670.24,-86.29 3672.58,-85.5 3674.92,-84.66"/>
<polygon fill="midnightblue" stroke="midnightblue" points="3676.27,-87.89 3684.37,-81.06 3673.78,-81.35 3676.27,-87.89"/>
</g>
<!-- Node19 -->
<g id="node19" class="node">
<title>Node19</title>
<g id="a_node19"><a xlink:title=" ">
<polygon fill="none" stroke="#bfbfbf" points="3466.47,-0.5 3466.47,-19.5 3513.47,-19.5 3513.47,-0.5 3466.47,-0.5"/>
<text text-anchor="middle" x="3489.97" y="-7.5" font-family="Helvetica,sans-Serif" font-size="10.00">cmath</text>
</a>
</g>
</g>
<!-- Node18&#45;&gt;Node19 -->
<g id="edge19" class="edge">
<title>Node18&#45;&gt;Node19</title>
<path fill="none" stroke="midnightblue" d="M3481.64,-132.88C3532.16,-125.97 3616.39,-111.09 3634.97,-87 3667.27,-45.09 3575.9,-23.95 3523.65,-15.53"/>
<polygon fill="midnightblue" stroke="midnightblue" points="3523.88,-12.02 3513.47,-13.96 3522.82,-18.94 3523.88,-12.02"/>
</g>
<!-- Node20 -->
<g id="node20" class="node">
<title>Node20</title>
<g id="a_node20"><a xlink:title=" ">
<polygon fill="none" stroke="#bfbfbf" points="3396.47,-62 3396.47,-81 3461.47,-81 3461.47,-62 3396.47,-62"/>
<text text-anchor="middle" x="3428.97" y="-69" font-family="Helvetica,sans-Serif" font-size="10.00">functional</text>
</a>
</g>
</g>
<!-- Node18&#45;&gt;Node20 -->
<g id="edge20" class="edge">
<title>Node18&#45;&gt;Node20</title>
<path fill="none" stroke="midnightblue" d="M3441.08,-128.73C3439,-119.09 3435.6,-103.3 3432.93,-90.91"/>
<polygon fill="midnightblue" stroke="midnightblue" points="3436.35,-90.17 3430.82,-81.13 3429.51,-91.64 3436.35,-90.17"/>
</g>
<!-- Node21 -->
<g id="node21" class="node">
<title>Node21</title>
<g id="a_node21"><a xlink:title=" ">
<polygon fill="none" stroke="#bfbfbf" points="2982.97,-62 2982.97,-81 3116.97,-81 3116.97,-62 2982.97,-62"/>
<text text-anchor="middle" x="3049.97" y="-69" font-family="Helvetica,sans-Serif" font-size="10.00">carta&#45;protobuf/defs.pb.h</text>
</a>
</g>
</g>
<!-- Node18&#45;&gt;Node21 -->
<g id="edge22" class="edge">
<title>Node18&#45;&gt;Node21</title>
<path fill="none" stroke="midnightblue" d="M3417.8,-128.89C3410.8,-126.73 3403.14,-124.57 3395.97,-123 3277.71,-97.07 3245.47,-106.35 3125.97,-87 3118.32,-85.76 3110.26,-84.35 3102.37,-82.9"/>
<polygon fill="midnightblue" stroke="midnightblue" points="3102.97,-79.45 3092.5,-81.05 3101.68,-86.33 3102.97,-79.45"/>
</g>
<!-- Node22 -->
<g id="node22" class="node">
<title>Node22</title>
<g id="a_node22"><a xlink:title=" ">
<polygon fill="none" stroke="#bfbfbf" points="3479.97,-62 3479.97,-81 3625.97,-81 3625.97,-62 3479.97,-62"/>
<text text-anchor="middle" x="3552.97" y="-69" font-family="Helvetica,sans-Serif" font-size="10.00">carta&#45;protobuf/enums.pb.h</text>
</a>
</g>
</g>
<!-- Node18&#45;&gt;Node22 -->
<g id="edge23" class="edge">
<title>Node18&#45;&gt;Node22</title>
<path fill="none" stroke="midnightblue" d="M3457.8,-128.73C3476.27,-117.82 3508.04,-99.05 3529.75,-86.22"/>
<polygon fill="midnightblue" stroke="midnightblue" points="3531.54,-89.23 3538.37,-81.13 3527.98,-83.2 3531.54,-89.23"/>
</g>
<!-- Node23 -->
<g id="node23" class="node">
<title>Node23</title>
<g id="a_node23"><a xlink:title=" ">
<polygon fill="none" stroke="#bfbfbf" points="3134.97,-56.5 3134.97,-86.5 3254.97,-86.5 3254.97,-56.5 3134.97,-56.5"/>
<text text-anchor="start" x="3142.97" y="-74.5" font-family="Helvetica,sans-Serif" font-size="10.00">carta&#45;protobuf/vector</text>
<text text-anchor="middle" x="3194.97" y="-63.5" font-family="Helvetica,sans-Serif" font-size="10.00">_overlay_tile.pb.h</text>
</a>
</g>
</g>
<!-- Node18&#45;&gt;Node23 -->
<g id="edge24" class="edge">
<title>Node18&#45;&gt;Node23</title>
<path fill="none" stroke="midnightblue" d="M3416.19,-128.97C3409.6,-126.95 3402.54,-124.84 3395.97,-123 3352.55,-110.86 3303.48,-98.5 3264.69,-89.05"/>
<polygon fill="midnightblue" stroke="midnightblue" points="3265.09,-85.55 3254.55,-86.59 3263.44,-92.35 3265.09,-85.55"/>
</g>
<!-- Node24 -->
<g id="node24" class="node">
<title>Node24</title>
<g id="a_node24"><a xlink:href="Tile_8h.html" target="_top" xlink:title=" ">
<polygon fill="none" stroke="red" points="3273.47,-62 3273.47,-81 3378.47,-81 3378.47,-62 3273.47,-62"/>
<text text-anchor="middle" x="3325.97" y="-69" font-family="Helvetica,sans-Serif" font-size="10.00">DataStream/Tile.h</text>
</a>
</g>
</g>
<!-- Node18&#45;&gt;Node24 -->
<g id="edge25" class="edge">
<title>Node18&#45;&gt;Node24</title>
<path fill="none" stroke="midnightblue" d="M3427.19,-128.73C3407.45,-117.77 3373.45,-98.88 3350.35,-86.05"/>
<polygon fill="midnightblue" stroke="midnightblue" points="3351.94,-82.92 3341.49,-81.13 3348.54,-89.04 3351.94,-82.92"/>
</g>
<!-- Node24&#45;&gt;Node19 -->
<g id="edge26" class="edge">
<title>Node24&#45;&gt;Node19</title>
<path fill="none" stroke="midnightblue" d="M3349.46,-61.98C3377.59,-51.77 3424.89,-34.61 3456.75,-23.05"/>
<polygon fill="midnightblue" stroke="midnightblue" points="3458.3,-26.21 3466.51,-19.51 3455.92,-19.63 3458.3,-26.21"/>
</g>
<!-- Node27&#45;&gt;Node18 -->
<g id="edge53" class="edge">
<title>Node27&#45;&gt;Node18</title>
<path fill="none" stroke="midnightblue" d="M1733.62,-195.98C1742.25,-193.59 1751.93,-191.29 1760.97,-190 2120.72,-138.51 3037.22,-212.13 3395.97,-154 3400.55,-153.26 3405.3,-152.18 3409.95,-150.94"/>
<polygon fill="midnightblue" stroke="midnightblue" points="3411.23,-154.21 3419.84,-148.03 3409.26,-147.49 3411.23,-154.21"/>
</g>
<!-- Node27&#45;&gt;Node21 -->
<g id="edge31" class="edge">
<title>Node27&#45;&gt;Node21</title>
<path fill="none" stroke="midnightblue" d="M1733.9,-195.93C1742.46,-193.57 1752.03,-191.3 1760.97,-190 1836.7,-179 3084.56,-208.81 3137.97,-154 3162.74,-128.57 3115.49,-100.87 3081.16,-85.2"/>
<polygon fill="midnightblue" stroke="midnightblue" points="3082.46,-81.94 3071.89,-81.11 3079.63,-88.35 3082.46,-81.94"/>
</g>
<!-- Node27&#45;&gt;Node23 -->
<g id="edge52" class="edge">
<title>Node27&#45;&gt;Node23</title>
<path fill="none" stroke="midnightblue" d="M1733.9,-195.93C1742.46,-193.56 1752.03,-191.3 1760.97,-190 1837.63,-178.88 3089.75,-195.82 3154.97,-154 3174.78,-141.29 3185.09,-115.68 3190.24,-96.54"/>
<polygon fill="midnightblue" stroke="midnightblue" points="3193.67,-97.23 3192.6,-86.69 3186.86,-95.6 3193.67,-97.23"/>
</g>
<!-- Node28 -->
<g id="node26" class="node">
<title>Node28</title>
<g id="a_node26"><a xlink:title=" ">
<polygon fill="none" stroke="#bfbfbf" points="3223.47,-129 3223.47,-148 3386.47,-148 3386.47,-129 3223.47,-129"/>
<text text-anchor="middle" x="3304.97" y="-136" font-family="Helvetica,sans-Serif" font-size="10.00">carta&#45;protobuf/animation.pb.h</text>
</a>
</g>
</g>
<!-- Node27&#45;&gt;Node28 -->
<g id="edge28" class="edge">
<title>Node27&#45;&gt;Node28</title>
<path fill="none" stroke="midnightblue" d="M1733.62,-196C1742.25,-193.61 1751.93,-191.31 1760.97,-190 2079.53,-143.94 2888.32,-182.09 3208.97,-154 3221.03,-152.94 3233.89,-151.34 3246.15,-149.57"/>
<polygon fill="midnightblue" stroke="midnightblue" points="3246.89,-153 3256.27,-148.06 3245.86,-146.08 3246.89,-153"/>
</g>
<!-- Node29 -->
<g id="node27" class="node">
<title>Node29</title>
<g id="a_node27"><a xlink:title=" ">
<polygon fill="none" stroke="#bfbfbf" points="16.47,-123.5 16.47,-153.5 131.47,-153.5 131.47,-123.5 16.47,-123.5"/>
<text text-anchor="start" x="24.47" y="-141.5" font-family="Helvetica,sans-Serif" font-size="10.00">carta&#45;protobuf/close</text>
<text text-anchor="middle" x="73.97" y="-130.5" font-family="Helvetica,sans-Serif" font-size="10.00">_file.pb.h</text>
</a>
</g>
</g>
<!-- Node27&#45;&gt;Node29 -->
<g id="edge29" class="edge">
<title>Node27&#45;&gt;Node29</title>
<path fill="none" stroke="midnightblue" d="M1662.37,-203.54C1427.4,-198.44 336.81,-173.96 141.69,-153.8"/>
<polygon fill="midnightblue" stroke="midnightblue" points="141.92,-150.31 131.6,-152.66 141.14,-157.26 141.92,-150.31"/>
</g>
<!-- Node30 -->
<g id="node28" class="node">
<title>Node30</title>
<g id="a_node28"><a xlink:title=" ">
<polygon fill="none" stroke="#bfbfbf" points="149.97,-123.5 149.97,-153.5 275.97,-153.5 275.97,-123.5 149.97,-123.5"/>
<text text-anchor="start" x="157.97" y="-141.5" font-family="Helvetica,sans-Serif" font-size="10.00">carta&#45;protobuf/contour</text>
<text text-anchor="middle" x="212.97" y="-130.5" font-family="Helvetica,sans-Serif" font-size="10.00">_image.pb.h</text>
</a>
</g>
</g>
<!-- Node27&#45;&gt;Node30 -->
<g id="edge30" class="edge">
<title>Node27&#45;&gt;Node30</title>
<path fill="none" stroke="midnightblue" d="M1662.3,-203.9C1454.71,-200.94 582.07,-186.84 286.36,-153.99"/>
<polygon fill="midnightblue" stroke="midnightblue" points="286.42,-150.48 276.09,-152.82 285.62,-157.43 286.42,-150.48"/>
</g>
<!-- Node31 -->
<g id="node29" class="node">
<title>Node31</title>
<g id="a_node29"><a xlink:title=" ">
<polygon fill="none" stroke="#bfbfbf" points="293.97,-129 293.97,-148 429.97,-148 429.97,-129 293.97,-129"/>
<text text-anchor="middle" x="361.97" y="-136" font-family="Helvetica,sans-Serif" font-size="10.00">carta&#45;protobuf/error.pb.h</text>
</a>
</g>
</g>
<!-- Node27&#45;&gt;Node31 -->
<g id="edge32" class="edge">
<title>Node27&#45;&gt;Node31</title>
<path fill="none" stroke="midnightblue" d="M1662.38,-203.59C1466.88,-199.44 684.3,-181.44 439.97,-154 430.82,-152.97 421.13,-151.49 411.81,-149.87"/>
<polygon fill="midnightblue" stroke="midnightblue" points="412.35,-146.41 401.88,-148.06 411.09,-153.3 412.35,-146.41"/>
</g>
<!-- Node32 -->
<g id="node30" class="node">
<title>Node32</title>
<g id="a_node30"><a xlink:title=" ">
<polygon fill="none" stroke="#bfbfbf" points="448.47,-123.5 448.47,-153.5 569.47,-153.5 569.47,-123.5 448.47,-123.5"/>
<text text-anchor="start" x="456.47" y="-141.5" font-family="Helvetica,sans-Serif" font-size="10.00">carta&#45;protobuf/export</text>
<text text-anchor="middle" x="508.97" y="-130.5" font-family="Helvetica,sans-Serif" font-size="10.00">_region.pb.h</text>
</a>
</g>
</g>
<!-- Node27&#45;&gt;Node32 -->
<g id="edge33" class="edge">
<title>Node27&#45;&gt;Node32</title>
<path fill="none" stroke="midnightblue" d="M1662.41,-205.05C1511.51,-206.37 1005.88,-206.43 579.63,-153.92"/>
<polygon fill="midnightblue" stroke="midnightblue" points="579.93,-150.43 569.57,-152.67 579.06,-157.38 579.93,-150.43"/>
</g>
<!-- Node33 -->
<g id="node31" class="node">
<title>Node33</title>
<g id="a_node31"><a xlink:title=" ">
<polygon fill="none" stroke="#bfbfbf" points="587.97,-123.5 587.97,-153.5 691.97,-153.5 691.97,-123.5 587.97,-123.5"/>
<text text-anchor="start" x="595.97" y="-141.5" font-family="Helvetica,sans-Serif" font-size="10.00">carta&#45;protobuf/file</text>
<text text-anchor="middle" x="639.97" y="-130.5" font-family="Helvetica,sans-Serif" font-size="10.00">_info.pb.h</text>
</a>
</g>
</g>
<!-- Node27&#45;&gt;Node33 -->
<g id="edge34" class="edge">
<title>Node27&#45;&gt;Node33</title>
<path fill="none" stroke="midnightblue" d="M1662.46,-203.35C1496.08,-198.89 910.05,-181.65 702,-153.92"/>
<polygon fill="midnightblue" stroke="midnightblue" points="702.47,-150.46 692.09,-152.55 701.51,-157.39 702.47,-150.46"/>
</g>
<!-- Node34 -->
<g id="node32" class="node">
<title>Node34</title>
<g id="a_node32"><a xlink:title=" ">
<polygon fill="none" stroke="#bfbfbf" points="709.97,-123.5 709.97,-153.5 813.97,-153.5 813.97,-123.5 709.97,-123.5"/>
<text text-anchor="start" x="717.97" y="-141.5" font-family="Helvetica,sans-Serif" font-size="10.00">carta&#45;protobuf/file</text>
<text text-anchor="middle" x="761.97" y="-130.5" font-family="Helvetica,sans-Serif" font-size="10.00">_list.pb.h</text>
</a>
</g>
</g>
<!-- Node27&#45;&gt;Node34 -->
<g id="edge35" class="edge">
<title>Node27&#45;&gt;Node34</title>
<path fill="none" stroke="midnightblue" d="M1662.07,-204.72C1533.02,-204.76 1149.97,-200.74 824.2,-154"/>
<polygon fill="midnightblue" stroke="midnightblue" points="824.49,-150.5 814.09,-152.53 823.49,-157.43 824.49,-150.5"/>
</g>
<!-- Node35 -->
<g id="node33" class="node">
<title>Node35</title>
<g id="a_node33"><a xlink:title=" ">
<polygon fill="none" stroke="#bfbfbf" points="831.97,-123.5 831.97,-153.5 949.97,-153.5 949.97,-123.5 831.97,-123.5"/>
<text text-anchor="start" x="839.97" y="-141.5" font-family="Helvetica,sans-Serif" font-size="10.00">carta&#45;protobuf/fitting</text>
<text text-anchor="middle" x="890.97" y="-130.5" font-family="Helvetica,sans-Serif" font-size="10.00">_request.pb.h</text>
</a>
</g>
</g>
<!-- Node27&#45;&gt;Node35 -->
<g id="edge36" class="edge">
<title>Node27&#45;&gt;Node35</title>
<path fill="none" stroke="midnightblue" d="M1662.05,-203.7C1546.9,-201.17 1231.69,-191.24 960.26,-154.05"/>
<polygon fill="midnightblue" stroke="midnightblue" points="960.6,-150.56 950.21,-152.65 959.64,-157.49 960.6,-150.56"/>
</g>
<!-- Node36 -->
<g id="node34" class="node">
<title>Node36</title>
<g id="a_node34"><a xlink:title=" ">
<polygon fill="none" stroke="#bfbfbf" points="967.97,-123.5 967.97,-153.5 1089.97,-153.5 1089.97,-123.5 967.97,-123.5"/>
<text text-anchor="start" x="975.97" y="-141.5" font-family="Helvetica,sans-Serif" font-size="10.00">carta&#45;protobuf/import</text>
<text text-anchor="middle" x="1028.97" y="-130.5" font-family="Helvetica,sans-Serif" font-size="10.00">_region.pb.h</text>
</a>
</g>
</g>
<!-- Node27&#45;&gt;Node36 -->
<g id="edge37" class="edge">
<title>Node27&#45;&gt;Node36</title>
<path fill="none" stroke="midnightblue" d="M1662.21,-202.59C1561.41,-197.9 1309.06,-183.94 1099.97,-154 1099.86,-153.99 1099.76,-153.97 1099.66,-153.96"/>
<polygon fill="midnightblue" stroke="midnightblue" points="1100.5,-150.54 1090.08,-152.46 1099.42,-157.46 1100.5,-150.54"/>
</g>
<!-- Node37 -->
<g id="node35" class="node">
<title>Node37</title>
<g id="a_node35"><a xlink:title=" ">
<polygon fill="none" stroke="#bfbfbf" points="1108.47,-123.5 1108.47,-153.5 1239.47,-153.5 1239.47,-123.5 1108.47,-123.5"/>
<text text-anchor="start" x="1116.47" y="-141.5" font-family="Helvetica,sans-Serif" font-size="10.00">carta&#45;protobuf/moment</text>
<text text-anchor="middle" x="1173.97" y="-130.5" font-family="Helvetica,sans-Serif" font-size="10.00">_request.pb.h</text>
</a>
</g>
</g>
<!-- Node27&#45;&gt;Node37 -->
<g id="edge38" class="edge">
<title>Node27&#45;&gt;Node37</title>
<path fill="none" stroke="midnightblue" d="M1662.27,-200.79C1581.92,-193.84 1407.54,-177.58 1250.11,-154.09"/>
<polygon fill="midnightblue" stroke="midnightblue" points="1250.17,-150.56 1239.76,-152.53 1249.13,-157.48 1250.17,-150.56"/>
</g>
<!-- Node38 -->
<g id="node36" class="node">
<title>Node38</title>
<g id="a_node36"><a xlink:title=" ">
<polygon fill="none" stroke="#bfbfbf" points="1257.47,-123.5 1257.47,-153.5 1370.47,-153.5 1370.47,-123.5 1257.47,-123.5"/>
<text text-anchor="start" x="1265.47" y="-141.5" font-family="Helvetica,sans-Serif" font-size="10.00">carta&#45;protobuf/open</text>
<text text-anchor="middle" x="1313.97" y="-130.5" font-family="Helvetica,sans-Serif" font-size="10.00">_file.pb.h</text>
</a>
</g>
</g>
<!-- Node27&#45;&gt;Node38 -->
<g id="edge39" class="edge">
<title>Node27&#45;&gt;Node38</title>
<path fill="none" stroke="midnightblue" d="M1662.39,-198.52C1601.21,-190.12 1487.62,-173.81 1380.78,-154.08"/>
<polygon fill="midnightblue" stroke="midnightblue" points="1381.27,-150.61 1370.8,-152.22 1379.99,-157.49 1381.27,-150.61"/>
</g>
<!-- Node39 -->
<g id="node37" class="node">
<title>Node39</title>
<g id="a_node37"><a xlink:title=" ">
<polygon fill="none" stroke="#bfbfbf" points="1388.47,-129 1388.47,-148 1555.47,-148 1555.47,-129 1388.47,-129"/>
<text text-anchor="middle" x="1471.97" y="-136" font-family="Helvetica,sans-Serif" font-size="10.00">carta&#45;protobuf/pv_request.pb.h</text>
</a>
</g>
</g>
<!-- Node27&#45;&gt;Node39 -->
<g id="edge40" class="edge">
<title>Node27&#45;&gt;Node39</title>
<path fill="none" stroke="midnightblue" d="M1675.76,-195.87C1633.77,-184.25 1559.01,-163.58 1512.65,-150.75"/>
<polygon fill="midnightblue" stroke="midnightblue" points="1513.5,-147.36 1502.93,-148.06 1511.63,-154.1 1513.5,-147.36"/>
</g>
<!-- Node40 -->
<g id="node38" class="node">
<title>Node40</title>
<g id="a_node38"><a xlink:title=" ">
<polygon fill="none" stroke="#bfbfbf" points="1573.97,-123.5 1573.97,-153.5 1691.97,-153.5 1691.97,-123.5 1573.97,-123.5"/>
<text text-anchor="start" x="1581.97" y="-141.5" font-family="Helvetica,sans-Serif" font-size="10.00">carta&#45;protobuf/raster</text>
<text text-anchor="middle" x="1632.97" y="-130.5" font-family="Helvetica,sans-Serif" font-size="10.00">_tile.pb.h</text>
</a>
</g>
</g>
<!-- Node27&#45;&gt;Node40 -->
<g id="edge41" class="edge">
<title>Node27&#45;&gt;Node40</title>
<path fill="none" stroke="midnightblue" d="M1696.99,-195.73C1686.7,-186.7 1670.28,-172.27 1656.64,-160.3"/>
<polygon fill="midnightblue" stroke="midnightblue" points="1658.83,-157.56 1649,-153.59 1654.21,-162.82 1658.83,-157.56"/>
</g>
<!-- Node41 -->
<g id="node39" class="node">
<title>Node41</title>
<g id="a_node39"><a xlink:title=" ">
<polygon fill="none" stroke="#bfbfbf" points="1709.97,-129 1709.97,-148 1853.97,-148 1853.97,-129 1709.97,-129"/>
<text text-anchor="middle" x="1781.97" y="-136" font-family="Helvetica,sans-Serif" font-size="10.00">carta&#45;protobuf/region.pb.h</text>
</a>
</g>
</g>
<!-- Node27&#45;&gt;Node41 -->
<g id="edge42" class="edge">
<title>Node27&#45;&gt;Node41</title>
<path fill="none" stroke="midnightblue" d="M1717.08,-195.73C1729.11,-185.31 1749.42,-167.71 1764.11,-154.97"/>
<polygon fill="midnightblue" stroke="midnightblue" points="1766.75,-157.32 1772.01,-148.13 1762.16,-152.03 1766.75,-157.32"/>
</g>
<!-- Node42 -->
<g id="node40" class="node">
<title>Node42</title>
<g id="a_node40"><a xlink:title=" ">
<polygon fill="none" stroke="#bfbfbf" points="1871.97,-123.5 1871.97,-153.5 1991.97,-153.5 1991.97,-123.5 1871.97,-123.5"/>
<text text-anchor="start" x="1879.97" y="-141.5" font-family="Helvetica,sans-Serif" font-size="10.00">carta&#45;protobuf/region</text>
<text text-anchor="middle" x="1931.97" y="-130.5" font-family="Helvetica,sans-Serif" font-size="10.00">_histogram.pb.h</text>
</a>
</g>
</g>
<!-- Node27&#45;&gt;Node42 -->
<g id="edge43" class="edge">
<title>Node27&#45;&gt;Node42</title>
<path fill="none" stroke="midnightblue" d="M1736.84,-195.87C1771.63,-185.82 1829.9,-168.99 1873.73,-156.32"/>
<polygon fill="midnightblue" stroke="midnightblue" points="1874.77,-159.67 1883.41,-153.53 1872.83,-152.94 1874.77,-159.67"/>
</g>
<!-- Node43 -->
<g id="node41" class="node">
<title>Node43</title>
<g id="a_node41"><a xlink:title=" ">
<polygon fill="none" stroke="#bfbfbf" points="2009.97,-123.5 2009.97,-153.5 2129.97,-153.5 2129.97,-123.5 2009.97,-123.5"/>
<text text-anchor="start" x="2017.97" y="-141.5" font-family="Helvetica,sans-Serif" font-size="10.00">carta&#45;protobuf/region</text>
<text text-anchor="middle" x="2069.97" y="-130.5" font-family="Helvetica,sans-Serif" font-size="10.00">_requirements.pb.h</text>
</a>
</g>
</g>
<!-- Node27&#45;&gt;Node43 -->
<g id="edge44" class="edge">
<title>Node27&#45;&gt;Node43</title>
<path fill="none" stroke="midnightblue" d="M1736.25,-195.99C1744.22,-193.85 1752.89,-191.68 1760.97,-190 1863.46,-168.62 1893.09,-172.82 1999.91,-154.12"/>
<polygon fill="midnightblue" stroke="midnightblue" points="2000.56,-157.56 2009.79,-152.36 1999.34,-150.66 2000.56,-157.56"/>
</g>
<!-- Node44 -->
<g id="node42" class="node">
<title>Node44</title>
<g id="a_node42"><a xlink:title=" ">
<polygon fill="none" stroke="#bfbfbf" points="2147.97,-123.5 2147.97,-153.5 2267.97,-153.5 2267.97,-123.5 2147.97,-123.5"/>
<text text-anchor="start" x="2155.97" y="-141.5" font-family="Helvetica,sans-Serif" font-size="10.00">carta&#45;protobuf/region</text>
<text text-anchor="middle" x="2207.97" y="-130.5" font-family="Helvetica,sans-Serif" font-size="10.00">_stats.pb.h</text>
</a>
</g>
</g>
<!-- Node27&#45;&gt;Node44 -->
<g id="edge45" class="edge">
<title>Node27&#45;&gt;Node44</title>
<path fill="none" stroke="midnightblue" d="M1735.07,-196C1743.35,-193.76 1752.46,-191.54 1760.97,-190 1923.88,-160.58 1970.37,-178.67 2137.93,-154.04"/>
<polygon fill="midnightblue" stroke="midnightblue" points="2138.46,-157.5 2147.83,-152.55 2137.42,-150.57 2138.46,-157.5"/>
</g>
<!-- Node45 -->
<g id="node43" class="node">
<title>Node45</title>
<g id="a_node43"><a xlink:title=" ">
<polygon fill="none" stroke="#bfbfbf" points="2286.47,-123.5 2286.47,-153.5 2413.47,-153.5 2413.47,-123.5 2286.47,-123.5"/>
<text text-anchor="start" x="2294.47" y="-141.5" font-family="Helvetica,sans-Serif" font-size="10.00">carta&#45;protobuf/register</text>
<text text-anchor="middle" x="2349.97" y="-130.5" font-family="Helvetica,sans-Serif" font-size="10.00">_viewer.pb.h</text>
</a>
</g>
</g>
<!-- Node27&#45;&gt;Node45 -->
<g id="edge46" class="edge">
<title>Node27&#45;&gt;Node45</title>
<path fill="none" stroke="midnightblue" d="M1734.77,-195.94C1743.12,-193.66 1752.35,-191.44 1760.97,-190 1984.49,-152.55 2047.33,-183.55 2276.37,-153.94"/>
<polygon fill="midnightblue" stroke="midnightblue" points="2276.89,-157.41 2286.34,-152.63 2275.97,-150.47 2276.89,-157.41"/>
</g>
<!-- Node46 -->
<g id="node44" class="node">
<title>Node46</title>
<g id="a_node44"><a xlink:title=" ">
<polygon fill="none" stroke="#bfbfbf" points="2431.97,-123.5 2431.97,-153.5 2557.97,-153.5 2557.97,-123.5 2431.97,-123.5"/>
<text text-anchor="start" x="2439.97" y="-141.5" font-family="Helvetica,sans-Serif" font-size="10.00">carta&#45;protobuf/resume</text>
<text text-anchor="middle" x="2494.97" y="-130.5" font-family="Helvetica,sans-Serif" font-size="10.00">_session.pb.h</text>
</a>
</g>
</g>
<!-- Node27&#45;&gt;Node46 -->
<g id="edge47" class="edge">
<title>Node27&#45;&gt;Node46</title>
<path fill="none" stroke="midnightblue" d="M1734.47,-195.93C1742.9,-193.63 1752.24,-191.39 1760.97,-190 2048.67,-144.06 2128.87,-190.13 2421.77,-154.01"/>
<polygon fill="midnightblue" stroke="midnightblue" points="2422.35,-157.47 2431.83,-152.75 2421.48,-150.52 2422.35,-157.47"/>
</g>
<!-- Node47 -->
<g id="node45" class="node">
<title>Node47</title>
<g id="a_node45"><a xlink:title=" ">
<polygon fill="none" stroke="#bfbfbf" points="2576.47,-123.5 2576.47,-153.5 2689.47,-153.5 2689.47,-123.5 2576.47,-123.5"/>
<text text-anchor="start" x="2584.47" y="-141.5" font-family="Helvetica,sans-Serif" font-size="10.00">carta&#45;protobuf/save</text>
<text text-anchor="middle" x="2632.97" y="-130.5" font-family="Helvetica,sans-Serif" font-size="10.00">_file.pb.h</text>
</a>
</g>
</g>
<!-- Node27&#45;&gt;Node47 -->
<g id="edge48" class="edge">
<title>Node27&#45;&gt;Node47</title>
<path fill="none" stroke="midnightblue" d="M1734.19,-195.95C1742.68,-193.62 1752.14,-191.37 1760.97,-190 2112.04,-135.69 2209.63,-199.44 2566.11,-153.93"/>
<polygon fill="midnightblue" stroke="midnightblue" points="2566.73,-157.38 2576.19,-152.62 2565.83,-150.44 2566.73,-157.38"/>
</g>
<!-- Node48 -->
<g id="node46" class="node">
<title>Node48</title>
<g id="a_node46"><a xlink:title=" ">
<polygon fill="none" stroke="#bfbfbf" points="2707.47,-129 2707.47,-148 2862.47,-148 2862.47,-129 2707.47,-129"/>
<text text-anchor="middle" x="2784.97" y="-136" font-family="Helvetica,sans-Serif" font-size="10.00">carta&#45;protobuf/scripting.pb.h</text>
</a>
</g>
</g>
<!-- Node27&#45;&gt;Node48 -->
<g id="edge49" class="edge">
<title>Node27&#45;&gt;Node48</title>
<path fill="none" stroke="midnightblue" d="M1733.91,-196C1742.47,-193.64 1752.04,-191.35 1760.97,-190 2173.45,-127.51 2283.97,-196.77 2698.97,-154 2709.35,-152.93 2720.38,-151.38 2730.96,-149.7"/>
<polygon fill="midnightblue" stroke="midnightblue" points="2731.63,-153.13 2740.92,-148.05 2730.48,-146.23 2731.63,-153.13"/>
</g>
<!-- Node49 -->
<g id="node47" class="node">
<title>Node49</title>
<g id="a_node47"><a xlink:title=" ">
<polygon fill="none" stroke="#bfbfbf" points="2880.97,-123.5 2880.97,-153.5 2984.97,-153.5 2984.97,-123.5 2880.97,-123.5"/>
<text text-anchor="start" x="2888.97" y="-141.5" font-family="Helvetica,sans-Serif" font-size="10.00">carta&#45;protobuf/set</text>
<text text-anchor="middle" x="2932.97" y="-130.5" font-family="Helvetica,sans-Serif" font-size="10.00">_cursor.pb.h</text>
</a>
</g>
</g>
<!-- Node27&#45;&gt;Node49 -->
<g id="edge50" class="edge">
<title>Node27&#45;&gt;Node49</title>
<path fill="none" stroke="midnightblue" d="M1733.9,-195.96C1742.47,-193.6 1752.04,-191.33 1760.97,-190 2246.31,-117.96 2380.45,-218.07 2870.68,-153.96"/>
<polygon fill="midnightblue" stroke="midnightblue" points="2871.4,-157.4 2880.85,-152.62 2870.48,-150.46 2871.4,-157.4"/>
</g>
<!-- Node50 -->
<g id="node48" class="node">
<title>Node50</title>
<g id="a_node48"><a xlink:title=" ">
<polygon fill="none" stroke="#bfbfbf" points="3003.47,-123.5 3003.47,-153.5 3128.47,-153.5 3128.47,-123.5 3003.47,-123.5"/>
<text text-anchor="start" x="3011.47" y="-141.5" font-family="Helvetica,sans-Serif" font-size="10.00">carta&#45;protobuf/set</text>
<text text-anchor="middle" x="3065.97" y="-130.5" font-family="Helvetica,sans-Serif" font-size="10.00">_image_channels.pb.h</text>
</a>
</g>
</g>
<!-- Node27&#45;&gt;Node50 -->
<g id="edge51" class="edge">
<title>Node27&#45;&gt;Node50</title>
<path fill="none" stroke="midnightblue" d="M1733.9,-195.95C1742.46,-193.58 1752.03,-191.31 1760.97,-190 2300.07,-110.86 2447.49,-215.05 2993.14,-153.93"/>
<polygon fill="midnightblue" stroke="midnightblue" points="2993.69,-157.39 3003.24,-152.78 2992.91,-150.43 2993.69,-157.39"/>
</g>
<!-- Node64&#45;&gt;Node2 -->
<g id="edge56" class="edge">
<title>Node64&#45;&gt;Node2</title>
<path fill="none" stroke="midnightblue" d="M194.23,-385.87C175.79,-376.36 145.57,-360.77 121.58,-348.39"/>
<polygon fill="midnightblue" stroke="midnightblue" points="122.89,-345.13 112.4,-343.65 119.68,-351.35 122.89,-345.13"/>
</g>
<!-- Node64&#45;&gt;Node3 -->
<g id="edge57" class="edge">
<title>Node64&#45;&gt;Node3</title>
<path fill="none" stroke="midnightblue" d="M205.59,-385.93C188.28,-358.35 133.59,-271.23 107.32,-229.38"/>
<polygon fill="midnightblue" stroke="midnightblue" points="110.16,-227.31 101.88,-220.7 104.23,-231.03 110.16,-227.31"/>
</g>
<!-- Node64&#45;&gt;Node21 -->
<g id="edge55" class="edge">
<title>Node64&#45;&gt;Node21</title>
<path fill="none" stroke="midnightblue" d="M213.39,-385.7C221.44,-354.42 243.89,-247.37 191.97,-190 135.75,-127.9 60.24,-218.64 6.97,-154 -1.8,-143.37 -2.7,-132.82 6.97,-123 60.55,-68.52 2503.91,-71.27 2972.66,-72.3"/>
<polygon fill="midnightblue" stroke="midnightblue" points="2972.7,-75.8 2982.71,-72.32 2972.72,-68.8 2972.7,-75.8"/>
</g>
<!-- Node65 -->
<g id="node50" class="node">
<title>Node65</title>
<g id="a_node50"><a xlink:href="RegionHandler_8h.html" target="_top" xlink:title=" ">
<polygon fill="none" stroke="red" points="239.47,-319 239.47,-338 336.47,-338 336.47,-319 239.47,-319"/>
<text text-anchor="middle" x="287.97" y="-326" font-family="Helvetica,sans-Serif" font-size="10.00">RegionHandler.h</text>
</a>
</g>
</g>
<!-- Node64&#45;&gt;Node65 -->
<g id="edge58" class="edge">
<title>Node64&#45;&gt;Node65</title>
<path fill="none" stroke="midnightblue" d="M221.35,-385.73C233.82,-375.21 254.94,-357.38 270.06,-344.62"/>
<polygon fill="midnightblue" stroke="midnightblue" points="272.36,-347.25 277.75,-338.13 267.85,-341.9 272.36,-347.25"/>
</g>
<!-- Node65&#45;&gt;Node8 -->
<g id="edge60" class="edge">
<title>Node65&#45;&gt;Node8</title>
<path fill="none" stroke="midnightblue" d="M319.47,-318.95C329.46,-316.59 340.61,-314.31 350.97,-313 694.11,-269.5 1818.12,-267.84 2044.16,-267.95"/>
<polygon fill="midnightblue" stroke="midnightblue" points="2044.23,-271.45 2054.24,-267.96 2044.24,-264.45 2044.23,-271.45"/>
</g>
<!-- Node65&#45;&gt;Node12 -->
<g id="edge59" class="edge">
<title>Node65&#45;&gt;Node12</title>
<path fill="none" stroke="midnightblue" d="M324.24,-318.97C332.98,-316.97 342.3,-314.87 350.97,-313 537.8,-272.7 762.83,-228.99 846.51,-212.9"/>
<polygon fill="midnightblue" stroke="midnightblue" points="847.29,-216.32 856.45,-210.99 845.97,-209.44 847.29,-216.32"/>
</g>
</g>
</svg>
