<?xml version="1.0" encoding="UTF-8" standalone="no"?>
<!DOCTYPE svg PUBLIC "-//W3C//DTD SVG 1.1//EN"
 "http://www.w3.org/Graphics/SVG/1.1/DTD/svg11.dtd">
<!-- Generated by graphviz version 2.43.0 (0)
 -->
<!-- Title: CrtfImportExport.h Pages: 1 -->
<!--zoomable 352 -->
<svg id="main" version="1.1" xmlns="http://www.w3.org/2000/svg" xmlns:xlink="http://www.w3.org/1999/xlink" xml:space="preserve" onload="init(evt)">
<style type="text/css"><![CDATA[
.edge:hover path { stroke: red; }
.edge:hover polygon { stroke: red; fill: red; }
]]></style>
<script type="text/javascript"><![CDATA[
var edges = document.getElementsByTagName('g');
if (edges && edges.length) {
  for (var i=0;i<edges.length;i++) {
    if (edges[i].id.substr(0,4)=='edge') {
      edges[i].setAttribute('class','edge');
    }
  }
}
]]></script>
        <defs>
                <circle id="rim" cx="0" cy="0" r="7"/>
                <circle id="rim2" cx="0" cy="0" r="3.5"/>
                <g id="zoomPlus">
                        <use xlink:href="#rim" fill="#404040">
                                <set attributeName="fill" to="#808080" begin="zoomplus.mouseover" end="zoomplus.mouseout"/>
                        </use>
                        <path d="M-4,0h8M0,-4v8" fill="none" stroke="white" stroke-width="1.5" pointer-events="none"/>
                </g>
                <g id="zoomMin">
                        <use xlink:href="#rim" fill="#404040">
                                <set attributeName="fill" to="#808080" begin="zoomminus.mouseover" end="zoomminus.mouseout"/>
                        </use>
                        <path d="M-4,0h8" fill="none" stroke="white" stroke-width="1.5" pointer-events="none"/>
                </g>
                <g id="dirArrow">
                        <path fill="none" stroke="white" stroke-width="1.5" d="M0,-3.0v7 M-2.5,-0.5L0,-3.0L2.5,-0.5"/>
                </g>
               <g id="resetDef">
                       <use xlink:href="#rim2" fill="#404040">
                               <set attributeName="fill" to="#808080" begin="reset.mouseover" end="reset.mouseout"/>
                       </use>
               </g>
        </defs>

<script type="text/javascript">
var viewWidth = 4212;
var viewHeight = 352;
var sectionId = 'dynsection-0';
</script>
<script xlink:href="svgpan.js"/>
<svg id="graph" class="graph">
<g id="viewport">
<title>CrtfImportExport.h</title>
<!-- Node1 -->
<g id="node1" class="node">
<title>Node1</title>
<g id="a_node1"><a xlink:title=" ">
<polygon fill="#bfbfbf" stroke="black" points="2418.5,-324.5 2418.5,-343.5 2525.5,-343.5 2525.5,-324.5 2418.5,-324.5"/>
<text text-anchor="middle" x="2472" y="-331.5" font-family="Helvetica,sans-Serif" font-size="10.00">CrtfImportExport.h</text>
</a>
</g>
</g>
<!-- Node2 -->
<g id="node2" class="node">
<title>Node2</title>
<g id="a_node2"><a xlink:title=" ">
<polygon fill="none" stroke="#bfbfbf" points="2074,-190.5 2074,-220.5 2194,-220.5 2194,-190.5 2074,-190.5"/>
<text text-anchor="start" x="2082" y="-208.5" font-family="Helvetica,sans-Serif" font-size="10.00">casacore/casa/Arrays</text>
<text text-anchor="middle" x="2134" y="-197.5" font-family="Helvetica,sans-Serif" font-size="10.00">/IPosition.h</text>
</a>
</g>
</g>
<!-- Node1&#45;&gt;Node2 -->
<g id="edge1" class="edge">
<title>Node1&#45;&gt;Node2</title>
<path fill="none" stroke="midnightblue" d="M2418.4,-326.99C2374.78,-320.84 2312.26,-309.09 2261,-288 2223.07,-272.4 2184.04,-245.4 2159.44,-226.78"/>
<polygon fill="midnightblue" stroke="midnightblue" points="2161.43,-223.89 2151.36,-220.58 2157.16,-229.44 2161.43,-223.89"/>
</g>
<!-- Node3 -->
<g id="node3" class="node">
<title>Node3</title>
<g id="a_node3"><a xlink:title=" ">
<polygon fill="none" stroke="#bfbfbf" points="2248,-67.5 2248,-97.5 2428,-97.5 2428,-67.5 2248,-67.5"/>
<text text-anchor="start" x="2256" y="-85.5" font-family="Helvetica,sans-Serif" font-size="10.00">casacore/coordinates</text>
<text text-anchor="middle" x="2338" y="-74.5" font-family="Helvetica,sans-Serif" font-size="10.00">/Coordinates/CoordinateSystem.h</text>
</a>
</g>
</g>
<!-- Node1&#45;&gt;Node3 -->
<g id="edge2" class="edge">
<title>Node1&#45;&gt;Node3</title>
<path fill="none" stroke="midnightblue" d="M2465.2,-324.31C2458.42,-315.44 2447.89,-301.15 2440,-288 2402.15,-224.91 2365.62,-145.93 2348.35,-107.17"/>
<polygon fill="midnightblue" stroke="midnightblue" points="2351.44,-105.51 2344.2,-97.79 2345.04,-108.35 2351.44,-105.51"/>
</g>
<!-- Node4 -->
<g id="node4" class="node">
<title>Node4</title>
<g id="a_node4"><a xlink:title=" ">
<polygon fill="none" stroke="#bfbfbf" points="2448.5,-257.5 2448.5,-287.5 2597.5,-287.5 2597.5,-257.5 2448.5,-257.5"/>
<text text-anchor="start" x="2456.5" y="-275.5" font-family="Helvetica,sans-Serif" font-size="10.00">imageanalysis/Annotations</text>
<text text-anchor="middle" x="2523" y="-264.5" font-family="Helvetica,sans-Serif" font-size="10.00">/AnnSymbol.h</text>
</a>
</g>
</g>
<!-- Node1&#45;&gt;Node4 -->
<g id="edge3" class="edge">
<title>Node1&#45;&gt;Node4</title>
<path fill="none" stroke="midnightblue" d="M2479.31,-324.48C2485.83,-316.87 2495.66,-305.4 2504.34,-295.26"/>
<polygon fill="midnightblue" stroke="midnightblue" points="2507.13,-297.39 2510.98,-287.52 2501.81,-292.84 2507.13,-297.39"/>
</g>
<!-- Node5 -->
<g id="node5" class="node">
<title>Node5</title>
<g id="a_node5"><a xlink:title=" ">
<polygon fill="none" stroke="#bfbfbf" points="2615.5,-257.5 2615.5,-287.5 2764.5,-287.5 2764.5,-257.5 2615.5,-257.5"/>
<text text-anchor="start" x="2623.5" y="-275.5" font-family="Helvetica,sans-Serif" font-size="10.00">imageanalysis/Annotations</text>
<text text-anchor="middle" x="2690" y="-264.5" font-family="Helvetica,sans-Serif" font-size="10.00">/AnnotationBase.h</text>
</a>
</g>
</g>
<!-- Node1&#45;&gt;Node5 -->
<g id="edge4" class="edge">
<title>Node1&#45;&gt;Node5</title>
<path fill="none" stroke="midnightblue" d="M2503.23,-324.48C2535.86,-315.57 2587.89,-301.37 2628.76,-290.22"/>
<polygon fill="midnightblue" stroke="midnightblue" points="2629.9,-293.53 2638.62,-287.52 2628.05,-286.78 2629.9,-293.53"/>
</g>
<!-- Node6 -->
<g id="node6" class="node">
<title>Node6</title>
<g id="a_node6"><a xlink:title=" ">
<polygon fill="none" stroke="#bfbfbf" points="2782.5,-257.5 2782.5,-287.5 2931.5,-287.5 2931.5,-257.5 2782.5,-257.5"/>
<text text-anchor="start" x="2790.5" y="-275.5" font-family="Helvetica,sans-Serif" font-size="10.00">imageanalysis/Annotations</text>
<text text-anchor="middle" x="2857" y="-264.5" font-family="Helvetica,sans-Serif" font-size="10.00">/RegionTextList.h</text>
</a>
</g>
</g>
<!-- Node1&#45;&gt;Node6 -->
<g id="edge5" class="edge">
<title>Node1&#45;&gt;Node6</title>
<path fill="none" stroke="midnightblue" d="M2525.52,-325.44C2583.82,-317.11 2680.07,-303.09 2772.29,-288.25"/>
<polygon fill="midnightblue" stroke="midnightblue" points="2773.04,-291.68 2782.36,-286.63 2771.93,-284.77 2773.04,-291.68"/>
</g>
<!-- Node7 -->
<g id="node7" class="node">
<title>Node7</title>
<g id="a_node7"><a xlink:title=" ">
<polygon fill="none" stroke="#bfbfbf" points="2949.5,-257.5 2949.5,-287.5 3130.5,-287.5 3130.5,-257.5 2949.5,-257.5"/>
<text text-anchor="start" x="2957.5" y="-275.5" font-family="Helvetica,sans-Serif" font-size="10.00">imageanalysis/IO/AsciiAnnotation</text>
<text text-anchor="middle" x="3040" y="-264.5" font-family="Helvetica,sans-Serif" font-size="10.00">FileLine.h</text>
</a>
</g>
</g>
<!-- Node1&#45;&gt;Node7 -->
<g id="edge6" class="edge">
<title>Node1&#45;&gt;Node7</title>
<path fill="none" stroke="midnightblue" d="M2525.55,-328.73C2610.87,-321.75 2783.16,-306.85 2939.14,-288.19"/>
<polygon fill="midnightblue" stroke="midnightblue" points="2939.88,-291.63 2949.39,-286.96 2939.04,-284.68 2939.88,-291.63"/>
</g>
<!-- Node8 -->
<g id="node8" class="node">
<title>Node8</title>
<g id="a_node8"><a xlink:href="Region_8h.html" target="_top" xlink:title=" ">
<polygon fill="none" stroke="black" points="1819.5,-134.5 1819.5,-153.5 1878.5,-153.5 1878.5,-134.5 1819.5,-134.5"/>
<text text-anchor="middle" x="1849" y="-141.5" font-family="Helvetica,sans-Serif" font-size="10.00">Region.h</text>
</a>
</g>
</g>
<!-- Node1&#45;&gt;Node8 -->
<g id="edge7" class="edge">
<title>Node1&#45;&gt;Node8</title>
<path fill="none" stroke="midnightblue" d="M2418.47,-327.59C2363.44,-321.22 2275.63,-308.78 2202,-288 2075.67,-252.35 1933,-186 1875.29,-158"/>
<polygon fill="midnightblue" stroke="midnightblue" points="1876.67,-154.78 1866.15,-153.54 1873.6,-161.07 1876.67,-154.78"/>
</g>
<!-- Node66 -->
<g id="node49" class="node">
<title>Node66</title>
<g id="a_node49"><a xlink:href="RegionImportExport_8h.html" target="_top" xlink:title=" ">
<polygon fill="none" stroke="black" points="2269.5,-263 2269.5,-282 2392.5,-282 2392.5,-263 2269.5,-263"/>
<text text-anchor="middle" x="2331" y="-270" font-family="Helvetica,sans-Serif" font-size="10.00">RegionImportExport.h</text>
</a>
</g>
</g>
<!-- Node1&#45;&gt;Node66 -->
<g id="edge50" class="edge">
<title>Node1&#45;&gt;Node66</title>
<path fill="none" stroke="midnightblue" d="M2451.8,-324.48C2427.93,-314.4 2388,-297.55 2360.63,-286"/>
<polygon fill="midnightblue" stroke="midnightblue" points="2361.74,-282.67 2351.16,-282.01 2359.02,-289.12 2361.74,-282.67"/>
</g>
<!-- Node8&#45;&gt;Node3 -->
<g id="edge12" class="edge">
<title>Node8&#45;&gt;Node3</title>
<path fill="none" stroke="midnightblue" d="M1878.88,-139.87C1942.73,-133.11 2097.38,-116.37 2237.82,-98.13"/>
<polygon fill="midnightblue" stroke="midnightblue" points="2238.44,-101.58 2247.91,-96.81 2237.54,-94.64 2238.44,-101.58"/>
</g>
<!-- Node9 -->
<g id="node9" class="node">
<title>Node9</title>
<g id="a_node9"><a xlink:title=" ">
<polygon fill="none" stroke="#bfbfbf" points="2114,-73 2114,-92 2164,-92 2164,-73 2114,-73"/>
<text text-anchor="middle" x="2139" y="-80" font-family="Helvetica,sans-Serif" font-size="10.00">atomic</text>
</a>
</g>
</g>
<!-- Node8&#45;&gt;Node9 -->
<g id="edge8" class="edge">
<title>Node8&#45;&gt;Node9</title>
<path fill="none" stroke="midnightblue" d="M1878.54,-139.91C1926.54,-134.41 2024.16,-121.28 2104,-98 2106.29,-97.33 2108.64,-96.56 2110.97,-95.73"/>
<polygon fill="midnightblue" stroke="midnightblue" points="2112.31,-98.97 2120.38,-92.1 2109.79,-92.44 2112.31,-98.97"/>
</g>
<!-- Node10 -->
<g id="node10" class="node">
<title>Node10</title>
<g id="a_node10"><a xlink:title=" ">
<polygon fill="none" stroke="#bfbfbf" points="977,-73 977,-92 1063,-92 1063,-73 977,-73"/>
<text text-anchor="middle" x="1020" y="-80" font-family="Helvetica,sans-Serif" font-size="10.00">shared_mutex</text>
</a>
</g>
</g>
<!-- Node8&#45;&gt;Node10 -->
<g id="edge9" class="edge">
<title>Node8&#45;&gt;Node10</title>
<path fill="none" stroke="midnightblue" d="M1819.35,-142.13C1695.61,-138.38 1219.95,-122.62 1072,-98 1066.87,-97.15 1061.53,-95.98 1056.3,-94.68"/>
<polygon fill="midnightblue" stroke="midnightblue" points="1057.04,-91.26 1046.47,-92.06 1055.23,-98.02 1057.04,-91.26"/>
</g>
<!-- Node11 -->
<g id="node11" class="node">
<title>Node11</title>
<g id="a_node11"><a xlink:title=" ">
<polygon fill="none" stroke="#bfbfbf" points="0,-6 0,-25 44,-25 44,-6 0,-6"/>
<text text-anchor="middle" x="22" y="-13" font-family="Helvetica,sans-Serif" font-size="10.00">string</text>
</a>
</g>
</g>
<!-- Node8&#45;&gt;Node11 -->
<g id="edge10" class="edge">
<title>Node8&#45;&gt;Node11</title>
<path fill="none" stroke="midnightblue" d="M1819.35,-143.28C1708.61,-143.97 1319.8,-143.07 1206,-98 1185.74,-89.97 1188.41,-74.64 1168,-67 935.84,19.93 294.1,-88.7 53,-31 50.79,-30.47 48.56,-29.78 46.34,-28.98"/>
<polygon fill="midnightblue" stroke="midnightblue" points="47.58,-25.7 37.01,-25.01 44.84,-32.14 47.58,-25.7"/>
</g>
<!-- Node12 -->
<g id="node12" class="node">
<title>Node12</title>
<g id="a_node12"><a xlink:title=" ">
<polygon fill="none" stroke="#bfbfbf" points="2182.5,-73 2182.5,-92 2229.5,-92 2229.5,-73 2182.5,-73"/>
<text text-anchor="middle" x="2206" y="-80" font-family="Helvetica,sans-Serif" font-size="10.00">vector</text>
</a>
</g>
</g>
<!-- Node8&#45;&gt;Node12 -->
<g id="edge11" class="edge">
<title>Node8&#45;&gt;Node12</title>
<path fill="none" stroke="midnightblue" d="M1878.6,-141.62C1936.27,-138.33 2067.27,-127.95 2173,-98 2175.15,-97.39 2177.35,-96.67 2179.53,-95.88"/>
<polygon fill="midnightblue" stroke="midnightblue" points="2180.91,-99.1 2188.86,-92.1 2178.28,-92.61 2180.91,-99.1"/>
</g>
<!-- Node13 -->
<g id="node13" class="node">
<title>Node13</title>
<g id="a_node13"><a xlink:title=" ">
<polygon fill="none" stroke="#bfbfbf" points="1215.5,-67.5 1215.5,-97.5 1356.5,-97.5 1356.5,-67.5 1215.5,-67.5"/>
<text text-anchor="start" x="1223.5" y="-85.5" font-family="Helvetica,sans-Serif" font-size="10.00">casacore/images/Regions</text>
<text text-anchor="middle" x="1286" y="-74.5" font-family="Helvetica,sans-Serif" font-size="10.00">/WCRegion.h</text>
</a>
</g>
</g>
<!-- Node8&#45;&gt;Node13 -->
<g id="edge13" class="edge">
<title>Node8&#45;&gt;Node13</title>
<path fill="none" stroke="midnightblue" d="M1819.5,-141.14C1745.28,-136.28 1544.68,-121.97 1366.69,-98.01"/>
<polygon fill="midnightblue" stroke="midnightblue" points="1367,-94.52 1356.62,-96.64 1366.05,-101.46 1367,-94.52"/>
</g>
<!-- Node14 -->
<g id="node14" class="node">
<title>Node14</title>
<g id="a_node14"><a xlink:title=" ">
<polygon fill="none" stroke="#bfbfbf" points="1375,-67.5 1375,-97.5 1521,-97.5 1521,-67.5 1375,-67.5"/>
<text text-anchor="start" x="1383" y="-85.5" font-family="Helvetica,sans-Serif" font-size="10.00">casacore/lattices/LRegions</text>
<text text-anchor="middle" x="1448" y="-74.5" font-family="Helvetica,sans-Serif" font-size="10.00">/LCPolygon.h</text>
</a>
</g>
</g>
<!-- Node8&#45;&gt;Node14 -->
<g id="edge14" class="edge">
<title>Node8&#45;&gt;Node14</title>
<path fill="none" stroke="midnightblue" d="M1819.48,-139.19C1764.77,-132.04 1643.7,-115.88 1531.44,-98.2"/>
<polygon fill="midnightblue" stroke="midnightblue" points="1531.72,-94.7 1521.3,-96.59 1530.63,-101.61 1531.72,-94.7"/>
</g>
<!-- Node15 -->
<g id="node15" class="node">
<title>Node15</title>
<g id="a_node15"><a xlink:title=" ">
<polygon fill="none" stroke="#bfbfbf" points="1539,-67.5 1539,-97.5 1685,-97.5 1685,-67.5 1539,-67.5"/>
<text text-anchor="start" x="1547" y="-85.5" font-family="Helvetica,sans-Serif" font-size="10.00">casacore/lattices/LRegions</text>
<text text-anchor="middle" x="1612" y="-74.5" font-family="Helvetica,sans-Serif" font-size="10.00">/LCRegion.h</text>
</a>
</g>
</g>
<!-- Node8&#45;&gt;Node15 -->
<g id="edge15" class="edge">
<title>Node8&#45;&gt;Node15</title>
<path fill="none" stroke="midnightblue" d="M1819.46,-135.58C1784.32,-126.76 1724.57,-111.76 1678.2,-100.12"/>
<polygon fill="midnightblue" stroke="midnightblue" points="1678.77,-96.66 1668.22,-97.61 1677.07,-103.44 1678.77,-96.66"/>
</g>
<!-- Node16 -->
<g id="node16" class="node">
<title>Node16</title>
<g id="a_node16"><a xlink:title=" ">
<polygon fill="none" stroke="#bfbfbf" points="1703,-67.5 1703,-97.5 1843,-97.5 1843,-67.5 1703,-67.5"/>
<text text-anchor="start" x="1711" y="-85.5" font-family="Helvetica,sans-Serif" font-size="10.00">casacore/lattices/Lattices</text>
<text text-anchor="middle" x="1773" y="-74.5" font-family="Helvetica,sans-Serif" font-size="10.00">/ArrayLattice.h</text>
</a>
</g>
</g>
<!-- Node8&#45;&gt;Node16 -->
<g id="edge16" class="edge">
<title>Node8&#45;&gt;Node16</title>
<path fill="none" stroke="midnightblue" d="M1838.11,-134.48C1827.91,-126.49 1812.28,-114.25 1798.89,-103.77"/>
<polygon fill="midnightblue" stroke="midnightblue" points="1800.94,-100.93 1790.91,-97.52 1796.63,-106.44 1800.94,-100.93"/>
</g>
<!-- Node17 -->
<g id="node17" class="node">
<title>Node17</title>
<g id="a_node17"><a xlink:title=" ">
<polygon fill="none" stroke="#bfbfbf" points="1861.5,-67.5 1861.5,-97.5 1988.5,-97.5 1988.5,-67.5 1861.5,-67.5"/>
<text text-anchor="start" x="1869.5" y="-85.5" font-family="Helvetica,sans-Serif" font-size="10.00">casacore/tables/Tables</text>
<text text-anchor="middle" x="1925" y="-74.5" font-family="Helvetica,sans-Serif" font-size="10.00">/TableRecord.h</text>
</a>
</g>
</g>
<!-- Node8&#45;&gt;Node17 -->
<g id="edge17" class="edge">
<title>Node8&#45;&gt;Node17</title>
<path fill="none" stroke="midnightblue" d="M1859.89,-134.48C1870.09,-126.49 1885.72,-114.25 1899.11,-103.77"/>
<polygon fill="midnightblue" stroke="midnightblue" points="1901.37,-106.44 1907.09,-97.52 1897.06,-100.93 1901.37,-106.44"/>
</g>
<!-- Node18 -->
<g id="node18" class="node">
<title>Node18</title>
<g id="a_node18"><a xlink:href="Message_8h.html" target="_top" xlink:title=" ">
<polygon fill="none" stroke="red" points="2006.5,-73 2006.5,-92 2095.5,-92 2095.5,-73 2006.5,-73"/>
<text text-anchor="middle" x="2051" y="-80" font-family="Helvetica,sans-Serif" font-size="10.00">Util/Message.h</text>
</a>
</g>
</g>
<!-- Node8&#45;&gt;Node18 -->
<g id="edge18" class="edge">
<title>Node8&#45;&gt;Node18</title>
<path fill="none" stroke="midnightblue" d="M1877.94,-134.48C1913.27,-124.07 1973.13,-106.44 2012.36,-94.88"/>
<polygon fill="midnightblue" stroke="midnightblue" points="2013.51,-98.19 2022.11,-92.01 2011.53,-91.48 2013.51,-98.19"/>
</g>
<!-- Node64 -->
<g id="node48" class="node">
<title>Node64</title>
<g id="a_node48"><a xlink:href="Stokes_8h.html" target="_top" xlink:title=" ">
<polygon fill="none" stroke="red" points="1081,-73 1081,-92 1159,-92 1159,-73 1081,-73"/>
<text text-anchor="middle" x="1120" y="-80" font-family="Helvetica,sans-Serif" font-size="10.00">Util/Stokes.h</text>
</a>
</g>
</g>
<!-- Node8&#45;&gt;Node64 -->
<g id="edge48" class="edge">
<title>Node8&#45;&gt;Node64</title>
<path fill="none" stroke="midnightblue" d="M1819.44,-143.14C1724.69,-143.13 1420.35,-139.63 1173,-98 1167.78,-97.12 1162.34,-95.94 1157.01,-94.64"/>
<polygon fill="midnightblue" stroke="midnightblue" points="1157.56,-91.16 1147,-92.01 1155.79,-97.93 1157.56,-91.16"/>
</g>
<!-- Node19 -->
<g id="node19" class="node">
<title>Node19</title>
<g id="a_node19"><a xlink:title=" ">
<polygon fill="none" stroke="#bfbfbf" points="3755.5,-6 3755.5,-25 3918.5,-25 3918.5,-6 3755.5,-6"/>
<text text-anchor="middle" x="3837" y="-13" font-family="Helvetica,sans-Serif" font-size="10.00">carta&#45;protobuf/animation.pb.h</text>
</a>
</g>
</g>
<!-- Node18&#45;&gt;Node19 -->
<g id="edge19" class="edge">
<title>Node18&#45;&gt;Node19</title>
<path fill="none" stroke="midnightblue" d="M2077.65,-72.98C2086.29,-70.59 2095.97,-68.29 2105,-67 2466.08,-15.33 3382.72,-63.77 3746,-31 3757.46,-29.97 3769.67,-28.37 3781.29,-26.61"/>
<polygon fill="midnightblue" stroke="midnightblue" points="3781.99,-30.04 3791.32,-25.02 3780.9,-23.12 3781.99,-30.04"/>
</g>
<!-- Node20 -->
<g id="node20" class="node">
<title>Node20</title>
<g id="a_node20"><a xlink:title=" ">
<polygon fill="none" stroke="#bfbfbf" points="3936.5,-0.5 3936.5,-30.5 4051.5,-30.5 4051.5,-0.5 3936.5,-0.5"/>
<text text-anchor="start" x="3944.5" y="-18.5" font-family="Helvetica,sans-Serif" font-size="10.00">carta&#45;protobuf/close</text>
<text text-anchor="middle" x="3994" y="-7.5" font-family="Helvetica,sans-Serif" font-size="10.00">_file.pb.h</text>
</a>
</g>
</g>
<!-- Node18&#45;&gt;Node20 -->
<g id="edge20" class="edge">
<title>Node18&#45;&gt;Node20</title>
<path fill="none" stroke="midnightblue" d="M2077.65,-72.97C2086.29,-70.58 2095.97,-68.28 2105,-67 2502.93,-10.5 3509.24,-77.6 3926.12,-31.04"/>
<polygon fill="midnightblue" stroke="midnightblue" points="3926.63,-34.5 3936.16,-29.88 3925.83,-27.55 3926.63,-34.5"/>
</g>
<!-- Node21 -->
<g id="node21" class="node">
<title>Node21</title>
<g id="a_node21"><a xlink:title=" ">
<polygon fill="none" stroke="#bfbfbf" points="62,-0.5 62,-30.5 188,-30.5 188,-0.5 62,-0.5"/>
<text text-anchor="start" x="70" y="-18.5" font-family="Helvetica,sans-Serif" font-size="10.00">carta&#45;protobuf/contour</text>
<text text-anchor="middle" x="125" y="-7.5" font-family="Helvetica,sans-Serif" font-size="10.00">_image.pb.h</text>
</a>
</g>
</g>
<!-- Node18&#45;&gt;Node21 -->
<g id="edge21" class="edge">
<title>Node18&#45;&gt;Node21</title>
<path fill="none" stroke="midnightblue" d="M2024.35,-72.97C2015.71,-70.58 2006.03,-68.28 1997,-67 1604.19,-11.18 611.35,-73.61 198.36,-30.97"/>
<polygon fill="midnightblue" stroke="midnightblue" points="198.43,-27.45 188.12,-29.87 197.69,-34.42 198.43,-27.45"/>
</g>
<!-- Node22 -->
<g id="node22" class="node">
<title>Node22</title>
<g id="a_node22"><a xlink:title=" ">
<polygon fill="none" stroke="#bfbfbf" points="4070,-6 4070,-25 4204,-25 4204,-6 4070,-6"/>
<text text-anchor="middle" x="4137" y="-13" font-family="Helvetica,sans-Serif" font-size="10.00">carta&#45;protobuf/defs.pb.h</text>
</a>
</g>
</g>
<!-- Node18&#45;&gt;Node22 -->
<g id="edge22" class="edge">
<title>Node18&#45;&gt;Node22</title>
<path fill="none" stroke="midnightblue" d="M2077.65,-72.96C2086.28,-70.57 2095.97,-68.28 2105,-67 2535.46,-6.18 3628.58,-75.9 4061,-31 4070.22,-30.04 4080,-28.55 4089.36,-26.87"/>
<polygon fill="midnightblue" stroke="midnightblue" points="4090.12,-30.29 4099.3,-25 4088.83,-23.41 4090.12,-30.29"/>
</g>
<!-- Node23 -->
<g id="node23" class="node">
<title>Node23</title>
<g id="a_node23"><a xlink:title=" ">
<polygon fill="none" stroke="#bfbfbf" points="206,-6 206,-25 342,-25 342,-6 206,-6"/>
<text text-anchor="middle" x="274" y="-13" font-family="Helvetica,sans-Serif" font-size="10.00">carta&#45;protobuf/error.pb.h</text>
</a>
</g>
</g>
<!-- Node18&#45;&gt;Node23 -->
<g id="edge23" class="edge">
<title>Node18&#45;&gt;Node23</title>
<path fill="none" stroke="midnightblue" d="M2024.35,-72.98C2015.71,-70.59 2006.03,-68.29 1997,-67 1634.82,-15.19 714.89,-68.98 351,-31 341.76,-30.04 331.97,-28.55 322.58,-26.9"/>
<polygon fill="midnightblue" stroke="midnightblue" points="323.06,-23.43 312.59,-25.05 321.79,-30.31 323.06,-23.43"/>
</g>
<!-- Node24 -->
<g id="node24" class="node">
<title>Node24</title>
<g id="a_node24"><a xlink:title=" ">
<polygon fill="none" stroke="#bfbfbf" points="360.5,-0.5 360.5,-30.5 481.5,-30.5 481.5,-0.5 360.5,-0.5"/>
<text text-anchor="start" x="368.5" y="-18.5" font-family="Helvetica,sans-Serif" font-size="10.00">carta&#45;protobuf/export</text>
<text text-anchor="middle" x="421" y="-7.5" font-family="Helvetica,sans-Serif" font-size="10.00">_region.pb.h</text>
</a>
</g>
</g>
<!-- Node18&#45;&gt;Node24 -->
<g id="edge24" class="edge">
<title>Node18&#45;&gt;Node24</title>
<path fill="none" stroke="midnightblue" d="M2024.35,-72.99C2015.71,-70.6 2006.03,-68.3 1997,-67 1337.72,28 1158.01,-105.83 491.93,-30.92"/>
<polygon fill="midnightblue" stroke="midnightblue" points="491.93,-27.4 481.6,-29.75 491.14,-34.36 491.93,-27.4"/>
</g>
<!-- Node25 -->
<g id="node25" class="node">
<title>Node25</title>
<g id="a_node25"><a xlink:title=" ">
<polygon fill="none" stroke="#bfbfbf" points="500,-0.5 500,-30.5 604,-30.5 604,-0.5 500,-0.5"/>
<text text-anchor="start" x="508" y="-18.5" font-family="Helvetica,sans-Serif" font-size="10.00">carta&#45;protobuf/file</text>
<text text-anchor="middle" x="552" y="-7.5" font-family="Helvetica,sans-Serif" font-size="10.00">_info.pb.h</text>
</a>
</g>
</g>
<!-- Node18&#45;&gt;Node25 -->
<g id="edge25" class="edge">
<title>Node18&#45;&gt;Node25</title>
<path fill="none" stroke="midnightblue" d="M2024.07,-72.93C2015.5,-70.57 2005.93,-68.3 1997,-67 1391.33,20.93 1224.94,-109.17 614.05,-30.92"/>
<polygon fill="midnightblue" stroke="midnightblue" points="614.48,-27.45 604.11,-29.64 613.58,-34.39 614.48,-27.45"/>
</g>
<!-- Node26 -->
<g id="node26" class="node">
<title>Node26</title>
<g id="a_node26"><a xlink:title=" ">
<polygon fill="none" stroke="#bfbfbf" points="622,-0.5 622,-30.5 726,-30.5 726,-0.5 622,-0.5"/>
<text text-anchor="start" x="630" y="-18.5" font-family="Helvetica,sans-Serif" font-size="10.00">carta&#45;protobuf/file</text>
<text text-anchor="middle" x="674" y="-7.5" font-family="Helvetica,sans-Serif" font-size="10.00">_list.pb.h</text>
</a>
</g>
</g>
<!-- Node18&#45;&gt;Node26 -->
<g id="edge26" class="edge">
<title>Node18&#45;&gt;Node26</title>
<path fill="none" stroke="midnightblue" d="M2024.07,-72.94C2015.5,-70.58 2005.93,-68.31 1997,-67 1445.19,13.82 1293.17,-102.83 736.42,-30.97"/>
<polygon fill="midnightblue" stroke="midnightblue" points="736.48,-27.45 726.11,-29.63 735.58,-34.39 736.48,-27.45"/>
</g>
<!-- Node27 -->
<g id="node27" class="node">
<title>Node27</title>
<g id="a_node27"><a xlink:title=" ">
<polygon fill="none" stroke="#bfbfbf" points="744,-0.5 744,-30.5 862,-30.5 862,-0.5 744,-0.5"/>
<text text-anchor="start" x="752" y="-18.5" font-family="Helvetica,sans-Serif" font-size="10.00">carta&#45;protobuf/fitting</text>
<text text-anchor="middle" x="803" y="-7.5" font-family="Helvetica,sans-Serif" font-size="10.00">_request.pb.h</text>
</a>
</g>
</g>
<!-- Node18&#45;&gt;Node27 -->
<g id="edge27" class="edge">
<title>Node18&#45;&gt;Node27</title>
<path fill="none" stroke="midnightblue" d="M2024.06,-72.96C2015.5,-70.6 2005.93,-68.32 1997,-67 1504.98,5.93 1369.82,-90.17 872.19,-30.98"/>
<polygon fill="midnightblue" stroke="midnightblue" points="872.58,-27.5 862.23,-29.78 871.74,-34.45 872.58,-27.5"/>
</g>
<!-- Node28 -->
<g id="node28" class="node">
<title>Node28</title>
<g id="a_node28"><a xlink:title=" ">
<polygon fill="none" stroke="#bfbfbf" points="880,-0.5 880,-30.5 1002,-30.5 1002,-0.5 880,-0.5"/>
<text text-anchor="start" x="888" y="-18.5" font-family="Helvetica,sans-Serif" font-size="10.00">carta&#45;protobuf/import</text>
<text text-anchor="middle" x="941" y="-7.5" font-family="Helvetica,sans-Serif" font-size="10.00">_region.pb.h</text>
</a>
</g>
</g>
<!-- Node18&#45;&gt;Node28 -->
<g id="edge28" class="edge">
<title>Node18&#45;&gt;Node28</title>
<path fill="none" stroke="midnightblue" d="M2024.06,-72.98C2015.49,-70.62 2005.93,-68.34 1997,-67 1566.65,-2.22 1448.13,-82.43 1012.39,-31.02"/>
<polygon fill="midnightblue" stroke="midnightblue" points="1012.71,-27.53 1002.36,-29.82 1011.88,-34.48 1012.71,-27.53"/>
</g>
<!-- Node29 -->
<g id="node29" class="node">
<title>Node29</title>
<g id="a_node29"><a xlink:title=" ">
<polygon fill="none" stroke="#bfbfbf" points="1020.5,-0.5 1020.5,-30.5 1151.5,-30.5 1151.5,-0.5 1020.5,-0.5"/>
<text text-anchor="start" x="1028.5" y="-18.5" font-family="Helvetica,sans-Serif" font-size="10.00">carta&#45;protobuf/moment</text>
<text text-anchor="middle" x="1086" y="-7.5" font-family="Helvetica,sans-Serif" font-size="10.00">_request.pb.h</text>
</a>
</g>
</g>
<!-- Node18&#45;&gt;Node29 -->
<g id="edge29" class="edge">
<title>Node18&#45;&gt;Node29</title>
<path fill="none" stroke="midnightblue" d="M2023.78,-72.94C2015.28,-70.61 2005.83,-68.36 1997,-67 1632.31,-10.89 1531.56,-73.77 1161.86,-31.1"/>
<polygon fill="midnightblue" stroke="midnightblue" points="1162.03,-27.59 1151.69,-29.9 1161.21,-34.54 1162.03,-27.59"/>
</g>
<!-- Node30 -->
<g id="node30" class="node">
<title>Node30</title>
<g id="a_node30"><a xlink:title=" ">
<polygon fill="none" stroke="#bfbfbf" points="1169.5,-0.5 1169.5,-30.5 1282.5,-30.5 1282.5,-0.5 1169.5,-0.5"/>
<text text-anchor="start" x="1177.5" y="-18.5" font-family="Helvetica,sans-Serif" font-size="10.00">carta&#45;protobuf/open</text>
<text text-anchor="middle" x="1226" y="-7.5" font-family="Helvetica,sans-Serif" font-size="10.00">_file.pb.h</text>
</a>
</g>
</g>
<!-- Node18&#45;&gt;Node30 -->
<g id="edge30" class="edge">
<title>Node18&#45;&gt;Node30</title>
<path fill="none" stroke="midnightblue" d="M2023.77,-72.99C2015.28,-70.66 2005.82,-68.39 1997,-67 1689.99,-18.51 1604.16,-72.18 1292.84,-31.09"/>
<polygon fill="midnightblue" stroke="midnightblue" points="1293,-27.58 1282.62,-29.72 1292.06,-34.52 1293,-27.58"/>
</g>
<!-- Node31 -->
<g id="node31" class="node">
<title>Node31</title>
<g id="a_node31"><a xlink:title=" ">
<polygon fill="none" stroke="#bfbfbf" points="1300.5,-6 1300.5,-25 1467.5,-25 1467.5,-6 1300.5,-6"/>
<text text-anchor="middle" x="1384" y="-13" font-family="Helvetica,sans-Serif" font-size="10.00">carta&#45;protobuf/pv_request.pb.h</text>
</a>
</g>
</g>
<!-- Node18&#45;&gt;Node31 -->
<g id="edge31" class="edge">
<title>Node18&#45;&gt;Node31</title>
<path fill="none" stroke="midnightblue" d="M2023.2,-72.93C2014.85,-70.66 2005.62,-68.44 1997,-67 1768.51,-28.78 1707.22,-56.87 1477,-31 1466.18,-29.78 1454.7,-28.22 1443.63,-26.57"/>
<polygon fill="midnightblue" stroke="midnightblue" points="1444.02,-23.09 1433.61,-25.04 1442.96,-30.01 1444.02,-23.09"/>
</g>
<!-- Node32 -->
<g id="node32" class="node">
<title>Node32</title>
<g id="a_node32"><a xlink:title=" ">
<polygon fill="none" stroke="#bfbfbf" points="1486,-0.5 1486,-30.5 1604,-30.5 1604,-0.5 1486,-0.5"/>
<text text-anchor="start" x="1494" y="-18.5" font-family="Helvetica,sans-Serif" font-size="10.00">carta&#45;protobuf/raster</text>
<text text-anchor="middle" x="1545" y="-7.5" font-family="Helvetica,sans-Serif" font-size="10.00">_tile.pb.h</text>
</a>
</g>
</g>
<!-- Node18&#45;&gt;Node32 -->
<g id="edge32" class="edge">
<title>Node18&#45;&gt;Node32</title>
<path fill="none" stroke="midnightblue" d="M2022.9,-72.99C2014.62,-70.75 2005.5,-68.53 1997,-67 1831.5,-37.24 1784.23,-56.17 1614.3,-31.07"/>
<polygon fill="midnightblue" stroke="midnightblue" points="1614.67,-27.59 1604.26,-29.56 1613.63,-34.51 1614.67,-27.59"/>
</g>
<!-- Node33 -->
<g id="node33" class="node">
<title>Node33</title>
<g id="a_node33"><a xlink:title=" ">
<polygon fill="none" stroke="#bfbfbf" points="1622,-6 1622,-25 1766,-25 1766,-6 1622,-6"/>
<text text-anchor="middle" x="1694" y="-13" font-family="Helvetica,sans-Serif" font-size="10.00">carta&#45;protobuf/region.pb.h</text>
</a>
</g>
</g>
<!-- Node18&#45;&gt;Node33 -->
<g id="edge33" class="edge">
<title>Node18&#45;&gt;Node33</title>
<path fill="none" stroke="midnightblue" d="M2021.42,-72.98C2013.53,-70.86 2004.97,-68.71 1997,-67 1899.27,-46.01 1873.53,-47.81 1775,-31 1767.28,-29.68 1759.14,-28.26 1751.13,-26.85"/>
<polygon fill="midnightblue" stroke="midnightblue" points="1751.55,-23.37 1741.09,-25.06 1750.33,-30.26 1751.55,-23.37"/>
</g>
<!-- Node34 -->
<g id="node34" class="node">
<title>Node34</title>
<g id="a_node34"><a xlink:title=" ">
<polygon fill="none" stroke="#bfbfbf" points="1784,-0.5 1784,-30.5 1904,-30.5 1904,-0.5 1784,-0.5"/>
<text text-anchor="start" x="1792" y="-18.5" font-family="Helvetica,sans-Serif" font-size="10.00">carta&#45;protobuf/region</text>
<text text-anchor="middle" x="1844" y="-7.5" font-family="Helvetica,sans-Serif" font-size="10.00">_histogram.pb.h</text>
</a>
</g>
</g>
<!-- Node18&#45;&gt;Node34 -->
<g id="edge34" class="edge">
<title>Node18&#45;&gt;Node34</title>
<path fill="none" stroke="midnightblue" d="M2023.51,-72.87C1991.71,-62.88 1938.57,-46.2 1898.34,-33.56"/>
<polygon fill="midnightblue" stroke="midnightblue" points="1899.26,-30.18 1888.67,-30.53 1897.17,-36.86 1899.26,-30.18"/>
</g>
<!-- Node35 -->
<g id="node35" class="node">
<title>Node35</title>
<g id="a_node35"><a xlink:title=" ">
<polygon fill="none" stroke="#bfbfbf" points="1922,-0.5 1922,-30.5 2042,-30.5 2042,-0.5 1922,-0.5"/>
<text text-anchor="start" x="1930" y="-18.5" font-family="Helvetica,sans-Serif" font-size="10.00">carta&#45;protobuf/region</text>
<text text-anchor="middle" x="1982" y="-7.5" font-family="Helvetica,sans-Serif" font-size="10.00">_requirements.pb.h</text>
</a>
</g>
</g>
<!-- Node18&#45;&gt;Node35 -->
<g id="edge35" class="edge">
<title>Node18&#45;&gt;Node35</title>
<path fill="none" stroke="midnightblue" d="M2041.69,-72.73C2032.19,-63.78 2017.08,-49.54 2004.44,-37.63"/>
<polygon fill="midnightblue" stroke="midnightblue" points="2006.63,-34.9 1996.96,-30.59 2001.84,-39.99 2006.63,-34.9"/>
</g>
<!-- Node36 -->
<g id="node36" class="node">
<title>Node36</title>
<g id="a_node36"><a xlink:title=" ">
<polygon fill="none" stroke="#bfbfbf" points="2060,-0.5 2060,-30.5 2180,-30.5 2180,-0.5 2060,-0.5"/>
<text text-anchor="start" x="2068" y="-18.5" font-family="Helvetica,sans-Serif" font-size="10.00">carta&#45;protobuf/region</text>
<text text-anchor="middle" x="2120" y="-7.5" font-family="Helvetica,sans-Serif" font-size="10.00">_stats.pb.h</text>
</a>
</g>
</g>
<!-- Node18&#45;&gt;Node36 -->
<g id="edge36" class="edge">
<title>Node18&#45;&gt;Node36</title>
<path fill="none" stroke="midnightblue" d="M2060.31,-72.73C2069.81,-63.78 2084.92,-49.54 2097.56,-37.63"/>
<polygon fill="midnightblue" stroke="midnightblue" points="2100.16,-39.99 2105.04,-30.59 2095.37,-34.9 2100.16,-39.99"/>
</g>
<!-- Node37 -->
<g id="node37" class="node">
<title>Node37</title>
<g id="a_node37"><a xlink:title=" ">
<polygon fill="none" stroke="#bfbfbf" points="2198.5,-0.5 2198.5,-30.5 2325.5,-30.5 2325.5,-0.5 2198.5,-0.5"/>
<text text-anchor="start" x="2206.5" y="-18.5" font-family="Helvetica,sans-Serif" font-size="10.00">carta&#45;protobuf/register</text>
<text text-anchor="middle" x="2262" y="-7.5" font-family="Helvetica,sans-Serif" font-size="10.00">_viewer.pb.h</text>
</a>
</g>
</g>
<!-- Node18&#45;&gt;Node37 -->
<g id="edge37" class="edge">
<title>Node18&#45;&gt;Node37</title>
<path fill="none" stroke="midnightblue" d="M2079.02,-72.87C2111.5,-62.86 2165.83,-46.13 2206.87,-33.48"/>
<polygon fill="midnightblue" stroke="midnightblue" points="2207.94,-36.82 2216.46,-30.53 2205.88,-30.13 2207.94,-36.82"/>
</g>
<!-- Node38 -->
<g id="node38" class="node">
<title>Node38</title>
<g id="a_node38"><a xlink:title=" ">
<polygon fill="none" stroke="#bfbfbf" points="2344,-0.5 2344,-30.5 2470,-30.5 2470,-0.5 2344,-0.5"/>
<text text-anchor="start" x="2352" y="-18.5" font-family="Helvetica,sans-Serif" font-size="10.00">carta&#45;protobuf/resume</text>
<text text-anchor="middle" x="2407" y="-7.5" font-family="Helvetica,sans-Serif" font-size="10.00">_session.pb.h</text>
</a>
</g>
</g>
<!-- Node18&#45;&gt;Node38 -->
<g id="edge38" class="edge">
<title>Node18&#45;&gt;Node38</title>
<path fill="none" stroke="midnightblue" d="M2080.57,-72.95C2088.47,-70.83 2097.02,-68.69 2105,-67 2203.06,-46.22 2231.39,-49.01 2333.68,-31.18"/>
<polygon fill="midnightblue" stroke="midnightblue" points="2334.58,-34.57 2343.81,-29.39 2333.36,-27.68 2334.58,-34.57"/>
</g>
<!-- Node39 -->
<g id="node39" class="node">
<title>Node39</title>
<g id="a_node39"><a xlink:title=" ">
<polygon fill="none" stroke="#bfbfbf" points="2488.5,-0.5 2488.5,-30.5 2601.5,-30.5 2601.5,-0.5 2488.5,-0.5"/>
<text text-anchor="start" x="2496.5" y="-18.5" font-family="Helvetica,sans-Serif" font-size="10.00">carta&#45;protobuf/save</text>
<text text-anchor="middle" x="2545" y="-7.5" font-family="Helvetica,sans-Serif" font-size="10.00">_file.pb.h</text>
</a>
</g>
</g>
<!-- Node18&#45;&gt;Node39 -->
<g id="edge39" class="edge">
<title>Node18&#45;&gt;Node39</title>
<path fill="none" stroke="midnightblue" d="M2079.38,-72.93C2087.59,-70.71 2096.59,-68.52 2105,-67 2266.11,-37.83 2312.25,-56.21 2478.14,-30.99"/>
<polygon fill="midnightblue" stroke="midnightblue" points="2478.86,-34.42 2488.2,-29.43 2477.78,-27.51 2478.86,-34.42"/>
</g>
<!-- Node40 -->
<g id="node40" class="node">
<title>Node40</title>
<g id="a_node40"><a xlink:title=" ">
<polygon fill="none" stroke="#bfbfbf" points="2619.5,-6 2619.5,-25 2774.5,-25 2774.5,-6 2619.5,-6"/>
<text text-anchor="middle" x="2697" y="-13" font-family="Helvetica,sans-Serif" font-size="10.00">carta&#45;protobuf/scripting.pb.h</text>
</a>
</g>
</g>
<!-- Node18&#45;&gt;Node40 -->
<g id="edge40" class="edge">
<title>Node18&#45;&gt;Node40</title>
<path fill="none" stroke="midnightblue" d="M2078.8,-72.94C2087.15,-70.67 2096.38,-68.45 2105,-67 2327.33,-29.59 2387.14,-57.77 2611,-31 2620.81,-29.83 2631.21,-28.31 2641.25,-26.7"/>
<polygon fill="midnightblue" stroke="midnightblue" points="2641.85,-30.15 2651.15,-25.07 2640.71,-23.24 2641.85,-30.15"/>
</g>
<!-- Node41 -->
<g id="node41" class="node">
<title>Node41</title>
<g id="a_node41"><a xlink:title=" ">
<polygon fill="none" stroke="#bfbfbf" points="2793,-0.5 2793,-30.5 2897,-30.5 2897,-0.5 2793,-0.5"/>
<text text-anchor="start" x="2801" y="-18.5" font-family="Helvetica,sans-Serif" font-size="10.00">carta&#45;protobuf/set</text>
<text text-anchor="middle" x="2845" y="-7.5" font-family="Helvetica,sans-Serif" font-size="10.00">_cursor.pb.h</text>
</a>
</g>
</g>
<!-- Node18&#45;&gt;Node41 -->
<g id="edge41" class="edge">
<title>Node18&#45;&gt;Node41</title>
<path fill="none" stroke="midnightblue" d="M2078.23,-73C2086.73,-70.67 2096.18,-68.4 2105,-67 2400.1,-20.09 2483.03,-72.91 2782.58,-31.01"/>
<polygon fill="midnightblue" stroke="midnightblue" points="2783.47,-34.42 2792.88,-29.54 2782.48,-27.49 2783.47,-34.42"/>
</g>
<!-- Node42 -->
<g id="node42" class="node">
<title>Node42</title>
<g id="a_node42"><a xlink:title=" ">
<polygon fill="none" stroke="#bfbfbf" points="2915.5,-0.5 2915.5,-30.5 3040.5,-30.5 3040.5,-0.5 2915.5,-0.5"/>
<text text-anchor="start" x="2923.5" y="-18.5" font-family="Helvetica,sans-Serif" font-size="10.00">carta&#45;protobuf/set</text>
<text text-anchor="middle" x="2978" y="-7.5" font-family="Helvetica,sans-Serif" font-size="10.00">_image_channels.pb.h</text>
</a>
</g>
</g>
<!-- Node18&#45;&gt;Node42 -->
<g id="edge42" class="edge">
<title>Node18&#45;&gt;Node42</title>
<path fill="none" stroke="midnightblue" d="M2078.22,-72.95C2086.72,-70.62 2096.17,-68.37 2105,-67 2453.9,-12.98 2550.49,-73.17 2905.23,-30.94"/>
<polygon fill="midnightblue" stroke="midnightblue" points="2905.76,-34.4 2915.26,-29.73 2904.92,-27.45 2905.76,-34.4"/>
</g>
<!-- Node43 -->
<g id="node43" class="node">
<title>Node43</title>
<g id="a_node43"><a xlink:title=" ">
<polygon fill="none" stroke="#bfbfbf" points="3059,-0.5 3059,-30.5 3181,-30.5 3181,-0.5 3059,-0.5"/>
<text text-anchor="start" x="3067" y="-18.5" font-family="Helvetica,sans-Serif" font-size="10.00">carta&#45;protobuf/spatial</text>
<text text-anchor="middle" x="3120" y="-7.5" font-family="Helvetica,sans-Serif" font-size="10.00">_profile.pb.h</text>
</a>
</g>
</g>
<!-- Node18&#45;&gt;Node43 -->
<g id="edge43" class="edge">
<title>Node18&#45;&gt;Node43</title>
<path fill="none" stroke="midnightblue" d="M2077.94,-72.99C2086.51,-70.63 2096.07,-68.35 2105,-67 2517.22,-4.61 2630.95,-80.56 3048.4,-31.04"/>
<polygon fill="midnightblue" stroke="midnightblue" points="3049.13,-34.48 3058.64,-29.81 3048.29,-27.53 3049.13,-34.48"/>
</g>
<!-- Node44 -->
<g id="node44" class="node">
<title>Node44</title>
<g id="a_node44"><a xlink:title=" ">
<polygon fill="none" stroke="#bfbfbf" points="3199,-0.5 3199,-30.5 3327,-30.5 3327,-0.5 3199,-0.5"/>
<text text-anchor="start" x="3207" y="-18.5" font-family="Helvetica,sans-Serif" font-size="10.00">carta&#45;protobuf/spectral</text>
<text text-anchor="middle" x="3263" y="-7.5" font-family="Helvetica,sans-Serif" font-size="10.00">_profile.pb.h</text>
</a>
</g>
</g>
<!-- Node18&#45;&gt;Node44 -->
<g id="edge44" class="edge">
<title>Node18&#45;&gt;Node44</title>
<path fill="none" stroke="midnightblue" d="M2077.94,-72.97C2086.5,-70.61 2096.07,-68.33 2105,-67 2578.97,3.54 2708.91,-84.96 3189.03,-30.96"/>
<polygon fill="midnightblue" stroke="midnightblue" points="3189.46,-34.43 3199,-29.83 3188.67,-27.48 3189.46,-34.43"/>
</g>
<!-- Node45 -->
<g id="node45" class="node">
<title>Node45</title>
<g id="a_node45"><a xlink:title=" ">
<polygon fill="none" stroke="#bfbfbf" points="3345,-0.5 3345,-30.5 3457,-30.5 3457,-0.5 3345,-0.5"/>
<text text-anchor="start" x="3353" y="-18.5" font-family="Helvetica,sans-Serif" font-size="10.00">carta&#45;protobuf/stop</text>
<text text-anchor="middle" x="3401" y="-7.5" font-family="Helvetica,sans-Serif" font-size="10.00">_moment_calc.pb.h</text>
</a>
</g>
</g>
<!-- Node18&#45;&gt;Node45 -->
<g id="edge45" class="edge">
<title>Node18&#45;&gt;Node45</title>
<path fill="none" stroke="midnightblue" d="M2077.94,-72.95C2086.5,-70.58 2096.07,-68.31 2105,-67 2643.23,12.03 2791.08,-97.54 3334.68,-30.98"/>
<polygon fill="midnightblue" stroke="midnightblue" points="3335.25,-34.44 3344.74,-29.74 3334.39,-27.49 3335.25,-34.44"/>
</g>
<!-- Node46 -->
<g id="node46" class="node">
<title>Node46</title>
<g id="a_node46"><a xlink:title=" ">
<polygon fill="none" stroke="#bfbfbf" points="3475,-0.5 3475,-30.5 3585,-30.5 3585,-0.5 3475,-0.5"/>
<text text-anchor="start" x="3483" y="-18.5" font-family="Helvetica,sans-Serif" font-size="10.00">carta&#45;protobuf/stop</text>
<text text-anchor="middle" x="3530" y="-7.5" font-family="Helvetica,sans-Serif" font-size="10.00">_pv_calc.pb.h</text>
</a>
</g>
</g>
<!-- Node18&#45;&gt;Node46 -->
<g id="edge46" class="edge">
<title>Node18&#45;&gt;Node46</title>
<path fill="none" stroke="midnightblue" d="M2077.93,-72.93C2086.5,-70.57 2096.07,-68.3 2105,-67 2700.44,19.58 2863.76,-104.8 3464.74,-30.96"/>
<polygon fill="midnightblue" stroke="midnightblue" points="3465.47,-34.4 3474.96,-29.69 3464.61,-27.45 3465.47,-34.4"/>
</g>
<!-- Node47 -->
<g id="node47" class="node">
<title>Node47</title>
<g id="a_node47"><a xlink:title=" ">
<polygon fill="none" stroke="#bfbfbf" points="3603,-6 3603,-25 3737,-25 3737,-6 3603,-6"/>
<text text-anchor="middle" x="3670" y="-13" font-family="Helvetica,sans-Serif" font-size="10.00">carta&#45;protobuf/tiles.pb.h</text>
</a>
</g>
</g>
<!-- Node18&#45;&gt;Node47 -->
<g id="edge47" class="edge">
<title>Node18&#45;&gt;Node47</title>
<path fill="none" stroke="midnightblue" d="M2077.66,-72.99C2086.29,-70.6 2095.97,-68.3 2105,-67 2432.6,-19.75 3264.88,-66.13 3594,-31 3603.12,-30.03 3612.79,-28.54 3622.05,-26.88"/>
<polygon fill="midnightblue" stroke="midnightblue" points="3622.73,-30.32 3631.91,-25.04 3621.44,-23.44 3622.73,-30.32"/>
</g>
<!-- Node64&#45;&gt;Node11 -->
<g id="edge49" class="edge">
<title>Node64&#45;&gt;Node11</title>
<path fill="none" stroke="midnightblue" d="M1095.87,-72.89C1088.32,-70.55 1079.9,-68.31 1072,-67 848.47,-29.93 273.28,-84.07 53,-31 51.01,-30.52 48.99,-29.91 46.99,-29.2"/>
<polygon fill="midnightblue" stroke="midnightblue" points="47.9,-25.79 37.32,-25.15 45.19,-32.25 47.9,-25.79"/>
</g>
<!-- Node66&#45;&gt;Node2 -->
<g id="edge52" class="edge">
<title>Node66&#45;&gt;Node2</title>
<path fill="none" stroke="midnightblue" d="M2304.84,-262.87C2274.77,-252.95 2224.65,-236.41 2186.45,-223.81"/>
<polygon fill="midnightblue" stroke="midnightblue" points="2187.11,-220.34 2176.52,-220.53 2184.92,-226.99 2187.11,-220.34"/>
</g>
<!-- Node66&#45;&gt;Node3 -->
<g id="edge53" class="edge">
<title>Node66&#45;&gt;Node3</title>
<path fill="none" stroke="midnightblue" d="M2331.32,-262.93C2332.34,-235.64 2335.52,-150.05 2337.1,-107.71"/>
<polygon fill="midnightblue" stroke="midnightblue" points="2340.6,-107.83 2337.47,-97.7 2333.6,-107.57 2340.6,-107.83"/>
</g>
<!-- Node66&#45;&gt;Node22 -->
<g id="edge51" class="edge">
<title>Node66&#45;&gt;Node22</title>
<path fill="none" stroke="midnightblue" d="M2380.65,-262.97C2392.85,-260.95 2405.89,-258.84 2418,-257 3146.72,-146.18 3333.63,-150.33 4061,-31 4068.64,-29.75 4076.7,-28.32 4084.59,-26.87"/>
<polygon fill="midnightblue" stroke="midnightblue" points="4085.28,-30.3 4094.46,-25.02 4083.99,-23.42 4085.28,-30.3"/>
</g>
<!-- Node67 -->
<g id="node50" class="node">
<title>Node67</title>
<g id="a_node50"><a xlink:href="RegionHandler_8h.html" target="_top" xlink:title=" ">
<polygon fill="none" stroke="red" points="2212.5,-196 2212.5,-215 2309.5,-215 2309.5,-196 2212.5,-196"/>
<text text-anchor="middle" x="2261" y="-203" font-family="Helvetica,sans-Serif" font-size="10.00">RegionHandler.h</text>
</a>
</g>
</g>
<!-- Node66&#45;&gt;Node67 -->
<g id="edge54" class="edge">
<title>Node66&#45;&gt;Node67</title>
<path fill="none" stroke="midnightblue" d="M2321.56,-262.73C2310.33,-252.31 2291.38,-234.71 2277.66,-221.97"/>
<polygon fill="midnightblue" stroke="midnightblue" points="2280,-219.37 2270.29,-215.13 2275.24,-224.5 2280,-219.37"/>
</g>
<!-- Node67&#45;&gt;Node8 -->
<g id="edge56" class="edge">
<title>Node67&#45;&gt;Node8</title>
<path fill="none" stroke="midnightblue" d="M2229.84,-195.99C2221.2,-193.83 2211.77,-191.65 2203,-190 2089.95,-168.76 1954.68,-154.66 1888.88,-148.51"/>
<polygon fill="midnightblue" stroke="midnightblue" points="1888.83,-145 1878.56,-147.56 1888.19,-151.97 1888.83,-145"/>
</g>
<!-- Node67&#45;&gt;Node12 -->
<g id="edge55" class="edge">
<title>Node67&#45;&gt;Node12</title>
<path fill="none" stroke="midnightblue" d="M2257.04,-195.8C2248.09,-176.09 2226.1,-127.71 2214.11,-101.34"/>
<polygon fill="midnightblue" stroke="midnightblue" points="2217.24,-99.78 2209.92,-92.12 2210.87,-102.68 2217.24,-99.78"/>
</g>
</g>
</svg>
        <g id="navigator" transform="translate(0 0)" fill="#404254">
                <rect fill="#f2f5e9" fill-opacity="0.5" stroke="#606060" stroke-width=".5" x="0" y="0" width="60" height="60"/>
                <use id="zoomplus" xlink:href="#zoomPlus" x="17" y="9" onmousedown="handleZoom(evt,'in')"/>
                <use id="zoomminus" xlink:href="#zoomMin" x="42" y="9" onmousedown="handleZoom(evt,'out')"/>
                <use id="reset" xlink:href="#resetDef" x="30" y="36" onmousedown="handleReset()"/>
                <g id="arrowUp" xlink:href="#dirArrow" transform="translate(30 24)" onmousedown="handlePan(0,-1)">
                  <use xlink:href="#rim" fill="#404040">
                        <set attributeName="fill" to="#808080" begin="arrowUp.mouseover" end="arrowUp.mouseout"/>
                  </use>
                  <path fill="none" stroke="white" stroke-width="1.5" d="M0,-3.0v7 M-2.5,-0.5L0,-3.0L2.5,-0.5"/>
                </g>
                <g id="arrowRight" xlink:href="#dirArrow" transform="rotate(90) translate(36 -43)" onmousedown="handlePan(1,0)">
                  <use xlink:href="#rim" fill="#404040">
                        <set attributeName="fill" to="#808080" begin="arrowRight.mouseover" end="arrowRight.mouseout"/>
                  </use>
                  <path fill="none" stroke="white" stroke-width="1.5" d="M0,-3.0v7 M-2.5,-0.5L0,-3.0L2.5,-0.5"/>
                </g>
                <g id="arrowDown" xlink:href="#dirArrow" transform="rotate(180) translate(-30 -48)" onmousedown="handlePan(0,1)">
                  <use xlink:href="#rim" fill="#404040">
                        <set attributeName="fill" to="#808080" begin="arrowDown.mouseover" end="arrowDown.mouseout"/>
                  </use>
                  <path fill="none" stroke="white" stroke-width="1.5" d="M0,-3.0v7 M-2.5,-0.5L0,-3.0L2.5,-0.5"/>
                </g>
                <g id="arrowLeft" xlink:href="#dirArrow" transform="rotate(270) translate(-36 17)" onmousedown="handlePan(-1,0)">
                  <use xlink:href="#rim" fill="#404040">
                        <set attributeName="fill" to="#808080" begin="arrowLeft.mouseover" end="arrowLeft.mouseout"/>
                  </use>
                  <path fill="none" stroke="white" stroke-width="1.5" d="M0,-3.0v7 M-2.5,-0.5L0,-3.0L2.5,-0.5"/>
                </g>
        </g>
        <svg viewBox="0 0 15 15" width="100%" height="30px" preserveAspectRatio="xMaxYMin meet">
         <g id="arrow_out" transform="scale(0.3 0.3)">
          <a xlink:href="CrtfImportExport_8h__incl_org.svg" target="_base">
           <rect id="button" ry="5" rx="5" y="6" x="6" height="38" width="38"
                fill="#f2f5e9" fill-opacity="0.5" stroke="#606060" stroke-width="1.0"/>
           <path id="arrow"
             d="M 11.500037,31.436501 C 11.940474,20.09759 22.043105,11.32322 32.158766,21.979434 L 37.068811,17.246167 C 37.068811,17.246167 37.088388,32 37.088388,32 L 22.160133,31.978069 C 22.160133,31.978069 26.997745,27.140456 26.997745,27.140456 C 18.528582,18.264221 13.291696,25.230495 11.500037,31.436501 z"
             style="fill:#404040;"/>
          </a>
         </g>
        </svg>
</svg>
