<?xml version="1.0" encoding="UTF-8" standalone="no"?>
<!DOCTYPE svg PUBLIC "-//W3C//DTD SVG 1.1//EN"
 "http://www.w3.org/Graphics/SVG/1.1/DTD/svg11.dtd">
<!-- Generated by graphviz version 2.43.0 (0)
 -->
<!-- Title: DataStream Pages: 1 -->
<svg width="292pt" height="239pt"
 viewBox="0.00 0.00 292.00 239.00" xmlns="http://www.w3.org/2000/svg" xmlns:xlink="http://www.w3.org/1999/xlink">
<g id="graph0" class="graph" transform="scale(1 1) rotate(0) translate(4 235)">
<title>DataStream</title>
<g id="clust1" class="cluster">
<title>clusterdir_68267d1309a1af8e8297ef4c3efbcdba</title>
<g id="a_clust1"><a xlink:href="dir_68267d1309a1af8e8297ef4c3efbcdba.html" target="_top" xlink:title="src">
<polygon fill="#ddddee" stroke="black" points="8,-8 8,-223 276,-223 276,-8 8,-8"/>
<text text-anchor="middle" x="142" y="-211" font-family="Helvetica,sans-Serif" font-size="10.00">src</text>
</a>
</g>
</g>
<!-- dir_3e37c3eecdc42aac03248fab5c81cb58 -->
<g id="node1" class="node">
<title>dir_3e37c3eecdc42aac03248fab5c81cb58</title>
<g id="a_node1"><a xlink:href="dir_3e37c3eecdc42aac03248fab5c81cb58.html" target="_top" xlink:title="Util">
<polygon fill="none" stroke="black" points="158,-196 104,-196 104,-160 158,-160 158,-196"/>
<text text-anchor="middle" x="131" y="-175.5" font-family="Helvetica,sans-Serif" font-size="10.00">Util</text>
</a>
</g>
</g>
<!-- dir_ce44ad55c7286bf5a6cd8cf01717cab8 -->
<g id="node4" class="node">
<title>dir_ce44ad55c7286bf5a6cd8cf01717cab8</title>
<g id="a_node4"><a xlink:href="dir_ce44ad55c7286bf5a6cd8cf01717cab8.html" target="_top" xlink:title="Logger">
<polygon fill="none" stroke="black" points="70,-52 16,-52 16,-16 70,-16 70,-52"/>
<text text-anchor="middle" x="43" y="-31.5" font-family="Helvetica,sans-Serif" font-size="10.00">Logger</text>
</a>
</g>
</g>
<!-- dir_3e37c3eecdc42aac03248fab5c81cb58&#45;&gt;dir_ce44ad55c7286bf5a6cd8cf01717cab8 -->
<g id="edge8" class="edge">
<title>dir_3e37c3eecdc42aac03248fab5c81cb58&#45;&gt;dir_ce44ad55c7286bf5a6cd8cf01717cab8</title>
<path fill="none" stroke="black" d="M106.02,-159.83C95.66,-149.9 84.39,-136.86 76,-124 63.15,-104.29 51.97,-80.02 45.78,-61.81"/>
<polygon fill="black" stroke="black" points="49.09,-60.66 42.81,-52.13 42.4,-62.71 49.09,-60.66"/>
<g id="a_edge8&#45;headlabel"><a xlink:href="dir_000002_000017.html" target="_top" xlink:title="2">
<text text-anchor="middle" x="52.86" y="-60.77" font-family="Helvetica,sans-Serif" font-size="10.00">2</text>
</a>
</g>
</g>
<!-- dir_0998c90a54d993a36de89f408a4897e9 -->
<g id="node5" class="node">
<title>dir_0998c90a54d993a36de89f408a4897e9</title>
<g id="a_node5"><a xlink:href="dir_0998c90a54d993a36de89f408a4897e9.html" target="_top" xlink:title="DataStream">
<polygon fill="#eeeeff" stroke="black" points="168.5,-124 93.5,-124 93.5,-88 168.5,-88 168.5,-124"/>
<text text-anchor="middle" x="131" y="-103.5" font-family="Helvetica,sans-Serif" font-size="10.00">DataStream</text>
</a>
</g>
</g>
<!-- dir_3e37c3eecdc42aac03248fab5c81cb58&#45;&gt;dir_0998c90a54d993a36de89f408a4897e9 -->
<g id="edge7" class="edge">
<title>dir_3e37c3eecdc42aac03248fab5c81cb58&#45;&gt;dir_0998c90a54d993a36de89f408a4897e9</title>
<path fill="none" stroke="black" d="M125.08,-159.7C124.29,-151.98 124.06,-142.71 124.4,-134.11"/>
<polygon fill="black" stroke="black" points="127.9,-134.32 125.1,-124.1 120.92,-133.84 127.9,-134.32"/>
<g id="a_edge7&#45;headlabel"><a xlink:href="dir_000002_000006.html" target="_top" xlink:title="2">
<text text-anchor="middle" x="130.48" y="-135.61" font-family="Helvetica,sans-Serif" font-size="10.00">2</text>
</a>
</g>
</g>
<!-- dir_6acd24eea7f3fe579df422711269a2fc -->
<g id="node2" class="node">
<title>dir_6acd24eea7f3fe579df422711269a2fc</title>
<g id="a_node2"><a xlink:href="dir_6acd24eea7f3fe579df422711269a2fc.html" target="_top" xlink:title="Timer">
<polygon fill="none" stroke="black" points="268,-52 214,-52 214,-16 268,-16 268,-52"/>
<text text-anchor="middle" x="241" y="-31.5" font-family="Helvetica,sans-Serif" font-size="10.00">Timer</text>
</a>
</g>
</g>
<!-- dir_6acd24eea7f3fe579df422711269a2fc&#45;&gt;dir_3e37c3eecdc42aac03248fab5c81cb58 -->
<g id="edge2" class="edge">
<title>dir_6acd24eea7f3fe579df422711269a2fc&#45;&gt;dir_3e37c3eecdc42aac03248fab5c81cb58</title>
<path fill="none" stroke="black" d="M229.69,-52.13C217.48,-70.36 197.18,-99.83 178,-124 170.51,-133.44 161.87,-143.42 154.05,-152.14"/>
<polygon fill="black" stroke="black" points="151.28,-149.99 147.16,-159.75 156.47,-154.69 151.28,-149.99"/>
<g id="a_edge2&#45;headlabel"><a xlink:href="dir_000016_000002.html" target="_top" xlink:title="1">
<text text-anchor="middle" x="151.59" y="-142.92" font-family="Helvetica,sans-Serif" font-size="10.00">1</text>
</a>
</g>
</g>
<!-- dir_b7520bb4731d53e6cc1cfeab2144220b -->
<g id="node3" class="node">
<title>dir_b7520bb4731d53e6cc1cfeab2144220b</title>
<g id="a_node3"><a xlink:href="dir_b7520bb4731d53e6cc1cfeab2144220b.html" target="_top" xlink:title="ThreadingManager">
<polygon fill="none" stroke="black" points="196,-52 88,-52 88,-16 196,-16 196,-52"/>
<text text-anchor="middle" x="142" y="-31.5" font-family="Helvetica,sans-Serif" font-size="10.00">ThreadingManager</text>
</a>
</g>
</g>
<!-- dir_ce44ad55c7286bf5a6cd8cf01717cab8&#45;&gt;dir_3e37c3eecdc42aac03248fab5c81cb58 -->
<g id="edge1" class="edge">
<title>dir_ce44ad55c7286bf5a6cd8cf01717cab8&#45;&gt;dir_3e37c3eecdc42aac03248fab5c81cb58</title>
<path fill="none" stroke="black" d="M56.08,-52.13C65.76,-70.6 78.69,-100.53 94,-124 100.35,-133.74 108.37,-143.59 115.45,-152.11"/>
<polygon fill="black" stroke="black" points="112.79,-154.38 121.88,-159.83 118.17,-149.9 112.79,-154.38"/>
<g id="a_edge1&#45;headlabel"><a xlink:href="dir_000017_000002.html" target="_top" xlink:title="1">
<text text-anchor="middle" x="108.3" y="-150.94" font-family="Helvetica,sans-Serif" font-size="10.00">1</text>
</a>
</g>
</g>
<!-- dir_0998c90a54d993a36de89f408a4897e9&#45;&gt;dir_3e37c3eecdc42aac03248fab5c81cb58 -->
<g id="edge3" class="edge">
<title>dir_0998c90a54d993a36de89f408a4897e9&#45;&gt;dir_3e37c3eecdc42aac03248fab5c81cb58</title>
<path fill="none" stroke="black" d="M136.9,-124.1C137.7,-131.79 137.94,-141.05 137.6,-149.67"/>
<polygon fill="black" stroke="black" points="134.11,-149.48 136.92,-159.7 141.09,-149.96 134.11,-149.48"/>
<g id="a_edge3&#45;headlabel"><a xlink:href="dir_000006_000002.html" target="_top" xlink:title="2">
<text text-anchor="middle" x="131.52" y="-143.2" font-family="Helvetica,sans-Serif" font-size="10.00">2</text>
</a>
</g>
</g>
<!-- dir_0998c90a54d993a36de89f408a4897e9&#45;&gt;dir_6acd24eea7f3fe579df422711269a2fc -->
<g id="edge4" class="edge">
<title>dir_0998c90a54d993a36de89f408a4897e9&#45;&gt;dir_6acd24eea7f3fe579df422711269a2fc</title>
<path fill="none" stroke="black" d="M157.91,-87.88C172.16,-78.81 189.85,-67.55 205.24,-57.76"/>
<polygon fill="black" stroke="black" points="207.43,-60.51 213.99,-52.19 203.67,-54.61 207.43,-60.51"/>
<g id="a_edge4&#45;headlabel"><a xlink:href="dir_000006_000016.html" target="_top" xlink:title="2">
<text text-anchor="middle" x="205.92" y="-62.34" font-family="Helvetica,sans-Serif" font-size="10.00">2</text>
</a>
</g>
</g>
<!-- dir_0998c90a54d993a36de89f408a4897e9&#45;&gt;dir_b7520bb4731d53e6cc1cfeab2144220b -->
<g id="edge5" class="edge">
<title>dir_0998c90a54d993a36de89f408a4897e9&#45;&gt;dir_b7520bb4731d53e6cc1cfeab2144220b</title>
<path fill="none" stroke="black" d="M133.72,-87.7C134.93,-79.98 136.39,-70.71 137.74,-62.11"/>
<polygon fill="black" stroke="black" points="141.22,-62.53 139.31,-52.1 134.3,-61.44 141.22,-62.53"/>
<g id="a_edge5&#45;headlabel"><a xlink:href="dir_000006_000007.html" target="_top" xlink:title="2">
<text text-anchor="middle" x="143.46" y="-64.02" font-family="Helvetica,sans-Serif" font-size="10.00">2</text>
</a>
</g>
</g>
<!-- dir_0998c90a54d993a36de89f408a4897e9&#45;&gt;dir_ce44ad55c7286bf5a6cd8cf01717cab8 -->
<g id="edge6" class="edge">
<title>dir_0998c90a54d993a36de89f408a4897e9&#45;&gt;dir_ce44ad55c7286bf5a6cd8cf01717cab8</title>
<path fill="none" stroke="black" d="M109.25,-87.7C98.16,-78.88 84.53,-68.03 72.51,-58.47"/>
<polygon fill="black" stroke="black" points="74.51,-55.59 64.5,-52.1 70.15,-61.07 74.51,-55.59"/>
<g id="a_edge6&#45;headlabel"><a xlink:href="dir_000006_000017.html" target="_top" xlink:title="2">
<text text-anchor="middle" x="79.09" y="-53.11" font-family="Helvetica,sans-Serif" font-size="10.00">2</text>
</a>
</g>
</g>
</g>
</svg>
