<?xml version="1.0" encoding="UTF-8" standalone="no"?>
<!DOCTYPE svg PUBLIC "-//W3C//DTD SVG 1.1//EN"
 "http://www.w3.org/Graphics/SVG/1.1/DTD/svg11.dtd">
<!-- Generated by graphviz version 2.43.0 (0)
 -->
<!-- Title: Main Pages: 1 -->
<!--zoomable 455 -->
<svg id="main" version="1.1" xmlns="http://www.w3.org/2000/svg" xmlns:xlink="http://www.w3.org/1999/xlink" xml:space="preserve" onload="init(evt)">
<style type="text/css"><![CDATA[
.edge:hover path { stroke: red; }
.edge:hover polygon { stroke: red; fill: red; }
]]></style>
<script type="text/javascript"><![CDATA[
var edges = document.getElementsByTagName('g');
if (edges && edges.length) {
  for (var i=0;i<edges.length;i++) {
    if (edges[i].id.substr(0,4)=='edge') {
      edges[i].setAttribute('class','edge');
    }
  }
}
]]></script>
        <defs>
                <circle id="rim" cx="0" cy="0" r="7"/>
                <circle id="rim2" cx="0" cy="0" r="3.5"/>
                <g id="zoomPlus">
                        <use xlink:href="#rim" fill="#404040">
                                <set attributeName="fill" to="#808080" begin="zoomplus.mouseover" end="zoomplus.mouseout"/>
                        </use>
                        <path d="M-4,0h8M0,-4v8" fill="none" stroke="white" stroke-width="1.5" pointer-events="none"/>
                </g>
                <g id="zoomMin">
                        <use xlink:href="#rim" fill="#404040">
                                <set attributeName="fill" to="#808080" begin="zoomminus.mouseover" end="zoomminus.mouseout"/>
                        </use>
                        <path d="M-4,0h8" fill="none" stroke="white" stroke-width="1.5" pointer-events="none"/>
                </g>
                <g id="dirArrow">
                        <path fill="none" stroke="white" stroke-width="1.5" d="M0,-3.0v7 M-2.5,-0.5L0,-3.0L2.5,-0.5"/>
                </g>
               <g id="resetDef">
                       <use xlink:href="#rim2" fill="#404040">
                               <set attributeName="fill" to="#808080" begin="reset.mouseover" end="reset.mouseout"/>
                       </use>
               </g>
        </defs>

<script type="text/javascript">
var viewWidth = 250;
var viewHeight = 455;
var sectionId = 'dynsection-0';
</script>
<script xlink:href="svgpan.js"/>
<svg id="graph" class="graph">
<g id="viewport">
<title>Main</title>
<g id="clust1" class="cluster">
<title>clusterdir_68267d1309a1af8e8297ef4c3efbcdba</title>
<g id="a_clust1"><a xlink:href="dir_68267d1309a1af8e8297ef4c3efbcdba.html" target="_top" xlink:title="src">
<polygon fill="#ddddee" stroke="black" points="8,-8 8,-439 234,-439 234,-8 8,-8"/>
<text text-anchor="middle" x="121" y="-427" font-family="Helvetica,sans-Serif" font-size="10.00">src</text>
</a>
</g>
</g>
<!-- dir_3e37c3eecdc42aac03248fab5c81cb58 -->
<g id="node1" class="node">
<title>dir_3e37c3eecdc42aac03248fab5c81cb58</title>
<g id="a_node1"><a xlink:href="dir_3e37c3eecdc42aac03248fab5c81cb58.html" target="_top" xlink:title="Util">
<polygon fill="none" stroke="black" points="150,-412 96,-412 96,-376 150,-376 150,-412"/>
<text text-anchor="middle" x="123" y="-391.5" font-family="Helvetica,sans-Serif" font-size="10.00">Util</text>
</a>
</g>
</g>
<!-- dir_ce44ad55c7286bf5a6cd8cf01717cab8 -->
<g id="node5" class="node">
<title>dir_ce44ad55c7286bf5a6cd8cf01717cab8</title>
<g id="a_node5"><a xlink:href="dir_ce44ad55c7286bf5a6cd8cf01717cab8.html" target="_top" xlink:title="Logger">
<polygon fill="none" stroke="black" points="173,-340 119,-340 119,-304 173,-304 173,-340"/>
<text text-anchor="middle" x="146" y="-319.5" font-family="Helvetica,sans-Serif" font-size="10.00">Logger</text>
</a>
</g>
</g>
<!-- dir_3e37c3eecdc42aac03248fab5c81cb58&#45;&gt;dir_ce44ad55c7286bf5a6cd8cf01717cab8 -->
<g id="edge20" class="edge">
<title>dir_3e37c3eecdc42aac03248fab5c81cb58&#45;&gt;dir_ce44ad55c7286bf5a6cd8cf01717cab8</title>
<path fill="none" stroke="black" d="M122.77,-375.7C124.55,-367.81 127.45,-358.3 130.71,-349.55"/>
<polygon fill="black" stroke="black" points="134.02,-350.69 134.48,-340.1 127.52,-348.09 134.02,-350.69"/>
<g id="a_edge20&#45;headlabel"><a xlink:href="dir_000002_000005.html" target="_top" xlink:title="2">
<text text-anchor="middle" x="135.32" y="-352.58" font-family="Helvetica,sans-Serif" font-size="10.00">2</text>
</a>
</g>
</g>
<!-- dir_4a99f788295f63785f66ca2fd29b1a97 -->
<g id="node2" class="node">
<title>dir_4a99f788295f63785f66ca2fd29b1a97</title>
<g id="a_node2"><a xlink:href="dir_4a99f788295f63785f66ca2fd29b1a97.html" target="_top" xlink:title="HttpServer">
<polygon fill="none" stroke="black" points="145.5,-196 76.5,-196 76.5,-160 145.5,-160 145.5,-196"/>
<text text-anchor="middle" x="111" y="-175.5" font-family="Helvetica,sans-Serif" font-size="10.00">HttpServer</text>
</a>
</g>
</g>
<!-- dir_4a99f788295f63785f66ca2fd29b1a97&#45;&gt;dir_3e37c3eecdc42aac03248fab5c81cb58 -->
<g id="edge17" class="edge">
<title>dir_4a99f788295f63785f66ca2fd29b1a97&#45;&gt;dir_3e37c3eecdc42aac03248fab5c81cb58</title>
<path fill="none" stroke="black" d="M109.49,-196C107.19,-225.46 103.7,-287.83 110,-340 111.02,-348.47 112.93,-357.53 114.98,-365.72"/>
<polygon fill="black" stroke="black" points="111.64,-366.77 117.59,-375.53 118.4,-364.97 111.64,-366.77"/>
<g id="a_edge17&#45;headlabel"><a xlink:href="dir_000014_000002.html" target="_top" xlink:title="3">
<text text-anchor="middle" x="107.97" y="-361.52" font-family="Helvetica,sans-Serif" font-size="10.00">3</text>
</a>
</g>
</g>
<!-- dir_9e5f4f700648f094d7696494f79ac871 -->
<g id="node3" class="node">
<title>dir_9e5f4f700648f094d7696494f79ac871</title>
<g id="a_node3"><a xlink:href="dir_9e5f4f700648f094d7696494f79ac871.html" target="_top" xlink:title="Session">
<polygon fill="none" stroke="black" points="186,-124 132,-124 132,-88 186,-88 186,-124"/>
<text text-anchor="middle" x="159" y="-103.5" font-family="Helvetica,sans-Serif" font-size="10.00">Session</text>
</a>
</g>
</g>
<!-- dir_4a99f788295f63785f66ca2fd29b1a97&#45;&gt;dir_9e5f4f700648f094d7696494f79ac871 -->
<g id="edge18" class="edge">
<title>dir_4a99f788295f63785f66ca2fd29b1a97&#45;&gt;dir_9e5f4f700648f094d7696494f79ac871</title>
<path fill="none" stroke="black" d="M122.87,-159.7C128.5,-151.47 135.35,-141.48 141.57,-132.42"/>
<polygon fill="black" stroke="black" points="144.5,-134.33 147.27,-124.1 138.73,-130.37 144.5,-134.33"/>
<g id="a_edge18&#45;headlabel"><a xlink:href="dir_000014_000001.html" target="_top" xlink:title="1">
<text text-anchor="middle" x="144.81" y="-136.4" font-family="Helvetica,sans-Serif" font-size="10.00">1</text>
</a>
</g>
</g>
<!-- dir_4a99f788295f63785f66ca2fd29b1a97&#45;&gt;dir_ce44ad55c7286bf5a6cd8cf01717cab8 -->
<g id="edge19" class="edge">
<title>dir_4a99f788295f63785f66ca2fd29b1a97&#45;&gt;dir_ce44ad55c7286bf5a6cd8cf01717cab8</title>
<path fill="none" stroke="black" d="M115.24,-196.19C121.24,-220.53 132.27,-265.28 139.36,-294.06"/>
<polygon fill="black" stroke="black" points="135.99,-295 141.78,-303.87 142.78,-293.32 135.99,-295"/>
<g id="a_edge19&#45;headlabel"><a xlink:href="dir_000014_000005.html" target="_top" xlink:title="1">
<text text-anchor="middle" x="132.37" y="-289.69" font-family="Helvetica,sans-Serif" font-size="10.00">1</text>
</a>
</g>
</g>
<!-- dir_9e5f4f700648f094d7696494f79ac871&#45;&gt;dir_3e37c3eecdc42aac03248fab5c81cb58 -->
<g id="edge12" class="edge">
<title>dir_9e5f4f700648f094d7696494f79ac871&#45;&gt;dir_3e37c3eecdc42aac03248fab5c81cb58</title>
<path fill="none" stroke="black" d="M131.71,-114.66C110.18,-122.3 81.58,-136.38 68,-160 28.86,-228.1 77.48,-322.63 105.62,-367.46"/>
<polygon fill="black" stroke="black" points="102.75,-369.47 111.11,-375.99 108.64,-365.68 102.75,-369.47"/>
<g id="a_edge12&#45;headlabel"><a xlink:href="dir_000001_000002.html" target="_top" xlink:title="7">
<text text-anchor="middle" x="98.42" y="-365.48" font-family="Helvetica,sans-Serif" font-size="10.00">7</text>
</a>
</g>
</g>
<!-- dir_b7520bb4731d53e6cc1cfeab2144220b -->
<g id="node4" class="node">
<title>dir_b7520bb4731d53e6cc1cfeab2144220b</title>
<g id="a_node4"><a xlink:href="dir_b7520bb4731d53e6cc1cfeab2144220b.html" target="_top" xlink:title="ThreadingManager">
<polygon fill="none" stroke="black" points="213,-52 105,-52 105,-16 213,-16 213,-52"/>
<text text-anchor="middle" x="159" y="-31.5" font-family="Helvetica,sans-Serif" font-size="10.00">ThreadingManager</text>
</a>
</g>
</g>
<!-- dir_9e5f4f700648f094d7696494f79ac871&#45;&gt;dir_b7520bb4731d53e6cc1cfeab2144220b -->
<g id="edge14" class="edge">
<title>dir_9e5f4f700648f094d7696494f79ac871&#45;&gt;dir_b7520bb4731d53e6cc1cfeab2144220b</title>
<path fill="none" stroke="black" d="M153.08,-87.7C152.29,-79.98 152.06,-70.71 152.4,-62.11"/>
<polygon fill="black" stroke="black" points="155.9,-62.32 153.1,-52.1 148.92,-61.84 155.9,-62.32"/>
<g id="a_edge14&#45;headlabel"><a xlink:href="dir_000001_000008.html" target="_top" xlink:title="5">
<text text-anchor="middle" x="158.48" y="-63.61" font-family="Helvetica,sans-Serif" font-size="10.00">5</text>
</a>
</g>
</g>
<!-- dir_9e5f4f700648f094d7696494f79ac871&#45;&gt;dir_ce44ad55c7286bf5a6cd8cf01717cab8 -->
<g id="edge15" class="edge">
<title>dir_9e5f4f700648f094d7696494f79ac871&#45;&gt;dir_ce44ad55c7286bf5a6cd8cf01717cab8</title>
<path fill="none" stroke="black" d="M158.37,-124.07C157.68,-141.99 156.46,-170.99 155,-196 153.03,-229.64 150.15,-268.33 148.18,-293.64"/>
<polygon fill="black" stroke="black" points="144.69,-293.38 147.4,-303.62 151.67,-293.92 144.69,-293.38"/>
<g id="a_edge15&#45;headlabel"><a xlink:href="dir_000001_000005.html" target="_top" xlink:title="2">
<text text-anchor="middle" x="142.14" y="-287.07" font-family="Helvetica,sans-Serif" font-size="10.00">2</text>
</a>
</g>
</g>
<!-- dir_d7c1a41e6ede079177d4adf392ad6b40 -->
<g id="node6" class="node">
<title>dir_d7c1a41e6ede079177d4adf392ad6b40</title>
<g id="a_node6"><a xlink:href="dir_d7c1a41e6ede079177d4adf392ad6b40.html" target="_top" xlink:title="FileList">
<polygon fill="none" stroke="black" points="79,-52 25,-52 25,-16 79,-16 79,-52"/>
<text text-anchor="middle" x="52" y="-31.5" font-family="Helvetica,sans-Serif" font-size="10.00">FileList</text>
</a>
</g>
</g>
<!-- dir_9e5f4f700648f094d7696494f79ac871&#45;&gt;dir_d7c1a41e6ede079177d4adf392ad6b40 -->
<g id="edge16" class="edge">
<title>dir_9e5f4f700648f094d7696494f79ac871&#45;&gt;dir_d7c1a41e6ede079177d4adf392ad6b40</title>
<path fill="none" stroke="black" d="M132.82,-87.88C118.96,-78.81 101.76,-67.55 86.79,-57.76"/>
<polygon fill="black" stroke="black" points="88.56,-54.74 78.28,-52.19 84.73,-60.59 88.56,-54.74"/>
<g id="a_edge16&#45;headlabel"><a xlink:href="dir_000001_000012.html" target="_top" xlink:title="4">
<text text-anchor="middle" x="93.12" y="-51.83" font-family="Helvetica,sans-Serif" font-size="10.00">4</text>
</a>
</g>
</g>
<!-- dir_4bb77202a85366e5a69049a6555c5ad7 -->
<g id="node7" class="node">
<title>dir_4bb77202a85366e5a69049a6555c5ad7</title>
<g id="a_node7"><a xlink:href="dir_4bb77202a85366e5a69049a6555c5ad7.html" target="_top" xlink:title="Main">
<polygon fill="#eeeeff" stroke="black" points="219,-268 165,-268 165,-232 219,-232 219,-268"/>
<text text-anchor="middle" x="192" y="-247.5" font-family="Helvetica,sans-Serif" font-size="10.00">Main</text>
</a>
</g>
</g>
<!-- dir_9e5f4f700648f094d7696494f79ac871&#45;&gt;dir_4bb77202a85366e5a69049a6555c5ad7 -->
<g id="edge13" class="edge">
<title>dir_9e5f4f700648f094d7696494f79ac871&#45;&gt;dir_4bb77202a85366e5a69049a6555c5ad7</title>
<path fill="none" stroke="black" d="M167.59,-124.19C175.77,-148.42 186.39,-192.89 191.1,-221.68"/>
<polygon fill="black" stroke="black" points="187.69,-222.49 192.6,-231.87 194.61,-221.47 187.69,-222.49"/>
<g id="a_edge13&#45;headlabel"><a xlink:href="dir_000001_000019.html" target="_top" xlink:title="2">
<text text-anchor="middle" x="184.35" y="-216.84" font-family="Helvetica,sans-Serif" font-size="10.00">2</text>
</a>
</g>
</g>
<!-- dir_b7520bb4731d53e6cc1cfeab2144220b&#45;&gt;dir_9e5f4f700648f094d7696494f79ac871 -->
<g id="edge11" class="edge">
<title>dir_b7520bb4731d53e6cc1cfeab2144220b&#45;&gt;dir_9e5f4f700648f094d7696494f79ac871</title>
<path fill="none" stroke="black" d="M164.9,-52.1C165.7,-59.79 165.94,-69.05 165.6,-77.67"/>
<polygon fill="black" stroke="black" points="162.11,-77.48 164.92,-87.7 169.09,-77.96 162.11,-77.48"/>
<g id="a_edge11&#45;headlabel"><a xlink:href="dir_000008_000001.html" target="_top" xlink:title="1">
<text text-anchor="middle" x="159.52" y="-71.2" font-family="Helvetica,sans-Serif" font-size="10.00">1</text>
</a>
</g>
</g>
<!-- dir_ce44ad55c7286bf5a6cd8cf01717cab8&#45;&gt;dir_3e37c3eecdc42aac03248fab5c81cb58 -->
<g id="edge7" class="edge">
<title>dir_ce44ad55c7286bf5a6cd8cf01717cab8&#45;&gt;dir_3e37c3eecdc42aac03248fab5c81cb58</title>
<path fill="none" stroke="black" d="M146.28,-340.1C144.52,-347.96 141.62,-357.46 138.38,-366.23"/>
<polygon fill="black" stroke="black" points="135.06,-365.11 134.6,-375.7 141.56,-367.71 135.06,-365.11"/>
<g id="a_edge7&#45;headlabel"><a xlink:href="dir_000005_000002.html" target="_top" xlink:title="1">
<text text-anchor="middle" x="133.75" y="-358.22" font-family="Helvetica,sans-Serif" font-size="10.00">1</text>
</a>
</g>
</g>
<!-- dir_ce44ad55c7286bf5a6cd8cf01717cab8&#45;&gt;dir_4bb77202a85366e5a69049a6555c5ad7 -->
<g id="edge8" class="edge">
<title>dir_ce44ad55c7286bf5a6cd8cf01717cab8&#45;&gt;dir_4bb77202a85366e5a69049a6555c5ad7</title>
<path fill="none" stroke="black" d="M151.46,-303.7C156.01,-295.47 162.37,-285.48 168.77,-276.42"/>
<polygon fill="black" stroke="black" points="171.78,-278.24 174.86,-268.1 166.13,-274.1 171.78,-278.24"/>
<g id="a_edge8&#45;headlabel"><a xlink:href="dir_000005_000019.html" target="_top" xlink:title="1">
<text text-anchor="middle" x="171.95" y="-280.32" font-family="Helvetica,sans-Serif" font-size="10.00">1</text>
</a>
</g>
</g>
<!-- dir_d7c1a41e6ede079177d4adf392ad6b40&#45;&gt;dir_3e37c3eecdc42aac03248fab5c81cb58 -->
<g id="edge9" class="edge">
<title>dir_d7c1a41e6ede079177d4adf392ad6b40&#45;&gt;dir_3e37c3eecdc42aac03248fab5c81cb58</title>
<path fill="none" stroke="black" d="M44.92,-52.15C34.69,-78.51 17,-130.79 17,-177 17,-251 17,-251 17,-251 17,-300.7 59.22,-344.23 90.37,-369.58"/>
<polygon fill="black" stroke="black" points="88.4,-372.48 98.42,-375.93 92.73,-366.99 88.4,-372.48"/>
<g id="a_edge9&#45;headlabel"><a xlink:href="dir_000012_000002.html" target="_top" xlink:title="9">
<text text-anchor="middle" x="83.82" y="-369.98" font-family="Helvetica,sans-Serif" font-size="10.00">9</text>
</a>
</g>
</g>
<!-- dir_d7c1a41e6ede079177d4adf392ad6b40&#45;&gt;dir_ce44ad55c7286bf5a6cd8cf01717cab8 -->
<g id="edge10" class="edge">
<title>dir_d7c1a41e6ede079177d4adf392ad6b40&#45;&gt;dir_ce44ad55c7286bf5a6cd8cf01717cab8</title>
<path fill="none" stroke="black" d="M51.18,-52.46C50.32,-82.62 50.96,-146.02 68,-196 80.84,-233.69 106.9,-271.75 125.36,-295.81"/>
<polygon fill="black" stroke="black" points="122.62,-297.99 131.54,-303.71 128.14,-293.67 122.62,-297.99"/>
<g id="a_edge10&#45;headlabel"><a xlink:href="dir_000012_000005.html" target="_top" xlink:title="3">
<text text-anchor="middle" x="118.17" y="-294.4" font-family="Helvetica,sans-Serif" font-size="10.00">3</text>
</a>
</g>
</g>
<!-- dir_4bb77202a85366e5a69049a6555c5ad7&#45;&gt;dir_3e37c3eecdc42aac03248fab5c81cb58 -->
<g id="edge1" class="edge">
<title>dir_4bb77202a85366e5a69049a6555c5ad7&#45;&gt;dir_3e37c3eecdc42aac03248fab5c81cb58</title>
<path fill="none" stroke="black" d="M193.56,-268.1C194.5,-286.81 193.74,-317.19 182,-340 176.19,-351.29 166.91,-361.32 157.42,-369.53"/>
<polygon fill="black" stroke="black" points="155.02,-366.97 149.47,-375.99 159.44,-372.4 155.02,-366.97"/>
<g id="a_edge1&#45;headlabel"><a xlink:href="dir_000019_000002.html" target="_top" xlink:title="7">
<text text-anchor="middle" x="156.02" y="-360" font-family="Helvetica,sans-Serif" font-size="10.00">7</text>
</a>
</g>
</g>
<!-- dir_4bb77202a85366e5a69049a6555c5ad7&#45;&gt;dir_4a99f788295f63785f66ca2fd29b1a97 -->
<g id="edge2" class="edge">
<title>dir_4bb77202a85366e5a69049a6555c5ad7&#45;&gt;dir_4a99f788295f63785f66ca2fd29b1a97</title>
<path fill="none" stroke="black" d="M171.98,-231.7C161.87,-222.97 149.46,-212.24 138.48,-202.75"/>
<polygon fill="black" stroke="black" points="140.65,-199.99 130.79,-196.1 136.07,-205.29 140.65,-199.99"/>
<g id="a_edge2&#45;headlabel"><a xlink:href="dir_000019_000014.html" target="_top" xlink:title="1">
<text text-anchor="middle" x="145.22" y="-197.7" font-family="Helvetica,sans-Serif" font-size="10.00">1</text>
</a>
</g>
</g>
<!-- dir_4bb77202a85366e5a69049a6555c5ad7&#45;&gt;dir_9e5f4f700648f094d7696494f79ac871 -->
<g id="edge3" class="edge">
<title>dir_4bb77202a85366e5a69049a6555c5ad7&#45;&gt;dir_9e5f4f700648f094d7696494f79ac871</title>
<path fill="none" stroke="black" d="M183.43,-231.87C175.25,-207.67 164.63,-163.21 159.91,-134.39"/>
<polygon fill="black" stroke="black" points="163.32,-133.57 158.4,-124.19 156.4,-134.59 163.32,-133.57"/>
<g id="a_edge3&#45;headlabel"><a xlink:href="dir_000019_000001.html" target="_top" xlink:title="1">
<text text-anchor="middle" x="166.66" y="-134.21" font-family="Helvetica,sans-Serif" font-size="10.00">1</text>
</a>
</g>
</g>
<!-- dir_4bb77202a85366e5a69049a6555c5ad7&#45;&gt;dir_b7520bb4731d53e6cc1cfeab2144220b -->
<g id="edge4" class="edge">
<title>dir_4bb77202a85366e5a69049a6555c5ad7&#45;&gt;dir_b7520bb4731d53e6cc1cfeab2144220b</title>
<path fill="none" stroke="black" d="M199.14,-231.82C210.59,-201.56 229.87,-137.3 210,-88 205.65,-77.21 197.94,-67.39 189.81,-59.21"/>
<polygon fill="black" stroke="black" points="192,-56.46 182.3,-52.18 187.21,-61.57 192,-56.46"/>
<g id="a_edge4&#45;headlabel"><a xlink:href="dir_000019_000008.html" target="_top" xlink:title="1">
<text text-anchor="middle" x="196.56" y="-54.35" font-family="Helvetica,sans-Serif" font-size="10.00">1</text>
</a>
</g>
</g>
<!-- dir_4bb77202a85366e5a69049a6555c5ad7&#45;&gt;dir_ce44ad55c7286bf5a6cd8cf01717cab8 -->
<g id="edge5" class="edge">
<title>dir_4bb77202a85366e5a69049a6555c5ad7&#45;&gt;dir_ce44ad55c7286bf5a6cd8cf01717cab8</title>
<path fill="none" stroke="black" d="M186.66,-268.1C182.13,-276.3 175.78,-286.28 169.38,-295.36"/>
<polygon fill="black" stroke="black" points="166.36,-293.56 163.29,-303.7 172.01,-297.69 166.36,-293.56"/>
<g id="a_edge5&#45;headlabel"><a xlink:href="dir_000019_000005.html" target="_top" xlink:title="4">
<text text-anchor="middle" x="166.19" y="-286.48" font-family="Helvetica,sans-Serif" font-size="10.00">4</text>
</a>
</g>
</g>
<!-- dir_4bb77202a85366e5a69049a6555c5ad7&#45;&gt;dir_d7c1a41e6ede079177d4adf392ad6b40 -->
<g id="edge6" class="edge">
<title>dir_4bb77202a85366e5a69049a6555c5ad7&#45;&gt;dir_d7c1a41e6ede079177d4adf392ad6b40</title>
<path fill="none" stroke="black" d="M194.75,-232C200.29,-195.43 210.96,-110.78 195,-88 168.14,-49.65 139.84,-68.44 96,-52 93.65,-51.12 91.24,-50.21 88.8,-49.28"/>
<polygon fill="black" stroke="black" points="90.02,-46 79.43,-45.69 87.52,-52.54 90.02,-46"/>
<g id="a_edge6&#45;headlabel"><a xlink:href="dir_000019_000012.html" target="_top" xlink:title="1">
<text text-anchor="middle" x="94.39" y="-42.13" font-family="Helvetica,sans-Serif" font-size="10.00">1</text>
</a>
</g>
</g>
</g>
</svg>
        <g id="navigator" transform="translate(0 0)" fill="#404254">
                <rect fill="#f2f5e9" fill-opacity="0.5" stroke="#606060" stroke-width=".5" x="0" y="0" width="60" height="60"/>
                <use id="zoomplus" xlink:href="#zoomPlus" x="17" y="9" onmousedown="handleZoom(evt,'in')"/>
                <use id="zoomminus" xlink:href="#zoomMin" x="42" y="9" onmousedown="handleZoom(evt,'out')"/>
                <use id="reset" xlink:href="#resetDef" x="30" y="36" onmousedown="handleReset()"/>
                <g id="arrowUp" xlink:href="#dirArrow" transform="translate(30 24)" onmousedown="handlePan(0,-1)">
                  <use xlink:href="#rim" fill="#404040">
                        <set attributeName="fill" to="#808080" begin="arrowUp.mouseover" end="arrowUp.mouseout"/>
                  </use>
                  <path fill="none" stroke="white" stroke-width="1.5" d="M0,-3.0v7 M-2.5,-0.5L0,-3.0L2.5,-0.5"/>
                </g>
                <g id="arrowRight" xlink:href="#dirArrow" transform="rotate(90) translate(36 -43)" onmousedown="handlePan(1,0)">
                  <use xlink:href="#rim" fill="#404040">
                        <set attributeName="fill" to="#808080" begin="arrowRight.mouseover" end="arrowRight.mouseout"/>
                  </use>
                  <path fill="none" stroke="white" stroke-width="1.5" d="M0,-3.0v7 M-2.5,-0.5L0,-3.0L2.5,-0.5"/>
                </g>
                <g id="arrowDown" xlink:href="#dirArrow" transform="rotate(180) translate(-30 -48)" onmousedown="handlePan(0,1)">
                  <use xlink:href="#rim" fill="#404040">
                        <set attributeName="fill" to="#808080" begin="arrowDown.mouseover" end="arrowDown.mouseout"/>
                  </use>
                  <path fill="none" stroke="white" stroke-width="1.5" d="M0,-3.0v7 M-2.5,-0.5L0,-3.0L2.5,-0.5"/>
                </g>
                <g id="arrowLeft" xlink:href="#dirArrow" transform="rotate(270) translate(-36 17)" onmousedown="handlePan(-1,0)">
                  <use xlink:href="#rim" fill="#404040">
                        <set attributeName="fill" to="#808080" begin="arrowLeft.mouseover" end="arrowLeft.mouseout"/>
                  </use>
                  <path fill="none" stroke="white" stroke-width="1.5" d="M0,-3.0v7 M-2.5,-0.5L0,-3.0L2.5,-0.5"/>
                </g>
        </g>
        <svg viewBox="0 0 15 15" width="100%" height="30px" preserveAspectRatio="xMaxYMin meet">
         <g id="arrow_out" transform="scale(0.3 0.3)">
          <a xlink:href="dir_4bb77202a85366e5a69049a6555c5ad7_dep_org.svg" target="_base">
           <rect id="button" ry="5" rx="5" y="6" x="6" height="38" width="38"
                fill="#f2f5e9" fill-opacity="0.5" stroke="#606060" stroke-width="1.0"/>
           <path id="arrow"
             d="M 11.500037,31.436501 C 11.940474,20.09759 22.043105,11.32322 32.158766,21.979434 L 37.068811,17.246167 C 37.068811,17.246167 37.088388,32 37.088388,32 L 22.160133,31.978069 C 22.160133,31.978069 26.997745,27.140456 26.997745,27.140456 C 18.528582,18.264221 13.291696,25.230495 11.500037,31.436501 z"
             style="fill:#404040;"/>
          </a>
         </g>
        </svg>
</svg>
