<?xml version="1.0" encoding="UTF-8" standalone="no"?>
<!DOCTYPE svg PUBLIC "-//W3C//DTD SVG 1.1//EN"
 "http://www.w3.org/Graphics/SVG/1.1/DTD/svg11.dtd">
<!-- Generated by graphviz version 2.43.0 (0)
 -->
<!-- Title: Region Pages: 1 -->
<!--zoomable 527 -->
<svg id="main" version="1.1" xmlns="http://www.w3.org/2000/svg" xmlns:xlink="http://www.w3.org/1999/xlink" xml:space="preserve" onload="init(evt)">
<style type="text/css"><![CDATA[
.edge:hover path { stroke: red; }
.edge:hover polygon { stroke: red; fill: red; }
]]></style>
<script type="text/javascript"><![CDATA[
var edges = document.getElementsByTagName('g');
if (edges && edges.length) {
  for (var i=0;i<edges.length;i++) {
    if (edges[i].id.substr(0,4)=='edge') {
      edges[i].setAttribute('class','edge');
    }
  }
}
]]></script>
        <defs>
                <circle id="rim" cx="0" cy="0" r="7"/>
                <circle id="rim2" cx="0" cy="0" r="3.5"/>
                <g id="zoomPlus">
                        <use xlink:href="#rim" fill="#404040">
                                <set attributeName="fill" to="#808080" begin="zoomplus.mouseover" end="zoomplus.mouseout"/>
                        </use>
                        <path d="M-4,0h8M0,-4v8" fill="none" stroke="white" stroke-width="1.5" pointer-events="none"/>
                </g>
                <g id="zoomMin">
                        <use xlink:href="#rim" fill="#404040">
                                <set attributeName="fill" to="#808080" begin="zoomminus.mouseover" end="zoomminus.mouseout"/>
                        </use>
                        <path d="M-4,0h8" fill="none" stroke="white" stroke-width="1.5" pointer-events="none"/>
                </g>
                <g id="dirArrow">
                        <path fill="none" stroke="white" stroke-width="1.5" d="M0,-3.0v7 M-2.5,-0.5L0,-3.0L2.5,-0.5"/>
                </g>
               <g id="resetDef">
                       <use xlink:href="#rim2" fill="#404040">
                               <set attributeName="fill" to="#808080" begin="reset.mouseover" end="reset.mouseout"/>
                       </use>
               </g>
        </defs>

<script type="text/javascript">
var viewWidth = 346;
var viewHeight = 527;
var sectionId = 'dynsection-0';
</script>
<script xlink:href="svgpan.js"/>
<svg id="graph" class="graph">
<g id="viewport">
<title>Region</title>
<g id="clust1" class="cluster">
<title>clusterdir_68267d1309a1af8e8297ef4c3efbcdba</title>
<g id="a_clust1"><a xlink:href="dir_68267d1309a1af8e8297ef4c3efbcdba.html" target="_top" xlink:title="src">
<polygon fill="#ddddee" stroke="black" points="8,-8 8,-511 330,-511 330,-8 8,-8"/>
<text text-anchor="middle" x="169" y="-499" font-family="Helvetica,sans-Serif" font-size="10.00">src</text>
</a>
</g>
</g>
<!-- dir_08d68200e36948d117cb679b82d752e3 -->
<g id="node1" class="node">
<title>dir_08d68200e36948d117cb679b82d752e3</title>
<g id="a_node1"><a xlink:href="dir_08d68200e36948d117cb679b82d752e3.html" target="_top" xlink:title="Cache">
<polygon fill="none" stroke="black" points="262,-268 208,-268 208,-232 262,-232 262,-268"/>
<text text-anchor="middle" x="235" y="-247.5" font-family="Helvetica,sans-Serif" font-size="10.00">Cache</text>
</a>
</g>
</g>
<!-- dir_3e37c3eecdc42aac03248fab5c81cb58 -->
<g id="node2" class="node">
<title>dir_3e37c3eecdc42aac03248fab5c81cb58</title>
<g id="a_node2"><a xlink:href="dir_3e37c3eecdc42aac03248fab5c81cb58.html" target="_top" xlink:title="Util">
<polygon fill="none" stroke="black" points="150,-196 96,-196 96,-160 150,-160 150,-196"/>
<text text-anchor="middle" x="123" y="-175.5" font-family="Helvetica,sans-Serif" font-size="10.00">Util</text>
</a>
</g>
</g>
<!-- dir_08d68200e36948d117cb679b82d752e3&#45;&gt;dir_3e37c3eecdc42aac03248fab5c81cb58 -->
<g id="edge1" class="edge">
<title>dir_08d68200e36948d117cb679b82d752e3&#45;&gt;dir_3e37c3eecdc42aac03248fab5c81cb58</title>
<path fill="none" stroke="black" d="M207.89,-232.05C193.14,-222.84 174.71,-211.32 158.79,-201.37"/>
<polygon fill="black" stroke="black" points="160.59,-198.36 150.25,-196.03 156.88,-204.3 160.59,-198.36"/>
<g id="a_edge1&#45;headlabel"><a xlink:href="dir_000019_000002.html" target="_top" xlink:title="3">
<text text-anchor="middle" x="165.14" y="-195.36" font-family="Helvetica,sans-Serif" font-size="10.00">3</text>
</a>
</g>
</g>
<!-- dir_d9b5cabedc73050ebee44a9601fc76bc -->
<g id="node7" class="node">
<title>dir_d9b5cabedc73050ebee44a9601fc76bc</title>
<g id="a_node7"><a xlink:href="dir_d9b5cabedc73050ebee44a9601fc76bc.html" target="_top" xlink:title="ImageStats">
<polygon fill="none" stroke="black" points="220,-124 148,-124 148,-88 220,-88 220,-124"/>
<text text-anchor="middle" x="184" y="-103.5" font-family="Helvetica,sans-Serif" font-size="10.00">ImageStats</text>
</a>
</g>
</g>
<!-- dir_08d68200e36948d117cb679b82d752e3&#45;&gt;dir_d9b5cabedc73050ebee44a9601fc76bc -->
<g id="edge2" class="edge">
<title>dir_08d68200e36948d117cb679b82d752e3&#45;&gt;dir_d9b5cabedc73050ebee44a9601fc76bc</title>
<path fill="none" stroke="black" d="M228.85,-231.87C220.08,-207.46 203.91,-162.43 193.57,-133.64"/>
<polygon fill="black" stroke="black" points="196.85,-132.42 190.17,-124.19 190.26,-134.78 196.85,-132.42"/>
<g id="a_edge2&#45;headlabel"><a xlink:href="dir_000019_000003.html" target="_top" xlink:title="2">
<text text-anchor="middle" x="200.73" y="-132.34" font-family="Helvetica,sans-Serif" font-size="10.00">2</text>
</a>
</g>
</g>
<!-- dir_ce44ad55c7286bf5a6cd8cf01717cab8 -->
<g id="node6" class="node">
<title>dir_ce44ad55c7286bf5a6cd8cf01717cab8</title>
<g id="a_node6"><a xlink:href="dir_ce44ad55c7286bf5a6cd8cf01717cab8.html" target="_top" xlink:title="Logger">
<polygon fill="none" stroke="black" points="186,-52 132,-52 132,-16 186,-16 186,-52"/>
<text text-anchor="middle" x="159" y="-31.5" font-family="Helvetica,sans-Serif" font-size="10.00">Logger</text>
</a>
</g>
</g>
<!-- dir_3e37c3eecdc42aac03248fab5c81cb58&#45;&gt;dir_ce44ad55c7286bf5a6cd8cf01717cab8 -->
<g id="edge24" class="edge">
<title>dir_3e37c3eecdc42aac03248fab5c81cb58&#45;&gt;dir_ce44ad55c7286bf5a6cd8cf01717cab8</title>
<path fill="none" stroke="black" d="M118.43,-159.73C118.62,-141.64 123.23,-112.52 130,-88 132.41,-79.28 135.67,-69.98 139.27,-61.65"/>
<polygon fill="black" stroke="black" points="142.54,-62.94 143.64,-52.4 136.21,-59.95 142.54,-62.94"/>
<g id="a_edge24&#45;headlabel"><a xlink:href="dir_000002_000017.html" target="_top" xlink:title="2">
<text text-anchor="middle" x="143.57" y="-64.9" font-family="Helvetica,sans-Serif" font-size="10.00">2</text>
</a>
</g>
</g>
<!-- dir_3e37c3eecdc42aac03248fab5c81cb58&#45;&gt;dir_d9b5cabedc73050ebee44a9601fc76bc -->
<g id="edge25" class="edge">
<title>dir_3e37c3eecdc42aac03248fab5c81cb58&#45;&gt;dir_d9b5cabedc73050ebee44a9601fc76bc</title>
<path fill="none" stroke="black" d="M138.08,-159.7C145.39,-151.3 154.31,-141.07 162.34,-131.86"/>
<polygon fill="black" stroke="black" points="165.16,-133.94 169.09,-124.1 159.89,-129.34 165.16,-133.94"/>
<g id="a_edge25&#45;headlabel"><a xlink:href="dir_000002_000003.html" target="_top" xlink:title="2">
<text text-anchor="middle" x="164.94" y="-136.02" font-family="Helvetica,sans-Serif" font-size="10.00">2</text>
</a>
</g>
</g>
<!-- dir_6acd24eea7f3fe579df422711269a2fc -->
<g id="node3" class="node">
<title>dir_6acd24eea7f3fe579df422711269a2fc</title>
<g id="a_node3"><a xlink:href="dir_6acd24eea7f3fe579df422711269a2fc.html" target="_top" xlink:title="Timer">
<polygon fill="none" stroke="black" points="130,-268 76,-268 76,-232 130,-232 130,-268"/>
<text text-anchor="middle" x="103" y="-247.5" font-family="Helvetica,sans-Serif" font-size="10.00">Timer</text>
</a>
</g>
</g>
<!-- dir_6acd24eea7f3fe579df422711269a2fc&#45;&gt;dir_3e37c3eecdc42aac03248fab5c81cb58 -->
<g id="edge11" class="edge">
<title>dir_6acd24eea7f3fe579df422711269a2fc&#45;&gt;dir_3e37c3eecdc42aac03248fab5c81cb58</title>
<path fill="none" stroke="black" d="M107.94,-231.7C110.17,-223.9 112.85,-214.51 115.33,-205.83"/>
<polygon fill="black" stroke="black" points="118.73,-206.68 118.11,-196.1 112,-204.76 118.73,-206.68"/>
<g id="a_edge11&#45;headlabel"><a xlink:href="dir_000016_000002.html" target="_top" xlink:title="1">
<text text-anchor="middle" x="120.47" y="-208.42" font-family="Helvetica,sans-Serif" font-size="10.00">1</text>
</a>
</g>
</g>
<!-- dir_7d368d8baac033dda9456cf740143463 -->
<g id="node4" class="node">
<title>dir_7d368d8baac033dda9456cf740143463</title>
<g id="a_node4"><a xlink:href="dir_7d368d8baac033dda9456cf740143463.html" target="_top" xlink:title="Frame">
<polygon fill="none" stroke="black" points="233,-484 179,-484 179,-448 233,-448 233,-484"/>
<text text-anchor="middle" x="206" y="-463.5" font-family="Helvetica,sans-Serif" font-size="10.00">Frame</text>
</a>
</g>
</g>
<!-- dir_7d368d8baac033dda9456cf740143463&#45;&gt;dir_08d68200e36948d117cb679b82d752e3 -->
<g id="edge12" class="edge">
<title>dir_7d368d8baac033dda9456cf740143463&#45;&gt;dir_08d68200e36948d117cb679b82d752e3</title>
<path fill="none" stroke="black" d="M211.05,-447.81C217.81,-423.89 229.45,-379.1 234,-340 236.4,-319.41 236.55,-295.96 236.16,-278.3"/>
<polygon fill="black" stroke="black" points="239.66,-278.02 235.86,-268.13 232.66,-278.23 239.66,-278.02"/>
<g id="a_edge12&#45;headlabel"><a xlink:href="dir_000012_000019.html" target="_top" xlink:title="2">
<text text-anchor="middle" x="242.6" y="-279.03" font-family="Helvetica,sans-Serif" font-size="10.00">2</text>
</a>
</g>
</g>
<!-- dir_7d368d8baac033dda9456cf740143463&#45;&gt;dir_3e37c3eecdc42aac03248fab5c81cb58 -->
<g id="edge13" class="edge">
<title>dir_7d368d8baac033dda9456cf740143463&#45;&gt;dir_3e37c3eecdc42aac03248fab5c81cb58</title>
<path fill="none" stroke="black" d="M178.99,-463.97C144.78,-461.04 87.06,-450.33 60,-412 13.86,-346.65 24.96,-304.4 59,-232 65.18,-218.87 76.38,-207.87 87.7,-199.36"/>
<polygon fill="black" stroke="black" points="89.73,-202.22 95.9,-193.61 85.71,-196.49 89.73,-202.22"/>
<g id="a_edge13&#45;headlabel"><a xlink:href="dir_000012_000002.html" target="_top" xlink:title="3">
<text text-anchor="middle" x="88.42" y="-204.11" font-family="Helvetica,sans-Serif" font-size="10.00">3</text>
</a>
</g>
</g>
<!-- dir_7d368d8baac033dda9456cf740143463&#45;&gt;dir_6acd24eea7f3fe579df422711269a2fc -->
<g id="edge14" class="edge">
<title>dir_7d368d8baac033dda9456cf740143463&#45;&gt;dir_6acd24eea7f3fe579df422711269a2fc</title>
<path fill="none" stroke="black" d="M178.78,-462.5C148.13,-458.06 99.65,-445.79 77,-412 49.6,-371.11 71.4,-311.52 88.22,-277.47"/>
<polygon fill="black" stroke="black" points="91.54,-278.67 93,-268.18 85.31,-275.47 91.54,-278.67"/>
<g id="a_edge14&#45;headlabel"><a xlink:href="dir_000012_000016.html" target="_top" xlink:title="1">
<text text-anchor="middle" x="92.41" y="-280.67" font-family="Helvetica,sans-Serif" font-size="10.00">1</text>
</a>
</g>
</g>
<!-- dir_c1e81cc400cfd81cea8c3638b6fefb69 -->
<g id="node5" class="node">
<title>dir_c1e81cc400cfd81cea8c3638b6fefb69</title>
<g id="a_node5"><a xlink:href="dir_c1e81cc400cfd81cea8c3638b6fefb69.html" target="_top" xlink:title="ImageGenerators">
<polygon fill="none" stroke="black" points="186.5,-412 85.5,-412 85.5,-376 186.5,-376 186.5,-412"/>
<text text-anchor="middle" x="136" y="-391.5" font-family="Helvetica,sans-Serif" font-size="10.00">ImageGenerators</text>
</a>
</g>
</g>
<!-- dir_7d368d8baac033dda9456cf740143463&#45;&gt;dir_c1e81cc400cfd81cea8c3638b6fefb69 -->
<g id="edge16" class="edge">
<title>dir_7d368d8baac033dda9456cf740143463&#45;&gt;dir_c1e81cc400cfd81cea8c3638b6fefb69</title>
<path fill="none" stroke="black" d="M188.7,-447.7C180.14,-439.14 169.66,-428.66 160.3,-419.3"/>
<polygon fill="black" stroke="black" points="162.65,-416.7 153.1,-412.1 157.7,-421.65 162.65,-416.7"/>
<g id="a_edge16&#45;headlabel"><a xlink:href="dir_000012_000014.html" target="_top" xlink:title="2">
<text text-anchor="middle" x="167.2" y="-414.73" font-family="Helvetica,sans-Serif" font-size="10.00">2</text>
</a>
</g>
</g>
<!-- dir_7d368d8baac033dda9456cf740143463&#45;&gt;dir_ce44ad55c7286bf5a6cd8cf01717cab8 -->
<g id="edge17" class="edge">
<title>dir_7d368d8baac033dda9456cf740143463&#45;&gt;dir_ce44ad55c7286bf5a6cd8cf01717cab8</title>
<path fill="none" stroke="black" d="M233.25,-448.02C267.26,-424.49 321,-378.52 321,-323 321,-323 321,-323 321,-177 321,-110.69 243.31,-68.12 195.53,-48.21"/>
<polygon fill="black" stroke="black" points="196.7,-44.91 186.12,-44.42 194.08,-51.4 196.7,-44.91"/>
<g id="a_edge17&#45;headlabel"><a xlink:href="dir_000012_000017.html" target="_top" xlink:title="1">
<text text-anchor="middle" x="201.09" y="-41.12" font-family="Helvetica,sans-Serif" font-size="10.00">1</text>
</a>
</g>
</g>
<!-- dir_7d368d8baac033dda9456cf740143463&#45;&gt;dir_d9b5cabedc73050ebee44a9601fc76bc -->
<g id="edge18" class="edge">
<title>dir_7d368d8baac033dda9456cf740143463&#45;&gt;dir_d9b5cabedc73050ebee44a9601fc76bc</title>
<path fill="none" stroke="black" d="M217.58,-447.93C242.33,-409.27 296.14,-312.14 271,-232 258.7,-192.79 229.26,-155.11 208.04,-131.56"/>
<polygon fill="black" stroke="black" points="210.54,-129.11 201.19,-124.14 205.39,-133.86 210.54,-129.11"/>
<g id="a_edge18&#45;headlabel"><a xlink:href="dir_000012_000003.html" target="_top" xlink:title="3">
<text text-anchor="middle" x="215.06" y="-127.33" font-family="Helvetica,sans-Serif" font-size="10.00">3</text>
</a>
</g>
</g>
<!-- dir_8b2a86062e1b328e66c775d0dfce5a31 -->
<g id="node8" class="node">
<title>dir_8b2a86062e1b328e66c775d0dfce5a31</title>
<g id="a_node8"><a xlink:href="dir_8b2a86062e1b328e66c775d0dfce5a31.html" target="_top" xlink:title="Region">
<polygon fill="#eeeeff" stroke="black" points="225,-340 171,-340 171,-304 225,-304 225,-340"/>
<text text-anchor="middle" x="198" y="-319.5" font-family="Helvetica,sans-Serif" font-size="10.00">Region</text>
</a>
</g>
</g>
<!-- dir_7d368d8baac033dda9456cf740143463&#45;&gt;dir_8b2a86062e1b328e66c775d0dfce5a31 -->
<g id="edge15" class="edge">
<title>dir_7d368d8baac033dda9456cf740143463&#45;&gt;dir_8b2a86062e1b328e66c775d0dfce5a31</title>
<path fill="none" stroke="black" d="M200.45,-447.87C196.53,-423.67 193.73,-379.21 194.08,-350.39"/>
<polygon fill="black" stroke="black" points="197.59,-350.29 194.38,-340.19 190.59,-350.08 197.59,-350.29"/>
<g id="a_edge15&#45;headlabel"><a xlink:href="dir_000012_000008.html" target="_top" xlink:title="1">
<text text-anchor="middle" x="200.32" y="-351.46" font-family="Helvetica,sans-Serif" font-size="10.00">1</text>
</a>
</g>
</g>
<!-- dir_c1e81cc400cfd81cea8c3638b6fefb69&#45;&gt;dir_3e37c3eecdc42aac03248fab5c81cb58 -->
<g id="edge19" class="edge">
<title>dir_c1e81cc400cfd81cea8c3638b6fefb69&#45;&gt;dir_3e37c3eecdc42aac03248fab5c81cb58</title>
<path fill="none" stroke="black" d="M124.92,-375.54C106.93,-346.8 72.78,-290.44 67,-268 63.01,-252.51 60.67,-246.7 67,-232 71.79,-220.87 80.19,-210.99 89.05,-202.86"/>
<polygon fill="black" stroke="black" points="91.54,-205.34 96.88,-196.18 87,-200.01 91.54,-205.34"/>
<g id="a_edge19&#45;headlabel"><a xlink:href="dir_000014_000002.html" target="_top" xlink:title="2">
<text text-anchor="middle" x="90.65" y="-207.33" font-family="Helvetica,sans-Serif" font-size="10.00">2</text>
</a>
</g>
</g>
<!-- dir_c1e81cc400cfd81cea8c3638b6fefb69&#45;&gt;dir_ce44ad55c7286bf5a6cd8cf01717cab8 -->
<g id="edge21" class="edge">
<title>dir_c1e81cc400cfd81cea8c3638b6fefb69&#45;&gt;dir_ce44ad55c7286bf5a6cd8cf01717cab8</title>
<path fill="none" stroke="black" d="M114.01,-375.85C103.06,-366.32 90.4,-353.65 82,-340 56.27,-298.21 49.95,-280.23 59,-232 71.52,-165.27 114.53,-96.64 139.88,-60.64"/>
<polygon fill="black" stroke="black" points="142.94,-62.38 145.92,-52.21 137.25,-58.3 142.94,-62.38"/>
<g id="a_edge21&#45;headlabel"><a xlink:href="dir_000014_000017.html" target="_top" xlink:title="2">
<text text-anchor="middle" x="143.16" y="-64.45" font-family="Helvetica,sans-Serif" font-size="10.00">2</text>
</a>
</g>
</g>
<!-- dir_c1e81cc400cfd81cea8c3638b6fefb69&#45;&gt;dir_d9b5cabedc73050ebee44a9601fc76bc -->
<g id="edge22" class="edge">
<title>dir_c1e81cc400cfd81cea8c3638b6fefb69&#45;&gt;dir_d9b5cabedc73050ebee44a9601fc76bc</title>
<path fill="none" stroke="black" d="M138.86,-375.97C146.88,-328.19 169.63,-192.62 179.42,-134.27"/>
<polygon fill="black" stroke="black" points="182.89,-134.75 181.1,-124.31 175.99,-133.59 182.89,-134.75"/>
<g id="a_edge22&#45;headlabel"><a xlink:href="dir_000014_000003.html" target="_top" xlink:title="1">
<text text-anchor="middle" x="185.1" y="-136.26" font-family="Helvetica,sans-Serif" font-size="10.00">1</text>
</a>
</g>
</g>
<!-- dir_c1e81cc400cfd81cea8c3638b6fefb69&#45;&gt;dir_8b2a86062e1b328e66c775d0dfce5a31 -->
<g id="edge20" class="edge">
<title>dir_c1e81cc400cfd81cea8c3638b6fefb69&#45;&gt;dir_8b2a86062e1b328e66c775d0dfce5a31</title>
<path fill="none" stroke="black" d="M145.41,-375.7C152.11,-367.14 161.21,-356.66 170.01,-347.3"/>
<polygon fill="black" stroke="black" points="172.53,-349.73 176.96,-340.1 167.49,-344.87 172.53,-349.73"/>
<g id="a_edge20&#45;headlabel"><a xlink:href="dir_000014_000008.html" target="_top" xlink:title="1">
<text text-anchor="middle" x="172.08" y="-351.79" font-family="Helvetica,sans-Serif" font-size="10.00">1</text>
</a>
</g>
</g>
<!-- dir_ce44ad55c7286bf5a6cd8cf01717cab8&#45;&gt;dir_3e37c3eecdc42aac03248fab5c81cb58 -->
<g id="edge3" class="edge">
<title>dir_ce44ad55c7286bf5a6cd8cf01717cab8&#45;&gt;dir_3e37c3eecdc42aac03248fab5c81cb58</title>
<path fill="none" stroke="black" d="M159.39,-52.4C156.35,-62.62 151.35,-75.87 148,-88 142.34,-108.49 138.19,-132.21 134.21,-150.01"/>
<polygon fill="black" stroke="black" points="130.8,-149.19 131.87,-159.73 137.61,-150.82 130.8,-149.19"/>
<g id="a_edge3&#45;headlabel"><a xlink:href="dir_000017_000002.html" target="_top" xlink:title="1">
<text text-anchor="middle" x="128.88" y="-142.53" font-family="Helvetica,sans-Serif" font-size="10.00">1</text>
</a>
</g>
</g>
<!-- dir_d9b5cabedc73050ebee44a9601fc76bc&#45;&gt;dir_ce44ad55c7286bf5a6cd8cf01717cab8 -->
<g id="edge23" class="edge">
<title>dir_d9b5cabedc73050ebee44a9601fc76bc&#45;&gt;dir_ce44ad55c7286bf5a6cd8cf01717cab8</title>
<path fill="none" stroke="black" d="M177.82,-87.7C175,-79.81 171.61,-70.3 168.48,-61.55"/>
<polygon fill="black" stroke="black" points="171.77,-60.34 165.11,-52.1 165.18,-62.7 171.77,-60.34"/>
<g id="a_edge23&#45;headlabel"><a xlink:href="dir_000003_000017.html" target="_top" xlink:title="1">
<text text-anchor="middle" x="175.65" y="-60.27" font-family="Helvetica,sans-Serif" font-size="10.00">1</text>
</a>
</g>
</g>
<!-- dir_8b2a86062e1b328e66c775d0dfce5a31&#45;&gt;dir_08d68200e36948d117cb679b82d752e3 -->
<g id="edge4" class="edge">
<title>dir_8b2a86062e1b328e66c775d0dfce5a31&#45;&gt;dir_08d68200e36948d117cb679b82d752e3</title>
<path fill="none" stroke="black" d="M207.15,-303.7C211.4,-295.64 216.56,-285.89 221.27,-276.98"/>
<polygon fill="black" stroke="black" points="224.38,-278.58 225.96,-268.1 218.19,-275.31 224.38,-278.58"/>
<g id="a_edge4&#45;headlabel"><a xlink:href="dir_000008_000019.html" target="_top" xlink:title="1">
<text text-anchor="middle" x="225.21" y="-280.59" font-family="Helvetica,sans-Serif" font-size="10.00">1</text>
</a>
</g>
</g>
<!-- dir_8b2a86062e1b328e66c775d0dfce5a31&#45;&gt;dir_3e37c3eecdc42aac03248fab5c81cb58 -->
<g id="edge5" class="edge">
<title>dir_8b2a86062e1b328e66c775d0dfce5a31&#45;&gt;dir_3e37c3eecdc42aac03248fab5c81cb58</title>
<path fill="none" stroke="black" d="M188.95,-303.87C176,-279.35 152.07,-234.03 136.87,-205.26"/>
<polygon fill="black" stroke="black" points="139.84,-203.4 132.08,-196.19 133.65,-206.67 139.84,-203.4"/>
<g id="a_edge5&#45;headlabel"><a xlink:href="dir_000008_000002.html" target="_top" xlink:title="8">
<text text-anchor="middle" x="144.03" y="-202.75" font-family="Helvetica,sans-Serif" font-size="10.00">8</text>
</a>
</g>
</g>
<!-- dir_8b2a86062e1b328e66c775d0dfce5a31&#45;&gt;dir_6acd24eea7f3fe579df422711269a2fc -->
<g id="edge6" class="edge">
<title>dir_8b2a86062e1b328e66c775d0dfce5a31&#45;&gt;dir_6acd24eea7f3fe579df422711269a2fc</title>
<path fill="none" stroke="black" d="M174.52,-303.7C162.44,-294.8 147.55,-283.82 134.48,-274.2"/>
<polygon fill="black" stroke="black" points="136.34,-271.22 126.21,-268.1 132.19,-276.85 136.34,-271.22"/>
<g id="a_edge6&#45;headlabel"><a xlink:href="dir_000008_000016.html" target="_top" xlink:title="1">
<text text-anchor="middle" x="140.92" y="-268.57" font-family="Helvetica,sans-Serif" font-size="10.00">1</text>
</a>
</g>
</g>
<!-- dir_8b2a86062e1b328e66c775d0dfce5a31&#45;&gt;dir_7d368d8baac033dda9456cf740143463 -->
<g id="edge7" class="edge">
<title>dir_8b2a86062e1b328e66c775d0dfce5a31&#45;&gt;dir_7d368d8baac033dda9456cf740143463</title>
<path fill="none" stroke="black" d="M203.56,-340.19C207.48,-364.42 210.27,-408.89 209.91,-437.68"/>
<polygon fill="black" stroke="black" points="206.41,-437.77 209.62,-447.87 213.41,-437.98 206.41,-437.77"/>
<g id="a_edge7&#45;headlabel"><a xlink:href="dir_000008_000012.html" target="_top" xlink:title="1">
<text text-anchor="middle" x="203.68" y="-431.6" font-family="Helvetica,sans-Serif" font-size="10.00">1</text>
</a>
</g>
</g>
<!-- dir_8b2a86062e1b328e66c775d0dfce5a31&#45;&gt;dir_c1e81cc400cfd81cea8c3638b6fefb69 -->
<g id="edge8" class="edge">
<title>dir_8b2a86062e1b328e66c775d0dfce5a31&#45;&gt;dir_c1e81cc400cfd81cea8c3638b6fefb69</title>
<path fill="none" stroke="black" d="M188.75,-340.1C182.08,-348.64 173,-359.11 164.19,-368.48"/>
<polygon fill="black" stroke="black" points="161.66,-366.07 157.24,-375.7 166.7,-370.92 161.66,-366.07"/>
<g id="a_edge8&#45;headlabel"><a xlink:href="dir_000008_000014.html" target="_top" xlink:title="1">
<text text-anchor="middle" x="162.11" y="-359.01" font-family="Helvetica,sans-Serif" font-size="10.00">1</text>
</a>
</g>
</g>
<!-- dir_8b2a86062e1b328e66c775d0dfce5a31&#45;&gt;dir_ce44ad55c7286bf5a6cd8cf01717cab8 -->
<g id="edge9" class="edge">
<title>dir_8b2a86062e1b328e66c775d0dfce5a31&#45;&gt;dir_ce44ad55c7286bf5a6cd8cf01717cab8</title>
<path fill="none" stroke="black" d="M225.07,-309.3C241.62,-300.55 261.4,-286.84 271,-268 278.27,-253.75 273.26,-247.84 271,-232 261.57,-166 266.82,-142.9 229,-88 220.08,-75.05 206.97,-63.93 194.51,-55.26"/>
<polygon fill="black" stroke="black" points="196.32,-52.26 186.04,-49.67 192.46,-58.1 196.32,-52.26"/>
<g id="a_edge9&#45;headlabel"><a xlink:href="dir_000008_000017.html" target="_top" xlink:title="4">
<text text-anchor="middle" x="200.88" y="-49.37" font-family="Helvetica,sans-Serif" font-size="10.00">4</text>
</a>
</g>
</g>
<!-- dir_8b2a86062e1b328e66c775d0dfce5a31&#45;&gt;dir_d9b5cabedc73050ebee44a9601fc76bc -->
<g id="edge10" class="edge">
<title>dir_8b2a86062e1b328e66c775d0dfce5a31&#45;&gt;dir_d9b5cabedc73050ebee44a9601fc76bc</title>
<path fill="none" stroke="black" d="M196.88,-303.85C194.46,-266.83 188.72,-179.18 185.79,-134.39"/>
<polygon fill="black" stroke="black" points="189.27,-133.98 185.13,-124.23 182.29,-134.44 189.27,-133.98"/>
<g id="a_edge10&#45;headlabel"><a xlink:href="dir_000008_000003.html" target="_top" xlink:title="1">
<text text-anchor="middle" x="192.34" y="-134.88" font-family="Helvetica,sans-Serif" font-size="10.00">1</text>
</a>
</g>
</g>
</g>
</svg>
        <g id="navigator" transform="translate(0 0)" fill="#404254">
                <rect fill="#f2f5e9" fill-opacity="0.5" stroke="#606060" stroke-width=".5" x="0" y="0" width="60" height="60"/>
                <use id="zoomplus" xlink:href="#zoomPlus" x="17" y="9" onmousedown="handleZoom(evt,'in')"/>
                <use id="zoomminus" xlink:href="#zoomMin" x="42" y="9" onmousedown="handleZoom(evt,'out')"/>
                <use id="reset" xlink:href="#resetDef" x="30" y="36" onmousedown="handleReset()"/>
                <g id="arrowUp" xlink:href="#dirArrow" transform="translate(30 24)" onmousedown="handlePan(0,-1)">
                  <use xlink:href="#rim" fill="#404040">
                        <set attributeName="fill" to="#808080" begin="arrowUp.mouseover" end="arrowUp.mouseout"/>
                  </use>
                  <path fill="none" stroke="white" stroke-width="1.5" d="M0,-3.0v7 M-2.5,-0.5L0,-3.0L2.5,-0.5"/>
                </g>
                <g id="arrowRight" xlink:href="#dirArrow" transform="rotate(90) translate(36 -43)" onmousedown="handlePan(1,0)">
                  <use xlink:href="#rim" fill="#404040">
                        <set attributeName="fill" to="#808080" begin="arrowRight.mouseover" end="arrowRight.mouseout"/>
                  </use>
                  <path fill="none" stroke="white" stroke-width="1.5" d="M0,-3.0v7 M-2.5,-0.5L0,-3.0L2.5,-0.5"/>
                </g>
                <g id="arrowDown" xlink:href="#dirArrow" transform="rotate(180) translate(-30 -48)" onmousedown="handlePan(0,1)">
                  <use xlink:href="#rim" fill="#404040">
                        <set attributeName="fill" to="#808080" begin="arrowDown.mouseover" end="arrowDown.mouseout"/>
                  </use>
                  <path fill="none" stroke="white" stroke-width="1.5" d="M0,-3.0v7 M-2.5,-0.5L0,-3.0L2.5,-0.5"/>
                </g>
                <g id="arrowLeft" xlink:href="#dirArrow" transform="rotate(270) translate(-36 17)" onmousedown="handlePan(-1,0)">
                  <use xlink:href="#rim" fill="#404040">
                        <set attributeName="fill" to="#808080" begin="arrowLeft.mouseover" end="arrowLeft.mouseout"/>
                  </use>
                  <path fill="none" stroke="white" stroke-width="1.5" d="M0,-3.0v7 M-2.5,-0.5L0,-3.0L2.5,-0.5"/>
                </g>
        </g>
        <svg viewBox="0 0 15 15" width="100%" height="30px" preserveAspectRatio="xMaxYMin meet">
         <g id="arrow_out" transform="scale(0.3 0.3)">
          <a xlink:href="dir_8b2a86062e1b328e66c775d0dfce5a31_dep_org.svg" target="_base">
           <rect id="button" ry="5" rx="5" y="6" x="6" height="38" width="38"
                fill="#f2f5e9" fill-opacity="0.5" stroke="#606060" stroke-width="1.0"/>
           <path id="arrow"
             d="M 11.500037,31.436501 C 11.940474,20.09759 22.043105,11.32322 32.158766,21.979434 L 37.068811,17.246167 C 37.068811,17.246167 37.088388,32 37.088388,32 L 22.160133,31.978069 C 22.160133,31.978069 26.997745,27.140456 26.997745,27.140456 C 18.528582,18.264221 13.291696,25.230495 11.500037,31.436501 z"
             style="fill:#404040;"/>
          </a>
         </g>
        </svg>
</svg>
