<?xml version="1.0" encoding="UTF-8" standalone="no"?>
<!DOCTYPE svg PUBLIC "-//W3C//DTD SVG 1.1//EN"
 "http://www.w3.org/Graphics/SVG/1.1/DTD/svg11.dtd">
<!-- Generated by graphviz version 2.43.0 (0)
 -->
<!-- Title: IsRemoteHttpFile Pages: 1 -->
<!--zoomable 389 -->
<svg id="main" version="1.1" xmlns="http://www.w3.org/2000/svg" xmlns:xlink="http://www.w3.org/1999/xlink" xml:space="preserve" onload="init(evt)">
<style type="text/css"><![CDATA[
.edge:hover path { stroke: red; }
.edge:hover polygon { stroke: red; fill: red; }
]]></style>
<script type="text/javascript"><![CDATA[
var edges = document.getElementsByTagName('g');
if (edges && edges.length) {
  for (var i=0;i<edges.length;i++) {
    if (edges[i].id.substr(0,4)=='edge') {
      edges[i].setAttribute('class','edge');
    }
  }
}
]]></script>
        <defs>
                <circle id="rim" cx="0" cy="0" r="7"/>
                <circle id="rim2" cx="0" cy="0" r="3.5"/>
                <g id="zoomPlus">
                        <use xlink:href="#rim" fill="#404040">
                                <set attributeName="fill" to="#808080" begin="zoomplus.mouseover" end="zoomplus.mouseout"/>
                        </use>
                        <path d="M-4,0h8M0,-4v8" fill="none" stroke="white" stroke-width="1.5" pointer-events="none"/>
                </g>
                <g id="zoomMin">
                        <use xlink:href="#rim" fill="#404040">
                                <set attributeName="fill" to="#808080" begin="zoomminus.mouseover" end="zoomminus.mouseout"/>
                        </use>
                        <path d="M-4,0h8" fill="none" stroke="white" stroke-width="1.5" pointer-events="none"/>
                </g>
                <g id="dirArrow">
                        <path fill="none" stroke="white" stroke-width="1.5" d="M0,-3.0v7 M-2.5,-0.5L0,-3.0L2.5,-0.5"/>
                </g>
               <g id="resetDef">
                       <use xlink:href="#rim2" fill="#404040">
                               <set attributeName="fill" to="#808080" begin="reset.mouseover" end="reset.mouseout"/>
                       </use>
               </g>
        </defs>

<script type="text/javascript">
var viewWidth = 1527;
var viewHeight = 389;
var sectionId = 'dynsection-12';
</script>
<script xlink:href="svgpan.js"/>
<svg id="graph" class="graph">
<g id="viewport">
<title>IsRemoteHttpFile</title>
<!-- Node1 -->
<g id="node1" class="node">
<title>Node1</title>
<g id="a_node1"><a xlink:title=" ">
<polygon fill="#bfbfbf" stroke="black" points="1418,-190 1418,-209 1519,-209 1519,-190 1418,-190"/>
<text text-anchor="middle" x="1468.5" y="-197" font-family="Helvetica,sans-Serif" font-size="10.00">IsRemoteHttpFile</text>
</a>
</g>
</g>
<!-- Node2 -->
<g id="node2" class="node">
<title>Node2</title>
<g id="a_node2"><a xlink:href="classcarta_1_1FileLoader.html#a581709c9a332af503acb77d79b8ae38f" target="_top" xlink:title=" ">
<polygon fill="none" stroke="black" points="1278,-184.5 1278,-214.5 1382,-214.5 1382,-184.5 1278,-184.5"/>
<text text-anchor="start" x="1286" y="-202.5" font-family="Helvetica,sans-Serif" font-size="10.00">carta::FileLoader::</text>
<text text-anchor="middle" x="1330" y="-191.5" font-family="Helvetica,sans-Serif" font-size="10.00">GetLoader</text>
</a>
</g>
</g>
<!-- Node1&#45;&gt;Node2 -->
<g id="edge1" class="edge">
<title>Node1&#45;&gt;Node2</title>
<path fill="none" stroke="midnightblue" d="M1407.63,-199.5C1399.16,-199.5 1390.52,-199.5 1382.23,-199.5"/>
<polygon fill="midnightblue" stroke="midnightblue" points="1407.83,-203 1417.83,-199.5 1407.83,-196 1407.83,-203"/>
</g>
<!-- Node3 -->
<g id="node3" class="node">
<title>Node3</title>
<g id="a_node3"><a xlink:href="classcarta_1_1RegionHandler.html#a9fc8e855f922f23cc072d0706f53c805" target="_top" xlink:title=" ">
<polygon fill="none" stroke="black" points="1091,-255.5 1091,-285.5 1241,-285.5 1241,-255.5 1091,-255.5"/>
<text text-anchor="start" x="1099" y="-273.5" font-family="Helvetica,sans-Serif" font-size="10.00">carta::RegionHandler</text>
<text text-anchor="middle" x="1166" y="-262.5" font-family="Helvetica,sans-Serif" font-size="10.00">::CalculatePvPreviewImage</text>
</a>
</g>
</g>
<!-- Node2&#45;&gt;Node3 -->
<g id="edge2" class="edge">
<title>Node2&#45;&gt;Node3</title>
<path fill="none" stroke="midnightblue" d="M1295.23,-219.64C1279.41,-228.58 1260.09,-238.8 1242,-246.5 1234.45,-249.71 1226.32,-252.74 1218.3,-255.49"/>
<polygon fill="midnightblue" stroke="midnightblue" points="1297.17,-222.56 1304.11,-214.55 1293.69,-216.49 1297.17,-222.56"/>
</g>
<!-- Node6 -->
<g id="node6" class="node">
<title>Node6</title>
<g id="a_node6"><a xlink:href="classcarta_1_1Session.html#ac671b008e48c5074c520343edb43beec" target="_top" xlink:title=" ">
<polygon fill="none" stroke="black" points="1090.5,-206.5 1090.5,-236.5 1241.5,-236.5 1241.5,-206.5 1090.5,-206.5"/>
<text text-anchor="start" x="1098.5" y="-224.5" font-family="Helvetica,sans-Serif" font-size="10.00">carta::Session::FillExtended</text>
<text text-anchor="middle" x="1166" y="-213.5" font-family="Helvetica,sans-Serif" font-size="10.00">FileInfo</text>
</a>
</g>
</g>
<!-- Node2&#45;&gt;Node6 -->
<g id="edge5" class="edge">
<title>Node2&#45;&gt;Node6</title>
<path fill="none" stroke="midnightblue" d="M1267.57,-207.84C1259.08,-208.99 1250.29,-210.19 1241.6,-211.37"/>
<polygon fill="midnightblue" stroke="midnightblue" points="1268.3,-211.27 1277.74,-206.46 1267.36,-204.34 1268.3,-211.27"/>
</g>
<!-- Node7 -->
<g id="node7" class="node">
<title>Node7</title>
<g id="a_node7"><a xlink:href="classcarta_1_1LoaderCache.html#a341be9f1278d337b6e7a0a347de474c1" target="_top" xlink:title=" ">
<polygon fill="none" stroke="black" points="1099,-168 1099,-187 1233,-187 1233,-168 1099,-168"/>
<text text-anchor="middle" x="1166" y="-175" font-family="Helvetica,sans-Serif" font-size="10.00">carta::LoaderCache::Get</text>
</a>
</g>
</g>
<!-- Node2&#45;&gt;Node7 -->
<g id="edge6" class="edge">
<title>Node2&#45;&gt;Node7</title>
<path fill="none" stroke="midnightblue" d="M1267.56,-191.16C1256.29,-189.63 1244.47,-188.02 1233.07,-186.47"/>
<polygon fill="midnightblue" stroke="midnightblue" points="1267.36,-194.66 1277.74,-192.54 1268.3,-187.73 1267.36,-194.66"/>
</g>
<!-- Node21 -->
<g id="node21" class="node">
<title>Node21</title>
<g id="a_node21"><a xlink:href="classcarta_1_1StokesFilesConnector.html#a293ad12a37f9da0da1f6bcd140c68bd8" target="_top" xlink:title=" ">
<polygon fill="none" stroke="black" points="1090,-80.5 1090,-110.5 1242,-110.5 1242,-80.5 1090,-80.5"/>
<text text-anchor="start" x="1098" y="-98.5" font-family="Helvetica,sans-Serif" font-size="10.00">carta::StokesFilesConnector</text>
<text text-anchor="middle" x="1166" y="-87.5" font-family="Helvetica,sans-Serif" font-size="10.00">::OpenStokesFiles</text>
</a>
</g>
</g>
<!-- Node2&#45;&gt;Node21 -->
<g id="edge28" class="edge">
<title>Node2&#45;&gt;Node21</title>
<path fill="none" stroke="midnightblue" d="M1296.65,-178.73C1265.31,-158.62 1218.55,-128.6 1190.58,-110.64"/>
<polygon fill="midnightblue" stroke="midnightblue" points="1295.14,-181.92 1305.44,-184.38 1298.92,-176.03 1295.14,-181.92"/>
</g>
<!-- Node4 -->
<g id="node4" class="node">
<title>Node4</title>
<g id="a_node4"><a xlink:href="classcarta_1_1RegionHandler.html#a53807aa22abb92b35725054a015e12aa" target="_top" xlink:title=" ">
<polygon fill="none" stroke="black" points="918.5,-303.5 918.5,-333.5 1037.5,-333.5 1037.5,-303.5 918.5,-303.5"/>
<text text-anchor="start" x="926.5" y="-321.5" font-family="Helvetica,sans-Serif" font-size="10.00">carta::RegionHandler</text>
<text text-anchor="middle" x="978" y="-310.5" font-family="Helvetica,sans-Serif" font-size="10.00">::CalculatePvImage</text>
</a>
</g>
</g>
<!-- Node3&#45;&gt;Node4 -->
<g id="edge3" class="edge">
<title>Node3&#45;&gt;Node4</title>
<path fill="none" stroke="midnightblue" d="M1096.88,-288.08C1077.27,-293.14 1056.08,-298.61 1037.13,-303.5"/>
<polygon fill="midnightblue" stroke="midnightblue" points="1097.85,-291.44 1106.66,-285.56 1096.1,-284.67 1097.85,-291.44"/>
</g>
<!-- Node5 -->
<g id="node5" class="node">
<title>Node5</title>
<g id="a_node5"><a xlink:href="classcarta_1_1RegionHandler.html#ab556b1d44e6a4ca48fba195023769038" target="_top" xlink:title=" ">
<polygon fill="none" stroke="black" points="908,-254.5 908,-284.5 1048,-284.5 1048,-254.5 908,-254.5"/>
<text text-anchor="start" x="916" y="-272.5" font-family="Helvetica,sans-Serif" font-size="10.00">carta::RegionHandler</text>
<text text-anchor="middle" x="978" y="-261.5" font-family="Helvetica,sans-Serif" font-size="10.00">::UpdatePvPreviewImage</text>
</a>
</g>
</g>
<!-- Node3&#45;&gt;Node5 -->
<g id="edge4" class="edge">
<title>Node3&#45;&gt;Node5</title>
<path fill="none" stroke="midnightblue" d="M1080.64,-270.05C1069.8,-269.99 1058.81,-269.93 1048.26,-269.87"/>
<polygon fill="midnightblue" stroke="midnightblue" points="1080.93,-273.55 1090.95,-270.1 1080.97,-266.55 1080.93,-273.55"/>
</g>
<!-- Node8 -->
<g id="node8" class="node">
<title>Node8</title>
<g id="a_node8"><a xlink:href="classcarta_1_1Session.html#a3dc8e818765159809dfb28472a3c95a6" target="_top" xlink:title=" ">
<polygon fill="none" stroke="black" points="902.5,-110.5 902.5,-140.5 1053.5,-140.5 1053.5,-110.5 902.5,-110.5"/>
<text text-anchor="start" x="910.5" y="-128.5" font-family="Helvetica,sans-Serif" font-size="10.00">carta::Session::FillExtended</text>
<text text-anchor="middle" x="978" y="-117.5" font-family="Helvetica,sans-Serif" font-size="10.00">FileInfo</text>
</a>
</g>
</g>
<!-- Node7&#45;&gt;Node8 -->
<g id="edge7" class="edge">
<title>Node7&#45;&gt;Node8</title>
<path fill="none" stroke="midnightblue" d="M1121.16,-165.24C1094.79,-157.87 1061,-148.42 1032.98,-140.59"/>
<polygon fill="midnightblue" stroke="midnightblue" points="1120.31,-168.64 1130.88,-167.96 1122.2,-161.9 1120.31,-168.64"/>
</g>
<!-- Node12 -->
<g id="node12" class="node">
<title>Node12</title>
<g id="a_node12"><a xlink:href="classcarta_1_1Session.html#a54c5dc766deb62f608792ce551a1b885" target="_top" xlink:title=" ">
<polygon fill="none" stroke="black" points="709.5,-170 709.5,-189 856.5,-189 856.5,-170 709.5,-170"/>
<text text-anchor="middle" x="783" y="-177" font-family="Helvetica,sans-Serif" font-size="10.00">carta::Session::OnOpenFile</text>
</a>
</g>
</g>
<!-- Node7&#45;&gt;Node12 -->
<g id="edge26" class="edge">
<title>Node7&#45;&gt;Node12</title>
<path fill="none" stroke="midnightblue" d="M1088.48,-177.9C1020.93,-178.26 923.14,-178.77 856.74,-179.12"/>
<polygon fill="midnightblue" stroke="midnightblue" points="1088.65,-181.4 1098.63,-177.85 1088.62,-174.4 1088.65,-181.4"/>
</g>
<!-- Node18 -->
<g id="node18" class="node">
<title>Node18</title>
<g id="a_node18"><a xlink:href="classcarta_1_1Session.html#a45b9623e5dd0c0d54307ab148e8745aa" target="_top" xlink:title=" ">
<polygon fill="none" stroke="black" points="514.5,-350.5 514.5,-380.5 657.5,-380.5 657.5,-350.5 514.5,-350.5"/>
<text text-anchor="start" x="522.5" y="-368.5" font-family="Helvetica,sans-Serif" font-size="10.00">carta::Session::OnRemote</text>
<text text-anchor="middle" x="586" y="-357.5" font-family="Helvetica,sans-Serif" font-size="10.00">FileRequest</text>
</a>
</g>
</g>
<!-- Node7&#45;&gt;Node18 -->
<g id="edge27" class="edge">
<title>Node7&#45;&gt;Node18</title>
<path fill="none" stroke="midnightblue" d="M1110.78,-189.34C1057.18,-201.55 973.12,-222.07 902,-245.5 793.67,-281.18 771.42,-303.16 664,-341.5 655.43,-344.56 646.24,-347.61 637.31,-350.46"/>
<polygon fill="midnightblue" stroke="midnightblue" points="1111.77,-192.7 1120.75,-187.08 1110.22,-185.88 1111.77,-192.7"/>
</g>
<!-- Node9 -->
<g id="node9" class="node">
<title>Node9</title>
<g id="a_node9"><a xlink:href="classcarta_1_1Session.html#a8874927da900745afae4a0d975ed0453" target="_top" xlink:title=" ">
<polygon fill="none" stroke="black" points="330,-61.5 330,-91.5 470,-91.5 470,-61.5 330,-61.5"/>
<text text-anchor="start" x="338" y="-79.5" font-family="Helvetica,sans-Serif" font-size="10.00">carta::Session::OnFileInfo</text>
<text text-anchor="middle" x="400" y="-68.5" font-family="Helvetica,sans-Serif" font-size="10.00">Request</text>
</a>
</g>
</g>
<!-- Node8&#45;&gt;Node9 -->
<g id="edge8" class="edge">
<title>Node8&#45;&gt;Node9</title>
<path fill="none" stroke="midnightblue" d="M902.52,-108.33C890.36,-105.83 877.85,-103.45 866,-101.5 776.84,-86.82 754.19,-83.96 664,-78.5 598.25,-74.52 523.1,-74.39 470.01,-75.03"/>
<polygon fill="midnightblue" stroke="midnightblue" points="902.14,-111.83 912.64,-110.45 903.57,-104.98 902.14,-111.83"/>
</g>
<!-- Node8&#45;&gt;Node12 -->
<g id="edge11" class="edge">
<title>Node8&#45;&gt;Node12</title>
<path fill="none" stroke="midnightblue" d="M913.55,-143.25C881.72,-152.16 844.43,-162.59 818.06,-169.97"/>
<polygon fill="midnightblue" stroke="midnightblue" points="914.55,-146.61 923.24,-140.54 912.67,-139.87 914.55,-146.61"/>
</g>
<!-- Node17 -->
<g id="node17" class="node">
<title>Node17</title>
<g id="a_node17"><a xlink:href="classcarta_1_1Session.html#a07bfe19708d3e272d01fef6f18712aa2" target="_top" xlink:title=" ">
<polygon fill="none" stroke="black" points="508,-88 508,-107 664,-107 664,-88 508,-88"/>
<text text-anchor="middle" x="586" y="-95" font-family="Helvetica,sans-Serif" font-size="10.00">carta::Session::OnPvRequest</text>
</a>
</g>
</g>
<!-- Node8&#45;&gt;Node17 -->
<g id="edge23" class="edge">
<title>Node8&#45;&gt;Node17</title>
<path fill="none" stroke="midnightblue" d="M892.03,-119.4C824.16,-114.53 729.87,-107.76 664.15,-103.04"/>
<polygon fill="midnightblue" stroke="midnightblue" points="892.04,-122.91 902.27,-120.13 892.54,-115.93 892.04,-122.91"/>
</g>
<!-- Node19 -->
<g id="node19" class="node">
<title>Node19</title>
<g id="a_node19"><a xlink:href="classcarta_1_1Session.html#af8a5cb91e4f627673631d7648bbaed75" target="_top" xlink:title=" ">
<polygon fill="none" stroke="black" points="700,-9 700,-28 866,-28 866,-9 700,-9"/>
<text text-anchor="middle" x="783" y="-16" font-family="Helvetica,sans-Serif" font-size="10.00">carta::Session::SendPvPreview</text>
</a>
</g>
</g>
<!-- Node8&#45;&gt;Node19 -->
<g id="edge24" class="edge">
<title>Node8&#45;&gt;Node19</title>
<path fill="none" stroke="midnightblue" d="M909.66,-105.7C906.99,-104.1 904.42,-102.37 902,-100.5 878.86,-82.67 889.18,-63.29 866,-45.5 855.78,-37.65 843.17,-32.03 830.93,-28.02"/>
<polygon fill="midnightblue" stroke="midnightblue" points="908.02,-108.79 918.49,-110.41 911.31,-102.62 908.02,-108.79"/>
</g>
<!-- Node10 -->
<g id="node10" class="node">
<title>Node10</title>
<g id="a_node10"><a xlink:href="classcarta_1_1SessionManager.html#a474c31666cb3b22fcbe8af5f945d2950" target="_top" xlink:title=" ">
<polygon fill="none" stroke="black" points="164,-167.5 164,-197.5 292,-197.5 292,-167.5 164,-167.5"/>
<text text-anchor="start" x="172" y="-185.5" font-family="Helvetica,sans-Serif" font-size="10.00">carta::SessionManager</text>
<text text-anchor="middle" x="228" y="-174.5" font-family="Helvetica,sans-Serif" font-size="10.00">::OnMessage</text>
</a>
</g>
</g>
<!-- Node9&#45;&gt;Node10 -->
<g id="edge9" class="edge">
<title>Node9&#45;&gt;Node10</title>
<path fill="none" stroke="midnightblue" d="M359.9,-96.43C349.41,-102.05 338.16,-108.32 328,-114.5 300.03,-131.52 269.13,-153.24 249.42,-167.49"/>
<polygon fill="midnightblue" stroke="midnightblue" points="361.68,-99.45 368.88,-91.68 358.4,-93.26 361.68,-99.45"/>
</g>
<!-- Node11 -->
<g id="node11" class="node">
<title>Node11</title>
<g id="a_node11"><a xlink:href="classcarta_1_1SessionManager.html#ab4e4e7f0244bd6843e70ab91652debf6" target="_top" xlink:title=" ">
<polygon fill="none" stroke="black" points="0,-167.5 0,-197.5 128,-197.5 128,-167.5 0,-167.5"/>
<text text-anchor="start" x="8" y="-185.5" font-family="Helvetica,sans-Serif" font-size="10.00">carta::SessionManager</text>
<text text-anchor="middle" x="64" y="-174.5" font-family="Helvetica,sans-Serif" font-size="10.00">::RunApp</text>
</a>
</g>
</g>
<!-- Node10&#45;&gt;Node11 -->
<g id="edge10" class="edge">
<title>Node10&#45;&gt;Node11</title>
<path fill="none" stroke="midnightblue" d="M153.63,-182.5C145.14,-182.5 136.53,-182.5 128.19,-182.5"/>
<polygon fill="midnightblue" stroke="midnightblue" points="153.9,-186 163.9,-182.5 153.9,-179 153.9,-186"/>
</g>
<!-- Node12&#45;&gt;Node10 -->
<g id="edge17" class="edge">
<title>Node12&#45;&gt;Node10</title>
<path fill="none" stroke="midnightblue" d="M736.71,-191.41C714.9,-196.55 688.27,-201.96 664,-204.5 532.2,-218.31 377,-202.9 292.2,-191.81"/>
<polygon fill="midnightblue" stroke="midnightblue" points="737.78,-194.75 746.68,-189 736.14,-187.95 737.78,-194.75"/>
</g>
<!-- Node13 -->
<g id="node13" class="node">
<title>Node13</title>
<g id="a_node13"><a xlink:href="classcarta_1_1Session.html#aed12d0369de4c3391dba300cb77e9241" target="_top" xlink:title=" ">
<polygon fill="none" stroke="black" points="517,-164.5 517,-194.5 655,-194.5 655,-164.5 517,-164.5"/>
<text text-anchor="start" x="525" y="-182.5" font-family="Helvetica,sans-Serif" font-size="10.00">carta::Session::OnConcat</text>
<text text-anchor="middle" x="586" y="-171.5" font-family="Helvetica,sans-Serif" font-size="10.00">StokesFiles</text>
</a>
</g>
</g>
<!-- Node12&#45;&gt;Node13 -->
<g id="edge12" class="edge">
<title>Node12&#45;&gt;Node13</title>
<path fill="none" stroke="midnightblue" d="M699.29,-179.5C684.58,-179.5 669.4,-179.5 655.15,-179.5"/>
<polygon fill="midnightblue" stroke="midnightblue" points="699.39,-183 709.39,-179.5 699.39,-176 699.39,-183"/>
</g>
<!-- Node14 -->
<g id="node14" class="node">
<title>Node14</title>
<g id="a_node14"><a xlink:href="classcarta_1_1Session.html#afe5c090c017ef208f638b96a7eb1ecf0" target="_top" xlink:title=" ">
<polygon fill="none" stroke="black" points="328,-123.5 328,-153.5 472,-153.5 472,-123.5 328,-123.5"/>
<text text-anchor="start" x="336" y="-141.5" font-family="Helvetica,sans-Serif" font-size="10.00">carta::Session::OnResume</text>
<text text-anchor="middle" x="400" y="-130.5" font-family="Helvetica,sans-Serif" font-size="10.00">Session</text>
</a>
</g>
</g>
<!-- Node12&#45;&gt;Node14 -->
<g id="edge22" class="edge">
<title>Node12&#45;&gt;Node14</title>
<path fill="none" stroke="midnightblue" d="M732.14,-167.79C711.2,-163.29 686.53,-158.5 664,-155.5 599.37,-146.88 525.2,-142.59 472.14,-140.48"/>
<polygon fill="midnightblue" stroke="midnightblue" points="731.57,-171.25 742.09,-169.97 733.07,-164.41 731.57,-171.25"/>
</g>
<!-- Node15 -->
<g id="node15" class="node">
<title>Node15</title>
<g id="a_node15"><a xlink:href="classcarta_1_1Session.html#a5589e4dca9e6a51055f15da1d9ac1b3c" target="_top" xlink:title=" ">
<polygon fill="none" stroke="black" points="518.5,-301.5 518.5,-331.5 653.5,-331.5 653.5,-301.5 518.5,-301.5"/>
<text text-anchor="start" x="526.5" y="-319.5" font-family="Helvetica,sans-Serif" font-size="10.00">carta::Session::OnFitting</text>
<text text-anchor="middle" x="586" y="-308.5" font-family="Helvetica,sans-Serif" font-size="10.00">Request</text>
</a>
</g>
</g>
<!-- Node12&#45;&gt;Node15 -->
<g id="edge16" class="edge">
<title>Node12&#45;&gt;Node15</title>
<path fill="none" stroke="midnightblue" d="M720.82,-193C713.22,-196.51 706.02,-200.93 700,-206.5 669.58,-234.63 694.65,-264.61 664,-292.5 660.27,-295.89 656.07,-298.81 651.6,-301.31"/>
<polygon fill="midnightblue" stroke="midnightblue" points="722.29,-196.17 730.22,-189.15 719.64,-189.7 722.29,-196.17"/>
</g>
<!-- Node16 -->
<g id="node16" class="node">
<title>Node16</title>
<g id="a_node16"><a xlink:href="classcarta_1_1Session.html#a8fe2527b0a83c67240ef4a31a86e4978" target="_top" xlink:title=" ">
<polygon fill="none" stroke="black" points="513.5,-252.5 513.5,-282.5 658.5,-282.5 658.5,-252.5 513.5,-252.5"/>
<text text-anchor="start" x="521.5" y="-270.5" font-family="Helvetica,sans-Serif" font-size="10.00">carta::Session::OnMoment</text>
<text text-anchor="middle" x="586" y="-259.5" font-family="Helvetica,sans-Serif" font-size="10.00">Request</text>
</a>
</g>
</g>
<!-- Node12&#45;&gt;Node16 -->
<g id="edge18" class="edge">
<title>Node12&#45;&gt;Node16</title>
<path fill="none" stroke="midnightblue" d="M733.01,-192.15C721.8,-195.98 710.19,-200.74 700,-206.5 681.62,-216.89 682.1,-226.62 664,-237.5 654.53,-243.19 643.79,-248.17 633.4,-252.36"/>
<polygon fill="midnightblue" stroke="midnightblue" points="734.27,-195.42 742.71,-189.02 732.12,-188.76 734.27,-195.42"/>
</g>
<!-- Node12&#45;&gt;Node17 -->
<g id="edge19" class="edge">
<title>Node12&#45;&gt;Node17</title>
<path fill="none" stroke="midnightblue" d="M755.79,-165.15C732.22,-152.61 696.43,-134.43 664,-121.5 650.34,-116.05 634.94,-111.04 621.51,-107.01"/>
<polygon fill="midnightblue" stroke="midnightblue" points="754.33,-168.34 764.79,-169.99 757.64,-162.17 754.33,-168.34"/>
</g>
<!-- Node12&#45;&gt;Node18 -->
<g id="edge20" class="edge">
<title>Node12&#45;&gt;Node18</title>
<path fill="none" stroke="midnightblue" d="M717.95,-193.33C711.28,-196.79 705.09,-201.11 700,-206.5 657.37,-251.65 706.99,-296.69 664,-341.5 660.7,-344.94 656.93,-347.88 652.85,-350.41"/>
<polygon fill="midnightblue" stroke="midnightblue" points="719.61,-196.43 727.29,-189.13 716.74,-190.04 719.61,-196.43"/>
</g>
<!-- Node13&#45;&gt;Node10 -->
<g id="edge13" class="edge">
<title>Node13&#45;&gt;Node10</title>
<path fill="none" stroke="midnightblue" d="M506.67,-180.16C442.24,-180.7 352.11,-181.46 292.21,-181.97"/>
<polygon fill="midnightblue" stroke="midnightblue" points="506.81,-183.66 516.78,-180.07 506.75,-176.66 506.81,-183.66"/>
</g>
<!-- Node13&#45;&gt;Node14 -->
<g id="edge14" class="edge">
<title>Node13&#45;&gt;Node14</title>
<path fill="none" stroke="midnightblue" d="M507.67,-162.27C494.64,-159.37 481.21,-156.37 468.46,-153.53"/>
<polygon fill="midnightblue" stroke="midnightblue" points="507.01,-165.71 517.53,-164.47 508.53,-158.87 507.01,-165.71"/>
</g>
<!-- Node14&#45;&gt;Node10 -->
<g id="edge15" class="edge">
<title>Node14&#45;&gt;Node10</title>
<path fill="none" stroke="midnightblue" d="M331.02,-156.09C316.46,-159.86 301.2,-163.81 287.06,-167.47"/>
<polygon fill="midnightblue" stroke="midnightblue" points="332.17,-159.41 340.97,-153.52 330.41,-152.64 332.17,-159.41"/>
</g>
<!-- Node18&#45;&gt;Node10 -->
<g id="edge21" class="edge">
<title>Node18&#45;&gt;Node10</title>
<path fill="none" stroke="midnightblue" d="M521.74,-347.01C517.05,-345.26 512.42,-343.42 508,-341.5 408.04,-298.05 298.04,-228.23 251.63,-197.66"/>
<polygon fill="midnightblue" stroke="midnightblue" points="520.84,-350.4 531.43,-350.45 523.18,-343.8 520.84,-350.4"/>
</g>
<!-- Node20 -->
<g id="node20" class="node">
<title>Node20</title>
<g id="a_node20"><a xlink:href="classcarta_1_1PvPreviewUpdateTask.html#ad8fc7c242731d4bae2e2928f0cdf613a" target="_top" xlink:title=" ">
<polygon fill="none" stroke="black" points="508.5,-0.5 508.5,-30.5 663.5,-30.5 663.5,-0.5 508.5,-0.5"/>
<text text-anchor="start" x="516.5" y="-18.5" font-family="Helvetica,sans-Serif" font-size="10.00">carta::PvPreviewUpdateTask</text>
<text text-anchor="middle" x="586" y="-7.5" font-family="Helvetica,sans-Serif" font-size="10.00">::execute</text>
</a>
</g>
</g>
<!-- Node19&#45;&gt;Node20 -->
<g id="edge25" class="edge">
<title>Node19&#45;&gt;Node20</title>
<path fill="none" stroke="midnightblue" d="M689.71,-17.08C681.02,-16.95 672.28,-16.81 663.75,-16.68"/>
<polygon fill="midnightblue" stroke="midnightblue" points="689.81,-20.58 699.87,-17.24 689.92,-13.58 689.81,-20.58"/>
</g>
<!-- Node22 -->
<g id="node22" class="node">
<title>Node22</title>
<g id="a_node22"><a xlink:href="classcarta_1_1StokesFilesConnector.html#a99f6cac79a12711d8e47b4a1c6b4f381" target="_top" xlink:title=" ">
<polygon fill="none" stroke="black" points="902,-61.5 902,-91.5 1054,-91.5 1054,-61.5 902,-61.5"/>
<text text-anchor="start" x="910" y="-79.5" font-family="Helvetica,sans-Serif" font-size="10.00">carta::StokesFilesConnector</text>
<text text-anchor="middle" x="978" y="-68.5" font-family="Helvetica,sans-Serif" font-size="10.00">::DoConcat</text>
</a>
</g>
</g>
<!-- Node21&#45;&gt;Node22 -->
<g id="edge29" class="edge">
<title>Node21&#45;&gt;Node22</title>
<path fill="none" stroke="midnightblue" d="M1079.85,-86.8C1071.26,-85.92 1062.57,-85.04 1054.1,-84.17"/>
<polygon fill="midnightblue" stroke="midnightblue" points="1079.58,-90.29 1089.88,-87.83 1080.29,-83.33 1079.58,-90.29"/>
</g>
</g>
</svg>
        <g id="navigator" transform="translate(0 0)" fill="#404254">
                <rect fill="#f2f5e9" fill-opacity="0.5" stroke="#606060" stroke-width=".5" x="0" y="0" width="60" height="60"/>
                <use id="zoomplus" xlink:href="#zoomPlus" x="17" y="9" onmousedown="handleZoom(evt,'in')"/>
                <use id="zoomminus" xlink:href="#zoomMin" x="42" y="9" onmousedown="handleZoom(evt,'out')"/>
                <use id="reset" xlink:href="#resetDef" x="30" y="36" onmousedown="handleReset()"/>
                <g id="arrowUp" xlink:href="#dirArrow" transform="translate(30 24)" onmousedown="handlePan(0,-1)">
                  <use xlink:href="#rim" fill="#404040">
                        <set attributeName="fill" to="#808080" begin="arrowUp.mouseover" end="arrowUp.mouseout"/>
                  </use>
                  <path fill="none" stroke="white" stroke-width="1.5" d="M0,-3.0v7 M-2.5,-0.5L0,-3.0L2.5,-0.5"/>
                </g>
                <g id="arrowRight" xlink:href="#dirArrow" transform="rotate(90) translate(36 -43)" onmousedown="handlePan(1,0)">
                  <use xlink:href="#rim" fill="#404040">
                        <set attributeName="fill" to="#808080" begin="arrowRight.mouseover" end="arrowRight.mouseout"/>
                  </use>
                  <path fill="none" stroke="white" stroke-width="1.5" d="M0,-3.0v7 M-2.5,-0.5L0,-3.0L2.5,-0.5"/>
                </g>
                <g id="arrowDown" xlink:href="#dirArrow" transform="rotate(180) translate(-30 -48)" onmousedown="handlePan(0,1)">
                  <use xlink:href="#rim" fill="#404040">
                        <set attributeName="fill" to="#808080" begin="arrowDown.mouseover" end="arrowDown.mouseout"/>
                  </use>
                  <path fill="none" stroke="white" stroke-width="1.5" d="M0,-3.0v7 M-2.5,-0.5L0,-3.0L2.5,-0.5"/>
                </g>
                <g id="arrowLeft" xlink:href="#dirArrow" transform="rotate(270) translate(-36 17)" onmousedown="handlePan(-1,0)">
                  <use xlink:href="#rim" fill="#404040">
                        <set attributeName="fill" to="#808080" begin="arrowLeft.mouseover" end="arrowLeft.mouseout"/>
                  </use>
                  <path fill="none" stroke="white" stroke-width="1.5" d="M0,-3.0v7 M-2.5,-0.5L0,-3.0L2.5,-0.5"/>
                </g>
        </g>
        <svg viewBox="0 0 15 15" width="100%" height="30px" preserveAspectRatio="xMaxYMin meet">
         <g id="arrow_out" transform="scale(0.3 0.3)">
          <a xlink:href="File_8cc_ac3253b9c72cf4368b08803ef2a0102bb_icgraph_org.svg" target="_base">
           <rect id="button" ry="5" rx="5" y="6" x="6" height="38" width="38"
                fill="#f2f5e9" fill-opacity="0.5" stroke="#606060" stroke-width="1.0"/>
           <path id="arrow"
             d="M 11.500037,31.436501 C 11.940474,20.09759 22.043105,11.32322 32.158766,21.979434 L 37.068811,17.246167 C 37.068811,17.246167 37.088388,32 37.088388,32 L 22.160133,31.978069 C 22.160133,31.978069 26.997745,27.140456 26.997745,27.140456 C 18.528582,18.264221 13.291696,25.230495 11.500037,31.436501 z"
             style="fill:#404040;"/>
          </a>
         </g>
        </svg>
</svg>
