<?xml version="1.0" encoding="UTF-8" standalone="no"?>
<!DOCTYPE svg PUBLIC "-//W3C//DTD SVG 1.1//EN"
 "http://www.w3.org/Graphics/SVG/1.1/DTD/svg11.dtd">
<!-- Generated by graphviz version 2.43.0 (0)
 -->
<!-- Title: FileExtInfoLoader.h Pages: 1 -->
<!--zoomable 285 -->
<svg id="main" version="1.1" xmlns="http://www.w3.org/2000/svg" xmlns:xlink="http://www.w3.org/1999/xlink" xml:space="preserve" onload="init(evt)">
<style type="text/css"><![CDATA[
.edge:hover path { stroke: red; }
.edge:hover polygon { stroke: red; fill: red; }
]]></style>
<script type="text/javascript"><![CDATA[
var edges = document.getElementsByTagName('g');
if (edges && edges.length) {
  for (var i=0;i<edges.length;i++) {
    if (edges[i].id.substr(0,4)=='edge') {
      edges[i].setAttribute('class','edge');
    }
  }
}
]]></script>
        <defs>
                <circle id="rim" cx="0" cy="0" r="7"/>
                <circle id="rim2" cx="0" cy="0" r="3.5"/>
                <g id="zoomPlus">
                        <use xlink:href="#rim" fill="#404040">
                                <set attributeName="fill" to="#808080" begin="zoomplus.mouseover" end="zoomplus.mouseout"/>
                        </use>
                        <path d="M-4,0h8M0,-4v8" fill="none" stroke="white" stroke-width="1.5" pointer-events="none"/>
                </g>
                <g id="zoomMin">
                        <use xlink:href="#rim" fill="#404040">
                                <set attributeName="fill" to="#808080" begin="zoomminus.mouseover" end="zoomminus.mouseout"/>
                        </use>
                        <path d="M-4,0h8" fill="none" stroke="white" stroke-width="1.5" pointer-events="none"/>
                </g>
                <g id="dirArrow">
                        <path fill="none" stroke="white" stroke-width="1.5" d="M0,-3.0v7 M-2.5,-0.5L0,-3.0L2.5,-0.5"/>
                </g>
               <g id="resetDef">
                       <use xlink:href="#rim2" fill="#404040">
                               <set attributeName="fill" to="#808080" begin="reset.mouseover" end="reset.mouseout"/>
                       </use>
               </g>
        </defs>

<script type="text/javascript">
var viewWidth = 2095;
var viewHeight = 285;
var sectionId = 'dynsection-0';
</script>
<script xlink:href="svgpan.js"/>
<svg id="graph" class="graph">
<g id="viewport">
<title>FileExtInfoLoader.h</title>
<!-- Node1 -->
<g id="node1" class="node">
<title>Node1</title>
<g id="a_node1"><a xlink:title=" ">
<polygon fill="#bfbfbf" stroke="black" points="544.75,-257.5 544.75,-276.5 654.75,-276.5 654.75,-257.5 544.75,-257.5"/>
<text text-anchor="middle" x="599.75" y="-264.5" font-family="Helvetica,sans-Serif" font-size="10.00">FileExtInfoLoader.h</text>
</a>
</g>
</g>
<!-- Node2 -->
<g id="node2" class="node">
<title>Node2</title>
<g id="a_node2"><a xlink:title=" ">
<polygon fill="none" stroke="#bfbfbf" points="565.75,-62 565.75,-81 603.75,-81 603.75,-62 565.75,-62"/>
<text text-anchor="middle" x="584.75" y="-69" font-family="Helvetica,sans-Serif" font-size="10.00">map</text>
</a>
</g>
</g>
<!-- Node1&#45;&gt;Node2 -->
<g id="edge1" class="edge">
<title>Node1&#45;&gt;Node2</title>
<path fill="none" stroke="midnightblue" d="M544.59,-264.42C433.9,-260.67 188.51,-249.36 109.75,-221 51.79,-200.13 -29.85,-168.43 11.75,-123 48.75,-82.6 443.35,-74.35 555.29,-72.82"/>
<polygon fill="midnightblue" stroke="midnightblue" points="555.56,-76.32 565.51,-72.69 555.47,-69.32 555.56,-76.32"/>
</g>
<!-- Node3 -->
<g id="node3" class="node">
<title>Node3</title>
<g id="a_node3"><a xlink:title=" ">
<polygon fill="none" stroke="#bfbfbf" points="621.75,-62 621.75,-81 665.75,-81 665.75,-62 621.75,-62"/>
<text text-anchor="middle" x="643.75" y="-69" font-family="Helvetica,sans-Serif" font-size="10.00">string</text>
</a>
</g>
</g>
<!-- Node1&#45;&gt;Node3 -->
<g id="edge2" class="edge">
<title>Node1&#45;&gt;Node3</title>
<path fill="none" stroke="midnightblue" d="M655.05,-264.49C687.37,-260.4 725.79,-249.32 746.75,-221 782.57,-172.57 706.74,-113.26 666.57,-86.63"/>
<polygon fill="midnightblue" stroke="midnightblue" points="668.43,-83.66 658.13,-81.17 664.62,-89.54 668.43,-83.66"/>
</g>
<!-- Node4 -->
<g id="node4" class="node">
<title>Node4</title>
<g id="a_node4"><a xlink:title=" ">
<polygon fill="none" stroke="#bfbfbf" points="161.75,-190.5 161.75,-220.5 281.75,-220.5 281.75,-190.5 161.75,-190.5"/>
<text text-anchor="start" x="169.75" y="-208.5" font-family="Helvetica,sans-Serif" font-size="10.00">casacore/casa/Arrays</text>
<text text-anchor="middle" x="221.75" y="-197.5" font-family="Helvetica,sans-Serif" font-size="10.00">/IPosition.h</text>
</a>
</g>
</g>
<!-- Node1&#45;&gt;Node4 -->
<g id="edge3" class="edge">
<title>Node1&#45;&gt;Node4</title>
<path fill="none" stroke="midnightblue" d="M544.6,-259.03C484.78,-251.23 386.24,-237.69 291.91,-221.14"/>
<polygon fill="midnightblue" stroke="midnightblue" points="292.37,-217.67 281.91,-219.38 291.15,-224.56 292.37,-217.67"/>
</g>
<!-- Node5 -->
<g id="node5" class="node">
<title>Node5</title>
<g id="a_node5"><a xlink:title=" ">
<polygon fill="none" stroke="#bfbfbf" points="794.25,-123.5 794.25,-153.5 921.25,-153.5 921.25,-123.5 794.25,-123.5"/>
<text text-anchor="start" x="802.25" y="-141.5" font-family="Helvetica,sans-Serif" font-size="10.00">casacore/casa/Utilities</text>
<text text-anchor="middle" x="857.75" y="-130.5" font-family="Helvetica,sans-Serif" font-size="10.00">/DataType.h</text>
</a>
</g>
</g>
<!-- Node1&#45;&gt;Node5 -->
<g id="edge4" class="edge">
<title>Node1&#45;&gt;Node5</title>
<path fill="none" stroke="midnightblue" d="M655.12,-260.3C692.36,-254.57 741.44,-243.24 779.75,-221 805.33,-206.14 827.88,-180.44 842.07,-161.86"/>
<polygon fill="midnightblue" stroke="midnightblue" points="845.02,-163.76 848.16,-153.64 839.4,-159.59 845.02,-163.76"/>
</g>
<!-- Node6 -->
<g id="node6" class="node">
<title>Node6</title>
<g id="a_node6"><a xlink:title=" ">
<polygon fill="none" stroke="#bfbfbf" points="479.75,-190.5 479.75,-220.5 581.75,-220.5 581.75,-190.5 479.75,-190.5"/>
<text text-anchor="start" x="487.75" y="-208.5" font-family="Helvetica,sans-Serif" font-size="10.00">casacore/fits/FITS</text>
<text text-anchor="middle" x="530.75" y="-197.5" font-family="Helvetica,sans-Serif" font-size="10.00">/hdu.h</text>
</a>
</g>
</g>
<!-- Node1&#45;&gt;Node6 -->
<g id="edge5" class="edge">
<title>Node1&#45;&gt;Node6</title>
<path fill="none" stroke="midnightblue" d="M589.86,-257.48C580.69,-249.57 566.68,-237.48 554.6,-227.07"/>
<polygon fill="midnightblue" stroke="midnightblue" points="556.87,-224.4 547.01,-220.52 552.29,-229.7 556.87,-224.4"/>
</g>
<!-- Node7 -->
<g id="node7" class="node">
<title>Node7</title>
<g id="a_node7"><a xlink:title=" ">
<polygon fill="none" stroke="#bfbfbf" points="599.75,-190.5 599.75,-220.5 737.75,-220.5 737.75,-190.5 599.75,-190.5"/>
<text text-anchor="start" x="607.75" y="-208.5" font-family="Helvetica,sans-Serif" font-size="10.00">casacore/images/Images</text>
<text text-anchor="middle" x="668.75" y="-197.5" font-family="Helvetica,sans-Serif" font-size="10.00">/ImageFITSConverter.h</text>
</a>
</g>
</g>
<!-- Node1&#45;&gt;Node7 -->
<g id="edge6" class="edge">
<title>Node1&#45;&gt;Node7</title>
<path fill="none" stroke="midnightblue" d="M609.63,-257.48C618.8,-249.57 632.81,-237.48 644.89,-227.07"/>
<polygon fill="midnightblue" stroke="midnightblue" points="647.2,-229.7 652.48,-220.52 642.62,-224.4 647.2,-229.7"/>
</g>
<!-- Node8 -->
<g id="node8" class="node">
<title>Node8</title>
<g id="a_node8"><a xlink:title=" ">
<polygon fill="none" stroke="#bfbfbf" points="1605.75,-56.5 1605.75,-86.5 1743.75,-86.5 1743.75,-56.5 1605.75,-56.5"/>
<text text-anchor="start" x="1613.75" y="-74.5" font-family="Helvetica,sans-Serif" font-size="10.00">casacore/images/Images</text>
<text text-anchor="middle" x="1674.75" y="-63.5" font-family="Helvetica,sans-Serif" font-size="10.00">/ImageInterface.h</text>
</a>
</g>
</g>
<!-- Node1&#45;&gt;Node8 -->
<g id="edge7" class="edge">
<title>Node1&#45;&gt;Node8</title>
<path fill="none" stroke="midnightblue" d="M654.82,-266.76C778.82,-267.57 1088.97,-264.64 1343.75,-221 1450.37,-202.74 1482.24,-204.8 1577.75,-154 1607.31,-138.27 1636.02,-112.43 1654.43,-94.06"/>
<polygon fill="midnightblue" stroke="midnightblue" points="1657.15,-96.28 1661.66,-86.7 1652.16,-91.38 1657.15,-96.28"/>
</g>
<!-- Node9 -->
<g id="node9" class="node">
<title>Node9</title>
<g id="a_node9"><a xlink:title=" ">
<polygon fill="none" stroke="#bfbfbf" points="20.75,-123.5 20.75,-153.5 124.75,-153.5 124.75,-123.5 20.75,-123.5"/>
<text text-anchor="start" x="28.75" y="-141.5" font-family="Helvetica,sans-Serif" font-size="10.00">carta&#45;protobuf/file</text>
<text text-anchor="middle" x="72.75" y="-130.5" font-family="Helvetica,sans-Serif" font-size="10.00">_info.pb.h</text>
</a>
</g>
</g>
<!-- Node1&#45;&gt;Node9 -->
<g id="edge8" class="edge">
<title>Node1&#45;&gt;Node9</title>
<path fill="none" stroke="midnightblue" d="M544.59,-265.09C440.78,-262.63 220.69,-253.61 152.75,-221 125.31,-207.83 102.01,-181.15 87.76,-161.9"/>
<polygon fill="midnightblue" stroke="midnightblue" points="90.52,-159.75 81.86,-153.66 84.83,-163.83 90.52,-159.75"/>
</g>
<!-- Node10 -->
<g id="node10" class="node">
<title>Node10</title>
<g id="a_node10"><a xlink:href="CompressedFits_8h.html" target="_top" xlink:title=" ">
<polygon fill="none" stroke="black" points="300.25,-196 300.25,-215 461.25,-215 461.25,-196 300.25,-196"/>
<text text-anchor="middle" x="380.75" y="-203" font-family="Helvetica,sans-Serif" font-size="10.00">ImageData/CompressedFits.h</text>
</a>
</g>
</g>
<!-- Node1&#45;&gt;Node10 -->
<g id="edge9" class="edge">
<title>Node1&#45;&gt;Node10</title>
<path fill="none" stroke="midnightblue" d="M568.37,-257.48C529.83,-247 464.34,-229.21 421.82,-217.66"/>
<polygon fill="midnightblue" stroke="midnightblue" points="422.63,-214.25 412.06,-215.01 420.8,-221.01 422.63,-214.25"/>
</g>
<!-- Node15 -->
<g id="node15" class="node">
<title>Node15</title>
<g id="a_node15"><a xlink:href="FileLoader_8h.html" target="_top" xlink:title=" ">
<polygon fill="none" stroke="black" points="1202.75,-196 1202.75,-215 1334.75,-215 1334.75,-196 1202.75,-196"/>
<text text-anchor="middle" x="1268.75" y="-203" font-family="Helvetica,sans-Serif" font-size="10.00">ImageData/FileLoader.h</text>
</a>
</g>
</g>
<!-- Node1&#45;&gt;Node15 -->
<g id="edge17" class="edge">
<title>Node1&#45;&gt;Node15</title>
<path fill="none" stroke="midnightblue" d="M654.78,-261.11C773.88,-250.51 1055.8,-225.44 1192.2,-213.31"/>
<polygon fill="midnightblue" stroke="midnightblue" points="1192.91,-216.76 1202.56,-212.39 1192.29,-209.79 1192.91,-216.76"/>
</g>
<!-- Node10&#45;&gt;Node2 -->
<g id="edge11" class="edge">
<title>Node10&#45;&gt;Node2</title>
<path fill="none" stroke="midnightblue" d="M428.8,-195.98C486.8,-185.22 577.86,-166.58 587.75,-154 601.72,-136.21 597.08,-108.89 591.62,-90.86"/>
<polygon fill="midnightblue" stroke="midnightblue" points="594.88,-89.57 588.36,-81.23 588.25,-91.82 594.88,-89.57"/>
</g>
<!-- Node10&#45;&gt;Node3 -->
<g id="edge12" class="edge">
<title>Node10&#45;&gt;Node3</title>
<path fill="none" stroke="midnightblue" d="M433.83,-195.96C521.17,-181.88 685.72,-155.21 686.75,-154 704.04,-133.61 680.43,-105.11 661.95,-87.78"/>
<polygon fill="midnightblue" stroke="midnightblue" points="664.26,-85.15 654.48,-81.09 659.59,-90.37 664.26,-85.15"/>
</g>
<!-- Node10&#45;&gt;Node9 -->
<g id="edge16" class="edge">
<title>Node10&#45;&gt;Node9</title>
<path fill="none" stroke="midnightblue" d="M336.93,-195.98C289.51,-186.66 211.43,-171.03 134.79,-154.19"/>
<polygon fill="midnightblue" stroke="midnightblue" points="135.48,-150.76 124.96,-152.03 133.98,-157.6 135.48,-150.76"/>
</g>
<!-- Node11 -->
<g id="node11" class="node">
<title>Node11</title>
<g id="a_node11"><a xlink:title=" ">
<polygon fill="none" stroke="#bfbfbf" points="635.25,-129 635.25,-148 678.25,-148 678.25,-129 635.25,-129"/>
<text text-anchor="middle" x="656.75" y="-136" font-family="Helvetica,sans-Serif" font-size="10.00">zlib.h</text>
</a>
</g>
</g>
<!-- Node10&#45;&gt;Node11 -->
<g id="edge10" class="edge">
<title>Node10&#45;&gt;Node11</title>
<path fill="none" stroke="midnightblue" d="M434.81,-195.92C483.9,-187.47 558.01,-173.07 620.75,-154 623.03,-153.31 625.37,-152.53 627.71,-151.7"/>
<polygon fill="midnightblue" stroke="midnightblue" points="629.05,-154.93 637.16,-148.11 626.57,-148.39 629.05,-154.93"/>
</g>
<!-- Node12 -->
<g id="node12" class="node">
<title>Node12</title>
<g id="a_node12"><a xlink:title=" ">
<polygon fill="none" stroke="#bfbfbf" points="142.75,-123.5 142.75,-153.5 268.75,-153.5 268.75,-123.5 142.75,-123.5"/>
<text text-anchor="start" x="150.75" y="-141.5" font-family="Helvetica,sans-Serif" font-size="10.00">casacore/casa/BasicSL</text>
<text text-anchor="middle" x="205.75" y="-130.5" font-family="Helvetica,sans-Serif" font-size="10.00">/String.h</text>
</a>
</g>
</g>
<!-- Node10&#45;&gt;Node12 -->
<g id="edge13" class="edge">
<title>Node10&#45;&gt;Node12</title>
<path fill="none" stroke="midnightblue" d="M357.51,-195.87C331.02,-186.03 287.02,-169.69 253.2,-157.13"/>
<polygon fill="midnightblue" stroke="midnightblue" points="254.11,-153.73 243.51,-153.53 251.67,-160.29 254.11,-153.73"/>
</g>
<!-- Node13 -->
<g id="node13" class="node">
<title>Node13</title>
<g id="a_node13"><a xlink:title=" ">
<polygon fill="none" stroke="#bfbfbf" points="287.25,-129 287.25,-148 422.25,-148 422.25,-129 287.25,-129"/>
<text text-anchor="middle" x="354.75" y="-136" font-family="Helvetica,sans-Serif" font-size="10.00">casacore/casa/aipsenv.h</text>
</a>
</g>
</g>
<!-- Node10&#45;&gt;Node13 -->
<g id="edge14" class="edge">
<title>Node10&#45;&gt;Node13</title>
<path fill="none" stroke="midnightblue" d="M377.24,-195.73C373.34,-185.99 366.94,-169.98 361.96,-157.53"/>
<polygon fill="midnightblue" stroke="midnightblue" points="365.16,-156.11 358.2,-148.13 358.66,-158.71 365.16,-156.11"/>
</g>
<!-- Node14 -->
<g id="node14" class="node">
<title>Node14</title>
<g id="a_node14"><a xlink:title=" ">
<polygon fill="none" stroke="#bfbfbf" points="440.75,-123.5 440.75,-153.5 578.75,-153.5 578.75,-123.5 440.75,-123.5"/>
<text text-anchor="start" x="448.75" y="-141.5" font-family="Helvetica,sans-Serif" font-size="10.00">casacore/images/Images</text>
<text text-anchor="middle" x="509.75" y="-130.5" font-family="Helvetica,sans-Serif" font-size="10.00">/ImageBeamSet.h</text>
</a>
</g>
</g>
<!-- Node10&#45;&gt;Node14 -->
<g id="edge15" class="edge">
<title>Node10&#45;&gt;Node14</title>
<path fill="none" stroke="midnightblue" d="M397.88,-195.87C416.84,-186.31 447.97,-170.63 472.58,-158.22"/>
<polygon fill="midnightblue" stroke="midnightblue" points="474.3,-161.28 481.66,-153.65 471.15,-155.03 474.3,-161.28"/>
</g>
<!-- Node15&#45;&gt;Node3 -->
<g id="edge19" class="edge">
<title>Node15&#45;&gt;Node3</title>
<path fill="none" stroke="midnightblue" d="M1202.53,-202.81C1139.86,-199.06 1044.37,-187.7 968.75,-154 948.52,-144.99 950.09,-131.74 929.75,-123 824.59,-77.8 784.46,-119.61 674.75,-87 672.87,-86.44 670.96,-85.79 669.05,-85.07"/>
<polygon fill="midnightblue" stroke="midnightblue" points="670.37,-81.82 659.8,-81.11 667.62,-88.26 670.37,-81.82"/>
</g>
<!-- Node15&#45;&gt;Node5 -->
<g id="edge20" class="edge">
<title>Node15&#45;&gt;Node5</title>
<path fill="none" stroke="midnightblue" d="M1208.49,-195.98C1141.72,-186.39 1030.88,-170.05 935.75,-154 934.45,-153.78 933.14,-153.56 931.82,-153.33"/>
<polygon fill="midnightblue" stroke="midnightblue" points="932.02,-149.81 921.57,-151.54 930.81,-156.71 932.02,-149.81"/>
</g>
<!-- Node15&#45;&gt;Node8 -->
<g id="edge21" class="edge">
<title>Node15&#45;&gt;Node8</title>
<path fill="none" stroke="midnightblue" d="M1322.1,-195.99C1361.49,-188.39 1415.67,-175.13 1459.75,-154 1480.66,-143.97 1480.96,-133.3 1501.75,-123 1531.47,-108.27 1566.25,-97.08 1596.8,-89.03"/>
<polygon fill="midnightblue" stroke="midnightblue" points="1597.74,-92.4 1606.55,-86.52 1596,-85.62 1597.74,-92.4"/>
</g>
<!-- Node16 -->
<g id="node16" class="node">
<title>Node16</title>
<g id="a_node16"><a xlink:title=" ">
<polygon fill="none" stroke="#bfbfbf" points="1510.75,-129 1510.75,-148 1568.75,-148 1568.75,-129 1510.75,-129"/>
<text text-anchor="middle" x="1539.75" y="-136" font-family="Helvetica,sans-Serif" font-size="10.00">memory</text>
</a>
</g>
</g>
<!-- Node15&#45;&gt;Node16 -->
<g id="edge18" class="edge">
<title>Node15&#45;&gt;Node16</title>
<path fill="none" stroke="midnightblue" d="M1314.09,-195.95C1360.36,-186.87 1434.06,-171.46 1496.75,-154 1499.76,-153.16 1502.87,-152.23 1505.98,-151.26"/>
<polygon fill="midnightblue" stroke="midnightblue" points="1507.35,-154.5 1515.78,-148.09 1505.19,-147.84 1507.35,-154.5"/>
</g>
<!-- Node17 -->
<g id="node17" class="node">
<title>Node17</title>
<g id="a_node17"><a xlink:title=" ">
<polygon fill="none" stroke="#bfbfbf" points="1449.75,-56.5 1449.75,-86.5 1587.75,-86.5 1587.75,-56.5 1449.75,-56.5"/>
<text text-anchor="start" x="1457.75" y="-74.5" font-family="Helvetica,sans-Serif" font-size="10.00">casacore/images/Images</text>
<text text-anchor="middle" x="1518.75" y="-63.5" font-family="Helvetica,sans-Serif" font-size="10.00">/SubImage.h</text>
</a>
</g>
</g>
<!-- Node15&#45;&gt;Node17 -->
<g id="edge22" class="edge">
<title>Node15&#45;&gt;Node17</title>
<path fill="none" stroke="midnightblue" d="M1310.02,-195.93C1342.58,-188.07 1388.42,-174.49 1424.75,-154 1453.39,-137.84 1481.21,-112.08 1499.05,-93.85"/>
<polygon fill="midnightblue" stroke="midnightblue" points="1501.66,-96.18 1506.07,-86.54 1496.61,-91.33 1501.66,-96.18"/>
</g>
<!-- Node18 -->
<g id="node18" class="node">
<title>Node18</title>
<g id="a_node18"><a xlink:title=" ">
<polygon fill="none" stroke="#bfbfbf" points="1231.75,-62 1231.75,-81 1365.75,-81 1365.75,-62 1231.75,-62"/>
<text text-anchor="middle" x="1298.75" y="-69" font-family="Helvetica,sans-Serif" font-size="10.00">carta&#45;protobuf/defs.pb.h</text>
</a>
</g>
</g>
<!-- Node15&#45;&gt;Node18 -->
<g id="edge23" class="edge">
<title>Node15&#45;&gt;Node18</title>
<path fill="none" stroke="midnightblue" d="M1270.71,-195.84C1275.52,-174.67 1287.96,-119.95 1294.53,-91.03"/>
<polygon fill="midnightblue" stroke="midnightblue" points="1298.01,-91.55 1296.81,-81.02 1291.18,-90 1298.01,-91.55"/>
</g>
<!-- Node19 -->
<g id="node19" class="node">
<title>Node19</title>
<g id="a_node19"><a xlink:title=" ">
<polygon fill="none" stroke="#bfbfbf" points="1067.75,-62 1067.75,-81 1213.75,-81 1213.75,-62 1067.75,-62"/>
<text text-anchor="middle" x="1140.75" y="-69" font-family="Helvetica,sans-Serif" font-size="10.00">carta&#45;protobuf/enums.pb.h</text>
</a>
</g>
</g>
<!-- Node15&#45;&gt;Node19 -->
<g id="edge24" class="edge">
<title>Node15&#45;&gt;Node19</title>
<path fill="none" stroke="midnightblue" d="M1260.35,-195.84C1239.19,-174.02 1183.44,-116.53 1156.18,-88.42"/>
<polygon fill="midnightblue" stroke="midnightblue" points="1158.48,-85.76 1149.01,-81.02 1153.46,-90.64 1158.48,-85.76"/>
</g>
<!-- Node20 -->
<g id="node20" class="node">
<title>Node20</title>
<g id="a_node20"><a xlink:href="FileInfo_8h.html" target="_top" xlink:title=" ">
<polygon fill="none" stroke="black" points="1297.25,-129 1297.25,-148 1416.25,-148 1416.25,-129 1297.25,-129"/>
<text text-anchor="middle" x="1356.75" y="-136" font-family="Helvetica,sans-Serif" font-size="10.00">ImageData/FileInfo.h</text>
</a>
</g>
</g>
<!-- Node15&#45;&gt;Node20 -->
<g id="edge25" class="edge">
<title>Node15&#45;&gt;Node20</title>
<path fill="none" stroke="midnightblue" d="M1280.61,-195.73C1295,-185.11 1319.45,-167.05 1336.76,-154.26"/>
<polygon fill="midnightblue" stroke="midnightblue" points="1339.1,-156.88 1345.07,-148.13 1334.94,-151.25 1339.1,-156.88"/>
</g>
<!-- Node22 -->
<g id="node22" class="node">
<title>Node22</title>
<g id="a_node22"><a xlink:href="Casacore_8h.html" target="_top" xlink:title=" ">
<polygon fill="none" stroke="black" points="1717.25,-129 1717.25,-148 1808.25,-148 1808.25,-129 1717.25,-129"/>
<text text-anchor="middle" x="1762.75" y="-136" font-family="Helvetica,sans-Serif" font-size="10.00">Util/Casacore.h</text>
</a>
</g>
</g>
<!-- Node15&#45;&gt;Node22 -->
<g id="edge31" class="edge">
<title>Node15&#45;&gt;Node22</title>
<path fill="none" stroke="midnightblue" d="M1333.58,-195.97C1431.35,-183.1 1614.86,-158.96 1706.99,-146.84"/>
<polygon fill="midnightblue" stroke="midnightblue" points="1707.49,-150.3 1716.95,-145.53 1706.58,-143.36 1707.49,-150.3"/>
</g>
<!-- Node25 -->
<g id="node25" class="node">
<title>Node25</title>
<g id="a_node25"><a xlink:href="Image_8h.html" target="_top" xlink:title=" ">
<polygon fill="none" stroke="black" points="978.25,-129 978.25,-148 1055.25,-148 1055.25,-129 978.25,-129"/>
<text text-anchor="middle" x="1016.75" y="-136" font-family="Helvetica,sans-Serif" font-size="10.00">Util/Image.h</text>
</a>
</g>
</g>
<!-- Node15&#45;&gt;Node25 -->
<g id="edge35" class="edge">
<title>Node15&#45;&gt;Node25</title>
<path fill="none" stroke="midnightblue" d="M1235.54,-195.94C1190.4,-184.29 1109.61,-163.45 1059.85,-150.62"/>
<polygon fill="midnightblue" stroke="midnightblue" points="1060.58,-147.19 1050.02,-148.08 1058.83,-153.97 1060.58,-147.19"/>
</g>
<!-- Node20&#45;&gt;Node2 -->
<g id="edge26" class="edge">
<title>Node20&#45;&gt;Node2</title>
<path fill="none" stroke="midnightblue" d="M1297.09,-134.12C1126.3,-124.34 645.51,-96.17 612.75,-87 611.08,-86.53 609.4,-85.96 607.73,-85.32"/>
<polygon fill="midnightblue" stroke="midnightblue" points="609.07,-82.08 598.52,-81.06 606.13,-88.43 609.07,-82.08"/>
</g>
<!-- Node20&#45;&gt;Node8 -->
<g id="edge28" class="edge">
<title>Node20&#45;&gt;Node8</title>
<path fill="none" stroke="midnightblue" d="M1398.65,-128.94C1448.75,-118.69 1533.68,-101.33 1596.14,-88.57"/>
<polygon fill="midnightblue" stroke="midnightblue" points="1596.87,-91.99 1605.96,-86.56 1595.47,-85.13 1596.87,-91.99"/>
</g>
<!-- Node20&#45;&gt;Node17 -->
<g id="edge29" class="edge">
<title>Node20&#45;&gt;Node17</title>
<path fill="none" stroke="midnightblue" d="M1378.26,-128.87C1402.67,-119.07 1443.15,-102.83 1474.41,-90.29"/>
<polygon fill="midnightblue" stroke="midnightblue" points="1475.81,-93.5 1483.78,-86.53 1473.2,-87 1475.81,-93.5"/>
</g>
<!-- Node20&#45;&gt;Node18 -->
<g id="edge30" class="edge">
<title>Node20&#45;&gt;Node18</title>
<path fill="none" stroke="midnightblue" d="M1348.92,-128.73C1339.79,-118.5 1324.5,-101.36 1313.19,-88.69"/>
<polygon fill="midnightblue" stroke="midnightblue" points="1315.71,-86.26 1306.44,-81.13 1310.49,-90.92 1315.71,-86.26"/>
</g>
<!-- Node21 -->
<g id="node21" class="node">
<title>Node21</title>
<g id="a_node21"><a xlink:title=" ">
<polygon fill="none" stroke="#bfbfbf" points="1384.25,-62 1384.25,-81 1431.25,-81 1431.25,-62 1384.25,-62"/>
<text text-anchor="middle" x="1407.75" y="-69" font-family="Helvetica,sans-Serif" font-size="10.00">vector</text>
</a>
</g>
</g>
<!-- Node20&#45;&gt;Node21 -->
<g id="edge27" class="edge">
<title>Node20&#45;&gt;Node21</title>
<path fill="none" stroke="midnightblue" d="M1363.62,-128.73C1371.58,-118.6 1384.84,-101.69 1394.76,-89.06"/>
<polygon fill="midnightblue" stroke="midnightblue" points="1397.56,-91.16 1400.98,-81.13 1392.05,-86.83 1397.56,-91.16"/>
</g>
<!-- Node22&#45;&gt;Node8 -->
<g id="edge32" class="edge">
<title>Node22&#45;&gt;Node8</title>
<path fill="none" stroke="midnightblue" d="M1750.88,-128.73C1738.41,-119.53 1718.38,-104.73 1702,-92.63"/>
<polygon fill="midnightblue" stroke="midnightblue" points="1703.94,-89.72 1693.82,-86.59 1699.78,-95.35 1703.94,-89.72"/>
</g>
<!-- Node23 -->
<g id="node23" class="node">
<title>Node23</title>
<g id="a_node23"><a xlink:title=" ">
<polygon fill="none" stroke="#bfbfbf" points="1761.75,-56.5 1761.75,-86.5 1899.75,-86.5 1899.75,-56.5 1761.75,-56.5"/>
<text text-anchor="start" x="1769.75" y="-74.5" font-family="Helvetica,sans-Serif" font-size="10.00">casacore/images/Images</text>
<text text-anchor="middle" x="1830.75" y="-63.5" font-family="Helvetica,sans-Serif" font-size="10.00">/ImageOpener.h</text>
</a>
</g>
</g>
<!-- Node22&#45;&gt;Node23 -->
<g id="edge33" class="edge">
<title>Node22&#45;&gt;Node23</title>
<path fill="none" stroke="midnightblue" d="M1771.92,-128.73C1781.28,-119.78 1796.18,-105.54 1808.64,-93.63"/>
<polygon fill="midnightblue" stroke="midnightblue" points="1811.2,-96.03 1816.01,-86.59 1806.36,-90.97 1811.2,-96.03"/>
</g>
<!-- Node24 -->
<g id="node24" class="node">
<title>Node24</title>
<g id="a_node24"><a xlink:title=" ">
<polygon fill="none" stroke="#bfbfbf" points="1918.25,-56.5 1918.25,-86.5 2087.25,-86.5 2087.25,-56.5 1918.25,-56.5"/>
<text text-anchor="start" x="1926.25" y="-74.5" font-family="Helvetica,sans-Serif" font-size="10.00">casacore/scimath/Mathematics</text>
<text text-anchor="middle" x="2002.75" y="-63.5" font-family="Helvetica,sans-Serif" font-size="10.00">/GaussianBeam.h</text>
</a>
</g>
</g>
<!-- Node22&#45;&gt;Node24 -->
<g id="edge34" class="edge">
<title>Node22&#45;&gt;Node24</title>
<path fill="none" stroke="midnightblue" d="M1794.62,-128.87C1831.88,-118.78 1894.4,-101.84 1941.21,-89.16"/>
<polygon fill="midnightblue" stroke="midnightblue" points="1942.21,-92.52 1950.95,-86.53 1940.38,-85.76 1942.21,-92.52"/>
</g>
<!-- Node25&#45;&gt;Node3 -->
<g id="edge38" class="edge">
<title>Node25&#45;&gt;Node3</title>
<path fill="none" stroke="midnightblue" d="M988.59,-128.99C980.62,-126.8 971.89,-124.61 963.75,-123 836.77,-97.86 799.12,-122.86 674.75,-87 672.82,-86.44 670.86,-85.78 668.91,-85.05"/>
<polygon fill="midnightblue" stroke="midnightblue" points="670.03,-81.73 659.46,-81.01 667.28,-88.16 670.03,-81.73"/>
</g>
<!-- Node25&#45;&gt;Node18 -->
<g id="edge39" class="edge">
<title>Node25&#45;&gt;Node18</title>
<path fill="none" stroke="midnightblue" d="M1053.9,-128.94C1104.73,-117.22 1195.96,-96.19 1251.56,-83.38"/>
<polygon fill="midnightblue" stroke="midnightblue" points="1252.55,-86.74 1261.51,-81.08 1250.98,-79.92 1252.55,-86.74"/>
</g>
<!-- Node25&#45;&gt;Node19 -->
<g id="edge40" class="edge">
<title>Node25&#45;&gt;Node19</title>
<path fill="none" stroke="midnightblue" d="M1033.21,-128.87C1054.15,-117.89 1090.53,-98.82 1115.11,-85.94"/>
<polygon fill="midnightblue" stroke="midnightblue" points="1116.98,-88.91 1124.21,-81.17 1113.73,-82.71 1116.98,-88.91"/>
</g>
<!-- Node26 -->
<g id="node26" class="node">
<title>Node26</title>
<g id="a_node26"><a xlink:title=" ">
<polygon fill="none" stroke="#bfbfbf" points="929.25,-0.5 929.25,-19.5 976.25,-19.5 976.25,-0.5 929.25,-0.5"/>
<text text-anchor="middle" x="952.75" y="-7.5" font-family="Helvetica,sans-Serif" font-size="10.00">cmath</text>
</a>
</g>
</g>
<!-- Node25&#45;&gt;Node26 -->
<g id="edge36" class="edge">
<title>Node25&#45;&gt;Node26</title>
<path fill="none" stroke="midnightblue" d="M1007.42,-128.67C997.92,-119.21 983.4,-103.32 974.75,-87 965.11,-68.84 959.22,-45.93 955.99,-30.04"/>
<polygon fill="midnightblue" stroke="midnightblue" points="959.37,-29.07 954.09,-19.88 952.49,-30.35 959.37,-29.07"/>
</g>
<!-- Node27 -->
<g id="node27" class="node">
<title>Node27</title>
<g id="a_node27"><a xlink:title=" ">
<polygon fill="none" stroke="#bfbfbf" points="984.25,-62 984.25,-81 1049.25,-81 1049.25,-62 984.25,-62"/>
<text text-anchor="middle" x="1016.75" y="-69" font-family="Helvetica,sans-Serif" font-size="10.00">functional</text>
</a>
</g>
</g>
<!-- Node25&#45;&gt;Node27 -->
<g id="edge37" class="edge">
<title>Node25&#45;&gt;Node27</title>
<path fill="none" stroke="midnightblue" d="M1016.75,-128.73C1016.75,-119.18 1016.75,-103.62 1016.75,-91.28"/>
<polygon fill="midnightblue" stroke="midnightblue" points="1020.25,-91.13 1016.75,-81.13 1013.25,-91.13 1020.25,-91.13"/>
</g>
<!-- Node28 -->
<g id="node28" class="node">
<title>Node28</title>
<g id="a_node28"><a xlink:title=" ">
<polygon fill="none" stroke="#bfbfbf" points="683.75,-56.5 683.75,-86.5 803.75,-86.5 803.75,-56.5 683.75,-56.5"/>
<text text-anchor="start" x="691.75" y="-74.5" font-family="Helvetica,sans-Serif" font-size="10.00">carta&#45;protobuf/vector</text>
<text text-anchor="middle" x="743.75" y="-63.5" font-family="Helvetica,sans-Serif" font-size="10.00">_overlay_tile.pb.h</text>
</a>
</g>
</g>
<!-- Node25&#45;&gt;Node28 -->
<g id="edge41" class="edge">
<title>Node25&#45;&gt;Node28</title>
<path fill="none" stroke="midnightblue" d="M986.25,-128.93C978.9,-126.92 971.05,-124.84 963.75,-123 913.85,-110.46 857.28,-97.5 814,-87.85"/>
<polygon fill="midnightblue" stroke="midnightblue" points="814.66,-84.41 804.13,-85.65 813.14,-91.24 814.66,-84.41"/>
</g>
<!-- Node29 -->
<g id="node29" class="node">
<title>Node29</title>
<g id="a_node29"><a xlink:href="Tile_8h.html" target="_top" xlink:title=" ">
<polygon fill="none" stroke="black" points="822.25,-62 822.25,-81 927.25,-81 927.25,-62 822.25,-62"/>
<text text-anchor="middle" x="874.75" y="-69" font-family="Helvetica,sans-Serif" font-size="10.00">DataStream/Tile.h</text>
</a>
</g>
</g>
<!-- Node25&#45;&gt;Node29 -->
<g id="edge42" class="edge">
<title>Node25&#45;&gt;Node29</title>
<path fill="none" stroke="midnightblue" d="M997.89,-128.87C973.59,-117.75 931.14,-98.32 902.99,-85.43"/>
<polygon fill="midnightblue" stroke="midnightblue" points="904.23,-82.15 893.68,-81.17 901.32,-88.51 904.23,-82.15"/>
</g>
<!-- Node29&#45;&gt;Node26 -->
<g id="edge43" class="edge">
<title>Node29&#45;&gt;Node26</title>
<path fill="none" stroke="midnightblue" d="M885.92,-61.98C898.32,-52.52 918.54,-37.1 933.49,-25.69"/>
<polygon fill="midnightblue" stroke="midnightblue" points="935.76,-28.36 941.59,-19.51 931.52,-22.79 935.76,-28.36"/>
</g>
<!-- Node30 -->
<g id="node30" class="node">
<title>Node30</title>
<g id="a_node30"><a xlink:title=" ">
<polygon fill="none" stroke="#bfbfbf" points="853.75,-0.5 853.75,-19.5 903.75,-19.5 903.75,-0.5 853.75,-0.5"/>
<text text-anchor="middle" x="878.75" y="-7.5" font-family="Helvetica,sans-Serif" font-size="10.00">cstdint</text>
</a>
</g>
</g>
<!-- Node29&#45;&gt;Node30 -->
<g id="edge44" class="edge">
<title>Node29&#45;&gt;Node30</title>
<path fill="none" stroke="midnightblue" d="M875.32,-61.98C875.88,-53.58 876.76,-40.48 877.49,-29.66"/>
<polygon fill="midnightblue" stroke="midnightblue" points="880.99,-29.72 878.17,-19.51 874.01,-29.25 880.99,-29.72"/>
</g>
<!-- Node31 -->
<g id="node31" class="node">
<title>Node31</title>
<g id="a_node31"><a xlink:title=" ">
<polygon fill="none" stroke="#bfbfbf" points="775.75,-0.5 775.75,-19.5 835.75,-19.5 835.75,-0.5 775.75,-0.5"/>
<text text-anchor="middle" x="805.75" y="-7.5" font-family="Helvetica,sans-Serif" font-size="10.00">iostream</text>
</a>
</g>
</g>
<!-- Node29&#45;&gt;Node31 -->
<g id="edge45" class="edge">
<title>Node29&#45;&gt;Node31</title>
<path fill="none" stroke="midnightblue" d="M864.86,-61.98C854.1,-52.7 836.67,-37.67 823.52,-26.33"/>
<polygon fill="midnightblue" stroke="midnightblue" points="825.47,-23.39 815.61,-19.51 820.9,-28.69 825.47,-23.39"/>
</g>
</g>
</svg>
        <g id="navigator" transform="translate(0 0)" fill="#404254">
                <rect fill="#f2f5e9" fill-opacity="0.5" stroke="#606060" stroke-width=".5" x="0" y="0" width="60" height="60"/>
                <use id="zoomplus" xlink:href="#zoomPlus" x="17" y="9" onmousedown="handleZoom(evt,'in')"/>
                <use id="zoomminus" xlink:href="#zoomMin" x="42" y="9" onmousedown="handleZoom(evt,'out')"/>
                <use id="reset" xlink:href="#resetDef" x="30" y="36" onmousedown="handleReset()"/>
                <g id="arrowUp" xlink:href="#dirArrow" transform="translate(30 24)" onmousedown="handlePan(0,-1)">
                  <use xlink:href="#rim" fill="#404040">
                        <set attributeName="fill" to="#808080" begin="arrowUp.mouseover" end="arrowUp.mouseout"/>
                  </use>
                  <path fill="none" stroke="white" stroke-width="1.5" d="M0,-3.0v7 M-2.5,-0.5L0,-3.0L2.5,-0.5"/>
                </g>
                <g id="arrowRight" xlink:href="#dirArrow" transform="rotate(90) translate(36 -43)" onmousedown="handlePan(1,0)">
                  <use xlink:href="#rim" fill="#404040">
                        <set attributeName="fill" to="#808080" begin="arrowRight.mouseover" end="arrowRight.mouseout"/>
                  </use>
                  <path fill="none" stroke="white" stroke-width="1.5" d="M0,-3.0v7 M-2.5,-0.5L0,-3.0L2.5,-0.5"/>
                </g>
                <g id="arrowDown" xlink:href="#dirArrow" transform="rotate(180) translate(-30 -48)" onmousedown="handlePan(0,1)">
                  <use xlink:href="#rim" fill="#404040">
                        <set attributeName="fill" to="#808080" begin="arrowDown.mouseover" end="arrowDown.mouseout"/>
                  </use>
                  <path fill="none" stroke="white" stroke-width="1.5" d="M0,-3.0v7 M-2.5,-0.5L0,-3.0L2.5,-0.5"/>
                </g>
                <g id="arrowLeft" xlink:href="#dirArrow" transform="rotate(270) translate(-36 17)" onmousedown="handlePan(-1,0)">
                  <use xlink:href="#rim" fill="#404040">
                        <set attributeName="fill" to="#808080" begin="arrowLeft.mouseover" end="arrowLeft.mouseout"/>
                  </use>
                  <path fill="none" stroke="white" stroke-width="1.5" d="M0,-3.0v7 M-2.5,-0.5L0,-3.0L2.5,-0.5"/>
                </g>
        </g>
        <svg viewBox="0 0 15 15" width="100%" height="30px" preserveAspectRatio="xMaxYMin meet">
         <g id="arrow_out" transform="scale(0.3 0.3)">
          <a xlink:href="FileExtInfoLoader_8h__incl_org.svg" target="_base">
           <rect id="button" ry="5" rx="5" y="6" x="6" height="38" width="38"
                fill="#f2f5e9" fill-opacity="0.5" stroke="#606060" stroke-width="1.0"/>
           <path id="arrow"
             d="M 11.500037,31.436501 C 11.940474,20.09759 22.043105,11.32322 32.158766,21.979434 L 37.068811,17.246167 C 37.068811,17.246167 37.088388,32 37.088388,32 L 22.160133,31.978069 C 22.160133,31.978069 26.997745,27.140456 26.997745,27.140456 C 18.528582,18.264221 13.291696,25.230495 11.500037,31.436501 z"
             style="fill:#404040;"/>
          </a>
         </g>
        </svg>
</svg>
