<?xml version="1.0" encoding="UTF-8" standalone="no"?>
<!DOCTYPE svg PUBLIC "-//W3C//DTD SVG 1.1//EN"
 "http://www.w3.org/Graphics/SVG/1.1/DTD/svg11.dtd">
<!-- Generated by graphviz version 2.43.0 (0)
 -->
<!-- Title: FileInfo.h Pages: 1 -->
<svg width="1881pt" height="588pt"
 viewBox="0.00 0.00 1880.50 588.00" xmlns="http://www.w3.org/2000/svg" xmlns:xlink="http://www.w3.org/1999/xlink">
<g id="graph0" class="graph" transform="scale(1 1) rotate(0) translate(4 584)">
<title>FileInfo.h</title>
<!-- Node1 -->
<g id="node1" class="node">
<title>Node1</title>
<g id="a_node1"><a xlink:title=" ">
<polygon fill="#bfbfbf" stroke="black" points="1192,-560.5 1192,-579.5 1254,-579.5 1254,-560.5 1192,-560.5"/>
<text text-anchor="middle" x="1223" y="-567.5" font-family="Helvetica,sans-Serif" font-size="10.00">FileInfo.h</text>
</a>
</g>
</g>
<!-- Node2 -->
<g id="node2" class="node">
<title>Node2</title>
<g id="a_node2"><a xlink:href="FileInfo_8cc.html" target="_top" xlink:title=" ">
<polygon fill="none" stroke="black" points="1146,-504.5 1146,-523.5 1212,-523.5 1212,-504.5 1146,-504.5"/>
<text text-anchor="middle" x="1179" y="-511.5" font-family="Helvetica,sans-Serif" font-size="10.00">FileInfo.cc</text>
</a>
</g>
</g>
<!-- Node1&#45;&gt;Node2 -->
<g id="edge1" class="edge">
<title>Node1&#45;&gt;Node2</title>
<path fill="none" stroke="midnightblue" d="M1209.27,-552.14C1201.6,-542.74 1192.37,-531.4 1186.13,-523.75"/>
<polygon fill="midnightblue" stroke="midnightblue" points="1206.7,-554.54 1215.73,-560.08 1212.13,-550.12 1206.7,-554.54"/>
</g>
<!-- Node3 -->
<g id="node3" class="node">
<title>Node3</title>
<g id="a_node3"><a xlink:href="FileLoader_8h.html" target="_top" xlink:title=" ">
<polygon fill="none" stroke="black" points="1230.5,-504.5 1230.5,-523.5 1305.5,-523.5 1305.5,-504.5 1230.5,-504.5"/>
<text text-anchor="middle" x="1268" y="-511.5" font-family="Helvetica,sans-Serif" font-size="10.00">FileLoader.h</text>
</a>
</g>
</g>
<!-- Node1&#45;&gt;Node3 -->
<g id="edge2" class="edge">
<title>Node1&#45;&gt;Node3</title>
<path fill="none" stroke="midnightblue" d="M1237.05,-552.14C1244.89,-542.74 1254.33,-531.4 1260.71,-523.75"/>
<polygon fill="midnightblue" stroke="midnightblue" points="1234.14,-550.16 1230.43,-560.08 1239.52,-554.64 1234.14,-550.16"/>
</g>
<!-- Node4 -->
<g id="node4" class="node">
<title>Node4</title>
<g id="a_node4"><a xlink:href="LoaderCache_8h.html" target="_top" xlink:title=" ">
<polygon fill="none" stroke="black" points="633.5,-448.5 633.5,-467.5 722.5,-467.5 722.5,-448.5 633.5,-448.5"/>
<text text-anchor="middle" x="678" y="-455.5" font-family="Helvetica,sans-Serif" font-size="10.00">LoaderCache.h</text>
</a>
</g>
</g>
<!-- Node3&#45;&gt;Node4 -->
<g id="edge3" class="edge">
<title>Node3&#45;&gt;Node4</title>
<path fill="none" stroke="midnightblue" d="M1220.17,-504.04C1021.77,-477.48 969.26,-485.01 774,-468 757.32,-466.55 739.03,-464.86 722.92,-463.33"/>
<polygon fill="midnightblue" stroke="midnightblue" points="1219.97,-507.55 1230.35,-505.42 1220.91,-500.61 1219.97,-507.55"/>
</g>
<!-- Node24 -->
<g id="node24" class="node">
<title>Node24</title>
<g id="a_node24"><a xlink:href="TileCache_8h.html" target="_top" xlink:title=" ">
<polygon fill="none" stroke="black" points="1009,-448.5 1009,-467.5 1083,-467.5 1083,-448.5 1009,-448.5"/>
<text text-anchor="middle" x="1046" y="-455.5" font-family="Helvetica,sans-Serif" font-size="10.00">TileCache.h</text>
</a>
</g>
</g>
<!-- Node3&#45;&gt;Node24 -->
<g id="edge31" class="edge">
<title>Node3&#45;&gt;Node24</title>
<path fill="none" stroke="midnightblue" d="M1222.88,-502.02C1180.94,-491.82 1119.35,-476.84 1081.01,-467.52"/>
<polygon fill="midnightblue" stroke="midnightblue" points="1222.28,-505.48 1232.82,-504.44 1223.93,-498.68 1222.28,-505.48"/>
</g>
<!-- Node26 -->
<g id="node26" class="node">
<title>Node26</title>
<g id="a_node26"><a xlink:href="Frame_8h.html" target="_top" xlink:title=" ">
<polygon fill="none" stroke="black" points="933,-392.5 933,-411.5 989,-411.5 989,-392.5 933,-392.5"/>
<text text-anchor="middle" x="961" y="-399.5" font-family="Helvetica,sans-Serif" font-size="10.00">Frame.h</text>
</a>
</g>
</g>
<!-- Node3&#45;&gt;Node26 -->
<g id="edge54" class="edge">
<title>Node3&#45;&gt;Node26</title>
<path fill="none" stroke="midnightblue" d="M1220.44,-504.06C1120.43,-488.88 1079.79,-522.11 1000,-468 979.74,-454.26 968.33,-426.17 963.61,-411.84"/>
<polygon fill="midnightblue" stroke="midnightblue" points="1219.87,-507.51 1230.31,-505.69 1221.01,-500.61 1219.87,-507.51"/>
</g>
<!-- Node28 -->
<g id="node28" class="node">
<title>Node28</title>
<g id="a_node28"><a xlink:href="Hdf5Loader_8h.html" target="_top" xlink:title=" ">
<polygon fill="none" stroke="black" points="1079.5,-336.5 1079.5,-355.5 1160.5,-355.5 1160.5,-336.5 1079.5,-336.5"/>
<text text-anchor="middle" x="1120" y="-343.5" font-family="Helvetica,sans-Serif" font-size="10.00">Hdf5Loader.h</text>
</a>
</g>
</g>
<!-- Node3&#45;&gt;Node28 -->
<g id="edge68" class="edge">
<title>Node3&#45;&gt;Node28</title>
<path fill="none" stroke="midnightblue" d="M1228.48,-500.88C1210.34,-493.7 1189.66,-483.01 1175,-468 1142.12,-434.32 1126.72,-377.48 1121.82,-355.78"/>
<polygon fill="midnightblue" stroke="midnightblue" points="1227.37,-504.21 1237.96,-504.42 1229.81,-497.65 1227.37,-504.21"/>
</g>
<!-- Node29 -->
<g id="node29" class="node">
<title>Node29</title>
<g id="a_node29"><a xlink:href="FileLoader_8cc.html" target="_top" xlink:title=" ">
<polygon fill="none" stroke="black" points="1549,-280.5 1549,-299.5 1629,-299.5 1629,-280.5 1549,-280.5"/>
<text text-anchor="middle" x="1589" y="-287.5" font-family="Helvetica,sans-Serif" font-size="10.00">FileLoader.cc</text>
</a>
</g>
</g>
<!-- Node3&#45;&gt;Node29 -->
<g id="edge63" class="edge">
<title>Node3&#45;&gt;Node29</title>
<path fill="none" stroke="midnightblue" d="M1255.82,-495.39C1248.33,-482.36 1241.04,-464.15 1246,-448 1254.83,-419.25 1261.55,-412.02 1284,-392 1360.8,-323.5 1485.32,-301.27 1548.89,-294.2"/>
<polygon fill="midnightblue" stroke="midnightblue" points="1253.09,-497.63 1261.38,-504.22 1259.01,-493.89 1253.09,-497.63"/>
</g>
<!-- Node31 -->
<g id="node31" class="node">
<title>Node31</title>
<g id="a_node31"><a xlink:href="PvGenerator_8h.html" target="_top" xlink:title=" ">
<polygon fill="none" stroke="black" points="975,-336.5 975,-355.5 1061,-355.5 1061,-336.5 975,-336.5"/>
<text text-anchor="middle" x="1018" y="-343.5" font-family="Helvetica,sans-Serif" font-size="10.00">PvGenerator.h</text>
</a>
</g>
</g>
<!-- Node3&#45;&gt;Node31 -->
<g id="edge76" class="edge">
<title>Node3&#45;&gt;Node31</title>
<path fill="none" stroke="midnightblue" d="M1224.67,-501.26C1202.74,-493.97 1176.49,-483.08 1156,-468 1120.89,-442.17 1127.04,-420.43 1094,-392 1076.22,-376.7 1052.54,-363.61 1036.37,-355.56"/>
<polygon fill="midnightblue" stroke="midnightblue" points="1223.82,-504.67 1234.41,-504.36 1225.94,-498 1223.82,-504.67"/>
</g>
<!-- Node34 -->
<g id="node34" class="node">
<title>Node34</title>
<g id="a_node34"><a xlink:href="RegionHandler_8cc.html" target="_top" xlink:title=" ">
<polygon fill="none" stroke="black" points="1027.5,-112.5 1027.5,-131.5 1128.5,-131.5 1128.5,-112.5 1027.5,-112.5"/>
<text text-anchor="middle" x="1078" y="-119.5" font-family="Helvetica,sans-Serif" font-size="10.00">RegionHandler.cc</text>
</a>
</g>
</g>
<!-- Node3&#45;&gt;Node34 -->
<g id="edge77" class="edge">
<title>Node3&#45;&gt;Node34</title>
<path fill="none" stroke="midnightblue" d="M1255.04,-496.13C1249.49,-488.04 1243.5,-477.97 1240,-468 1195.47,-341.31 1287.77,-272.96 1204,-168 1185.82,-145.22 1155.18,-133.96 1128.67,-128.4"/>
<polygon fill="midnightblue" stroke="midnightblue" points="1252.25,-498.25 1260.95,-504.3 1257.92,-494.14 1252.25,-498.25"/>
</g>
<!-- Node41 -->
<g id="node39" class="node">
<title>Node41</title>
<g id="a_node39"><a xlink:href="FileExtInfoLoader_8h.html" target="_top" xlink:title=" ">
<polygon fill="none" stroke="black" points="1255,-448.5 1255,-467.5 1365,-467.5 1365,-448.5 1255,-448.5"/>
<text text-anchor="middle" x="1310" y="-455.5" font-family="Helvetica,sans-Serif" font-size="10.00">FileExtInfoLoader.h</text>
</a>
</g>
</g>
<!-- Node3&#45;&gt;Node41 -->
<g id="edge51" class="edge">
<title>Node3&#45;&gt;Node41</title>
<path fill="none" stroke="midnightblue" d="M1281.11,-496.14C1288.43,-486.74 1297.24,-475.4 1303.19,-467.75"/>
<polygon fill="midnightblue" stroke="midnightblue" points="1278.31,-494.04 1274.94,-504.08 1283.84,-498.34 1278.31,-494.04"/>
</g>
<!-- Node43 -->
<g id="node41" class="node">
<title>Node43</title>
<g id="a_node41"><a xlink:href="CasaLoader_8h.html" target="_top" xlink:title=" ">
<polygon fill="none" stroke="black" points="1400,-336.5 1400,-355.5 1482,-355.5 1482,-336.5 1400,-336.5"/>
<text text-anchor="middle" x="1441" y="-343.5" font-family="Helvetica,sans-Serif" font-size="10.00">CasaLoader.h</text>
</a>
</g>
</g>
<!-- Node3&#45;&gt;Node43 -->
<g id="edge55" class="edge">
<title>Node3&#45;&gt;Node43</title>
<path fill="none" stroke="midnightblue" d="M1309.08,-501.23C1329.94,-493.91 1354.84,-483 1374,-468 1412.94,-437.5 1432.6,-377.74 1438.79,-355.55"/>
<polygon fill="midnightblue" stroke="midnightblue" points="1307.89,-497.94 1299.52,-504.44 1310.11,-504.58 1307.89,-497.94"/>
</g>
<!-- Node44 -->
<g id="node42" class="node">
<title>Node44</title>
<g id="a_node42"><a xlink:href="CompListLoader_8h.html" target="_top" xlink:title=" ">
<polygon fill="none" stroke="black" points="1463,-392.5 1463,-411.5 1567,-411.5 1567,-392.5 1463,-392.5"/>
<text text-anchor="middle" x="1515" y="-399.5" font-family="Helvetica,sans-Serif" font-size="10.00">CompListLoader.h</text>
</a>
</g>
</g>
<!-- Node3&#45;&gt;Node44 -->
<g id="edge57" class="edge">
<title>Node3&#45;&gt;Node44</title>
<path fill="none" stroke="midnightblue" d="M1316.14,-508.09C1354.17,-502.61 1407.56,-491.22 1449,-468 1475.1,-453.38 1498.11,-425.69 1508.75,-411.64"/>
<polygon fill="midnightblue" stroke="midnightblue" points="1315.28,-504.68 1305.84,-509.49 1316.22,-511.61 1315.28,-504.68"/>
</g>
<!-- Node45 -->
<g id="node43" class="node">
<title>Node45</title>
<g id="a_node43"><a xlink:href="ConcatLoader_8h.html" target="_top" xlink:title=" ">
<polygon fill="none" stroke="black" points="1543,-336.5 1543,-355.5 1635,-355.5 1635,-336.5 1543,-336.5"/>
<text text-anchor="middle" x="1589" y="-343.5" font-family="Helvetica,sans-Serif" font-size="10.00">ConcatLoader.h</text>
</a>
</g>
</g>
<!-- Node3&#45;&gt;Node45 -->
<g id="edge59" class="edge">
<title>Node3&#45;&gt;Node45</title>
<path fill="none" stroke="midnightblue" d="M1315.67,-506.81C1358.59,-500.28 1422.9,-488.1 1476,-468 1523.64,-449.97 1546.04,-453.19 1576,-412 1588.32,-395.06 1589.69,-369.35 1589.46,-355.91"/>
<polygon fill="midnightblue" stroke="midnightblue" points="1315.16,-503.35 1305.78,-508.27 1316.18,-510.27 1315.16,-503.35"/>
</g>
<!-- Node46 -->
<g id="node44" class="node">
<title>Node46</title>
<g id="a_node44"><a xlink:href="ExprLoader_8h.html" target="_top" xlink:title=" ">
<polygon fill="none" stroke="black" points="1623,-392.5 1623,-411.5 1703,-411.5 1703,-392.5 1623,-392.5"/>
<text text-anchor="middle" x="1663" y="-399.5" font-family="Helvetica,sans-Serif" font-size="10.00">ExprLoader.h</text>
</a>
</g>
</g>
<!-- Node3&#45;&gt;Node46 -->
<g id="edge61" class="edge">
<title>Node3&#45;&gt;Node46</title>
<path fill="none" stroke="midnightblue" d="M1316.12,-510.81C1373.71,-506.98 1472.35,-496.49 1552,-468 1572.29,-460.74 1625.08,-427.48 1649.83,-411.55"/>
<polygon fill="midnightblue" stroke="midnightblue" points="1315.62,-507.34 1305.86,-511.46 1316.06,-514.33 1315.62,-507.34"/>
</g>
<!-- Node47 -->
<g id="node45" class="node">
<title>Node47</title>
<g id="a_node45"><a xlink:href="FitsLoader_8h.html" target="_top" xlink:title=" ">
<polygon fill="none" stroke="black" points="1797.5,-336.5 1797.5,-355.5 1872.5,-355.5 1872.5,-336.5 1797.5,-336.5"/>
<text text-anchor="middle" x="1835" y="-343.5" font-family="Helvetica,sans-Serif" font-size="10.00">FitsLoader.h</text>
</a>
</g>
</g>
<!-- Node3&#45;&gt;Node47 -->
<g id="edge64" class="edge">
<title>Node3&#45;&gt;Node47</title>
<path fill="none" stroke="midnightblue" d="M1316.06,-512.55C1444.28,-510.89 1787.2,-503.17 1823,-468 1854.02,-437.53 1842.89,-377.75 1837.36,-355.56"/>
<polygon fill="midnightblue" stroke="midnightblue" points="1315.72,-509.06 1305.77,-512.68 1315.81,-516.06 1315.72,-509.06"/>
</g>
<!-- Node49 -->
<g id="node47" class="node">
<title>Node49</title>
<g id="a_node47"><a xlink:href="ImagePtrLoader_8h.html" target="_top" xlink:title=" ">
<polygon fill="none" stroke="black" points="1604,-448.5 1604,-467.5 1706,-467.5 1706,-448.5 1604,-448.5"/>
<text text-anchor="middle" x="1655" y="-455.5" font-family="Helvetica,sans-Serif" font-size="10.00">ImagePtrLoader.h</text>
</a>
</g>
</g>
<!-- Node3&#45;&gt;Node49 -->
<g id="edge69" class="edge">
<title>Node3&#45;&gt;Node49</title>
<path fill="none" stroke="midnightblue" d="M1316.15,-506.28C1389.56,-496.04 1528.86,-476.6 1603.96,-466.12"/>
<polygon fill="midnightblue" stroke="midnightblue" points="1315.23,-502.88 1305.81,-507.72 1316.2,-509.81 1315.23,-502.88"/>
</g>
<!-- Node50 -->
<g id="node48" class="node">
<title>Node50</title>
<g id="a_node48"><a xlink:href="MiriadLoader_8h.html" target="_top" xlink:title=" ">
<polygon fill="none" stroke="black" points="1724.5,-448.5 1724.5,-467.5 1813.5,-467.5 1813.5,-448.5 1724.5,-448.5"/>
<text text-anchor="middle" x="1769" y="-455.5" font-family="Helvetica,sans-Serif" font-size="10.00">MiriadLoader.h</text>
</a>
</g>
</g>
<!-- Node3&#45;&gt;Node50 -->
<g id="edge71" class="edge">
<title>Node3&#45;&gt;Node50</title>
<path fill="none" stroke="midnightblue" d="M1315.77,-509.21C1397.67,-502.5 1570.06,-487.35 1715,-468 1718.01,-467.6 1721.12,-467.15 1724.24,-466.69"/>
<polygon fill="midnightblue" stroke="midnightblue" points="1315.45,-505.73 1305.77,-510.03 1316.02,-512.71 1315.45,-505.73"/>
</g>
<!-- Node51 -->
<g id="node49" class="node">
<title>Node51</title>
<g id="a_node49"><a xlink:href="StokesFilesConnector_8h.html" target="_top" xlink:title=" ">
<polygon fill="none" stroke="black" points="783.5,-448.5 783.5,-467.5 912.5,-467.5 912.5,-448.5 783.5,-448.5"/>
<text text-anchor="middle" x="848" y="-455.5" font-family="Helvetica,sans-Serif" font-size="10.00">StokesFilesConnector.h</text>
</a>
</g>
</g>
<!-- Node3&#45;&gt;Node51 -->
<g id="edge73" class="edge">
<title>Node3&#45;&gt;Node51</title>
<path fill="none" stroke="midnightblue" d="M1220.36,-504C1106.11,-486.41 984.95,-472.92 912.54,-465.42"/>
<polygon fill="midnightblue" stroke="midnightblue" points="1219.91,-507.47 1230.33,-505.55 1220.99,-500.56 1219.91,-507.47"/>
</g>
<!-- Node5 -->
<g id="node5" class="node">
<title>Node5</title>
<g id="a_node5"><a xlink:href="LoaderCache_8cc.html" target="_top" xlink:title=" ">
<polygon fill="none" stroke="black" points="631.5,-392.5 631.5,-411.5 724.5,-411.5 724.5,-392.5 631.5,-392.5"/>
<text text-anchor="middle" x="678" y="-399.5" font-family="Helvetica,sans-Serif" font-size="10.00">LoaderCache.cc</text>
</a>
</g>
</g>
<!-- Node4&#45;&gt;Node5 -->
<g id="edge4" class="edge">
<title>Node4&#45;&gt;Node5</title>
<path fill="none" stroke="midnightblue" d="M678,-437.8C678,-428.91 678,-418.78 678,-411.75"/>
<polygon fill="midnightblue" stroke="midnightblue" points="674.5,-438.08 678,-448.08 681.5,-438.08 674.5,-438.08"/>
</g>
<!-- Node6 -->
<g id="node6" class="node">
<title>Node6</title>
<g id="a_node6"><a xlink:href="Session_8h.html" target="_top" xlink:title=" ">
<polygon fill="none" stroke="black" points="666.5,-224.5 666.5,-243.5 729.5,-243.5 729.5,-224.5 666.5,-224.5"/>
<text text-anchor="middle" x="698" y="-231.5" font-family="Helvetica,sans-Serif" font-size="10.00">Session.h</text>
</a>
</g>
</g>
<!-- Node4&#45;&gt;Node6 -->
<g id="edge5" class="edge">
<title>Node4&#45;&gt;Node6</title>
<path fill="none" stroke="midnightblue" d="M651.68,-443.05C640.34,-435.51 628.25,-425.05 622,-412 618.16,-403.98 620.01,-400.66 622,-392 635.94,-331.2 676.66,-266.59 692.03,-243.67"/>
<polygon fill="midnightblue" stroke="midnightblue" points="650.15,-446.21 660.5,-448.46 653.81,-440.25 650.15,-446.21"/>
</g>
<!-- Node7 -->
<g id="node7" class="node">
<title>Node7</title>
<g id="a_node7"><a xlink:href="CursorSettings_8cc.html" target="_top" xlink:title=" ">
<polygon fill="none" stroke="black" points="619.5,-168.5 619.5,-187.5 720.5,-187.5 720.5,-168.5 619.5,-168.5"/>
<text text-anchor="middle" x="670" y="-175.5" font-family="Helvetica,sans-Serif" font-size="10.00">CursorSettings.cc</text>
</a>
</g>
</g>
<!-- Node6&#45;&gt;Node7 -->
<g id="edge6" class="edge">
<title>Node6&#45;&gt;Node7</title>
<path fill="none" stroke="midnightblue" d="M688.66,-214.98C683.91,-205.82 678.34,-195.09 674.54,-187.75"/>
<polygon fill="midnightblue" stroke="midnightblue" points="685.67,-216.82 693.38,-224.08 691.88,-213.59 685.67,-216.82"/>
</g>
<!-- Node8 -->
<g id="node8" class="node">
<title>Node8</title>
<g id="a_node8"><a xlink:href="OnMessageTask_8h.html" target="_top" xlink:title=" ">
<polygon fill="none" stroke="black" points="578,-112.5 578,-131.5 682,-131.5 682,-112.5 578,-112.5"/>
<text text-anchor="middle" x="630" y="-119.5" font-family="Helvetica,sans-Serif" font-size="10.00">OnMessageTask.h</text>
</a>
</g>
</g>
<!-- Node6&#45;&gt;Node8 -->
<g id="edge7" class="edge">
<title>Node6&#45;&gt;Node8</title>
<path fill="none" stroke="midnightblue" d="M656.58,-222.36C639.02,-215.58 620.28,-204.8 610,-188 598.79,-169.67 613.63,-144.55 623.14,-131.56"/>
<polygon fill="midnightblue" stroke="midnightblue" points="655.55,-225.71 666.15,-225.73 657.88,-219.11 655.55,-225.71"/>
</g>
<!-- Node10 -->
<g id="node10" class="node">
<title>Node10</title>
<g id="a_node10"><a xlink:href="Session_8cc.html" target="_top" xlink:title=" ">
<polygon fill="none" stroke="black" points="1031,-0.5 1031,-19.5 1099,-19.5 1099,-0.5 1031,-0.5"/>
<text text-anchor="middle" x="1065" y="-7.5" font-family="Helvetica,sans-Serif" font-size="10.00">Session.cc</text>
</a>
</g>
</g>
<!-- Node6&#45;&gt;Node10 -->
<g id="edge23" class="edge">
<title>Node6&#45;&gt;Node10</title>
<path fill="none" stroke="midnightblue" d="M718.55,-218.47C737.8,-205.01 767.5,-184.62 794,-168 889.12,-108.34 1007.12,-42.78 1049.19,-19.65"/>
<polygon fill="midnightblue" stroke="midnightblue" points="716.42,-215.69 710.24,-224.3 720.44,-221.42 716.42,-215.69"/>
</g>
<!-- Node21 -->
<g id="node21" class="node">
<title>Node21</title>
<g id="a_node21"><a xlink:href="SessionManager_8h.html" target="_top" xlink:title=" ">
<polygon fill="none" stroke="black" points="457.5,-168.5 457.5,-187.5 562.5,-187.5 562.5,-168.5 457.5,-168.5"/>
<text text-anchor="middle" x="510" y="-175.5" font-family="Helvetica,sans-Serif" font-size="10.00">SessionManager.h</text>
</a>
</g>
</g>
<!-- Node6&#45;&gt;Node21 -->
<g id="edge24" class="edge">
<title>Node6&#45;&gt;Node21</title>
<path fill="none" stroke="midnightblue" d="M658.2,-221.57C622.73,-211.38 571.63,-196.7 539.65,-187.52"/>
<polygon fill="midnightblue" stroke="midnightblue" points="657.63,-225.05 668.21,-224.44 659.57,-218.32 657.63,-225.05"/>
</g>
<!-- Node9 -->
<g id="node9" class="node">
<title>Node9</title>
<g id="a_node9"><a xlink:href="OnMessageTask_8cc.html" target="_top" xlink:title=" ">
<polygon fill="none" stroke="black" points="72.5,-0.5 72.5,-19.5 181.5,-19.5 181.5,-0.5 72.5,-0.5"/>
<text text-anchor="middle" x="127" y="-7.5" font-family="Helvetica,sans-Serif" font-size="10.00">OnMessageTask.cc</text>
</a>
</g>
</g>
<!-- Node8&#45;&gt;Node9 -->
<g id="edge8" class="edge">
<title>Node8&#45;&gt;Node9</title>
<path fill="none" stroke="midnightblue" d="M572.52,-110.65C525.28,-101.96 456.64,-88.93 397,-76 311.48,-57.46 211.51,-32.53 160.56,-19.6"/>
<polygon fill="midnightblue" stroke="midnightblue" points="572.1,-114.13 582.57,-112.49 573.36,-107.25 572.1,-114.13"/>
</g>
<!-- Node8&#45;&gt;Node10 -->
<g id="edge9" class="edge">
<title>Node8&#45;&gt;Node10</title>
<path fill="none" stroke="midnightblue" d="M650.93,-106.55C676.24,-89.34 717.63,-62.14 735,-56 856.22,-13.18 895.2,-41.19 1022,-20 1024.86,-19.52 1027.82,-18.99 1030.78,-18.42"/>
<polygon fill="midnightblue" stroke="midnightblue" points="648.68,-103.85 642.4,-112.38 652.63,-109.62 648.68,-103.85"/>
</g>
<!-- Node11 -->
<g id="node11" class="node">
<title>Node11</title>
<g id="a_node11"><a xlink:href="SessionManager_8cc.html" target="_top" xlink:title=" ">
<polygon fill="none" stroke="black" points="903,-0.5 903,-19.5 1013,-19.5 1013,-0.5 903,-0.5"/>
<text text-anchor="middle" x="958" y="-7.5" font-family="Helvetica,sans-Serif" font-size="10.00">SessionManager.cc</text>
</a>
</g>
</g>
<!-- Node8&#45;&gt;Node11 -->
<g id="edge10" class="edge">
<title>Node8&#45;&gt;Node11</title>
<path fill="none" stroke="midnightblue" d="M642.24,-104.08C654.18,-88.94 673.75,-67.41 696,-56 705.18,-51.29 829.27,-31.22 903.33,-19.53"/>
<polygon fill="midnightblue" stroke="midnightblue" points="639.39,-102.06 636.14,-112.14 644.97,-106.29 639.39,-102.06"/>
</g>
<!-- Node12 -->
<g id="node12" class="node">
<title>Node12</title>
<g id="a_node12"><a xlink:href="ThreadingManager_8h.html" target="_top" xlink:title=" ">
<polygon fill="none" stroke="black" points="406,-56.5 406,-75.5 522,-75.5 522,-56.5 406,-56.5"/>
<text text-anchor="middle" x="464" y="-63.5" font-family="Helvetica,sans-Serif" font-size="10.00">ThreadingManager.h</text>
</a>
</g>
</g>
<!-- Node8&#45;&gt;Node12 -->
<g id="edge11" class="edge">
<title>Node8&#45;&gt;Node12</title>
<path fill="none" stroke="midnightblue" d="M594.05,-109.3C562.77,-99.13 518.18,-84.62 490.18,-75.52"/>
<polygon fill="midnightblue" stroke="midnightblue" points="593.1,-112.68 603.7,-112.44 595.27,-106.02 593.1,-112.68"/>
</g>
<!-- Node12&#45;&gt;Node9 -->
<g id="edge16" class="edge">
<title>Node12&#45;&gt;Node9</title>
<path fill="none" stroke="midnightblue" d="M400.68,-54.85C337.01,-44.65 239.94,-29.1 180.15,-19.52"/>
<polygon fill="midnightblue" stroke="midnightblue" points="400.17,-58.32 410.6,-56.44 401.28,-51.41 400.17,-58.32"/>
</g>
<!-- Node12&#45;&gt;Node10 -->
<g id="edge17" class="edge">
<title>Node12&#45;&gt;Node10</title>
<path fill="none" stroke="midnightblue" d="M532.3,-62.26C637.78,-57.41 846.52,-45.34 1022,-20 1024.87,-19.59 1027.83,-19.1 1030.8,-18.56"/>
<polygon fill="midnightblue" stroke="midnightblue" points="531.94,-58.78 522.11,-62.72 532.25,-65.77 531.94,-58.78"/>
</g>
<!-- Node12&#45;&gt;Node11 -->
<g id="edge18" class="edge">
<title>Node12&#45;&gt;Node11</title>
<path fill="none" stroke="midnightblue" d="M532.16,-56.44C533.45,-56.29 534.73,-56.14 536,-56 694.91,-38.08 735.24,-39.14 894,-20 896.9,-19.65 899.86,-19.28 902.86,-18.89"/>
<polygon fill="midnightblue" stroke="midnightblue" points="531.67,-52.97 522.14,-57.61 532.48,-59.92 531.67,-52.97"/>
</g>
<!-- Node13 -->
<g id="node13" class="node">
<title>Node13</title>
<g id="a_node13"><a xlink:href="Contouring_8cc.html" target="_top" xlink:title=" ">
<polygon fill="none" stroke="black" points="601.5,-0.5 601.5,-19.5 684.5,-19.5 684.5,-0.5 601.5,-0.5"/>
<text text-anchor="middle" x="643" y="-7.5" font-family="Helvetica,sans-Serif" font-size="10.00">Contouring.cc</text>
</a>
</g>
</g>
<!-- Node12&#45;&gt;Node13 -->
<g id="edge12" class="edge">
<title>Node12&#45;&gt;Node13</title>
<path fill="none" stroke="midnightblue" d="M502.33,-53.44C536.08,-43.26 584.45,-28.66 614.77,-19.52"/>
<polygon fill="midnightblue" stroke="midnightblue" points="500.93,-50.2 492.36,-56.44 502.95,-56.91 500.93,-50.2"/>
</g>
<!-- Node14 -->
<g id="node14" class="node">
<title>Node14</title>
<g id="a_node14"><a xlink:href="Smoothing_8cc.html" target="_top" xlink:title=" ">
<polygon fill="none" stroke="black" points="702.5,-0.5 702.5,-19.5 785.5,-19.5 785.5,-0.5 702.5,-0.5"/>
<text text-anchor="middle" x="744" y="-7.5" font-family="Helvetica,sans-Serif" font-size="10.00">Smoothing.cc</text>
</a>
</g>
</g>
<!-- Node12&#45;&gt;Node14 -->
<g id="edge13" class="edge">
<title>Node12&#45;&gt;Node14</title>
<path fill="none" stroke="midnightblue" d="M518.4,-54.51C572.15,-44.14 653.21,-28.51 702.13,-19.08"/>
<polygon fill="midnightblue" stroke="midnightblue" points="517.52,-51.11 508.37,-56.44 518.85,-57.99 517.52,-51.11"/>
</g>
<!-- Node15 -->
<g id="node15" class="node">
<title>Node15</title>
<g id="a_node15"><a xlink:href="Histogram_8cc.html" target="_top" xlink:title=" ">
<polygon fill="none" stroke="black" points="803.5,-0.5 803.5,-19.5 884.5,-19.5 884.5,-0.5 803.5,-0.5"/>
<text text-anchor="middle" x="844" y="-7.5" font-family="Helvetica,sans-Serif" font-size="10.00">Histogram.cc</text>
</a>
</g>
</g>
<!-- Node12&#45;&gt;Node15 -->
<g id="edge14" class="edge">
<title>Node12&#45;&gt;Node15</title>
<path fill="none" stroke="midnightblue" d="M532.24,-56.04C613.69,-45.29 745.05,-27.74 794,-20 797.05,-19.52 800.2,-19 803.37,-18.46"/>
<polygon fill="midnightblue" stroke="midnightblue" points="531.52,-52.61 522.07,-57.38 532.44,-59.55 531.52,-52.61"/>
</g>
<!-- Node16 -->
<g id="node16" class="node">
<title>Node16</title>
<g id="a_node16"><a xlink:href="Main_8cc.html" target="_top" xlink:title=" ">
<polygon fill="none" stroke="black" points="0,-0.5 0,-19.5 54,-19.5 54,-0.5 0,-0.5"/>
<text text-anchor="middle" x="27" y="-7.5" font-family="Helvetica,sans-Serif" font-size="10.00">Main.cc</text>
</a>
</g>
</g>
<!-- Node12&#45;&gt;Node16 -->
<g id="edge15" class="edge">
<title>Node12&#45;&gt;Node16</title>
<path fill="none" stroke="midnightblue" d="M395.43,-60.1C315.26,-53.73 178.8,-40.88 63,-20 60.08,-19.47 57.05,-18.85 54.04,-18.17"/>
<polygon fill="midnightblue" stroke="midnightblue" points="395.63,-63.63 405.88,-60.92 396.18,-56.65 395.63,-63.63"/>
</g>
<!-- Node17 -->
<g id="node17" class="node">
<title>Node17</title>
<g id="a_node17"><a xlink:href="Columns_8cc.html" target="_top" xlink:title=" ">
<polygon fill="none" stroke="black" points="199.5,-0.5 199.5,-19.5 272.5,-19.5 272.5,-0.5 199.5,-0.5"/>
<text text-anchor="middle" x="236" y="-7.5" font-family="Helvetica,sans-Serif" font-size="10.00">Columns.cc</text>
</a>
</g>
</g>
<!-- Node12&#45;&gt;Node17 -->
<g id="edge19" class="edge">
<title>Node12&#45;&gt;Node17</title>
<path fill="none" stroke="midnightblue" d="M417.93,-54.09C374.85,-43.89 311.41,-28.86 271.96,-19.52"/>
<polygon fill="midnightblue" stroke="midnightblue" points="417.34,-57.54 427.87,-56.44 418.95,-50.73 417.34,-57.54"/>
</g>
<!-- Node18 -->
<g id="node18" class="node">
<title>Node18</title>
<g id="a_node18"><a xlink:href="Table_8cc.html" target="_top" xlink:title=" ">
<polygon fill="none" stroke="black" points="291,-0.5 291,-19.5 347,-19.5 347,-0.5 291,-0.5"/>
<text text-anchor="middle" x="319" y="-7.5" font-family="Helvetica,sans-Serif" font-size="10.00">Table.cc</text>
</a>
</g>
</g>
<!-- Node12&#45;&gt;Node18 -->
<g id="edge20" class="edge">
<title>Node12&#45;&gt;Node18</title>
<path fill="none" stroke="midnightblue" d="M431.52,-52.91C404.26,-42.75 366.01,-28.51 341.87,-19.52"/>
<polygon fill="midnightblue" stroke="midnightblue" points="430.43,-56.23 441.02,-56.44 432.87,-49.67 430.43,-56.23"/>
</g>
<!-- Node19 -->
<g id="node19" class="node">
<title>Node19</title>
<g id="a_node19"><a xlink:href="TableView_8cc.html" target="_top" xlink:title=" ">
<polygon fill="none" stroke="black" points="365.5,-0.5 365.5,-19.5 444.5,-19.5 444.5,-0.5 365.5,-0.5"/>
<text text-anchor="middle" x="405" y="-7.5" font-family="Helvetica,sans-Serif" font-size="10.00">TableView.cc</text>
</a>
</g>
</g>
<!-- Node12&#45;&gt;Node19 -->
<g id="edge21" class="edge">
<title>Node12&#45;&gt;Node19</title>
<path fill="none" stroke="midnightblue" d="M447.11,-49.54C436.59,-39.91 423.43,-27.87 414.65,-19.83"/>
<polygon fill="midnightblue" stroke="midnightblue" points="444.78,-52.15 454.52,-56.32 449.51,-46.99 444.78,-52.15"/>
</g>
<!-- Node20 -->
<g id="node20" class="node">
<title>Node20</title>
<g id="a_node20"><a xlink:href="ThreadingManager_8cc.html" target="_top" xlink:title=" ">
<polygon fill="none" stroke="black" points="462.5,-0.5 462.5,-19.5 583.5,-19.5 583.5,-0.5 462.5,-0.5"/>
<text text-anchor="middle" x="523" y="-7.5" font-family="Helvetica,sans-Serif" font-size="10.00">ThreadingManager.cc</text>
</a>
</g>
</g>
<!-- Node12&#45;&gt;Node20 -->
<g id="edge22" class="edge">
<title>Node12&#45;&gt;Node20</title>
<path fill="none" stroke="midnightblue" d="M480.89,-49.54C491.41,-39.91 504.57,-27.87 513.35,-19.83"/>
<polygon fill="midnightblue" stroke="midnightblue" points="478.49,-46.99 473.48,-56.32 483.22,-52.15 478.49,-46.99"/>
</g>
<!-- Node21&#45;&gt;Node8 -->
<g id="edge29" class="edge">
<title>Node21&#45;&gt;Node8</title>
<path fill="none" stroke="midnightblue" d="M538.37,-164.23C560.82,-154.13 591.54,-140.31 611.07,-131.52"/>
<polygon fill="midnightblue" stroke="midnightblue" points="536.7,-161.15 529.01,-168.44 539.57,-167.53 536.7,-161.15"/>
</g>
<!-- Node21&#45;&gt;Node11 -->
<g id="edge30" class="edge">
<title>Node21&#45;&gt;Node11</title>
<path fill="none" stroke="midnightblue" d="M522.97,-159.98C534.17,-146.01 551.29,-126.28 569,-112 607.75,-80.75 619.04,-72.52 666,-56 677.05,-52.11 821.13,-30.84 902.68,-18.99"/>
<polygon fill="midnightblue" stroke="midnightblue" points="519.94,-158.18 516.53,-168.21 525.45,-162.5 519.94,-158.18"/>
</g>
<!-- Node21&#45;&gt;Node16 -->
<g id="edge28" class="edge">
<title>Node21&#45;&gt;Node16</title>
<path fill="none" stroke="midnightblue" d="M447.22,-174.8C385.27,-170.98 288.68,-160.53 210,-132 135.88,-105.13 61.98,-42.6 36.4,-19.65"/>
<polygon fill="midnightblue" stroke="midnightblue" points="447.05,-178.3 457.24,-175.38 447.46,-171.31 447.05,-178.3"/>
</g>
<!-- Node22 -->
<g id="node22" class="node">
<title>Node22</title>
<g id="a_node22"><a xlink:href="HttpServer_8h.html" target="_top" xlink:title=" ">
<polygon fill="none" stroke="black" points="219.5,-112.5 219.5,-131.5 296.5,-131.5 296.5,-112.5 219.5,-112.5"/>
<text text-anchor="middle" x="258" y="-119.5" font-family="Helvetica,sans-Serif" font-size="10.00">HttpServer.h</text>
</a>
</g>
</g>
<!-- Node21&#45;&gt;Node22 -->
<g id="edge25" class="edge">
<title>Node21&#45;&gt;Node22</title>
<path fill="none" stroke="midnightblue" d="M460.19,-166.33C412.12,-156.02 340.35,-140.65 296.5,-131.25"/>
<polygon fill="midnightblue" stroke="midnightblue" points="459.56,-169.77 470.07,-168.44 461.03,-162.93 459.56,-169.77"/>
</g>
<!-- Node22&#45;&gt;Node16 -->
<g id="edge27" class="edge">
<title>Node22&#45;&gt;Node16</title>
<path fill="none" stroke="midnightblue" d="M230.74,-108.02C182.97,-85.27 85.36,-38.79 45.04,-19.59"/>
<polygon fill="midnightblue" stroke="midnightblue" points="229.34,-111.23 239.87,-112.37 232.35,-104.91 229.34,-111.23"/>
</g>
<!-- Node23 -->
<g id="node23" class="node">
<title>Node23</title>
<g id="a_node23"><a xlink:href="HttpServer_8cc.html" target="_top" xlink:title=" ">
<polygon fill="none" stroke="black" points="217,-56.5 217,-75.5 299,-75.5 299,-56.5 217,-56.5"/>
<text text-anchor="middle" x="258" y="-63.5" font-family="Helvetica,sans-Serif" font-size="10.00">HttpServer.cc</text>
</a>
</g>
</g>
<!-- Node22&#45;&gt;Node23 -->
<g id="edge26" class="edge">
<title>Node22&#45;&gt;Node23</title>
<path fill="none" stroke="midnightblue" d="M258,-101.8C258,-92.91 258,-82.78 258,-75.75"/>
<polygon fill="midnightblue" stroke="midnightblue" points="254.5,-102.08 258,-112.08 261.5,-102.08 254.5,-102.08"/>
</g>
<!-- Node25 -->
<g id="node25" class="node">
<title>Node25</title>
<g id="a_node25"><a xlink:href="TileCache_8cc.html" target="_top" xlink:title=" ">
<polygon fill="none" stroke="black" points="1007,-392.5 1007,-411.5 1085,-411.5 1085,-392.5 1007,-392.5"/>
<text text-anchor="middle" x="1046" y="-399.5" font-family="Helvetica,sans-Serif" font-size="10.00">TileCache.cc</text>
</a>
</g>
</g>
<!-- Node24&#45;&gt;Node25 -->
<g id="edge32" class="edge">
<title>Node24&#45;&gt;Node25</title>
<path fill="none" stroke="midnightblue" d="M1046,-437.8C1046,-428.91 1046,-418.78 1046,-411.75"/>
<polygon fill="midnightblue" stroke="midnightblue" points="1042.5,-438.08 1046,-448.08 1049.5,-438.08 1042.5,-438.08"/>
</g>
<!-- Node24&#45;&gt;Node26 -->
<g id="edge33" class="edge">
<title>Node24&#45;&gt;Node26</title>
<path fill="none" stroke="midnightblue" d="M1023.81,-442.9C1008.22,-433 987.87,-420.07 974.62,-411.65"/>
<polygon fill="midnightblue" stroke="midnightblue" points="1022.03,-445.92 1032.34,-448.32 1025.78,-440.01 1022.03,-445.92"/>
</g>
<!-- Node26&#45;&gt;Node6 -->
<g id="edge50" class="edge">
<title>Node26&#45;&gt;Node6</title>
<path fill="none" stroke="midnightblue" d="M932.51,-388.02C914.73,-379.57 891.59,-367.94 872,-356 822.81,-326.02 814.47,-312.63 767,-280 748.03,-266.96 725.63,-252.52 711.61,-243.6"/>
<polygon fill="midnightblue" stroke="midnightblue" points="931.24,-391.28 941.78,-392.36 934.21,-384.95 931.24,-391.28"/>
</g>
<!-- Node27 -->
<g id="node27" class="node">
<title>Node27</title>
<g id="a_node27"><a xlink:href="Frame_8cc.html" target="_top" xlink:title=" ">
<polygon fill="none" stroke="black" points="895.5,-336.5 895.5,-355.5 956.5,-355.5 956.5,-336.5 895.5,-336.5"/>
<text text-anchor="middle" x="926" y="-343.5" font-family="Helvetica,sans-Serif" font-size="10.00">Frame.cc</text>
</a>
</g>
</g>
<!-- Node26&#45;&gt;Node27 -->
<g id="edge34" class="edge">
<title>Node26&#45;&gt;Node27</title>
<path fill="none" stroke="midnightblue" d="M949.7,-383.57C943.68,-374.27 936.53,-363.25 931.67,-355.75"/>
<polygon fill="midnightblue" stroke="midnightblue" points="946.84,-385.6 955.22,-392.08 952.72,-381.79 946.84,-385.6"/>
</g>
<!-- Node26&#45;&gt;Node28 -->
<g id="edge35" class="edge">
<title>Node26&#45;&gt;Node28</title>
<path fill="none" stroke="midnightblue" d="M995.83,-389.17C1025.77,-379 1068.22,-364.59 1094.92,-355.52"/>
<polygon fill="midnightblue" stroke="midnightblue" points="994.54,-385.91 986.19,-392.44 996.79,-392.54 994.54,-385.91"/>
</g>
<!-- Node26&#45;&gt;Node31 -->
<g id="edge38" class="edge">
<title>Node26&#45;&gt;Node31</title>
<path fill="none" stroke="midnightblue" d="M977.62,-385.25C987.73,-375.67 1000.28,-363.79 1008.68,-355.83"/>
<polygon fill="midnightblue" stroke="midnightblue" points="975.01,-382.91 970.16,-392.32 979.82,-387.99 975.01,-382.91"/>
</g>
<!-- Node33 -->
<g id="node33" class="node">
<title>Node33</title>
<g id="a_node33"><a xlink:href="RegionHandler_8h.html" target="_top" xlink:title=" ">
<polygon fill="none" stroke="black" points="819.5,-280.5 819.5,-299.5 916.5,-299.5 916.5,-280.5 819.5,-280.5"/>
<text text-anchor="middle" x="868" y="-287.5" font-family="Helvetica,sans-Serif" font-size="10.00">RegionHandler.h</text>
</a>
</g>
</g>
<!-- Node26&#45;&gt;Node33 -->
<g id="edge49" class="edge">
<title>Node26&#45;&gt;Node33</title>
<path fill="none" stroke="midnightblue" d="M928.83,-388.01C914.17,-380.61 897.74,-369.99 887,-356 873.98,-339.02 869.87,-313.33 868.58,-299.9"/>
<polygon fill="midnightblue" stroke="midnightblue" points="927.59,-391.3 938.12,-392.41 930.58,-384.97 927.59,-391.3"/>
</g>
<!-- Node28&#45;&gt;Node29 -->
<g id="edge36" class="edge">
<title>Node28&#45;&gt;Node29</title>
<path fill="none" stroke="midnightblue" d="M1170.92,-339.14C1264.91,-328.32 1463.82,-305.41 1548.96,-295.61"/>
<polygon fill="midnightblue" stroke="midnightblue" points="1170.33,-335.68 1160.8,-340.3 1171.13,-342.64 1170.33,-335.68"/>
</g>
<!-- Node30 -->
<g id="node30" class="node">
<title>Node30</title>
<g id="a_node30"><a xlink:href="Hdf5Loader_8cc.html" target="_top" xlink:title=" ">
<polygon fill="none" stroke="black" points="1079,-280.5 1079,-299.5 1165,-299.5 1165,-280.5 1079,-280.5"/>
<text text-anchor="middle" x="1122" y="-287.5" font-family="Helvetica,sans-Serif" font-size="10.00">Hdf5Loader.cc</text>
</a>
</g>
</g>
<!-- Node28&#45;&gt;Node30 -->
<g id="edge37" class="edge">
<title>Node28&#45;&gt;Node30</title>
<path fill="none" stroke="midnightblue" d="M1120.71,-325.8C1121.04,-316.91 1121.42,-306.78 1121.68,-299.75"/>
<polygon fill="midnightblue" stroke="midnightblue" points="1117.2,-325.96 1120.33,-336.08 1124.2,-326.22 1117.2,-325.96"/>
</g>
<!-- Node32 -->
<g id="node32" class="node">
<title>Node32</title>
<g id="a_node32"><a xlink:href="PvGenerator_8cc.html" target="_top" xlink:title=" ">
<polygon fill="none" stroke="black" points="971,-280.5 971,-299.5 1061,-299.5 1061,-280.5 971,-280.5"/>
<text text-anchor="middle" x="1016" y="-287.5" font-family="Helvetica,sans-Serif" font-size="10.00">PvGenerator.cc</text>
</a>
</g>
</g>
<!-- Node31&#45;&gt;Node32 -->
<g id="edge39" class="edge">
<title>Node31&#45;&gt;Node32</title>
<path fill="none" stroke="midnightblue" d="M1017.29,-325.8C1016.96,-316.91 1016.58,-306.78 1016.32,-299.75"/>
<polygon fill="midnightblue" stroke="midnightblue" points="1013.8,-326.22 1017.67,-336.08 1020.8,-325.96 1013.8,-326.22"/>
</g>
<!-- Node31&#45;&gt;Node33 -->
<g id="edge40" class="edge">
<title>Node31&#45;&gt;Node33</title>
<path fill="none" stroke="midnightblue" d="M984.78,-333.04C956.55,-322.88 916.74,-308.55 891.66,-299.52"/>
<polygon fill="midnightblue" stroke="midnightblue" points="983.64,-336.35 994.23,-336.44 986.01,-329.76 983.64,-336.35"/>
</g>
<!-- Node33&#45;&gt;Node6 -->
<g id="edge48" class="edge">
<title>Node33&#45;&gt;Node6</title>
<path fill="none" stroke="midnightblue" d="M831.18,-277.3C799.15,-267.13 753.48,-252.62 724.81,-243.52"/>
<polygon fill="midnightblue" stroke="midnightblue" points="830.47,-280.75 841.06,-280.44 832.59,-274.08 830.47,-280.75"/>
</g>
<!-- Node33&#45;&gt;Node34 -->
<g id="edge41" class="edge">
<title>Node33&#45;&gt;Node34</title>
<path fill="none" stroke="midnightblue" d="M849.37,-273.52C822.21,-249.12 777.91,-201.12 806,-168 833.83,-135.19 956.67,-126.27 1027.39,-123.87"/>
<polygon fill="midnightblue" stroke="midnightblue" points="847.3,-276.36 857.14,-280.29 851.9,-271.08 847.3,-276.36"/>
</g>
<!-- Node35 -->
<g id="node35" class="node">
<title>Node35</title>
<g id="a_node35"><a xlink:href="RegionImportExport_8h.html" target="_top" xlink:title=" ">
<polygon fill="none" stroke="black" points="896.5,-224.5 896.5,-243.5 1019.5,-243.5 1019.5,-224.5 896.5,-224.5"/>
<text text-anchor="middle" x="958" y="-231.5" font-family="Helvetica,sans-Serif" font-size="10.00">RegionImportExport.h</text>
</a>
</g>
</g>
<!-- Node33&#45;&gt;Node35 -->
<g id="edge42" class="edge">
<title>Node33&#45;&gt;Node35</title>
<path fill="none" stroke="midnightblue" d="M891.04,-275.18C907.6,-265.24 929.42,-252.15 943.58,-243.65"/>
<polygon fill="midnightblue" stroke="midnightblue" points="889.23,-272.18 882.46,-280.32 892.84,-278.18 889.23,-272.18"/>
</g>
<!-- Node36 -->
<g id="node36" class="node">
<title>Node36</title>
<g id="a_node36"><a xlink:href="CrtfImportExport_8h.html" target="_top" xlink:title=" ">
<polygon fill="none" stroke="red" points="961.5,-168.5 961.5,-187.5 1068.5,-187.5 1068.5,-168.5 961.5,-168.5"/>
<text text-anchor="middle" x="1015" y="-175.5" font-family="Helvetica,sans-Serif" font-size="10.00">CrtfImportExport.h</text>
</a>
</g>
</g>
<!-- Node35&#45;&gt;Node36 -->
<g id="edge43" class="edge">
<title>Node35&#45;&gt;Node36</title>
<path fill="none" stroke="midnightblue" d="M974.62,-217.25C984.73,-207.67 997.28,-195.79 1005.68,-187.83"/>
<polygon fill="midnightblue" stroke="midnightblue" points="972.01,-214.91 967.16,-224.32 976.82,-219.99 972.01,-214.91"/>
</g>
<!-- Node38 -->
<g id="node37" class="node">
<title>Node38</title>
<g id="a_node37"><a xlink:href="Ds9ImportExport_8h.html" target="_top" xlink:title=" ">
<polygon fill="none" stroke="red" points="1087,-168.5 1087,-187.5 1195,-187.5 1195,-168.5 1087,-168.5"/>
<text text-anchor="middle" x="1141" y="-175.5" font-family="Helvetica,sans-Serif" font-size="10.00">Ds9ImportExport.h</text>
</a>
</g>
</g>
<!-- Node35&#45;&gt;Node38 -->
<g id="edge45" class="edge">
<title>Node35&#45;&gt;Node38</title>
<path fill="none" stroke="midnightblue" d="M996.74,-221.57C1031.26,-211.38 1081.01,-196.7 1112.14,-187.52"/>
<polygon fill="midnightblue" stroke="midnightblue" points="995.6,-218.26 987,-224.44 997.58,-224.97 995.6,-218.26"/>
</g>
<!-- Node40 -->
<g id="node38" class="node">
<title>Node40</title>
<g id="a_node38"><a xlink:href="RegionImportExport_8cc.html" target="_top" xlink:title=" ">
<polygon fill="none" stroke="black" points="815,-168.5 815,-187.5 943,-187.5 943,-168.5 815,-168.5"/>
<text text-anchor="middle" x="879" y="-175.5" font-family="Helvetica,sans-Serif" font-size="10.00">RegionImportExport.cc</text>
</a>
</g>
</g>
<!-- Node35&#45;&gt;Node40 -->
<g id="edge47" class="edge">
<title>Node35&#45;&gt;Node40</title>
<path fill="none" stroke="midnightblue" d="M936.97,-218.62C922.53,-208.76 903.86,-195.99 891.66,-187.65"/>
<polygon fill="midnightblue" stroke="midnightblue" points="935.08,-221.57 945.31,-224.32 939.03,-215.79 935.08,-221.57"/>
</g>
<!-- Node36&#45;&gt;Node34 -->
<g id="edge44" class="edge">
<title>Node36&#45;&gt;Node34</title>
<path fill="none" stroke="midnightblue" d="M1033.04,-161.54C1044.27,-151.91 1058.32,-139.87 1067.69,-131.83"/>
<polygon fill="midnightblue" stroke="midnightblue" points="1030.44,-159.16 1025.12,-168.32 1034.99,-164.47 1030.44,-159.16"/>
</g>
<!-- Node38&#45;&gt;Node34 -->
<g id="edge46" class="edge">
<title>Node38&#45;&gt;Node34</title>
<path fill="none" stroke="midnightblue" d="M1122.96,-161.54C1111.73,-151.91 1097.68,-139.87 1088.31,-131.83"/>
<polygon fill="midnightblue" stroke="midnightblue" points="1121.01,-164.47 1130.88,-168.32 1125.56,-159.16 1121.01,-164.47"/>
</g>
<!-- Node41&#45;&gt;Node10 -->
<g id="edge53" class="edge">
<title>Node41&#45;&gt;Node10</title>
<path fill="none" stroke="midnightblue" d="M1298.17,-439.96C1284.84,-419.06 1265,-382.07 1265,-347 1265,-347 1265,-347 1265,-121 1265,-46.3 1156.56,-21.97 1099.38,-14.33"/>
<polygon fill="midnightblue" stroke="midnightblue" points="1295.3,-441.97 1303.74,-448.37 1301.13,-438.1 1295.3,-441.97"/>
</g>
<!-- Node42 -->
<g id="node40" class="node">
<title>Node42</title>
<g id="a_node40"><a xlink:href="FileExtInfoLoader_8cc.html" target="_top" xlink:title=" ">
<polygon fill="none" stroke="black" points="1293,-392.5 1293,-411.5 1407,-411.5 1407,-392.5 1293,-392.5"/>
<text text-anchor="middle" x="1350" y="-399.5" font-family="Helvetica,sans-Serif" font-size="10.00">FileExtInfoLoader.cc</text>
</a>
</g>
</g>
<!-- Node41&#45;&gt;Node42 -->
<g id="edge52" class="edge">
<title>Node41&#45;&gt;Node42</title>
<path fill="none" stroke="midnightblue" d="M1322.7,-439.86C1329.63,-430.5 1337.91,-419.33 1343.52,-411.75"/>
<polygon fill="midnightblue" stroke="midnightblue" points="1319.75,-437.96 1316.61,-448.08 1325.37,-442.13 1319.75,-437.96"/>
</g>
<!-- Node43&#45;&gt;Node29 -->
<g id="edge56" class="edge">
<title>Node43&#45;&gt;Node29</title>
<path fill="none" stroke="midnightblue" d="M1474.15,-332.91C1501.97,-322.75 1541.02,-308.51 1565.66,-299.52"/>
<polygon fill="midnightblue" stroke="midnightblue" points="1472.65,-329.73 1464.45,-336.44 1475.04,-336.3 1472.65,-329.73"/>
</g>
<!-- Node44&#45;&gt;Node29 -->
<g id="edge58" class="edge">
<title>Node44&#45;&gt;Node29</title>
<path fill="none" stroke="midnightblue" d="M1517.46,-382.15C1519.93,-368.45 1524.77,-349.94 1534,-336 1544.35,-320.36 1561.8,-307.43 1574.27,-299.5"/>
<polygon fill="midnightblue" stroke="midnightblue" points="1513.95,-381.9 1515.88,-392.32 1520.87,-382.97 1513.95,-381.9"/>
</g>
<!-- Node45&#45;&gt;Node29 -->
<g id="edge60" class="edge">
<title>Node45&#45;&gt;Node29</title>
<path fill="none" stroke="midnightblue" d="M1589,-325.8C1589,-316.91 1589,-306.78 1589,-299.75"/>
<polygon fill="midnightblue" stroke="midnightblue" points="1585.5,-326.08 1589,-336.08 1592.5,-326.08 1585.5,-326.08"/>
</g>
<!-- Node46&#45;&gt;Node29 -->
<g id="edge62" class="edge">
<title>Node46&#45;&gt;Node29</title>
<path fill="none" stroke="midnightblue" d="M1660.54,-382.15C1658.07,-368.45 1653.23,-349.94 1644,-336 1633.65,-320.36 1616.2,-307.43 1603.73,-299.5"/>
<polygon fill="midnightblue" stroke="midnightblue" points="1657.13,-382.97 1662.12,-392.32 1664.05,-381.9 1657.13,-382.97"/>
</g>
<!-- Node47&#45;&gt;Node10 -->
<g id="edge67" class="edge">
<title>Node47&#45;&gt;Node10</title>
<path fill="none" stroke="midnightblue" d="M1835,-326.25C1835,-304.36 1835,-267.05 1835,-235 1835,-235 1835,-235 1835,-121 1835,-45.55 1248.1,-18 1099.08,-12.22"/>
<polygon fill="midnightblue" stroke="midnightblue" points="1831.5,-326.44 1835,-336.44 1838.5,-326.44 1831.5,-326.44"/>
</g>
<!-- Node47&#45;&gt;Node29 -->
<g id="edge65" class="edge">
<title>Node47&#45;&gt;Node29</title>
<path fill="none" stroke="midnightblue" d="M1787.54,-334.58C1741.06,-324.38 1671.11,-309.02 1627.84,-299.53"/>
<polygon fill="midnightblue" stroke="midnightblue" points="1786.85,-338.01 1797.37,-336.74 1788.35,-331.18 1786.85,-338.01"/>
</g>
<!-- Node48 -->
<g id="node46" class="node">
<title>Node48</title>
<g id="a_node46"><a xlink:href="FitsLoader_8cc.html" target="_top" xlink:title=" ">
<polygon fill="none" stroke="black" points="1727,-280.5 1727,-299.5 1807,-299.5 1807,-280.5 1727,-280.5"/>
<text text-anchor="middle" x="1767" y="-287.5" font-family="Helvetica,sans-Serif" font-size="10.00">FitsLoader.cc</text>
</a>
</g>
</g>
<!-- Node47&#45;&gt;Node48 -->
<g id="edge66" class="edge">
<title>Node47&#45;&gt;Node48</title>
<path fill="none" stroke="midnightblue" d="M1816.24,-330.1C1804,-320.38 1788.44,-308.03 1778.12,-299.83"/>
<polygon fill="midnightblue" stroke="midnightblue" points="1814.07,-332.85 1824.07,-336.32 1818.42,-327.36 1814.07,-332.85"/>
</g>
<!-- Node49&#45;&gt;Node29 -->
<g id="edge70" class="edge">
<title>Node49&#45;&gt;Node29</title>
<path fill="none" stroke="midnightblue" d="M1681.67,-443.22C1693.25,-435.7 1705.6,-425.2 1712,-412 1715.88,-404 1715.17,-400.31 1712,-392 1694.08,-345.01 1639.47,-313.79 1609.4,-299.66"/>
<polygon fill="midnightblue" stroke="midnightblue" points="1679.84,-440.23 1673.08,-448.39 1683.45,-446.23 1679.84,-440.23"/>
</g>
<!-- Node50&#45;&gt;Node29 -->
<g id="edge72" class="edge">
<title>Node50&#45;&gt;Node29</title>
<path fill="none" stroke="midnightblue" d="M1761.71,-439.12C1750.33,-413.22 1726.08,-365.17 1692,-336 1671.39,-318.36 1642.8,-306.61 1620.97,-299.55"/>
<polygon fill="midnightblue" stroke="midnightblue" points="1758.54,-440.62 1765.67,-448.46 1764.98,-437.89 1758.54,-440.62"/>
</g>
<!-- Node51&#45;&gt;Node6 -->
<g id="edge75" class="edge">
<title>Node51&#45;&gt;Node6</title>
<path fill="none" stroke="midnightblue" d="M816.7,-444.16C801.56,-436.65 784.09,-425.89 772,-412 725.43,-358.48 705.13,-271.49 699.62,-243.77"/>
<polygon fill="midnightblue" stroke="midnightblue" points="815.22,-447.33 825.76,-448.42 818.19,-441 815.22,-447.33"/>
</g>
<!-- Node52 -->
<g id="node50" class="node">
<title>Node52</title>
<g id="a_node50"><a xlink:href="StokesFilesConnector_8cc.html" target="_top" xlink:title=" ">
<polygon fill="none" stroke="black" points="781,-392.5 781,-411.5 915,-411.5 915,-392.5 781,-392.5"/>
<text text-anchor="middle" x="848" y="-399.5" font-family="Helvetica,sans-Serif" font-size="10.00">StokesFilesConnector.cc</text>
</a>
</g>
</g>
<!-- Node51&#45;&gt;Node52 -->
<g id="edge74" class="edge">
<title>Node51&#45;&gt;Node52</title>
<path fill="none" stroke="midnightblue" d="M848,-437.8C848,-428.91 848,-418.78 848,-411.75"/>
<polygon fill="midnightblue" stroke="midnightblue" points="844.5,-438.08 848,-448.08 851.5,-438.08 844.5,-438.08"/>
</g>
</g>
</svg>
