<?xml version="1.0" encoding="UTF-8" standalone="no"?>
<!DOCTYPE svg PUBLIC "-//W3C//DTD SVG 1.1//EN"
 "http://www.w3.org/Graphics/SVG/1.1/DTD/svg11.dtd">
<!-- Generated by graphviz version 2.43.0 (0)
 -->
<!-- Title: File.h Pages: 1 -->
<svg width="1307pt" height="420pt"
 viewBox="0.00 0.00 1306.50 420.00" xmlns="http://www.w3.org/2000/svg" xmlns:xlink="http://www.w3.org/1999/xlink">
<g id="graph0" class="graph" transform="scale(1 1) rotate(0) translate(4 416)">
<title>File.h</title>
<!-- Node1 -->
<g id="node1" class="node">
<title>Node1</title>
<g id="a_node1"><a xlink:title=" ">
<polygon fill="#bfbfbf" stroke="black" points="635.5,-392.5 635.5,-411.5 678.5,-411.5 678.5,-392.5 635.5,-392.5"/>
<text text-anchor="middle" x="657" y="-399.5" font-family="Helvetica,sans-Serif" font-size="10.00">File.h</text>
</a>
</g>
</g>
<!-- Node2 -->
<g id="node2" class="node">
<title>Node2</title>
<g id="a_node2"><a xlink:href="FileExtInfoLoader_8cc.html" target="_top" xlink:title=" ">
<polygon fill="none" stroke="black" points="0,-336.5 0,-355.5 114,-355.5 114,-336.5 0,-336.5"/>
<text text-anchor="middle" x="57" y="-343.5" font-family="Helvetica,sans-Serif" font-size="10.00">FileExtInfoLoader.cc</text>
</a>
</g>
</g>
<!-- Node1&#45;&gt;Node2 -->
<g id="edge1" class="edge">
<title>Node1&#45;&gt;Node2</title>
<path fill="none" stroke="midnightblue" d="M625.32,-398.9C542.59,-393.3 313.25,-376.97 123,-356 120.13,-355.68 117.18,-355.34 114.22,-354.99"/>
<polygon fill="midnightblue" stroke="midnightblue" points="625.13,-402.4 635.34,-399.58 625.6,-395.41 625.13,-402.4"/>
</g>
<!-- Node3 -->
<g id="node3" class="node">
<title>Node3</title>
<g id="a_node3"><a xlink:href="FileInfoLoader_8cc.html" target="_top" xlink:title=" ">
<polygon fill="none" stroke="black" points="132,-336.5 132,-355.5 230,-355.5 230,-336.5 132,-336.5"/>
<text text-anchor="middle" x="181" y="-343.5" font-family="Helvetica,sans-Serif" font-size="10.00">FileInfoLoader.cc</text>
</a>
</g>
</g>
<!-- Node1&#45;&gt;Node3 -->
<g id="edge2" class="edge">
<title>Node1&#45;&gt;Node3</title>
<path fill="none" stroke="midnightblue" d="M624.83,-398.05C554.65,-391.51 382.57,-374.86 239,-356 236.07,-355.62 233.06,-355.2 230.02,-354.77"/>
<polygon fill="midnightblue" stroke="midnightblue" points="624.92,-401.58 635.2,-399.02 625.57,-394.61 624.92,-401.58"/>
</g>
<!-- Node4 -->
<g id="node4" class="node">
<title>Node4</title>
<g id="a_node4"><a xlink:href="FileListHandler_8cc.html" target="_top" xlink:title=" ">
<polygon fill="none" stroke="black" points="248,-336.5 248,-355.5 350,-355.5 350,-336.5 248,-336.5"/>
<text text-anchor="middle" x="299" y="-343.5" font-family="Helvetica,sans-Serif" font-size="10.00">FileListHandler.cc</text>
</a>
</g>
</g>
<!-- Node1&#45;&gt;Node4 -->
<g id="edge3" class="edge">
<title>Node1&#45;&gt;Node4</title>
<path fill="none" stroke="midnightblue" d="M625.44,-396.24C563.42,-386.88 425.17,-366.03 350.01,-354.69"/>
<polygon fill="midnightblue" stroke="midnightblue" points="625,-399.71 635.41,-397.74 626.05,-392.79 625,-399.71"/>
</g>
<!-- Node5 -->
<g id="node5" class="node">
<title>Node5</title>
<g id="a_node5"><a xlink:href="FitsHduList_8cc.html" target="_top" xlink:title=" ">
<polygon fill="none" stroke="black" points="368,-336.5 368,-355.5 452,-355.5 452,-336.5 368,-336.5"/>
<text text-anchor="middle" x="410" y="-343.5" font-family="Helvetica,sans-Serif" font-size="10.00">FitsHduList.cc</text>
</a>
</g>
</g>
<!-- Node1&#45;&gt;Node5 -->
<g id="edge4" class="edge">
<title>Node1&#45;&gt;Node5</title>
<path fill="none" stroke="midnightblue" d="M625.27,-394.06C580.25,-384.22 497.89,-366.21 449.13,-355.56"/>
<polygon fill="midnightblue" stroke="midnightblue" points="624.56,-397.49 635.08,-396.21 626.06,-390.65 624.56,-397.49"/>
</g>
<!-- Node6 -->
<g id="node6" class="node">
<title>Node6</title>
<g id="a_node6"><a xlink:href="FileLoader_8cc.html" target="_top" xlink:title=" ">
<polygon fill="none" stroke="black" points="470,-336.5 470,-355.5 550,-355.5 550,-336.5 470,-336.5"/>
<text text-anchor="middle" x="510" y="-343.5" font-family="Helvetica,sans-Serif" font-size="10.00">FileLoader.cc</text>
</a>
</g>
</g>
<!-- Node1&#45;&gt;Node6 -->
<g id="edge5" class="edge">
<title>Node1&#45;&gt;Node6</title>
<path fill="none" stroke="midnightblue" d="M625.7,-389.5C598,-379.33 558.2,-364.7 533.24,-355.54"/>
<polygon fill="midnightblue" stroke="midnightblue" points="624.72,-392.87 635.31,-393.03 627.13,-386.3 624.72,-392.87"/>
</g>
<!-- Node7 -->
<g id="node7" class="node">
<title>Node7</title>
<g id="a_node7"><a xlink:href="PvPreviewCube_8h.html" target="_top" xlink:title=" ">
<polygon fill="none" stroke="black" points="606.5,-336.5 606.5,-355.5 707.5,-355.5 707.5,-336.5 606.5,-336.5"/>
<text text-anchor="middle" x="657" y="-343.5" font-family="Helvetica,sans-Serif" font-size="10.00">PvPreviewCube.h</text>
</a>
</g>
</g>
<!-- Node1&#45;&gt;Node7 -->
<g id="edge6" class="edge">
<title>Node1&#45;&gt;Node7</title>
<path fill="none" stroke="midnightblue" d="M657,-381.8C657,-372.91 657,-362.78 657,-355.75"/>
<polygon fill="midnightblue" stroke="midnightblue" points="653.5,-382.08 657,-392.08 660.5,-382.08 653.5,-382.08"/>
</g>
<!-- Node10 -->
<g id="node10" class="node">
<title>Node10</title>
<g id="a_node10"><a xlink:href="RegionHandler_8cc.html" target="_top" xlink:title=" ">
<polygon fill="none" stroke="black" points="106.5,-112.5 106.5,-131.5 207.5,-131.5 207.5,-112.5 106.5,-112.5"/>
<text text-anchor="middle" x="157" y="-119.5" font-family="Helvetica,sans-Serif" font-size="10.00">RegionHandler.cc</text>
</a>
</g>
</g>
<!-- Node1&#45;&gt;Node10 -->
<g id="edge48" class="edge">
<title>Node1&#45;&gt;Node10</title>
<path fill="none" stroke="midnightblue" d="M637.93,-386.24C618.79,-371.95 588.06,-350.39 559,-336 399.55,-257.02 309.65,-316.91 187,-188 171.24,-171.43 162.64,-145.1 159.04,-131.6"/>
<polygon fill="midnightblue" stroke="midnightblue" points="636.01,-389.18 646.09,-392.42 640.23,-383.6 636.01,-389.18"/>
</g>
<!-- Node21 -->
<g id="node21" class="node">
<title>Node21</title>
<g id="a_node21"><a xlink:href="Session_8cc.html" target="_top" xlink:title=" ">
<polygon fill="none" stroke="black" points="1167,-0.5 1167,-19.5 1235,-19.5 1235,-0.5 1167,-0.5"/>
<text text-anchor="middle" x="1201" y="-7.5" font-family="Helvetica,sans-Serif" font-size="10.00">Session.cc</text>
</a>
</g>
</g>
<!-- Node1&#45;&gt;Node21 -->
<g id="edge49" class="edge">
<title>Node1&#45;&gt;Node21</title>
<path fill="none" stroke="midnightblue" d="M688.89,-399.68C737.22,-396.7 831.12,-387.06 904,-356 949.39,-336.66 994,-340.34 994,-291 994,-291 994,-291 994,-121 994,-81.02 1115.96,-37.6 1172.65,-19.58"/>
<polygon fill="midnightblue" stroke="midnightblue" points="688.52,-396.19 678.73,-400.25 688.91,-403.18 688.52,-396.19"/>
</g>
<!-- Node29 -->
<g id="node29" class="node">
<title>Node29</title>
<g id="a_node29"><a xlink:href="Table_8cc.html" target="_top" xlink:title=" ">
<polygon fill="none" stroke="black" points="1093,-0.5 1093,-19.5 1149,-19.5 1149,-0.5 1093,-0.5"/>
<text text-anchor="middle" x="1121" y="-7.5" font-family="Helvetica,sans-Serif" font-size="10.00">Table.cc</text>
</a>
</g>
</g>
<!-- Node1&#45;&gt;Node29 -->
<g id="edge50" class="edge">
<title>Node1&#45;&gt;Node29</title>
<path fill="none" stroke="midnightblue" d="M688.56,-396.28C765.41,-383.91 956,-347.52 956,-291 956,-291 956,-291 956,-121 956,-90.2 957.74,-77.28 980,-56 988.33,-48.03 1054.3,-29.11 1092.98,-18.52"/>
<polygon fill="midnightblue" stroke="midnightblue" points="687.84,-392.85 678.5,-397.87 688.93,-399.77 687.84,-392.85"/>
</g>
<!-- Node35 -->
<g id="node35" class="node">
<title>Node35</title>
<g id="a_node35"><a xlink:href="PvPreviewCut_8h.html" target="_top" xlink:title=" ">
<polygon fill="none" stroke="black" points="725.5,-336.5 725.5,-355.5 818.5,-355.5 818.5,-336.5 725.5,-336.5"/>
<text text-anchor="middle" x="772" y="-343.5" font-family="Helvetica,sans-Serif" font-size="10.00">PvPreviewCut.h</text>
</a>
</g>
</g>
<!-- Node1&#45;&gt;Node35 -->
<g id="edge44" class="edge">
<title>Node1&#45;&gt;Node35</title>
<path fill="none" stroke="midnightblue" d="M684.48,-388.1C705.97,-378.01 735.22,-364.27 753.86,-355.52"/>
<polygon fill="midnightblue" stroke="midnightblue" points="682.79,-385.02 675.22,-392.44 685.76,-391.36 682.79,-385.02"/>
</g>
<!-- Node37 -->
<g id="node37" class="node">
<title>Node37</title>
<g id="a_node37"><a xlink:href="WebBrowser_8cc.html" target="_top" xlink:title=" ">
<polygon fill="none" stroke="black" points="1022,-336.5 1022,-355.5 1112,-355.5 1112,-336.5 1022,-336.5"/>
<text text-anchor="middle" x="1067" y="-343.5" font-family="Helvetica,sans-Serif" font-size="10.00">WebBrowser.cc</text>
</a>
</g>
</g>
<!-- Node1&#45;&gt;Node37 -->
<g id="edge47" class="edge">
<title>Node1&#45;&gt;Node37</title>
<path fill="none" stroke="midnightblue" d="M689.06,-397.15C750.83,-389.67 890.63,-372.47 1008,-356 1012.51,-355.37 1017.22,-354.68 1021.92,-353.99"/>
<polygon fill="midnightblue" stroke="midnightblue" points="688.3,-393.72 678.79,-398.39 689.14,-400.67 688.3,-393.72"/>
</g>
<!-- Node38 -->
<g id="node38" class="node">
<title>Node38</title>
<g id="a_node38"><a xlink:href="TableController_8cc.html" target="_top" xlink:title=" ">
<polygon fill="none" stroke="black" points="1130.5,-336.5 1130.5,-355.5 1233.5,-355.5 1233.5,-336.5 1130.5,-336.5"/>
<text text-anchor="middle" x="1182" y="-343.5" font-family="Helvetica,sans-Serif" font-size="10.00">TableController.cc</text>
</a>
</g>
</g>
<!-- Node1&#45;&gt;Node38 -->
<g id="edge51" class="edge">
<title>Node1&#45;&gt;Node38</title>
<path fill="none" stroke="midnightblue" d="M689.03,-398.45C764.44,-392.31 959.05,-375.79 1121,-356 1124.08,-355.62 1127.25,-355.22 1130.44,-354.79"/>
<polygon fill="midnightblue" stroke="midnightblue" points="688.47,-394.98 678.78,-399.28 689.03,-401.96 688.47,-394.98"/>
</g>
<!-- Node39 -->
<g id="node39" class="node">
<title>Node39</title>
<g id="a_node39"><a xlink:href="File_8cc.html" target="_top" xlink:title=" ">
<polygon fill="none" stroke="black" points="1251.5,-336.5 1251.5,-355.5 1298.5,-355.5 1298.5,-336.5 1251.5,-336.5"/>
<text text-anchor="middle" x="1275" y="-343.5" font-family="Helvetica,sans-Serif" font-size="10.00">File.cc</text>
</a>
</g>
</g>
<!-- Node1&#45;&gt;Node39 -->
<g id="edge52" class="edge">
<title>Node1&#45;&gt;Node39</title>
<path fill="none" stroke="midnightblue" d="M688.95,-400.75C777.61,-399.6 1033.95,-393.05 1243,-356 1245.73,-355.52 1248.56,-354.9 1251.36,-354.21"/>
<polygon fill="midnightblue" stroke="midnightblue" points="688.7,-397.26 678.74,-400.87 688.78,-404.26 688.7,-397.26"/>
</g>
<!-- Node8 -->
<g id="node8" class="node">
<title>Node8</title>
<g id="a_node8"><a xlink:href="PvPreviewCube_8cc.html" target="_top" xlink:title=" ">
<polygon fill="none" stroke="black" points="484,-280.5 484,-299.5 590,-299.5 590,-280.5 484,-280.5"/>
<text text-anchor="middle" x="537" y="-287.5" font-family="Helvetica,sans-Serif" font-size="10.00">PvPreviewCube.cc</text>
</a>
</g>
</g>
<!-- Node7&#45;&gt;Node8 -->
<g id="edge7" class="edge">
<title>Node7&#45;&gt;Node8</title>
<path fill="none" stroke="midnightblue" d="M628.63,-332.23C606.18,-322.13 575.46,-308.31 555.93,-299.52"/>
<polygon fill="midnightblue" stroke="midnightblue" points="627.43,-335.53 637.99,-336.44 630.3,-329.15 627.43,-335.53"/>
</g>
<!-- Node9 -->
<g id="node9" class="node">
<title>Node9</title>
<g id="a_node9"><a xlink:href="RegionHandler_8h.html" target="_top" xlink:title=" ">
<polygon fill="none" stroke="black" points="608.5,-280.5 608.5,-299.5 705.5,-299.5 705.5,-280.5 608.5,-280.5"/>
<text text-anchor="middle" x="657" y="-287.5" font-family="Helvetica,sans-Serif" font-size="10.00">RegionHandler.h</text>
</a>
</g>
</g>
<!-- Node7&#45;&gt;Node9 -->
<g id="edge8" class="edge">
<title>Node7&#45;&gt;Node9</title>
<path fill="none" stroke="midnightblue" d="M657,-325.8C657,-316.91 657,-306.78 657,-299.75"/>
<polygon fill="midnightblue" stroke="midnightblue" points="653.5,-326.08 657,-336.08 660.5,-326.08 653.5,-326.08"/>
</g>
<!-- Node9&#45;&gt;Node10 -->
<g id="edge9" class="edge">
<title>Node9&#45;&gt;Node10</title>
<path fill="none" stroke="midnightblue" d="M597.93,-279.51C548.74,-271.25 476.99,-258.37 415,-244 324.66,-223.06 292.51,-237.36 214,-188 190.37,-173.14 170.99,-145.56 162.15,-131.59"/>
<polygon fill="midnightblue" stroke="midnightblue" points="597.63,-283.01 608.07,-281.2 598.78,-276.1 597.63,-283.01"/>
</g>
<!-- Node11 -->
<g id="node11" class="node">
<title>Node11</title>
<g id="a_node11"><a xlink:href="RegionImportExport_8h.html" target="_top" xlink:title=" ">
<polygon fill="none" stroke="black" points="424.5,-224.5 424.5,-243.5 547.5,-243.5 547.5,-224.5 424.5,-224.5"/>
<text text-anchor="middle" x="486" y="-231.5" font-family="Helvetica,sans-Serif" font-size="10.00">RegionImportExport.h</text>
</a>
</g>
</g>
<!-- Node9&#45;&gt;Node11 -->
<g id="edge10" class="edge">
<title>Node9&#45;&gt;Node11</title>
<path fill="none" stroke="midnightblue" d="M619.96,-277.3C587.74,-267.13 541.81,-252.62 512.97,-243.52"/>
<polygon fill="midnightblue" stroke="midnightblue" points="619.31,-280.77 629.9,-280.44 621.42,-274.09 619.31,-280.77"/>
</g>
<!-- Node17 -->
<g id="node17" class="node">
<title>Node17</title>
<g id="a_node17"><a xlink:href="Session_8h.html" target="_top" xlink:title=" ">
<polygon fill="none" stroke="black" points="724.5,-224.5 724.5,-243.5 787.5,-243.5 787.5,-224.5 724.5,-224.5"/>
<text text-anchor="middle" x="756" y="-231.5" font-family="Helvetica,sans-Serif" font-size="10.00">Session.h</text>
</a>
</g>
</g>
<!-- Node9&#45;&gt;Node17 -->
<g id="edge18" class="edge">
<title>Node9&#45;&gt;Node17</title>
<path fill="none" stroke="midnightblue" d="M681.84,-275.45C700.11,-265.48 724.42,-252.23 740.13,-243.65"/>
<polygon fill="midnightblue" stroke="midnightblue" points="680.01,-272.46 672.91,-280.32 683.36,-278.61 680.01,-272.46"/>
</g>
<!-- Node12 -->
<g id="node12" class="node">
<title>Node12</title>
<g id="a_node12"><a xlink:href="CrtfImportExport_8h.html" target="_top" xlink:title=" ">
<polygon fill="none" stroke="black" points="369.5,-168.5 369.5,-187.5 476.5,-187.5 476.5,-168.5 369.5,-168.5"/>
<text text-anchor="middle" x="423" y="-175.5" font-family="Helvetica,sans-Serif" font-size="10.00">CrtfImportExport.h</text>
</a>
</g>
</g>
<!-- Node11&#45;&gt;Node12 -->
<g id="edge11" class="edge">
<title>Node11&#45;&gt;Node12</title>
<path fill="none" stroke="midnightblue" d="M467.96,-217.54C456.73,-207.91 442.68,-195.87 433.31,-187.83"/>
<polygon fill="midnightblue" stroke="midnightblue" points="466.01,-220.47 475.88,-224.32 470.56,-215.16 466.01,-220.47"/>
</g>
<!-- Node14 -->
<g id="node14" class="node">
<title>Node14</title>
<g id="a_node14"><a xlink:href="Ds9ImportExport_8h.html" target="_top" xlink:title=" ">
<polygon fill="none" stroke="black" points="495,-168.5 495,-187.5 603,-187.5 603,-168.5 495,-168.5"/>
<text text-anchor="middle" x="549" y="-175.5" font-family="Helvetica,sans-Serif" font-size="10.00">Ds9ImportExport.h</text>
</a>
</g>
</g>
<!-- Node11&#45;&gt;Node14 -->
<g id="edge14" class="edge">
<title>Node11&#45;&gt;Node14</title>
<path fill="none" stroke="midnightblue" d="M504.04,-217.54C515.27,-207.91 529.32,-195.87 538.69,-187.83"/>
<polygon fill="midnightblue" stroke="midnightblue" points="501.44,-215.16 496.12,-224.32 505.99,-220.47 501.44,-215.16"/>
</g>
<!-- Node16 -->
<g id="node16" class="node">
<title>Node16</title>
<g id="a_node16"><a xlink:href="RegionImportExport_8cc.html" target="_top" xlink:title=" ">
<polygon fill="none" stroke="black" points="223,-168.5 223,-187.5 351,-187.5 351,-168.5 223,-168.5"/>
<text text-anchor="middle" x="287" y="-175.5" font-family="Helvetica,sans-Serif" font-size="10.00">RegionImportExport.cc</text>
</a>
</g>
</g>
<!-- Node11&#45;&gt;Node16 -->
<g id="edge17" class="edge">
<title>Node11&#45;&gt;Node16</title>
<path fill="none" stroke="midnightblue" d="M444.35,-221.7C406.79,-211.51 352.39,-196.74 318.38,-187.52"/>
<polygon fill="midnightblue" stroke="midnightblue" points="443.9,-225.2 454.47,-224.44 445.73,-218.45 443.9,-225.2"/>
</g>
<!-- Node12&#45;&gt;Node10 -->
<g id="edge13" class="edge">
<title>Node12&#45;&gt;Node10</title>
<path fill="none" stroke="midnightblue" d="M370.83,-166.41C320.56,-156.2 245.47,-140.96 198.95,-131.52"/>
<polygon fill="midnightblue" stroke="midnightblue" points="370.36,-169.88 380.85,-168.44 371.75,-163.02 370.36,-169.88"/>
</g>
<!-- Node13 -->
<g id="node13" class="node">
<title>Node13</title>
<g id="a_node13"><a xlink:href="CrtfImportExport_8cc.html" target="_top" xlink:title=" ">
<polygon fill="none" stroke="black" points="226,-112.5 226,-131.5 338,-131.5 338,-112.5 226,-112.5"/>
<text text-anchor="middle" x="282" y="-119.5" font-family="Helvetica,sans-Serif" font-size="10.00">CrtfImportExport.cc</text>
</a>
</g>
</g>
<!-- Node12&#45;&gt;Node13 -->
<g id="edge12" class="edge">
<title>Node12&#45;&gt;Node13</title>
<path fill="none" stroke="midnightblue" d="M391.07,-164.77C364.59,-154.63 327.61,-140.47 304.24,-131.52"/>
<polygon fill="midnightblue" stroke="midnightblue" points="390.07,-168.14 400.66,-168.44 392.57,-161.6 390.07,-168.14"/>
</g>
<!-- Node14&#45;&gt;Node10 -->
<g id="edge16" class="edge">
<title>Node14&#45;&gt;Node10</title>
<path fill="none" stroke="midnightblue" d="M484.89,-167.99C364.3,-151.48 332.85,-148.47 217,-132 213.98,-131.57 210.87,-131.12 207.73,-130.67"/>
<polygon fill="midnightblue" stroke="midnightblue" points="484.5,-171.47 494.88,-169.37 485.45,-164.54 484.5,-171.47"/>
</g>
<!-- Node15 -->
<g id="node15" class="node">
<title>Node15</title>
<g id="a_node15"><a xlink:href="Ds9ImportExport_8cc.html" target="_top" xlink:title=" ">
<polygon fill="none" stroke="black" points="356.5,-112.5 356.5,-131.5 469.5,-131.5 469.5,-112.5 356.5,-112.5"/>
<text text-anchor="middle" x="413" y="-119.5" font-family="Helvetica,sans-Serif" font-size="10.00">Ds9ImportExport.cc</text>
</a>
</g>
</g>
<!-- Node14&#45;&gt;Node15 -->
<g id="edge15" class="edge">
<title>Node14&#45;&gt;Node15</title>
<path fill="none" stroke="midnightblue" d="M517.87,-164.64C492.34,-154.5 456.89,-140.43 434.45,-131.52"/>
<polygon fill="midnightblue" stroke="midnightblue" points="516.86,-168.01 527.45,-168.44 519.45,-161.5 516.86,-168.01"/>
</g>
<!-- Node18 -->
<g id="node18" class="node">
<title>Node18</title>
<g id="a_node18"><a xlink:href="CursorSettings_8cc.html" target="_top" xlink:title=" ">
<polygon fill="none" stroke="black" points="784.5,-168.5 784.5,-187.5 885.5,-187.5 885.5,-168.5 784.5,-168.5"/>
<text text-anchor="middle" x="835" y="-175.5" font-family="Helvetica,sans-Serif" font-size="10.00">CursorSettings.cc</text>
</a>
</g>
</g>
<!-- Node17&#45;&gt;Node18 -->
<g id="edge19" class="edge">
<title>Node17&#45;&gt;Node18</title>
<path fill="none" stroke="midnightblue" d="M777.03,-218.62C791.47,-208.76 810.14,-195.99 822.34,-187.65"/>
<polygon fill="midnightblue" stroke="midnightblue" points="774.97,-215.79 768.69,-224.32 778.92,-221.57 774.97,-215.79"/>
</g>
<!-- Node19 -->
<g id="node19" class="node">
<title>Node19</title>
<g id="a_node19"><a xlink:href="OnMessageTask_8h.html" target="_top" xlink:title=" ">
<polygon fill="none" stroke="black" points="704,-112.5 704,-131.5 808,-131.5 808,-112.5 704,-112.5"/>
<text text-anchor="middle" x="756" y="-119.5" font-family="Helvetica,sans-Serif" font-size="10.00">OnMessageTask.h</text>
</a>
</g>
</g>
<!-- Node17&#45;&gt;Node19 -->
<g id="edge20" class="edge">
<title>Node17&#45;&gt;Node19</title>
<path fill="none" stroke="midnightblue" d="M756,-214.35C756,-190.25 756,-149.31 756,-131.59"/>
<polygon fill="midnightblue" stroke="midnightblue" points="752.5,-214.37 756,-224.37 759.5,-214.37 752.5,-214.37"/>
</g>
<!-- Node17&#45;&gt;Node21 -->
<g id="edge36" class="edge">
<title>Node17&#45;&gt;Node21</title>
<path fill="none" stroke="midnightblue" d="M797.58,-227.16C827.18,-221.3 866.59,-209.86 895,-188 950.3,-145.44 922.38,-95.35 980,-56 1046.66,-10.48 1078.94,-36.27 1158,-20 1160.84,-19.42 1163.78,-18.81 1166.74,-18.19"/>
<polygon fill="midnightblue" stroke="midnightblue" points="796.75,-223.76 787.55,-229.01 798.02,-230.64 796.75,-223.76"/>
</g>
<!-- Node32 -->
<g id="node32" class="node">
<title>Node32</title>
<g id="a_node32"><a xlink:href="SessionManager_8h.html" target="_top" xlink:title=" ">
<polygon fill="none" stroke="black" points="621.5,-168.5 621.5,-187.5 726.5,-187.5 726.5,-168.5 621.5,-168.5"/>
<text text-anchor="middle" x="674" y="-175.5" font-family="Helvetica,sans-Serif" font-size="10.00">SessionManager.h</text>
</a>
</g>
</g>
<!-- Node17&#45;&gt;Node32 -->
<g id="edge37" class="edge">
<title>Node17&#45;&gt;Node32</title>
<path fill="none" stroke="midnightblue" d="M734.17,-218.62C719.19,-208.76 699.8,-195.99 687.14,-187.65"/>
<polygon fill="midnightblue" stroke="midnightblue" points="732.55,-221.75 742.83,-224.32 736.4,-215.9 732.55,-221.75"/>
</g>
<!-- Node20 -->
<g id="node20" class="node">
<title>Node20</title>
<g id="a_node20"><a xlink:href="OnMessageTask_8cc.html" target="_top" xlink:title=" ">
<polygon fill="none" stroke="black" points="965.5,-0.5 965.5,-19.5 1074.5,-19.5 1074.5,-0.5 965.5,-0.5"/>
<text text-anchor="middle" x="1020" y="-7.5" font-family="Helvetica,sans-Serif" font-size="10.00">OnMessageTask.cc</text>
</a>
</g>
</g>
<!-- Node19&#45;&gt;Node20 -->
<g id="edge21" class="edge">
<title>Node19&#45;&gt;Node20</title>
<path fill="none" stroke="midnightblue" d="M776.66,-106.66C798.17,-92.25 833.23,-70.2 866,-56 903.82,-39.61 949.39,-27.13 981.1,-19.52"/>
<polygon fill="midnightblue" stroke="midnightblue" points="774.63,-103.81 768.32,-112.32 778.56,-109.6 774.63,-103.81"/>
</g>
<!-- Node19&#45;&gt;Node21 -->
<g id="edge22" class="edge">
<title>Node19&#45;&gt;Node21</title>
<path fill="none" stroke="midnightblue" d="M785.98,-108.44C807.04,-99.54 835.83,-87.24 861,-76 880.24,-67.4 883.79,-61.99 904,-56 1013.32,-23.61 1045.7,-39.69 1158,-20 1160.85,-19.5 1163.81,-18.95 1166.77,-18.38"/>
<polygon fill="midnightblue" stroke="midnightblue" points="784.46,-105.28 776.6,-112.39 787.18,-111.73 784.46,-105.28"/>
</g>
<!-- Node22 -->
<g id="node22" class="node">
<title>Node22</title>
<g id="a_node22"><a xlink:href="SessionManager_8cc.html" target="_top" xlink:title=" ">
<polygon fill="none" stroke="black" points="209,-0.5 209,-19.5 319,-19.5 319,-0.5 209,-0.5"/>
<text text-anchor="middle" x="264" y="-7.5" font-family="Helvetica,sans-Serif" font-size="10.00">SessionManager.cc</text>
</a>
</g>
</g>
<!-- Node19&#45;&gt;Node22 -->
<g id="edge23" class="edge">
<title>Node19&#45;&gt;Node22</title>
<path fill="none" stroke="midnightblue" d="M734.38,-106.75C707.85,-89.52 664.16,-62.08 646,-56 511.13,-10.82 469.1,-37.91 328,-20 325.11,-19.63 322.14,-19.25 319.15,-18.85"/>
<polygon fill="midnightblue" stroke="midnightblue" points="732.69,-109.83 742.98,-112.36 736.52,-103.96 732.69,-109.83"/>
</g>
<!-- Node23 -->
<g id="node23" class="node">
<title>Node23</title>
<g id="a_node23"><a xlink:href="ThreadingManager_8h.html" target="_top" xlink:title=" ">
<polygon fill="none" stroke="black" points="698,-56.5 698,-75.5 814,-75.5 814,-56.5 698,-56.5"/>
<text text-anchor="middle" x="756" y="-63.5" font-family="Helvetica,sans-Serif" font-size="10.00">ThreadingManager.h</text>
</a>
</g>
</g>
<!-- Node19&#45;&gt;Node23 -->
<g id="edge24" class="edge">
<title>Node19&#45;&gt;Node23</title>
<path fill="none" stroke="midnightblue" d="M756,-101.8C756,-92.91 756,-82.78 756,-75.75"/>
<polygon fill="midnightblue" stroke="midnightblue" points="752.5,-102.08 756,-112.08 759.5,-102.08 752.5,-102.08"/>
</g>
<!-- Node23&#45;&gt;Node20 -->
<g id="edge29" class="edge">
<title>Node23&#45;&gt;Node20</title>
<path fill="none" stroke="midnightblue" d="M807.78,-54.41C857.67,-44.2 932.2,-28.96 978.36,-19.52"/>
<polygon fill="midnightblue" stroke="midnightblue" points="806.93,-51.01 797.83,-56.44 808.33,-57.87 806.93,-51.01"/>
</g>
<!-- Node23&#45;&gt;Node21 -->
<g id="edge30" class="edge">
<title>Node23&#45;&gt;Node21</title>
<path fill="none" stroke="midnightblue" d="M824.12,-59.36C904.29,-52.26 1041.29,-38.7 1158,-20 1160.86,-19.54 1163.82,-19.02 1166.79,-18.47"/>
<polygon fill="midnightblue" stroke="midnightblue" points="823.81,-55.87 814.15,-60.23 824.42,-62.85 823.81,-55.87"/>
</g>
<!-- Node23&#45;&gt;Node22 -->
<g id="edge31" class="edge">
<title>Node23&#45;&gt;Node22</title>
<path fill="none" stroke="midnightblue" d="M687.84,-56.44C686.55,-56.29 685.27,-56.14 684,-56 525.98,-38.14 485.88,-39.08 328,-20 325.1,-19.65 322.14,-19.28 319.14,-18.89"/>
<polygon fill="midnightblue" stroke="midnightblue" points="687.52,-59.92 697.86,-57.61 688.33,-52.97 687.52,-59.92"/>
</g>
<!-- Node24 -->
<g id="node24" class="node">
<title>Node24</title>
<g id="a_node24"><a xlink:href="Contouring_8cc.html" target="_top" xlink:title=" ">
<polygon fill="none" stroke="black" points="664.5,-0.5 664.5,-19.5 747.5,-19.5 747.5,-0.5 664.5,-0.5"/>
<text text-anchor="middle" x="706" y="-7.5" font-family="Helvetica,sans-Serif" font-size="10.00">Contouring.cc</text>
</a>
</g>
</g>
<!-- Node23&#45;&gt;Node24 -->
<g id="edge25" class="edge">
<title>Node23&#45;&gt;Node24</title>
<path fill="none" stroke="midnightblue" d="M740.92,-48.72C732.11,-39.2 721.33,-27.56 714.1,-19.75"/>
<polygon fill="midnightblue" stroke="midnightblue" points="738.38,-51.12 747.74,-56.08 743.52,-46.37 738.38,-51.12"/>
</g>
<!-- Node25 -->
<g id="node25" class="node">
<title>Node25</title>
<g id="a_node25"><a xlink:href="Smoothing_8cc.html" target="_top" xlink:title=" ">
<polygon fill="none" stroke="black" points="765.5,-0.5 765.5,-19.5 848.5,-19.5 848.5,-0.5 765.5,-0.5"/>
<text text-anchor="middle" x="807" y="-7.5" font-family="Helvetica,sans-Serif" font-size="10.00">Smoothing.cc</text>
</a>
</g>
</g>
<!-- Node23&#45;&gt;Node25 -->
<g id="edge26" class="edge">
<title>Node23&#45;&gt;Node25</title>
<path fill="none" stroke="midnightblue" d="M771.38,-48.72C780.37,-39.2 791.36,-27.56 798.74,-19.75"/>
<polygon fill="midnightblue" stroke="midnightblue" points="768.74,-46.41 764.42,-56.08 773.83,-51.22 768.74,-46.41"/>
</g>
<!-- Node26 -->
<g id="node26" class="node">
<title>Node26</title>
<g id="a_node26"><a xlink:href="Histogram_8cc.html" target="_top" xlink:title=" ">
<polygon fill="none" stroke="black" points="866.5,-0.5 866.5,-19.5 947.5,-19.5 947.5,-0.5 866.5,-0.5"/>
<text text-anchor="middle" x="907" y="-7.5" font-family="Helvetica,sans-Serif" font-size="10.00">Histogram.cc</text>
</a>
</g>
</g>
<!-- Node23&#45;&gt;Node26 -->
<g id="edge27" class="edge">
<title>Node23&#45;&gt;Node26</title>
<path fill="none" stroke="midnightblue" d="M789.45,-53.04C817.86,-42.88 857.94,-28.55 883.19,-19.52"/>
<polygon fill="midnightblue" stroke="midnightblue" points="788.16,-49.78 779.93,-56.44 790.52,-56.37 788.16,-49.78"/>
</g>
<!-- Node27 -->
<g id="node27" class="node">
<title>Node27</title>
<g id="a_node27"><a xlink:href="Main_8cc.html" target="_top" xlink:title=" ">
<polygon fill="none" stroke="black" points="137,-0.5 137,-19.5 191,-19.5 191,-0.5 137,-0.5"/>
<text text-anchor="middle" x="164" y="-7.5" font-family="Helvetica,sans-Serif" font-size="10.00">Main.cc</text>
</a>
</g>
</g>
<!-- Node23&#45;&gt;Node27 -->
<g id="edge28" class="edge">
<title>Node23&#45;&gt;Node27</title>
<path fill="none" stroke="midnightblue" d="M687.63,-60.1C549.65,-50.12 246.96,-27.72 200,-20 197.08,-19.52 194.04,-18.92 191.03,-18.26"/>
<polygon fill="midnightblue" stroke="midnightblue" points="687.45,-63.6 697.68,-60.83 687.96,-56.61 687.45,-63.6"/>
</g>
<!-- Node28 -->
<g id="node28" class="node">
<title>Node28</title>
<g id="a_node28"><a xlink:href="Columns_8cc.html" target="_top" xlink:title=" ">
<polygon fill="none" stroke="black" points="337.5,-0.5 337.5,-19.5 410.5,-19.5 410.5,-0.5 337.5,-0.5"/>
<text text-anchor="middle" x="374" y="-7.5" font-family="Helvetica,sans-Serif" font-size="10.00">Columns.cc</text>
</a>
</g>
</g>
<!-- Node23&#45;&gt;Node28 -->
<g id="edge32" class="edge">
<title>Node23&#45;&gt;Node28</title>
<path fill="none" stroke="midnightblue" d="M687.59,-56.4C604.48,-45.85 469.16,-28.36 419,-20 416.33,-19.55 413.57,-19.07 410.8,-18.56"/>
<polygon fill="midnightblue" stroke="midnightblue" points="687.34,-59.89 697.7,-57.68 688.22,-52.95 687.34,-59.89"/>
</g>
<!-- Node23&#45;&gt;Node29 -->
<g id="edge33" class="edge">
<title>Node23&#45;&gt;Node29</title>
<path fill="none" stroke="midnightblue" d="M824.01,-57.73C890.57,-50.12 994.7,-36.94 1084,-20 1086.86,-19.46 1089.83,-18.84 1092.78,-18.18"/>
<polygon fill="midnightblue" stroke="midnightblue" points="823.6,-54.25 814.06,-58.85 824.39,-61.2 823.6,-54.25"/>
</g>
<!-- Node30 -->
<g id="node30" class="node">
<title>Node30</title>
<g id="a_node30"><a xlink:href="TableView_8cc.html" target="_top" xlink:title=" ">
<polygon fill="none" stroke="black" points="428.5,-0.5 428.5,-19.5 507.5,-19.5 507.5,-0.5 428.5,-0.5"/>
<text text-anchor="middle" x="468" y="-7.5" font-family="Helvetica,sans-Serif" font-size="10.00">TableView.cc</text>
</a>
</g>
</g>
<!-- Node23&#45;&gt;Node30 -->
<g id="edge34" class="edge">
<title>Node23&#45;&gt;Node30</title>
<path fill="none" stroke="midnightblue" d="M700.53,-54.6C644.06,-44.01 557.91,-27.86 507.86,-18.47"/>
<polygon fill="midnightblue" stroke="midnightblue" points="699.89,-58.04 710.37,-56.44 701.18,-51.16 699.89,-58.04"/>
</g>
<!-- Node31 -->
<g id="node31" class="node">
<title>Node31</title>
<g id="a_node31"><a xlink:href="ThreadingManager_8cc.html" target="_top" xlink:title=" ">
<polygon fill="none" stroke="black" points="525.5,-0.5 525.5,-19.5 646.5,-19.5 646.5,-0.5 525.5,-0.5"/>
<text text-anchor="middle" x="586" y="-7.5" font-family="Helvetica,sans-Serif" font-size="10.00">ThreadingManager.cc</text>
</a>
</g>
</g>
<!-- Node23&#45;&gt;Node31 -->
<g id="edge35" class="edge">
<title>Node23&#45;&gt;Node31</title>
<path fill="none" stroke="midnightblue" d="M719.18,-53.3C687.15,-43.13 641.48,-28.62 612.81,-19.52"/>
<polygon fill="midnightblue" stroke="midnightblue" points="718.47,-56.75 729.06,-56.44 720.59,-50.08 718.47,-56.75"/>
</g>
<!-- Node32&#45;&gt;Node19 -->
<g id="edge42" class="edge">
<title>Node32&#45;&gt;Node19</title>
<path fill="none" stroke="midnightblue" d="M695.83,-162.62C710.81,-152.76 730.2,-139.99 742.86,-131.65"/>
<polygon fill="midnightblue" stroke="midnightblue" points="693.6,-159.9 687.17,-168.32 697.45,-165.75 693.6,-159.9"/>
</g>
<!-- Node32&#45;&gt;Node22 -->
<g id="edge43" class="edge">
<title>Node32&#45;&gt;Node22</title>
<path fill="none" stroke="midnightblue" d="M670.42,-158.67C664.04,-131.4 647.96,-80.69 613,-56 560.85,-19.18 391.28,-28.44 328,-20 325.11,-19.61 322.14,-19.21 319.15,-18.81"/>
<polygon fill="midnightblue" stroke="midnightblue" points="667,-159.44 672.52,-168.48 673.85,-157.97 667,-159.44"/>
</g>
<!-- Node32&#45;&gt;Node27 -->
<g id="edge41" class="edge">
<title>Node32&#45;&gt;Node27</title>
<path fill="none" stroke="midnightblue" d="M626.67,-166C595.09,-158.04 552.93,-146.2 517,-132 498.88,-124.84 496,-119.45 478,-112 374.83,-69.28 246.64,-33.04 191.41,-18.2"/>
<polygon fill="midnightblue" stroke="midnightblue" points="625.98,-169.43 636.53,-168.44 627.66,-162.64 625.98,-169.43"/>
</g>
<!-- Node33 -->
<g id="node33" class="node">
<title>Node33</title>
<g id="a_node33"><a xlink:href="HttpServer_8h.html" target="_top" xlink:title=" ">
<polygon fill="none" stroke="black" points="526.5,-112.5 526.5,-131.5 603.5,-131.5 603.5,-112.5 526.5,-112.5"/>
<text text-anchor="middle" x="565" y="-119.5" font-family="Helvetica,sans-Serif" font-size="10.00">HttpServer.h</text>
</a>
</g>
</g>
<!-- Node32&#45;&gt;Node33 -->
<g id="edge38" class="edge">
<title>Node32&#45;&gt;Node33</title>
<path fill="none" stroke="midnightblue" d="M647.48,-163.86C627.27,-153.85 600.01,-140.35 582.47,-131.65"/>
<polygon fill="midnightblue" stroke="midnightblue" points="645.97,-167.02 656.49,-168.32 649.08,-160.75 645.97,-167.02"/>
</g>
<!-- Node33&#45;&gt;Node27 -->
<g id="edge40" class="edge">
<title>Node33&#45;&gt;Node27</title>
<path fill="none" stroke="midnightblue" d="M547.77,-105.47C529.76,-90.18 499.98,-67.5 470,-56 356.97,-12.64 318.91,-42.72 200,-20 197.09,-19.44 194.06,-18.8 191.05,-18.11"/>
<polygon fill="midnightblue" stroke="midnightblue" points="545.78,-108.37 555.62,-112.3 550.38,-103.09 545.78,-108.37"/>
</g>
<!-- Node34 -->
<g id="node34" class="node">
<title>Node34</title>
<g id="a_node34"><a xlink:href="HttpServer_8cc.html" target="_top" xlink:title=" ">
<polygon fill="none" stroke="black" points="522,-56.5 522,-75.5 604,-75.5 604,-56.5 522,-56.5"/>
<text text-anchor="middle" x="563" y="-63.5" font-family="Helvetica,sans-Serif" font-size="10.00">HttpServer.cc</text>
</a>
</g>
</g>
<!-- Node33&#45;&gt;Node34 -->
<g id="edge39" class="edge">
<title>Node33&#45;&gt;Node34</title>
<path fill="none" stroke="midnightblue" d="M564.29,-101.8C563.96,-92.91 563.58,-82.78 563.32,-75.75"/>
<polygon fill="midnightblue" stroke="midnightblue" points="560.8,-102.22 564.67,-112.08 567.8,-101.96 560.8,-102.22"/>
</g>
<!-- Node35&#45;&gt;Node9 -->
<g id="edge46" class="edge">
<title>Node35&#45;&gt;Node9</title>
<path fill="none" stroke="midnightblue" d="M744.52,-332.1C723.03,-322.01 693.78,-308.27 675.14,-299.52"/>
<polygon fill="midnightblue" stroke="midnightblue" points="743.24,-335.36 753.78,-336.44 746.21,-329.02 743.24,-335.36"/>
</g>
<!-- Node36 -->
<g id="node36" class="node">
<title>Node36</title>
<g id="a_node36"><a xlink:href="PvPreviewCut_8cc.html" target="_top" xlink:title=" ">
<polygon fill="none" stroke="black" points="724,-280.5 724,-299.5 822,-299.5 822,-280.5 724,-280.5"/>
<text text-anchor="middle" x="773" y="-287.5" font-family="Helvetica,sans-Serif" font-size="10.00">PvPreviewCut.cc</text>
</a>
</g>
</g>
<!-- Node35&#45;&gt;Node36 -->
<g id="edge45" class="edge">
<title>Node35&#45;&gt;Node36</title>
<path fill="none" stroke="midnightblue" d="M772.36,-325.8C772.52,-316.91 772.71,-306.78 772.84,-299.75"/>
<polygon fill="midnightblue" stroke="midnightblue" points="768.85,-326.02 772.17,-336.08 775.85,-326.15 768.85,-326.02"/>
</g>
</g>
</svg>
