<?xml version="1.0" encoding="UTF-8" standalone="no"?>
<!DOCTYPE svg PUBLIC "-//W3C//DTD SVG 1.1//EN"
 "http://www.w3.org/Graphics/SVG/1.1/DTD/svg11.dtd">
<!-- Generated by graphviz version 2.43.0 (0)
 -->
<!-- Title: IsCompressedFits Pages: 1 -->
<!--zoomable 379 -->
<svg id="main" version="1.1" xmlns="http://www.w3.org/2000/svg" xmlns:xlink="http://www.w3.org/1999/xlink" xml:space="preserve" onload="init(evt)">
<style type="text/css"><![CDATA[
.edge:hover path { stroke: red; }
.edge:hover polygon { stroke: red; fill: red; }
]]></style>
<script type="text/javascript"><![CDATA[
var edges = document.getElementsByTagName('g');
if (edges && edges.length) {
  for (var i=0;i<edges.length;i++) {
    if (edges[i].id.substr(0,4)=='edge') {
      edges[i].setAttribute('class','edge');
    }
  }
}
]]></script>
        <defs>
                <circle id="rim" cx="0" cy="0" r="7"/>
                <circle id="rim2" cx="0" cy="0" r="3.5"/>
                <g id="zoomPlus">
                        <use xlink:href="#rim" fill="#404040">
                                <set attributeName="fill" to="#808080" begin="zoomplus.mouseover" end="zoomplus.mouseout"/>
                        </use>
                        <path d="M-4,0h8M0,-4v8" fill="none" stroke="white" stroke-width="1.5" pointer-events="none"/>
                </g>
                <g id="zoomMin">
                        <use xlink:href="#rim" fill="#404040">
                                <set attributeName="fill" to="#808080" begin="zoomminus.mouseover" end="zoomminus.mouseout"/>
                        </use>
                        <path d="M-4,0h8" fill="none" stroke="white" stroke-width="1.5" pointer-events="none"/>
                </g>
                <g id="dirArrow">
                        <path fill="none" stroke="white" stroke-width="1.5" d="M0,-3.0v7 M-2.5,-0.5L0,-3.0L2.5,-0.5"/>
                </g>
               <g id="resetDef">
                       <use xlink:href="#rim2" fill="#404040">
                               <set attributeName="fill" to="#808080" begin="reset.mouseover" end="reset.mouseout"/>
                       </use>
               </g>
        </defs>

<script type="text/javascript">
var viewWidth = 1522;
var viewHeight = 379;
var sectionId = 'dynsection-10';
</script>
<script xlink:href="svgpan.js"/>
<svg id="graph" class="graph">
<g id="viewport">
<title>IsCompressedFits</title>
<!-- Node1 -->
<g id="node1" class="node">
<title>Node1</title>
<g id="a_node1"><a xlink:title=" ">
<polygon fill="#bfbfbf" stroke="black" points="1411,-265.5 1411,-284.5 1514,-284.5 1514,-265.5 1411,-265.5"/>
<text text-anchor="middle" x="1462.5" y="-272.5" font-family="Helvetica,sans-Serif" font-size="10.00">IsCompressedFits</text>
</a>
</g>
</g>
<!-- Node2 -->
<g id="node2" class="node">
<title>Node2</title>
<g id="a_node2"><a xlink:href="classcarta_1_1Session.html#a37e738626d1cd28e14b5a9b90bb6415d" target="_top" xlink:title=" ">
<polygon fill="none" stroke="black" points="1071.5,-340 1071.5,-370 1222.5,-370 1222.5,-340 1071.5,-340"/>
<text text-anchor="start" x="1079.5" y="-358" font-family="Helvetica,sans-Serif" font-size="10.00">carta::Session::FillExtended</text>
<text text-anchor="middle" x="1147" y="-347" font-family="Helvetica,sans-Serif" font-size="10.00">FileInfo</text>
</a>
</g>
</g>
<!-- Node1&#45;&gt;Node2 -->
<g id="edge1" class="edge">
<title>Node1&#45;&gt;Node2</title>
<path fill="none" stroke="midnightblue" d="M1446.47,-292.03C1430.59,-308.69 1403.88,-333.1 1375,-344 1326.55,-362.29 1268.11,-364.71 1222.66,-362.74"/>
<polygon fill="midnightblue" stroke="midnightblue" points="1449.15,-294.29 1453.36,-284.57 1444.01,-289.55 1449.15,-294.29"/>
</g>
<!-- Node3 -->
<g id="node3" class="node">
<title>Node3</title>
<g id="a_node3"><a xlink:href="classcarta_1_1FileExtInfoLoader.html#a06c36c25d3286c3019c1bbdcabdd9f63" target="_top" xlink:title=" ">
<polygon fill="none" stroke="black" points="1081,-274 1081,-304 1213,-304 1213,-274 1081,-274"/>
<text text-anchor="start" x="1089" y="-292" font-family="Helvetica,sans-Serif" font-size="10.00">carta::FileExtInfoLoader</text>
<text text-anchor="middle" x="1147" y="-281" font-family="Helvetica,sans-Serif" font-size="10.00">::FillFitsFileInfoMap</text>
</a>
</g>
</g>
<!-- Node1&#45;&gt;Node3 -->
<g id="edge2" class="edge">
<title>Node1&#45;&gt;Node3</title>
<path fill="none" stroke="midnightblue" d="M1400.68,-277.72C1346.76,-280.12 1268.23,-283.63 1213.06,-286.09"/>
<polygon fill="midnightblue" stroke="midnightblue" points="1400.95,-281.21 1410.78,-277.26 1400.64,-274.21 1400.95,-281.21"/>
</g>
<!-- Node14 -->
<g id="node14" class="node">
<title>Node14</title>
<g id="a_node14"><a xlink:href="classcarta_1_1FileInfoLoader.html#a5a934439a746e53660be9ce1681f13d3" target="_top" xlink:title=" ">
<polygon fill="none" stroke="black" points="1259,-216 1259,-246 1375,-246 1375,-216 1259,-216"/>
<text text-anchor="start" x="1267" y="-234" font-family="Helvetica,sans-Serif" font-size="10.00">carta::FileInfoLoader</text>
<text text-anchor="middle" x="1317" y="-223" font-family="Helvetica,sans-Serif" font-size="10.00">::GetCartaFileType</text>
</a>
</g>
</g>
<!-- Node1&#45;&gt;Node14 -->
<g id="edge17" class="edge">
<title>Node1&#45;&gt;Node14</title>
<path fill="none" stroke="midnightblue" d="M1420.41,-262.4C1403.8,-257.31 1384.48,-251.38 1367.13,-246.07"/>
<polygon fill="midnightblue" stroke="midnightblue" points="1419.78,-265.87 1430.36,-265.45 1421.83,-259.17 1419.78,-265.87"/>
</g>
<!-- Node16 -->
<g id="node16" class="node">
<title>Node16</title>
<g id="a_node16"><a xlink:href="classcarta_1_1FitsHduList.html#aae758ae3882416bb039c090209fcf5ad" target="_top" xlink:title=" ">
<polygon fill="none" stroke="black" points="1266.5,-304 1266.5,-334 1367.5,-334 1367.5,-304 1266.5,-304"/>
<text text-anchor="start" x="1274.5" y="-322" font-family="Helvetica,sans-Serif" font-size="10.00">carta::FitsHduList</text>
<text text-anchor="middle" x="1317" y="-311" font-family="Helvetica,sans-Serif" font-size="10.00">::GetHduList</text>
</a>
</g>
</g>
<!-- Node1&#45;&gt;Node16 -->
<g id="edge19" class="edge">
<title>Node1&#45;&gt;Node16</title>
<path fill="none" stroke="midnightblue" d="M1420.41,-287.6C1403.8,-292.69 1384.48,-298.62 1367.13,-303.93"/>
<polygon fill="midnightblue" stroke="midnightblue" points="1421.83,-290.83 1430.36,-284.55 1419.78,-284.13 1421.83,-290.83"/>
</g>
<!-- Node17 -->
<g id="node17" class="node">
<title>Node17</title>
<g id="a_node17"><a xlink:href="classcarta_1_1FileLoader.html#a581709c9a332af503acb77d79b8ae38f" target="_top" xlink:title=" ">
<polygon fill="none" stroke="black" points="1265,-162 1265,-192 1369,-192 1369,-162 1265,-162"/>
<text text-anchor="start" x="1273" y="-180" font-family="Helvetica,sans-Serif" font-size="10.00">carta::FileLoader::</text>
<text text-anchor="middle" x="1317" y="-169" font-family="Helvetica,sans-Serif" font-size="10.00">GetLoader</text>
</a>
</g>
</g>
<!-- Node1&#45;&gt;Node17 -->
<g id="edge22" class="edge">
<title>Node1&#45;&gt;Node17</title>
<path fill="none" stroke="midnightblue" d="M1443.32,-258.69C1426.36,-243.92 1399.99,-222.08 1375,-206 1367.34,-201.07 1358.75,-196.33 1350.59,-192.15"/>
<polygon fill="midnightblue" stroke="midnightblue" points="1441.02,-261.33 1450.84,-265.32 1445.65,-256.08 1441.02,-261.33"/>
</g>
<!-- Node4 -->
<g id="node4" class="node">
<title>Node4</title>
<g id="a_node4"><a xlink:href="classcarta_1_1Session.html#ae5d6e7145e441059fb26e3f23834880d" target="_top" xlink:title=" ">
<polygon fill="none" stroke="black" points="883.5,-219 883.5,-249 1034.5,-249 1034.5,-219 883.5,-219"/>
<text text-anchor="start" x="891.5" y="-237" font-family="Helvetica,sans-Serif" font-size="10.00">carta::Session::FillExtended</text>
<text text-anchor="middle" x="959" y="-226" font-family="Helvetica,sans-Serif" font-size="10.00">FileInfo</text>
</a>
</g>
</g>
<!-- Node3&#45;&gt;Node4 -->
<g id="edge3" class="edge">
<title>Node3&#45;&gt;Node4</title>
<path fill="none" stroke="midnightblue" d="M1085.41,-271.08C1061.28,-263.95 1033.82,-255.83 1010.76,-249.01"/>
<polygon fill="midnightblue" stroke="midnightblue" points="1084.59,-274.49 1095.17,-273.97 1086.58,-267.78 1084.59,-274.49"/>
</g>
<!-- Node5 -->
<g id="node5" class="node">
<title>Node5</title>
<g id="a_node5"><a xlink:href="classcarta_1_1Session.html#a8874927da900745afae4a0d975ed0453" target="_top" xlink:title=" ">
<polygon fill="none" stroke="black" points="330,-264 330,-294 470,-294 470,-264 330,-264"/>
<text text-anchor="start" x="338" y="-282" font-family="Helvetica,sans-Serif" font-size="10.00">carta::Session::OnFileInfo</text>
<text text-anchor="middle" x="400" y="-271" font-family="Helvetica,sans-Serif" font-size="10.00">Request</text>
</a>
</g>
</g>
<!-- Node4&#45;&gt;Node5 -->
<g id="edge4" class="edge">
<title>Node4&#45;&gt;Node5</title>
<path fill="none" stroke="midnightblue" d="M873.37,-240.84C763.12,-249.74 572.4,-265.15 470.28,-273.4"/>
<polygon fill="midnightblue" stroke="midnightblue" points="873.77,-244.32 883.46,-240.02 873.21,-237.34 873.77,-244.32"/>
</g>
<!-- Node8 -->
<g id="node8" class="node">
<title>Node8</title>
<g id="a_node8"><a xlink:href="classcarta_1_1Session.html#a54c5dc766deb62f608792ce551a1b885" target="_top" xlink:title=" ">
<polygon fill="none" stroke="black" points="700,-137.5 700,-156.5 847,-156.5 847,-137.5 700,-137.5"/>
<text text-anchor="middle" x="773.5" y="-144.5" font-family="Helvetica,sans-Serif" font-size="10.00">carta::Session::OnOpenFile</text>
</a>
</g>
</g>
<!-- Node4&#45;&gt;Node8 -->
<g id="edge7" class="edge">
<title>Node4&#45;&gt;Node8</title>
<path fill="none" stroke="midnightblue" d="M916.77,-214.45C878.78,-196.44 824.02,-170.48 794.75,-156.6"/>
<polygon fill="midnightblue" stroke="midnightblue" points="915.5,-217.72 926.04,-218.85 918.5,-211.4 915.5,-217.72"/>
</g>
<!-- Node6 -->
<g id="node6" class="node">
<title>Node6</title>
<g id="a_node6"><a xlink:href="classcarta_1_1SessionManager.html#a474c31666cb3b22fcbe8af5f945d2950" target="_top" xlink:title=" ">
<polygon fill="none" stroke="black" points="164,-201 164,-231 292,-231 292,-201 164,-201"/>
<text text-anchor="start" x="172" y="-219" font-family="Helvetica,sans-Serif" font-size="10.00">carta::SessionManager</text>
<text text-anchor="middle" x="228" y="-208" font-family="Helvetica,sans-Serif" font-size="10.00">::OnMessage</text>
</a>
</g>
</g>
<!-- Node5&#45;&gt;Node6 -->
<g id="edge5" class="edge">
<title>Node5&#45;&gt;Node6</title>
<path fill="none" stroke="midnightblue" d="M348.88,-260.43C323.65,-251.07 293.45,-239.89 269.68,-231.08"/>
<polygon fill="midnightblue" stroke="midnightblue" points="347.69,-263.72 358.28,-263.91 350.12,-257.15 347.69,-263.72"/>
</g>
<!-- Node7 -->
<g id="node7" class="node">
<title>Node7</title>
<g id="a_node7"><a xlink:href="classcarta_1_1SessionManager.html#ab4e4e7f0244bd6843e70ab91652debf6" target="_top" xlink:title=" ">
<polygon fill="none" stroke="black" points="0,-201 0,-231 128,-231 128,-201 0,-201"/>
<text text-anchor="start" x="8" y="-219" font-family="Helvetica,sans-Serif" font-size="10.00">carta::SessionManager</text>
<text text-anchor="middle" x="64" y="-208" font-family="Helvetica,sans-Serif" font-size="10.00">::RunApp</text>
</a>
</g>
</g>
<!-- Node6&#45;&gt;Node7 -->
<g id="edge6" class="edge">
<title>Node6&#45;&gt;Node7</title>
<path fill="none" stroke="midnightblue" d="M153.63,-216C145.14,-216 136.53,-216 128.19,-216"/>
<polygon fill="midnightblue" stroke="midnightblue" points="153.9,-219.5 163.9,-216 153.9,-212.5 153.9,-219.5"/>
</g>
<!-- Node8&#45;&gt;Node6 -->
<g id="edge13" class="edge">
<title>Node8&#45;&gt;Node6</title>
<path fill="none" stroke="midnightblue" d="M753.94,-163.14C733.5,-179.77 698.88,-204.68 664,-215 536.37,-252.77 378.29,-239.01 292.18,-226.77"/>
<polygon fill="midnightblue" stroke="midnightblue" points="756.36,-165.68 761.79,-156.59 751.87,-160.31 756.36,-165.68"/>
</g>
<!-- Node9 -->
<g id="node9" class="node">
<title>Node9</title>
<g id="a_node9"><a xlink:href="classcarta_1_1Session.html#aed12d0369de4c3391dba300cb77e9241" target="_top" xlink:title=" ">
<polygon fill="none" stroke="black" points="517,-176 517,-206 655,-206 655,-176 517,-176"/>
<text text-anchor="start" x="525" y="-194" font-family="Helvetica,sans-Serif" font-size="10.00">carta::Session::OnConcat</text>
<text text-anchor="middle" x="586" y="-183" font-family="Helvetica,sans-Serif" font-size="10.00">StokesFiles</text>
</a>
</g>
</g>
<!-- Node8&#45;&gt;Node9 -->
<g id="edge8" class="edge">
<title>Node8&#45;&gt;Node9</title>
<path fill="none" stroke="midnightblue" d="M722.4,-158.88C700.27,-164.13 674,-170.36 650.51,-175.93"/>
<polygon fill="midnightblue" stroke="midnightblue" points="723.33,-162.26 732.25,-156.55 721.71,-155.45 723.33,-162.26"/>
</g>
<!-- Node10 -->
<g id="node10" class="node">
<title>Node10</title>
<g id="a_node10"><a xlink:href="classcarta_1_1Session.html#afe5c090c017ef208f638b96a7eb1ecf0" target="_top" xlink:title=" ">
<polygon fill="none" stroke="black" points="328,-138 328,-168 472,-168 472,-138 328,-138"/>
<text text-anchor="start" x="336" y="-156" font-family="Helvetica,sans-Serif" font-size="10.00">carta::Session::OnResume</text>
<text text-anchor="middle" x="400" y="-145" font-family="Helvetica,sans-Serif" font-size="10.00">Session</text>
</a>
</g>
</g>
<!-- Node8&#45;&gt;Node10 -->
<g id="edge16" class="edge">
<title>Node8&#45;&gt;Node10</title>
<path fill="none" stroke="midnightblue" d="M689.72,-148.34C624.38,-149.39 534.17,-150.85 472.07,-151.85"/>
<polygon fill="midnightblue" stroke="midnightblue" points="690.05,-151.83 699.99,-148.17 689.93,-144.83 690.05,-151.83"/>
</g>
<!-- Node11 -->
<g id="node11" class="node">
<title>Node11</title>
<g id="a_node11"><a xlink:href="classcarta_1_1Session.html#a5589e4dca9e6a51055f15da1d9ac1b3c" target="_top" xlink:title=" ">
<polygon fill="none" stroke="black" points="518.5,-88 518.5,-118 653.5,-118 653.5,-88 518.5,-88"/>
<text text-anchor="start" x="526.5" y="-106" font-family="Helvetica,sans-Serif" font-size="10.00">carta::Session::OnFitting</text>
<text text-anchor="middle" x="586" y="-95" font-family="Helvetica,sans-Serif" font-size="10.00">Request</text>
</a>
</g>
</g>
<!-- Node8&#45;&gt;Node11 -->
<g id="edge12" class="edge">
<title>Node8&#45;&gt;Node11</title>
<path fill="none" stroke="midnightblue" d="M722.4,-135.12C700.27,-129.87 674,-123.64 650.51,-118.07"/>
<polygon fill="midnightblue" stroke="midnightblue" points="721.71,-138.55 732.25,-137.45 723.33,-131.74 721.71,-138.55"/>
</g>
<!-- Node12 -->
<g id="node12" class="node">
<title>Node12</title>
<g id="a_node12"><a xlink:href="classcarta_1_1Session.html#a8fe2527b0a83c67240ef4a31a86e4978" target="_top" xlink:title=" ">
<polygon fill="none" stroke="black" points="513.5,-39 513.5,-69 658.5,-69 658.5,-39 513.5,-39"/>
<text text-anchor="start" x="521.5" y="-57" font-family="Helvetica,sans-Serif" font-size="10.00">carta::Session::OnMoment</text>
<text text-anchor="middle" x="586" y="-46" font-family="Helvetica,sans-Serif" font-size="10.00">Request</text>
</a>
</g>
</g>
<!-- Node8&#45;&gt;Node12 -->
<g id="edge14" class="edge">
<title>Node8&#45;&gt;Node12</title>
<path fill="none" stroke="midnightblue" d="M751.54,-131.29C730.36,-116.01 696.25,-92.96 664,-78 656.89,-74.7 649.2,-71.7 641.53,-69.02"/>
<polygon fill="midnightblue" stroke="midnightblue" points="749.64,-134.24 759.78,-137.32 753.78,-128.59 749.64,-134.24"/>
</g>
<!-- Node13 -->
<g id="node13" class="node">
<title>Node13</title>
<g id="a_node13"><a xlink:href="classcarta_1_1Session.html#a07bfe19708d3e272d01fef6f18712aa2" target="_top" xlink:title=" ">
<polygon fill="none" stroke="black" points="508,-0.5 508,-19.5 664,-19.5 664,-0.5 508,-0.5"/>
<text text-anchor="middle" x="586" y="-7.5" font-family="Helvetica,sans-Serif" font-size="10.00">carta::Session::OnPvRequest</text>
</a>
</g>
</g>
<!-- Node8&#45;&gt;Node13 -->
<g id="edge15" class="edge">
<title>Node8&#45;&gt;Node13</title>
<path fill="none" stroke="midnightblue" d="M760.86,-128.68C743.2,-102.44 707.08,-54.51 664,-29 657.48,-25.14 650.21,-22.06 642.81,-19.61"/>
<polygon fill="midnightblue" stroke="midnightblue" points="758.1,-130.85 766.51,-137.29 763.95,-127.01 758.1,-130.85"/>
</g>
<!-- Node9&#45;&gt;Node6 -->
<g id="edge9" class="edge">
<title>Node9&#45;&gt;Node6</title>
<path fill="none" stroke="midnightblue" d="M506.67,-196.5C442.24,-201.03 352.11,-207.35 292.21,-211.56"/>
<polygon fill="midnightblue" stroke="midnightblue" points="507.05,-199.98 516.78,-195.79 506.56,-193 507.05,-199.98"/>
</g>
<!-- Node9&#45;&gt;Node10 -->
<g id="edge10" class="edge">
<title>Node9&#45;&gt;Node10</title>
<path fill="none" stroke="midnightblue" d="M506.76,-174.84C495.3,-172.47 483.54,-170.05 472.22,-167.71"/>
<polygon fill="midnightblue" stroke="midnightblue" points="506.25,-178.31 516.75,-176.9 507.66,-171.45 506.25,-178.31"/>
</g>
<!-- Node10&#45;&gt;Node6 -->
<g id="edge11" class="edge">
<title>Node10&#45;&gt;Node6</title>
<path fill="none" stroke="midnightblue" d="M348.88,-171.57C323.65,-180.93 293.45,-192.11 269.68,-200.92"/>
<polygon fill="midnightblue" stroke="midnightblue" points="350.12,-174.85 358.28,-168.09 347.69,-168.28 350.12,-174.85"/>
</g>
<!-- Node15 -->
<g id="node15" class="node">
<title>Node15</title>
<g id="a_node15"><a xlink:href="classcarta_1_1FileInfoLoader.html#aeb7c1eebf1d50bcec630cb5cfd1d8f66" target="_top" xlink:title=" ">
<polygon fill="none" stroke="black" points="1089,-225 1089,-255 1205,-255 1205,-225 1089,-225"/>
<text text-anchor="start" x="1097" y="-243" font-family="Helvetica,sans-Serif" font-size="10.00">carta::FileInfoLoader</text>
<text text-anchor="middle" x="1147" y="-232" font-family="Helvetica,sans-Serif" font-size="10.00">::FileInfoLoader</text>
</a>
</g>
</g>
<!-- Node14&#45;&gt;Node15 -->
<g id="edge18" class="edge">
<title>Node14&#45;&gt;Node15</title>
<path fill="none" stroke="midnightblue" d="M1248.35,-234.62C1234,-235.39 1219,-236.2 1205.09,-236.94"/>
<polygon fill="midnightblue" stroke="midnightblue" points="1248.86,-238.1 1258.65,-234.07 1248.48,-231.11 1248.86,-238.1"/>
</g>
<!-- Node16&#45;&gt;Node2 -->
<g id="edge20" class="edge">
<title>Node16&#45;&gt;Node2</title>
<path fill="none" stroke="midnightblue" d="M1255.99,-331.86C1243.77,-334.48 1230.81,-337.25 1218.28,-339.94"/>
<polygon fill="midnightblue" stroke="midnightblue" points="1257,-335.22 1266.05,-329.7 1255.54,-328.38 1257,-335.22"/>
</g>
<!-- Node16&#45;&gt;Node3 -->
<g id="edge21" class="edge">
<title>Node16&#45;&gt;Node3</title>
<path fill="none" stroke="midnightblue" d="M1256.08,-308.3C1242.12,-305.81 1227.19,-303.14 1213.02,-300.61"/>
<polygon fill="midnightblue" stroke="midnightblue" points="1255.59,-311.77 1266.05,-310.08 1256.82,-304.88 1255.59,-311.77"/>
</g>
<!-- Node18 -->
<g id="node18" class="node">
<title>Node18</title>
<g id="a_node18"><a xlink:href="classcarta_1_1Session.html#ac671b008e48c5074c520343edb43beec" target="_top" xlink:title=" ">
<polygon fill="none" stroke="black" points="1071.5,-176 1071.5,-206 1222.5,-206 1222.5,-176 1071.5,-176"/>
<text text-anchor="start" x="1079.5" y="-194" font-family="Helvetica,sans-Serif" font-size="10.00">carta::Session::FillExtended</text>
<text text-anchor="middle" x="1147" y="-183" font-family="Helvetica,sans-Serif" font-size="10.00">FileInfo</text>
</a>
</g>
</g>
<!-- Node17&#45;&gt;Node18 -->
<g id="edge23" class="edge">
<title>Node17&#45;&gt;Node18</title>
<path fill="none" stroke="midnightblue" d="M1254.48,-182.13C1244.08,-182.99 1233.19,-183.9 1222.51,-184.79"/>
<polygon fill="midnightblue" stroke="midnightblue" points="1255.01,-185.59 1264.68,-181.28 1254.43,-178.62 1255.01,-185.59"/>
</g>
<!-- Node19 -->
<g id="node19" class="node">
<title>Node19</title>
<g id="a_node19"><a xlink:href="classcarta_1_1LoaderCache.html#a341be9f1278d337b6e7a0a347de474c1" target="_top" xlink:title=" ">
<polygon fill="none" stroke="black" points="1080,-137.5 1080,-156.5 1214,-156.5 1214,-137.5 1080,-137.5"/>
<text text-anchor="middle" x="1147" y="-144.5" font-family="Helvetica,sans-Serif" font-size="10.00">carta::LoaderCache::Get</text>
</a>
</g>
</g>
<!-- Node17&#45;&gt;Node19 -->
<g id="edge24" class="edge">
<title>Node17&#45;&gt;Node19</title>
<path fill="none" stroke="midnightblue" d="M1254.59,-166.03C1237.13,-162.92 1218.27,-159.55 1201.33,-156.52"/>
<polygon fill="midnightblue" stroke="midnightblue" points="1254.22,-169.52 1264.68,-167.84 1255.45,-162.63 1254.22,-169.52"/>
</g>
<!-- Node20 -->
<g id="node20" class="node">
<title>Node20</title>
<g id="a_node20"><a xlink:href="classcarta_1_1StokesFilesConnector.html#a293ad12a37f9da0da1f6bcd140c68bd8" target="_top" xlink:title=" ">
<polygon fill="none" stroke="black" points="1071,-88 1071,-118 1223,-118 1223,-88 1071,-88"/>
<text text-anchor="start" x="1079" y="-106" font-family="Helvetica,sans-Serif" font-size="10.00">carta::StokesFilesConnector</text>
<text text-anchor="middle" x="1147" y="-95" font-family="Helvetica,sans-Serif" font-size="10.00">::OpenStokesFiles</text>
</a>
</g>
</g>
<!-- Node17&#45;&gt;Node20 -->
<g id="edge27" class="edge">
<title>Node17&#45;&gt;Node20</title>
<path fill="none" stroke="midnightblue" d="M1281.01,-156.83C1263.85,-147.39 1242.69,-136.4 1223,-128 1214.79,-124.5 1205.92,-121.16 1197.25,-118.14"/>
<polygon fill="midnightblue" stroke="midnightblue" points="1279.66,-160.08 1290.1,-161.89 1283.07,-153.97 1279.66,-160.08"/>
</g>
<!-- Node19&#45;&gt;Node4 -->
<g id="edge25" class="edge">
<title>Node19&#45;&gt;Node4</title>
<path fill="none" stroke="midnightblue" d="M1089.39,-159.38C1083.09,-161.33 1076.85,-163.54 1071,-166 1037.26,-180.22 1001.77,-203.67 980.26,-218.98"/>
<polygon fill="midnightblue" stroke="midnightblue" points="1090.64,-162.66 1099.27,-156.52 1088.69,-155.94 1090.64,-162.66"/>
</g>
<!-- Node19&#45;&gt;Node8 -->
<g id="edge26" class="edge">
<title>Node19&#45;&gt;Node8</title>
<path fill="none" stroke="midnightblue" d="M1069.36,-147C1004.11,-147 911.04,-147 847.01,-147"/>
<polygon fill="midnightblue" stroke="midnightblue" points="1069.58,-150.5 1079.58,-147 1069.58,-143.5 1069.58,-150.5"/>
</g>
<!-- Node21 -->
<g id="node21" class="node">
<title>Node21</title>
<g id="a_node21"><a xlink:href="classcarta_1_1StokesFilesConnector.html#a99f6cac79a12711d8e47b4a1c6b4f381" target="_top" xlink:title=" ">
<polygon fill="none" stroke="black" points="883,-88 883,-118 1035,-118 1035,-88 883,-88"/>
<text text-anchor="start" x="891" y="-106" font-family="Helvetica,sans-Serif" font-size="10.00">carta::StokesFilesConnector</text>
<text text-anchor="middle" x="959" y="-95" font-family="Helvetica,sans-Serif" font-size="10.00">::DoConcat</text>
</a>
</g>
</g>
<!-- Node20&#45;&gt;Node21 -->
<g id="edge28" class="edge">
<title>Node20&#45;&gt;Node21</title>
<path fill="none" stroke="midnightblue" d="M1060.85,-103C1052.26,-103 1043.57,-103 1035.1,-103"/>
<polygon fill="midnightblue" stroke="midnightblue" points="1060.88,-106.5 1070.88,-103 1060.88,-99.5 1060.88,-106.5"/>
</g>
</g>
</svg>
        <g id="navigator" transform="translate(0 0)" fill="#404254">
                <rect fill="#f2f5e9" fill-opacity="0.5" stroke="#606060" stroke-width=".5" x="0" y="0" width="60" height="60"/>
                <use id="zoomplus" xlink:href="#zoomPlus" x="17" y="9" onmousedown="handleZoom(evt,'in')"/>
                <use id="zoomminus" xlink:href="#zoomMin" x="42" y="9" onmousedown="handleZoom(evt,'out')"/>
                <use id="reset" xlink:href="#resetDef" x="30" y="36" onmousedown="handleReset()"/>
                <g id="arrowUp" xlink:href="#dirArrow" transform="translate(30 24)" onmousedown="handlePan(0,-1)">
                  <use xlink:href="#rim" fill="#404040">
                        <set attributeName="fill" to="#808080" begin="arrowUp.mouseover" end="arrowUp.mouseout"/>
                  </use>
                  <path fill="none" stroke="white" stroke-width="1.5" d="M0,-3.0v7 M-2.5,-0.5L0,-3.0L2.5,-0.5"/>
                </g>
                <g id="arrowRight" xlink:href="#dirArrow" transform="rotate(90) translate(36 -43)" onmousedown="handlePan(1,0)">
                  <use xlink:href="#rim" fill="#404040">
                        <set attributeName="fill" to="#808080" begin="arrowRight.mouseover" end="arrowRight.mouseout"/>
                  </use>
                  <path fill="none" stroke="white" stroke-width="1.5" d="M0,-3.0v7 M-2.5,-0.5L0,-3.0L2.5,-0.5"/>
                </g>
                <g id="arrowDown" xlink:href="#dirArrow" transform="rotate(180) translate(-30 -48)" onmousedown="handlePan(0,1)">
                  <use xlink:href="#rim" fill="#404040">
                        <set attributeName="fill" to="#808080" begin="arrowDown.mouseover" end="arrowDown.mouseout"/>
                  </use>
                  <path fill="none" stroke="white" stroke-width="1.5" d="M0,-3.0v7 M-2.5,-0.5L0,-3.0L2.5,-0.5"/>
                </g>
                <g id="arrowLeft" xlink:href="#dirArrow" transform="rotate(270) translate(-36 17)" onmousedown="handlePan(-1,0)">
                  <use xlink:href="#rim" fill="#404040">
                        <set attributeName="fill" to="#808080" begin="arrowLeft.mouseover" end="arrowLeft.mouseout"/>
                  </use>
                  <path fill="none" stroke="white" stroke-width="1.5" d="M0,-3.0v7 M-2.5,-0.5L0,-3.0L2.5,-0.5"/>
                </g>
        </g>
        <svg viewBox="0 0 15 15" width="100%" height="30px" preserveAspectRatio="xMaxYMin meet">
         <g id="arrow_out" transform="scale(0.3 0.3)">
          <a xlink:href="File_8cc_a75f8a4cb14c9fca8730255b6fee82794_icgraph_org.svg" target="_base">
           <rect id="button" ry="5" rx="5" y="6" x="6" height="38" width="38"
                fill="#f2f5e9" fill-opacity="0.5" stroke="#606060" stroke-width="1.0"/>
           <path id="arrow"
             d="M 11.500037,31.436501 C 11.940474,20.09759 22.043105,11.32322 32.158766,21.979434 L 37.068811,17.246167 C 37.068811,17.246167 37.088388,32 37.088388,32 L 22.160133,31.978069 C 22.160133,31.978069 26.997745,27.140456 26.997745,27.140456 C 18.528582,18.264221 13.291696,25.230495 11.500037,31.436501 z"
             style="fill:#404040;"/>
          </a>
         </g>
        </svg>
</svg>
