<?xml version="1.0" encoding="UTF-8" standalone="no"?>
<!DOCTYPE svg PUBLIC "-//W3C//DTD SVG 1.1//EN"
 "http://www.w3.org/Graphics/SVG/1.1/DTD/svg11.dtd">
<!-- Generated by graphviz version 2.43.0 (0)
 -->
<!-- Title: FileLoader.h Pages: 1 -->
<!--zoomable 532 -->
<svg id="main" version="1.1" xmlns="http://www.w3.org/2000/svg" xmlns:xlink="http://www.w3.org/1999/xlink" xml:space="preserve" onload="init(evt)">
<style type="text/css"><![CDATA[
.edge:hover path { stroke: red; }
.edge:hover polygon { stroke: red; fill: red; }
]]></style>
<script type="text/javascript"><![CDATA[
var edges = document.getElementsByTagName('g');
if (edges && edges.length) {
  for (var i=0;i<edges.length;i++) {
    if (edges[i].id.substr(0,4)=='edge') {
      edges[i].setAttribute('class','edge');
    }
  }
}
]]></script>
        <defs>
                <circle id="rim" cx="0" cy="0" r="7"/>
                <circle id="rim2" cx="0" cy="0" r="3.5"/>
                <g id="zoomPlus">
                        <use xlink:href="#rim" fill="#404040">
                                <set attributeName="fill" to="#808080" begin="zoomplus.mouseover" end="zoomplus.mouseout"/>
                        </use>
                        <path d="M-4,0h8M0,-4v8" fill="none" stroke="white" stroke-width="1.5" pointer-events="none"/>
                </g>
                <g id="zoomMin">
                        <use xlink:href="#rim" fill="#404040">
                                <set attributeName="fill" to="#808080" begin="zoomminus.mouseover" end="zoomminus.mouseout"/>
                        </use>
                        <path d="M-4,0h8" fill="none" stroke="white" stroke-width="1.5" pointer-events="none"/>
                </g>
                <g id="dirArrow">
                        <path fill="none" stroke="white" stroke-width="1.5" d="M0,-3.0v7 M-2.5,-0.5L0,-3.0L2.5,-0.5"/>
                </g>
               <g id="resetDef">
                       <use xlink:href="#rim2" fill="#404040">
                               <set attributeName="fill" to="#808080" begin="reset.mouseover" end="reset.mouseout"/>
                       </use>
               </g>
        </defs>

<script type="text/javascript">
var viewWidth = 1480;
var viewHeight = 532;
var sectionId = 'dynsection-1';
</script>
<script xlink:href="svgpan.js"/>
<svg id="graph" class="graph">
<g id="viewport">
<title>FileLoader.h</title>
<!-- Node1 -->
<g id="node1" class="node">
<title>Node1</title>
<g id="a_node1"><a xlink:title=" ">
<polygon fill="#bfbfbf" stroke="black" points="673,-504.5 673,-523.5 748,-523.5 748,-504.5 673,-504.5"/>
<text text-anchor="middle" x="710.5" y="-511.5" font-family="Helvetica,sans-Serif" font-size="10.00">FileLoader.h</text>
</a>
</g>
</g>
<!-- Node2 -->
<g id="node2" class="node">
<title>Node2</title>
<g id="a_node2"><a xlink:href="TileCache_8h.html" target="_top" xlink:title=" ">
<polygon fill="none" stroke="black" points="296.5,-448.5 296.5,-467.5 370.5,-467.5 370.5,-448.5 296.5,-448.5"/>
<text text-anchor="middle" x="333.5" y="-455.5" font-family="Helvetica,sans-Serif" font-size="10.00">TileCache.h</text>
</a>
</g>
</g>
<!-- Node1&#45;&gt;Node2 -->
<g id="edge1" class="edge">
<title>Node1&#45;&gt;Node2</title>
<path fill="none" stroke="midnightblue" d="M662.66,-506.97C599.04,-498.81 483.14,-483.51 384.5,-468 379.97,-467.29 375.22,-466.5 370.52,-465.7"/>
<polygon fill="midnightblue" stroke="midnightblue" points="662.42,-510.46 672.78,-508.26 663.31,-503.52 662.42,-510.46"/>
</g>
<!-- Node4 -->
<g id="node4" class="node">
<title>Node4</title>
<g id="a_node4"><a xlink:href="Frame_8h.html" target="_top" xlink:title=" ">
<polygon fill="none" stroke="black" points="347.5,-392.5 347.5,-411.5 403.5,-411.5 403.5,-392.5 347.5,-392.5"/>
<text text-anchor="middle" x="375.5" y="-399.5" font-family="Helvetica,sans-Serif" font-size="10.00">Frame.h</text>
</a>
</g>
</g>
<!-- Node1&#45;&gt;Node4 -->
<g id="edge51" class="edge">
<title>Node1&#45;&gt;Node4</title>
<path fill="none" stroke="midnightblue" d="M662.67,-509.97C591.51,-504.73 461.88,-492.14 422.5,-468 400.42,-454.46 385.61,-426.28 379.17,-411.89"/>
<polygon fill="midnightblue" stroke="midnightblue" points="662.51,-513.47 672.73,-510.69 663.01,-506.49 662.51,-513.47"/>
</g>
<!-- Node6 -->
<g id="node6" class="node">
<title>Node6</title>
<g id="a_node6"><a xlink:href="Hdf5Loader_8h.html" target="_top" xlink:title=" ">
<polygon fill="none" stroke="black" points="465,-336.5 465,-355.5 546,-355.5 546,-336.5 465,-336.5"/>
<text text-anchor="middle" x="505.5" y="-343.5" font-family="Helvetica,sans-Serif" font-size="10.00">Hdf5Loader.h</text>
</a>
</g>
</g>
<!-- Node1&#45;&gt;Node6 -->
<g id="edge64" class="edge">
<title>Node1&#45;&gt;Node6</title>
<path fill="none" stroke="midnightblue" d="M662.95,-506.71C633.88,-500.81 597.44,-489.51 571.5,-468 533.74,-436.69 514.13,-377.93 507.82,-355.77"/>
<polygon fill="midnightblue" stroke="midnightblue" points="662.42,-510.17 672.89,-508.58 663.71,-503.29 662.42,-510.17"/>
</g>
<!-- Node7 -->
<g id="node7" class="node">
<title>Node7</title>
<g id="a_node7"><a xlink:href="FileLoader_8cc.html" target="_top" xlink:title=" ">
<polygon fill="none" stroke="black" points="739.5,-280.5 739.5,-299.5 819.5,-299.5 819.5,-280.5 739.5,-280.5"/>
<text text-anchor="middle" x="779.5" y="-287.5" font-family="Helvetica,sans-Serif" font-size="10.00">FileLoader.cc</text>
</a>
</g>
</g>
<!-- Node1&#45;&gt;Node7 -->
<g id="edge60" class="edge">
<title>Node1&#45;&gt;Node7</title>
<path fill="none" stroke="midnightblue" d="M708.29,-494.01C705.25,-460.19 702.83,-388.19 729.5,-336 737.47,-320.4 753.27,-307.63 764.98,-299.73"/>
<polygon fill="midnightblue" stroke="midnightblue" points="704.84,-494.69 709.35,-504.28 711.81,-493.98 704.84,-494.69"/>
</g>
<!-- Node9 -->
<g id="node9" class="node">
<title>Node9</title>
<g id="a_node9"><a xlink:href="PvGenerator_8h.html" target="_top" xlink:title=" ">
<polygon fill="none" stroke="black" points="166.5,-336.5 166.5,-355.5 252.5,-355.5 252.5,-336.5 166.5,-336.5"/>
<text text-anchor="middle" x="209.5" y="-343.5" font-family="Helvetica,sans-Serif" font-size="10.00">PvGenerator.h</text>
</a>
</g>
</g>
<!-- Node1&#45;&gt;Node9 -->
<g id="edge72" class="edge">
<title>Node1&#45;&gt;Node9</title>
<path fill="none" stroke="midnightblue" d="M662.66,-512.47C565.98,-510.67 351.13,-502.76 287.5,-468 241.88,-443.08 218.9,-378.78 211.89,-355.54"/>
<polygon fill="midnightblue" stroke="midnightblue" points="662.69,-515.97 672.75,-512.64 662.81,-508.97 662.69,-515.97"/>
</g>
<!-- Node12 -->
<g id="node12" class="node">
<title>Node12</title>
<g id="a_node12"><a xlink:href="RegionHandler_8cc.html" target="_top" xlink:title=" ">
<polygon fill="none" stroke="black" points="168,-112.5 168,-131.5 269,-131.5 269,-112.5 168,-112.5"/>
<text text-anchor="middle" x="218.5" y="-119.5" font-family="Helvetica,sans-Serif" font-size="10.00">RegionHandler.cc</text>
</a>
</g>
</g>
<!-- Node1&#45;&gt;Node12 -->
<g id="edge73" class="edge">
<title>Node1&#45;&gt;Node12</title>
<path fill="none" stroke="midnightblue" d="M662.84,-504.05C584.36,-487.94 436.5,-451.2 436.5,-403 436.5,-403 436.5,-403 436.5,-233 436.5,-202.9 439.43,-188.61 417.5,-168 406.6,-157.75 323.36,-141.42 268.05,-131.51"/>
<polygon fill="midnightblue" stroke="midnightblue" points="662.48,-507.55 672.98,-506.1 663.87,-500.69 662.48,-507.55"/>
</g>
<!-- Node37 -->
<g id="node37" class="node">
<title>Node37</title>
<g id="a_node37"><a xlink:href="FileExtInfoLoader_8h.html" target="_top" xlink:title=" ">
<polygon fill="none" stroke="black" points="1331.5,-448.5 1331.5,-467.5 1441.5,-467.5 1441.5,-448.5 1331.5,-448.5"/>
<text text-anchor="middle" x="1386.5" y="-455.5" font-family="Helvetica,sans-Serif" font-size="10.00">FileExtInfoLoader.h</text>
</a>
</g>
</g>
<!-- Node1&#45;&gt;Node37 -->
<g id="edge48" class="edge">
<title>Node1&#45;&gt;Node37</title>
<path fill="none" stroke="midnightblue" d="M758.44,-509.17C880.36,-499.43 1201.77,-473.76 1331.26,-463.41"/>
<polygon fill="midnightblue" stroke="midnightblue" points="757.98,-505.7 748.29,-509.98 758.54,-512.67 757.98,-505.7"/>
</g>
<!-- Node39 -->
<g id="node39" class="node">
<title>Node39</title>
<g id="a_node39"><a xlink:href="CasaLoader_8h.html" target="_top" xlink:title=" ">
<polygon fill="none" stroke="black" points="738.5,-336.5 738.5,-355.5 820.5,-355.5 820.5,-336.5 738.5,-336.5"/>
<text text-anchor="middle" x="779.5" y="-343.5" font-family="Helvetica,sans-Serif" font-size="10.00">CasaLoader.h</text>
</a>
</g>
</g>
<!-- Node1&#45;&gt;Node39 -->
<g id="edge52" class="edge">
<title>Node1&#45;&gt;Node39</title>
<path fill="none" stroke="midnightblue" d="M718.23,-494.39C733.12,-458.59 765.23,-381.34 775.94,-355.57"/>
<polygon fill="midnightblue" stroke="midnightblue" points="714.82,-493.5 714.21,-504.08 721.28,-496.18 714.82,-493.5"/>
</g>
<!-- Node40 -->
<g id="node40" class="node">
<title>Node40</title>
<g id="a_node40"><a xlink:href="CompListLoader_8h.html" target="_top" xlink:title=" ">
<polygon fill="none" stroke="black" points="838.5,-336.5 838.5,-355.5 942.5,-355.5 942.5,-336.5 838.5,-336.5"/>
<text text-anchor="middle" x="890.5" y="-343.5" font-family="Helvetica,sans-Serif" font-size="10.00">CompListLoader.h</text>
</a>
</g>
</g>
<!-- Node1&#45;&gt;Node40 -->
<g id="edge54" class="edge">
<title>Node1&#45;&gt;Node40</title>
<path fill="none" stroke="midnightblue" d="M727.75,-497.09C765.13,-462.62 852.54,-382.01 881.21,-355.57"/>
<polygon fill="midnightblue" stroke="midnightblue" points="725.16,-494.72 720.18,-504.08 729.9,-499.87 725.16,-494.72"/>
</g>
<!-- Node41 -->
<g id="node41" class="node">
<title>Node41</title>
<g id="a_node41"><a xlink:href="ConcatLoader_8h.html" target="_top" xlink:title=" ">
<polygon fill="none" stroke="black" points="893.5,-392.5 893.5,-411.5 985.5,-411.5 985.5,-392.5 893.5,-392.5"/>
<text text-anchor="middle" x="939.5" y="-399.5" font-family="Helvetica,sans-Serif" font-size="10.00">ConcatLoader.h</text>
</a>
</g>
</g>
<!-- Node1&#45;&gt;Node41 -->
<g id="edge56" class="edge">
<title>Node1&#45;&gt;Node41</title>
<path fill="none" stroke="midnightblue" d="M758.35,-509C814.35,-503.32 902.4,-490.97 925.5,-468 940.73,-452.86 941.22,-425.41 940.35,-411.53"/>
<polygon fill="midnightblue" stroke="midnightblue" points="757.9,-505.53 748.29,-509.98 758.58,-512.49 757.9,-505.53"/>
</g>
<!-- Node42 -->
<g id="node42" class="node">
<title>Node42</title>
<g id="a_node42"><a xlink:href="ExprLoader_8h.html" target="_top" xlink:title=" ">
<polygon fill="none" stroke="black" points="564.5,-336.5 564.5,-355.5 644.5,-355.5 644.5,-336.5 564.5,-336.5"/>
<text text-anchor="middle" x="604.5" y="-343.5" font-family="Helvetica,sans-Serif" font-size="10.00">ExprLoader.h</text>
</a>
</g>
</g>
<!-- Node1&#45;&gt;Node42 -->
<g id="edge58" class="edge">
<title>Node1&#45;&gt;Node42</title>
<path fill="none" stroke="midnightblue" d="M662.77,-509.17C635.02,-504.21 602.14,-493.03 584.5,-468 559.48,-432.5 587.04,-376.74 599.26,-355.55"/>
<polygon fill="midnightblue" stroke="midnightblue" points="662.3,-512.64 672.72,-510.73 663.38,-505.73 662.3,-512.64"/>
</g>
<!-- Node43 -->
<g id="node43" class="node">
<title>Node43</title>
<g id="a_node43"><a xlink:href="FitsLoader_8h.html" target="_top" xlink:title=" ">
<polygon fill="none" stroke="black" points="1166,-448.5 1166,-467.5 1241,-467.5 1241,-448.5 1166,-448.5"/>
<text text-anchor="middle" x="1203.5" y="-455.5" font-family="Helvetica,sans-Serif" font-size="10.00">FitsLoader.h</text>
</a>
</g>
</g>
<!-- Node1&#45;&gt;Node43 -->
<g id="edge61" class="edge">
<title>Node1&#45;&gt;Node43</title>
<path fill="none" stroke="midnightblue" d="M758.26,-508.8C838.28,-501.61 1004.46,-485.93 1144.5,-468 1151.39,-467.12 1158.71,-466.08 1165.77,-465.03"/>
<polygon fill="midnightblue" stroke="midnightblue" points="757.66,-505.34 748.01,-509.72 758.29,-512.32 757.66,-505.34"/>
</g>
<!-- Node45 -->
<g id="node45" class="node">
<title>Node45</title>
<g id="a_node45"><a xlink:href="ImagePtrLoader_8h.html" target="_top" xlink:title=" ">
<polygon fill="none" stroke="black" points="814.5,-448.5 814.5,-467.5 916.5,-467.5 916.5,-448.5 814.5,-448.5"/>
<text text-anchor="middle" x="865.5" y="-455.5" font-family="Helvetica,sans-Serif" font-size="10.00">ImagePtrLoader.h</text>
</a>
</g>
</g>
<!-- Node1&#45;&gt;Node45 -->
<g id="edge65" class="edge">
<title>Node1&#45;&gt;Node45</title>
<path fill="none" stroke="midnightblue" d="M744.83,-501.04C774,-490.88 815.14,-476.55 841.05,-467.52"/>
<polygon fill="midnightblue" stroke="midnightblue" points="743.35,-497.85 735.06,-504.44 745.66,-504.46 743.35,-497.85"/>
</g>
<!-- Node46 -->
<g id="node46" class="node">
<title>Node46</title>
<g id="a_node46"><a xlink:href="MiriadLoader_8h.html" target="_top" xlink:title=" ">
<polygon fill="none" stroke="black" points="593,-448.5 593,-467.5 682,-467.5 682,-448.5 593,-448.5"/>
<text text-anchor="middle" x="637.5" y="-455.5" font-family="Helvetica,sans-Serif" font-size="10.00">MiriadLoader.h</text>
</a>
</g>
</g>
<!-- Node1&#45;&gt;Node46 -->
<g id="edge67" class="edge">
<title>Node1&#45;&gt;Node46</title>
<path fill="none" stroke="midnightblue" d="M690.36,-498.1C677.22,-488.38 660.52,-476.03 649.44,-467.83"/>
<polygon fill="midnightblue" stroke="midnightblue" points="688.65,-501.19 698.77,-504.32 692.81,-495.56 688.65,-501.19"/>
</g>
<!-- Node47 -->
<g id="node47" class="node">
<title>Node47</title>
<g id="a_node47"><a xlink:href="StokesFilesConnector_8h.html" target="_top" xlink:title=" ">
<polygon fill="none" stroke="black" points="1006,-448.5 1006,-467.5 1135,-467.5 1135,-448.5 1006,-448.5"/>
<text text-anchor="middle" x="1070.5" y="-455.5" font-family="Helvetica,sans-Serif" font-size="10.00">StokesFilesConnector.h</text>
</a>
</g>
</g>
<!-- Node1&#45;&gt;Node47 -->
<g id="edge69" class="edge">
<title>Node1&#45;&gt;Node47</title>
<path fill="none" stroke="midnightblue" d="M758.12,-505.86C824.09,-495.96 943.1,-478.11 1013.64,-467.53"/>
<polygon fill="midnightblue" stroke="midnightblue" points="757.38,-502.43 748.01,-507.37 758.42,-509.35 757.38,-502.43"/>
</g>
<!-- Node3 -->
<g id="node3" class="node">
<title>Node3</title>
<g id="a_node3"><a xlink:href="TileCache_8cc.html" target="_top" xlink:title=" ">
<polygon fill="none" stroke="black" points="251.5,-392.5 251.5,-411.5 329.5,-411.5 329.5,-392.5 251.5,-392.5"/>
<text text-anchor="middle" x="290.5" y="-399.5" font-family="Helvetica,sans-Serif" font-size="10.00">TileCache.cc</text>
</a>
</g>
</g>
<!-- Node2&#45;&gt;Node3 -->
<g id="edge2" class="edge">
<title>Node2&#45;&gt;Node3</title>
<path fill="none" stroke="midnightblue" d="M320.08,-440.14C312.59,-430.74 303.56,-419.4 297.47,-411.75"/>
<polygon fill="midnightblue" stroke="midnightblue" points="317.43,-442.44 326.4,-448.08 322.91,-438.08 317.43,-442.44"/>
</g>
<!-- Node2&#45;&gt;Node4 -->
<g id="edge3" class="edge">
<title>Node2&#45;&gt;Node4</title>
<path fill="none" stroke="midnightblue" d="M346.61,-440.14C353.93,-430.74 362.74,-419.4 368.69,-411.75"/>
<polygon fill="midnightblue" stroke="midnightblue" points="343.81,-438.04 340.44,-448.08 349.34,-442.34 343.81,-438.04"/>
</g>
<!-- Node5 -->
<g id="node5" class="node">
<title>Node5</title>
<g id="a_node5"><a xlink:href="Frame_8cc.html" target="_top" xlink:title=" ">
<polygon fill="none" stroke="black" points="271,-336.5 271,-355.5 332,-355.5 332,-336.5 271,-336.5"/>
<text text-anchor="middle" x="301.5" y="-343.5" font-family="Helvetica,sans-Serif" font-size="10.00">Frame.cc</text>
</a>
</g>
</g>
<!-- Node4&#45;&gt;Node5 -->
<g id="edge4" class="edge">
<title>Node4&#45;&gt;Node5</title>
<path fill="none" stroke="midnightblue" d="M355.47,-386.38C342.09,-376.62 324.94,-364.11 313.61,-355.83"/>
<polygon fill="midnightblue" stroke="midnightblue" points="353.47,-389.26 363.61,-392.32 357.6,-383.6 353.47,-389.26"/>
</g>
<!-- Node4&#45;&gt;Node6 -->
<g id="edge5" class="edge">
<title>Node4&#45;&gt;Node6</title>
<path fill="none" stroke="midnightblue" d="M405.59,-388.5C429.96,-378.38 463.64,-364.39 485,-355.52"/>
<polygon fill="midnightblue" stroke="midnightblue" points="403.99,-385.38 396.1,-392.44 406.68,-391.84 403.99,-385.38"/>
</g>
<!-- Node4&#45;&gt;Node9 -->
<g id="edge8" class="edge">
<title>Node4&#45;&gt;Node9</title>
<path fill="none" stroke="midnightblue" d="M339.55,-389.3C308.27,-379.13 263.68,-364.62 235.68,-355.52"/>
<polygon fill="midnightblue" stroke="midnightblue" points="338.6,-392.68 349.2,-392.44 340.77,-386.02 338.6,-392.68"/>
</g>
<!-- Node11 -->
<g id="node11" class="node">
<title>Node11</title>
<g id="a_node11"><a xlink:href="RegionHandler_8h.html" target="_top" xlink:title=" ">
<polygon fill="none" stroke="black" points="247,-280.5 247,-299.5 344,-299.5 344,-280.5 247,-280.5"/>
<text text-anchor="middle" x="295.5" y="-287.5" font-family="Helvetica,sans-Serif" font-size="10.00">RegionHandler.h</text>
</a>
</g>
</g>
<!-- Node4&#45;&gt;Node11 -->
<g id="edge46" class="edge">
<title>Node4&#45;&gt;Node11</title>
<path fill="none" stroke="midnightblue" d="M367.88,-382.85C361.76,-369.3 352.4,-350.66 341.5,-336 330.97,-321.83 315.92,-308.01 305.93,-299.51"/>
<polygon fill="midnightblue" stroke="midnightblue" points="364.7,-384.31 371.91,-392.08 371.11,-381.51 364.7,-384.31"/>
</g>
<!-- Node19 -->
<g id="node19" class="node">
<title>Node19</title>
<g id="a_node19"><a xlink:href="Session_8h.html" target="_top" xlink:title=" ">
<polygon fill="none" stroke="black" points="757,-224.5 757,-243.5 820,-243.5 820,-224.5 757,-224.5"/>
<text text-anchor="middle" x="788.5" y="-231.5" font-family="Helvetica,sans-Serif" font-size="10.00">Session.h</text>
</a>
</g>
</g>
<!-- Node4&#45;&gt;Node19 -->
<g id="edge47" class="edge">
<title>Node4&#45;&gt;Node19</title>
<path fill="none" stroke="midnightblue" d="M381.83,-382.96C392.43,-355.66 416.52,-304.46 455.5,-280 505.41,-248.68 683.89,-238.77 756.96,-235.98"/>
<polygon fill="midnightblue" stroke="midnightblue" points="378.5,-381.85 378.32,-392.44 385.07,-384.28 378.5,-381.85"/>
</g>
<!-- Node6&#45;&gt;Node7 -->
<g id="edge6" class="edge">
<title>Node6&#45;&gt;Node7</title>
<path fill="none" stroke="midnightblue" d="M556.07,-335.03C608.95,-324.61 690.87,-308.47 739.44,-298.89"/>
<polygon fill="midnightblue" stroke="midnightblue" points="555.36,-331.61 546.22,-336.97 556.71,-338.47 555.36,-331.61"/>
</g>
<!-- Node8 -->
<g id="node8" class="node">
<title>Node8</title>
<g id="a_node8"><a xlink:href="Hdf5Loader_8cc.html" target="_top" xlink:title=" ">
<polygon fill="none" stroke="black" points="464.5,-280.5 464.5,-299.5 550.5,-299.5 550.5,-280.5 464.5,-280.5"/>
<text text-anchor="middle" x="507.5" y="-287.5" font-family="Helvetica,sans-Serif" font-size="10.00">Hdf5Loader.cc</text>
</a>
</g>
</g>
<!-- Node6&#45;&gt;Node8 -->
<g id="edge7" class="edge">
<title>Node6&#45;&gt;Node8</title>
<path fill="none" stroke="midnightblue" d="M506.21,-325.8C506.54,-316.91 506.92,-306.78 507.18,-299.75"/>
<polygon fill="midnightblue" stroke="midnightblue" points="502.7,-325.96 505.83,-336.08 509.7,-326.22 502.7,-325.96"/>
</g>
<!-- Node10 -->
<g id="node10" class="node">
<title>Node10</title>
<g id="a_node10"><a xlink:href="PvGenerator_8cc.html" target="_top" xlink:title=" ">
<polygon fill="none" stroke="black" points="138.5,-280.5 138.5,-299.5 228.5,-299.5 228.5,-280.5 138.5,-280.5"/>
<text text-anchor="middle" x="183.5" y="-287.5" font-family="Helvetica,sans-Serif" font-size="10.00">PvGenerator.cc</text>
</a>
</g>
</g>
<!-- Node9&#45;&gt;Node10 -->
<g id="edge9" class="edge">
<title>Node9&#45;&gt;Node10</title>
<path fill="none" stroke="midnightblue" d="M200.83,-326.98C196.41,-317.82 191.25,-307.09 187.71,-299.75"/>
<polygon fill="midnightblue" stroke="midnightblue" points="197.71,-328.59 205.21,-336.08 204.02,-325.55 197.71,-328.59"/>
</g>
<!-- Node9&#45;&gt;Node11 -->
<g id="edge10" class="edge">
<title>Node9&#45;&gt;Node11</title>
<path fill="none" stroke="midnightblue" d="M231.95,-330.9C247.72,-321 268.31,-308.07 281.72,-299.65"/>
<polygon fill="midnightblue" stroke="midnightblue" points="229.93,-328.04 223.32,-336.32 233.65,-333.97 229.93,-328.04"/>
</g>
<!-- Node11&#45;&gt;Node12 -->
<g id="edge11" class="edge">
<title>Node11&#45;&gt;Node12</title>
<path fill="none" stroke="midnightblue" d="M246.81,-278.22C174.97,-261.21 46.16,-226.15 19.5,-188 14.41,-180.71 13.95,-174.94 19.5,-168 28.81,-156.34 112.08,-140.54 167.91,-131.09"/>
<polygon fill="midnightblue" stroke="midnightblue" points="246.02,-281.63 256.55,-280.5 247.61,-274.81 246.02,-281.63"/>
</g>
<!-- Node13 -->
<g id="node13" class="node">
<title>Node13</title>
<g id="a_node13"><a xlink:href="RegionImportExport_8h.html" target="_top" xlink:title=" ">
<polygon fill="none" stroke="black" points="208,-224.5 208,-243.5 331,-243.5 331,-224.5 208,-224.5"/>
<text text-anchor="middle" x="269.5" y="-231.5" font-family="Helvetica,sans-Serif" font-size="10.00">RegionImportExport.h</text>
</a>
</g>
</g>
<!-- Node11&#45;&gt;Node13 -->
<g id="edge12" class="edge">
<title>Node11&#45;&gt;Node13</title>
<path fill="none" stroke="midnightblue" d="M286.83,-270.98C282.41,-261.82 277.25,-251.09 273.71,-243.75"/>
<polygon fill="midnightblue" stroke="midnightblue" points="283.71,-272.59 291.21,-280.08 290.02,-269.55 283.71,-272.59"/>
</g>
<!-- Node11&#45;&gt;Node19 -->
<g id="edge20" class="edge">
<title>Node11&#45;&gt;Node19</title>
<path fill="none" stroke="midnightblue" d="M354.23,-282.57C459.27,-271.06 675.87,-247.34 756.94,-238.46"/>
<polygon fill="midnightblue" stroke="midnightblue" points="353.68,-279.11 344.12,-283.67 354.44,-286.06 353.68,-279.11"/>
</g>
<!-- Node14 -->
<g id="node14" class="node">
<title>Node14</title>
<g id="a_node14"><a xlink:href="CrtfImportExport_8h.html" target="_top" xlink:title=" ">
<polygon fill="none" stroke="black" points="29,-168.5 29,-187.5 136,-187.5 136,-168.5 29,-168.5"/>
<text text-anchor="middle" x="82.5" y="-175.5" font-family="Helvetica,sans-Serif" font-size="10.00">CrtfImportExport.h</text>
</a>
</g>
</g>
<!-- Node13&#45;&gt;Node14 -->
<g id="edge13" class="edge">
<title>Node13&#45;&gt;Node14</title>
<path fill="none" stroke="midnightblue" d="M229.91,-221.57C194.63,-211.38 143.81,-196.7 111.99,-187.52"/>
<polygon fill="midnightblue" stroke="midnightblue" points="229.29,-225.03 239.87,-224.44 231.23,-218.31 229.29,-225.03"/>
</g>
<!-- Node16 -->
<g id="node16" class="node">
<title>Node16</title>
<g id="a_node16"><a xlink:href="Ds9ImportExport_8h.html" target="_top" xlink:title=" ">
<polygon fill="none" stroke="black" points="300.5,-168.5 300.5,-187.5 408.5,-187.5 408.5,-168.5 300.5,-168.5"/>
<text text-anchor="middle" x="354.5" y="-175.5" font-family="Helvetica,sans-Serif" font-size="10.00">Ds9ImportExport.h</text>
</a>
</g>
</g>
<!-- Node13&#45;&gt;Node16 -->
<g id="edge16" class="edge">
<title>Node13&#45;&gt;Node16</title>
<path fill="none" stroke="midnightblue" d="M291.69,-218.9C307.28,-209 327.63,-196.07 340.88,-187.65"/>
<polygon fill="midnightblue" stroke="midnightblue" points="289.72,-216.01 283.16,-224.32 293.47,-221.92 289.72,-216.01"/>
</g>
<!-- Node18 -->
<g id="node18" class="node">
<title>Node18</title>
<g id="a_node18"><a xlink:href="RegionImportExport_8cc.html" target="_top" xlink:title=" ">
<polygon fill="none" stroke="black" points="154.5,-168.5 154.5,-187.5 282.5,-187.5 282.5,-168.5 154.5,-168.5"/>
<text text-anchor="middle" x="218.5" y="-175.5" font-family="Helvetica,sans-Serif" font-size="10.00">RegionImportExport.cc</text>
</a>
</g>
</g>
<!-- Node13&#45;&gt;Node18 -->
<g id="edge19" class="edge">
<title>Node13&#45;&gt;Node18</title>
<path fill="none" stroke="midnightblue" d="M254.12,-216.72C245.13,-207.2 234.14,-195.56 226.76,-187.75"/>
<polygon fill="midnightblue" stroke="midnightblue" points="251.67,-219.22 261.08,-224.08 256.76,-214.41 251.67,-219.22"/>
</g>
<!-- Node14&#45;&gt;Node12 -->
<g id="edge15" class="edge">
<title>Node14&#45;&gt;Node12</title>
<path fill="none" stroke="midnightblue" d="M113.63,-164.64C139.16,-154.5 174.61,-140.43 197.05,-131.52"/>
<polygon fill="midnightblue" stroke="midnightblue" points="112.05,-161.5 104.05,-168.44 114.64,-168.01 112.05,-161.5"/>
</g>
<!-- Node15 -->
<g id="node15" class="node">
<title>Node15</title>
<g id="a_node15"><a xlink:href="CrtfImportExport_8cc.html" target="_top" xlink:title=" ">
<polygon fill="none" stroke="black" points="26.5,-112.5 26.5,-131.5 138.5,-131.5 138.5,-112.5 26.5,-112.5"/>
<text text-anchor="middle" x="82.5" y="-119.5" font-family="Helvetica,sans-Serif" font-size="10.00">CrtfImportExport.cc</text>
</a>
</g>
</g>
<!-- Node14&#45;&gt;Node15 -->
<g id="edge14" class="edge">
<title>Node14&#45;&gt;Node15</title>
<path fill="none" stroke="midnightblue" d="M82.5,-157.8C82.5,-148.91 82.5,-138.78 82.5,-131.75"/>
<polygon fill="midnightblue" stroke="midnightblue" points="79,-158.08 82.5,-168.08 86,-158.08 79,-158.08"/>
</g>
<!-- Node16&#45;&gt;Node12 -->
<g id="edge18" class="edge">
<title>Node16&#45;&gt;Node12</title>
<path fill="none" stroke="midnightblue" d="M323.37,-164.64C297.84,-154.5 262.39,-140.43 239.95,-131.52"/>
<polygon fill="midnightblue" stroke="midnightblue" points="322.36,-168.01 332.95,-168.44 324.95,-161.5 322.36,-168.01"/>
</g>
<!-- Node17 -->
<g id="node17" class="node">
<title>Node17</title>
<g id="a_node17"><a xlink:href="Ds9ImportExport_8cc.html" target="_top" xlink:title=" ">
<polygon fill="none" stroke="black" points="298,-112.5 298,-131.5 411,-131.5 411,-112.5 298,-112.5"/>
<text text-anchor="middle" x="354.5" y="-119.5" font-family="Helvetica,sans-Serif" font-size="10.00">Ds9ImportExport.cc</text>
</a>
</g>
</g>
<!-- Node16&#45;&gt;Node17 -->
<g id="edge17" class="edge">
<title>Node16&#45;&gt;Node17</title>
<path fill="none" stroke="midnightblue" d="M354.5,-157.8C354.5,-148.91 354.5,-138.78 354.5,-131.75"/>
<polygon fill="midnightblue" stroke="midnightblue" points="351,-158.08 354.5,-168.08 358,-158.08 351,-158.08"/>
</g>
<!-- Node20 -->
<g id="node20" class="node">
<title>Node20</title>
<g id="a_node20"><a xlink:href="CursorSettings_8cc.html" target="_top" xlink:title=" ">
<polygon fill="none" stroke="black" points="738,-168.5 738,-187.5 839,-187.5 839,-168.5 738,-168.5"/>
<text text-anchor="middle" x="788.5" y="-175.5" font-family="Helvetica,sans-Serif" font-size="10.00">CursorSettings.cc</text>
</a>
</g>
</g>
<!-- Node19&#45;&gt;Node20 -->
<g id="edge21" class="edge">
<title>Node19&#45;&gt;Node20</title>
<path fill="none" stroke="midnightblue" d="M788.5,-213.8C788.5,-204.91 788.5,-194.78 788.5,-187.75"/>
<polygon fill="midnightblue" stroke="midnightblue" points="785,-214.08 788.5,-224.08 792,-214.08 785,-214.08"/>
</g>
<!-- Node21 -->
<g id="node21" class="node">
<title>Node21</title>
<g id="a_node21"><a xlink:href="OnMessageTask_8h.html" target="_top" xlink:title=" ">
<polygon fill="none" stroke="black" points="698.5,-112.5 698.5,-131.5 802.5,-131.5 802.5,-112.5 698.5,-112.5"/>
<text text-anchor="middle" x="750.5" y="-119.5" font-family="Helvetica,sans-Serif" font-size="10.00">OnMessageTask.h</text>
</a>
</g>
</g>
<!-- Node19&#45;&gt;Node21 -->
<g id="edge22" class="edge">
<title>Node19&#45;&gt;Node21</title>
<path fill="none" stroke="midnightblue" d="M760.67,-219.27C748.76,-211.81 736.1,-201.34 729.5,-188 720.03,-168.87 734.26,-144.51 743.54,-131.73"/>
<polygon fill="midnightblue" stroke="midnightblue" points="759.11,-222.41 769.52,-224.4 762.62,-216.36 759.11,-222.41"/>
</g>
<!-- Node23 -->
<g id="node23" class="node">
<title>Node23</title>
<g id="a_node23"><a xlink:href="Session_8cc.html" target="_top" xlink:title=" ">
<polygon fill="none" stroke="black" points="1060.5,-0.5 1060.5,-19.5 1128.5,-19.5 1128.5,-0.5 1060.5,-0.5"/>
<text text-anchor="middle" x="1094.5" y="-7.5" font-family="Helvetica,sans-Serif" font-size="10.00">Session.cc</text>
</a>
</g>
</g>
<!-- Node19&#45;&gt;Node23 -->
<g id="edge38" class="edge">
<title>Node19&#45;&gt;Node23</title>
<path fill="none" stroke="midnightblue" d="M830.42,-228.24C868.8,-222.63 926.32,-210.98 971.5,-188 1040.38,-152.97 1071.9,-146.07 1104.5,-76 1113.17,-57.37 1104.7,-32.8 1098.91,-19.86"/>
<polygon fill="midnightblue" stroke="midnightblue" points="829.55,-224.83 820.13,-229.67 830.52,-231.76 829.55,-224.83"/>
</g>
<!-- Node34 -->
<g id="node34" class="node">
<title>Node34</title>
<g id="a_node34"><a xlink:href="SessionManager_8h.html" target="_top" xlink:title=" ">
<polygon fill="none" stroke="black" points="857,-168.5 857,-187.5 962,-187.5 962,-168.5 857,-168.5"/>
<text text-anchor="middle" x="909.5" y="-175.5" font-family="Helvetica,sans-Serif" font-size="10.00">SessionManager.h</text>
</a>
</g>
</g>
<!-- Node19&#45;&gt;Node34 -->
<g id="edge39" class="edge">
<title>Node19&#45;&gt;Node34</title>
<path fill="none" stroke="midnightblue" d="M816.81,-220.37C839.47,-210.26 870.63,-196.35 890.42,-187.52"/>
<polygon fill="midnightblue" stroke="midnightblue" points="815.38,-217.17 807.67,-224.44 818.23,-223.56 815.38,-217.17"/>
</g>
<!-- Node22 -->
<g id="node22" class="node">
<title>Node22</title>
<g id="a_node22"><a xlink:href="OnMessageTask_8cc.html" target="_top" xlink:title=" ">
<polygon fill="none" stroke="black" points="0,-0.5 0,-19.5 109,-19.5 109,-0.5 0,-0.5"/>
<text text-anchor="middle" x="54.5" y="-7.5" font-family="Helvetica,sans-Serif" font-size="10.00">OnMessageTask.cc</text>
</a>
</g>
</g>
<!-- Node21&#45;&gt;Node22 -->
<g id="edge23" class="edge">
<title>Node21&#45;&gt;Node22</title>
<path fill="none" stroke="midnightblue" d="M688.3,-111.17C553.34,-89.84 235.55,-39.61 108.44,-19.52"/>
<polygon fill="midnightblue" stroke="midnightblue" points="688.05,-114.67 698.47,-112.78 689.14,-107.76 688.05,-114.67"/>
</g>
<!-- Node21&#45;&gt;Node23 -->
<g id="edge24" class="edge">
<title>Node21&#45;&gt;Node23</title>
<path fill="none" stroke="midnightblue" d="M786.84,-109.38C856.27,-87.18 1006.27,-39.21 1067.57,-19.61"/>
<polygon fill="midnightblue" stroke="midnightblue" points="785.67,-106.08 777.21,-112.46 787.8,-112.75 785.67,-106.08"/>
</g>
<!-- Node24 -->
<g id="node24" class="node">
<title>Node24</title>
<g id="a_node24"><a xlink:href="SessionManager_8cc.html" target="_top" xlink:title=" ">
<polygon fill="none" stroke="black" points="830.5,-0.5 830.5,-19.5 940.5,-19.5 940.5,-0.5 830.5,-0.5"/>
<text text-anchor="middle" x="885.5" y="-7.5" font-family="Helvetica,sans-Serif" font-size="10.00">SessionManager.cc</text>
</a>
</g>
</g>
<!-- Node21&#45;&gt;Node24 -->
<g id="edge25" class="edge">
<title>Node21&#45;&gt;Node24</title>
<path fill="none" stroke="midnightblue" d="M769.14,-105.82C797.89,-82.39 852.13,-38.19 874.96,-19.59"/>
<polygon fill="midnightblue" stroke="midnightblue" points="766.63,-103.34 761.09,-112.37 771.06,-108.77 766.63,-103.34"/>
</g>
<!-- Node25 -->
<g id="node25" class="node">
<title>Node25</title>
<g id="a_node25"><a xlink:href="ThreadingManager_8h.html" target="_top" xlink:title=" ">
<polygon fill="none" stroke="black" points="532.5,-56.5 532.5,-75.5 648.5,-75.5 648.5,-56.5 532.5,-56.5"/>
<text text-anchor="middle" x="590.5" y="-63.5" font-family="Helvetica,sans-Serif" font-size="10.00">ThreadingManager.h</text>
</a>
</g>
</g>
<!-- Node21&#45;&gt;Node25 -->
<g id="edge26" class="edge">
<title>Node21&#45;&gt;Node25</title>
<path fill="none" stroke="midnightblue" d="M715.45,-109.17C685.33,-99 642.6,-84.59 615.73,-75.52"/>
<polygon fill="midnightblue" stroke="midnightblue" points="714.55,-112.56 725.15,-112.44 716.79,-105.93 714.55,-112.56"/>
</g>
<!-- Node25&#45;&gt;Node22 -->
<g id="edge31" class="edge">
<title>Node25&#45;&gt;Node22</title>
<path fill="none" stroke="midnightblue" d="M522.13,-59.51C430.06,-51.89 261.19,-37.09 117.5,-20 114.76,-19.67 111.95,-19.33 109.12,-18.96"/>
<polygon fill="midnightblue" stroke="midnightblue" points="521.9,-63 532.15,-60.34 522.47,-56.03 521.9,-63"/>
</g>
<!-- Node25&#45;&gt;Node23 -->
<g id="edge32" class="edge">
<title>Node25&#45;&gt;Node23</title>
<path fill="none" stroke="midnightblue" d="M658.79,-58.27C743.81,-49.79 893.46,-34.58 1021.5,-20 1034.19,-18.56 1048.1,-16.87 1060.35,-15.34"/>
<polygon fill="midnightblue" stroke="midnightblue" points="658.35,-54.79 648.75,-59.27 659.04,-61.76 658.35,-54.79"/>
</g>
<!-- Node25&#45;&gt;Node24 -->
<g id="edge33" class="edge">
<title>Node25&#45;&gt;Node24</title>
<path fill="none" stroke="midnightblue" d="M647.31,-54.6C703.06,-44.4 787.06,-29.02 838.98,-19.52"/>
<polygon fill="midnightblue" stroke="midnightblue" points="646.45,-51.2 637.24,-56.44 647.71,-58.09 646.45,-51.2"/>
</g>
<!-- Node26 -->
<g id="node26" class="node">
<title>Node26</title>
<g id="a_node26"><a xlink:href="Contouring_8cc.html" target="_top" xlink:title=" ">
<polygon fill="none" stroke="black" points="127,-0.5 127,-19.5 210,-19.5 210,-0.5 127,-0.5"/>
<text text-anchor="middle" x="168.5" y="-7.5" font-family="Helvetica,sans-Serif" font-size="10.00">Contouring.cc</text>
</a>
</g>
</g>
<!-- Node25&#45;&gt;Node26 -->
<g id="edge27" class="edge">
<title>Node25&#45;&gt;Node26</title>
<path fill="none" stroke="midnightblue" d="M522.15,-57.93C447.41,-49.92 324.18,-35.89 218.5,-20 215.8,-19.59 213.01,-19.15 210.21,-18.69"/>
<polygon fill="midnightblue" stroke="midnightblue" points="522.05,-61.44 532.37,-59.02 522.8,-54.48 522.05,-61.44"/>
</g>
<!-- Node27 -->
<g id="node27" class="node">
<title>Node27</title>
<g id="a_node27"><a xlink:href="Smoothing_8cc.html" target="_top" xlink:title=" ">
<polygon fill="none" stroke="black" points="228,-0.5 228,-19.5 311,-19.5 311,-0.5 228,-0.5"/>
<text text-anchor="middle" x="269.5" y="-7.5" font-family="Helvetica,sans-Serif" font-size="10.00">Smoothing.cc</text>
</a>
</g>
</g>
<!-- Node25&#45;&gt;Node27 -->
<g id="edge28" class="edge">
<title>Node25&#45;&gt;Node27</title>
<path fill="none" stroke="midnightblue" d="M528.57,-54.85C473.82,-45.84 391.82,-32.24 320.5,-20 317.49,-19.48 314.37,-18.94 311.24,-18.4"/>
<polygon fill="midnightblue" stroke="midnightblue" points="528.03,-58.31 538.46,-56.48 529.16,-51.4 528.03,-58.31"/>
</g>
<!-- Node28 -->
<g id="node28" class="node">
<title>Node28</title>
<g id="a_node28"><a xlink:href="Histogram_8cc.html" target="_top" xlink:title=" ">
<polygon fill="none" stroke="black" points="329,-0.5 329,-19.5 410,-19.5 410,-0.5 329,-0.5"/>
<text text-anchor="middle" x="369.5" y="-7.5" font-family="Helvetica,sans-Serif" font-size="10.00">Histogram.cc</text>
</a>
</g>
</g>
<!-- Node25&#45;&gt;Node28 -->
<g id="edge29" class="edge">
<title>Node25&#45;&gt;Node28</title>
<path fill="none" stroke="midnightblue" d="M545.58,-54.02C503.83,-43.82 442.52,-28.84 404.35,-19.52"/>
<polygon fill="midnightblue" stroke="midnightblue" points="544.94,-57.47 555.48,-56.44 546.6,-50.67 544.94,-57.47"/>
</g>
<!-- Node29 -->
<g id="node29" class="node">
<title>Node29</title>
<g id="a_node29"><a xlink:href="Main_8cc.html" target="_top" xlink:title=" ">
<polygon fill="none" stroke="black" points="958.5,-0.5 958.5,-19.5 1012.5,-19.5 1012.5,-0.5 958.5,-0.5"/>
<text text-anchor="middle" x="985.5" y="-7.5" font-family="Helvetica,sans-Serif" font-size="10.00">Main.cc</text>
</a>
</g>
</g>
<!-- Node25&#45;&gt;Node29 -->
<g id="edge30" class="edge">
<title>Node25&#45;&gt;Node29</title>
<path fill="none" stroke="midnightblue" d="M659.02,-58.88C731.55,-51.84 849.16,-38.76 949.5,-20 952.41,-19.46 955.44,-18.82 958.45,-18.13"/>
<polygon fill="midnightblue" stroke="midnightblue" points="658.28,-55.44 648.66,-59.88 658.95,-62.41 658.28,-55.44"/>
</g>
<!-- Node30 -->
<g id="node30" class="node">
<title>Node30</title>
<g id="a_node30"><a xlink:href="Columns_8cc.html" target="_top" xlink:title=" ">
<polygon fill="none" stroke="black" points="428,-0.5 428,-19.5 501,-19.5 501,-0.5 428,-0.5"/>
<text text-anchor="middle" x="464.5" y="-7.5" font-family="Helvetica,sans-Serif" font-size="10.00">Columns.cc</text>
</a>
</g>
</g>
<!-- Node25&#45;&gt;Node30 -->
<g id="edge34" class="edge">
<title>Node25&#45;&gt;Node30</title>
<path fill="none" stroke="midnightblue" d="M561.34,-52.5C537.72,-42.38 505.07,-28.39 484.37,-19.52"/>
<polygon fill="midnightblue" stroke="midnightblue" points="559.96,-55.72 570.53,-56.44 562.72,-49.29 559.96,-55.72"/>
</g>
<!-- Node31 -->
<g id="node31" class="node">
<title>Node31</title>
<g id="a_node31"><a xlink:href="Table_8cc.html" target="_top" xlink:title=" ">
<polygon fill="none" stroke="black" points="519.5,-0.5 519.5,-19.5 575.5,-19.5 575.5,-0.5 519.5,-0.5"/>
<text text-anchor="middle" x="547.5" y="-7.5" font-family="Helvetica,sans-Serif" font-size="10.00">Table.cc</text>
</a>
</g>
</g>
<!-- Node25&#45;&gt;Node31 -->
<g id="edge35" class="edge">
<title>Node25&#45;&gt;Node31</title>
<path fill="none" stroke="midnightblue" d="M577.08,-48.14C569.59,-38.74 560.56,-27.4 554.47,-19.75"/>
<polygon fill="midnightblue" stroke="midnightblue" points="574.43,-50.44 583.4,-56.08 579.91,-46.08 574.43,-50.44"/>
</g>
<!-- Node32 -->
<g id="node32" class="node">
<title>Node32</title>
<g id="a_node32"><a xlink:href="TableView_8cc.html" target="_top" xlink:title=" ">
<polygon fill="none" stroke="black" points="594,-0.5 594,-19.5 673,-19.5 673,-0.5 594,-0.5"/>
<text text-anchor="middle" x="633.5" y="-7.5" font-family="Helvetica,sans-Serif" font-size="10.00">TableView.cc</text>
</a>
</g>
</g>
<!-- Node25&#45;&gt;Node32 -->
<g id="edge36" class="edge">
<title>Node25&#45;&gt;Node32</title>
<path fill="none" stroke="midnightblue" d="M603.92,-48.14C611.41,-38.74 620.44,-27.4 626.53,-19.75"/>
<polygon fill="midnightblue" stroke="midnightblue" points="601.09,-46.08 597.6,-56.08 606.57,-50.44 601.09,-46.08"/>
</g>
<!-- Node33 -->
<g id="node33" class="node">
<title>Node33</title>
<g id="a_node33"><a xlink:href="ThreadingManager_8cc.html" target="_top" xlink:title=" ">
<polygon fill="none" stroke="black" points="691,-0.5 691,-19.5 812,-19.5 812,-0.5 691,-0.5"/>
<text text-anchor="middle" x="751.5" y="-7.5" font-family="Helvetica,sans-Serif" font-size="10.00">ThreadingManager.cc</text>
</a>
</g>
</g>
<!-- Node25&#45;&gt;Node33 -->
<g id="edge37" class="edge">
<title>Node25&#45;&gt;Node33</title>
<path fill="none" stroke="midnightblue" d="M625.76,-53.17C656.08,-43 699.07,-28.59 726.11,-19.52"/>
<polygon fill="midnightblue" stroke="midnightblue" points="624.38,-49.95 616.01,-56.44 626.6,-56.58 624.38,-49.95"/>
</g>
<!-- Node34&#45;&gt;Node21 -->
<g id="edge44" class="edge">
<title>Node34&#45;&gt;Node21</title>
<path fill="none" stroke="midnightblue" d="M874.67,-165.17C844.73,-155 802.28,-140.59 775.58,-131.52"/>
<polygon fill="midnightblue" stroke="midnightblue" points="873.71,-168.54 884.31,-168.44 875.96,-161.91 873.71,-168.54"/>
</g>
<!-- Node34&#45;&gt;Node24 -->
<g id="edge45" class="edge">
<title>Node34&#45;&gt;Node24</title>
<path fill="none" stroke="midnightblue" d="M902.8,-158.68C900.11,-150.6 897.24,-140.93 895.5,-132 887.41,-90.41 885.86,-39.54 885.57,-19.6"/>
<polygon fill="midnightblue" stroke="midnightblue" points="899.52,-159.9 906.12,-168.18 906.13,-157.59 899.52,-159.9"/>
</g>
<!-- Node34&#45;&gt;Node29 -->
<g id="edge43" class="edge">
<title>Node34&#45;&gt;Node29</title>
<path fill="none" stroke="midnightblue" d="M917.49,-158.88C923.27,-145.82 931.3,-127.79 938.5,-112 954.14,-77.68 973.22,-37.04 981.43,-19.63"/>
<polygon fill="midnightblue" stroke="midnightblue" points="914.24,-157.59 913.4,-168.15 920.64,-160.42 914.24,-157.59"/>
</g>
<!-- Node35 -->
<g id="node35" class="node">
<title>Node35</title>
<g id="a_node35"><a xlink:href="HttpServer_8h.html" target="_top" xlink:title=" ">
<polygon fill="none" stroke="black" points="947,-112.5 947,-131.5 1024,-131.5 1024,-112.5 947,-112.5"/>
<text text-anchor="middle" x="985.5" y="-119.5" font-family="Helvetica,sans-Serif" font-size="10.00">HttpServer.h</text>
</a>
</g>
</g>
<!-- Node34&#45;&gt;Node35 -->
<g id="edge40" class="edge">
<title>Node34&#45;&gt;Node35</title>
<path fill="none" stroke="midnightblue" d="M930.08,-162.38C943.81,-152.62 961.43,-140.11 973.07,-131.83"/>
<polygon fill="midnightblue" stroke="midnightblue" points="927.84,-159.68 921.71,-168.32 931.89,-165.38 927.84,-159.68"/>
</g>
<!-- Node35&#45;&gt;Node29 -->
<g id="edge42" class="edge">
<title>Node35&#45;&gt;Node29</title>
<path fill="none" stroke="midnightblue" d="M985.5,-102.35C985.5,-78.25 985.5,-37.31 985.5,-19.59"/>
<polygon fill="midnightblue" stroke="midnightblue" points="982,-102.37 985.5,-112.37 989,-102.37 982,-102.37"/>
</g>
<!-- Node36 -->
<g id="node36" class="node">
<title>Node36</title>
<g id="a_node36"><a xlink:href="HttpServer_8cc.html" target="_top" xlink:title=" ">
<polygon fill="none" stroke="black" points="1013.5,-56.5 1013.5,-75.5 1095.5,-75.5 1095.5,-56.5 1013.5,-56.5"/>
<text text-anchor="middle" x="1054.5" y="-63.5" font-family="Helvetica,sans-Serif" font-size="10.00">HttpServer.cc</text>
</a>
</g>
</g>
<!-- Node35&#45;&gt;Node36 -->
<g id="edge41" class="edge">
<title>Node35&#45;&gt;Node36</title>
<path fill="none" stroke="midnightblue" d="M1004.54,-106.1C1016.96,-96.38 1032.74,-84.03 1043.21,-75.83"/>
<polygon fill="midnightblue" stroke="midnightblue" points="1002.3,-103.4 996.59,-112.32 1006.62,-108.92 1002.3,-103.4"/>
</g>
<!-- Node37&#45;&gt;Node23 -->
<g id="edge50" class="edge">
<title>Node37&#45;&gt;Node23</title>
<path fill="none" stroke="midnightblue" d="M1414.49,-443.69C1427.75,-436.09 1442.76,-425.4 1452.5,-412 1470.19,-387.65 1471.5,-377.1 1471.5,-347 1471.5,-347 1471.5,-347 1471.5,-121 1471.5,-49.92 1221.42,-21.66 1128.62,-13.61"/>
<polygon fill="midnightblue" stroke="midnightblue" points="1412.82,-440.61 1405.69,-448.44 1416.15,-446.77 1412.82,-440.61"/>
</g>
<!-- Node38 -->
<g id="node38" class="node">
<title>Node38</title>
<g id="a_node38"><a xlink:href="FileExtInfoLoader_8cc.html" target="_top" xlink:title=" ">
<polygon fill="none" stroke="black" points="1329.5,-392.5 1329.5,-411.5 1443.5,-411.5 1443.5,-392.5 1329.5,-392.5"/>
<text text-anchor="middle" x="1386.5" y="-399.5" font-family="Helvetica,sans-Serif" font-size="10.00">FileExtInfoLoader.cc</text>
</a>
</g>
</g>
<!-- Node37&#45;&gt;Node38 -->
<g id="edge49" class="edge">
<title>Node37&#45;&gt;Node38</title>
<path fill="none" stroke="midnightblue" d="M1386.5,-437.8C1386.5,-428.91 1386.5,-418.78 1386.5,-411.75"/>
<polygon fill="midnightblue" stroke="midnightblue" points="1383,-438.08 1386.5,-448.08 1390,-438.08 1383,-438.08"/>
</g>
<!-- Node39&#45;&gt;Node7 -->
<g id="edge53" class="edge">
<title>Node39&#45;&gt;Node7</title>
<path fill="none" stroke="midnightblue" d="M779.5,-325.8C779.5,-316.91 779.5,-306.78 779.5,-299.75"/>
<polygon fill="midnightblue" stroke="midnightblue" points="776,-326.08 779.5,-336.08 783,-326.08 776,-326.08"/>
</g>
<!-- Node40&#45;&gt;Node7 -->
<g id="edge55" class="edge">
<title>Node40&#45;&gt;Node7</title>
<path fill="none" stroke="midnightblue" d="M863.49,-331.86C842.91,-321.85 815.16,-308.35 797.29,-299.65"/>
<polygon fill="midnightblue" stroke="midnightblue" points="862.14,-335.1 872.67,-336.32 865.2,-328.8 862.14,-335.1"/>
</g>
<!-- Node41&#45;&gt;Node7 -->
<g id="edge57" class="edge">
<title>Node41&#45;&gt;Node7</title>
<path fill="none" stroke="midnightblue" d="M961.32,-386.29C978.6,-372.83 997.81,-352.54 984.5,-336 964.23,-310.8 873.52,-298.91 819.79,-293.99"/>
<polygon fill="midnightblue" stroke="midnightblue" points="959.12,-383.56 953.14,-392.31 963.27,-389.2 959.12,-383.56"/>
</g>
<!-- Node42&#45;&gt;Node7 -->
<g id="edge59" class="edge">
<title>Node42&#45;&gt;Node7</title>
<path fill="none" stroke="midnightblue" d="M641.97,-333.44C674.97,-323.26 722.26,-308.66 751.9,-299.52"/>
<polygon fill="midnightblue" stroke="midnightblue" points="640.75,-330.15 632.23,-336.44 642.82,-336.84 640.75,-330.15"/>
</g>
<!-- Node43&#45;&gt;Node7 -->
<g id="edge62" class="edge">
<title>Node43&#45;&gt;Node7</title>
<path fill="none" stroke="midnightblue" d="M1191.97,-439.69C1181.57,-425.23 1165.09,-404.95 1146.5,-392 1043.48,-320.22 891.22,-299.35 819.56,-293.36"/>
<polygon fill="midnightblue" stroke="midnightblue" points="1189.31,-441.99 1197.89,-448.21 1195.06,-438 1189.31,-441.99"/>
</g>
<!-- Node44 -->
<g id="node44" class="node">
<title>Node44</title>
<g id="a_node44"><a xlink:href="FitsLoader_8cc.html" target="_top" xlink:title=" ">
<polygon fill="none" stroke="black" points="1231.5,-392.5 1231.5,-411.5 1311.5,-411.5 1311.5,-392.5 1231.5,-392.5"/>
<text text-anchor="middle" x="1271.5" y="-399.5" font-family="Helvetica,sans-Serif" font-size="10.00">FitsLoader.cc</text>
</a>
</g>
</g>
<!-- Node43&#45;&gt;Node44 -->
<g id="edge63" class="edge">
<title>Node43&#45;&gt;Node44</title>
<path fill="none" stroke="midnightblue" d="M1222.26,-442.1C1234.5,-432.38 1250.06,-420.03 1260.38,-411.83"/>
<polygon fill="midnightblue" stroke="midnightblue" points="1220.08,-439.36 1214.43,-448.32 1224.43,-444.85 1220.08,-439.36"/>
</g>
<!-- Node45&#45;&gt;Node7 -->
<g id="edge66" class="edge">
<title>Node45&#45;&gt;Node7</title>
<path fill="none" stroke="midnightblue" d="M867.06,-438.46C869.08,-424.39 873.75,-405.26 884.5,-392 908.94,-361.85 975.22,-366.72 951.5,-336 935.51,-315.29 865.29,-302.28 819.67,-295.85"/>
<polygon fill="midnightblue" stroke="midnightblue" points="863.57,-438.13 865.93,-448.46 870.53,-438.91 863.57,-438.13"/>
</g>
<!-- Node46&#45;&gt;Node7 -->
<g id="edge68" class="edge">
<title>Node46&#45;&gt;Node7</title>
<path fill="none" stroke="midnightblue" d="M642.62,-438.38C650.5,-412.65 667.77,-365.99 696.5,-336 712.83,-318.95 737.05,-306.85 755.12,-299.51"/>
<polygon fill="midnightblue" stroke="midnightblue" points="639.16,-437.73 639.73,-448.31 645.89,-439.69 639.16,-437.73"/>
</g>
<!-- Node47&#45;&gt;Node19 -->
<g id="edge71" class="edge">
<title>Node47&#45;&gt;Node19</title>
<path fill="none" stroke="midnightblue" d="M1104.93,-444.54C1131.32,-432.94 1160.96,-414.14 1146.5,-392 1071.7,-277.52 892.86,-245.99 820.1,-237.75"/>
<polygon fill="midnightblue" stroke="midnightblue" points="1103.34,-441.41 1095.44,-448.48 1106.02,-447.88 1103.34,-441.41"/>
</g>
<!-- Node48 -->
<g id="node48" class="node">
<title>Node48</title>
<g id="a_node48"><a xlink:href="StokesFilesConnector_8cc.html" target="_top" xlink:title=" ">
<polygon fill="none" stroke="black" points="1003.5,-392.5 1003.5,-411.5 1137.5,-411.5 1137.5,-392.5 1003.5,-392.5"/>
<text text-anchor="middle" x="1070.5" y="-399.5" font-family="Helvetica,sans-Serif" font-size="10.00">StokesFilesConnector.cc</text>
</a>
</g>
</g>
<!-- Node47&#45;&gt;Node48 -->
<g id="edge70" class="edge">
<title>Node47&#45;&gt;Node48</title>
<path fill="none" stroke="midnightblue" d="M1070.5,-437.8C1070.5,-428.91 1070.5,-418.78 1070.5,-411.75"/>
<polygon fill="midnightblue" stroke="midnightblue" points="1067,-438.08 1070.5,-448.08 1074,-438.08 1067,-438.08"/>
</g>
</g>
</svg>
        <g id="navigator" transform="translate(0 0)" fill="#404254">
                <rect fill="#f2f5e9" fill-opacity="0.5" stroke="#606060" stroke-width=".5" x="0" y="0" width="60" height="60"/>
                <use id="zoomplus" xlink:href="#zoomPlus" x="17" y="9" onmousedown="handleZoom(evt,'in')"/>
                <use id="zoomminus" xlink:href="#zoomMin" x="42" y="9" onmousedown="handleZoom(evt,'out')"/>
                <use id="reset" xlink:href="#resetDef" x="30" y="36" onmousedown="handleReset()"/>
                <g id="arrowUp" xlink:href="#dirArrow" transform="translate(30 24)" onmousedown="handlePan(0,-1)">
                  <use xlink:href="#rim" fill="#404040">
                        <set attributeName="fill" to="#808080" begin="arrowUp.mouseover" end="arrowUp.mouseout"/>
                  </use>
                  <path fill="none" stroke="white" stroke-width="1.5" d="M0,-3.0v7 M-2.5,-0.5L0,-3.0L2.5,-0.5"/>
                </g>
                <g id="arrowRight" xlink:href="#dirArrow" transform="rotate(90) translate(36 -43)" onmousedown="handlePan(1,0)">
                  <use xlink:href="#rim" fill="#404040">
                        <set attributeName="fill" to="#808080" begin="arrowRight.mouseover" end="arrowRight.mouseout"/>
                  </use>
                  <path fill="none" stroke="white" stroke-width="1.5" d="M0,-3.0v7 M-2.5,-0.5L0,-3.0L2.5,-0.5"/>
                </g>
                <g id="arrowDown" xlink:href="#dirArrow" transform="rotate(180) translate(-30 -48)" onmousedown="handlePan(0,1)">
                  <use xlink:href="#rim" fill="#404040">
                        <set attributeName="fill" to="#808080" begin="arrowDown.mouseover" end="arrowDown.mouseout"/>
                  </use>
                  <path fill="none" stroke="white" stroke-width="1.5" d="M0,-3.0v7 M-2.5,-0.5L0,-3.0L2.5,-0.5"/>
                </g>
                <g id="arrowLeft" xlink:href="#dirArrow" transform="rotate(270) translate(-36 17)" onmousedown="handlePan(-1,0)">
                  <use xlink:href="#rim" fill="#404040">
                        <set attributeName="fill" to="#808080" begin="arrowLeft.mouseover" end="arrowLeft.mouseout"/>
                  </use>
                  <path fill="none" stroke="white" stroke-width="1.5" d="M0,-3.0v7 M-2.5,-0.5L0,-3.0L2.5,-0.5"/>
                </g>
        </g>
        <svg viewBox="0 0 15 15" width="100%" height="30px" preserveAspectRatio="xMaxYMin meet">
         <g id="arrow_out" transform="scale(0.3 0.3)">
          <a xlink:href="FileLoader_8h__dep__incl_org.svg" target="_base">
           <rect id="button" ry="5" rx="5" y="6" x="6" height="38" width="38"
                fill="#f2f5e9" fill-opacity="0.5" stroke="#606060" stroke-width="1.0"/>
           <path id="arrow"
             d="M 11.500037,31.436501 C 11.940474,20.09759 22.043105,11.32322 32.158766,21.979434 L 37.068811,17.246167 C 37.068811,17.246167 37.088388,32 37.088388,32 L 22.160133,31.978069 C 22.160133,31.978069 26.997745,27.140456 26.997745,27.140456 C 18.528582,18.264221 13.291696,25.230495 11.500037,31.436501 z"
             style="fill:#404040;"/>
          </a>
         </g>
        </svg>
</svg>
