<?xml version="1.0" encoding="UTF-8" standalone="no"?>
<!DOCTYPE svg PUBLIC "-//W3C//DTD SVG 1.1//EN"
 "http://www.w3.org/Graphics/SVG/1.1/DTD/svg11.dtd">
<!-- Generated by graphviz version 2.43.0 (0)
 -->
<!-- Title: Histogram.h Pages: 1 -->
<!--zoomable 588 -->
<svg id="main" version="1.1" xmlns="http://www.w3.org/2000/svg" xmlns:xlink="http://www.w3.org/1999/xlink" xml:space="preserve" onload="init(evt)">
<style type="text/css"><![CDATA[
.edge:hover path { stroke: red; }
.edge:hover polygon { stroke: red; fill: red; }
]]></style>
<script type="text/javascript"><![CDATA[
var edges = document.getElementsByTagName('g');
if (edges && edges.length) {
  for (var i=0;i<edges.length;i++) {
    if (edges[i].id.substr(0,4)=='edge') {
      edges[i].setAttribute('class','edge');
    }
  }
}
]]></script>
        <defs>
                <circle id="rim" cx="0" cy="0" r="7"/>
                <circle id="rim2" cx="0" cy="0" r="3.5"/>
                <g id="zoomPlus">
                        <use xlink:href="#rim" fill="#404040">
                                <set attributeName="fill" to="#808080" begin="zoomplus.mouseover" end="zoomplus.mouseout"/>
                        </use>
                        <path d="M-4,0h8M0,-4v8" fill="none" stroke="white" stroke-width="1.5" pointer-events="none"/>
                </g>
                <g id="zoomMin">
                        <use xlink:href="#rim" fill="#404040">
                                <set attributeName="fill" to="#808080" begin="zoomminus.mouseover" end="zoomminus.mouseout"/>
                        </use>
                        <path d="M-4,0h8" fill="none" stroke="white" stroke-width="1.5" pointer-events="none"/>
                </g>
                <g id="dirArrow">
                        <path fill="none" stroke="white" stroke-width="1.5" d="M0,-3.0v7 M-2.5,-0.5L0,-3.0L2.5,-0.5"/>
                </g>
               <g id="resetDef">
                       <use xlink:href="#rim2" fill="#404040">
                               <set attributeName="fill" to="#808080" begin="reset.mouseover" end="reset.mouseout"/>
                       </use>
               </g>
        </defs>

<script type="text/javascript">
var viewWidth = 1349;
var viewHeight = 588;
var sectionId = 'dynsection-1';
</script>
<script xlink:href="svgpan.js"/>
<svg id="graph" class="graph">
<g id="viewport">
<title>Histogram.h</title>
<!-- Node1 -->
<g id="node1" class="node">
<title>Node1</title>
<g id="a_node1"><a xlink:title=" ">
<polygon fill="#bfbfbf" stroke="black" points="576,-560.5 576,-579.5 653,-579.5 653,-560.5 576,-560.5"/>
<text text-anchor="middle" x="614.5" y="-567.5" font-family="Helvetica,sans-Serif" font-size="10.00">Histogram.h</text>
</a>
</g>
</g>
<!-- Node2 -->
<g id="node2" class="node">
<title>Node2</title>
<g id="a_node2"><a xlink:href="RequirementsCache_8h.html" target="_top" xlink:title=" ">
<polygon fill="none" stroke="black" points="987.5,-392.5 987.5,-411.5 1111.5,-411.5 1111.5,-392.5 987.5,-392.5"/>
<text text-anchor="middle" x="1049.5" y="-399.5" font-family="Helvetica,sans-Serif" font-size="10.00">RequirementsCache.h</text>
</a>
</g>
</g>
<!-- Node1&#45;&gt;Node2 -->
<g id="edge1" class="edge">
<title>Node1&#45;&gt;Node2</title>
<path fill="none" stroke="midnightblue" d="M663.67,-568.78C796.96,-567.05 1160.12,-554.33 1233.5,-468 1270.58,-424.38 1178.52,-410.02 1111.66,-405.3"/>
<polygon fill="midnightblue" stroke="midnightblue" points="663.32,-565.29 653.36,-568.9 663.4,-572.29 663.32,-565.29"/>
</g>
<!-- Node3 -->
<g id="node3" class="node">
<title>Node3</title>
<g id="a_node3"><a xlink:href="Frame_8h.html" target="_top" xlink:title=" ">
<polygon fill="none" stroke="black" points="776.5,-336.5 776.5,-355.5 832.5,-355.5 832.5,-336.5 776.5,-336.5"/>
<text text-anchor="middle" x="804.5" y="-343.5" font-family="Helvetica,sans-Serif" font-size="10.00">Frame.h</text>
</a>
</g>
</g>
<!-- Node1&#45;&gt;Node3 -->
<g id="edge51" class="edge">
<title>Node1&#45;&gt;Node3</title>
<path fill="none" stroke="midnightblue" d="M604.35,-551.52C585.74,-516.9 551.39,-438.92 589.5,-392 601.25,-377.53 720.44,-358.92 776.12,-350.93"/>
<polygon fill="midnightblue" stroke="midnightblue" points="601.4,-553.4 609.32,-560.43 607.51,-549.99 601.4,-553.4"/>
</g>
<!-- Node25 -->
<g id="node25" class="node">
<title>Node25</title>
<g id="a_node25"><a xlink:href="Histogram_8cc.html" target="_top" xlink:title=" ">
<polygon fill="none" stroke="black" points="0,-0.5 0,-19.5 81,-19.5 81,-0.5 0,-0.5"/>
<text text-anchor="middle" x="40.5" y="-7.5" font-family="Helvetica,sans-Serif" font-size="10.00">Histogram.cc</text>
</a>
</g>
</g>
<!-- Node1&#45;&gt;Node25 -->
<g id="edge52" class="edge">
<title>Node1&#45;&gt;Node25</title>
<path fill="none" stroke="midnightblue" d="M565.47,-569.69C429.15,-570.29 55.5,-562.51 55.5,-459 55.5,-459 55.5,-459 55.5,-121 55.5,-82.84 46.53,-37.91 42.46,-19.5"/>
<polygon fill="midnightblue" stroke="midnightblue" points="565.66,-573.19 575.64,-569.62 565.61,-566.19 565.66,-573.19"/>
</g>
<!-- Node38 -->
<g id="node38" class="node">
<title>Node38</title>
<g id="a_node38"><a xlink:href="Message_8h.html" target="_top" xlink:title=" ">
<polygon fill="none" stroke="black" points="805,-504.5 805,-523.5 874,-523.5 874,-504.5 805,-504.5"/>
<text text-anchor="middle" x="839.5" y="-511.5" font-family="Helvetica,sans-Serif" font-size="10.00">Message.h</text>
</a>
</g>
</g>
<!-- Node1&#45;&gt;Node38 -->
<g id="edge53" class="edge">
<title>Node1&#45;&gt;Node38</title>
<path fill="none" stroke="midnightblue" d="M660.03,-558.07C702.8,-547.81 765.89,-532.67 804.75,-523.34"/>
<polygon fill="midnightblue" stroke="midnightblue" points="659.06,-554.71 650.15,-560.44 660.69,-561.51 659.06,-554.71"/>
</g>
<!-- Node2&#45;&gt;Node3 -->
<g id="edge2" class="edge">
<title>Node2&#45;&gt;Node3</title>
<path fill="none" stroke="midnightblue" d="M1000.69,-390.24C950.44,-379.17 873.87,-362.29 832.83,-353.24"/>
<polygon fill="midnightblue" stroke="midnightblue" points="1000.16,-393.71 1010.68,-392.44 1001.67,-386.87 1000.16,-393.71"/>
</g>
<!-- Node8 -->
<g id="node8" class="node">
<title>Node8</title>
<g id="a_node8"><a xlink:href="RegionHandler_8h.html" target="_top" xlink:title=" ">
<polygon fill="none" stroke="black" points="792,-280.5 792,-299.5 889,-299.5 889,-280.5 792,-280.5"/>
<text text-anchor="middle" x="840.5" y="-287.5" font-family="Helvetica,sans-Serif" font-size="10.00">RegionHandler.h</text>
</a>
</g>
</g>
<!-- Node2&#45;&gt;Node8 -->
<g id="edge49" class="edge">
<title>Node2&#45;&gt;Node8</title>
<path fill="none" stroke="midnightblue" d="M1024.02,-387.59C980.51,-364.69 893.07,-318.67 856.82,-299.59"/>
<polygon fill="midnightblue" stroke="midnightblue" points="1022.62,-390.81 1033.1,-392.37 1025.88,-384.61 1022.62,-390.81"/>
</g>
<!-- Node34 -->
<g id="node34" class="node">
<title>Node34</title>
<g id="a_node34"><a xlink:href="StatsCalculator_8h.html" target="_top" xlink:title=" ">
<polygon fill="none" stroke="black" points="1023,-336.5 1023,-355.5 1122,-355.5 1122,-336.5 1023,-336.5"/>
<text text-anchor="middle" x="1072.5" y="-343.5" font-family="Helvetica,sans-Serif" font-size="10.00">StatsCalculator.h</text>
</a>
</g>
</g>
<!-- Node2&#45;&gt;Node34 -->
<g id="edge44" class="edge">
<title>Node2&#45;&gt;Node34</title>
<path fill="none" stroke="midnightblue" d="M1057.3,-382.69C1061.18,-373.59 1065.68,-363.01 1068.77,-355.75"/>
<polygon fill="midnightblue" stroke="midnightblue" points="1054,-381.51 1053.3,-392.08 1060.44,-384.25 1054,-381.51"/>
</g>
<!-- Node37 -->
<g id="node37" class="node">
<title>Node37</title>
<g id="a_node37"><a xlink:href="Message_8cc.html" target="_top" xlink:title=" ">
<polygon fill="none" stroke="black" points="1189.5,-336.5 1189.5,-355.5 1263.5,-355.5 1263.5,-336.5 1189.5,-336.5"/>
<text text-anchor="middle" x="1226.5" y="-343.5" font-family="Helvetica,sans-Serif" font-size="10.00">Message.cc</text>
</a>
</g>
</g>
<!-- Node2&#45;&gt;Node37 -->
<g id="edge50" class="edge">
<title>Node2&#45;&gt;Node37</title>
<path fill="none" stroke="midnightblue" d="M1087.4,-389.44C1120.78,-379.26 1168.6,-364.66 1198.59,-355.52"/>
<polygon fill="midnightblue" stroke="midnightblue" points="1086.09,-386.18 1077.55,-392.44 1088.13,-392.87 1086.09,-386.18"/>
</g>
<!-- Node4 -->
<g id="node4" class="node">
<title>Node4</title>
<g id="a_node4"><a xlink:href="Frame_8cc.html" target="_top" xlink:title=" ">
<polygon fill="none" stroke="black" points="907,-280.5 907,-299.5 968,-299.5 968,-280.5 907,-280.5"/>
<text text-anchor="middle" x="937.5" y="-287.5" font-family="Helvetica,sans-Serif" font-size="10.00">Frame.cc</text>
</a>
</g>
</g>
<!-- Node3&#45;&gt;Node4 -->
<g id="edge3" class="edge">
<title>Node3&#45;&gt;Node4</title>
<path fill="none" stroke="midnightblue" d="M834.95,-332.64C859.91,-322.5 894.58,-308.43 916.52,-299.52"/>
<polygon fill="midnightblue" stroke="midnightblue" points="833.52,-329.44 825.57,-336.44 836.16,-335.92 833.52,-329.44"/>
</g>
<!-- Node5 -->
<g id="node5" class="node">
<title>Node5</title>
<g id="a_node5"><a xlink:href="Hdf5Loader_8h.html" target="_top" xlink:title=" ">
<polygon fill="none" stroke="black" points="693,-280.5 693,-299.5 774,-299.5 774,-280.5 693,-280.5"/>
<text text-anchor="middle" x="733.5" y="-287.5" font-family="Helvetica,sans-Serif" font-size="10.00">Hdf5Loader.h</text>
</a>
</g>
</g>
<!-- Node3&#45;&gt;Node5 -->
<g id="edge4" class="edge">
<title>Node3&#45;&gt;Node5</title>
<path fill="none" stroke="midnightblue" d="M784.91,-330.1C772.13,-320.38 755.89,-308.03 745.11,-299.83"/>
<polygon fill="midnightblue" stroke="midnightblue" points="783.01,-333.06 793.09,-336.32 787.25,-327.48 783.01,-333.06"/>
</g>
<!-- Node3&#45;&gt;Node8 -->
<g id="edge7" class="edge">
<title>Node3&#45;&gt;Node8</title>
<path fill="none" stroke="midnightblue" d="M816.12,-327.57C822.32,-318.27 829.67,-307.25 834.67,-299.75"/>
<polygon fill="midnightblue" stroke="midnightblue" points="813.08,-325.82 810.44,-336.08 818.9,-329.7 813.08,-325.82"/>
</g>
<!-- Node16 -->
<g id="node16" class="node">
<title>Node16</title>
<g id="a_node16"><a xlink:href="Session_8h.html" target="_top" xlink:title=" ">
<polygon fill="none" stroke="black" points="479,-224.5 479,-243.5 542,-243.5 542,-224.5 479,-224.5"/>
<text text-anchor="middle" x="510.5" y="-231.5" font-family="Helvetica,sans-Serif" font-size="10.00">Session.h</text>
</a>
</g>
</g>
<!-- Node3&#45;&gt;Node16 -->
<g id="edge43" class="edge">
<title>Node3&#45;&gt;Node16</title>
<path fill="none" stroke="midnightblue" d="M771.69,-332.73C711.61,-310.25 585.31,-262.99 533.46,-243.59"/>
<polygon fill="midnightblue" stroke="midnightblue" points="770.84,-336.14 781.43,-336.37 773.29,-329.59 770.84,-336.14"/>
</g>
<!-- Node6 -->
<g id="node6" class="node">
<title>Node6</title>
<g id="a_node6"><a xlink:href="FileLoader_8cc.html" target="_top" xlink:title=" ">
<polygon fill="none" stroke="black" points="598.5,-224.5 598.5,-243.5 678.5,-243.5 678.5,-224.5 598.5,-224.5"/>
<text text-anchor="middle" x="638.5" y="-231.5" font-family="Helvetica,sans-Serif" font-size="10.00">FileLoader.cc</text>
</a>
</g>
</g>
<!-- Node5&#45;&gt;Node6 -->
<g id="edge5" class="edge">
<title>Node5&#45;&gt;Node6</title>
<path fill="none" stroke="midnightblue" d="M709.18,-275.18C691.7,-265.24 668.67,-252.15 653.73,-243.65"/>
<polygon fill="midnightblue" stroke="midnightblue" points="707.81,-278.43 718.24,-280.32 711.27,-272.34 707.81,-278.43"/>
</g>
<!-- Node7 -->
<g id="node7" class="node">
<title>Node7</title>
<g id="a_node7"><a xlink:href="Hdf5Loader_8cc.html" target="_top" xlink:title=" ">
<polygon fill="none" stroke="black" points="696.5,-224.5 696.5,-243.5 782.5,-243.5 782.5,-224.5 696.5,-224.5"/>
<text text-anchor="middle" x="739.5" y="-231.5" font-family="Helvetica,sans-Serif" font-size="10.00">Hdf5Loader.cc</text>
</a>
</g>
</g>
<!-- Node5&#45;&gt;Node7 -->
<g id="edge6" class="edge">
<title>Node5&#45;&gt;Node7</title>
<path fill="none" stroke="midnightblue" d="M735.6,-270.1C736.6,-261.14 737.74,-250.86 738.53,-243.75"/>
<polygon fill="midnightblue" stroke="midnightblue" points="732.12,-269.76 734.49,-280.08 739.07,-270.53 732.12,-269.76"/>
</g>
<!-- Node9 -->
<g id="node9" class="node">
<title>Node9</title>
<g id="a_node9"><a xlink:href="RegionHandler_8cc.html" target="_top" xlink:title=" ">
<polygon fill="none" stroke="black" points="902,-112.5 902,-131.5 1003,-131.5 1003,-112.5 902,-112.5"/>
<text text-anchor="middle" x="952.5" y="-119.5" font-family="Helvetica,sans-Serif" font-size="10.00">RegionHandler.cc</text>
</a>
</g>
</g>
<!-- Node8&#45;&gt;Node9 -->
<g id="edge8" class="edge">
<title>Node8&#45;&gt;Node9</title>
<path fill="none" stroke="midnightblue" d="M885.84,-277.03C903.32,-270.16 921.87,-259.68 933.5,-244 959.33,-209.15 956.06,-153.01 953.66,-131.64"/>
<polygon fill="midnightblue" stroke="midnightblue" points="884.5,-273.8 876.28,-280.49 886.88,-280.38 884.5,-273.8"/>
</g>
<!-- Node10 -->
<g id="node10" class="node">
<title>Node10</title>
<g id="a_node10"><a xlink:href="RegionImportExport_8h.html" target="_top" xlink:title=" ">
<polygon fill="none" stroke="black" points="801,-224.5 801,-243.5 924,-243.5 924,-224.5 801,-224.5"/>
<text text-anchor="middle" x="862.5" y="-231.5" font-family="Helvetica,sans-Serif" font-size="10.00">RegionImportExport.h</text>
</a>
</g>
</g>
<!-- Node8&#45;&gt;Node10 -->
<g id="edge9" class="edge">
<title>Node8&#45;&gt;Node10</title>
<path fill="none" stroke="midnightblue" d="M847.96,-270.69C851.67,-261.59 855.98,-251.01 858.93,-243.75"/>
<polygon fill="midnightblue" stroke="midnightblue" points="844.66,-269.5 844.13,-280.08 851.15,-272.14 844.66,-269.5"/>
</g>
<!-- Node8&#45;&gt;Node16 -->
<g id="edge17" class="edge">
<title>Node8&#45;&gt;Node16</title>
<path fill="none" stroke="midnightblue" d="M781.83,-279.4C711.94,-267.96 597.72,-249.27 542.45,-240.23"/>
<polygon fill="midnightblue" stroke="midnightblue" points="781.37,-282.87 791.81,-281.03 782.5,-275.96 781.37,-282.87"/>
</g>
<!-- Node11 -->
<g id="node11" class="node">
<title>Node11</title>
<g id="a_node11"><a xlink:href="CrtfImportExport_8h.html" target="_top" xlink:title=" ">
<polygon fill="none" stroke="black" points="981,-168.5 981,-187.5 1088,-187.5 1088,-168.5 981,-168.5"/>
<text text-anchor="middle" x="1034.5" y="-175.5" font-family="Helvetica,sans-Serif" font-size="10.00">CrtfImportExport.h</text>
</a>
</g>
</g>
<!-- Node10&#45;&gt;Node11 -->
<g id="edge10" class="edge">
<title>Node10&#45;&gt;Node11</title>
<path fill="none" stroke="midnightblue" d="M899.33,-221.44C931.76,-211.26 978.24,-196.66 1007.37,-187.52"/>
<polygon fill="midnightblue" stroke="midnightblue" points="898.25,-218.11 889.75,-224.44 900.34,-224.79 898.25,-218.11"/>
</g>
<!-- Node13 -->
<g id="node13" class="node">
<title>Node13</title>
<g id="a_node13"><a xlink:href="Ds9ImportExport_8h.html" target="_top" xlink:title=" ">
<polygon fill="none" stroke="black" points="670.5,-168.5 670.5,-187.5 778.5,-187.5 778.5,-168.5 670.5,-168.5"/>
<text text-anchor="middle" x="724.5" y="-175.5" font-family="Helvetica,sans-Serif" font-size="10.00">Ds9ImportExport.h</text>
</a>
</g>
</g>
<!-- Node10&#45;&gt;Node13 -->
<g id="edge13" class="edge">
<title>Node10&#45;&gt;Node13</title>
<path fill="none" stroke="midnightblue" d="M831.25,-220.77C805.33,-210.63 769.14,-196.47 746.26,-187.52"/>
<polygon fill="midnightblue" stroke="midnightblue" points="830.05,-224.06 840.63,-224.44 832.6,-217.54 830.05,-224.06"/>
</g>
<!-- Node15 -->
<g id="node15" class="node">
<title>Node15</title>
<g id="a_node15"><a xlink:href="RegionImportExport_8cc.html" target="_top" xlink:title=" ">
<polygon fill="none" stroke="black" points="796.5,-168.5 796.5,-187.5 924.5,-187.5 924.5,-168.5 796.5,-168.5"/>
<text text-anchor="middle" x="860.5" y="-175.5" font-family="Helvetica,sans-Serif" font-size="10.00">RegionImportExport.cc</text>
</a>
</g>
</g>
<!-- Node10&#45;&gt;Node15 -->
<g id="edge16" class="edge">
<title>Node10&#45;&gt;Node15</title>
<path fill="none" stroke="midnightblue" d="M861.79,-213.8C861.46,-204.91 861.08,-194.78 860.82,-187.75"/>
<polygon fill="midnightblue" stroke="midnightblue" points="858.3,-214.22 862.17,-224.08 865.3,-213.96 858.3,-214.22"/>
</g>
<!-- Node11&#45;&gt;Node9 -->
<g id="edge12" class="edge">
<title>Node11&#45;&gt;Node9</title>
<path fill="none" stroke="midnightblue" d="M1012.67,-162.62C997.69,-152.76 978.3,-139.99 965.64,-131.65"/>
<polygon fill="midnightblue" stroke="midnightblue" points="1011.05,-165.75 1021.33,-168.32 1014.9,-159.9 1011.05,-165.75"/>
</g>
<!-- Node12 -->
<g id="node12" class="node">
<title>Node12</title>
<g id="a_node12"><a xlink:href="CrtfImportExport_8cc.html" target="_top" xlink:title=" ">
<polygon fill="none" stroke="black" points="1021.5,-112.5 1021.5,-131.5 1133.5,-131.5 1133.5,-112.5 1021.5,-112.5"/>
<text text-anchor="middle" x="1077.5" y="-119.5" font-family="Helvetica,sans-Serif" font-size="10.00">CrtfImportExport.cc</text>
</a>
</g>
</g>
<!-- Node11&#45;&gt;Node12 -->
<g id="edge11" class="edge">
<title>Node11&#45;&gt;Node12</title>
<path fill="none" stroke="midnightblue" d="M1047.92,-160.14C1055.41,-150.74 1064.44,-139.4 1070.53,-131.75"/>
<polygon fill="midnightblue" stroke="midnightblue" points="1045.09,-158.08 1041.6,-168.08 1050.57,-162.44 1045.09,-158.08"/>
</g>
<!-- Node13&#45;&gt;Node9 -->
<g id="edge15" class="edge">
<title>Node13&#45;&gt;Node9</title>
<path fill="none" stroke="midnightblue" d="M770.57,-166.09C813.65,-155.89 877.09,-140.86 916.54,-131.52"/>
<polygon fill="midnightblue" stroke="midnightblue" points="769.55,-162.73 760.63,-168.44 771.16,-169.54 769.55,-162.73"/>
</g>
<!-- Node14 -->
<g id="node14" class="node">
<title>Node14</title>
<g id="a_node14"><a xlink:href="Ds9ImportExport_8cc.html" target="_top" xlink:title=" ">
<polygon fill="none" stroke="black" points="671,-112.5 671,-131.5 784,-131.5 784,-112.5 671,-112.5"/>
<text text-anchor="middle" x="727.5" y="-119.5" font-family="Helvetica,sans-Serif" font-size="10.00">Ds9ImportExport.cc</text>
</a>
</g>
</g>
<!-- Node13&#45;&gt;Node14 -->
<g id="edge14" class="edge">
<title>Node13&#45;&gt;Node14</title>
<path fill="none" stroke="midnightblue" d="M725.57,-157.8C726.06,-148.91 726.62,-138.78 727.01,-131.75"/>
<polygon fill="midnightblue" stroke="midnightblue" points="722.06,-157.9 725,-168.08 729.04,-158.29 722.06,-157.9"/>
</g>
<!-- Node17 -->
<g id="node17" class="node">
<title>Node17</title>
<g id="a_node17"><a xlink:href="CursorSettings_8cc.html" target="_top" xlink:title=" ">
<polygon fill="none" stroke="black" points="475,-168.5 475,-187.5 576,-187.5 576,-168.5 475,-168.5"/>
<text text-anchor="middle" x="525.5" y="-175.5" font-family="Helvetica,sans-Serif" font-size="10.00">CursorSettings.cc</text>
</a>
</g>
</g>
<!-- Node16&#45;&gt;Node17 -->
<g id="edge18" class="edge">
<title>Node16&#45;&gt;Node17</title>
<path fill="none" stroke="midnightblue" d="M515.67,-214.4C518.18,-205.36 521.07,-194.94 523.07,-187.75"/>
<polygon fill="midnightblue" stroke="midnightblue" points="512.28,-213.51 512.98,-224.08 519.03,-215.38 512.28,-213.51"/>
</g>
<!-- Node18 -->
<g id="node18" class="node">
<title>Node18</title>
<g id="a_node18"><a xlink:href="OnMessageTask_8h.html" target="_top" xlink:title=" ">
<polygon fill="none" stroke="black" points="428.5,-112.5 428.5,-131.5 532.5,-131.5 532.5,-112.5 428.5,-112.5"/>
<text text-anchor="middle" x="480.5" y="-119.5" font-family="Helvetica,sans-Serif" font-size="10.00">OnMessageTask.h</text>
</a>
</g>
</g>
<!-- Node16&#45;&gt;Node18 -->
<g id="edge19" class="edge">
<title>Node16&#45;&gt;Node18</title>
<path fill="none" stroke="midnightblue" d="M544.56,-220.43C570.66,-208.75 599.95,-189.91 585.5,-168 572.89,-148.88 550.29,-137.85 529.27,-131.5"/>
<polygon fill="midnightblue" stroke="midnightblue" points="543.03,-217.28 535.18,-224.4 545.75,-223.72 543.03,-217.28"/>
</g>
<!-- Node20 -->
<g id="node20" class="node">
<title>Node20</title>
<g id="a_node20"><a xlink:href="Session_8cc.html" target="_top" xlink:title=" ">
<polygon fill="none" stroke="black" points="1031.5,-0.5 1031.5,-19.5 1099.5,-19.5 1099.5,-0.5 1031.5,-0.5"/>
<text text-anchor="middle" x="1065.5" y="-7.5" font-family="Helvetica,sans-Serif" font-size="10.00">Session.cc</text>
</a>
</g>
</g>
<!-- Node16&#45;&gt;Node20 -->
<g id="edge35" class="edge">
<title>Node16&#45;&gt;Node20</title>
<path fill="none" stroke="midnightblue" d="M543.74,-220.41C561.64,-212.67 583.47,-201.63 600.5,-188 634.53,-160.76 625.71,-135.38 662.5,-112 694.12,-91.91 939.82,-37.91 1031.32,-18.27"/>
<polygon fill="midnightblue" stroke="midnightblue" points="542.15,-217.28 534.26,-224.36 544.84,-223.74 542.15,-217.28"/>
</g>
<!-- Node31 -->
<g id="node31" class="node">
<title>Node31</title>
<g id="a_node31"><a xlink:href="SessionManager_8h.html" target="_top" xlink:title=" ">
<polygon fill="none" stroke="black" points="313,-168.5 313,-187.5 418,-187.5 418,-168.5 313,-168.5"/>
<text text-anchor="middle" x="365.5" y="-175.5" font-family="Helvetica,sans-Serif" font-size="10.00">SessionManager.h</text>
</a>
</g>
</g>
<!-- Node16&#45;&gt;Node31 -->
<g id="edge36" class="edge">
<title>Node16&#45;&gt;Node31</title>
<path fill="none" stroke="midnightblue" d="M478.02,-220.91C450.76,-210.75 412.51,-196.51 388.37,-187.52"/>
<polygon fill="midnightblue" stroke="midnightblue" points="476.93,-224.23 487.52,-224.44 479.37,-217.67 476.93,-224.23"/>
</g>
<!-- Node19 -->
<g id="node19" class="node">
<title>Node19</title>
<g id="a_node19"><a xlink:href="OnMessageTask_8cc.html" target="_top" xlink:title=" ">
<polygon fill="none" stroke="black" points="904,-0.5 904,-19.5 1013,-19.5 1013,-0.5 904,-0.5"/>
<text text-anchor="middle" x="958.5" y="-7.5" font-family="Helvetica,sans-Serif" font-size="10.00">OnMessageTask.cc</text>
</a>
</g>
</g>
<!-- Node18&#45;&gt;Node19 -->
<g id="edge20" class="edge">
<title>Node18&#45;&gt;Node19</title>
<path fill="none" stroke="midnightblue" d="M502.12,-106.76C528.66,-89.55 572.36,-62.13 590.5,-56 719.82,-12.34 760.15,-37.65 895.5,-20 898.24,-19.64 901.04,-19.27 903.88,-18.89"/>
<polygon fill="midnightblue" stroke="midnightblue" points="499.99,-103.98 493.52,-112.37 503.81,-109.84 499.99,-103.98"/>
</g>
<!-- Node18&#45;&gt;Node20 -->
<g id="edge21" class="edge">
<title>Node18&#45;&gt;Node20</title>
<path fill="none" stroke="midnightblue" d="M509.77,-108.51C530.64,-99.55 559.35,-87.16 584.5,-76 604.14,-67.29 607.73,-61.5 628.5,-56 798.48,-10.99 848.6,-46.05 1022.5,-20 1025.37,-19.57 1028.33,-19.07 1031.3,-18.53"/>
<polygon fill="midnightblue" stroke="midnightblue" points="508.3,-105.33 500.48,-112.48 511.06,-111.76 508.3,-105.33"/>
</g>
<!-- Node21 -->
<g id="node21" class="node">
<title>Node21</title>
<g id="a_node21"><a xlink:href="SessionManager_8cc.html" target="_top" xlink:title=" ">
<polygon fill="none" stroke="black" points="171.5,-0.5 171.5,-19.5 281.5,-19.5 281.5,-0.5 171.5,-0.5"/>
<text text-anchor="middle" x="226.5" y="-7.5" font-family="Helvetica,sans-Serif" font-size="10.00">SessionManager.cc</text>
</a>
</g>
</g>
<!-- Node18&#45;&gt;Node21 -->
<g id="edge22" class="edge">
<title>Node18&#45;&gt;Node21</title>
<path fill="none" stroke="midnightblue" d="M456.32,-107.41C431.11,-93.52 390.21,-71.82 353.5,-56 319.99,-41.56 280.16,-28.01 254.16,-19.63"/>
<polygon fill="midnightblue" stroke="midnightblue" points="454.73,-110.53 465.18,-112.32 458.13,-104.41 454.73,-110.53"/>
</g>
<!-- Node22 -->
<g id="node22" class="node">
<title>Node22</title>
<g id="a_node22"><a xlink:href="ThreadingManager_8h.html" target="_top" xlink:title=" ">
<polygon fill="none" stroke="black" points="422.5,-56.5 422.5,-75.5 538.5,-75.5 538.5,-56.5 422.5,-56.5"/>
<text text-anchor="middle" x="480.5" y="-63.5" font-family="Helvetica,sans-Serif" font-size="10.00">ThreadingManager.h</text>
</a>
</g>
</g>
<!-- Node18&#45;&gt;Node22 -->
<g id="edge23" class="edge">
<title>Node18&#45;&gt;Node22</title>
<path fill="none" stroke="midnightblue" d="M480.5,-101.8C480.5,-92.91 480.5,-82.78 480.5,-75.75"/>
<polygon fill="midnightblue" stroke="midnightblue" points="477,-102.08 480.5,-112.08 484,-102.08 477,-102.08"/>
</g>
<!-- Node22&#45;&gt;Node19 -->
<g id="edge28" class="edge">
<title>Node22&#45;&gt;Node19</title>
<path fill="none" stroke="midnightblue" d="M548.66,-56.44C549.95,-56.29 551.23,-56.15 552.5,-56 704.78,-38.49 743.38,-38.84 895.5,-20 898.24,-19.66 901.05,-19.3 903.88,-18.93"/>
<polygon fill="midnightblue" stroke="midnightblue" points="548.17,-52.98 538.65,-57.63 548.99,-59.93 548.17,-52.98"/>
</g>
<!-- Node22&#45;&gt;Node20 -->
<g id="edge29" class="edge">
<title>Node22&#45;&gt;Node20</title>
<path fill="none" stroke="midnightblue" d="M548.6,-59.4C692.88,-47.53 1016.69,-20.85 1022.5,-20 1025.37,-19.58 1028.33,-19.09 1031.3,-18.56"/>
<polygon fill="midnightblue" stroke="midnightblue" points="548.21,-55.92 538.53,-60.23 548.78,-62.9 548.21,-55.92"/>
</g>
<!-- Node22&#45;&gt;Node21 -->
<g id="edge30" class="edge">
<title>Node22&#45;&gt;Node21</title>
<path fill="none" stroke="midnightblue" d="M430.38,-54.35C382.38,-44.14 310.88,-28.94 266.56,-19.52"/>
<polygon fill="midnightblue" stroke="midnightblue" points="429.74,-57.79 440.25,-56.44 431.2,-50.94 429.74,-57.79"/>
</g>
<!-- Node23 -->
<g id="node23" class="node">
<title>Node23</title>
<g id="a_node23"><a xlink:href="Contouring_8cc.html" target="_top" xlink:title=" ">
<polygon fill="none" stroke="black" points="439,-0.5 439,-19.5 522,-19.5 522,-0.5 439,-0.5"/>
<text text-anchor="middle" x="480.5" y="-7.5" font-family="Helvetica,sans-Serif" font-size="10.00">Contouring.cc</text>
</a>
</g>
</g>
<!-- Node22&#45;&gt;Node23 -->
<g id="edge24" class="edge">
<title>Node22&#45;&gt;Node23</title>
<path fill="none" stroke="midnightblue" d="M480.5,-45.8C480.5,-36.91 480.5,-26.78 480.5,-19.75"/>
<polygon fill="midnightblue" stroke="midnightblue" points="477,-46.08 480.5,-56.08 484,-46.08 477,-46.08"/>
</g>
<!-- Node24 -->
<g id="node24" class="node">
<title>Node24</title>
<g id="a_node24"><a xlink:href="Smoothing_8cc.html" target="_top" xlink:title=" ">
<polygon fill="none" stroke="black" points="540,-0.5 540,-19.5 623,-19.5 623,-0.5 540,-0.5"/>
<text text-anchor="middle" x="581.5" y="-7.5" font-family="Helvetica,sans-Serif" font-size="10.00">Smoothing.cc</text>
</a>
</g>
</g>
<!-- Node22&#45;&gt;Node24 -->
<g id="edge25" class="edge">
<title>Node22&#45;&gt;Node24</title>
<path fill="none" stroke="midnightblue" d="M505.58,-51.59C524.26,-41.61 549.2,-28.27 565.31,-19.65"/>
<polygon fill="midnightblue" stroke="midnightblue" points="503.9,-48.52 496.73,-56.32 507.2,-54.7 503.9,-48.52"/>
</g>
<!-- Node22&#45;&gt;Node25 -->
<g id="edge26" class="edge">
<title>Node22&#45;&gt;Node25</title>
<path fill="none" stroke="midnightblue" d="M412.02,-58.42C334.01,-50.62 202.78,-36.57 90.5,-20 87.45,-19.55 84.29,-19.05 81.12,-18.53"/>
<polygon fill="midnightblue" stroke="midnightblue" points="411.91,-61.93 422.2,-59.43 412.6,-54.96 411.91,-61.93"/>
</g>
<!-- Node26 -->
<g id="node26" class="node">
<title>Node26</title>
<g id="a_node26"><a xlink:href="Main_8cc.html" target="_top" xlink:title=" ">
<polygon fill="none" stroke="black" points="99.5,-0.5 99.5,-19.5 153.5,-19.5 153.5,-0.5 99.5,-0.5"/>
<text text-anchor="middle" x="126.5" y="-7.5" font-family="Helvetica,sans-Serif" font-size="10.00">Main.cc</text>
</a>
</g>
</g>
<!-- Node22&#45;&gt;Node26 -->
<g id="edge27" class="edge">
<title>Node22&#45;&gt;Node26</title>
<path fill="none" stroke="midnightblue" d="M412.4,-57.45C347.77,-49.79 248.08,-36.71 162.5,-20 159.59,-19.43 156.57,-18.78 153.56,-18.09"/>
<polygon fill="midnightblue" stroke="midnightblue" points="412.12,-60.94 422.46,-58.63 412.94,-53.99 412.12,-60.94"/>
</g>
<!-- Node27 -->
<g id="node27" class="node">
<title>Node27</title>
<g id="a_node27"><a xlink:href="Columns_8cc.html" target="_top" xlink:title=" ">
<polygon fill="none" stroke="black" points="641,-0.5 641,-19.5 714,-19.5 714,-0.5 641,-0.5"/>
<text text-anchor="middle" x="677.5" y="-7.5" font-family="Helvetica,sans-Serif" font-size="10.00">Columns.cc</text>
</a>
</g>
</g>
<!-- Node22&#45;&gt;Node27 -->
<g id="edge31" class="edge">
<title>Node22&#45;&gt;Node27</title>
<path fill="none" stroke="midnightblue" d="M521.73,-53.7C558.91,-43.51 612.77,-28.74 646.43,-19.52"/>
<polygon fill="midnightblue" stroke="midnightblue" points="520.43,-50.42 511.72,-56.44 522.28,-57.18 520.43,-50.42"/>
</g>
<!-- Node28 -->
<g id="node28" class="node">
<title>Node28</title>
<g id="a_node28"><a xlink:href="Table_8cc.html" target="_top" xlink:title=" ">
<polygon fill="none" stroke="black" points="732.5,-0.5 732.5,-19.5 788.5,-19.5 788.5,-0.5 732.5,-0.5"/>
<text text-anchor="middle" x="760.5" y="-7.5" font-family="Helvetica,sans-Serif" font-size="10.00">Table.cc</text>
</a>
</g>
</g>
<!-- Node22&#45;&gt;Node28 -->
<g id="edge32" class="edge">
<title>Node22&#45;&gt;Node28</title>
<path fill="none" stroke="midnightblue" d="M541.25,-54.71C590.52,-46.14 661.68,-33.23 723.5,-20 726.34,-19.39 729.3,-18.73 732.26,-18.04"/>
<polygon fill="midnightblue" stroke="midnightblue" points="540.65,-51.27 531.39,-56.42 541.84,-58.16 540.65,-51.27"/>
</g>
<!-- Node29 -->
<g id="node29" class="node">
<title>Node29</title>
<g id="a_node29"><a xlink:href="TableView_8cc.html" target="_top" xlink:title=" ">
<polygon fill="none" stroke="black" points="807,-0.5 807,-19.5 886,-19.5 886,-0.5 807,-0.5"/>
<text text-anchor="middle" x="846.5" y="-7.5" font-family="Helvetica,sans-Serif" font-size="10.00">TableView.cc</text>
</a>
</g>
</g>
<!-- Node22&#45;&gt;Node29 -->
<g id="edge33" class="edge">
<title>Node22&#45;&gt;Node29</title>
<path fill="none" stroke="midnightblue" d="M548.75,-56.13C613.03,-47.58 711.96,-33.92 797.5,-20 800.57,-19.5 803.75,-18.96 806.94,-18.41"/>
<polygon fill="midnightblue" stroke="midnightblue" points="548.2,-52.67 538.74,-57.45 549.12,-59.61 548.2,-52.67"/>
</g>
<!-- Node30 -->
<g id="node30" class="node">
<title>Node30</title>
<g id="a_node30"><a xlink:href="ThreadingManager_8cc.html" target="_top" xlink:title=" ">
<polygon fill="none" stroke="black" points="300,-0.5 300,-19.5 421,-19.5 421,-0.5 300,-0.5"/>
<text text-anchor="middle" x="360.5" y="-7.5" font-family="Helvetica,sans-Serif" font-size="10.00">ThreadingManager.cc</text>
</a>
</g>
</g>
<!-- Node22&#45;&gt;Node30 -->
<g id="edge34" class="edge">
<title>Node22&#45;&gt;Node30</title>
<path fill="none" stroke="midnightblue" d="M452.13,-52.23C429.68,-42.13 398.96,-28.31 379.43,-19.52"/>
<polygon fill="midnightblue" stroke="midnightblue" points="450.93,-55.53 461.49,-56.44 453.8,-49.15 450.93,-55.53"/>
</g>
<!-- Node31&#45;&gt;Node18 -->
<g id="edge41" class="edge">
<title>Node31&#45;&gt;Node18</title>
<path fill="none" stroke="midnightblue" d="M392.98,-164.1C414.47,-154.01 443.72,-140.27 462.36,-131.52"/>
<polygon fill="midnightblue" stroke="midnightblue" points="391.29,-161.02 383.72,-168.44 394.26,-167.36 391.29,-161.02"/>
</g>
<!-- Node31&#45;&gt;Node21 -->
<g id="edge42" class="edge">
<title>Node31&#45;&gt;Node21</title>
<path fill="none" stroke="midnightblue" d="M358.91,-159C348.93,-133.66 328,-87.1 298.5,-56 283.28,-39.96 261.18,-27.27 245.48,-19.5"/>
<polygon fill="midnightblue" stroke="midnightblue" points="355.68,-160.35 362.5,-168.45 362.22,-157.86 355.68,-160.35"/>
</g>
<!-- Node31&#45;&gt;Node26 -->
<g id="edge40" class="edge">
<title>Node31&#45;&gt;Node26</title>
<path fill="none" stroke="midnightblue" d="M302.5,-169.44C252.28,-162.21 187.22,-149.78 167.5,-132 133.56,-101.41 127.69,-41.7 126.7,-19.54"/>
<polygon fill="midnightblue" stroke="midnightblue" points="302.26,-172.94 312.64,-170.86 303.23,-166.01 302.26,-172.94"/>
</g>
<!-- Node32 -->
<g id="node32" class="node">
<title>Node32</title>
<g id="a_node32"><a xlink:href="HttpServer_8h.html" target="_top" xlink:title=" ">
<polygon fill="none" stroke="black" points="177,-112.5 177,-131.5 254,-131.5 254,-112.5 177,-112.5"/>
<text text-anchor="middle" x="215.5" y="-119.5" font-family="Helvetica,sans-Serif" font-size="10.00">HttpServer.h</text>
</a>
</g>
</g>
<!-- Node31&#45;&gt;Node32 -->
<g id="edge37" class="edge">
<title>Node31&#45;&gt;Node32</title>
<path fill="none" stroke="midnightblue" d="M332.28,-165.04C304.05,-154.88 264.24,-140.55 239.16,-131.52"/>
<polygon fill="midnightblue" stroke="midnightblue" points="331.14,-168.35 341.73,-168.44 333.51,-161.76 331.14,-168.35"/>
</g>
<!-- Node32&#45;&gt;Node26 -->
<g id="edge39" class="edge">
<title>Node32&#45;&gt;Node26</title>
<path fill="none" stroke="midnightblue" d="M195.86,-105.68C186.08,-97.49 174.46,-86.87 165.5,-76 150.27,-57.52 136.98,-32.46 130.57,-19.52"/>
<polygon fill="midnightblue" stroke="midnightblue" points="193.91,-108.61 203.88,-112.2 198.33,-103.18 193.91,-108.61"/>
</g>
<!-- Node33 -->
<g id="node33" class="node">
<title>Node33</title>
<g id="a_node33"><a xlink:href="HttpServer_8cc.html" target="_top" xlink:title=" ">
<polygon fill="none" stroke="black" points="174.5,-56.5 174.5,-75.5 256.5,-75.5 256.5,-56.5 174.5,-56.5"/>
<text text-anchor="middle" x="215.5" y="-63.5" font-family="Helvetica,sans-Serif" font-size="10.00">HttpServer.cc</text>
</a>
</g>
</g>
<!-- Node32&#45;&gt;Node33 -->
<g id="edge38" class="edge">
<title>Node32&#45;&gt;Node33</title>
<path fill="none" stroke="midnightblue" d="M215.5,-101.8C215.5,-92.91 215.5,-82.78 215.5,-75.75"/>
<polygon fill="midnightblue" stroke="midnightblue" points="212,-102.08 215.5,-112.08 219,-102.08 212,-102.08"/>
</g>
<!-- Node34&#45;&gt;Node4 -->
<g id="edge45" class="edge">
<title>Node34&#45;&gt;Node4</title>
<path fill="none" stroke="midnightblue" d="M1041.59,-332.64C1016.26,-322.5 981.07,-308.43 958.79,-299.52"/>
<polygon fill="midnightblue" stroke="midnightblue" points="1040.52,-335.98 1051.11,-336.44 1043.12,-329.48 1040.52,-335.98"/>
</g>
<!-- Node34&#45;&gt;Node9 -->
<g id="edge48" class="edge">
<title>Node34&#45;&gt;Node9</title>
<path fill="none" stroke="midnightblue" d="M1078.26,-326.7C1090.37,-286.67 1115.88,-192.95 1097.5,-168 1085.77,-152.08 1038.01,-139.37 1000.46,-131.57"/>
<polygon fill="midnightblue" stroke="midnightblue" points="1074.92,-325.67 1075.32,-336.26 1081.61,-327.73 1074.92,-325.67"/>
</g>
<!-- Node35 -->
<g id="node35" class="node">
<title>Node35</title>
<g id="a_node35"><a xlink:href="PvGenerator_8cc.html" target="_top" xlink:title=" ">
<polygon fill="none" stroke="black" points="1222.5,-280.5 1222.5,-299.5 1312.5,-299.5 1312.5,-280.5 1222.5,-280.5"/>
<text text-anchor="middle" x="1267.5" y="-287.5" font-family="Helvetica,sans-Serif" font-size="10.00">PvGenerator.cc</text>
</a>
</g>
</g>
<!-- Node34&#45;&gt;Node35 -->
<g id="edge46" class="edge">
<title>Node34&#45;&gt;Node35</title>
<path fill="none" stroke="midnightblue" d="M1113.31,-333.7C1150.11,-323.51 1203.43,-308.74 1236.75,-299.52"/>
<polygon fill="midnightblue" stroke="midnightblue" points="1112.1,-330.4 1103.4,-336.44 1113.97,-337.15 1112.1,-330.4"/>
</g>
<!-- Node36 -->
<g id="node36" class="node">
<title>Node36</title>
<g id="a_node36"><a xlink:href="StatsCalculator_8cc.html" target="_top" xlink:title=" ">
<polygon fill="none" stroke="black" points="1100.5,-280.5 1100.5,-299.5 1204.5,-299.5 1204.5,-280.5 1100.5,-280.5"/>
<text text-anchor="middle" x="1152.5" y="-287.5" font-family="Helvetica,sans-Serif" font-size="10.00">StatsCalculator.cc</text>
</a>
</g>
</g>
<!-- Node34&#45;&gt;Node36 -->
<g id="edge47" class="edge">
<title>Node34&#45;&gt;Node36</title>
<path fill="none" stroke="midnightblue" d="M1093.8,-330.62C1108.42,-320.76 1127.33,-307.99 1139.68,-299.65"/>
<polygon fill="midnightblue" stroke="midnightblue" points="1091.68,-327.83 1085.35,-336.32 1095.6,-333.63 1091.68,-327.83"/>
</g>
<!-- Node38&#45;&gt;Node2 -->
<g id="edge54" class="edge">
<title>Node38&#45;&gt;Node2</title>
<path fill="none" stroke="midnightblue" d="M845.65,-494.79C851.56,-480.04 861.91,-459.82 877.5,-448 908.98,-424.13 951.98,-412.88 987.11,-407.6"/>
<polygon fill="midnightblue" stroke="midnightblue" points="842.3,-493.78 842.12,-504.37 848.87,-496.2 842.3,-493.78"/>
</g>
<!-- Node38&#45;&gt;Node3 -->
<g id="edge56" class="edge">
<title>Node38&#45;&gt;Node3</title>
<path fill="none" stroke="midnightblue" d="M837.33,-494.25C834.36,-470.31 828.34,-427.7 819.5,-392 816.29,-379.05 811.14,-364.47 807.78,-355.51"/>
<polygon fill="midnightblue" stroke="midnightblue" points="833.89,-494.89 838.55,-504.4 840.84,-494.05 833.89,-494.89"/>
</g>
<!-- Node38&#45;&gt;Node16 -->
<g id="edge69" class="edge">
<title>Node38&#45;&gt;Node16</title>
<path fill="none" stroke="midnightblue" d="M794.89,-506.79C708.66,-493.54 527.5,-459.02 527.5,-403 527.5,-403 527.5,-403 527.5,-345 527.5,-306.93 517.43,-262.31 512.79,-243.77"/>
<polygon fill="midnightblue" stroke="midnightblue" points="794.51,-510.27 804.92,-508.3 795.55,-503.35 794.51,-510.27"/>
</g>
<!-- Node38&#45;&gt;Node18 -->
<g id="edge67" class="edge">
<title>Node38&#45;&gt;Node18</title>
<path fill="none" stroke="midnightblue" d="M794.88,-509.97C691.92,-501.76 446.5,-474.67 446.5,-403 446.5,-403 446.5,-403 446.5,-233 446.5,-193.62 466.63,-149.71 475.91,-131.56"/>
<polygon fill="midnightblue" stroke="midnightblue" points="794.73,-513.47 804.97,-510.75 795.27,-506.49 794.73,-513.47"/>
</g>
<!-- Node38&#45;&gt;Node20 -->
<g id="edge68" class="edge">
<title>Node38&#45;&gt;Node20</title>
<path fill="none" stroke="midnightblue" d="M884.55,-512.64C1007.63,-510.44 1340.5,-495.91 1340.5,-403 1340.5,-403 1340.5,-403 1340.5,-121 1340.5,-69.71 1173.49,-31.56 1099.77,-17.21"/>
<polygon fill="midnightblue" stroke="midnightblue" points="884.27,-509.14 874.33,-512.8 884.39,-516.14 884.27,-509.14"/>
</g>
<!-- Node38&#45;&gt;Node21 -->
<g id="edge70" class="edge">
<title>Node38&#45;&gt;Node21</title>
<path fill="none" stroke="midnightblue" d="M794.68,-511.78C710.88,-508.78 534.27,-498.89 482.5,-468 440.34,-442.85 405.72,-418.23 303.5,-188 278.73,-132.2 294.62,-109.66 265.5,-56 257.81,-41.83 245.01,-28.22 236.18,-19.75"/>
<polygon fill="midnightblue" stroke="midnightblue" points="794.79,-515.28 804.9,-512.13 795.03,-508.29 794.79,-515.28"/>
</g>
<!-- Node38&#45;&gt;Node37 -->
<g id="edge72" class="edge">
<title>Node38&#45;&gt;Node37</title>
<path fill="none" stroke="midnightblue" d="M884.22,-511.18C982.53,-506.73 1210.56,-493.71 1233.5,-468 1262.22,-435.81 1240.45,-377.58 1230.64,-355.66"/>
<polygon fill="midnightblue" stroke="midnightblue" points="883.84,-507.7 874.01,-511.64 884.15,-514.69 883.84,-507.7"/>
</g>
<!-- Node39 -->
<g id="node39" class="node">
<title>Node39</title>
<g id="a_node39"><a xlink:href="VectorField_8cc.html" target="_top" xlink:title=" ">
<polygon fill="none" stroke="black" points="886.5,-448.5 886.5,-467.5 970.5,-467.5 970.5,-448.5 886.5,-448.5"/>
<text text-anchor="middle" x="928.5" y="-455.5" font-family="Helvetica,sans-Serif" font-size="10.00">VectorField.cc</text>
</a>
</g>
</g>
<!-- Node38&#45;&gt;Node39 -->
<g id="edge55" class="edge">
<title>Node38&#45;&gt;Node39</title>
<path fill="none" stroke="midnightblue" d="M862.74,-498.9C879.06,-489 900.37,-476.07 914.24,-467.65"/>
<polygon fill="midnightblue" stroke="midnightblue" points="860.53,-496.14 853.8,-504.32 864.16,-502.13 860.53,-496.14"/>
</g>
<!-- Node40 -->
<g id="node40" class="node">
<title>Node40</title>
<g id="a_node40"><a xlink:href="ImageFitter_8cc.html" target="_top" xlink:title=" ">
<polygon fill="none" stroke="black" points="988.5,-448.5 988.5,-467.5 1074.5,-467.5 1074.5,-448.5 988.5,-448.5"/>
<text text-anchor="middle" x="1031.5" y="-455.5" font-family="Helvetica,sans-Serif" font-size="10.00">ImageFitter.cc</text>
</a>
</g>
</g>
<!-- Node38&#45;&gt;Node40 -->
<g id="edge57" class="edge">
<title>Node38&#45;&gt;Node40</title>
<path fill="none" stroke="midnightblue" d="M879.68,-501.7C915.92,-491.51 968.41,-476.74 1001.22,-467.52"/>
<polygon fill="midnightblue" stroke="midnightblue" points="878.6,-498.37 869.92,-504.44 880.5,-505.11 878.6,-498.37"/>
</g>
<!-- Node41 -->
<g id="node41" class="node">
<title>Node41</title>
<g id="a_node41"><a xlink:href="Region_8h.html" target="_top" xlink:title=" ">
<polygon fill="none" stroke="black" points="733,-448.5 733,-467.5 792,-467.5 792,-448.5 733,-448.5"/>
<text text-anchor="middle" x="762.5" y="-455.5" font-family="Helvetica,sans-Serif" font-size="10.00">Region.h</text>
</a>
</g>
</g>
<!-- Node38&#45;&gt;Node41 -->
<g id="edge58" class="edge">
<title>Node38&#45;&gt;Node41</title>
<path fill="none" stroke="midnightblue" d="M818.6,-498.34C804.59,-488.52 786.62,-475.91 774.84,-467.65"/>
<polygon fill="midnightblue" stroke="midnightblue" points="816.93,-501.45 827.13,-504.32 820.95,-495.72 816.93,-501.45"/>
</g>
<!-- Node45 -->
<g id="node45" class="node">
<title>Node45</title>
<g id="a_node45"><a xlink:href="ListProgressReporter_8cc.html" target="_top" xlink:title=" ">
<polygon fill="none" stroke="black" points="1093,-448.5 1093,-467.5 1224,-467.5 1224,-448.5 1093,-448.5"/>
<text text-anchor="middle" x="1158.5" y="-455.5" font-family="Helvetica,sans-Serif" font-size="10.00">ListProgressReporter.cc</text>
</a>
</g>
</g>
<!-- Node38&#45;&gt;Node45 -->
<g id="edge71" class="edge">
<title>Node38&#45;&gt;Node45</title>
<path fill="none" stroke="midnightblue" d="M884.37,-505.41C943.31,-495.43 1046.54,-477.95 1108.11,-467.53"/>
<polygon fill="midnightblue" stroke="midnightblue" points="883.52,-502 874.25,-507.12 884.69,-508.9 883.52,-502"/>
</g>
<!-- Node41&#45;&gt;Node3 -->
<g id="edge59" class="edge">
<title>Node41&#45;&gt;Node3</title>
<path fill="none" stroke="midnightblue" d="M781.67,-441.71C790.04,-433.83 798.96,-423.47 803.5,-412 810.98,-393.11 808.44,-368.65 806.27,-355.79"/>
<polygon fill="midnightblue" stroke="midnightblue" points="779.19,-439.24 773.99,-448.47 783.81,-444.5 779.19,-439.24"/>
</g>
<!-- Node41&#45;&gt;Node8 -->
<g id="edge66" class="edge">
<title>Node41&#45;&gt;Node8</title>
<path fill="none" stroke="midnightblue" d="M786.05,-442.67C797.41,-434.79 810.49,-424.14 819.5,-412 835.44,-390.53 836.52,-382.27 841.5,-356 843.15,-347.27 841.6,-344.89 841.5,-336 841.36,-323.34 841,-308.68 840.75,-299.63"/>
<polygon fill="midnightblue" stroke="midnightblue" points="783.83,-439.94 777.42,-448.37 787.7,-445.78 783.83,-439.94"/>
</g>
<!-- Node41&#45;&gt;Node11 -->
<g id="edge63" class="edge">
<title>Node41&#45;&gt;Node11</title>
<path fill="none" stroke="midnightblue" d="M789.13,-443.86C833.79,-420.59 924.12,-368.13 977.5,-300 1006.57,-262.89 1025.38,-208.55 1031.92,-187.64"/>
<polygon fill="midnightblue" stroke="midnightblue" points="787.38,-440.82 780.07,-448.5 790.57,-447.05 787.38,-440.82"/>
</g>
<!-- Node41&#45;&gt;Node13 -->
<g id="edge64" class="edge">
<title>Node41&#45;&gt;Node13</title>
<path fill="none" stroke="midnightblue" d="M722.43,-457.33C683.44,-455.46 625.02,-446.47 589.5,-412 567.9,-391.04 570.5,-377.1 570.5,-347 570.5,-347 570.5,-347 570.5,-289 570.5,-258.9 568.62,-245.68 589.5,-224 610.67,-202.03 642.83,-190.78 670.45,-185.03"/>
<polygon fill="midnightblue" stroke="midnightblue" points="722.77,-460.85 732.88,-457.69 723,-453.85 722.77,-460.85"/>
</g>
<!-- Node42 -->
<g id="node42" class="node">
<title>Node42</title>
<g id="a_node42"><a xlink:href="MomentGenerator_8h.html" target="_top" xlink:title=" ">
<polygon fill="none" stroke="black" points="598.5,-392.5 598.5,-411.5 712.5,-411.5 712.5,-392.5 598.5,-392.5"/>
<text text-anchor="middle" x="655.5" y="-399.5" font-family="Helvetica,sans-Serif" font-size="10.00">MomentGenerator.h</text>
</a>
</g>
</g>
<!-- Node41&#45;&gt;Node42 -->
<g id="edge60" class="edge">
<title>Node41&#45;&gt;Node42</title>
<path fill="none" stroke="midnightblue" d="M736.2,-443.73C716.39,-433.73 689.79,-420.31 672.65,-411.65"/>
<polygon fill="midnightblue" stroke="midnightblue" points="734.8,-446.94 745.31,-448.32 737.96,-440.69 734.8,-446.94"/>
</g>
<!-- Node44 -->
<g id="node44" class="node">
<title>Node44</title>
<g id="a_node44"><a xlink:href="Region_8cc.html" target="_top" xlink:title=" ">
<polygon fill="none" stroke="black" points="730.5,-392.5 730.5,-411.5 794.5,-411.5 794.5,-392.5 730.5,-392.5"/>
<text text-anchor="middle" x="762.5" y="-399.5" font-family="Helvetica,sans-Serif" font-size="10.00">Region.cc</text>
</a>
</g>
</g>
<!-- Node41&#45;&gt;Node44 -->
<g id="edge65" class="edge">
<title>Node41&#45;&gt;Node44</title>
<path fill="none" stroke="midnightblue" d="M762.5,-437.8C762.5,-428.91 762.5,-418.78 762.5,-411.75"/>
<polygon fill="midnightblue" stroke="midnightblue" points="759,-438.08 762.5,-448.08 766,-438.08 759,-438.08"/>
</g>
<!-- Node42&#45;&gt;Node3 -->
<g id="edge61" class="edge">
<title>Node42&#45;&gt;Node3</title>
<path fill="none" stroke="midnightblue" d="M688.87,-388.91C716.88,-378.75 756.2,-364.51 781,-355.52"/>
<polygon fill="midnightblue" stroke="midnightblue" points="687.32,-385.75 679.11,-392.44 689.7,-392.33 687.32,-385.75"/>
</g>
<!-- Node43 -->
<g id="node43" class="node">
<title>Node43</title>
<g id="a_node43"><a xlink:href="MomentGenerator_8cc.html" target="_top" xlink:title=" ">
<polygon fill="none" stroke="black" points="599,-336.5 599,-355.5 718,-355.5 718,-336.5 599,-336.5"/>
<text text-anchor="middle" x="658.5" y="-343.5" font-family="Helvetica,sans-Serif" font-size="10.00">MomentGenerator.cc</text>
</a>
</g>
</g>
<!-- Node42&#45;&gt;Node43 -->
<g id="edge62" class="edge">
<title>Node42&#45;&gt;Node43</title>
<path fill="none" stroke="midnightblue" d="M656.57,-381.8C657.06,-372.91 657.62,-362.78 658.01,-355.75"/>
<polygon fill="midnightblue" stroke="midnightblue" points="653.06,-381.9 656,-392.08 660.04,-382.29 653.06,-381.9"/>
</g>
</g>
</svg>
        <g id="navigator" transform="translate(0 0)" fill="#404254">
                <rect fill="#f2f5e9" fill-opacity="0.5" stroke="#606060" stroke-width=".5" x="0" y="0" width="60" height="60"/>
                <use id="zoomplus" xlink:href="#zoomPlus" x="17" y="9" onmousedown="handleZoom(evt,'in')"/>
                <use id="zoomminus" xlink:href="#zoomMin" x="42" y="9" onmousedown="handleZoom(evt,'out')"/>
                <use id="reset" xlink:href="#resetDef" x="30" y="36" onmousedown="handleReset()"/>
                <g id="arrowUp" xlink:href="#dirArrow" transform="translate(30 24)" onmousedown="handlePan(0,-1)">
                  <use xlink:href="#rim" fill="#404040">
                        <set attributeName="fill" to="#808080" begin="arrowUp.mouseover" end="arrowUp.mouseout"/>
                  </use>
                  <path fill="none" stroke="white" stroke-width="1.5" d="M0,-3.0v7 M-2.5,-0.5L0,-3.0L2.5,-0.5"/>
                </g>
                <g id="arrowRight" xlink:href="#dirArrow" transform="rotate(90) translate(36 -43)" onmousedown="handlePan(1,0)">
                  <use xlink:href="#rim" fill="#404040">
                        <set attributeName="fill" to="#808080" begin="arrowRight.mouseover" end="arrowRight.mouseout"/>
                  </use>
                  <path fill="none" stroke="white" stroke-width="1.5" d="M0,-3.0v7 M-2.5,-0.5L0,-3.0L2.5,-0.5"/>
                </g>
                <g id="arrowDown" xlink:href="#dirArrow" transform="rotate(180) translate(-30 -48)" onmousedown="handlePan(0,1)">
                  <use xlink:href="#rim" fill="#404040">
                        <set attributeName="fill" to="#808080" begin="arrowDown.mouseover" end="arrowDown.mouseout"/>
                  </use>
                  <path fill="none" stroke="white" stroke-width="1.5" d="M0,-3.0v7 M-2.5,-0.5L0,-3.0L2.5,-0.5"/>
                </g>
                <g id="arrowLeft" xlink:href="#dirArrow" transform="rotate(270) translate(-36 17)" onmousedown="handlePan(-1,0)">
                  <use xlink:href="#rim" fill="#404040">
                        <set attributeName="fill" to="#808080" begin="arrowLeft.mouseover" end="arrowLeft.mouseout"/>
                  </use>
                  <path fill="none" stroke="white" stroke-width="1.5" d="M0,-3.0v7 M-2.5,-0.5L0,-3.0L2.5,-0.5"/>
                </g>
        </g>
        <svg viewBox="0 0 15 15" width="100%" height="30px" preserveAspectRatio="xMaxYMin meet">
         <g id="arrow_out" transform="scale(0.3 0.3)">
          <a xlink:href="Histogram_8h__dep__incl_org.svg" target="_base">
           <rect id="button" ry="5" rx="5" y="6" x="6" height="38" width="38"
                fill="#f2f5e9" fill-opacity="0.5" stroke="#606060" stroke-width="1.0"/>
           <path id="arrow"
             d="M 11.500037,31.436501 C 11.940474,20.09759 22.043105,11.32322 32.158766,21.979434 L 37.068811,17.246167 C 37.068811,17.246167 37.088388,32 37.088388,32 L 22.160133,31.978069 C 22.160133,31.978069 26.997745,27.140456 26.997745,27.140456 C 18.528582,18.264221 13.291696,25.230495 11.500037,31.436501 z"
             style="fill:#404040;"/>
          </a>
         </g>
        </svg>
</svg>
