<?xml version="1.0" encoding="UTF-8" standalone="no"?>
<!DOCTYPE svg PUBLIC "-//W3C//DTD SVG 1.1//EN"
 "http://www.w3.org/Graphics/SVG/1.1/DTD/svg11.dtd">
<!-- Generated by graphviz version 2.43.0 (0)
 -->
<!-- Title: ImageMoments.tcc Pages: 1 -->
<!--zoomable 532 -->
<svg id="main" version="1.1" xmlns="http://www.w3.org/2000/svg" xmlns:xlink="http://www.w3.org/1999/xlink" xml:space="preserve" onload="init(evt)">
<style type="text/css"><![CDATA[
.edge:hover path { stroke: red; }
.edge:hover polygon { stroke: red; fill: red; }
]]></style>
<script type="text/javascript"><![CDATA[
var edges = document.getElementsByTagName('g');
if (edges && edges.length) {
  for (var i=0;i<edges.length;i++) {
    if (edges[i].id.substr(0,4)=='edge') {
      edges[i].setAttribute('class','edge');
    }
  }
}
]]></script>
        <defs>
                <circle id="rim" cx="0" cy="0" r="7"/>
                <circle id="rim2" cx="0" cy="0" r="3.5"/>
                <g id="zoomPlus">
                        <use xlink:href="#rim" fill="#404040">
                                <set attributeName="fill" to="#808080" begin="zoomplus.mouseover" end="zoomplus.mouseout"/>
                        </use>
                        <path d="M-4,0h8M0,-4v8" fill="none" stroke="white" stroke-width="1.5" pointer-events="none"/>
                </g>
                <g id="zoomMin">
                        <use xlink:href="#rim" fill="#404040">
                                <set attributeName="fill" to="#808080" begin="zoomminus.mouseover" end="zoomminus.mouseout"/>
                        </use>
                        <path d="M-4,0h8" fill="none" stroke="white" stroke-width="1.5" pointer-events="none"/>
                </g>
                <g id="dirArrow">
                        <path fill="none" stroke="white" stroke-width="1.5" d="M0,-3.0v7 M-2.5,-0.5L0,-3.0L2.5,-0.5"/>
                </g>
               <g id="resetDef">
                       <use xlink:href="#rim2" fill="#404040">
                               <set attributeName="fill" to="#808080" begin="reset.mouseover" end="reset.mouseout"/>
                       </use>
               </g>
        </defs>

<script type="text/javascript">
var viewWidth = 1160;
var viewHeight = 532;
var sectionId = 'dynsection-0';
</script>
<script xlink:href="svgpan.js"/>
<svg id="graph" class="graph">
<g id="viewport">
<title>ImageMoments.tcc</title>
<!-- Node1 -->
<g id="node1" class="node">
<title>Node1</title>
<g id="a_node1"><a xlink:title=" ">
<polygon fill="#bfbfbf" stroke="black" points="264.5,-504.5 264.5,-523.5 374.5,-523.5 374.5,-504.5 264.5,-504.5"/>
<text text-anchor="middle" x="319.5" y="-511.5" font-family="Helvetica,sans-Serif" font-size="10.00">ImageMoments.tcc</text>
</a>
</g>
</g>
<!-- Node2 -->
<g id="node2" class="node">
<title>Node2</title>
<g id="a_node2"><a xlink:href="ImageMoments_8h.html" target="_top" xlink:title=" ">
<polygon fill="none" stroke="black" points="268.5,-448.5 268.5,-467.5 370.5,-467.5 370.5,-448.5 268.5,-448.5"/>
<text text-anchor="middle" x="319.5" y="-455.5" font-family="Helvetica,sans-Serif" font-size="10.00">ImageMoments.h</text>
</a>
</g>
</g>
<!-- Node1&#45;&gt;Node2 -->
<g id="edge1" class="edge">
<title>Node1&#45;&gt;Node2</title>
<path fill="none" stroke="midnightblue" d="M319.5,-493.8C319.5,-484.91 319.5,-474.78 319.5,-467.75"/>
<polygon fill="midnightblue" stroke="midnightblue" points="316,-494.08 319.5,-504.08 323,-494.08 316,-494.08"/>
</g>
<!-- Node3 -->
<g id="node3" class="node">
<title>Node3</title>
<g id="a_node3"><a xlink:href="MomentGenerator_8h.html" target="_top" xlink:title=" ">
<polygon fill="none" stroke="black" points="262.5,-392.5 262.5,-411.5 376.5,-411.5 376.5,-392.5 262.5,-392.5"/>
<text text-anchor="middle" x="319.5" y="-399.5" font-family="Helvetica,sans-Serif" font-size="10.00">MomentGenerator.h</text>
</a>
</g>
</g>
<!-- Node2&#45;&gt;Node3 -->
<g id="edge2" class="edge">
<title>Node2&#45;&gt;Node3</title>
<path fill="none" stroke="midnightblue" d="M319.5,-437.8C319.5,-428.91 319.5,-418.78 319.5,-411.75"/>
<polygon fill="midnightblue" stroke="midnightblue" points="316,-438.08 319.5,-448.08 323,-438.08 316,-438.08"/>
</g>
<!-- Node4 -->
<g id="node4" class="node">
<title>Node4</title>
<g id="a_node4"><a xlink:href="Frame_8h.html" target="_top" xlink:title=" ">
<polygon fill="none" stroke="black" points="238.5,-336.5 238.5,-355.5 294.5,-355.5 294.5,-336.5 238.5,-336.5"/>
<text text-anchor="middle" x="266.5" y="-343.5" font-family="Helvetica,sans-Serif" font-size="10.00">Frame.h</text>
</a>
</g>
</g>
<!-- Node3&#45;&gt;Node4 -->
<g id="edge3" class="edge">
<title>Node3&#45;&gt;Node4</title>
<path fill="none" stroke="midnightblue" d="M303.52,-384.72C294.18,-375.2 282.75,-363.56 275.09,-355.75"/>
<polygon fill="midnightblue" stroke="midnightblue" points="301.25,-387.4 310.75,-392.08 306.24,-382.49 301.25,-387.4"/>
</g>
<!-- Node35 -->
<g id="node35" class="node">
<title>Node35</title>
<g id="a_node35"><a xlink:href="MomentGenerator_8cc.html" target="_top" xlink:title=" ">
<polygon fill="none" stroke="black" points="313,-336.5 313,-355.5 432,-355.5 432,-336.5 313,-336.5"/>
<text text-anchor="middle" x="372.5" y="-343.5" font-family="Helvetica,sans-Serif" font-size="10.00">MomentGenerator.cc</text>
</a>
</g>
</g>
<!-- Node3&#45;&gt;Node35 -->
<g id="edge45" class="edge">
<title>Node3&#45;&gt;Node35</title>
<path fill="none" stroke="midnightblue" d="M335.48,-384.72C344.82,-375.2 356.25,-363.56 363.91,-355.75"/>
<polygon fill="midnightblue" stroke="midnightblue" points="332.76,-382.49 328.25,-392.08 337.75,-387.4 332.76,-382.49"/>
</g>
<!-- Node5 -->
<g id="node5" class="node">
<title>Node5</title>
<g id="a_node5"><a xlink:href="Frame_8cc.html" target="_top" xlink:title=" ">
<polygon fill="none" stroke="black" points="87,-280.5 87,-299.5 148,-299.5 148,-280.5 87,-280.5"/>
<text text-anchor="middle" x="117.5" y="-287.5" font-family="Helvetica,sans-Serif" font-size="10.00">Frame.cc</text>
</a>
</g>
</g>
<!-- Node4&#45;&gt;Node5 -->
<g id="edge4" class="edge">
<title>Node4&#45;&gt;Node5</title>
<path fill="none" stroke="midnightblue" d="M233.13,-332.91C205.12,-322.75 165.8,-308.51 141,-299.52"/>
<polygon fill="midnightblue" stroke="midnightblue" points="232.3,-336.33 242.89,-336.44 234.68,-329.75 232.3,-336.33"/>
</g>
<!-- Node6 -->
<g id="node6" class="node">
<title>Node6</title>
<g id="a_node6"><a xlink:href="Hdf5Loader_8h.html" target="_top" xlink:title=" ">
<polygon fill="none" stroke="black" points="166,-280.5 166,-299.5 247,-299.5 247,-280.5 166,-280.5"/>
<text text-anchor="middle" x="206.5" y="-287.5" font-family="Helvetica,sans-Serif" font-size="10.00">Hdf5Loader.h</text>
</a>
</g>
</g>
<!-- Node4&#45;&gt;Node6 -->
<g id="edge5" class="edge">
<title>Node4&#45;&gt;Node6</title>
<path fill="none" stroke="midnightblue" d="M249.32,-329.54C238.62,-319.91 225.24,-307.87 216.32,-299.83"/>
<polygon fill="midnightblue" stroke="midnightblue" points="247.09,-332.24 256.86,-336.32 251.77,-327.03 247.09,-332.24"/>
</g>
<!-- Node9 -->
<g id="node9" class="node">
<title>Node9</title>
<g id="a_node9"><a xlink:href="RegionHandler_8h.html" target="_top" xlink:title=" ">
<polygon fill="none" stroke="black" points="295,-280.5 295,-299.5 392,-299.5 392,-280.5 295,-280.5"/>
<text text-anchor="middle" x="343.5" y="-287.5" font-family="Helvetica,sans-Serif" font-size="10.00">RegionHandler.h</text>
</a>
</g>
</g>
<!-- Node4&#45;&gt;Node9 -->
<g id="edge8" class="edge">
<title>Node4&#45;&gt;Node9</title>
<path fill="none" stroke="midnightblue" d="M287.4,-330.34C301.41,-320.52 319.38,-307.91 331.16,-299.65"/>
<polygon fill="midnightblue" stroke="midnightblue" points="285.05,-327.72 278.87,-336.32 289.07,-333.45 285.05,-327.72"/>
</g>
<!-- Node17 -->
<g id="node17" class="node">
<title>Node17</title>
<g id="a_node17"><a xlink:href="Session_8h.html" target="_top" xlink:title=" ">
<polygon fill="none" stroke="black" points="497,-224.5 497,-243.5 560,-243.5 560,-224.5 497,-224.5"/>
<text text-anchor="middle" x="528.5" y="-231.5" font-family="Helvetica,sans-Serif" font-size="10.00">Session.h</text>
</a>
</g>
</g>
<!-- Node4&#45;&gt;Node17 -->
<g id="edge44" class="edge">
<title>Node4&#45;&gt;Node17</title>
<path fill="none" stroke="midnightblue" d="M304.53,-333.85C331.66,-325.51 368.79,-313.29 400.5,-300 442.56,-282.37 489.9,-256.73 513.47,-243.54"/>
<polygon fill="midnightblue" stroke="midnightblue" points="303.21,-330.6 294.66,-336.86 305.24,-337.3 303.21,-330.6"/>
</g>
<!-- Node7 -->
<g id="node7" class="node">
<title>Node7</title>
<g id="a_node7"><a xlink:href="FileLoader_8cc.html" target="_top" xlink:title=" ">
<polygon fill="none" stroke="black" points="160.5,-224.5 160.5,-243.5 240.5,-243.5 240.5,-224.5 160.5,-224.5"/>
<text text-anchor="middle" x="200.5" y="-231.5" font-family="Helvetica,sans-Serif" font-size="10.00">FileLoader.cc</text>
</a>
</g>
</g>
<!-- Node6&#45;&gt;Node7 -->
<g id="edge6" class="edge">
<title>Node6&#45;&gt;Node7</title>
<path fill="none" stroke="midnightblue" d="M204.4,-270.1C203.4,-261.14 202.26,-250.86 201.47,-243.75"/>
<polygon fill="midnightblue" stroke="midnightblue" points="200.93,-270.53 205.51,-280.08 207.88,-269.76 200.93,-270.53"/>
</g>
<!-- Node8 -->
<g id="node8" class="node">
<title>Node8</title>
<g id="a_node8"><a xlink:href="Hdf5Loader_8cc.html" target="_top" xlink:title=" ">
<polygon fill="none" stroke="black" points="56.5,-224.5 56.5,-243.5 142.5,-243.5 142.5,-224.5 56.5,-224.5"/>
<text text-anchor="middle" x="99.5" y="-231.5" font-family="Helvetica,sans-Serif" font-size="10.00">Hdf5Loader.cc</text>
</a>
</g>
</g>
<!-- Node6&#45;&gt;Node8 -->
<g id="edge7" class="edge">
<title>Node6&#45;&gt;Node8</title>
<path fill="none" stroke="midnightblue" d="M180.2,-275.73C160.39,-265.73 133.79,-252.31 116.65,-243.65"/>
<polygon fill="midnightblue" stroke="midnightblue" points="178.8,-278.94 189.31,-280.32 181.96,-272.69 178.8,-278.94"/>
</g>
<!-- Node10 -->
<g id="node10" class="node">
<title>Node10</title>
<g id="a_node10"><a xlink:href="RegionHandler_8cc.html" target="_top" xlink:title=" ">
<polygon fill="none" stroke="black" points="319,-112.5 319,-131.5 420,-131.5 420,-112.5 319,-112.5"/>
<text text-anchor="middle" x="369.5" y="-119.5" font-family="Helvetica,sans-Serif" font-size="10.00">RegionHandler.cc</text>
</a>
</g>
</g>
<!-- Node9&#45;&gt;Node10 -->
<g id="edge9" class="edge">
<title>Node9&#45;&gt;Node10</title>
<path fill="none" stroke="midnightblue" d="M365.67,-274.16C375.22,-266.42 385.35,-256.05 390.5,-244 403.76,-212.94 397.82,-200.98 390.5,-168 387.51,-154.53 380.06,-140.32 374.88,-131.56"/>
<polygon fill="midnightblue" stroke="midnightblue" points="363.46,-271.45 357.58,-280.26 367.67,-277.04 363.46,-271.45"/>
</g>
<!-- Node11 -->
<g id="node11" class="node">
<title>Node11</title>
<g id="a_node11"><a xlink:href="RegionImportExport_8h.html" target="_top" xlink:title=" ">
<polygon fill="none" stroke="black" points="259,-224.5 259,-243.5 382,-243.5 382,-224.5 259,-224.5"/>
<text text-anchor="middle" x="320.5" y="-231.5" font-family="Helvetica,sans-Serif" font-size="10.00">RegionImportExport.h</text>
</a>
</g>
</g>
<!-- Node9&#45;&gt;Node11 -->
<g id="edge10" class="edge">
<title>Node9&#45;&gt;Node11</title>
<path fill="none" stroke="midnightblue" d="M335.7,-270.69C331.82,-261.59 327.32,-251.01 324.23,-243.75"/>
<polygon fill="midnightblue" stroke="midnightblue" points="332.56,-272.25 339.7,-280.08 339,-269.51 332.56,-272.25"/>
</g>
<!-- Node9&#45;&gt;Node17 -->
<g id="edge18" class="edge">
<title>Node9&#45;&gt;Node17</title>
<path fill="none" stroke="midnightblue" d="M382.67,-277.57C417.57,-267.38 467.85,-252.7 499.32,-243.52"/>
<polygon fill="midnightblue" stroke="midnightblue" points="381.43,-274.28 372.81,-280.44 383.39,-281 381.43,-274.28"/>
</g>
<!-- Node12 -->
<g id="node12" class="node">
<title>Node12</title>
<g id="a_node12"><a xlink:href="CrtfImportExport_8h.html" target="_top" xlink:title=" ">
<polygon fill="none" stroke="black" points="275,-168.5 275,-187.5 382,-187.5 382,-168.5 275,-168.5"/>
<text text-anchor="middle" x="328.5" y="-175.5" font-family="Helvetica,sans-Serif" font-size="10.00">CrtfImportExport.h</text>
</a>
</g>
</g>
<!-- Node11&#45;&gt;Node12 -->
<g id="edge11" class="edge">
<title>Node11&#45;&gt;Node12</title>
<path fill="none" stroke="midnightblue" d="M323.3,-214.1C324.63,-205.14 326.15,-194.86 327.2,-187.75"/>
<polygon fill="midnightblue" stroke="midnightblue" points="319.82,-213.68 321.82,-224.08 326.75,-214.7 319.82,-213.68"/>
</g>
<!-- Node14 -->
<g id="node14" class="node">
<title>Node14</title>
<g id="a_node14"><a xlink:href="Ds9ImportExport_8h.html" target="_top" xlink:title=" ">
<polygon fill="none" stroke="black" points="2.5,-168.5 2.5,-187.5 110.5,-187.5 110.5,-168.5 2.5,-168.5"/>
<text text-anchor="middle" x="56.5" y="-175.5" font-family="Helvetica,sans-Serif" font-size="10.00">Ds9ImportExport.h</text>
</a>
</g>
</g>
<!-- Node11&#45;&gt;Node14 -->
<g id="edge14" class="edge">
<title>Node11&#45;&gt;Node14</title>
<path fill="none" stroke="midnightblue" d="M268.72,-222.41C218.83,-212.2 144.3,-196.96 98.14,-187.52"/>
<polygon fill="midnightblue" stroke="midnightblue" points="268.17,-225.87 278.67,-224.44 269.57,-219.01 268.17,-225.87"/>
</g>
<!-- Node16 -->
<g id="node16" class="node">
<title>Node16</title>
<g id="a_node16"><a xlink:href="RegionImportExport_8cc.html" target="_top" xlink:title=" ">
<polygon fill="none" stroke="black" points="128.5,-168.5 128.5,-187.5 256.5,-187.5 256.5,-168.5 128.5,-168.5"/>
<text text-anchor="middle" x="192.5" y="-175.5" font-family="Helvetica,sans-Serif" font-size="10.00">RegionImportExport.cc</text>
</a>
</g>
</g>
<!-- Node11&#45;&gt;Node16 -->
<g id="edge17" class="edge">
<title>Node11&#45;&gt;Node16</title>
<path fill="none" stroke="midnightblue" d="M290.88,-220.5C266.88,-210.38 233.72,-196.39 212.69,-187.52"/>
<polygon fill="midnightblue" stroke="midnightblue" points="289.64,-223.78 300.22,-224.44 292.36,-217.33 289.64,-223.78"/>
</g>
<!-- Node12&#45;&gt;Node10 -->
<g id="edge13" class="edge">
<title>Node12&#45;&gt;Node10</title>
<path fill="none" stroke="midnightblue" d="M341.52,-159.86C348.62,-150.5 357.1,-139.33 362.86,-131.75"/>
<polygon fill="midnightblue" stroke="midnightblue" points="338.53,-158 335.27,-168.08 344.11,-162.24 338.53,-158"/>
</g>
<!-- Node13 -->
<g id="node13" class="node">
<title>Node13</title>
<g id="a_node13"><a xlink:href="CrtfImportExport_8cc.html" target="_top" xlink:title=" ">
<polygon fill="none" stroke="black" points="188.5,-112.5 188.5,-131.5 300.5,-131.5 300.5,-112.5 188.5,-112.5"/>
<text text-anchor="middle" x="244.5" y="-119.5" font-family="Helvetica,sans-Serif" font-size="10.00">CrtfImportExport.cc</text>
</a>
</g>
</g>
<!-- Node12&#45;&gt;Node13 -->
<g id="edge12" class="edge">
<title>Node12&#45;&gt;Node13</title>
<path fill="none" stroke="midnightblue" d="M306.57,-162.9C291.16,-153 271.05,-140.07 257.96,-131.65"/>
<polygon fill="midnightblue" stroke="midnightblue" points="304.7,-165.86 315,-168.32 308.48,-159.97 304.7,-165.86"/>
</g>
<!-- Node14&#45;&gt;Node10 -->
<g id="edge16" class="edge">
<title>Node14&#45;&gt;Node10</title>
<path fill="none" stroke="midnightblue" d="M116.04,-166.73C175.19,-156.52 264.83,-141.06 320.14,-131.52"/>
<polygon fill="midnightblue" stroke="midnightblue" points="115.36,-163.29 106.1,-168.44 116.55,-170.19 115.36,-163.29"/>
</g>
<!-- Node15 -->
<g id="node15" class="node">
<title>Node15</title>
<g id="a_node15"><a xlink:href="Ds9ImportExport_8cc.html" target="_top" xlink:title=" ">
<polygon fill="none" stroke="black" points="0,-112.5 0,-131.5 113,-131.5 113,-112.5 0,-112.5"/>
<text text-anchor="middle" x="56.5" y="-119.5" font-family="Helvetica,sans-Serif" font-size="10.00">Ds9ImportExport.cc</text>
</a>
</g>
</g>
<!-- Node14&#45;&gt;Node15 -->
<g id="edge15" class="edge">
<title>Node14&#45;&gt;Node15</title>
<path fill="none" stroke="midnightblue" d="M56.5,-157.8C56.5,-148.91 56.5,-138.78 56.5,-131.75"/>
<polygon fill="midnightblue" stroke="midnightblue" points="53,-158.08 56.5,-168.08 60,-158.08 53,-158.08"/>
</g>
<!-- Node18 -->
<g id="node18" class="node">
<title>Node18</title>
<g id="a_node18"><a xlink:href="CursorSettings_8cc.html" target="_top" xlink:title=" ">
<polygon fill="none" stroke="black" points="439,-168.5 439,-187.5 540,-187.5 540,-168.5 439,-168.5"/>
<text text-anchor="middle" x="489.5" y="-175.5" font-family="Helvetica,sans-Serif" font-size="10.00">CursorSettings.cc</text>
</a>
</g>
</g>
<!-- Node17&#45;&gt;Node18 -->
<g id="edge19" class="edge">
<title>Node17&#45;&gt;Node18</title>
<path fill="none" stroke="midnightblue" d="M516.12,-215.86C509.36,-206.5 501.29,-195.33 495.82,-187.75"/>
<polygon fill="midnightblue" stroke="midnightblue" points="513.37,-218.03 522.06,-224.08 519.04,-213.93 513.37,-218.03"/>
</g>
<!-- Node19 -->
<g id="node19" class="node">
<title>Node19</title>
<g id="a_node19"><a xlink:href="OnMessageTask_8h.html" target="_top" xlink:title=" ">
<polygon fill="none" stroke="black" points="772.5,-112.5 772.5,-131.5 876.5,-131.5 876.5,-112.5 772.5,-112.5"/>
<text text-anchor="middle" x="824.5" y="-119.5" font-family="Helvetica,sans-Serif" font-size="10.00">OnMessageTask.h</text>
</a>
</g>
</g>
<!-- Node17&#45;&gt;Node19 -->
<g id="edge20" class="edge">
<title>Node17&#45;&gt;Node19</title>
<path fill="none" stroke="midnightblue" d="M561.15,-220.86C621.5,-198.44 749.07,-151.03 801.38,-131.59"/>
<polygon fill="midnightblue" stroke="midnightblue" points="559.88,-217.6 551.73,-224.37 562.32,-224.17 559.88,-217.6"/>
</g>
<!-- Node21 -->
<g id="node21" class="node">
<title>Node21</title>
<g id="a_node21"><a xlink:href="Session_8cc.html" target="_top" xlink:title=" ">
<polygon fill="none" stroke="black" points="53.5,-0.5 53.5,-19.5 121.5,-19.5 121.5,-0.5 53.5,-0.5"/>
<text text-anchor="middle" x="87.5" y="-7.5" font-family="Helvetica,sans-Serif" font-size="10.00">Session.cc</text>
</a>
</g>
</g>
<!-- Node17&#45;&gt;Node21 -->
<g id="edge36" class="edge">
<title>Node17&#45;&gt;Node21</title>
<path fill="none" stroke="midnightblue" d="M541.21,-215.89C549.75,-202.13 557.88,-182.73 548.5,-168 524.32,-130.03 221.24,-46.56 120.1,-19.59"/>
<polygon fill="midnightblue" stroke="midnightblue" points="538.16,-214.15 535.44,-224.39 543.95,-218.08 538.16,-214.15"/>
</g>
<!-- Node32 -->
<g id="node32" class="node">
<title>Node32</title>
<g id="a_node32"><a xlink:href="SessionManager_8h.html" target="_top" xlink:title=" ">
<polygon fill="none" stroke="black" points="896,-168.5 896,-187.5 1001,-187.5 1001,-168.5 896,-168.5"/>
<text text-anchor="middle" x="948.5" y="-175.5" font-family="Helvetica,sans-Serif" font-size="10.00">SessionManager.h</text>
</a>
</g>
</g>
<!-- Node17&#45;&gt;Node32 -->
<g id="edge37" class="edge">
<title>Node17&#45;&gt;Node32</title>
<path fill="none" stroke="midnightblue" d="M570.33,-227.62C647.29,-217.73 811.17,-196.66 895.67,-185.79"/>
<polygon fill="midnightblue" stroke="midnightblue" points="569.54,-224.19 560.07,-228.94 570.43,-231.14 569.54,-224.19"/>
</g>
<!-- Node20 -->
<g id="node20" class="node">
<title>Node20</title>
<g id="a_node20"><a xlink:href="OnMessageTask_8cc.html" target="_top" xlink:title=" ">
<polygon fill="none" stroke="black" points="842,-0.5 842,-19.5 951,-19.5 951,-0.5 842,-0.5"/>
<text text-anchor="middle" x="896.5" y="-7.5" font-family="Helvetica,sans-Serif" font-size="10.00">OnMessageTask.cc</text>
</a>
</g>
</g>
<!-- Node19&#45;&gt;Node20 -->
<g id="edge21" class="edge">
<title>Node19&#45;&gt;Node20</title>
<path fill="none" stroke="midnightblue" d="M835.66,-103.96C851.26,-80.12 879.02,-37.71 890.88,-19.59"/>
<polygon fill="midnightblue" stroke="midnightblue" points="832.7,-102.08 830.15,-112.37 838.55,-105.92 832.7,-102.08"/>
</g>
<!-- Node19&#45;&gt;Node21 -->
<g id="edge22" class="edge">
<title>Node19&#45;&gt;Node21</title>
<path fill="none" stroke="midnightblue" d="M763.12,-110.63C723.3,-103.04 670.62,-91.4 625.5,-76 605.55,-69.19 602.88,-61.37 582.5,-56 387.61,-4.7 329.97,-48.7 130.5,-20 127.63,-19.59 124.67,-19.1 121.7,-18.57"/>
<polygon fill="midnightblue" stroke="midnightblue" points="762.49,-114.07 772.96,-112.47 763.77,-107.19 762.49,-114.07"/>
</g>
<!-- Node22 -->
<g id="node22" class="node">
<title>Node22</title>
<g id="a_node22"><a xlink:href="SessionManager_8cc.html" target="_top" xlink:title=" ">
<polygon fill="none" stroke="black" points="969.5,-0.5 969.5,-19.5 1079.5,-19.5 1079.5,-0.5 969.5,-0.5"/>
<text text-anchor="middle" x="1024.5" y="-7.5" font-family="Helvetica,sans-Serif" font-size="10.00">SessionManager.cc</text>
</a>
</g>
</g>
<!-- Node19&#45;&gt;Node22 -->
<g id="edge23" class="edge">
<title>Node19&#45;&gt;Node22</title>
<path fill="none" stroke="midnightblue" d="M846.83,-107.18C868.87,-93.69 903.65,-72.8 934.5,-56 959.05,-42.63 988.07,-28.4 1006.38,-19.6"/>
<polygon fill="midnightblue" stroke="midnightblue" points="844.9,-104.26 838.21,-112.48 848.57,-110.22 844.9,-104.26"/>
</g>
<!-- Node23 -->
<g id="node23" class="node">
<title>Node23</title>
<g id="a_node23"><a xlink:href="ThreadingManager_8h.html" target="_top" xlink:title=" ">
<polygon fill="none" stroke="black" points="634.5,-56.5 634.5,-75.5 750.5,-75.5 750.5,-56.5 634.5,-56.5"/>
<text text-anchor="middle" x="692.5" y="-63.5" font-family="Helvetica,sans-Serif" font-size="10.00">ThreadingManager.h</text>
</a>
</g>
</g>
<!-- Node19&#45;&gt;Node23 -->
<g id="edge24" class="edge">
<title>Node19&#45;&gt;Node23</title>
<path fill="none" stroke="midnightblue" d="M794.28,-108.64C769.51,-98.5 735.1,-84.43 713.32,-75.52"/>
<polygon fill="midnightblue" stroke="midnightblue" points="793,-111.9 803.58,-112.44 795.65,-105.42 793,-111.9"/>
</g>
<!-- Node23&#45;&gt;Node20 -->
<g id="edge29" class="edge">
<title>Node23&#45;&gt;Node20</title>
<path fill="none" stroke="midnightblue" d="M734.7,-53.83C773.22,-43.63 829.32,-28.78 864.33,-19.52"/>
<polygon fill="midnightblue" stroke="midnightblue" points="733.6,-50.5 724.82,-56.44 735.39,-57.27 733.6,-50.5"/>
</g>
<!-- Node23&#45;&gt;Node21 -->
<g id="edge30" class="edge">
<title>Node23&#45;&gt;Node21</title>
<path fill="none" stroke="midnightblue" d="M624.34,-56.39C623.05,-56.26 621.77,-56.13 620.5,-56 403.2,-34.45 346.73,-50.43 130.5,-20 127.63,-19.6 124.66,-19.11 121.7,-18.59"/>
<polygon fill="midnightblue" stroke="midnightblue" points="624.05,-59.88 634.37,-57.48 624.8,-52.92 624.05,-59.88"/>
</g>
<!-- Node23&#45;&gt;Node22 -->
<g id="edge31" class="edge">
<title>Node23&#45;&gt;Node22</title>
<path fill="none" stroke="midnightblue" d="M755.27,-54.79C818,-44.59 913.35,-29.08 972.14,-19.52"/>
<polygon fill="midnightblue" stroke="midnightblue" points="754.41,-51.38 745.11,-56.44 755.54,-58.29 754.41,-51.38"/>
</g>
<!-- Node24 -->
<g id="node24" class="node">
<title>Node24</title>
<g id="a_node24"><a xlink:href="Contouring_8cc.html" target="_top" xlink:title=" ">
<polygon fill="none" stroke="black" points="450,-0.5 450,-19.5 533,-19.5 533,-0.5 450,-0.5"/>
<text text-anchor="middle" x="491.5" y="-7.5" font-family="Helvetica,sans-Serif" font-size="10.00">Contouring.cc</text>
</a>
</g>
</g>
<!-- Node23&#45;&gt;Node24 -->
<g id="edge25" class="edge">
<title>Node23&#45;&gt;Node24</title>
<path fill="none" stroke="midnightblue" d="M650.92,-53.83C612.97,-43.63 557.69,-28.78 523.2,-19.52"/>
<polygon fill="midnightblue" stroke="midnightblue" points="650.09,-57.23 660.65,-56.44 651.9,-50.47 650.09,-57.23"/>
</g>
<!-- Node25 -->
<g id="node25" class="node">
<title>Node25</title>
<g id="a_node25"><a xlink:href="Smoothing_8cc.html" target="_top" xlink:title=" ">
<polygon fill="none" stroke="black" points="551,-0.5 551,-19.5 634,-19.5 634,-0.5 551,-0.5"/>
<text text-anchor="middle" x="592.5" y="-7.5" font-family="Helvetica,sans-Serif" font-size="10.00">Smoothing.cc</text>
</a>
</g>
</g>
<!-- Node23&#45;&gt;Node25 -->
<g id="edge26" class="edge">
<title>Node23&#45;&gt;Node25</title>
<path fill="none" stroke="midnightblue" d="M667.41,-51.45C648.95,-41.48 624.4,-28.23 608.53,-19.65"/>
<polygon fill="midnightblue" stroke="midnightblue" points="665.97,-54.65 676.43,-56.32 669.3,-48.49 665.97,-54.65"/>
</g>
<!-- Node26 -->
<g id="node26" class="node">
<title>Node26</title>
<g id="a_node26"><a xlink:href="Histogram_8cc.html" target="_top" xlink:title=" ">
<polygon fill="none" stroke="black" points="652,-0.5 652,-19.5 733,-19.5 733,-0.5 652,-0.5"/>
<text text-anchor="middle" x="692.5" y="-7.5" font-family="Helvetica,sans-Serif" font-size="10.00">Histogram.cc</text>
</a>
</g>
</g>
<!-- Node23&#45;&gt;Node26 -->
<g id="edge27" class="edge">
<title>Node23&#45;&gt;Node26</title>
<path fill="none" stroke="midnightblue" d="M692.5,-45.8C692.5,-36.91 692.5,-26.78 692.5,-19.75"/>
<polygon fill="midnightblue" stroke="midnightblue" points="689,-46.08 692.5,-56.08 696,-46.08 689,-46.08"/>
</g>
<!-- Node27 -->
<g id="node27" class="node">
<title>Node27</title>
<g id="a_node27"><a xlink:href="Main_8cc.html" target="_top" xlink:title=" ">
<polygon fill="none" stroke="black" points="1097.5,-0.5 1097.5,-19.5 1151.5,-19.5 1151.5,-0.5 1097.5,-0.5"/>
<text text-anchor="middle" x="1124.5" y="-7.5" font-family="Helvetica,sans-Serif" font-size="10.00">Main.cc</text>
</a>
</g>
</g>
<!-- Node23&#45;&gt;Node27 -->
<g id="edge28" class="edge">
<title>Node23&#45;&gt;Node27</title>
<path fill="none" stroke="midnightblue" d="M760.9,-59.98C840.15,-53.53 974.47,-40.64 1088.5,-20 1091.42,-19.47 1094.45,-18.84 1097.46,-18.17"/>
<polygon fill="midnightblue" stroke="midnightblue" points="760.25,-56.52 750.56,-60.81 760.81,-63.5 760.25,-56.52"/>
</g>
<!-- Node28 -->
<g id="node28" class="node">
<title>Node28</title>
<g id="a_node28"><a xlink:href="Columns_8cc.html" target="_top" xlink:title=" ">
<polygon fill="none" stroke="black" points="751,-0.5 751,-19.5 824,-19.5 824,-0.5 751,-0.5"/>
<text text-anchor="middle" x="787.5" y="-7.5" font-family="Helvetica,sans-Serif" font-size="10.00">Columns.cc</text>
</a>
</g>
</g>
<!-- Node23&#45;&gt;Node28 -->
<g id="edge32" class="edge">
<title>Node23&#45;&gt;Node28</title>
<path fill="none" stroke="midnightblue" d="M716.82,-51.18C734.3,-41.24 757.33,-28.15 772.27,-19.65"/>
<polygon fill="midnightblue" stroke="midnightblue" points="714.73,-48.34 707.76,-56.32 718.19,-54.43 714.73,-48.34"/>
</g>
<!-- Node29 -->
<g id="node29" class="node">
<title>Node29</title>
<g id="a_node29"><a xlink:href="Table_8cc.html" target="_top" xlink:title=" ">
<polygon fill="none" stroke="black" points="139.5,-0.5 139.5,-19.5 195.5,-19.5 195.5,-0.5 139.5,-0.5"/>
<text text-anchor="middle" x="167.5" y="-7.5" font-family="Helvetica,sans-Serif" font-size="10.00">Table.cc</text>
</a>
</g>
</g>
<!-- Node23&#45;&gt;Node29 -->
<g id="edge33" class="edge">
<title>Node23&#45;&gt;Node29</title>
<path fill="none" stroke="midnightblue" d="M624.34,-56.41C623.05,-56.27 621.77,-56.13 620.5,-56 435.95,-36.49 387.64,-50.02 204.5,-20 201.63,-19.53 198.65,-18.95 195.69,-18.33"/>
<polygon fill="midnightblue" stroke="midnightblue" points="624.03,-59.9 634.36,-57.54 624.82,-52.94 624.03,-59.9"/>
</g>
<!-- Node30 -->
<g id="node30" class="node">
<title>Node30</title>
<g id="a_node30"><a xlink:href="TableView_8cc.html" target="_top" xlink:title=" ">
<polygon fill="none" stroke="black" points="214,-0.5 214,-19.5 293,-19.5 293,-0.5 214,-0.5"/>
<text text-anchor="middle" x="253.5" y="-7.5" font-family="Helvetica,sans-Serif" font-size="10.00">TableView.cc</text>
</a>
</g>
</g>
<!-- Node23&#45;&gt;Node30 -->
<g id="edge34" class="edge">
<title>Node23&#45;&gt;Node30</title>
<path fill="none" stroke="midnightblue" d="M624.33,-56.46C623.05,-56.3 621.77,-56.15 620.5,-56 478.82,-39.15 442.6,-41.16 301.5,-20 298.73,-19.59 295.88,-19.13 293.01,-18.65"/>
<polygon fill="midnightblue" stroke="midnightblue" points="624,-59.94 634.35,-57.67 624.84,-52.99 624,-59.94"/>
</g>
<!-- Node31 -->
<g id="node31" class="node">
<title>Node31</title>
<g id="a_node31"><a xlink:href="ThreadingManager_8cc.html" target="_top" xlink:title=" ">
<polygon fill="none" stroke="black" points="311,-0.5 311,-19.5 432,-19.5 432,-0.5 311,-0.5"/>
<text text-anchor="middle" x="371.5" y="-7.5" font-family="Helvetica,sans-Serif" font-size="10.00">ThreadingManager.cc</text>
</a>
</g>
</g>
<!-- Node23&#45;&gt;Node31 -->
<g id="edge35" class="edge">
<title>Node23&#45;&gt;Node31</title>
<path fill="none" stroke="midnightblue" d="M631.44,-54.73C570.78,-44.52 478.85,-29.06 422.13,-19.52"/>
<polygon fill="midnightblue" stroke="midnightblue" points="631.19,-58.24 641.64,-56.44 632.36,-51.33 631.19,-58.24"/>
</g>
<!-- Node32&#45;&gt;Node19 -->
<g id="edge42" class="edge">
<title>Node32&#45;&gt;Node19</title>
<path fill="none" stroke="midnightblue" d="M919.49,-164.37C896.27,-154.26 864.34,-140.35 844.06,-131.52"/>
<polygon fill="midnightblue" stroke="midnightblue" points="918.29,-167.66 928.85,-168.44 921.08,-161.24 918.29,-167.66"/>
</g>
<!-- Node32&#45;&gt;Node22 -->
<g id="edge43" class="edge">
<title>Node32&#45;&gt;Node22</title>
<path fill="none" stroke="midnightblue" d="M947.36,-158.08C946.73,-133 948.69,-88.17 967.5,-56 976.98,-39.78 994.74,-27.2 1007.92,-19.51"/>
<polygon fill="midnightblue" stroke="midnightblue" points="943.88,-158.54 947.8,-168.38 950.87,-158.24 943.88,-158.54"/>
</g>
<!-- Node32&#45;&gt;Node27 -->
<g id="edge41" class="edge">
<title>Node32&#45;&gt;Node27</title>
<path fill="none" stroke="midnightblue" d="M1001.96,-165.6C1023.71,-158.79 1047.83,-148.2 1065.5,-132 1100.81,-99.62 1117.4,-41.51 1122.61,-19.64"/>
<polygon fill="midnightblue" stroke="midnightblue" points="1000.78,-162.3 992.17,-168.47 1002.75,-169.01 1000.78,-162.3"/>
</g>
<!-- Node33 -->
<g id="node33" class="node">
<title>Node33</title>
<g id="a_node33"><a xlink:href="HttpServer_8h.html" target="_top" xlink:title=" ">
<polygon fill="none" stroke="black" points="979,-112.5 979,-131.5 1056,-131.5 1056,-112.5 979,-112.5"/>
<text text-anchor="middle" x="1017.5" y="-119.5" font-family="Helvetica,sans-Serif" font-size="10.00">HttpServer.h</text>
</a>
</g>
</g>
<!-- Node32&#45;&gt;Node33 -->
<g id="edge38" class="edge">
<title>Node32&#45;&gt;Node33</title>
<path fill="none" stroke="midnightblue" d="M967.54,-162.1C979.96,-152.38 995.74,-140.03 1006.21,-131.83"/>
<polygon fill="midnightblue" stroke="midnightblue" points="965.3,-159.4 959.59,-168.32 969.62,-164.92 965.3,-159.4"/>
</g>
<!-- Node33&#45;&gt;Node27 -->
<g id="edge40" class="edge">
<title>Node33&#45;&gt;Node27</title>
<path fill="none" stroke="midnightblue" d="M1035.62,-105.61C1045.33,-97.14 1057.35,-86.28 1067.5,-76 1086.48,-56.77 1106.95,-32.45 1117.43,-19.7"/>
<polygon fill="midnightblue" stroke="midnightblue" points="1033.07,-103.19 1027.78,-112.37 1037.64,-108.49 1033.07,-103.19"/>
</g>
<!-- Node34 -->
<g id="node34" class="node">
<title>Node34</title>
<g id="a_node34"><a xlink:href="HttpServer_8cc.html" target="_top" xlink:title=" ">
<polygon fill="none" stroke="black" points="976.5,-56.5 976.5,-75.5 1058.5,-75.5 1058.5,-56.5 976.5,-56.5"/>
<text text-anchor="middle" x="1017.5" y="-63.5" font-family="Helvetica,sans-Serif" font-size="10.00">HttpServer.cc</text>
</a>
</g>
</g>
<!-- Node33&#45;&gt;Node34 -->
<g id="edge39" class="edge">
<title>Node33&#45;&gt;Node34</title>
<path fill="none" stroke="midnightblue" d="M1017.5,-101.8C1017.5,-92.91 1017.5,-82.78 1017.5,-75.75"/>
<polygon fill="midnightblue" stroke="midnightblue" points="1014,-102.08 1017.5,-112.08 1021,-102.08 1014,-102.08"/>
</g>
</g>
</svg>
        <g id="navigator" transform="translate(0 0)" fill="#404254">
                <rect fill="#f2f5e9" fill-opacity="0.5" stroke="#606060" stroke-width=".5" x="0" y="0" width="60" height="60"/>
                <use id="zoomplus" xlink:href="#zoomPlus" x="17" y="9" onmousedown="handleZoom(evt,'in')"/>
                <use id="zoomminus" xlink:href="#zoomMin" x="42" y="9" onmousedown="handleZoom(evt,'out')"/>
                <use id="reset" xlink:href="#resetDef" x="30" y="36" onmousedown="handleReset()"/>
                <g id="arrowUp" xlink:href="#dirArrow" transform="translate(30 24)" onmousedown="handlePan(0,-1)">
                  <use xlink:href="#rim" fill="#404040">
                        <set attributeName="fill" to="#808080" begin="arrowUp.mouseover" end="arrowUp.mouseout"/>
                  </use>
                  <path fill="none" stroke="white" stroke-width="1.5" d="M0,-3.0v7 M-2.5,-0.5L0,-3.0L2.5,-0.5"/>
                </g>
                <g id="arrowRight" xlink:href="#dirArrow" transform="rotate(90) translate(36 -43)" onmousedown="handlePan(1,0)">
                  <use xlink:href="#rim" fill="#404040">
                        <set attributeName="fill" to="#808080" begin="arrowRight.mouseover" end="arrowRight.mouseout"/>
                  </use>
                  <path fill="none" stroke="white" stroke-width="1.5" d="M0,-3.0v7 M-2.5,-0.5L0,-3.0L2.5,-0.5"/>
                </g>
                <g id="arrowDown" xlink:href="#dirArrow" transform="rotate(180) translate(-30 -48)" onmousedown="handlePan(0,1)">
                  <use xlink:href="#rim" fill="#404040">
                        <set attributeName="fill" to="#808080" begin="arrowDown.mouseover" end="arrowDown.mouseout"/>
                  </use>
                  <path fill="none" stroke="white" stroke-width="1.5" d="M0,-3.0v7 M-2.5,-0.5L0,-3.0L2.5,-0.5"/>
                </g>
                <g id="arrowLeft" xlink:href="#dirArrow" transform="rotate(270) translate(-36 17)" onmousedown="handlePan(-1,0)">
                  <use xlink:href="#rim" fill="#404040">
                        <set attributeName="fill" to="#808080" begin="arrowLeft.mouseover" end="arrowLeft.mouseout"/>
                  </use>
                  <path fill="none" stroke="white" stroke-width="1.5" d="M0,-3.0v7 M-2.5,-0.5L0,-3.0L2.5,-0.5"/>
                </g>
        </g>
        <svg viewBox="0 0 15 15" width="100%" height="30px" preserveAspectRatio="xMaxYMin meet">
         <g id="arrow_out" transform="scale(0.3 0.3)">
          <a xlink:href="ImageMoments_8tcc__dep__incl_org.svg" target="_base">
           <rect id="button" ry="5" rx="5" y="6" x="6" height="38" width="38"
                fill="#f2f5e9" fill-opacity="0.5" stroke="#606060" stroke-width="1.0"/>
           <path id="arrow"
             d="M 11.500037,31.436501 C 11.940474,20.09759 22.043105,11.32322 32.158766,21.979434 L 37.068811,17.246167 C 37.068811,17.246167 37.088388,32 37.088388,32 L 22.160133,31.978069 C 22.160133,31.978069 26.997745,27.140456 26.997745,27.140456 C 18.528582,18.264221 13.291696,25.230495 11.500037,31.436501 z"
             style="fill:#404040;"/>
          </a>
         </g>
        </svg>
</svg>
