<?xml version="1.0" encoding="UTF-8" standalone="no"?>
<!DOCTYPE svg PUBLIC "-//W3C//DTD SVG 1.1//EN"
 "http://www.w3.org/Graphics/SVG/1.1/DTD/svg11.dtd">
<!-- Generated by graphviz version 2.43.0 (0)
 -->
<!-- Title: ImageGenerator.h Pages: 1 -->
<!--zoomable 532 -->
<svg id="main" version="1.1" xmlns="http://www.w3.org/2000/svg" xmlns:xlink="http://www.w3.org/1999/xlink" xml:space="preserve" onload="init(evt)">
<style type="text/css"><![CDATA[
.edge:hover path { stroke: red; }
.edge:hover polygon { stroke: red; fill: red; }
]]></style>
<script type="text/javascript"><![CDATA[
var edges = document.getElementsByTagName('g');
if (edges && edges.length) {
  for (var i=0;i<edges.length;i++) {
    if (edges[i].id.substr(0,4)=='edge') {
      edges[i].setAttribute('class','edge');
    }
  }
}
]]></script>
        <defs>
                <circle id="rim" cx="0" cy="0" r="7"/>
                <circle id="rim2" cx="0" cy="0" r="3.5"/>
                <g id="zoomPlus">
                        <use xlink:href="#rim" fill="#404040">
                                <set attributeName="fill" to="#808080" begin="zoomplus.mouseover" end="zoomplus.mouseout"/>
                        </use>
                        <path d="M-4,0h8M0,-4v8" fill="none" stroke="white" stroke-width="1.5" pointer-events="none"/>
                </g>
                <g id="zoomMin">
                        <use xlink:href="#rim" fill="#404040">
                                <set attributeName="fill" to="#808080" begin="zoomminus.mouseover" end="zoomminus.mouseout"/>
                        </use>
                        <path d="M-4,0h8" fill="none" stroke="white" stroke-width="1.5" pointer-events="none"/>
                </g>
                <g id="dirArrow">
                        <path fill="none" stroke="white" stroke-width="1.5" d="M0,-3.0v7 M-2.5,-0.5L0,-3.0L2.5,-0.5"/>
                </g>
               <g id="resetDef">
                       <use xlink:href="#rim2" fill="#404040">
                               <set attributeName="fill" to="#808080" begin="reset.mouseover" end="reset.mouseout"/>
                       </use>
               </g>
        </defs>

<script type="text/javascript">
var viewWidth = 1291;
var viewHeight = 532;
var sectionId = 'dynsection-1';
</script>
<script xlink:href="svgpan.js"/>
<svg id="graph" class="graph">
<g id="viewport">
<title>ImageGenerator.h</title>
<!-- Node1 -->
<g id="node1" class="node">
<title>Node1</title>
<g id="a_node1"><a xlink:title=" ">
<polygon fill="#bfbfbf" stroke="black" points="553,-504.5 553,-523.5 657,-523.5 657,-504.5 553,-504.5"/>
<text text-anchor="middle" x="605" y="-511.5" font-family="Helvetica,sans-Serif" font-size="10.00">ImageGenerator.h</text>
</a>
</g>
</g>
<!-- Node2 -->
<g id="node2" class="node">
<title>Node2</title>
<g id="a_node2"><a xlink:href="Frame_8h.html" target="_top" xlink:title=" ">
<polygon fill="none" stroke="black" points="597,-392.5 597,-411.5 653,-411.5 653,-392.5 597,-392.5"/>
<text text-anchor="middle" x="625" y="-399.5" font-family="Helvetica,sans-Serif" font-size="10.00">Frame.h</text>
</a>
</g>
</g>
<!-- Node1&#45;&gt;Node2 -->
<g id="edge1" class="edge">
<title>Node1&#45;&gt;Node2</title>
<path fill="none" stroke="midnightblue" d="M608.39,-494.35C612.77,-470.25 620.22,-429.31 623.44,-411.59"/>
<polygon fill="midnightblue" stroke="midnightblue" points="604.91,-493.9 606.57,-504.37 611.8,-495.16 604.91,-493.9"/>
</g>
<!-- Node7 -->
<g id="node7" class="node">
<title>Node7</title>
<g id="a_node7"><a xlink:href="PvGenerator_8h.html" target="_top" xlink:title=" ">
<polygon fill="none" stroke="black" points="481,-336.5 481,-355.5 567,-355.5 567,-336.5 481,-336.5"/>
<text text-anchor="middle" x="524" y="-343.5" font-family="Helvetica,sans-Serif" font-size="10.00">PvGenerator.h</text>
</a>
</g>
</g>
<!-- Node1&#45;&gt;Node7 -->
<g id="edge53" class="edge">
<title>Node1&#45;&gt;Node7</title>
<path fill="none" stroke="midnightblue" d="M542.9,-503.92C521.39,-497.51 499.35,-486.6 486,-468 466.3,-440.55 471.99,-423.58 484,-392 489.72,-376.95 503.03,-363.73 512.73,-355.57"/>
<polygon fill="midnightblue" stroke="midnightblue" points="542.14,-507.34 552.71,-506.55 543.96,-500.58 542.14,-507.34"/>
</g>
<!-- Node21 -->
<g id="node21" class="node">
<title>Node21</title>
<g id="a_node21"><a xlink:href="Session_8cc.html" target="_top" xlink:title=" ">
<polygon fill="none" stroke="black" points="0,-0.5 0,-19.5 68,-19.5 68,-0.5 0,-0.5"/>
<text text-anchor="middle" x="34" y="-7.5" font-family="Helvetica,sans-Serif" font-size="10.00">Session.cc</text>
</a>
</g>
</g>
<!-- Node1&#45;&gt;Node21 -->
<g id="edge57" class="edge">
<title>Node1&#45;&gt;Node21</title>
<path fill="none" stroke="midnightblue" d="M542.93,-513.58C398.48,-513.27 52,-502.18 52,-403 52,-403 52,-403 52,-121 52,-82.88 41.34,-38.29 36.43,-19.76"/>
<polygon fill="midnightblue" stroke="midnightblue" points="542.97,-517.08 552.98,-513.59 542.98,-510.08 542.97,-517.08"/>
</g>
<!-- Node35 -->
<g id="node35" class="node">
<title>Node35</title>
<g id="a_node35"><a xlink:href="ImageFitter_8h.html" target="_top" xlink:title=" ">
<polygon fill="none" stroke="black" points="495.5,-448.5 495.5,-467.5 576.5,-467.5 576.5,-448.5 495.5,-448.5"/>
<text text-anchor="middle" x="536" y="-455.5" font-family="Helvetica,sans-Serif" font-size="10.00">ImageFitter.h</text>
</a>
</g>
</g>
<!-- Node1&#45;&gt;Node35 -->
<g id="edge46" class="edge">
<title>Node1&#45;&gt;Node35</title>
<path fill="none" stroke="midnightblue" d="M585.96,-498.1C573.54,-488.38 557.76,-476.03 547.29,-467.83"/>
<polygon fill="midnightblue" stroke="midnightblue" points="583.88,-500.92 593.91,-504.32 588.2,-495.4 583.88,-500.92"/>
</g>
<!-- Node37 -->
<g id="node37" class="node">
<title>Node37</title>
<g id="a_node37"><a xlink:href="MomentGenerator_8cc.html" target="_top" xlink:title=" ">
<polygon fill="none" stroke="black" points="671.5,-392.5 671.5,-411.5 790.5,-411.5 790.5,-392.5 671.5,-392.5"/>
<text text-anchor="middle" x="731" y="-399.5" font-family="Helvetica,sans-Serif" font-size="10.00">MomentGenerator.cc</text>
</a>
</g>
</g>
<!-- Node1&#45;&gt;Node37 -->
<g id="edge49" class="edge">
<title>Node1&#45;&gt;Node37</title>
<path fill="none" stroke="midnightblue" d="M667.47,-511.19C699.36,-506.7 735.64,-495.31 756,-468 769.15,-450.36 750.97,-424.95 739.36,-411.73"/>
<polygon fill="midnightblue" stroke="midnightblue" points="666.8,-507.75 657.29,-512.42 667.64,-514.7 666.8,-507.75"/>
</g>
<!-- Node38 -->
<g id="node38" class="node">
<title>Node38</title>
<g id="a_node38"><a xlink:href="MomentGenerator_8h.html" target="_top" xlink:title=" ">
<polygon fill="none" stroke="black" points="633,-448.5 633,-467.5 747,-467.5 747,-448.5 633,-448.5"/>
<text text-anchor="middle" x="690" y="-455.5" font-family="Helvetica,sans-Serif" font-size="10.00">MomentGenerator.h</text>
</a>
</g>
</g>
<!-- Node1&#45;&gt;Node38 -->
<g id="edge50" class="edge">
<title>Node1&#45;&gt;Node38</title>
<path fill="none" stroke="midnightblue" d="M627.19,-498.9C642.78,-489 663.13,-476.07 676.38,-467.65"/>
<polygon fill="midnightblue" stroke="midnightblue" points="625.22,-496.01 618.66,-504.32 628.97,-501.92 625.22,-496.01"/>
</g>
<!-- Node39 -->
<g id="node39" class="node">
<title>Node39</title>
<g id="a_node39"><a xlink:href="PvPreviewCube_8h.html" target="_top" xlink:title=" ">
<polygon fill="none" stroke="black" points="811.5,-448.5 811.5,-467.5 912.5,-467.5 912.5,-448.5 811.5,-448.5"/>
<text text-anchor="middle" x="862" y="-455.5" font-family="Helvetica,sans-Serif" font-size="10.00">PvPreviewCube.h</text>
</a>
</g>
</g>
<!-- Node1&#45;&gt;Node39 -->
<g id="edge54" class="edge">
<title>Node1&#45;&gt;Node39</title>
<path fill="none" stroke="midnightblue" d="M655.71,-502.35C704.28,-492.14 776.62,-476.94 821.47,-467.52"/>
<polygon fill="midnightblue" stroke="midnightblue" points="654.79,-498.96 645.72,-504.44 656.23,-505.81 654.79,-498.96"/>
</g>
<!-- Node3 -->
<g id="node3" class="node">
<title>Node3</title>
<g id="a_node3"><a xlink:href="Frame_8cc.html" target="_top" xlink:title=" ">
<polygon fill="none" stroke="black" points="624.5,-336.5 624.5,-355.5 685.5,-355.5 685.5,-336.5 624.5,-336.5"/>
<text text-anchor="middle" x="655" y="-343.5" font-family="Helvetica,sans-Serif" font-size="10.00">Frame.cc</text>
</a>
</g>
</g>
<!-- Node2&#45;&gt;Node3 -->
<g id="edge2" class="edge">
<title>Node2&#45;&gt;Node3</title>
<path fill="none" stroke="midnightblue" d="M634.85,-383.27C639.97,-374.05 646.02,-363.17 650.14,-355.75"/>
<polygon fill="midnightblue" stroke="midnightblue" points="631.75,-381.64 629.95,-392.08 637.87,-385.04 631.75,-381.64"/>
</g>
<!-- Node4 -->
<g id="node4" class="node">
<title>Node4</title>
<g id="a_node4"><a xlink:href="Hdf5Loader_8h.html" target="_top" xlink:title=" ">
<polygon fill="none" stroke="black" points="703.5,-336.5 703.5,-355.5 784.5,-355.5 784.5,-336.5 703.5,-336.5"/>
<text text-anchor="middle" x="744" y="-343.5" font-family="Helvetica,sans-Serif" font-size="10.00">Hdf5Loader.h</text>
</a>
</g>
</g>
<!-- Node2&#45;&gt;Node4 -->
<g id="edge3" class="edge">
<title>Node2&#45;&gt;Node4</title>
<path fill="none" stroke="midnightblue" d="M653.14,-388.23C675.4,-378.13 705.86,-364.31 725.23,-355.52"/>
<polygon fill="midnightblue" stroke="midnightblue" points="651.52,-385.12 643.86,-392.44 654.41,-391.5 651.52,-385.12"/>
</g>
<!-- Node2&#45;&gt;Node7 -->
<g id="edge6" class="edge">
<title>Node2&#45;&gt;Node7</title>
<path fill="none" stroke="midnightblue" d="M599.92,-387.59C581.24,-377.61 556.3,-364.27 540.19,-355.65"/>
<polygon fill="midnightblue" stroke="midnightblue" points="598.3,-390.7 608.77,-392.32 601.6,-384.52 598.3,-390.7"/>
</g>
<!-- Node9 -->
<g id="node9" class="node">
<title>Node9</title>
<g id="a_node9"><a xlink:href="RegionHandler_8h.html" target="_top" xlink:title=" ">
<polygon fill="none" stroke="black" points="826.5,-280.5 826.5,-299.5 923.5,-299.5 923.5,-280.5 826.5,-280.5"/>
<text text-anchor="middle" x="875" y="-287.5" font-family="Helvetica,sans-Serif" font-size="10.00">RegionHandler.h</text>
</a>
</g>
</g>
<!-- Node2&#45;&gt;Node9 -->
<g id="edge44" class="edge">
<title>Node2&#45;&gt;Node9</title>
<path fill="none" stroke="midnightblue" d="M662.85,-391.34C710.82,-379.04 788.06,-359.01 794,-356 823.93,-340.86 853.13,-313.41 866.86,-299.53"/>
<polygon fill="midnightblue" stroke="midnightblue" points="661.91,-387.97 653.09,-393.84 663.65,-394.75 661.91,-387.97"/>
</g>
<!-- Node17 -->
<g id="node17" class="node">
<title>Node17</title>
<g id="a_node17"><a xlink:href="Session_8h.html" target="_top" xlink:title=" ">
<polygon fill="none" stroke="black" points="584.5,-224.5 584.5,-243.5 647.5,-243.5 647.5,-224.5 584.5,-224.5"/>
<text text-anchor="middle" x="616" y="-231.5" font-family="Helvetica,sans-Serif" font-size="10.00">Session.h</text>
</a>
</g>
</g>
<!-- Node2&#45;&gt;Node17 -->
<g id="edge45" class="edge">
<title>Node2&#45;&gt;Node17</title>
<path fill="none" stroke="midnightblue" d="M619.96,-382.62C617.99,-374.53 615.97,-364.86 615,-356 610.39,-314.03 613.64,-263.37 615.24,-243.54"/>
<polygon fill="midnightblue" stroke="midnightblue" points="616.62,-383.67 622.52,-392.47 623.39,-381.91 616.62,-383.67"/>
</g>
<!-- Node5 -->
<g id="node5" class="node">
<title>Node5</title>
<g id="a_node5"><a xlink:href="FileLoader_8cc.html" target="_top" xlink:title=" ">
<polygon fill="none" stroke="black" points="624,-280.5 624,-299.5 704,-299.5 704,-280.5 624,-280.5"/>
<text text-anchor="middle" x="664" y="-287.5" font-family="Helvetica,sans-Serif" font-size="10.00">FileLoader.cc</text>
</a>
</g>
</g>
<!-- Node4&#45;&gt;Node5 -->
<g id="edge4" class="edge">
<title>Node4&#45;&gt;Node5</title>
<path fill="none" stroke="midnightblue" d="M722.7,-330.62C708.08,-320.76 689.17,-307.99 676.82,-299.65"/>
<polygon fill="midnightblue" stroke="midnightblue" points="720.9,-333.63 731.15,-336.32 724.82,-327.83 720.9,-333.63"/>
</g>
<!-- Node6 -->
<g id="node6" class="node">
<title>Node6</title>
<g id="a_node6"><a xlink:href="Hdf5Loader_8cc.html" target="_top" xlink:title=" ">
<polygon fill="none" stroke="black" points="722,-280.5 722,-299.5 808,-299.5 808,-280.5 722,-280.5"/>
<text text-anchor="middle" x="765" y="-287.5" font-family="Helvetica,sans-Serif" font-size="10.00">Hdf5Loader.cc</text>
</a>
</g>
</g>
<!-- Node4&#45;&gt;Node6 -->
<g id="edge5" class="edge">
<title>Node4&#45;&gt;Node6</title>
<path fill="none" stroke="midnightblue" d="M751.12,-326.69C754.66,-317.59 758.77,-307.01 761.6,-299.75"/>
<polygon fill="midnightblue" stroke="midnightblue" points="747.83,-325.49 747.47,-336.08 754.35,-328.03 747.83,-325.49"/>
</g>
<!-- Node8 -->
<g id="node8" class="node">
<title>Node8</title>
<g id="a_node8"><a xlink:href="PvGenerator_8cc.html" target="_top" xlink:title=" ">
<polygon fill="none" stroke="black" points="478,-280.5 478,-299.5 568,-299.5 568,-280.5 478,-280.5"/>
<text text-anchor="middle" x="523" y="-287.5" font-family="Helvetica,sans-Serif" font-size="10.00">PvGenerator.cc</text>
</a>
</g>
</g>
<!-- Node7&#45;&gt;Node8 -->
<g id="edge7" class="edge">
<title>Node7&#45;&gt;Node8</title>
<path fill="none" stroke="midnightblue" d="M523.64,-325.8C523.48,-316.91 523.29,-306.78 523.16,-299.75"/>
<polygon fill="midnightblue" stroke="midnightblue" points="520.15,-326.15 523.83,-336.08 527.15,-326.02 520.15,-326.15"/>
</g>
<!-- Node7&#45;&gt;Node9 -->
<g id="edge8" class="edge">
<title>Node7&#45;&gt;Node9</title>
<path fill="none" stroke="midnightblue" d="M577.35,-336.83C636.07,-327.84 733.27,-312.93 817,-300 820.02,-299.53 823.13,-299.05 826.27,-298.57"/>
<polygon fill="midnightblue" stroke="midnightblue" points="576.55,-333.41 567.19,-338.39 577.61,-340.33 576.55,-333.41"/>
</g>
<!-- Node10 -->
<g id="node10" class="node">
<title>Node10</title>
<g id="a_node10"><a xlink:href="RegionHandler_8cc.html" target="_top" xlink:title=" ">
<polygon fill="none" stroke="black" points="934.5,-112.5 934.5,-131.5 1035.5,-131.5 1035.5,-112.5 934.5,-112.5"/>
<text text-anchor="middle" x="985" y="-119.5" font-family="Helvetica,sans-Serif" font-size="10.00">RegionHandler.cc</text>
</a>
</g>
</g>
<!-- Node9&#45;&gt;Node10 -->
<g id="edge9" class="edge">
<title>Node9&#45;&gt;Node10</title>
<path fill="none" stroke="midnightblue" d="M873.15,-270.17C871.63,-244.51 872.64,-198.31 895,-168 908.58,-149.58 931.83,-138.23 951.3,-131.54"/>
<polygon fill="midnightblue" stroke="midnightblue" points="869.67,-270.68 873.95,-280.38 876.65,-270.13 869.67,-270.68"/>
</g>
<!-- Node11 -->
<g id="node11" class="node">
<title>Node11</title>
<g id="a_node11"><a xlink:href="RegionImportExport_8h.html" target="_top" xlink:title=" ">
<polygon fill="none" stroke="black" points="962.5,-224.5 962.5,-243.5 1085.5,-243.5 1085.5,-224.5 962.5,-224.5"/>
<text text-anchor="middle" x="1024" y="-231.5" font-family="Helvetica,sans-Serif" font-size="10.00">RegionImportExport.h</text>
</a>
</g>
</g>
<!-- Node9&#45;&gt;Node11 -->
<g id="edge10" class="edge">
<title>Node9&#45;&gt;Node11</title>
<path fill="none" stroke="midnightblue" d="M908.37,-276.91C936.38,-266.75 975.7,-252.51 1000.5,-243.52"/>
<polygon fill="midnightblue" stroke="midnightblue" points="906.82,-273.75 898.61,-280.44 909.2,-280.33 906.82,-273.75"/>
</g>
<!-- Node9&#45;&gt;Node17 -->
<g id="edge18" class="edge">
<title>Node9&#45;&gt;Node17</title>
<path fill="none" stroke="midnightblue" d="M823.88,-278.34C771.54,-267.43 691.82,-250.81 647.87,-241.64"/>
<polygon fill="midnightblue" stroke="midnightblue" points="823.46,-281.83 833.96,-280.44 824.89,-274.98 823.46,-281.83"/>
</g>
<!-- Node12 -->
<g id="node12" class="node">
<title>Node12</title>
<g id="a_node12"><a xlink:href="CrtfImportExport_8h.html" target="_top" xlink:title=" ">
<polygon fill="none" stroke="black" points="903.5,-168.5 903.5,-187.5 1010.5,-187.5 1010.5,-168.5 903.5,-168.5"/>
<text text-anchor="middle" x="957" y="-175.5" font-family="Helvetica,sans-Serif" font-size="10.00">CrtfImportExport.h</text>
</a>
</g>
</g>
<!-- Node11&#45;&gt;Node12 -->
<g id="edge11" class="edge">
<title>Node11&#45;&gt;Node12</title>
<path fill="none" stroke="midnightblue" d="M1005.17,-217.82C993.16,-208.15 978.03,-195.95 967.96,-187.83"/>
<polygon fill="midnightblue" stroke="midnightblue" points="1003.25,-220.77 1013.24,-224.32 1007.65,-215.32 1003.25,-220.77"/>
</g>
<!-- Node14 -->
<g id="node14" class="node">
<title>Node14</title>
<g id="a_node14"><a xlink:href="Ds9ImportExport_8h.html" target="_top" xlink:title=" ">
<polygon fill="none" stroke="black" points="1029,-168.5 1029,-187.5 1137,-187.5 1137,-168.5 1029,-168.5"/>
<text text-anchor="middle" x="1083" y="-175.5" font-family="Helvetica,sans-Serif" font-size="10.00">Ds9ImportExport.h</text>
</a>
</g>
</g>
<!-- Node11&#45;&gt;Node14 -->
<g id="edge14" class="edge">
<title>Node11&#45;&gt;Node14</title>
<path fill="none" stroke="midnightblue" d="M1040.89,-217.54C1051.41,-207.91 1064.57,-195.87 1073.35,-187.83"/>
<polygon fill="midnightblue" stroke="midnightblue" points="1038.49,-214.99 1033.48,-224.32 1043.22,-220.15 1038.49,-214.99"/>
</g>
<!-- Node16 -->
<g id="node16" class="node">
<title>Node16</title>
<g id="a_node16"><a xlink:href="RegionImportExport_8cc.html" target="_top" xlink:title=" ">
<polygon fill="none" stroke="black" points="1155,-168.5 1155,-187.5 1283,-187.5 1283,-168.5 1155,-168.5"/>
<text text-anchor="middle" x="1219" y="-175.5" font-family="Helvetica,sans-Serif" font-size="10.00">RegionImportExport.cc</text>
</a>
</g>
</g>
<!-- Node11&#45;&gt;Node16 -->
<g id="edge17" class="edge">
<title>Node11&#45;&gt;Node16</title>
<path fill="none" stroke="midnightblue" d="M1064.81,-221.7C1101.61,-211.51 1154.93,-196.74 1188.25,-187.52"/>
<polygon fill="midnightblue" stroke="midnightblue" points="1063.6,-218.4 1054.9,-224.44 1065.47,-225.15 1063.6,-218.4"/>
</g>
<!-- Node12&#45;&gt;Node10 -->
<g id="edge13" class="edge">
<title>Node12&#45;&gt;Node10</title>
<path fill="none" stroke="midnightblue" d="M966.34,-158.98C971.09,-149.82 976.66,-139.09 980.46,-131.75"/>
<polygon fill="midnightblue" stroke="midnightblue" points="963.12,-157.59 961.62,-168.08 969.33,-160.82 963.12,-157.59"/>
</g>
<!-- Node13 -->
<g id="node13" class="node">
<title>Node13</title>
<g id="a_node13"><a xlink:href="CrtfImportExport_8cc.html" target="_top" xlink:title=" ">
<polygon fill="none" stroke="black" points="804,-112.5 804,-131.5 916,-131.5 916,-112.5 804,-112.5"/>
<text text-anchor="middle" x="860" y="-119.5" font-family="Helvetica,sans-Serif" font-size="10.00">CrtfImportExport.cc</text>
</a>
</g>
</g>
<!-- Node12&#45;&gt;Node13 -->
<g id="edge12" class="edge">
<title>Node12&#45;&gt;Node13</title>
<path fill="none" stroke="midnightblue" d="M932.66,-163.45C914.76,-153.48 890.95,-140.23 875.55,-131.65"/>
<polygon fill="midnightblue" stroke="midnightblue" points="930.98,-166.52 941.42,-168.32 934.38,-160.4 930.98,-166.52"/>
</g>
<!-- Node14&#45;&gt;Node10 -->
<g id="edge16" class="edge">
<title>Node14&#45;&gt;Node10</title>
<path fill="none" stroke="midnightblue" d="M1058.41,-163.45C1040.32,-153.48 1016.27,-140.23 1000.71,-131.65"/>
<polygon fill="midnightblue" stroke="midnightblue" points="1056.81,-166.56 1067.25,-168.32 1060.19,-160.43 1056.81,-166.56"/>
</g>
<!-- Node15 -->
<g id="node15" class="node">
<title>Node15</title>
<g id="a_node15"><a xlink:href="Ds9ImportExport_8cc.html" target="_top" xlink:title=" ">
<polygon fill="none" stroke="black" points="1053.5,-112.5 1053.5,-131.5 1166.5,-131.5 1166.5,-112.5 1053.5,-112.5"/>
<text text-anchor="middle" x="1110" y="-119.5" font-family="Helvetica,sans-Serif" font-size="10.00">Ds9ImportExport.cc</text>
</a>
</g>
</g>
<!-- Node14&#45;&gt;Node15 -->
<g id="edge15" class="edge">
<title>Node14&#45;&gt;Node15</title>
<path fill="none" stroke="midnightblue" d="M1092.01,-158.98C1096.59,-149.82 1101.95,-139.09 1105.62,-131.75"/>
<polygon fill="midnightblue" stroke="midnightblue" points="1088.8,-157.57 1087.46,-168.08 1095.06,-160.7 1088.8,-157.57"/>
</g>
<!-- Node18 -->
<g id="node18" class="node">
<title>Node18</title>
<g id="a_node18"><a xlink:href="CursorSettings_8cc.html" target="_top" xlink:title=" ">
<polygon fill="none" stroke="black" points="706.5,-168.5 706.5,-187.5 807.5,-187.5 807.5,-168.5 706.5,-168.5"/>
<text text-anchor="middle" x="757" y="-175.5" font-family="Helvetica,sans-Serif" font-size="10.00">CursorSettings.cc</text>
</a>
</g>
</g>
<!-- Node17&#45;&gt;Node18 -->
<g id="edge19" class="edge">
<title>Node17&#45;&gt;Node18</title>
<path fill="none" stroke="midnightblue" d="M647.93,-220.77C674.41,-210.63 711.39,-196.47 734.76,-187.52"/>
<polygon fill="midnightblue" stroke="midnightblue" points="646.43,-217.6 638.34,-224.44 648.93,-224.14 646.43,-217.6"/>
</g>
<!-- Node19 -->
<g id="node19" class="node">
<title>Node19</title>
<g id="a_node19"><a xlink:href="OnMessageTask_8h.html" target="_top" xlink:title=" ">
<polygon fill="none" stroke="black" points="471,-112.5 471,-131.5 575,-131.5 575,-112.5 471,-112.5"/>
<text text-anchor="middle" x="523" y="-119.5" font-family="Helvetica,sans-Serif" font-size="10.00">OnMessageTask.h</text>
</a>
</g>
</g>
<!-- Node17&#45;&gt;Node19 -->
<g id="edge20" class="edge">
<title>Node17&#45;&gt;Node19</title>
<path fill="none" stroke="midnightblue" d="M600.35,-216.9C592.29,-208.46 582.43,-197.84 574,-188 557.21,-168.39 538.82,-144.22 529.38,-131.6"/>
<polygon fill="midnightblue" stroke="midnightblue" points="597.95,-219.46 607.4,-224.24 602.99,-214.61 597.95,-219.46"/>
</g>
<!-- Node17&#45;&gt;Node21 -->
<g id="edge36" class="edge">
<title>Node17&#45;&gt;Node21</title>
<path fill="none" stroke="midnightblue" d="M584.11,-220.84C479.15,-180.8 146.02,-53.73 56.39,-19.54"/>
<polygon fill="midnightblue" stroke="midnightblue" points="582.95,-224.14 593.54,-224.43 585.45,-217.6 582.95,-224.14"/>
</g>
<!-- Node32 -->
<g id="node32" class="node">
<title>Node32</title>
<g id="a_node32"><a xlink:href="SessionManager_8h.html" target="_top" xlink:title=" ">
<polygon fill="none" stroke="black" points="583.5,-168.5 583.5,-187.5 688.5,-187.5 688.5,-168.5 583.5,-168.5"/>
<text text-anchor="middle" x="636" y="-175.5" font-family="Helvetica,sans-Serif" font-size="10.00">SessionManager.h</text>
</a>
</g>
</g>
<!-- Node17&#45;&gt;Node32 -->
<g id="edge37" class="edge">
<title>Node17&#45;&gt;Node32</title>
<path fill="none" stroke="midnightblue" d="M622.78,-214.69C626.15,-205.59 630.07,-195.01 632.76,-187.75"/>
<polygon fill="midnightblue" stroke="midnightblue" points="619.49,-213.49 619.3,-224.08 626.06,-215.92 619.49,-213.49"/>
</g>
<!-- Node20 -->
<g id="node20" class="node">
<title>Node20</title>
<g id="a_node20"><a xlink:href="OnMessageTask_8cc.html" target="_top" xlink:title=" ">
<polygon fill="none" stroke="black" points="86.5,-0.5 86.5,-19.5 195.5,-19.5 195.5,-0.5 86.5,-0.5"/>
<text text-anchor="middle" x="141" y="-7.5" font-family="Helvetica,sans-Serif" font-size="10.00">OnMessageTask.cc</text>
</a>
</g>
</g>
<!-- Node19&#45;&gt;Node20 -->
<g id="edge21" class="edge">
<title>Node19&#45;&gt;Node20</title>
<path fill="none" stroke="midnightblue" d="M484.71,-109.57C440.68,-96.46 366.2,-74.41 302,-56 256.81,-43.04 204.34,-28.46 171.9,-19.5"/>
<polygon fill="midnightblue" stroke="midnightblue" points="483.84,-112.96 494.43,-112.46 485.84,-106.25 483.84,-112.96"/>
</g>
<!-- Node19&#45;&gt;Node21 -->
<g id="edge22" class="edge">
<title>Node19&#45;&gt;Node21</title>
<path fill="none" stroke="midnightblue" d="M468.36,-110.46C423.56,-101.68 358.55,-88.61 302,-76 217.19,-57.09 117.92,-32.32 67.33,-19.51"/>
<polygon fill="midnightblue" stroke="midnightblue" points="467.97,-113.95 478.45,-112.43 469.31,-107.08 467.97,-113.95"/>
</g>
<!-- Node22 -->
<g id="node22" class="node">
<title>Node22</title>
<g id="a_node22"><a xlink:href="SessionManager_8cc.html" target="_top" xlink:title=" ">
<polygon fill="none" stroke="black" points="917,-0.5 917,-19.5 1027,-19.5 1027,-0.5 917,-0.5"/>
<text text-anchor="middle" x="972" y="-7.5" font-family="Helvetica,sans-Serif" font-size="10.00">SessionManager.cc</text>
</a>
</g>
</g>
<!-- Node19&#45;&gt;Node22 -->
<g id="edge23" class="edge">
<title>Node19&#45;&gt;Node22</title>
<path fill="none" stroke="midnightblue" d="M541.5,-106.1C561.55,-90.82 595.09,-67.68 628,-56 746.24,-14.03 783.65,-36.74 908,-20 910.89,-19.61 913.86,-19.21 916.85,-18.8"/>
<polygon fill="midnightblue" stroke="midnightblue" points="539.28,-103.4 533.54,-112.3 543.58,-108.92 539.28,-103.4"/>
</g>
<!-- Node23 -->
<g id="node23" class="node">
<title>Node23</title>
<g id="a_node23"><a xlink:href="ThreadingManager_8h.html" target="_top" xlink:title=" ">
<polygon fill="none" stroke="black" points="460,-56.5 460,-75.5 576,-75.5 576,-56.5 460,-56.5"/>
<text text-anchor="middle" x="518" y="-63.5" font-family="Helvetica,sans-Serif" font-size="10.00">ThreadingManager.h</text>
</a>
</g>
</g>
<!-- Node19&#45;&gt;Node23 -->
<g id="edge24" class="edge">
<title>Node19&#45;&gt;Node23</title>
<path fill="none" stroke="midnightblue" d="M521.25,-102.1C520.42,-93.14 519.47,-82.86 518.81,-75.75"/>
<polygon fill="midnightblue" stroke="midnightblue" points="517.77,-102.45 522.17,-112.08 524.74,-101.8 517.77,-102.45"/>
</g>
<!-- Node23&#45;&gt;Node20 -->
<g id="edge29" class="edge">
<title>Node23&#45;&gt;Node20</title>
<path fill="none" stroke="midnightblue" d="M449.93,-55.25C377.1,-44.82 263.03,-28.48 195.77,-18.85"/>
<polygon fill="midnightblue" stroke="midnightblue" points="449.52,-58.73 459.92,-56.68 450.52,-51.8 449.52,-58.73"/>
</g>
<!-- Node23&#45;&gt;Node21 -->
<g id="edge30" class="edge">
<title>Node23&#45;&gt;Node21</title>
<path fill="none" stroke="midnightblue" d="M449.97,-60.28C363.1,-53.74 208.31,-40.38 77,-20 74.14,-19.56 71.17,-19.04 68.21,-18.5"/>
<polygon fill="midnightblue" stroke="midnightblue" points="449.73,-63.77 459.96,-61.02 450.25,-56.79 449.73,-63.77"/>
</g>
<!-- Node23&#45;&gt;Node22 -->
<g id="edge31" class="edge">
<title>Node23&#45;&gt;Node22</title>
<path fill="none" stroke="midnightblue" d="M586.17,-56.46C587.45,-56.3 588.73,-56.15 590,-56 731.24,-39.18 766.9,-37.91 908,-20 910.89,-19.63 913.86,-19.25 916.85,-18.85"/>
<polygon fill="midnightblue" stroke="midnightblue" points="585.66,-52.99 576.15,-57.67 586.5,-59.94 585.66,-52.99"/>
</g>
<!-- Node24 -->
<g id="node24" class="node">
<title>Node24</title>
<g id="a_node24"><a xlink:href="Contouring_8cc.html" target="_top" xlink:title=" ">
<polygon fill="none" stroke="black" points="714.5,-0.5 714.5,-19.5 797.5,-19.5 797.5,-0.5 714.5,-0.5"/>
<text text-anchor="middle" x="756" y="-7.5" font-family="Helvetica,sans-Serif" font-size="10.00">Contouring.cc</text>
</a>
</g>
</g>
<!-- Node23&#45;&gt;Node24 -->
<g id="edge25" class="edge">
<title>Node23&#45;&gt;Node24</title>
<path fill="none" stroke="midnightblue" d="M565.52,-54.22C610.5,-44.01 677.1,-28.9 718.46,-19.52"/>
<polygon fill="midnightblue" stroke="midnightblue" points="564.69,-50.82 555.71,-56.44 566.24,-57.64 564.69,-50.82"/>
</g>
<!-- Node25 -->
<g id="node25" class="node">
<title>Node25</title>
<g id="a_node25"><a xlink:href="Smoothing_8cc.html" target="_top" xlink:title=" ">
<polygon fill="none" stroke="black" points="815.5,-0.5 815.5,-19.5 898.5,-19.5 898.5,-0.5 815.5,-0.5"/>
<text text-anchor="middle" x="857" y="-7.5" font-family="Helvetica,sans-Serif" font-size="10.00">Smoothing.cc</text>
</a>
</g>
</g>
<!-- Node23&#45;&gt;Node25 -->
<g id="edge26" class="edge">
<title>Node23&#45;&gt;Node25</title>
<path fill="none" stroke="midnightblue" d="M585.61,-54.93C644.22,-46.1 731.3,-32.71 807,-20 809.7,-19.55 812.47,-19.07 815.27,-18.59"/>
<polygon fill="midnightblue" stroke="midnightblue" points="584.73,-51.53 575.37,-56.48 585.78,-58.45 584.73,-51.53"/>
</g>
<!-- Node26 -->
<g id="node26" class="node">
<title>Node26</title>
<g id="a_node26"><a xlink:href="Histogram_8cc.html" target="_top" xlink:title=" ">
<polygon fill="none" stroke="black" points="213.5,-0.5 213.5,-19.5 294.5,-19.5 294.5,-0.5 213.5,-0.5"/>
<text text-anchor="middle" x="254" y="-7.5" font-family="Helvetica,sans-Serif" font-size="10.00">Histogram.cc</text>
</a>
</g>
</g>
<!-- Node23&#45;&gt;Node26 -->
<g id="edge27" class="edge">
<title>Node23&#45;&gt;Node26</title>
<path fill="none" stroke="midnightblue" d="M466.16,-54.4C415.96,-44.13 340.85,-28.76 294.77,-19.34"/>
<polygon fill="midnightblue" stroke="midnightblue" points="465.67,-57.87 476.17,-56.44 467.07,-51.01 465.67,-57.87"/>
</g>
<!-- Node27 -->
<g id="node27" class="node">
<title>Node27</title>
<g id="a_node27"><a xlink:href="Main_8cc.html" target="_top" xlink:title=" ">
<polygon fill="none" stroke="black" points="1045,-0.5 1045,-19.5 1099,-19.5 1099,-0.5 1045,-0.5"/>
<text text-anchor="middle" x="1072" y="-7.5" font-family="Helvetica,sans-Serif" font-size="10.00">Main.cc</text>
</a>
</g>
</g>
<!-- Node23&#45;&gt;Node27 -->
<g id="edge28" class="edge">
<title>Node23&#45;&gt;Node27</title>
<path fill="none" stroke="midnightblue" d="M586.28,-60.42C706.52,-52.13 951.33,-34.17 1036,-20 1038.92,-19.51 1041.96,-18.91 1044.97,-18.25"/>
<polygon fill="midnightblue" stroke="midnightblue" points="585.83,-56.94 576.09,-61.12 586.31,-63.92 585.83,-56.94"/>
</g>
<!-- Node28 -->
<g id="node28" class="node">
<title>Node28</title>
<g id="a_node28"><a xlink:href="Columns_8cc.html" target="_top" xlink:title=" ">
<polygon fill="none" stroke="black" points="312.5,-0.5 312.5,-19.5 385.5,-19.5 385.5,-0.5 312.5,-0.5"/>
<text text-anchor="middle" x="349" y="-7.5" font-family="Helvetica,sans-Serif" font-size="10.00">Columns.cc</text>
</a>
</g>
</g>
<!-- Node23&#45;&gt;Node28 -->
<g id="edge32" class="edge">
<title>Node23&#45;&gt;Node28</title>
<path fill="none" stroke="midnightblue" d="M481.4,-53.3C449.55,-43.13 404.16,-28.62 375.65,-19.52"/>
<polygon fill="midnightblue" stroke="midnightblue" points="480.63,-56.73 491.22,-56.44 482.76,-50.07 480.63,-56.73"/>
</g>
<!-- Node29 -->
<g id="node29" class="node">
<title>Node29</title>
<g id="a_node29"><a xlink:href="Table_8cc.html" target="_top" xlink:title=" ">
<polygon fill="none" stroke="black" points="404,-0.5 404,-19.5 460,-19.5 460,-0.5 404,-0.5"/>
<text text-anchor="middle" x="432" y="-7.5" font-family="Helvetica,sans-Serif" font-size="10.00">Table.cc</text>
</a>
</g>
</g>
<!-- Node23&#45;&gt;Node29 -->
<g id="edge33" class="edge">
<title>Node23&#45;&gt;Node29</title>
<path fill="none" stroke="midnightblue" d="M495.55,-50.9C479.78,-41 459.19,-28.07 445.78,-19.65"/>
<polygon fill="midnightblue" stroke="midnightblue" points="493.85,-53.97 504.18,-56.32 497.57,-48.04 493.85,-53.97"/>
</g>
<!-- Node30 -->
<g id="node30" class="node">
<title>Node30</title>
<g id="a_node30"><a xlink:href="TableView_8cc.html" target="_top" xlink:title=" ">
<polygon fill="none" stroke="black" points="478.5,-0.5 478.5,-19.5 557.5,-19.5 557.5,-0.5 478.5,-0.5"/>
<text text-anchor="middle" x="518" y="-7.5" font-family="Helvetica,sans-Serif" font-size="10.00">TableView.cc</text>
</a>
</g>
</g>
<!-- Node23&#45;&gt;Node30 -->
<g id="edge34" class="edge">
<title>Node23&#45;&gt;Node30</title>
<path fill="none" stroke="midnightblue" d="M518,-45.8C518,-36.91 518,-26.78 518,-19.75"/>
<polygon fill="midnightblue" stroke="midnightblue" points="514.5,-46.08 518,-56.08 521.5,-46.08 514.5,-46.08"/>
</g>
<!-- Node31 -->
<g id="node31" class="node">
<title>Node31</title>
<g id="a_node31"><a xlink:href="ThreadingManager_8cc.html" target="_top" xlink:title=" ">
<polygon fill="none" stroke="black" points="575.5,-0.5 575.5,-19.5 696.5,-19.5 696.5,-0.5 575.5,-0.5"/>
<text text-anchor="middle" x="636" y="-7.5" font-family="Helvetica,sans-Serif" font-size="10.00">ThreadingManager.cc</text>
</a>
</g>
</g>
<!-- Node23&#45;&gt;Node31 -->
<g id="edge35" class="edge">
<title>Node23&#45;&gt;Node31</title>
<path fill="none" stroke="midnightblue" d="M545.9,-52.23C567.97,-42.13 598.18,-28.31 617.39,-19.52"/>
<polygon fill="midnightblue" stroke="midnightblue" points="544.33,-49.1 536.7,-56.44 547.25,-55.46 544.33,-49.1"/>
</g>
<!-- Node32&#45;&gt;Node19 -->
<g id="edge42" class="edge">
<title>Node32&#45;&gt;Node19</title>
<path fill="none" stroke="midnightblue" d="M609,-164.1C587.89,-154.01 559.14,-140.27 540.82,-131.52"/>
<polygon fill="midnightblue" stroke="midnightblue" points="607.56,-167.29 618.09,-168.44 610.58,-160.97 607.56,-167.29"/>
</g>
<!-- Node32&#45;&gt;Node22 -->
<g id="edge43" class="edge">
<title>Node32&#45;&gt;Node22</title>
<path fill="none" stroke="midnightblue" d="M634.74,-158.37C634.03,-131.5 637.11,-82.22 666,-56 667.16,-54.95 829.03,-31.55 916.84,-18.92"/>
<polygon fill="midnightblue" stroke="midnightblue" points="631.24,-158.56 635.21,-168.38 638.23,-158.23 631.24,-158.56"/>
</g>
<!-- Node32&#45;&gt;Node27 -->
<g id="edge41" class="edge">
<title>Node32&#45;&gt;Node27</title>
<path fill="none" stroke="midnightblue" d="M646.51,-159.54C663.98,-132.24 701.81,-80.1 749,-56 863.49,2.47 909.64,-43.63 1036,-20 1038.91,-19.46 1041.94,-18.82 1044.95,-18.13"/>
<polygon fill="midnightblue" stroke="midnightblue" points="643.32,-158.03 641.01,-168.37 649.27,-161.73 643.32,-158.03"/>
</g>
<!-- Node33 -->
<g id="node33" class="node">
<title>Node33</title>
<g id="a_node33"><a xlink:href="HttpServer_8h.html" target="_top" xlink:title=" ">
<polygon fill="none" stroke="black" points="708.5,-112.5 708.5,-131.5 785.5,-131.5 785.5,-112.5 708.5,-112.5"/>
<text text-anchor="middle" x="747" y="-119.5" font-family="Helvetica,sans-Serif" font-size="10.00">HttpServer.h</text>
</a>
</g>
</g>
<!-- Node32&#45;&gt;Node33 -->
<g id="edge38" class="edge">
<title>Node32&#45;&gt;Node33</title>
<path fill="none" stroke="midnightblue" d="M663.01,-163.86C683.59,-153.85 711.34,-140.35 729.21,-131.65"/>
<polygon fill="midnightblue" stroke="midnightblue" points="661.3,-160.8 653.83,-168.32 664.36,-167.1 661.3,-160.8"/>
</g>
<!-- Node33&#45;&gt;Node27 -->
<g id="edge40" class="edge">
<title>Node33&#45;&gt;Node27</title>
<path fill="none" stroke="midnightblue" d="M747.24,-102.17C748.5,-87.35 752.78,-67.35 766,-56 811.92,-16.57 976.54,-31.36 1036,-20 1038.91,-19.44 1041.94,-18.8 1044.95,-18.11"/>
<polygon fill="midnightblue" stroke="midnightblue" points="743.74,-102.12 746.76,-112.27 750.73,-102.45 743.74,-102.12"/>
</g>
<!-- Node34 -->
<g id="node34" class="node">
<title>Node34</title>
<g id="a_node34"><a xlink:href="HttpServer_8cc.html" target="_top" xlink:title=" ">
<polygon fill="none" stroke="black" points="775,-56.5 775,-75.5 857,-75.5 857,-56.5 775,-56.5"/>
<text text-anchor="middle" x="816" y="-63.5" font-family="Helvetica,sans-Serif" font-size="10.00">HttpServer.cc</text>
</a>
</g>
</g>
<!-- Node33&#45;&gt;Node34 -->
<g id="edge39" class="edge">
<title>Node33&#45;&gt;Node34</title>
<path fill="none" stroke="midnightblue" d="M766.04,-106.1C778.46,-96.38 794.24,-84.03 804.71,-75.83"/>
<polygon fill="midnightblue" stroke="midnightblue" points="763.8,-103.4 758.09,-112.32 768.12,-108.92 763.8,-103.4"/>
</g>
<!-- Node35&#45;&gt;Node2 -->
<g id="edge47" class="edge">
<title>Node35&#45;&gt;Node2</title>
<path fill="none" stroke="midnightblue" d="M559.24,-442.9C575.56,-433 596.87,-420.07 610.74,-411.65"/>
<polygon fill="midnightblue" stroke="midnightblue" points="557.03,-440.14 550.3,-448.32 560.66,-446.13 557.03,-440.14"/>
</g>
<!-- Node36 -->
<g id="node36" class="node">
<title>Node36</title>
<g id="a_node36"><a xlink:href="ImageFitter_8cc.html" target="_top" xlink:title=" ">
<polygon fill="none" stroke="black" points="493,-392.5 493,-411.5 579,-411.5 579,-392.5 493,-392.5"/>
<text text-anchor="middle" x="536" y="-399.5" font-family="Helvetica,sans-Serif" font-size="10.00">ImageFitter.cc</text>
</a>
</g>
</g>
<!-- Node35&#45;&gt;Node36 -->
<g id="edge48" class="edge">
<title>Node35&#45;&gt;Node36</title>
<path fill="none" stroke="midnightblue" d="M536,-437.8C536,-428.91 536,-418.78 536,-411.75"/>
<polygon fill="midnightblue" stroke="midnightblue" points="532.5,-438.08 536,-448.08 539.5,-438.08 532.5,-438.08"/>
</g>
<!-- Node38&#45;&gt;Node2 -->
<g id="edge51" class="edge">
<title>Node38&#45;&gt;Node2</title>
<path fill="none" stroke="midnightblue" d="M671.73,-441.82C660.08,-432.15 645.4,-419.95 635.63,-411.83"/>
<polygon fill="midnightblue" stroke="midnightblue" points="669.63,-444.63 679.56,-448.32 674.1,-439.24 669.63,-444.63"/>
</g>
<!-- Node38&#45;&gt;Node37 -->
<g id="edge52" class="edge">
<title>Node38&#45;&gt;Node37</title>
<path fill="none" stroke="midnightblue" d="M703.02,-439.86C710.12,-430.5 718.6,-419.33 724.36,-411.75"/>
<polygon fill="midnightblue" stroke="midnightblue" points="700.03,-438 696.77,-448.08 705.61,-442.24 700.03,-438"/>
</g>
<!-- Node39&#45;&gt;Node9 -->
<g id="edge56" class="edge">
<title>Node39&#45;&gt;Node9</title>
<path fill="none" stroke="midnightblue" d="M891.1,-443.65C903.63,-436.25 917,-425.73 924,-412 944.69,-371.42 902.68,-319.97 883.68,-299.74"/>
<polygon fill="midnightblue" stroke="midnightblue" points="889.33,-440.63 882.22,-448.49 892.68,-446.78 889.33,-440.63"/>
</g>
<!-- Node40 -->
<g id="node40" class="node">
<title>Node40</title>
<g id="a_node40"><a xlink:href="PvPreviewCube_8cc.html" target="_top" xlink:title=" ">
<polygon fill="none" stroke="black" points="809,-392.5 809,-411.5 915,-411.5 915,-392.5 809,-392.5"/>
<text text-anchor="middle" x="862" y="-399.5" font-family="Helvetica,sans-Serif" font-size="10.00">PvPreviewCube.cc</text>
</a>
</g>
</g>
<!-- Node39&#45;&gt;Node40 -->
<g id="edge55" class="edge">
<title>Node39&#45;&gt;Node40</title>
<path fill="none" stroke="midnightblue" d="M862,-437.8C862,-428.91 862,-418.78 862,-411.75"/>
<polygon fill="midnightblue" stroke="midnightblue" points="858.5,-438.08 862,-448.08 865.5,-438.08 858.5,-438.08"/>
</g>
</g>
</svg>
        <g id="navigator" transform="translate(0 0)" fill="#404254">
                <rect fill="#f2f5e9" fill-opacity="0.5" stroke="#606060" stroke-width=".5" x="0" y="0" width="60" height="60"/>
                <use id="zoomplus" xlink:href="#zoomPlus" x="17" y="9" onmousedown="handleZoom(evt,'in')"/>
                <use id="zoomminus" xlink:href="#zoomMin" x="42" y="9" onmousedown="handleZoom(evt,'out')"/>
                <use id="reset" xlink:href="#resetDef" x="30" y="36" onmousedown="handleReset()"/>
                <g id="arrowUp" xlink:href="#dirArrow" transform="translate(30 24)" onmousedown="handlePan(0,-1)">
                  <use xlink:href="#rim" fill="#404040">
                        <set attributeName="fill" to="#808080" begin="arrowUp.mouseover" end="arrowUp.mouseout"/>
                  </use>
                  <path fill="none" stroke="white" stroke-width="1.5" d="M0,-3.0v7 M-2.5,-0.5L0,-3.0L2.5,-0.5"/>
                </g>
                <g id="arrowRight" xlink:href="#dirArrow" transform="rotate(90) translate(36 -43)" onmousedown="handlePan(1,0)">
                  <use xlink:href="#rim" fill="#404040">
                        <set attributeName="fill" to="#808080" begin="arrowRight.mouseover" end="arrowRight.mouseout"/>
                  </use>
                  <path fill="none" stroke="white" stroke-width="1.5" d="M0,-3.0v7 M-2.5,-0.5L0,-3.0L2.5,-0.5"/>
                </g>
                <g id="arrowDown" xlink:href="#dirArrow" transform="rotate(180) translate(-30 -48)" onmousedown="handlePan(0,1)">
                  <use xlink:href="#rim" fill="#404040">
                        <set attributeName="fill" to="#808080" begin="arrowDown.mouseover" end="arrowDown.mouseout"/>
                  </use>
                  <path fill="none" stroke="white" stroke-width="1.5" d="M0,-3.0v7 M-2.5,-0.5L0,-3.0L2.5,-0.5"/>
                </g>
                <g id="arrowLeft" xlink:href="#dirArrow" transform="rotate(270) translate(-36 17)" onmousedown="handlePan(-1,0)">
                  <use xlink:href="#rim" fill="#404040">
                        <set attributeName="fill" to="#808080" begin="arrowLeft.mouseover" end="arrowLeft.mouseout"/>
                  </use>
                  <path fill="none" stroke="white" stroke-width="1.5" d="M0,-3.0v7 M-2.5,-0.5L0,-3.0L2.5,-0.5"/>
                </g>
        </g>
        <svg viewBox="0 0 15 15" width="100%" height="30px" preserveAspectRatio="xMaxYMin meet">
         <g id="arrow_out" transform="scale(0.3 0.3)">
          <a xlink:href="ImageGenerator_8h__dep__incl_org.svg" target="_base">
           <rect id="button" ry="5" rx="5" y="6" x="6" height="38" width="38"
                fill="#f2f5e9" fill-opacity="0.5" stroke="#606060" stroke-width="1.0"/>
           <path id="arrow"
             d="M 11.500037,31.436501 C 11.940474,20.09759 22.043105,11.32322 32.158766,21.979434 L 37.068811,17.246167 C 37.068811,17.246167 37.088388,32 37.088388,32 L 22.160133,31.978069 C 22.160133,31.978069 26.997745,27.140456 26.997745,27.140456 C 18.528582,18.264221 13.291696,25.230495 11.500037,31.436501 z"
             style="fill:#404040;"/>
          </a>
         </g>
        </svg>
</svg>
