<?xml version="1.0" encoding="UTF-8" standalone="no"?>
<!DOCTYPE svg PUBLIC "-//W3C//DTD SVG 1.1//EN"
 "http://www.w3.org/Graphics/SVG/1.1/DTD/svg11.dtd">
<!-- Generated by graphviz version 2.43.0 (0)
 -->
<!-- Title: ImageFitter.cc Pages: 1 -->
<!--zoomable 218 -->
<svg id="main" version="1.1" xmlns="http://www.w3.org/2000/svg" xmlns:xlink="http://www.w3.org/1999/xlink" xml:space="preserve" onload="init(evt)">
<style type="text/css"><![CDATA[
.edge:hover path { stroke: red; }
.edge:hover polygon { stroke: red; fill: red; }
]]></style>
<script type="text/javascript"><![CDATA[
var edges = document.getElementsByTagName('g');
if (edges && edges.length) {
  for (var i=0;i<edges.length;i++) {
    if (edges[i].id.substr(0,4)=='edge') {
      edges[i].setAttribute('class','edge');
    }
  }
}
]]></script>
        <defs>
                <circle id="rim" cx="0" cy="0" r="7"/>
                <circle id="rim2" cx="0" cy="0" r="3.5"/>
                <g id="zoomPlus">
                        <use xlink:href="#rim" fill="#404040">
                                <set attributeName="fill" to="#808080" begin="zoomplus.mouseover" end="zoomplus.mouseout"/>
                        </use>
                        <path d="M-4,0h8M0,-4v8" fill="none" stroke="white" stroke-width="1.5" pointer-events="none"/>
                </g>
                <g id="zoomMin">
                        <use xlink:href="#rim" fill="#404040">
                                <set attributeName="fill" to="#808080" begin="zoomminus.mouseover" end="zoomminus.mouseout"/>
                        </use>
                        <path d="M-4,0h8" fill="none" stroke="white" stroke-width="1.5" pointer-events="none"/>
                </g>
                <g id="dirArrow">
                        <path fill="none" stroke="white" stroke-width="1.5" d="M0,-3.0v7 M-2.5,-0.5L0,-3.0L2.5,-0.5"/>
                </g>
               <g id="resetDef">
                       <use xlink:href="#rim2" fill="#404040">
                               <set attributeName="fill" to="#808080" begin="reset.mouseover" end="reset.mouseout"/>
                       </use>
               </g>
        </defs>

<script type="text/javascript">
var viewWidth = 6195;
var viewHeight = 218;
var sectionId = 'dynsection-0';
</script>
<script xlink:href="svgpan.js"/>
<svg id="graph" class="graph">
<g id="viewport">
<title>ImageFitter.cc</title>
<!-- Node1 -->
<g id="node1" class="node">
<title>Node1</title>
<g id="a_node1"><a xlink:title=" ">
<polygon fill="#bfbfbf" stroke="black" points="3725,-190.5 3725,-209.5 3811,-209.5 3811,-190.5 3725,-190.5"/>
<text text-anchor="middle" x="3768" y="-197.5" font-family="Helvetica,sans-Serif" font-size="10.00">ImageFitter.cc</text>
</a>
</g>
</g>
<!-- Node2 -->
<g id="node2" class="node">
<title>Node2</title>
<g id="a_node2"><a xlink:href="ImageFitter_8h.html" target="_top" xlink:title=" ">
<polygon fill="none" stroke="black" points="955.5,-134.5 955.5,-153.5 1036.5,-153.5 1036.5,-134.5 955.5,-134.5"/>
<text text-anchor="middle" x="996" y="-141.5" font-family="Helvetica,sans-Serif" font-size="10.00">ImageFitter.h</text>
</a>
</g>
</g>
<!-- Node1&#45;&gt;Node2 -->
<g id="edge1" class="edge">
<title>Node1&#45;&gt;Node2</title>
<path fill="none" stroke="midnightblue" d="M3724.74,-198.16C3403.6,-191.9 1393.63,-152.75 1046.91,-145.99"/>
<polygon fill="midnightblue" stroke="midnightblue" points="1046.74,-142.49 1036.67,-145.79 1046.6,-149.49 1046.74,-142.49"/>
</g>
<!-- Node26 -->
<g id="node15" class="node">
<title>Node26</title>
<g id="a_node15"><a xlink:href="Message_8h.html" target="_top" xlink:title=" ">
<polygon fill="none" stroke="red" points="3723.5,-134.5 3723.5,-153.5 3812.5,-153.5 3812.5,-134.5 3723.5,-134.5"/>
<text text-anchor="middle" x="3768" y="-141.5" font-family="Helvetica,sans-Serif" font-size="10.00">Util/Message.h</text>
</a>
</g>
</g>
<!-- Node1&#45;&gt;Node26 -->
<g id="edge14" class="edge">
<title>Node1&#45;&gt;Node26</title>
<path fill="none" stroke="midnightblue" d="M3768,-190.08C3768,-183.01 3768,-172.86 3768,-163.99"/>
<polygon fill="midnightblue" stroke="midnightblue" points="3771.5,-163.75 3768,-153.75 3764.5,-163.75 3771.5,-163.75"/>
</g>
<!-- Node69 -->
<g id="node50" class="node">
<title>Node69</title>
<g id="a_node50"><a xlink:title=" ">
<polygon fill="none" stroke="#bfbfbf" points="3830.5,-134.5 3830.5,-153.5 3877.5,-153.5 3877.5,-134.5 3830.5,-134.5"/>
<text text-anchor="middle" x="3854" y="-141.5" font-family="Helvetica,sans-Serif" font-size="10.00">omp.h</text>
</a>
</g>
</g>
<!-- Node1&#45;&gt;Node69 -->
<g id="edge54" class="edge">
<title>Node1&#45;&gt;Node69</title>
<path fill="none" stroke="midnightblue" d="M3781.82,-190.32C3795.23,-181.9 3815.82,-168.97 3831.59,-159.07"/>
<polygon fill="midnightblue" stroke="midnightblue" points="3833.61,-161.94 3840.22,-153.65 3829.89,-156.01 3833.61,-161.94"/>
</g>
<!-- Node3 -->
<g id="node3" class="node">
<title>Node3</title>
<g id="a_node3"><a xlink:title=" ">
<polygon fill="none" stroke="#bfbfbf" points="826.5,-73 826.5,-92 909.5,-92 909.5,-73 826.5,-73"/>
<text text-anchor="middle" x="868" y="-80" font-family="Helvetica,sans-Serif" font-size="10.00">gsl/gsl_blas.h</text>
</a>
</g>
</g>
<!-- Node2&#45;&gt;Node3 -->
<g id="edge2" class="edge">
<title>Node2&#45;&gt;Node3</title>
<path fill="none" stroke="midnightblue" d="M977.66,-134.48C956.18,-124.49 920.38,-107.85 895.55,-96.31"/>
<polygon fill="midnightblue" stroke="midnightblue" points="896.85,-93.05 886.31,-92.01 893.9,-99.4 896.85,-93.05"/>
</g>
<!-- Node4 -->
<g id="node4" class="node">
<title>Node4</title>
<g id="a_node4"><a xlink:title=" ">
<polygon fill="none" stroke="#bfbfbf" points="928,-73 928,-92 1064,-92 1064,-73 928,-73"/>
<text text-anchor="middle" x="996" y="-80" font-family="Helvetica,sans-Serif" font-size="10.00">gsl/gsl_multifit_nlinear.h</text>
</a>
</g>
</g>
<!-- Node2&#45;&gt;Node4 -->
<g id="edge3" class="edge">
<title>Node2&#45;&gt;Node4</title>
<path fill="none" stroke="midnightblue" d="M996,-134.48C996,-126.08 996,-112.98 996,-102.16"/>
<polygon fill="midnightblue" stroke="midnightblue" points="999.5,-102.01 996,-92.01 992.5,-102.01 999.5,-102.01"/>
</g>
<!-- Node5 -->
<g id="node5" class="node">
<title>Node5</title>
<g id="a_node5"><a xlink:title=" ">
<polygon fill="none" stroke="#bfbfbf" points="1082.5,-73 1082.5,-92 1189.5,-92 1189.5,-73 1082.5,-73"/>
<text text-anchor="middle" x="1136" y="-80" font-family="Helvetica,sans-Serif" font-size="10.00">gsl/gsl_statistics.h</text>
</a>
</g>
</g>
<!-- Node2&#45;&gt;Node5 -->
<g id="edge4" class="edge">
<title>Node2&#45;&gt;Node5</title>
<path fill="none" stroke="midnightblue" d="M1016.06,-134.48C1039.76,-124.4 1079.41,-107.55 1106.58,-96"/>
<polygon fill="midnightblue" stroke="midnightblue" points="1108.14,-99.14 1115.98,-92.01 1105.41,-92.7 1108.14,-99.14"/>
</g>
<!-- Node6 -->
<g id="node6" class="node">
<title>Node6</title>
<g id="a_node6"><a xlink:title=" ">
<polygon fill="none" stroke="#bfbfbf" points="1208,-73 1208,-92 1300,-92 1300,-73 1208,-73"/>
<text text-anchor="middle" x="1254" y="-80" font-family="Helvetica,sans-Serif" font-size="10.00">gsl/gsl_vector.h</text>
</a>
</g>
</g>
<!-- Node2&#45;&gt;Node6 -->
<g id="edge5" class="edge">
<title>Node2&#45;&gt;Node6</title>
<path fill="none" stroke="midnightblue" d="M1036.34,-134.44C1077.18,-125.67 1142.11,-111.46 1198,-98 1202.46,-96.93 1207.11,-95.77 1211.74,-94.61"/>
<polygon fill="midnightblue" stroke="midnightblue" points="1212.95,-97.91 1221.77,-92.05 1211.21,-91.13 1212.95,-97.91"/>
</g>
<!-- Node7 -->
<g id="node7" class="node">
<title>Node7</title>
<g id="a_node7"><a xlink:title=" ">
<polygon fill="none" stroke="#bfbfbf" points="1582,-6 1582,-25 1626,-25 1626,-6 1582,-6"/>
<text text-anchor="middle" x="1604" y="-13" font-family="Helvetica,sans-Serif" font-size="10.00">string</text>
</a>
</g>
</g>
<!-- Node2&#45;&gt;Node7 -->
<g id="edge6" class="edge">
<title>Node2&#45;&gt;Node7</title>
<path fill="none" stroke="midnightblue" d="M1036.66,-143.96C1098.23,-143.94 1217.63,-138.1 1309,-98 1328.96,-89.24 1327.27,-76.27 1347,-67 1422.34,-31.61 1521.35,-21.01 1571.65,-17.84"/>
<polygon fill="midnightblue" stroke="midnightblue" points="1572.13,-21.32 1581.91,-17.26 1571.73,-14.33 1572.13,-21.32"/>
</g>
<!-- Node8 -->
<g id="node8" class="node">
<title>Node8</title>
<g id="a_node8"><a xlink:title=" ">
<polygon fill="none" stroke="#bfbfbf" points="1356.5,-73 1356.5,-92 1403.5,-92 1403.5,-73 1356.5,-73"/>
<text text-anchor="middle" x="1380" y="-80" font-family="Helvetica,sans-Serif" font-size="10.00">vector</text>
</a>
</g>
</g>
<!-- Node2&#45;&gt;Node8 -->
<g id="edge7" class="edge">
<title>Node2&#45;&gt;Node8</title>
<path fill="none" stroke="midnightblue" d="M1036.53,-140.82C1101.75,-136.63 1233.63,-125.32 1342,-98 1344.82,-97.29 1347.73,-96.43 1350.6,-95.49"/>
<polygon fill="midnightblue" stroke="midnightblue" points="1351.93,-98.73 1360.17,-92.08 1349.57,-92.14 1351.93,-98.73"/>
</g>
<!-- Node9 -->
<g id="node9" class="node">
<title>Node9</title>
<g id="a_node9"><a xlink:title=" ">
<polygon fill="none" stroke="#bfbfbf" points="1422,-67.5 1422,-97.5 1540,-97.5 1540,-67.5 1422,-67.5"/>
<text text-anchor="start" x="1430" y="-85.5" font-family="Helvetica,sans-Serif" font-size="10.00">carta&#45;protobuf/fitting</text>
<text text-anchor="middle" x="1481" y="-74.5" font-family="Helvetica,sans-Serif" font-size="10.00">_request.pb.h</text>
</a>
</g>
</g>
<!-- Node2&#45;&gt;Node9 -->
<g id="edge8" class="edge">
<title>Node2&#45;&gt;Node9</title>
<path fill="none" stroke="midnightblue" d="M1036.63,-139.95C1111.27,-134.06 1275.15,-119.73 1412,-98 1412.1,-97.98 1412.2,-97.97 1412.31,-97.95"/>
<polygon fill="midnightblue" stroke="midnightblue" points="1412.71,-101.43 1421.98,-96.31 1411.53,-94.53 1412.71,-101.43"/>
</g>
<!-- Node10 -->
<g id="node10" class="node">
<title>Node10</title>
<g id="a_node10"><a xlink:title=" ">
<polygon fill="none" stroke="#bfbfbf" points="0,-67.5 0,-97.5 138,-97.5 138,-67.5 0,-67.5"/>
<text text-anchor="start" x="8" y="-85.5" font-family="Helvetica,sans-Serif" font-size="10.00">casacore/images/Images</text>
<text text-anchor="middle" x="69" y="-74.5" font-family="Helvetica,sans-Serif" font-size="10.00">/SubImage.h</text>
</a>
</g>
</g>
<!-- Node2&#45;&gt;Node10 -->
<g id="edge9" class="edge">
<title>Node2&#45;&gt;Node10</title>
<path fill="none" stroke="midnightblue" d="M955.19,-142.73C833.8,-141.51 464.32,-134.93 148.52,-98.07"/>
<polygon fill="midnightblue" stroke="midnightblue" points="148.59,-94.56 138.25,-96.86 147.77,-101.51 148.59,-94.56"/>
</g>
<!-- Node11 -->
<g id="node11" class="node">
<title>Node11</title>
<g id="a_node11"><a xlink:title=" ">
<polygon fill="none" stroke="#bfbfbf" points="156,-67.5 156,-97.5 294,-97.5 294,-67.5 156,-67.5"/>
<text text-anchor="start" x="164" y="-85.5" font-family="Helvetica,sans-Serif" font-size="10.00">casacore/images/Images</text>
<text text-anchor="middle" x="225" y="-74.5" font-family="Helvetica,sans-Serif" font-size="10.00">/TempImage.h</text>
</a>
</g>
</g>
<!-- Node2&#45;&gt;Node11 -->
<g id="edge10" class="edge">
<title>Node2&#45;&gt;Node11</title>
<path fill="none" stroke="midnightblue" d="M955.22,-142.05C849.42,-139.21 557.29,-129.07 304.37,-98.07"/>
<polygon fill="midnightblue" stroke="midnightblue" points="304.61,-94.57 294.26,-96.82 303.75,-101.52 304.61,-94.57"/>
</g>
<!-- Node12 -->
<g id="node12" class="node">
<title>Node12</title>
<g id="a_node12"><a xlink:title=" ">
<polygon fill="none" stroke="#bfbfbf" points="312,-73 312,-92 486,-92 486,-73 312,-73"/>
<text text-anchor="middle" x="399" y="-80" font-family="Helvetica,sans-Serif" font-size="10.00">imageanalysis/ImageTypedefs.h</text>
</a>
</g>
</g>
<!-- Node2&#45;&gt;Node12 -->
<g id="edge11" class="edge">
<title>Node2&#45;&gt;Node12</title>
<path fill="none" stroke="midnightblue" d="M955.33,-140.18C869.89,-134.08 665.59,-118.53 495,-98 484.24,-96.71 472.82,-95.15 461.76,-93.54"/>
<polygon fill="midnightblue" stroke="midnightblue" points="462.14,-90.05 451.74,-92.05 461.12,-96.98 462.14,-90.05"/>
</g>
<!-- Node13 -->
<g id="node13" class="node">
<title>Node13</title>
<g id="a_node13"><a xlink:href="ImageGenerator_8h.html" target="_top" xlink:title=" ">
<polygon fill="none" stroke="red" points="504,-73 504,-92 696,-92 696,-73 504,-73"/>
<text text-anchor="middle" x="600" y="-80" font-family="Helvetica,sans-Serif" font-size="10.00">ImageGenerators/ImageGenerator.h</text>
</a>
</g>
</g>
<!-- Node2&#45;&gt;Node13 -->
<g id="edge12" class="edge">
<title>Node2&#45;&gt;Node13</title>
<path fill="none" stroke="midnightblue" d="M955.48,-136.91C887.36,-126.68 749.25,-105.92 666.66,-93.52"/>
<polygon fill="midnightblue" stroke="midnightblue" points="667.03,-90.03 656.63,-92.01 665.99,-96.96 667.03,-90.03"/>
</g>
<!-- Node16 -->
<g id="node14" class="node">
<title>Node16</title>
<g id="a_node14"><a xlink:href="Logger_8h.html" target="_top" xlink:title=" ">
<polygon fill="none" stroke="red" points="714,-73 714,-92 808,-92 808,-73 714,-73"/>
<text text-anchor="middle" x="761" y="-80" font-family="Helvetica,sans-Serif" font-size="10.00">Logger/Logger.h</text>
</a>
</g>
</g>
<!-- Node2&#45;&gt;Node16 -->
<g id="edge13" class="edge">
<title>Node2&#45;&gt;Node16</title>
<path fill="none" stroke="midnightblue" d="M961.67,-134.45C925.62,-125.45 867.3,-110.83 817,-98 812.67,-96.89 808.15,-95.74 803.64,-94.57"/>
<polygon fill="midnightblue" stroke="midnightblue" points="804.42,-91.16 793.86,-92.05 802.67,-97.94 804.42,-91.16"/>
</g>
<!-- Node26&#45;&gt;Node9 -->
<g id="edge23" class="edge">
<title>Node26&#45;&gt;Node9</title>
<path fill="none" stroke="midnightblue" d="M3723.09,-143.25C3450.41,-144.6 2013.32,-149.19 1550.32,-97.96"/>
<polygon fill="midnightblue" stroke="midnightblue" points="1550.56,-94.47 1540.23,-96.82 1549.77,-101.42 1550.56,-94.47"/>
</g>
<!-- Node27 -->
<g id="node16" class="node">
<title>Node27</title>
<g id="a_node16"><a xlink:title=" ">
<polygon fill="none" stroke="#bfbfbf" points="5890.5,-73 5890.5,-92 6053.5,-92 6053.5,-73 5890.5,-73"/>
<text text-anchor="middle" x="5972" y="-80" font-family="Helvetica,sans-Serif" font-size="10.00">carta&#45;protobuf/animation.pb.h</text>
</a>
</g>
</g>
<!-- Node26&#45;&gt;Node27 -->
<g id="edge15" class="edge">
<title>Node26&#45;&gt;Node27</title>
<path fill="none" stroke="midnightblue" d="M3812.76,-134.91C3815.54,-134.56 3818.31,-134.25 3821,-134 4732.75,-49.11 4968.83,-178.24 5881,-98 5892.46,-96.99 5904.67,-95.41 5916.29,-93.65"/>
<polygon fill="midnightblue" stroke="midnightblue" points="5917,-97.08 5926.33,-92.06 5915.91,-90.16 5917,-97.08"/>
</g>
<!-- Node28 -->
<g id="node17" class="node">
<title>Node28</title>
<g id="a_node17"><a xlink:title=" ">
<polygon fill="none" stroke="#bfbfbf" points="6071.5,-67.5 6071.5,-97.5 6186.5,-97.5 6186.5,-67.5 6071.5,-67.5"/>
<text text-anchor="start" x="6079.5" y="-85.5" font-family="Helvetica,sans-Serif" font-size="10.00">carta&#45;protobuf/close</text>
<text text-anchor="middle" x="6129" y="-74.5" font-family="Helvetica,sans-Serif" font-size="10.00">_file.pb.h</text>
</a>
</g>
</g>
<!-- Node26&#45;&gt;Node28 -->
<g id="edge16" class="edge">
<title>Node26&#45;&gt;Node28</title>
<path fill="none" stroke="midnightblue" d="M3812.76,-134.91C3815.54,-134.56 3818.3,-134.25 3821,-134 4313.9,-88.46 5551.61,-154.86 6061.12,-98.04"/>
<polygon fill="midnightblue" stroke="midnightblue" points="6061.62,-101.51 6071.16,-96.89 6060.83,-94.55 6061.62,-101.51"/>
</g>
<!-- Node29 -->
<g id="node18" class="node">
<title>Node29</title>
<g id="a_node18"><a xlink:title=" ">
<polygon fill="none" stroke="#bfbfbf" points="1558,-67.5 1558,-97.5 1684,-97.5 1684,-67.5 1558,-67.5"/>
<text text-anchor="start" x="1566" y="-85.5" font-family="Helvetica,sans-Serif" font-size="10.00">carta&#45;protobuf/contour</text>
<text text-anchor="middle" x="1621" y="-74.5" font-family="Helvetica,sans-Serif" font-size="10.00">_image.pb.h</text>
</a>
</g>
</g>
<!-- Node26&#45;&gt;Node29 -->
<g id="edge17" class="edge">
<title>Node26&#45;&gt;Node29</title>
<path fill="none" stroke="midnightblue" d="M3723.48,-143.11C3462.43,-143.58 2127.3,-143.72 1694.18,-97.96"/>
<polygon fill="midnightblue" stroke="midnightblue" points="1694.44,-94.47 1684.12,-96.87 1693.68,-101.42 1694.44,-94.47"/>
</g>
<!-- Node30 -->
<g id="node19" class="node">
<title>Node30</title>
<g id="a_node19"><a xlink:title=" ">
<polygon fill="none" stroke="#bfbfbf" points="5593,-6 5593,-25 5727,-25 5727,-6 5593,-6"/>
<text text-anchor="middle" x="5660" y="-13" font-family="Helvetica,sans-Serif" font-size="10.00">carta&#45;protobuf/defs.pb.h</text>
</a>
</g>
</g>
<!-- Node26&#45;&gt;Node30 -->
<g id="edge18" class="edge">
<title>Node26&#45;&gt;Node30</title>
<path fill="none" stroke="midnightblue" d="M3812.76,-134.92C3815.54,-134.57 3818.31,-134.25 3821,-134 3871.34,-129.25 5601.71,-129.83 5641,-98 5659.32,-83.16 5662.05,-54.4 5661.59,-35.32"/>
<polygon fill="midnightblue" stroke="midnightblue" points="5665.08,-34.93 5661.03,-25.14 5658.09,-35.32 5665.08,-34.93"/>
</g>
<!-- Node31 -->
<g id="node20" class="node">
<title>Node31</title>
<g id="a_node20"><a xlink:title=" ">
<polygon fill="none" stroke="#bfbfbf" points="1776,-73 1776,-92 1912,-92 1912,-73 1776,-73"/>
<text text-anchor="middle" x="1844" y="-80" font-family="Helvetica,sans-Serif" font-size="10.00">carta&#45;protobuf/error.pb.h</text>
</a>
</g>
</g>
<!-- Node26&#45;&gt;Node31 -->
<g id="edge19" class="edge">
<title>Node26&#45;&gt;Node31</title>
<path fill="none" stroke="midnightblue" d="M3723.29,-142.89C3477.28,-142.15 2286.43,-136.6 1921,-98 1911.76,-97.02 1901.97,-95.54 1892.58,-93.88"/>
<polygon fill="midnightblue" stroke="midnightblue" points="1893.07,-90.41 1882.6,-92.03 1891.79,-97.29 1893.07,-90.41"/>
</g>
<!-- Node32 -->
<g id="node21" class="node">
<title>Node32</title>
<g id="a_node21"><a xlink:title=" ">
<polygon fill="none" stroke="#bfbfbf" points="1930.5,-67.5 1930.5,-97.5 2051.5,-97.5 2051.5,-67.5 1930.5,-67.5"/>
<text text-anchor="start" x="1938.5" y="-85.5" font-family="Helvetica,sans-Serif" font-size="10.00">carta&#45;protobuf/export</text>
<text text-anchor="middle" x="1991" y="-74.5" font-family="Helvetica,sans-Serif" font-size="10.00">_region.pb.h</text>
</a>
</g>
</g>
<!-- Node26&#45;&gt;Node32 -->
<g id="edge20" class="edge">
<title>Node26&#45;&gt;Node32</title>
<path fill="none" stroke="midnightblue" d="M3723.25,-142.9C3490.69,-142.21 2417.43,-136.98 2061.66,-97.88"/>
<polygon fill="midnightblue" stroke="midnightblue" points="2061.93,-94.39 2051.6,-96.74 2061.14,-101.34 2061.93,-94.39"/>
</g>
<!-- Node33 -->
<g id="node22" class="node">
<title>Node33</title>
<g id="a_node22"><a xlink:title=" ">
<polygon fill="none" stroke="#bfbfbf" points="2070,-67.5 2070,-97.5 2174,-97.5 2174,-67.5 2070,-67.5"/>
<text text-anchor="start" x="2078" y="-85.5" font-family="Helvetica,sans-Serif" font-size="10.00">carta&#45;protobuf/file</text>
<text text-anchor="middle" x="2122" y="-74.5" font-family="Helvetica,sans-Serif" font-size="10.00">_info.pb.h</text>
</a>
</g>
</g>
<!-- Node26&#45;&gt;Node33 -->
<g id="edge21" class="edge">
<title>Node26&#45;&gt;Node33</title>
<path fill="none" stroke="midnightblue" d="M3723.14,-142.97C3500.62,-142.62 2513.15,-138.83 2184.13,-97.91"/>
<polygon fill="midnightblue" stroke="midnightblue" points="2184.48,-94.43 2174.11,-96.63 2183.59,-101.37 2184.48,-94.43"/>
</g>
<!-- Node34 -->
<g id="node23" class="node">
<title>Node34</title>
<g id="a_node23"><a xlink:title=" ">
<polygon fill="none" stroke="#bfbfbf" points="2192,-67.5 2192,-97.5 2296,-97.5 2296,-67.5 2192,-67.5"/>
<text text-anchor="start" x="2200" y="-85.5" font-family="Helvetica,sans-Serif" font-size="10.00">carta&#45;protobuf/file</text>
<text text-anchor="middle" x="2244" y="-74.5" font-family="Helvetica,sans-Serif" font-size="10.00">_list.pb.h</text>
</a>
</g>
</g>
<!-- Node26&#45;&gt;Node34 -->
<g id="edge22" class="edge">
<title>Node26&#45;&gt;Node34</title>
<path fill="none" stroke="midnightblue" d="M3723.46,-142.85C3512.27,-141.93 2609.92,-135.91 2306.23,-97.93"/>
<polygon fill="midnightblue" stroke="midnightblue" points="2306.48,-94.43 2296.11,-96.62 2305.58,-101.37 2306.48,-94.43"/>
</g>
<!-- Node35 -->
<g id="node24" class="node">
<title>Node35</title>
<g id="a_node24"><a xlink:title=" ">
<polygon fill="none" stroke="#bfbfbf" points="2314,-67.5 2314,-97.5 2436,-97.5 2436,-67.5 2314,-67.5"/>
<text text-anchor="start" x="2322" y="-85.5" font-family="Helvetica,sans-Serif" font-size="10.00">carta&#45;protobuf/import</text>
<text text-anchor="middle" x="2375" y="-74.5" font-family="Helvetica,sans-Serif" font-size="10.00">_region.pb.h</text>
</a>
</g>
</g>
<!-- Node26&#45;&gt;Node35 -->
<g id="edge24" class="edge">
<title>Node26&#45;&gt;Node35</title>
<path fill="none" stroke="midnightblue" d="M3723.47,-142.5C3525.28,-140.14 2721.49,-128.9 2446.7,-98.03"/>
<polygon fill="midnightblue" stroke="midnightblue" points="2446.7,-94.5 2436.36,-96.83 2445.89,-101.46 2446.7,-94.5"/>
</g>
<!-- Node36 -->
<g id="node25" class="node">
<title>Node36</title>
<g id="a_node25"><a xlink:title=" ">
<polygon fill="none" stroke="#bfbfbf" points="2454.5,-67.5 2454.5,-97.5 2585.5,-97.5 2585.5,-67.5 2454.5,-67.5"/>
<text text-anchor="start" x="2462.5" y="-85.5" font-family="Helvetica,sans-Serif" font-size="10.00">carta&#45;protobuf/moment</text>
<text text-anchor="middle" x="2520" y="-74.5" font-family="Helvetica,sans-Serif" font-size="10.00">_request.pb.h</text>
</a>
</g>
</g>
<!-- Node26&#45;&gt;Node36 -->
<g id="edge25" class="edge">
<title>Node26&#45;&gt;Node36</title>
<path fill="none" stroke="midnightblue" d="M3723.28,-142.22C3539.24,-138.84 2839.11,-124.59 2595.88,-98.07"/>
<polygon fill="midnightblue" stroke="midnightblue" points="2596.01,-94.56 2585.68,-96.92 2595.23,-101.52 2596.01,-94.56"/>
</g>
<!-- Node37 -->
<g id="node26" class="node">
<title>Node37</title>
<g id="a_node26"><a xlink:title=" ">
<polygon fill="none" stroke="#bfbfbf" points="2603.5,-67.5 2603.5,-97.5 2716.5,-97.5 2716.5,-67.5 2603.5,-67.5"/>
<text text-anchor="start" x="2611.5" y="-85.5" font-family="Helvetica,sans-Serif" font-size="10.00">carta&#45;protobuf/open</text>
<text text-anchor="middle" x="2660" y="-74.5" font-family="Helvetica,sans-Serif" font-size="10.00">_file.pb.h</text>
</a>
</g>
</g>
<!-- Node26&#45;&gt;Node37 -->
<g id="edge26" class="edge">
<title>Node26&#45;&gt;Node37</title>
<path fill="none" stroke="midnightblue" d="M3723.35,-142.12C3552.86,-138.61 2942.04,-124.54 2726.57,-98.02"/>
<polygon fill="midnightblue" stroke="midnightblue" points="2726.98,-94.54 2716.62,-96.75 2726.09,-101.49 2726.98,-94.54"/>
</g>
<!-- Node38 -->
<g id="node27" class="node">
<title>Node38</title>
<g id="a_node27"><a xlink:title=" ">
<polygon fill="none" stroke="#bfbfbf" points="2734.5,-73 2734.5,-92 2901.5,-92 2901.5,-73 2734.5,-73"/>
<text text-anchor="middle" x="2818" y="-80" font-family="Helvetica,sans-Serif" font-size="10.00">carta&#45;protobuf/pv_request.pb.h</text>
</a>
</g>
</g>
<!-- Node26&#45;&gt;Node38 -->
<g id="edge27" class="edge">
<title>Node26&#45;&gt;Node38</title>
<path fill="none" stroke="midnightblue" d="M3723.27,-142.26C3595.93,-139.81 3220.72,-130.19 2911,-98 2899.92,-96.85 2888.16,-95.28 2876.85,-93.61"/>
<polygon fill="midnightblue" stroke="midnightblue" points="2877.04,-90.09 2866.63,-92.04 2875.98,-97.01 2877.04,-90.09"/>
</g>
<!-- Node39 -->
<g id="node28" class="node">
<title>Node39</title>
<g id="a_node28"><a xlink:title=" ">
<polygon fill="none" stroke="#bfbfbf" points="2920,-67.5 2920,-97.5 3038,-97.5 3038,-67.5 2920,-67.5"/>
<text text-anchor="start" x="2928" y="-85.5" font-family="Helvetica,sans-Serif" font-size="10.00">carta&#45;protobuf/raster</text>
<text text-anchor="middle" x="2979" y="-74.5" font-family="Helvetica,sans-Serif" font-size="10.00">_tile.pb.h</text>
</a>
</g>
</g>
<!-- Node26&#45;&gt;Node39 -->
<g id="edge28" class="edge">
<title>Node26&#45;&gt;Node39</title>
<path fill="none" stroke="midnightblue" d="M3723.47,-142.5C3611.52,-140.77 3309.22,-133.07 3048.29,-98.04"/>
<polygon fill="midnightblue" stroke="midnightblue" points="3048.63,-94.55 3038.25,-96.67 3047.68,-101.49 3048.63,-94.55"/>
</g>
<!-- Node40 -->
<g id="node29" class="node">
<title>Node40</title>
<g id="a_node29"><a xlink:title=" ">
<polygon fill="none" stroke="#bfbfbf" points="3056,-73 3056,-92 3200,-92 3200,-73 3056,-73"/>
<text text-anchor="middle" x="3128" y="-80" font-family="Helvetica,sans-Serif" font-size="10.00">carta&#45;protobuf/region.pb.h</text>
</a>
</g>
</g>
<!-- Node26&#45;&gt;Node40 -->
<g id="edge29" class="edge">
<title>Node26&#45;&gt;Node40</title>
<path fill="none" stroke="midnightblue" d="M3723.28,-140.87C3628.29,-136.03 3399.46,-122.65 3209,-98 3199.95,-96.83 3190.37,-95.34 3181.09,-93.76"/>
<polygon fill="midnightblue" stroke="midnightblue" points="3181.63,-90.3 3171.18,-92.03 3180.43,-97.2 3181.63,-90.3"/>
</g>
<!-- Node41 -->
<g id="node30" class="node">
<title>Node41</title>
<g id="a_node30"><a xlink:title=" ">
<polygon fill="none" stroke="#bfbfbf" points="3218,-67.5 3218,-97.5 3338,-97.5 3338,-67.5 3218,-67.5"/>
<text text-anchor="start" x="3226" y="-85.5" font-family="Helvetica,sans-Serif" font-size="10.00">carta&#45;protobuf/region</text>
<text text-anchor="middle" x="3278" y="-74.5" font-family="Helvetica,sans-Serif" font-size="10.00">_histogram.pb.h</text>
</a>
</g>
</g>
<!-- Node26&#45;&gt;Node41 -->
<g id="edge30" class="edge">
<title>Node26&#45;&gt;Node41</title>
<path fill="none" stroke="midnightblue" d="M3723.25,-139.71C3647.94,-133.84 3490.9,-120.21 3348.38,-98.12"/>
<polygon fill="midnightblue" stroke="midnightblue" points="3348.57,-94.6 3338.14,-96.51 3347.48,-101.52 3348.57,-94.6"/>
</g>
<!-- Node42 -->
<g id="node31" class="node">
<title>Node42</title>
<g id="a_node31"><a xlink:title=" ">
<polygon fill="none" stroke="#bfbfbf" points="3356,-67.5 3356,-97.5 3476,-97.5 3476,-67.5 3356,-67.5"/>
<text text-anchor="start" x="3364" y="-85.5" font-family="Helvetica,sans-Serif" font-size="10.00">carta&#45;protobuf/region</text>
<text text-anchor="middle" x="3416" y="-74.5" font-family="Helvetica,sans-Serif" font-size="10.00">_requirements.pb.h</text>
</a>
</g>
</g>
<!-- Node26&#45;&gt;Node42 -->
<g id="edge31" class="edge">
<title>Node26&#45;&gt;Node42</title>
<path fill="none" stroke="midnightblue" d="M3723.28,-136.59C3669.42,-128.71 3575.97,-114.55 3486.25,-98.18"/>
<polygon fill="midnightblue" stroke="midnightblue" points="3486.64,-94.69 3476.18,-96.33 3485.38,-101.58 3486.64,-94.69"/>
</g>
<!-- Node43 -->
<g id="node32" class="node">
<title>Node43</title>
<g id="a_node32"><a xlink:title=" ">
<polygon fill="none" stroke="#bfbfbf" points="3494,-67.5 3494,-97.5 3614,-97.5 3614,-67.5 3494,-67.5"/>
<text text-anchor="start" x="3502" y="-85.5" font-family="Helvetica,sans-Serif" font-size="10.00">carta&#45;protobuf/region</text>
<text text-anchor="middle" x="3554" y="-74.5" font-family="Helvetica,sans-Serif" font-size="10.00">_stats.pb.h</text>
</a>
</g>
</g>
<!-- Node26&#45;&gt;Node43 -->
<g id="edge32" class="edge">
<title>Node26&#45;&gt;Node43</title>
<path fill="none" stroke="midnightblue" d="M3737.34,-134.48C3705.31,-125.57 3654.23,-111.37 3614.12,-100.22"/>
<polygon fill="midnightblue" stroke="midnightblue" points="3615.01,-96.83 3604.44,-97.52 3613.13,-103.57 3615.01,-96.83"/>
</g>
<!-- Node44 -->
<g id="node33" class="node">
<title>Node44</title>
<g id="a_node33"><a xlink:title=" ">
<polygon fill="none" stroke="#bfbfbf" points="3632.5,-67.5 3632.5,-97.5 3759.5,-97.5 3759.5,-67.5 3632.5,-67.5"/>
<text text-anchor="start" x="3640.5" y="-85.5" font-family="Helvetica,sans-Serif" font-size="10.00">carta&#45;protobuf/register</text>
<text text-anchor="middle" x="3696" y="-74.5" font-family="Helvetica,sans-Serif" font-size="10.00">_viewer.pb.h</text>
</a>
</g>
</g>
<!-- Node26&#45;&gt;Node44 -->
<g id="edge33" class="edge">
<title>Node26&#45;&gt;Node44</title>
<path fill="none" stroke="midnightblue" d="M3757.68,-134.48C3748.12,-126.57 3733.49,-114.48 3720.89,-104.07"/>
<polygon fill="midnightblue" stroke="midnightblue" points="3722.91,-101.2 3712.97,-97.52 3718.45,-106.59 3722.91,-101.2"/>
</g>
<!-- Node45 -->
<g id="node34" class="node">
<title>Node45</title>
<g id="a_node34"><a xlink:title=" ">
<polygon fill="none" stroke="#bfbfbf" points="3777.5,-67.5 3777.5,-97.5 3902.5,-97.5 3902.5,-67.5 3777.5,-67.5"/>
<text text-anchor="start" x="3785.5" y="-85.5" font-family="Helvetica,sans-Serif" font-size="10.00">carta&#45;protobuf/remote</text>
<text text-anchor="middle" x="3840" y="-74.5" font-family="Helvetica,sans-Serif" font-size="10.00">_file_request.pb.h</text>
</a>
</g>
</g>
<!-- Node26&#45;&gt;Node45 -->
<g id="edge34" class="edge">
<title>Node26&#45;&gt;Node45</title>
<path fill="none" stroke="midnightblue" d="M3778.32,-134.48C3787.88,-126.57 3802.51,-114.48 3815.11,-104.07"/>
<polygon fill="midnightblue" stroke="midnightblue" points="3817.55,-106.59 3823.03,-97.52 3813.09,-101.2 3817.55,-106.59"/>
</g>
<!-- Node46 -->
<g id="node35" class="node">
<title>Node46</title>
<g id="a_node35"><a xlink:title=" ">
<polygon fill="none" stroke="#bfbfbf" points="3921,-67.5 3921,-97.5 4047,-97.5 4047,-67.5 3921,-67.5"/>
<text text-anchor="start" x="3929" y="-85.5" font-family="Helvetica,sans-Serif" font-size="10.00">carta&#45;protobuf/resume</text>
<text text-anchor="middle" x="3984" y="-74.5" font-family="Helvetica,sans-Serif" font-size="10.00">_session.pb.h</text>
</a>
</g>
</g>
<!-- Node26&#45;&gt;Node46 -->
<g id="edge35" class="edge">
<title>Node26&#45;&gt;Node46</title>
<path fill="none" stroke="midnightblue" d="M3798.95,-134.48C3831.28,-125.57 3882.83,-111.37 3923.32,-100.22"/>
<polygon fill="midnightblue" stroke="midnightblue" points="3924.38,-103.55 3933.09,-97.52 3922.52,-96.8 3924.38,-103.55"/>
</g>
<!-- Node47 -->
<g id="node36" class="node">
<title>Node47</title>
<g id="a_node36"><a xlink:title=" ">
<polygon fill="none" stroke="#bfbfbf" points="4065.5,-67.5 4065.5,-97.5 4178.5,-97.5 4178.5,-67.5 4065.5,-67.5"/>
<text text-anchor="start" x="4073.5" y="-85.5" font-family="Helvetica,sans-Serif" font-size="10.00">carta&#45;protobuf/save</text>
<text text-anchor="middle" x="4122" y="-74.5" font-family="Helvetica,sans-Serif" font-size="10.00">_file.pb.h</text>
</a>
</g>
</g>
<!-- Node26&#45;&gt;Node47 -->
<g id="edge36" class="edge">
<title>Node26&#45;&gt;Node47</title>
<path fill="none" stroke="midnightblue" d="M3812.52,-135.39C3815.39,-134.91 3818.24,-134.45 3821,-134 3922.15,-117.66 3950.43,-117.35 4055.13,-98.09"/>
<polygon fill="midnightblue" stroke="midnightblue" points="4055.97,-101.49 4065.17,-96.23 4054.7,-94.61 4055.97,-101.49"/>
</g>
<!-- Node48 -->
<g id="node37" class="node">
<title>Node48</title>
<g id="a_node37"><a xlink:title=" ">
<polygon fill="none" stroke="#bfbfbf" points="4196.5,-73 4196.5,-92 4351.5,-92 4351.5,-73 4196.5,-73"/>
<text text-anchor="middle" x="4274" y="-80" font-family="Helvetica,sans-Serif" font-size="10.00">carta&#45;protobuf/scripting.pb.h</text>
</a>
</g>
</g>
<!-- Node26&#45;&gt;Node48 -->
<g id="edge37" class="edge">
<title>Node26&#45;&gt;Node48</title>
<path fill="none" stroke="midnightblue" d="M3812.79,-135.17C3815.56,-134.75 3818.32,-134.36 3821,-134 3983.01,-112.3 4024.96,-119.45 4187,-98 4196.46,-96.75 4206.48,-95.24 4216.21,-93.69"/>
<polygon fill="midnightblue" stroke="midnightblue" points="4216.92,-97.12 4226.22,-92.06 4215.79,-90.21 4216.92,-97.12"/>
</g>
<!-- Node49 -->
<g id="node38" class="node">
<title>Node49</title>
<g id="a_node38"><a xlink:title=" ">
<polygon fill="none" stroke="#bfbfbf" points="4370,-67.5 4370,-97.5 4474,-97.5 4474,-67.5 4370,-67.5"/>
<text text-anchor="start" x="4378" y="-85.5" font-family="Helvetica,sans-Serif" font-size="10.00">carta&#45;protobuf/set</text>
<text text-anchor="middle" x="4422" y="-74.5" font-family="Helvetica,sans-Serif" font-size="10.00">_cursor.pb.h</text>
</a>
</g>
</g>
<!-- Node26&#45;&gt;Node49 -->
<g id="edge38" class="edge">
<title>Node26&#45;&gt;Node49</title>
<path fill="none" stroke="midnightblue" d="M3812.77,-135.07C3815.55,-134.68 3818.31,-134.32 3821,-134 4056.18,-106.25 4120.78,-132.71 4359.65,-97.85"/>
<polygon fill="midnightblue" stroke="midnightblue" points="4360.31,-101.29 4369.69,-96.37 4359.28,-94.37 4360.31,-101.29"/>
</g>
<!-- Node50 -->
<g id="node39" class="node">
<title>Node50</title>
<g id="a_node39"><a xlink:title=" ">
<polygon fill="none" stroke="#bfbfbf" points="4492.5,-67.5 4492.5,-97.5 4617.5,-97.5 4617.5,-67.5 4492.5,-67.5"/>
<text text-anchor="start" x="4500.5" y="-85.5" font-family="Helvetica,sans-Serif" font-size="10.00">carta&#45;protobuf/set</text>
<text text-anchor="middle" x="4555" y="-74.5" font-family="Helvetica,sans-Serif" font-size="10.00">_image_channels.pb.h</text>
</a>
</g>
</g>
<!-- Node26&#45;&gt;Node50 -->
<g id="edge39" class="edge">
<title>Node26&#45;&gt;Node50</title>
<path fill="none" stroke="midnightblue" d="M3812.77,-135.03C3815.55,-134.65 3818.31,-134.3 3821,-134 4110.55,-101.65 4188.94,-134.43 4482.18,-97.96"/>
<polygon fill="midnightblue" stroke="midnightblue" points="4482.78,-101.41 4492.26,-96.69 4481.9,-94.47 4482.78,-101.41"/>
</g>
<!-- Node51 -->
<g id="node40" class="node">
<title>Node51</title>
<g id="a_node40"><a xlink:title=" ">
<polygon fill="none" stroke="#bfbfbf" points="4636,-67.5 4636,-97.5 4758,-97.5 4758,-67.5 4636,-67.5"/>
<text text-anchor="start" x="4644" y="-85.5" font-family="Helvetica,sans-Serif" font-size="10.00">carta&#45;protobuf/spatial</text>
<text text-anchor="middle" x="4697" y="-74.5" font-family="Helvetica,sans-Serif" font-size="10.00">_profile.pb.h</text>
</a>
</g>
</g>
<!-- Node26&#45;&gt;Node51 -->
<g id="edge40" class="edge">
<title>Node26&#45;&gt;Node51</title>
<path fill="none" stroke="midnightblue" d="M3812.77,-135C3815.55,-134.63 3818.31,-134.29 3821,-134 4177.11,-95.95 4270.57,-141.97 4626,-98 4626.1,-97.99 4626.2,-97.97 4626.3,-97.96"/>
<polygon fill="midnightblue" stroke="midnightblue" points="4626.5,-101.47 4635.91,-96.61 4625.52,-94.54 4626.5,-101.47"/>
</g>
<!-- Node52 -->
<g id="node41" class="node">
<title>Node52</title>
<g id="a_node41"><a xlink:title=" ">
<polygon fill="none" stroke="#bfbfbf" points="4776,-67.5 4776,-97.5 4904,-97.5 4904,-67.5 4776,-67.5"/>
<text text-anchor="start" x="4784" y="-85.5" font-family="Helvetica,sans-Serif" font-size="10.00">carta&#45;protobuf/spectral</text>
<text text-anchor="middle" x="4840" y="-74.5" font-family="Helvetica,sans-Serif" font-size="10.00">_profile.pb.h</text>
</a>
</g>
</g>
<!-- Node26&#45;&gt;Node52 -->
<g id="edge41" class="edge">
<title>Node26&#45;&gt;Node52</title>
<path fill="none" stroke="midnightblue" d="M3812.76,-134.98C3815.55,-134.61 3818.31,-134.28 3821,-134 4236.24,-91.03 4347.4,-146.26 4766.05,-97.97"/>
<polygon fill="midnightblue" stroke="midnightblue" points="4766.47,-101.44 4776,-96.81 4765.66,-94.49 4766.47,-101.44"/>
</g>
<!-- Node53 -->
<g id="node42" class="node">
<title>Node53</title>
<g id="a_node42"><a xlink:title=" ">
<polygon fill="none" stroke="#bfbfbf" points="4922,-67.5 4922,-97.5 5034,-97.5 5034,-67.5 4922,-67.5"/>
<text text-anchor="start" x="4930" y="-85.5" font-family="Helvetica,sans-Serif" font-size="10.00">carta&#45;protobuf/stop</text>
<text text-anchor="middle" x="4978" y="-74.5" font-family="Helvetica,sans-Serif" font-size="10.00">_moment_calc.pb.h</text>
</a>
</g>
</g>
<!-- Node26&#45;&gt;Node53 -->
<g id="edge42" class="edge">
<title>Node26&#45;&gt;Node53</title>
<path fill="none" stroke="midnightblue" d="M3812.76,-134.96C3815.54,-134.6 3818.31,-134.27 3821,-134 4300.84,-85.57 4429.51,-158.12 4911.74,-97.98"/>
<polygon fill="midnightblue" stroke="midnightblue" points="4912.26,-101.45 4921.74,-96.72 4911.38,-94.5 4912.26,-101.45"/>
</g>
<!-- Node54 -->
<g id="node43" class="node">
<title>Node54</title>
<g id="a_node43"><a xlink:title=" ">
<polygon fill="none" stroke="#bfbfbf" points="5052,-67.5 5052,-97.5 5162,-97.5 5162,-67.5 5052,-67.5"/>
<text text-anchor="start" x="5060" y="-85.5" font-family="Helvetica,sans-Serif" font-size="10.00">carta&#45;protobuf/stop</text>
<text text-anchor="middle" x="5107" y="-74.5" font-family="Helvetica,sans-Serif" font-size="10.00">_pv_calc.pb.h</text>
</a>
</g>
</g>
<!-- Node26&#45;&gt;Node54 -->
<g id="edge43" class="edge">
<title>Node26&#45;&gt;Node54</title>
<path fill="none" stroke="midnightblue" d="M3812.76,-134.95C3815.54,-134.59 3818.31,-134.27 3821,-134 4358.4,-80.72 4502.22,-165.3 5041.97,-97.94"/>
<polygon fill="midnightblue" stroke="midnightblue" points="5042.48,-101.4 5051.96,-96.68 5041.6,-94.46 5042.48,-101.4"/>
</g>
<!-- Node55 -->
<g id="node44" class="node">
<title>Node55</title>
<g id="a_node44"><a xlink:title=" ">
<polygon fill="none" stroke="#bfbfbf" points="5180,-73 5180,-92 5314,-92 5314,-73 5180,-73"/>
<text text-anchor="middle" x="5247" y="-80" font-family="Helvetica,sans-Serif" font-size="10.00">carta&#45;protobuf/tiles.pb.h</text>
</a>
</g>
</g>
<!-- Node26&#45;&gt;Node55 -->
<g id="edge44" class="edge">
<title>Node26&#45;&gt;Node55</title>
<path fill="none" stroke="midnightblue" d="M3812.76,-134.94C3815.54,-134.58 3818.31,-134.26 3821,-134 4418.37,-75.61 4574.26,-162.45 5171,-98 5180.12,-97.01 5189.78,-95.52 5199.05,-93.87"/>
<polygon fill="midnightblue" stroke="midnightblue" points="5199.72,-97.3 5208.91,-92.02 5198.43,-90.42 5199.72,-97.3"/>
</g>
<!-- Node56 -->
<g id="node45" class="node">
<title>Node56</title>
<g id="a_node45"><a xlink:title=" ">
<polygon fill="none" stroke="#bfbfbf" points="5332,-67.5 5332,-97.5 5452,-97.5 5452,-67.5 5332,-67.5"/>
<text text-anchor="start" x="5340" y="-85.5" font-family="Helvetica,sans-Serif" font-size="10.00">carta&#45;protobuf/vector</text>
<text text-anchor="middle" x="5392" y="-74.5" font-family="Helvetica,sans-Serif" font-size="10.00">_overlay.pb.h</text>
</a>
</g>
</g>
<!-- Node26&#45;&gt;Node56 -->
<g id="edge45" class="edge">
<title>Node26&#45;&gt;Node56</title>
<path fill="none" stroke="midnightblue" d="M3812.76,-134.93C3815.54,-134.58 3818.31,-134.26 3821,-134 4482.26,-70.27 4657.91,-173.91 5321.6,-98"/>
<polygon fill="midnightblue" stroke="midnightblue" points="5322.36,-101.43 5331.9,-96.81 5321.56,-94.48 5322.36,-101.43"/>
</g>
<!-- Node57 -->
<g id="node46" class="node">
<title>Node57</title>
<g id="a_node46"><a xlink:title=" ">
<polygon fill="none" stroke="#bfbfbf" points="1795,-0.5 1795,-30.5 1915,-30.5 1915,-0.5 1795,-0.5"/>
<text text-anchor="start" x="1803" y="-18.5" font-family="Helvetica,sans-Serif" font-size="10.00">carta&#45;protobuf/vector</text>
<text text-anchor="middle" x="1855" y="-7.5" font-family="Helvetica,sans-Serif" font-size="10.00">_overlay_tile.pb.h</text>
</a>
</g>
</g>
<!-- Node26&#45;&gt;Node57 -->
<g id="edge46" class="edge">
<title>Node26&#45;&gt;Node57</title>
<path fill="none" stroke="midnightblue" d="M3812.76,-134.93C3815.54,-134.57 3818.31,-134.26 3821,-134 3866.36,-129.67 5429.14,-130.57 5461,-98 5470.63,-88.15 5470.67,-76.81 5461,-67 5428.77,-34.31 2426.28,-19.12 1925.45,-16.81"/>
<polygon fill="midnightblue" stroke="midnightblue" points="1925.14,-13.31 1915.12,-16.77 1925.11,-20.31 1925.14,-13.31"/>
</g>
<!-- Node58 -->
<g id="node47" class="node">
<title>Node58</title>
<g id="a_node47"><a xlink:title=" ">
<polygon fill="none" stroke="#bfbfbf" points="5508,-67.5 5508,-97.5 5632,-97.5 5632,-67.5 5508,-67.5"/>
<text text-anchor="start" x="5516" y="-85.5" font-family="Helvetica,sans-Serif" font-size="10.00">casacore/casa/Quanta</text>
<text text-anchor="middle" x="5570" y="-74.5" font-family="Helvetica,sans-Serif" font-size="10.00">/Quantum.h</text>
</a>
</g>
</g>
<!-- Node26&#45;&gt;Node58 -->
<g id="edge47" class="edge">
<title>Node26&#45;&gt;Node58</title>
<path fill="none" stroke="midnightblue" d="M3812.76,-134.93C3815.54,-134.57 3818.31,-134.26 3821,-134 4561.38,-63.56 4754.37,-175.96 5494,-98 5495.28,-97.87 5496.57,-97.72 5497.86,-97.57"/>
<polygon fill="midnightblue" stroke="midnightblue" points="5498.47,-101.02 5507.91,-96.22 5497.54,-94.08 5498.47,-101.02"/>
</g>
<!-- Node59 -->
<g id="node48" class="node">
<title>Node59</title>
<g id="a_node48"><a xlink:href="Image_8h.html" target="_top" xlink:title=" ">
<polygon fill="none" stroke="red" points="1702,-73 1702,-92 1758,-92 1758,-73 1702,-73"/>
<text text-anchor="middle" x="1730" y="-80" font-family="Helvetica,sans-Serif" font-size="10.00">Image.h</text>
</a>
</g>
</g>
<!-- Node26&#45;&gt;Node59 -->
<g id="edge48" class="edge">
<title>Node26&#45;&gt;Node59</title>
<path fill="none" stroke="midnightblue" d="M3723.3,-142.93C3445.85,-142.39 1964.5,-137.62 1767,-98 1763.92,-97.38 1760.77,-96.53 1757.66,-95.53"/>
<polygon fill="midnightblue" stroke="midnightblue" points="1758.65,-92.17 1748.06,-92.04 1756.26,-98.75 1758.65,-92.17"/>
</g>
<!-- Node63 -->
<g id="node49" class="node">
<title>Node63</title>
<g id="a_node49"><a xlink:href="BasicStatsCalculator_8h.html" target="_top" xlink:title=" ">
<polygon fill="none" stroke="red" points="5688,-73 5688,-92 5872,-92 5872,-73 5688,-73"/>
<text text-anchor="middle" x="5780" y="-80" font-family="Helvetica,sans-Serif" font-size="10.00">ImageStats/BasicStatsCalculator.h</text>
</a>
</g>
</g>
<!-- Node26&#45;&gt;Node63 -->
<g id="edge52" class="edge">
<title>Node26&#45;&gt;Node63</title>
<path fill="none" stroke="midnightblue" d="M3812.76,-134.92C3815.54,-134.57 3818.31,-134.25 3821,-134 4641.09,-56.84 4852.77,-161.93 5674,-98 5687.86,-96.92 5702.67,-95.23 5716.7,-93.39"/>
<polygon fill="midnightblue" stroke="midnightblue" points="5717.31,-96.84 5726.75,-92.02 5716.37,-89.9 5717.31,-96.84"/>
</g>
<!-- Node59&#45;&gt;Node7 -->
<g id="edge49" class="edge">
<title>Node59&#45;&gt;Node7</title>
<path fill="none" stroke="midnightblue" d="M1713.27,-72.87C1691.9,-61.84 1654.7,-42.66 1629.72,-29.77"/>
<polygon fill="midnightblue" stroke="midnightblue" points="1631.29,-26.64 1620.8,-25.17 1628.08,-32.86 1631.29,-26.64"/>
</g>
<!-- Node59&#45;&gt;Node30 -->
<g id="edge50" class="edge">
<title>Node59&#45;&gt;Node30</title>
<path fill="none" stroke="midnightblue" d="M1748.05,-72.93C1753.96,-70.53 1760.64,-68.25 1767,-67 1960.98,-29.04 5051.61,-18.29 5582.63,-16.71"/>
<polygon fill="midnightblue" stroke="midnightblue" points="5582.87,-20.21 5592.86,-16.68 5582.85,-13.21 5582.87,-20.21"/>
</g>
<!-- Node59&#45;&gt;Node57 -->
<g id="edge51" class="edge">
<title>Node59&#45;&gt;Node57</title>
<path fill="none" stroke="midnightblue" d="M1746.6,-72.87C1764.89,-63.36 1794.87,-47.77 1818.68,-35.39"/>
<polygon fill="midnightblue" stroke="midnightblue" points="1820.53,-38.37 1827.79,-30.65 1817.3,-32.16 1820.53,-38.37"/>
</g>
<!-- Node63&#45;&gt;Node30 -->
<g id="edge53" class="edge">
<title>Node63&#45;&gt;Node30</title>
<path fill="none" stroke="midnightblue" d="M5763.82,-72.73C5743.57,-61.77 5708.7,-42.88 5685.01,-30.05"/>
<polygon fill="midnightblue" stroke="midnightblue" points="5686.39,-26.81 5675.93,-25.13 5683.05,-32.97 5686.39,-26.81"/>
</g>
</g>
</svg>
        <g id="navigator" transform="translate(0 0)" fill="#404254">
                <rect fill="#f2f5e9" fill-opacity="0.5" stroke="#606060" stroke-width=".5" x="0" y="0" width="60" height="60"/>
                <use id="zoomplus" xlink:href="#zoomPlus" x="17" y="9" onmousedown="handleZoom(evt,'in')"/>
                <use id="zoomminus" xlink:href="#zoomMin" x="42" y="9" onmousedown="handleZoom(evt,'out')"/>
                <use id="reset" xlink:href="#resetDef" x="30" y="36" onmousedown="handleReset()"/>
                <g id="arrowUp" xlink:href="#dirArrow" transform="translate(30 24)" onmousedown="handlePan(0,-1)">
                  <use xlink:href="#rim" fill="#404040">
                        <set attributeName="fill" to="#808080" begin="arrowUp.mouseover" end="arrowUp.mouseout"/>
                  </use>
                  <path fill="none" stroke="white" stroke-width="1.5" d="M0,-3.0v7 M-2.5,-0.5L0,-3.0L2.5,-0.5"/>
                </g>
                <g id="arrowRight" xlink:href="#dirArrow" transform="rotate(90) translate(36 -43)" onmousedown="handlePan(1,0)">
                  <use xlink:href="#rim" fill="#404040">
                        <set attributeName="fill" to="#808080" begin="arrowRight.mouseover" end="arrowRight.mouseout"/>
                  </use>
                  <path fill="none" stroke="white" stroke-width="1.5" d="M0,-3.0v7 M-2.5,-0.5L0,-3.0L2.5,-0.5"/>
                </g>
                <g id="arrowDown" xlink:href="#dirArrow" transform="rotate(180) translate(-30 -48)" onmousedown="handlePan(0,1)">
                  <use xlink:href="#rim" fill="#404040">
                        <set attributeName="fill" to="#808080" begin="arrowDown.mouseover" end="arrowDown.mouseout"/>
                  </use>
                  <path fill="none" stroke="white" stroke-width="1.5" d="M0,-3.0v7 M-2.5,-0.5L0,-3.0L2.5,-0.5"/>
                </g>
                <g id="arrowLeft" xlink:href="#dirArrow" transform="rotate(270) translate(-36 17)" onmousedown="handlePan(-1,0)">
                  <use xlink:href="#rim" fill="#404040">
                        <set attributeName="fill" to="#808080" begin="arrowLeft.mouseover" end="arrowLeft.mouseout"/>
                  </use>
                  <path fill="none" stroke="white" stroke-width="1.5" d="M0,-3.0v7 M-2.5,-0.5L0,-3.0L2.5,-0.5"/>
                </g>
        </g>
        <svg viewBox="0 0 15 15" width="100%" height="30px" preserveAspectRatio="xMaxYMin meet">
         <g id="arrow_out" transform="scale(0.3 0.3)">
          <a xlink:href="ImageFitter_8cc__incl_org.svg" target="_base">
           <rect id="button" ry="5" rx="5" y="6" x="6" height="38" width="38"
                fill="#f2f5e9" fill-opacity="0.5" stroke="#606060" stroke-width="1.0"/>
           <path id="arrow"
             d="M 11.500037,31.436501 C 11.940474,20.09759 22.043105,11.32322 32.158766,21.979434 L 37.068811,17.246167 C 37.068811,17.246167 37.088388,32 37.088388,32 L 22.160133,31.978069 C 22.160133,31.978069 26.997745,27.140456 26.997745,27.140456 C 18.528582,18.264221 13.291696,25.230495 11.500037,31.436501 z"
             style="fill:#404040;"/>
          </a>
         </g>
        </svg>
</svg>
