<?xml version="1.0" encoding="UTF-8" standalone="no"?>
<!DOCTYPE svg PUBLIC "-//W3C//DTD SVG 1.1//EN"
 "http://www.w3.org/Graphics/SVG/1.1/DTD/svg11.dtd">
<!-- Generated by graphviz version 2.43.0 (0)
 -->
<!-- Title: ImageFitter.h Pages: 1 -->
<svg width="2252pt" height="218pt"
 viewBox="0.00 0.00 2251.50 218.00" xmlns="http://www.w3.org/2000/svg" xmlns:xlink="http://www.w3.org/1999/xlink">
<g id="graph0" class="graph" transform="scale(1 1) rotate(0) translate(4 214)">
<title>ImageFitter.h</title>
<!-- Node1 -->
<g id="node1" class="node">
<title>Node1</title>
<g id="a_node1"><a xlink:title=" ">
<polygon fill="#bfbfbf" stroke="black" points="512,-190.5 512,-209.5 593,-209.5 593,-190.5 512,-190.5"/>
<text text-anchor="middle" x="552.5" y="-197.5" font-family="Helvetica,sans-Serif" font-size="10.00">ImageFitter.h</text>
</a>
</g>
</g>
<!-- Node2 -->
<g id="node2" class="node">
<title>Node2</title>
<g id="a_node2"><a xlink:title=" ">
<polygon fill="none" stroke="#bfbfbf" points="0,-129 0,-148 83,-148 83,-129 0,-129"/>
<text text-anchor="middle" x="41.5" y="-136" font-family="Helvetica,sans-Serif" font-size="10.00">gsl/gsl_blas.h</text>
</a>
</g>
</g>
<!-- Node1&#45;&gt;Node2 -->
<g id="edge1" class="edge">
<title>Node1&#45;&gt;Node2</title>
<path fill="none" stroke="midnightblue" d="M511.85,-197.47C431.23,-193.91 245.65,-183.02 92.5,-154 87.72,-153.09 82.74,-151.94 77.85,-150.69"/>
<polygon fill="midnightblue" stroke="midnightblue" points="78.59,-147.26 68.02,-148.01 76.75,-154.02 78.59,-147.26"/>
</g>
<!-- Node3 -->
<g id="node3" class="node">
<title>Node3</title>
<g id="a_node3"><a xlink:title=" ">
<polygon fill="none" stroke="#bfbfbf" points="101.5,-129 101.5,-148 237.5,-148 237.5,-129 101.5,-129"/>
<text text-anchor="middle" x="169.5" y="-136" font-family="Helvetica,sans-Serif" font-size="10.00">gsl/gsl_multifit_nlinear.h</text>
</a>
</g>
</g>
<!-- Node1&#45;&gt;Node3 -->
<g id="edge2" class="edge">
<title>Node1&#45;&gt;Node3</title>
<path fill="none" stroke="midnightblue" d="M511.83,-193.55C453.13,-185.56 341.29,-169.89 246.5,-154 238.86,-152.72 230.81,-151.29 222.9,-149.84"/>
<polygon fill="midnightblue" stroke="midnightblue" points="223.49,-146.39 213.02,-148.01 222.21,-153.27 223.49,-146.39"/>
</g>
<!-- Node4 -->
<g id="node4" class="node">
<title>Node4</title>
<g id="a_node4"><a xlink:title=" ">
<polygon fill="none" stroke="#bfbfbf" points="255.5,-129 255.5,-148 347.5,-148 347.5,-129 255.5,-129"/>
<text text-anchor="middle" x="301.5" y="-136" font-family="Helvetica,sans-Serif" font-size="10.00">gsl/gsl_vector.h</text>
</a>
</g>
</g>
<!-- Node1&#45;&gt;Node4 -->
<g id="edge3" class="edge">
<title>Node1&#45;&gt;Node4</title>
<path fill="none" stroke="midnightblue" d="M513.74,-190.49C474.13,-181.7 410.91,-167.41 356.5,-154 352.12,-152.92 347.55,-151.76 343.01,-150.59"/>
<polygon fill="midnightblue" stroke="midnightblue" points="343.72,-147.16 333.16,-148.03 341.95,-153.94 343.72,-147.16"/>
</g>
<!-- Node5 -->
<g id="node5" class="node">
<title>Node5</title>
<g id="a_node5"><a xlink:title=" ">
<polygon fill="none" stroke="#bfbfbf" points="365.5,-129 365.5,-148 409.5,-148 409.5,-129 365.5,-129"/>
<text text-anchor="middle" x="387.5" y="-136" font-family="Helvetica,sans-Serif" font-size="10.00">string</text>
</a>
</g>
</g>
<!-- Node1&#45;&gt;Node5 -->
<g id="edge4" class="edge">
<title>Node1&#45;&gt;Node5</title>
<path fill="none" stroke="midnightblue" d="M523.93,-190.44C496.56,-182 454.27,-168.32 418.5,-154 417.12,-153.45 415.72,-152.87 414.3,-152.26"/>
<polygon fill="midnightblue" stroke="midnightblue" points="415.61,-149.02 405.05,-148.13 412.76,-155.41 415.61,-149.02"/>
</g>
<!-- Node6 -->
<g id="node6" class="node">
<title>Node6</title>
<g id="a_node6"><a xlink:title=" ">
<polygon fill="none" stroke="#bfbfbf" points="428,-129 428,-148 475,-148 475,-129 428,-129"/>
<text text-anchor="middle" x="451.5" y="-136" font-family="Helvetica,sans-Serif" font-size="10.00">vector</text>
</a>
</g>
</g>
<!-- Node1&#45;&gt;Node6 -->
<g id="edge5" class="edge">
<title>Node1&#45;&gt;Node6</title>
<path fill="none" stroke="midnightblue" d="M538.03,-190.48C521.53,-180.75 494.32,-164.73 474.82,-153.24"/>
<polygon fill="midnightblue" stroke="midnightblue" points="476.34,-150.07 465.94,-148.01 472.78,-156.1 476.34,-150.07"/>
</g>
<!-- Node7 -->
<g id="node7" class="node">
<title>Node7</title>
<g id="a_node7"><a xlink:title=" ">
<polygon fill="none" stroke="#bfbfbf" points="493.5,-123.5 493.5,-153.5 611.5,-153.5 611.5,-123.5 493.5,-123.5"/>
<text text-anchor="start" x="501.5" y="-141.5" font-family="Helvetica,sans-Serif" font-size="10.00">carta&#45;protobuf/fitting</text>
<text text-anchor="middle" x="552.5" y="-130.5" font-family="Helvetica,sans-Serif" font-size="10.00">_request.pb.h</text>
</a>
</g>
</g>
<!-- Node1&#45;&gt;Node7 -->
<g id="edge6" class="edge">
<title>Node1&#45;&gt;Node7</title>
<path fill="none" stroke="midnightblue" d="M552.5,-190.48C552.5,-183.47 552.5,-173.19 552.5,-163.7"/>
<polygon fill="midnightblue" stroke="midnightblue" points="556,-163.52 552.5,-153.52 549,-163.52 556,-163.52"/>
</g>
<!-- Node8 -->
<g id="node8" class="node">
<title>Node8</title>
<g id="a_node8"><a xlink:title=" ">
<polygon fill="none" stroke="#bfbfbf" points="629.5,-123.5 629.5,-153.5 767.5,-153.5 767.5,-123.5 629.5,-123.5"/>
<text text-anchor="start" x="637.5" y="-141.5" font-family="Helvetica,sans-Serif" font-size="10.00">casacore/images/Images</text>
<text text-anchor="middle" x="698.5" y="-130.5" font-family="Helvetica,sans-Serif" font-size="10.00">/SubImage.h</text>
</a>
</g>
</g>
<!-- Node1&#45;&gt;Node8 -->
<g id="edge7" class="edge">
<title>Node1&#45;&gt;Node8</title>
<path fill="none" stroke="midnightblue" d="M573.42,-190.48C594.49,-181.89 627.63,-168.38 654.51,-157.43"/>
<polygon fill="midnightblue" stroke="midnightblue" points="656.15,-160.54 664.09,-153.52 653.51,-154.06 656.15,-160.54"/>
</g>
<!-- Node9 -->
<g id="node9" class="node">
<title>Node9</title>
<g id="a_node9"><a xlink:title=" ">
<polygon fill="none" stroke="#bfbfbf" points="785.5,-123.5 785.5,-153.5 923.5,-153.5 923.5,-123.5 785.5,-123.5"/>
<text text-anchor="start" x="793.5" y="-141.5" font-family="Helvetica,sans-Serif" font-size="10.00">casacore/images/Images</text>
<text text-anchor="middle" x="854.5" y="-130.5" font-family="Helvetica,sans-Serif" font-size="10.00">/TempImage.h</text>
</a>
</g>
</g>
<!-- Node1&#45;&gt;Node9 -->
<g id="edge8" class="edge">
<title>Node1&#45;&gt;Node9</title>
<path fill="none" stroke="midnightblue" d="M593.23,-190.98C639.73,-181.81 716.89,-166.61 775.34,-155.1"/>
<polygon fill="midnightblue" stroke="midnightblue" points="776.15,-158.5 785.28,-153.14 774.8,-151.64 776.15,-158.5"/>
</g>
<!-- Node10 -->
<g id="node10" class="node">
<title>Node10</title>
<g id="a_node10"><a xlink:title=" ">
<polygon fill="none" stroke="#bfbfbf" points="941.5,-129 941.5,-148 1115.5,-148 1115.5,-129 941.5,-129"/>
<text text-anchor="middle" x="1028.5" y="-136" font-family="Helvetica,sans-Serif" font-size="10.00">imageanalysis/ImageTypedefs.h</text>
</a>
</g>
</g>
<!-- Node1&#45;&gt;Node10 -->
<g id="edge9" class="edge">
<title>Node1&#45;&gt;Node10</title>
<path fill="none" stroke="midnightblue" d="M593.05,-194.63C662.59,-187.04 809.05,-170.63 932.5,-154 942.75,-152.62 953.61,-151.07 964.19,-149.5"/>
<polygon fill="midnightblue" stroke="midnightblue" points="964.85,-152.95 974.22,-148.01 963.81,-146.02 964.85,-152.95"/>
</g>
<!-- Node11 -->
<g id="node11" class="node">
<title>Node11</title>
<g id="a_node11"><a xlink:href="ImageGenerator_8h.html" target="_top" xlink:title=" ">
<polygon fill="none" stroke="black" points="1133.5,-129 1133.5,-148 1325.5,-148 1325.5,-129 1133.5,-129"/>
<text text-anchor="middle" x="1229.5" y="-136" font-family="Helvetica,sans-Serif" font-size="10.00">ImageGenerators/ImageGenerator.h</text>
</a>
</g>
</g>
<!-- Node1&#45;&gt;Node11 -->
<g id="edge10" class="edge">
<title>Node1&#45;&gt;Node11</title>
<path fill="none" stroke="midnightblue" d="M593.15,-196.62C686.94,-190.96 925.69,-175.53 1124.5,-154 1136.77,-152.67 1149.82,-151.04 1162.4,-149.36"/>
<polygon fill="midnightblue" stroke="midnightblue" points="1162.92,-152.83 1172.36,-148.01 1161.98,-145.89 1162.92,-152.83"/>
</g>
<!-- Node14 -->
<g id="node14" class="node">
<title>Node14</title>
<g id="a_node14"><a xlink:href="Logger_8h.html" target="_top" xlink:title=" ">
<polygon fill="none" stroke="black" points="1614.5,-129 1614.5,-148 1708.5,-148 1708.5,-129 1614.5,-129"/>
<text text-anchor="middle" x="1661.5" y="-136" font-family="Helvetica,sans-Serif" font-size="10.00">Logger/Logger.h</text>
</a>
</g>
</g>
<!-- Node1&#45;&gt;Node14 -->
<g id="edge13" class="edge">
<title>Node1&#45;&gt;Node14</title>
<path fill="none" stroke="midnightblue" d="M593.29,-196.81C762.21,-187.75 1407.31,-153.14 1604.14,-142.58"/>
<polygon fill="midnightblue" stroke="midnightblue" points="1604.47,-146.06 1614.27,-142.03 1604.1,-139.07 1604.47,-146.06"/>
</g>
<!-- Node12 -->
<g id="node12" class="node">
<title>Node12</title>
<g id="a_node12"><a xlink:title=" ">
<polygon fill="none" stroke="#bfbfbf" points="1040.5,-56.5 1040.5,-86.5 1178.5,-86.5 1178.5,-56.5 1040.5,-56.5"/>
<text text-anchor="start" x="1048.5" y="-74.5" font-family="Helvetica,sans-Serif" font-size="10.00">casacore/images/Images</text>
<text text-anchor="middle" x="1109.5" y="-63.5" font-family="Helvetica,sans-Serif" font-size="10.00">/ImageInterface.h</text>
</a>
</g>
</g>
<!-- Node11&#45;&gt;Node12 -->
<g id="edge11" class="edge">
<title>Node11&#45;&gt;Node12</title>
<path fill="none" stroke="midnightblue" d="M1213.32,-128.73C1195.77,-119.23 1167.24,-103.78 1144.53,-91.47"/>
<polygon fill="midnightblue" stroke="midnightblue" points="1145.97,-88.27 1135.51,-86.59 1142.64,-94.43 1145.97,-88.27"/>
</g>
<!-- Node13 -->
<g id="node13" class="node">
<title>Node13</title>
<g id="a_node13"><a xlink:title=" ">
<polygon fill="none" stroke="#bfbfbf" points="1197,-62 1197,-81 1262,-81 1262,-62 1197,-62"/>
<text text-anchor="middle" x="1229.5" y="-69" font-family="Helvetica,sans-Serif" font-size="10.00">functional</text>
</a>
</g>
</g>
<!-- Node11&#45;&gt;Node13 -->
<g id="edge12" class="edge">
<title>Node11&#45;&gt;Node13</title>
<path fill="none" stroke="midnightblue" d="M1229.5,-128.73C1229.5,-119.18 1229.5,-103.62 1229.5,-91.28"/>
<polygon fill="midnightblue" stroke="midnightblue" points="1233,-91.13 1229.5,-81.13 1226,-91.13 1233,-91.13"/>
</g>
<!-- Node15 -->
<g id="node15" class="node">
<title>Node15</title>
<g id="a_node15"><a xlink:title=" ">
<polygon fill="none" stroke="#bfbfbf" points="1280.5,-62 1280.5,-81 1340.5,-81 1340.5,-62 1280.5,-62"/>
<text text-anchor="middle" x="1310.5" y="-69" font-family="Helvetica,sans-Serif" font-size="10.00">iostream</text>
</a>
</g>
</g>
<!-- Node14&#45;&gt;Node15 -->
<g id="edge14" class="edge">
<title>Node14&#45;&gt;Node15</title>
<path fill="none" stroke="midnightblue" d="M1614.39,-132.78C1552.77,-125.95 1441.81,-111.38 1349.5,-87 1346.68,-86.26 1343.79,-85.39 1340.91,-84.45"/>
<polygon fill="midnightblue" stroke="midnightblue" points="1341.9,-81.09 1331.31,-81.09 1339.59,-87.7 1341.9,-81.09"/>
</g>
<!-- Node16 -->
<g id="node16" class="node">
<title>Node16</title>
<g id="a_node16"><a xlink:title=" ">
<polygon fill="none" stroke="#bfbfbf" points="1358.5,-62 1358.5,-81 1462.5,-81 1462.5,-62 1358.5,-62"/>
<text text-anchor="middle" x="1410.5" y="-69" font-family="Helvetica,sans-Serif" font-size="10.00">spdlog/common.h</text>
</a>
</g>
</g>
<!-- Node14&#45;&gt;Node16 -->
<g id="edge15" class="edge">
<title>Node14&#45;&gt;Node16</title>
<path fill="none" stroke="midnightblue" d="M1628.43,-128.94C1583.47,-117.29 1503,-96.45 1453.43,-83.62"/>
<polygon fill="midnightblue" stroke="midnightblue" points="1454.2,-80.2 1443.65,-81.08 1452.45,-86.98 1454.2,-80.2"/>
</g>
<!-- Node17 -->
<g id="node17" class="node">
<title>Node17</title>
<g id="a_node17"><a xlink:title=" ">
<polygon fill="none" stroke="#bfbfbf" points="1481,-56.5 1481,-86.5 1584,-86.5 1584,-56.5 1481,-56.5"/>
<text text-anchor="start" x="1489" y="-74.5" font-family="Helvetica,sans-Serif" font-size="10.00">spdlog/details/log</text>
<text text-anchor="middle" x="1532.5" y="-63.5" font-family="Helvetica,sans-Serif" font-size="10.00">_msg.h</text>
</a>
</g>
</g>
<!-- Node14&#45;&gt;Node17 -->
<g id="edge16" class="edge">
<title>Node14&#45;&gt;Node17</title>
<path fill="none" stroke="midnightblue" d="M1644.37,-128.87C1625.41,-119.31 1594.28,-103.63 1569.66,-91.22"/>
<polygon fill="midnightblue" stroke="midnightblue" points="1571.09,-88.03 1560.59,-86.65 1567.94,-94.28 1571.09,-88.03"/>
</g>
<!-- Node18 -->
<g id="node18" class="node">
<title>Node18</title>
<g id="a_node18"><a xlink:title=" ">
<polygon fill="none" stroke="#bfbfbf" points="1602,-56.5 1602,-86.5 1721,-86.5 1721,-56.5 1602,-56.5"/>
<text text-anchor="start" x="1610" y="-74.5" font-family="Helvetica,sans-Serif" font-size="10.00">spdlog/sinks/rotating</text>
<text text-anchor="middle" x="1661.5" y="-63.5" font-family="Helvetica,sans-Serif" font-size="10.00">_file_sink.h</text>
</a>
</g>
</g>
<!-- Node14&#45;&gt;Node18 -->
<g id="edge17" class="edge">
<title>Node14&#45;&gt;Node18</title>
<path fill="none" stroke="midnightblue" d="M1661.5,-128.73C1661.5,-120.54 1661.5,-107.92 1661.5,-96.71"/>
<polygon fill="midnightblue" stroke="midnightblue" points="1665,-96.59 1661.5,-86.59 1658,-96.59 1665,-96.59"/>
</g>
<!-- Node19 -->
<g id="node19" class="node">
<title>Node19</title>
<g id="a_node19"><a xlink:title=" ">
<polygon fill="none" stroke="#bfbfbf" points="1739,-56.5 1739,-86.5 1850,-86.5 1850,-56.5 1739,-56.5"/>
<text text-anchor="start" x="1747" y="-74.5" font-family="Helvetica,sans-Serif" font-size="10.00">spdlog/sinks/stdout</text>
<text text-anchor="middle" x="1794.5" y="-63.5" font-family="Helvetica,sans-Serif" font-size="10.00">_color_sinks.h</text>
</a>
</g>
</g>
<!-- Node14&#45;&gt;Node19 -->
<g id="edge18" class="edge">
<title>Node14&#45;&gt;Node19</title>
<path fill="none" stroke="midnightblue" d="M1679.16,-128.87C1698.86,-119.24 1731.3,-103.39 1756.77,-90.94"/>
<polygon fill="midnightblue" stroke="midnightblue" points="1758.35,-94.06 1765.8,-86.53 1755.28,-87.77 1758.35,-94.06"/>
</g>
<!-- Node20 -->
<g id="node20" class="node">
<title>Node20</title>
<g id="a_node20"><a xlink:title=" ">
<polygon fill="none" stroke="#bfbfbf" points="1868,-62 1868,-81 1961,-81 1961,-62 1868,-62"/>
<text text-anchor="middle" x="1914.5" y="-69" font-family="Helvetica,sans-Serif" font-size="10.00">spdlog/spdlog.h</text>
</a>
</g>
</g>
<!-- Node14&#45;&gt;Node20 -->
<g id="edge19" class="edge">
<title>Node14&#45;&gt;Node20</title>
<path fill="none" stroke="midnightblue" d="M1695.51,-128.92C1734.97,-118.93 1801.98,-101.92 1859.5,-87 1863.64,-85.93 1867.95,-84.8 1872.26,-83.67"/>
<polygon fill="midnightblue" stroke="midnightblue" points="1873.45,-86.98 1882.23,-81.05 1871.67,-80.21 1873.45,-86.98"/>
</g>
<!-- Node21 -->
<g id="node21" class="node">
<title>Node21</title>
<g id="a_node21"><a xlink:title=" ">
<polygon fill="none" stroke="#bfbfbf" points="1979.5,-62 1979.5,-81 2125.5,-81 2125.5,-62 1979.5,-62"/>
<text text-anchor="middle" x="2052.5" y="-69" font-family="Helvetica,sans-Serif" font-size="10.00">carta&#45;protobuf/enums.pb.h</text>
</a>
</g>
</g>
<!-- Node14&#45;&gt;Node21 -->
<g id="edge20" class="edge">
<title>Node14&#45;&gt;Node21</title>
<path fill="none" stroke="midnightblue" d="M1708.65,-129.99C1769.27,-120.29 1877.79,-102.77 1970.5,-87 1978.4,-85.66 1986.73,-84.21 1994.93,-82.78"/>
<polygon fill="midnightblue" stroke="midnightblue" points="1995.58,-86.22 2004.82,-81.04 1994.37,-79.32 1995.58,-86.22"/>
</g>
<!-- Node22 -->
<g id="node22" class="node">
<title>Node22</title>
<g id="a_node22"><a xlink:href="FileSystem_8h.html" target="_top" xlink:title=" ">
<polygon fill="none" stroke="black" points="2143.5,-62 2143.5,-81 2243.5,-81 2243.5,-62 2143.5,-62"/>
<text text-anchor="middle" x="2193.5" y="-69" font-family="Helvetica,sans-Serif" font-size="10.00">Util/FileSystem.h</text>
</a>
</g>
</g>
<!-- Node14&#45;&gt;Node22 -->
<g id="edge21" class="edge">
<title>Node14&#45;&gt;Node22</title>
<path fill="none" stroke="midnightblue" d="M1708.79,-134.57C1794.26,-128.8 1979.95,-114.11 2134.5,-87 2140.29,-85.98 2146.36,-84.72 2152.3,-83.37"/>
<polygon fill="midnightblue" stroke="midnightblue" points="2153.21,-86.76 2162.13,-81.04 2151.59,-79.94 2153.21,-86.76"/>
</g>
<!-- Node23 -->
<g id="node23" class="node">
<title>Node23</title>
<g id="a_node23"><a xlink:title=" ">
<polygon fill="none" stroke="#bfbfbf" points="2159.5,-0.5 2159.5,-19.5 2227.5,-19.5 2227.5,-0.5 2159.5,-0.5"/>
<text text-anchor="middle" x="2193.5" y="-7.5" font-family="Helvetica,sans-Serif" font-size="10.00">filesystem</text>
</a>
</g>
</g>
<!-- Node22&#45;&gt;Node23 -->
<g id="edge22" class="edge">
<title>Node22&#45;&gt;Node23</title>
<path fill="none" stroke="midnightblue" d="M2193.5,-61.98C2193.5,-53.58 2193.5,-40.48 2193.5,-29.66"/>
<polygon fill="midnightblue" stroke="midnightblue" points="2197,-29.51 2193.5,-19.51 2190,-29.51 2197,-29.51"/>
</g>
</g>
</svg>
