<?xml version="1.0" encoding="UTF-8" standalone="no"?>
<!DOCTYPE svg PUBLIC "-//W3C//DTD SVG 1.1//EN"
 "http://www.w3.org/Graphics/SVG/1.1/DTD/svg11.dtd">
<!-- Generated by graphviz version 2.43.0 (0)
 -->
<!-- Title: LoaderCache.cc Pages: 1 -->
<!--zoomable 397 -->
<svg id="main" version="1.1" xmlns="http://www.w3.org/2000/svg" xmlns:xlink="http://www.w3.org/1999/xlink" xml:space="preserve" onload="init(evt)">
<style type="text/css"><![CDATA[
.edge:hover path { stroke: red; }
.edge:hover polygon { stroke: red; fill: red; }
]]></style>
<script type="text/javascript"><![CDATA[
var edges = document.getElementsByTagName('g');
if (edges && edges.length) {
  for (var i=0;i<edges.length;i++) {
    if (edges[i].id.substr(0,4)=='edge') {
      edges[i].setAttribute('class','edge');
    }
  }
}
]]></script>
        <defs>
                <circle id="rim" cx="0" cy="0" r="7"/>
                <circle id="rim2" cx="0" cy="0" r="3.5"/>
                <g id="zoomPlus">
                        <use xlink:href="#rim" fill="#404040">
                                <set attributeName="fill" to="#808080" begin="zoomplus.mouseover" end="zoomplus.mouseout"/>
                        </use>
                        <path d="M-4,0h8M0,-4v8" fill="none" stroke="white" stroke-width="1.5" pointer-events="none"/>
                </g>
                <g id="zoomMin">
                        <use xlink:href="#rim" fill="#404040">
                                <set attributeName="fill" to="#808080" begin="zoomminus.mouseover" end="zoomminus.mouseout"/>
                        </use>
                        <path d="M-4,0h8" fill="none" stroke="white" stroke-width="1.5" pointer-events="none"/>
                </g>
                <g id="dirArrow">
                        <path fill="none" stroke="white" stroke-width="1.5" d="M0,-3.0v7 M-2.5,-0.5L0,-3.0L2.5,-0.5"/>
                </g>
               <g id="resetDef">
                       <use xlink:href="#rim2" fill="#404040">
                               <set attributeName="fill" to="#808080" begin="reset.mouseover" end="reset.mouseout"/>
                       </use>
               </g>
        </defs>

<script type="text/javascript">
var viewWidth = 2089;
var viewHeight = 397;
var sectionId = 'dynsection-0';
</script>
<script xlink:href="svgpan.js"/>
<svg id="graph" class="graph">
<g id="viewport">
<title>LoaderCache.cc</title>
<!-- Node1 -->
<g id="node1" class="node">
<title>Node1</title>
<g id="a_node1"><a xlink:title=" ">
<polygon fill="#bfbfbf" stroke="black" points="1230.5,-369.5 1230.5,-388.5 1323.5,-388.5 1323.5,-369.5 1230.5,-369.5"/>
<text text-anchor="middle" x="1277" y="-376.5" font-family="Helvetica,sans-Serif" font-size="10.00">LoaderCache.cc</text>
</a>
</g>
</g>
<!-- Node2 -->
<g id="node2" class="node">
<title>Node2</title>
<g id="a_node2"><a xlink:href="LoaderCache_8h.html" target="_top" xlink:title=" ">
<polygon fill="none" stroke="black" points="1150.5,-313.5 1150.5,-332.5 1239.5,-332.5 1239.5,-313.5 1150.5,-313.5"/>
<text text-anchor="middle" x="1195" y="-320.5" font-family="Helvetica,sans-Serif" font-size="10.00">LoaderCache.h</text>
</a>
</g>
</g>
<!-- Node1&#45;&gt;Node2 -->
<g id="edge1" class="edge">
<title>Node1&#45;&gt;Node2</title>
<path fill="none" stroke="midnightblue" d="M1263.83,-369.32C1251.15,-360.98 1231.77,-348.21 1216.79,-338.35"/>
<polygon fill="midnightblue" stroke="midnightblue" points="1218.42,-335.23 1208.14,-332.65 1214.57,-341.08 1218.42,-335.23"/>
</g>
<!-- Node29 -->
<g id="node29" class="node">
<title>Node29</title>
<g id="a_node29"><a xlink:href="Logger_8h.html" target="_top" xlink:title=" ">
<polygon fill="none" stroke="black" points="1487,-129 1487,-148 1581,-148 1581,-129 1487,-129"/>
<text text-anchor="middle" x="1534" y="-136" font-family="Helvetica,sans-Serif" font-size="10.00">Logger/Logger.h</text>
</a>
</g>
</g>
<!-- Node1&#45;&gt;Node29 -->
<g id="edge38" class="edge">
<title>Node1&#45;&gt;Node29</title>
<path fill="none" stroke="midnightblue" d="M1286.45,-369.23C1324.63,-333.8 1467.79,-200.94 1517.15,-155.14"/>
<polygon fill="midnightblue" stroke="midnightblue" points="1519.78,-157.47 1524.73,-148.1 1515.02,-152.34 1519.78,-157.47"/>
</g>
<!-- Node3 -->
<g id="node3" class="node">
<title>Node3</title>
<g id="a_node3"><a xlink:title=" ">
<polygon fill="none" stroke="#bfbfbf" points="1121,-257.5 1121,-276.5 1153,-276.5 1153,-257.5 1121,-257.5"/>
<text text-anchor="middle" x="1137" y="-264.5" font-family="Helvetica,sans-Serif" font-size="10.00">list</text>
</a>
</g>
</g>
<!-- Node2&#45;&gt;Node3 -->
<g id="edge2" class="edge">
<title>Node2&#45;&gt;Node3</title>
<path fill="none" stroke="midnightblue" d="M1185.68,-313.32C1177.11,-305.34 1164.19,-293.31 1153.81,-283.65"/>
<polygon fill="midnightblue" stroke="midnightblue" points="1156.19,-281.09 1146.49,-276.83 1151.42,-286.21 1156.19,-281.09"/>
</g>
<!-- Node4 -->
<g id="node4" class="node">
<title>Node4</title>
<g id="a_node4"><a xlink:title=" ">
<polygon fill="none" stroke="#bfbfbf" points="1171,-257.5 1171,-276.5 1219,-276.5 1219,-257.5 1171,-257.5"/>
<text text-anchor="middle" x="1195" y="-264.5" font-family="Helvetica,sans-Serif" font-size="10.00">mutex</text>
</a>
</g>
</g>
<!-- Node2&#45;&gt;Node4 -->
<g id="edge3" class="edge">
<title>Node2&#45;&gt;Node4</title>
<path fill="none" stroke="midnightblue" d="M1195,-313.08C1195,-306.01 1195,-295.86 1195,-286.99"/>
<polygon fill="midnightblue" stroke="midnightblue" points="1198.5,-286.75 1195,-276.75 1191.5,-286.75 1198.5,-286.75"/>
</g>
<!-- Node5 -->
<g id="node5" class="node">
<title>Node5</title>
<g id="a_node5"><a xlink:title=" ">
<polygon fill="none" stroke="#bfbfbf" points="1237.5,-257.5 1237.5,-276.5 1330.5,-276.5 1330.5,-257.5 1237.5,-257.5"/>
<text text-anchor="middle" x="1284" y="-264.5" font-family="Helvetica,sans-Serif" font-size="10.00">unordered_map</text>
</a>
</g>
</g>
<!-- Node2&#45;&gt;Node5 -->
<g id="edge4" class="edge">
<title>Node2&#45;&gt;Node5</title>
<path fill="none" stroke="midnightblue" d="M1209.3,-313.32C1223.18,-304.9 1244.49,-291.97 1260.8,-282.07"/>
<polygon fill="midnightblue" stroke="midnightblue" points="1263,-284.83 1269.74,-276.65 1259.37,-278.85 1263,-284.83"/>
</g>
<!-- Node6 -->
<g id="node6" class="node">
<title>Node6</title>
<g id="a_node6"><a xlink:href="FileLoader_8h.html" target="_top" xlink:title=" ">
<polygon fill="none" stroke="black" points="797,-257.5 797,-276.5 929,-276.5 929,-257.5 797,-257.5"/>
<text text-anchor="middle" x="863" y="-264.5" font-family="Helvetica,sans-Serif" font-size="10.00">ImageData/FileLoader.h</text>
</a>
</g>
</g>
<!-- Node2&#45;&gt;Node6 -->
<g id="edge5" class="edge">
<title>Node2&#45;&gt;Node6</title>
<path fill="none" stroke="midnightblue" d="M1150.23,-314.72C1092.35,-305.3 991.24,-288.86 925.73,-278.2"/>
<polygon fill="midnightblue" stroke="midnightblue" points="925.96,-274.7 915.53,-276.54 924.84,-281.6 925.96,-274.7"/>
</g>
<!-- Node7 -->
<g id="node7" class="node">
<title>Node7</title>
<g id="a_node7"><a xlink:title=" ">
<polygon fill="none" stroke="#bfbfbf" points="1001,-196 1001,-215 1059,-215 1059,-196 1001,-196"/>
<text text-anchor="middle" x="1030" y="-203" font-family="Helvetica,sans-Serif" font-size="10.00">memory</text>
</a>
</g>
</g>
<!-- Node6&#45;&gt;Node7 -->
<g id="edge6" class="edge">
<title>Node6&#45;&gt;Node7</title>
<path fill="none" stroke="midnightblue" d="M888.29,-257.42C914.35,-248.52 956.13,-234.1 992,-221 994.1,-220.23 996.27,-219.43 998.44,-218.62"/>
<polygon fill="midnightblue" stroke="midnightblue" points="999.81,-221.84 1007.94,-215.04 997.35,-215.29 999.81,-221.84"/>
</g>
<!-- Node8 -->
<g id="node8" class="node">
<title>Node8</title>
<g id="a_node8"><a xlink:title=" ">
<polygon fill="none" stroke="#bfbfbf" points="713,-62 713,-81 757,-81 757,-62 713,-62"/>
<text text-anchor="middle" x="735" y="-69" font-family="Helvetica,sans-Serif" font-size="10.00">string</text>
</a>
</g>
</g>
<!-- Node6&#45;&gt;Node8 -->
<g id="edge7" class="edge">
<title>Node6&#45;&gt;Node8</title>
<path fill="none" stroke="midnightblue" d="M864.5,-257.23C868.12,-233.13 874.88,-164.95 844,-123 834.27,-109.78 795.28,-93.72 766.7,-83.31"/>
<polygon fill="midnightblue" stroke="midnightblue" points="767.69,-79.95 757.09,-79.88 765.33,-86.54 767.69,-79.95"/>
</g>
<!-- Node9 -->
<g id="node9" class="node">
<title>Node9</title>
<g id="a_node9"><a xlink:title=" ">
<polygon fill="none" stroke="#bfbfbf" points="1259.5,-190.5 1259.5,-220.5 1386.5,-220.5 1386.5,-190.5 1259.5,-190.5"/>
<text text-anchor="start" x="1267.5" y="-208.5" font-family="Helvetica,sans-Serif" font-size="10.00">casacore/casa/Utilities</text>
<text text-anchor="middle" x="1323" y="-197.5" font-family="Helvetica,sans-Serif" font-size="10.00">/DataType.h</text>
</a>
</g>
</g>
<!-- Node6&#45;&gt;Node9 -->
<g id="edge8" class="edge">
<title>Node6&#45;&gt;Node9</title>
<path fill="none" stroke="midnightblue" d="M929.09,-259.56C1005.39,-251.82 1134.58,-237.75 1245,-221 1246.3,-220.8 1247.62,-220.6 1248.94,-220.39"/>
<polygon fill="midnightblue" stroke="midnightblue" points="1249.9,-223.78 1259.21,-218.72 1248.77,-216.87 1249.9,-223.78"/>
</g>
<!-- Node10 -->
<g id="node10" class="node">
<title>Node10</title>
<g id="a_node10"><a xlink:title=" ">
<polygon fill="none" stroke="#bfbfbf" points="354,-123.5 354,-153.5 492,-153.5 492,-123.5 354,-123.5"/>
<text text-anchor="start" x="362" y="-141.5" font-family="Helvetica,sans-Serif" font-size="10.00">casacore/images/Images</text>
<text text-anchor="middle" x="423" y="-130.5" font-family="Helvetica,sans-Serif" font-size="10.00">/ImageInterface.h</text>
</a>
</g>
</g>
<!-- Node6&#45;&gt;Node10 -->
<g id="edge9" class="edge">
<title>Node6&#45;&gt;Node10</title>
<path fill="none" stroke="midnightblue" d="M804.19,-257.44C757.3,-249.91 690.26,-237.57 633,-221 572.53,-203.5 505.08,-175.79 463.34,-157.62"/>
<polygon fill="midnightblue" stroke="midnightblue" points="464.63,-154.37 454.06,-153.56 461.82,-160.78 464.63,-154.37"/>
</g>
<!-- Node11 -->
<g id="node11" class="node">
<title>Node11</title>
<g id="a_node11"><a xlink:title=" ">
<polygon fill="none" stroke="#bfbfbf" points="0,-123.5 0,-153.5 138,-153.5 138,-123.5 0,-123.5"/>
<text text-anchor="start" x="8" y="-141.5" font-family="Helvetica,sans-Serif" font-size="10.00">casacore/images/Images</text>
<text text-anchor="middle" x="69" y="-130.5" font-family="Helvetica,sans-Serif" font-size="10.00">/SubImage.h</text>
</a>
</g>
</g>
<!-- Node6&#45;&gt;Node11 -->
<g id="edge10" class="edge">
<title>Node6&#45;&gt;Node11</title>
<path fill="none" stroke="midnightblue" d="M796.92,-264.03C634.63,-258.86 225.48,-243.74 168,-221 135.61,-208.19 105.84,-180.6 87.58,-161.08"/>
<polygon fill="midnightblue" stroke="midnightblue" points="90.03,-158.57 80.71,-153.53 84.85,-163.28 90.03,-158.57"/>
</g>
<!-- Node12 -->
<g id="node12" class="node">
<title>Node12</title>
<g id="a_node12"><a xlink:title=" ">
<polygon fill="none" stroke="#bfbfbf" points="259,-62 259,-81 393,-81 393,-62 259,-62"/>
<text text-anchor="middle" x="326" y="-69" font-family="Helvetica,sans-Serif" font-size="10.00">carta&#45;protobuf/defs.pb.h</text>
</a>
</g>
</g>
<!-- Node6&#45;&gt;Node12 -->
<g id="edge11" class="edge">
<title>Node6&#45;&gt;Node12</title>
<path fill="none" stroke="midnightblue" d="M796.62,-261.07C670.81,-250.28 404.84,-220.06 345,-154 329.49,-136.88 325.92,-109.59 325.44,-91.36"/>
<polygon fill="midnightblue" stroke="midnightblue" points="328.94,-91.37 325.46,-81.36 321.94,-91.35 328.94,-91.37"/>
</g>
<!-- Node13 -->
<g id="node13" class="node">
<title>Node13</title>
<g id="a_node13"><a xlink:title=" ">
<polygon fill="none" stroke="#bfbfbf" points="1158,-62 1158,-81 1304,-81 1304,-62 1158,-62"/>
<text text-anchor="middle" x="1231" y="-69" font-family="Helvetica,sans-Serif" font-size="10.00">carta&#45;protobuf/enums.pb.h</text>
</a>
</g>
</g>
<!-- Node6&#45;&gt;Node13 -->
<g id="edge12" class="edge">
<title>Node6&#45;&gt;Node13</title>
<path fill="none" stroke="midnightblue" d="M929.07,-263.42C1006.61,-256.66 1133.4,-233.28 1203,-154 1218.62,-136.21 1225.63,-109.27 1228.7,-91.29"/>
<polygon fill="midnightblue" stroke="midnightblue" points="1232.2,-91.59 1230.18,-81.19 1225.27,-90.58 1232.2,-91.59"/>
</g>
<!-- Node14 -->
<g id="node14" class="node">
<title>Node14</title>
<g id="a_node14"><a xlink:href="FileInfo_8h.html" target="_top" xlink:title=" ">
<polygon fill="none" stroke="black" points="177.5,-196 177.5,-215 296.5,-215 296.5,-196 177.5,-196"/>
<text text-anchor="middle" x="237" y="-203" font-family="Helvetica,sans-Serif" font-size="10.00">ImageData/FileInfo.h</text>
</a>
</g>
</g>
<!-- Node6&#45;&gt;Node14 -->
<g id="edge13" class="edge">
<title>Node6&#45;&gt;Node14</title>
<path fill="none" stroke="midnightblue" d="M796.59,-262.93C692.8,-257.6 486.01,-244.85 312,-221 303.87,-219.89 295.3,-218.46 286.96,-216.95"/>
<polygon fill="midnightblue" stroke="midnightblue" points="287.43,-213.47 276.96,-215.07 286.14,-220.35 287.43,-213.47"/>
</g>
<!-- Node17 -->
<g id="node17" class="node">
<title>Node17</title>
<g id="a_node17"><a xlink:href="Casacore_8h.html" target="_top" xlink:title=" ">
<polygon fill="none" stroke="black" points="642.5,-196 642.5,-215 733.5,-215 733.5,-196 642.5,-196"/>
<text text-anchor="middle" x="688" y="-203" font-family="Helvetica,sans-Serif" font-size="10.00">Util/Casacore.h</text>
</a>
</g>
</g>
<!-- Node6&#45;&gt;Node17 -->
<g id="edge19" class="edge">
<title>Node6&#45;&gt;Node17</title>
<path fill="none" stroke="midnightblue" d="M837.93,-257.48C807.65,-247.18 756.56,-229.81 722.56,-218.25"/>
<polygon fill="midnightblue" stroke="midnightblue" points="723.62,-214.91 713.03,-215.01 721.37,-221.54 723.62,-214.91"/>
</g>
<!-- Node20 -->
<g id="node20" class="node">
<title>Node20</title>
<g id="a_node20"><a xlink:href="Stokes_8h.html" target="_top" xlink:title=" ">
<polygon fill="none" stroke="black" points="905,-196 905,-215 983,-215 983,-196 905,-196"/>
<text text-anchor="middle" x="944" y="-203" font-family="Helvetica,sans-Serif" font-size="10.00">Util/Stokes.h</text>
</a>
</g>
</g>
<!-- Node6&#45;&gt;Node20 -->
<g id="edge23" class="edge">
<title>Node6&#45;&gt;Node20</title>
<path fill="none" stroke="midnightblue" d="M874.61,-257.48C887.48,-248.02 908.47,-232.6 924.01,-221.19"/>
<polygon fill="midnightblue" stroke="midnightblue" points="926.43,-223.75 932.42,-215.01 922.28,-218.11 926.43,-223.75"/>
</g>
<!-- Node14&#45;&gt;Node10 -->
<g id="edge16" class="edge">
<title>Node14&#45;&gt;Node10</title>
<path fill="none" stroke="midnightblue" d="M261.7,-195.87C289.97,-185.99 337.01,-169.55 373.02,-156.97"/>
<polygon fill="midnightblue" stroke="midnightblue" points="374.57,-160.13 382.86,-153.53 372.26,-153.52 374.57,-160.13"/>
</g>
<!-- Node14&#45;&gt;Node11 -->
<g id="edge17" class="edge">
<title>Node14&#45;&gt;Node11</title>
<path fill="none" stroke="midnightblue" d="M214.69,-195.87C189.37,-186.07 147.39,-169.83 114.98,-157.29"/>
<polygon fill="midnightblue" stroke="midnightblue" points="115.85,-153.87 105.26,-153.53 113.32,-160.4 115.85,-153.87"/>
</g>
<!-- Node14&#45;&gt;Node12 -->
<g id="edge18" class="edge">
<title>Node14&#45;&gt;Node12</title>
<path fill="none" stroke="midnightblue" d="M242.84,-195.84C257.36,-174.3 295.32,-118 314.52,-89.52"/>
<polygon fill="midnightblue" stroke="midnightblue" points="317.57,-91.27 320.25,-81.02 311.76,-87.36 317.57,-91.27"/>
</g>
<!-- Node15 -->
<g id="node15" class="node">
<title>Node15</title>
<g id="a_node15"><a xlink:title=" ">
<polygon fill="none" stroke="#bfbfbf" points="156,-129 156,-148 194,-148 194,-129 156,-129"/>
<text text-anchor="middle" x="175" y="-136" font-family="Helvetica,sans-Serif" font-size="10.00">map</text>
</a>
</g>
</g>
<!-- Node14&#45;&gt;Node15 -->
<g id="edge14" class="edge">
<title>Node14&#45;&gt;Node15</title>
<path fill="none" stroke="midnightblue" d="M228.64,-195.73C218.88,-185.5 202.53,-168.36 190.45,-155.69"/>
<polygon fill="midnightblue" stroke="midnightblue" points="192.66,-152.95 183.23,-148.13 187.6,-157.78 192.66,-152.95"/>
</g>
<!-- Node16 -->
<g id="node16" class="node">
<title>Node16</title>
<g id="a_node16"><a xlink:title=" ">
<polygon fill="none" stroke="#bfbfbf" points="212.5,-129 212.5,-148 259.5,-148 259.5,-129 212.5,-129"/>
<text text-anchor="middle" x="236" y="-136" font-family="Helvetica,sans-Serif" font-size="10.00">vector</text>
</a>
</g>
</g>
<!-- Node14&#45;&gt;Node16 -->
<g id="edge15" class="edge">
<title>Node14&#45;&gt;Node16</title>
<path fill="none" stroke="midnightblue" d="M236.87,-195.73C236.72,-186.18 236.48,-170.62 236.29,-158.28"/>
<polygon fill="midnightblue" stroke="midnightblue" points="239.79,-158.07 236.13,-148.13 232.79,-158.18 239.79,-158.07"/>
</g>
<!-- Node17&#45;&gt;Node10 -->
<g id="edge20" class="edge">
<title>Node17&#45;&gt;Node10</title>
<path fill="none" stroke="midnightblue" d="M653.08,-195.94C611.76,-185.8 542.01,-168.69 490.12,-155.96"/>
<polygon fill="midnightblue" stroke="midnightblue" points="490.86,-152.54 480.32,-153.56 489.2,-159.34 490.86,-152.54"/>
</g>
<!-- Node18 -->
<g id="node18" class="node">
<title>Node18</title>
<g id="a_node18"><a xlink:title=" ">
<polygon fill="none" stroke="#bfbfbf" points="510,-123.5 510,-153.5 648,-153.5 648,-123.5 510,-123.5"/>
<text text-anchor="start" x="518" y="-141.5" font-family="Helvetica,sans-Serif" font-size="10.00">casacore/images/Images</text>
<text text-anchor="middle" x="579" y="-130.5" font-family="Helvetica,sans-Serif" font-size="10.00">/ImageOpener.h</text>
</a>
</g>
</g>
<!-- Node17&#45;&gt;Node18 -->
<g id="edge21" class="edge">
<title>Node17&#45;&gt;Node18</title>
<path fill="none" stroke="midnightblue" d="M673.3,-195.73C657.51,-186.32 631.91,-171.05 611.37,-158.8"/>
<polygon fill="midnightblue" stroke="midnightblue" points="613.01,-155.7 602.63,-153.59 609.42,-161.72 613.01,-155.7"/>
</g>
<!-- Node19 -->
<g id="node19" class="node">
<title>Node19</title>
<g id="a_node19"><a xlink:title=" ">
<polygon fill="none" stroke="#bfbfbf" points="666.5,-123.5 666.5,-153.5 835.5,-153.5 835.5,-123.5 666.5,-123.5"/>
<text text-anchor="start" x="674.5" y="-141.5" font-family="Helvetica,sans-Serif" font-size="10.00">casacore/scimath/Mathematics</text>
<text text-anchor="middle" x="751" y="-130.5" font-family="Helvetica,sans-Serif" font-size="10.00">/GaussianBeam.h</text>
</a>
</g>
</g>
<!-- Node17&#45;&gt;Node19 -->
<g id="edge22" class="edge">
<title>Node17&#45;&gt;Node19</title>
<path fill="none" stroke="midnightblue" d="M696.5,-195.73C705.09,-186.86 718.71,-172.81 730.19,-160.97"/>
<polygon fill="midnightblue" stroke="midnightblue" points="732.9,-163.21 737.34,-153.59 727.87,-158.33 732.9,-163.21"/>
</g>
<!-- Node20&#45;&gt;Node8 -->
<g id="edge24" class="edge">
<title>Node20&#45;&gt;Node8</title>
<path fill="none" stroke="midnightblue" d="M938.93,-195.56C929.08,-178.95 905.78,-143.21 877,-123 858.97,-110.34 803.23,-92.49 767.18,-81.75"/>
<polygon fill="midnightblue" stroke="midnightblue" points="767.72,-78.26 757.14,-78.79 765.74,-84.97 767.72,-78.26"/>
</g>
<!-- Node20&#45;&gt;Node13 -->
<g id="edge25" class="edge">
<title>Node20&#45;&gt;Node13</title>
<path fill="none" stroke="midnightblue" d="M970.53,-195.98C977.48,-193.89 984.99,-191.75 992,-190 1071.57,-170.12 1104.14,-198.56 1173,-154 1196.99,-138.48 1214.1,-109.24 1223.27,-90.33"/>
<polygon fill="midnightblue" stroke="midnightblue" points="1226.54,-91.59 1227.53,-81.04 1220.18,-88.67 1226.54,-91.59"/>
</g>
<!-- Node21 -->
<g id="node21" class="node">
<title>Node21</title>
<g id="a_node21"><a xlink:title=" ">
<polygon fill="none" stroke="#bfbfbf" points="1003.5,-123.5 1003.5,-153.5 1164.5,-153.5 1164.5,-123.5 1003.5,-123.5"/>
<text text-anchor="start" x="1011.5" y="-141.5" font-family="Helvetica,sans-Serif" font-size="10.00">casacore/measures/Measures</text>
<text text-anchor="middle" x="1084" y="-130.5" font-family="Helvetica,sans-Serif" font-size="10.00">/Stokes.h</text>
</a>
</g>
</g>
<!-- Node20&#45;&gt;Node21 -->
<g id="edge26" class="edge">
<title>Node20&#45;&gt;Node21</title>
<path fill="none" stroke="midnightblue" d="M962.59,-195.87C983.42,-186.2 1017.77,-170.25 1044.63,-157.78"/>
<polygon fill="midnightblue" stroke="midnightblue" points="1046.19,-160.91 1053.79,-153.53 1043.24,-154.56 1046.19,-160.91"/>
</g>
<!-- Node22 -->
<g id="node22" class="node">
<title>Node22</title>
<g id="a_node22"><a xlink:href="Image_8h.html" target="_top" xlink:title=" ">
<polygon fill="none" stroke="black" points="929,-129 929,-148 985,-148 985,-129 929,-129"/>
<text text-anchor="middle" x="957" y="-136" font-family="Helvetica,sans-Serif" font-size="10.00">Image.h</text>
</a>
</g>
</g>
<!-- Node20&#45;&gt;Node22 -->
<g id="edge27" class="edge">
<title>Node20&#45;&gt;Node22</title>
<path fill="none" stroke="midnightblue" d="M945.75,-195.73C947.66,-186.18 950.78,-170.62 953.24,-158.28"/>
<polygon fill="midnightblue" stroke="midnightblue" points="956.75,-158.62 955.27,-148.13 949.88,-157.25 956.75,-158.62"/>
</g>
<!-- Node22&#45;&gt;Node8 -->
<g id="edge30" class="edge">
<title>Node22&#45;&gt;Node8</title>
<path fill="none" stroke="midnightblue" d="M933.13,-128.85C927.24,-126.83 920.92,-124.76 915,-123 851.76,-104.22 833.75,-107.37 771,-87 768.87,-86.31 766.68,-85.55 764.48,-84.75"/>
<polygon fill="midnightblue" stroke="midnightblue" points="765.59,-81.43 755,-81.13 763.09,-87.97 765.59,-81.43"/>
</g>
<!-- Node22&#45;&gt;Node12 -->
<g id="edge31" class="edge">
<title>Node22&#45;&gt;Node12</title>
<path fill="none" stroke="midnightblue" d="M928.7,-133.63C905.86,-130.56 872.89,-126.26 844,-123 687.75,-105.36 504.56,-88.37 403.27,-79.29"/>
<polygon fill="midnightblue" stroke="midnightblue" points="403.39,-75.79 393.12,-78.39 402.77,-82.76 403.39,-75.79"/>
</g>
<!-- Node22&#45;&gt;Node13 -->
<g id="edge32" class="edge">
<title>Node22&#45;&gt;Node13</title>
<path fill="none" stroke="midnightblue" d="M977.15,-128.92C982.56,-126.8 988.45,-124.67 994,-123 1027.52,-112.94 1117.57,-94.62 1176.52,-83.03"/>
<polygon fill="midnightblue" stroke="midnightblue" points="1177.28,-86.45 1186.42,-81.09 1175.93,-79.58 1177.28,-86.45"/>
</g>
<!-- Node23 -->
<g id="node23" class="node">
<title>Node23</title>
<g id="a_node23"><a xlink:title=" ">
<polygon fill="none" stroke="#bfbfbf" points="768.5,-0.5 768.5,-19.5 815.5,-19.5 815.5,-0.5 768.5,-0.5"/>
<text text-anchor="middle" x="792" y="-7.5" font-family="Helvetica,sans-Serif" font-size="10.00">cmath</text>
</a>
</g>
</g>
<!-- Node22&#45;&gt;Node23 -->
<g id="edge28" class="edge">
<title>Node22&#45;&gt;Node23</title>
<path fill="none" stroke="midnightblue" d="M932.6,-128.99C926.83,-127 920.71,-124.91 915,-123 865.82,-106.54 837.68,-126.44 804,-87 790.61,-71.32 789,-46.91 789.84,-30.01"/>
<polygon fill="midnightblue" stroke="midnightblue" points="793.36,-29.96 790.69,-19.7 786.38,-29.38 793.36,-29.96"/>
</g>
<!-- Node24 -->
<g id="node24" class="node">
<title>Node24</title>
<g id="a_node24"><a xlink:title=" ">
<polygon fill="none" stroke="#bfbfbf" points="936.5,-62 936.5,-81 1001.5,-81 1001.5,-62 936.5,-62"/>
<text text-anchor="middle" x="969" y="-69" font-family="Helvetica,sans-Serif" font-size="10.00">functional</text>
</a>
</g>
</g>
<!-- Node22&#45;&gt;Node24 -->
<g id="edge29" class="edge">
<title>Node22&#45;&gt;Node24</title>
<path fill="none" stroke="midnightblue" d="M958.62,-128.73C960.38,-119.18 963.26,-103.62 965.53,-91.28"/>
<polygon fill="midnightblue" stroke="midnightblue" points="969.03,-91.6 967.41,-81.13 962.15,-90.33 969.03,-91.6"/>
</g>
<!-- Node25 -->
<g id="node25" class="node">
<title>Node25</title>
<g id="a_node25"><a xlink:title=" ">
<polygon fill="none" stroke="#bfbfbf" points="1020,-56.5 1020,-86.5 1140,-86.5 1140,-56.5 1020,-56.5"/>
<text text-anchor="start" x="1028" y="-74.5" font-family="Helvetica,sans-Serif" font-size="10.00">carta&#45;protobuf/vector</text>
<text text-anchor="middle" x="1080" y="-63.5" font-family="Helvetica,sans-Serif" font-size="10.00">_overlay_tile.pb.h</text>
</a>
</g>
</g>
<!-- Node22&#45;&gt;Node25 -->
<g id="edge33" class="edge">
<title>Node22&#45;&gt;Node25</title>
<path fill="none" stroke="midnightblue" d="M973.33,-128.87C991.33,-119.36 1020.84,-103.77 1044.26,-91.39"/>
<polygon fill="midnightblue" stroke="midnightblue" points="1046.01,-94.42 1053.22,-86.65 1042.74,-88.23 1046.01,-94.42"/>
</g>
<!-- Node26 -->
<g id="node26" class="node">
<title>Node26</title>
<g id="a_node26"><a xlink:href="Tile_8h.html" target="_top" xlink:title=" ">
<polygon fill="none" stroke="black" points="813.5,-62 813.5,-81 918.5,-81 918.5,-62 813.5,-62"/>
<text text-anchor="middle" x="866" y="-69" font-family="Helvetica,sans-Serif" font-size="10.00">DataStream/Tile.h</text>
</a>
</g>
</g>
<!-- Node22&#45;&gt;Node26 -->
<g id="edge34" class="edge">
<title>Node22&#45;&gt;Node26</title>
<path fill="none" stroke="midnightblue" d="M944.73,-128.73C929.85,-118.11 904.57,-100.05 886.67,-87.26"/>
<polygon fill="midnightblue" stroke="midnightblue" points="888.25,-84.09 878.08,-81.13 884.18,-89.79 888.25,-84.09"/>
</g>
<!-- Node26&#45;&gt;Node23 -->
<g id="edge35" class="edge">
<title>Node26&#45;&gt;Node23</title>
<path fill="none" stroke="midnightblue" d="M855.4,-61.98C843.75,-52.61 824.81,-37.38 810.67,-26.01"/>
<polygon fill="midnightblue" stroke="midnightblue" points="812.57,-23.05 802.58,-19.51 808.18,-28.5 812.57,-23.05"/>
</g>
<!-- Node27 -->
<g id="node27" class="node">
<title>Node27</title>
<g id="a_node27"><a xlink:title=" ">
<polygon fill="none" stroke="#bfbfbf" points="841,-0.5 841,-19.5 891,-19.5 891,-0.5 841,-0.5"/>
<text text-anchor="middle" x="866" y="-7.5" font-family="Helvetica,sans-Serif" font-size="10.00">cstdint</text>
</a>
</g>
</g>
<!-- Node26&#45;&gt;Node27 -->
<g id="edge36" class="edge">
<title>Node26&#45;&gt;Node27</title>
<path fill="none" stroke="midnightblue" d="M866,-61.98C866,-53.58 866,-40.48 866,-29.66"/>
<polygon fill="midnightblue" stroke="midnightblue" points="869.5,-29.51 866,-19.51 862.5,-29.51 869.5,-29.51"/>
</g>
<!-- Node28 -->
<g id="node28" class="node">
<title>Node28</title>
<g id="a_node28"><a xlink:title=" ">
<polygon fill="none" stroke="#bfbfbf" points="1106,-0.5 1106,-19.5 1166,-19.5 1166,-0.5 1106,-0.5"/>
<text text-anchor="middle" x="1136" y="-7.5" font-family="Helvetica,sans-Serif" font-size="10.00">iostream</text>
</a>
</g>
</g>
<!-- Node26&#45;&gt;Node28 -->
<g id="edge37" class="edge">
<title>Node26&#45;&gt;Node28</title>
<path fill="none" stroke="midnightblue" d="M901.45,-61.94C909.82,-59.95 918.72,-57.88 927,-56 985.69,-42.71 1053.87,-28.2 1095.98,-19.35"/>
<polygon fill="midnightblue" stroke="midnightblue" points="1096.78,-22.76 1105.84,-17.28 1095.34,-15.91 1096.78,-22.76"/>
</g>
<!-- Node29&#45;&gt;Node13 -->
<g id="edge45" class="edge">
<title>Node29&#45;&gt;Node13</title>
<path fill="none" stroke="midnightblue" d="M1494.08,-128.94C1439.24,-117.17 1340.63,-96.02 1280.96,-83.22"/>
<polygon fill="midnightblue" stroke="midnightblue" points="1281.52,-79.76 1271.01,-81.08 1280.06,-86.6 1281.52,-79.76"/>
</g>
<!-- Node29&#45;&gt;Node28 -->
<g id="edge39" class="edge">
<title>Node29&#45;&gt;Node28</title>
<path fill="none" stroke="midnightblue" d="M1486.91,-130.07C1448.73,-122.77 1394.34,-109.39 1351,-87 1331.63,-77 1332.47,-65.81 1313,-56 1269,-33.83 1213.2,-22 1176.14,-16.12"/>
<polygon fill="midnightblue" stroke="midnightblue" points="1176.62,-12.65 1166.21,-14.61 1175.57,-19.57 1176.62,-12.65"/>
</g>
<!-- Node30 -->
<g id="node30" class="node">
<title>Node30</title>
<g id="a_node30"><a xlink:title=" ">
<polygon fill="none" stroke="#bfbfbf" points="1360,-62 1360,-81 1464,-81 1464,-62 1360,-62"/>
<text text-anchor="middle" x="1412" y="-69" font-family="Helvetica,sans-Serif" font-size="10.00">spdlog/common.h</text>
</a>
</g>
</g>
<!-- Node29&#45;&gt;Node30 -->
<g id="edge40" class="edge">
<title>Node29&#45;&gt;Node30</title>
<path fill="none" stroke="midnightblue" d="M1517.8,-128.87C1497.2,-117.89 1461.41,-98.82 1437.22,-85.94"/>
<polygon fill="midnightblue" stroke="midnightblue" points="1438.74,-82.78 1428.27,-81.17 1435.45,-88.96 1438.74,-82.78"/>
</g>
<!-- Node31 -->
<g id="node31" class="node">
<title>Node31</title>
<g id="a_node31"><a xlink:title=" ">
<polygon fill="none" stroke="#bfbfbf" points="1482.5,-56.5 1482.5,-86.5 1585.5,-86.5 1585.5,-56.5 1482.5,-56.5"/>
<text text-anchor="start" x="1490.5" y="-74.5" font-family="Helvetica,sans-Serif" font-size="10.00">spdlog/details/log</text>
<text text-anchor="middle" x="1534" y="-63.5" font-family="Helvetica,sans-Serif" font-size="10.00">_msg.h</text>
</a>
</g>
</g>
<!-- Node29&#45;&gt;Node31 -->
<g id="edge41" class="edge">
<title>Node29&#45;&gt;Node31</title>
<path fill="none" stroke="midnightblue" d="M1534,-128.73C1534,-120.54 1534,-107.92 1534,-96.71"/>
<polygon fill="midnightblue" stroke="midnightblue" points="1537.5,-96.59 1534,-86.59 1530.5,-96.59 1537.5,-96.59"/>
</g>
<!-- Node32 -->
<g id="node32" class="node">
<title>Node32</title>
<g id="a_node32"><a xlink:title=" ">
<polygon fill="none" stroke="#bfbfbf" points="1603.5,-56.5 1603.5,-86.5 1722.5,-86.5 1722.5,-56.5 1603.5,-56.5"/>
<text text-anchor="start" x="1611.5" y="-74.5" font-family="Helvetica,sans-Serif" font-size="10.00">spdlog/sinks/rotating</text>
<text text-anchor="middle" x="1663" y="-63.5" font-family="Helvetica,sans-Serif" font-size="10.00">_file_sink.h</text>
</a>
</g>
</g>
<!-- Node29&#45;&gt;Node32 -->
<g id="edge42" class="edge">
<title>Node29&#45;&gt;Node32</title>
<path fill="none" stroke="midnightblue" d="M1551.13,-128.87C1570.09,-119.31 1601.22,-103.63 1625.84,-91.22"/>
<polygon fill="midnightblue" stroke="midnightblue" points="1627.56,-94.28 1634.91,-86.65 1624.41,-88.03 1627.56,-94.28"/>
</g>
<!-- Node33 -->
<g id="node33" class="node">
<title>Node33</title>
<g id="a_node33"><a xlink:title=" ">
<polygon fill="none" stroke="#bfbfbf" points="1740.5,-56.5 1740.5,-86.5 1851.5,-86.5 1851.5,-56.5 1740.5,-56.5"/>
<text text-anchor="start" x="1748.5" y="-74.5" font-family="Helvetica,sans-Serif" font-size="10.00">spdlog/sinks/stdout</text>
<text text-anchor="middle" x="1796" y="-63.5" font-family="Helvetica,sans-Serif" font-size="10.00">_color_sinks.h</text>
</a>
</g>
</g>
<!-- Node29&#45;&gt;Node33 -->
<g id="edge43" class="edge">
<title>Node29&#45;&gt;Node33</title>
<path fill="none" stroke="midnightblue" d="M1568.52,-128.94C1609.56,-118.76 1678.93,-101.54 1730.3,-88.8"/>
<polygon fill="midnightblue" stroke="midnightblue" points="1731.46,-92.12 1740.32,-86.31 1729.78,-85.32 1731.46,-92.12"/>
</g>
<!-- Node34 -->
<g id="node34" class="node">
<title>Node34</title>
<g id="a_node34"><a xlink:title=" ">
<polygon fill="none" stroke="#bfbfbf" points="1869.5,-62 1869.5,-81 1962.5,-81 1962.5,-62 1869.5,-62"/>
<text text-anchor="middle" x="1916" y="-69" font-family="Helvetica,sans-Serif" font-size="10.00">spdlog/spdlog.h</text>
</a>
</g>
</g>
<!-- Node29&#45;&gt;Node34 -->
<g id="edge44" class="edge">
<title>Node29&#45;&gt;Node34</title>
<path fill="none" stroke="midnightblue" d="M1581.12,-131.8C1644.92,-123.72 1762.17,-107.6 1861,-87 1865.82,-86 1870.85,-84.83 1875.83,-83.61"/>
<polygon fill="midnightblue" stroke="midnightblue" points="1877.05,-86.91 1885.88,-81.05 1875.32,-80.13 1877.05,-86.91"/>
</g>
<!-- Node35 -->
<g id="node35" class="node">
<title>Node35</title>
<g id="a_node35"><a xlink:href="FileSystem_8h.html" target="_top" xlink:title=" ">
<polygon fill="none" stroke="black" points="1981,-62 1981,-81 2081,-81 2081,-62 1981,-62"/>
<text text-anchor="middle" x="2031" y="-69" font-family="Helvetica,sans-Serif" font-size="10.00">Util/FileSystem.h</text>
</a>
</g>
</g>
<!-- Node29&#45;&gt;Node35 -->
<g id="edge46" class="edge">
<title>Node29&#45;&gt;Node35</title>
<path fill="none" stroke="midnightblue" d="M1581.28,-134.02C1661.89,-127.64 1830.93,-112.36 1972,-87 1977.58,-86 1983.42,-84.78 1989.16,-83.47"/>
<polygon fill="midnightblue" stroke="midnightblue" points="1990.39,-86.78 1999.31,-81.07 1988.78,-79.97 1990.39,-86.78"/>
</g>
<!-- Node36 -->
<g id="node36" class="node">
<title>Node36</title>
<g id="a_node36"><a xlink:title=" ">
<polygon fill="none" stroke="#bfbfbf" points="1997,-0.5 1997,-19.5 2065,-19.5 2065,-0.5 1997,-0.5"/>
<text text-anchor="middle" x="2031" y="-7.5" font-family="Helvetica,sans-Serif" font-size="10.00">filesystem</text>
</a>
</g>
</g>
<!-- Node35&#45;&gt;Node36 -->
<g id="edge47" class="edge">
<title>Node35&#45;&gt;Node36</title>
<path fill="none" stroke="midnightblue" d="M2031,-61.98C2031,-53.58 2031,-40.48 2031,-29.66"/>
<polygon fill="midnightblue" stroke="midnightblue" points="2034.5,-29.51 2031,-19.51 2027.5,-29.51 2034.5,-29.51"/>
</g>
</g>
</svg>
        <g id="navigator" transform="translate(0 0)" fill="#404254">
                <rect fill="#f2f5e9" fill-opacity="0.5" stroke="#606060" stroke-width=".5" x="0" y="0" width="60" height="60"/>
                <use id="zoomplus" xlink:href="#zoomPlus" x="17" y="9" onmousedown="handleZoom(evt,'in')"/>
                <use id="zoomminus" xlink:href="#zoomMin" x="42" y="9" onmousedown="handleZoom(evt,'out')"/>
                <use id="reset" xlink:href="#resetDef" x="30" y="36" onmousedown="handleReset()"/>
                <g id="arrowUp" xlink:href="#dirArrow" transform="translate(30 24)" onmousedown="handlePan(0,-1)">
                  <use xlink:href="#rim" fill="#404040">
                        <set attributeName="fill" to="#808080" begin="arrowUp.mouseover" end="arrowUp.mouseout"/>
                  </use>
                  <path fill="none" stroke="white" stroke-width="1.5" d="M0,-3.0v7 M-2.5,-0.5L0,-3.0L2.5,-0.5"/>
                </g>
                <g id="arrowRight" xlink:href="#dirArrow" transform="rotate(90) translate(36 -43)" onmousedown="handlePan(1,0)">
                  <use xlink:href="#rim" fill="#404040">
                        <set attributeName="fill" to="#808080" begin="arrowRight.mouseover" end="arrowRight.mouseout"/>
                  </use>
                  <path fill="none" stroke="white" stroke-width="1.5" d="M0,-3.0v7 M-2.5,-0.5L0,-3.0L2.5,-0.5"/>
                </g>
                <g id="arrowDown" xlink:href="#dirArrow" transform="rotate(180) translate(-30 -48)" onmousedown="handlePan(0,1)">
                  <use xlink:href="#rim" fill="#404040">
                        <set attributeName="fill" to="#808080" begin="arrowDown.mouseover" end="arrowDown.mouseout"/>
                  </use>
                  <path fill="none" stroke="white" stroke-width="1.5" d="M0,-3.0v7 M-2.5,-0.5L0,-3.0L2.5,-0.5"/>
                </g>
                <g id="arrowLeft" xlink:href="#dirArrow" transform="rotate(270) translate(-36 17)" onmousedown="handlePan(-1,0)">
                  <use xlink:href="#rim" fill="#404040">
                        <set attributeName="fill" to="#808080" begin="arrowLeft.mouseover" end="arrowLeft.mouseout"/>
                  </use>
                  <path fill="none" stroke="white" stroke-width="1.5" d="M0,-3.0v7 M-2.5,-0.5L0,-3.0L2.5,-0.5"/>
                </g>
        </g>
        <svg viewBox="0 0 15 15" width="100%" height="30px" preserveAspectRatio="xMaxYMin meet">
         <g id="arrow_out" transform="scale(0.3 0.3)">
          <a xlink:href="LoaderCache_8cc__incl_org.svg" target="_base">
           <rect id="button" ry="5" rx="5" y="6" x="6" height="38" width="38"
                fill="#f2f5e9" fill-opacity="0.5" stroke="#606060" stroke-width="1.0"/>
           <path id="arrow"
             d="M 11.500037,31.436501 C 11.940474,20.09759 22.043105,11.32322 32.158766,21.979434 L 37.068811,17.246167 C 37.068811,17.246167 37.088388,32 37.088388,32 L 22.160133,31.978069 C 22.160133,31.978069 26.997745,27.140456 26.997745,27.140456 C 18.528582,18.264221 13.291696,25.230495 11.500037,31.436501 z"
             style="fill:#404040;"/>
          </a>
         </g>
        </svg>
</svg>
