<?xml version="1.0" encoding="UTF-8" standalone="no"?>
<!DOCTYPE svg PUBLIC "-//W3C//DTD SVG 1.1//EN"
 "http://www.w3.org/Graphics/SVG/1.1/DTD/svg11.dtd">
<!-- Generated by graphviz version 2.43.0 (0)
 -->
<!-- Title: main Pages: 1 -->
<svg width="403pt" height="378pt"
 viewBox="0.00 0.00 403.00 377.50" xmlns="http://www.w3.org/2000/svg" xmlns:xlink="http://www.w3.org/1999/xlink">
<g id="graph0" class="graph" transform="scale(1 1) rotate(0) translate(4 373.5)">
<title>main</title>
<!-- Node1 -->
<g id="node1" class="node">
<title>Node1</title>
<g id="a_node1"><a xlink:title=" ">
<polygon fill="#bfbfbf" stroke="black" points="0,-186 0,-205 41,-205 41,-186 0,-186"/>
<text text-anchor="middle" x="20.5" y="-193" font-family="Helvetica,sans-Serif" font-size="10.00">main</text>
</a>
</g>
</g>
<!-- Node2 -->
<g id="node2" class="node">
<title>Node2</title>
<g id="a_node2"><a xlink:href="Casacore_8cc.html#ab60f76f2282c51336d32de6a0e54df6d" target="_top" xlink:title=" ">
<polygon fill="none" stroke="black" points="103.5,-350 103.5,-369 206.5,-369 206.5,-350 103.5,-350"/>
<text text-anchor="middle" x="155" y="-357" font-family="Helvetica,sans-Serif" font-size="10.00">CheckFolderPaths</text>
</a>
</g>
</g>
<!-- Node1&#45;&gt;Node2 -->
<g id="edge1" class="edge">
<title>Node1&#45;&gt;Node2</title>
<path fill="none" stroke="midnightblue" d="M22.23,-205.34C24.71,-231.55 35.18,-303.56 77,-340.5 81.88,-344.81 87.57,-348.17 93.63,-350.8"/>
<polygon fill="midnightblue" stroke="midnightblue" points="92.77,-354.21 103.36,-354.34 95.16,-347.63 92.77,-354.21"/>
</g>
<!-- Node4 -->
<g id="node4" class="node">
<title>Node4</title>
<g id="a_node4"><a xlink:href="App_8cc.html#a41a3266785a8ac3360dd09466acc91c4" target="_top" xlink:title=" ">
<polygon fill="none" stroke="black" points="99.5,-312 99.5,-331 210.5,-331 210.5,-312 99.5,-312"/>
<text text-anchor="middle" x="155" y="-319" font-family="Helvetica,sans-Serif" font-size="10.00">FindExecutablePath</text>
</a>
</g>
</g>
<!-- Node1&#45;&gt;Node4 -->
<g id="edge3" class="edge">
<title>Node1&#45;&gt;Node4</title>
<path fill="none" stroke="midnightblue" d="M23.66,-205.22C28.89,-226.37 44.28,-276.73 77,-302.5 80.85,-305.53 85.13,-308.09 89.63,-310.25"/>
<polygon fill="midnightblue" stroke="midnightblue" points="88.54,-313.59 99.12,-314.13 91.19,-307.11 88.54,-313.59"/>
</g>
<!-- Node5 -->
<g id="node5" class="node">
<title>Node5</title>
<g id="a_node5"><a xlink:href="namespacecarta_1_1logger.html#a7b334512783c98ccfdac74bd38aa2f9f" target="_top" xlink:title=" ">
<polygon fill="none" stroke="black" points="82.5,-274 82.5,-293 227.5,-293 227.5,-274 82.5,-274"/>
<text text-anchor="middle" x="155" y="-281" font-family="Helvetica,sans-Serif" font-size="10.00">carta::logger::FlushLogFile</text>
</a>
</g>
</g>
<!-- Node1&#45;&gt;Node5 -->
<g id="edge4" class="edge">
<title>Node1&#45;&gt;Node5</title>
<path fill="none" stroke="midnightblue" d="M26.54,-205.19C34.91,-220.3 53.15,-249.29 77,-264.5 80.21,-266.55 83.62,-268.37 87.15,-270"/>
<polygon fill="midnightblue" stroke="midnightblue" points="86.16,-273.37 96.74,-273.87 88.78,-266.88 86.16,-273.37"/>
</g>
<!-- Node6 -->
<g id="node6" class="node">
<title>Node6</title>
<g id="a_node6"><a xlink:href="structcarta_1_1ProgramSettings.html#a7237c2ad003dee6fb3d7b72d26f589ed" target="_top" xlink:title=" ">
<polygon fill="none" stroke="black" points="91,-224.5 91,-254.5 219,-254.5 219,-224.5 91,-224.5"/>
<text text-anchor="start" x="99" y="-242.5" font-family="Helvetica,sans-Serif" font-size="10.00">carta::ProgramSettings</text>
<text text-anchor="middle" x="155" y="-231.5" font-family="Helvetica,sans-Serif" font-size="10.00">::FlushMessages</text>
</a>
</g>
</g>
<!-- Node1&#45;&gt;Node6 -->
<g id="edge5" class="edge">
<title>Node1&#45;&gt;Node6</title>
<path fill="none" stroke="midnightblue" d="M41.25,-202.35C51.84,-206 65.12,-210.54 77,-214.5 83.54,-216.68 90.4,-218.94 97.22,-221.18"/>
<polygon fill="midnightblue" stroke="midnightblue" points="96.54,-224.64 107.13,-224.42 98.71,-217.98 96.54,-224.64"/>
</g>
<!-- Node7 -->
<g id="node7" class="node">
<title>Node7</title>
<g id="a_node7"><a xlink:href="namespacecarta_1_1logger.html#a220224f8f0ac091a4555ac30dfc7619d" target="_top" xlink:title=" ">
<polygon fill="none" stroke="black" points="88.5,-186 88.5,-205 221.5,-205 221.5,-186 88.5,-186"/>
<text text-anchor="middle" x="155" y="-193" font-family="Helvetica,sans-Serif" font-size="10.00">carta::logger::InitLogger</text>
</a>
</g>
</g>
<!-- Node1&#45;&gt;Node7 -->
<g id="edge6" class="edge">
<title>Node1&#45;&gt;Node7</title>
<path fill="none" stroke="midnightblue" d="M41.05,-195.5C51.25,-195.5 64.44,-195.5 78.2,-195.5"/>
<polygon fill="midnightblue" stroke="midnightblue" points="78.28,-199 88.28,-195.5 78.28,-192 78.28,-199"/>
</g>
<!-- Node9 -->
<g id="node9" class="node">
<title>Node9</title>
<g id="a_node9"><a xlink:href="Token_8cc.html#a1c7bd166d08982c5d50419e14824833f" target="_top" xlink:title="Create a new authentication token.">
<polygon fill="none" stroke="black" points="110.5,-148 110.5,-167 199.5,-167 199.5,-148 110.5,-148"/>
<text text-anchor="middle" x="155" y="-155" font-family="Helvetica,sans-Serif" font-size="10.00">NewAuthToken</text>
</a>
</g>
</g>
<!-- Node1&#45;&gt;Node9 -->
<g id="edge8" class="edge">
<title>Node1&#45;&gt;Node9</title>
<path fill="none" stroke="midnightblue" d="M41.14,-188.3C51.7,-184.56 64.98,-180.03 77,-176.5 85.17,-174.1 93.88,-171.75 102.39,-169.57"/>
<polygon fill="midnightblue" stroke="midnightblue" points="103.41,-172.92 112.26,-167.09 101.71,-166.13 103.41,-172.92"/>
</g>
<!-- Node10 -->
<g id="node10" class="node">
<title>Node10</title>
<g id="a_node10"><a xlink:href="classcarta_1_1OnMessageTask.html#a02739b73c1885322e23af1e5018c75f8" target="_top" xlink:title=" ">
<polygon fill="none" stroke="black" points="92,-98.5 92,-128.5 218,-128.5 218,-98.5 92,-98.5"/>
<text text-anchor="start" x="100" y="-116.5" font-family="Helvetica,sans-Serif" font-size="10.00">carta::OnMessageTask</text>
<text text-anchor="middle" x="155" y="-105.5" font-family="Helvetica,sans-Serif" font-size="10.00">::SetSessionManager</text>
</a>
</g>
</g>
<!-- Node1&#45;&gt;Node10 -->
<g id="edge9" class="edge">
<title>Node1&#45;&gt;Node10</title>
<path fill="none" stroke="midnightblue" d="M28.65,-185.61C38.29,-172.96 56.59,-151.19 77,-138.5 80.33,-136.43 83.85,-134.51 87.47,-132.74"/>
<polygon fill="midnightblue" stroke="midnightblue" points="88.96,-135.91 96.66,-128.64 86.1,-129.52 88.96,-135.91"/>
</g>
<!-- Node11 -->
<g id="node11" class="node">
<title>Node11</title>
<g id="a_node11"><a xlink:href="classcarta_1_1ThreadManager.html#ad7de732e26f781a6bea5c74a2ec99ca5" target="_top" xlink:title=" ">
<polygon fill="none" stroke="black" points="93,-49.5 93,-79.5 217,-79.5 217,-49.5 93,-49.5"/>
<text text-anchor="start" x="101" y="-67.5" font-family="Helvetica,sans-Serif" font-size="10.00">carta::ThreadManager</text>
<text text-anchor="middle" x="155" y="-56.5" font-family="Helvetica,sans-Serif" font-size="10.00">::SetThreadLimit</text>
</a>
</g>
</g>
<!-- Node1&#45;&gt;Node11 -->
<g id="edge10" class="edge">
<title>Node1&#45;&gt;Node11</title>
<path fill="none" stroke="midnightblue" d="M23.92,-185.73C29.56,-164.93 45.57,-116.03 77,-89.5 79.21,-87.63 81.57,-85.9 84.04,-84.3"/>
<polygon fill="midnightblue" stroke="midnightblue" points="85.8,-87.32 92.76,-79.33 82.34,-81.23 85.8,-87.32"/>
</g>
<!-- Node13 -->
<g id="node13" class="node">
<title>Node13</title>
<g id="a_node13"><a xlink:href="classcarta_1_1ThreadManager.html#abaa6fec6579e667f76e31cdb3ead2d3c" target="_top" xlink:title=" ">
<polygon fill="none" stroke="black" points="77,-0.5 77,-30.5 233,-30.5 233,-0.5 77,-0.5"/>
<text text-anchor="start" x="85" y="-18.5" font-family="Helvetica,sans-Serif" font-size="10.00">carta::ThreadManager</text>
<text text-anchor="middle" x="155" y="-7.5" font-family="Helvetica,sans-Serif" font-size="10.00">::StartEventHandlingThreads</text>
</a>
</g>
</g>
<!-- Node1&#45;&gt;Node13 -->
<g id="edge12" class="edge">
<title>Node1&#45;&gt;Node13</title>
<path fill="none" stroke="midnightblue" d="M22.05,-185.87C24.1,-158.76 33.68,-81.13 77,-39.5 78.1,-38.44 79.25,-37.42 80.45,-36.45"/>
<polygon fill="midnightblue" stroke="midnightblue" points="82.57,-39.24 88.82,-30.68 78.6,-33.47 82.57,-39.24"/>
</g>
<!-- Node3 -->
<g id="node3" class="node">
<title>Node3</title>
<g id="a_node3"><a xlink:href="Casacore_8cc.html#a42ba788ab586bfe63f86aaef57c3d1af" target="_top" xlink:title=" ">
<polygon fill="none" stroke="black" points="289,-350 289,-369 375,-369 375,-350 289,-350"/>
<text text-anchor="middle" x="332" y="-357" font-family="Helvetica,sans-Serif" font-size="10.00">IsSubdirectory</text>
</a>
</g>
</g>
<!-- Node2&#45;&gt;Node3 -->
<g id="edge2" class="edge">
<title>Node2&#45;&gt;Node3</title>
<path fill="none" stroke="midnightblue" d="M206.62,-359.5C229.2,-359.5 255.8,-359.5 278.59,-359.5"/>
<polygon fill="midnightblue" stroke="midnightblue" points="278.77,-363 288.77,-359.5 278.77,-356 278.77,-363"/>
</g>
<!-- Node8 -->
<g id="node8" class="node">
<title>Node8</title>
<g id="a_node8"><a xlink:href="namespacecarta_1_1logger.html#a23c9bf75209165cf69eb8d50f64b81b4" target="_top" xlink:title=" ">
<polygon fill="none" stroke="black" points="274,-180.5 274,-210.5 390,-210.5 390,-180.5 274,-180.5"/>
<text text-anchor="start" x="282" y="-198.5" font-family="Helvetica,sans-Serif" font-size="10.00">carta::logger::log</text>
<text text-anchor="middle" x="332" y="-187.5" font-family="Helvetica,sans-Serif" font-size="10.00">_protocol_messages</text>
</a>
</g>
</g>
<!-- Node7&#45;&gt;Node8 -->
<g id="edge7" class="edge">
<title>Node7&#45;&gt;Node8</title>
<path fill="none" stroke="midnightblue" d="M221.66,-195.5C235.34,-195.5 249.78,-195.5 263.53,-195.5"/>
<polygon fill="midnightblue" stroke="midnightblue" points="263.88,-199 273.88,-195.5 263.88,-192 263.88,-199"/>
</g>
<!-- Node12 -->
<g id="node12" class="node">
<title>Node12</title>
<g id="a_node12"><a xlink:href="classcarta_1_1ThreadManager.html#a82cbb5d8370c091ac96c24d0fc4984dc" target="_top" xlink:title=" ">
<polygon fill="none" stroke="black" points="270,-49.5 270,-79.5 394,-79.5 394,-49.5 270,-49.5"/>
<text text-anchor="start" x="278" y="-67.5" font-family="Helvetica,sans-Serif" font-size="10.00">carta::ThreadManager</text>
<text text-anchor="middle" x="332" y="-56.5" font-family="Helvetica,sans-Serif" font-size="10.00">::ApplyThreadLimit</text>
</a>
</g>
</g>
<!-- Node11&#45;&gt;Node12 -->
<g id="edge11" class="edge">
<title>Node11&#45;&gt;Node12</title>
<path fill="none" stroke="midnightblue" d="M217.21,-64.5C230.93,-64.5 245.6,-64.5 259.69,-64.5"/>
<polygon fill="midnightblue" stroke="midnightblue" points="259.83,-68 269.83,-64.5 259.83,-61 259.83,-68"/>
</g>
<!-- Node14 -->
<g id="node14" class="node">
<title>Node14</title>
<g id="a_node14"><a xlink:href="classcarta_1_1OnMessageTask.html#a210416fd3cf33e08956bb6069d0d134d" target="_top" xlink:title=" ">
<polygon fill="none" stroke="black" points="269,-0.5 269,-30.5 395,-30.5 395,-0.5 269,-0.5"/>
<text text-anchor="start" x="277" y="-18.5" font-family="Helvetica,sans-Serif" font-size="10.00">carta::OnMessageTask</text>
<text text-anchor="middle" x="332" y="-7.5" font-family="Helvetica,sans-Serif" font-size="10.00">::execute</text>
</a>
</g>
</g>
<!-- Node13&#45;&gt;Node14 -->
<g id="edge13" class="edge">
<title>Node13&#45;&gt;Node14</title>
<path fill="none" stroke="midnightblue" d="M233.01,-15.5C241.55,-15.5 250.23,-15.5 258.71,-15.5"/>
<polygon fill="midnightblue" stroke="midnightblue" points="258.93,-19 268.93,-15.5 258.93,-12 258.93,-19"/>
</g>
</g>
</svg>
