<?xml version="1.0" encoding="UTF-8" standalone="no"?>
<!DOCTYPE svg PUBLIC "-//W3C//DTD SVG 1.1//EN"
 "http://www.w3.org/Graphics/SVG/1.1/DTD/svg11.dtd">
<!-- Generated by graphviz version 2.43.0 (0)
 -->
<!-- Title: MomentGenerator.h Pages: 1 -->
<!--zoomable 285 -->
<svg id="main" version="1.1" xmlns="http://www.w3.org/2000/svg" xmlns:xlink="http://www.w3.org/1999/xlink" xml:space="preserve" onload="init(evt)">
<style type="text/css"><![CDATA[
.edge:hover path { stroke: red; }
.edge:hover polygon { stroke: red; fill: red; }
]]></style>
<script type="text/javascript"><![CDATA[
var edges = document.getElementsByTagName('g');
if (edges && edges.length) {
  for (var i=0;i<edges.length;i++) {
    if (edges[i].id.substr(0,4)=='edge') {
      edges[i].setAttribute('class','edge');
    }
  }
}
]]></script>
        <defs>
                <circle id="rim" cx="0" cy="0" r="7"/>
                <circle id="rim2" cx="0" cy="0" r="3.5"/>
                <g id="zoomPlus">
                        <use xlink:href="#rim" fill="#404040">
                                <set attributeName="fill" to="#808080" begin="zoomplus.mouseover" end="zoomplus.mouseout"/>
                        </use>
                        <path d="M-4,0h8M0,-4v8" fill="none" stroke="white" stroke-width="1.5" pointer-events="none"/>
                </g>
                <g id="zoomMin">
                        <use xlink:href="#rim" fill="#404040">
                                <set attributeName="fill" to="#808080" begin="zoomminus.mouseover" end="zoomminus.mouseout"/>
                        </use>
                        <path d="M-4,0h8" fill="none" stroke="white" stroke-width="1.5" pointer-events="none"/>
                </g>
                <g id="dirArrow">
                        <path fill="none" stroke="white" stroke-width="1.5" d="M0,-3.0v7 M-2.5,-0.5L0,-3.0L2.5,-0.5"/>
                </g>
               <g id="resetDef">
                       <use xlink:href="#rim2" fill="#404040">
                               <set attributeName="fill" to="#808080" begin="reset.mouseover" end="reset.mouseout"/>
                       </use>
               </g>
        </defs>

<script type="text/javascript">
var viewWidth = 4590;
var viewHeight = 285;
var sectionId = 'dynsection-0';
</script>
<script xlink:href="svgpan.js"/>
<svg id="graph" class="graph">
<g id="viewport">
<title>MomentGenerator.h</title>
<!-- Node1 -->
<g id="node1" class="node">
<title>Node1</title>
<g id="a_node1"><a xlink:title=" ">
<polygon fill="#bfbfbf" stroke="black" points="607.54,-257.5 607.54,-276.5 721.54,-276.5 721.54,-257.5 607.54,-257.5"/>
<text text-anchor="middle" x="664.54" y="-264.5" font-family="Helvetica,sans-Serif" font-size="10.00">MomentGenerator.h</text>
</a>
</g>
</g>
<!-- Node2 -->
<g id="node2" class="node">
<title>Node2</title>
<g id="a_node2"><a xlink:title=" ">
<polygon fill="none" stroke="#bfbfbf" points="19.04,-56.5 19.04,-86.5 150.04,-86.5 150.04,-56.5 19.04,-56.5"/>
<text text-anchor="start" x="27.04" y="-74.5" font-family="Helvetica,sans-Serif" font-size="10.00">carta&#45;protobuf/moment</text>
<text text-anchor="middle" x="84.54" y="-63.5" font-family="Helvetica,sans-Serif" font-size="10.00">_request.pb.h</text>
</a>
</g>
</g>
<!-- Node1&#45;&gt;Node2 -->
<g id="edge1" class="edge">
<title>Node1&#45;&gt;Node2</title>
<path fill="none" stroke="midnightblue" d="M607.5,-262.44C519.31,-256.34 354.3,-242.46 299.54,-221 230.17,-193.81 225.17,-164.86 163.54,-123 148.04,-112.47 130.5,-101.2 115.9,-91.99"/>
<polygon fill="midnightblue" stroke="midnightblue" points="117.56,-88.89 107.23,-86.54 113.83,-94.82 117.56,-88.89"/>
</g>
<!-- Node3 -->
<g id="node3" class="node">
<title>Node3</title>
<g id="a_node3"><a xlink:title=" ">
<polygon fill="none" stroke="#bfbfbf" points="168.54,-56.5 168.54,-86.5 280.54,-86.5 280.54,-56.5 168.54,-56.5"/>
<text text-anchor="start" x="176.54" y="-74.5" font-family="Helvetica,sans-Serif" font-size="10.00">carta&#45;protobuf/stop</text>
<text text-anchor="middle" x="224.54" y="-63.5" font-family="Helvetica,sans-Serif" font-size="10.00">_moment_calc.pb.h</text>
</a>
</g>
</g>
<!-- Node1&#45;&gt;Node3 -->
<g id="edge2" class="edge">
<title>Node1&#45;&gt;Node3</title>
<path fill="none" stroke="midnightblue" d="M607.47,-258.57C503.5,-243.86 289.34,-207.72 239.54,-154 225.38,-138.73 222.43,-114.66 222.55,-96.64"/>
<polygon fill="midnightblue" stroke="midnightblue" points="226.05,-96.7 222.93,-86.58 219.06,-96.44 226.05,-96.7"/>
</g>
<!-- Node4 -->
<g id="node4" class="node">
<title>Node4</title>
<g id="a_node4"><a xlink:title=" ">
<polygon fill="none" stroke="#bfbfbf" points="651.54,-190.5 651.54,-220.5 835.54,-220.5 835.54,-190.5 651.54,-190.5"/>
<text text-anchor="start" x="659.54" y="-208.5" font-family="Helvetica,sans-Serif" font-size="10.00">imageanalysis/ImageAnalysis</text>
<text text-anchor="middle" x="743.54" y="-197.5" font-family="Helvetica,sans-Serif" font-size="10.00">/ImageMomentsProgressMonitor.h</text>
</a>
</g>
</g>
<!-- Node1&#45;&gt;Node4 -->
<g id="edge3" class="edge">
<title>Node1&#45;&gt;Node4</title>
<path fill="none" stroke="midnightblue" d="M675.85,-257.48C686.45,-249.49 702.7,-237.25 716.62,-226.77"/>
<polygon fill="midnightblue" stroke="midnightblue" points="719.04,-229.33 724.92,-220.52 714.82,-223.74 719.04,-229.33"/>
</g>
<!-- Node5 -->
<g id="node5" class="node">
<title>Node5</title>
<g id="a_node5"><a xlink:title=" ">
<polygon fill="none" stroke="#bfbfbf" points="853.54,-196 853.54,-215 903.54,-215 903.54,-196 853.54,-196"/>
<text text-anchor="middle" x="878.54" y="-203" font-family="Helvetica,sans-Serif" font-size="10.00">chrono</text>
</a>
</g>
</g>
<!-- Node1&#45;&gt;Node5 -->
<g id="edge4" class="edge">
<title>Node1&#45;&gt;Node5</title>
<path fill="none" stroke="midnightblue" d="M706.54,-257.47C743.37,-249.53 798.12,-236.59 844.54,-221 846.45,-220.36 848.41,-219.65 850.37,-218.91"/>
<polygon fill="midnightblue" stroke="midnightblue" points="852.07,-222 860.04,-215.02 849.45,-215.51 852.07,-222"/>
</g>
<!-- Node6 -->
<g id="node6" class="node">
<title>Node6</title>
<g id="a_node6"><a xlink:title=" ">
<polygon fill="none" stroke="#bfbfbf" points="921.54,-196 921.54,-215 969.54,-215 969.54,-196 921.54,-196"/>
<text text-anchor="middle" x="945.54" y="-203" font-family="Helvetica,sans-Serif" font-size="10.00">thread</text>
</a>
</g>
</g>
<!-- Node1&#45;&gt;Node6 -->
<g id="edge5" class="edge">
<title>Node1&#45;&gt;Node6</title>
<path fill="none" stroke="midnightblue" d="M721.58,-259.52C772.43,-252.83 848.51,-240.58 912.54,-221 914.47,-220.41 916.43,-219.74 918.4,-219.02"/>
<polygon fill="midnightblue" stroke="midnightblue" points="920.07,-222.11 928.01,-215.11 917.43,-215.63 920.07,-222.11"/>
</g>
<!-- Node7 -->
<g id="node7" class="node">
<title>Node7</title>
<g id="a_node7"><a xlink:href="ImageGenerator_8h.html" target="_top" xlink:title=" ">
<polygon fill="none" stroke="black" points="33.54,-196 33.54,-215 137.54,-215 137.54,-196 33.54,-196"/>
<text text-anchor="middle" x="85.54" y="-203" font-family="Helvetica,sans-Serif" font-size="10.00">ImageGenerator.h</text>
</a>
</g>
</g>
<!-- Node1&#45;&gt;Node7 -->
<g id="edge6" class="edge">
<title>Node1&#45;&gt;Node7</title>
<path fill="none" stroke="midnightblue" d="M607.46,-262.36C515.01,-256.12 326.9,-241.98 168.54,-221 159.38,-219.79 149.69,-218.29 140.28,-216.72"/>
<polygon fill="midnightblue" stroke="midnightblue" points="140.68,-213.24 130.23,-215 139.5,-220.14 140.68,-213.24"/>
</g>
<!-- Node10 -->
<g id="node10" class="node">
<title>Node10</title>
<g id="a_node10"><a xlink:href="ImageMoments_8h.html" target="_top" xlink:title=" ">
<polygon fill="none" stroke="black" points="2571.54,-196 2571.54,-215 2673.54,-215 2673.54,-196 2571.54,-196"/>
<text text-anchor="middle" x="2622.54" y="-203" font-family="Helvetica,sans-Serif" font-size="10.00">ImageMoments.h</text>
</a>
</g>
</g>
<!-- Node1&#45;&gt;Node10 -->
<g id="edge9" class="edge">
<title>Node1&#45;&gt;Node10</title>
<path fill="none" stroke="midnightblue" d="M721.55,-264.27C1005.79,-255.63 2267.78,-217.28 2561.36,-208.36"/>
<polygon fill="midnightblue" stroke="midnightblue" points="2561.51,-211.86 2571.4,-208.05 2561.29,-204.86 2561.51,-211.86"/>
</g>
<!-- Node57 -->
<g id="node38" class="node">
<title>Node57</title>
<g id="a_node38"><a xlink:href="Region_8h.html" target="_top" xlink:title=" ">
<polygon fill="none" stroke="black" points="537.54,-196 537.54,-215 633.54,-215 633.54,-196 537.54,-196"/>
<text text-anchor="middle" x="585.54" y="-203" font-family="Helvetica,sans-Serif" font-size="10.00">Region/Region.h</text>
</a>
</g>
</g>
<!-- Node1&#45;&gt;Node57 -->
<g id="edge37" class="edge">
<title>Node1&#45;&gt;Node57</title>
<path fill="none" stroke="midnightblue" d="M653.22,-257.48C640.66,-248.02 620.18,-232.6 605.04,-221.19"/>
<polygon fill="midnightblue" stroke="midnightblue" points="606.93,-218.23 596.83,-215.01 602.72,-223.82 606.93,-218.23"/>
</g>
<!-- Node8 -->
<g id="node8" class="node">
<title>Node8</title>
<g id="a_node8"><a xlink:title=" ">
<polygon fill="none" stroke="#bfbfbf" points="16.54,-123.5 16.54,-153.5 154.54,-153.5 154.54,-123.5 16.54,-123.5"/>
<text text-anchor="start" x="24.54" y="-141.5" font-family="Helvetica,sans-Serif" font-size="10.00">casacore/images/Images</text>
<text text-anchor="middle" x="85.54" y="-130.5" font-family="Helvetica,sans-Serif" font-size="10.00">/ImageInterface.h</text>
</a>
</g>
</g>
<!-- Node7&#45;&gt;Node8 -->
<g id="edge7" class="edge">
<title>Node7&#45;&gt;Node8</title>
<path fill="none" stroke="midnightblue" d="M85.54,-195.73C85.54,-187.54 85.54,-174.92 85.54,-163.71"/>
<polygon fill="midnightblue" stroke="midnightblue" points="89.04,-163.59 85.54,-153.59 82.04,-163.59 89.04,-163.59"/>
</g>
<!-- Node9 -->
<g id="node9" class="node">
<title>Node9</title>
<g id="a_node9"><a xlink:title=" ">
<polygon fill="none" stroke="#bfbfbf" points="127.04,-0.5 127.04,-19.5 192.04,-19.5 192.04,-0.5 127.04,-0.5"/>
<text text-anchor="middle" x="159.54" y="-7.5" font-family="Helvetica,sans-Serif" font-size="10.00">functional</text>
</a>
</g>
</g>
<!-- Node7&#45;&gt;Node9 -->
<g id="edge8" class="edge">
<title>Node7&#45;&gt;Node9</title>
<path fill="none" stroke="midnightblue" d="M60.56,-195.84C42.25,-188.02 18.71,-174.55 7.54,-154 -0.52,-139.2 -4.8,-74.67 9.54,-56 34.36,-23.65 81.59,-13.76 116.44,-11.12"/>
<polygon fill="midnightblue" stroke="midnightblue" points="117.04,-14.59 126.82,-10.51 116.64,-7.6 117.04,-14.59"/>
</g>
<!-- Node11 -->
<g id="node11" class="node">
<title>Node11</title>
<g id="a_node11"><a xlink:title=" ">
<polygon fill="none" stroke="#bfbfbf" points="1660.54,-123.5 1660.54,-153.5 1800.54,-153.5 1800.54,-123.5 1660.54,-123.5"/>
<text text-anchor="start" x="1668.54" y="-141.5" font-family="Helvetica,sans-Serif" font-size="10.00">casacore/lattices/Lattices</text>
<text text-anchor="middle" x="1730.54" y="-130.5" font-family="Helvetica,sans-Serif" font-size="10.00">/MaskedLattice.h</text>
</a>
</g>
</g>
<!-- Node10&#45;&gt;Node11 -->
<g id="edge10" class="edge">
<title>Node10&#45;&gt;Node11</title>
<path fill="none" stroke="midnightblue" d="M2571.45,-203.45C2444.42,-200.37 2104,-189.34 1810.66,-154.04"/>
<polygon fill="midnightblue" stroke="midnightblue" points="1811.03,-150.56 1800.68,-152.82 1810.19,-157.5 1811.03,-150.56"/>
</g>
<!-- Node12 -->
<g id="node12" class="node">
<title>Node12</title>
<g id="a_node12"><a xlink:title=" ">
<polygon fill="none" stroke="#bfbfbf" points="1819.04,-123.5 1819.04,-153.5 1980.04,-153.5 1980.04,-123.5 1819.04,-123.5"/>
<text text-anchor="start" x="1827.04" y="-141.5" font-family="Helvetica,sans-Serif" font-size="10.00">casacore/scimath/Functionals</text>
<text text-anchor="middle" x="1899.54" y="-130.5" font-family="Helvetica,sans-Serif" font-size="10.00">/Gaussian1D.h</text>
</a>
</g>
</g>
<!-- Node10&#45;&gt;Node12 -->
<g id="edge11" class="edge">
<title>Node10&#45;&gt;Node12</title>
<path fill="none" stroke="midnightblue" d="M2571.44,-201.86C2465.15,-196.05 2212.29,-180.62 1990.7,-154.21"/>
<polygon fill="midnightblue" stroke="midnightblue" points="1990.85,-150.7 1980.5,-152.98 1990.01,-157.65 1990.85,-150.7"/>
</g>
<!-- Node13 -->
<g id="node13" class="node">
<title>Node13</title>
<g id="a_node13"><a xlink:title=" ">
<polygon fill="none" stroke="#bfbfbf" points="1998.04,-123.5 1998.04,-153.5 2161.04,-153.5 2161.04,-123.5 1998.04,-123.5"/>
<text text-anchor="start" x="2006.04" y="-141.5" font-family="Helvetica,sans-Serif" font-size="10.00">imageanalysis/ImageAnalysis</text>
<text text-anchor="middle" x="2079.54" y="-130.5" font-family="Helvetica,sans-Serif" font-size="10.00">/CasaImageBeamSet.h</text>
</a>
</g>
</g>
<!-- Node10&#45;&gt;Node13 -->
<g id="edge12" class="edge">
<title>Node10&#45;&gt;Node13</title>
<path fill="none" stroke="midnightblue" d="M2571.48,-199.63C2489.3,-191.6 2322.36,-174.56 2171.35,-154.21"/>
<polygon fill="midnightblue" stroke="midnightblue" points="2171.81,-150.74 2161.43,-152.87 2170.87,-157.68 2171.81,-150.74"/>
</g>
<!-- Node14 -->
<g id="node14" class="node">
<title>Node14</title>
<g id="a_node14"><a xlink:title=" ">
<polygon fill="none" stroke="#bfbfbf" points="2179.04,-123.5 2179.04,-153.5 2342.04,-153.5 2342.04,-123.5 2179.04,-123.5"/>
<text text-anchor="start" x="2187.04" y="-141.5" font-family="Helvetica,sans-Serif" font-size="10.00">imageanalysis/ImageAnalysis</text>
<text text-anchor="middle" x="2260.54" y="-130.5" font-family="Helvetica,sans-Serif" font-size="10.00">/ImageHistograms.h</text>
</a>
</g>
</g>
<!-- Node10&#45;&gt;Node14 -->
<g id="edge13" class="edge">
<title>Node10&#45;&gt;Node14</title>
<path fill="none" stroke="midnightblue" d="M2574.84,-195.94C2517.45,-185.63 2419.93,-168.12 2348.7,-155.33"/>
<polygon fill="midnightblue" stroke="midnightblue" points="2349.3,-151.88 2338.83,-153.56 2348.06,-158.77 2349.3,-151.88"/>
</g>
<!-- Node15 -->
<g id="node15" class="node">
<title>Node15</title>
<g id="a_node15"><a xlink:title=" ">
<polygon fill="none" stroke="#bfbfbf" points="2360.04,-123.5 2360.04,-153.5 2523.04,-153.5 2523.04,-123.5 2360.04,-123.5"/>
<text text-anchor="start" x="2368.04" y="-141.5" font-family="Helvetica,sans-Serif" font-size="10.00">imageanalysis/ImageAnalysis</text>
<text text-anchor="middle" x="2441.54" y="-130.5" font-family="Helvetica,sans-Serif" font-size="10.00">/ImageMomentsProgress.h</text>
</a>
</g>
</g>
<!-- Node10&#45;&gt;Node15 -->
<g id="edge14" class="edge">
<title>Node10&#45;&gt;Node15</title>
<path fill="none" stroke="midnightblue" d="M2598.5,-195.87C2570.99,-185.99 2525.21,-169.55 2490.17,-156.97"/>
<polygon fill="midnightblue" stroke="midnightblue" points="2491.19,-153.61 2480.6,-153.53 2488.83,-160.2 2491.19,-153.61"/>
</g>
<!-- Node16 -->
<g id="node16" class="node">
<title>Node16</title>
<g id="a_node16"><a xlink:title=" ">
<polygon fill="none" stroke="#bfbfbf" points="2541.04,-123.5 2541.04,-153.5 2704.04,-153.5 2704.04,-123.5 2541.04,-123.5"/>
<text text-anchor="start" x="2549.04" y="-141.5" font-family="Helvetica,sans-Serif" font-size="10.00">imageanalysis/ImageAnalysis</text>
<text text-anchor="middle" x="2622.54" y="-130.5" font-family="Helvetica,sans-Serif" font-size="10.00">/MomentClip.h</text>
</a>
</g>
</g>
<!-- Node10&#45;&gt;Node16 -->
<g id="edge15" class="edge">
<title>Node10&#45;&gt;Node16</title>
<path fill="none" stroke="midnightblue" d="M2622.54,-195.73C2622.54,-187.54 2622.54,-174.92 2622.54,-163.71"/>
<polygon fill="midnightblue" stroke="midnightblue" points="2626.04,-163.59 2622.54,-153.59 2619.04,-163.59 2626.04,-163.59"/>
</g>
<!-- Node17 -->
<g id="node17" class="node">
<title>Node17</title>
<g id="a_node17"><a xlink:title=" ">
<polygon fill="none" stroke="#bfbfbf" points="2722.04,-123.5 2722.04,-153.5 2885.04,-153.5 2885.04,-123.5 2722.04,-123.5"/>
<text text-anchor="start" x="2730.04" y="-141.5" font-family="Helvetica,sans-Serif" font-size="10.00">imageanalysis/ImageAnalysis</text>
<text text-anchor="middle" x="2803.54" y="-130.5" font-family="Helvetica,sans-Serif" font-size="10.00">/MomentFit.h</text>
</a>
</g>
</g>
<!-- Node10&#45;&gt;Node17 -->
<g id="edge16" class="edge">
<title>Node10&#45;&gt;Node17</title>
<path fill="none" stroke="midnightblue" d="M2646.57,-195.87C2674.08,-185.99 2719.86,-169.55 2754.9,-156.97"/>
<polygon fill="midnightblue" stroke="midnightblue" points="2756.24,-160.2 2764.47,-153.53 2753.88,-153.61 2756.24,-160.2"/>
</g>
<!-- Node18 -->
<g id="node18" class="node">
<title>Node18</title>
<g id="a_node18"><a xlink:title=" ">
<polygon fill="none" stroke="#bfbfbf" points="2903.04,-123.5 2903.04,-153.5 3066.04,-153.5 3066.04,-123.5 2903.04,-123.5"/>
<text text-anchor="start" x="2911.04" y="-141.5" font-family="Helvetica,sans-Serif" font-size="10.00">imageanalysis/ImageAnalysis</text>
<text text-anchor="middle" x="2984.54" y="-130.5" font-family="Helvetica,sans-Serif" font-size="10.00">/MomentWindow.h</text>
</a>
</g>
</g>
<!-- Node10&#45;&gt;Node18 -->
<g id="edge17" class="edge">
<title>Node10&#45;&gt;Node18</title>
<path fill="none" stroke="midnightblue" d="M2670.23,-195.94C2727.63,-185.63 2825.15,-168.12 2896.37,-155.33"/>
<polygon fill="midnightblue" stroke="midnightblue" points="2897.01,-158.77 2906.24,-153.56 2895.78,-151.88 2897.01,-158.77"/>
</g>
<!-- Node19 -->
<g id="node19" class="node">
<title>Node19</title>
<g id="a_node19"><a xlink:title=" ">
<polygon fill="none" stroke="#bfbfbf" points="3084.04,-123.5 3084.04,-153.5 3247.04,-153.5 3247.04,-123.5 3084.04,-123.5"/>
<text text-anchor="start" x="3092.04" y="-141.5" font-family="Helvetica,sans-Serif" font-size="10.00">imageanalysis/ImageAnalysis</text>
<text text-anchor="middle" x="3165.54" y="-130.5" font-family="Helvetica,sans-Serif" font-size="10.00">/MomentsBase.h</text>
</a>
</g>
</g>
<!-- Node10&#45;&gt;Node19 -->
<g id="edge18" class="edge">
<title>Node10&#45;&gt;Node19</title>
<path fill="none" stroke="midnightblue" d="M2673.81,-199.56C2755.93,-191.47 2922.24,-174.39 3073.75,-154.07"/>
<polygon fill="midnightblue" stroke="midnightblue" points="3074.27,-157.53 3083.71,-152.72 3073.33,-150.59 3074.27,-157.53"/>
</g>
<!-- Node20 -->
<g id="node20" class="node">
<title>Node20</title>
<g id="a_node20"><a xlink:title=" ">
<polygon fill="none" stroke="#bfbfbf" points="3265.04,-123.5 3265.04,-153.5 3428.04,-153.5 3428.04,-123.5 3265.04,-123.5"/>
<text text-anchor="start" x="3273.04" y="-141.5" font-family="Helvetica,sans-Serif" font-size="10.00">imageanalysis/ImageAnalysis</text>
<text text-anchor="middle" x="3346.54" y="-130.5" font-family="Helvetica,sans-Serif" font-size="10.00">/SepImageConvolver.h</text>
</a>
</g>
</g>
<!-- Node10&#45;&gt;Node20 -->
<g id="edge19" class="edge">
<title>Node10&#45;&gt;Node20</title>
<path fill="none" stroke="midnightblue" d="M2673.54,-201.79C2779.65,-195.86 3032.09,-180.23 3254.49,-154.06"/>
<polygon fill="midnightblue" stroke="midnightblue" points="3255.21,-157.5 3264.73,-152.85 3254.38,-150.55 3255.21,-157.5"/>
</g>
<!-- Node21 -->
<g id="node21" class="node">
<title>Node21</title>
<g id="a_node21"><a xlink:href="Image2DConvolver_8h.html" target="_top" xlink:title=" ">
<polygon fill="none" stroke="red" points="3446.04,-129 3446.04,-148 3565.04,-148 3565.04,-129 3446.04,-129"/>
<text text-anchor="middle" x="3505.54" y="-136" font-family="Helvetica,sans-Serif" font-size="10.00">Image2DConvolver.h</text>
</a>
</g>
</g>
<!-- Node10&#45;&gt;Node21 -->
<g id="edge20" class="edge">
<title>Node10&#45;&gt;Node21</title>
<path fill="none" stroke="midnightblue" d="M2673.81,-203.96C2802.75,-202.02 3150.66,-193.25 3437.54,-154 3445.02,-152.98 3452.91,-151.59 3460.56,-150.07"/>
<polygon fill="midnightblue" stroke="midnightblue" points="3461.34,-153.48 3470.42,-148.03 3459.92,-146.63 3461.34,-153.48"/>
</g>
<!-- Node56 -->
<g id="node37" class="node">
<title>Node56</title>
<g id="a_node37"><a xlink:href="ImageMoments_8tcc.html" target="_top" xlink:title=" ">
<polygon fill="none" stroke="black" points="3583.54,-129 3583.54,-148 3693.54,-148 3693.54,-129 3583.54,-129"/>
<text text-anchor="middle" x="3638.54" y="-136" font-family="Helvetica,sans-Serif" font-size="10.00">ImageMoments.tcc</text>
</a>
</g>
</g>
<!-- Node10&#45;&gt;Node56 -->
<g id="edge36" class="edge">
<title>Node10&#45;&gt;Node56</title>
<path fill="none" stroke="midnightblue" d="M2673.65,-204.83C2816.7,-205.1 3232.93,-201.41 3574.54,-154 3581.44,-153.04 3588.69,-151.72 3595.74,-150.25"/>
<polygon fill="midnightblue" stroke="midnightblue" points="3596.83,-153.59 3605.85,-148.03 3595.33,-146.76 3596.83,-153.59"/>
</g>
<!-- Node22 -->
<g id="node22" class="node">
<title>Node22</title>
<g id="a_node22"><a xlink:title=" ">
<polygon fill="none" stroke="#bfbfbf" points="2453.54,-62 2453.54,-81 2563.54,-81 2563.54,-62 2453.54,-62"/>
<text text-anchor="middle" x="2508.54" y="-69" font-family="Helvetica,sans-Serif" font-size="10.00">casa/Arrays/Array.h</text>
</a>
</g>
</g>
<!-- Node21&#45;&gt;Node22 -->
<g id="edge21" class="edge">
<title>Node21&#45;&gt;Node22</title>
<path fill="none" stroke="midnightblue" d="M3471.14,-128.99C3460.43,-126.66 3448.55,-124.39 3437.54,-123 3055.8,-74.71 2953.96,-137.72 2572.54,-87 2565.56,-86.07 2558.21,-84.75 2551.09,-83.27"/>
<polygon fill="midnightblue" stroke="midnightblue" points="2551.41,-79.75 2540.89,-81.03 2549.9,-86.59 2551.41,-79.75"/>
</g>
<!-- Node23 -->
<g id="node23" class="node">
<title>Node23</title>
<g id="a_node23"><a xlink:title=" ">
<polygon fill="none" stroke="#bfbfbf" points="2582.04,-62 2582.04,-81 2719.04,-81 2719.04,-62 2582.04,-62"/>
<text text-anchor="middle" x="2650.54" y="-69" font-family="Helvetica,sans-Serif" font-size="10.00">casa/Arrays/ArrayMath.h</text>
</a>
</g>
</g>
<!-- Node21&#45;&gt;Node23 -->
<g id="edge22" class="edge">
<title>Node21&#45;&gt;Node23</title>
<path fill="none" stroke="midnightblue" d="M3470.78,-128.97C3460.17,-126.67 3448.43,-124.43 3437.54,-123 3124.7,-81.97 3041.89,-123.91 2728.54,-87 2719.59,-85.95 2710.13,-84.48 2700.99,-82.89"/>
<polygon fill="midnightblue" stroke="midnightblue" points="2701.33,-79.4 2690.86,-81.05 2700.08,-86.28 2701.33,-79.4"/>
</g>
<!-- Node24 -->
<g id="node24" class="node">
<title>Node24</title>
<g id="a_node24"><a xlink:title=" ">
<polygon fill="none" stroke="#bfbfbf" points="2737.54,-62 2737.54,-81 2865.54,-81 2865.54,-62 2737.54,-62"/>
<text text-anchor="middle" x="2801.54" y="-69" font-family="Helvetica,sans-Serif" font-size="10.00">casa/Arrays/IPosition.h</text>
</a>
</g>
</g>
<!-- Node21&#45;&gt;Node24 -->
<g id="edge23" class="edge">
<title>Node21&#45;&gt;Node24</title>
<path fill="none" stroke="midnightblue" d="M3470.42,-128.99C3459.9,-126.72 3448.3,-124.48 3437.54,-123 3189.15,-88.76 3123.15,-119.5 2874.54,-87 2866.43,-85.94 2857.87,-84.52 2849.58,-82.98"/>
<polygon fill="midnightblue" stroke="midnightblue" points="2850.13,-79.52 2839.64,-81.06 2848.8,-86.39 2850.13,-79.52"/>
</g>
<!-- Node25 -->
<g id="node25" class="node">
<title>Node25</title>
<g id="a_node25"><a xlink:title=" ">
<polygon fill="none" stroke="#bfbfbf" points="2884.04,-62 2884.04,-81 3001.04,-81 3001.04,-62 2884.04,-62"/>
<text text-anchor="middle" x="2942.54" y="-69" font-family="Helvetica,sans-Serif" font-size="10.00">casa/Arrays/Matrix.h</text>
</a>
</g>
</g>
<!-- Node21&#45;&gt;Node25 -->
<g id="edge24" class="edge">
<title>Node21&#45;&gt;Node25</title>
<path fill="none" stroke="midnightblue" d="M3469.69,-128.97C3459.36,-126.76 3448.04,-124.56 3437.54,-123 3249.14,-95.09 3198.93,-114.91 3010.54,-87 3003.31,-85.93 2995.7,-84.56 2988.3,-83.08"/>
<polygon fill="midnightblue" stroke="midnightblue" points="2988.88,-79.63 2978.38,-81.03 2987.46,-86.48 2988.88,-79.63"/>
</g>
<!-- Node26 -->
<g id="node26" class="node">
<title>Node26</title>
<g id="a_node26"><a xlink:title=" ">
<polygon fill="none" stroke="#bfbfbf" points="3019.54,-62 3019.54,-81 3135.54,-81 3135.54,-62 3019.54,-62"/>
<text text-anchor="middle" x="3077.54" y="-69" font-family="Helvetica,sans-Serif" font-size="10.00">casa/Arrays/Vector.h</text>
</a>
</g>
</g>
<!-- Node21&#45;&gt;Node26 -->
<g id="edge25" class="edge">
<title>Node21&#45;&gt;Node26</title>
<path fill="none" stroke="midnightblue" d="M3468.24,-128.93C3458.29,-126.81 3447.54,-124.68 3437.54,-123 3308.14,-101.3 3273.9,-108.9 3144.54,-87 3137.83,-85.87 3130.79,-84.52 3123.89,-83.1"/>
<polygon fill="midnightblue" stroke="midnightblue" points="3124.44,-79.64 3113.93,-81.01 3122.99,-86.49 3124.44,-79.64"/>
</g>
<!-- Node27 -->
<g id="node27" class="node">
<title>Node27</title>
<g id="a_node27"><a xlink:title=" ">
<polygon fill="none" stroke="#bfbfbf" points="3153.54,-62 3153.54,-81 3283.54,-81 3283.54,-62 3153.54,-62"/>
<text text-anchor="middle" x="3218.54" y="-69" font-family="Helvetica,sans-Serif" font-size="10.00">casa/Exceptions/Error.h</text>
</a>
</g>
</g>
<!-- Node21&#45;&gt;Node27 -->
<g id="edge26" class="edge">
<title>Node21&#45;&gt;Node27</title>
<path fill="none" stroke="midnightblue" d="M3467.72,-128.94C3415.88,-117.2 3322.76,-96.11 3266.21,-83.3"/>
<polygon fill="midnightblue" stroke="midnightblue" points="3266.96,-79.88 3256.44,-81.08 3265.41,-86.71 3266.96,-79.88"/>
</g>
<!-- Node28 -->
<g id="node28" class="node">
<title>Node28</title>
<g id="a_node28"><a xlink:title=" ">
<polygon fill="none" stroke="#bfbfbf" points="3301.54,-62 3301.54,-81 3421.54,-81 3421.54,-62 3301.54,-62"/>
<text text-anchor="middle" x="3361.54" y="-69" font-family="Helvetica,sans-Serif" font-size="10.00">casa/Logging/LogIO.h</text>
</a>
</g>
</g>
<!-- Node21&#45;&gt;Node28 -->
<g id="edge27" class="edge">
<title>Node21&#45;&gt;Node28</title>
<path fill="none" stroke="midnightblue" d="M3486.41,-128.87C3461.78,-117.75 3418.73,-98.32 3390.18,-85.43"/>
<polygon fill="midnightblue" stroke="midnightblue" points="3391.29,-82.09 3380.74,-81.17 3388.41,-88.47 3391.29,-82.09"/>
</g>
<!-- Node29 -->
<g id="node29" class="node">
<title>Node29</title>
<g id="a_node29"><a xlink:title=" ">
<polygon fill="none" stroke="#bfbfbf" points="3439.54,-62 3439.54,-81 3571.54,-81 3571.54,-62 3439.54,-62"/>
<text text-anchor="middle" x="3505.54" y="-69" font-family="Helvetica,sans-Serif" font-size="10.00">casa/Quanta/MVAngle.h</text>
</a>
</g>
</g>
<!-- Node21&#45;&gt;Node29 -->
<g id="edge28" class="edge">
<title>Node21&#45;&gt;Node29</title>
<path fill="none" stroke="midnightblue" d="M3505.54,-128.73C3505.54,-119.18 3505.54,-103.62 3505.54,-91.28"/>
<polygon fill="midnightblue" stroke="midnightblue" points="3509.04,-91.13 3505.54,-81.13 3502.04,-91.13 3509.04,-91.13"/>
</g>
<!-- Node30 -->
<g id="node30" class="node">
<title>Node30</title>
<g id="a_node30"><a xlink:title=" ">
<polygon fill="none" stroke="#bfbfbf" points="3590.04,-62 3590.04,-81 3721.04,-81 3721.04,-62 3590.04,-62"/>
<text text-anchor="middle" x="3655.54" y="-69" font-family="Helvetica,sans-Serif" font-size="10.00">casa/Quanta/QLogical.h</text>
</a>
</g>
</g>
<!-- Node21&#45;&gt;Node30 -->
<g id="edge29" class="edge">
<title>Node21&#45;&gt;Node30</title>
<path fill="none" stroke="midnightblue" d="M3525.45,-128.87C3551.23,-117.7 3596.35,-98.15 3626.09,-85.26"/>
<polygon fill="midnightblue" stroke="midnightblue" points="3627.75,-88.35 3635.53,-81.17 3624.97,-81.93 3627.75,-88.35"/>
</g>
<!-- Node31 -->
<g id="node31" class="node">
<title>Node31</title>
<g id="a_node31"><a xlink:title=" ">
<polygon fill="none" stroke="#bfbfbf" points="3739.54,-62 3739.54,-81 3873.54,-81 3873.54,-62 3739.54,-62"/>
<text text-anchor="middle" x="3806.54" y="-69" font-family="Helvetica,sans-Serif" font-size="10.00">casa/Quanta/Quantum.h</text>
</a>
</g>
</g>
<!-- Node21&#45;&gt;Node31 -->
<g id="edge30" class="edge">
<title>Node21&#45;&gt;Node31</title>
<path fill="none" stroke="midnightblue" d="M3545.2,-128.94C3599.67,-117.17 3697.63,-96.02 3756.91,-83.22"/>
<polygon fill="midnightblue" stroke="midnightblue" points="3757.75,-86.62 3766.79,-81.08 3756.27,-79.77 3757.75,-86.62"/>
</g>
<!-- Node32 -->
<g id="node32" class="node">
<title>Node32</title>
<g id="a_node32"><a xlink:title=" ">
<polygon fill="none" stroke="#bfbfbf" points="3891.54,-62 3891.54,-81 4001.54,-81 4001.54,-62 3891.54,-62"/>
<text text-anchor="middle" x="3946.54" y="-69" font-family="Helvetica,sans-Serif" font-size="10.00">casa/Quanta/Unit.h</text>
</a>
</g>
</g>
<!-- Node21&#45;&gt;Node32 -->
<g id="edge31" class="edge">
<title>Node21&#45;&gt;Node32</title>
<path fill="none" stroke="midnightblue" d="M3543.02,-128.98C3553.21,-126.84 3564.27,-124.68 3574.54,-123 3710.56,-100.81 3746.69,-110.26 3882.54,-87 3888.87,-85.91 3895.53,-84.6 3902.05,-83.22"/>
<polygon fill="midnightblue" stroke="midnightblue" points="3903.11,-86.57 3912.13,-81 3901.61,-79.73 3903.11,-86.57"/>
</g>
<!-- Node33 -->
<g id="node33" class="node">
<title>Node33</title>
<g id="a_node33"><a xlink:title=" ">
<polygon fill="none" stroke="#bfbfbf" points="4020.04,-62 4020.04,-81 4091.04,-81 4091.04,-62 4020.04,-62"/>
<text text-anchor="middle" x="4055.54" y="-69" font-family="Helvetica,sans-Serif" font-size="10.00">casa/aips.h</text>
</a>
</g>
</g>
<!-- Node21&#45;&gt;Node33 -->
<g id="edge32" class="edge">
<title>Node21&#45;&gt;Node33</title>
<path fill="none" stroke="midnightblue" d="M3541.91,-128.97C3552.39,-126.75 3563.88,-124.55 3574.54,-123 3766.94,-94.95 3819.86,-125.07 4010.54,-87 4014.5,-86.21 4018.6,-85.19 4022.64,-84.05"/>
<polygon fill="midnightblue" stroke="midnightblue" points="4023.9,-87.32 4032.45,-81.06 4021.86,-80.63 4023.9,-87.32"/>
</g>
<!-- Node34 -->
<g id="node34" class="node">
<title>Node34</title>
<g id="a_node34"><a xlink:title=" ">
<polygon fill="none" stroke="#bfbfbf" points="4109.04,-62 4109.04,-81 4204.04,-81 4204.04,-62 4109.04,-62"/>
<text text-anchor="middle" x="4156.54" y="-69" font-family="Helvetica,sans-Serif" font-size="10.00">casa/iostream.h</text>
</a>
</g>
</g>
<!-- Node21&#45;&gt;Node34 -->
<g id="edge33" class="edge">
<title>Node21&#45;&gt;Node34</title>
<path fill="none" stroke="midnightblue" d="M3541.54,-128.95C3552.12,-126.7 3563.74,-124.5 3574.54,-123 3806.64,-90.83 3869.24,-124.53 4100.54,-87 4106.11,-86.1 4111.94,-84.89 4117.64,-83.55"/>
<polygon fill="midnightblue" stroke="midnightblue" points="4118.83,-86.87 4127.69,-81.06 4117.14,-80.07 4118.83,-86.87"/>
</g>
<!-- Node35 -->
<g id="node35" class="node">
<title>Node35</title>
<g id="a_node35"><a xlink:title=" ">
<polygon fill="none" stroke="#bfbfbf" points="4222.04,-56.5 4222.04,-86.5 4393.04,-86.5 4393.04,-56.5 4222.04,-56.5"/>
<text text-anchor="start" x="4230.04" y="-74.5" font-family="Helvetica,sans-Serif" font-size="10.00">components/ComponentModels</text>
<text text-anchor="middle" x="4307.54" y="-63.5" font-family="Helvetica,sans-Serif" font-size="10.00">/GaussianDeconvolver.h</text>
</a>
</g>
</g>
<!-- Node21&#45;&gt;Node35 -->
<g id="edge34" class="edge">
<title>Node21&#45;&gt;Node35</title>
<path fill="none" stroke="midnightblue" d="M3541.17,-128.94C3551.84,-126.67 3563.61,-124.45 3574.54,-123 3853.22,-86.08 3928.88,-116 4211.87,-87.1"/>
<polygon fill="midnightblue" stroke="midnightblue" points="4212.44,-90.56 4222.02,-86.05 4211.72,-83.6 4212.44,-90.56"/>
</g>
<!-- Node36 -->
<g id="node36" class="node">
<title>Node36</title>
<g id="a_node36"><a xlink:title=" ">
<polygon fill="none" stroke="#bfbfbf" points="4411.04,-56.5 4411.04,-86.5 4582.04,-86.5 4582.04,-56.5 4411.04,-56.5"/>
<text text-anchor="start" x="4419.04" y="-74.5" font-family="Helvetica,sans-Serif" font-size="10.00">components/ComponentModels</text>
<text text-anchor="middle" x="4496.54" y="-63.5" font-family="Helvetica,sans-Serif" font-size="10.00">/GaussianShape.h</text>
</a>
</g>
</g>
<!-- Node21&#45;&gt;Node36 -->
<g id="edge35" class="edge">
<title>Node21&#45;&gt;Node36</title>
<path fill="none" stroke="midnightblue" d="M3540.8,-128.93C3551.57,-126.63 3563.48,-124.39 3574.54,-123 3936.7,-77.39 4034.21,-122.31 4400.93,-87.08"/>
<polygon fill="midnightblue" stroke="midnightblue" points="4401.42,-90.55 4411.03,-86.1 4400.74,-83.58 4401.42,-90.55"/>
</g>
<!-- Node58 -->
<g id="node39" class="node">
<title>Node58</title>
<g id="a_node39"><a xlink:title=" ">
<polygon fill="none" stroke="#bfbfbf" points="432.54,-129 432.54,-148 482.54,-148 482.54,-129 432.54,-129"/>
<text text-anchor="middle" x="457.54" y="-136" font-family="Helvetica,sans-Serif" font-size="10.00">atomic</text>
</a>
</g>
</g>
<!-- Node57&#45;&gt;Node58 -->
<g id="edge38" class="edge">
<title>Node57&#45;&gt;Node58</title>
<path fill="none" stroke="midnightblue" d="M568.54,-195.87C546.83,-184.84 509.04,-165.66 483.66,-152.77"/>
<polygon fill="midnightblue" stroke="midnightblue" points="485.1,-149.57 474.6,-148.17 481.94,-155.82 485.1,-149.57"/>
</g>
<!-- Node59 -->
<g id="node40" class="node">
<title>Node59</title>
<g id="a_node40"><a xlink:title=" ">
<polygon fill="none" stroke="#bfbfbf" points="500.54,-129 500.54,-148 586.54,-148 586.54,-129 500.54,-129"/>
<text text-anchor="middle" x="543.54" y="-136" font-family="Helvetica,sans-Serif" font-size="10.00">shared_mutex</text>
</a>
</g>
</g>
<!-- Node57&#45;&gt;Node59 -->
<g id="edge39" class="edge">
<title>Node57&#45;&gt;Node59</title>
<path fill="none" stroke="midnightblue" d="M579.87,-195.73C573.45,-185.79 562.82,-169.34 554.71,-156.79"/>
<polygon fill="midnightblue" stroke="midnightblue" points="557.48,-154.63 549.11,-148.13 551.6,-158.43 557.48,-154.63"/>
</g>
<!-- Node60 -->
<g id="node41" class="node">
<title>Node60</title>
<g id="a_node41"><a xlink:title=" ">
<polygon fill="none" stroke="#bfbfbf" points="348.54,-0.5 348.54,-19.5 392.54,-19.5 392.54,-0.5 348.54,-0.5"/>
<text text-anchor="middle" x="370.54" y="-7.5" font-family="Helvetica,sans-Serif" font-size="10.00">string</text>
</a>
</g>
</g>
<!-- Node57&#45;&gt;Node60 -->
<g id="edge40" class="edge">
<title>Node57&#45;&gt;Node60</title>
<path fill="none" stroke="midnightblue" d="M537.32,-200.72C501.72,-195.52 454.31,-183.2 423.54,-154 414.14,-145.08 388.12,-66.19 376.4,-29.55"/>
<polygon fill="midnightblue" stroke="midnightblue" points="379.62,-28.13 373.25,-19.66 372.95,-30.25 379.62,-28.13"/>
</g>
<!-- Node61 -->
<g id="node42" class="node">
<title>Node61</title>
<g id="a_node42"><a xlink:title=" ">
<polygon fill="none" stroke="#bfbfbf" points="605.04,-129 605.04,-148 652.04,-148 652.04,-129 605.04,-129"/>
<text text-anchor="middle" x="628.54" y="-136" font-family="Helvetica,sans-Serif" font-size="10.00">vector</text>
</a>
</g>
</g>
<!-- Node57&#45;&gt;Node61 -->
<g id="edge41" class="edge">
<title>Node57&#45;&gt;Node61</title>
<path fill="none" stroke="midnightblue" d="M591.34,-195.73C597.91,-185.79 608.8,-169.34 617.1,-156.79"/>
<polygon fill="midnightblue" stroke="midnightblue" points="620.23,-158.4 622.83,-148.13 614.39,-154.54 620.23,-158.4"/>
</g>
<!-- Node62 -->
<g id="node43" class="node">
<title>Node62</title>
<g id="a_node43"><a xlink:title=" ">
<polygon fill="none" stroke="#bfbfbf" points="670.54,-123.5 670.54,-153.5 850.54,-153.5 850.54,-123.5 670.54,-123.5"/>
<text text-anchor="start" x="678.54" y="-141.5" font-family="Helvetica,sans-Serif" font-size="10.00">casacore/coordinates</text>
<text text-anchor="middle" x="760.54" y="-130.5" font-family="Helvetica,sans-Serif" font-size="10.00">/Coordinates/CoordinateSystem.h</text>
</a>
</g>
</g>
<!-- Node57&#45;&gt;Node62 -->
<g id="edge42" class="edge">
<title>Node57&#45;&gt;Node62</title>
<path fill="none" stroke="midnightblue" d="M608.77,-195.87C635.26,-186.03 679.26,-169.69 713.08,-157.13"/>
<polygon fill="midnightblue" stroke="midnightblue" points="714.61,-160.29 722.77,-153.53 712.18,-153.73 714.61,-160.29"/>
</g>
<!-- Node63 -->
<g id="node44" class="node">
<title>Node63</title>
<g id="a_node44"><a xlink:title=" ">
<polygon fill="none" stroke="#bfbfbf" points="869.04,-123.5 869.04,-153.5 1010.04,-153.5 1010.04,-123.5 869.04,-123.5"/>
<text text-anchor="start" x="877.04" y="-141.5" font-family="Helvetica,sans-Serif" font-size="10.00">casacore/images/Regions</text>
<text text-anchor="middle" x="939.54" y="-130.5" font-family="Helvetica,sans-Serif" font-size="10.00">/WCRegion.h</text>
</a>
</g>
</g>
<!-- Node57&#45;&gt;Node63 -->
<g id="edge43" class="edge">
<title>Node57&#45;&gt;Node63</title>
<path fill="none" stroke="midnightblue" d="M617.08,-195.97C625.33,-193.88 634.24,-191.74 642.54,-190 735.13,-170.58 761.53,-170.69 858.91,-154.08"/>
<polygon fill="midnightblue" stroke="midnightblue" points="859.61,-157.51 868.88,-152.37 858.43,-150.61 859.61,-157.51"/>
</g>
<!-- Node64 -->
<g id="node45" class="node">
<title>Node64</title>
<g id="a_node45"><a xlink:title=" ">
<polygon fill="none" stroke="#bfbfbf" points="1028.54,-123.5 1028.54,-153.5 1174.54,-153.5 1174.54,-123.5 1028.54,-123.5"/>
<text text-anchor="start" x="1036.54" y="-141.5" font-family="Helvetica,sans-Serif" font-size="10.00">casacore/lattices/LRegions</text>
<text text-anchor="middle" x="1101.54" y="-130.5" font-family="Helvetica,sans-Serif" font-size="10.00">/LCPolygon.h</text>
</a>
</g>
</g>
<!-- Node57&#45;&gt;Node64 -->
<g id="edge44" class="edge">
<title>Node57&#45;&gt;Node64</title>
<path fill="none" stroke="midnightblue" d="M615.52,-195.95C624.18,-193.74 633.68,-191.54 642.54,-190 804.78,-161.77 850.44,-175.9 1018.35,-153.94"/>
<polygon fill="midnightblue" stroke="midnightblue" points="1018.81,-157.41 1028.26,-152.62 1017.89,-150.47 1018.81,-157.41"/>
</g>
<!-- Node65 -->
<g id="node46" class="node">
<title>Node65</title>
<g id="a_node46"><a xlink:title=" ">
<polygon fill="none" stroke="#bfbfbf" points="1192.54,-123.5 1192.54,-153.5 1338.54,-153.5 1338.54,-123.5 1192.54,-123.5"/>
<text text-anchor="start" x="1200.54" y="-141.5" font-family="Helvetica,sans-Serif" font-size="10.00">casacore/lattices/LRegions</text>
<text text-anchor="middle" x="1265.54" y="-130.5" font-family="Helvetica,sans-Serif" font-size="10.00">/LCRegion.h</text>
</a>
</g>
</g>
<!-- Node57&#45;&gt;Node65 -->
<g id="edge45" class="edge">
<title>Node57&#45;&gt;Node65</title>
<path fill="none" stroke="midnightblue" d="M614.91,-195.94C623.72,-193.66 633.46,-191.44 642.54,-190 877.27,-152.66 942.54,-182.19 1182.21,-154.06"/>
<polygon fill="midnightblue" stroke="midnightblue" points="1182.76,-157.52 1192.28,-152.86 1181.93,-150.57 1182.76,-157.52"/>
</g>
<!-- Node66 -->
<g id="node47" class="node">
<title>Node66</title>
<g id="a_node47"><a xlink:title=" ">
<polygon fill="none" stroke="#bfbfbf" points="1356.54,-123.5 1356.54,-153.5 1496.54,-153.5 1496.54,-123.5 1356.54,-123.5"/>
<text text-anchor="start" x="1364.54" y="-141.5" font-family="Helvetica,sans-Serif" font-size="10.00">casacore/lattices/Lattices</text>
<text text-anchor="middle" x="1426.54" y="-130.5" font-family="Helvetica,sans-Serif" font-size="10.00">/ArrayLattice.h</text>
</a>
</g>
</g>
<!-- Node57&#45;&gt;Node66 -->
<g id="edge46" class="edge">
<title>Node57&#45;&gt;Node66</title>
<path fill="none" stroke="midnightblue" d="M614.6,-195.93C623.49,-193.62 633.35,-191.39 642.54,-190 949.42,-143.6 1034.1,-189.39 1346.15,-154.04"/>
<polygon fill="midnightblue" stroke="midnightblue" points="1346.86,-157.49 1356.4,-152.86 1346.06,-150.53 1346.86,-157.49"/>
</g>
<!-- Node67 -->
<g id="node48" class="node">
<title>Node67</title>
<g id="a_node48"><a xlink:title=" ">
<polygon fill="none" stroke="#bfbfbf" points="1515.04,-123.5 1515.04,-153.5 1642.04,-153.5 1642.04,-123.5 1515.04,-123.5"/>
<text text-anchor="start" x="1523.04" y="-141.5" font-family="Helvetica,sans-Serif" font-size="10.00">casacore/tables/Tables</text>
<text text-anchor="middle" x="1578.54" y="-130.5" font-family="Helvetica,sans-Serif" font-size="10.00">/TableRecord.h</text>
</a>
</g>
</g>
<!-- Node57&#45;&gt;Node67 -->
<g id="edge47" class="edge">
<title>Node57&#45;&gt;Node67</title>
<path fill="none" stroke="midnightblue" d="M614.3,-195.95C623.27,-193.62 633.24,-191.36 642.54,-190 1019.13,-134.86 1122.59,-198.43 1504.98,-153.91"/>
<polygon fill="midnightblue" stroke="midnightblue" points="1505.41,-157.38 1514.93,-152.74 1504.59,-150.43 1505.41,-157.38"/>
</g>
<!-- Node68 -->
<g id="node49" class="node">
<title>Node68</title>
<g id="a_node49"><a xlink:href="Image_8h.html" target="_top" xlink:title=" ">
<polygon fill="none" stroke="red" points="299.04,-62 299.04,-81 376.04,-81 376.04,-62 299.04,-62"/>
<text text-anchor="middle" x="337.54" y="-69" font-family="Helvetica,sans-Serif" font-size="10.00">Util/Image.h</text>
</a>
</g>
</g>
<!-- Node57&#45;&gt;Node68 -->
<g id="edge48" class="edge">
<title>Node57&#45;&gt;Node68</title>
<path fill="none" stroke="midnightblue" d="M537.33,-201.73C495.13,-197.19 433.96,-185.25 390.54,-154 368.22,-137.94 352.84,-109.31 344.61,-90.61"/>
<polygon fill="midnightblue" stroke="midnightblue" points="347.75,-89.05 340.68,-81.16 341.28,-91.74 347.75,-89.05"/>
</g>
<!-- Node76 -->
<g id="node50" class="node">
<title>Node76</title>
<g id="a_node50"><a xlink:href="Message_8h.html" target="_top" xlink:title=" ">
<polygon fill="none" stroke="red" points="249.04,-129 249.04,-148 338.04,-148 338.04,-129 249.04,-129"/>
<text text-anchor="middle" x="293.54" y="-136" font-family="Helvetica,sans-Serif" font-size="10.00">Util/Message.h</text>
</a>
</g>
</g>
<!-- Node57&#45;&gt;Node76 -->
<g id="edge51" class="edge">
<title>Node57&#45;&gt;Node76</title>
<path fill="none" stroke="midnightblue" d="M544.63,-195.99C498.05,-186.22 419.68,-169.52 352.54,-154 347.59,-152.86 342.42,-151.63 337.28,-150.39"/>
<polygon fill="midnightblue" stroke="midnightblue" points="338.05,-146.98 327.5,-148.02 336.4,-153.78 338.05,-146.98"/>
</g>
<!-- Node68&#45;&gt;Node9 -->
<g id="edge49" class="edge">
<title>Node68&#45;&gt;Node9</title>
<path fill="none" stroke="midnightblue" d="M312.03,-61.98C281.24,-51.68 229.27,-34.31 194.69,-22.75"/>
<polygon fill="midnightblue" stroke="midnightblue" points="195.59,-19.36 184.99,-19.51 193.37,-26 195.59,-19.36"/>
</g>
<!-- Node68&#45;&gt;Node60 -->
<g id="edge50" class="edge">
<title>Node68&#45;&gt;Node60</title>
<path fill="none" stroke="midnightblue" d="M342.26,-61.98C347.12,-53.23 354.8,-39.37 360.94,-28.31"/>
<polygon fill="midnightblue" stroke="midnightblue" points="364.03,-29.95 365.82,-19.51 357.91,-26.56 364.03,-29.95"/>
</g>
<!-- Node76&#45;&gt;Node2 -->
<g id="edge52" class="edge">
<title>Node76&#45;&gt;Node2</title>
<path fill="none" stroke="midnightblue" d="M265.78,-128.87C233.67,-118.88 180.02,-102.2 139.4,-89.56"/>
<polygon fill="midnightblue" stroke="midnightblue" points="140.23,-86.16 129.64,-86.53 138.15,-92.84 140.23,-86.16"/>
</g>
<!-- Node76&#45;&gt;Node3 -->
<g id="edge53" class="edge">
<title>Node76&#45;&gt;Node3</title>
<path fill="none" stroke="midnightblue" d="M284.23,-128.73C274.73,-119.78 259.61,-105.54 246.97,-93.63"/>
<polygon fill="midnightblue" stroke="midnightblue" points="249.17,-90.9 239.49,-86.59 244.37,-95.99 249.17,-90.9"/>
</g>
<!-- Node76&#45;&gt;Node68 -->
<g id="edge54" class="edge">
<title>Node76&#45;&gt;Node68</title>
<path fill="none" stroke="midnightblue" d="M299.47,-128.73C306.27,-118.7 317.56,-102.01 326.08,-89.42"/>
<polygon fill="midnightblue" stroke="midnightblue" points="328.99,-91.37 331.7,-81.13 323.19,-87.45 328.99,-91.37"/>
</g>
</g>
</svg>
        <g id="navigator" transform="translate(0 0)" fill="#404254">
                <rect fill="#f2f5e9" fill-opacity="0.5" stroke="#606060" stroke-width=".5" x="0" y="0" width="60" height="60"/>
                <use id="zoomplus" xlink:href="#zoomPlus" x="17" y="9" onmousedown="handleZoom(evt,'in')"/>
                <use id="zoomminus" xlink:href="#zoomMin" x="42" y="9" onmousedown="handleZoom(evt,'out')"/>
                <use id="reset" xlink:href="#resetDef" x="30" y="36" onmousedown="handleReset()"/>
                <g id="arrowUp" xlink:href="#dirArrow" transform="translate(30 24)" onmousedown="handlePan(0,-1)">
                  <use xlink:href="#rim" fill="#404040">
                        <set attributeName="fill" to="#808080" begin="arrowUp.mouseover" end="arrowUp.mouseout"/>
                  </use>
                  <path fill="none" stroke="white" stroke-width="1.5" d="M0,-3.0v7 M-2.5,-0.5L0,-3.0L2.5,-0.5"/>
                </g>
                <g id="arrowRight" xlink:href="#dirArrow" transform="rotate(90) translate(36 -43)" onmousedown="handlePan(1,0)">
                  <use xlink:href="#rim" fill="#404040">
                        <set attributeName="fill" to="#808080" begin="arrowRight.mouseover" end="arrowRight.mouseout"/>
                  </use>
                  <path fill="none" stroke="white" stroke-width="1.5" d="M0,-3.0v7 M-2.5,-0.5L0,-3.0L2.5,-0.5"/>
                </g>
                <g id="arrowDown" xlink:href="#dirArrow" transform="rotate(180) translate(-30 -48)" onmousedown="handlePan(0,1)">
                  <use xlink:href="#rim" fill="#404040">
                        <set attributeName="fill" to="#808080" begin="arrowDown.mouseover" end="arrowDown.mouseout"/>
                  </use>
                  <path fill="none" stroke="white" stroke-width="1.5" d="M0,-3.0v7 M-2.5,-0.5L0,-3.0L2.5,-0.5"/>
                </g>
                <g id="arrowLeft" xlink:href="#dirArrow" transform="rotate(270) translate(-36 17)" onmousedown="handlePan(-1,0)">
                  <use xlink:href="#rim" fill="#404040">
                        <set attributeName="fill" to="#808080" begin="arrowLeft.mouseover" end="arrowLeft.mouseout"/>
                  </use>
                  <path fill="none" stroke="white" stroke-width="1.5" d="M0,-3.0v7 M-2.5,-0.5L0,-3.0L2.5,-0.5"/>
                </g>
        </g>
        <svg viewBox="0 0 15 15" width="100%" height="30px" preserveAspectRatio="xMaxYMin meet">
         <g id="arrow_out" transform="scale(0.3 0.3)">
          <a xlink:href="MomentGenerator_8h__incl_org.svg" target="_base">
           <rect id="button" ry="5" rx="5" y="6" x="6" height="38" width="38"
                fill="#f2f5e9" fill-opacity="0.5" stroke="#606060" stroke-width="1.0"/>
           <path id="arrow"
             d="M 11.500037,31.436501 C 11.940474,20.09759 22.043105,11.32322 32.158766,21.979434 L 37.068811,17.246167 C 37.068811,17.246167 37.088388,32 37.088388,32 L 22.160133,31.978069 C 22.160133,31.978069 26.997745,27.140456 26.997745,27.140456 C 18.528582,18.264221 13.291696,25.230495 11.500037,31.436501 z"
             style="fill:#404040;"/>
          </a>
         </g>
        </svg>
</svg>
