<?xml version="1.0" encoding="UTF-8" standalone="no"?>
<!DOCTYPE svg PUBLIC "-//W3C//DTD SVG 1.1//EN"
 "http://www.w3.org/Graphics/SVG/1.1/DTD/svg11.dtd">
<!-- Generated by graphviz version 2.43.0 (0)
 -->
<!-- Title: carta::BlockSmoothScalar Pages: 1 -->
<!--zoomable 121 -->
<svg id="main" version="1.1" xmlns="http://www.w3.org/2000/svg" xmlns:xlink="http://www.w3.org/1999/xlink" xml:space="preserve" onload="init(evt)">
<style type="text/css"><![CDATA[
.edge:hover path { stroke: red; }
.edge:hover polygon { stroke: red; fill: red; }
]]></style>
<script type="text/javascript"><![CDATA[
var edges = document.getElementsByTagName('g');
if (edges && edges.length) {
  for (var i=0;i<edges.length;i++) {
    if (edges[i].id.substr(0,4)=='edge') {
      edges[i].setAttribute('class','edge');
    }
  }
}
]]></script>
        <defs>
                <circle id="rim" cx="0" cy="0" r="7"/>
                <circle id="rim2" cx="0" cy="0" r="3.5"/>
                <g id="zoomPlus">
                        <use xlink:href="#rim" fill="#404040">
                                <set attributeName="fill" to="#808080" begin="zoomplus.mouseover" end="zoomplus.mouseout"/>
                        </use>
                        <path d="M-4,0h8M0,-4v8" fill="none" stroke="white" stroke-width="1.5" pointer-events="none"/>
                </g>
                <g id="zoomMin">
                        <use xlink:href="#rim" fill="#404040">
                                <set attributeName="fill" to="#808080" begin="zoomminus.mouseover" end="zoomminus.mouseout"/>
                        </use>
                        <path d="M-4,0h8" fill="none" stroke="white" stroke-width="1.5" pointer-events="none"/>
                </g>
                <g id="dirArrow">
                        <path fill="none" stroke="white" stroke-width="1.5" d="M0,-3.0v7 M-2.5,-0.5L0,-3.0L2.5,-0.5"/>
                </g>
               <g id="resetDef">
                       <use xlink:href="#rim2" fill="#404040">
                               <set attributeName="fill" to="#808080" begin="reset.mouseover" end="reset.mouseout"/>
                       </use>
               </g>
        </defs>

<script type="text/javascript">
var viewWidth = 912;
var viewHeight = 121;
var sectionId = 'dynsection-4';
</script>
<script xlink:href="svgpan.js"/>
<svg id="graph" class="graph">
<g id="viewport">
<title>carta::BlockSmoothScalar</title>
<!-- Node1 -->
<g id="node1" class="node">
<title>Node1</title>
<g id="a_node1"><a xlink:title=" ">
<polygon fill="#bfbfbf" stroke="black" points="762,-66 762,-85 904,-85 904,-66 762,-66"/>
<text text-anchor="middle" x="833" y="-73" font-family="Helvetica,sans-Serif" font-size="10.00">carta::BlockSmoothScalar</text>
</a>
</g>
</g>
<!-- Node2 -->
<g id="node2" class="node">
<title>Node2</title>
<g id="a_node2"><a xlink:href="namespacecarta.html#a5e8e9ea12c8402698a665a81e97cf13f" target="_top" xlink:title=" ">
<polygon fill="none" stroke="black" points="614,-66 614,-85 726,-85 726,-66 614,-66"/>
<text text-anchor="middle" x="670" y="-73" font-family="Helvetica,sans-Serif" font-size="10.00">carta::BlockSmooth</text>
</a>
</g>
</g>
<!-- Node1&#45;&gt;Node2 -->
<g id="edge1" class="edge">
<title>Node1&#45;&gt;Node2</title>
<path fill="none" stroke="midnightblue" d="M751.79,-75.5C743.2,-75.5 734.61,-75.5 726.4,-75.5"/>
<polygon fill="midnightblue" stroke="midnightblue" points="751.85,-79 761.85,-75.5 751.85,-72 751.85,-79"/>
</g>
<!-- Node3 -->
<g id="node3" class="node">
<title>Node3</title>
<g id="a_node3"><a xlink:href="classcarta_1_1Frame.html#addae4d13342b22a4b5e6790f2cc7275d" target="_top" xlink:title=" ">
<polygon fill="none" stroke="black" points="407,-82.5 407,-112.5 578,-112.5 578,-82.5 407,-82.5"/>
<text text-anchor="start" x="415" y="-100.5" font-family="Helvetica,sans-Serif" font-size="10.00">carta::Frame::GetDownsampled</text>
<text text-anchor="middle" x="492.5" y="-89.5" font-family="Helvetica,sans-Serif" font-size="10.00">RasterData</text>
</a>
</g>
</g>
<!-- Node2&#45;&gt;Node3 -->
<g id="edge2" class="edge">
<title>Node2&#45;&gt;Node3</title>
<path fill="none" stroke="midnightblue" d="M603.91,-83.66C595.54,-84.71 586.87,-85.8 578.24,-86.88"/>
<polygon fill="midnightblue" stroke="midnightblue" points="604.47,-87.12 613.95,-82.4 603.59,-80.17 604.47,-87.12"/>
</g>
<!-- Node6 -->
<g id="node6" class="node">
<title>Node6</title>
<g id="a_node6"><a xlink:href="classcarta_1_1Frame.html#a99070db9ce0098cba8ec37c0d3c1d850" target="_top" xlink:title=" ">
<polygon fill="none" stroke="black" points="414.5,-44 414.5,-63 570.5,-63 570.5,-44 414.5,-44"/>
<text text-anchor="middle" x="492.5" y="-51" font-family="Helvetica,sans-Serif" font-size="10.00">carta::Frame::GetRasterData</text>
</a>
</g>
</g>
<!-- Node2&#45;&gt;Node6 -->
<g id="edge5" class="edge">
<title>Node2&#45;&gt;Node6</title>
<path fill="none" stroke="midnightblue" d="M603.86,-67.33C592.69,-65.93 581,-64.47 569.57,-63.04"/>
<polygon fill="midnightblue" stroke="midnightblue" points="603.59,-70.83 613.95,-68.6 604.47,-63.88 603.59,-70.83"/>
</g>
<!-- Node4 -->
<g id="node4" class="node">
<title>Node4</title>
<g id="a_node4"><a xlink:href="classcarta_1_1Frame.html#aa0556decdd99bffc1dd869599f4db918" target="_top" xlink:title=" ">
<polygon fill="none" stroke="black" points="208,-82.5 208,-112.5 360,-112.5 360,-82.5 208,-82.5"/>
<text text-anchor="start" x="216" y="-100.5" font-family="Helvetica,sans-Serif" font-size="10.00">carta::Frame::DoVectorField</text>
<text text-anchor="middle" x="284" y="-89.5" font-family="Helvetica,sans-Serif" font-size="10.00">Calculation</text>
</a>
</g>
</g>
<!-- Node3&#45;&gt;Node4 -->
<g id="edge3" class="edge">
<title>Node3&#45;&gt;Node4</title>
<path fill="none" stroke="midnightblue" d="M396.68,-97.5C384.45,-97.5 372.05,-97.5 360.18,-97.5"/>
<polygon fill="midnightblue" stroke="midnightblue" points="396.91,-101 406.91,-97.5 396.91,-94 396.91,-101"/>
</g>
<!-- Node5 -->
<g id="node5" class="node">
<title>Node5</title>
<g id="a_node5"><a xlink:href="classcarta_1_1Frame.html#ae3ee51cc1bda05842764364c3f49db45" target="_top" xlink:title=" ">
<polygon fill="none" stroke="black" points="0,-82.5 0,-112.5 161,-112.5 161,-82.5 0,-82.5"/>
<text text-anchor="start" x="8" y="-100.5" font-family="Helvetica,sans-Serif" font-size="10.00">carta::Frame::CalculateVector</text>
<text text-anchor="middle" x="80.5" y="-89.5" font-family="Helvetica,sans-Serif" font-size="10.00">Field</text>
</a>
</g>
</g>
<!-- Node4&#45;&gt;Node5 -->
<g id="edge4" class="edge">
<title>Node4&#45;&gt;Node5</title>
<path fill="none" stroke="midnightblue" d="M197.88,-97.5C185.76,-97.5 173.33,-97.5 161.32,-97.5"/>
<polygon fill="midnightblue" stroke="midnightblue" points="197.97,-101 207.97,-97.5 197.97,-94 197.97,-101"/>
</g>
<!-- Node7 -->
<g id="node7" class="node">
<title>Node7</title>
<g id="a_node7"><a xlink:href="classcarta_1_1Frame.html#a958f69761afea8b1388de6bea20f8b78" target="_top" xlink:title=" ">
<polygon fill="none" stroke="black" points="207.5,-44 207.5,-63 360.5,-63 360.5,-44 207.5,-44"/>
<text text-anchor="middle" x="284" y="-51" font-family="Helvetica,sans-Serif" font-size="10.00">carta::Frame::ContourImage</text>
</a>
</g>
</g>
<!-- Node6&#45;&gt;Node7 -->
<g id="edge6" class="edge">
<title>Node6&#45;&gt;Node7</title>
<path fill="none" stroke="midnightblue" d="M403.94,-53.5C389.56,-53.5 374.78,-53.5 360.72,-53.5"/>
<polygon fill="midnightblue" stroke="midnightblue" points="404.31,-57 414.31,-53.5 404.31,-50 404.31,-57"/>
</g>
<!-- Node8 -->
<g id="node8" class="node">
<title>Node8</title>
<g id="a_node8"><a xlink:href="classcarta_1_1Frame.html#a3b8bcda7531d4fd25f6dbb7be1d4a35e" target="_top" xlink:title=" ">
<polygon fill="none" stroke="black" points="197,-6 197,-25 371,-25 371,-6 197,-6"/>
<text text-anchor="middle" x="284" y="-13" font-family="Helvetica,sans-Serif" font-size="10.00">carta::Frame::GetRasterTileData</text>
</a>
</g>
</g>
<!-- Node6&#45;&gt;Node8 -->
<g id="edge7" class="edge">
<title>Node6&#45;&gt;Node8</title>
<path fill="none" stroke="midnightblue" d="M429.45,-42.08C399.91,-36.64 364.97,-30.22 336.86,-25.04"/>
<polygon fill="midnightblue" stroke="midnightblue" points="429.19,-45.59 439.66,-43.96 430.46,-38.71 429.19,-45.59"/>
</g>
<!-- Node9 -->
<g id="node9" class="node">
<title>Node9</title>
<g id="a_node9"><a xlink:href="classcarta_1_1Frame.html#a8f2a50be837b3421d00d04f527838abd" target="_top" xlink:title=" ">
<polygon fill="none" stroke="black" points="15.5,-0.5 15.5,-30.5 145.5,-30.5 145.5,-0.5 15.5,-0.5"/>
<text text-anchor="start" x="23.5" y="-18.5" font-family="Helvetica,sans-Serif" font-size="10.00">carta::Frame::FillRaster</text>
<text text-anchor="middle" x="80.5" y="-7.5" font-family="Helvetica,sans-Serif" font-size="10.00">TileData</text>
</a>
</g>
</g>
<!-- Node8&#45;&gt;Node9 -->
<g id="edge8" class="edge">
<title>Node8&#45;&gt;Node9</title>
<path fill="none" stroke="midnightblue" d="M186.82,-15.5C172.84,-15.5 158.74,-15.5 145.61,-15.5"/>
<polygon fill="midnightblue" stroke="midnightblue" points="186.96,-19 196.96,-15.5 186.96,-12 186.96,-19"/>
</g>
</g>
</svg>
        <g id="navigator" transform="translate(0 0)" fill="#404254">
                <rect fill="#f2f5e9" fill-opacity="0.5" stroke="#606060" stroke-width=".5" x="0" y="0" width="60" height="60"/>
                <use id="zoomplus" xlink:href="#zoomPlus" x="17" y="9" onmousedown="handleZoom(evt,'in')"/>
                <use id="zoomminus" xlink:href="#zoomMin" x="42" y="9" onmousedown="handleZoom(evt,'out')"/>
                <use id="reset" xlink:href="#resetDef" x="30" y="36" onmousedown="handleReset()"/>
                <g id="arrowUp" xlink:href="#dirArrow" transform="translate(30 24)" onmousedown="handlePan(0,-1)">
                  <use xlink:href="#rim" fill="#404040">
                        <set attributeName="fill" to="#808080" begin="arrowUp.mouseover" end="arrowUp.mouseout"/>
                  </use>
                  <path fill="none" stroke="white" stroke-width="1.5" d="M0,-3.0v7 M-2.5,-0.5L0,-3.0L2.5,-0.5"/>
                </g>
                <g id="arrowRight" xlink:href="#dirArrow" transform="rotate(90) translate(36 -43)" onmousedown="handlePan(1,0)">
                  <use xlink:href="#rim" fill="#404040">
                        <set attributeName="fill" to="#808080" begin="arrowRight.mouseover" end="arrowRight.mouseout"/>
                  </use>
                  <path fill="none" stroke="white" stroke-width="1.5" d="M0,-3.0v7 M-2.5,-0.5L0,-3.0L2.5,-0.5"/>
                </g>
                <g id="arrowDown" xlink:href="#dirArrow" transform="rotate(180) translate(-30 -48)" onmousedown="handlePan(0,1)">
                  <use xlink:href="#rim" fill="#404040">
                        <set attributeName="fill" to="#808080" begin="arrowDown.mouseover" end="arrowDown.mouseout"/>
                  </use>
                  <path fill="none" stroke="white" stroke-width="1.5" d="M0,-3.0v7 M-2.5,-0.5L0,-3.0L2.5,-0.5"/>
                </g>
                <g id="arrowLeft" xlink:href="#dirArrow" transform="rotate(270) translate(-36 17)" onmousedown="handlePan(-1,0)">
                  <use xlink:href="#rim" fill="#404040">
                        <set attributeName="fill" to="#808080" begin="arrowLeft.mouseover" end="arrowLeft.mouseout"/>
                  </use>
                  <path fill="none" stroke="white" stroke-width="1.5" d="M0,-3.0v7 M-2.5,-0.5L0,-3.0L2.5,-0.5"/>
                </g>
        </g>
        <svg viewBox="0 0 15 15" width="100%" height="30px" preserveAspectRatio="xMaxYMin meet">
         <g id="arrow_out" transform="scale(0.3 0.3)">
          <a xlink:href="namespacecarta_aead2ccf135cb75c1b5d5f5d8b5a64849_icgraph_org.svg" target="_base">
           <rect id="button" ry="5" rx="5" y="6" x="6" height="38" width="38"
                fill="#f2f5e9" fill-opacity="0.5" stroke="#606060" stroke-width="1.0"/>
           <path id="arrow"
             d="M 11.500037,31.436501 C 11.940474,20.09759 22.043105,11.32322 32.158766,21.979434 L 37.068811,17.246167 C 37.068811,17.246167 37.088388,32 37.088388,32 L 22.160133,31.978069 C 22.160133,31.978069 26.997745,27.140456 26.997745,27.140456 C 18.528582,18.264221 13.291696,25.230495 11.500037,31.436501 z"
             style="fill:#404040;"/>
          </a>
         </g>
        </svg>
</svg>
