<?xml version="1.0" encoding="UTF-8" standalone="no"?>
<!DOCTYPE svg PUBLIC "-//W3C//DTD SVG 1.1//EN"
 "http://www.w3.org/Graphics/SVG/1.1/DTD/svg11.dtd">
<!-- Generated by graphviz version 2.43.0 (0)
 -->
<!-- Title: carta::BlockSmooth Pages: 1 -->
<svg width="458pt" height="78pt"
 viewBox="0.00 0.00 458.00 77.50" xmlns="http://www.w3.org/2000/svg" xmlns:xlink="http://www.w3.org/1999/xlink">
<g id="graph0" class="graph" transform="scale(1 1) rotate(0) translate(4 73.5)">
<title>carta::BlockSmooth</title>
<!-- Node1 -->
<g id="node1" class="node">
<title>Node1</title>
<g id="a_node1"><a xlink:title=" ">
<polygon fill="#bfbfbf" stroke="black" points="0,-25.5 0,-44.5 112,-44.5 112,-25.5 0,-25.5"/>
<text text-anchor="middle" x="56" y="-32.5" font-family="Helvetica,sans-Serif" font-size="10.00">carta::BlockSmooth</text>
</a>
</g>
</g>
<!-- Node2 -->
<g id="node2" class="node">
<title>Node2</title>
<g id="a_node2"><a xlink:href="namespacecarta.html#aead2ccf135cb75c1b5d5f5d8b5a64849" target="_top" xlink:title=" ">
<polygon fill="none" stroke="black" points="148,-44.5 148,-63.5 290,-63.5 290,-44.5 148,-44.5"/>
<text text-anchor="middle" x="219" y="-51.5" font-family="Helvetica,sans-Serif" font-size="10.00">carta::BlockSmoothScalar</text>
</a>
</g>
</g>
<!-- Node1&#45;&gt;Node2 -->
<g id="edge1" class="edge">
<title>Node1&#45;&gt;Node2</title>
<path fill="none" stroke="midnightblue" d="M112.41,-41.54C120.64,-42.51 129.27,-43.53 137.89,-44.55"/>
<polygon fill="midnightblue" stroke="midnightblue" points="137.65,-48.04 147.99,-45.74 138.47,-41.09 137.65,-48.04"/>
</g>
<!-- Node4 -->
<g id="node4" class="node">
<title>Node4</title>
<g id="a_node4"><a xlink:href="namespacecarta.html#a3d79fcec84ed84bfc770c589c2f12ea1" target="_top" xlink:title=" ">
<polygon fill="none" stroke="black" points="154,-6.5 154,-25.5 284,-25.5 284,-6.5 154,-6.5"/>
<text text-anchor="middle" x="219" y="-13.5" font-family="Helvetica,sans-Serif" font-size="10.00">carta::BlockSmoothSSE</text>
</a>
</g>
</g>
<!-- Node1&#45;&gt;Node4 -->
<g id="edge3" class="edge">
<title>Node1&#45;&gt;Node4</title>
<path fill="none" stroke="midnightblue" d="M112.41,-28.46C122.54,-27.27 133.26,-26 143.84,-24.75"/>
<polygon fill="midnightblue" stroke="midnightblue" points="144.39,-28.21 153.91,-23.56 143.57,-21.26 144.39,-28.21"/>
</g>
<!-- Node3 -->
<g id="node3" class="node">
<title>Node3</title>
<g id="a_node3"><a xlink:href="classcarta_1_1ThreadManager.html#a82cbb5d8370c091ac96c24d0fc4984dc" target="_top" xlink:title=" ">
<polygon fill="none" stroke="black" points="326,-39 326,-69 450,-69 450,-39 326,-39"/>
<text text-anchor="start" x="334" y="-57" font-family="Helvetica,sans-Serif" font-size="10.00">carta::ThreadManager</text>
<text text-anchor="middle" x="388" y="-46" font-family="Helvetica,sans-Serif" font-size="10.00">::ApplyThreadLimit</text>
</a>
</g>
</g>
<!-- Node2&#45;&gt;Node3 -->
<g id="edge2" class="edge">
<title>Node2&#45;&gt;Node3</title>
<path fill="none" stroke="midnightblue" d="M290.34,-54C298.7,-54 307.25,-54 315.63,-54"/>
<polygon fill="midnightblue" stroke="midnightblue" points="315.75,-57.5 325.75,-54 315.75,-50.5 315.75,-57.5"/>
</g>
<!-- Node4&#45;&gt;Node3 -->
<g id="edge4" class="edge">
<title>Node4&#45;&gt;Node3</title>
<path fill="none" stroke="midnightblue" d="M262.14,-25.59C278.52,-29.32 297.74,-33.69 316.13,-37.87"/>
<polygon fill="midnightblue" stroke="midnightblue" points="315.41,-41.3 325.94,-40.11 316.97,-34.47 315.41,-41.3"/>
</g>
<!-- Node5 -->
<g id="node5" class="node">
<title>Node5</title>
<g id="a_node5"><a xlink:href="namespacecarta.html#a64f1569d1c90db30af9f2d719f9ffe59" target="_top" xlink:title=" ">
<polygon fill="none" stroke="black" points="343.5,-0.5 343.5,-19.5 432.5,-19.5 432.5,-0.5 343.5,-0.5"/>
<text text-anchor="middle" x="388" y="-7.5" font-family="Helvetica,sans-Serif" font-size="10.00">carta::IsInfinity</text>
</a>
</g>
</g>
<!-- Node4&#45;&gt;Node5 -->
<g id="edge5" class="edge">
<title>Node4&#45;&gt;Node5</title>
<path fill="none" stroke="midnightblue" d="M284.09,-13.7C300.31,-13.11 317.57,-12.49 333.22,-11.93"/>
<polygon fill="midnightblue" stroke="midnightblue" points="333.38,-15.43 343.25,-11.57 333.13,-8.43 333.38,-15.43"/>
</g>
</g>
</svg>
