<?xml version="1.0" encoding="UTF-8" standalone="no"?>
<!DOCTYPE svg PUBLIC "-//W3C//DTD SVG 1.1//EN"
 "http://www.w3.org/Graphics/SVG/1.1/DTD/svg11.dtd">
<!-- Generated by graphviz version 2.43.0 (0)
 -->
<!-- Title: PvGenerator.cc Pages: 1 -->
<!--zoomable 352 -->
<svg id="main" version="1.1" xmlns="http://www.w3.org/2000/svg" xmlns:xlink="http://www.w3.org/1999/xlink" xml:space="preserve" onload="init(evt)">
<style type="text/css"><![CDATA[
.edge:hover path { stroke: red; }
.edge:hover polygon { stroke: red; fill: red; }
]]></style>
<script type="text/javascript"><![CDATA[
var edges = document.getElementsByTagName('g');
if (edges && edges.length) {
  for (var i=0;i<edges.length;i++) {
    if (edges[i].id.substr(0,4)=='edge') {
      edges[i].setAttribute('class','edge');
    }
  }
}
]]></script>
        <defs>
                <circle id="rim" cx="0" cy="0" r="7"/>
                <circle id="rim2" cx="0" cy="0" r="3.5"/>
                <g id="zoomPlus">
                        <use xlink:href="#rim" fill="#404040">
                                <set attributeName="fill" to="#808080" begin="zoomplus.mouseover" end="zoomplus.mouseout"/>
                        </use>
                        <path d="M-4,0h8M0,-4v8" fill="none" stroke="white" stroke-width="1.5" pointer-events="none"/>
                </g>
                <g id="zoomMin">
                        <use xlink:href="#rim" fill="#404040">
                                <set attributeName="fill" to="#808080" begin="zoomminus.mouseover" end="zoomminus.mouseout"/>
                        </use>
                        <path d="M-4,0h8" fill="none" stroke="white" stroke-width="1.5" pointer-events="none"/>
                </g>
                <g id="dirArrow">
                        <path fill="none" stroke="white" stroke-width="1.5" d="M0,-3.0v7 M-2.5,-0.5L0,-3.0L2.5,-0.5"/>
                </g>
               <g id="resetDef">
                       <use xlink:href="#rim2" fill="#404040">
                               <set attributeName="fill" to="#808080" begin="reset.mouseover" end="reset.mouseout"/>
                       </use>
               </g>
        </defs>

<script type="text/javascript">
var viewWidth = 3298;
var viewHeight = 352;
var sectionId = 'dynsection-0';
</script>
<script xlink:href="svgpan.js"/>
<svg id="graph" class="graph">
<g id="viewport">
<title>PvGenerator.cc</title>
<!-- Node1 -->
<g id="node1" class="node">
<title>Node1</title>
<g id="a_node1"><a xlink:title=" ">
<polygon fill="#bfbfbf" stroke="black" points="1927,-324.5 1927,-343.5 2017,-343.5 2017,-324.5 1927,-324.5"/>
<text text-anchor="middle" x="1972" y="-331.5" font-family="Helvetica,sans-Serif" font-size="10.00">PvGenerator.cc</text>
</a>
</g>
</g>
<!-- Node2 -->
<g id="node2" class="node">
<title>Node2</title>
<g id="a_node2"><a xlink:href="PvGenerator_8h.html" target="_top" xlink:title=" ">
<polygon fill="none" stroke="black" points="440,-263 440,-282 526,-282 526,-263 440,-263"/>
<text text-anchor="middle" x="483" y="-270" font-family="Helvetica,sans-Serif" font-size="10.00">PvGenerator.h</text>
</a>
</g>
</g>
<!-- Node1&#45;&gt;Node2 -->
<g id="edge1" class="edge">
<title>Node1&#45;&gt;Node2</title>
<path fill="none" stroke="midnightblue" d="M1926.62,-331.19C1708.82,-322.48 771.46,-285.03 536.55,-275.64"/>
<polygon fill="midnightblue" stroke="midnightblue" points="536.35,-272.13 526.22,-275.23 536.07,-279.12 536.35,-272.13"/>
</g>
<!-- Node20 -->
<g id="node19" class="node">
<title>Node20</title>
<g id="a_node19"><a xlink:href="Image_8h.html" target="_top" xlink:title=" ">
<polygon fill="none" stroke="black" points="843.5,-129 843.5,-148 920.5,-148 920.5,-129 843.5,-129"/>
<text text-anchor="middle" x="882" y="-136" font-family="Helvetica,sans-Serif" font-size="10.00">Util/Image.h</text>
</a>
</g>
</g>
<!-- Node1&#45;&gt;Node20 -->
<g id="edge67" class="edge">
<title>Node1&#45;&gt;Node20</title>
<path fill="none" stroke="midnightblue" d="M1926.8,-332.08C1825.6,-329.5 1573.36,-320.1 1365,-288 1236.82,-268.26 1204.5,-260.59 1081,-221 1018.18,-200.86 947.27,-169.69 909.37,-152.32"/>
<polygon fill="midnightblue" stroke="midnightblue" points="910.57,-149.02 900.03,-148.01 907.64,-155.37 910.57,-149.02"/>
</g>
<!-- Node28 -->
<g id="node27" class="node">
<title>Node28</title>
<g id="a_node27"><a xlink:title=" ">
<polygon fill="none" stroke="#bfbfbf" points="1675,-263 1675,-282 1725,-282 1725,-263 1675,-263"/>
<text text-anchor="middle" x="1700" y="-270" font-family="Helvetica,sans-Serif" font-size="10.00">chrono</text>
</a>
</g>
</g>
<!-- Node1&#45;&gt;Node28 -->
<g id="edge36" class="edge">
<title>Node1&#45;&gt;Node28</title>
<path fill="none" stroke="midnightblue" d="M1926.56,-327.39C1878.14,-320.72 1799.58,-307.93 1734,-288 1731.85,-287.35 1729.66,-286.6 1727.47,-285.81"/>
<polygon fill="midnightblue" stroke="midnightblue" points="1728.67,-282.51 1718.08,-282.07 1726.08,-289.02 1728.67,-282.51"/>
</g>
<!-- Node29 -->
<g id="node28" class="node">
<title>Node29</title>
<g id="a_node28"><a xlink:title=" ">
<polygon fill="none" stroke="#bfbfbf" points="1743,-257.5 1743,-287.5 1867,-287.5 1867,-257.5 1743,-257.5"/>
<text text-anchor="start" x="1751" y="-275.5" font-family="Helvetica,sans-Serif" font-size="10.00">casacore/casa/Quanta</text>
<text text-anchor="middle" x="1805" y="-264.5" font-family="Helvetica,sans-Serif" font-size="10.00">/UnitMap.h</text>
</a>
</g>
</g>
<!-- Node1&#45;&gt;Node29 -->
<g id="edge37" class="edge">
<title>Node1&#45;&gt;Node29</title>
<path fill="none" stroke="midnightblue" d="M1948.07,-324.48C1923.66,-315.78 1885.07,-302.03 1854.11,-291"/>
<polygon fill="midnightblue" stroke="midnightblue" points="1854.95,-287.58 1844.36,-287.52 1852.6,-294.18 1854.95,-287.58"/>
</g>
<!-- Node30 -->
<g id="node29" class="node">
<title>Node30</title>
<g id="a_node29"><a xlink:title=" ">
<polygon fill="none" stroke="#bfbfbf" points="1885.5,-257.5 1885.5,-287.5 2058.5,-287.5 2058.5,-257.5 1885.5,-257.5"/>
<text text-anchor="start" x="1893.5" y="-275.5" font-family="Helvetica,sans-Serif" font-size="10.00">casacore/coordinates</text>
<text text-anchor="middle" x="1972" y="-264.5" font-family="Helvetica,sans-Serif" font-size="10.00">/Coordinates/LinearCoordinate.h</text>
</a>
</g>
</g>
<!-- Node1&#45;&gt;Node30 -->
<g id="edge38" class="edge">
<title>Node1&#45;&gt;Node30</title>
<path fill="none" stroke="midnightblue" d="M1972,-324.48C1972,-317.47 1972,-307.19 1972,-297.7"/>
<polygon fill="midnightblue" stroke="midnightblue" points="1975.5,-297.52 1972,-287.52 1968.5,-297.52 1975.5,-297.52"/>
</g>
<!-- Node31 -->
<g id="node30" class="node">
<title>Node31</title>
<g id="a_node30"><a xlink:title=" ">
<polygon fill="none" stroke="#bfbfbf" points="2076.5,-257.5 2076.5,-287.5 2259.5,-287.5 2259.5,-257.5 2076.5,-257.5"/>
<text text-anchor="start" x="2084.5" y="-275.5" font-family="Helvetica,sans-Serif" font-size="10.00">casacore/coordinates</text>
<text text-anchor="middle" x="2168" y="-264.5" font-family="Helvetica,sans-Serif" font-size="10.00">/Coordinates/SpectralCoordinate.h</text>
</a>
</g>
</g>
<!-- Node1&#45;&gt;Node31 -->
<g id="edge39" class="edge">
<title>Node1&#45;&gt;Node31</title>
<path fill="none" stroke="midnightblue" d="M2000.08,-324.48C2029.11,-315.66 2075.21,-301.67 2111.77,-290.57"/>
<polygon fill="midnightblue" stroke="midnightblue" points="2113.25,-293.78 2121.81,-287.52 2111.22,-287.08 2113.25,-293.78"/>
</g>
<!-- Node32 -->
<g id="node31" class="node">
<title>Node32</title>
<g id="a_node31"><a xlink:title=" ">
<polygon fill="none" stroke="#bfbfbf" points="2278,-257.5 2278,-287.5 2454,-287.5 2454,-257.5 2278,-257.5"/>
<text text-anchor="start" x="2286" y="-275.5" font-family="Helvetica,sans-Serif" font-size="10.00">casacore/coordinates</text>
<text text-anchor="middle" x="2366" y="-264.5" font-family="Helvetica,sans-Serif" font-size="10.00">/Coordinates/StokesCoordinate.h</text>
</a>
</g>
</g>
<!-- Node1&#45;&gt;Node32 -->
<g id="edge40" class="edge">
<title>Node1&#45;&gt;Node32</title>
<path fill="none" stroke="midnightblue" d="M2017.2,-326.17C2077.97,-317 2187.63,-300.44 2267.82,-288.33"/>
<polygon fill="midnightblue" stroke="midnightblue" points="2268.58,-291.75 2277.94,-286.8 2267.53,-284.83 2268.58,-291.75"/>
</g>
<!-- Node33 -->
<g id="node32" class="node">
<title>Node33</title>
<g id="a_node32"><a xlink:title=" ">
<polygon fill="none" stroke="#bfbfbf" points="2472,-257.5 2472,-287.5 2618,-287.5 2618,-257.5 2472,-257.5"/>
<text text-anchor="start" x="2480" y="-275.5" font-family="Helvetica,sans-Serif" font-size="10.00">casacore/lattices/LRegions</text>
<text text-anchor="middle" x="2545" y="-264.5" font-family="Helvetica,sans-Serif" font-size="10.00">/LCExtension.h</text>
</a>
</g>
</g>
<!-- Node1&#45;&gt;Node33 -->
<g id="edge41" class="edge">
<title>Node1&#45;&gt;Node33</title>
<path fill="none" stroke="midnightblue" d="M2017.16,-330.13C2102.15,-324.45 2291.87,-310.47 2461.61,-288.12"/>
<polygon fill="midnightblue" stroke="midnightblue" points="2462.28,-291.56 2471.73,-286.77 2461.36,-284.62 2462.28,-291.56"/>
</g>
<!-- Node34 -->
<g id="node33" class="node">
<title>Node34</title>
<g id="a_node33"><a xlink:title=" ">
<polygon fill="none" stroke="#bfbfbf" points="2636,-257.5 2636,-287.5 2782,-287.5 2782,-257.5 2636,-257.5"/>
<text text-anchor="start" x="2644" y="-275.5" font-family="Helvetica,sans-Serif" font-size="10.00">casacore/lattices/LRegions</text>
<text text-anchor="middle" x="2709" y="-264.5" font-family="Helvetica,sans-Serif" font-size="10.00">/LCIntersection.h</text>
</a>
</g>
</g>
<!-- Node1&#45;&gt;Node34 -->
<g id="edge42" class="edge">
<title>Node1&#45;&gt;Node34</title>
<path fill="none" stroke="midnightblue" d="M2017.03,-331.56C2121.94,-327.84 2390.98,-316.28 2625.65,-288.08"/>
<polygon fill="midnightblue" stroke="midnightblue" points="2626.24,-291.53 2635.74,-286.85 2625.39,-284.58 2626.24,-291.53"/>
</g>
<!-- Node35 -->
<g id="node34" class="node">
<title>Node35</title>
<g id="a_node34"><a xlink:title=" ">
<polygon fill="none" stroke="#bfbfbf" points="2800,-257.5 2800,-287.5 2946,-287.5 2946,-257.5 2800,-257.5"/>
<text text-anchor="start" x="2808" y="-275.5" font-family="Helvetica,sans-Serif" font-size="10.00">casacore/lattices/LRegions</text>
<text text-anchor="middle" x="2873" y="-264.5" font-family="Helvetica,sans-Serif" font-size="10.00">/LCPolygon.h</text>
</a>
</g>
</g>
<!-- Node1&#45;&gt;Node35 -->
<g id="edge43" class="edge">
<title>Node1&#45;&gt;Node35</title>
<path fill="none" stroke="midnightblue" d="M2017.44,-332.42C2140.31,-330.43 2489.5,-322.08 2789.54,-288.07"/>
<polygon fill="midnightblue" stroke="midnightblue" points="2790.21,-291.52 2799.75,-286.9 2789.41,-284.56 2790.21,-291.52"/>
</g>
<!-- Node36 -->
<g id="node35" class="node">
<title>Node36</title>
<g id="a_node35"><a xlink:title=" ">
<polygon fill="none" stroke="#bfbfbf" points="2964,-257.5 2964,-287.5 3110,-287.5 3110,-257.5 2964,-257.5"/>
<text text-anchor="start" x="2972" y="-275.5" font-family="Helvetica,sans-Serif" font-size="10.00">casacore/lattices/LRegions</text>
<text text-anchor="middle" x="3037" y="-264.5" font-family="Helvetica,sans-Serif" font-size="10.00">/LCRegionFixed.h</text>
</a>
</g>
</g>
<!-- Node1&#45;&gt;Node36 -->
<g id="edge44" class="edge">
<title>Node1&#45;&gt;Node36</title>
<path fill="none" stroke="midnightblue" d="M2017.23,-333C2155.86,-332.58 2587.14,-327.98 2953.74,-288.04"/>
<polygon fill="midnightblue" stroke="midnightblue" points="2954.19,-291.51 2963.75,-286.94 2953.43,-284.55 2954.19,-291.51"/>
</g>
<!-- Node37 -->
<g id="node36" class="node">
<title>Node37</title>
<g id="a_node36"><a xlink:title=" ">
<polygon fill="none" stroke="#bfbfbf" points="3128.5,-257.5 3128.5,-287.5 3289.5,-287.5 3289.5,-257.5 3128.5,-257.5"/>
<text text-anchor="start" x="3136.5" y="-275.5" font-family="Helvetica,sans-Serif" font-size="10.00">casacore/measures/Measures</text>
<text text-anchor="middle" x="3209" y="-264.5" font-family="Helvetica,sans-Serif" font-size="10.00">/Stokes.h</text>
</a>
</g>
</g>
<!-- Node1&#45;&gt;Node37 -->
<g id="edge45" class="edge">
<title>Node1&#45;&gt;Node37</title>
<path fill="none" stroke="midnightblue" d="M2017.22,-333.18C2170.4,-333.38 2683.8,-330.67 3117.87,-288.02"/>
<polygon fill="midnightblue" stroke="midnightblue" points="3118.5,-291.47 3128.11,-287 3117.81,-284.51 3118.5,-291.47"/>
</g>
<!-- Node38 -->
<g id="node37" class="node">
<title>Node38</title>
<g id="a_node37"><a xlink:href="StatsCalculator_8h.html" target="_top" xlink:title=" ">
<polygon fill="none" stroke="black" points="1090.5,-196 1090.5,-215 1257.5,-215 1257.5,-196 1090.5,-196"/>
<text text-anchor="middle" x="1174" y="-203" font-family="Helvetica,sans-Serif" font-size="10.00">../ImageStats/StatsCalculator.h</text>
</a>
</g>
</g>
<!-- Node1&#45;&gt;Node38 -->
<g id="edge46" class="edge">
<title>Node1&#45;&gt;Node38</title>
<path fill="none" stroke="midnightblue" d="M1926.73,-330.81C1843.12,-326.27 1659.04,-314.03 1506,-288 1398.48,-269.71 1274.24,-235.68 1212.7,-217.93"/>
<polygon fill="midnightblue" stroke="midnightblue" points="1213.59,-214.55 1203.01,-215.13 1211.64,-221.27 1213.59,-214.55"/>
</g>
<!-- Node44 -->
<g id="node43" class="node">
<title>Node44</title>
<g id="a_node43"><a xlink:href="Logger_8h.html" target="_top" xlink:title=" ">
<polygon fill="none" stroke="black" points="1515.5,-263 1515.5,-282 1618.5,-282 1618.5,-263 1515.5,-263"/>
<text text-anchor="middle" x="1567" y="-270" font-family="Helvetica,sans-Serif" font-size="10.00">../Logger/Logger.h</text>
</a>
</g>
</g>
<!-- Node1&#45;&gt;Node44 -->
<g id="edge56" class="edge">
<title>Node1&#45;&gt;Node44</title>
<path fill="none" stroke="midnightblue" d="M1926.85,-328.23C1861.7,-321.08 1737.67,-306.41 1633,-288 1626.63,-286.88 1619.94,-285.57 1613.37,-284.2"/>
<polygon fill="midnightblue" stroke="midnightblue" points="1613.71,-280.7 1603.2,-282.03 1612.25,-287.54 1613.71,-280.7"/>
</g>
<!-- Node50 -->
<g id="node49" class="node">
<title>Node50</title>
<g id="a_node49"><a xlink:href="FileSystem_8h.html" target="_top" xlink:title=" ">
<polygon fill="none" stroke="black" points="1988,-196 1988,-215 2088,-215 2088,-196 1988,-196"/>
<text text-anchor="middle" x="2038" y="-203" font-family="Helvetica,sans-Serif" font-size="10.00">Util/FileSystem.h</text>
</a>
</g>
</g>
<!-- Node1&#45;&gt;Node50 -->
<g id="edge66" class="edge">
<title>Node1&#45;&gt;Node50</title>
<path fill="none" stroke="midnightblue" d="M1926.91,-333.26C1850.15,-332.63 1699.17,-326.4 1666,-288 1656.99,-277.57 1656.84,-267.29 1666,-257 1711.81,-205.52 1906.08,-232.63 1974,-221 1980.34,-219.91 1986.99,-218.6 1993.51,-217.22"/>
<polygon fill="midnightblue" stroke="midnightblue" points="1994.58,-220.57 2003.59,-215 1993.07,-213.73 1994.58,-220.57"/>
</g>
<!-- Node3 -->
<g id="node3" class="node">
<title>Node3</title>
<g id="a_node3"><a xlink:title=" ">
<polygon fill="none" stroke="#bfbfbf" points="499,-190.5 499,-220.5 637,-220.5 637,-190.5 499,-190.5"/>
<text text-anchor="start" x="507" y="-208.5" font-family="Helvetica,sans-Serif" font-size="10.00">casacore/images/Images</text>
<text text-anchor="middle" x="568" y="-197.5" font-family="Helvetica,sans-Serif" font-size="10.00">/TempImage.h</text>
</a>
</g>
</g>
<!-- Node2&#45;&gt;Node3 -->
<g id="edge2" class="edge">
<title>Node2&#45;&gt;Node3</title>
<path fill="none" stroke="midnightblue" d="M494.46,-262.73C506.39,-253.61 525.5,-239 541.24,-226.96"/>
<polygon fill="midnightblue" stroke="midnightblue" points="543.76,-229.44 549.58,-220.59 539.51,-223.88 543.76,-229.44"/>
</g>
<!-- Node4 -->
<g id="node4" class="node">
<title>Node4</title>
<g id="a_node4"><a xlink:title=" ">
<polygon fill="none" stroke="#bfbfbf" points="149,-190.5 149,-220.5 295,-220.5 295,-190.5 149,-190.5"/>
<text text-anchor="start" x="157" y="-208.5" font-family="Helvetica,sans-Serif" font-size="10.00">casacore/lattices/LRegions</text>
<text text-anchor="middle" x="222" y="-197.5" font-family="Helvetica,sans-Serif" font-size="10.00">/LCRegion.h</text>
</a>
</g>
</g>
<!-- Node2&#45;&gt;Node4 -->
<g id="edge3" class="edge">
<title>Node2&#45;&gt;Node4</title>
<path fill="none" stroke="midnightblue" d="M448.61,-262.94C407.99,-252.82 339.5,-235.76 288.42,-223.04"/>
<polygon fill="midnightblue" stroke="midnightblue" points="289,-219.58 278.45,-220.56 287.31,-226.37 289,-219.58"/>
</g>
<!-- Node5 -->
<g id="node5" class="node">
<title>Node5</title>
<g id="a_node5"><a xlink:title=" ">
<polygon fill="none" stroke="#bfbfbf" points="313.5,-196 313.5,-215 480.5,-215 480.5,-196 313.5,-196"/>
<text text-anchor="middle" x="397" y="-203" font-family="Helvetica,sans-Serif" font-size="10.00">carta&#45;protobuf/pv_request.pb.h</text>
</a>
</g>
</g>
<!-- Node2&#45;&gt;Node5 -->
<g id="edge4" class="edge">
<title>Node2&#45;&gt;Node5</title>
<path fill="none" stroke="midnightblue" d="M471.4,-262.73C457.35,-252.11 433.45,-234.05 416.53,-221.26"/>
<polygon fill="midnightblue" stroke="midnightblue" points="418.5,-218.36 408.41,-215.13 414.28,-223.95 418.5,-218.36"/>
</g>
<!-- Node6 -->
<g id="node6" class="node">
<title>Node6</title>
<g id="a_node6"><a xlink:href="FileLoader_8h.html" target="_top" xlink:title=" ">
<polygon fill="none" stroke="black" points="655.5,-196 655.5,-215 796.5,-215 796.5,-196 655.5,-196"/>
<text text-anchor="middle" x="726" y="-203" font-family="Helvetica,sans-Serif" font-size="10.00">../ImageData/FileLoader.h</text>
</a>
</g>
</g>
<!-- Node2&#45;&gt;Node6 -->
<g id="edge5" class="edge">
<title>Node2&#45;&gt;Node6</title>
<path fill="none" stroke="midnightblue" d="M515.02,-262.94C558.45,-251.32 636.12,-230.54 684.14,-217.7"/>
<polygon fill="midnightblue" stroke="midnightblue" points="685.16,-221.05 693.91,-215.08 683.35,-214.29 685.16,-221.05"/>
</g>
<!-- Node27 -->
<g id="node26" class="node">
<title>Node27</title>
<g id="a_node26"><a xlink:href="ImageGenerator_8h.html" target="_top" xlink:title=" ">
<polygon fill="none" stroke="black" points="164,-129 164,-148 268,-148 268,-129 164,-129"/>
<text text-anchor="middle" x="216" y="-136" font-family="Helvetica,sans-Serif" font-size="10.00">ImageGenerator.h</text>
</a>
</g>
</g>
<!-- Node2&#45;&gt;Node27 -->
<g id="edge33" class="edge">
<title>Node2&#45;&gt;Node27</title>
<path fill="none" stroke="midnightblue" d="M439.75,-271.83C356.38,-271.44 178.26,-265.3 140,-221 118.66,-196.29 158.47,-168.75 188.09,-152.84"/>
<polygon fill="midnightblue" stroke="midnightblue" points="189.98,-155.8 197.26,-148.1 186.77,-149.58 189.98,-155.8"/>
</g>
<!-- Node7 -->
<g id="node7" class="node">
<title>Node7</title>
<g id="a_node7"><a xlink:title=" ">
<polygon fill="none" stroke="#bfbfbf" points="324,-129 324,-148 382,-148 382,-129 324,-129"/>
<text text-anchor="middle" x="353" y="-136" font-family="Helvetica,sans-Serif" font-size="10.00">memory</text>
</a>
</g>
</g>
<!-- Node6&#45;&gt;Node7 -->
<g id="edge6" class="edge">
<title>Node6&#45;&gt;Node7</title>
<path fill="none" stroke="midnightblue" d="M680.36,-195.93C669.14,-193.91 657.15,-191.81 646,-190 535.2,-171.99 505.19,-180.04 396,-154 392.6,-153.19 389.09,-152.22 385.61,-151.18"/>
<polygon fill="midnightblue" stroke="midnightblue" points="386.57,-147.82 375.98,-148.11 384.45,-154.49 386.57,-147.82"/>
</g>
<!-- Node8 -->
<g id="node8" class="node">
<title>Node8</title>
<g id="a_node8"><a xlink:title=" ">
<polygon fill="none" stroke="#bfbfbf" points="760,-62 760,-81 804,-81 804,-62 760,-62"/>
<text text-anchor="middle" x="782" y="-69" font-family="Helvetica,sans-Serif" font-size="10.00">string</text>
</a>
</g>
</g>
<!-- Node6&#45;&gt;Node8 -->
<g id="edge7" class="edge">
<title>Node6&#45;&gt;Node8</title>
<path fill="none" stroke="midnightblue" d="M735.43,-195.79C744.96,-186.42 759.34,-170.61 767,-154 776.3,-133.83 779.84,-108.35 781.18,-91.3"/>
<polygon fill="midnightblue" stroke="midnightblue" points="784.69,-91.2 781.81,-81.01 777.71,-90.78 784.69,-91.2"/>
</g>
<!-- Node9 -->
<g id="node9" class="node">
<title>Node9</title>
<g id="a_node9"><a xlink:title=" ">
<polygon fill="none" stroke="#bfbfbf" points="438.5,-123.5 438.5,-153.5 565.5,-153.5 565.5,-123.5 438.5,-123.5"/>
<text text-anchor="start" x="446.5" y="-141.5" font-family="Helvetica,sans-Serif" font-size="10.00">casacore/casa/Utilities</text>
<text text-anchor="middle" x="502" y="-130.5" font-family="Helvetica,sans-Serif" font-size="10.00">/DataType.h</text>
</a>
</g>
</g>
<!-- Node6&#45;&gt;Node9 -->
<g id="edge8" class="edge">
<title>Node6&#45;&gt;Node9</title>
<path fill="none" stroke="midnightblue" d="M696.25,-195.87C661.62,-185.82 603.61,-168.99 559.98,-156.32"/>
<polygon fill="midnightblue" stroke="midnightblue" points="560.92,-152.95 550.34,-153.53 558.97,-159.68 560.92,-152.95"/>
</g>
<!-- Node10 -->
<g id="node10" class="node">
<title>Node10</title>
<g id="a_node10"><a xlink:title=" ">
<polygon fill="none" stroke="#bfbfbf" points="156,-56.5 156,-86.5 294,-86.5 294,-56.5 156,-56.5"/>
<text text-anchor="start" x="164" y="-74.5" font-family="Helvetica,sans-Serif" font-size="10.00">casacore/images/Images</text>
<text text-anchor="middle" x="225" y="-63.5" font-family="Helvetica,sans-Serif" font-size="10.00">/ImageInterface.h</text>
</a>
</g>
</g>
<!-- Node6&#45;&gt;Node10 -->
<g id="edge9" class="edge">
<title>Node6&#45;&gt;Node10</title>
<path fill="none" stroke="midnightblue" d="M682.08,-195.96C670.38,-193.84 657.73,-191.7 646,-190 499.55,-168.79 449.99,-214.62 315,-154 306.93,-150.38 270.76,-116.47 246.8,-93.55"/>
<polygon fill="midnightblue" stroke="midnightblue" points="249.14,-90.95 239.5,-86.55 244.29,-96 249.14,-90.95"/>
</g>
<!-- Node11 -->
<g id="node11" class="node">
<title>Node11</title>
<g id="a_node11"><a xlink:title=" ">
<polygon fill="none" stroke="#bfbfbf" points="396,-56.5 396,-86.5 534,-86.5 534,-56.5 396,-56.5"/>
<text text-anchor="start" x="404" y="-74.5" font-family="Helvetica,sans-Serif" font-size="10.00">casacore/images/Images</text>
<text text-anchor="middle" x="465" y="-63.5" font-family="Helvetica,sans-Serif" font-size="10.00">/SubImage.h</text>
</a>
</g>
</g>
<!-- Node6&#45;&gt;Node11 -->
<g id="edge10" class="edge">
<title>Node6&#45;&gt;Node11</title>
<path fill="none" stroke="midnightblue" d="M679.49,-195.95C668.51,-193.96 656.85,-191.88 646,-190 597.84,-181.64 460.61,-191.29 429,-154 414.08,-136.4 428.77,-111.64 443.63,-94.04"/>
<polygon fill="midnightblue" stroke="midnightblue" points="446.3,-96.3 450.36,-86.51 441.08,-91.63 446.3,-96.3"/>
</g>
<!-- Node12 -->
<g id="node12" class="node">
<title>Node12</title>
<g id="a_node12"><a xlink:title=" ">
<polygon fill="none" stroke="#bfbfbf" points="608,-62 608,-81 742,-81 742,-62 608,-62"/>
<text text-anchor="middle" x="675" y="-69" font-family="Helvetica,sans-Serif" font-size="10.00">carta&#45;protobuf/defs.pb.h</text>
</a>
</g>
</g>
<!-- Node6&#45;&gt;Node12 -->
<g id="edge11" class="edge">
<title>Node6&#45;&gt;Node12</title>
<path fill="none" stroke="midnightblue" d="M732.59,-195.98C743.57,-180.65 763.17,-147.74 750,-123 740.94,-105.97 723.29,-93.66 707.4,-85.45"/>
<polygon fill="midnightblue" stroke="midnightblue" points="708.85,-82.26 698.32,-81.09 705.82,-88.57 708.85,-82.26"/>
</g>
<!-- Node13 -->
<g id="node13" class="node">
<title>Node13</title>
<g id="a_node13"><a xlink:title=" ">
<polygon fill="none" stroke="#bfbfbf" points="1258,-62 1258,-81 1404,-81 1404,-62 1258,-62"/>
<text text-anchor="middle" x="1331" y="-69" font-family="Helvetica,sans-Serif" font-size="10.00">carta&#45;protobuf/enums.pb.h</text>
</a>
</g>
</g>
<!-- Node6&#45;&gt;Node13 -->
<g id="edge12" class="edge">
<title>Node6&#45;&gt;Node13</title>
<path fill="none" stroke="midnightblue" d="M796.79,-202.57C913.44,-198.5 1140.38,-186.55 1213,-154 1231.66,-145.64 1230.6,-135.22 1247,-123 1265.77,-109.02 1288.61,-95.48 1305.74,-85.95"/>
<polygon fill="midnightblue" stroke="midnightblue" points="1307.52,-88.97 1314.6,-81.09 1304.15,-82.83 1307.52,-88.97"/>
</g>
<!-- Node14 -->
<g id="node14" class="node">
<title>Node14</title>
<g id="a_node14"><a xlink:href="FileInfo_8h.html" target="_top" xlink:title=" ">
<polygon fill="none" stroke="black" points="622.5,-129 622.5,-148 741.5,-148 741.5,-129 622.5,-129"/>
<text text-anchor="middle" x="682" y="-136" font-family="Helvetica,sans-Serif" font-size="10.00">ImageData/FileInfo.h</text>
</a>
</g>
</g>
<!-- Node6&#45;&gt;Node14 -->
<g id="edge13" class="edge">
<title>Node6&#45;&gt;Node14</title>
<path fill="none" stroke="midnightblue" d="M720.07,-195.73C713.27,-185.7 701.98,-169.01 693.45,-156.42"/>
<polygon fill="midnightblue" stroke="midnightblue" points="696.34,-154.45 687.84,-148.13 690.55,-158.37 696.34,-154.45"/>
</g>
<!-- Node17 -->
<g id="node17" class="node">
<title>Node17</title>
<g id="a_node17"><a xlink:href="Casacore_8h.html" target="_top" xlink:title=" ">
<polygon fill="none" stroke="red" points="54.5,-129 54.5,-148 145.5,-148 145.5,-129 54.5,-129"/>
<text text-anchor="middle" x="100" y="-136" font-family="Helvetica,sans-Serif" font-size="10.00">Util/Casacore.h</text>
</a>
</g>
</g>
<!-- Node6&#45;&gt;Node17 -->
<g id="edge19" class="edge">
<title>Node6&#45;&gt;Node17</title>
<path fill="none" stroke="midnightblue" d="M683.78,-195.98C671.63,-193.77 658.32,-191.56 646,-190 428.93,-162.45 370.82,-190.04 155,-154 149.52,-153.09 143.79,-151.87 138.19,-150.54"/>
<polygon fill="midnightblue" stroke="midnightblue" points="138.88,-147.1 128.33,-148.04 137.16,-153.89 138.88,-147.1"/>
</g>
<!-- Node6&#45;&gt;Node20 -->
<g id="edge22" class="edge">
<title>Node6&#45;&gt;Node20</title>
<path fill="none" stroke="midnightblue" d="M746.72,-195.87C773.64,-184.65 820.86,-164.98 851.78,-152.09"/>
<polygon fill="midnightblue" stroke="midnightblue" points="853.31,-155.24 861.2,-148.17 850.62,-148.78 853.31,-155.24"/>
</g>
<!-- Node14&#45;&gt;Node10 -->
<g id="edge16" class="edge">
<title>Node14&#45;&gt;Node10</title>
<path fill="none" stroke="midnightblue" d="M641.39,-128.97C630.57,-126.85 618.86,-124.7 608,-123 476.31,-102.36 439.66,-107.24 304.21,-87.12"/>
<polygon fill="midnightblue" stroke="midnightblue" points="304.69,-83.65 294.28,-85.63 303.65,-90.57 304.69,-83.65"/>
</g>
<!-- Node14&#45;&gt;Node11 -->
<g id="edge17" class="edge">
<title>Node14&#45;&gt;Node11</title>
<path fill="none" stroke="midnightblue" d="M653.18,-128.87C619.71,-118.84 563.67,-102.06 521.43,-89.4"/>
<polygon fill="midnightblue" stroke="midnightblue" points="522.42,-86.04 511.83,-86.53 520.41,-92.75 522.42,-86.04"/>
</g>
<!-- Node14&#45;&gt;Node12 -->
<g id="edge18" class="edge">
<title>Node14&#45;&gt;Node12</title>
<path fill="none" stroke="midnightblue" d="M681.06,-128.73C680.03,-119.18 678.35,-103.62 677.02,-91.28"/>
<polygon fill="midnightblue" stroke="midnightblue" points="680.48,-90.7 675.93,-81.13 673.52,-91.44 680.48,-90.7"/>
</g>
<!-- Node15 -->
<g id="node15" class="node">
<title>Node15</title>
<g id="a_node15"><a xlink:title=" ">
<polygon fill="none" stroke="#bfbfbf" points="552,-62 552,-81 590,-81 590,-62 552,-62"/>
<text text-anchor="middle" x="571" y="-69" font-family="Helvetica,sans-Serif" font-size="10.00">map</text>
</a>
</g>
</g>
<!-- Node14&#45;&gt;Node15 -->
<g id="edge14" class="edge">
<title>Node14&#45;&gt;Node15</title>
<path fill="none" stroke="midnightblue" d="M667.03,-128.73C648.39,-117.82 616.34,-99.05 594.43,-86.22"/>
<polygon fill="midnightblue" stroke="midnightblue" points="596.13,-83.16 585.73,-81.13 592.59,-89.2 596.13,-83.16"/>
</g>
<!-- Node16 -->
<g id="node16" class="node">
<title>Node16</title>
<g id="a_node16"><a xlink:title=" ">
<polygon fill="none" stroke="#bfbfbf" points="1121.5,-62 1121.5,-81 1168.5,-81 1168.5,-62 1121.5,-62"/>
<text text-anchor="middle" x="1145" y="-69" font-family="Helvetica,sans-Serif" font-size="10.00">vector</text>
</a>
</g>
</g>
<!-- Node14&#45;&gt;Node16 -->
<g id="edge15" class="edge">
<title>Node14&#45;&gt;Node16</title>
<path fill="none" stroke="midnightblue" d="M741.8,-131.47C851.55,-120.26 1077.09,-96.49 1112,-87 1114.29,-86.38 1116.63,-85.62 1118.95,-84.78"/>
<polygon fill="midnightblue" stroke="midnightblue" points="1120.27,-88.02 1128.22,-81.02 1117.64,-81.54 1120.27,-88.02"/>
</g>
<!-- Node17&#45;&gt;Node10 -->
<g id="edge20" class="edge">
<title>Node17&#45;&gt;Node10</title>
<path fill="none" stroke="midnightblue" d="M116.6,-128.87C134.89,-119.36 164.87,-103.77 188.68,-91.39"/>
<polygon fill="midnightblue" stroke="midnightblue" points="190.53,-94.37 197.79,-86.65 187.3,-88.16 190.53,-94.37"/>
</g>
<!-- Node18 -->
<g id="node18" class="node">
<title>Node18</title>
<g id="a_node18"><a xlink:title=" ">
<polygon fill="none" stroke="#bfbfbf" points="0,-56.5 0,-86.5 138,-86.5 138,-56.5 0,-56.5"/>
<text text-anchor="start" x="8" y="-74.5" font-family="Helvetica,sans-Serif" font-size="10.00">casacore/images/Images</text>
<text text-anchor="middle" x="69" y="-63.5" font-family="Helvetica,sans-Serif" font-size="10.00">/ImageOpener.h</text>
</a>
</g>
</g>
<!-- Node17&#45;&gt;Node18 -->
<g id="edge21" class="edge">
<title>Node17&#45;&gt;Node18</title>
<path fill="none" stroke="midnightblue" d="M95.82,-128.73C91.79,-120.29 85.52,-107.14 80.05,-95.68"/>
<polygon fill="midnightblue" stroke="midnightblue" points="83.18,-94.11 75.72,-86.59 76.87,-97.12 83.18,-94.11"/>
</g>
<!-- Node20&#45;&gt;Node8 -->
<g id="edge25" class="edge">
<title>Node20&#45;&gt;Node8</title>
<path fill="none" stroke="midnightblue" d="M868.51,-128.73C851.95,-117.96 823.62,-99.55 803.91,-86.74"/>
<polygon fill="midnightblue" stroke="midnightblue" points="805.56,-83.64 795.27,-81.13 801.75,-89.51 805.56,-83.64"/>
</g>
<!-- Node20&#45;&gt;Node12 -->
<g id="edge26" class="edge">
<title>Node20&#45;&gt;Node12</title>
<path fill="none" stroke="midnightblue" d="M854.51,-128.87C817.83,-117.35 752.77,-96.92 711.87,-84.08"/>
<polygon fill="midnightblue" stroke="midnightblue" points="712.86,-80.72 702.27,-81.06 710.76,-87.4 712.86,-80.72"/>
</g>
<!-- Node20&#45;&gt;Node13 -->
<g id="edge27" class="edge">
<title>Node20&#45;&gt;Node13</title>
<path fill="none" stroke="midnightblue" d="M920.53,-132.64C987.32,-124.13 1128.86,-105.62 1248,-87 1256.31,-85.7 1265.07,-84.25 1273.67,-82.79"/>
<polygon fill="midnightblue" stroke="midnightblue" points="1274.38,-86.22 1283.65,-81.07 1273.2,-79.32 1274.38,-86.22"/>
</g>
<!-- Node21 -->
<g id="node20" class="node">
<title>Node21</title>
<g id="a_node20"><a xlink:title=" ">
<polygon fill="none" stroke="#bfbfbf" points="953.5,-0.5 953.5,-19.5 1000.5,-19.5 1000.5,-0.5 953.5,-0.5"/>
<text text-anchor="middle" x="977" y="-7.5" font-family="Helvetica,sans-Serif" font-size="10.00">cmath</text>
</a>
</g>
</g>
<!-- Node20&#45;&gt;Node21 -->
<g id="edge23" class="edge">
<title>Node20&#45;&gt;Node21</title>
<path fill="none" stroke="midnightblue" d="M899.08,-128.94C914.66,-120.33 937.28,-105.65 951,-87 963.62,-69.84 970.44,-46.1 973.88,-29.74"/>
<polygon fill="midnightblue" stroke="midnightblue" points="977.35,-30.24 975.76,-19.77 970.47,-28.95 977.35,-30.24"/>
</g>
<!-- Node22 -->
<g id="node21" class="node">
<title>Node22</title>
<g id="a_node21"><a xlink:title=" ">
<polygon fill="none" stroke="#bfbfbf" points="312.5,-62 312.5,-81 377.5,-81 377.5,-62 312.5,-62"/>
<text text-anchor="middle" x="345" y="-69" font-family="Helvetica,sans-Serif" font-size="10.00">functional</text>
</a>
</g>
</g>
<!-- Node20&#45;&gt;Node22 -->
<g id="edge24" class="edge">
<title>Node20&#45;&gt;Node22</title>
<path fill="none" stroke="midnightblue" d="M843.31,-133.14C817.01,-130.2 781.41,-126.28 750,-123 588.75,-106.15 545.37,-121.69 387,-87 383.5,-86.23 379.89,-85.27 376.33,-84.2"/>
<polygon fill="midnightblue" stroke="midnightblue" points="377.11,-80.78 366.52,-81.01 374.95,-87.43 377.11,-80.78"/>
</g>
<!-- Node23 -->
<g id="node22" class="node">
<title>Node23</title>
<g id="a_node22"><a xlink:title=" ">
<polygon fill="none" stroke="#bfbfbf" points="822,-56.5 822,-86.5 942,-86.5 942,-56.5 822,-56.5"/>
<text text-anchor="start" x="830" y="-74.5" font-family="Helvetica,sans-Serif" font-size="10.00">carta&#45;protobuf/vector</text>
<text text-anchor="middle" x="882" y="-63.5" font-family="Helvetica,sans-Serif" font-size="10.00">_overlay_tile.pb.h</text>
</a>
</g>
</g>
<!-- Node20&#45;&gt;Node23 -->
<g id="edge28" class="edge">
<title>Node20&#45;&gt;Node23</title>
<path fill="none" stroke="midnightblue" d="M882,-128.73C882,-120.54 882,-107.92 882,-96.71"/>
<polygon fill="midnightblue" stroke="midnightblue" points="885.5,-96.59 882,-86.59 878.5,-96.59 885.5,-96.59"/>
</g>
<!-- Node24 -->
<g id="node23" class="node">
<title>Node24</title>
<g id="a_node23"><a xlink:href="Tile_8h.html" target="_top" xlink:title=" ">
<polygon fill="none" stroke="black" points="998.5,-62 998.5,-81 1103.5,-81 1103.5,-62 998.5,-62"/>
<text text-anchor="middle" x="1051" y="-69" font-family="Helvetica,sans-Serif" font-size="10.00">DataStream/Tile.h</text>
</a>
</g>
</g>
<!-- Node20&#45;&gt;Node24 -->
<g id="edge29" class="edge">
<title>Node20&#45;&gt;Node24</title>
<path fill="none" stroke="midnightblue" d="M904.44,-128.87C933.82,-117.57 985.49,-97.7 1018.97,-84.82"/>
<polygon fill="midnightblue" stroke="midnightblue" points="1020.66,-87.92 1028.73,-81.06 1018.14,-81.39 1020.66,-87.92"/>
</g>
<!-- Node24&#45;&gt;Node21 -->
<g id="edge30" class="edge">
<title>Node24&#45;&gt;Node21</title>
<path fill="none" stroke="midnightblue" d="M1040.4,-61.98C1028.75,-52.61 1009.81,-37.38 995.67,-26.01"/>
<polygon fill="midnightblue" stroke="midnightblue" points="997.57,-23.05 987.58,-19.51 993.18,-28.5 997.57,-23.05"/>
</g>
<!-- Node25 -->
<g id="node24" class="node">
<title>Node25</title>
<g id="a_node24"><a xlink:title=" ">
<polygon fill="none" stroke="#bfbfbf" points="1026,-0.5 1026,-19.5 1076,-19.5 1076,-0.5 1026,-0.5"/>
<text text-anchor="middle" x="1051" y="-7.5" font-family="Helvetica,sans-Serif" font-size="10.00">cstdint</text>
</a>
</g>
</g>
<!-- Node24&#45;&gt;Node25 -->
<g id="edge31" class="edge">
<title>Node24&#45;&gt;Node25</title>
<path fill="none" stroke="midnightblue" d="M1051,-61.98C1051,-53.58 1051,-40.48 1051,-29.66"/>
<polygon fill="midnightblue" stroke="midnightblue" points="1054.5,-29.51 1051,-19.51 1047.5,-29.51 1054.5,-29.51"/>
</g>
<!-- Node26 -->
<g id="node25" class="node">
<title>Node26</title>
<g id="a_node25"><a xlink:title=" ">
<polygon fill="none" stroke="#bfbfbf" points="1489,-0.5 1489,-19.5 1549,-19.5 1549,-0.5 1489,-0.5"/>
<text text-anchor="middle" x="1519" y="-7.5" font-family="Helvetica,sans-Serif" font-size="10.00">iostream</text>
</a>
</g>
</g>
<!-- Node24&#45;&gt;Node26 -->
<g id="edge32" class="edge">
<title>Node24&#45;&gt;Node26</title>
<path fill="none" stroke="midnightblue" d="M1083.77,-61.93C1092.87,-59.76 1102.78,-57.6 1112,-56 1245.36,-32.87 1405.46,-19.25 1478.78,-13.79"/>
<polygon fill="midnightblue" stroke="midnightblue" points="1479.23,-17.27 1488.95,-13.05 1478.72,-10.29 1479.23,-17.27"/>
</g>
<!-- Node27&#45;&gt;Node10 -->
<g id="edge34" class="edge">
<title>Node27&#45;&gt;Node10</title>
<path fill="none" stroke="midnightblue" d="M217.21,-128.73C218.35,-120.54 220.1,-107.92 221.65,-96.71"/>
<polygon fill="midnightblue" stroke="midnightblue" points="225.14,-96.97 223.05,-86.59 218.21,-96.01 225.14,-96.97"/>
</g>
<!-- Node27&#45;&gt;Node22 -->
<g id="edge35" class="edge">
<title>Node27&#45;&gt;Node22</title>
<path fill="none" stroke="midnightblue" d="M233.13,-128.87C255.01,-117.84 293.09,-98.66 318.67,-85.77"/>
<polygon fill="midnightblue" stroke="midnightblue" points="320.44,-88.79 327.8,-81.17 317.29,-82.54 320.44,-88.79"/>
</g>
<!-- Node38&#45;&gt;Node10 -->
<g id="edge48" class="edge">
<title>Node38&#45;&gt;Node10</title>
<path fill="none" stroke="midnightblue" d="M1090.31,-202.82C955.67,-199.15 697.49,-187.81 613,-154 592.44,-145.77 594.38,-131.66 574,-123 465.12,-76.73 425.11,-104.55 304.29,-87.09"/>
<polygon fill="midnightblue" stroke="midnightblue" points="304.7,-83.62 294.29,-85.57 303.65,-90.54 304.7,-83.62"/>
</g>
<!-- Node38&#45;&gt;Node13 -->
<g id="edge49" class="edge">
<title>Node38&#45;&gt;Node13</title>
<path fill="none" stroke="midnightblue" d="M1187.94,-195.84C1203,-186.26 1227.47,-170.04 1247,-154 1272.64,-132.94 1299.74,-105.59 1316.01,-88.54"/>
<polygon fill="midnightblue" stroke="midnightblue" points="1318.75,-90.74 1323.08,-81.07 1313.66,-85.93 1318.75,-90.74"/>
</g>
<!-- Node38&#45;&gt;Node16 -->
<g id="edge47" class="edge">
<title>Node38&#45;&gt;Node16</title>
<path fill="none" stroke="midnightblue" d="M1158.84,-195.95C1145.28,-187.33 1126.3,-172.66 1118,-154 1108.39,-132.4 1121.06,-106.27 1132.08,-89.53"/>
<polygon fill="midnightblue" stroke="midnightblue" points="1135,-91.47 1137.89,-81.28 1129.27,-87.44 1135,-91.47"/>
</g>
<!-- Node39 -->
<g id="node38" class="node">
<title>Node39</title>
<g id="a_node38"><a xlink:href="BasicStatsCalculator_8h.html" target="_top" xlink:title=" ">
<polygon fill="none" stroke="black" points="1391.5,-129 1391.5,-148 1516.5,-148 1516.5,-129 1391.5,-129"/>
<text text-anchor="middle" x="1454" y="-136" font-family="Helvetica,sans-Serif" font-size="10.00">BasicStatsCalculator.h</text>
</a>
</g>
</g>
<!-- Node38&#45;&gt;Node39 -->
<g id="edge50" class="edge">
<title>Node38&#45;&gt;Node39</title>
<path fill="none" stroke="midnightblue" d="M1210.89,-195.94C1261.36,-184.22 1351.94,-163.19 1407.15,-150.38"/>
<polygon fill="midnightblue" stroke="midnightblue" points="1408.08,-153.75 1417.03,-148.08 1406.49,-146.94 1408.08,-153.75"/>
</g>
<!-- Node42 -->
<g id="node41" class="node">
<title>Node42</title>
<g id="a_node41"><a xlink:href="Histogram_8h.html" target="_top" xlink:title=" ">
<polygon fill="none" stroke="black" points="1127.5,-129 1127.5,-148 1204.5,-148 1204.5,-129 1127.5,-129"/>
<text text-anchor="middle" x="1166" y="-136" font-family="Helvetica,sans-Serif" font-size="10.00">Histogram.h</text>
</a>
</g>
</g>
<!-- Node38&#45;&gt;Node42 -->
<g id="edge53" class="edge">
<title>Node38&#45;&gt;Node42</title>
<path fill="none" stroke="midnightblue" d="M1172.92,-195.73C1171.75,-186.18 1169.83,-170.62 1168.31,-158.28"/>
<polygon fill="midnightblue" stroke="midnightblue" points="1171.76,-157.62 1167.06,-148.13 1164.81,-158.48 1171.76,-157.62"/>
</g>
<!-- Node40 -->
<g id="node39" class="node">
<title>Node40</title>
<g id="a_node39"><a xlink:title=" ">
<polygon fill="none" stroke="#bfbfbf" points="1422,-62 1422,-81 1486,-81 1486,-62 1422,-62"/>
<text text-anchor="middle" x="1454" y="-69" font-family="Helvetica,sans-Serif" font-size="10.00">algorithm</text>
</a>
</g>
</g>
<!-- Node39&#45;&gt;Node40 -->
<g id="edge51" class="edge">
<title>Node39&#45;&gt;Node40</title>
<path fill="none" stroke="midnightblue" d="M1454,-128.73C1454,-119.18 1454,-103.62 1454,-91.28"/>
<polygon fill="midnightblue" stroke="midnightblue" points="1457.5,-91.13 1454,-81.13 1450.5,-91.13 1457.5,-91.13"/>
</g>
<!-- Node41 -->
<g id="node40" class="node">
<title>Node41</title>
<g id="a_node40"><a xlink:href="BasicStatsCalculator_8tcc.html" target="_top" xlink:title=" ">
<polygon fill="none" stroke="black" points="1504,-62 1504,-81 1638,-81 1638,-62 1504,-62"/>
<text text-anchor="middle" x="1571" y="-69" font-family="Helvetica,sans-Serif" font-size="10.00">BasicStatsCalculator.tcc</text>
</a>
</g>
</g>
<!-- Node39&#45;&gt;Node41 -->
<g id="edge52" class="edge">
<title>Node39&#45;&gt;Node41</title>
<path fill="none" stroke="midnightblue" d="M1469.78,-128.73C1489.51,-117.77 1523.51,-98.88 1546.61,-86.05"/>
<polygon fill="midnightblue" stroke="midnightblue" points="1548.43,-89.04 1555.47,-81.13 1545.03,-82.92 1548.43,-89.04"/>
</g>
<!-- Node42&#45;&gt;Node16 -->
<g id="edge55" class="edge">
<title>Node42&#45;&gt;Node16</title>
<path fill="none" stroke="midnightblue" d="M1163.17,-128.73C1160.05,-119.09 1154.95,-103.3 1150.95,-90.91"/>
<polygon fill="midnightblue" stroke="midnightblue" points="1154.19,-89.57 1147.79,-81.13 1147.53,-91.72 1154.19,-89.57"/>
</g>
<!-- Node43 -->
<g id="node42" class="node">
<title>Node43</title>
<g id="a_node42"><a xlink:title=" ">
<polygon fill="none" stroke="#bfbfbf" points="1186.5,-62 1186.5,-81 1239.5,-81 1239.5,-62 1186.5,-62"/>
<text text-anchor="middle" x="1213" y="-69" font-family="Helvetica,sans-Serif" font-size="10.00">cstddef</text>
</a>
</g>
</g>
<!-- Node42&#45;&gt;Node43 -->
<g id="edge54" class="edge">
<title>Node42&#45;&gt;Node43</title>
<path fill="none" stroke="midnightblue" d="M1172.34,-128.73C1179.6,-118.7 1191.66,-102.01 1200.76,-89.42"/>
<polygon fill="midnightblue" stroke="midnightblue" points="1203.74,-91.28 1206.76,-81.13 1198.07,-87.18 1203.74,-91.28"/>
</g>
<!-- Node44&#45;&gt;Node13 -->
<g id="edge63" class="edge">
<title>Node44&#45;&gt;Node13</title>
<path fill="none" stroke="midnightblue" d="M1515.32,-264.45C1446.6,-254.56 1332.3,-236.07 1320,-221 1289.29,-183.38 1309.57,-121.01 1322.55,-90.47"/>
<polygon fill="midnightblue" stroke="midnightblue" points="1325.86,-91.65 1326.74,-81.09 1319.46,-88.79 1325.86,-91.65"/>
</g>
<!-- Node44&#45;&gt;Node26 -->
<g id="edge57" class="edge">
<title>Node44&#45;&gt;Node26</title>
<path fill="none" stroke="midnightblue" d="M1616.75,-262.96C1629.22,-260.92 1642.59,-258.8 1655,-257 1718.39,-247.79 1898.63,-269.04 1941,-221 1950.11,-210.67 1948.45,-201.59 1941,-190 1855.16,-56.54 1647.03,-22.39 1559.18,-13.81"/>
<polygon fill="midnightblue" stroke="midnightblue" points="1559.36,-10.31 1549.08,-12.89 1558.72,-17.28 1559.36,-10.31"/>
</g>
<!-- Node45 -->
<g id="node44" class="node">
<title>Node45</title>
<g id="a_node44"><a xlink:title=" ">
<polygon fill="none" stroke="#bfbfbf" points="1329,-196 1329,-215 1433,-215 1433,-196 1329,-196"/>
<text text-anchor="middle" x="1381" y="-203" font-family="Helvetica,sans-Serif" font-size="10.00">spdlog/common.h</text>
</a>
</g>
</g>
<!-- Node44&#45;&gt;Node45 -->
<g id="edge58" class="edge">
<title>Node44&#45;&gt;Node45</title>
<path fill="none" stroke="midnightblue" d="M1542.3,-262.87C1509.69,-251.47 1452.12,-231.35 1415.3,-218.49"/>
<polygon fill="midnightblue" stroke="midnightblue" points="1416.1,-215.06 1405.51,-215.06 1413.79,-221.67 1416.1,-215.06"/>
</g>
<!-- Node46 -->
<g id="node45" class="node">
<title>Node46</title>
<g id="a_node45"><a xlink:title=" ">
<polygon fill="none" stroke="#bfbfbf" points="1451.5,-190.5 1451.5,-220.5 1554.5,-220.5 1554.5,-190.5 1451.5,-190.5"/>
<text text-anchor="start" x="1459.5" y="-208.5" font-family="Helvetica,sans-Serif" font-size="10.00">spdlog/details/log</text>
<text text-anchor="middle" x="1503" y="-197.5" font-family="Helvetica,sans-Serif" font-size="10.00">_msg.h</text>
</a>
</g>
</g>
<!-- Node44&#45;&gt;Node46 -->
<g id="edge59" class="edge">
<title>Node44&#45;&gt;Node46</title>
<path fill="none" stroke="midnightblue" d="M1558.37,-262.73C1549.64,-253.86 1535.8,-239.81 1524.14,-227.97"/>
<polygon fill="midnightblue" stroke="midnightblue" points="1526.38,-225.26 1516.87,-220.59 1521.39,-230.17 1526.38,-225.26"/>
</g>
<!-- Node47 -->
<g id="node46" class="node">
<title>Node47</title>
<g id="a_node46"><a xlink:title=" ">
<polygon fill="none" stroke="#bfbfbf" points="1572.5,-190.5 1572.5,-220.5 1691.5,-220.5 1691.5,-190.5 1572.5,-190.5"/>
<text text-anchor="start" x="1580.5" y="-208.5" font-family="Helvetica,sans-Serif" font-size="10.00">spdlog/sinks/rotating</text>
<text text-anchor="middle" x="1632" y="-197.5" font-family="Helvetica,sans-Serif" font-size="10.00">_file_sink.h</text>
</a>
</g>
</g>
<!-- Node44&#45;&gt;Node47 -->
<g id="edge60" class="edge">
<title>Node44&#45;&gt;Node47</title>
<path fill="none" stroke="midnightblue" d="M1575.77,-262.73C1584.64,-253.86 1598.69,-239.81 1610.53,-227.97"/>
<polygon fill="midnightblue" stroke="midnightblue" points="1613.31,-230.13 1617.91,-220.59 1608.37,-225.19 1613.31,-230.13"/>
</g>
<!-- Node48 -->
<g id="node47" class="node">
<title>Node48</title>
<g id="a_node47"><a xlink:title=" ">
<polygon fill="none" stroke="#bfbfbf" points="1709.5,-190.5 1709.5,-220.5 1820.5,-220.5 1820.5,-190.5 1709.5,-190.5"/>
<text text-anchor="start" x="1717.5" y="-208.5" font-family="Helvetica,sans-Serif" font-size="10.00">spdlog/sinks/stdout</text>
<text text-anchor="middle" x="1765" y="-197.5" font-family="Helvetica,sans-Serif" font-size="10.00">_color_sinks.h</text>
</a>
</g>
</g>
<!-- Node44&#45;&gt;Node48 -->
<g id="edge61" class="edge">
<title>Node44&#45;&gt;Node48</title>
<path fill="none" stroke="midnightblue" d="M1593.29,-262.87C1623.52,-252.95 1673.89,-236.41 1712.29,-223.81"/>
<polygon fill="midnightblue" stroke="midnightblue" points="1713.86,-226.97 1722.27,-220.53 1711.68,-220.32 1713.86,-226.97"/>
</g>
<!-- Node49 -->
<g id="node48" class="node">
<title>Node49</title>
<g id="a_node48"><a xlink:title=" ">
<polygon fill="none" stroke="#bfbfbf" points="1838.5,-196 1838.5,-215 1931.5,-215 1931.5,-196 1838.5,-196"/>
<text text-anchor="middle" x="1885" y="-203" font-family="Helvetica,sans-Serif" font-size="10.00">spdlog/spdlog.h</text>
</a>
</g>
</g>
<!-- Node44&#45;&gt;Node49 -->
<g id="edge62" class="edge">
<title>Node44&#45;&gt;Node49</title>
<path fill="none" stroke="midnightblue" d="M1604.65,-262.99C1613.9,-260.96 1623.8,-258.85 1633,-257 1720.26,-239.45 1743.13,-240.36 1830,-221 1834.69,-219.95 1839.59,-218.78 1844.44,-217.57"/>
<polygon fill="midnightblue" stroke="midnightblue" points="1845.45,-220.92 1854.27,-215.05 1843.71,-214.14 1845.45,-220.92"/>
</g>
<!-- Node44&#45;&gt;Node50 -->
<g id="edge64" class="edge">
<title>Node44&#45;&gt;Node50</title>
<path fill="none" stroke="midnightblue" d="M1602.48,-262.95C1612.32,-260.78 1623.04,-258.61 1633,-257 1783.43,-232.61 1823.65,-245.88 1974,-221 1980.34,-219.95 1987,-218.66 1993.52,-217.28"/>
<polygon fill="midnightblue" stroke="midnightblue" points="1994.58,-220.63 2003.6,-215.07 1993.09,-213.8 1994.58,-220.63"/>
</g>
<!-- Node51 -->
<g id="node50" class="node">
<title>Node51</title>
<g id="a_node50"><a xlink:title=" ">
<polygon fill="none" stroke="#bfbfbf" points="2004,-129 2004,-148 2072,-148 2072,-129 2004,-129"/>
<text text-anchor="middle" x="2038" y="-136" font-family="Helvetica,sans-Serif" font-size="10.00">filesystem</text>
</a>
</g>
</g>
<!-- Node50&#45;&gt;Node51 -->
<g id="edge65" class="edge">
<title>Node50&#45;&gt;Node51</title>
<path fill="none" stroke="midnightblue" d="M2038,-195.73C2038,-186.18 2038,-170.62 2038,-158.28"/>
<polygon fill="midnightblue" stroke="midnightblue" points="2041.5,-158.13 2038,-148.13 2034.5,-158.13 2041.5,-158.13"/>
</g>
</g>
</svg>
        <g id="navigator" transform="translate(0 0)" fill="#404254">
                <rect fill="#f2f5e9" fill-opacity="0.5" stroke="#606060" stroke-width=".5" x="0" y="0" width="60" height="60"/>
                <use id="zoomplus" xlink:href="#zoomPlus" x="17" y="9" onmousedown="handleZoom(evt,'in')"/>
                <use id="zoomminus" xlink:href="#zoomMin" x="42" y="9" onmousedown="handleZoom(evt,'out')"/>
                <use id="reset" xlink:href="#resetDef" x="30" y="36" onmousedown="handleReset()"/>
                <g id="arrowUp" xlink:href="#dirArrow" transform="translate(30 24)" onmousedown="handlePan(0,-1)">
                  <use xlink:href="#rim" fill="#404040">
                        <set attributeName="fill" to="#808080" begin="arrowUp.mouseover" end="arrowUp.mouseout"/>
                  </use>
                  <path fill="none" stroke="white" stroke-width="1.5" d="M0,-3.0v7 M-2.5,-0.5L0,-3.0L2.5,-0.5"/>
                </g>
                <g id="arrowRight" xlink:href="#dirArrow" transform="rotate(90) translate(36 -43)" onmousedown="handlePan(1,0)">
                  <use xlink:href="#rim" fill="#404040">
                        <set attributeName="fill" to="#808080" begin="arrowRight.mouseover" end="arrowRight.mouseout"/>
                  </use>
                  <path fill="none" stroke="white" stroke-width="1.5" d="M0,-3.0v7 M-2.5,-0.5L0,-3.0L2.5,-0.5"/>
                </g>
                <g id="arrowDown" xlink:href="#dirArrow" transform="rotate(180) translate(-30 -48)" onmousedown="handlePan(0,1)">
                  <use xlink:href="#rim" fill="#404040">
                        <set attributeName="fill" to="#808080" begin="arrowDown.mouseover" end="arrowDown.mouseout"/>
                  </use>
                  <path fill="none" stroke="white" stroke-width="1.5" d="M0,-3.0v7 M-2.5,-0.5L0,-3.0L2.5,-0.5"/>
                </g>
                <g id="arrowLeft" xlink:href="#dirArrow" transform="rotate(270) translate(-36 17)" onmousedown="handlePan(-1,0)">
                  <use xlink:href="#rim" fill="#404040">
                        <set attributeName="fill" to="#808080" begin="arrowLeft.mouseover" end="arrowLeft.mouseout"/>
                  </use>
                  <path fill="none" stroke="white" stroke-width="1.5" d="M0,-3.0v7 M-2.5,-0.5L0,-3.0L2.5,-0.5"/>
                </g>
        </g>
        <svg viewBox="0 0 15 15" width="100%" height="30px" preserveAspectRatio="xMaxYMin meet">
         <g id="arrow_out" transform="scale(0.3 0.3)">
          <a xlink:href="PvGenerator_8cc__incl_org.svg" target="_base">
           <rect id="button" ry="5" rx="5" y="6" x="6" height="38" width="38"
                fill="#f2f5e9" fill-opacity="0.5" stroke="#606060" stroke-width="1.0"/>
           <path id="arrow"
             d="M 11.500037,31.436501 C 11.940474,20.09759 22.043105,11.32322 32.158766,21.979434 L 37.068811,17.246167 C 37.068811,17.246167 37.088388,32 37.088388,32 L 22.160133,31.978069 C 22.160133,31.978069 26.997745,27.140456 26.997745,27.140456 C 18.528582,18.264221 13.291696,25.230495 11.500037,31.436501 z"
             style="fill:#404040;"/>
          </a>
         </g>
        </svg>
</svg>
