<?xml version="1.0" encoding="UTF-8" standalone="no"?>
<!DOCTYPE svg PUBLIC "-//W3C//DTD SVG 1.1//EN"
 "http://www.w3.org/Graphics/SVG/1.1/DTD/svg11.dtd">
<!-- Generated by graphviz version 2.43.0 (0)
 -->
<!-- Title: ExitNoSessions Pages: 1 -->
<svg width="277pt" height="78pt"
 viewBox="0.00 0.00 277.00 77.50" xmlns="http://www.w3.org/2000/svg" xmlns:xlink="http://www.w3.org/1999/xlink">
<g id="graph0" class="graph" transform="scale(1 1) rotate(0) translate(4 73.5)">
<title>ExitNoSessions</title>
<!-- Node1 -->
<g id="node1" class="node">
<title>Node1</title>
<g id="a_node1"><a xlink:title=" ">
<polygon fill="#bfbfbf" stroke="black" points="177,-22.5 177,-41.5 269,-41.5 269,-22.5 177,-22.5"/>
<text text-anchor="middle" x="223" y="-29.5" font-family="Helvetica,sans-Serif" font-size="10.00">ExitNoSessions</text>
</a>
</g>
</g>
<!-- Node2 -->
<g id="node2" class="node">
<title>Node2</title>
<g id="a_node2"><a xlink:href="classcarta_1_1Session.html#ad8a393254598d44b7b2c518b57d667e0" target="_top" xlink:title=" ">
<polygon fill="none" stroke="black" points="0,-39 0,-69 141,-69 141,-39 0,-39"/>
<text text-anchor="start" x="8" y="-57" font-family="Helvetica,sans-Serif" font-size="10.00">carta::Session::SetInitExit</text>
<text text-anchor="middle" x="70.5" y="-46" font-family="Helvetica,sans-Serif" font-size="10.00">Timeout</text>
</a>
</g>
</g>
<!-- Node1&#45;&gt;Node2 -->
<g id="edge1" class="edge">
<title>Node1&#45;&gt;Node2</title>
<path fill="none" stroke="midnightblue" d="M166.85,-40.06C158.48,-41.29 149.75,-42.56 141.12,-43.82"/>
<polygon fill="midnightblue" stroke="midnightblue" points="167.46,-43.51 176.85,-38.6 166.44,-36.58 167.46,-43.51"/>
</g>
<!-- Node3 -->
<g id="node3" class="node">
<title>Node3</title>
<g id="a_node3"><a xlink:href="classcarta_1_1Session.html#a8753bb9dee966b7d39abc9b7237cd665" target="_top" xlink:title=" ">
<polygon fill="none" stroke="black" points="2,-0.5 2,-19.5 139,-19.5 139,-0.5 2,-0.5"/>
<text text-anchor="middle" x="70.5" y="-7.5" font-family="Helvetica,sans-Serif" font-size="10.00">carta::Session::~Session</text>
</a>
</g>
</g>
<!-- Node1&#45;&gt;Node3 -->
<g id="edge2" class="edge">
<title>Node1&#45;&gt;Node3</title>
<path fill="none" stroke="midnightblue" d="M166.83,-23.94C157.02,-22.5 146.71,-20.99 136.65,-19.52"/>
<polygon fill="midnightblue" stroke="midnightblue" points="166.44,-27.42 176.85,-25.4 167.46,-20.49 166.44,-27.42"/>
</g>
</g>
</svg>
