<?xml version="1.0" encoding="UTF-8" standalone="no"?>
<!DOCTYPE svg PUBLIC "-//W3C//DTD SVG 1.1//EN"
 "http://www.w3.org/Graphics/SVG/1.1/DTD/svg11.dtd">
<!-- Generated by graphviz version 2.43.0 (0)
 -->
<!-- Title: SessionManager.cc Pages: 1 -->
<svg width="4720pt" height="386pt"
 viewBox="0.00 0.00 4720.00 386.00" xmlns="http://www.w3.org/2000/svg" xmlns:xlink="http://www.w3.org/1999/xlink">
<g id="graph0" class="graph" transform="scale(1 1) rotate(0) translate(4 382)">
<title>SessionManager.cc</title>
<!-- Node1 -->
<g id="node1" class="node">
<title>Node1</title>
<g id="a_node1"><a xlink:title=" ">
<polygon fill="#bfbfbf" stroke="black" points="1248.5,-358.5 1248.5,-377.5 1358.5,-377.5 1358.5,-358.5 1248.5,-358.5"/>
<text text-anchor="middle" x="1303.5" y="-365.5" font-family="Helvetica,sans-Serif" font-size="10.00">SessionManager.cc</text>
</a>
</g>
</g>
<!-- Node2 -->
<g id="node2" class="node">
<title>Node2</title>
<g id="a_node2"><a xlink:href="SessionManager_8h.html" target="_top" xlink:title=" ">
<polygon fill="none" stroke="black" points="986,-179.5 986,-198.5 1091,-198.5 1091,-179.5 986,-179.5"/>
<text text-anchor="middle" x="1038.5" y="-186.5" font-family="Helvetica,sans-Serif" font-size="10.00">SessionManager.h</text>
</a>
</g>
</g>
<!-- Node1&#45;&gt;Node2 -->
<g id="edge1" class="edge">
<title>Node1&#45;&gt;Node2</title>
<path fill="none" stroke="midnightblue" d="M1290.72,-358.46C1248.49,-330.26 1113.11,-239.83 1060.09,-204.42"/>
<polygon fill="midnightblue" stroke="midnightblue" points="1061.72,-201.3 1051.46,-198.66 1057.84,-207.12 1061.72,-201.3"/>
</g>
<!-- Node11 -->
<g id="node9" class="node">
<title>Node11</title>
<g id="a_node9"><a xlink:href="Logger_8h.html" target="_top" xlink:title=" ">
<polygon fill="none" stroke="black" points="596.5,-67.5 596.5,-86.5 690.5,-86.5 690.5,-67.5 596.5,-67.5"/>
<text text-anchor="middle" x="643.5" y="-74.5" font-family="Helvetica,sans-Serif" font-size="10.00">Logger/Logger.h</text>
</a>
</g>
</g>
<!-- Node1&#45;&gt;Node11 -->
<g id="edge54" class="edge">
<title>Node1&#45;&gt;Node11</title>
<path fill="none" stroke="midnightblue" d="M1248.02,-365.83C1113.42,-361.5 780.5,-341.18 780.5,-246 780.5,-246 780.5,-246 780.5,-188 780.5,-137 722.05,-105.69 681.51,-90.11"/>
<polygon fill="midnightblue" stroke="midnightblue" points="682.48,-86.74 671.89,-86.58 680.07,-93.31 682.48,-86.74"/>
</g>
<!-- Node54 -->
<g id="node21" class="node">
<title>Node54</title>
<g id="a_node21"><a xlink:href="Message_8h.html" target="_top" xlink:title=" ">
<polygon fill="none" stroke="red" points="2413,-67.5 2413,-86.5 2502,-86.5 2502,-67.5 2413,-67.5"/>
<text text-anchor="middle" x="2457.5" y="-74.5" font-family="Helvetica,sans-Serif" font-size="10.00">Util/Message.h</text>
</a>
</g>
</g>
<!-- Node1&#45;&gt;Node54 -->
<g id="edge67" class="edge">
<title>Node1&#45;&gt;Node54</title>
<path fill="none" stroke="midnightblue" d="M1358.55,-366.43C1497.52,-363.51 1851.5,-346.23 1851.5,-246 1851.5,-246 1851.5,-246 1851.5,-188 1851.5,-132.27 2253.47,-94.35 2402.64,-82.2"/>
<polygon fill="midnightblue" stroke="midnightblue" points="2403.25,-85.66 2412.94,-81.37 2402.69,-78.68 2403.25,-85.66"/>
</g>
<!-- Node183 -->
<g id="node46" class="node">
<title>Node183</title>
<g id="a_node46"><a xlink:href="OnMessageTask_8h.html" target="_top" xlink:title=" ">
<polygon fill="none" stroke="black" points="1204.5,-235.5 1204.5,-254.5 1308.5,-254.5 1308.5,-235.5 1204.5,-235.5"/>
<text text-anchor="middle" x="1256.5" y="-242.5" font-family="Helvetica,sans-Serif" font-size="10.00">OnMessageTask.h</text>
</a>
</g>
</g>
<!-- Node1&#45;&gt;Node183 -->
<g id="edge55" class="edge">
<title>Node1&#45;&gt;Node183</title>
<path fill="none" stroke="midnightblue" d="M1294.46,-358.25C1286.29,-349.78 1274.64,-336.17 1268.5,-322 1260.55,-303.65 1257.8,-280.78 1256.88,-264.95"/>
<polygon fill="midnightblue" stroke="midnightblue" points="1260.37,-264.68 1256.49,-254.83 1253.38,-264.95 1260.37,-264.68"/>
</g>
<!-- Node185 -->
<g id="node48" class="node">
<title>Node185</title>
<g id="a_node48"><a xlink:href="ThreadingManager_8h.html" target="_top" xlink:title=" ">
<polygon fill="none" stroke="black" points="1277.5,-291.5 1277.5,-321.5 1437.5,-321.5 1437.5,-291.5 1277.5,-291.5"/>
<text text-anchor="start" x="1285.5" y="-309.5" font-family="Helvetica,sans-Serif" font-size="10.00">ThreadingManager/Threading</text>
<text text-anchor="middle" x="1357.5" y="-298.5" font-family="Helvetica,sans-Serif" font-size="10.00">Manager.h</text>
</a>
</g>
</g>
<!-- Node1&#45;&gt;Node185 -->
<g id="edge64" class="edge">
<title>Node1&#45;&gt;Node185</title>
<path fill="none" stroke="midnightblue" d="M1311.24,-358.48C1318.21,-350.79 1328.76,-339.17 1338.02,-328.96"/>
<polygon fill="midnightblue" stroke="midnightblue" points="1340.64,-331.28 1344.77,-321.52 1335.46,-326.58 1340.64,-331.28"/>
</g>
<!-- Node187 -->
<g id="node50" class="node">
<title>Node187</title>
<g id="a_node50"><a xlink:href="Token_8h.html" target="_top" xlink:title=" ">
<polygon fill="none" stroke="red" points="2320.5,-297 2320.5,-316 2394.5,-316 2394.5,-297 2320.5,-297"/>
<text text-anchor="middle" x="2357.5" y="-304" font-family="Helvetica,sans-Serif" font-size="10.00">Util/Token.h</text>
</a>
</g>
</g>
<!-- Node1&#45;&gt;Node187 -->
<g id="edge68" class="edge">
<title>Node1&#45;&gt;Node187</title>
<path fill="none" stroke="midnightblue" d="M1358.68,-363.88C1543.4,-353.46 2138.06,-319.89 2310.33,-310.16"/>
<polygon fill="midnightblue" stroke="midnightblue" points="2310.56,-313.66 2320.35,-309.6 2310.17,-306.67 2310.56,-313.66"/>
</g>
<!-- Node3 -->
<g id="node3" class="node">
<title>Node3</title>
<g id="a_node3"><a xlink:title=" ">
<polygon fill="none" stroke="#bfbfbf" points="1026.5,-67.5 1026.5,-86.5 1138.5,-86.5 1138.5,-67.5 1026.5,-67.5"/>
<text text-anchor="middle" x="1082.5" y="-74.5" font-family="Helvetica,sans-Serif" font-size="10.00">uWebSockets/App.h</text>
</a>
</g>
</g>
<!-- Node2&#45;&gt;Node3 -->
<g id="edge2" class="edge">
<title>Node2&#45;&gt;Node3</title>
<path fill="none" stroke="midnightblue" d="M1041.95,-179.37C1049.12,-161.46 1065.73,-119.92 1075.32,-95.95"/>
<polygon fill="midnightblue" stroke="midnightblue" points="1078.6,-97.18 1079.06,-86.59 1072.1,-94.58 1078.6,-97.18"/>
</g>
<!-- Node4 -->
<g id="node4" class="node">
<title>Node4</title>
<g id="a_node4"><a xlink:title=" ">
<polygon fill="none" stroke="#bfbfbf" points="961,-67.5 961,-86.5 1008,-86.5 1008,-67.5 961,-67.5"/>
<text text-anchor="middle" x="984.5" y="-74.5" font-family="Helvetica,sans-Serif" font-size="10.00">vector</text>
</a>
</g>
</g>
<!-- Node2&#45;&gt;Node4 -->
<g id="edge3" class="edge">
<title>Node2&#45;&gt;Node4</title>
<path fill="none" stroke="midnightblue" d="M1037.02,-179.2C1034.61,-166.32 1029.14,-141.84 1019.5,-123 1014.22,-112.67 1006.43,-102.36 999.54,-94.22"/>
<polygon fill="midnightblue" stroke="midnightblue" points="1002.07,-91.8 992.83,-86.61 996.82,-96.43 1002.07,-91.8"/>
</g>
<!-- Node5 -->
<g id="node5" class="node">
<title>Node5</title>
<g id="a_node5"><a xlink:href="ProgramSettings_8h.html" target="_top" xlink:title=" ">
<polygon fill="none" stroke="red" points="876.5,-123.5 876.5,-142.5 1010.5,-142.5 1010.5,-123.5 876.5,-123.5"/>
<text text-anchor="middle" x="943.5" y="-130.5" font-family="Helvetica,sans-Serif" font-size="10.00">Main/ProgramSettings.h</text>
</a>
</g>
</g>
<!-- Node2&#45;&gt;Node5 -->
<g id="edge4" class="edge">
<title>Node2&#45;&gt;Node5</title>
<path fill="none" stroke="midnightblue" d="M1023.24,-179.32C1008.28,-170.82 985.25,-157.73 967.77,-147.8"/>
<polygon fill="midnightblue" stroke="midnightblue" points="969.15,-144.55 958.73,-142.65 965.69,-150.64 969.15,-144.55"/>
</g>
<!-- Node20 -->
<g id="node17" class="node">
<title>Node20</title>
<g id="a_node17"><a xlink:href="Session_8h.html" target="_top" xlink:title=" ">
<polygon fill="none" stroke="red" points="1146,-123.5 1146,-142.5 1209,-142.5 1209,-123.5 1146,-123.5"/>
<text text-anchor="middle" x="1177.5" y="-130.5" font-family="Helvetica,sans-Serif" font-size="10.00">Session.h</text>
</a>
</g>
</g>
<!-- Node2&#45;&gt;Node20 -->
<g id="edge19" class="edge">
<title>Node2&#45;&gt;Node20</title>
<path fill="none" stroke="midnightblue" d="M1060.52,-179.44C1083.6,-170.48 1120.06,-156.31 1146.14,-146.18"/>
<polygon fill="midnightblue" stroke="midnightblue" points="1147.52,-149.4 1155.58,-142.52 1144.99,-142.88 1147.52,-149.4"/>
</g>
<!-- Node5&#45;&gt;Node4 -->
<g id="edge8" class="edge">
<title>Node5&#45;&gt;Node4</title>
<path fill="none" stroke="midnightblue" d="M950.27,-123.08C956.06,-115.46 964.56,-104.26 971.64,-94.94"/>
<polygon fill="midnightblue" stroke="midnightblue" points="974.6,-96.83 977.86,-86.75 969.02,-92.6 974.6,-96.83"/>
</g>
<!-- Node6 -->
<g id="node6" class="node">
<title>Node6</title>
<g id="a_node6"><a xlink:title=" ">
<polygon fill="none" stroke="#bfbfbf" points="902.5,-6 902.5,-25 962.5,-25 962.5,-6 902.5,-6"/>
<text text-anchor="middle" x="932.5" y="-13" font-family="Helvetica,sans-Serif" font-size="10.00">iostream</text>
</a>
</g>
</g>
<!-- Node5&#45;&gt;Node6 -->
<g id="edge5" class="edge">
<title>Node5&#45;&gt;Node6</title>
<path fill="none" stroke="midnightblue" d="M942.67,-123.32C940.91,-104.76 936.72,-60.84 934.31,-35.47"/>
<polygon fill="midnightblue" stroke="midnightblue" points="937.77,-34.91 933.34,-25.28 930.8,-35.57 937.77,-34.91"/>
</g>
<!-- Node7 -->
<g id="node7" class="node">
<title>Node7</title>
<g id="a_node7"><a xlink:title=" ">
<polygon fill="none" stroke="#bfbfbf" points="2519.5,-67.5 2519.5,-86.5 2563.5,-86.5 2563.5,-67.5 2519.5,-67.5"/>
<text text-anchor="middle" x="2541.5" y="-74.5" font-family="Helvetica,sans-Serif" font-size="10.00">string</text>
</a>
</g>
</g>
<!-- Node5&#45;&gt;Node7 -->
<g id="edge6" class="edge">
<title>Node5&#45;&gt;Node7</title>
<path fill="none" stroke="midnightblue" d="M1010.92,-128.52C1047.98,-126.69 1094.77,-124.52 1136.5,-123 1438.68,-112 2193.25,-134.84 2509.24,-86.94"/>
<polygon fill="midnightblue" stroke="midnightblue" points="2510.03,-90.36 2519.37,-85.35 2508.95,-83.44 2510.03,-90.36"/>
</g>
<!-- Node8 -->
<g id="node8" class="node">
<title>Node8</title>
<g id="a_node8"><a xlink:title=" ">
<polygon fill="none" stroke="#bfbfbf" points="1157,-67.5 1157,-86.5 1198,-86.5 1198,-67.5 1157,-67.5"/>
<text text-anchor="middle" x="1177.5" y="-74.5" font-family="Helvetica,sans-Serif" font-size="10.00">tuple</text>
</a>
</g>
</g>
<!-- Node5&#45;&gt;Node8 -->
<g id="edge7" class="edge">
<title>Node5&#45;&gt;Node8</title>
<path fill="none" stroke="midnightblue" d="M986.7,-123.44C1026.04,-115.43 1085.92,-102.7 1147.08,-86.95"/>
<polygon fill="midnightblue" stroke="midnightblue" points="1148.1,-90.3 1156.9,-84.4 1146.34,-83.53 1148.1,-90.3"/>
</g>
<!-- Node5&#45;&gt;Node11 -->
<g id="edge9" class="edge">
<title>Node5&#45;&gt;Node11</title>
<path fill="none" stroke="midnightblue" d="M895.96,-123.44C842.97,-113.9 757.3,-98.48 700.68,-88.29"/>
<polygon fill="midnightblue" stroke="midnightblue" points="701.28,-84.84 690.81,-86.52 700.04,-91.73 701.28,-84.84"/>
</g>
<!-- Node18 -->
<g id="node16" class="node">
<title>Node18</title>
<g id="a_node16"><a xlink:href="FileSystem_8h.html" target="_top" xlink:title=" ">
<polygon fill="none" stroke="red" points="784.5,-6 784.5,-25 884.5,-25 884.5,-6 784.5,-6"/>
<text text-anchor="middle" x="834.5" y="-13" font-family="Helvetica,sans-Serif" font-size="10.00">Util/FileSystem.h</text>
</a>
</g>
</g>
<!-- Node5&#45;&gt;Node18 -->
<g id="edge18" class="edge">
<title>Node5&#45;&gt;Node18</title>
<path fill="none" stroke="midnightblue" d="M935.31,-123.32C917.16,-104.09 873.33,-57.64 849.89,-32.81"/>
<polygon fill="midnightblue" stroke="midnightblue" points="852.2,-30.15 842.79,-25.28 847.11,-34.96 852.2,-30.15"/>
</g>
<!-- Node11&#45;&gt;Node6 -->
<g id="edge10" class="edge">
<title>Node11&#45;&gt;Node6</title>
<path fill="none" stroke="midnightblue" d="M690.59,-70.07C741.26,-63.1 823.95,-50.03 893.5,-31 896.31,-30.23 899.2,-29.35 902.08,-28.4"/>
<polygon fill="midnightblue" stroke="midnightblue" points="903.4,-31.64 911.67,-25.02 901.08,-25.04 903.4,-31.64"/>
</g>
<!-- Node12 -->
<g id="node10" class="node">
<title>Node12</title>
<g id="a_node10"><a xlink:title=" ">
<polygon fill="none" stroke="#bfbfbf" points="662.5,-6 662.5,-25 766.5,-25 766.5,-6 662.5,-6"/>
<text text-anchor="middle" x="714.5" y="-13" font-family="Helvetica,sans-Serif" font-size="10.00">spdlog/common.h</text>
</a>
</g>
</g>
<!-- Node11&#45;&gt;Node12 -->
<g id="edge11" class="edge">
<title>Node11&#45;&gt;Node12</title>
<path fill="none" stroke="midnightblue" d="M653.67,-67.48C664.85,-58.11 683.02,-42.88 696.59,-31.51"/>
<polygon fill="midnightblue" stroke="midnightblue" points="698.93,-34.11 704.35,-25.01 694.43,-28.75 698.93,-34.11"/>
</g>
<!-- Node13 -->
<g id="node11" class="node">
<title>Node13</title>
<g id="a_node11"><a xlink:title=" ">
<polygon fill="none" stroke="#bfbfbf" points="0,-0.5 0,-30.5 103,-30.5 103,-0.5 0,-0.5"/>
<text text-anchor="start" x="8" y="-18.5" font-family="Helvetica,sans-Serif" font-size="10.00">spdlog/details/log</text>
<text text-anchor="middle" x="51.5" y="-7.5" font-family="Helvetica,sans-Serif" font-size="10.00">_msg.h</text>
</a>
</g>
</g>
<!-- Node11&#45;&gt;Node13 -->
<g id="edge12" class="edge">
<title>Node11&#45;&gt;Node13</title>
<path fill="none" stroke="midnightblue" d="M596.24,-74.42C504.68,-70.85 296.69,-60.18 113.21,-31.12"/>
<polygon fill="midnightblue" stroke="midnightblue" points="113.54,-27.63 103.11,-29.5 112.43,-34.54 113.54,-27.63"/>
</g>
<!-- Node14 -->
<g id="node12" class="node">
<title>Node14</title>
<g id="a_node12"><a xlink:title=" ">
<polygon fill="none" stroke="#bfbfbf" points="121,-0.5 121,-30.5 240,-30.5 240,-0.5 121,-0.5"/>
<text text-anchor="start" x="129" y="-18.5" font-family="Helvetica,sans-Serif" font-size="10.00">spdlog/sinks/rotating</text>
<text text-anchor="middle" x="180.5" y="-7.5" font-family="Helvetica,sans-Serif" font-size="10.00">_file_sink.h</text>
</a>
</g>
</g>
<!-- Node11&#45;&gt;Node14 -->
<g id="edge13" class="edge">
<title>Node11&#45;&gt;Node14</title>
<path fill="none" stroke="midnightblue" d="M596.48,-72.12C524.13,-65.84 381,-52.12 250.33,-31.21"/>
<polygon fill="midnightblue" stroke="midnightblue" points="250.57,-27.7 240.14,-29.56 249.45,-34.61 250.57,-27.7"/>
</g>
<!-- Node15 -->
<g id="node13" class="node">
<title>Node15</title>
<g id="a_node13"><a xlink:title=" ">
<polygon fill="none" stroke="#bfbfbf" points="258,-0.5 258,-30.5 369,-30.5 369,-0.5 258,-0.5"/>
<text text-anchor="start" x="266" y="-18.5" font-family="Helvetica,sans-Serif" font-size="10.00">spdlog/sinks/stdout</text>
<text text-anchor="middle" x="313.5" y="-7.5" font-family="Helvetica,sans-Serif" font-size="10.00">_color_sinks.h</text>
</a>
</g>
</g>
<!-- Node11&#45;&gt;Node15 -->
<g id="edge14" class="edge">
<title>Node11&#45;&gt;Node15</title>
<path fill="none" stroke="midnightblue" d="M596.27,-68.82C545.06,-60.85 460.69,-47.2 379.23,-31.29"/>
<polygon fill="midnightblue" stroke="midnightblue" points="379.8,-27.83 369.31,-29.33 378.45,-34.7 379.8,-27.83"/>
</g>
<!-- Node16 -->
<g id="node14" class="node">
<title>Node16</title>
<g id="a_node14"><a xlink:title=" ">
<polygon fill="none" stroke="#bfbfbf" points="387,-6 387,-25 480,-25 480,-6 387,-6"/>
<text text-anchor="middle" x="433.5" y="-13" font-family="Helvetica,sans-Serif" font-size="10.00">spdlog/spdlog.h</text>
</a>
</g>
</g>
<!-- Node11&#45;&gt;Node16 -->
<g id="edge15" class="edge">
<title>Node11&#45;&gt;Node16</title>
<path fill="none" stroke="midnightblue" d="M613.41,-67.48C576.61,-57.05 514.19,-39.36 473.41,-27.81"/>
<polygon fill="midnightblue" stroke="midnightblue" points="474.11,-24.37 463.53,-25.01 472.2,-31.1 474.11,-24.37"/>
</g>
<!-- Node17 -->
<g id="node15" class="node">
<title>Node17</title>
<g id="a_node15"><a xlink:title=" ">
<polygon fill="none" stroke="#bfbfbf" points="498.5,-6 498.5,-25 644.5,-25 644.5,-6 498.5,-6"/>
<text text-anchor="middle" x="571.5" y="-13" font-family="Helvetica,sans-Serif" font-size="10.00">carta&#45;protobuf/enums.pb.h</text>
</a>
</g>
</g>
<!-- Node11&#45;&gt;Node17 -->
<g id="edge16" class="edge">
<title>Node11&#45;&gt;Node17</title>
<path fill="none" stroke="midnightblue" d="M633.18,-67.48C621.85,-58.11 603.43,-42.88 589.66,-31.51"/>
<polygon fill="midnightblue" stroke="midnightblue" points="591.73,-28.68 581.8,-25.01 587.28,-34.08 591.73,-28.68"/>
</g>
<!-- Node11&#45;&gt;Node18 -->
<g id="edge17" class="edge">
<title>Node11&#45;&gt;Node18</title>
<path fill="none" stroke="midnightblue" d="M670.87,-67.48C704.05,-57.14 760.15,-39.66 797.26,-28.1"/>
<polygon fill="midnightblue" stroke="midnightblue" points="798.68,-31.32 807.19,-25.01 796.6,-24.64 798.68,-31.32"/>
</g>
<!-- Node20&#45;&gt;Node3 -->
<g id="edge22" class="edge">
<title>Node20&#45;&gt;Node3</title>
<path fill="none" stroke="midnightblue" d="M1162.24,-123.32C1147.28,-114.82 1124.25,-101.73 1106.77,-91.8"/>
<polygon fill="midnightblue" stroke="midnightblue" points="1108.15,-88.55 1097.73,-86.65 1104.69,-94.64 1108.15,-88.55"/>
</g>
<!-- Node20&#45;&gt;Node4 -->
<g id="edge21" class="edge">
<title>Node20&#45;&gt;Node4</title>
<path fill="none" stroke="midnightblue" d="M1146.92,-123.44C1111.75,-113.6 1054.2,-97.5 1017.89,-87.34"/>
<polygon fill="midnightblue" stroke="midnightblue" points="1018.82,-83.97 1008.25,-84.64 1016.93,-90.71 1018.82,-83.97"/>
</g>
<!-- Node20&#45;&gt;Node8 -->
<g id="edge20" class="edge">
<title>Node20&#45;&gt;Node8</title>
<path fill="none" stroke="midnightblue" d="M1177.5,-123.08C1177.5,-116.01 1177.5,-105.86 1177.5,-96.99"/>
<polygon fill="midnightblue" stroke="midnightblue" points="1181,-96.75 1177.5,-86.75 1174,-96.75 1181,-96.75"/>
</g>
<!-- Node28 -->
<g id="node18" class="node">
<title>Node28</title>
<g id="a_node18"><a xlink:href="AnimationObject_8h.html" target="_top" xlink:title=" ">
<polygon fill="none" stroke="red" points="1216,-67.5 1216,-86.5 1323,-86.5 1323,-67.5 1216,-67.5"/>
<text text-anchor="middle" x="1269.5" y="-74.5" font-family="Helvetica,sans-Serif" font-size="10.00">AnimationObject.h</text>
</a>
</g>
</g>
<!-- Node20&#45;&gt;Node28 -->
<g id="edge23" class="edge">
<title>Node20&#45;&gt;Node28</title>
<path fill="none" stroke="midnightblue" d="M1192.28,-123.32C1206.77,-114.82 1229.07,-101.73 1245.99,-91.8"/>
<polygon fill="midnightblue" stroke="midnightblue" points="1247.9,-94.74 1254.76,-86.65 1244.36,-88.7 1247.9,-94.74"/>
</g>
<!-- Node20&#45;&gt;Node54 -->
<g id="edge27" class="edge">
<title>Node20&#45;&gt;Node54</title>
<path fill="none" stroke="midnightblue" d="M1209.08,-129.37C1233.7,-127.39 1268.75,-124.73 1299.5,-123 1723.58,-99.13 2235.74,-84.02 2402.3,-79.46"/>
<polygon fill="midnightblue" stroke="midnightblue" points="2402.86,-82.95 2412.76,-79.18 2402.67,-75.95 2402.86,-82.95"/>
</g>
<!-- Node28&#45;&gt;Node6 -->
<g id="edge24" class="edge">
<title>Node28&#45;&gt;Node6</title>
<path fill="none" stroke="midnightblue" d="M1215.82,-68.19C1133.22,-56.12 983.2,-34.02 971.5,-31 968.68,-30.27 965.78,-29.41 962.9,-28.48"/>
<polygon fill="midnightblue" stroke="midnightblue" points="963.89,-25.12 953.3,-25.13 961.59,-31.73 963.89,-25.12"/>
</g>
<!-- Node31 -->
<g id="node19" class="node">
<title>Node31</title>
<g id="a_node19"><a xlink:title=" ">
<polygon fill="none" stroke="#bfbfbf" points="1124,-6 1124,-25 1287,-25 1287,-6 1124,-6"/>
<text text-anchor="middle" x="1205.5" y="-13" font-family="Helvetica,sans-Serif" font-size="10.00">carta&#45;protobuf/animation.pb.h</text>
</a>
</g>
</g>
<!-- Node28&#45;&gt;Node31 -->
<g id="edge25" class="edge">
<title>Node28&#45;&gt;Node31</title>
<path fill="none" stroke="midnightblue" d="M1260.33,-67.48C1250.35,-58.2 1234.19,-43.17 1221.99,-31.83"/>
<polygon fill="midnightblue" stroke="midnightblue" points="1224.36,-29.25 1214.65,-25.01 1219.59,-34.38 1224.36,-29.25"/>
</g>
<!-- Node32 -->
<g id="node20" class="node">
<title>Node32</title>
<g id="a_node20"><a xlink:title=" ">
<polygon fill="none" stroke="#bfbfbf" points="981,-0.5 981,-30.5 1106,-30.5 1106,-0.5 981,-0.5"/>
<text text-anchor="start" x="989" y="-18.5" font-family="Helvetica,sans-Serif" font-size="10.00">carta&#45;protobuf/set</text>
<text text-anchor="middle" x="1043.5" y="-7.5" font-family="Helvetica,sans-Serif" font-size="10.00">_image_channels.pb.h</text>
</a>
</g>
</g>
<!-- Node28&#45;&gt;Node32 -->
<g id="edge26" class="edge">
<title>Node28&#45;&gt;Node32</title>
<path fill="none" stroke="midnightblue" d="M1237.12,-67.48C1203.15,-58.53 1148.9,-44.25 1106.45,-33.07"/>
<polygon fill="midnightblue" stroke="midnightblue" points="1107.33,-29.68 1096.76,-30.52 1105.54,-36.45 1107.33,-29.68"/>
</g>
<!-- Node54&#45;&gt;Node31 -->
<g id="edge28" class="edge">
<title>Node54&#45;&gt;Node31</title>
<path fill="none" stroke="midnightblue" d="M2412.81,-76.18C2257.92,-76.41 1729.84,-73.77 1296.5,-31 1285.41,-29.91 1273.61,-28.33 1262.32,-26.62"/>
<polygon fill="midnightblue" stroke="midnightblue" points="1262.55,-23.12 1252.12,-25.02 1261.46,-30.03 1262.55,-23.12"/>
</g>
<!-- Node54&#45;&gt;Node32 -->
<g id="edge51" class="edge">
<title>Node54&#45;&gt;Node32</title>
<path fill="none" stroke="midnightblue" d="M2412.98,-75.51C2212.87,-73.18 1394.73,-61.95 1116.2,-31.04"/>
<polygon fill="midnightblue" stroke="midnightblue" points="1116.46,-27.55 1106.13,-29.88 1115.66,-34.5 1116.46,-27.55"/>
</g>
<!-- Node55 -->
<g id="node22" class="node">
<title>Node55</title>
<g id="a_node22"><a xlink:title=" ">
<polygon fill="none" stroke="#bfbfbf" points="1887,-0.5 1887,-30.5 2002,-30.5 2002,-0.5 1887,-0.5"/>
<text text-anchor="start" x="1895" y="-18.5" font-family="Helvetica,sans-Serif" font-size="10.00">carta&#45;protobuf/close</text>
<text text-anchor="middle" x="1944.5" y="-7.5" font-family="Helvetica,sans-Serif" font-size="10.00">_file.pb.h</text>
</a>
</g>
</g>
<!-- Node54&#45;&gt;Node55 -->
<g id="edge29" class="edge">
<title>Node54&#45;&gt;Node55</title>
<path fill="none" stroke="midnightblue" d="M2412.97,-73.17C2334.21,-67.81 2165.02,-54.68 2012.21,-30.99"/>
<polygon fill="midnightblue" stroke="midnightblue" points="2012.59,-27.5 2002.17,-29.41 2011.5,-34.42 2012.59,-27.5"/>
</g>
<!-- Node56 -->
<g id="node23" class="node">
<title>Node56</title>
<g id="a_node23"><a xlink:title=" ">
<polygon fill="none" stroke="#bfbfbf" points="2020.5,-0.5 2020.5,-30.5 2146.5,-30.5 2146.5,-0.5 2020.5,-0.5"/>
<text text-anchor="start" x="2028.5" y="-18.5" font-family="Helvetica,sans-Serif" font-size="10.00">carta&#45;protobuf/contour</text>
<text text-anchor="middle" x="2083.5" y="-7.5" font-family="Helvetica,sans-Serif" font-size="10.00">_image.pb.h</text>
</a>
</g>
</g>
<!-- Node54&#45;&gt;Node56 -->
<g id="edge30" class="edge">
<title>Node54&#45;&gt;Node56</title>
<path fill="none" stroke="midnightblue" d="M2412.87,-70.07C2355.79,-62.33 2253.68,-47.95 2156.66,-31.15"/>
<polygon fill="midnightblue" stroke="midnightblue" points="2157.13,-27.68 2146.68,-29.41 2155.93,-34.58 2157.13,-27.68"/>
</g>
<!-- Node50 -->
<g id="node24" class="node">
<title>Node50</title>
<g id="a_node24"><a xlink:title=" ">
<polygon fill="none" stroke="#bfbfbf" points="2164.5,-6 2164.5,-25 2298.5,-25 2298.5,-6 2164.5,-6"/>
<text text-anchor="middle" x="2231.5" y="-13" font-family="Helvetica,sans-Serif" font-size="10.00">carta&#45;protobuf/defs.pb.h</text>
</a>
</g>
</g>
<!-- Node54&#45;&gt;Node50 -->
<g id="edge31" class="edge">
<title>Node54&#45;&gt;Node50</title>
<path fill="none" stroke="midnightblue" d="M2425.12,-67.48C2385.26,-56.98 2317.48,-39.14 2273.61,-27.59"/>
<polygon fill="midnightblue" stroke="midnightblue" points="2274.38,-24.17 2263.82,-25.01 2272.6,-30.94 2274.38,-24.17"/>
</g>
<!-- Node57 -->
<g id="node25" class="node">
<title>Node57</title>
<g id="a_node25"><a xlink:title=" ">
<polygon fill="none" stroke="#bfbfbf" points="2316.5,-6 2316.5,-25 2452.5,-25 2452.5,-6 2316.5,-6"/>
<text text-anchor="middle" x="2384.5" y="-13" font-family="Helvetica,sans-Serif" font-size="10.00">carta&#45;protobuf/error.pb.h</text>
</a>
</g>
</g>
<!-- Node54&#45;&gt;Node57 -->
<g id="edge32" class="edge">
<title>Node54&#45;&gt;Node57</title>
<path fill="none" stroke="midnightblue" d="M2447.04,-67.48C2435.55,-58.11 2416.87,-42.88 2402.91,-31.51"/>
<polygon fill="midnightblue" stroke="midnightblue" points="2404.9,-28.61 2394.94,-25.01 2400.48,-34.04 2404.9,-28.61"/>
</g>
<!-- Node58 -->
<g id="node26" class="node">
<title>Node58</title>
<g id="a_node26"><a xlink:title=" ">
<polygon fill="none" stroke="#bfbfbf" points="2471,-0.5 2471,-30.5 2592,-30.5 2592,-0.5 2471,-0.5"/>
<text text-anchor="start" x="2479" y="-18.5" font-family="Helvetica,sans-Serif" font-size="10.00">carta&#45;protobuf/export</text>
<text text-anchor="middle" x="2531.5" y="-7.5" font-family="Helvetica,sans-Serif" font-size="10.00">_region.pb.h</text>
</a>
</g>
</g>
<!-- Node54&#45;&gt;Node58 -->
<g id="edge33" class="edge">
<title>Node54&#45;&gt;Node58</title>
<path fill="none" stroke="midnightblue" d="M2468.1,-67.48C2477.94,-59.57 2492.96,-47.48 2505.92,-37.07"/>
<polygon fill="midnightblue" stroke="midnightblue" points="2508.46,-39.52 2514.06,-30.52 2504.07,-34.06 2508.46,-39.52"/>
</g>
<!-- Node59 -->
<g id="node27" class="node">
<title>Node59</title>
<g id="a_node27"><a xlink:title=" ">
<polygon fill="none" stroke="#bfbfbf" points="2610.5,-0.5 2610.5,-30.5 2714.5,-30.5 2714.5,-0.5 2610.5,-0.5"/>
<text text-anchor="start" x="2618.5" y="-18.5" font-family="Helvetica,sans-Serif" font-size="10.00">carta&#45;protobuf/file</text>
<text text-anchor="middle" x="2662.5" y="-7.5" font-family="Helvetica,sans-Serif" font-size="10.00">_info.pb.h</text>
</a>
</g>
</g>
<!-- Node54&#45;&gt;Node59 -->
<g id="edge34" class="edge">
<title>Node54&#45;&gt;Node59</title>
<path fill="none" stroke="midnightblue" d="M2486.87,-67.48C2517.36,-58.63 2565.86,-44.55 2604.18,-33.43"/>
<polygon fill="midnightblue" stroke="midnightblue" points="2605.56,-36.67 2614.19,-30.52 2603.61,-29.95 2605.56,-36.67"/>
</g>
<!-- Node41 -->
<g id="node28" class="node">
<title>Node41</title>
<g id="a_node28"><a xlink:title=" ">
<polygon fill="none" stroke="#bfbfbf" points="2732.5,-0.5 2732.5,-30.5 2836.5,-30.5 2836.5,-0.5 2732.5,-0.5"/>
<text text-anchor="start" x="2740.5" y="-18.5" font-family="Helvetica,sans-Serif" font-size="10.00">carta&#45;protobuf/file</text>
<text text-anchor="middle" x="2784.5" y="-7.5" font-family="Helvetica,sans-Serif" font-size="10.00">_list.pb.h</text>
</a>
</g>
</g>
<!-- Node54&#45;&gt;Node41 -->
<g id="edge35" class="edge">
<title>Node54&#45;&gt;Node41</title>
<path fill="none" stroke="midnightblue" d="M2502.03,-68.44C2504.9,-67.95 2507.74,-67.47 2510.5,-67 2602.02,-51.5 2627.72,-50.19 2722.31,-31.17"/>
<polygon fill="midnightblue" stroke="midnightblue" points="2723.2,-34.56 2732.31,-29.15 2721.81,-27.7 2723.2,-34.56"/>
</g>
<!-- Node60 -->
<g id="node29" class="node">
<title>Node60</title>
<g id="a_node29"><a xlink:title=" ">
<polygon fill="none" stroke="#bfbfbf" points="2854.5,-0.5 2854.5,-30.5 2972.5,-30.5 2972.5,-0.5 2854.5,-0.5"/>
<text text-anchor="start" x="2862.5" y="-18.5" font-family="Helvetica,sans-Serif" font-size="10.00">carta&#45;protobuf/fitting</text>
<text text-anchor="middle" x="2913.5" y="-7.5" font-family="Helvetica,sans-Serif" font-size="10.00">_request.pb.h</text>
</a>
</g>
</g>
<!-- Node54&#45;&gt;Node60 -->
<g id="edge36" class="edge">
<title>Node54&#45;&gt;Node60</title>
<path fill="none" stroke="midnightblue" d="M2502,-68.24C2504.88,-67.8 2507.73,-67.38 2510.5,-67 2655.64,-46.9 2695.91,-54.31 2844.3,-31.09"/>
<polygon fill="midnightblue" stroke="midnightblue" points="2844.9,-34.54 2854.23,-29.51 2843.8,-27.62 2844.9,-34.54"/>
</g>
<!-- Node61 -->
<g id="node30" class="node">
<title>Node61</title>
<g id="a_node30"><a xlink:title=" ">
<polygon fill="none" stroke="#bfbfbf" points="2990.5,-0.5 2990.5,-30.5 3112.5,-30.5 3112.5,-0.5 2990.5,-0.5"/>
<text text-anchor="start" x="2998.5" y="-18.5" font-family="Helvetica,sans-Serif" font-size="10.00">carta&#45;protobuf/import</text>
<text text-anchor="middle" x="3051.5" y="-7.5" font-family="Helvetica,sans-Serif" font-size="10.00">_region.pb.h</text>
</a>
</g>
</g>
<!-- Node54&#45;&gt;Node61 -->
<g id="edge37" class="edge">
<title>Node54&#45;&gt;Node61</title>
<path fill="none" stroke="midnightblue" d="M2502.28,-68.1C2505.06,-67.7 2507.81,-67.33 2510.5,-67 2715.62,-41.8 2771.87,-59.77 2980.45,-31.02"/>
<polygon fill="midnightblue" stroke="midnightblue" points="2981.08,-34.47 2990.5,-29.62 2980.11,-27.53 2981.08,-34.47"/>
</g>
<!-- Node62 -->
<g id="node31" class="node">
<title>Node62</title>
<g id="a_node31"><a xlink:title=" ">
<polygon fill="none" stroke="#bfbfbf" points="3131,-0.5 3131,-30.5 3262,-30.5 3262,-0.5 3131,-0.5"/>
<text text-anchor="start" x="3139" y="-18.5" font-family="Helvetica,sans-Serif" font-size="10.00">carta&#45;protobuf/moment</text>
<text text-anchor="middle" x="3196.5" y="-7.5" font-family="Helvetica,sans-Serif" font-size="10.00">_request.pb.h</text>
</a>
</g>
</g>
<!-- Node54&#45;&gt;Node62 -->
<g id="edge38" class="edge">
<title>Node54&#45;&gt;Node62</title>
<path fill="none" stroke="midnightblue" d="M2502.27,-68.04C2505.05,-67.66 2507.81,-67.31 2510.5,-67 2777.48,-36.56 2849.83,-64.2 3120.6,-30.98"/>
<polygon fill="midnightblue" stroke="midnightblue" points="3121.24,-34.43 3130.73,-29.73 3120.37,-27.49 3121.24,-34.43"/>
</g>
<!-- Node63 -->
<g id="node32" class="node">
<title>Node63</title>
<g id="a_node32"><a xlink:title=" ">
<polygon fill="none" stroke="#bfbfbf" points="3280,-0.5 3280,-30.5 3393,-30.5 3393,-0.5 3280,-0.5"/>
<text text-anchor="start" x="3288" y="-18.5" font-family="Helvetica,sans-Serif" font-size="10.00">carta&#45;protobuf/open</text>
<text text-anchor="middle" x="3336.5" y="-7.5" font-family="Helvetica,sans-Serif" font-size="10.00">_file.pb.h</text>
</a>
</g>
</g>
<!-- Node54&#45;&gt;Node63 -->
<g id="edge39" class="edge">
<title>Node54&#45;&gt;Node63</title>
<path fill="none" stroke="midnightblue" d="M2502.27,-68.01C2505.05,-67.63 2507.81,-67.29 2510.5,-67 2843.85,-30.95 2934.15,-75.15 3269.88,-31.06"/>
<polygon fill="midnightblue" stroke="midnightblue" points="3270.43,-34.52 3279.88,-29.73 3269.51,-27.58 3270.43,-34.52"/>
</g>
<!-- Node64 -->
<g id="node33" class="node">
<title>Node64</title>
<g id="a_node33"><a xlink:title=" ">
<polygon fill="none" stroke="#bfbfbf" points="3411,-6 3411,-25 3578,-25 3578,-6 3411,-6"/>
<text text-anchor="middle" x="3494.5" y="-13" font-family="Helvetica,sans-Serif" font-size="10.00">carta&#45;protobuf/pv_request.pb.h</text>
</a>
</g>
</g>
<!-- Node54&#45;&gt;Node64 -->
<g id="edge40" class="edge">
<title>Node54&#45;&gt;Node64</title>
<path fill="none" stroke="midnightblue" d="M2502.26,-67.98C2505.05,-67.62 2507.81,-67.28 2510.5,-67 2905.11,-25.7 3007.65,-69.95 3402.5,-31 3413.83,-29.88 3425.88,-28.28 3437.4,-26.55"/>
<polygon fill="midnightblue" stroke="midnightblue" points="3438.01,-30 3447.36,-25.01 3436.94,-23.08 3438.01,-30"/>
</g>
<!-- Node65 -->
<g id="node34" class="node">
<title>Node65</title>
<g id="a_node34"><a xlink:title=" ">
<polygon fill="none" stroke="#bfbfbf" points="3596.5,-0.5 3596.5,-30.5 3714.5,-30.5 3714.5,-0.5 3596.5,-0.5"/>
<text text-anchor="start" x="3604.5" y="-18.5" font-family="Helvetica,sans-Serif" font-size="10.00">carta&#45;protobuf/raster</text>
<text text-anchor="middle" x="3655.5" y="-7.5" font-family="Helvetica,sans-Serif" font-size="10.00">_tile.pb.h</text>
</a>
</g>
</g>
<!-- Node54&#45;&gt;Node65 -->
<g id="edge41" class="edge">
<title>Node54&#45;&gt;Node65</title>
<path fill="none" stroke="midnightblue" d="M2502.26,-67.96C2505.04,-67.6 2507.81,-67.27 2510.5,-67 2983.63,-19.14 3110.32,-88.18 3586.04,-31.02"/>
<polygon fill="midnightblue" stroke="midnightblue" points="3586.76,-34.45 3596.27,-29.77 3585.92,-27.51 3586.76,-34.45"/>
</g>
<!-- Node66 -->
<g id="node35" class="node">
<title>Node66</title>
<g id="a_node35"><a xlink:title=" ">
<polygon fill="none" stroke="#bfbfbf" points="3732.5,-6 3732.5,-25 3876.5,-25 3876.5,-6 3732.5,-6"/>
<text text-anchor="middle" x="3804.5" y="-13" font-family="Helvetica,sans-Serif" font-size="10.00">carta&#45;protobuf/region.pb.h</text>
</a>
</g>
</g>
<!-- Node54&#45;&gt;Node66 -->
<g id="edge42" class="edge">
<title>Node54&#45;&gt;Node66</title>
<path fill="none" stroke="midnightblue" d="M2502.26,-67.95C2505.04,-67.59 2507.81,-67.27 2510.5,-67 3047.21,-13.72 3187.03,-86.67 3723.5,-31 3733.2,-29.99 3743.49,-28.49 3753.36,-26.83"/>
<polygon fill="midnightblue" stroke="midnightblue" points="3754.22,-30.24 3763.46,-25.06 3753.01,-23.34 3754.22,-30.24"/>
</g>
<!-- Node67 -->
<g id="node36" class="node">
<title>Node67</title>
<g id="a_node36"><a xlink:title=" ">
<polygon fill="none" stroke="#bfbfbf" points="3894.5,-0.5 3894.5,-30.5 4014.5,-30.5 4014.5,-0.5 3894.5,-0.5"/>
<text text-anchor="start" x="3902.5" y="-18.5" font-family="Helvetica,sans-Serif" font-size="10.00">carta&#45;protobuf/region</text>
<text text-anchor="middle" x="3954.5" y="-7.5" font-family="Helvetica,sans-Serif" font-size="10.00">_histogram.pb.h</text>
</a>
</g>
</g>
<!-- Node54&#45;&gt;Node67 -->
<g id="edge43" class="edge">
<title>Node54&#45;&gt;Node67</title>
<path fill="none" stroke="midnightblue" d="M2502.26,-67.94C2505.04,-67.58 2507.81,-67.26 2510.5,-67 3115.52,-8.01 3276.53,-101.09 3884.06,-31"/>
<polygon fill="midnightblue" stroke="midnightblue" points="3884.87,-34.43 3894.39,-29.8 3884.06,-27.48 3884.87,-34.43"/>
</g>
<!-- Node68 -->
<g id="node37" class="node">
<title>Node68</title>
<g id="a_node37"><a xlink:title=" ">
<polygon fill="none" stroke="#bfbfbf" points="4032.5,-0.5 4032.5,-30.5 4152.5,-30.5 4152.5,-0.5 4032.5,-0.5"/>
<text text-anchor="start" x="4040.5" y="-18.5" font-family="Helvetica,sans-Serif" font-size="10.00">carta&#45;protobuf/region</text>
<text text-anchor="middle" x="4092.5" y="-7.5" font-family="Helvetica,sans-Serif" font-size="10.00">_requirements.pb.h</text>
</a>
</g>
</g>
<!-- Node54&#45;&gt;Node68 -->
<g id="edge44" class="edge">
<title>Node54&#45;&gt;Node68</title>
<path fill="none" stroke="midnightblue" d="M2502.26,-67.93C2505.04,-67.58 2507.81,-67.26 2510.5,-67 3176.61,-2.86 3353.53,-107.41 4022.02,-31"/>
<polygon fill="midnightblue" stroke="midnightblue" points="4022.86,-34.43 4032.4,-29.81 4022.06,-27.48 4022.86,-34.43"/>
</g>
<!-- Node69 -->
<g id="node38" class="node">
<title>Node69</title>
<g id="a_node38"><a xlink:title=" ">
<polygon fill="none" stroke="#bfbfbf" points="4170.5,-0.5 4170.5,-30.5 4290.5,-30.5 4290.5,-0.5 4170.5,-0.5"/>
<text text-anchor="start" x="4178.5" y="-18.5" font-family="Helvetica,sans-Serif" font-size="10.00">carta&#45;protobuf/region</text>
<text text-anchor="middle" x="4230.5" y="-7.5" font-family="Helvetica,sans-Serif" font-size="10.00">_stats.pb.h</text>
</a>
</g>
</g>
<!-- Node54&#45;&gt;Node69 -->
<g id="edge45" class="edge">
<title>Node54&#45;&gt;Node69</title>
<path fill="none" stroke="midnightblue" d="M2502.26,-67.93C2505.04,-67.57 2507.81,-67.26 2510.5,-67 3237.84,2.31 3430.61,-113.77 4160.43,-30.95"/>
<polygon fill="midnightblue" stroke="midnightblue" points="4160.86,-34.43 4170.4,-29.81 4160.06,-27.47 4160.86,-34.43"/>
</g>
<!-- Node70 -->
<g id="node39" class="node">
<title>Node70</title>
<g id="a_node39"><a xlink:title=" ">
<polygon fill="none" stroke="#bfbfbf" points="4309,-0.5 4309,-30.5 4436,-30.5 4436,-0.5 4309,-0.5"/>
<text text-anchor="start" x="4317" y="-18.5" font-family="Helvetica,sans-Serif" font-size="10.00">carta&#45;protobuf/register</text>
<text text-anchor="middle" x="4372.5" y="-7.5" font-family="Helvetica,sans-Serif" font-size="10.00">_viewer.pb.h</text>
</a>
</g>
</g>
<!-- Node54&#45;&gt;Node70 -->
<g id="edge46" class="edge">
<title>Node54&#45;&gt;Node70</title>
<path fill="none" stroke="midnightblue" d="M2502.26,-67.92C2505.04,-67.57 2507.81,-67.25 2510.5,-67 3298.87,7.46 3507.09,-115.74 4298.68,-30.92"/>
<polygon fill="midnightblue" stroke="midnightblue" points="4299.33,-34.37 4308.9,-29.82 4298.58,-27.41 4299.33,-34.37"/>
</g>
<!-- Node71 -->
<g id="node40" class="node">
<title>Node71</title>
<g id="a_node40"><a xlink:title=" ">
<polygon fill="none" stroke="#bfbfbf" points="4454.5,-0.5 4454.5,-30.5 4580.5,-30.5 4580.5,-0.5 4454.5,-0.5"/>
<text text-anchor="start" x="4462.5" y="-18.5" font-family="Helvetica,sans-Serif" font-size="10.00">carta&#45;protobuf/resume</text>
<text text-anchor="middle" x="4517.5" y="-7.5" font-family="Helvetica,sans-Serif" font-size="10.00">_session.pb.h</text>
</a>
</g>
</g>
<!-- Node54&#45;&gt;Node71 -->
<g id="edge47" class="edge">
<title>Node54&#45;&gt;Node71</title>
<path fill="none" stroke="midnightblue" d="M2502.26,-67.92C2505.04,-67.56 2507.81,-67.25 2510.5,-67 3363.55,12.91 3588.67,-123.21 4444.29,-30.98"/>
<polygon fill="midnightblue" stroke="midnightblue" points="4444.82,-34.44 4454.38,-29.88 4444.07,-27.48 4444.82,-34.44"/>
</g>
<!-- Node72 -->
<g id="node41" class="node">
<title>Node72</title>
<g id="a_node41"><a xlink:title=" ">
<polygon fill="none" stroke="#bfbfbf" points="4599,-0.5 4599,-30.5 4712,-30.5 4712,-0.5 4599,-0.5"/>
<text text-anchor="start" x="4607" y="-18.5" font-family="Helvetica,sans-Serif" font-size="10.00">carta&#45;protobuf/save</text>
<text text-anchor="middle" x="4655.5" y="-7.5" font-family="Helvetica,sans-Serif" font-size="10.00">_file.pb.h</text>
</a>
</g>
</g>
<!-- Node54&#45;&gt;Node72 -->
<g id="edge48" class="edge">
<title>Node54&#45;&gt;Node72</title>
<path fill="none" stroke="midnightblue" d="M2502.26,-67.91C2505.04,-67.56 2507.81,-67.25 2510.5,-67 2967.33,-24.5 4114.19,-83.99 4588.69,-30.87"/>
<polygon fill="midnightblue" stroke="midnightblue" points="4589.2,-34.34 4598.74,-29.72 4588.41,-27.38 4589.2,-34.34"/>
</g>
<!-- Node73 -->
<g id="node42" class="node">
<title>Node73</title>
<g id="a_node42"><a xlink:title=" ">
<polygon fill="none" stroke="#bfbfbf" points="1305,-6 1305,-25 1460,-25 1460,-6 1305,-6"/>
<text text-anchor="middle" x="1382.5" y="-13" font-family="Helvetica,sans-Serif" font-size="10.00">carta&#45;protobuf/scripting.pb.h</text>
</a>
</g>
</g>
<!-- Node54&#45;&gt;Node73 -->
<g id="edge49" class="edge">
<title>Node54&#45;&gt;Node73</title>
<path fill="none" stroke="midnightblue" d="M2412.55,-75.86C2272.54,-75.03 1831.93,-69.32 1469.5,-31 1459.11,-29.9 1448.09,-28.36 1437.5,-26.69"/>
<polygon fill="midnightblue" stroke="midnightblue" points="1437.95,-23.22 1427.51,-25.06 1436.82,-30.12 1437.95,-23.22"/>
</g>
<!-- Node38 -->
<g id="node43" class="node">
<title>Node38</title>
<g id="a_node43"><a xlink:title=" ">
<polygon fill="none" stroke="#bfbfbf" points="1478.5,-0.5 1478.5,-30.5 1582.5,-30.5 1582.5,-0.5 1478.5,-0.5"/>
<text text-anchor="start" x="1486.5" y="-18.5" font-family="Helvetica,sans-Serif" font-size="10.00">carta&#45;protobuf/set</text>
<text text-anchor="middle" x="1530.5" y="-7.5" font-family="Helvetica,sans-Serif" font-size="10.00">_cursor.pb.h</text>
</a>
</g>
</g>
<!-- Node54&#45;&gt;Node38 -->
<g id="edge50" class="edge">
<title>Node54&#45;&gt;Node38</title>
<path fill="none" stroke="midnightblue" d="M2412.6,-76.53C2285.36,-77.41 1911.48,-75.82 1592.98,-31.02"/>
<polygon fill="midnightblue" stroke="midnightblue" points="1593.02,-27.49 1582.62,-29.55 1592.03,-34.42 1593.02,-27.49"/>
</g>
<!-- Node74 -->
<g id="node44" class="node">
<title>Node74</title>
<g id="a_node44"><a xlink:title=" ">
<polygon fill="none" stroke="#bfbfbf" points="1600.5,-0.5 1600.5,-30.5 1722.5,-30.5 1722.5,-0.5 1600.5,-0.5"/>
<text text-anchor="start" x="1608.5" y="-18.5" font-family="Helvetica,sans-Serif" font-size="10.00">carta&#45;protobuf/spatial</text>
<text text-anchor="middle" x="1661.5" y="-7.5" font-family="Helvetica,sans-Serif" font-size="10.00">_profile.pb.h</text>
</a>
</g>
</g>
<!-- Node54&#45;&gt;Node74 -->
<g id="edge52" class="edge">
<title>Node54&#45;&gt;Node74</title>
<path fill="none" stroke="midnightblue" d="M2412.67,-75.44C2299.97,-73.55 1995.64,-65.52 1732.99,-31.07"/>
<polygon fill="midnightblue" stroke="midnightblue" points="1733.25,-27.57 1722.88,-29.73 1732.33,-34.51 1733.25,-27.57"/>
</g>
<!-- Node75 -->
<g id="node45" class="node">
<title>Node75</title>
<g id="a_node45"><a xlink:title=" ">
<polygon fill="none" stroke="#bfbfbf" points="1740.5,-0.5 1740.5,-30.5 1868.5,-30.5 1868.5,-0.5 1740.5,-0.5"/>
<text text-anchor="start" x="1748.5" y="-18.5" font-family="Helvetica,sans-Serif" font-size="10.00">carta&#45;protobuf/spectral</text>
<text text-anchor="middle" x="1804.5" y="-7.5" font-family="Helvetica,sans-Serif" font-size="10.00">_profile.pb.h</text>
</a>
</g>
</g>
<!-- Node54&#45;&gt;Node75 -->
<g id="edge53" class="edge">
<title>Node54&#45;&gt;Node75</title>
<path fill="none" stroke="midnightblue" d="M2412.64,-74.29C2315.09,-70.17 2076.55,-58.01 1878.5,-31 1878.4,-30.99 1878.3,-30.97 1878.2,-30.96"/>
<polygon fill="midnightblue" stroke="midnightblue" points="1879.01,-27.54 1868.6,-29.53 1877.98,-34.46 1879.01,-27.54"/>
</g>
<!-- Node183&#45;&gt;Node2 -->
<g id="edge61" class="edge">
<title>Node183&#45;&gt;Node2</title>
<path fill="none" stroke="midnightblue" d="M1221.96,-235.44C1184.25,-226.1 1123.76,-211.12 1082.64,-200.93"/>
<polygon fill="midnightblue" stroke="midnightblue" points="1083.43,-197.52 1072.88,-198.52 1081.75,-204.32 1083.43,-197.52"/>
</g>
<!-- Node183&#45;&gt;Node4 -->
<g id="edge58" class="edge">
<title>Node183&#45;&gt;Node4</title>
<path fill="none" stroke="midnightblue" d="M1242.26,-235.31C1197.83,-208.19 1061.48,-124.98 1007.17,-91.83"/>
<polygon fill="midnightblue" stroke="midnightblue" points="1008.96,-88.83 998.6,-86.61 1005.31,-94.8 1008.96,-88.83"/>
</g>
<!-- Node183&#45;&gt;Node7 -->
<g id="edge56" class="edge">
<title>Node183&#45;&gt;Node7</title>
<path fill="none" stroke="midnightblue" d="M1308.86,-237.14C1314.48,-236.41 1320.11,-235.69 1325.5,-235 1849.08,-168.19 1989.94,-196.23 2509.33,-87.21"/>
<polygon fill="midnightblue" stroke="midnightblue" points="2510.26,-90.59 2519.33,-85.1 2508.82,-83.74 2510.26,-90.59"/>
</g>
<!-- Node183&#45;&gt;Node8 -->
<g id="edge57" class="edge">
<title>Node183&#45;&gt;Node8</title>
<path fill="none" stroke="midnightblue" d="M1254.98,-235.29C1251.12,-214.67 1239.62,-161.71 1217.5,-123 1211.43,-112.38 1202.55,-102.07 1194.7,-94"/>
<polygon fill="midnightblue" stroke="midnightblue" points="1196.92,-91.27 1187.34,-86.75 1192.01,-96.26 1196.92,-91.27"/>
</g>
<!-- Node183&#45;&gt;Node20 -->
<g id="edge60" class="edge">
<title>Node183&#45;&gt;Node20</title>
<path fill="none" stroke="midnightblue" d="M1250.13,-235.4C1243.45,-226.37 1232.67,-211.73 1223.5,-199 1211.93,-182.93 1198.9,-164.5 1189.68,-151.37"/>
<polygon fill="midnightblue" stroke="midnightblue" points="1192.31,-149.04 1183.7,-142.86 1186.58,-153.06 1192.31,-149.04"/>
</g>
<!-- Node183&#45;&gt;Node28 -->
<g id="edge59" class="edge">
<title>Node183&#45;&gt;Node28</title>
<path fill="none" stroke="midnightblue" d="M1257.2,-235.08C1259.25,-208.95 1265.25,-132.21 1268.05,-96.58"/>
<polygon fill="midnightblue" stroke="midnightblue" points="1271.54,-96.81 1268.83,-86.57 1264.56,-96.26 1271.54,-96.81"/>
</g>
<!-- Node183&#45;&gt;Node54 -->
<g id="edge62" class="edge">
<title>Node183&#45;&gt;Node54</title>
<path fill="none" stroke="midnightblue" d="M1264.09,-235.33C1276.93,-221.25 1304.38,-193.52 1333.5,-179 1433.85,-128.97 1468.43,-138.37 1579.5,-123 1888.57,-80.23 2263.89,-77.07 2402.58,-77.54"/>
<polygon fill="midnightblue" stroke="midnightblue" points="2402.92,-81.04 2412.93,-77.58 2402.95,-74.04 2402.92,-81.04"/>
</g>
<!-- Node184 -->
<g id="node47" class="node">
<title>Node184</title>
<g id="a_node47"><a xlink:href="OnMessageTask_8tcc.html" target="_top" xlink:title=" ">
<polygon fill="none" stroke="black" points="1342,-179.5 1342,-198.5 1455,-198.5 1455,-179.5 1342,-179.5"/>
<text text-anchor="middle" x="1398.5" y="-186.5" font-family="Helvetica,sans-Serif" font-size="10.00">OnMessageTask.tcc</text>
</a>
</g>
</g>
<!-- Node183&#45;&gt;Node184 -->
<g id="edge63" class="edge">
<title>Node183&#45;&gt;Node184</title>
<path fill="none" stroke="midnightblue" d="M1279,-235.44C1302.58,-226.48 1339.82,-212.31 1366.46,-202.18"/>
<polygon fill="midnightblue" stroke="midnightblue" points="1368,-205.34 1376.1,-198.52 1365.51,-198.8 1368,-205.34"/>
</g>
<!-- Node185&#45;&gt;Node183 -->
<g id="edge66" class="edge">
<title>Node185&#45;&gt;Node183</title>
<path fill="none" stroke="midnightblue" d="M1333.56,-291.4C1317.37,-281.86 1296.09,-269.32 1280,-259.84"/>
<polygon fill="midnightblue" stroke="midnightblue" points="1281.59,-256.72 1271.2,-254.66 1278.04,-262.75 1281.59,-256.72"/>
</g>
<!-- Node186 -->
<g id="node49" class="node">
<title>Node186</title>
<g id="a_node49"><a xlink:title=" ">
<polygon fill="none" stroke="#bfbfbf" points="1334,-235.5 1334,-254.5 1381,-254.5 1381,-235.5 1334,-235.5"/>
<text text-anchor="middle" x="1357.5" y="-242.5" font-family="Helvetica,sans-Serif" font-size="10.00">omp.h</text>
</a>
</g>
</g>
<!-- Node185&#45;&gt;Node186 -->
<g id="edge65" class="edge">
<title>Node185&#45;&gt;Node186</title>
<path fill="none" stroke="midnightblue" d="M1357.5,-291.4C1357.5,-283.47 1357.5,-273.46 1357.5,-264.86"/>
<polygon fill="midnightblue" stroke="midnightblue" points="1361,-264.66 1357.5,-254.66 1354,-264.66 1361,-264.66"/>
</g>
<!-- Node187&#45;&gt;Node7 -->
<g id="edge69" class="edge">
<title>Node187&#45;&gt;Node7</title>
<path fill="none" stroke="midnightblue" d="M2364.49,-296.86C2391.81,-263.08 2491.7,-139.57 2528.11,-94.56"/>
<polygon fill="midnightblue" stroke="midnightblue" points="2530.94,-96.63 2534.5,-86.65 2525.49,-92.22 2530.94,-96.63"/>
</g>
</g>
</svg>
