<?xml version="1.0" encoding="UTF-8" standalone="no"?>
<!DOCTYPE svg PUBLIC "-//W3C//DTD SVG 1.1//EN"
 "http://www.w3.org/Graphics/SVG/1.1/DTD/svg11.dtd">
<!-- Generated by graphviz version 2.43.0 (0)
 -->
<!-- Title: Session.h Pages: 1 -->
<svg width="1107pt" height="252pt"
 viewBox="0.00 0.00 1107.00 252.00" xmlns="http://www.w3.org/2000/svg" xmlns:xlink="http://www.w3.org/1999/xlink">
<g id="graph0" class="graph" transform="scale(1 1) rotate(0) translate(4 248)">
<title>Session.h</title>
<!-- Node1 -->
<g id="node1" class="node">
<title>Node1</title>
<g id="a_node1"><a xlink:title=" ">
<polygon fill="#bfbfbf" stroke="black" points="358.5,-224.5 358.5,-243.5 421.5,-243.5 421.5,-224.5 358.5,-224.5"/>
<text text-anchor="middle" x="390" y="-231.5" font-family="Helvetica,sans-Serif" font-size="10.00">Session.h</text>
</a>
</g>
</g>
<!-- Node2 -->
<g id="node2" class="node">
<title>Node2</title>
<g id="a_node2"><a xlink:href="CursorSettings_8cc.html" target="_top" xlink:title=" ">
<polygon fill="none" stroke="black" points="226.5,-168.5 226.5,-187.5 327.5,-187.5 327.5,-168.5 226.5,-168.5"/>
<text text-anchor="middle" x="277" y="-175.5" font-family="Helvetica,sans-Serif" font-size="10.00">CursorSettings.cc</text>
</a>
</g>
</g>
<!-- Node1&#45;&gt;Node2 -->
<g id="edge1" class="edge">
<title>Node1&#45;&gt;Node2</title>
<path fill="none" stroke="midnightblue" d="M363,-220.1C341.89,-210.01 313.14,-196.27 294.82,-187.52"/>
<polygon fill="midnightblue" stroke="midnightblue" points="361.56,-223.29 372.09,-224.44 364.58,-216.97 361.56,-223.29"/>
</g>
<!-- Node3 -->
<g id="node3" class="node">
<title>Node3</title>
<g id="a_node3"><a xlink:href="OnMessageTask_8h.html" target="_top" xlink:title=" ">
<polygon fill="none" stroke="black" points="435,-112.5 435,-131.5 539,-131.5 539,-112.5 435,-112.5"/>
<text text-anchor="middle" x="487" y="-119.5" font-family="Helvetica,sans-Serif" font-size="10.00">OnMessageTask.h</text>
</a>
</g>
</g>
<!-- Node1&#45;&gt;Node3 -->
<g id="edge2" class="edge">
<title>Node1&#45;&gt;Node3</title>
<path fill="none" stroke="midnightblue" d="M404.47,-216.59C425.39,-192.87 463.31,-149.87 479.42,-131.59"/>
<polygon fill="midnightblue" stroke="midnightblue" points="401.6,-214.55 397.61,-224.37 406.85,-219.18 401.6,-214.55"/>
</g>
<!-- Node5 -->
<g id="node5" class="node">
<title>Node5</title>
<g id="a_node5"><a xlink:href="Session_8cc.html" target="_top" xlink:title=" ">
<polygon fill="none" stroke="black" points="0,-0.5 0,-19.5 68,-19.5 68,-0.5 0,-0.5"/>
<text text-anchor="middle" x="34" y="-7.5" font-family="Helvetica,sans-Serif" font-size="10.00">Session.cc</text>
</a>
</g>
</g>
<!-- Node1&#45;&gt;Node5 -->
<g id="edge18" class="edge">
<title>Node1&#45;&gt;Node5</title>
<path fill="none" stroke="midnightblue" d="M378.89,-216.16C368.92,-202 353.24,-181.9 336,-168 243.99,-93.82 111.42,-39.72 57.82,-19.6"/>
<polygon fill="midnightblue" stroke="midnightblue" points="376.05,-218.2 384.58,-224.49 381.83,-214.26 376.05,-218.2"/>
</g>
<!-- Node16 -->
<g id="node16" class="node">
<title>Node16</title>
<g id="a_node16"><a xlink:href="SessionManager_8h.html" target="_top" xlink:title=" ">
<polygon fill="none" stroke="black" points="843.5,-168.5 843.5,-187.5 948.5,-187.5 948.5,-168.5 843.5,-168.5"/>
<text text-anchor="middle" x="896" y="-175.5" font-family="Helvetica,sans-Serif" font-size="10.00">SessionManager.h</text>
</a>
</g>
</g>
<!-- Node1&#45;&gt;Node16 -->
<g id="edge19" class="edge">
<title>Node1&#45;&gt;Node16</title>
<path fill="none" stroke="midnightblue" d="M431.67,-228.55C523.29,-218.77 742.17,-195.42 843.22,-184.63"/>
<polygon fill="midnightblue" stroke="midnightblue" points="431.22,-225.08 421.65,-229.62 431.97,-232.04 431.22,-225.08"/>
</g>
<!-- Node4 -->
<g id="node4" class="node">
<title>Node4</title>
<g id="a_node4"><a xlink:href="OnMessageTask_8cc.html" target="_top" xlink:title=" ">
<polygon fill="none" stroke="black" points="86.5,-0.5 86.5,-19.5 195.5,-19.5 195.5,-0.5 86.5,-0.5"/>
<text text-anchor="middle" x="141" y="-7.5" font-family="Helvetica,sans-Serif" font-size="10.00">OnMessageTask.cc</text>
</a>
</g>
</g>
<!-- Node3&#45;&gt;Node4 -->
<g id="edge3" class="edge">
<title>Node3&#45;&gt;Node4</title>
<path fill="none" stroke="midnightblue" d="M472.06,-104.53C457.32,-89.38 433.36,-67.56 408,-56 398.4,-51.62 271,-31.26 195.71,-19.48"/>
<polygon fill="midnightblue" stroke="midnightblue" points="469.84,-107.28 479.25,-112.15 474.94,-102.48 469.84,-107.28"/>
</g>
<!-- Node3&#45;&gt;Node5 -->
<g id="edge4" class="edge">
<title>Node3&#45;&gt;Node5</title>
<path fill="none" stroke="midnightblue" d="M462.62,-107.14C429.8,-88.54 374.93,-57.6 370,-56 245.24,-15.39 206.43,-41.46 77,-20 74.14,-19.53 71.18,-18.99 68.22,-18.43"/>
<polygon fill="midnightblue" stroke="midnightblue" points="461.2,-110.36 471.62,-112.25 464.65,-104.27 461.2,-110.36"/>
</g>
<!-- Node6 -->
<g id="node6" class="node">
<title>Node6</title>
<g id="a_node6"><a xlink:href="SessionManager_8cc.html" target="_top" xlink:title=" ">
<polygon fill="none" stroke="black" points="917,-0.5 917,-19.5 1027,-19.5 1027,-0.5 917,-0.5"/>
<text text-anchor="middle" x="972" y="-7.5" font-family="Helvetica,sans-Serif" font-size="10.00">SessionManager.cc</text>
</a>
</g>
</g>
<!-- Node3&#45;&gt;Node6 -->
<g id="edge5" class="edge">
<title>Node3&#45;&gt;Node6</title>
<path fill="none" stroke="midnightblue" d="M534.7,-110.18C631.04,-88.33 847.1,-39.33 934.37,-19.53"/>
<polygon fill="midnightblue" stroke="midnightblue" points="533.63,-106.83 524.65,-112.46 535.18,-113.66 533.63,-106.83"/>
</g>
<!-- Node7 -->
<g id="node7" class="node">
<title>Node7</title>
<g id="a_node7"><a xlink:href="ThreadingManager_8h.html" target="_top" xlink:title=" ">
<polygon fill="none" stroke="black" points="460,-56.5 460,-75.5 576,-75.5 576,-56.5 460,-56.5"/>
<text text-anchor="middle" x="518" y="-63.5" font-family="Helvetica,sans-Serif" font-size="10.00">ThreadingManager.h</text>
</a>
</g>
</g>
<!-- Node3&#45;&gt;Node7 -->
<g id="edge6" class="edge">
<title>Node3&#45;&gt;Node7</title>
<path fill="none" stroke="midnightblue" d="M497.18,-103.27C502.47,-94.05 508.72,-83.17 512.98,-75.75"/>
<polygon fill="midnightblue" stroke="midnightblue" points="494.06,-101.67 492.12,-112.08 500.13,-105.15 494.06,-101.67"/>
</g>
<!-- Node7&#45;&gt;Node4 -->
<g id="edge11" class="edge">
<title>Node7&#45;&gt;Node4</title>
<path fill="none" stroke="midnightblue" d="M449.93,-55.25C377.1,-44.82 263.03,-28.48 195.77,-18.85"/>
<polygon fill="midnightblue" stroke="midnightblue" points="449.52,-58.73 459.92,-56.68 450.52,-51.8 449.52,-58.73"/>
</g>
<!-- Node7&#45;&gt;Node5 -->
<g id="edge12" class="edge">
<title>Node7&#45;&gt;Node5</title>
<path fill="none" stroke="midnightblue" d="M449.78,-58.92C344.43,-49.38 147.01,-30.87 77,-20 74.14,-19.56 71.17,-19.04 68.21,-18.5"/>
<polygon fill="midnightblue" stroke="midnightblue" points="449.71,-62.43 459.99,-59.84 450.34,-55.46 449.71,-62.43"/>
</g>
<!-- Node7&#45;&gt;Node6 -->
<g id="edge13" class="edge">
<title>Node7&#45;&gt;Node6</title>
<path fill="none" stroke="midnightblue" d="M586.19,-57.58C663.9,-49.02 794.69,-34.27 907,-20 910.16,-19.6 913.41,-19.18 916.69,-18.74"/>
<polygon fill="midnightblue" stroke="midnightblue" points="585.6,-54.12 576.05,-58.7 586.37,-61.08 585.6,-54.12"/>
</g>
<!-- Node8 -->
<g id="node8" class="node">
<title>Node8</title>
<g id="a_node8"><a xlink:href="Contouring_8cc.html" target="_top" xlink:title=" ">
<polygon fill="none" stroke="black" points="714.5,-0.5 714.5,-19.5 797.5,-19.5 797.5,-0.5 714.5,-0.5"/>
<text text-anchor="middle" x="756" y="-7.5" font-family="Helvetica,sans-Serif" font-size="10.00">Contouring.cc</text>
</a>
</g>
</g>
<!-- Node7&#45;&gt;Node8 -->
<g id="edge7" class="edge">
<title>Node7&#45;&gt;Node8</title>
<path fill="none" stroke="midnightblue" d="M565.52,-54.22C610.5,-44.01 677.1,-28.9 718.46,-19.52"/>
<polygon fill="midnightblue" stroke="midnightblue" points="564.69,-50.82 555.71,-56.44 566.24,-57.64 564.69,-50.82"/>
</g>
<!-- Node9 -->
<g id="node9" class="node">
<title>Node9</title>
<g id="a_node9"><a xlink:href="Smoothing_8cc.html" target="_top" xlink:title=" ">
<polygon fill="none" stroke="black" points="815.5,-0.5 815.5,-19.5 898.5,-19.5 898.5,-0.5 815.5,-0.5"/>
<text text-anchor="middle" x="857" y="-7.5" font-family="Helvetica,sans-Serif" font-size="10.00">Smoothing.cc</text>
</a>
</g>
</g>
<!-- Node7&#45;&gt;Node9 -->
<g id="edge8" class="edge">
<title>Node7&#45;&gt;Node9</title>
<path fill="none" stroke="midnightblue" d="M584.82,-54.94C643.22,-46.06 730.3,-32.59 806,-20 809.02,-19.5 812.13,-18.97 815.26,-18.43"/>
<polygon fill="midnightblue" stroke="midnightblue" points="583.97,-51.53 574.61,-56.49 585.03,-58.45 583.97,-51.53"/>
</g>
<!-- Node10 -->
<g id="node10" class="node">
<title>Node10</title>
<g id="a_node10"><a xlink:href="Histogram_8cc.html" target="_top" xlink:title=" ">
<polygon fill="none" stroke="black" points="213.5,-0.5 213.5,-19.5 294.5,-19.5 294.5,-0.5 213.5,-0.5"/>
<text text-anchor="middle" x="254" y="-7.5" font-family="Helvetica,sans-Serif" font-size="10.00">Histogram.cc</text>
</a>
</g>
</g>
<!-- Node7&#45;&gt;Node10 -->
<g id="edge9" class="edge">
<title>Node7&#45;&gt;Node10</title>
<path fill="none" stroke="midnightblue" d="M466.16,-54.4C415.96,-44.13 340.85,-28.76 294.77,-19.34"/>
<polygon fill="midnightblue" stroke="midnightblue" points="465.67,-57.87 476.17,-56.44 467.07,-51.01 465.67,-57.87"/>
</g>
<!-- Node11 -->
<g id="node11" class="node">
<title>Node11</title>
<g id="a_node11"><a xlink:href="Main_8cc.html" target="_top" xlink:title=" ">
<polygon fill="none" stroke="black" points="1045,-0.5 1045,-19.5 1099,-19.5 1099,-0.5 1045,-0.5"/>
<text text-anchor="middle" x="1072" y="-7.5" font-family="Helvetica,sans-Serif" font-size="10.00">Main.cc</text>
</a>
</g>
</g>
<!-- Node7&#45;&gt;Node11 -->
<g id="edge10" class="edge">
<title>Node7&#45;&gt;Node11</title>
<path fill="none" stroke="midnightblue" d="M586.48,-62.5C686.03,-58.1 876.28,-46.73 1036,-20 1038.92,-19.51 1041.96,-18.91 1044.97,-18.25"/>
<polygon fill="midnightblue" stroke="midnightblue" points="586.09,-59.02 576.25,-62.95 586.39,-66.01 586.09,-59.02"/>
</g>
<!-- Node12 -->
<g id="node12" class="node">
<title>Node12</title>
<g id="a_node12"><a xlink:href="Columns_8cc.html" target="_top" xlink:title=" ">
<polygon fill="none" stroke="black" points="312.5,-0.5 312.5,-19.5 385.5,-19.5 385.5,-0.5 312.5,-0.5"/>
<text text-anchor="middle" x="349" y="-7.5" font-family="Helvetica,sans-Serif" font-size="10.00">Columns.cc</text>
</a>
</g>
</g>
<!-- Node7&#45;&gt;Node12 -->
<g id="edge14" class="edge">
<title>Node7&#45;&gt;Node12</title>
<path fill="none" stroke="midnightblue" d="M481.4,-53.3C449.55,-43.13 404.16,-28.62 375.65,-19.52"/>
<polygon fill="midnightblue" stroke="midnightblue" points="480.63,-56.73 491.22,-56.44 482.76,-50.07 480.63,-56.73"/>
</g>
<!-- Node13 -->
<g id="node13" class="node">
<title>Node13</title>
<g id="a_node13"><a xlink:href="Table_8cc.html" target="_top" xlink:title=" ">
<polygon fill="none" stroke="black" points="404,-0.5 404,-19.5 460,-19.5 460,-0.5 404,-0.5"/>
<text text-anchor="middle" x="432" y="-7.5" font-family="Helvetica,sans-Serif" font-size="10.00">Table.cc</text>
</a>
</g>
</g>
<!-- Node7&#45;&gt;Node13 -->
<g id="edge15" class="edge">
<title>Node7&#45;&gt;Node13</title>
<path fill="none" stroke="midnightblue" d="M495.55,-50.9C479.78,-41 459.19,-28.07 445.78,-19.65"/>
<polygon fill="midnightblue" stroke="midnightblue" points="493.85,-53.97 504.18,-56.32 497.57,-48.04 493.85,-53.97"/>
</g>
<!-- Node14 -->
<g id="node14" class="node">
<title>Node14</title>
<g id="a_node14"><a xlink:href="TableView_8cc.html" target="_top" xlink:title=" ">
<polygon fill="none" stroke="black" points="478.5,-0.5 478.5,-19.5 557.5,-19.5 557.5,-0.5 478.5,-0.5"/>
<text text-anchor="middle" x="518" y="-7.5" font-family="Helvetica,sans-Serif" font-size="10.00">TableView.cc</text>
</a>
</g>
</g>
<!-- Node7&#45;&gt;Node14 -->
<g id="edge16" class="edge">
<title>Node7&#45;&gt;Node14</title>
<path fill="none" stroke="midnightblue" d="M518,-45.8C518,-36.91 518,-26.78 518,-19.75"/>
<polygon fill="midnightblue" stroke="midnightblue" points="514.5,-46.08 518,-56.08 521.5,-46.08 514.5,-46.08"/>
</g>
<!-- Node15 -->
<g id="node15" class="node">
<title>Node15</title>
<g id="a_node15"><a xlink:href="ThreadingManager_8cc.html" target="_top" xlink:title=" ">
<polygon fill="none" stroke="black" points="575.5,-0.5 575.5,-19.5 696.5,-19.5 696.5,-0.5 575.5,-0.5"/>
<text text-anchor="middle" x="636" y="-7.5" font-family="Helvetica,sans-Serif" font-size="10.00">ThreadingManager.cc</text>
</a>
</g>
</g>
<!-- Node7&#45;&gt;Node15 -->
<g id="edge17" class="edge">
<title>Node7&#45;&gt;Node15</title>
<path fill="none" stroke="midnightblue" d="M545.9,-52.23C567.97,-42.13 598.18,-28.31 617.39,-19.52"/>
<polygon fill="midnightblue" stroke="midnightblue" points="544.33,-49.1 536.7,-56.44 547.25,-55.46 544.33,-49.1"/>
</g>
<!-- Node16&#45;&gt;Node3 -->
<g id="edge24" class="edge">
<title>Node16&#45;&gt;Node3</title>
<path fill="none" stroke="midnightblue" d="M833.35,-168.73C752.76,-158.09 614.23,-139.8 539.11,-129.88"/>
<polygon fill="midnightblue" stroke="midnightblue" points="833,-172.21 843.37,-170.05 833.91,-165.27 833,-172.21"/>
</g>
<!-- Node16&#45;&gt;Node6 -->
<g id="edge25" class="edge">
<title>Node16&#45;&gt;Node6</title>
<path fill="none" stroke="midnightblue" d="M894.86,-158.08C894.23,-133 896.19,-88.17 915,-56 924.48,-39.78 942.24,-27.2 955.42,-19.51"/>
<polygon fill="midnightblue" stroke="midnightblue" points="891.38,-158.54 895.3,-168.38 898.37,-158.24 891.38,-158.54"/>
</g>
<!-- Node16&#45;&gt;Node11 -->
<g id="edge23" class="edge">
<title>Node16&#45;&gt;Node11</title>
<path fill="none" stroke="midnightblue" d="M949.46,-165.6C971.21,-158.79 995.33,-148.2 1013,-132 1048.31,-99.62 1064.9,-41.51 1070.11,-19.64"/>
<polygon fill="midnightblue" stroke="midnightblue" points="948.28,-162.3 939.67,-168.47 950.25,-169.01 948.28,-162.3"/>
</g>
<!-- Node17 -->
<g id="node17" class="node">
<title>Node17</title>
<g id="a_node17"><a xlink:href="HttpServer_8h.html" target="_top" xlink:title=" ">
<polygon fill="none" stroke="black" points="926.5,-112.5 926.5,-131.5 1003.5,-131.5 1003.5,-112.5 926.5,-112.5"/>
<text text-anchor="middle" x="965" y="-119.5" font-family="Helvetica,sans-Serif" font-size="10.00">HttpServer.h</text>
</a>
</g>
</g>
<!-- Node16&#45;&gt;Node17 -->
<g id="edge20" class="edge">
<title>Node16&#45;&gt;Node17</title>
<path fill="none" stroke="midnightblue" d="M915.04,-162.1C927.46,-152.38 943.24,-140.03 953.71,-131.83"/>
<polygon fill="midnightblue" stroke="midnightblue" points="912.8,-159.4 907.09,-168.32 917.12,-164.92 912.8,-159.4"/>
</g>
<!-- Node17&#45;&gt;Node11 -->
<g id="edge22" class="edge">
<title>Node17&#45;&gt;Node11</title>
<path fill="none" stroke="midnightblue" d="M983.12,-105.61C992.83,-97.14 1004.85,-86.28 1015,-76 1033.98,-56.77 1054.45,-32.45 1064.93,-19.7"/>
<polygon fill="midnightblue" stroke="midnightblue" points="980.57,-103.19 975.28,-112.37 985.14,-108.49 980.57,-103.19"/>
</g>
<!-- Node18 -->
<g id="node18" class="node">
<title>Node18</title>
<g id="a_node18"><a xlink:href="HttpServer_8cc.html" target="_top" xlink:title=" ">
<polygon fill="none" stroke="black" points="924,-56.5 924,-75.5 1006,-75.5 1006,-56.5 924,-56.5"/>
<text text-anchor="middle" x="965" y="-63.5" font-family="Helvetica,sans-Serif" font-size="10.00">HttpServer.cc</text>
</a>
</g>
</g>
<!-- Node17&#45;&gt;Node18 -->
<g id="edge21" class="edge">
<title>Node17&#45;&gt;Node18</title>
<path fill="none" stroke="midnightblue" d="M965,-101.8C965,-92.91 965,-82.78 965,-75.75"/>
<polygon fill="midnightblue" stroke="midnightblue" points="961.5,-102.08 965,-112.08 968.5,-102.08 961.5,-102.08"/>
</g>
</g>
</svg>
