<?xml version="1.0" encoding="UTF-8" standalone="no"?>
<!DOCTYPE svg PUBLIC "-//W3C//DTD SVG 1.1//EN"
 "http://www.w3.org/Graphics/SVG/1.1/DTD/svg11.dtd">
<!-- Generated by graphviz version 2.43.0 (0)
 -->
<!-- Title: StokesFilesConnector.cc Pages: 1 -->
<!--zoomable 408 -->
<svg id="main" version="1.1" xmlns="http://www.w3.org/2000/svg" xmlns:xlink="http://www.w3.org/1999/xlink" xml:space="preserve" onload="init(evt)">
<style type="text/css"><![CDATA[
.edge:hover path { stroke: red; }
.edge:hover polygon { stroke: red; fill: red; }
]]></style>
<script type="text/javascript"><![CDATA[
var edges = document.getElementsByTagName('g');
if (edges && edges.length) {
  for (var i=0;i<edges.length;i++) {
    if (edges[i].id.substr(0,4)=='edge') {
      edges[i].setAttribute('class','edge');
    }
  }
}
]]></script>
        <defs>
                <circle id="rim" cx="0" cy="0" r="7"/>
                <circle id="rim2" cx="0" cy="0" r="3.5"/>
                <g id="zoomPlus">
                        <use xlink:href="#rim" fill="#404040">
                                <set attributeName="fill" to="#808080" begin="zoomplus.mouseover" end="zoomplus.mouseout"/>
                        </use>
                        <path d="M-4,0h8M0,-4v8" fill="none" stroke="white" stroke-width="1.5" pointer-events="none"/>
                </g>
                <g id="zoomMin">
                        <use xlink:href="#rim" fill="#404040">
                                <set attributeName="fill" to="#808080" begin="zoomminus.mouseover" end="zoomminus.mouseout"/>
                        </use>
                        <path d="M-4,0h8" fill="none" stroke="white" stroke-width="1.5" pointer-events="none"/>
                </g>
                <g id="dirArrow">
                        <path fill="none" stroke="white" stroke-width="1.5" d="M0,-3.0v7 M-2.5,-0.5L0,-3.0L2.5,-0.5"/>
                </g>
               <g id="resetDef">
                       <use xlink:href="#rim2" fill="#404040">
                               <set attributeName="fill" to="#808080" begin="reset.mouseover" end="reset.mouseout"/>
                       </use>
               </g>
        </defs>

<script type="text/javascript">
var viewWidth = 1806;
var viewHeight = 408;
var sectionId = 'dynsection-0';
</script>
<script xlink:href="svgpan.js"/>
<svg id="graph" class="graph">
<g id="viewport">
<title>StokesFilesConnector.cc</title>
<!-- Node1 -->
<g id="node1" class="node">
<title>Node1</title>
<g id="a_node1"><a xlink:title=" ">
<polygon fill="#bfbfbf" stroke="black" points="999,-380.5 999,-399.5 1133,-399.5 1133,-380.5 999,-380.5"/>
<text text-anchor="middle" x="1066" y="-387.5" font-family="Helvetica,sans-Serif" font-size="10.00">StokesFilesConnector.cc</text>
</a>
</g>
</g>
<!-- Node2 -->
<g id="node2" class="node">
<title>Node2</title>
<g id="a_node2"><a xlink:href="StokesFilesConnector_8h.html" target="_top" xlink:title=" ">
<polygon fill="none" stroke="black" points="572.5,-324.5 572.5,-343.5 701.5,-343.5 701.5,-324.5 572.5,-324.5"/>
<text text-anchor="middle" x="637" y="-331.5" font-family="Helvetica,sans-Serif" font-size="10.00">StokesFilesConnector.h</text>
</a>
</g>
</g>
<!-- Node1&#45;&gt;Node2 -->
<g id="edge1" class="edge">
<title>Node1&#45;&gt;Node2</title>
<path fill="none" stroke="midnightblue" d="M998.97,-380.56C921.11,-370.76 793.03,-354.64 711.94,-344.43"/>
<polygon fill="midnightblue" stroke="midnightblue" points="712.17,-340.93 701.81,-343.16 711.29,-347.88 712.17,-340.93"/>
</g>
<!-- Node17 -->
<g id="node17" class="node">
<title>Node17</title>
<g id="a_node17"><a xlink:href="Casacore_8h.html" target="_top" xlink:title=" ">
<polygon fill="none" stroke="black" points="1020.5,-196 1020.5,-215 1111.5,-215 1111.5,-196 1020.5,-196"/>
<text text-anchor="middle" x="1066" y="-203" font-family="Helvetica,sans-Serif" font-size="10.00">Util/Casacore.h</text>
</a>
</g>
</g>
<!-- Node1&#45;&gt;Node17 -->
<g id="edge48" class="edge">
<title>Node1&#45;&gt;Node17</title>
<path fill="none" stroke="midnightblue" d="M1066,-380.2C1066,-352.19 1066,-264.71 1066,-225.66"/>
<polygon fill="midnightblue" stroke="midnightblue" points="1069.5,-225.21 1066,-215.21 1062.5,-225.21 1069.5,-225.21"/>
</g>
<!-- Node22 -->
<g id="node22" class="node">
<title>Node22</title>
<g id="a_node22"><a xlink:href="Image_8h.html" target="_top" xlink:title=" ">
<polygon fill="none" stroke="black" points="216,-129 216,-148 272,-148 272,-129 216,-129"/>
<text text-anchor="middle" x="244" y="-136" font-family="Helvetica,sans-Serif" font-size="10.00">Image.h</text>
</a>
</g>
</g>
<!-- Node1&#45;&gt;Node22 -->
<g id="edge49" class="edge">
<title>Node1&#45;&gt;Node22</title>
<path fill="none" stroke="midnightblue" d="M998.85,-385.38C814.92,-374.79 313.33,-341.27 263,-288 229.61,-252.67 234.87,-189.7 240.12,-158.33"/>
<polygon fill="midnightblue" stroke="midnightblue" points="243.6,-158.79 241.99,-148.32 236.72,-157.51 243.6,-158.79"/>
</g>
<!-- Node29 -->
<g id="node29" class="node">
<title>Node29</title>
<g id="a_node29"><a xlink:href="Logger_8h.html" target="_top" xlink:title=" ">
<polygon fill="none" stroke="black" points="1400,-129 1400,-148 1494,-148 1494,-129 1400,-129"/>
<text text-anchor="middle" x="1447" y="-136" font-family="Helvetica,sans-Serif" font-size="10.00">Logger/Logger.h</text>
</a>
</g>
</g>
<!-- Node1&#45;&gt;Node29 -->
<g id="edge38" class="edge">
<title>Node1&#45;&gt;Node29</title>
<path fill="none" stroke="midnightblue" d="M1077.93,-380.43C1095.53,-367.85 1129.53,-343.72 1159,-324 1256.81,-258.52 1375.82,-183.83 1424.56,-153.45"/>
<polygon fill="midnightblue" stroke="midnightblue" points="1426.44,-156.4 1433.08,-148.14 1422.74,-150.45 1426.44,-156.4"/>
</g>
<!-- Node37 -->
<g id="node37" class="node">
<title>Node37</title>
<g id="a_node37"><a xlink:title=" ">
<polygon fill="none" stroke="#bfbfbf" points="1168,-324.5 1168,-343.5 1266,-343.5 1266,-324.5 1168,-324.5"/>
<text text-anchor="middle" x="1217" y="-331.5" font-family="Helvetica,sans-Serif" font-size="10.00">spdlog/fmt/fmt.h</text>
</a>
</g>
</g>
<!-- Node1&#45;&gt;Node37 -->
<g id="edge50" class="edge">
<title>Node1&#45;&gt;Node37</title>
<path fill="none" stroke="midnightblue" d="M1089.93,-380.44C1115.22,-371.4 1155.3,-357.06 1183.68,-346.92"/>
<polygon fill="midnightblue" stroke="midnightblue" points="1184.95,-350.18 1193.19,-343.52 1182.59,-343.59 1184.95,-350.18"/>
</g>
<!-- Node3 -->
<g id="node3" class="node">
<title>Node3</title>
<g id="a_node3"><a xlink:title=" ">
<polygon fill="none" stroke="#bfbfbf" points="272,-257.5 272,-287.5 394,-287.5 394,-257.5 272,-257.5"/>
<text text-anchor="start" x="280" y="-275.5" font-family="Helvetica,sans-Serif" font-size="10.00">carta&#45;protobuf/concat</text>
<text text-anchor="middle" x="333" y="-264.5" font-family="Helvetica,sans-Serif" font-size="10.00">_stokes_files.pb.h</text>
</a>
</g>
</g>
<!-- Node2&#45;&gt;Node3 -->
<g id="edge2" class="edge">
<title>Node2&#45;&gt;Node3</title>
<path fill="none" stroke="midnightblue" d="M591.67,-324.48C546.62,-315.97 475.29,-302.37 404.11,-288.21"/>
<polygon fill="midnightblue" stroke="midnightblue" points="404.56,-284.73 394.07,-286.2 403.2,-291.59 404.56,-284.73"/>
</g>
<!-- Node4 -->
<g id="node4" class="node">
<title>Node4</title>
<g id="a_node4"><a xlink:title=" ">
<polygon fill="none" stroke="#bfbfbf" points="412,-257.5 412,-287.5 550,-287.5 550,-257.5 412,-257.5"/>
<text text-anchor="start" x="420" y="-275.5" font-family="Helvetica,sans-Serif" font-size="10.00">casacore/images/Images</text>
<text text-anchor="middle" x="481" y="-264.5" font-family="Helvetica,sans-Serif" font-size="10.00">/ExtendImage.h</text>
</a>
</g>
</g>
<!-- Node2&#45;&gt;Node4 -->
<g id="edge3" class="edge">
<title>Node2&#45;&gt;Node4</title>
<path fill="none" stroke="midnightblue" d="M614.65,-324.48C591.94,-315.81 556.1,-302.15 527.25,-291.14"/>
<polygon fill="midnightblue" stroke="midnightblue" points="528.36,-287.82 517.77,-287.52 525.86,-294.36 528.36,-287.82"/>
</g>
<!-- Node5 -->
<g id="node5" class="node">
<title>Node5</title>
<g id="a_node5"><a xlink:title=" ">
<polygon fill="none" stroke="#bfbfbf" points="568,-257.5 568,-287.5 706,-287.5 706,-257.5 568,-257.5"/>
<text text-anchor="start" x="576" y="-275.5" font-family="Helvetica,sans-Serif" font-size="10.00">casacore/images/Images</text>
<text text-anchor="middle" x="637" y="-264.5" font-family="Helvetica,sans-Serif" font-size="10.00">/ImageConcat.h</text>
</a>
</g>
</g>
<!-- Node2&#45;&gt;Node5 -->
<g id="edge4" class="edge">
<title>Node2&#45;&gt;Node5</title>
<path fill="none" stroke="midnightblue" d="M637,-324.48C637,-317.47 637,-307.19 637,-297.7"/>
<polygon fill="midnightblue" stroke="midnightblue" points="640.5,-297.52 637,-287.52 633.5,-297.52 640.5,-297.52"/>
</g>
<!-- Node6 -->
<g id="node6" class="node">
<title>Node6</title>
<g id="a_node6"><a xlink:href="FileLoader_8h.html" target="_top" xlink:title=" ">
<polygon fill="none" stroke="black" points="724.5,-263 724.5,-282 799.5,-282 799.5,-263 724.5,-263"/>
<text text-anchor="middle" x="762" y="-270" font-family="Helvetica,sans-Serif" font-size="10.00">FileLoader.h</text>
</a>
</g>
</g>
<!-- Node2&#45;&gt;Node6 -->
<g id="edge5" class="edge">
<title>Node2&#45;&gt;Node6</title>
<path fill="none" stroke="midnightblue" d="M654.91,-324.48C675.89,-314.49 710.85,-297.85 735.09,-286.31"/>
<polygon fill="midnightblue" stroke="midnightblue" points="736.6,-289.47 744.12,-282.01 733.59,-283.15 736.6,-289.47"/>
</g>
<!-- Node7 -->
<g id="node7" class="node">
<title>Node7</title>
<g id="a_node7"><a xlink:title=" ">
<polygon fill="none" stroke="#bfbfbf" points="584,-196 584,-215 642,-215 642,-196 584,-196"/>
<text text-anchor="middle" x="613" y="-203" font-family="Helvetica,sans-Serif" font-size="10.00">memory</text>
</a>
</g>
</g>
<!-- Node6&#45;&gt;Node7 -->
<g id="edge6" class="edge">
<title>Node6&#45;&gt;Node7</title>
<path fill="none" stroke="midnightblue" d="M742.21,-262.87C716.61,-251.7 671.79,-232.15 642.25,-219.26"/>
<polygon fill="midnightblue" stroke="midnightblue" points="643.43,-215.96 632.87,-215.17 640.63,-222.37 643.43,-215.96"/>
</g>
<!-- Node8 -->
<g id="node8" class="node">
<title>Node8</title>
<g id="a_node8"><a xlink:title=" ">
<polygon fill="none" stroke="#bfbfbf" points="0,-62 0,-81 44,-81 44,-62 0,-62"/>
<text text-anchor="middle" x="22" y="-69" font-family="Helvetica,sans-Serif" font-size="10.00">string</text>
</a>
</g>
</g>
<!-- Node6&#45;&gt;Node8 -->
<g id="edge7" class="edge">
<title>Node6&#45;&gt;Node8</title>
<path fill="none" stroke="midnightblue" d="M737.85,-263C730.59,-260.73 722.54,-258.49 715,-257 456.45,-205.82 363.69,-277.78 131,-154 95.8,-135.27 59.64,-105.82 39.09,-87.92"/>
<polygon fill="midnightblue" stroke="midnightblue" points="41.33,-85.24 31.52,-81.24 36.7,-90.48 41.33,-85.24"/>
</g>
<!-- Node9 -->
<g id="node9" class="node">
<title>Node9</title>
<g id="a_node9"><a xlink:title=" ">
<polygon fill="none" stroke="#bfbfbf" points="836.5,-190.5 836.5,-220.5 963.5,-220.5 963.5,-190.5 836.5,-190.5"/>
<text text-anchor="start" x="844.5" y="-208.5" font-family="Helvetica,sans-Serif" font-size="10.00">casacore/casa/Utilities</text>
<text text-anchor="middle" x="900" y="-197.5" font-family="Helvetica,sans-Serif" font-size="10.00">/DataType.h</text>
</a>
</g>
</g>
<!-- Node6&#45;&gt;Node9 -->
<g id="edge8" class="edge">
<title>Node6&#45;&gt;Node9</title>
<path fill="none" stroke="midnightblue" d="M780.33,-262.87C800.76,-253.24 834.42,-237.39 860.85,-224.94"/>
<polygon fill="midnightblue" stroke="midnightblue" points="862.66,-227.96 870.22,-220.53 859.68,-221.62 862.66,-227.96"/>
</g>
<!-- Node10 -->
<g id="node10" class="node">
<title>Node10</title>
<g id="a_node10"><a xlink:title=" ">
<polygon fill="none" stroke="#bfbfbf" points="900,-123.5 900,-153.5 1038,-153.5 1038,-123.5 900,-123.5"/>
<text text-anchor="start" x="908" y="-141.5" font-family="Helvetica,sans-Serif" font-size="10.00">casacore/images/Images</text>
<text text-anchor="middle" x="969" y="-130.5" font-family="Helvetica,sans-Serif" font-size="10.00">/ImageInterface.h</text>
</a>
</g>
</g>
<!-- Node6&#45;&gt;Node10 -->
<g id="edge9" class="edge">
<title>Node6&#45;&gt;Node10</title>
<path fill="none" stroke="midnightblue" d="M766.97,-262.56C776.62,-245.96 799.49,-210.23 828,-190 848.78,-175.26 874.32,-164.4 897.92,-156.62"/>
<polygon fill="midnightblue" stroke="midnightblue" points="899.07,-159.92 907.55,-153.57 896.96,-153.25 899.07,-159.92"/>
</g>
<!-- Node11 -->
<g id="node11" class="node">
<title>Node11</title>
<g id="a_node11"><a xlink:title=" ">
<polygon fill="none" stroke="#bfbfbf" points="744,-123.5 744,-153.5 882,-153.5 882,-123.5 744,-123.5"/>
<text text-anchor="start" x="752" y="-141.5" font-family="Helvetica,sans-Serif" font-size="10.00">casacore/images/Images</text>
<text text-anchor="middle" x="813" y="-130.5" font-family="Helvetica,sans-Serif" font-size="10.00">/SubImage.h</text>
</a>
</g>
</g>
<!-- Node6&#45;&gt;Node11 -->
<g id="edge10" class="edge">
<title>Node6&#45;&gt;Node11</title>
<path fill="none" stroke="midnightblue" d="M799.83,-267.98C854.62,-262 951.83,-247.84 973,-221 981.53,-210.18 981.15,-201.11 973,-190 962.69,-175.93 927.02,-163.98 891.97,-155.24"/>
<polygon fill="midnightblue" stroke="midnightblue" points="892.66,-151.8 882.12,-152.86 891.02,-158.61 892.66,-151.8"/>
</g>
<!-- Node12 -->
<g id="node12" class="node">
<title>Node12</title>
<g id="a_node12"><a xlink:title=" ">
<polygon fill="none" stroke="#bfbfbf" points="609,-62 609,-81 743,-81 743,-62 609,-62"/>
<text text-anchor="middle" x="676" y="-69" font-family="Helvetica,sans-Serif" font-size="10.00">carta&#45;protobuf/defs.pb.h</text>
</a>
</g>
</g>
<!-- Node6&#45;&gt;Node12 -->
<g id="edge11" class="edge">
<title>Node6&#45;&gt;Node12</title>
<path fill="none" stroke="midnightblue" d="M735.22,-263C728.63,-260.97 721.57,-258.86 715,-257 653.18,-239.53 614.37,-271.77 575,-221 554.19,-194.17 596.91,-130.52 603,-123 615.53,-107.53 634,-94.81 649.23,-86.01"/>
<polygon fill="midnightblue" stroke="midnightblue" points="651.15,-88.95 658.21,-81.04 647.77,-82.82 651.15,-88.95"/>
</g>
<!-- Node13 -->
<g id="node13" class="node">
<title>Node13</title>
<g id="a_node13"><a xlink:title=" ">
<polygon fill="none" stroke="#bfbfbf" points="445,-62 445,-81 591,-81 591,-62 445,-62"/>
<text text-anchor="middle" x="518" y="-69" font-family="Helvetica,sans-Serif" font-size="10.00">carta&#45;protobuf/enums.pb.h</text>
</a>
</g>
</g>
<!-- Node6&#45;&gt;Node13 -->
<g id="edge12" class="edge">
<title>Node6&#45;&gt;Node13</title>
<path fill="none" stroke="midnightblue" d="M735.24,-262.92C728.65,-260.9 721.59,-258.8 715,-257 648.88,-238.89 615.17,-267.73 565,-221 527.81,-186.36 519.9,-122.56 518.31,-91.07"/>
<polygon fill="midnightblue" stroke="midnightblue" points="521.81,-90.92 517.98,-81.05 514.82,-91.16 521.81,-90.92"/>
</g>
<!-- Node14 -->
<g id="node14" class="node">
<title>Node14</title>
<g id="a_node14"><a xlink:href="FileInfo_8h.html" target="_top" xlink:title=" ">
<polygon fill="none" stroke="black" points="660.5,-196 660.5,-215 779.5,-215 779.5,-196 660.5,-196"/>
<text text-anchor="middle" x="720" y="-203" font-family="Helvetica,sans-Serif" font-size="10.00">ImageData/FileInfo.h</text>
</a>
</g>
</g>
<!-- Node6&#45;&gt;Node14 -->
<g id="edge13" class="edge">
<title>Node6&#45;&gt;Node14</title>
<path fill="none" stroke="midnightblue" d="M756.34,-262.73C749.91,-252.79 739.28,-236.34 731.17,-223.79"/>
<polygon fill="midnightblue" stroke="midnightblue" points="733.94,-221.63 725.57,-215.13 728.06,-225.43 733.94,-221.63"/>
</g>
<!-- Node6&#45;&gt;Node17 -->
<g id="edge19" class="edge">
<title>Node6&#45;&gt;Node17</title>
<path fill="none" stroke="midnightblue" d="M799.7,-264.1C847.71,-254.58 933.19,-237.33 1006,-221 1011.03,-219.87 1016.3,-218.65 1021.52,-217.42"/>
<polygon fill="midnightblue" stroke="midnightblue" points="1022.55,-220.78 1031.46,-215.05 1020.92,-213.97 1022.55,-220.78"/>
</g>
<!-- Node20 -->
<g id="node20" class="node">
<title>Node20</title>
<g id="a_node20"><a xlink:href="Stokes_8h.html" target="_top" xlink:title=" ">
<polygon fill="none" stroke="black" points="332,-196 332,-215 410,-215 410,-196 332,-196"/>
<text text-anchor="middle" x="371" y="-203" font-family="Helvetica,sans-Serif" font-size="10.00">Util/Stokes.h</text>
</a>
</g>
</g>
<!-- Node6&#45;&gt;Node20 -->
<g id="edge23" class="edge">
<title>Node6&#45;&gt;Node20</title>
<path fill="none" stroke="midnightblue" d="M736.82,-262.95C729.82,-260.79 722.16,-258.62 715,-257 611.33,-233.55 487.53,-218.46 420.34,-211.33"/>
<polygon fill="midnightblue" stroke="midnightblue" points="420.36,-207.82 410.05,-210.26 419.63,-214.78 420.36,-207.82"/>
</g>
<!-- Node14&#45;&gt;Node10 -->
<g id="edge16" class="edge">
<title>Node14&#45;&gt;Node10</title>
<path fill="none" stroke="midnightblue" d="M752.81,-195.94C791.48,-185.84 856.63,-168.83 905.33,-156.12"/>
<polygon fill="midnightblue" stroke="midnightblue" points="906.35,-159.47 915.14,-153.56 904.58,-152.7 906.35,-159.47"/>
</g>
<!-- Node14&#45;&gt;Node11 -->
<g id="edge17" class="edge">
<title>Node14&#45;&gt;Node11</title>
<path fill="none" stroke="midnightblue" d="M732.54,-195.73C745.72,-186.53 766.88,-171.73 784.2,-159.63"/>
<polygon fill="midnightblue" stroke="midnightblue" points="786.65,-162.19 792.84,-153.59 782.64,-156.45 786.65,-162.19"/>
</g>
<!-- Node14&#45;&gt;Node12 -->
<g id="edge18" class="edge">
<title>Node14&#45;&gt;Node12</title>
<path fill="none" stroke="midnightblue" d="M677.33,-195.99C654.03,-188.93 627.13,-176.29 613,-154 605.62,-142.36 607.04,-135.42 613,-123 620.54,-107.29 635.61,-94.93 649.13,-86.37"/>
<polygon fill="midnightblue" stroke="midnightblue" points="651.29,-89.16 658.12,-81.06 647.73,-83.13 651.29,-89.16"/>
</g>
<!-- Node15 -->
<g id="node15" class="node">
<title>Node15</title>
<g id="a_node15"><a xlink:title=" ">
<polygon fill="none" stroke="#bfbfbf" points="622,-129 622,-148 660,-148 660,-129 622,-129"/>
<text text-anchor="middle" x="641" y="-136" font-family="Helvetica,sans-Serif" font-size="10.00">map</text>
</a>
</g>
</g>
<!-- Node14&#45;&gt;Node15 -->
<g id="edge14" class="edge">
<title>Node14&#45;&gt;Node15</title>
<path fill="none" stroke="midnightblue" d="M709.35,-195.73C696.55,-185.21 674.88,-167.38 659.37,-154.62"/>
<polygon fill="midnightblue" stroke="midnightblue" points="661.43,-151.78 651.49,-148.13 656.98,-157.18 661.43,-151.78"/>
</g>
<!-- Node16 -->
<g id="node16" class="node">
<title>Node16</title>
<g id="a_node16"><a xlink:title=" ">
<polygon fill="none" stroke="#bfbfbf" points="678.5,-129 678.5,-148 725.5,-148 725.5,-129 678.5,-129"/>
<text text-anchor="middle" x="702" y="-136" font-family="Helvetica,sans-Serif" font-size="10.00">vector</text>
</a>
</g>
</g>
<!-- Node14&#45;&gt;Node16 -->
<g id="edge15" class="edge">
<title>Node14&#45;&gt;Node16</title>
<path fill="none" stroke="midnightblue" d="M717.57,-195.73C714.9,-186.09 710.53,-170.3 707.1,-157.91"/>
<polygon fill="midnightblue" stroke="midnightblue" points="710.43,-156.83 704.39,-148.13 703.68,-158.7 710.43,-156.83"/>
</g>
<!-- Node17&#45;&gt;Node10 -->
<g id="edge20" class="edge">
<title>Node17&#45;&gt;Node10</title>
<path fill="none" stroke="midnightblue" d="M1052.92,-195.73C1039.05,-186.44 1016.7,-171.46 998.54,-159.3"/>
<polygon fill="midnightblue" stroke="midnightblue" points="1000.28,-156.25 990.03,-153.59 996.38,-162.06 1000.28,-156.25"/>
</g>
<!-- Node18 -->
<g id="node18" class="node">
<title>Node18</title>
<g id="a_node18"><a xlink:title=" ">
<polygon fill="none" stroke="#bfbfbf" points="1056,-123.5 1056,-153.5 1194,-153.5 1194,-123.5 1056,-123.5"/>
<text text-anchor="start" x="1064" y="-141.5" font-family="Helvetica,sans-Serif" font-size="10.00">casacore/images/Images</text>
<text text-anchor="middle" x="1125" y="-130.5" font-family="Helvetica,sans-Serif" font-size="10.00">/ImageOpener.h</text>
</a>
</g>
</g>
<!-- Node17&#45;&gt;Node18 -->
<g id="edge21" class="edge">
<title>Node17&#45;&gt;Node18</title>
<path fill="none" stroke="midnightblue" d="M1073.96,-195.73C1081.93,-186.95 1094.52,-173.08 1105.2,-161.31"/>
<polygon fill="midnightblue" stroke="midnightblue" points="1108.08,-163.35 1112.21,-153.59 1102.9,-158.64 1108.08,-163.35"/>
</g>
<!-- Node19 -->
<g id="node19" class="node">
<title>Node19</title>
<g id="a_node19"><a xlink:title=" ">
<polygon fill="none" stroke="#bfbfbf" points="1212.5,-123.5 1212.5,-153.5 1381.5,-153.5 1381.5,-123.5 1212.5,-123.5"/>
<text text-anchor="start" x="1220.5" y="-141.5" font-family="Helvetica,sans-Serif" font-size="10.00">casacore/scimath/Mathematics</text>
<text text-anchor="middle" x="1297" y="-130.5" font-family="Helvetica,sans-Serif" font-size="10.00">/GaussianBeam.h</text>
</a>
</g>
</g>
<!-- Node17&#45;&gt;Node19 -->
<g id="edge22" class="edge">
<title>Node17&#45;&gt;Node19</title>
<path fill="none" stroke="midnightblue" d="M1096.68,-195.87C1132.46,-185.8 1192.47,-168.91 1237.49,-156.24"/>
<polygon fill="midnightblue" stroke="midnightblue" points="1238.47,-159.61 1247.15,-153.53 1236.57,-152.87 1238.47,-159.61"/>
</g>
<!-- Node20&#45;&gt;Node8 -->
<g id="edge24" class="edge">
<title>Node20&#45;&gt;Node8</title>
<path fill="none" stroke="midnightblue" d="M339.5,-195.98C306.22,-186.7 252.36,-170.91 207,-154 149.59,-132.6 84.44,-102.48 48.81,-85.49"/>
<polygon fill="midnightblue" stroke="midnightblue" points="50.11,-82.23 39.58,-81.07 47.08,-88.54 50.11,-82.23"/>
</g>
<!-- Node20&#45;&gt;Node13 -->
<g id="edge25" class="edge">
<title>Node20&#45;&gt;Node13</title>
<path fill="none" stroke="midnightblue" d="M391.99,-195.99C411.39,-187.41 440.28,-172.76 461,-154 481.64,-135.31 498.89,-107.83 508.84,-90.05"/>
<polygon fill="midnightblue" stroke="midnightblue" points="512.02,-91.52 513.7,-81.06 505.86,-88.19 512.02,-91.52"/>
</g>
<!-- Node21 -->
<g id="node21" class="node">
<title>Node21</title>
<g id="a_node21"><a xlink:title=" ">
<polygon fill="none" stroke="#bfbfbf" points="290.5,-123.5 290.5,-153.5 451.5,-153.5 451.5,-123.5 290.5,-123.5"/>
<text text-anchor="start" x="298.5" y="-141.5" font-family="Helvetica,sans-Serif" font-size="10.00">casacore/measures/Measures</text>
<text text-anchor="middle" x="371" y="-130.5" font-family="Helvetica,sans-Serif" font-size="10.00">/Stokes.h</text>
</a>
</g>
</g>
<!-- Node20&#45;&gt;Node21 -->
<g id="edge26" class="edge">
<title>Node20&#45;&gt;Node21</title>
<path fill="none" stroke="midnightblue" d="M371,-195.73C371,-187.54 371,-174.92 371,-163.71"/>
<polygon fill="midnightblue" stroke="midnightblue" points="374.5,-163.59 371,-153.59 367.5,-163.59 374.5,-163.59"/>
</g>
<!-- Node20&#45;&gt;Node22 -->
<g id="edge27" class="edge">
<title>Node20&#45;&gt;Node22</title>
<path fill="none" stroke="midnightblue" d="M354.14,-195.87C332.6,-184.84 295.1,-165.66 269.92,-152.77"/>
<polygon fill="midnightblue" stroke="midnightblue" points="271.43,-149.61 260.93,-148.17 268.24,-155.84 271.43,-149.61"/>
</g>
<!-- Node22&#45;&gt;Node8 -->
<g id="edge30" class="edge">
<title>Node22&#45;&gt;Node8</title>
<path fill="none" stroke="midnightblue" d="M215.96,-130.98C179.28,-122.2 113.19,-105.54 58,-87 55.87,-86.29 53.69,-85.51 51.5,-84.71"/>
<polygon fill="midnightblue" stroke="midnightblue" points="52.62,-81.38 42.03,-81.05 50.1,-87.92 52.62,-81.38"/>
</g>
<!-- Node22&#45;&gt;Node12 -->
<g id="edge31" class="edge">
<title>Node22&#45;&gt;Node12</title>
<path fill="none" stroke="midnightblue" d="M263.82,-128.86C269.59,-126.64 275.96,-124.47 282,-123 420.21,-89.38 459.37,-108.34 600,-87 607.84,-85.81 616.11,-84.4 624.2,-82.93"/>
<polygon fill="midnightblue" stroke="midnightblue" points="625.1,-86.32 634.29,-81.05 623.81,-79.44 625.1,-86.32"/>
</g>
<!-- Node22&#45;&gt;Node13 -->
<g id="edge32" class="edge">
<title>Node22&#45;&gt;Node13</title>
<path fill="none" stroke="midnightblue" d="M264.71,-128.94C270.27,-126.82 276.31,-124.68 282,-123 315.52,-113.08 405.59,-94.64 464.26,-83"/>
<polygon fill="midnightblue" stroke="midnightblue" points="464.98,-86.43 474.12,-81.05 463.63,-79.56 464.98,-86.43"/>
</g>
<!-- Node23 -->
<g id="node23" class="node">
<title>Node23</title>
<g id="a_node23"><a xlink:title=" ">
<polygon fill="none" stroke="#bfbfbf" points="55.5,-0.5 55.5,-19.5 102.5,-19.5 102.5,-0.5 55.5,-0.5"/>
<text text-anchor="middle" x="79" y="-7.5" font-family="Helvetica,sans-Serif" font-size="10.00">cmath</text>
</a>
</g>
</g>
<!-- Node22&#45;&gt;Node23 -->
<g id="edge28" class="edge">
<title>Node22&#45;&gt;Node23</title>
<path fill="none" stroke="midnightblue" d="M215.86,-131.86C176.32,-123.36 107.3,-106.18 91,-87 77.65,-71.29 76.04,-46.89 76.86,-29.99"/>
<polygon fill="midnightblue" stroke="midnightblue" points="80.37,-29.95 77.7,-19.69 73.4,-29.37 80.37,-29.95"/>
</g>
<!-- Node24 -->
<g id="node24" class="node">
<title>Node24</title>
<g id="a_node24"><a xlink:title=" ">
<polygon fill="none" stroke="#bfbfbf" points="223.5,-62 223.5,-81 288.5,-81 288.5,-62 223.5,-62"/>
<text text-anchor="middle" x="256" y="-69" font-family="Helvetica,sans-Serif" font-size="10.00">functional</text>
</a>
</g>
</g>
<!-- Node22&#45;&gt;Node24 -->
<g id="edge29" class="edge">
<title>Node22&#45;&gt;Node24</title>
<path fill="none" stroke="midnightblue" d="M245.62,-128.73C247.38,-119.18 250.26,-103.62 252.53,-91.28"/>
<polygon fill="midnightblue" stroke="midnightblue" points="256.03,-91.6 254.41,-81.13 249.15,-90.33 256.03,-91.6"/>
</g>
<!-- Node25 -->
<g id="node25" class="node">
<title>Node25</title>
<g id="a_node25"><a xlink:title=" ">
<polygon fill="none" stroke="#bfbfbf" points="307,-56.5 307,-86.5 427,-86.5 427,-56.5 307,-56.5"/>
<text text-anchor="start" x="315" y="-74.5" font-family="Helvetica,sans-Serif" font-size="10.00">carta&#45;protobuf/vector</text>
<text text-anchor="middle" x="367" y="-63.5" font-family="Helvetica,sans-Serif" font-size="10.00">_overlay_tile.pb.h</text>
</a>
</g>
</g>
<!-- Node22&#45;&gt;Node25 -->
<g id="edge33" class="edge">
<title>Node22&#45;&gt;Node25</title>
<path fill="none" stroke="midnightblue" d="M260.33,-128.87C278.33,-119.36 307.84,-103.77 331.26,-91.39"/>
<polygon fill="midnightblue" stroke="midnightblue" points="333.01,-94.42 340.22,-86.65 329.74,-88.23 333.01,-94.42"/>
</g>
<!-- Node26 -->
<g id="node26" class="node">
<title>Node26</title>
<g id="a_node26"><a xlink:href="Tile_8h.html" target="_top" xlink:title=" ">
<polygon fill="none" stroke="black" points="100.5,-62 100.5,-81 205.5,-81 205.5,-62 100.5,-62"/>
<text text-anchor="middle" x="153" y="-69" font-family="Helvetica,sans-Serif" font-size="10.00">DataStream/Tile.h</text>
</a>
</g>
</g>
<!-- Node22&#45;&gt;Node26 -->
<g id="edge34" class="edge">
<title>Node22&#45;&gt;Node26</title>
<path fill="none" stroke="midnightblue" d="M231.73,-128.73C216.85,-118.11 191.57,-100.05 173.67,-87.26"/>
<polygon fill="midnightblue" stroke="midnightblue" points="175.25,-84.09 165.08,-81.13 171.18,-89.79 175.25,-84.09"/>
</g>
<!-- Node26&#45;&gt;Node23 -->
<g id="edge35" class="edge">
<title>Node26&#45;&gt;Node23</title>
<path fill="none" stroke="midnightblue" d="M142.4,-61.98C130.75,-52.61 111.81,-37.38 97.67,-26.01"/>
<polygon fill="midnightblue" stroke="midnightblue" points="99.57,-23.05 89.58,-19.51 95.18,-28.5 99.57,-23.05"/>
</g>
<!-- Node27 -->
<g id="node27" class="node">
<title>Node27</title>
<g id="a_node27"><a xlink:title=" ">
<polygon fill="none" stroke="#bfbfbf" points="128,-0.5 128,-19.5 178,-19.5 178,-0.5 128,-0.5"/>
<text text-anchor="middle" x="153" y="-7.5" font-family="Helvetica,sans-Serif" font-size="10.00">cstdint</text>
</a>
</g>
</g>
<!-- Node26&#45;&gt;Node27 -->
<g id="edge36" class="edge">
<title>Node26&#45;&gt;Node27</title>
<path fill="none" stroke="midnightblue" d="M153,-61.98C153,-53.58 153,-40.48 153,-29.66"/>
<polygon fill="midnightblue" stroke="midnightblue" points="156.5,-29.51 153,-19.51 149.5,-29.51 156.5,-29.51"/>
</g>
<!-- Node28 -->
<g id="node28" class="node">
<title>Node28</title>
<g id="a_node28"><a xlink:title=" ">
<polygon fill="none" stroke="#bfbfbf" points="535,-0.5 535,-19.5 595,-19.5 595,-0.5 535,-0.5"/>
<text text-anchor="middle" x="565" y="-7.5" font-family="Helvetica,sans-Serif" font-size="10.00">iostream</text>
</a>
</g>
</g>
<!-- Node26&#45;&gt;Node28 -->
<g id="edge37" class="edge">
<title>Node26&#45;&gt;Node28</title>
<path fill="none" stroke="midnightblue" d="M186.11,-61.96C195.11,-59.82 204.9,-57.66 214,-56 325.64,-35.63 458.92,-21.23 524.48,-14.79"/>
<polygon fill="midnightblue" stroke="midnightblue" points="525.17,-18.24 534.79,-13.79 524.49,-11.27 525.17,-18.24"/>
</g>
<!-- Node29&#45;&gt;Node13 -->
<g id="edge45" class="edge">
<title>Node29&#45;&gt;Node13</title>
<path fill="none" stroke="midnightblue" d="M1418.75,-128.97C1409.94,-126.63 1400.14,-124.38 1391,-123 1043,-70.61 949.78,-125.72 600,-87 590.3,-85.93 580,-84.41 570.11,-82.76"/>
<polygon fill="midnightblue" stroke="midnightblue" points="570.44,-79.26 559.99,-81 569.24,-86.16 570.44,-79.26"/>
</g>
<!-- Node29&#45;&gt;Node28 -->
<g id="edge39" class="edge">
<title>Node29&#45;&gt;Node28</title>
<path fill="none" stroke="midnightblue" d="M1417.24,-128.96C1408.81,-126.76 1399.59,-124.58 1391,-123 1248.95,-96.83 1211.22,-105.79 1068,-87 895.47,-64.36 690.55,-31.55 605.31,-17.64"/>
<polygon fill="midnightblue" stroke="midnightblue" points="605.71,-14.16 595.28,-16 604.58,-21.06 605.71,-14.16"/>
</g>
<!-- Node30 -->
<g id="node30" class="node">
<title>Node30</title>
<g id="a_node30"><a xlink:title=" ">
<polygon fill="none" stroke="#bfbfbf" points="1077,-62 1077,-81 1181,-81 1181,-62 1077,-62"/>
<text text-anchor="middle" x="1129" y="-69" font-family="Helvetica,sans-Serif" font-size="10.00">spdlog/common.h</text>
</a>
</g>
</g>
<!-- Node29&#45;&gt;Node30 -->
<g id="edge40" class="edge">
<title>Node29&#45;&gt;Node30</title>
<path fill="none" stroke="midnightblue" d="M1415.7,-128.95C1407.68,-126.88 1399.04,-124.76 1391,-123 1302.78,-103.67 1279.45,-105.29 1191,-87 1185.52,-85.87 1179.78,-84.61 1174.1,-83.33"/>
<polygon fill="midnightblue" stroke="midnightblue" points="1174.54,-79.85 1164.01,-81.02 1172.98,-86.67 1174.54,-79.85"/>
</g>
<!-- Node31 -->
<g id="node31" class="node">
<title>Node31</title>
<g id="a_node31"><a xlink:title=" ">
<polygon fill="none" stroke="#bfbfbf" points="1199.5,-56.5 1199.5,-86.5 1302.5,-86.5 1302.5,-56.5 1199.5,-56.5"/>
<text text-anchor="start" x="1207.5" y="-74.5" font-family="Helvetica,sans-Serif" font-size="10.00">spdlog/details/log</text>
<text text-anchor="middle" x="1251" y="-63.5" font-family="Helvetica,sans-Serif" font-size="10.00">_msg.h</text>
</a>
</g>
</g>
<!-- Node29&#45;&gt;Node31 -->
<g id="edge41" class="edge">
<title>Node29&#45;&gt;Node31</title>
<path fill="none" stroke="midnightblue" d="M1420.97,-128.87C1391.05,-118.95 1341.19,-102.41 1303.18,-89.81"/>
<polygon fill="midnightblue" stroke="midnightblue" points="1303.89,-86.35 1293.3,-86.53 1301.69,-93 1303.89,-86.35"/>
</g>
<!-- Node32 -->
<g id="node32" class="node">
<title>Node32</title>
<g id="a_node32"><a xlink:title=" ">
<polygon fill="none" stroke="#bfbfbf" points="1320.5,-56.5 1320.5,-86.5 1439.5,-86.5 1439.5,-56.5 1320.5,-56.5"/>
<text text-anchor="start" x="1328.5" y="-74.5" font-family="Helvetica,sans-Serif" font-size="10.00">spdlog/sinks/rotating</text>
<text text-anchor="middle" x="1380" y="-63.5" font-family="Helvetica,sans-Serif" font-size="10.00">_file_sink.h</text>
</a>
</g>
</g>
<!-- Node29&#45;&gt;Node32 -->
<g id="edge42" class="edge">
<title>Node29&#45;&gt;Node32</title>
<path fill="none" stroke="midnightblue" d="M1437.96,-128.73C1428.74,-119.78 1414.06,-105.54 1401.78,-93.63"/>
<polygon fill="midnightblue" stroke="midnightblue" points="1404.14,-91.04 1394.52,-86.59 1399.26,-96.06 1404.14,-91.04"/>
</g>
<!-- Node33 -->
<g id="node33" class="node">
<title>Node33</title>
<g id="a_node33"><a xlink:title=" ">
<polygon fill="none" stroke="#bfbfbf" points="1457.5,-56.5 1457.5,-86.5 1568.5,-86.5 1568.5,-56.5 1457.5,-56.5"/>
<text text-anchor="start" x="1465.5" y="-74.5" font-family="Helvetica,sans-Serif" font-size="10.00">spdlog/sinks/stdout</text>
<text text-anchor="middle" x="1513" y="-63.5" font-family="Helvetica,sans-Serif" font-size="10.00">_color_sinks.h</text>
</a>
</g>
</g>
<!-- Node29&#45;&gt;Node33 -->
<g id="edge43" class="edge">
<title>Node29&#45;&gt;Node33</title>
<path fill="none" stroke="midnightblue" d="M1455.9,-128.73C1464.99,-119.78 1479.45,-105.54 1491.54,-93.63"/>
<polygon fill="midnightblue" stroke="midnightblue" points="1494.03,-96.1 1498.69,-86.59 1489.11,-91.11 1494.03,-96.1"/>
</g>
<!-- Node34 -->
<g id="node34" class="node">
<title>Node34</title>
<g id="a_node34"><a xlink:title=" ">
<polygon fill="none" stroke="#bfbfbf" points="1586.5,-62 1586.5,-81 1679.5,-81 1679.5,-62 1586.5,-62"/>
<text text-anchor="middle" x="1633" y="-69" font-family="Helvetica,sans-Serif" font-size="10.00">spdlog/spdlog.h</text>
</a>
</g>
</g>
<!-- Node29&#45;&gt;Node34 -->
<g id="edge44" class="edge">
<title>Node29&#45;&gt;Node34</title>
<path fill="none" stroke="midnightblue" d="M1471.7,-128.87C1504.31,-117.47 1561.88,-97.35 1598.7,-84.49"/>
<polygon fill="midnightblue" stroke="midnightblue" points="1600.21,-87.67 1608.49,-81.06 1597.9,-81.06 1600.21,-87.67"/>
</g>
<!-- Node35 -->
<g id="node35" class="node">
<title>Node35</title>
<g id="a_node35"><a xlink:href="FileSystem_8h.html" target="_top" xlink:title=" ">
<polygon fill="none" stroke="black" points="1698,-62 1698,-81 1798,-81 1798,-62 1698,-62"/>
<text text-anchor="middle" x="1748" y="-69" font-family="Helvetica,sans-Serif" font-size="10.00">Util/FileSystem.h</text>
</a>
</g>
</g>
<!-- Node29&#45;&gt;Node35 -->
<g id="edge46" class="edge">
<title>Node29&#45;&gt;Node35</title>
<path fill="none" stroke="midnightblue" d="M1490.38,-128.93C1538.88,-119.23 1619.73,-102.73 1689,-87 1693.95,-85.88 1699.13,-84.66 1704.27,-83.43"/>
<polygon fill="midnightblue" stroke="midnightblue" points="1705.15,-86.82 1714.04,-81.06 1703.5,-80.02 1705.15,-86.82"/>
</g>
<!-- Node36 -->
<g id="node36" class="node">
<title>Node36</title>
<g id="a_node36"><a xlink:title=" ">
<polygon fill="none" stroke="#bfbfbf" points="1714,-0.5 1714,-19.5 1782,-19.5 1782,-0.5 1714,-0.5"/>
<text text-anchor="middle" x="1748" y="-7.5" font-family="Helvetica,sans-Serif" font-size="10.00">filesystem</text>
</a>
</g>
</g>
<!-- Node35&#45;&gt;Node36 -->
<g id="edge47" class="edge">
<title>Node35&#45;&gt;Node36</title>
<path fill="none" stroke="midnightblue" d="M1748,-61.98C1748,-53.58 1748,-40.48 1748,-29.66"/>
<polygon fill="midnightblue" stroke="midnightblue" points="1751.5,-29.51 1748,-19.51 1744.5,-29.51 1751.5,-29.51"/>
</g>
</g>
</svg>
        <g id="navigator" transform="translate(0 0)" fill="#404254">
                <rect fill="#f2f5e9" fill-opacity="0.5" stroke="#606060" stroke-width=".5" x="0" y="0" width="60" height="60"/>
                <use id="zoomplus" xlink:href="#zoomPlus" x="17" y="9" onmousedown="handleZoom(evt,'in')"/>
                <use id="zoomminus" xlink:href="#zoomMin" x="42" y="9" onmousedown="handleZoom(evt,'out')"/>
                <use id="reset" xlink:href="#resetDef" x="30" y="36" onmousedown="handleReset()"/>
                <g id="arrowUp" xlink:href="#dirArrow" transform="translate(30 24)" onmousedown="handlePan(0,-1)">
                  <use xlink:href="#rim" fill="#404040">
                        <set attributeName="fill" to="#808080" begin="arrowUp.mouseover" end="arrowUp.mouseout"/>
                  </use>
                  <path fill="none" stroke="white" stroke-width="1.5" d="M0,-3.0v7 M-2.5,-0.5L0,-3.0L2.5,-0.5"/>
                </g>
                <g id="arrowRight" xlink:href="#dirArrow" transform="rotate(90) translate(36 -43)" onmousedown="handlePan(1,0)">
                  <use xlink:href="#rim" fill="#404040">
                        <set attributeName="fill" to="#808080" begin="arrowRight.mouseover" end="arrowRight.mouseout"/>
                  </use>
                  <path fill="none" stroke="white" stroke-width="1.5" d="M0,-3.0v7 M-2.5,-0.5L0,-3.0L2.5,-0.5"/>
                </g>
                <g id="arrowDown" xlink:href="#dirArrow" transform="rotate(180) translate(-30 -48)" onmousedown="handlePan(0,1)">
                  <use xlink:href="#rim" fill="#404040">
                        <set attributeName="fill" to="#808080" begin="arrowDown.mouseover" end="arrowDown.mouseout"/>
                  </use>
                  <path fill="none" stroke="white" stroke-width="1.5" d="M0,-3.0v7 M-2.5,-0.5L0,-3.0L2.5,-0.5"/>
                </g>
                <g id="arrowLeft" xlink:href="#dirArrow" transform="rotate(270) translate(-36 17)" onmousedown="handlePan(-1,0)">
                  <use xlink:href="#rim" fill="#404040">
                        <set attributeName="fill" to="#808080" begin="arrowLeft.mouseover" end="arrowLeft.mouseout"/>
                  </use>
                  <path fill="none" stroke="white" stroke-width="1.5" d="M0,-3.0v7 M-2.5,-0.5L0,-3.0L2.5,-0.5"/>
                </g>
        </g>
        <svg viewBox="0 0 15 15" width="100%" height="30px" preserveAspectRatio="xMaxYMin meet">
         <g id="arrow_out" transform="scale(0.3 0.3)">
          <a xlink:href="StokesFilesConnector_8cc__incl_org.svg" target="_base">
           <rect id="button" ry="5" rx="5" y="6" x="6" height="38" width="38"
                fill="#f2f5e9" fill-opacity="0.5" stroke="#606060" stroke-width="1.0"/>
           <path id="arrow"
             d="M 11.500037,31.436501 C 11.940474,20.09759 22.043105,11.32322 32.158766,21.979434 L 37.068811,17.246167 C 37.068811,17.246167 37.088388,32 37.088388,32 L 22.160133,31.978069 C 22.160133,31.978069 26.997745,27.140456 26.997745,27.140456 C 18.528582,18.264221 13.291696,25.230495 11.500037,31.436501 z"
             style="fill:#404040;"/>
          </a>
         </g>
        </svg>
</svg>
