<?xml version="1.0" encoding="UTF-8" standalone="no"?>
<!DOCTYPE svg PUBLIC "-//W3C//DTD SVG 1.1//EN"
 "http://www.w3.org/Graphics/SVG/1.1/DTD/svg11.dtd">
<!-- Generated by graphviz version 2.43.0 (0)
 -->
<!-- Title: ConstantTimeStringCompare Pages: 1 -->
<!--zoomable 382 -->
<svg id="main" version="1.1" xmlns="http://www.w3.org/2000/svg" xmlns:xlink="http://www.w3.org/1999/xlink" xml:space="preserve" onload="init(evt)">
<style type="text/css"><![CDATA[
.edge:hover path { stroke: red; }
.edge:hover polygon { stroke: red; fill: red; }
]]></style>
<script type="text/javascript"><![CDATA[
var edges = document.getElementsByTagName('g');
if (edges && edges.length) {
  for (var i=0;i<edges.length;i++) {
    if (edges[i].id.substr(0,4)=='edge') {
      edges[i].setAttribute('class','edge');
    }
  }
}
]]></script>
        <defs>
                <circle id="rim" cx="0" cy="0" r="7"/>
                <circle id="rim2" cx="0" cy="0" r="3.5"/>
                <g id="zoomPlus">
                        <use xlink:href="#rim" fill="#404040">
                                <set attributeName="fill" to="#808080" begin="zoomplus.mouseover" end="zoomplus.mouseout"/>
                        </use>
                        <path d="M-4,0h8M0,-4v8" fill="none" stroke="white" stroke-width="1.5" pointer-events="none"/>
                </g>
                <g id="zoomMin">
                        <use xlink:href="#rim" fill="#404040">
                                <set attributeName="fill" to="#808080" begin="zoomminus.mouseover" end="zoomminus.mouseout"/>
                        </use>
                        <path d="M-4,0h8" fill="none" stroke="white" stroke-width="1.5" pointer-events="none"/>
                </g>
                <g id="dirArrow">
                        <path fill="none" stroke="white" stroke-width="1.5" d="M0,-3.0v7 M-2.5,-0.5L0,-3.0L2.5,-0.5"/>
                </g>
               <g id="resetDef">
                       <use xlink:href="#rim2" fill="#404040">
                               <set attributeName="fill" to="#808080" begin="reset.mouseover" end="reset.mouseout"/>
                       </use>
               </g>
        </defs>

<script type="text/javascript">
var viewWidth = 785;
var viewHeight = 382;
var sectionId = 'dynsection-1';
</script>
<script xlink:href="svgpan.js"/>
<svg id="graph" class="graph">
<g id="viewport">
<title>ConstantTimeStringCompare</title>
<!-- Node1 -->
<g id="node1" class="node">
<title>Node1</title>
<g id="a_node1"><a xlink:title=" ">
<polygon fill="#bfbfbf" stroke="black" points="619,-103 619,-122 777,-122 777,-103 619,-103"/>
<text text-anchor="middle" x="698" y="-110" font-family="Helvetica,sans-Serif" font-size="10.00">ConstantTimeStringCompare</text>
</a>
</g>
</g>
<!-- Node2 -->
<g id="node2" class="node">
<title>Node2</title>
<g id="a_node2"><a xlink:href="Token_8cc.html#a9bdf5a1f3fa36deef988a7294f9f85b1" target="_top" xlink:title="Validate an HTTP request.">
<polygon fill="none" stroke="black" points="476,-103 476,-122 583,-122 583,-103 476,-103"/>
<text text-anchor="middle" x="529.5" y="-110" font-family="Helvetica,sans-Serif" font-size="10.00">ValidateAuthToken</text>
</a>
</g>
</g>
<!-- Node1&#45;&gt;Node2 -->
<g id="edge1" class="edge">
<title>Node1&#45;&gt;Node2</title>
<path fill="none" stroke="midnightblue" d="M608.51,-112.5C599.9,-112.5 591.37,-112.5 583.29,-112.5"/>
<polygon fill="midnightblue" stroke="midnightblue" points="608.63,-116 618.63,-112.5 608.63,-109 608.63,-116"/>
</g>
<!-- Node3 -->
<g id="node3" class="node">
<title>Node3</title>
<g id="a_node3"><a xlink:href="classcarta_1_1HttpServer.html#af169f00ad63df4365dabaff24daf8a38" target="_top" xlink:title=" ">
<polygon fill="none" stroke="black" points="323,-171.5 323,-201.5 429,-201.5 429,-171.5 323,-171.5"/>
<text text-anchor="start" x="331" y="-189.5" font-family="Helvetica,sans-Serif" font-size="10.00">carta::HttpServer::</text>
<text text-anchor="middle" x="376" y="-178.5" font-family="Helvetica,sans-Serif" font-size="10.00">IsAuthenticated</text>
</a>
</g>
</g>
<!-- Node2&#45;&gt;Node3 -->
<g id="edge2" class="edge">
<title>Node2&#45;&gt;Node3</title>
<path fill="none" stroke="midnightblue" d="M499.95,-126.44C473.73,-139.25 434.95,-158.2 407.98,-171.37"/>
<polygon fill="midnightblue" stroke="midnightblue" points="501.55,-129.56 509,-122.02 498.48,-123.27 501.55,-129.56"/>
</g>
<!-- Node12 -->
<g id="node12" class="node">
<title>Node12</title>
<g id="a_node12"><a xlink:href="classcarta_1_1SessionManager.html#a3b33c1d0f82ffefade16372d54c7f236" target="_top" xlink:title=" ">
<polygon fill="none" stroke="black" points="312,-73.5 312,-103.5 440,-103.5 440,-73.5 312,-73.5"/>
<text text-anchor="start" x="320" y="-91.5" font-family="Helvetica,sans-Serif" font-size="10.00">carta::SessionManager</text>
<text text-anchor="middle" x="376" y="-80.5" font-family="Helvetica,sans-Serif" font-size="10.00">::OnUpgrade</text>
</a>
</g>
</g>
<!-- Node2&#45;&gt;Node12 -->
<g id="edge17" class="edge">
<title>Node2&#45;&gt;Node12</title>
<path fill="none" stroke="midnightblue" d="M466.04,-102.61C457.5,-101.25 448.72,-99.86 440.16,-98.51"/>
<polygon fill="midnightblue" stroke="midnightblue" points="465.51,-106.07 475.94,-104.17 466.61,-99.15 465.51,-106.07"/>
</g>
<!-- Node4 -->
<g id="node4" class="node">
<title>Node4</title>
<g id="a_node4"><a xlink:href="classcarta_1_1HttpServer.html#aef99e62efe9a7250f3f0a867d114f426" target="_top" xlink:title=" ">
<polygon fill="none" stroke="black" points="155,-343.5 155,-373.5 263,-373.5 263,-343.5 155,-343.5"/>
<text text-anchor="start" x="163" y="-361.5" font-family="Helvetica,sans-Serif" font-size="10.00">carta::HttpServer::</text>
<text text-anchor="middle" x="209" y="-350.5" font-family="Helvetica,sans-Serif" font-size="10.00">HandleClearObject</text>
</a>
</g>
</g>
<!-- Node3&#45;&gt;Node4 -->
<g id="edge3" class="edge">
<title>Node3&#45;&gt;Node4</title>
<path fill="none" stroke="midnightblue" d="M364.53,-211.09C349.49,-243.69 318.77,-300.96 276,-334.5 271.68,-337.89 266.84,-340.82 261.8,-343.36"/>
<polygon fill="midnightblue" stroke="midnightblue" points="367.79,-212.38 368.7,-201.83 361.41,-209.51 367.79,-212.38"/>
</g>
<!-- Node6 -->
<g id="node6" class="node">
<title>Node6</title>
<g id="a_node6"><a xlink:href="classcarta_1_1HttpServer.html#a45673f54c55bb8e02fbacf5fb3340f93" target="_top" xlink:title=" ">
<polygon fill="none" stroke="black" points="142,-294.5 142,-324.5 276,-324.5 276,-294.5 142,-294.5"/>
<text text-anchor="start" x="150" y="-312.5" font-family="Helvetica,sans-Serif" font-size="10.00">carta::HttpServer::</text>
<text text-anchor="middle" x="209" y="-301.5" font-family="Helvetica,sans-Serif" font-size="10.00">HandleClearPreferences</text>
</a>
</g>
</g>
<!-- Node3&#45;&gt;Node6 -->
<g id="edge5" class="edge">
<title>Node3&#45;&gt;Node6</title>
<path fill="none" stroke="midnightblue" d="M357.08,-209.54C338.79,-231.69 308.54,-264.78 276,-285.5 270.76,-288.84 264.98,-291.8 259.1,-294.4"/>
<polygon fill="midnightblue" stroke="midnightblue" points="359.9,-211.61 363.48,-201.64 354.46,-207.21 359.9,-211.61"/>
</g>
<!-- Node7 -->
<g id="node7" class="node">
<title>Node7</title>
<g id="a_node7"><a xlink:href="classcarta_1_1HttpServer.html#a94f3006427469ddabb14f8dce474b4fc" target="_top" xlink:title=" ">
<polygon fill="none" stroke="black" points="156,-245.5 156,-275.5 262,-275.5 262,-245.5 156,-245.5"/>
<text text-anchor="start" x="164" y="-263.5" font-family="Helvetica,sans-Serif" font-size="10.00">carta::HttpServer::</text>
<text text-anchor="middle" x="209" y="-252.5" font-family="Helvetica,sans-Serif" font-size="10.00">HandleGetObjects</text>
</a>
</g>
</g>
<!-- Node3&#45;&gt;Node7 -->
<g id="edge7" class="edge">
<title>Node3&#45;&gt;Node7</title>
<path fill="none" stroke="midnightblue" d="M338.32,-206.34C319.87,-215.98 297.01,-227.41 276,-236.5 268.84,-239.6 261.13,-242.65 253.6,-245.48"/>
<polygon fill="midnightblue" stroke="midnightblue" points="340.04,-209.38 347.26,-201.63 336.78,-203.19 340.04,-209.38"/>
</g>
<!-- Node8 -->
<g id="node8" class="node">
<title>Node8</title>
<g id="a_node8"><a xlink:href="classcarta_1_1HttpServer.html#a1e384962e1f326c9226477361c9c6e90" target="_top" xlink:title=" ">
<polygon fill="none" stroke="black" points="146,-196.5 146,-226.5 272,-226.5 272,-196.5 146,-196.5"/>
<text text-anchor="start" x="154" y="-214.5" font-family="Helvetica,sans-Serif" font-size="10.00">carta::HttpServer::</text>
<text text-anchor="middle" x="209" y="-203.5" font-family="Helvetica,sans-Serif" font-size="10.00">HandleGetPreferences</text>
</a>
</g>
</g>
<!-- Node3&#45;&gt;Node8 -->
<g id="edge9" class="edge">
<title>Node3&#45;&gt;Node8</title>
<path fill="none" stroke="midnightblue" d="M312.82,-195.92C299.55,-197.93 285.53,-200.06 272.26,-202.07"/>
<polygon fill="midnightblue" stroke="midnightblue" points="313.43,-199.37 322.79,-194.41 312.38,-192.45 313.43,-199.37"/>
</g>
<!-- Node9 -->
<g id="node9" class="node">
<title>Node9</title>
<g id="a_node9"><a xlink:href="classcarta_1_1HttpServer.html#a412683874c457522cd4df4dc960ab4e2" target="_top" xlink:title=" ">
<polygon fill="none" stroke="black" points="146.5,-147.5 146.5,-177.5 271.5,-177.5 271.5,-147.5 146.5,-147.5"/>
<text text-anchor="start" x="154.5" y="-165.5" font-family="Helvetica,sans-Serif" font-size="10.00">carta::HttpServer::</text>
<text text-anchor="middle" x="209" y="-154.5" font-family="Helvetica,sans-Serif" font-size="10.00">HandleScriptingAction</text>
</a>
</g>
</g>
<!-- Node3&#45;&gt;Node9 -->
<g id="edge11" class="edge">
<title>Node3&#45;&gt;Node9</title>
<path fill="none" stroke="midnightblue" d="M312.7,-177.44C299.27,-175.48 285.08,-173.42 271.67,-171.47"/>
<polygon fill="midnightblue" stroke="midnightblue" points="312.39,-180.93 322.79,-178.91 313.4,-174 312.39,-180.93"/>
</g>
<!-- Node10 -->
<g id="node10" class="node">
<title>Node10</title>
<g id="a_node10"><a xlink:href="classcarta_1_1HttpServer.html#a5a834bd534d12e1e534098fa2e10bc33" target="_top" xlink:title=" ">
<polygon fill="none" stroke="black" points="156,-98.5 156,-128.5 262,-128.5 262,-98.5 156,-98.5"/>
<text text-anchor="start" x="164" y="-116.5" font-family="Helvetica,sans-Serif" font-size="10.00">carta::HttpServer::</text>
<text text-anchor="middle" x="209" y="-105.5" font-family="Helvetica,sans-Serif" font-size="10.00">HandleSetObject</text>
</a>
</g>
</g>
<!-- Node3&#45;&gt;Node10 -->
<g id="edge13" class="edge">
<title>Node3&#45;&gt;Node10</title>
<path fill="none" stroke="midnightblue" d="M336.33,-166.76C318.19,-157.75 296.17,-147.19 276,-138.5 268.12,-135.11 259.62,-131.7 251.42,-128.54"/>
<polygon fill="midnightblue" stroke="midnightblue" points="334.92,-169.97 345.43,-171.3 338.05,-163.7 334.92,-169.97"/>
</g>
<!-- Node11 -->
<g id="node11" class="node">
<title>Node11</title>
<g id="a_node11"><a xlink:href="classcarta_1_1HttpServer.html#ac68951fe0785a7f62d39420c8f628533" target="_top" xlink:title=" ">
<polygon fill="none" stroke="black" points="146.5,-49.5 146.5,-79.5 271.5,-79.5 271.5,-49.5 146.5,-49.5"/>
<text text-anchor="start" x="154.5" y="-67.5" font-family="Helvetica,sans-Serif" font-size="10.00">carta::HttpServer::</text>
<text text-anchor="middle" x="209" y="-56.5" font-family="Helvetica,sans-Serif" font-size="10.00">HandleSetPreferences</text>
</a>
</g>
</g>
<!-- Node3&#45;&gt;Node11 -->
<g id="edge15" class="edge">
<title>Node3&#45;&gt;Node11</title>
<path fill="none" stroke="midnightblue" d="M356.61,-163.67C338.18,-142.06 308,-109.95 276,-89.5 270.11,-85.74 263.58,-82.41 256.97,-79.52"/>
<polygon fill="midnightblue" stroke="midnightblue" points="353.98,-165.98 363.08,-171.4 359.34,-161.48 353.98,-165.98"/>
</g>
<!-- Node5 -->
<g id="node5" class="node">
<title>Node5</title>
<g id="a_node5"><a xlink:href="classcarta_1_1HttpServer.html#a63128482ebdede9e4da3e24fd4bf0c7e" target="_top" xlink:title=" ">
<polygon fill="none" stroke="black" points="0,-196.5 0,-226.5 106,-226.5 106,-196.5 0,-196.5"/>
<text text-anchor="start" x="8" y="-214.5" font-family="Helvetica,sans-Serif" font-size="10.00">carta::HttpServer::</text>
<text text-anchor="middle" x="53" y="-203.5" font-family="Helvetica,sans-Serif" font-size="10.00">RegisterRoutes</text>
</a>
</g>
</g>
<!-- Node4&#45;&gt;Node5 -->
<g id="edge4" class="edge">
<title>Node4&#45;&gt;Node5</title>
<path fill="none" stroke="midnightblue" d="M147.68,-338.42C145.72,-337.18 143.81,-335.88 142,-334.5 102.68,-304.66 73.65,-252.31 61.01,-226.61"/>
<polygon fill="midnightblue" stroke="midnightblue" points="146.2,-341.6 156.65,-343.39 149.6,-335.48 146.2,-341.6"/>
</g>
<!-- Node6&#45;&gt;Node5 -->
<g id="edge6" class="edge">
<title>Node6&#45;&gt;Node5</title>
<path fill="none" stroke="midnightblue" d="M150.89,-290.2C147.83,-288.71 144.85,-287.15 142,-285.5 113.48,-269.02 85.17,-243.04 68.64,-226.66"/>
<polygon fill="midnightblue" stroke="midnightblue" points="149.66,-293.49 160.22,-294.41 152.54,-287.1 149.66,-293.49"/>
</g>
<!-- Node7&#45;&gt;Node5 -->
<g id="edge8" class="edge">
<title>Node7&#45;&gt;Node5</title>
<path fill="none" stroke="midnightblue" d="M150.61,-242.24C134.37,-237.07 116.88,-231.51 101.3,-226.55"/>
<polygon fill="midnightblue" stroke="midnightblue" points="149.95,-245.7 160.54,-245.4 152.07,-239.03 149.95,-245.7"/>
</g>
<!-- Node8&#45;&gt;Node5 -->
<g id="edge10" class="edge">
<title>Node8&#45;&gt;Node5</title>
<path fill="none" stroke="midnightblue" d="M135.51,-211.5C125.57,-211.5 115.53,-211.5 106.06,-211.5"/>
<polygon fill="midnightblue" stroke="midnightblue" points="135.81,-215 145.81,-211.5 135.81,-208 135.81,-215"/>
</g>
<!-- Node9&#45;&gt;Node5 -->
<g id="edge12" class="edge">
<title>Node9&#45;&gt;Node5</title>
<path fill="none" stroke="midnightblue" d="M150.61,-180.76C134.37,-185.93 116.88,-191.49 101.3,-196.45"/>
<polygon fill="midnightblue" stroke="midnightblue" points="152.07,-183.97 160.54,-177.6 149.95,-177.3 152.07,-183.97"/>
</g>
<!-- Node10&#45;&gt;Node5 -->
<g id="edge14" class="edge">
<title>Node10&#45;&gt;Node5</title>
<path fill="none" stroke="midnightblue" d="M153.22,-132.61C149.35,-134.45 145.57,-136.42 142,-138.5 113.87,-154.88 85.66,-180.23 69.03,-196.34"/>
<polygon fill="midnightblue" stroke="midnightblue" points="154.65,-135.8 162.35,-128.52 151.79,-129.41 154.65,-135.8"/>
</g>
<!-- Node11&#45;&gt;Node5 -->
<g id="edge16" class="edge">
<title>Node11&#45;&gt;Node5</title>
<path fill="none" stroke="midnightblue" d="M149.35,-84.49C146.79,-86.05 144.32,-87.72 142,-89.5 103.24,-119.21 74.15,-170.61 61.29,-196.16"/>
<polygon fill="midnightblue" stroke="midnightblue" points="151.24,-87.45 158.36,-79.61 147.9,-81.3 151.24,-87.45"/>
</g>
<!-- Node13 -->
<g id="node13" class="node">
<title>Node13</title>
<g id="a_node13"><a xlink:href="classcarta_1_1SessionManager.html#ab4e4e7f0244bd6843e70ab91652debf6" target="_top" xlink:title=" ">
<polygon fill="none" stroke="black" points="145,-0.5 145,-30.5 273,-30.5 273,-0.5 145,-0.5"/>
<text text-anchor="start" x="153" y="-18.5" font-family="Helvetica,sans-Serif" font-size="10.00">carta::SessionManager</text>
<text text-anchor="middle" x="209" y="-7.5" font-family="Helvetica,sans-Serif" font-size="10.00">::RunApp</text>
</a>
</g>
</g>
<!-- Node12&#45;&gt;Node13 -->
<g id="edge18" class="edge">
<title>Node12&#45;&gt;Node13</title>
<path fill="none" stroke="midnightblue" d="M337.87,-68.91C319.49,-59.52 296.82,-48.4 276,-39.5 268.83,-36.43 261.11,-33.4 253.58,-30.57"/>
<polygon fill="midnightblue" stroke="midnightblue" points="336.31,-72.03 346.8,-73.5 339.51,-65.81 336.31,-72.03"/>
</g>
</g>
</svg>
        <g id="navigator" transform="translate(0 0)" fill="#404254">
                <rect fill="#f2f5e9" fill-opacity="0.5" stroke="#606060" stroke-width=".5" x="0" y="0" width="60" height="60"/>
                <use id="zoomplus" xlink:href="#zoomPlus" x="17" y="9" onmousedown="handleZoom(evt,'in')"/>
                <use id="zoomminus" xlink:href="#zoomMin" x="42" y="9" onmousedown="handleZoom(evt,'out')"/>
                <use id="reset" xlink:href="#resetDef" x="30" y="36" onmousedown="handleReset()"/>
                <g id="arrowUp" xlink:href="#dirArrow" transform="translate(30 24)" onmousedown="handlePan(0,-1)">
                  <use xlink:href="#rim" fill="#404040">
                        <set attributeName="fill" to="#808080" begin="arrowUp.mouseover" end="arrowUp.mouseout"/>
                  </use>
                  <path fill="none" stroke="white" stroke-width="1.5" d="M0,-3.0v7 M-2.5,-0.5L0,-3.0L2.5,-0.5"/>
                </g>
                <g id="arrowRight" xlink:href="#dirArrow" transform="rotate(90) translate(36 -43)" onmousedown="handlePan(1,0)">
                  <use xlink:href="#rim" fill="#404040">
                        <set attributeName="fill" to="#808080" begin="arrowRight.mouseover" end="arrowRight.mouseout"/>
                  </use>
                  <path fill="none" stroke="white" stroke-width="1.5" d="M0,-3.0v7 M-2.5,-0.5L0,-3.0L2.5,-0.5"/>
                </g>
                <g id="arrowDown" xlink:href="#dirArrow" transform="rotate(180) translate(-30 -48)" onmousedown="handlePan(0,1)">
                  <use xlink:href="#rim" fill="#404040">
                        <set attributeName="fill" to="#808080" begin="arrowDown.mouseover" end="arrowDown.mouseout"/>
                  </use>
                  <path fill="none" stroke="white" stroke-width="1.5" d="M0,-3.0v7 M-2.5,-0.5L0,-3.0L2.5,-0.5"/>
                </g>
                <g id="arrowLeft" xlink:href="#dirArrow" transform="rotate(270) translate(-36 17)" onmousedown="handlePan(-1,0)">
                  <use xlink:href="#rim" fill="#404040">
                        <set attributeName="fill" to="#808080" begin="arrowLeft.mouseover" end="arrowLeft.mouseout"/>
                  </use>
                  <path fill="none" stroke="white" stroke-width="1.5" d="M0,-3.0v7 M-2.5,-0.5L0,-3.0L2.5,-0.5"/>
                </g>
        </g>
        <svg viewBox="0 0 15 15" width="100%" height="30px" preserveAspectRatio="xMaxYMin meet">
         <g id="arrow_out" transform="scale(0.3 0.3)">
          <a xlink:href="String_8cc_ac6e67fbe6974b4438e7f60fa751d5e75_icgraph_org.svg" target="_base">
           <rect id="button" ry="5" rx="5" y="6" x="6" height="38" width="38"
                fill="#f2f5e9" fill-opacity="0.5" stroke="#606060" stroke-width="1.0"/>
           <path id="arrow"
             d="M 11.500037,31.436501 C 11.940474,20.09759 22.043105,11.32322 32.158766,21.979434 L 37.068811,17.246167 C 37.068811,17.246167 37.088388,32 37.088388,32 L 22.160133,31.978069 C 22.160133,31.978069 26.997745,27.140456 26.997745,27.140456 C 18.528582,18.264221 13.291696,25.230495 11.500037,31.436501 z"
             style="fill:#404040;"/>
          </a>
         </g>
        </svg>
</svg>
