<?xml version="1.0" encoding="UTF-8" standalone="no"?>
<!DOCTYPE svg PUBLIC "-//W3C//DTD SVG 1.1//EN"
 "http://www.w3.org/Graphics/SVG/1.1/DTD/svg11.dtd">
<!-- Generated by graphviz version 2.43.0 (0)
 -->
<!-- Title: HasSuffix Pages: 1 -->
<!--zoomable 527 -->
<svg id="main" version="1.1" xmlns="http://www.w3.org/2000/svg" xmlns:xlink="http://www.w3.org/1999/xlink" xml:space="preserve" onload="init(evt)">
<style type="text/css"><![CDATA[
.edge:hover path { stroke: red; }
.edge:hover polygon { stroke: red; fill: red; }
]]></style>
<script type="text/javascript"><![CDATA[
var edges = document.getElementsByTagName('g');
if (edges && edges.length) {
  for (var i=0;i<edges.length;i++) {
    if (edges[i].id.substr(0,4)=='edge') {
      edges[i].setAttribute('class','edge');
    }
  }
}
]]></script>
        <defs>
                <circle id="rim" cx="0" cy="0" r="7"/>
                <circle id="rim2" cx="0" cy="0" r="3.5"/>
                <g id="zoomPlus">
                        <use xlink:href="#rim" fill="#404040">
                                <set attributeName="fill" to="#808080" begin="zoomplus.mouseover" end="zoomplus.mouseout"/>
                        </use>
                        <path d="M-4,0h8M0,-4v8" fill="none" stroke="white" stroke-width="1.5" pointer-events="none"/>
                </g>
                <g id="zoomMin">
                        <use xlink:href="#rim" fill="#404040">
                                <set attributeName="fill" to="#808080" begin="zoomminus.mouseover" end="zoomminus.mouseout"/>
                        </use>
                        <path d="M-4,0h8" fill="none" stroke="white" stroke-width="1.5" pointer-events="none"/>
                </g>
                <g id="dirArrow">
                        <path fill="none" stroke="white" stroke-width="1.5" d="M0,-3.0v7 M-2.5,-0.5L0,-3.0L2.5,-0.5"/>
                </g>
               <g id="resetDef">
                       <use xlink:href="#rim2" fill="#404040">
                               <set attributeName="fill" to="#808080" begin="reset.mouseover" end="reset.mouseout"/>
                       </use>
               </g>
        </defs>

<script type="text/javascript">
var viewWidth = 1645;
var viewHeight = 527;
var sectionId = 'dynsection-2';
</script>
<script xlink:href="svgpan.js"/>
<svg id="graph" class="graph">
<g id="viewport">
<title>HasSuffix</title>
<!-- Node1 -->
<g id="node1" class="node">
<title>Node1</title>
<g id="a_node1"><a xlink:title=" ">
<polygon fill="#bfbfbf" stroke="black" points="1574,-388 1574,-407 1637,-407 1637,-388 1574,-388"/>
<text text-anchor="middle" x="1605.5" y="-395" font-family="Helvetica,sans-Serif" font-size="10.00">HasSuffix</text>
</a>
</g>
</g>
<!-- Node2 -->
<g id="node2" class="node">
<title>Node2</title>
<g id="a_node2"><a xlink:href="File_8cc.html#a60e903fd2ab0ea7b240f649d3d207339" target="_top" xlink:title=" ">
<polygon fill="none" stroke="black" points="1436.5,-406 1436.5,-425 1536.5,-425 1536.5,-406 1436.5,-406"/>
<text text-anchor="middle" x="1486.5" y="-413" font-family="Helvetica,sans-Serif" font-size="10.00">GuessImageType</text>
</a>
</g>
</g>
<!-- Node1&#45;&gt;Node2 -->
<g id="edge1" class="edge">
<title>Node1&#45;&gt;Node2</title>
<path fill="none" stroke="midnightblue" d="M1563.78,-403.76C1555.01,-405.11 1545.64,-406.55 1536.59,-407.95"/>
<polygon fill="midnightblue" stroke="midnightblue" points="1564.41,-407.21 1573.76,-402.23 1563.34,-400.29 1564.41,-407.21"/>
</g>
<!-- Node6 -->
<g id="node6" class="node">
<title>Node6</title>
<g id="a_node6"><a xlink:href="File_8cc.html#af9947f7bb03abff3412672068ab7acdf" target="_top" xlink:title=" ">
<polygon fill="none" stroke="black" points="1435,-447 1435,-466 1538,-466 1538,-447 1435,-447"/>
<text text-anchor="middle" x="1486.5" y="-454" font-family="Helvetica,sans-Serif" font-size="10.00">GuessRegionType</text>
</a>
</g>
</g>
<!-- Node1&#45;&gt;Node6 -->
<g id="edge5" class="edge">
<title>Node1&#45;&gt;Node6</title>
<path fill="none" stroke="midnightblue" d="M1579.52,-412.15C1567.18,-419.2 1551.97,-427.59 1538,-434.5 1529.17,-438.87 1519.27,-443.28 1510.59,-447"/>
<polygon fill="midnightblue" stroke="midnightblue" points="1581.42,-415.1 1588.34,-407.07 1577.93,-409.03 1581.42,-415.1"/>
</g>
<!-- Node9 -->
<g id="node9" class="node">
<title>Node9</title>
<g id="a_node9"><a xlink:href="File_8cc.html#ab867a11df63f2ba00cae668a8ad0f3ff" target="_top" xlink:title=" ">
<polygon fill="none" stroke="black" points="1439,-366 1439,-385 1534,-385 1534,-366 1439,-366"/>
<text text-anchor="middle" x="1486.5" y="-373" font-family="Helvetica,sans-Serif" font-size="10.00">GuessTableType</text>
</a>
</g>
</g>
<!-- Node1&#45;&gt;Node9 -->
<g id="edge10" class="edge">
<title>Node1&#45;&gt;Node9</title>
<path fill="none" stroke="midnightblue" d="M1563.78,-389.84C1554.28,-388.06 1544.09,-386.14 1534.35,-384.31"/>
<polygon fill="midnightblue" stroke="midnightblue" points="1563.29,-393.31 1573.76,-391.72 1564.58,-386.43 1563.29,-393.31"/>
</g>
<!-- Node11 -->
<g id="node11" class="node">
<title>Node11</title>
<g id="a_node11"><a xlink:href="File_8cc.html#a75f8a4cb14c9fca8730255b6fee82794" target="_top" xlink:title=" ">
<polygon fill="none" stroke="black" points="1435,-255 1435,-274 1538,-274 1538,-255 1435,-255"/>
<text text-anchor="middle" x="1486.5" y="-262" font-family="Helvetica,sans-Serif" font-size="10.00">IsCompressedFits</text>
</a>
</g>
</g>
<!-- Node1&#45;&gt;Node11 -->
<g id="edge12" class="edge">
<title>Node1&#45;&gt;Node11</title>
<path fill="none" stroke="midnightblue" d="M1589.17,-380.08C1564.28,-351.78 1515.86,-296.74 1496.15,-274.34"/>
<polygon fill="midnightblue" stroke="midnightblue" points="1586.85,-382.74 1596.09,-387.93 1592.11,-378.11 1586.85,-382.74"/>
</g>
<!-- Node3 -->
<g id="node3" class="node">
<title>Node3</title>
<g id="a_node3"><a xlink:href="classcarta_1_1FileListHandler.html#a1c0729f201216e2ee578126c9fa49f41" target="_top" xlink:title=" ">
<polygon fill="none" stroke="black" points="1106,-439.5 1106,-469.5 1226,-469.5 1226,-439.5 1106,-439.5"/>
<text text-anchor="start" x="1114" y="-457.5" font-family="Helvetica,sans-Serif" font-size="10.00">carta::FileListHandler</text>
<text text-anchor="middle" x="1166" y="-446.5" font-family="Helvetica,sans-Serif" font-size="10.00">::GetFileList</text>
</a>
</g>
</g>
<!-- Node2&#45;&gt;Node3 -->
<g id="edge2" class="edge">
<title>Node2&#45;&gt;Node3</title>
<path fill="none" stroke="midnightblue" d="M1426.47,-422.73C1369.37,-429.72 1283.3,-440.26 1226.15,-447.26"/>
<polygon fill="midnightblue" stroke="midnightblue" points="1426.93,-426.2 1436.43,-421.51 1426.08,-419.25 1426.93,-426.2"/>
</g>
<!-- Node4 -->
<g id="node4" class="node">
<title>Node4</title>
<g id="a_node4"><a xlink:href="classcarta_1_1FileListHandler.html#a91a3c3b56d4f7c53b6f20026bab0390c" target="_top" xlink:title=" ">
<polygon fill="none" stroke="black" points="918,-463.5 918,-493.5 1038,-493.5 1038,-463.5 918,-463.5"/>
<text text-anchor="start" x="926" y="-481.5" font-family="Helvetica,sans-Serif" font-size="10.00">carta::FileListHandler</text>
<text text-anchor="middle" x="978" y="-470.5" font-family="Helvetica,sans-Serif" font-size="10.00">::OnFileListRequest</text>
</a>
</g>
</g>
<!-- Node3&#45;&gt;Node4 -->
<g id="edge3" class="edge">
<title>Node3&#45;&gt;Node4</title>
<path fill="none" stroke="midnightblue" d="M1095.85,-463.42C1076.92,-465.86 1056.59,-468.49 1038.27,-470.85"/>
<polygon fill="midnightblue" stroke="midnightblue" points="1096.42,-466.88 1105.89,-462.13 1095.53,-459.94 1096.42,-466.88"/>
</g>
<!-- Node5 -->
<g id="node5" class="node">
<title>Node5</title>
<g id="a_node5"><a xlink:href="classcarta_1_1FileListHandler.html#a71b0e5293a630376d925b100876c3726" target="_top" xlink:title=" ">
<polygon fill="none" stroke="black" points="914.5,-414.5 914.5,-444.5 1041.5,-444.5 1041.5,-414.5 914.5,-414.5"/>
<text text-anchor="start" x="922.5" y="-432.5" font-family="Helvetica,sans-Serif" font-size="10.00">carta::FileListHandler</text>
<text text-anchor="middle" x="978" y="-421.5" font-family="Helvetica,sans-Serif" font-size="10.00">::OnRegionListRequest</text>
</a>
</g>
</g>
<!-- Node3&#45;&gt;Node5 -->
<g id="edge4" class="edge">
<title>Node3&#45;&gt;Node5</title>
<path fill="none" stroke="midnightblue" d="M1095.66,-445.18C1078,-442.81 1059.12,-440.27 1041.81,-437.94"/>
<polygon fill="midnightblue" stroke="midnightblue" points="1095.52,-448.69 1105.89,-446.56 1096.45,-441.75 1095.52,-448.69"/>
</g>
<!-- Node6&#45;&gt;Node3 -->
<g id="edge9" class="edge">
<title>Node6&#45;&gt;Node3</title>
<path fill="none" stroke="midnightblue" d="M1424.35,-456.12C1367.21,-455.76 1282.47,-455.23 1226.03,-454.87"/>
<polygon fill="midnightblue" stroke="midnightblue" points="1424.66,-459.62 1434.68,-456.18 1424.7,-452.62 1424.66,-459.62"/>
</g>
<!-- Node7 -->
<g id="node7" class="node">
<title>Node7</title>
<g id="a_node7"><a xlink:href="classcarta_1_1FileListHandler.html#a7f4f8c5ad7eb30ad51a712446752283d" target="_top" xlink:title=" ">
<polygon fill="none" stroke="black" points="1278.5,-485.5 1278.5,-515.5 1398.5,-515.5 1398.5,-485.5 1278.5,-485.5"/>
<text text-anchor="start" x="1286.5" y="-503.5" font-family="Helvetica,sans-Serif" font-size="10.00">carta::FileListHandler</text>
<text text-anchor="middle" x="1338.5" y="-492.5" font-family="Helvetica,sans-Serif" font-size="10.00">::FillRegionFileInfo</text>
</a>
</g>
</g>
<!-- Node6&#45;&gt;Node7 -->
<g id="edge6" class="edge">
<title>Node6&#45;&gt;Node7</title>
<path fill="none" stroke="midnightblue" d="M1444.17,-468.96C1427.16,-474.08 1407.31,-480.06 1389.49,-485.43"/>
<polygon fill="midnightblue" stroke="midnightblue" points="1445.26,-472.28 1453.82,-466.05 1443.24,-465.58 1445.26,-472.28"/>
</g>
<!-- Node7&#45;&gt;Node3 -->
<g id="edge7" class="edge">
<title>Node7&#45;&gt;Node3</title>
<path fill="none" stroke="midnightblue" d="M1271.73,-482.76C1255.53,-478.39 1238.33,-473.75 1222.66,-469.52"/>
<polygon fill="midnightblue" stroke="midnightblue" points="1271.11,-486.21 1281.67,-485.44 1272.93,-479.45 1271.11,-486.21"/>
</g>
<!-- Node8 -->
<g id="node8" class="node">
<title>Node8</title>
<g id="a_node8"><a xlink:href="classcarta_1_1FileListHandler.html#a7f1d1a2c921279b0cc7af20f00ea4acb" target="_top" xlink:title=" ">
<polygon fill="none" stroke="black" points="1093,-488.5 1093,-518.5 1239,-518.5 1239,-488.5 1093,-488.5"/>
<text text-anchor="start" x="1101" y="-506.5" font-family="Helvetica,sans-Serif" font-size="10.00">carta::FileListHandler</text>
<text text-anchor="middle" x="1166" y="-495.5" font-family="Helvetica,sans-Serif" font-size="10.00">::OnRegionFileInfoRequest</text>
</a>
</g>
</g>
<!-- Node7&#45;&gt;Node8 -->
<g id="edge8" class="edge">
<title>Node7&#45;&gt;Node8</title>
<path fill="none" stroke="midnightblue" d="M1268.15,-501.72C1258.63,-501.89 1248.84,-502.06 1239.28,-502.23"/>
<polygon fill="midnightblue" stroke="midnightblue" points="1268.41,-505.22 1278.35,-501.54 1268.29,-498.22 1268.41,-505.22"/>
</g>
<!-- Node10 -->
<g id="node10" class="node">
<title>Node10</title>
<g id="a_node10"><a xlink:href="classcarta_1_1TableController.html#a429ef193778c7d7ece134f68e0f465e3" target="_top" xlink:title=" ">
<polygon fill="none" stroke="black" points="1278,-359.5 1278,-389.5 1399,-389.5 1399,-359.5 1278,-359.5"/>
<text text-anchor="start" x="1286" y="-377.5" font-family="Helvetica,sans-Serif" font-size="10.00">carta::TableController</text>
<text text-anchor="middle" x="1338.5" y="-366.5" font-family="Helvetica,sans-Serif" font-size="10.00">::OnFileListRequest</text>
</a>
</g>
</g>
<!-- Node9&#45;&gt;Node10 -->
<g id="edge11" class="edge">
<title>Node9&#45;&gt;Node10</title>
<path fill="none" stroke="midnightblue" d="M1428.88,-375.11C1419.09,-375.05 1408.88,-374.98 1399.01,-374.91"/>
<polygon fill="midnightblue" stroke="midnightblue" points="1428.88,-378.61 1438.9,-375.18 1428.93,-371.61 1428.88,-378.61"/>
</g>
<!-- Node12 -->
<g id="node12" class="node">
<title>Node12</title>
<g id="a_node12"><a xlink:href="classcarta_1_1Session.html#a69d1ec0dfd2c518a8b4cdf56fa57b0b0" target="_top" xlink:title=" ">
<polygon fill="none" stroke="black" points="1090.5,-318.5 1090.5,-348.5 1241.5,-348.5 1241.5,-318.5 1090.5,-318.5"/>
<text text-anchor="start" x="1098.5" y="-336.5" font-family="Helvetica,sans-Serif" font-size="10.00">carta::Session::FillExtended</text>
<text text-anchor="middle" x="1166" y="-325.5" font-family="Helvetica,sans-Serif" font-size="10.00">FileInfo</text>
</a>
</g>
</g>
<!-- Node11&#45;&gt;Node12 -->
<g id="edge13" class="edge">
<title>Node11&#45;&gt;Node12</title>
<path fill="none" stroke="midnightblue" d="M1463.34,-279.81C1446.49,-290.62 1422.31,-304.39 1399,-311.5 1347.92,-327.09 1287.83,-332.45 1241.61,-333.99"/>
<polygon fill="midnightblue" stroke="midnightblue" points="1465.47,-282.6 1471.89,-274.17 1461.62,-276.75 1465.47,-282.6"/>
</g>
<!-- Node13 -->
<g id="node13" class="node">
<title>Node13</title>
<g id="a_node13"><a xlink:href="classcarta_1_1FileExtInfoLoader.html#a06c36c25d3286c3019c1bbdcabdd9f63" target="_top" xlink:title=" ">
<polygon fill="none" stroke="black" points="1100,-269.5 1100,-299.5 1232,-299.5 1232,-269.5 1100,-269.5"/>
<text text-anchor="start" x="1108" y="-287.5" font-family="Helvetica,sans-Serif" font-size="10.00">carta::FileExtInfoLoader</text>
<text text-anchor="middle" x="1166" y="-276.5" font-family="Helvetica,sans-Serif" font-size="10.00">::FillFitsFileInfoMap</text>
</a>
</g>
</g>
<!-- Node11&#45;&gt;Node13 -->
<g id="edge14" class="edge">
<title>Node11&#45;&gt;Node13</title>
<path fill="none" stroke="midnightblue" d="M1424.7,-262.92C1416.07,-262.74 1407.31,-262.6 1399,-262.5 1345.23,-261.88 1331.52,-257.25 1278,-262.5 1262.85,-263.99 1246.7,-266.59 1231.54,-269.5"/>
<polygon fill="midnightblue" stroke="midnightblue" points="1424.66,-266.42 1434.73,-263.13 1424.81,-259.42 1424.66,-266.42"/>
</g>
<!-- Node27 -->
<g id="node27" class="node">
<title>Node27</title>
<g id="a_node27"><a xlink:href="classcarta_1_1FileInfoLoader.html#a5a934439a746e53660be9ce1681f13d3" target="_top" xlink:title=" ">
<polygon fill="none" stroke="black" points="1280.5,-78.5 1280.5,-108.5 1396.5,-108.5 1396.5,-78.5 1280.5,-78.5"/>
<text text-anchor="start" x="1288.5" y="-96.5" font-family="Helvetica,sans-Serif" font-size="10.00">carta::FileInfoLoader</text>
<text text-anchor="middle" x="1338.5" y="-85.5" font-family="Helvetica,sans-Serif" font-size="10.00">::GetCartaFileType</text>
</a>
</g>
</g>
<!-- Node11&#45;&gt;Node27 -->
<g id="edge34" class="edge">
<title>Node11&#45;&gt;Node27</title>
<path fill="none" stroke="midnightblue" d="M1470.85,-247.14C1453.68,-226.81 1424.35,-192.15 1399,-162.5 1383.07,-143.87 1364.61,-122.5 1352.54,-108.54"/>
<polygon fill="midnightblue" stroke="midnightblue" points="1468.29,-249.53 1477.42,-254.92 1473.64,-245.02 1468.29,-249.53"/>
</g>
<!-- Node29 -->
<g id="node29" class="node">
<title>Node29</title>
<g id="a_node29"><a xlink:href="classcarta_1_1FitsHduList.html#aae758ae3882416bb039c090209fcf5ad" target="_top" xlink:title=" ">
<polygon fill="none" stroke="black" points="1288,-271.5 1288,-301.5 1389,-301.5 1389,-271.5 1288,-271.5"/>
<text text-anchor="start" x="1296" y="-289.5" font-family="Helvetica,sans-Serif" font-size="10.00">carta::FitsHduList</text>
<text text-anchor="middle" x="1338.5" y="-278.5" font-family="Helvetica,sans-Serif" font-size="10.00">::GetHduList</text>
</a>
</g>
</g>
<!-- Node11&#45;&gt;Node29 -->
<g id="edge36" class="edge">
<title>Node11&#45;&gt;Node29</title>
<path fill="none" stroke="midnightblue" d="M1424.95,-273.62C1413.01,-275.42 1400.61,-277.29 1389.08,-279.03"/>
<polygon fill="midnightblue" stroke="midnightblue" points="1425.48,-277.08 1434.85,-272.13 1424.44,-270.16 1425.48,-277.08"/>
</g>
<!-- Node30 -->
<g id="node30" class="node">
<title>Node30</title>
<g id="a_node30"><a xlink:href="classcarta_1_1FileLoader.html#a581709c9a332af503acb77d79b8ae38f" target="_top" xlink:title=" ">
<polygon fill="none" stroke="black" points="1286.5,-171.5 1286.5,-201.5 1390.5,-201.5 1390.5,-171.5 1286.5,-171.5"/>
<text text-anchor="start" x="1294.5" y="-189.5" font-family="Helvetica,sans-Serif" font-size="10.00">carta::FileLoader::</text>
<text text-anchor="middle" x="1338.5" y="-178.5" font-family="Helvetica,sans-Serif" font-size="10.00">GetLoader</text>
</a>
</g>
</g>
<!-- Node11&#45;&gt;Node30 -->
<g id="edge39" class="edge">
<title>Node11&#45;&gt;Node30</title>
<path fill="none" stroke="midnightblue" d="M1458.74,-250.2C1432.97,-236.44 1394.12,-215.68 1367.83,-201.64"/>
<polygon fill="midnightblue" stroke="midnightblue" points="1457.13,-253.31 1467.6,-254.94 1460.43,-247.14 1457.13,-253.31"/>
</g>
<!-- Node14 -->
<g id="node14" class="node">
<title>Node14</title>
<g id="a_node14"><a xlink:href="classcarta_1_1Session.html#a3dc8e818765159809dfb28472a3c95a6" target="_top" xlink:title=" ">
<polygon fill="none" stroke="black" points="902.5,-269.5 902.5,-299.5 1053.5,-299.5 1053.5,-269.5 902.5,-269.5"/>
<text text-anchor="start" x="910.5" y="-287.5" font-family="Helvetica,sans-Serif" font-size="10.00">carta::Session::FillExtended</text>
<text text-anchor="middle" x="978" y="-276.5" font-family="Helvetica,sans-Serif" font-size="10.00">FileInfo</text>
</a>
</g>
</g>
<!-- Node13&#45;&gt;Node14 -->
<g id="edge15" class="edge">
<title>Node13&#45;&gt;Node14</title>
<path fill="none" stroke="midnightblue" d="M1089.62,-284.5C1077.73,-284.5 1065.44,-284.5 1053.57,-284.5"/>
<polygon fill="midnightblue" stroke="midnightblue" points="1089.95,-288 1099.95,-284.5 1089.95,-281 1089.95,-288"/>
</g>
<!-- Node15 -->
<g id="node15" class="node">
<title>Node15</title>
<g id="a_node15"><a xlink:href="classcarta_1_1Session.html#a8874927da900745afae4a0d975ed0453" target="_top" xlink:title=" ">
<polygon fill="none" stroke="black" points="330,-288.5 330,-318.5 470,-318.5 470,-288.5 330,-288.5"/>
<text text-anchor="start" x="338" y="-306.5" font-family="Helvetica,sans-Serif" font-size="10.00">carta::Session::OnFileInfo</text>
<text text-anchor="middle" x="400" y="-295.5" font-family="Helvetica,sans-Serif" font-size="10.00">Request</text>
</a>
</g>
</g>
<!-- Node14&#45;&gt;Node15 -->
<g id="edge16" class="edge">
<title>Node14&#45;&gt;Node15</title>
<path fill="none" stroke="midnightblue" d="M892.44,-296.06C883.52,-297.01 874.58,-297.85 866,-298.5 725.72,-309.06 560.97,-307.56 470.05,-305.53"/>
<polygon fill="midnightblue" stroke="midnightblue" points="892.92,-299.53 902.47,-294.95 892.14,-292.57 892.92,-299.53"/>
</g>
<!-- Node18 -->
<g id="node18" class="node">
<title>Node18</title>
<g id="a_node18"><a xlink:href="classcarta_1_1Session.html#a54c5dc766deb62f608792ce551a1b885" target="_top" xlink:title=" ">
<polygon fill="none" stroke="black" points="709.5,-171 709.5,-190 856.5,-190 856.5,-171 709.5,-171"/>
<text text-anchor="middle" x="783" y="-178" font-family="Helvetica,sans-Serif" font-size="10.00">carta::Session::OnOpenFile</text>
</a>
</g>
</g>
<!-- Node14&#45;&gt;Node18 -->
<g id="edge19" class="edge">
<title>Node14&#45;&gt;Node18</title>
<path fill="none" stroke="midnightblue" d="M913.84,-265.76C909.78,-264.1 905.8,-262.35 902,-260.5 860.16,-240.15 816.13,-206.54 795.7,-190.13"/>
<polygon fill="midnightblue" stroke="midnightblue" points="912.81,-269.11 923.4,-269.43 915.32,-262.58 912.81,-269.11"/>
</g>
<!-- Node23 -->
<g id="node23" class="node">
<title>Node23</title>
<g id="a_node23"><a xlink:href="classcarta_1_1Session.html#a07bfe19708d3e272d01fef6f18712aa2" target="_top" xlink:title=" ">
<polygon fill="none" stroke="black" points="508,-275 508,-294 664,-294 664,-275 508,-275"/>
<text text-anchor="middle" x="586" y="-282" font-family="Helvetica,sans-Serif" font-size="10.00">carta::Session::OnPvRequest</text>
</a>
</g>
</g>
<!-- Node14&#45;&gt;Node23 -->
<g id="edge31" class="edge">
<title>Node14&#45;&gt;Node23</title>
<path fill="none" stroke="midnightblue" d="M892.03,-284.5C824.16,-284.5 729.87,-284.5 664.15,-284.5"/>
<polygon fill="midnightblue" stroke="midnightblue" points="892.27,-288 902.27,-284.5 892.27,-281 892.27,-288"/>
</g>
<!-- Node25 -->
<g id="node25" class="node">
<title>Node25</title>
<g id="a_node25"><a xlink:href="classcarta_1_1Session.html#af8a5cb91e4f627673631d7648bbaed75" target="_top" xlink:title=" ">
<polygon fill="none" stroke="black" points="700,-354 700,-373 866,-373 866,-354 700,-354"/>
<text text-anchor="middle" x="783" y="-361" font-family="Helvetica,sans-Serif" font-size="10.00">carta::Session::SendPvPreview</text>
</a>
</g>
</g>
<!-- Node14&#45;&gt;Node25 -->
<g id="edge32" class="edge">
<title>Node14&#45;&gt;Node25</title>
<path fill="none" stroke="midnightblue" d="M938.02,-304.16C916.96,-314.43 890.35,-326.83 866,-336.5 849.7,-342.97 831.17,-349.17 815.86,-353.99"/>
<polygon fill="midnightblue" stroke="midnightblue" points="939.85,-307.17 947.28,-299.62 936.76,-300.88 939.85,-307.17"/>
</g>
<!-- Node16 -->
<g id="node16" class="node">
<title>Node16</title>
<g id="a_node16"><a xlink:href="classcarta_1_1SessionManager.html#a474c31666cb3b22fcbe8af5f945d2950" target="_top" xlink:title=" ">
<polygon fill="none" stroke="black" points="164,-181.5 164,-211.5 292,-211.5 292,-181.5 164,-181.5"/>
<text text-anchor="start" x="172" y="-199.5" font-family="Helvetica,sans-Serif" font-size="10.00">carta::SessionManager</text>
<text text-anchor="middle" x="228" y="-188.5" font-family="Helvetica,sans-Serif" font-size="10.00">::OnMessage</text>
</a>
</g>
</g>
<!-- Node15&#45;&gt;Node16 -->
<g id="edge17" class="edge">
<title>Node15&#45;&gt;Node16</title>
<path fill="none" stroke="midnightblue" d="M366.13,-282.81C332.92,-261.91 282.43,-230.13 252.87,-211.53"/>
<polygon fill="midnightblue" stroke="midnightblue" points="364.68,-286.03 375,-288.4 368.4,-280.11 364.68,-286.03"/>
</g>
<!-- Node17 -->
<g id="node17" class="node">
<title>Node17</title>
<g id="a_node17"><a xlink:href="classcarta_1_1SessionManager.html#ab4e4e7f0244bd6843e70ab91652debf6" target="_top" xlink:title=" ">
<polygon fill="none" stroke="black" points="0,-181.5 0,-211.5 128,-211.5 128,-181.5 0,-181.5"/>
<text text-anchor="start" x="8" y="-199.5" font-family="Helvetica,sans-Serif" font-size="10.00">carta::SessionManager</text>
<text text-anchor="middle" x="64" y="-188.5" font-family="Helvetica,sans-Serif" font-size="10.00">::RunApp</text>
</a>
</g>
</g>
<!-- Node16&#45;&gt;Node17 -->
<g id="edge18" class="edge">
<title>Node16&#45;&gt;Node17</title>
<path fill="none" stroke="midnightblue" d="M153.63,-196.5C145.14,-196.5 136.53,-196.5 128.19,-196.5"/>
<polygon fill="midnightblue" stroke="midnightblue" points="153.9,-200 163.9,-196.5 153.9,-193 153.9,-200"/>
</g>
<!-- Node18&#45;&gt;Node16 -->
<g id="edge25" class="edge">
<title>Node18&#45;&gt;Node16</title>
<path fill="none" stroke="midnightblue" d="M716.06,-166.89C710.26,-164.05 704.79,-160.63 700,-156.5 671.08,-131.57 696.16,-99.08 664,-78.5 605.6,-41.13 575.95,-64.72 508,-78.5 409.55,-98.46 302.7,-154.32 254.79,-181.4"/>
<polygon fill="midnightblue" stroke="midnightblue" points="714.8,-170.15 725.37,-170.87 717.55,-163.72 714.8,-170.15"/>
</g>
<!-- Node19 -->
<g id="node19" class="node">
<title>Node19</title>
<g id="a_node19"><a xlink:href="classcarta_1_1Session.html#aed12d0369de4c3391dba300cb77e9241" target="_top" xlink:title=" ">
<polygon fill="none" stroke="black" points="517,-225.5 517,-255.5 655,-255.5 655,-225.5 517,-225.5"/>
<text text-anchor="start" x="525" y="-243.5" font-family="Helvetica,sans-Serif" font-size="10.00">carta::Session::OnConcat</text>
<text text-anchor="middle" x="586" y="-232.5" font-family="Helvetica,sans-Serif" font-size="10.00">StokesFiles</text>
</a>
</g>
</g>
<!-- Node18&#45;&gt;Node19 -->
<g id="edge20" class="edge">
<title>Node18&#45;&gt;Node19</title>
<path fill="none" stroke="midnightblue" d="M741.18,-193.06C710.53,-202.49 668.45,-215.44 635.99,-225.43"/>
<polygon fill="midnightblue" stroke="midnightblue" points="742.57,-196.29 751.1,-190.01 740.51,-189.6 742.57,-196.29"/>
</g>
<!-- Node20 -->
<g id="node20" class="node">
<title>Node20</title>
<g id="a_node20"><a xlink:href="classcarta_1_1Session.html#afe5c090c017ef208f638b96a7eb1ecf0" target="_top" xlink:title=" ">
<polygon fill="none" stroke="black" points="328,-181.5 328,-211.5 472,-211.5 472,-181.5 328,-181.5"/>
<text text-anchor="start" x="336" y="-199.5" font-family="Helvetica,sans-Serif" font-size="10.00">carta::Session::OnResume</text>
<text text-anchor="middle" x="400" y="-188.5" font-family="Helvetica,sans-Serif" font-size="10.00">Session</text>
</a>
</g>
</g>
<!-- Node18&#45;&gt;Node20 -->
<g id="edge30" class="edge">
<title>Node18&#45;&gt;Node20</title>
<path fill="none" stroke="midnightblue" d="M699.22,-183.98C631.38,-186.83 536.41,-190.81 472,-193.52"/>
<polygon fill="midnightblue" stroke="midnightblue" points="699.6,-187.46 709.44,-183.55 699.3,-180.47 699.6,-187.46"/>
</g>
<!-- Node21 -->
<g id="node21" class="node">
<title>Node21</title>
<g id="a_node21"><a xlink:href="classcarta_1_1Session.html#a5589e4dca9e6a51055f15da1d9ac1b3c" target="_top" xlink:title=" ">
<polygon fill="none" stroke="black" points="518.5,-137.5 518.5,-167.5 653.5,-167.5 653.5,-137.5 518.5,-137.5"/>
<text text-anchor="start" x="526.5" y="-155.5" font-family="Helvetica,sans-Serif" font-size="10.00">carta::Session::OnFitting</text>
<text text-anchor="middle" x="586" y="-144.5" font-family="Helvetica,sans-Serif" font-size="10.00">Request</text>
</a>
</g>
</g>
<!-- Node18&#45;&gt;Node21 -->
<g id="edge24" class="edge">
<title>Node18&#45;&gt;Node21</title>
<path fill="none" stroke="midnightblue" d="M705.73,-169.55C688.58,-167.09 670.5,-164.49 653.77,-162.09"/>
<polygon fill="midnightblue" stroke="midnightblue" points="705.31,-173.02 715.71,-170.98 706.31,-166.1 705.31,-173.02"/>
</g>
<!-- Node22 -->
<g id="node22" class="node">
<title>Node22</title>
<g id="a_node22"><a xlink:href="classcarta_1_1Session.html#a8fe2527b0a83c67240ef4a31a86e4978" target="_top" xlink:title=" ">
<polygon fill="none" stroke="black" points="513.5,-88.5 513.5,-118.5 658.5,-118.5 658.5,-88.5 513.5,-88.5"/>
<text text-anchor="start" x="521.5" y="-106.5" font-family="Helvetica,sans-Serif" font-size="10.00">carta::Session::OnMoment</text>
<text text-anchor="middle" x="586" y="-95.5" font-family="Helvetica,sans-Serif" font-size="10.00">Request</text>
</a>
</g>
</g>
<!-- Node18&#45;&gt;Node22 -->
<g id="edge26" class="edge">
<title>Node18&#45;&gt;Node22</title>
<path fill="none" stroke="midnightblue" d="M728.59,-168.04C718.83,-164.88 708.91,-161.06 700,-156.5 681.95,-147.27 681.91,-137.99 664,-128.5 656.92,-124.75 649.18,-121.43 641.42,-118.53"/>
<polygon fill="midnightblue" stroke="midnightblue" points="727.68,-171.42 738.27,-170.98 729.72,-164.73 727.68,-171.42"/>
</g>
<!-- Node18&#45;&gt;Node23 -->
<g id="edge27" class="edge">
<title>Node18&#45;&gt;Node23</title>
<path fill="none" stroke="midnightblue" d="M763.94,-196.95C741.92,-216.15 702.81,-247.55 664,-265.5 655.75,-269.31 646.64,-272.42 637.65,-274.94"/>
<polygon fill="midnightblue" stroke="midnightblue" points="766.34,-199.49 771.51,-190.24 761.7,-194.26 766.34,-199.49"/>
</g>
<!-- Node24 -->
<g id="node24" class="node">
<title>Node24</title>
<g id="a_node24"><a xlink:href="classcarta_1_1Session.html#a45b9623e5dd0c0d54307ab148e8745aa" target="_top" xlink:title=" ">
<polygon fill="none" stroke="black" points="514.5,-0.5 514.5,-30.5 657.5,-30.5 657.5,-0.5 514.5,-0.5"/>
<text text-anchor="start" x="522.5" y="-18.5" font-family="Helvetica,sans-Serif" font-size="10.00">carta::Session::OnRemote</text>
<text text-anchor="middle" x="586" y="-7.5" font-family="Helvetica,sans-Serif" font-size="10.00">FileRequest</text>
</a>
</g>
</g>
<!-- Node18&#45;&gt;Node24 -->
<g id="edge28" class="edge">
<title>Node18&#45;&gt;Node24</title>
<path fill="none" stroke="midnightblue" d="M713.73,-166.5C708.72,-163.74 704.06,-160.44 700,-156.5 662.8,-120.36 699.6,-83.22 664,-45.5 658.19,-39.34 650.97,-34.43 643.29,-30.52"/>
<polygon fill="midnightblue" stroke="midnightblue" points="712.51,-169.8 723.05,-170.91 715.51,-163.47 712.51,-169.8"/>
</g>
<!-- Node19&#45;&gt;Node16 -->
<g id="edge21" class="edge">
<title>Node19&#45;&gt;Node16</title>
<path fill="none" stroke="midnightblue" d="M506.99,-238.25C455.83,-235.91 387.62,-231.16 328,-221.5 312.69,-219.02 296.28,-215.31 281.31,-211.51"/>
<polygon fill="midnightblue" stroke="midnightblue" points="506.84,-241.75 516.99,-238.69 507.15,-234.75 506.84,-241.75"/>
</g>
<!-- Node19&#45;&gt;Node20 -->
<g id="edge22" class="edge">
<title>Node19&#45;&gt;Node20</title>
<path fill="none" stroke="midnightblue" d="M512.33,-223.12C496.3,-219.29 479.44,-215.26 463.84,-211.53"/>
<polygon fill="midnightblue" stroke="midnightblue" points="511.65,-226.56 522.19,-225.48 513.28,-219.75 511.65,-226.56"/>
</g>
<!-- Node20&#45;&gt;Node16 -->
<g id="edge23" class="edge">
<title>Node20&#45;&gt;Node16</title>
<path fill="none" stroke="midnightblue" d="M317.84,-196.5C309.25,-196.5 300.6,-196.5 292.25,-196.5"/>
<polygon fill="midnightblue" stroke="midnightblue" points="317.89,-200 327.89,-196.5 317.89,-193 317.89,-200"/>
</g>
<!-- Node24&#45;&gt;Node16 -->
<g id="edge29" class="edge">
<title>Node24&#45;&gt;Node16</title>
<path fill="none" stroke="midnightblue" d="M504.16,-7.96C450.44,-6.83 380.42,-13.12 328,-45.5 275.46,-77.95 245.16,-149.88 233.98,-181.31"/>
<polygon fill="midnightblue" stroke="midnightblue" points="504.23,-11.46 514.33,-8.27 504.44,-4.47 504.23,-11.46"/>
</g>
<!-- Node26 -->
<g id="node26" class="node">
<title>Node26</title>
<g id="a_node26"><a xlink:href="classcarta_1_1PvPreviewUpdateTask.html#ad8fc7c242731d4bae2e2928f0cdf613a" target="_top" xlink:title=" ">
<polygon fill="none" stroke="black" points="508.5,-351.5 508.5,-381.5 663.5,-381.5 663.5,-351.5 508.5,-351.5"/>
<text text-anchor="start" x="516.5" y="-369.5" font-family="Helvetica,sans-Serif" font-size="10.00">carta::PvPreviewUpdateTask</text>
<text text-anchor="middle" x="586" y="-358.5" font-family="Helvetica,sans-Serif" font-size="10.00">::execute</text>
</a>
</g>
</g>
<!-- Node25&#45;&gt;Node26 -->
<g id="edge33" class="edge">
<title>Node25&#45;&gt;Node26</title>
<path fill="none" stroke="midnightblue" d="M689.71,-364.92C681.02,-365.05 672.28,-365.19 663.75,-365.32"/>
<polygon fill="midnightblue" stroke="midnightblue" points="689.92,-368.42 699.87,-364.76 689.81,-361.42 689.92,-368.42"/>
</g>
<!-- Node28 -->
<g id="node28" class="node">
<title>Node28</title>
<g id="a_node28"><a xlink:href="classcarta_1_1FileInfoLoader.html#aeb7c1eebf1d50bcec630cb5cfd1d8f66" target="_top" xlink:title=" ">
<polygon fill="none" stroke="black" points="1108,-34.5 1108,-64.5 1224,-64.5 1224,-34.5 1108,-34.5"/>
<text text-anchor="start" x="1116" y="-52.5" font-family="Helvetica,sans-Serif" font-size="10.00">carta::FileInfoLoader</text>
<text text-anchor="middle" x="1166" y="-41.5" font-family="Helvetica,sans-Serif" font-size="10.00">::FileInfoLoader</text>
</a>
</g>
</g>
<!-- Node27&#45;&gt;Node28 -->
<g id="edge35" class="edge">
<title>Node27&#45;&gt;Node28</title>
<path fill="none" stroke="midnightblue" d="M1270.34,-76.17C1255.04,-72.22 1238.93,-68.06 1224.1,-64.23"/>
<polygon fill="midnightblue" stroke="midnightblue" points="1269.69,-79.62 1280.25,-78.73 1271.44,-72.84 1269.69,-79.62"/>
</g>
<!-- Node29&#45;&gt;Node12 -->
<g id="edge37" class="edge">
<title>Node29&#45;&gt;Node12</title>
<path fill="none" stroke="midnightblue" d="M1278.03,-302.89C1259.7,-307.95 1239.6,-313.49 1221.61,-318.45"/>
<polygon fill="midnightblue" stroke="midnightblue" points="1279.02,-306.25 1287.73,-300.22 1277.16,-299.5 1279.02,-306.25"/>
</g>
<!-- Node29&#45;&gt;Node13 -->
<g id="edge38" class="edge">
<title>Node29&#45;&gt;Node13</title>
<path fill="none" stroke="midnightblue" d="M1277.71,-285.8C1262.95,-285.63 1247.07,-285.44 1232.07,-285.26"/>
<polygon fill="midnightblue" stroke="midnightblue" points="1277.69,-289.3 1287.73,-285.92 1277.77,-282.3 1277.69,-289.3"/>
</g>
<!-- Node31 -->
<g id="node31" class="node">
<title>Node31</title>
<g id="a_node31"><a xlink:href="classcarta_1_1RegionHandler.html#a9fc8e855f922f23cc072d0706f53c805" target="_top" xlink:title=" ">
<polygon fill="none" stroke="black" points="1091,-83.5 1091,-113.5 1241,-113.5 1241,-83.5 1091,-83.5"/>
<text text-anchor="start" x="1099" y="-101.5" font-family="Helvetica,sans-Serif" font-size="10.00">carta::RegionHandler</text>
<text text-anchor="middle" x="1166" y="-90.5" font-family="Helvetica,sans-Serif" font-size="10.00">::CalculatePvPreviewImage</text>
</a>
</g>
</g>
<!-- Node30&#45;&gt;Node31 -->
<g id="edge40" class="edge">
<title>Node30&#45;&gt;Node31</title>
<path fill="none" stroke="midnightblue" d="M1309.69,-165.34C1291.23,-152.02 1266.06,-135.19 1242,-123.5 1234.47,-119.84 1226.27,-116.5 1218.15,-113.55"/>
<polygon fill="midnightblue" stroke="midnightblue" points="1307.79,-168.29 1317.92,-171.37 1311.93,-162.64 1307.79,-168.29"/>
</g>
<!-- Node34 -->
<g id="node34" class="node">
<title>Node34</title>
<g id="a_node34"><a xlink:href="classcarta_1_1Session.html#ac671b008e48c5074c520343edb43beec" target="_top" xlink:title=" ">
<polygon fill="none" stroke="black" points="1090.5,-171.5 1090.5,-201.5 1241.5,-201.5 1241.5,-171.5 1090.5,-171.5"/>
<text text-anchor="start" x="1098.5" y="-189.5" font-family="Helvetica,sans-Serif" font-size="10.00">carta::Session::FillExtended</text>
<text text-anchor="middle" x="1166" y="-178.5" font-family="Helvetica,sans-Serif" font-size="10.00">FileInfo</text>
</a>
</g>
</g>
<!-- Node30&#45;&gt;Node34 -->
<g id="edge43" class="edge">
<title>Node30&#45;&gt;Node34</title>
<path fill="none" stroke="midnightblue" d="M1276.26,-186.5C1265.08,-186.5 1253.29,-186.5 1241.76,-186.5"/>
<polygon fill="midnightblue" stroke="midnightblue" points="1276.34,-190 1286.34,-186.5 1276.34,-183 1276.34,-190"/>
</g>
<!-- Node35 -->
<g id="node35" class="node">
<title>Node35</title>
<g id="a_node35"><a xlink:href="classcarta_1_1LoaderCache.html#a341be9f1278d337b6e7a0a347de474c1" target="_top" xlink:title=" ">
<polygon fill="none" stroke="black" points="1099,-133 1099,-152 1233,-152 1233,-133 1099,-133"/>
<text text-anchor="middle" x="1166" y="-140" font-family="Helvetica,sans-Serif" font-size="10.00">carta::LoaderCache::Get</text>
</a>
</g>
</g>
<!-- Node30&#45;&gt;Node35 -->
<g id="edge44" class="edge">
<title>Node30&#45;&gt;Node35</title>
<path fill="none" stroke="midnightblue" d="M1276.51,-170.76C1252.29,-164.51 1225.2,-157.52 1204.03,-152.06"/>
<polygon fill="midnightblue" stroke="midnightblue" points="1275.79,-174.19 1286.34,-173.3 1277.54,-167.41 1275.79,-174.19"/>
</g>
<!-- Node36 -->
<g id="node36" class="node">
<title>Node36</title>
<g id="a_node36"><a xlink:href="classcarta_1_1StokesFilesConnector.html#a293ad12a37f9da0da1f6bcd140c68bd8" target="_top" xlink:title=" ">
<polygon fill="none" stroke="black" points="1090,-220.5 1090,-250.5 1242,-250.5 1242,-220.5 1090,-220.5"/>
<text text-anchor="start" x="1098" y="-238.5" font-family="Helvetica,sans-Serif" font-size="10.00">carta::StokesFilesConnector</text>
<text text-anchor="middle" x="1166" y="-227.5" font-family="Helvetica,sans-Serif" font-size="10.00">::OpenStokesFiles</text>
</a>
</g>
</g>
<!-- Node30&#45;&gt;Node36 -->
<g id="edge48" class="edge">
<title>Node30&#45;&gt;Node36</title>
<path fill="none" stroke="midnightblue" d="M1276.71,-203.97C1257.94,-209.36 1237.44,-215.26 1219.3,-220.47"/>
<polygon fill="midnightblue" stroke="midnightblue" points="1277.7,-207.33 1286.34,-201.2 1275.77,-200.6 1277.7,-207.33"/>
</g>
<!-- Node32 -->
<g id="node32" class="node">
<title>Node32</title>
<g id="a_node32"><a xlink:href="classcarta_1_1RegionHandler.html#a53807aa22abb92b35725054a015e12aa" target="_top" xlink:title=" ">
<polygon fill="none" stroke="black" points="918.5,-34.5 918.5,-64.5 1037.5,-64.5 1037.5,-34.5 918.5,-34.5"/>
<text text-anchor="start" x="926.5" y="-52.5" font-family="Helvetica,sans-Serif" font-size="10.00">carta::RegionHandler</text>
<text text-anchor="middle" x="978" y="-41.5" font-family="Helvetica,sans-Serif" font-size="10.00">::CalculatePvImage</text>
</a>
</g>
</g>
<!-- Node31&#45;&gt;Node32 -->
<g id="edge41" class="edge">
<title>Node31&#45;&gt;Node32</title>
<path fill="none" stroke="midnightblue" d="M1098.1,-80.88C1077.76,-75.52 1055.59,-69.68 1035.96,-64.51"/>
<polygon fill="midnightblue" stroke="midnightblue" points="1097.37,-84.3 1107.93,-83.47 1099.15,-77.53 1097.37,-84.3"/>
</g>
<!-- Node33 -->
<g id="node33" class="node">
<title>Node33</title>
<g id="a_node33"><a xlink:href="classcarta_1_1RegionHandler.html#ab556b1d44e6a4ca48fba195023769038" target="_top" xlink:title=" ">
<polygon fill="none" stroke="black" points="908,-83.5 908,-113.5 1048,-113.5 1048,-83.5 908,-83.5"/>
<text text-anchor="start" x="916" y="-101.5" font-family="Helvetica,sans-Serif" font-size="10.00">carta::RegionHandler</text>
<text text-anchor="middle" x="978" y="-90.5" font-family="Helvetica,sans-Serif" font-size="10.00">::UpdatePvPreviewImage</text>
</a>
</g>
</g>
<!-- Node31&#45;&gt;Node33 -->
<g id="edge42" class="edge">
<title>Node31&#45;&gt;Node33</title>
<path fill="none" stroke="midnightblue" d="M1080.64,-98.5C1069.8,-98.5 1058.81,-98.5 1048.26,-98.5"/>
<polygon fill="midnightblue" stroke="midnightblue" points="1080.95,-102 1090.95,-98.5 1080.95,-95 1080.95,-102"/>
</g>
<!-- Node35&#45;&gt;Node14 -->
<g id="edge45" class="edge">
<title>Node35&#45;&gt;Node14</title>
<path fill="none" stroke="midnightblue" d="M1097.48,-156.8C1094.83,-158.49 1092.31,-160.39 1090,-162.5 1055.72,-193.78 1087.5,-228.39 1054,-260.5 1050.45,-263.91 1046.41,-266.83 1042.1,-269.34"/>
<polygon fill="midnightblue" stroke="midnightblue" points="1099.23,-159.83 1106.38,-152.02 1095.92,-153.67 1099.23,-159.83"/>
</g>
<!-- Node35&#45;&gt;Node18 -->
<g id="edge46" class="edge">
<title>Node35&#45;&gt;Node18</title>
<path fill="none" stroke="midnightblue" d="M1088.62,-152.51C1077.03,-153.92 1065.2,-155.3 1054,-156.5 987.21,-163.68 910.95,-170.31 856.55,-174.78"/>
<polygon fill="midnightblue" stroke="midnightblue" points="1089.22,-155.96 1098.72,-151.26 1088.37,-149.01 1089.22,-155.96"/>
</g>
<!-- Node35&#45;&gt;Node24 -->
<g id="edge47" class="edge">
<title>Node35&#45;&gt;Node24</title>
<path fill="none" stroke="midnightblue" d="M1088.66,-141.75C1035.79,-140 964.04,-135.18 902,-122.5 797.32,-101.1 679.43,-54.75 622.09,-30.69"/>
<polygon fill="midnightblue" stroke="midnightblue" points="1088.88,-145.26 1098.98,-142.06 1089.09,-138.26 1088.88,-145.26"/>
</g>
<!-- Node37 -->
<g id="node37" class="node">
<title>Node37</title>
<g id="a_node37"><a xlink:href="classcarta_1_1StokesFilesConnector.html#a99f6cac79a12711d8e47b4a1c6b4f381" target="_top" xlink:title=" ">
<polygon fill="none" stroke="black" points="902,-220.5 902,-250.5 1054,-250.5 1054,-220.5 902,-220.5"/>
<text text-anchor="start" x="910" y="-238.5" font-family="Helvetica,sans-Serif" font-size="10.00">carta::StokesFilesConnector</text>
<text text-anchor="middle" x="978" y="-227.5" font-family="Helvetica,sans-Serif" font-size="10.00">::DoConcat</text>
</a>
</g>
</g>
<!-- Node36&#45;&gt;Node37 -->
<g id="edge49" class="edge">
<title>Node36&#45;&gt;Node37</title>
<path fill="none" stroke="midnightblue" d="M1079.85,-235.5C1071.26,-235.5 1062.57,-235.5 1054.1,-235.5"/>
<polygon fill="midnightblue" stroke="midnightblue" points="1079.88,-239 1089.88,-235.5 1079.88,-232 1079.88,-239"/>
</g>
</g>
</svg>
        <g id="navigator" transform="translate(0 0)" fill="#404254">
                <rect fill="#f2f5e9" fill-opacity="0.5" stroke="#606060" stroke-width=".5" x="0" y="0" width="60" height="60"/>
                <use id="zoomplus" xlink:href="#zoomPlus" x="17" y="9" onmousedown="handleZoom(evt,'in')"/>
                <use id="zoomminus" xlink:href="#zoomMin" x="42" y="9" onmousedown="handleZoom(evt,'out')"/>
                <use id="reset" xlink:href="#resetDef" x="30" y="36" onmousedown="handleReset()"/>
                <g id="arrowUp" xlink:href="#dirArrow" transform="translate(30 24)" onmousedown="handlePan(0,-1)">
                  <use xlink:href="#rim" fill="#404040">
                        <set attributeName="fill" to="#808080" begin="arrowUp.mouseover" end="arrowUp.mouseout"/>
                  </use>
                  <path fill="none" stroke="white" stroke-width="1.5" d="M0,-3.0v7 M-2.5,-0.5L0,-3.0L2.5,-0.5"/>
                </g>
                <g id="arrowRight" xlink:href="#dirArrow" transform="rotate(90) translate(36 -43)" onmousedown="handlePan(1,0)">
                  <use xlink:href="#rim" fill="#404040">
                        <set attributeName="fill" to="#808080" begin="arrowRight.mouseover" end="arrowRight.mouseout"/>
                  </use>
                  <path fill="none" stroke="white" stroke-width="1.5" d="M0,-3.0v7 M-2.5,-0.5L0,-3.0L2.5,-0.5"/>
                </g>
                <g id="arrowDown" xlink:href="#dirArrow" transform="rotate(180) translate(-30 -48)" onmousedown="handlePan(0,1)">
                  <use xlink:href="#rim" fill="#404040">
                        <set attributeName="fill" to="#808080" begin="arrowDown.mouseover" end="arrowDown.mouseout"/>
                  </use>
                  <path fill="none" stroke="white" stroke-width="1.5" d="M0,-3.0v7 M-2.5,-0.5L0,-3.0L2.5,-0.5"/>
                </g>
                <g id="arrowLeft" xlink:href="#dirArrow" transform="rotate(270) translate(-36 17)" onmousedown="handlePan(-1,0)">
                  <use xlink:href="#rim" fill="#404040">
                        <set attributeName="fill" to="#808080" begin="arrowLeft.mouseover" end="arrowLeft.mouseout"/>
                  </use>
                  <path fill="none" stroke="white" stroke-width="1.5" d="M0,-3.0v7 M-2.5,-0.5L0,-3.0L2.5,-0.5"/>
                </g>
        </g>
        <svg viewBox="0 0 15 15" width="100%" height="30px" preserveAspectRatio="xMaxYMin meet">
         <g id="arrow_out" transform="scale(0.3 0.3)">
          <a xlink:href="String_8cc_a1540adc30610b9db4add6622c248b9d1_icgraph_org.svg" target="_base">
           <rect id="button" ry="5" rx="5" y="6" x="6" height="38" width="38"
                fill="#f2f5e9" fill-opacity="0.5" stroke="#606060" stroke-width="1.0"/>
           <path id="arrow"
             d="M 11.500037,31.436501 C 11.940474,20.09759 22.043105,11.32322 32.158766,21.979434 L 37.068811,17.246167 C 37.068811,17.246167 37.088388,32 37.088388,32 L 22.160133,31.978069 C 22.160133,31.978069 26.997745,27.140456 26.997745,27.140456 C 18.528582,18.264221 13.291696,25.230495 11.500037,31.436501 z"
             style="fill:#404040;"/>
          </a>
         </g>
        </svg>
</svg>
