<?xml version="1.0" encoding="UTF-8" standalone="no"?>
<!DOCTYPE svg PUBLIC "-//W3C//DTD SVG 1.1//EN"
 "http://www.w3.org/Graphics/SVG/1.1/DTD/svg11.dtd">
<!-- Generated by graphviz version 2.43.0 (0)
 -->
<!-- Title: carta::Tile::Decode Pages: 1 -->
<svg width="1110pt" height="137pt"
 viewBox="0.00 0.00 1110.00 137.00" xmlns="http://www.w3.org/2000/svg" xmlns:xlink="http://www.w3.org/1999/xlink">
<g id="graph0" class="graph" transform="scale(1 1) rotate(0) translate(4 133)">
<title>carta::Tile::Decode</title>
<!-- Node1 -->
<g id="node1" class="node">
<title>Node1</title>
<g id="a_node1"><a xlink:title=" ">
<polygon fill="#bfbfbf" stroke="black" points="994,-79 994,-98 1102,-98 1102,-79 994,-79"/>
<text text-anchor="middle" x="1048" y="-86" font-family="Helvetica,sans-Serif" font-size="10.00">carta::Tile::Decode</text>
</a>
</g>
</g>
<!-- Node2 -->
<g id="node2" class="node">
<title>Node2</title>
<g id="a_node2"><a xlink:href="classcarta_1_1Session.html#ad769ec04ffbfb2289af256be174e3059" target="_top" xlink:title=" ">
<polygon fill="none" stroke="black" points="791,-73.5 791,-103.5 958,-103.5 958,-73.5 791,-73.5"/>
<text text-anchor="start" x="799" y="-91.5" font-family="Helvetica,sans-Serif" font-size="10.00">carta::Session::OnAddRequired</text>
<text text-anchor="middle" x="874.5" y="-80.5" font-family="Helvetica,sans-Serif" font-size="10.00">Tiles</text>
</a>
</g>
</g>
<!-- Node1&#45;&gt;Node2 -->
<g id="edge1" class="edge">
<title>Node1&#45;&gt;Node2</title>
<path fill="none" stroke="midnightblue" d="M983.67,-88.5C975.33,-88.5 966.68,-88.5 958.07,-88.5"/>
<polygon fill="midnightblue" stroke="midnightblue" points="983.68,-92 993.68,-88.5 983.68,-85 983.68,-92"/>
</g>
<!-- Node3 -->
<g id="node3" class="node">
<title>Node3</title>
<g id="a_node3"><a xlink:href="classcarta_1_1Session.html#aa550cd4106356e47e4254ecddff6f809" target="_top" xlink:title=" ">
<polygon fill="none" stroke="black" points="576,-98.5 576,-128.5 755,-128.5 755,-98.5 576,-98.5"/>
<text text-anchor="start" x="584" y="-116.5" font-family="Helvetica,sans-Serif" font-size="10.00">carta::Session::ExecuteAnimation</text>
<text text-anchor="middle" x="665.5" y="-105.5" font-family="Helvetica,sans-Serif" font-size="10.00">FrameInner</text>
</a>
</g>
</g>
<!-- Node2&#45;&gt;Node3 -->
<g id="edge2" class="edge">
<title>Node2&#45;&gt;Node3</title>
<path fill="none" stroke="midnightblue" d="M780.84,-99.69C772.31,-100.72 763.68,-101.76 755.18,-102.79"/>
<polygon fill="midnightblue" stroke="midnightblue" points="781.29,-103.16 790.8,-98.49 780.45,-96.21 781.29,-103.16"/>
</g>
<!-- Node6 -->
<g id="node6" class="node">
<title>Node6</title>
<g id="a_node6"><a xlink:href="classcarta_1_1Session.html#af5f49139f41c92e209aee736bb1cd260" target="_top" xlink:title=" ">
<polygon fill="none" stroke="black" points="590,-49.5 590,-79.5 741,-79.5 741,-49.5 590,-49.5"/>
<text text-anchor="start" x="598" y="-67.5" font-family="Helvetica,sans-Serif" font-size="10.00">carta::Session::OnSetImage</text>
<text text-anchor="middle" x="665.5" y="-56.5" font-family="Helvetica,sans-Serif" font-size="10.00">Channels</text>
</a>
</g>
</g>
<!-- Node2&#45;&gt;Node6 -->
<g id="edge5" class="edge">
<title>Node2&#45;&gt;Node6</title>
<path fill="none" stroke="midnightblue" d="M780.7,-77.74C767.42,-76.2 753.9,-74.63 741.03,-73.14"/>
<polygon fill="midnightblue" stroke="midnightblue" points="780.46,-81.24 790.8,-78.91 781.27,-74.28 780.46,-81.24"/>
</g>
<!-- Node4 -->
<g id="node4" class="node">
<title>Node4</title>
<g id="a_node4"><a xlink:href="classcarta_1_1Session.html#aa7cbd24871105659a8520975e92d4eab" target="_top" xlink:title=" ">
<polygon fill="none" stroke="black" points="361,-98.5 361,-128.5 540,-128.5 540,-98.5 361,-98.5"/>
<text text-anchor="start" x="369" y="-116.5" font-family="Helvetica,sans-Serif" font-size="10.00">carta::Session::ExecuteAnimation</text>
<text text-anchor="middle" x="450.5" y="-105.5" font-family="Helvetica,sans-Serif" font-size="10.00">Frame</text>
</a>
</g>
</g>
<!-- Node3&#45;&gt;Node4 -->
<g id="edge3" class="edge">
<title>Node3&#45;&gt;Node4</title>
<path fill="none" stroke="midnightblue" d="M565.46,-113.5C557.01,-113.5 548.5,-113.5 540.14,-113.5"/>
<polygon fill="midnightblue" stroke="midnightblue" points="565.71,-117 575.71,-113.5 565.71,-110 565.71,-117"/>
</g>
<!-- Node5 -->
<g id="node5" class="node">
<title>Node5</title>
<g id="a_node5"><a xlink:href="classcarta_1_1AnimationTask.html#a92a52915589d226cf4afd3428ffea271" target="_top" xlink:title=" ">
<polygon fill="none" stroke="black" points="185,-98.5 185,-128.5 304,-128.5 304,-98.5 185,-98.5"/>
<text text-anchor="start" x="193" y="-116.5" font-family="Helvetica,sans-Serif" font-size="10.00">carta::AnimationTask</text>
<text text-anchor="middle" x="244.5" y="-105.5" font-family="Helvetica,sans-Serif" font-size="10.00">::execute</text>
</a>
</g>
</g>
<!-- Node4&#45;&gt;Node5 -->
<g id="edge4" class="edge">
<title>Node4&#45;&gt;Node5</title>
<path fill="none" stroke="midnightblue" d="M350.49,-113.5C334.58,-113.5 318.58,-113.5 304.03,-113.5"/>
<polygon fill="midnightblue" stroke="midnightblue" points="350.91,-117 360.91,-113.5 350.91,-110 350.91,-117"/>
</g>
<!-- Node7 -->
<g id="node7" class="node">
<title>Node7</title>
<g id="a_node7"><a xlink:href="classcarta_1_1Session.html#a258addc8994b72cb71c51280d3850bf4" target="_top" xlink:title=" ">
<polygon fill="none" stroke="black" points="378,-49.5 378,-79.5 523,-79.5 523,-49.5 378,-49.5"/>
<text text-anchor="start" x="386" y="-67.5" font-family="Helvetica,sans-Serif" font-size="10.00">carta::Session::ExecuteSet</text>
<text text-anchor="middle" x="450.5" y="-56.5" font-family="Helvetica,sans-Serif" font-size="10.00">ChannelEvt</text>
</a>
</g>
</g>
<!-- Node6&#45;&gt;Node7 -->
<g id="edge6" class="edge">
<title>Node6&#45;&gt;Node7</title>
<path fill="none" stroke="midnightblue" d="M579.46,-64.5C560.84,-64.5 541.3,-64.5 523.25,-64.5"/>
<polygon fill="midnightblue" stroke="midnightblue" points="579.7,-68 589.7,-64.5 579.7,-61 579.7,-68"/>
</g>
<!-- Node9 -->
<g id="node9" class="node">
<title>Node9</title>
<g id="a_node9"><a xlink:href="classcarta_1_1Session.html#afe5c090c017ef208f638b96a7eb1ecf0" target="_top" xlink:title=" ">
<polygon fill="none" stroke="black" points="378.5,-0.5 378.5,-30.5 522.5,-30.5 522.5,-0.5 378.5,-0.5"/>
<text text-anchor="start" x="386.5" y="-18.5" font-family="Helvetica,sans-Serif" font-size="10.00">carta::Session::OnResume</text>
<text text-anchor="middle" x="450.5" y="-7.5" font-family="Helvetica,sans-Serif" font-size="10.00">Session</text>
</a>
</g>
</g>
<!-- Node6&#45;&gt;Node9 -->
<g id="edge8" class="edge">
<title>Node6&#45;&gt;Node9</title>
<path fill="none" stroke="midnightblue" d="M589.16,-47.17C565.52,-41.73 539.62,-35.77 516.73,-30.51"/>
<polygon fill="midnightblue" stroke="midnightblue" points="588.62,-50.63 599.15,-49.47 590.18,-43.81 588.62,-50.63"/>
</g>
<!-- Node8 -->
<g id="node8" class="node">
<title>Node8</title>
<g id="a_node8"><a xlink:href="classcarta_1_1SetImageChannelsTask.html#a060a6a6a22fa9d26231e36e640534527" target="_top" xlink:title=" ">
<polygon fill="none" stroke="black" points="164,-49.5 164,-79.5 325,-79.5 325,-49.5 164,-49.5"/>
<text text-anchor="start" x="172" y="-67.5" font-family="Helvetica,sans-Serif" font-size="10.00">carta::SetImageChannelsTask</text>
<text text-anchor="middle" x="244.5" y="-56.5" font-family="Helvetica,sans-Serif" font-size="10.00">::execute</text>
</a>
</g>
</g>
<!-- Node7&#45;&gt;Node8 -->
<g id="edge7" class="edge">
<title>Node7&#45;&gt;Node8</title>
<path fill="none" stroke="midnightblue" d="M367.78,-64.5C353.79,-64.5 339.26,-64.5 325.31,-64.5"/>
<polygon fill="midnightblue" stroke="midnightblue" points="367.86,-68 377.86,-64.5 367.86,-61 367.86,-68"/>
</g>
<!-- Node10 -->
<g id="node10" class="node">
<title>Node10</title>
<g id="a_node10"><a xlink:href="classcarta_1_1SessionManager.html#a474c31666cb3b22fcbe8af5f945d2950" target="_top" xlink:title=" ">
<polygon fill="none" stroke="black" points="180.5,-0.5 180.5,-30.5 308.5,-30.5 308.5,-0.5 180.5,-0.5"/>
<text text-anchor="start" x="188.5" y="-18.5" font-family="Helvetica,sans-Serif" font-size="10.00">carta::SessionManager</text>
<text text-anchor="middle" x="244.5" y="-7.5" font-family="Helvetica,sans-Serif" font-size="10.00">::OnMessage</text>
</a>
</g>
</g>
<!-- Node9&#45;&gt;Node10 -->
<g id="edge9" class="edge">
<title>Node9&#45;&gt;Node10</title>
<path fill="none" stroke="midnightblue" d="M368.22,-15.5C348.45,-15.5 327.61,-15.5 308.82,-15.5"/>
<polygon fill="midnightblue" stroke="midnightblue" points="368.44,-19 378.44,-15.5 368.44,-12 368.44,-19"/>
</g>
<!-- Node11 -->
<g id="node11" class="node">
<title>Node11</title>
<g id="a_node11"><a xlink:href="classcarta_1_1SessionManager.html#ab4e4e7f0244bd6843e70ab91652debf6" target="_top" xlink:title=" ">
<polygon fill="none" stroke="black" points="0,-0.5 0,-30.5 128,-30.5 128,-0.5 0,-0.5"/>
<text text-anchor="start" x="8" y="-18.5" font-family="Helvetica,sans-Serif" font-size="10.00">carta::SessionManager</text>
<text text-anchor="middle" x="64" y="-7.5" font-family="Helvetica,sans-Serif" font-size="10.00">::RunApp</text>
</a>
</g>
</g>
<!-- Node10&#45;&gt;Node11 -->
<g id="edge10" class="edge">
<title>Node10&#45;&gt;Node11</title>
<path fill="none" stroke="midnightblue" d="M170.25,-15.5C156.26,-15.5 141.73,-15.5 128.1,-15.5"/>
<polygon fill="midnightblue" stroke="midnightblue" points="170.32,-19 180.32,-15.5 170.32,-12 170.32,-19"/>
</g>
</g>
</svg>
