<?xml version="1.0" encoding="UTF-8" standalone="no"?>
<!DOCTYPE svg PUBLIC "-//W3C//DTD SVG 1.1//EN"
 "http://www.w3.org/Graphics/SVG/1.1/DTD/svg11.dtd">
<!-- Generated by graphviz version 2.43.0 (0)
 -->
<!-- Title: StokesSource::IsOriginalImage Pages: 1 -->
<svg width="932pt" height="629pt"
 viewBox="0.00 0.00 932.00 629.16" xmlns="http://www.w3.org/2000/svg" xmlns:xlink="http://www.w3.org/1999/xlink">
<g id="graph0" class="graph" transform="scale(1 1) rotate(0) translate(4 625.16)">
<title>StokesSource::IsOriginalImage</title>
<!-- Node1 -->
<g id="node1" class="node">
<title>Node1</title>
<g id="a_node1"><a xlink:title=" ">
<polygon fill="#bfbfbf" stroke="black" points="790,-347.5 790,-377.5 924,-377.5 924,-347.5 790,-347.5"/>
<text text-anchor="start" x="798" y="-365.5" font-family="Helvetica,sans-Serif" font-size="10.00">StokesSource::IsOriginal</text>
<text text-anchor="middle" x="857" y="-354.5" font-family="Helvetica,sans-Serif" font-size="10.00">Image</text>
</a>
</g>
</g>
<!-- Node2 -->
<g id="node2" class="node">
<title>Node2</title>
<g id="a_node2"><a xlink:href="classcarta_1_1Region.html#ad761974201dc977416905a55ed35fb86" target="_top" xlink:title=" ">
<polygon fill="none" stroke="black" points="604.5,-543.5 604.5,-573.5 744.5,-573.5 744.5,-543.5 604.5,-543.5"/>
<text text-anchor="start" x="612.5" y="-561.5" font-family="Helvetica,sans-Serif" font-size="10.00">carta::Region::GetCached</text>
<text text-anchor="middle" x="674.5" y="-550.5" font-family="Helvetica,sans-Serif" font-size="10.00">LCRegion</text>
</a>
</g>
</g>
<!-- Node1&#45;&gt;Node2 -->
<g id="edge1" class="edge">
<title>Node1&#45;&gt;Node2</title>
<path fill="none" stroke="midnightblue" d="M846.81,-387.3C832.33,-423.2 800.92,-489.58 754,-528.5 746.7,-534.55 738.05,-539.47 729.2,-543.43"/>
<polygon fill="midnightblue" stroke="midnightblue" points="850.21,-388.21 850.6,-377.62 843.7,-385.65 850.21,-388.21"/>
</g>
<!-- Node3 -->
<g id="node3" class="node">
<title>Node3</title>
<g id="a_node3"><a xlink:href="classcarta_1_1Region.html#a946ec39c21a09a141d917b553ba56551" target="_top" xlink:title=" ">
<polygon fill="none" stroke="black" points="377,-590 377,-609 546,-609 546,-590 377,-590"/>
<text text-anchor="middle" x="461.5" y="-597" font-family="Helvetica,sans-Serif" font-size="10.00">carta::Region::GetImageRegion</text>
</a>
</g>
</g>
<!-- Node1&#45;&gt;Node3 -->
<g id="edge9" class="edge">
<title>Node1&#45;&gt;Node3</title>
<path fill="none" stroke="midnightblue" d="M852.76,-387.76C845.17,-435.37 821.46,-537.69 754,-583.5 677.27,-635.61 561.28,-621.4 501.37,-609.05"/>
<polygon fill="midnightblue" stroke="midnightblue" points="856.25,-388.09 854.26,-377.69 849.33,-387.07 856.25,-388.09"/>
</g>
<!-- Node5 -->
<g id="node5" class="node">
<title>Node5</title>
<g id="a_node5"><a xlink:href="classcarta_1_1Hdf5Loader.html#af2e0b172ffce7502373066db92815ced" target="_top" xlink:title=" ">
<polygon fill="none" stroke="black" points="189.5,-477.5 189.5,-507.5 299.5,-507.5 299.5,-477.5 189.5,-477.5"/>
<text text-anchor="start" x="197.5" y="-495.5" font-family="Helvetica,sans-Serif" font-size="10.00">carta::Hdf5Loader::</text>
<text text-anchor="middle" x="244.5" y="-484.5" font-family="Helvetica,sans-Serif" font-size="10.00">GetChunk</text>
</a>
</g>
</g>
<!-- Node1&#45;&gt;Node5 -->
<g id="edge4" class="edge">
<title>Node1&#45;&gt;Node5</title>
<path fill="none" stroke="midnightblue" d="M835.81,-385.33C816.7,-405.49 786.23,-434.16 754,-450.5 603.89,-526.62 396.5,-512.89 299.54,-500.74"/>
<polygon fill="midnightblue" stroke="midnightblue" points="838.56,-387.51 842.79,-377.8 833.43,-382.75 838.56,-387.51"/>
</g>
<!-- Node6 -->
<g id="node6" class="node">
<title>Node6</title>
<g id="a_node6"><a xlink:href="classcarta_1_1RegionConverter.html#a0363c9591e779bc148c9789512976633" target="_top" xlink:title=" ">
<polygon fill="none" stroke="black" points="606.5,-284.5 606.5,-314.5 742.5,-314.5 742.5,-284.5 606.5,-284.5"/>
<text text-anchor="start" x="614.5" y="-302.5" font-family="Helvetica,sans-Serif" font-size="10.00">carta::RegionConverter</text>
<text text-anchor="middle" x="674.5" y="-291.5" font-family="Helvetica,sans-Serif" font-size="10.00">::GetConvertedLCRegion</text>
</a>
</g>
</g>
<!-- Node1&#45;&gt;Node6 -->
<g id="edge5" class="edge">
<title>Node1&#45;&gt;Node6</title>
<path fill="none" stroke="midnightblue" d="M803.13,-344.05C776.27,-334.67 744.05,-323.42 718.69,-314.58"/>
<polygon fill="midnightblue" stroke="midnightblue" points="802.17,-347.42 812.77,-347.41 804.48,-340.81 802.17,-347.42"/>
</g>
<!-- Node7 -->
<g id="node7" class="node">
<title>Node7</title>
<g id="a_node7"><a xlink:href="classcarta_1_1RegionConverter.html#a89824e293ea029863be230ee9136a9c1" target="_top" xlink:title=" ">
<polygon fill="none" stroke="black" points="397,-308.5 397,-338.5 526,-338.5 526,-308.5 397,-308.5"/>
<text text-anchor="start" x="405" y="-326.5" font-family="Helvetica,sans-Serif" font-size="10.00">carta::RegionConverter</text>
<text text-anchor="middle" x="461.5" y="-315.5" font-family="Helvetica,sans-Serif" font-size="10.00">::GetImageRegion</text>
</a>
</g>
</g>
<!-- Node1&#45;&gt;Node7 -->
<g id="edge10" class="edge">
<title>Node1&#45;&gt;Node7</title>
<path fill="none" stroke="midnightblue" d="M779.53,-354.92C705.73,-347.61 595.29,-336.66 526.14,-329.81"/>
<polygon fill="midnightblue" stroke="midnightblue" points="779.4,-358.42 789.69,-355.93 780.09,-351.46 779.4,-358.42"/>
</g>
<!-- Node9 -->
<g id="node9" class="node">
<title>Node9</title>
<g id="a_node9"><a xlink:href="classcarta_1_1FileLoader.html#a6c78d61804342a45dbf7e3e668357f2c" target="_top" xlink:title=" ">
<polygon fill="none" stroke="black" points="399.5,-357.5 399.5,-387.5 523.5,-387.5 523.5,-357.5 399.5,-357.5"/>
<text text-anchor="start" x="407.5" y="-375.5" font-family="Helvetica,sans-Serif" font-size="10.00">carta::FileLoader::</text>
<text text-anchor="middle" x="461.5" y="-364.5" font-family="Helvetica,sans-Serif" font-size="10.00">GetCoordinateSystem</text>
</a>
</g>
</g>
<!-- Node1&#45;&gt;Node9 -->
<g id="edge8" class="edge">
<title>Node1&#45;&gt;Node9</title>
<path fill="none" stroke="midnightblue" d="M779.41,-364.45C704.68,-366.35 592.48,-369.2 523.57,-370.95"/>
<polygon fill="midnightblue" stroke="midnightblue" points="779.79,-367.94 789.69,-364.19 779.61,-360.94 779.79,-367.94"/>
</g>
<!-- Node10 -->
<g id="node10" class="node">
<title>Node10</title>
<g id="a_node10"><a xlink:href="classcarta_1_1Frame.html#a10cd86b1997bfb9a7bb2fc6388db469c" target="_top" xlink:title=" ">
<polygon fill="none" stroke="black" points="595,-246 595,-265 754,-265 754,-246 595,-246"/>
<text text-anchor="middle" x="674.5" y="-253" font-family="Helvetica,sans-Serif" font-size="10.00">carta::Frame::GetImageSlicer</text>
</a>
</g>
</g>
<!-- Node1&#45;&gt;Node10 -->
<g id="edge11" class="edge">
<title>Node1&#45;&gt;Node10</title>
<path fill="none" stroke="midnightblue" d="M835.34,-339.77C816.12,-319.98 785.75,-291.94 754,-275.5 745.63,-271.17 736.27,-267.73 727,-265.02"/>
<polygon fill="midnightblue" stroke="midnightblue" points="832.95,-342.34 842.38,-347.17 838.02,-337.51 832.95,-342.34"/>
</g>
<!-- Node11 -->
<g id="node11" class="node">
<title>Node11</title>
<g id="a_node11"><a xlink:href="classcarta_1_1Frame.html#abdae48af7ad841100f029acbc0734007" target="_top" xlink:title=" ">
<polygon fill="none" stroke="black" points="595.5,-208 595.5,-227 753.5,-227 753.5,-208 595.5,-208"/>
<text text-anchor="middle" x="674.5" y="-215" font-family="Helvetica,sans-Serif" font-size="10.00">carta::Frame::GetRegionData</text>
</a>
</g>
</g>
<!-- Node1&#45;&gt;Node11 -->
<g id="edge12" class="edge">
<title>Node1&#45;&gt;Node11</title>
<path fill="none" stroke="midnightblue" d="M843.1,-338.41C826.41,-309.63 794.61,-262.18 754,-236.5 747.84,-232.6 740.94,-229.51 733.86,-227.04"/>
<polygon fill="midnightblue" stroke="midnightblue" points="840.21,-340.4 848.17,-347.39 846.3,-336.96 840.21,-340.4"/>
</g>
<!-- Node13 -->
<g id="node13" class="node">
<title>Node13</title>
<g id="a_node13"><a xlink:href="classcarta_1_1FileLoader.html#a5680d87d09f6ddb4cc1bb1a3d713d2c3" target="_top" xlink:title=" ">
<polygon fill="none" stroke="black" points="622.5,-410.5 622.5,-440.5 726.5,-440.5 726.5,-410.5 622.5,-410.5"/>
<text text-anchor="start" x="630.5" y="-428.5" font-family="Helvetica,sans-Serif" font-size="10.00">carta::FileLoader::</text>
<text text-anchor="middle" x="674.5" y="-417.5" font-family="Helvetica,sans-Serif" font-size="10.00">GetStokesImage</text>
</a>
</g>
</g>
<!-- Node1&#45;&gt;Node13 -->
<g id="edge14" class="edge">
<title>Node1&#45;&gt;Node13</title>
<path fill="none" stroke="midnightblue" d="M803.13,-380.95C776.27,-390.33 744.05,-401.58 718.69,-410.42"/>
<polygon fill="midnightblue" stroke="midnightblue" points="804.48,-384.19 812.77,-377.59 802.17,-377.58 804.48,-384.19"/>
</g>
<!-- Node16 -->
<g id="node16" class="node">
<title>Node16</title>
<g id="a_node16"><a xlink:href="classcarta_1_1Frame.html#aeff1a00d7f22df6f180888b1d9eaf457" target="_top" xlink:title=" ">
<polygon fill="none" stroke="black" points="602,-137 602,-156 747,-156 747,-137 602,-137"/>
<text text-anchor="middle" x="674.5" y="-144" font-family="Helvetica,sans-Serif" font-size="10.00">carta::Frame::ImageShape</text>
</a>
</g>
</g>
<!-- Node1&#45;&gt;Node16 -->
<g id="edge19" class="edge">
<title>Node1&#45;&gt;Node16</title>
<path fill="none" stroke="midnightblue" d="M845.05,-338.25C828.8,-304.14 795.68,-241.4 754,-198.5 736.46,-180.45 711.61,-165.3 694.6,-156.09"/>
<polygon fill="midnightblue" stroke="midnightblue" points="841.96,-339.89 849.36,-347.46 848.3,-336.92 841.96,-339.89"/>
</g>
<!-- Node2&#45;&gt;Node3 -->
<g id="edge2" class="edge">
<title>Node2&#45;&gt;Node3</title>
<path fill="none" stroke="midnightblue" d="M594.32,-573.88C566.59,-579.27 536.26,-585.17 511.69,-589.94"/>
<polygon fill="midnightblue" stroke="midnightblue" points="595.26,-577.27 604.41,-571.92 593.93,-570.4 595.26,-577.27"/>
</g>
<!-- Node4 -->
<g id="node4" class="node">
<title>Node4</title>
<g id="a_node4"><a xlink:href="classcarta_1_1Region.html#a6ec0e6a0c65e9bc6ed3b9213831f053f" target="_top" xlink:title=" ">
<polygon fill="none" stroke="black" points="364,-549 364,-568 559,-568 559,-549 364,-549"/>
<text text-anchor="middle" x="461.5" y="-556" font-family="Helvetica,sans-Serif" font-size="10.00">carta::Region::GetImageRegionMask</text>
</a>
</g>
</g>
<!-- Node2&#45;&gt;Node4 -->
<g id="edge3" class="edge">
<title>Node2&#45;&gt;Node4</title>
<path fill="none" stroke="midnightblue" d="M594.12,-558.5C582.76,-558.5 570.96,-558.5 559.32,-558.5"/>
<polygon fill="midnightblue" stroke="midnightblue" points="594.41,-562 604.41,-558.5 594.41,-555 594.41,-562"/>
</g>
<!-- Node6&#45;&gt;Node7 -->
<g id="edge6" class="edge">
<title>Node6&#45;&gt;Node7</title>
<path fill="none" stroke="midnightblue" d="M596.35,-308.28C573.27,-310.9 548.24,-313.75 526.14,-316.26"/>
<polygon fill="midnightblue" stroke="midnightblue" points="596.91,-311.73 606.45,-307.13 596.12,-304.78 596.91,-311.73"/>
</g>
<!-- Node8 -->
<g id="node8" class="node">
<title>Node8</title>
<g id="a_node8"><a xlink:href="classcarta_1_1RegionConverter.html#a27a07e5b73b1f32aefadb83b9ba61994" target="_top" xlink:title=" ">
<polygon fill="none" stroke="black" points="392.5,-259.5 392.5,-289.5 530.5,-289.5 530.5,-259.5 392.5,-259.5"/>
<text text-anchor="start" x="400.5" y="-277.5" font-family="Helvetica,sans-Serif" font-size="10.00">carta::RegionConverter</text>
<text text-anchor="middle" x="461.5" y="-266.5" font-family="Helvetica,sans-Serif" font-size="10.00">::GetImageRegionRecord</text>
</a>
</g>
</g>
<!-- Node6&#45;&gt;Node8 -->
<g id="edge7" class="edge">
<title>Node6&#45;&gt;Node8</title>
<path fill="none" stroke="midnightblue" d="M596.39,-290.36C574.92,-287.82 551.76,-285.08 530.83,-282.6"/>
<polygon fill="midnightblue" stroke="midnightblue" points="596.11,-293.85 606.45,-291.56 596.93,-286.9 596.11,-293.85"/>
</g>
<!-- Node12 -->
<g id="node12" class="node">
<title>Node12</title>
<g id="a_node12"><a xlink:href="classcarta_1_1Frame.html#aeb6afc8204ae9f00c0517b4f28be32d5" target="_top" xlink:title=" ">
<polygon fill="none" stroke="black" points="181,-175 181,-194 308,-194 308,-175 181,-175"/>
<text text-anchor="middle" x="244.5" y="-182" font-family="Helvetica,sans-Serif" font-size="10.00">carta::Frame::FitImage</text>
</a>
</g>
</g>
<!-- Node11&#45;&gt;Node12 -->
<g id="edge13" class="edge">
<title>Node11&#45;&gt;Node12</title>
<path fill="none" stroke="midnightblue" d="M585.27,-216.18C523.24,-214.59 438.38,-211.12 364,-203.5 341.82,-201.23 317.48,-197.54 296.66,-194.01"/>
<polygon fill="midnightblue" stroke="midnightblue" points="585.33,-219.68 595.41,-216.42 585.5,-212.68 585.33,-219.68"/>
</g>
<!-- Node13&#45;&gt;Node9 -->
<g id="edge15" class="edge">
<title>Node13&#45;&gt;Node9</title>
<path fill="none" stroke="midnightblue" d="M612.64,-410.21C584.3,-403.09 550.69,-394.65 522.47,-387.56"/>
<polygon fill="midnightblue" stroke="midnightblue" points="611.87,-413.63 622.42,-412.67 613.58,-406.84 611.87,-413.63"/>
</g>
<!-- Node14 -->
<g id="node14" class="node">
<title>Node14</title>
<g id="a_node14"><a xlink:href="classcarta_1_1FileLoader.html#a1ef8462007320a75dcdc04929cdb28b0" target="_top" xlink:title=" ">
<polygon fill="none" stroke="black" points="409.5,-455.5 409.5,-485.5 513.5,-485.5 513.5,-455.5 409.5,-455.5"/>
<text text-anchor="start" x="417.5" y="-473.5" font-family="Helvetica,sans-Serif" font-size="10.00">carta::FileLoader::</text>
<text text-anchor="middle" x="461.5" y="-462.5" font-family="Helvetica,sans-Serif" font-size="10.00">GetSlice</text>
</a>
</g>
</g>
<!-- Node13&#45;&gt;Node14 -->
<g id="edge16" class="edge">
<title>Node13&#45;&gt;Node14</title>
<path fill="none" stroke="midnightblue" d="M612.51,-438.51C581.25,-445.17 543.6,-453.2 513.84,-459.55"/>
<polygon fill="midnightblue" stroke="midnightblue" points="613.37,-441.9 622.42,-436.39 611.91,-435.06 613.37,-441.9"/>
</g>
<!-- Node15 -->
<g id="node15" class="node">
<title>Node15</title>
<g id="a_node15"><a xlink:href="classcarta_1_1FileLoader.html#a96c849a9ee61ae91b8f8e7393d54133c" target="_top" xlink:title=" ">
<polygon fill="none" stroke="black" points="409.5,-406.5 409.5,-436.5 513.5,-436.5 513.5,-406.5 409.5,-406.5"/>
<text text-anchor="start" x="417.5" y="-424.5" font-family="Helvetica,sans-Serif" font-size="10.00">carta::FileLoader::</text>
<text text-anchor="middle" x="461.5" y="-413.5" font-family="Helvetica,sans-Serif" font-size="10.00">GetSubImage</text>
</a>
</g>
</g>
<!-- Node13&#45;&gt;Node15 -->
<g id="edge18" class="edge">
<title>Node13&#45;&gt;Node15</title>
<path fill="none" stroke="midnightblue" d="M612.11,-424.34C580.92,-423.75 543.47,-423.03 513.84,-422.47"/>
<polygon fill="midnightblue" stroke="midnightblue" points="612.36,-427.84 622.42,-424.53 612.49,-420.84 612.36,-427.84"/>
</g>
<!-- Node14&#45;&gt;Node5 -->
<g id="edge17" class="edge">
<title>Node14&#45;&gt;Node5</title>
<path fill="none" stroke="midnightblue" d="M398.92,-476.8C367.62,-480 329.91,-483.86 299.71,-486.95"/>
<polygon fill="midnightblue" stroke="midnightblue" points="399.68,-480.24 409.28,-475.74 398.97,-473.28 399.68,-480.24"/>
</g>
<!-- Node17 -->
<g id="node17" class="node">
<title>Node17</title>
<g id="a_node17"><a xlink:href="classcarta_1_1Frame.html#adf81c6e34d99da6b4238cde332b3c4cf" target="_top" xlink:title=" ">
<polygon fill="none" stroke="black" points="378.5,-137 378.5,-156 544.5,-156 544.5,-137 378.5,-137"/>
<text text-anchor="middle" x="461.5" y="-144" font-family="Helvetica,sans-Serif" font-size="10.00">carta::Frame::GetImageRegion</text>
</a>
</g>
</g>
<!-- Node16&#45;&gt;Node17 -->
<g id="edge20" class="edge">
<title>Node16&#45;&gt;Node17</title>
<path fill="none" stroke="midnightblue" d="M591.72,-146.5C576.24,-146.5 560.05,-146.5 544.57,-146.5"/>
<polygon fill="midnightblue" stroke="midnightblue" points="591.77,-150 601.77,-146.5 591.77,-143 591.77,-150"/>
</g>
<!-- Node18 -->
<g id="node18" class="node">
<title>Node18</title>
<g id="a_node18"><a xlink:href="classcarta_1_1Frame.html#a810937ee7606b48419b7f5d3ded16155" target="_top" xlink:title=" ">
<polygon fill="none" stroke="black" points="0,-77 0,-96 125,-96 125,-77 0,-77"/>
<text text-anchor="middle" x="62.5" y="-84" font-family="Helvetica,sans-Serif" font-size="10.00">carta::Frame::SaveFile</text>
</a>
</g>
</g>
<!-- Node16&#45;&gt;Node18 -->
<g id="edge25" class="edge">
<title>Node16&#45;&gt;Node18</title>
<path fill="none" stroke="midnightblue" d="M611.89,-135.33C594.81,-132.49 576.22,-129.64 559,-127.5 403.31,-108.17 218.93,-95.62 125.08,-89.97"/>
<polygon fill="midnightblue" stroke="midnightblue" points="611.32,-138.78 621.76,-136.99 612.48,-131.88 611.32,-138.78"/>
</g>
<!-- Node19 -->
<g id="node19" class="node">
<title>Node19</title>
<g id="a_node19"><a xlink:href="classcarta_1_1Frame.html#adf31710bdcc36207949ebc1e3517f363" target="_top" xlink:title=" ">
<polygon fill="none" stroke="black" points="379,-175 379,-194 544,-194 544,-175 379,-175"/>
<text text-anchor="middle" x="461.5" y="-182" font-family="Helvetica,sans-Serif" font-size="10.00">carta::Frame::GetRegionShape</text>
</a>
</g>
</g>
<!-- Node16&#45;&gt;Node19 -->
<g id="edge23" class="edge">
<title>Node16&#45;&gt;Node19</title>
<path fill="none" stroke="midnightblue" d="M610.49,-157.85C580.22,-163.3 544.34,-169.76 515.49,-174.96"/>
<polygon fill="midnightblue" stroke="midnightblue" points="611.31,-161.26 620.53,-156.04 610.07,-154.37 611.31,-161.26"/>
</g>
<!-- Node20 -->
<g id="node20" class="node">
<title>Node20</title>
<g id="a_node20"><a xlink:href="classcarta_1_1Frame.html#a3c05bb486183edc6f1020a6428bb31e5" target="_top" xlink:title=" ">
<polygon fill="none" stroke="black" points="379.5,-49.5 379.5,-79.5 543.5,-79.5 543.5,-49.5 379.5,-49.5"/>
<text text-anchor="start" x="387.5" y="-67.5" font-family="Helvetica,sans-Serif" font-size="10.00">carta::Frame::ValidateChannel</text>
<text text-anchor="middle" x="461.5" y="-56.5" font-family="Helvetica,sans-Serif" font-size="10.00">Stokes</text>
</a>
</g>
</g>
<!-- Node16&#45;&gt;Node20 -->
<g id="edge26" class="edge">
<title>Node16&#45;&gt;Node20</title>
<path fill="none" stroke="midnightblue" d="M645.22,-132.46C622.29,-121.37 588.99,-105.92 559,-94.5 544.9,-89.13 529.38,-83.98 514.99,-79.51"/>
<polygon fill="midnightblue" stroke="midnightblue" points="643.84,-135.68 654.36,-136.92 646.91,-129.39 643.84,-135.68"/>
</g>
<!-- Node17&#45;&gt;Node12 -->
<g id="edge21" class="edge">
<title>Node17&#45;&gt;Node12</title>
<path fill="none" stroke="midnightblue" d="M396.3,-157.85C365.45,-163.3 328.89,-169.76 299.5,-174.96"/>
<polygon fill="midnightblue" stroke="midnightblue" points="397.29,-161.23 406.52,-156.04 396.07,-154.33 397.29,-161.23"/>
</g>
<!-- Node17&#45;&gt;Node18 -->
<g id="edge22" class="edge">
<title>Node17&#45;&gt;Node18</title>
<path fill="none" stroke="midnightblue" d="M368.09,-145.6C308.4,-143.43 229.38,-137.56 161,-122.5 133.69,-116.48 103.71,-104.55 84.3,-96.08"/>
<polygon fill="midnightblue" stroke="midnightblue" points="368.14,-149.1 378.25,-145.94 368.38,-142.11 368.14,-149.1"/>
</g>
<!-- Node19&#45;&gt;Node12 -->
<g id="edge24" class="edge">
<title>Node19&#45;&gt;Node12</title>
<path fill="none" stroke="midnightblue" d="M368.67,-184.5C348.3,-184.5 327.17,-184.5 308.28,-184.5"/>
<polygon fill="midnightblue" stroke="midnightblue" points="368.91,-188 378.91,-184.5 368.91,-181 368.91,-188"/>
</g>
<!-- Node21 -->
<g id="node21" class="node">
<title>Node21</title>
<g id="a_node21"><a xlink:href="classcarta_1_1Frame.html#ab8d23e30f45472bdf614e4830610289f" target="_top" xlink:title=" ">
<polygon fill="none" stroke="black" points="162.5,-49.5 162.5,-79.5 326.5,-79.5 326.5,-49.5 162.5,-49.5"/>
<text text-anchor="start" x="170.5" y="-67.5" font-family="Helvetica,sans-Serif" font-size="10.00">carta::Frame::GetExportImage</text>
<text text-anchor="middle" x="244.5" y="-56.5" font-family="Helvetica,sans-Serif" font-size="10.00">Slicer</text>
</a>
</g>
</g>
<!-- Node20&#45;&gt;Node21 -->
<g id="edge27" class="edge">
<title>Node20&#45;&gt;Node21</title>
<path fill="none" stroke="midnightblue" d="M369.02,-64.5C354.9,-64.5 340.41,-64.5 326.54,-64.5"/>
<polygon fill="midnightblue" stroke="midnightblue" points="369.22,-68 379.22,-64.5 369.22,-61 369.22,-68"/>
</g>
<!-- Node22 -->
<g id="node22" class="node">
<title>Node22</title>
<g id="a_node22"><a xlink:href="classcarta_1_1Frame.html#a789314994a5e12391e4e97d65bef436d" target="_top" xlink:title=" ">
<polygon fill="none" stroke="black" points="161,-0.5 161,-30.5 328,-30.5 328,-0.5 161,-0.5"/>
<text text-anchor="start" x="169" y="-18.5" font-family="Helvetica,sans-Serif" font-size="10.00">carta::Frame::GetExportRegion</text>
<text text-anchor="middle" x="244.5" y="-7.5" font-family="Helvetica,sans-Serif" font-size="10.00">Slicer</text>
</a>
</g>
</g>
<!-- Node20&#45;&gt;Node22 -->
<g id="edge29" class="edge">
<title>Node20&#45;&gt;Node22</title>
<path fill="none" stroke="midnightblue" d="M384.78,-47.24C360.82,-41.78 334.55,-35.79 311.34,-30.51"/>
<polygon fill="midnightblue" stroke="midnightblue" points="384,-50.66 394.53,-49.47 385.56,-43.83 384,-50.66"/>
</g>
<!-- Node21&#45;&gt;Node18 -->
<g id="edge28" class="edge">
<title>Node21&#45;&gt;Node18</title>
<path fill="none" stroke="midnightblue" d="M152.46,-75.63C143.23,-76.75 134.03,-77.88 125.22,-78.96"/>
<polygon fill="midnightblue" stroke="midnightblue" points="152.95,-79.09 162.45,-74.41 152.1,-72.15 152.95,-79.09"/>
</g>
<!-- Node22&#45;&gt;Node18 -->
<g id="edge30" class="edge">
<title>Node22&#45;&gt;Node18</title>
<path fill="none" stroke="midnightblue" d="M177.62,-33.59C171.96,-35.47 166.35,-37.45 161,-39.5 132.23,-50.53 100.3,-66.72 81.08,-76.93"/>
<polygon fill="midnightblue" stroke="midnightblue" points="178.71,-36.92 187.17,-30.53 176.58,-30.25 178.71,-36.92"/>
</g>
</g>
</svg>
