<?xml version="1.0" encoding="UTF-8" standalone="no"?>
<!DOCTYPE svg PUBLIC "-//W3C//DTD SVG 1.1//EN"
 "http://www.w3.org/Graphics/SVG/1.1/DTD/svg11.dtd">
<!-- Generated by graphviz version 2.43.0 (0)
 -->
<!-- Title: carta::ProgramSettings Pages: 1 -->
<svg width="861pt" height="828pt"
 viewBox="0.00 0.00 861.00 828.02" xmlns="http://www.w3.org/2000/svg" xmlns:xlink="http://www.w3.org/1999/xlink">
<g id="graph0" class="graph" transform="scale(1 1) rotate(0) translate(4 824.02)">
<title>carta::ProgramSettings</title>
<!-- Node1 -->
<g id="Node000001" class="node">
<title>Node1</title>
<g id="a_Node000001"><a xlink:title=" ">
<polygon fill="#999999" stroke="#666666" points="853,-354.52 725,-354.52 725,-335.52 853,-335.52 853,-354.52"/>
<text text-anchor="middle" x="789" y="-342.52" font-family="Helvetica,sans-Serif" font-size="10.00">carta::ProgramSettings</text>
</a>
</g>
</g>
<!-- Node2 -->
<g id="Node000002" class="node">
<title>Node2</title>
<g id="a_Node000002"><a xlink:title=" ">
<polygon fill="white" stroke="#666666" points="260,-603.52 222,-603.52 222,-584.52 260,-584.52 260,-603.52"/>
<text text-anchor="middle" x="241" y="-591.52" font-family="Helvetica,sans-Serif" font-size="10.00">bool</text>
</a>
</g>
</g>
<!-- Node2&#45;&gt;Node1 -->
<g id="edge1_Node000001_Node000002" class="edge">
<title>Node2&#45;&gt;Node1</title>
<g id="a_edge1_Node000001_Node000002"><a xlink:title=" ">
<path fill="none" stroke="#9a32cd" stroke-dasharray="5,2" d="M270.1,-596.72C359.86,-604.75 637.88,-624.84 707,-573.02 780.27,-518.08 787.49,-391.37 788.02,-354.96"/>
<polygon fill="#9a32cd" stroke="#9a32cd" points="270.39,-593.23 260.11,-595.8 269.75,-600.2 270.39,-593.23"/>
</a>
</g>
<text text-anchor="middle" x="499" y="-720.02" font-family="Helvetica,sans-Serif" font-size="10.00" fill="grey"> controller_deployment</text>
<text text-anchor="middle" x="499" y="-709.02" font-family="Helvetica,sans-Serif" font-size="10.00" fill="grey">debug_no_auth</text>
<text text-anchor="middle" x="499" y="-698.02" font-family="Helvetica,sans-Serif" font-size="10.00" fill="grey">enable_scripting</text>
<text text-anchor="middle" x="499" y="-687.02" font-family="Helvetica,sans-Serif" font-size="10.00" fill="grey">help</text>
<text text-anchor="middle" x="499" y="-676.02" font-family="Helvetica,sans-Serif" font-size="10.00" fill="grey">log_performance</text>
<text text-anchor="middle" x="499" y="-665.02" font-family="Helvetica,sans-Serif" font-size="10.00" fill="grey">log_protocol_messages</text>
<text text-anchor="middle" x="499" y="-654.02" font-family="Helvetica,sans-Serif" font-size="10.00" fill="grey">no_browser</text>
<text text-anchor="middle" x="499" y="-643.02" font-family="Helvetica,sans-Serif" font-size="10.00" fill="grey">no_database</text>
<text text-anchor="middle" x="499" y="-632.02" font-family="Helvetica,sans-Serif" font-size="10.00" fill="grey">no_frontend</text>
<text text-anchor="middle" x="499" y="-621.02" font-family="Helvetica,sans-Serif" font-size="10.00" fill="grey">no_http</text>
<text text-anchor="middle" x="499" y="-610.02" font-family="Helvetica,sans-Serif" font-size="10.00" fill="grey">...</text>
</g>
<!-- Node12 -->
<g id="Node000012" class="node">
<title>Node12</title>
<g id="a_Node000012"><a xlink:title=" ">
<polygon fill="white" stroke="#666666" points="560.5,-568.02 437.5,-568.02 437.5,-538.02 560.5,-538.02 560.5,-568.02"/>
<text text-anchor="start" x="445.5" y="-556.02" font-family="Helvetica,sans-Serif" font-size="10.00">std::unordered_map</text>
<text text-anchor="middle" x="499" y="-545.02" font-family="Helvetica,sans-Serif" font-size="10.00">&lt; std::string, bool * &gt;</text>
</a>
</g>
</g>
<!-- Node2&#45;&gt;Node12 -->
<g id="edge18_Node000012_Node000002" class="edge">
<title>Node2&#45;&gt;Node12</title>
<g id="a_edge18_Node000012_Node000002"><a xlink:title=" ">
<path fill="none" stroke="#9a32cd" stroke-dasharray="5,2" d="M269.94,-587.44C282.45,-584.62 297.42,-581.43 311,-579.02 352.95,-571.55 400.52,-564.96 437.18,-560.29"/>
<polygon fill="#9a32cd" stroke="#9a32cd" points="269.05,-584.05 260.09,-589.69 270.61,-590.87 269.05,-584.05"/>
</a>
</g>
<text text-anchor="middle" x="361" y="-582.02" font-family="Helvetica,sans-Serif" font-size="10.00" fill="grey"> elements</text>
</g>
<!-- Node3 -->
<g id="Node000003" class="node">
<title>Node3</title>
<g id="a_Node000003"><a xlink:title=" ">
<polygon fill="white" stroke="#666666" points="293,-495.52 189,-495.52 189,-476.52 293,-476.52 293,-495.52"/>
<text text-anchor="middle" x="241" y="-483.52" font-family="Helvetica,sans-Serif" font-size="10.00">std::vector&lt; int &gt;</text>
</a>
</g>
</g>
<!-- Node3&#45;&gt;Node1 -->
<g id="edge2_Node000001_Node000003" class="edge">
<title>Node3&#45;&gt;Node1</title>
<g id="a_edge2_Node000001_Node000003"><a xlink:title=" ">
<path fill="none" stroke="#9a32cd" stroke-dasharray="5,2" d="M303.2,-488.72C413.81,-492.46 641.64,-494.66 707,-453.02 746.53,-427.83 773.73,-376.08 783.74,-354.64"/>
<polygon fill="#9a32cd" stroke="#9a32cd" points="303.31,-485.22 293.19,-488.36 303.06,-492.21 303.31,-485.22"/>
</a>
</g>
<text text-anchor="middle" x="499" y="-493.02" font-family="Helvetica,sans-Serif" font-size="10.00" fill="grey"> port</text>
</g>
<!-- Node14 -->
<g id="Node000014" class="node">
<title>Node14</title>
<g id="a_Node000014"><a xlink:title=" ">
<polygon fill="white" stroke="#666666" points="556,-424.52 442,-424.52 442,-383.52 556,-383.52 556,-424.52"/>
<text text-anchor="start" x="450" y="-412.52" font-family="Helvetica,sans-Serif" font-size="10.00">std::unordered_map</text>
<text text-anchor="start" x="450" y="-401.52" font-family="Helvetica,sans-Serif" font-size="10.00">&lt; std::string, std::</text>
<text text-anchor="middle" x="499" y="-390.52" font-family="Helvetica,sans-Serif" font-size="10.00">vector&lt; int &gt; * &gt;</text>
</a>
</g>
</g>
<!-- Node3&#45;&gt;Node14 -->
<g id="edge23_Node000014_Node000003" class="edge">
<title>Node3&#45;&gt;Node14</title>
<g id="a_edge23_Node000014_Node000003"><a xlink:title=" ">
<path fill="none" stroke="#9a32cd" stroke-dasharray="5,2" d="M275.45,-472.97C286.66,-468.85 299.28,-464.47 311,-461.02 354.74,-448.11 367.42,-451.46 411,-438.02 423.55,-434.14 436.87,-429.32 449.21,-424.53"/>
<polygon fill="#9a32cd" stroke="#9a32cd" points="274.17,-469.71 266.03,-476.5 276.62,-476.27 274.17,-469.71"/>
</a>
</g>
<text text-anchor="middle" x="361" y="-464.02" font-family="Helvetica,sans-Serif" font-size="10.00" fill="grey"> elements</text>
</g>
<!-- Node4 -->
<g id="Node000004" class="node">
<title>Node4</title>
<g id="a_Node000004"><a xlink:title=" ">
<polygon fill="white" stroke="#666666" points="66.5,-554.52 37.5,-554.52 37.5,-535.52 66.5,-535.52 66.5,-554.52"/>
<text text-anchor="middle" x="52" y="-542.52" font-family="Helvetica,sans-Serif" font-size="10.00">int</text>
</a>
</g>
</g>
<!-- Node4&#45;&gt;Node1 -->
<g id="edge4_Node000001_Node000004" class="edge">
<title>Node4&#45;&gt;Node1</title>
<g id="a_edge4_Node000001_Node000004"><a xlink:title=" ">
<path fill="none" stroke="#9a32cd" stroke-dasharray="5,2" d="M71.26,-561.47C138.18,-619.7 376.2,-808.53 569,-732.02 647.32,-700.94 662.22,-673.4 707,-602.02 761.2,-515.63 781.83,-390 786.76,-354.61"/>
<polygon fill="#9a32cd" stroke="#9a32cd" points="73.44,-558.73 63.62,-554.74 68.81,-563.98 73.44,-558.73"/>
</a>
</g>
<text text-anchor="middle" x="361" y="-812.02" font-family="Helvetica,sans-Serif" font-size="10.00" fill="grey"> event_thread_count</text>
<text text-anchor="start" x="311" y="-801.02" font-family="Helvetica,sans-Serif" font-size="10.00" fill="grey">idle_session_wait</text>
<text text-anchor="middle" x="361" y="-790.02" font-family="Helvetica,sans-Serif" font-size="10.00" fill="grey">_time</text>
<text text-anchor="middle" x="361" y="-779.02" font-family="Helvetica,sans-Serif" font-size="10.00" fill="grey">init_wait_time</text>
<text text-anchor="middle" x="361" y="-768.02" font-family="Helvetica,sans-Serif" font-size="10.00" fill="grey">omp_thread_count</text>
<text text-anchor="middle" x="361" y="-757.02" font-family="Helvetica,sans-Serif" font-size="10.00" fill="grey">verbosity</text>
<text text-anchor="middle" x="361" y="-746.02" font-family="Helvetica,sans-Serif" font-size="10.00" fill="grey">wait_time</text>
</g>
<!-- Node4&#45;&gt;Node3 -->
<g id="edge3_Node000003_Node000004" class="edge">
<title>Node4&#45;&gt;Node3</title>
<g id="a_edge3_Node000003_Node000004"><a xlink:title=" ">
<path fill="none" stroke="#9a32cd" stroke-dasharray="5,2" d="M76.02,-536.24C89.37,-531.26 106.55,-525.04 122,-520.02 149.58,-511.06 181.16,-502.02 204.7,-495.52"/>
<polygon fill="#9a32cd" stroke="#9a32cd" points="74.78,-532.97 66.65,-539.76 77.24,-539.52 74.78,-532.97"/>
</a>
</g>
<text text-anchor="middle" x="146.5" y="-523.02" font-family="Helvetica,sans-Serif" font-size="10.00" fill="grey"> elements</text>
</g>
<!-- Node11 -->
<g id="Node000011" class="node">
<title>Node11</title>
<g id="a_Node000011"><a xlink:title=" ">
<polygon fill="white" stroke="#666666" points="556.5,-473.02 441.5,-473.02 441.5,-443.02 556.5,-443.02 556.5,-473.02"/>
<text text-anchor="start" x="449.5" y="-461.02" font-family="Helvetica,sans-Serif" font-size="10.00">std::unordered_map</text>
<text text-anchor="middle" x="499" y="-450.02" font-family="Helvetica,sans-Serif" font-size="10.00">&lt; std::string, int * &gt;</text>
</a>
</g>
</g>
<!-- Node4&#45;&gt;Node11 -->
<g id="edge15_Node000011_Node000004" class="edge">
<title>Node4&#45;&gt;Node11</title>
<g id="a_edge15_Node000011_Node000004"><a xlink:title=" ">
<path fill="none" stroke="#9a32cd" stroke-dasharray="5,2" d="M77.11,-547.34C148.5,-553.73 357.19,-568.69 411,-531.02 428.31,-518.9 414.13,-502.03 429,-487.02 434.58,-481.38 441.42,-476.79 448.6,-473.06"/>
<polygon fill="#9a32cd" stroke="#9a32cd" points="77.15,-543.83 66.87,-546.4 76.51,-550.8 77.15,-543.83"/>
</a>
</g>
<text text-anchor="middle" x="241" y="-558.02" font-family="Helvetica,sans-Serif" font-size="10.00" fill="grey"> elements</text>
</g>
<!-- Node5 -->
<g id="Node000005" class="node">
<title>Node5</title>
<g id="a_Node000005"><a xlink:title=" ">
<polygon fill="white" stroke="#666666" points="273.5,-354.52 208.5,-354.52 208.5,-335.52 273.5,-335.52 273.5,-354.52"/>
<text text-anchor="middle" x="241" y="-342.52" font-family="Helvetica,sans-Serif" font-size="10.00">std::string</text>
</a>
</g>
</g>
<!-- Node5&#45;&gt;Node1 -->
<g id="edge5_Node000001_Node000005" class="edge">
<title>Node5&#45;&gt;Node1</title>
<g id="a_edge5_Node000001_Node000005"><a xlink:title=" ">
<path fill="none" stroke="#9a32cd" stroke-dasharray="5,2" d="M263.74,-329.62C297.3,-306.91 364.58,-265.44 429,-250.02 489.51,-235.53 508.08,-237.37 569,-250.02 649.75,-266.78 737.29,-314.89 772.27,-335.48"/>
<polygon fill="#9a32cd" stroke="#9a32cd" points="261.46,-326.94 255.2,-335.49 265.43,-332.71 261.46,-326.94"/>
</a>
</g>
<text text-anchor="middle" x="499" y="-308.02" font-family="Helvetica,sans-Serif" font-size="10.00" fill="grey"> browser</text>
<text text-anchor="middle" x="499" y="-297.02" font-family="Helvetica,sans-Serif" font-size="10.00" fill="grey">frontend_folder</text>
<text text-anchor="middle" x="499" y="-286.02" font-family="Helvetica,sans-Serif" font-size="10.00" fill="grey">host</text>
<text text-anchor="middle" x="499" y="-275.02" font-family="Helvetica,sans-Serif" font-size="10.00" fill="grey">http_url_prefix</text>
<text text-anchor="middle" x="499" y="-264.02" font-family="Helvetica,sans-Serif" font-size="10.00" fill="grey">starting_folder</text>
<text text-anchor="middle" x="499" y="-253.02" font-family="Helvetica,sans-Serif" font-size="10.00" fill="grey">top_level_folder</text>
</g>
<!-- Node7 -->
<g id="Node000007" class="node">
<title>Node7</title>
<g id="a_Node000007"><a xlink:title=" ">
<polygon fill="white" stroke="#666666" points="569,-203.52 429,-203.52 429,-184.52 569,-184.52 569,-203.52"/>
<text text-anchor="middle" x="499" y="-191.52" font-family="Helvetica,sans-Serif" font-size="10.00">std::vector&lt; std::string &gt;</text>
</a>
</g>
</g>
<!-- Node5&#45;&gt;Node7 -->
<g id="edge8_Node000007_Node000005" class="edge">
<title>Node5&#45;&gt;Node7</title>
<g id="a_edge8_Node000007_Node000005"><a xlink:title=" ">
<path fill="none" stroke="#9a32cd" stroke-dasharray="5,2" d="M246.24,-325.59C253.76,-296.24 272.41,-241.27 311,-215.02 345.04,-191.86 390.87,-186.42 428.64,-186.85"/>
<polygon fill="#9a32cd" stroke="#9a32cd" points="242.8,-324.93 243.89,-335.46 249.61,-326.55 242.8,-324.93"/>
</a>
</g>
<text text-anchor="middle" x="361" y="-218.02" font-family="Helvetica,sans-Serif" font-size="10.00" fill="grey"> elements</text>
</g>
<!-- Node5&#45;&gt;Node11 -->
<g id="edge14_Node000011_Node000005" class="edge">
<title>Node5&#45;&gt;Node11</title>
<g id="a_edge14_Node000011_Node000005"><a xlink:title=" ">
<path fill="none" stroke="#9a32cd" stroke-dasharray="5,2" d="M257.46,-362.32C270.44,-375.75 290.15,-393.76 311,-404.02 351.75,-424.06 368.12,-410.07 411,-425.02 419.45,-427.96 420.76,-430.54 429,-434.02 436.36,-437.12 444.28,-440.15 452.03,-442.96"/>
<polygon fill="#9a32cd" stroke="#9a32cd" points="259.69,-359.58 250.3,-354.66 254.57,-364.36 259.69,-359.58"/>
</a>
</g>
<text text-anchor="middle" x="361" y="-428.02" font-family="Helvetica,sans-Serif" font-size="10.00" fill="grey"> keys</text>
</g>
<!-- Node5&#45;&gt;Node12 -->
<g id="edge17_Node000012_Node000005" class="edge">
<title>Node5&#45;&gt;Node12</title>
<g id="a_edge17_Node000012_Node000005"><a xlink:title=" ">
<path fill="none" stroke="#9a32cd" stroke-dasharray="5,2" d="M247.57,-364.52C256.55,-392.71 276.76,-444.86 311,-476.02 346.58,-508.39 397.63,-528.17 437.41,-539.56"/>
<polygon fill="#9a32cd" stroke="#9a32cd" points="250.83,-363.22 244.58,-354.67 244.14,-365.25 250.83,-363.22"/>
</a>
</g>
<text text-anchor="middle" x="361" y="-533.02" font-family="Helvetica,sans-Serif" font-size="10.00" fill="grey"> keys</text>
</g>
<!-- Node13 -->
<g id="Node000013" class="node">
<title>Node13</title>
<g id="a_Node000013"><a xlink:title=" ">
<polygon fill="white" stroke="#666666" points="556,-166.52 442,-166.52 442,-125.52 556,-125.52 556,-166.52"/>
<text text-anchor="start" x="450" y="-154.52" font-family="Helvetica,sans-Serif" font-size="10.00">std::unordered_map</text>
<text text-anchor="start" x="450" y="-143.52" font-family="Helvetica,sans-Serif" font-size="10.00">&lt; std::string, std::</text>
<text text-anchor="middle" x="499" y="-132.52" font-family="Helvetica,sans-Serif" font-size="10.00">string * &gt;</text>
</a>
</g>
</g>
<!-- Node5&#45;&gt;Node13 -->
<g id="edge20_Node000013_Node000005" class="edge">
<title>Node5&#45;&gt;Node13</title>
<g id="a_edge20_Node000013_Node000005"><a xlink:title=" ">
<path fill="none" stroke="#9a32cd" stroke-dasharray="5,2" d="M242.85,-325.34C245.68,-286.66 257.94,-201.02 311,-161.02 347.93,-133.17 401.43,-131.6 441.75,-135.73"/>
<polygon fill="#9a32cd" stroke="#9a32cd" points="239.35,-325.14 242.25,-335.33 246.34,-325.56 239.35,-325.14"/>
</a>
</g>
<text text-anchor="middle" x="361" y="-175.02" font-family="Helvetica,sans-Serif" font-size="10.00" fill="grey"> elements</text>
<text text-anchor="middle" x="361" y="-164.02" font-family="Helvetica,sans-Serif" font-size="10.00" fill="grey">keys</text>
</g>
<!-- Node5&#45;&gt;Node14 -->
<g id="edge22_Node000014_Node000005" class="edge">
<title>Node5&#45;&gt;Node14</title>
<g id="a_edge22_Node000014_Node000005"><a xlink:title=" ">
<path fill="none" stroke="#9a32cd" stroke-dasharray="5,2" d="M276.29,-358.08C287.27,-361.95 299.55,-365.97 311,-369.02 354.41,-380.56 404.47,-389.72 441.87,-395.76"/>
<polygon fill="#9a32cd" stroke="#9a32cd" points="277.23,-354.7 266.63,-354.59 274.85,-361.28 277.23,-354.7"/>
</a>
</g>
<text text-anchor="middle" x="361" y="-392.02" font-family="Helvetica,sans-Serif" font-size="10.00" fill="grey"> keys</text>
</g>
<!-- Node15 -->
<g id="Node000015" class="node">
<title>Node15</title>
<g id="a_Node000015"><a xlink:title=" ">
<polygon fill="white" stroke="#666666" points="556,-365.52 442,-365.52 442,-324.52 556,-324.52 556,-365.52"/>
<text text-anchor="start" x="450" y="-353.52" font-family="Helvetica,sans-Serif" font-size="10.00">std::unordered_map</text>
<text text-anchor="start" x="450" y="-342.52" font-family="Helvetica,sans-Serif" font-size="10.00">&lt; std::string, std::</text>
<text text-anchor="middle" x="499" y="-331.52" font-family="Helvetica,sans-Serif" font-size="10.00">string &gt;</text>
</a>
</g>
</g>
<!-- Node5&#45;&gt;Node15 -->
<g id="edge25_Node000015_Node000005" class="edge">
<title>Node5&#45;&gt;Node15</title>
<g id="a_edge25_Node000015_Node000005"><a xlink:title=" ">
<path fill="none" stroke="#9a32cd" stroke-dasharray="5,2" d="M283.76,-345.02C326.74,-345.02 393.97,-345.02 441.65,-345.02"/>
<polygon fill="#9a32cd" stroke="#9a32cd" points="283.65,-341.52 273.65,-345.02 283.65,-348.52 283.65,-341.52"/>
</a>
</g>
<text text-anchor="middle" x="361" y="-359.02" font-family="Helvetica,sans-Serif" font-size="10.00" fill="grey"> elements</text>
<text text-anchor="middle" x="361" y="-348.02" font-family="Helvetica,sans-Serif" font-size="10.00" fill="grey">keys</text>
</g>
<!-- Node6 -->
<g id="Node000006" class="node">
<title>Node6</title>
<g id="a_Node000006"><a xlink:title=" ">
<polygon fill="white" stroke="#666666" points="104,-360.02 0,-360.02 0,-330.02 104,-330.02 104,-360.02"/>
<text text-anchor="start" x="8" y="-348.02" font-family="Helvetica,sans-Serif" font-size="10.00">std::basic_string&lt;</text>
<text text-anchor="middle" x="52" y="-337.02" font-family="Helvetica,sans-Serif" font-size="10.00"> Char &gt;</text>
</a>
</g>
</g>
<!-- Node6&#45;&gt;Node5 -->
<g id="edge6_Node000005_Node000006" class="edge">
<title>Node6&#45;&gt;Node5</title>
<g id="a_edge6_Node000005_Node000006"><a xlink:title=" ">
<path fill="none" stroke="#63b8ff" d="M114.5,-345.02C145.88,-345.02 182.72,-345.02 208.33,-345.02"/>
<polygon fill="#63b8ff" stroke="#63b8ff" points="114.1,-341.52 104.1,-345.02 114.1,-348.52 114.1,-341.52"/>
</a>
</g>
</g>
<!-- Node7&#45;&gt;Node1 -->
<g id="edge7_Node000001_Node000007" class="edge">
<title>Node7&#45;&gt;Node1</title>
<g id="a_edge7_Node000001_Node000007"><a xlink:title=" ">
<path fill="none" stroke="#9a32cd" stroke-dasharray="5,2" d="M541.24,-182.01C585.55,-171.65 656.4,-162.65 707,-193.02 760.84,-225.33 780.85,-306.91 786.31,-335.19"/>
<polygon fill="#9a32cd" stroke="#9a32cd" points="540.26,-178.65 531.39,-184.44 541.94,-185.44 540.26,-178.65"/>
</a>
</g>
<text text-anchor="middle" x="647" y="-218.02" font-family="Helvetica,sans-Serif" font-size="10.00" fill="grey"> debug_msgs</text>
<text text-anchor="middle" x="647" y="-207.02" font-family="Helvetica,sans-Serif" font-size="10.00" fill="grey">files</text>
<text text-anchor="middle" x="647" y="-196.02" font-family="Helvetica,sans-Serif" font-size="10.00" fill="grey">warning_msgs</text>
</g>
<!-- Node8 -->
<g id="Node000008" class="node">
<title>Node8</title>
<g id="a_Node000008"><a xlink:title=" ">
<polygon fill="white" stroke="#666666" points="563,-107.52 435,-107.52 435,-88.52 563,-88.52 563,-107.52"/>
<text text-anchor="middle" x="499" y="-95.52" font-family="Helvetica,sans-Serif" font-size="10.00">std::vector&lt; fs::path &gt;</text>
</a>
</g>
</g>
<!-- Node8&#45;&gt;Node1 -->
<g id="edge9_Node000001_Node000008" class="edge">
<title>Node8&#45;&gt;Node1</title>
<g id="a_edge9_Node000001_Node000008"><a xlink:title=" ">
<path fill="none" stroke="#9a32cd" stroke-dasharray="5,2" d="M556.62,-87.17C601.92,-81.83 664.66,-82.36 707,-115.02 780.07,-171.39 787.43,-298.54 788.01,-335.04"/>
<polygon fill="#9a32cd" stroke="#9a32cd" points="556.12,-83.7 546.65,-88.47 557.02,-90.64 556.12,-83.7"/>
</a>
</g>
<text text-anchor="middle" x="647" y="-118.02" font-family="Helvetica,sans-Serif" font-size="10.00" fill="grey"> file_paths</text>
</g>
<!-- Node9 -->
<g id="Node000009" class="node">
<title>Node9</title>
<g id="a_Node000009"><a xlink:title=" ">
<polygon fill="white" stroke="#666666" points="260,-86.52 222,-86.52 222,-67.52 260,-67.52 260,-86.52"/>
<text text-anchor="middle" x="241" y="-74.52" font-family="Helvetica,sans-Serif" font-size="10.00">path</text>
</a>
</g>
</g>
<!-- Node9&#45;&gt;Node1 -->
<g id="edge12_Node000001_Node000009" class="edge">
<title>Node9&#45;&gt;Node1</title>
<g id="a_edge12_Node000001_Node000009"><a xlink:title=" ">
<path fill="none" stroke="#9a32cd" stroke-dasharray="5,2" d="M270.25,-72.83C360.47,-60.11 639.72,-25.96 707,-80.02 790.07,-146.76 790.03,-296.39 788.51,-335.51"/>
<polygon fill="#9a32cd" stroke="#9a32cd" points="269.61,-69.38 260.21,-74.27 270.6,-76.31 269.61,-69.38"/>
</a>
</g>
<text text-anchor="middle" x="499" y="-58.02" font-family="Helvetica,sans-Serif" font-size="10.00" fill="grey"> user_directory</text>
</g>
<!-- Node9&#45;&gt;Node8 -->
<g id="edge10_Node000008_Node000009" class="edge">
<title>Node9&#45;&gt;Node8</title>
<g id="a_edge10_Node000008_Node000009"><a xlink:title=" ">
<path fill="none" stroke="#9a32cd" stroke-dasharray="5,2" d="M270.18,-79.33C309.56,-82.56 382.11,-88.51 434.78,-92.83"/>
<polygon fill="#9a32cd" stroke="#9a32cd" points="270.25,-75.82 260,-78.49 269.68,-82.8 270.25,-75.82"/>
</a>
</g>
<text text-anchor="middle" x="361" y="-93.02" font-family="Helvetica,sans-Serif" font-size="10.00" fill="grey"> elements</text>
</g>
<!-- Node10 -->
<g id="Node000010" class="node">
<title>Node10</title>
<g id="a_Node000010"><a xlink:title=" ">
<polygon fill="white" stroke="#666666" points="517.5,-22.52 480.5,-22.52 480.5,-3.52 517.5,-3.52 517.5,-22.52"/>
<text text-anchor="middle" x="499" y="-10.52" font-family="Helvetica,sans-Serif" font-size="10.00">json</text>
</a>
</g>
</g>
<!-- Node10&#45;&gt;Node1 -->
<g id="edge11_Node000001_Node000010" class="edge">
<title>Node10&#45;&gt;Node1</title>
<g id="a_edge11_Node000001_Node000010"><a xlink:title=" ">
<path fill="none" stroke="#9a32cd" stroke-dasharray="5,2" d="M527.39,-6.9C570.97,1.09 656.32,9.41 707,-34.02 754.98,-75.13 781.47,-286.95 786.93,-335.22"/>
<polygon fill="#9a32cd" stroke="#9a32cd" points="526.65,-3.48 517.51,-8.84 527.99,-10.35 526.65,-3.48"/>
</a>
</g>
<text text-anchor="middle" x="647" y="-37.02" font-family="Helvetica,sans-Serif" font-size="10.00" fill="grey"> command_line_settings</text>
</g>
<!-- Node11&#45;&gt;Node1 -->
<g id="edge13_Node000001_Node000011" class="edge">
<title>Node11&#45;&gt;Node1</title>
<g id="a_edge13_Node000001_Node000011"><a xlink:title=" ">
<path fill="none" stroke="#9a32cd" stroke-dasharray="5,2" d="M566.6,-444.59C608.12,-434.88 662.03,-419.8 707,-399.02 733.39,-386.82 760.88,-366.64 776.08,-354.7"/>
<polygon fill="#9a32cd" stroke="#9a32cd" points="565.56,-441.23 556.59,-446.88 567.12,-448.06 565.56,-441.23"/>
</a>
</g>
<text text-anchor="middle" x="647" y="-441.02" font-family="Helvetica,sans-Serif" font-size="10.00" fill="grey"> int_keys_map</text>
</g>
<!-- Node12&#45;&gt;Node1 -->
<g id="edge16_Node000001_Node000012" class="edge">
<title>Node12&#45;&gt;Node1</title>
<g id="a_edge16_Node000001_Node000012"><a xlink:title=" ">
<path fill="none" stroke="#9a32cd" stroke-dasharray="5,2" d="M570.83,-558.97C614.13,-558.96 668.42,-551.97 707,-523.02 764.84,-479.61 782.5,-385.21 786.81,-354.72"/>
<polygon fill="#9a32cd" stroke="#9a32cd" points="570.69,-555.47 560.65,-558.85 570.6,-562.47 570.69,-555.47"/>
</a>
</g>
<text text-anchor="middle" x="647" y="-561.02" font-family="Helvetica,sans-Serif" font-size="10.00" fill="grey"> bool_keys_map</text>
</g>
<!-- Node13&#45;&gt;Node1 -->
<g id="edge19_Node000001_Node000013" class="edge">
<title>Node13&#45;&gt;Node1</title>
<g id="a_edge19_Node000001_Node000013"><a xlink:title=" ">
<path fill="none" stroke="#9a32cd" stroke-dasharray="5,2" d="M566.09,-132.7C609.86,-127.66 666.46,-128.77 707,-157.02 769.69,-200.7 784.21,-303.61 787.26,-335.46"/>
<polygon fill="#9a32cd" stroke="#9a32cd" points="565.58,-129.24 556.11,-133.98 566.47,-136.18 565.58,-129.24"/>
</a>
</g>
<text text-anchor="middle" x="647" y="-160.02" font-family="Helvetica,sans-Serif" font-size="10.00" fill="grey"> strings_keys_map</text>
</g>
<!-- Node14&#45;&gt;Node1 -->
<g id="edge21_Node000001_Node000014" class="edge">
<title>Node14&#45;&gt;Node1</title>
<g id="a_edge21_Node000001_Node000014"><a xlink:title=" ">
<path fill="none" stroke="#9a32cd" stroke-dasharray="5,2" d="M566.31,-390.43C619.89,-379.46 693.97,-364.28 741.44,-354.56"/>
<polygon fill="#9a32cd" stroke="#9a32cd" points="565.31,-387.06 556.21,-392.5 566.71,-393.92 565.31,-387.06"/>
</a>
</g>
<text text-anchor="middle" x="647" y="-387.02" font-family="Helvetica,sans-Serif" font-size="10.00" fill="grey"> vector_int_keys_map</text>
</g>
<!-- Node15&#45;&gt;Node1 -->
<g id="edge24_Node000001_Node000015" class="edge">
<title>Node15&#45;&gt;Node1</title>
<g id="a_edge24_Node000001_Node000015"><a xlink:title=" ">
<path fill="none" stroke="#9a32cd" stroke-dasharray="5,2" d="M566.44,-345.02C614.13,-345.02 678.01,-345.02 724.92,-345.02"/>
<polygon fill="#9a32cd" stroke="#9a32cd" points="566.21,-341.52 556.21,-345.02 566.21,-348.52 566.21,-341.52"/>
</a>
</g>
<text text-anchor="middle" x="647" y="-348.02" font-family="Helvetica,sans-Serif" font-size="10.00" fill="grey"> deprecated_options</text>
</g>
</g>
</svg>
