<?xml version="1.0" encoding="UTF-8" standalone="no"?>
<!DOCTYPE svg PUBLIC "-//W3C//DTD SVG 1.1//EN"
 "http://www.w3.org/Graphics/SVG/1.1/DTD/svg11.dtd">
<!-- Generated by graphviz version 2.43.0 (0)
 -->
<!-- Title: carta::RegionState::RegionDefined Pages: 1 -->
<!--zoomable 137 -->
<svg id="main" version="1.1" xmlns="http://www.w3.org/2000/svg" xmlns:xlink="http://www.w3.org/1999/xlink" xml:space="preserve" onload="init(evt)">
<style type="text/css"><![CDATA[
.edge:hover path { stroke: red; }
.edge:hover polygon { stroke: red; fill: red; }
]]></style>
<script type="text/javascript"><![CDATA[
var edges = document.getElementsByTagName('g');
if (edges && edges.length) {
  for (var i=0;i<edges.length;i++) {
    if (edges[i].id.substr(0,4)=='edge') {
      edges[i].setAttribute('class','edge');
    }
  }
}
]]></script>
        <defs>
                <circle id="rim" cx="0" cy="0" r="7"/>
                <circle id="rim2" cx="0" cy="0" r="3.5"/>
                <g id="zoomPlus">
                        <use xlink:href="#rim" fill="#404040">
                                <set attributeName="fill" to="#808080" begin="zoomplus.mouseover" end="zoomplus.mouseout"/>
                        </use>
                        <path d="M-4,0h8M0,-4v8" fill="none" stroke="white" stroke-width="1.5" pointer-events="none"/>
                </g>
                <g id="zoomMin">
                        <use xlink:href="#rim" fill="#404040">
                                <set attributeName="fill" to="#808080" begin="zoomminus.mouseover" end="zoomminus.mouseout"/>
                        </use>
                        <path d="M-4,0h8" fill="none" stroke="white" stroke-width="1.5" pointer-events="none"/>
                </g>
                <g id="dirArrow">
                        <path fill="none" stroke="white" stroke-width="1.5" d="M0,-3.0v7 M-2.5,-0.5L0,-3.0L2.5,-0.5"/>
                </g>
               <g id="resetDef">
                       <use xlink:href="#rim2" fill="#404040">
                               <set attributeName="fill" to="#808080" begin="reset.mouseover" end="reset.mouseout"/>
                       </use>
               </g>
        </defs>

<script type="text/javascript">
var viewWidth = 1018;
var viewHeight = 137;
var sectionId = 'dynsection-6';
</script>
<script xlink:href="svgpan.js"/>
<svg id="graph" class="graph">
<g id="viewport">
<title>carta::RegionState::RegionDefined</title>
<!-- Node1 -->
<g id="node1" class="node">
<title>Node1</title>
<g id="a_node1"><a xlink:title=" ">
<polygon fill="#bfbfbf" stroke="black" points="903,-24.5 903,-54.5 1010,-54.5 1010,-24.5 903,-24.5"/>
<text text-anchor="start" x="911" y="-42.5" font-family="Helvetica,sans-Serif" font-size="10.00">carta::RegionState</text>
<text text-anchor="middle" x="956.5" y="-31.5" font-family="Helvetica,sans-Serif" font-size="10.00">::RegionDefined</text>
</a>
</g>
</g>
<!-- Node2 -->
<g id="node2" class="node">
<title>Node2</title>
<g id="a_node2"><a xlink:href="classcarta_1_1RegionHandler.html#ab69f418daea6a6ecf8c58ed9434a6242" target="_top" xlink:title=" ">
<polygon fill="none" stroke="black" points="711,-49.5 711,-79.5 867,-79.5 867,-49.5 711,-49.5"/>
<text text-anchor="start" x="719" y="-67.5" font-family="Helvetica,sans-Serif" font-size="10.00">carta::RegionHandler</text>
<text text-anchor="middle" x="789" y="-56.5" font-family="Helvetica,sans-Serif" font-size="10.00">::GetTemporaryRegionProfile</text>
</a>
</g>
</g>
<!-- Node1&#45;&gt;Node2 -->
<g id="edge1" class="edge">
<title>Node1&#45;&gt;Node2</title>
<path fill="none" stroke="midnightblue" d="M892.64,-49C884.28,-50.26 875.62,-51.57 867.05,-52.86"/>
<polygon fill="midnightblue" stroke="midnightblue" points="893.31,-52.43 902.68,-47.48 892.27,-45.51 893.31,-52.43"/>
</g>
<!-- Node9 -->
<g id="node9" class="node">
<title>Node9</title>
<g id="a_node9"><a xlink:href="classcarta_1_1Ds9ImportExport.html#a785d44b4017da554d998052c4469ad15" target="_top" xlink:title=" ">
<polygon fill="none" stroke="black" points="724,-0.5 724,-30.5 854,-30.5 854,-0.5 724,-0.5"/>
<text text-anchor="start" x="732" y="-18.5" font-family="Helvetica,sans-Serif" font-size="10.00">carta::Ds9ImportExport</text>
<text text-anchor="middle" x="789" y="-7.5" font-family="Helvetica,sans-Serif" font-size="10.00">::SetRegion</text>
</a>
</g>
</g>
<!-- Node1&#45;&gt;Node9 -->
<g id="edge9" class="edge">
<title>Node1&#45;&gt;Node9</title>
<path fill="none" stroke="midnightblue" d="M892.73,-30.4C880.12,-28.57 866.85,-26.65 854.2,-24.81"/>
<polygon fill="midnightblue" stroke="midnightblue" points="892.28,-33.87 902.68,-31.84 893.29,-26.94 892.28,-33.87"/>
</g>
<!-- Node3 -->
<g id="node3" class="node">
<title>Node3</title>
<g id="a_node3"><a xlink:href="classcarta_1_1RegionHandler.html#abb5e03ccc3f1a8e0026c0b13ba5ed0d5" target="_top" xlink:title=" ">
<polygon fill="none" stroke="black" points="502,-98.5 502,-128.5 675,-128.5 675,-98.5 502,-98.5"/>
<text text-anchor="start" x="510" y="-116.5" font-family="Helvetica,sans-Serif" font-size="10.00">carta::RegionHandler</text>
<text text-anchor="middle" x="588.5" y="-105.5" font-family="Helvetica,sans-Serif" font-size="10.00">::GetFixedAngularRegionProfiles</text>
</a>
</g>
</g>
<!-- Node2&#45;&gt;Node3 -->
<g id="edge2" class="edge">
<title>Node2&#45;&gt;Node3</title>
<path fill="none" stroke="midnightblue" d="M717.2,-81.98C695.32,-87.38 671.43,-93.28 650.29,-98.49"/>
<polygon fill="midnightblue" stroke="midnightblue" points="718.22,-85.33 727.09,-79.53 716.55,-78.53 718.22,-85.33"/>
</g>
<!-- Node8 -->
<g id="node8" class="node">
<title>Node8</title>
<g id="a_node8"><a xlink:href="classcarta_1_1RegionHandler.html#a678aa8c7913af74fd1b483b3bd943a4c" target="_top" xlink:title=" ">
<polygon fill="none" stroke="black" points="509.5,-49.5 509.5,-79.5 667.5,-79.5 667.5,-49.5 509.5,-49.5"/>
<text text-anchor="start" x="517.5" y="-67.5" font-family="Helvetica,sans-Serif" font-size="10.00">carta::RegionHandler</text>
<text text-anchor="middle" x="588.5" y="-56.5" font-family="Helvetica,sans-Serif" font-size="10.00">::GetFixedPixelRegionProfiles</text>
</a>
</g>
</g>
<!-- Node2&#45;&gt;Node8 -->
<g id="edge7" class="edge">
<title>Node2&#45;&gt;Node8</title>
<path fill="none" stroke="midnightblue" d="M700.92,-64.5C689.9,-64.5 678.67,-64.5 667.8,-64.5"/>
<polygon fill="midnightblue" stroke="midnightblue" points="700.97,-68 710.97,-64.5 700.97,-61 700.97,-68"/>
</g>
<!-- Node4 -->
<g id="node4" class="node">
<title>Node4</title>
<g id="a_node4"><a xlink:href="classcarta_1_1RegionHandler.html#af0631842fe196a21fafb16e61b71401d" target="_top" xlink:title=" ">
<polygon fill="none" stroke="black" points="341.5,-73.5 341.5,-103.5 460.5,-103.5 460.5,-73.5 341.5,-73.5"/>
<text text-anchor="start" x="349.5" y="-91.5" font-family="Helvetica,sans-Serif" font-size="10.00">carta::RegionHandler</text>
<text text-anchor="middle" x="401" y="-80.5" font-family="Helvetica,sans-Serif" font-size="10.00">::GetLineProfiles</text>
</a>
</g>
</g>
<!-- Node3&#45;&gt;Node4 -->
<g id="edge3" class="edge">
<title>Node3&#45;&gt;Node4</title>
<path fill="none" stroke="midnightblue" d="M491.65,-100.58C481.05,-99.15 470.51,-97.73 460.57,-96.39"/>
<polygon fill="midnightblue" stroke="midnightblue" points="491.43,-104.08 501.81,-101.95 492.37,-97.15 491.43,-104.08"/>
</g>
<!-- Node5 -->
<g id="node5" class="node">
<title>Node5</title>
<g id="a_node5"><a xlink:href="classcarta_1_1RegionHandler.html#a53807aa22abb92b35725054a015e12aa" target="_top" xlink:title=" ">
<polygon fill="none" stroke="black" points="181,-97.5 181,-127.5 300,-127.5 300,-97.5 181,-97.5"/>
<text text-anchor="start" x="189" y="-115.5" font-family="Helvetica,sans-Serif" font-size="10.00">carta::RegionHandler</text>
<text text-anchor="middle" x="240.5" y="-104.5" font-family="Helvetica,sans-Serif" font-size="10.00">::CalculatePvImage</text>
</a>
</g>
</g>
<!-- Node4&#45;&gt;Node5 -->
<g id="edge4" class="edge">
<title>Node4&#45;&gt;Node5</title>
<path fill="none" stroke="midnightblue" d="M331.5,-98.87C321.04,-100.46 310.32,-102.08 300.09,-103.63"/>
<polygon fill="midnightblue" stroke="midnightblue" points="332.07,-102.33 341.43,-97.37 331.02,-95.41 332.07,-102.33"/>
</g>
<!-- Node6 -->
<g id="node6" class="node">
<title>Node6</title>
<g id="a_node6"><a xlink:href="classcarta_1_1RegionHandler.html#acf0d1aa0e6368d33b4631f3c383b3349" target="_top" xlink:title=" ">
<polygon fill="none" stroke="black" points="181,-48.5 181,-78.5 300,-78.5 300,-48.5 181,-48.5"/>
<text text-anchor="start" x="189" y="-66.5" font-family="Helvetica,sans-Serif" font-size="10.00">carta::RegionHandler</text>
<text text-anchor="middle" x="240.5" y="-55.5" font-family="Helvetica,sans-Serif" font-size="10.00">::GetLineSpatialData</text>
</a>
</g>
</g>
<!-- Node4&#45;&gt;Node6 -->
<g id="edge5" class="edge">
<title>Node4&#45;&gt;Node6</title>
<path fill="none" stroke="midnightblue" d="M331.5,-77.7C321.04,-76.05 310.32,-74.35 300.09,-72.74"/>
<polygon fill="midnightblue" stroke="midnightblue" points="331.01,-81.16 341.43,-79.26 332.1,-74.25 331.01,-81.16"/>
</g>
<!-- Node7 -->
<g id="node7" class="node">
<title>Node7</title>
<g id="a_node7"><a xlink:href="classcarta_1_1RegionHandler.html#a6bbb668cf434d85d9be739191dd15c19" target="_top" xlink:title=" ">
<polygon fill="none" stroke="black" points="0,-48.5 0,-78.5 145,-78.5 145,-48.5 0,-48.5"/>
<text text-anchor="start" x="8" y="-66.5" font-family="Helvetica,sans-Serif" font-size="10.00">carta::RegionHandler</text>
<text text-anchor="middle" x="72.5" y="-55.5" font-family="Helvetica,sans-Serif" font-size="10.00">::FillLineSpatialProfileData</text>
</a>
</g>
</g>
<!-- Node6&#45;&gt;Node7 -->
<g id="edge6" class="edge">
<title>Node6&#45;&gt;Node7</title>
<path fill="none" stroke="midnightblue" d="M170.79,-63.5C162.33,-63.5 153.67,-63.5 145.17,-63.5"/>
<polygon fill="midnightblue" stroke="midnightblue" points="170.97,-67 180.97,-63.5 170.97,-60 170.97,-67"/>
</g>
<!-- Node8&#45;&gt;Node4 -->
<g id="edge8" class="edge">
<title>Node8&#45;&gt;Node4</title>
<path fill="none" stroke="midnightblue" d="M499.35,-75.9C486.2,-77.61 472.93,-79.32 460.59,-80.92"/>
<polygon fill="midnightblue" stroke="midnightblue" points="499.9,-79.36 509.37,-74.61 499,-72.42 499.9,-79.36"/>
</g>
<!-- Node10 -->
<g id="node10" class="node">
<title>Node10</title>
<g id="a_node10"><a xlink:href="classcarta_1_1Ds9ImportExport.html#ac30be76c02bcb4a5cac81596eef56588" target="_top" xlink:title=" ">
<polygon fill="none" stroke="black" points="523.5,-0.5 523.5,-30.5 653.5,-30.5 653.5,-0.5 523.5,-0.5"/>
<text text-anchor="start" x="531.5" y="-18.5" font-family="Helvetica,sans-Serif" font-size="10.00">carta::Ds9ImportExport</text>
<text text-anchor="middle" x="588.5" y="-7.5" font-family="Helvetica,sans-Serif" font-size="10.00">::ProcessFileLines</text>
</a>
</g>
</g>
<!-- Node9&#45;&gt;Node10 -->
<g id="edge10" class="edge">
<title>Node9&#45;&gt;Node10</title>
<path fill="none" stroke="midnightblue" d="M713.68,-15.5C693.99,-15.5 672.9,-15.5 653.79,-15.5"/>
<polygon fill="midnightblue" stroke="midnightblue" points="713.83,-19 723.83,-15.5 713.83,-12 713.83,-19"/>
</g>
<!-- Node11 -->
<g id="node11" class="node">
<title>Node11</title>
<g id="a_node11"><a xlink:href="classcarta_1_1Ds9ImportExport.html#aaf9d85eccbc3df844536b5105992cdeb" target="_top" xlink:title=" ">
<polygon fill="none" stroke="black" points="336,-0.5 336,-30.5 466,-30.5 466,-0.5 336,-0.5"/>
<text text-anchor="start" x="344" y="-18.5" font-family="Helvetica,sans-Serif" font-size="10.00">carta::Ds9ImportExport</text>
<text text-anchor="middle" x="401" y="-7.5" font-family="Helvetica,sans-Serif" font-size="10.00">::Ds9ImportExport</text>
</a>
</g>
</g>
<!-- Node10&#45;&gt;Node11 -->
<g id="edge11" class="edge">
<title>Node10&#45;&gt;Node11</title>
<path fill="none" stroke="midnightblue" d="M513.27,-15.5C497.65,-15.5 481.31,-15.5 466.1,-15.5"/>
<polygon fill="midnightblue" stroke="midnightblue" points="513.4,-19 523.4,-15.5 513.4,-12 513.4,-19"/>
</g>
</g>
</svg>
        <g id="navigator" transform="translate(0 0)" fill="#404254">
                <rect fill="#f2f5e9" fill-opacity="0.5" stroke="#606060" stroke-width=".5" x="0" y="0" width="60" height="60"/>
                <use id="zoomplus" xlink:href="#zoomPlus" x="17" y="9" onmousedown="handleZoom(evt,'in')"/>
                <use id="zoomminus" xlink:href="#zoomMin" x="42" y="9" onmousedown="handleZoom(evt,'out')"/>
                <use id="reset" xlink:href="#resetDef" x="30" y="36" onmousedown="handleReset()"/>
                <g id="arrowUp" xlink:href="#dirArrow" transform="translate(30 24)" onmousedown="handlePan(0,-1)">
                  <use xlink:href="#rim" fill="#404040">
                        <set attributeName="fill" to="#808080" begin="arrowUp.mouseover" end="arrowUp.mouseout"/>
                  </use>
                  <path fill="none" stroke="white" stroke-width="1.5" d="M0,-3.0v7 M-2.5,-0.5L0,-3.0L2.5,-0.5"/>
                </g>
                <g id="arrowRight" xlink:href="#dirArrow" transform="rotate(90) translate(36 -43)" onmousedown="handlePan(1,0)">
                  <use xlink:href="#rim" fill="#404040">
                        <set attributeName="fill" to="#808080" begin="arrowRight.mouseover" end="arrowRight.mouseout"/>
                  </use>
                  <path fill="none" stroke="white" stroke-width="1.5" d="M0,-3.0v7 M-2.5,-0.5L0,-3.0L2.5,-0.5"/>
                </g>
                <g id="arrowDown" xlink:href="#dirArrow" transform="rotate(180) translate(-30 -48)" onmousedown="handlePan(0,1)">
                  <use xlink:href="#rim" fill="#404040">
                        <set attributeName="fill" to="#808080" begin="arrowDown.mouseover" end="arrowDown.mouseout"/>
                  </use>
                  <path fill="none" stroke="white" stroke-width="1.5" d="M0,-3.0v7 M-2.5,-0.5L0,-3.0L2.5,-0.5"/>
                </g>
                <g id="arrowLeft" xlink:href="#dirArrow" transform="rotate(270) translate(-36 17)" onmousedown="handlePan(-1,0)">
                  <use xlink:href="#rim" fill="#404040">
                        <set attributeName="fill" to="#808080" begin="arrowLeft.mouseover" end="arrowLeft.mouseout"/>
                  </use>
                  <path fill="none" stroke="white" stroke-width="1.5" d="M0,-3.0v7 M-2.5,-0.5L0,-3.0L2.5,-0.5"/>
                </g>
        </g>
        <svg viewBox="0 0 15 15" width="100%" height="30px" preserveAspectRatio="xMaxYMin meet">
         <g id="arrow_out" transform="scale(0.3 0.3)">
          <a xlink:href="structcarta_1_1RegionState_a0530ad49eec4b1decafae42dd786d095_icgraph_org.svg" target="_base">
           <rect id="button" ry="5" rx="5" y="6" x="6" height="38" width="38"
                fill="#f2f5e9" fill-opacity="0.5" stroke="#606060" stroke-width="1.0"/>
           <path id="arrow"
             d="M 11.500037,31.436501 C 11.940474,20.09759 22.043105,11.32322 32.158766,21.979434 L 37.068811,17.246167 C 37.068811,17.246167 37.088388,32 37.088388,32 L 22.160133,31.978069 C 22.160133,31.978069 26.997745,27.140456 26.997745,27.140456 C 18.528582,18.264221 13.291696,25.230495 11.500037,31.436501 z"
             style="fill:#404040;"/>
          </a>
         </g>
        </svg>
</svg>
