<?xml version="1.0" encoding="UTF-8" standalone="no"?>
<!DOCTYPE svg PUBLIC "-//W3C//DTD SVG 1.1//EN"
 "http://www.w3.org/Graphics/SVG/1.1/DTD/svg11.dtd">
<!-- Generated by graphviz version 2.43.0 (0)
 -->
<!-- Title: carta::PreviewCutParameters Pages: 1 -->
<svg width="332pt" height="117pt"
 viewBox="0.00 0.00 332.00 117.00" xmlns="http://www.w3.org/2000/svg" xmlns:xlink="http://www.w3.org/1999/xlink">
<g id="graph0" class="graph" transform="scale(1 1) rotate(0) translate(4 113)">
<title>carta::PreviewCutParameters</title>
<!-- Node1 -->
<g id="node1" class="node">
<title>Node1</title>
<g id="a_node1"><a xlink:title=" ">
<polygon fill="#bfbfbf" stroke="black" points="99,-0.5 99,-19.5 257,-19.5 257,-0.5 99,-0.5"/>
<text text-anchor="middle" x="178" y="-7.5" font-family="Helvetica,sans-Serif" font-size="10.00">carta::PreviewCutParameters</text>
</a>
</g>
</g>
<!-- Node2 -->
<g id="node2" class="node">
<title>Node2</title>
<g id="a_node2"><a xlink:title=" ">
<polygon fill="none" stroke="#bfbfbf" points="0,-89.5 0,-108.5 38,-108.5 38,-89.5 0,-89.5"/>
<text text-anchor="middle" x="19" y="-96.5" font-family="Helvetica,sans-Serif" font-size="10.00">float</text>
</a>
</g>
</g>
<!-- Node2&#45;&gt;Node1 -->
<g id="edge1" class="edge">
<title>Node2&#45;&gt;Node1</title>
<path fill="none" stroke="#9a32cd" stroke-dasharray="5,2" d="M17.97,-79.22C18.32,-65.89 21.12,-48.55 32,-38 42.08,-28.22 70.05,-21.87 98.84,-17.81"/>
<polygon fill="#9a32cd" stroke="#9a32cd" points="14.47,-79.3 18.14,-89.24 21.47,-79.19 14.47,-79.3"/>
<text text-anchor="middle" x="78" y="-57.5" font-family="Helvetica,sans-Serif" font-size="10.00"> animation_quality</text>
<text text-anchor="middle" x="78" y="-46.5" font-family="Helvetica,sans-Serif" font-size="10.00">image_quality</text>
</g>
<!-- Node3 -->
<g id="node3" class="node">
<title>Node3</title>
<g id="a_node3"><a xlink:title=" ">
<polygon fill="none" stroke="#bfbfbf" points="82.5,-89.5 82.5,-108.5 185.5,-108.5 185.5,-89.5 82.5,-89.5"/>
<text text-anchor="middle" x="134" y="-96.5" font-family="Helvetica,sans-Serif" font-size="10.00">CompressionType</text>
</a>
</g>
</g>
<!-- Node3&#45;&gt;Node1 -->
<g id="edge2" class="edge">
<title>Node3&#45;&gt;Node1</title>
<path fill="none" stroke="#9a32cd" stroke-dasharray="5,2" d="M129.88,-79.02C128.19,-66.57 128.03,-50.37 135,-38 139.59,-29.86 147.75,-23.83 155.74,-19.56"/>
<polygon fill="#9a32cd" stroke="#9a32cd" points="126.49,-79.95 131.69,-89.18 133.38,-78.72 126.49,-79.95"/>
<text text-anchor="middle" x="168" y="-52" font-family="Helvetica,sans-Serif" font-size="10.00"> compression</text>
</g>
<!-- Node4 -->
<g id="node4" class="node">
<title>Node4</title>
<g id="a_node4"><a xlink:title=" ">
<polygon fill="none" stroke="#bfbfbf" points="208.5,-89.5 208.5,-108.5 237.5,-108.5 237.5,-89.5 208.5,-89.5"/>
<text text-anchor="middle" x="223" y="-96.5" font-family="Helvetica,sans-Serif" font-size="10.00">int</text>
</a>
</g>
</g>
<!-- Node4&#45;&gt;Node1 -->
<g id="edge3" class="edge">
<title>Node4&#45;&gt;Node1</title>
<path fill="none" stroke="#9a32cd" stroke-dasharray="5,2" d="M218.07,-79.47C214.37,-67.22 208.62,-51.06 201,-38 197.15,-31.41 191.63,-24.87 186.97,-19.87"/>
<polygon fill="#9a32cd" stroke="#9a32cd" points="214.8,-80.77 220.89,-89.43 221.53,-78.86 214.8,-80.77"/>
<text text-anchor="middle" x="237" y="-63" font-family="Helvetica,sans-Serif" font-size="10.00"> file_id</text>
<text text-anchor="middle" x="237" y="-52" font-family="Helvetica,sans-Serif" font-size="10.00">region_id</text>
<text text-anchor="middle" x="237" y="-41" font-family="Helvetica,sans-Serif" font-size="10.00">width</text>
</g>
<!-- Node5 -->
<g id="node5" class="node">
<title>Node5</title>
<g id="a_node5"><a xlink:title=" ">
<polygon fill="none" stroke="#bfbfbf" points="273,-89.5 273,-108.5 311,-108.5 311,-89.5 273,-89.5"/>
<text text-anchor="middle" x="292" y="-96.5" font-family="Helvetica,sans-Serif" font-size="10.00">bool</text>
</a>
</g>
</g>
<!-- Node5&#45;&gt;Node1 -->
<g id="edge4" class="edge">
<title>Node5&#45;&gt;Node1</title>
<path fill="none" stroke="#9a32cd" stroke-dasharray="5,2" d="M287.61,-79.35C283.57,-66.08 276.3,-48.77 264,-38 254.23,-29.44 241.75,-23.6 229.35,-19.6"/>
<polygon fill="#9a32cd" stroke="#9a32cd" points="284.31,-80.56 290.28,-89.31 291.07,-78.75 284.31,-80.56"/>
<text text-anchor="middle" x="304" y="-52" font-family="Helvetica,sans-Serif" font-size="10.00"> reverse</text>
</g>
</g>
</svg>
