<?xml version="1.0" encoding="UTF-8" standalone="no"?>
<!DOCTYPE svg PUBLIC "-//W3C//DTD SVG 1.1//EN"
 "http://www.w3.org/Graphics/SVG/1.1/DTD/svg11.dtd">
<!-- Generated by graphviz version 2.43.0 (0)
 -->
<!-- Title: carta::ProgramSettings::ApplyCommandLineSettings Pages: 1 -->
<svg width="369pt" height="78pt"
 viewBox="0.00 0.00 369.00 77.50" xmlns="http://www.w3.org/2000/svg" xmlns:xlink="http://www.w3.org/1999/xlink">
<g id="graph0" class="graph" transform="scale(1 1) rotate(0) translate(4 73.5)">
<title>carta::ProgramSettings::ApplyCommandLineSettings</title>
<!-- Node1 -->
<g id="node1" class="node">
<title>Node1</title>
<g id="a_node1"><a xlink:title=" ">
<polygon fill="#bfbfbf" stroke="black" points="0,-17 0,-47 161,-47 161,-17 0,-17"/>
<text text-anchor="start" x="8" y="-35" font-family="Helvetica,sans-Serif" font-size="10.00">carta::ProgramSettings</text>
<text text-anchor="middle" x="80.5" y="-24" font-family="Helvetica,sans-Serif" font-size="10.00">::ApplyCommandLineSettings</text>
</a>
</g>
</g>
<!-- Node2 -->
<g id="node2" class="node">
<title>Node2</title>
<g id="a_node2"><a xlink:href="structcarta_1_1ProgramSettings.html#a6b417215037ea07ae2bf51690d3585ef" target="_top" xlink:title=" ">
<polygon fill="none" stroke="black" points="209,-39 209,-69 349,-69 349,-39 209,-39"/>
<text text-anchor="start" x="217" y="-57" font-family="Helvetica,sans-Serif" font-size="10.00">carta::ProgramSettings</text>
<text text-anchor="middle" x="279" y="-46" font-family="Helvetica,sans-Serif" font-size="10.00">::AddDeprecationWarning</text>
</a>
</g>
</g>
<!-- Node1&#45;&gt;Node2 -->
<g id="edge1" class="edge">
<title>Node1&#45;&gt;Node2</title>
<path fill="none" stroke="midnightblue" d="M161.14,-40.92C173.52,-42.3 186.32,-43.74 198.69,-45.12"/>
<polygon fill="midnightblue" stroke="midnightblue" points="198.65,-48.64 208.97,-46.27 199.43,-41.68 198.65,-48.64"/>
</g>
<!-- Node3 -->
<g id="node3" class="node">
<title>Node3</title>
<g id="a_node3"><a xlink:href="namespacecarta.html#aa3581dda6f86c582d960a381773a4192" target="_top" xlink:title=" ">
<polygon fill="none" stroke="black" points="197,-0.5 197,-19.5 361,-19.5 361,-0.5 197,-0.5"/>
<text text-anchor="middle" x="279" y="-7.5" font-family="Helvetica,sans-Serif" font-size="10.00">carta::applyOptionalArgument</text>
</a>
</g>
</g>
<!-- Node1&#45;&gt;Node3 -->
<g id="edge2" class="edge">
<title>Node1&#45;&gt;Node3</title>
<path fill="none" stroke="midnightblue" d="M161.14,-23.08C169.63,-22.13 178.31,-21.16 186.91,-20.2"/>
<polygon fill="midnightblue" stroke="midnightblue" points="187.42,-23.66 196.97,-19.07 186.64,-16.71 187.42,-23.66"/>
</g>
</g>
</svg>
