<?xml version="1.0" encoding="UTF-8" standalone="no"?>
<!DOCTYPE svg PUBLIC "-//W3C//DTD SVG 1.1//EN"
 "http://www.w3.org/Graphics/SVG/1.1/DTD/svg11.dtd">
<!-- Generated by graphviz version 2.43.0 (0)
 -->
<!-- Title: carta::Bounds::Invalid Pages: 1 -->
<svg width="683pt" height="88pt"
 viewBox="0.00 0.00 683.00 88.00" xmlns="http://www.w3.org/2000/svg" xmlns:xlink="http://www.w3.org/1999/xlink">
<g id="graph0" class="graph" transform="scale(1 1) rotate(0) translate(4 84)">
<title>carta::Bounds::Invalid</title>
<!-- Node1 -->
<g id="node1" class="node">
<title>Node1</title>
<g id="a_node1"><a xlink:title=" ">
<polygon fill="#bfbfbf" stroke="black" points="553,-30 553,-49 675,-49 675,-30 553,-30"/>
<text text-anchor="middle" x="614" y="-37" font-family="Helvetica,sans-Serif" font-size="10.00">carta::Bounds::Invalid</text>
</a>
</g>
</g>
<!-- Node2 -->
<g id="node2" class="node">
<title>Node2</title>
<g id="a_node2"><a xlink:href="namespacecarta.html#a3d967873206a1f0ff9062a2ecf29ae6b" target="_top" xlink:title=" ">
<polygon fill="none" stroke="black" points="398,-30 398,-49 517,-49 517,-30 398,-30"/>
<text text-anchor="middle" x="457.5" y="-37" font-family="Helvetica,sans-Serif" font-size="10.00">carta::CalcHistogram</text>
</a>
</g>
</g>
<!-- Node1&#45;&gt;Node2 -->
<g id="edge1" class="edge">
<title>Node1&#45;&gt;Node2</title>
<path fill="none" stroke="midnightblue" d="M542.57,-39.5C534.1,-39.5 525.52,-39.5 517.24,-39.5"/>
<polygon fill="midnightblue" stroke="midnightblue" points="542.82,-43 552.82,-39.5 542.82,-36 542.82,-43"/>
</g>
<!-- Node3 -->
<g id="node3" class="node">
<title>Node3</title>
<g id="a_node3"><a xlink:href="classcarta_1_1Frame.html#a2e88a8481229d116d2976f51b32ac326" target="_top" xlink:title=" ">
<polygon fill="none" stroke="black" points="181,-53 181,-72 362,-72 362,-53 181,-53"/>
<text text-anchor="middle" x="271.5" y="-60" font-family="Helvetica,sans-Serif" font-size="10.00">carta::Frame::CalculateHistogram</text>
</a>
</g>
</g>
<!-- Node2&#45;&gt;Node3 -->
<g id="edge2" class="edge">
<title>Node2&#45;&gt;Node3</title>
<path fill="none" stroke="midnightblue" d="M387.75,-48.09C375.05,-49.68 361.73,-51.35 348.82,-52.96"/>
<polygon fill="midnightblue" stroke="midnightblue" points="388.29,-51.55 397.78,-46.84 387.42,-44.61 388.29,-51.55"/>
</g>
<!-- Node5 -->
<g id="node5" class="node">
<title>Node5</title>
<g id="a_node5"><a xlink:href="classcarta_1_1RegionHandler.html#a7797d9c5eca341dcb490a338fc66967a" target="_top" xlink:title=" ">
<polygon fill="none" stroke="black" points="197.5,-2.5 197.5,-32.5 345.5,-32.5 345.5,-2.5 197.5,-2.5"/>
<text text-anchor="start" x="205.5" y="-20.5" font-family="Helvetica,sans-Serif" font-size="10.00">carta::RegionHandler</text>
<text text-anchor="middle" x="271.5" y="-9.5" font-family="Helvetica,sans-Serif" font-size="10.00">::GetRegionHistogramData</text>
</a>
</g>
</g>
<!-- Node2&#45;&gt;Node5 -->
<g id="edge4" class="edge">
<title>Node2&#45;&gt;Node5</title>
<path fill="none" stroke="midnightblue" d="M387.46,-31.25C373.77,-29.61 359.34,-27.88 345.52,-26.23"/>
<polygon fill="midnightblue" stroke="midnightblue" points="387.43,-34.77 397.78,-32.48 388.26,-27.82 387.43,-34.77"/>
</g>
<!-- Node4 -->
<g id="node4" class="node">
<title>Node4</title>
<g id="a_node4"><a xlink:href="classcarta_1_1Frame.html#add5c6cc7f22b6a5d87d7080d29f214fb" target="_top" xlink:title=" ">
<polygon fill="none" stroke="black" points="6.5,-49.5 6.5,-79.5 138.5,-79.5 138.5,-49.5 6.5,-49.5"/>
<text text-anchor="start" x="14.5" y="-67.5" font-family="Helvetica,sans-Serif" font-size="10.00">carta::Frame::FillRegion</text>
<text text-anchor="middle" x="72.5" y="-56.5" font-family="Helvetica,sans-Serif" font-size="10.00">HistogramData</text>
</a>
</g>
</g>
<!-- Node3&#45;&gt;Node4 -->
<g id="edge3" class="edge">
<title>Node3&#45;&gt;Node4</title>
<path fill="none" stroke="midnightblue" d="M170.9,-63.51C159.97,-63.62 149.05,-63.73 138.69,-63.84"/>
<polygon fill="midnightblue" stroke="midnightblue" points="170.97,-67.01 180.93,-63.41 170.9,-60.01 170.97,-67.01"/>
</g>
<!-- Node6 -->
<g id="node6" class="node">
<title>Node6</title>
<g id="a_node6"><a xlink:href="classcarta_1_1RegionHandler.html#a781809901786ab1cf5a4705a77ebe9bb" target="_top" xlink:title=" ">
<polygon fill="none" stroke="black" points="0,-0.5 0,-30.5 145,-30.5 145,-0.5 0,-0.5"/>
<text text-anchor="start" x="8" y="-18.5" font-family="Helvetica,sans-Serif" font-size="10.00">carta::RegionHandler</text>
<text text-anchor="middle" x="72.5" y="-7.5" font-family="Helvetica,sans-Serif" font-size="10.00">::FillRegionHistogramData</text>
</a>
</g>
</g>
<!-- Node5&#45;&gt;Node6 -->
<g id="edge5" class="edge">
<title>Node5&#45;&gt;Node6</title>
<path fill="none" stroke="midnightblue" d="M187.31,-16.66C173.29,-16.51 158.84,-16.37 145.15,-16.23"/>
<polygon fill="midnightblue" stroke="midnightblue" points="187.39,-20.16 197.42,-16.76 187.46,-13.16 187.39,-20.16"/>
</g>
</g>
</svg>
