<?xml version="1.0" encoding="UTF-8" standalone="no"?>
<!DOCTYPE svg PUBLIC "-//W3C//DTD SVG 1.1//EN"
 "http://www.w3.org/Graphics/SVG/1.1/DTD/svg11.dtd">
<!-- Generated by graphviz version 2.43.0 (0)
 -->
<!-- Title: carta::PreviewCubeParameters Pages: 1 -->
<svg width="512pt" height="286pt"
 viewBox="0.00 0.00 511.50 286.00" xmlns="http://www.w3.org/2000/svg" xmlns:xlink="http://www.w3.org/1999/xlink">
<g id="graph0" class="graph" transform="scale(1 1) rotate(0) translate(4 282)">
<title>carta::PreviewCubeParameters</title>
<!-- Node1 -->
<g id="node1" class="node">
<title>Node1</title>
<g id="a_node1"><a xlink:title=" ">
<polygon fill="#bfbfbf" stroke="black" points="288,-0.5 288,-19.5 455,-19.5 455,-0.5 288,-0.5"/>
<text text-anchor="middle" x="371.5" y="-7.5" font-family="Helvetica,sans-Serif" font-size="10.00">carta::PreviewCubeParameters</text>
</a>
</g>
</g>
<!-- Node2 -->
<g id="node2" class="node">
<title>Node2</title>
<g id="a_node2"><a xlink:href="structcarta_1_1RegionState.html" target="_top" xlink:title=" ">
<polygon fill="none" stroke="black" points="122,-85 122,-104 229,-104 229,-85 122,-85"/>
<text text-anchor="middle" x="175.5" y="-92" font-family="Helvetica,sans-Serif" font-size="10.00">carta::RegionState</text>
</a>
</g>
</g>
<!-- Node2&#45;&gt;Node1 -->
<g id="edge1" class="edge">
<title>Node2&#45;&gt;Node1</title>
<path fill="none" stroke="#9a32cd" stroke-dasharray="5,2" d="M201.48,-80.3C225.15,-68.51 261.25,-51.12 293.5,-38 310.22,-31.19 329.38,-24.55 344.52,-19.55"/>
<polygon fill="#9a32cd" stroke="#9a32cd" points="199.81,-77.22 192.44,-84.83 202.95,-83.48 199.81,-77.22"/>
<text text-anchor="middle" x="325.5" y="-41" font-family="Helvetica,sans-Serif" font-size="10.00"> region_state</text>
</g>
<!-- Node3 -->
<g id="node3" class="node">
<title>Node3</title>
<g id="a_node3"><a xlink:title=" ">
<polygon fill="none" stroke="#bfbfbf" points="0,-186 0,-205 73,-205 73,-186 0,-186"/>
<text text-anchor="middle" x="36.5" y="-193" font-family="Helvetica,sans-Serif" font-size="10.00">RegionType</text>
</a>
</g>
</g>
<!-- Node3&#45;&gt;Node2 -->
<g id="edge2" class="edge">
<title>Node3&#45;&gt;Node2</title>
<path fill="none" stroke="#9a32cd" stroke-dasharray="5,2" d="M49.43,-177.84C59.04,-166.22 72.96,-150.9 87.5,-140 108.05,-124.59 134.73,-111.96 153.3,-104.15"/>
<polygon fill="#9a32cd" stroke="#9a32cd" points="46.52,-175.88 42.98,-185.87 51.97,-180.26 46.52,-175.88"/>
<text text-anchor="middle" x="100" y="-148.5" font-family="Helvetica,sans-Serif" font-size="10.00"> type</text>
</g>
<!-- Node4 -->
<g id="node4" class="node">
<title>Node4</title>
<g id="a_node4"><a xlink:title=" ">
<polygon fill="none" stroke="#bfbfbf" points="91.5,-186 91.5,-205 129.5,-205 129.5,-186 91.5,-186"/>
<text text-anchor="middle" x="110.5" y="-193" font-family="Helvetica,sans-Serif" font-size="10.00">float</text>
</a>
</g>
</g>
<!-- Node4&#45;&gt;Node2 -->
<g id="edge3" class="edge">
<title>Node4&#45;&gt;Node2</title>
<path fill="none" stroke="#9a32cd" stroke-dasharray="5,2" d="M112.91,-175.89C114.97,-164.83 118.74,-150.88 125.5,-140 134.82,-125 150.7,-112.12 162.07,-104.14"/>
<polygon fill="#9a32cd" stroke="#9a32cd" points="109.45,-175.35 111.36,-185.77 116.36,-176.43 109.45,-175.35"/>
<text text-anchor="middle" x="146.5" y="-148.5" font-family="Helvetica,sans-Serif" font-size="10.00"> rotation</text>
</g>
<!-- Node5 -->
<g id="node5" class="node">
<title>Node5</title>
<g id="a_node5"><a xlink:title=" ">
<polygon fill="none" stroke="#bfbfbf" points="357,-186 357,-205 386,-205 386,-186 357,-186"/>
<text text-anchor="middle" x="371.5" y="-193" font-family="Helvetica,sans-Serif" font-size="10.00">int</text>
</a>
</g>
</g>
<!-- Node5&#45;&gt;Node1 -->
<g id="edge7" class="edge">
<title>Node5&#45;&gt;Node1</title>
<path fill="none" stroke="#9a32cd" stroke-dasharray="5,2" d="M371.5,-175.62C371.5,-136.5 371.5,-47.91 371.5,-19.76"/>
<polygon fill="#9a32cd" stroke="#9a32cd" points="368,-175.65 371.5,-185.65 375,-175.65 368,-175.65"/>
<text text-anchor="middle" x="394.5" y="-114" font-family="Helvetica,sans-Serif" font-size="10.00"> file_id</text>
<text text-anchor="middle" x="394.5" y="-103" font-family="Helvetica,sans-Serif" font-size="10.00">rebin_xy</text>
<text text-anchor="middle" x="394.5" y="-92" font-family="Helvetica,sans-Serif" font-size="10.00">rebin_z</text>
<text text-anchor="middle" x="394.5" y="-81" font-family="Helvetica,sans-Serif" font-size="10.00">region_id</text>
<text text-anchor="middle" x="394.5" y="-70" font-family="Helvetica,sans-Serif" font-size="10.00">stokes</text>
</g>
<!-- Node5&#45;&gt;Node2 -->
<g id="edge4" class="edge">
<title>Node5&#45;&gt;Node2</title>
<path fill="none" stroke="#9a32cd" stroke-dasharray="5,2" d="M346.91,-189.65C326.05,-184.8 295.88,-176.02 272.5,-162 260.37,-154.72 260.74,-148.59 249.5,-140 230.92,-125.8 207.5,-112.38 192.05,-104.07"/>
<polygon fill="#9a32cd" stroke="#9a32cd" points="346.36,-193.11 356.88,-191.83 347.86,-186.27 346.36,-193.11"/>
<text text-anchor="middle" x="315" y="-148.5" font-family="Helvetica,sans-Serif" font-size="10.00"> reference_file_id</text>
</g>
<!-- Node8 -->
<g id="node8" class="node">
<title>Node8</title>
<g id="a_node8"><a xlink:href="structAxisRange.html" target="_top" xlink:title=" ">
<polygon fill="none" stroke="black" points="435.5,-85 435.5,-104 503.5,-104 503.5,-85 435.5,-85"/>
<text text-anchor="middle" x="469.5" y="-92" font-family="Helvetica,sans-Serif" font-size="10.00">AxisRange</text>
</a>
</g>
</g>
<!-- Node5&#45;&gt;Node8 -->
<g id="edge9" class="edge">
<title>Node5&#45;&gt;Node8</title>
<path fill="none" stroke="#9a32cd" stroke-dasharray="5,2" d="M387.42,-178.42C408.4,-157.22 444.56,-120.7 460.96,-104.12"/>
<polygon fill="#9a32cd" stroke="#9a32cd" points="384.74,-176.15 380.2,-185.71 389.72,-181.07 384.74,-176.15"/>
<text text-anchor="middle" x="436" y="-154" font-family="Helvetica,sans-Serif" font-size="10.00"> from</text>
<text text-anchor="middle" x="436" y="-143" font-family="Helvetica,sans-Serif" font-size="10.00">to</text>
</g>
<!-- Node6 -->
<g id="node6" class="node">
<title>Node6</title>
<g id="a_node6"><a xlink:title=" ">
<polygon fill="none" stroke="#bfbfbf" points="148,-180.5 148,-210.5 259,-210.5 259,-180.5 148,-180.5"/>
<text text-anchor="start" x="156" y="-198.5" font-family="Helvetica,sans-Serif" font-size="10.00">std::vector&lt; CARTA</text>
<text text-anchor="middle" x="203.5" y="-187.5" font-family="Helvetica,sans-Serif" font-size="10.00">::Point &gt;</text>
</a>
</g>
</g>
<!-- Node6&#45;&gt;Node2 -->
<g id="edge5" class="edge">
<title>Node6&#45;&gt;Node2</title>
<path fill="none" stroke="#9a32cd" stroke-dasharray="5,2" d="M181.92,-172.31C179.73,-169.05 177.82,-165.58 176.5,-162 169.21,-142.29 171.78,-116.99 173.88,-104.02"/>
<polygon fill="#9a32cd" stroke="#9a32cd" points="179.28,-174.61 188.19,-180.35 184.8,-170.31 179.28,-174.61"/>
<text text-anchor="middle" x="213" y="-148.5" font-family="Helvetica,sans-Serif" font-size="10.00"> control_points</text>
</g>
<!-- Node7 -->
<g id="node7" class="node">
<title>Node7</title>
<g id="a_node7"><a xlink:title=" ">
<polygon fill="none" stroke="#bfbfbf" points="183,-258.5 183,-277.5 224,-277.5 224,-258.5 183,-258.5"/>
<text text-anchor="middle" x="203.5" y="-265.5" font-family="Helvetica,sans-Serif" font-size="10.00">Point</text>
</a>
</g>
</g>
<!-- Node7&#45;&gt;Node6 -->
<g id="edge6" class="edge">
<title>Node7&#45;&gt;Node6</title>
<path fill="none" stroke="#9a32cd" stroke-dasharray="5,2" d="M203.5,-248.24C203.5,-236.41 203.5,-221.38 203.5,-210.58"/>
<polygon fill="#9a32cd" stroke="#9a32cd" points="200,-248.36 203.5,-258.36 207,-248.36 200,-248.36"/>
<text text-anchor="middle" x="228" y="-232" font-family="Helvetica,sans-Serif" font-size="10.00"> elements</text>
</g>
<!-- Node8&#45;&gt;Node1 -->
<g id="edge8" class="edge">
<title>Node8&#45;&gt;Node1</title>
<path fill="none" stroke="#9a32cd" stroke-dasharray="5,2" d="M451.7,-78.51C431.21,-61.27 398.28,-33.54 381.71,-19.6"/>
<polygon fill="#9a32cd" stroke="#9a32cd" points="449.48,-81.22 459.38,-84.98 453.99,-75.86 449.48,-81.22"/>
<text text-anchor="middle" x="452.5" y="-41" font-family="Helvetica,sans-Serif" font-size="10.00"> spectral_range</text>
</g>
</g>
</svg>
