<?xml version="1.0" encoding="UTF-8" standalone="no"?>
<!DOCTYPE svg PUBLIC "-//W3C//DTD SVG 1.1//EN"
 "http://www.w3.org/Graphics/SVG/1.1/DTD/svg11.dtd">
<!-- Generated by graphviz version 2.43.0 (0)
 -->
<!-- Title: carta::TilePool Pages: 1 -->
<svg width="410pt" height="106pt"
 viewBox="0.00 0.00 409.50 106.00" xmlns="http://www.w3.org/2000/svg" xmlns:xlink="http://www.w3.org/1999/xlink">
<g id="graph0" class="graph" transform="scale(1 1) rotate(0) translate(4 102)">
<title>carta::TilePool</title>
<!-- Node1 -->
<g id="node1" class="node">
<title>Node1</title>
<g id="a_node1"><a xlink:title="This struct stores the memory allocated for cached tile data.">
<polygon fill="#bfbfbf" stroke="black" points="196,-0.5 196,-19.5 282,-19.5 282,-0.5 196,-0.5"/>
<text text-anchor="middle" x="239" y="-7.5" font-family="Helvetica,sans-Serif" font-size="10.00">carta::TilePool</text>
</a>
</g>
</g>
<!-- Node2 -->
<g id="node2" class="node">
<title>Node2</title>
<g id="a_node2"><a xlink:title=" ">
<polygon fill="none" stroke="#bfbfbf" points="0,-67.5 0,-97.5 130,-97.5 130,-67.5 0,-67.5"/>
<text text-anchor="start" x="8" y="-85.5" font-family="Helvetica,sans-Serif" font-size="10.00">std::enable_shared</text>
<text text-anchor="middle" x="65" y="-74.5" font-family="Helvetica,sans-Serif" font-size="10.00">_from_this&lt; TilePool &gt;</text>
</a>
</g>
</g>
<!-- Node2&#45;&gt;Node1 -->
<g id="edge1" class="edge">
<title>Node2&#45;&gt;Node1</title>
<path fill="none" stroke="midnightblue" d="M109.27,-63.56C144.12,-49.44 191.13,-30.4 217.94,-19.53"/>
<polygon fill="midnightblue" stroke="midnightblue" points="107.75,-60.4 99.79,-67.4 110.38,-66.89 107.75,-60.4"/>
</g>
<!-- Node3 -->
<g id="node3" class="node">
<title>Node3</title>
<g id="a_node3"><a xlink:title=" ">
<polygon fill="none" stroke="#bfbfbf" points="148.5,-73 148.5,-92 217.5,-92 217.5,-73 148.5,-73"/>
<text text-anchor="middle" x="183" y="-80" font-family="Helvetica,sans-Serif" font-size="10.00">std::mutex</text>
</a>
</g>
</g>
<!-- Node3&#45;&gt;Node1 -->
<g id="edge2" class="edge">
<title>Node3&#45;&gt;Node1</title>
<path fill="none" stroke="#9a32cd" stroke-dasharray="5,2" d="M179.81,-62.59C179.41,-54.44 180.35,-45.15 185,-38 190.49,-29.56 199.45,-23.66 208.51,-19.57"/>
<polygon fill="#9a32cd" stroke="#9a32cd" points="176.36,-63.17 180.97,-72.71 183.31,-62.38 176.36,-63.17"/>
<text text-anchor="middle" x="229" y="-41" font-family="Helvetica,sans-Serif" font-size="10.00"> _tile_pool_mutex</text>
</g>
<!-- Node4 -->
<g id="node4" class="node">
<title>Node4</title>
<g id="a_node4"><a xlink:title=" ">
<polygon fill="none" stroke="#bfbfbf" points="236,-73 236,-92 354,-92 354,-73 236,-73"/>
<text text-anchor="middle" x="295" y="-80" font-family="Helvetica,sans-Serif" font-size="10.00">std::stack&lt; TilePtr &gt;</text>
</a>
</g>
</g>
<!-- Node4&#45;&gt;Node1 -->
<g id="edge3" class="edge">
<title>Node4&#45;&gt;Node1</title>
<path fill="none" stroke="#9a32cd" stroke-dasharray="5,2" d="M287.96,-63.38C284.24,-55.14 279.17,-45.56 273,-38 267.19,-30.87 259.2,-24.41 252.42,-19.59"/>
<polygon fill="#9a32cd" stroke="#9a32cd" points="284.83,-64.98 291.92,-72.85 291.29,-62.28 284.83,-64.98"/>
<text text-anchor="middle" x="297.5" y="-41" font-family="Helvetica,sans-Serif" font-size="10.00"> _stack</text>
</g>
<!-- Node5 -->
<g id="node5" class="node">
<title>Node5</title>
<g id="a_node5"><a xlink:title=" ">
<polygon fill="none" stroke="#bfbfbf" points="372.5,-73 372.5,-92 401.5,-92 401.5,-73 372.5,-73"/>
<text text-anchor="middle" x="387" y="-80" font-family="Helvetica,sans-Serif" font-size="10.00">int</text>
</a>
</g>
</g>
<!-- Node5&#45;&gt;Node1 -->
<g id="edge4" class="edge">
<title>Node5&#45;&gt;Node1</title>
<path fill="none" stroke="#9a32cd" stroke-dasharray="5,2" d="M367.18,-66.99C354,-57.81 336.04,-46.18 319,-38 303.4,-30.52 285.19,-24.2 270.08,-19.56"/>
<polygon fill="#9a32cd" stroke="#9a32cd" points="365.29,-69.94 375.47,-72.88 369.35,-64.24 365.29,-69.94"/>
<text text-anchor="middle" x="363" y="-41" font-family="Helvetica,sans-Serif" font-size="10.00"> _capacity</text>
</g>
</g>
</svg>
