<?xml version="1.0" encoding="UTF-8" standalone="no"?>
<!DOCTYPE svg PUBLIC "-//W3C//DTD SVG 1.1//EN"
 "http://www.w3.org/Graphics/SVG/1.1/DTD/svg11.dtd">
<!-- Generated by graphviz version 2.43.0 (0)
 -->
<!-- Title: carta::SpectralConfig Pages: 1 -->
<svg width="222pt" height="195pt"
 viewBox="0.00 0.00 221.50 195.00" xmlns="http://www.w3.org/2000/svg" xmlns:xlink="http://www.w3.org/1999/xlink">
<g id="graph0" class="graph" transform="scale(1 1) rotate(0) translate(4 191)">
<title>carta::SpectralConfig</title>
<!-- Node1 -->
<g id="node1" class="node">
<title>Node1</title>
<g id="a_node1"><a xlink:title=" ">
<polygon fill="#bfbfbf" stroke="black" points="46,-0.5 46,-19.5 164,-19.5 164,-0.5 46,-0.5"/>
<text text-anchor="middle" x="105" y="-7.5" font-family="Helvetica,sans-Serif" font-size="10.00">carta::SpectralConfig</text>
</a>
</g>
</g>
<!-- Node2 -->
<g id="node2" class="node">
<title>Node2</title>
<g id="a_node2"><a xlink:title=" ">
<polygon fill="none" stroke="#bfbfbf" points="19.5,-84 19.5,-103 84.5,-103 84.5,-84 19.5,-84"/>
<text text-anchor="middle" x="52" y="-91" font-family="Helvetica,sans-Serif" font-size="10.00">std::string</text>
</a>
</g>
</g>
<!-- Node2&#45;&gt;Node1 -->
<g id="edge1" class="edge">
<title>Node2&#45;&gt;Node1</title>
<path fill="none" stroke="#9a32cd" stroke-dasharray="5,2" d="M57.11,-73.87C60.71,-62.8 66.27,-48.85 74,-38 79.05,-30.91 86.33,-24.44 92.56,-19.62"/>
<polygon fill="#9a32cd" stroke="#9a32cd" points="53.66,-73.17 54.15,-83.76 60.37,-75.18 53.66,-73.17"/>
<text text-anchor="middle" x="101.5" y="-46.5" font-family="Helvetica,sans-Serif" font-size="10.00"> coordinate</text>
</g>
<!-- Node3 -->
<g id="node3" class="node">
<title>Node3</title>
<g id="a_node3"><a xlink:title=" ">
<polygon fill="none" stroke="#bfbfbf" points="0,-156.5 0,-186.5 104,-186.5 104,-156.5 0,-156.5"/>
<text text-anchor="start" x="8" y="-174.5" font-family="Helvetica,sans-Serif" font-size="10.00">std::basic_string&lt;</text>
<text text-anchor="middle" x="52" y="-163.5" font-family="Helvetica,sans-Serif" font-size="10.00"> Char &gt;</text>
</a>
</g>
</g>
<!-- Node3&#45;&gt;Node2 -->
<g id="edge2" class="edge">
<title>Node3&#45;&gt;Node2</title>
<path fill="none" stroke="midnightblue" d="M52,-146.17C52,-131.4 52,-113.45 52,-103.06"/>
<polygon fill="midnightblue" stroke="midnightblue" points="48.5,-146.2 52,-156.2 55.5,-146.21 48.5,-146.2"/>
</g>
<!-- Node4 -->
<g id="node4" class="node">
<title>Node4</title>
<g id="a_node4"><a xlink:title=" ">
<polygon fill="none" stroke="#bfbfbf" points="102.5,-78.5 102.5,-108.5 213.5,-108.5 213.5,-78.5 102.5,-78.5"/>
<text text-anchor="start" x="110.5" y="-96.5" font-family="Helvetica,sans-Serif" font-size="10.00">std::vector&lt; CARTA</text>
<text text-anchor="middle" x="158" y="-85.5" font-family="Helvetica,sans-Serif" font-size="10.00">::StatsType &gt;</text>
</a>
</g>
</g>
<!-- Node4&#45;&gt;Node1 -->
<g id="edge3" class="edge">
<title>Node4&#45;&gt;Node1</title>
<path fill="none" stroke="#9a32cd" stroke-dasharray="5,2" d="M146.96,-68.85C141.98,-59 135.7,-47.63 129,-38 124.42,-31.41 118.42,-24.66 113.56,-19.56"/>
<polygon fill="#9a32cd" stroke="#9a32cd" points="143.94,-70.64 151.49,-78.08 150.23,-67.56 143.94,-70.64"/>
<text text-anchor="middle" x="167" y="-52" font-family="Helvetica,sans-Serif" font-size="10.00"> all_stats</text>
<text text-anchor="middle" x="167" y="-41" font-family="Helvetica,sans-Serif" font-size="10.00">new_stats</text>
</g>
<!-- Node5 -->
<g id="node5" class="node">
<title>Node5</title>
<g id="a_node5"><a xlink:title=" ">
<polygon fill="none" stroke="#bfbfbf" points="126,-162 126,-181 190,-181 190,-162 126,-162"/>
<text text-anchor="middle" x="158" y="-169" font-family="Helvetica,sans-Serif" font-size="10.00">StatsType</text>
</a>
</g>
</g>
<!-- Node5&#45;&gt;Node4 -->
<g id="edge4" class="edge">
<title>Node5&#45;&gt;Node4</title>
<path fill="none" stroke="#9a32cd" stroke-dasharray="5,2" d="M158,-151.78C158,-138.4 158,-120.69 158,-108.52"/>
<polygon fill="#9a32cd" stroke="#9a32cd" points="154.5,-151.78 158,-161.78 161.5,-151.78 154.5,-151.78"/>
<text text-anchor="middle" x="182.5" y="-130" font-family="Helvetica,sans-Serif" font-size="10.00"> elements</text>
</g>
</g>
</svg>
