<?xml version="1.0" encoding="UTF-8" standalone="no"?>
<!DOCTYPE svg PUBLIC "-//W3C//DTD SVG 1.1//EN"
 "http://www.w3.org/Graphics/SVG/1.1/DTD/svg11.dtd">
<!-- Generated by graphviz version 2.43.0 (0)
 -->
<!-- Title: TableController.h Pages: 1 -->
<svg width="1732pt" height="274pt"
 viewBox="0.00 0.00 1732.00 274.00" xmlns="http://www.w3.org/2000/svg" xmlns:xlink="http://www.w3.org/1999/xlink">
<g id="graph0" class="graph" transform="scale(1 1) rotate(0) translate(4 270)">
<title>TableController.h</title>
<!-- Node1 -->
<g id="node1" class="node">
<title>Node1</title>
<g id="a_node1"><a xlink:title=" ">
<polygon fill="#bfbfbf" stroke="black" points="911,-246.5 911,-265.5 1009,-265.5 1009,-246.5 911,-246.5"/>
<text text-anchor="middle" x="960" y="-253.5" font-family="Helvetica,sans-Serif" font-size="10.00">TableController.h</text>
</a>
</g>
</g>
<!-- Node2 -->
<g id="node2" class="node">
<title>Node2</title>
<g id="a_node2"><a xlink:title=" ">
<polygon fill="none" stroke="#bfbfbf" points="203.5,-185 203.5,-204 268.5,-204 268.5,-185 203.5,-185"/>
<text text-anchor="middle" x="236" y="-192" font-family="Helvetica,sans-Serif" font-size="10.00">functional</text>
</a>
</g>
</g>
<!-- Node1&#45;&gt;Node2 -->
<g id="edge1" class="edge">
<title>Node1&#45;&gt;Node2</title>
<path fill="none" stroke="midnightblue" d="M910.66,-255.63C798.27,-256.21 514.95,-252.88 283,-210 278.75,-209.21 274.34,-208.17 270.01,-207.01"/>
<polygon fill="midnightblue" stroke="midnightblue" points="270.7,-203.56 260.12,-204.12 268.74,-210.28 270.7,-203.56"/>
</g>
<!-- Node3 -->
<g id="node3" class="node">
<title>Node3</title>
<g id="a_node3"><a xlink:title=" ">
<polygon fill="none" stroke="#bfbfbf" points="0,-62 0,-81 44,-81 44,-62 0,-62"/>
<text text-anchor="middle" x="22" y="-69" font-family="Helvetica,sans-Serif" font-size="10.00">string</text>
</a>
</g>
</g>
<!-- Node1&#45;&gt;Node3 -->
<g id="edge2" class="edge">
<title>Node1&#45;&gt;Node3</title>
<path fill="none" stroke="midnightblue" d="M910.86,-253.12C825.31,-249.21 643.74,-238.1 493,-210 293.39,-172.78 243.39,-157.59 53,-87 51.57,-86.47 50.12,-85.9 48.66,-85.31"/>
<polygon fill="midnightblue" stroke="midnightblue" points="49.73,-81.95 39.16,-81.14 46.92,-88.36 49.73,-81.95"/>
</g>
<!-- Node4 -->
<g id="node4" class="node">
<title>Node4</title>
<g id="a_node4"><a xlink:title=" ">
<polygon fill="none" stroke="#bfbfbf" points="667.5,-123.5 667.5,-142.5 760.5,-142.5 760.5,-123.5 667.5,-123.5"/>
<text text-anchor="middle" x="714" y="-130.5" font-family="Helvetica,sans-Serif" font-size="10.00">unordered_map</text>
</a>
</g>
</g>
<!-- Node1&#45;&gt;Node4 -->
<g id="edge3" class="edge">
<title>Node1&#45;&gt;Node4</title>
<path fill="none" stroke="midnightblue" d="M931.49,-246.39C906.12,-238.3 868.29,-225.2 837,-210 799.16,-191.62 758.15,-164.74 734.34,-148.36"/>
<polygon fill="midnightblue" stroke="midnightblue" points="736.31,-145.46 726.1,-142.63 732.31,-151.21 736.31,-145.46"/>
</g>
<!-- Node5 -->
<g id="node5" class="node">
<title>Node5</title>
<g id="a_node5"><a xlink:title=" ">
<polygon fill="none" stroke="#bfbfbf" points="1036.5,-179.5 1036.5,-209.5 1161.5,-209.5 1161.5,-179.5 1036.5,-179.5"/>
<text text-anchor="start" x="1044.5" y="-197.5" font-family="Helvetica,sans-Serif" font-size="10.00">carta&#45;protobuf/catalog</text>
<text text-anchor="middle" x="1099" y="-186.5" font-family="Helvetica,sans-Serif" font-size="10.00">_file_info.pb.h</text>
</a>
</g>
</g>
<!-- Node1&#45;&gt;Node5 -->
<g id="edge4" class="edge">
<title>Node1&#45;&gt;Node5</title>
<path fill="none" stroke="midnightblue" d="M979.92,-246.48C999.88,-237.93 1031.25,-224.5 1056.78,-213.57"/>
<polygon fill="midnightblue" stroke="midnightblue" points="1058.42,-216.68 1066.24,-209.52 1055.67,-210.24 1058.42,-216.68"/>
</g>
<!-- Node6 -->
<g id="node6" class="node">
<title>Node6</title>
<g id="a_node6"><a xlink:title=" ">
<polygon fill="none" stroke="#bfbfbf" points="1179.5,-179.5 1179.5,-209.5 1304.5,-209.5 1304.5,-179.5 1179.5,-179.5"/>
<text text-anchor="start" x="1187.5" y="-197.5" font-family="Helvetica,sans-Serif" font-size="10.00">carta&#45;protobuf/catalog</text>
<text text-anchor="middle" x="1242" y="-186.5" font-family="Helvetica,sans-Serif" font-size="10.00">_filter.pb.h</text>
</a>
</g>
</g>
<!-- Node1&#45;&gt;Node6 -->
<g id="edge5" class="edge">
<title>Node1&#45;&gt;Node6</title>
<path fill="none" stroke="midnightblue" d="M1000.4,-246.48C1044.42,-237.19 1115.72,-222.14 1169.48,-210.8"/>
<polygon fill="midnightblue" stroke="midnightblue" points="1170.25,-214.22 1179.31,-208.73 1168.8,-207.37 1170.25,-214.22"/>
</g>
<!-- Node7 -->
<g id="node7" class="node">
<title>Node7</title>
<g id="a_node7"><a xlink:title=" ">
<polygon fill="none" stroke="#bfbfbf" points="1322.5,-179.5 1322.5,-209.5 1447.5,-209.5 1447.5,-179.5 1322.5,-179.5"/>
<text text-anchor="start" x="1330.5" y="-197.5" font-family="Helvetica,sans-Serif" font-size="10.00">carta&#45;protobuf/catalog</text>
<text text-anchor="middle" x="1385" y="-186.5" font-family="Helvetica,sans-Serif" font-size="10.00">_list.pb.h</text>
</a>
</g>
</g>
<!-- Node1&#45;&gt;Node7 -->
<g id="edge6" class="edge">
<title>Node1&#45;&gt;Node7</title>
<path fill="none" stroke="midnightblue" d="M1009.13,-249.93C1075.7,-242.81 1198.46,-228.75 1312.39,-210.2"/>
<polygon fill="midnightblue" stroke="midnightblue" points="1313.03,-213.64 1322.33,-208.56 1311.89,-206.73 1313.03,-213.64"/>
</g>
<!-- Node8 -->
<g id="node8" class="node">
<title>Node8</title>
<g id="a_node8"><a xlink:title=" ">
<polygon fill="none" stroke="#bfbfbf" points="1465.5,-179.5 1465.5,-209.5 1578.5,-209.5 1578.5,-179.5 1465.5,-179.5"/>
<text text-anchor="start" x="1473.5" y="-197.5" font-family="Helvetica,sans-Serif" font-size="10.00">carta&#45;protobuf/open</text>
<text text-anchor="middle" x="1522" y="-186.5" font-family="Helvetica,sans-Serif" font-size="10.00">_catalog_file.pb.h</text>
</a>
</g>
</g>
<!-- Node1&#45;&gt;Node8 -->
<g id="edge7" class="edge">
<title>Node1&#45;&gt;Node8</title>
<path fill="none" stroke="midnightblue" d="M1009.28,-252.65C1097.11,-248.01 1286.56,-235.91 1455.3,-210.14"/>
<polygon fill="midnightblue" stroke="midnightblue" points="1456.01,-213.57 1465.36,-208.59 1454.94,-206.66 1456.01,-213.57"/>
</g>
<!-- Node9 -->
<g id="node9" class="node">
<title>Node9</title>
<g id="a_node9"><a xlink:href="ProgramSettings_8h.html" target="_top" xlink:title=" ">
<polygon fill="none" stroke="black" points="846,-185 846,-204 980,-204 980,-185 846,-185"/>
<text text-anchor="middle" x="913" y="-192" font-family="Helvetica,sans-Serif" font-size="10.00">Main/ProgramSettings.h</text>
</a>
</g>
</g>
<!-- Node1&#45;&gt;Node9 -->
<g id="edge8" class="edge">
<title>Node1&#45;&gt;Node9</title>
<path fill="none" stroke="midnightblue" d="M953.27,-246.48C946.22,-237.55 934.97,-223.31 926.15,-212.14"/>
<polygon fill="midnightblue" stroke="midnightblue" points="928.67,-209.69 919.72,-204.01 923.17,-214.03 928.67,-209.69"/>
</g>
<!-- Node21 -->
<g id="node21" class="node">
<title>Node21</title>
<g id="a_node21"><a xlink:href="FileSystem_8h.html" target="_top" xlink:title=" ">
<polygon fill="none" stroke="black" points="1624,-62 1624,-81 1724,-81 1724,-62 1624,-62"/>
<text text-anchor="middle" x="1674" y="-69" font-family="Helvetica,sans-Serif" font-size="10.00">Util/FileSystem.h</text>
</a>
</g>
</g>
<!-- Node1&#45;&gt;Node21 -->
<g id="edge44" class="edge">
<title>Node1&#45;&gt;Node21</title>
<path fill="none" stroke="midnightblue" d="M965.03,-246.17C974.82,-229.87 998.14,-195.24 1028,-179 1085.99,-147.45 1550.27,-100 1615,-87 1620.36,-85.92 1625.98,-84.69 1631.52,-83.4"/>
<polygon fill="midnightblue" stroke="midnightblue" points="1632.43,-86.78 1641.34,-81.05 1630.8,-79.97 1632.43,-86.78"/>
</g>
<!-- Node23 -->
<g id="node23" class="node">
<title>Node23</title>
<g id="a_node23"><a xlink:href="Table_8h.html" target="_top" xlink:title=" ">
<polygon fill="none" stroke="black" points="501.5,-185 501.5,-204 552.5,-204 552.5,-185 501.5,-185"/>
<text text-anchor="middle" x="527" y="-192" font-family="Helvetica,sans-Serif" font-size="10.00">Table.h</text>
</a>
</g>
</g>
<!-- Node1&#45;&gt;Node23 -->
<g id="edge26" class="edge">
<title>Node1&#45;&gt;Node23</title>
<path fill="none" stroke="midnightblue" d="M910.75,-248.23C822.68,-236.13 640.21,-211.06 562.88,-200.43"/>
<polygon fill="midnightblue" stroke="midnightblue" points="563.07,-196.92 552.69,-199.03 562.12,-203.86 563.07,-196.92"/>
</g>
<!-- Node9&#45;&gt;Node3 -->
<g id="edge10" class="edge">
<title>Node9&#45;&gt;Node3</title>
<path fill="none" stroke="midnightblue" d="M845.66,-193.13C759.82,-190.96 607.73,-181.39 484,-143 465.77,-137.34 464.3,-128.42 446,-123 277.82,-73.2 222.3,-132.84 53,-87 51.06,-86.48 49.1,-85.84 47.15,-85.13"/>
<polygon fill="midnightblue" stroke="midnightblue" points="48.26,-81.8 37.69,-81.12 45.53,-88.24 48.26,-81.8"/>
</g>
<!-- Node9&#45;&gt;Node4 -->
<g id="edge12" class="edge">
<title>Node9&#45;&gt;Node4</title>
<path fill="none" stroke="midnightblue" d="M884.49,-184.98C849.76,-174.59 790.96,-157.01 752.31,-145.45"/>
<polygon fill="midnightblue" stroke="midnightblue" points="753.04,-142.02 742.46,-142.51 751.04,-148.73 753.04,-142.02"/>
</g>
<!-- Node10 -->
<g id="node10" class="node">
<title>Node10</title>
<g id="a_node10"><a xlink:title=" ">
<polygon fill="none" stroke="#bfbfbf" points="925,-62 925,-81 985,-81 985,-62 925,-62"/>
<text text-anchor="middle" x="955" y="-69" font-family="Helvetica,sans-Serif" font-size="10.00">iostream</text>
</a>
</g>
</g>
<!-- Node9&#45;&gt;Node10 -->
<g id="edge9" class="edge">
<title>Node9&#45;&gt;Node10</title>
<path fill="none" stroke="midnightblue" d="M917.52,-184.74C922.52,-174.81 930.59,-158.05 936,-143 942.16,-125.87 947.39,-105.77 950.79,-91.43"/>
<polygon fill="midnightblue" stroke="midnightblue" points="954.29,-91.85 953.11,-81.32 947.46,-90.29 954.29,-91.85"/>
</g>
<!-- Node11 -->
<g id="node11" class="node">
<title>Node11</title>
<g id="a_node11"><a xlink:title=" ">
<polygon fill="none" stroke="#bfbfbf" points="1133.5,-123.5 1133.5,-142.5 1174.5,-142.5 1174.5,-123.5 1133.5,-123.5"/>
<text text-anchor="middle" x="1154" y="-130.5" font-family="Helvetica,sans-Serif" font-size="10.00">tuple</text>
</a>
</g>
</g>
<!-- Node9&#45;&gt;Node11 -->
<g id="edge11" class="edge">
<title>Node9&#45;&gt;Node11</title>
<path fill="none" stroke="midnightblue" d="M948.39,-184.95C989.45,-175.01 1059.18,-158.02 1119,-143 1120.45,-142.64 1121.92,-142.26 1123.42,-141.89"/>
<polygon fill="midnightblue" stroke="midnightblue" points="1124.46,-145.23 1133.28,-139.37 1122.73,-138.45 1124.46,-145.23"/>
</g>
<!-- Node12 -->
<g id="node12" class="node">
<title>Node12</title>
<g id="a_node12"><a xlink:title=" ">
<polygon fill="none" stroke="#bfbfbf" points="695.5,-62 695.5,-81 742.5,-81 742.5,-62 695.5,-62"/>
<text text-anchor="middle" x="719" y="-69" font-family="Helvetica,sans-Serif" font-size="10.00">vector</text>
</a>
</g>
</g>
<!-- Node9&#45;&gt;Node12 -->
<g id="edge13" class="edge">
<title>Node9&#45;&gt;Node12</title>
<path fill="none" stroke="midnightblue" d="M891.76,-184.93C870.02,-175.79 835.61,-160.27 808,-143 781.29,-126.29 753.24,-102.96 735.93,-87.79"/>
<polygon fill="midnightblue" stroke="midnightblue" points="738.16,-85.09 728.35,-81.07 733.51,-90.32 738.16,-85.09"/>
</g>
<!-- Node13 -->
<g id="node13" class="node">
<title>Node13</title>
<g id="a_node13"><a xlink:title=" ">
<polygon fill="none" stroke="#bfbfbf" points="817,-123.5 817,-142.5 927,-142.5 927,-123.5 817,-123.5"/>
<text text-anchor="middle" x="872" y="-130.5" font-family="Helvetica,sans-Serif" font-size="10.00">nlohmann/json.hpp</text>
</a>
</g>
</g>
<!-- Node9&#45;&gt;Node13 -->
<g id="edge14" class="edge">
<title>Node9&#45;&gt;Node13</title>
<path fill="none" stroke="midnightblue" d="M907.13,-184.98C901.04,-176.14 891.36,-162.09 883.7,-150.98"/>
<polygon fill="midnightblue" stroke="midnightblue" points="886.42,-148.76 877.86,-142.51 880.66,-152.73 886.42,-148.76"/>
</g>
<!-- Node14 -->
<g id="node14" class="node">
<title>Node14</title>
<g id="a_node14"><a xlink:href="Logger_8h.html" target="_top" xlink:title=" ">
<polygon fill="none" stroke="black" points="983,-123.5 983,-142.5 1077,-142.5 1077,-123.5 983,-123.5"/>
<text text-anchor="middle" x="1030" y="-130.5" font-family="Helvetica,sans-Serif" font-size="10.00">Logger/Logger.h</text>
</a>
</g>
</g>
<!-- Node9&#45;&gt;Node14 -->
<g id="edge15" class="edge">
<title>Node9&#45;&gt;Node14</title>
<path fill="none" stroke="midnightblue" d="M929.76,-184.98C949.22,-175.08 981.55,-158.64 1004.21,-147.12"/>
<polygon fill="midnightblue" stroke="midnightblue" points="1005.94,-150.16 1013.27,-142.51 1002.77,-143.92 1005.94,-150.16"/>
</g>
<!-- Node9&#45;&gt;Node21 -->
<g id="edge25" class="edge">
<title>Node9&#45;&gt;Node21</title>
<path fill="none" stroke="midnightblue" d="M949.79,-184.92C985.29,-176.14 1040.22,-161.23 1086,-143 1104.1,-135.79 1106.24,-128.26 1125,-123 1335.24,-64 1399.33,-121.18 1615,-87 1621.01,-86.05 1627.3,-84.79 1633.45,-83.41"/>
<polygon fill="midnightblue" stroke="midnightblue" points="1634.65,-86.72 1643.58,-81.01 1633.04,-79.91 1634.65,-86.72"/>
</g>
<!-- Node14&#45;&gt;Node10 -->
<g id="edge16" class="edge">
<title>Node14&#45;&gt;Node10</title>
<path fill="none" stroke="midnightblue" d="M1019.25,-123.48C1007.45,-114.11 988.26,-98.88 973.92,-87.51"/>
<polygon fill="midnightblue" stroke="midnightblue" points="975.74,-84.48 965.73,-81.01 971.38,-89.97 975.74,-84.48"/>
</g>
<!-- Node15 -->
<g id="node15" class="node">
<title>Node15</title>
<g id="a_node15"><a xlink:title=" ">
<polygon fill="none" stroke="#bfbfbf" points="1502,-62 1502,-81 1606,-81 1606,-62 1502,-62"/>
<text text-anchor="middle" x="1554" y="-69" font-family="Helvetica,sans-Serif" font-size="10.00">spdlog/common.h</text>
</a>
</g>
</g>
<!-- Node14&#45;&gt;Node15 -->
<g id="edge17" class="edge">
<title>Node14&#45;&gt;Node15</title>
<path fill="none" stroke="midnightblue" d="M1077.25,-124.76C1081.89,-124.13 1086.54,-123.53 1091,-123 1269.14,-101.9 1315.95,-115.82 1493,-87 1499.2,-85.99 1505.71,-84.7 1512.08,-83.3"/>
<polygon fill="midnightblue" stroke="midnightblue" points="1512.92,-86.7 1521.88,-81.05 1511.35,-79.88 1512.92,-86.7"/>
</g>
<!-- Node16 -->
<g id="node16" class="node">
<title>Node16</title>
<g id="a_node16"><a xlink:title=" ">
<polygon fill="none" stroke="#bfbfbf" points="1003.5,-56.5 1003.5,-86.5 1106.5,-86.5 1106.5,-56.5 1003.5,-56.5"/>
<text text-anchor="start" x="1011.5" y="-74.5" font-family="Helvetica,sans-Serif" font-size="10.00">spdlog/details/log</text>
<text text-anchor="middle" x="1055" y="-63.5" font-family="Helvetica,sans-Serif" font-size="10.00">_msg.h</text>
</a>
</g>
</g>
<!-- Node14&#45;&gt;Node16 -->
<g id="edge18" class="edge">
<title>Node14&#45;&gt;Node16</title>
<path fill="none" stroke="midnightblue" d="M1033.58,-123.48C1036.62,-116.25 1041.12,-105.53 1045.22,-95.78"/>
<polygon fill="midnightblue" stroke="midnightblue" points="1048.46,-97.1 1049.11,-86.52 1042.01,-94.39 1048.46,-97.1"/>
</g>
<!-- Node17 -->
<g id="node17" class="node">
<title>Node17</title>
<g id="a_node17"><a xlink:title=" ">
<polygon fill="none" stroke="#bfbfbf" points="1124.5,-56.5 1124.5,-86.5 1243.5,-86.5 1243.5,-56.5 1124.5,-56.5"/>
<text text-anchor="start" x="1132.5" y="-74.5" font-family="Helvetica,sans-Serif" font-size="10.00">spdlog/sinks/rotating</text>
<text text-anchor="middle" x="1184" y="-63.5" font-family="Helvetica,sans-Serif" font-size="10.00">_file_sink.h</text>
</a>
</g>
</g>
<!-- Node14&#45;&gt;Node17 -->
<g id="edge19" class="edge">
<title>Node14&#45;&gt;Node17</title>
<path fill="none" stroke="midnightblue" d="M1052.06,-123.48C1074.48,-114.81 1109.86,-101.15 1138.34,-90.14"/>
<polygon fill="midnightblue" stroke="midnightblue" points="1139.64,-93.39 1147.71,-86.52 1137.12,-86.86 1139.64,-93.39"/>
</g>
<!-- Node18 -->
<g id="node18" class="node">
<title>Node18</title>
<g id="a_node18"><a xlink:title=" ">
<polygon fill="none" stroke="#bfbfbf" points="1261.5,-56.5 1261.5,-86.5 1372.5,-86.5 1372.5,-56.5 1261.5,-56.5"/>
<text text-anchor="start" x="1269.5" y="-74.5" font-family="Helvetica,sans-Serif" font-size="10.00">spdlog/sinks/stdout</text>
<text text-anchor="middle" x="1317" y="-63.5" font-family="Helvetica,sans-Serif" font-size="10.00">_color_sinks.h</text>
</a>
</g>
</g>
<!-- Node14&#45;&gt;Node18 -->
<g id="edge20" class="edge">
<title>Node14&#45;&gt;Node18</title>
<path fill="none" stroke="midnightblue" d="M1074.07,-123.43C1116.99,-115.01 1184.33,-101.6 1251.3,-87.34"/>
<polygon fill="midnightblue" stroke="midnightblue" points="1252.12,-90.74 1261.17,-85.23 1250.66,-83.9 1252.12,-90.74"/>
</g>
<!-- Node19 -->
<g id="node19" class="node">
<title>Node19</title>
<g id="a_node19"><a xlink:title=" ">
<polygon fill="none" stroke="#bfbfbf" points="1390.5,-62 1390.5,-81 1483.5,-81 1483.5,-62 1390.5,-62"/>
<text text-anchor="middle" x="1437" y="-69" font-family="Helvetica,sans-Serif" font-size="10.00">spdlog/spdlog.h</text>
</a>
</g>
</g>
<!-- Node14&#45;&gt;Node19 -->
<g id="edge21" class="edge">
<title>Node14&#45;&gt;Node19</title>
<path fill="none" stroke="midnightblue" d="M1077.27,-124.91C1081.91,-124.25 1086.54,-123.6 1091,-123 1220.14,-105.49 1254.04,-111.67 1382,-87 1387.08,-86.02 1392.39,-84.83 1397.61,-83.57"/>
<polygon fill="midnightblue" stroke="midnightblue" points="1398.65,-86.92 1407.48,-81.06 1396.93,-80.13 1398.65,-86.92"/>
</g>
<!-- Node20 -->
<g id="node20" class="node">
<title>Node20</title>
<g id="a_node20"><a xlink:title=" ">
<polygon fill="none" stroke="#bfbfbf" points="761,-62 761,-81 907,-81 907,-62 761,-62"/>
<text text-anchor="middle" x="834" y="-69" font-family="Helvetica,sans-Serif" font-size="10.00">carta&#45;protobuf/enums.pb.h</text>
</a>
</g>
</g>
<!-- Node14&#45;&gt;Node20 -->
<g id="edge22" class="edge">
<title>Node14&#45;&gt;Node20</title>
<path fill="none" stroke="midnightblue" d="M1001.92,-123.48C967.71,-113.09 909.8,-95.51 871.73,-83.95"/>
<polygon fill="midnightblue" stroke="midnightblue" points="872.62,-80.56 862.03,-81.01 870.58,-87.26 872.62,-80.56"/>
</g>
<!-- Node14&#45;&gt;Node21 -->
<g id="edge23" class="edge">
<title>Node14&#45;&gt;Node21</title>
<path fill="none" stroke="midnightblue" d="M1077.24,-124.66C1081.88,-124.05 1086.53,-123.48 1091,-123 1323.09,-97.94 1384.35,-122.99 1615,-87 1621.01,-86.06 1627.3,-84.81 1633.45,-83.44"/>
<polygon fill="midnightblue" stroke="midnightblue" points="1634.66,-86.75 1643.58,-81.04 1633.04,-79.94 1634.66,-86.75"/>
</g>
<!-- Node22 -->
<g id="node22" class="node">
<title>Node22</title>
<g id="a_node22"><a xlink:title=" ">
<polygon fill="none" stroke="#bfbfbf" points="1640,-0.5 1640,-19.5 1708,-19.5 1708,-0.5 1640,-0.5"/>
<text text-anchor="middle" x="1674" y="-7.5" font-family="Helvetica,sans-Serif" font-size="10.00">filesystem</text>
</a>
</g>
</g>
<!-- Node21&#45;&gt;Node22 -->
<g id="edge24" class="edge">
<title>Node21&#45;&gt;Node22</title>
<path fill="none" stroke="midnightblue" d="M1674,-61.98C1674,-53.58 1674,-40.48 1674,-29.66"/>
<polygon fill="midnightblue" stroke="midnightblue" points="1677.5,-29.51 1674,-19.51 1670.5,-29.51 1677.5,-29.51"/>
</g>
<!-- Node23&#45;&gt;Node3 -->
<g id="edge27" class="edge">
<title>Node23&#45;&gt;Node3</title>
<path fill="none" stroke="midnightblue" d="M501.39,-187.32C467.27,-178.79 405.25,-162.27 354,-143 334.27,-135.58 331.22,-128.97 311,-123 199.96,-90.23 164.01,-119.89 53,-87 51.12,-86.44 49.21,-85.79 47.31,-85.07"/>
<polygon fill="midnightblue" stroke="midnightblue" points="48.62,-81.83 38.05,-81.12 45.87,-88.26 48.62,-81.83"/>
</g>
<!-- Node23&#45;&gt;Node4 -->
<g id="edge28" class="edge">
<title>Node23&#45;&gt;Node4</title>
<path fill="none" stroke="midnightblue" d="M552.61,-185.35C584.89,-175.08 640.58,-157.36 677.35,-145.66"/>
<polygon fill="midnightblue" stroke="midnightblue" points="678.72,-148.9 687.19,-142.53 676.6,-142.23 678.72,-148.9"/>
</g>
<!-- Node23&#45;&gt;Node12 -->
<g id="edge29" class="edge">
<title>Node23&#45;&gt;Node12</title>
<path fill="none" stroke="midnightblue" d="M540.5,-184.99C573.13,-164.43 656.52,-111.88 696.7,-86.55"/>
<polygon fill="midnightblue" stroke="midnightblue" points="698.66,-89.45 705.26,-81.16 694.93,-83.53 698.66,-89.45"/>
</g>
<!-- Node24 -->
<g id="node24" class="node">
<title>Node24</title>
<g id="a_node24"><a xlink:href="Columns_8h.html" target="_top" xlink:title=" ">
<polygon fill="none" stroke="black" points="493,-123.5 493,-142.5 561,-142.5 561,-123.5 493,-123.5"/>
<text text-anchor="middle" x="527" y="-130.5" font-family="Helvetica,sans-Serif" font-size="10.00">Columns.h</text>
</a>
</g>
</g>
<!-- Node23&#45;&gt;Node24 -->
<g id="edge30" class="edge">
<title>Node23&#45;&gt;Node24</title>
<path fill="none" stroke="midnightblue" d="M527,-184.98C527,-176.58 527,-163.48 527,-152.66"/>
<polygon fill="midnightblue" stroke="midnightblue" points="530.5,-152.51 527,-142.51 523.5,-152.51 530.5,-152.51"/>
</g>
<!-- Node31 -->
<g id="node31" class="node">
<title>Node31</title>
<g id="a_node31"><a xlink:href="TableView_8h.html" target="_top" xlink:title=" ">
<polygon fill="none" stroke="black" points="363,-123.5 363,-142.5 437,-142.5 437,-123.5 363,-123.5"/>
<text text-anchor="middle" x="400" y="-130.5" font-family="Helvetica,sans-Serif" font-size="10.00">TableView.h</text>
</a>
</g>
</g>
<!-- Node23&#45;&gt;Node31 -->
<g id="edge40" class="edge">
<title>Node23&#45;&gt;Node31</title>
<path fill="none" stroke="midnightblue" d="M503.9,-184.98C480.62,-175.08 445.27,-158.64 422.29,-147.12"/>
<polygon fill="midnightblue" stroke="midnightblue" points="423.76,-143.94 413.27,-142.51 420.58,-150.17 423.76,-143.94"/>
</g>
<!-- Node24&#45;&gt;Node3 -->
<g id="edge33" class="edge">
<title>Node24&#45;&gt;Node3</title>
<path fill="none" stroke="midnightblue" d="M492.98,-125.18C488.3,-124.37 483.54,-123.62 479,-123 290.72,-97.46 236.58,-136.01 53,-87 51.06,-86.48 49.1,-85.85 47.14,-85.14"/>
<polygon fill="midnightblue" stroke="midnightblue" points="48.26,-81.81 37.68,-81.14 45.53,-88.26 48.26,-81.81"/>
</g>
<!-- Node24&#45;&gt;Node12 -->
<g id="edge35" class="edge">
<title>Node24&#45;&gt;Node12</title>
<path fill="none" stroke="midnightblue" d="M561.24,-123.77C593.73,-115.62 643.75,-102.18 686,-87 687.66,-86.4 689.35,-85.76 691.06,-85.09"/>
<polygon fill="midnightblue" stroke="midnightblue" points="692.8,-88.16 700.68,-81.09 690.1,-81.7 692.8,-88.16"/>
</g>
<!-- Node24&#45;&gt;Node20 -->
<g id="edge39" class="edge">
<title>Node24&#45;&gt;Node20</title>
<path fill="none" stroke="midnightblue" d="M561.03,-125.41C613.97,-115.14 716.53,-95.27 779.76,-83.01"/>
<polygon fill="midnightblue" stroke="midnightblue" points="780.79,-86.38 789.94,-81.04 779.45,-79.51 780.79,-86.38"/>
</g>
<!-- Node25 -->
<g id="node25" class="node">
<title>Node25</title>
<g id="a_node25"><a xlink:title=" ">
<polygon fill="none" stroke="#bfbfbf" points="567.5,-62 567.5,-81 614.5,-81 614.5,-62 567.5,-62"/>
<text text-anchor="middle" x="591" y="-69" font-family="Helvetica,sans-Serif" font-size="10.00">cmath</text>
</a>
</g>
</g>
<!-- Node24&#45;&gt;Node25 -->
<g id="edge31" class="edge">
<title>Node24&#45;&gt;Node25</title>
<path fill="none" stroke="midnightblue" d="M536.17,-123.48C546.15,-114.2 562.31,-99.17 574.51,-87.83"/>
<polygon fill="midnightblue" stroke="midnightblue" points="576.91,-90.38 581.85,-81.01 572.14,-85.25 576.91,-90.38"/>
</g>
<!-- Node26 -->
<g id="node26" class="node">
<title>Node26</title>
<g id="a_node26"><a xlink:title=" ">
<polygon fill="none" stroke="#bfbfbf" points="633,-62 633,-81 677,-81 677,-62 633,-62"/>
<text text-anchor="middle" x="655" y="-69" font-family="Helvetica,sans-Serif" font-size="10.00">limits</text>
</a>
</g>
</g>
<!-- Node24&#45;&gt;Node26 -->
<g id="edge32" class="edge">
<title>Node24&#45;&gt;Node26</title>
<path fill="none" stroke="midnightblue" d="M545.6,-123.39C565.14,-114.35 596.74,-99.7 624,-87 625.15,-86.46 626.33,-85.92 627.51,-85.36"/>
<polygon fill="midnightblue" stroke="midnightblue" points="629.07,-88.5 636.65,-81.1 626.1,-82.16 629.07,-88.5"/>
</g>
<!-- Node27 -->
<g id="node27" class="node">
<title>Node27</title>
<g id="a_node27"><a xlink:title=" ">
<polygon fill="none" stroke="#bfbfbf" points="316.5,-62 316.5,-81 385.5,-81 385.5,-62 316.5,-62"/>
<text text-anchor="middle" x="351" y="-69" font-family="Helvetica,sans-Serif" font-size="10.00">type_traits</text>
</a>
</g>
</g>
<!-- Node24&#45;&gt;Node27 -->
<g id="edge34" class="edge">
<title>Node24&#45;&gt;Node27</title>
<path fill="none" stroke="midnightblue" d="M501.78,-123.48C471.33,-113.18 419.95,-95.81 385.76,-84.25"/>
<polygon fill="midnightblue" stroke="midnightblue" points="386.76,-80.9 376.17,-81.01 384.52,-87.53 386.76,-80.9"/>
</g>
<!-- Node28 -->
<g id="node28" class="node">
<title>Node28</title>
<g id="a_node28"><a xlink:title=" ">
<polygon fill="none" stroke="#bfbfbf" points="404,-62 404,-81 454,-81 454,-62 404,-62"/>
<text text-anchor="middle" x="429" y="-69" font-family="Helvetica,sans-Serif" font-size="10.00">fitsio.h</text>
</a>
</g>
</g>
<!-- Node24&#45;&gt;Node28 -->
<g id="edge36" class="edge">
<title>Node24&#45;&gt;Node28</title>
<path fill="none" stroke="midnightblue" d="M512.96,-123.48C496.95,-113.75 470.55,-97.73 451.63,-86.24"/>
<polygon fill="midnightblue" stroke="midnightblue" points="453.38,-83.21 443.01,-81.01 449.75,-89.19 453.38,-83.21"/>
</g>
<!-- Node29 -->
<g id="node29" class="node">
<title>Node29</title>
<g id="a_node29"><a xlink:title=" ">
<polygon fill="none" stroke="#bfbfbf" points="472.5,-62 472.5,-81 549.5,-81 549.5,-62 472.5,-62"/>
<text text-anchor="middle" x="511" y="-69" font-family="Helvetica,sans-Serif" font-size="10.00">pugixml.hpp</text>
</a>
</g>
</g>
<!-- Node24&#45;&gt;Node29 -->
<g id="edge37" class="edge">
<title>Node24&#45;&gt;Node29</title>
<path fill="none" stroke="midnightblue" d="M524.71,-123.48C522.43,-114.99 518.85,-101.7 515.93,-90.82"/>
<polygon fill="midnightblue" stroke="midnightblue" points="519.26,-89.76 513.29,-81.01 512.51,-91.57 519.26,-89.76"/>
</g>
<!-- Node30 -->
<g id="node30" class="node">
<title>Node30</title>
<g id="a_node30"><a xlink:title=" ">
<polygon fill="none" stroke="#bfbfbf" points="164,-62 164,-81 298,-81 298,-62 164,-62"/>
<text text-anchor="middle" x="231" y="-69" font-family="Helvetica,sans-Serif" font-size="10.00">carta&#45;protobuf/defs.pb.h</text>
</a>
</g>
</g>
<!-- Node24&#45;&gt;Node30 -->
<g id="edge38" class="edge">
<title>Node24&#45;&gt;Node30</title>
<path fill="none" stroke="midnightblue" d="M492.76,-125.12C441.4,-114.79 344.02,-95.22 283.6,-83.07"/>
<polygon fill="midnightblue" stroke="midnightblue" points="284,-79.58 273.51,-81.04 282.62,-86.45 284,-79.58"/>
</g>
<!-- Node31&#45;&gt;Node23 -->
<g id="edge42" class="edge">
<title>Node31&#45;&gt;Node23</title>
<path fill="none" stroke="midnightblue" d="M423.06,-142.51C446.33,-152.4 481.68,-168.83 504.68,-180.37"/>
<polygon fill="midnightblue" stroke="midnightblue" points="503.21,-183.55 513.7,-184.98 506.39,-177.31 503.21,-183.55"/>
</g>
<!-- Node31&#45;&gt;Node30 -->
<g id="edge41" class="edge">
<title>Node31&#45;&gt;Node30</title>
<path fill="none" stroke="midnightblue" d="M375.79,-123.48C346.67,-113.22 297.63,-95.96 264.8,-84.4"/>
<polygon fill="midnightblue" stroke="midnightblue" points="265.76,-81.03 255.17,-81.01 263.44,-87.63 265.76,-81.03"/>
</g>
<!-- Node32 -->
<g id="node32" class="node">
<title>Node32</title>
<g id="a_node32"><a xlink:href="TableView_8tcc.html" target="_top" xlink:title=" ">
<polygon fill="none" stroke="black" points="62.5,-62 62.5,-81 145.5,-81 145.5,-62 62.5,-62"/>
<text text-anchor="middle" x="104" y="-69" font-family="Helvetica,sans-Serif" font-size="10.00">TableView.tcc</text>
</a>
</g>
</g>
<!-- Node31&#45;&gt;Node32 -->
<g id="edge43" class="edge">
<title>Node31&#45;&gt;Node32</title>
<path fill="none" stroke="midnightblue" d="M362.78,-125.37C299.28,-114.02 174.93,-91.65 155,-87 150.81,-86.02 146.46,-84.92 142.14,-83.77"/>
<polygon fill="midnightblue" stroke="midnightblue" points="142.77,-80.31 132.2,-81.04 140.91,-87.06 142.77,-80.31"/>
</g>
</g>
</svg>
