<?xml version="1.0" encoding="UTF-8" standalone="no"?>
<!DOCTYPE svg PUBLIC "-//W3C//DTD SVG 1.1//EN"
 "http://www.w3.org/Graphics/SVG/1.1/DTD/svg11.dtd">
<!-- Generated by graphviz version 2.43.0 (0)
 -->
<!-- Title: TableView.h Pages: 1 -->
<svg width="814pt" height="196pt"
 viewBox="0.00 0.00 814.00 196.00" xmlns="http://www.w3.org/2000/svg" xmlns:xlink="http://www.w3.org/1999/xlink">
<g id="graph0" class="graph" transform="scale(1 1) rotate(0) translate(4 192)">
<title>TableView.h</title>
<!-- Node1 -->
<g id="node1" class="node">
<title>Node1</title>
<g id="a_node1"><a xlink:title=" ">
<polygon fill="#bfbfbf" stroke="black" points="582,-168.5 582,-187.5 656,-187.5 656,-168.5 582,-168.5"/>
<text text-anchor="middle" x="619" y="-175.5" font-family="Helvetica,sans-Serif" font-size="10.00">TableView.h</text>
</a>
</g>
</g>
<!-- Node2 -->
<g id="node2" class="node">
<title>Node2</title>
<g id="a_node2"><a xlink:title=" ">
<polygon fill="none" stroke="#bfbfbf" points="0,-0.5 0,-19.5 134,-19.5 134,-0.5 0,-0.5"/>
<text text-anchor="middle" x="67" y="-7.5" font-family="Helvetica,sans-Serif" font-size="10.00">carta&#45;protobuf/defs.pb.h</text>
</a>
</g>
</g>
<!-- Node1&#45;&gt;Node2 -->
<g id="edge1" class="edge">
<title>Node1&#45;&gt;Node2</title>
<path fill="none" stroke="midnightblue" d="M590.48,-168.42C498.51,-140.76 209.59,-53.88 105.15,-22.47"/>
<polygon fill="midnightblue" stroke="midnightblue" points="105.93,-19.05 95.35,-19.52 103.91,-25.76 105.93,-19.05"/>
</g>
<!-- Node3 -->
<g id="node3" class="node">
<title>Node3</title>
<g id="a_node3"><a xlink:href="Table_8h.html" target="_top" xlink:title=" ">
<polygon fill="none" stroke="black" points="593.5,-112.5 593.5,-131.5 644.5,-131.5 644.5,-112.5 593.5,-112.5"/>
<text text-anchor="middle" x="619" y="-119.5" font-family="Helvetica,sans-Serif" font-size="10.00">Table.h</text>
</a>
</g>
</g>
<!-- Node1&#45;&gt;Node3 -->
<g id="edge2" class="edge">
<title>Node1&#45;&gt;Node3</title>
<path fill="none" stroke="midnightblue" d="M613.83,-168.08C612.32,-160.93 611.89,-150.64 612.54,-141.69"/>
<polygon fill="midnightblue" stroke="midnightblue" points="616.02,-142.13 613.87,-131.75 609.08,-141.2 616.02,-142.13"/>
</g>
<!-- Node14 -->
<g id="node14" class="node">
<title>Node14</title>
<g id="a_node14"><a xlink:href="TableView_8tcc.html" target="_top" xlink:title=" ">
<polygon fill="none" stroke="black" points="662.5,-112.5 662.5,-131.5 745.5,-131.5 745.5,-112.5 662.5,-112.5"/>
<text text-anchor="middle" x="704" y="-119.5" font-family="Helvetica,sans-Serif" font-size="10.00">TableView.tcc</text>
</a>
</g>
</g>
<!-- Node1&#45;&gt;Node14 -->
<g id="edge17" class="edge">
<title>Node1&#45;&gt;Node14</title>
<path fill="none" stroke="midnightblue" d="M632.66,-168.32C645.92,-159.9 666.27,-146.97 681.85,-137.07"/>
<polygon fill="midnightblue" stroke="midnightblue" points="683.81,-139.97 690.38,-131.65 680.06,-134.06 683.81,-139.97"/>
</g>
<!-- Node3&#45;&gt;Node1 -->
<g id="edge16" class="edge">
<title>Node3&#45;&gt;Node1</title>
<path fill="none" stroke="midnightblue" d="M624.13,-131.75C625.66,-138.86 626.1,-149.14 625.47,-158.1"/>
<polygon fill="midnightblue" stroke="midnightblue" points="621.99,-157.71 624.17,-168.08 628.93,-158.62 621.99,-157.71"/>
</g>
<!-- Node4 -->
<g id="node4" class="node">
<title>Node4</title>
<g id="a_node4"><a xlink:title=" ">
<polygon fill="none" stroke="#bfbfbf" points="762,-0.5 762,-19.5 806,-19.5 806,-0.5 762,-0.5"/>
<text text-anchor="middle" x="784" y="-7.5" font-family="Helvetica,sans-Serif" font-size="10.00">string</text>
</a>
</g>
</g>
<!-- Node3&#45;&gt;Node4 -->
<g id="edge3" class="edge">
<title>Node3&#45;&gt;Node4</title>
<path fill="none" stroke="midnightblue" d="M634.93,-112.35C650.72,-103.62 675.44,-89.54 696,-76 720.45,-59.89 747.36,-39.62 764.9,-26.03"/>
<polygon fill="midnightblue" stroke="midnightblue" points="767.42,-28.51 773.16,-19.6 763.12,-22.99 767.42,-28.51"/>
</g>
<!-- Node5 -->
<g id="node5" class="node">
<title>Node5</title>
<g id="a_node5"><a xlink:title=" ">
<polygon fill="none" stroke="#bfbfbf" points="572.5,-56.5 572.5,-75.5 665.5,-75.5 665.5,-56.5 572.5,-56.5"/>
<text text-anchor="middle" x="619" y="-63.5" font-family="Helvetica,sans-Serif" font-size="10.00">unordered_map</text>
</a>
</g>
</g>
<!-- Node3&#45;&gt;Node5 -->
<g id="edge4" class="edge">
<title>Node3&#45;&gt;Node5</title>
<path fill="none" stroke="midnightblue" d="M619,-112.08C619,-105.01 619,-94.86 619,-85.99"/>
<polygon fill="midnightblue" stroke="midnightblue" points="622.5,-85.75 619,-75.75 615.5,-85.75 622.5,-85.75"/>
</g>
<!-- Node6 -->
<g id="node6" class="node">
<title>Node6</title>
<g id="a_node6"><a xlink:title=" ">
<polygon fill="none" stroke="#bfbfbf" points="696.5,-0.5 696.5,-19.5 743.5,-19.5 743.5,-0.5 696.5,-0.5"/>
<text text-anchor="middle" x="720" y="-7.5" font-family="Helvetica,sans-Serif" font-size="10.00">vector</text>
</a>
</g>
</g>
<!-- Node3&#45;&gt;Node6 -->
<g id="edge5" class="edge">
<title>Node3&#45;&gt;Node6</title>
<path fill="none" stroke="midnightblue" d="M631.89,-112.28C643.85,-103.84 661.74,-90.24 675,-76 688.7,-61.29 701.45,-42.14 709.86,-28.44"/>
<polygon fill="midnightblue" stroke="midnightblue" points="713.03,-29.95 715.16,-19.57 707.02,-26.36 713.03,-29.95"/>
</g>
<!-- Node7 -->
<g id="node7" class="node">
<title>Node7</title>
<g id="a_node7"><a xlink:href="Columns_8h.html" target="_top" xlink:title=" ">
<polygon fill="none" stroke="black" points="452,-56.5 452,-75.5 520,-75.5 520,-56.5 452,-56.5"/>
<text text-anchor="middle" x="486" y="-63.5" font-family="Helvetica,sans-Serif" font-size="10.00">Columns.h</text>
</a>
</g>
</g>
<!-- Node3&#45;&gt;Node7 -->
<g id="edge6" class="edge">
<title>Node3&#45;&gt;Node7</title>
<path fill="none" stroke="midnightblue" d="M597.93,-112.44C575.94,-103.52 541.27,-89.44 516.34,-79.32"/>
<polygon fill="midnightblue" stroke="midnightblue" points="517.56,-76.04 506.98,-75.52 514.92,-82.52 517.56,-76.04"/>
</g>
<!-- Node7&#45;&gt;Node2 -->
<g id="edge14" class="edge">
<title>Node7&#45;&gt;Node2</title>
<path fill="none" stroke="midnightblue" d="M451.71,-60.58C384.65,-51.94 234.68,-32.61 143.05,-20.8"/>
<polygon fill="midnightblue" stroke="midnightblue" points="143.37,-17.31 133,-19.51 142.47,-24.26 143.37,-17.31"/>
</g>
<!-- Node7&#45;&gt;Node4 -->
<g id="edge9" class="edge">
<title>Node7&#45;&gt;Node4</title>
<path fill="none" stroke="midnightblue" d="M520.39,-60.5C569.63,-53.78 663.21,-39.96 751.79,-20.06"/>
<polygon fill="midnightblue" stroke="midnightblue" points="752.76,-23.43 761.73,-17.8 751.2,-16.61 752.76,-23.43"/>
</g>
<!-- Node7&#45;&gt;Node6 -->
<g id="edge11" class="edge">
<title>Node7&#45;&gt;Node6</title>
<path fill="none" stroke="midnightblue" d="M520.25,-57.83C558.39,-49.74 622.09,-35.91 686.34,-20.07"/>
<polygon fill="midnightblue" stroke="midnightblue" points="687.38,-23.42 696.24,-17.62 685.69,-16.63 687.38,-23.42"/>
</g>
<!-- Node8 -->
<g id="node8" class="node">
<title>Node8</title>
<g id="a_node8"><a xlink:title=" ">
<polygon fill="none" stroke="#bfbfbf" points="568.5,-0.5 568.5,-19.5 615.5,-19.5 615.5,-0.5 568.5,-0.5"/>
<text text-anchor="middle" x="592" y="-7.5" font-family="Helvetica,sans-Serif" font-size="10.00">cmath</text>
</a>
</g>
</g>
<!-- Node7&#45;&gt;Node8 -->
<g id="edge7" class="edge">
<title>Node7&#45;&gt;Node8</title>
<path fill="none" stroke="midnightblue" d="M503.03,-56.32C520.03,-47.66 546.38,-34.24 565.99,-24.25"/>
<polygon fill="midnightblue" stroke="midnightblue" points="567.69,-27.31 575.01,-19.65 564.51,-21.08 567.69,-27.31"/>
</g>
<!-- Node9 -->
<g id="node9" class="node">
<title>Node9</title>
<g id="a_node9"><a xlink:title=" ">
<polygon fill="none" stroke="#bfbfbf" points="634,-0.5 634,-19.5 678,-19.5 678,-0.5 634,-0.5"/>
<text text-anchor="middle" x="656" y="-7.5" font-family="Helvetica,sans-Serif" font-size="10.00">limits</text>
</a>
</g>
</g>
<!-- Node7&#45;&gt;Node9 -->
<g id="edge8" class="edge">
<title>Node7&#45;&gt;Node9</title>
<path fill="none" stroke="midnightblue" d="M512.94,-56.44C543.1,-46.86 591.94,-31.35 624.01,-21.16"/>
<polygon fill="midnightblue" stroke="midnightblue" points="625.32,-24.42 633.79,-18.05 623.2,-17.75 625.32,-24.42"/>
</g>
<!-- Node10 -->
<g id="node10" class="node">
<title>Node10</title>
<g id="a_node10"><a xlink:title=" ">
<polygon fill="none" stroke="#bfbfbf" points="152.5,-0.5 152.5,-19.5 221.5,-19.5 221.5,-0.5 152.5,-0.5"/>
<text text-anchor="middle" x="187" y="-7.5" font-family="Helvetica,sans-Serif" font-size="10.00">type_traits</text>
</a>
</g>
</g>
<!-- Node7&#45;&gt;Node10 -->
<g id="edge10" class="edge">
<title>Node7&#45;&gt;Node10</title>
<path fill="none" stroke="midnightblue" d="M451.71,-59.25C404.52,-51.28 316.66,-36.19 231.41,-20.04"/>
<polygon fill="midnightblue" stroke="midnightblue" points="232.05,-16.59 221.57,-18.16 230.74,-23.47 232.05,-16.59"/>
</g>
<!-- Node11 -->
<g id="node11" class="node">
<title>Node11</title>
<g id="a_node11"><a xlink:title=" ">
<polygon fill="none" stroke="#bfbfbf" points="240,-0.5 240,-19.5 290,-19.5 290,-0.5 240,-0.5"/>
<text text-anchor="middle" x="265" y="-7.5" font-family="Helvetica,sans-Serif" font-size="10.00">fitsio.h</text>
</a>
</g>
</g>
<!-- Node7&#45;&gt;Node11 -->
<g id="edge12" class="edge">
<title>Node7&#45;&gt;Node11</title>
<path fill="none" stroke="midnightblue" d="M451.82,-57.02C416.26,-48.66 358.73,-34.99 300.04,-20.22"/>
<polygon fill="midnightblue" stroke="midnightblue" points="300.79,-16.8 290.23,-17.75 299.07,-23.59 300.79,-16.8"/>
</g>
<!-- Node12 -->
<g id="node12" class="node">
<title>Node12</title>
<g id="a_node12"><a xlink:title=" ">
<polygon fill="none" stroke="#bfbfbf" points="308.5,-0.5 308.5,-19.5 385.5,-19.5 385.5,-0.5 308.5,-0.5"/>
<text text-anchor="middle" x="347" y="-7.5" font-family="Helvetica,sans-Serif" font-size="10.00">pugixml.hpp</text>
</a>
</g>
</g>
<!-- Node7&#45;&gt;Node12 -->
<g id="edge13" class="edge">
<title>Node7&#45;&gt;Node12</title>
<path fill="none" stroke="midnightblue" d="M463.98,-56.44C440.9,-47.48 404.44,-33.31 378.36,-23.18"/>
<polygon fill="midnightblue" stroke="midnightblue" points="379.51,-19.88 368.92,-19.52 376.98,-26.4 379.51,-19.88"/>
</g>
<!-- Node13 -->
<g id="node13" class="node">
<title>Node13</title>
<g id="a_node13"><a xlink:title=" ">
<polygon fill="none" stroke="#bfbfbf" points="404,-0.5 404,-19.5 550,-19.5 550,-0.5 404,-0.5"/>
<text text-anchor="middle" x="477" y="-7.5" font-family="Helvetica,sans-Serif" font-size="10.00">carta&#45;protobuf/enums.pb.h</text>
</a>
</g>
</g>
<!-- Node7&#45;&gt;Node13 -->
<g id="edge15" class="edge">
<title>Node7&#45;&gt;Node13</title>
<path fill="none" stroke="midnightblue" d="M484.51,-56.08C483.32,-48.93 481.61,-38.64 480.12,-29.69"/>
<polygon fill="midnightblue" stroke="midnightblue" points="483.55,-29.04 478.46,-19.75 476.65,-30.19 483.55,-29.04"/>
</g>
</g>
</svg>
