<?xml version="1.0" encoding="UTF-8" standalone="no"?>
<!DOCTYPE svg PUBLIC "-//W3C//DTD SVG 1.1//EN"
 "http://www.w3.org/Graphics/SVG/1.1/DTD/svg11.dtd">
<!-- Generated by graphviz version 2.43.0 (0)
 -->
<!-- Title: TileCache.cc Pages: 1 -->
<!--zoomable 397 -->
<svg id="main" version="1.1" xmlns="http://www.w3.org/2000/svg" xmlns:xlink="http://www.w3.org/1999/xlink" xml:space="preserve" onload="init(evt)">
<style type="text/css"><![CDATA[
.edge:hover path { stroke: red; }
.edge:hover polygon { stroke: red; fill: red; }
]]></style>
<script type="text/javascript"><![CDATA[
var edges = document.getElementsByTagName('g');
if (edges && edges.length) {
  for (var i=0;i<edges.length;i++) {
    if (edges[i].id.substr(0,4)=='edge') {
      edges[i].setAttribute('class','edge');
    }
  }
}
]]></script>
        <defs>
                <circle id="rim" cx="0" cy="0" r="7"/>
                <circle id="rim2" cx="0" cy="0" r="3.5"/>
                <g id="zoomPlus">
                        <use xlink:href="#rim" fill="#404040">
                                <set attributeName="fill" to="#808080" begin="zoomplus.mouseover" end="zoomplus.mouseout"/>
                        </use>
                        <path d="M-4,0h8M0,-4v8" fill="none" stroke="white" stroke-width="1.5" pointer-events="none"/>
                </g>
                <g id="zoomMin">
                        <use xlink:href="#rim" fill="#404040">
                                <set attributeName="fill" to="#808080" begin="zoomminus.mouseover" end="zoomminus.mouseout"/>
                        </use>
                        <path d="M-4,0h8" fill="none" stroke="white" stroke-width="1.5" pointer-events="none"/>
                </g>
                <g id="dirArrow">
                        <path fill="none" stroke="white" stroke-width="1.5" d="M0,-3.0v7 M-2.5,-0.5L0,-3.0L2.5,-0.5"/>
                </g>
               <g id="resetDef">
                       <use xlink:href="#rim2" fill="#404040">
                               <set attributeName="fill" to="#808080" begin="reset.mouseover" end="reset.mouseout"/>
                       </use>
               </g>
        </defs>

<script type="text/javascript">
var viewWidth = 1599;
var viewHeight = 397;
var sectionId = 'dynsection-0';
</script>
<script xlink:href="svgpan.js"/>
<svg id="graph" class="graph">
<g id="viewport">
<title>TileCache.cc</title>
<!-- Node1 -->
<g id="node1" class="node">
<title>Node1</title>
<g id="a_node1"><a xlink:title=" ">
<polygon fill="#bfbfbf" stroke="black" points="205.5,-369.5 205.5,-388.5 283.5,-388.5 283.5,-369.5 205.5,-369.5"/>
<text text-anchor="middle" x="244.5" y="-376.5" font-family="Helvetica,sans-Serif" font-size="10.00">TileCache.cc</text>
</a>
</g>
</g>
<!-- Node2 -->
<g id="node2" class="node">
<title>Node2</title>
<g id="a_node2"><a xlink:href="TileCache_8h.html" target="_top" xlink:title=" ">
<polygon fill="none" stroke="black" points="1218.5,-313.5 1218.5,-332.5 1292.5,-332.5 1292.5,-313.5 1218.5,-313.5"/>
<text text-anchor="middle" x="1255.5" y="-320.5" font-family="Helvetica,sans-Serif" font-size="10.00">TileCache.h</text>
</a>
</g>
</g>
<!-- Node1&#45;&gt;Node2 -->
<g id="edge1" class="edge">
<title>Node1&#45;&gt;Node2</title>
<path fill="none" stroke="midnightblue" d="M283.51,-375.92C441.85,-367.46 1036.25,-335.71 1208.47,-326.51"/>
<polygon fill="midnightblue" stroke="midnightblue" points="1208.69,-330.01 1218.48,-325.98 1208.31,-323.02 1208.69,-330.01"/>
</g>
<!-- Node4 -->
<g id="node4" class="node">
<title>Node4</title>
<g id="a_node4"><a xlink:title=" ">
<polygon fill="none" stroke="#bfbfbf" points="0,-62 0,-81 65,-81 65,-62 0,-62"/>
<text text-anchor="middle" x="32.5" y="-69" font-family="Helvetica,sans-Serif" font-size="10.00">functional</text>
</a>
</g>
</g>
<!-- Node1&#45;&gt;Node4 -->
<g id="edge46" class="edge">
<title>Node1&#45;&gt;Node4</title>
<path fill="none" stroke="midnightblue" d="M205.47,-370.96C154.72,-359.31 72.5,-330.74 72.5,-268 72.5,-268 72.5,-268 72.5,-204.5 72.5,-162.18 53.43,-115.37 41.63,-90.45"/>
<polygon fill="midnightblue" stroke="midnightblue" points="44.63,-88.63 37.09,-81.19 38.34,-91.71 44.63,-88.63"/>
</g>
<!-- Node27 -->
<g id="node27" class="node">
<title>Node27</title>
<g id="a_node27"><a xlink:href="Image_8h.html" target="_top" xlink:title=" ">
<polygon fill="none" stroke="black" points="216.5,-129 216.5,-148 272.5,-148 272.5,-129 216.5,-129"/>
<text text-anchor="middle" x="244.5" y="-136" font-family="Helvetica,sans-Serif" font-size="10.00">Image.h</text>
</a>
</g>
</g>
<!-- Node1&#45;&gt;Node27 -->
<g id="edge47" class="edge">
<title>Node1&#45;&gt;Node27</title>
<path fill="none" stroke="midnightblue" d="M244.5,-369.23C244.5,-334.6 244.5,-206.93 244.5,-158.4"/>
<polygon fill="midnightblue" stroke="midnightblue" points="248,-158.1 244.5,-148.1 241,-158.1 248,-158.1"/>
</g>
<!-- Node3 -->
<g id="node3" class="node">
<title>Node3</title>
<g id="a_node3"><a xlink:title=" ">
<polygon fill="none" stroke="#bfbfbf" points="953.5,-0.5 953.5,-19.5 1003.5,-19.5 1003.5,-0.5 953.5,-0.5"/>
<text text-anchor="middle" x="978.5" y="-7.5" font-family="Helvetica,sans-Serif" font-size="10.00">cstdint</text>
</a>
</g>
</g>
<!-- Node2&#45;&gt;Node3 -->
<g id="edge2" class="edge">
<title>Node2&#45;&gt;Node3</title>
<path fill="none" stroke="midnightblue" d="M1292.74,-320.51C1363.11,-317.04 1512.26,-306.36 1553.5,-277 1582.33,-256.48 1590.5,-241.89 1590.5,-206.5 1590.5,-206.5 1590.5,-206.5 1590.5,-137.5 1590.5,-18.91 1144.24,-10.61 1013.86,-10.72"/>
<polygon fill="midnightblue" stroke="midnightblue" points="1013.62,-7.22 1003.63,-10.74 1013.64,-14.22 1013.62,-7.22"/>
</g>
<!-- Node2&#45;&gt;Node4 -->
<g id="edge3" class="edge">
<title>Node2&#45;&gt;Node4</title>
<path fill="none" stroke="midnightblue" d="M1218.4,-319.79C1066.92,-310.5 495.28,-272.66 322.5,-221 215.01,-188.86 100.01,-117.39 53.65,-86.82"/>
<polygon fill="midnightblue" stroke="midnightblue" points="55.34,-83.73 45.07,-81.11 51.46,-89.56 55.34,-83.73"/>
</g>
<!-- Node5 -->
<g id="node5" class="node">
<title>Node5</title>
<g id="a_node5"><a xlink:title=" ">
<polygon fill="none" stroke="#bfbfbf" points="1239.5,-257.5 1239.5,-276.5 1271.5,-276.5 1271.5,-257.5 1239.5,-257.5"/>
<text text-anchor="middle" x="1255.5" y="-264.5" font-family="Helvetica,sans-Serif" font-size="10.00">list</text>
</a>
</g>
</g>
<!-- Node2&#45;&gt;Node5 -->
<g id="edge4" class="edge">
<title>Node2&#45;&gt;Node5</title>
<path fill="none" stroke="midnightblue" d="M1255.5,-313.08C1255.5,-306.01 1255.5,-295.86 1255.5,-286.99"/>
<polygon fill="midnightblue" stroke="midnightblue" points="1259,-286.75 1255.5,-276.75 1252,-286.75 1259,-286.75"/>
</g>
<!-- Node6 -->
<g id="node6" class="node">
<title>Node6</title>
<g id="a_node6"><a xlink:title=" ">
<polygon fill="none" stroke="#bfbfbf" points="1290,-257.5 1290,-276.5 1383,-276.5 1383,-257.5 1290,-257.5"/>
<text text-anchor="middle" x="1336.5" y="-264.5" font-family="Helvetica,sans-Serif" font-size="10.00">unordered_map</text>
</a>
</g>
</g>
<!-- Node2&#45;&gt;Node6 -->
<g id="edge5" class="edge">
<title>Node2&#45;&gt;Node6</title>
<path fill="none" stroke="midnightblue" d="M1268.51,-313.32C1281.03,-304.98 1300.18,-292.21 1314.97,-282.35"/>
<polygon fill="midnightblue" stroke="midnightblue" points="1317.14,-285.11 1323.52,-276.65 1313.26,-279.29 1317.14,-285.11"/>
</g>
<!-- Node7 -->
<g id="node7" class="node">
<title>Node7</title>
<g id="a_node7"><a xlink:title=" ">
<polygon fill="none" stroke="#bfbfbf" points="1410,-129 1410,-148 1457,-148 1457,-129 1410,-129"/>
<text text-anchor="middle" x="1433.5" y="-136" font-family="Helvetica,sans-Serif" font-size="10.00">vector</text>
</a>
</g>
</g>
<!-- Node2&#45;&gt;Node7 -->
<g id="edge6" class="edge">
<title>Node2&#45;&gt;Node7</title>
<path fill="none" stroke="midnightblue" d="M1292.7,-321.68C1361.18,-320.22 1503,-312.84 1533.5,-277 1558.56,-247.56 1553.76,-222.93 1533.5,-190 1519.12,-166.62 1490.2,-153.67 1467.15,-146.76"/>
<polygon fill="midnightblue" stroke="midnightblue" points="1467.94,-143.35 1457.37,-144.07 1466.08,-150.1 1467.94,-143.35"/>
</g>
<!-- Node8 -->
<g id="node8" class="node">
<title>Node8</title>
<g id="a_node8"><a xlink:href="TileCacheKey_8h.html" target="_top" xlink:title=" ">
<polygon fill="none" stroke="black" points="1401,-257.5 1401,-276.5 1524,-276.5 1524,-257.5 1401,-257.5"/>
<text text-anchor="middle" x="1462.5" y="-264.5" font-family="Helvetica,sans-Serif" font-size="10.00">Cache/TileCacheKey.h</text>
</a>
</g>
</g>
<!-- Node2&#45;&gt;Node8 -->
<g id="edge7" class="edge">
<title>Node2&#45;&gt;Node8</title>
<path fill="none" stroke="midnightblue" d="M1288.3,-313.44C1323.88,-304.16 1380.81,-289.31 1419.85,-279.13"/>
<polygon fill="midnightblue" stroke="midnightblue" points="1421.06,-282.43 1429.85,-276.52 1419.29,-275.65 1421.06,-282.43"/>
</g>
<!-- Node9 -->
<g id="node9" class="node">
<title>Node9</title>
<g id="a_node9"><a xlink:href="TilePool_8h.html" target="_top" xlink:title=" ">
<polygon fill="none" stroke="black" points="1123.5,-257.5 1123.5,-276.5 1221.5,-276.5 1221.5,-257.5 1123.5,-257.5"/>
<text text-anchor="middle" x="1172.5" y="-264.5" font-family="Helvetica,sans-Serif" font-size="10.00">Cache/TilePool.h</text>
</a>
</g>
</g>
<!-- Node2&#45;&gt;Node9 -->
<g id="edge8" class="edge">
<title>Node2&#45;&gt;Node9</title>
<path fill="none" stroke="midnightblue" d="M1242.16,-313.32C1229.34,-304.98 1209.72,-292.21 1194.56,-282.35"/>
<polygon fill="midnightblue" stroke="midnightblue" points="1196.09,-279.17 1185.8,-276.65 1192.28,-285.04 1196.09,-279.17"/>
</g>
<!-- Node13 -->
<g id="node13" class="node">
<title>Node13</title>
<g id="a_node13"><a xlink:href="FileLoader_8h.html" target="_top" xlink:title=" ">
<polygon fill="none" stroke="black" points="968.5,-257.5 968.5,-276.5 1100.5,-276.5 1100.5,-257.5 968.5,-257.5"/>
<text text-anchor="middle" x="1034.5" y="-264.5" font-family="Helvetica,sans-Serif" font-size="10.00">ImageData/FileLoader.h</text>
</a>
</g>
</g>
<!-- Node2&#45;&gt;Node13 -->
<g id="edge13" class="edge">
<title>Node2&#45;&gt;Node13</title>
<path fill="none" stroke="midnightblue" d="M1220.48,-313.44C1182.25,-304.1 1120.93,-289.12 1079.24,-278.93"/>
<polygon fill="midnightblue" stroke="midnightblue" points="1079.9,-275.49 1069.35,-276.52 1078.24,-282.29 1079.9,-275.49"/>
</g>
<!-- Node9&#45;&gt;Node7 -->
<g id="edge12" class="edge">
<title>Node9&#45;&gt;Node7</title>
<path fill="none" stroke="midnightblue" d="M1221.95,-258.36C1271.44,-250.06 1343.56,-235.96 1367.5,-221 1393.01,-205.06 1413.08,-175.75 1424.11,-156.97"/>
<polygon fill="midnightblue" stroke="midnightblue" points="1427.17,-158.66 1429.03,-148.23 1421.07,-155.23 1427.17,-158.66"/>
</g>
<!-- Node10 -->
<g id="node10" class="node">
<title>Node10</title>
<g id="a_node10"><a xlink:title=" ">
<polygon fill="none" stroke="#bfbfbf" points="1300.5,-196 1300.5,-215 1358.5,-215 1358.5,-196 1300.5,-196"/>
<text text-anchor="middle" x="1329.5" y="-203" font-family="Helvetica,sans-Serif" font-size="10.00">memory</text>
</a>
</g>
</g>
<!-- Node9&#45;&gt;Node10 -->
<g id="edge9" class="edge">
<title>Node9&#45;&gt;Node10</title>
<path fill="none" stroke="midnightblue" d="M1194.99,-257.48C1221.81,-247.31 1266.82,-230.26 1297.31,-218.7"/>
<polygon fill="midnightblue" stroke="midnightblue" points="1298.94,-221.83 1307.05,-215.01 1296.46,-215.28 1298.94,-221.83"/>
</g>
<!-- Node11 -->
<g id="node11" class="node">
<title>Node11</title>
<g id="a_node11"><a xlink:title=" ">
<polygon fill="none" stroke="#bfbfbf" points="1414.5,-196 1414.5,-215 1462.5,-215 1462.5,-196 1414.5,-196"/>
<text text-anchor="middle" x="1438.5" y="-203" font-family="Helvetica,sans-Serif" font-size="10.00">mutex</text>
</a>
</g>
</g>
<!-- Node9&#45;&gt;Node11 -->
<g id="edge10" class="edge">
<title>Node9&#45;&gt;Node11</title>
<path fill="none" stroke="midnightblue" d="M1220.75,-257.47C1277.28,-247.3 1367.44,-230.5 1400.5,-221 1403.08,-220.26 1405.74,-219.42 1408.39,-218.52"/>
<polygon fill="midnightblue" stroke="midnightblue" points="1409.59,-221.81 1417.81,-215.12 1407.22,-215.22 1409.59,-221.81"/>
</g>
<!-- Node12 -->
<g id="node12" class="node">
<title>Node12</title>
<g id="a_node12"><a xlink:title=" ">
<polygon fill="none" stroke="#bfbfbf" points="1481,-196 1481,-215 1524,-215 1524,-196 1481,-196"/>
<text text-anchor="middle" x="1502.5" y="-203" font-family="Helvetica,sans-Serif" font-size="10.00">stack</text>
</a>
</g>
</g>
<!-- Node9&#45;&gt;Node12 -->
<g id="edge11" class="edge">
<title>Node9&#45;&gt;Node12</title>
<path fill="none" stroke="midnightblue" d="M1221.54,-258.37C1224.57,-257.9 1227.58,-257.44 1230.5,-257 1337.57,-240.7 1367.81,-252.27 1471.5,-221 1473.38,-220.43 1475.29,-219.77 1477.19,-219.05"/>
<polygon fill="midnightblue" stroke="midnightblue" points="1478.62,-222.24 1486.44,-215.09 1475.87,-215.81 1478.62,-222.24"/>
</g>
<!-- Node13&#45;&gt;Node10 -->
<g id="edge14" class="edge">
<title>Node13&#45;&gt;Node10</title>
<path fill="none" stroke="midnightblue" d="M1096.93,-257.49C1148.27,-249.86 1222.68,-237.36 1286.5,-221 1289.71,-220.18 1293.02,-219.24 1296.31,-218.23"/>
<polygon fill="midnightblue" stroke="midnightblue" points="1297.58,-221.5 1306.03,-215.12 1295.44,-214.84 1297.58,-221.5"/>
</g>
<!-- Node14 -->
<g id="node14" class="node">
<title>Node14</title>
<g id="a_node14"><a xlink:title=" ">
<polygon fill="none" stroke="#bfbfbf" points="547.5,-62 547.5,-81 591.5,-81 591.5,-62 547.5,-62"/>
<text text-anchor="middle" x="569.5" y="-69" font-family="Helvetica,sans-Serif" font-size="10.00">string</text>
</a>
</g>
</g>
<!-- Node13&#45;&gt;Node14 -->
<g id="edge15" class="edge">
<title>Node13&#45;&gt;Node14</title>
<path fill="none" stroke="midnightblue" d="M1091.45,-257.47C1146.43,-248.66 1225.36,-234.37 1253.5,-221 1273.19,-211.65 1273.23,-201.89 1291.5,-190 1321.16,-170.71 1343.98,-184.15 1362.5,-154 1369.71,-142.26 1372.01,-132.97 1362.5,-123 1304,-61.67 682.78,-107.34 600.5,-87 598.51,-86.51 596.49,-85.89 594.49,-85.18"/>
<polygon fill="midnightblue" stroke="midnightblue" points="595.41,-81.76 584.83,-81.11 592.69,-88.22 595.41,-81.76"/>
</g>
<!-- Node15 -->
<g id="node15" class="node">
<title>Node15</title>
<g id="a_node15"><a xlink:title=" ">
<polygon fill="none" stroke="#bfbfbf" points="439,-190.5 439,-220.5 566,-220.5 566,-190.5 439,-190.5"/>
<text text-anchor="start" x="447" y="-208.5" font-family="Helvetica,sans-Serif" font-size="10.00">casacore/casa/Utilities</text>
<text text-anchor="middle" x="502.5" y="-197.5" font-family="Helvetica,sans-Serif" font-size="10.00">/DataType.h</text>
</a>
</g>
</g>
<!-- Node13&#45;&gt;Node15 -->
<g id="edge16" class="edge">
<title>Node13&#45;&gt;Node15</title>
<path fill="none" stroke="midnightblue" d="M968.12,-261.2C879.49,-254.38 717.73,-240.52 580.5,-221 579.2,-220.81 577.88,-220.62 576.56,-220.43"/>
<polygon fill="midnightblue" stroke="midnightblue" points="576.7,-216.9 566.28,-218.81 575.61,-223.82 576.7,-216.9"/>
</g>
<!-- Node16 -->
<g id="node16" class="node">
<title>Node16</title>
<g id="a_node16"><a xlink:title=" ">
<polygon fill="none" stroke="#bfbfbf" points="965.5,-123.5 965.5,-153.5 1103.5,-153.5 1103.5,-123.5 965.5,-123.5"/>
<text text-anchor="start" x="973.5" y="-141.5" font-family="Helvetica,sans-Serif" font-size="10.00">casacore/images/Images</text>
<text text-anchor="middle" x="1034.5" y="-130.5" font-family="Helvetica,sans-Serif" font-size="10.00">/ImageInterface.h</text>
</a>
</g>
</g>
<!-- Node13&#45;&gt;Node16 -->
<g id="edge17" class="edge">
<title>Node13&#45;&gt;Node16</title>
<path fill="none" stroke="midnightblue" d="M1034.5,-257.31C1034.5,-238.3 1034.5,-192.47 1034.5,-163.9"/>
<polygon fill="midnightblue" stroke="midnightblue" points="1038,-163.89 1034.5,-153.89 1031,-163.89 1038,-163.89"/>
</g>
<!-- Node17 -->
<g id="node17" class="node">
<title>Node17</title>
<g id="a_node17"><a xlink:title=" ">
<polygon fill="none" stroke="#bfbfbf" points="1121.5,-123.5 1121.5,-153.5 1259.5,-153.5 1259.5,-123.5 1121.5,-123.5"/>
<text text-anchor="start" x="1129.5" y="-141.5" font-family="Helvetica,sans-Serif" font-size="10.00">casacore/images/Images</text>
<text text-anchor="middle" x="1190.5" y="-130.5" font-family="Helvetica,sans-Serif" font-size="10.00">/SubImage.h</text>
</a>
</g>
</g>
<!-- Node13&#45;&gt;Node17 -->
<g id="edge18" class="edge">
<title>Node13&#45;&gt;Node17</title>
<path fill="none" stroke="midnightblue" d="M1043.21,-257.11C1057.78,-242.43 1088.27,-212.51 1116.5,-190 1130.07,-179.18 1145.86,-168.2 1159.37,-159.26"/>
<polygon fill="midnightblue" stroke="midnightblue" points="1161.42,-162.1 1167.87,-153.69 1157.58,-156.24 1161.42,-162.1"/>
</g>
<!-- Node18 -->
<g id="node18" class="node">
<title>Node18</title>
<g id="a_node18"><a xlink:title=" ">
<polygon fill="none" stroke="#bfbfbf" points="609.5,-62 609.5,-81 743.5,-81 743.5,-62 609.5,-62"/>
<text text-anchor="middle" x="676.5" y="-69" font-family="Helvetica,sans-Serif" font-size="10.00">carta&#45;protobuf/defs.pb.h</text>
</a>
</g>
</g>
<!-- Node13&#45;&gt;Node18 -->
<g id="edge19" class="edge">
<title>Node13&#45;&gt;Node18</title>
<path fill="none" stroke="midnightblue" d="M968.2,-258.14C860.83,-243.89 656.54,-209.99 613.5,-154 595.25,-130.26 627.82,-102.71 652.54,-86.49"/>
<polygon fill="midnightblue" stroke="midnightblue" points="654.59,-89.34 661.19,-81.05 650.86,-83.41 654.59,-89.34"/>
</g>
<!-- Node19 -->
<g id="node19" class="node">
<title>Node19</title>
<g id="a_node19"><a xlink:title=" ">
<polygon fill="none" stroke="#bfbfbf" points="383.5,-62 383.5,-81 529.5,-81 529.5,-62 383.5,-62"/>
<text text-anchor="middle" x="456.5" y="-69" font-family="Helvetica,sans-Serif" font-size="10.00">carta&#45;protobuf/enums.pb.h</text>
</a>
</g>
</g>
<!-- Node13&#45;&gt;Node19 -->
<g id="edge20" class="edge">
<title>Node13&#45;&gt;Node19</title>
<path fill="none" stroke="midnightblue" d="M968.42,-264.18C797.95,-259.16 355.03,-243.96 333.5,-221 316.89,-203.29 334.73,-140.14 348.5,-123 363.73,-104.04 387.74,-91.85 409.25,-84.2"/>
<polygon fill="midnightblue" stroke="midnightblue" points="410.52,-87.47 418.92,-81 408.32,-80.82 410.52,-87.47"/>
</g>
<!-- Node20 -->
<g id="node20" class="node">
<title>Node20</title>
<g id="a_node20"><a xlink:href="FileInfo_8h.html" target="_top" xlink:title=" ">
<polygon fill="none" stroke="black" points="1125,-196 1125,-215 1244,-215 1244,-196 1125,-196"/>
<text text-anchor="middle" x="1184.5" y="-203" font-family="Helvetica,sans-Serif" font-size="10.00">ImageData/FileInfo.h</text>
</a>
</g>
</g>
<!-- Node13&#45;&gt;Node20 -->
<g id="edge21" class="edge">
<title>Node13&#45;&gt;Node20</title>
<path fill="none" stroke="midnightblue" d="M1055.99,-257.48C1081.61,-247.31 1124.61,-230.26 1153.74,-218.7"/>
<polygon fill="midnightblue" stroke="midnightblue" points="1155.04,-221.95 1163.05,-215.01 1152.46,-215.44 1155.04,-221.95"/>
</g>
<!-- Node22 -->
<g id="node22" class="node">
<title>Node22</title>
<g id="a_node22"><a xlink:href="Casacore_8h.html" target="_top" xlink:title=" ">
<polygon fill="none" stroke="black" points="874,-196 874,-215 965,-215 965,-196 874,-196"/>
<text text-anchor="middle" x="919.5" y="-203" font-family="Helvetica,sans-Serif" font-size="10.00">Util/Casacore.h</text>
</a>
</g>
</g>
<!-- Node13&#45;&gt;Node22 -->
<g id="edge27" class="edge">
<title>Node13&#45;&gt;Node22</title>
<path fill="none" stroke="midnightblue" d="M1018.02,-257.48C998.89,-247.58 967.13,-231.14 944.85,-219.62"/>
<polygon fill="midnightblue" stroke="midnightblue" points="946.44,-216.5 935.95,-215.01 943.22,-222.71 946.44,-216.5"/>
</g>
<!-- Node25 -->
<g id="node25" class="node">
<title>Node25</title>
<g id="a_node25"><a xlink:href="Stokes_8h.html" target="_top" xlink:title=" ">
<polygon fill="none" stroke="black" points="342.5,-196 342.5,-215 420.5,-215 420.5,-196 342.5,-196"/>
<text text-anchor="middle" x="381.5" y="-203" font-family="Helvetica,sans-Serif" font-size="10.00">Util/Stokes.h</text>
</a>
</g>
</g>
<!-- Node13&#45;&gt;Node25 -->
<g id="edge31" class="edge">
<title>Node13&#45;&gt;Node25</title>
<path fill="none" stroke="midnightblue" d="M968.22,-265.66C856.43,-264.08 623.66,-256.36 430.5,-221 425.96,-220.17 421.24,-219.08 416.6,-217.86"/>
<polygon fill="midnightblue" stroke="midnightblue" points="417.26,-214.41 406.68,-215.07 415.36,-221.15 417.26,-214.41"/>
</g>
<!-- Node20&#45;&gt;Node7 -->
<g id="edge23" class="edge">
<title>Node20&#45;&gt;Node7</title>
<path fill="none" stroke="midnightblue" d="M1217.31,-195.94C1264.8,-183.54 1352.23,-160.72 1400.07,-148.23"/>
<polygon fill="midnightblue" stroke="midnightblue" points="1401.13,-151.57 1409.93,-145.65 1399.37,-144.79 1401.13,-151.57"/>
</g>
<!-- Node20&#45;&gt;Node16 -->
<g id="edge24" class="edge">
<title>Node20&#45;&gt;Node16</title>
<path fill="none" stroke="midnightblue" d="M1164.58,-195.87C1142.17,-186.16 1105.14,-170.11 1076.3,-157.61"/>
<polygon fill="midnightblue" stroke="midnightblue" points="1077.44,-154.29 1066.87,-153.53 1074.66,-160.72 1077.44,-154.29"/>
</g>
<!-- Node20&#45;&gt;Node17 -->
<g id="edge25" class="edge">
<title>Node20&#45;&gt;Node17</title>
<path fill="none" stroke="midnightblue" d="M1185.31,-195.73C1186.07,-187.54 1187.23,-174.92 1188.26,-163.71"/>
<polygon fill="midnightblue" stroke="midnightblue" points="1191.77,-163.87 1189.2,-153.59 1184.8,-163.22 1191.77,-163.87"/>
</g>
<!-- Node20&#45;&gt;Node18 -->
<g id="edge26" class="edge">
<title>Node20&#45;&gt;Node18</title>
<path fill="none" stroke="midnightblue" d="M1205.38,-195.91C1237.84,-181.41 1294.13,-150.91 1268.5,-123 1234.36,-85.82 906.29,-75.97 753.76,-73.4"/>
<polygon fill="midnightblue" stroke="midnightblue" points="753.59,-69.89 743.53,-73.23 753.47,-76.89 753.59,-69.89"/>
</g>
<!-- Node21 -->
<g id="node21" class="node">
<title>Node21</title>
<g id="a_node21"><a xlink:title=" ">
<polygon fill="none" stroke="#bfbfbf" points="1315.5,-129 1315.5,-148 1353.5,-148 1353.5,-129 1315.5,-129"/>
<text text-anchor="middle" x="1334.5" y="-136" font-family="Helvetica,sans-Serif" font-size="10.00">map</text>
</a>
</g>
</g>
<!-- Node20&#45;&gt;Node21 -->
<g id="edge22" class="edge">
<title>Node20&#45;&gt;Node21</title>
<path fill="none" stroke="midnightblue" d="M1204.39,-195.96C1227.68,-185.95 1267.42,-168.84 1301.5,-154 1302.9,-153.39 1304.33,-152.77 1305.78,-152.13"/>
<polygon fill="midnightblue" stroke="midnightblue" points="1307.56,-155.17 1315.31,-147.96 1304.75,-148.76 1307.56,-155.17"/>
</g>
<!-- Node22&#45;&gt;Node16 -->
<g id="edge28" class="edge">
<title>Node22&#45;&gt;Node16</title>
<path fill="none" stroke="midnightblue" d="M935.01,-195.73C951.75,-186.27 978.92,-170.91 1000.64,-158.64"/>
<polygon fill="midnightblue" stroke="midnightblue" points="1002.59,-161.56 1009.57,-153.59 999.15,-155.46 1002.59,-161.56"/>
</g>
<!-- Node23 -->
<g id="node23" class="node">
<title>Node23</title>
<g id="a_node23"><a xlink:title=" ">
<polygon fill="none" stroke="#bfbfbf" points="809.5,-123.5 809.5,-153.5 947.5,-153.5 947.5,-123.5 809.5,-123.5"/>
<text text-anchor="start" x="817.5" y="-141.5" font-family="Helvetica,sans-Serif" font-size="10.00">casacore/images/Images</text>
<text text-anchor="middle" x="878.5" y="-130.5" font-family="Helvetica,sans-Serif" font-size="10.00">/ImageOpener.h</text>
</a>
</g>
</g>
<!-- Node22&#45;&gt;Node23 -->
<g id="edge29" class="edge">
<title>Node22&#45;&gt;Node23</title>
<path fill="none" stroke="midnightblue" d="M913.97,-195.73C908.59,-187.2 900.18,-173.87 892.9,-162.33"/>
<polygon fill="midnightblue" stroke="midnightblue" points="895.68,-160.18 887.39,-153.59 889.76,-163.91 895.68,-160.18"/>
</g>
<!-- Node24 -->
<g id="node24" class="node">
<title>Node24</title>
<g id="a_node24"><a xlink:title=" ">
<polygon fill="none" stroke="#bfbfbf" points="622,-123.5 622,-153.5 791,-153.5 791,-123.5 622,-123.5"/>
<text text-anchor="start" x="630" y="-141.5" font-family="Helvetica,sans-Serif" font-size="10.00">casacore/scimath/Mathematics</text>
<text text-anchor="middle" x="706.5" y="-130.5" font-family="Helvetica,sans-Serif" font-size="10.00">/GaussianBeam.h</text>
</a>
</g>
</g>
<!-- Node22&#45;&gt;Node24 -->
<g id="edge30" class="edge">
<title>Node22&#45;&gt;Node24</title>
<path fill="none" stroke="midnightblue" d="M891.22,-195.87C858.42,-185.86 803.58,-169.13 762.16,-156.48"/>
<polygon fill="midnightblue" stroke="midnightblue" points="763.06,-153.1 752.47,-153.53 761.01,-159.79 763.06,-153.1"/>
</g>
<!-- Node25&#45;&gt;Node14 -->
<g id="edge32" class="edge">
<title>Node25&#45;&gt;Node14</title>
<path fill="none" stroke="midnightblue" d="M410.09,-195.94C453.8,-182.74 532.72,-158.5 537.5,-154 555.2,-137.35 563.27,-109.72 566.84,-91.32"/>
<polygon fill="midnightblue" stroke="midnightblue" points="570.33,-91.67 568.52,-81.23 563.42,-90.51 570.33,-91.67"/>
</g>
<!-- Node25&#45;&gt;Node19 -->
<g id="edge33" class="edge">
<title>Node25&#45;&gt;Node19</title>
<path fill="none" stroke="midnightblue" d="M374.8,-195.8C363.67,-180.19 343.96,-146.85 358.5,-123 369.97,-104.18 390.95,-92.07 410.57,-84.45"/>
<polygon fill="midnightblue" stroke="midnightblue" points="411.81,-87.72 420.04,-81.06 409.44,-81.13 411.81,-87.72"/>
</g>
<!-- Node26 -->
<g id="node26" class="node">
<title>Node26</title>
<g id="a_node26"><a xlink:title=" ">
<polygon fill="none" stroke="#bfbfbf" points="367,-123.5 367,-153.5 528,-153.5 528,-123.5 367,-123.5"/>
<text text-anchor="start" x="375" y="-141.5" font-family="Helvetica,sans-Serif" font-size="10.00">casacore/measures/Measures</text>
<text text-anchor="middle" x="447.5" y="-130.5" font-family="Helvetica,sans-Serif" font-size="10.00">/Stokes.h</text>
</a>
</g>
</g>
<!-- Node25&#45;&gt;Node26 -->
<g id="edge34" class="edge">
<title>Node25&#45;&gt;Node26</title>
<path fill="none" stroke="midnightblue" d="M390.4,-195.73C399.49,-186.78 413.95,-172.54 426.04,-160.63"/>
<polygon fill="midnightblue" stroke="midnightblue" points="428.53,-163.1 433.19,-153.59 423.61,-158.11 428.53,-163.1"/>
</g>
<!-- Node25&#45;&gt;Node27 -->
<g id="edge35" class="edge">
<title>Node25&#45;&gt;Node27</title>
<path fill="none" stroke="midnightblue" d="M363.31,-195.87C339.97,-184.8 299.27,-165.49 272.11,-152.6"/>
<polygon fill="midnightblue" stroke="midnightblue" points="273.3,-149.29 262.77,-148.17 270.3,-155.62 273.3,-149.29"/>
</g>
<!-- Node27&#45;&gt;Node4 -->
<g id="edge37" class="edge">
<title>Node27&#45;&gt;Node4</title>
<path fill="none" stroke="midnightblue" d="M216.41,-129.56C182.61,-119.92 124.19,-102.95 74.5,-87 71.9,-86.17 69.22,-85.29 66.53,-84.39"/>
<polygon fill="midnightblue" stroke="midnightblue" points="67.46,-81.01 56.87,-81.11 65.22,-87.64 67.46,-81.01"/>
</g>
<!-- Node27&#45;&gt;Node14 -->
<g id="edge38" class="edge">
<title>Node27&#45;&gt;Node14</title>
<path fill="none" stroke="midnightblue" d="M272.5,-133.66C335.92,-124.82 488.84,-102.57 538.5,-87 540.37,-86.41 542.27,-85.74 544.17,-85"/>
<polygon fill="midnightblue" stroke="midnightblue" points="545.62,-88.19 553.42,-81.02 542.85,-81.76 545.62,-88.19"/>
</g>
<!-- Node27&#45;&gt;Node18 -->
<g id="edge39" class="edge">
<title>Node27&#45;&gt;Node18</title>
<path fill="none" stroke="midnightblue" d="M272.72,-133.96C333.03,-126.3 478.88,-107.22 600.5,-87 607.96,-85.76 615.82,-84.36 623.54,-82.94"/>
<polygon fill="midnightblue" stroke="midnightblue" points="624.37,-86.34 633.56,-81.06 623.08,-79.46 624.37,-86.34"/>
</g>
<!-- Node27&#45;&gt;Node19 -->
<g id="edge40" class="edge">
<title>Node27&#45;&gt;Node19</title>
<path fill="none" stroke="midnightblue" d="M268.87,-128.89C274.63,-126.9 280.77,-124.84 286.5,-123 330.79,-108.78 382.02,-93.76 416.56,-83.83"/>
<polygon fill="midnightblue" stroke="midnightblue" points="417.63,-87.16 426.28,-81.04 415.71,-80.43 417.63,-87.16"/>
</g>
<!-- Node28 -->
<g id="node28" class="node">
<title>Node28</title>
<g id="a_node28"><a xlink:title=" ">
<polygon fill="none" stroke="#bfbfbf" points="213,-0.5 213,-19.5 260,-19.5 260,-0.5 213,-0.5"/>
<text text-anchor="middle" x="236.5" y="-7.5" font-family="Helvetica,sans-Serif" font-size="10.00">cmath</text>
</a>
</g>
</g>
<!-- Node27&#45;&gt;Node28 -->
<g id="edge36" class="edge">
<title>Node27&#45;&gt;Node28</title>
<path fill="none" stroke="midnightblue" d="M243.95,-128.81C242.67,-108.49 239.44,-57.55 237.69,-29.78"/>
<polygon fill="midnightblue" stroke="midnightblue" points="241.18,-29.51 237.05,-19.76 234.19,-29.96 241.18,-29.51"/>
</g>
<!-- Node29 -->
<g id="node29" class="node">
<title>Node29</title>
<g id="a_node29"><a xlink:title=" ">
<polygon fill="none" stroke="#bfbfbf" points="83.5,-56.5 83.5,-86.5 203.5,-86.5 203.5,-56.5 83.5,-56.5"/>
<text text-anchor="start" x="91.5" y="-74.5" font-family="Helvetica,sans-Serif" font-size="10.00">carta&#45;protobuf/vector</text>
<text text-anchor="middle" x="143.5" y="-63.5" font-family="Helvetica,sans-Serif" font-size="10.00">_overlay_tile.pb.h</text>
</a>
</g>
</g>
<!-- Node27&#45;&gt;Node29 -->
<g id="edge41" class="edge">
<title>Node27&#45;&gt;Node29</title>
<path fill="none" stroke="midnightblue" d="M230.88,-128.73C216.38,-119.4 192.95,-104.32 174,-92.13"/>
<polygon fill="midnightblue" stroke="midnightblue" points="175.7,-89.06 165.39,-86.59 171.91,-94.94 175.7,-89.06"/>
</g>
<!-- Node30 -->
<g id="node30" class="node">
<title>Node30</title>
<g id="a_node30"><a xlink:href="Tile_8h.html" target="_top" xlink:title=" ">
<polygon fill="none" stroke="black" points="260,-62 260,-81 365,-81 365,-62 260,-62"/>
<text text-anchor="middle" x="312.5" y="-69" font-family="Helvetica,sans-Serif" font-size="10.00">DataStream/Tile.h</text>
</a>
</g>
</g>
<!-- Node27&#45;&gt;Node30 -->
<g id="edge42" class="edge">
<title>Node27&#45;&gt;Node30</title>
<path fill="none" stroke="midnightblue" d="M253.67,-128.73C264.48,-118.4 282.65,-101.04 295.94,-88.33"/>
<polygon fill="midnightblue" stroke="midnightblue" points="298.66,-90.57 303.47,-81.13 293.83,-85.51 298.66,-90.57"/>
</g>
<!-- Node30&#45;&gt;Node3 -->
<g id="edge44" class="edge">
<title>Node30&#45;&gt;Node3</title>
<path fill="none" stroke="midnightblue" d="M344.81,-61.94C354.32,-59.7 364.78,-57.49 374.5,-56 588.92,-23.14 850,-14.02 943.29,-11.71"/>
<polygon fill="midnightblue" stroke="midnightblue" points="943.4,-15.21 953.31,-11.48 943.23,-8.21 943.4,-15.21"/>
</g>
<!-- Node30&#45;&gt;Node28 -->
<g id="edge43" class="edge">
<title>Node30&#45;&gt;Node28</title>
<path fill="none" stroke="midnightblue" d="M301.61,-61.98C289.53,-52.52 269.83,-37.1 255.26,-25.69"/>
<polygon fill="midnightblue" stroke="midnightblue" points="257.4,-22.92 247.37,-19.51 253.09,-28.43 257.4,-22.92"/>
</g>
<!-- Node31 -->
<g id="node31" class="node">
<title>Node31</title>
<g id="a_node31"><a xlink:title=" ">
<polygon fill="none" stroke="#bfbfbf" points="282.5,-0.5 282.5,-19.5 342.5,-19.5 342.5,-0.5 282.5,-0.5"/>
<text text-anchor="middle" x="312.5" y="-7.5" font-family="Helvetica,sans-Serif" font-size="10.00">iostream</text>
</a>
</g>
</g>
<!-- Node30&#45;&gt;Node31 -->
<g id="edge45" class="edge">
<title>Node30&#45;&gt;Node31</title>
<path fill="none" stroke="midnightblue" d="M312.5,-61.98C312.5,-53.58 312.5,-40.48 312.5,-29.66"/>
<polygon fill="midnightblue" stroke="midnightblue" points="316,-29.51 312.5,-19.51 309,-29.51 316,-29.51"/>
</g>
</g>
</svg>
        <g id="navigator" transform="translate(0 0)" fill="#404254">
                <rect fill="#f2f5e9" fill-opacity="0.5" stroke="#606060" stroke-width=".5" x="0" y="0" width="60" height="60"/>
                <use id="zoomplus" xlink:href="#zoomPlus" x="17" y="9" onmousedown="handleZoom(evt,'in')"/>
                <use id="zoomminus" xlink:href="#zoomMin" x="42" y="9" onmousedown="handleZoom(evt,'out')"/>
                <use id="reset" xlink:href="#resetDef" x="30" y="36" onmousedown="handleReset()"/>
                <g id="arrowUp" xlink:href="#dirArrow" transform="translate(30 24)" onmousedown="handlePan(0,-1)">
                  <use xlink:href="#rim" fill="#404040">
                        <set attributeName="fill" to="#808080" begin="arrowUp.mouseover" end="arrowUp.mouseout"/>
                  </use>
                  <path fill="none" stroke="white" stroke-width="1.5" d="M0,-3.0v7 M-2.5,-0.5L0,-3.0L2.5,-0.5"/>
                </g>
                <g id="arrowRight" xlink:href="#dirArrow" transform="rotate(90) translate(36 -43)" onmousedown="handlePan(1,0)">
                  <use xlink:href="#rim" fill="#404040">
                        <set attributeName="fill" to="#808080" begin="arrowRight.mouseover" end="arrowRight.mouseout"/>
                  </use>
                  <path fill="none" stroke="white" stroke-width="1.5" d="M0,-3.0v7 M-2.5,-0.5L0,-3.0L2.5,-0.5"/>
                </g>
                <g id="arrowDown" xlink:href="#dirArrow" transform="rotate(180) translate(-30 -48)" onmousedown="handlePan(0,1)">
                  <use xlink:href="#rim" fill="#404040">
                        <set attributeName="fill" to="#808080" begin="arrowDown.mouseover" end="arrowDown.mouseout"/>
                  </use>
                  <path fill="none" stroke="white" stroke-width="1.5" d="M0,-3.0v7 M-2.5,-0.5L0,-3.0L2.5,-0.5"/>
                </g>
                <g id="arrowLeft" xlink:href="#dirArrow" transform="rotate(270) translate(-36 17)" onmousedown="handlePan(-1,0)">
                  <use xlink:href="#rim" fill="#404040">
                        <set attributeName="fill" to="#808080" begin="arrowLeft.mouseover" end="arrowLeft.mouseout"/>
                  </use>
                  <path fill="none" stroke="white" stroke-width="1.5" d="M0,-3.0v7 M-2.5,-0.5L0,-3.0L2.5,-0.5"/>
                </g>
        </g>
        <svg viewBox="0 0 15 15" width="100%" height="30px" preserveAspectRatio="xMaxYMin meet">
         <g id="arrow_out" transform="scale(0.3 0.3)">
          <a xlink:href="TileCache_8cc__incl_org.svg" target="_base">
           <rect id="button" ry="5" rx="5" y="6" x="6" height="38" width="38"
                fill="#f2f5e9" fill-opacity="0.5" stroke="#606060" stroke-width="1.0"/>
           <path id="arrow"
             d="M 11.500037,31.436501 C 11.940474,20.09759 22.043105,11.32322 32.158766,21.979434 L 37.068811,17.246167 C 37.068811,17.246167 37.088388,32 37.088388,32 L 22.160133,31.978069 C 22.160133,31.978069 26.997745,27.140456 26.997745,27.140456 C 18.528582,18.264221 13.291696,25.230495 11.500037,31.436501 z"
             style="fill:#404040;"/>
          </a>
         </g>
        </svg>
</svg>
