<?xml version="1.0" encoding="UTF-8" standalone="no"?>
<!DOCTYPE svg PUBLIC "-//W3C//DTD SVG 1.1//EN"
 "http://www.w3.org/Graphics/SVG/1.1/DTD/svg11.dtd">
<!-- Generated by graphviz version 2.43.0 (0)
 -->
<!-- Title: TileCacheKey.h Pages: 1 -->
<!--zoomable 532 -->
<svg id="main" version="1.1" xmlns="http://www.w3.org/2000/svg" xmlns:xlink="http://www.w3.org/1999/xlink" xml:space="preserve" onload="init(evt)">
<style type="text/css"><![CDATA[
.edge:hover path { stroke: red; }
.edge:hover polygon { stroke: red; fill: red; }
]]></style>
<script type="text/javascript"><![CDATA[
var edges = document.getElementsByTagName('g');
if (edges && edges.length) {
  for (var i=0;i<edges.length;i++) {
    if (edges[i].id.substr(0,4)=='edge') {
      edges[i].setAttribute('class','edge');
    }
  }
}
]]></script>
        <defs>
                <circle id="rim" cx="0" cy="0" r="7"/>
                <circle id="rim2" cx="0" cy="0" r="3.5"/>
                <g id="zoomPlus">
                        <use xlink:href="#rim" fill="#404040">
                                <set attributeName="fill" to="#808080" begin="zoomplus.mouseover" end="zoomplus.mouseout"/>
                        </use>
                        <path d="M-4,0h8M0,-4v8" fill="none" stroke="white" stroke-width="1.5" pointer-events="none"/>
                </g>
                <g id="zoomMin">
                        <use xlink:href="#rim" fill="#404040">
                                <set attributeName="fill" to="#808080" begin="zoomminus.mouseover" end="zoomminus.mouseout"/>
                        </use>
                        <path d="M-4,0h8" fill="none" stroke="white" stroke-width="1.5" pointer-events="none"/>
                </g>
                <g id="dirArrow">
                        <path fill="none" stroke="white" stroke-width="1.5" d="M0,-3.0v7 M-2.5,-0.5L0,-3.0L2.5,-0.5"/>
                </g>
               <g id="resetDef">
                       <use xlink:href="#rim2" fill="#404040">
                               <set attributeName="fill" to="#808080" begin="reset.mouseover" end="reset.mouseout"/>
                       </use>
               </g>
        </defs>

<script type="text/javascript">
var viewWidth = 1160;
var viewHeight = 532;
var sectionId = 'dynsection-0';
</script>
<script xlink:href="svgpan.js"/>
<svg id="graph" class="graph">
<g id="viewport">
<title>TileCacheKey.h</title>
<!-- Node1 -->
<g id="node1" class="node">
<title>Node1</title>
<g id="a_node1"><a xlink:title=" ">
<polygon fill="#bfbfbf" stroke="black" points="236.5,-504.5 236.5,-523.5 326.5,-523.5 326.5,-504.5 236.5,-504.5"/>
<text text-anchor="middle" x="281.5" y="-511.5" font-family="Helvetica,sans-Serif" font-size="10.00">TileCacheKey.h</text>
</a>
</g>
</g>
<!-- Node2 -->
<g id="node2" class="node">
<title>Node2</title>
<g id="a_node2"><a xlink:href="TileCache_8h.html" target="_top" xlink:title=" ">
<polygon fill="none" stroke="black" points="244.5,-448.5 244.5,-467.5 318.5,-467.5 318.5,-448.5 244.5,-448.5"/>
<text text-anchor="middle" x="281.5" y="-455.5" font-family="Helvetica,sans-Serif" font-size="10.00">TileCache.h</text>
</a>
</g>
</g>
<!-- Node1&#45;&gt;Node2 -->
<g id="edge1" class="edge">
<title>Node1&#45;&gt;Node2</title>
<path fill="none" stroke="midnightblue" d="M281.5,-493.8C281.5,-484.91 281.5,-474.78 281.5,-467.75"/>
<polygon fill="midnightblue" stroke="midnightblue" points="278,-494.08 281.5,-504.08 285,-494.08 278,-494.08"/>
</g>
<!-- Node3 -->
<g id="node3" class="node">
<title>Node3</title>
<g id="a_node3"><a xlink:href="TileCache_8cc.html" target="_top" xlink:title=" ">
<polygon fill="none" stroke="black" points="200.5,-392.5 200.5,-411.5 278.5,-411.5 278.5,-392.5 200.5,-392.5"/>
<text text-anchor="middle" x="239.5" y="-399.5" font-family="Helvetica,sans-Serif" font-size="10.00">TileCache.cc</text>
</a>
</g>
</g>
<!-- Node2&#45;&gt;Node3 -->
<g id="edge2" class="edge">
<title>Node2&#45;&gt;Node3</title>
<path fill="none" stroke="midnightblue" d="M268.39,-440.14C261.07,-430.74 252.26,-419.4 246.31,-411.75"/>
<polygon fill="midnightblue" stroke="midnightblue" points="265.66,-442.34 274.56,-448.08 271.19,-438.04 265.66,-442.34"/>
</g>
<!-- Node4 -->
<g id="node4" class="node">
<title>Node4</title>
<g id="a_node4"><a xlink:href="Frame_8h.html" target="_top" xlink:title=" ">
<polygon fill="none" stroke="black" points="296.5,-392.5 296.5,-411.5 352.5,-411.5 352.5,-392.5 296.5,-392.5"/>
<text text-anchor="middle" x="324.5" y="-399.5" font-family="Helvetica,sans-Serif" font-size="10.00">Frame.h</text>
</a>
</g>
</g>
<!-- Node2&#45;&gt;Node4 -->
<g id="edge3" class="edge">
<title>Node2&#45;&gt;Node4</title>
<path fill="none" stroke="midnightblue" d="M294.92,-440.14C302.41,-430.74 311.44,-419.4 317.53,-411.75"/>
<polygon fill="midnightblue" stroke="midnightblue" points="292.09,-438.08 288.6,-448.08 297.57,-442.44 292.09,-438.08"/>
</g>
<!-- Node5 -->
<g id="node5" class="node">
<title>Node5</title>
<g id="a_node5"><a xlink:href="Frame_8cc.html" target="_top" xlink:title=" ">
<polygon fill="none" stroke="black" points="82,-336.5 82,-355.5 143,-355.5 143,-336.5 82,-336.5"/>
<text text-anchor="middle" x="112.5" y="-343.5" font-family="Helvetica,sans-Serif" font-size="10.00">Frame.cc</text>
</a>
</g>
</g>
<!-- Node4&#45;&gt;Node5 -->
<g id="edge4" class="edge">
<title>Node4&#45;&gt;Node5</title>
<path fill="none" stroke="midnightblue" d="M286.46,-391.31C245.48,-380.87 181.05,-364.46 143.18,-354.81"/>
<polygon fill="midnightblue" stroke="midnightblue" points="285.79,-394.75 296.35,-393.83 287.52,-387.97 285.79,-394.75"/>
</g>
<!-- Node6 -->
<g id="node6" class="node">
<title>Node6</title>
<g id="a_node6"><a xlink:href="Hdf5Loader_8h.html" target="_top" xlink:title=" ">
<polygon fill="none" stroke="black" points="161,-336.5 161,-355.5 242,-355.5 242,-336.5 161,-336.5"/>
<text text-anchor="middle" x="201.5" y="-343.5" font-family="Helvetica,sans-Serif" font-size="10.00">Hdf5Loader.h</text>
</a>
</g>
</g>
<!-- Node4&#45;&gt;Node6 -->
<g id="edge5" class="edge">
<title>Node4&#45;&gt;Node6</title>
<path fill="none" stroke="midnightblue" d="M295.73,-388.37C272.69,-378.26 241.02,-364.35 220.9,-355.52"/>
<polygon fill="midnightblue" stroke="midnightblue" points="294.45,-391.63 305.01,-392.44 297.26,-385.22 294.45,-391.63"/>
</g>
<!-- Node9 -->
<g id="node9" class="node">
<title>Node9</title>
<g id="a_node9"><a xlink:href="PvGenerator_8h.html" target="_top" xlink:title=" ">
<polygon fill="none" stroke="black" points="281.5,-336.5 281.5,-355.5 367.5,-355.5 367.5,-336.5 281.5,-336.5"/>
<text text-anchor="middle" x="324.5" y="-343.5" font-family="Helvetica,sans-Serif" font-size="10.00">PvGenerator.h</text>
</a>
</g>
</g>
<!-- Node4&#45;&gt;Node9 -->
<g id="edge8" class="edge">
<title>Node4&#45;&gt;Node9</title>
<path fill="none" stroke="midnightblue" d="M324.5,-381.8C324.5,-372.91 324.5,-362.78 324.5,-355.75"/>
<polygon fill="midnightblue" stroke="midnightblue" points="321,-382.08 324.5,-392.08 328,-382.08 321,-382.08"/>
</g>
<!-- Node11 -->
<g id="node11" class="node">
<title>Node11</title>
<g id="a_node11"><a xlink:href="RegionHandler_8h.html" target="_top" xlink:title=" ">
<polygon fill="none" stroke="black" points="362,-280.5 362,-299.5 459,-299.5 459,-280.5 362,-280.5"/>
<text text-anchor="middle" x="410.5" y="-287.5" font-family="Helvetica,sans-Serif" font-size="10.00">RegionHandler.h</text>
</a>
</g>
</g>
<!-- Node4&#45;&gt;Node11 -->
<g id="edge46" class="edge">
<title>Node4&#45;&gt;Node11</title>
<path fill="none" stroke="midnightblue" d="M344.93,-386.28C355.25,-378.15 367.47,-367.41 376.5,-356 390.89,-337.83 402,-312.64 407.23,-299.6"/>
<polygon fill="midnightblue" stroke="midnightblue" points="342.66,-383.61 336.81,-392.45 346.89,-389.18 342.66,-383.61"/>
</g>
<!-- Node19 -->
<g id="node19" class="node">
<title>Node19</title>
<g id="a_node19"><a xlink:href="Session_8h.html" target="_top" xlink:title=" ">
<polygon fill="none" stroke="black" points="497,-224.5 497,-243.5 560,-243.5 560,-224.5 497,-224.5"/>
<text text-anchor="middle" x="528.5" y="-231.5" font-family="Helvetica,sans-Serif" font-size="10.00">Session.h</text>
</a>
</g>
</g>
<!-- Node4&#45;&gt;Node19 -->
<g id="edge47" class="edge">
<title>Node4&#45;&gt;Node19</title>
<path fill="none" stroke="midnightblue" d="M348.5,-387.21C362.98,-378.65 381.62,-367.18 397.5,-356 430.07,-333.06 438.24,-327.04 467.5,-300 487.96,-281.09 509.81,-256.64 520.97,-243.79"/>
<polygon fill="midnightblue" stroke="midnightblue" points="346.53,-384.31 339.66,-392.38 350.06,-390.35 346.53,-384.31"/>
</g>
<!-- Node7 -->
<g id="node7" class="node">
<title>Node7</title>
<g id="a_node7"><a xlink:href="FileLoader_8cc.html" target="_top" xlink:title=" ">
<polygon fill="none" stroke="black" points="155.5,-280.5 155.5,-299.5 235.5,-299.5 235.5,-280.5 155.5,-280.5"/>
<text text-anchor="middle" x="195.5" y="-287.5" font-family="Helvetica,sans-Serif" font-size="10.00">FileLoader.cc</text>
</a>
</g>
</g>
<!-- Node6&#45;&gt;Node7 -->
<g id="edge6" class="edge">
<title>Node6&#45;&gt;Node7</title>
<path fill="none" stroke="midnightblue" d="M199.4,-326.1C198.4,-317.14 197.26,-306.86 196.47,-299.75"/>
<polygon fill="midnightblue" stroke="midnightblue" points="195.93,-326.53 200.51,-336.08 202.88,-325.76 195.93,-326.53"/>
</g>
<!-- Node8 -->
<g id="node8" class="node">
<title>Node8</title>
<g id="a_node8"><a xlink:href="Hdf5Loader_8cc.html" target="_top" xlink:title=" ">
<polygon fill="none" stroke="black" points="51.5,-280.5 51.5,-299.5 137.5,-299.5 137.5,-280.5 51.5,-280.5"/>
<text text-anchor="middle" x="94.5" y="-287.5" font-family="Helvetica,sans-Serif" font-size="10.00">Hdf5Loader.cc</text>
</a>
</g>
</g>
<!-- Node6&#45;&gt;Node8 -->
<g id="edge7" class="edge">
<title>Node6&#45;&gt;Node8</title>
<path fill="none" stroke="midnightblue" d="M175.2,-331.73C155.39,-321.73 128.79,-308.31 111.65,-299.65"/>
<polygon fill="midnightblue" stroke="midnightblue" points="173.8,-334.94 184.31,-336.32 176.96,-328.69 173.8,-334.94"/>
</g>
<!-- Node10 -->
<g id="node10" class="node">
<title>Node10</title>
<g id="a_node10"><a xlink:href="PvGenerator_8cc.html" target="_top" xlink:title=" ">
<polygon fill="none" stroke="black" points="253.5,-280.5 253.5,-299.5 343.5,-299.5 343.5,-280.5 253.5,-280.5"/>
<text text-anchor="middle" x="298.5" y="-287.5" font-family="Helvetica,sans-Serif" font-size="10.00">PvGenerator.cc</text>
</a>
</g>
</g>
<!-- Node9&#45;&gt;Node10 -->
<g id="edge9" class="edge">
<title>Node9&#45;&gt;Node10</title>
<path fill="none" stroke="midnightblue" d="M315.83,-326.98C311.41,-317.82 306.25,-307.09 302.71,-299.75"/>
<polygon fill="midnightblue" stroke="midnightblue" points="312.71,-328.59 320.21,-336.08 319.02,-325.55 312.71,-328.59"/>
</g>
<!-- Node9&#45;&gt;Node11 -->
<g id="edge10" class="edge">
<title>Node9&#45;&gt;Node11</title>
<path fill="none" stroke="midnightblue" d="M346.95,-330.9C362.72,-321 383.31,-308.07 396.72,-299.65"/>
<polygon fill="midnightblue" stroke="midnightblue" points="344.93,-328.04 338.32,-336.32 348.65,-333.97 344.93,-328.04"/>
</g>
<!-- Node12 -->
<g id="node12" class="node">
<title>Node12</title>
<g id="a_node12"><a xlink:href="RegionHandler_8cc.html" target="_top" xlink:title=" ">
<polygon fill="none" stroke="black" points="319,-112.5 319,-131.5 420,-131.5 420,-112.5 319,-112.5"/>
<text text-anchor="middle" x="369.5" y="-119.5" font-family="Helvetica,sans-Serif" font-size="10.00">RegionHandler.cc</text>
</a>
</g>
</g>
<!-- Node11&#45;&gt;Node12 -->
<g id="edge11" class="edge">
<title>Node11&#45;&gt;Node12</title>
<path fill="none" stroke="midnightblue" d="M408.98,-270.08C406.68,-245.94 401.38,-203.13 390.5,-168 386.42,-154.82 379.24,-140.54 374.42,-131.68"/>
<polygon fill="midnightblue" stroke="midnightblue" points="405.52,-270.65 409.88,-280.31 412.49,-270.04 405.52,-270.65"/>
</g>
<!-- Node13 -->
<g id="node13" class="node">
<title>Node13</title>
<g id="a_node13"><a xlink:href="RegionImportExport_8h.html" target="_top" xlink:title=" ">
<polygon fill="none" stroke="black" points="195,-224.5 195,-243.5 318,-243.5 318,-224.5 195,-224.5"/>
<text text-anchor="middle" x="256.5" y="-231.5" font-family="Helvetica,sans-Serif" font-size="10.00">RegionImportExport.h</text>
</a>
</g>
</g>
<!-- Node11&#45;&gt;Node13 -->
<g id="edge12" class="edge">
<title>Node11&#45;&gt;Node13</title>
<path fill="none" stroke="midnightblue" d="M376.39,-277.04C347.41,-266.88 306.54,-252.55 280.79,-243.52"/>
<polygon fill="midnightblue" stroke="midnightblue" points="375.5,-280.44 386.1,-280.44 377.82,-273.83 375.5,-280.44"/>
</g>
<!-- Node11&#45;&gt;Node19 -->
<g id="edge20" class="edge">
<title>Node11&#45;&gt;Node19</title>
<path fill="none" stroke="midnightblue" d="M438.4,-276.23C460.47,-266.13 490.68,-252.31 509.89,-243.52"/>
<polygon fill="midnightblue" stroke="midnightblue" points="436.83,-273.1 429.2,-280.44 439.75,-279.46 436.83,-273.1"/>
</g>
<!-- Node14 -->
<g id="node14" class="node">
<title>Node14</title>
<g id="a_node14"><a xlink:href="CrtfImportExport_8h.html" target="_top" xlink:title=" ">
<polygon fill="none" stroke="black" points="275,-168.5 275,-187.5 382,-187.5 382,-168.5 275,-168.5"/>
<text text-anchor="middle" x="328.5" y="-175.5" font-family="Helvetica,sans-Serif" font-size="10.00">CrtfImportExport.h</text>
</a>
</g>
</g>
<!-- Node13&#45;&gt;Node14 -->
<g id="edge13" class="edge">
<title>Node13&#45;&gt;Node14</title>
<path fill="none" stroke="midnightblue" d="M276.37,-218.1C289.32,-208.38 305.8,-196.03 316.72,-187.83"/>
<polygon fill="midnightblue" stroke="midnightblue" points="273.97,-215.52 268.07,-224.32 278.17,-221.12 273.97,-215.52"/>
</g>
<!-- Node16 -->
<g id="node16" class="node">
<title>Node16</title>
<g id="a_node16"><a xlink:href="Ds9ImportExport_8h.html" target="_top" xlink:title=" ">
<polygon fill="none" stroke="black" points="2.5,-168.5 2.5,-187.5 110.5,-187.5 110.5,-168.5 2.5,-168.5"/>
<text text-anchor="middle" x="56.5" y="-175.5" font-family="Helvetica,sans-Serif" font-size="10.00">Ds9ImportExport.h</text>
</a>
</g>
</g>
<!-- Node13&#45;&gt;Node16 -->
<g id="edge16" class="edge">
<title>Node13&#45;&gt;Node16</title>
<path fill="none" stroke="midnightblue" d="M215.13,-221.83C177.36,-211.63 122.36,-196.78 88.04,-187.52"/>
<polygon fill="midnightblue" stroke="midnightblue" points="214.24,-225.22 224.81,-224.44 216.07,-218.46 214.24,-225.22"/>
</g>
<!-- Node18 -->
<g id="node18" class="node">
<title>Node18</title>
<g id="a_node18"><a xlink:href="RegionImportExport_8cc.html" target="_top" xlink:title=" ">
<polygon fill="none" stroke="black" points="128.5,-168.5 128.5,-187.5 256.5,-187.5 256.5,-168.5 128.5,-168.5"/>
<text text-anchor="middle" x="192.5" y="-175.5" font-family="Helvetica,sans-Serif" font-size="10.00">RegionImportExport.cc</text>
</a>
</g>
</g>
<!-- Node13&#45;&gt;Node18 -->
<g id="edge19" class="edge">
<title>Node13&#45;&gt;Node18</title>
<path fill="none" stroke="midnightblue" d="M238.51,-217.82C227.04,-208.15 212.59,-195.95 202.97,-187.83"/>
<polygon fill="midnightblue" stroke="midnightblue" points="236.32,-220.55 246.22,-224.32 240.83,-215.2 236.32,-220.55"/>
</g>
<!-- Node14&#45;&gt;Node12 -->
<g id="edge15" class="edge">
<title>Node14&#45;&gt;Node12</title>
<path fill="none" stroke="midnightblue" d="M341.52,-159.86C348.62,-150.5 357.1,-139.33 362.86,-131.75"/>
<polygon fill="midnightblue" stroke="midnightblue" points="338.53,-158 335.27,-168.08 344.11,-162.24 338.53,-158"/>
</g>
<!-- Node15 -->
<g id="node15" class="node">
<title>Node15</title>
<g id="a_node15"><a xlink:href="CrtfImportExport_8cc.html" target="_top" xlink:title=" ">
<polygon fill="none" stroke="black" points="188.5,-112.5 188.5,-131.5 300.5,-131.5 300.5,-112.5 188.5,-112.5"/>
<text text-anchor="middle" x="244.5" y="-119.5" font-family="Helvetica,sans-Serif" font-size="10.00">CrtfImportExport.cc</text>
</a>
</g>
</g>
<!-- Node14&#45;&gt;Node15 -->
<g id="edge14" class="edge">
<title>Node14&#45;&gt;Node15</title>
<path fill="none" stroke="midnightblue" d="M306.57,-162.9C291.16,-153 271.05,-140.07 257.96,-131.65"/>
<polygon fill="midnightblue" stroke="midnightblue" points="304.7,-165.86 315,-168.32 308.48,-159.97 304.7,-165.86"/>
</g>
<!-- Node16&#45;&gt;Node12 -->
<g id="edge18" class="edge">
<title>Node16&#45;&gt;Node12</title>
<path fill="none" stroke="midnightblue" d="M116.04,-166.73C175.19,-156.52 264.83,-141.06 320.14,-131.52"/>
<polygon fill="midnightblue" stroke="midnightblue" points="115.36,-163.29 106.1,-168.44 116.55,-170.19 115.36,-163.29"/>
</g>
<!-- Node17 -->
<g id="node17" class="node">
<title>Node17</title>
<g id="a_node17"><a xlink:href="Ds9ImportExport_8cc.html" target="_top" xlink:title=" ">
<polygon fill="none" stroke="black" points="0,-112.5 0,-131.5 113,-131.5 113,-112.5 0,-112.5"/>
<text text-anchor="middle" x="56.5" y="-119.5" font-family="Helvetica,sans-Serif" font-size="10.00">Ds9ImportExport.cc</text>
</a>
</g>
</g>
<!-- Node16&#45;&gt;Node17 -->
<g id="edge17" class="edge">
<title>Node16&#45;&gt;Node17</title>
<path fill="none" stroke="midnightblue" d="M56.5,-157.8C56.5,-148.91 56.5,-138.78 56.5,-131.75"/>
<polygon fill="midnightblue" stroke="midnightblue" points="53,-158.08 56.5,-168.08 60,-158.08 53,-158.08"/>
</g>
<!-- Node20 -->
<g id="node20" class="node">
<title>Node20</title>
<g id="a_node20"><a xlink:href="CursorSettings_8cc.html" target="_top" xlink:title=" ">
<polygon fill="none" stroke="black" points="439,-168.5 439,-187.5 540,-187.5 540,-168.5 439,-168.5"/>
<text text-anchor="middle" x="489.5" y="-175.5" font-family="Helvetica,sans-Serif" font-size="10.00">CursorSettings.cc</text>
</a>
</g>
</g>
<!-- Node19&#45;&gt;Node20 -->
<g id="edge21" class="edge">
<title>Node19&#45;&gt;Node20</title>
<path fill="none" stroke="midnightblue" d="M516.12,-215.86C509.36,-206.5 501.29,-195.33 495.82,-187.75"/>
<polygon fill="midnightblue" stroke="midnightblue" points="513.37,-218.03 522.06,-224.08 519.04,-213.93 513.37,-218.03"/>
</g>
<!-- Node21 -->
<g id="node21" class="node">
<title>Node21</title>
<g id="a_node21"><a xlink:href="OnMessageTask_8h.html" target="_top" xlink:title=" ">
<polygon fill="none" stroke="black" points="695.5,-112.5 695.5,-131.5 799.5,-131.5 799.5,-112.5 695.5,-112.5"/>
<text text-anchor="middle" x="747.5" y="-119.5" font-family="Helvetica,sans-Serif" font-size="10.00">OnMessageTask.h</text>
</a>
</g>
</g>
<!-- Node19&#45;&gt;Node21 -->
<g id="edge22" class="edge">
<title>Node19&#45;&gt;Node21</title>
<path fill="none" stroke="midnightblue" d="M554.62,-219.88C600.02,-197.08 692.25,-150.75 730.4,-131.59"/>
<polygon fill="midnightblue" stroke="midnightblue" points="553.05,-216.75 545.68,-224.37 556.19,-223.01 553.05,-216.75"/>
</g>
<!-- Node23 -->
<g id="node23" class="node">
<title>Node23</title>
<g id="a_node23"><a xlink:href="Session_8cc.html" target="_top" xlink:title=" ">
<polygon fill="none" stroke="black" points="53.5,-0.5 53.5,-19.5 121.5,-19.5 121.5,-0.5 53.5,-0.5"/>
<text text-anchor="middle" x="87.5" y="-7.5" font-family="Helvetica,sans-Serif" font-size="10.00">Session.cc</text>
</a>
</g>
</g>
<!-- Node19&#45;&gt;Node23 -->
<g id="edge38" class="edge">
<title>Node19&#45;&gt;Node23</title>
<path fill="none" stroke="midnightblue" d="M541.63,-215.92C550.47,-202.17 558.94,-182.78 549.5,-168 525.21,-129.99 221.51,-46.54 120.17,-19.58"/>
<polygon fill="midnightblue" stroke="midnightblue" points="538.55,-214.21 535.66,-224.41 544.28,-218.24 538.55,-214.21"/>
</g>
<!-- Node34 -->
<g id="node34" class="node">
<title>Node34</title>
<g id="a_node34"><a xlink:href="SessionManager_8h.html" target="_top" xlink:title=" ">
<polygon fill="none" stroke="black" points="896,-168.5 896,-187.5 1001,-187.5 1001,-168.5 896,-168.5"/>
<text text-anchor="middle" x="948.5" y="-175.5" font-family="Helvetica,sans-Serif" font-size="10.00">SessionManager.h</text>
</a>
</g>
</g>
<!-- Node19&#45;&gt;Node34 -->
<g id="edge39" class="edge">
<title>Node19&#45;&gt;Node34</title>
<path fill="none" stroke="midnightblue" d="M570.33,-227.62C647.29,-217.73 811.17,-196.66 895.67,-185.79"/>
<polygon fill="midnightblue" stroke="midnightblue" points="569.54,-224.19 560.07,-228.94 570.43,-231.14 569.54,-224.19"/>
</g>
<!-- Node22 -->
<g id="node22" class="node">
<title>Node22</title>
<g id="a_node22"><a xlink:href="OnMessageTask_8cc.html" target="_top" xlink:title=" ">
<polygon fill="none" stroke="black" points="842,-0.5 842,-19.5 951,-19.5 951,-0.5 842,-0.5"/>
<text text-anchor="middle" x="896.5" y="-7.5" font-family="Helvetica,sans-Serif" font-size="10.00">OnMessageTask.cc</text>
</a>
</g>
</g>
<!-- Node21&#45;&gt;Node22 -->
<g id="edge23" class="edge">
<title>Node21&#45;&gt;Node22</title>
<path fill="none" stroke="midnightblue" d="M767.25,-106.42C798.77,-83.15 859.45,-38.35 884.86,-19.59"/>
<polygon fill="midnightblue" stroke="midnightblue" points="765.16,-103.61 759.19,-112.37 769.32,-109.24 765.16,-103.61"/>
</g>
<!-- Node21&#45;&gt;Node23 -->
<g id="edge24" class="edge">
<title>Node21&#45;&gt;Node23</title>
<path fill="none" stroke="midnightblue" d="M712.89,-109.09C688.31,-100.42 654.63,-88.12 625.5,-76 606.04,-67.9 602.88,-61.37 582.5,-56 387.61,-4.7 329.97,-48.7 130.5,-20 127.63,-19.59 124.67,-19.1 121.7,-18.57"/>
<polygon fill="midnightblue" stroke="midnightblue" points="711.91,-112.45 722.5,-112.45 714.22,-105.84 711.91,-112.45"/>
</g>
<!-- Node24 -->
<g id="node24" class="node">
<title>Node24</title>
<g id="a_node24"><a xlink:href="SessionManager_8cc.html" target="_top" xlink:title=" ">
<polygon fill="none" stroke="black" points="969.5,-0.5 969.5,-19.5 1079.5,-19.5 1079.5,-0.5 969.5,-0.5"/>
<text text-anchor="middle" x="1024.5" y="-7.5" font-family="Helvetica,sans-Serif" font-size="10.00">SessionManager.cc</text>
</a>
</g>
</g>
<!-- Node21&#45;&gt;Node24 -->
<g id="edge25" class="edge">
<title>Node21&#45;&gt;Node24</title>
<path fill="none" stroke="midnightblue" d="M778.76,-108.59C835.51,-86.05 954.11,-38.95 1002.87,-19.59"/>
<polygon fill="midnightblue" stroke="midnightblue" points="777.24,-105.42 769.24,-112.37 779.82,-111.93 777.24,-105.42"/>
</g>
<!-- Node25 -->
<g id="node25" class="node">
<title>Node25</title>
<g id="a_node25"><a xlink:href="ThreadingManager_8h.html" target="_top" xlink:title=" ">
<polygon fill="none" stroke="black" points="634.5,-56.5 634.5,-75.5 750.5,-75.5 750.5,-56.5 634.5,-56.5"/>
<text text-anchor="middle" x="692.5" y="-63.5" font-family="Helvetica,sans-Serif" font-size="10.00">ThreadingManager.h</text>
</a>
</g>
</g>
<!-- Node21&#45;&gt;Node25 -->
<g id="edge26" class="edge">
<title>Node21&#45;&gt;Node25</title>
<path fill="none" stroke="midnightblue" d="M731.21,-105C721.46,-95.43 709.45,-83.64 701.41,-75.75"/>
<polygon fill="midnightblue" stroke="midnightblue" points="728.83,-107.57 738.42,-112.08 733.73,-102.58 728.83,-107.57"/>
</g>
<!-- Node25&#45;&gt;Node22 -->
<g id="edge31" class="edge">
<title>Node25&#45;&gt;Node22</title>
<path fill="none" stroke="midnightblue" d="M734.7,-53.83C773.22,-43.63 829.32,-28.78 864.33,-19.52"/>
<polygon fill="midnightblue" stroke="midnightblue" points="733.6,-50.5 724.82,-56.44 735.39,-57.27 733.6,-50.5"/>
</g>
<!-- Node25&#45;&gt;Node23 -->
<g id="edge32" class="edge">
<title>Node25&#45;&gt;Node23</title>
<path fill="none" stroke="midnightblue" d="M624.34,-56.39C623.05,-56.26 621.77,-56.13 620.5,-56 403.2,-34.45 346.73,-50.43 130.5,-20 127.63,-19.6 124.66,-19.11 121.7,-18.59"/>
<polygon fill="midnightblue" stroke="midnightblue" points="624.05,-59.88 634.37,-57.48 624.8,-52.92 624.05,-59.88"/>
</g>
<!-- Node25&#45;&gt;Node24 -->
<g id="edge33" class="edge">
<title>Node25&#45;&gt;Node24</title>
<path fill="none" stroke="midnightblue" d="M755.27,-54.79C818,-44.59 913.35,-29.08 972.14,-19.52"/>
<polygon fill="midnightblue" stroke="midnightblue" points="754.41,-51.38 745.11,-56.44 755.54,-58.29 754.41,-51.38"/>
</g>
<!-- Node26 -->
<g id="node26" class="node">
<title>Node26</title>
<g id="a_node26"><a xlink:href="Contouring_8cc.html" target="_top" xlink:title=" ">
<polygon fill="none" stroke="black" points="450,-0.5 450,-19.5 533,-19.5 533,-0.5 450,-0.5"/>
<text text-anchor="middle" x="491.5" y="-7.5" font-family="Helvetica,sans-Serif" font-size="10.00">Contouring.cc</text>
</a>
</g>
</g>
<!-- Node25&#45;&gt;Node26 -->
<g id="edge27" class="edge">
<title>Node25&#45;&gt;Node26</title>
<path fill="none" stroke="midnightblue" d="M650.92,-53.83C612.97,-43.63 557.69,-28.78 523.2,-19.52"/>
<polygon fill="midnightblue" stroke="midnightblue" points="650.09,-57.23 660.65,-56.44 651.9,-50.47 650.09,-57.23"/>
</g>
<!-- Node27 -->
<g id="node27" class="node">
<title>Node27</title>
<g id="a_node27"><a xlink:href="Smoothing_8cc.html" target="_top" xlink:title=" ">
<polygon fill="none" stroke="black" points="551,-0.5 551,-19.5 634,-19.5 634,-0.5 551,-0.5"/>
<text text-anchor="middle" x="592.5" y="-7.5" font-family="Helvetica,sans-Serif" font-size="10.00">Smoothing.cc</text>
</a>
</g>
</g>
<!-- Node25&#45;&gt;Node27 -->
<g id="edge28" class="edge">
<title>Node25&#45;&gt;Node27</title>
<path fill="none" stroke="midnightblue" d="M667.41,-51.45C648.95,-41.48 624.4,-28.23 608.53,-19.65"/>
<polygon fill="midnightblue" stroke="midnightblue" points="665.97,-54.65 676.43,-56.32 669.3,-48.49 665.97,-54.65"/>
</g>
<!-- Node28 -->
<g id="node28" class="node">
<title>Node28</title>
<g id="a_node28"><a xlink:href="Histogram_8cc.html" target="_top" xlink:title=" ">
<polygon fill="none" stroke="black" points="652,-0.5 652,-19.5 733,-19.5 733,-0.5 652,-0.5"/>
<text text-anchor="middle" x="692.5" y="-7.5" font-family="Helvetica,sans-Serif" font-size="10.00">Histogram.cc</text>
</a>
</g>
</g>
<!-- Node25&#45;&gt;Node28 -->
<g id="edge29" class="edge">
<title>Node25&#45;&gt;Node28</title>
<path fill="none" stroke="midnightblue" d="M692.5,-45.8C692.5,-36.91 692.5,-26.78 692.5,-19.75"/>
<polygon fill="midnightblue" stroke="midnightblue" points="689,-46.08 692.5,-56.08 696,-46.08 689,-46.08"/>
</g>
<!-- Node29 -->
<g id="node29" class="node">
<title>Node29</title>
<g id="a_node29"><a xlink:href="Main_8cc.html" target="_top" xlink:title=" ">
<polygon fill="none" stroke="black" points="1097.5,-0.5 1097.5,-19.5 1151.5,-19.5 1151.5,-0.5 1097.5,-0.5"/>
<text text-anchor="middle" x="1124.5" y="-7.5" font-family="Helvetica,sans-Serif" font-size="10.00">Main.cc</text>
</a>
</g>
</g>
<!-- Node25&#45;&gt;Node29 -->
<g id="edge30" class="edge">
<title>Node25&#45;&gt;Node29</title>
<path fill="none" stroke="midnightblue" d="M760.9,-59.98C840.15,-53.53 974.47,-40.64 1088.5,-20 1091.42,-19.47 1094.45,-18.84 1097.46,-18.17"/>
<polygon fill="midnightblue" stroke="midnightblue" points="760.25,-56.52 750.56,-60.81 760.81,-63.5 760.25,-56.52"/>
</g>
<!-- Node30 -->
<g id="node30" class="node">
<title>Node30</title>
<g id="a_node30"><a xlink:href="Columns_8cc.html" target="_top" xlink:title=" ">
<polygon fill="none" stroke="black" points="751,-0.5 751,-19.5 824,-19.5 824,-0.5 751,-0.5"/>
<text text-anchor="middle" x="787.5" y="-7.5" font-family="Helvetica,sans-Serif" font-size="10.00">Columns.cc</text>
</a>
</g>
</g>
<!-- Node25&#45;&gt;Node30 -->
<g id="edge34" class="edge">
<title>Node25&#45;&gt;Node30</title>
<path fill="none" stroke="midnightblue" d="M716.82,-51.18C734.3,-41.24 757.33,-28.15 772.27,-19.65"/>
<polygon fill="midnightblue" stroke="midnightblue" points="714.73,-48.34 707.76,-56.32 718.19,-54.43 714.73,-48.34"/>
</g>
<!-- Node31 -->
<g id="node31" class="node">
<title>Node31</title>
<g id="a_node31"><a xlink:href="Table_8cc.html" target="_top" xlink:title=" ">
<polygon fill="none" stroke="black" points="139.5,-0.5 139.5,-19.5 195.5,-19.5 195.5,-0.5 139.5,-0.5"/>
<text text-anchor="middle" x="167.5" y="-7.5" font-family="Helvetica,sans-Serif" font-size="10.00">Table.cc</text>
</a>
</g>
</g>
<!-- Node25&#45;&gt;Node31 -->
<g id="edge35" class="edge">
<title>Node25&#45;&gt;Node31</title>
<path fill="none" stroke="midnightblue" d="M624.34,-56.41C623.05,-56.27 621.77,-56.13 620.5,-56 435.95,-36.49 387.64,-50.02 204.5,-20 201.63,-19.53 198.65,-18.95 195.69,-18.33"/>
<polygon fill="midnightblue" stroke="midnightblue" points="624.03,-59.9 634.36,-57.54 624.82,-52.94 624.03,-59.9"/>
</g>
<!-- Node32 -->
<g id="node32" class="node">
<title>Node32</title>
<g id="a_node32"><a xlink:href="TableView_8cc.html" target="_top" xlink:title=" ">
<polygon fill="none" stroke="black" points="214,-0.5 214,-19.5 293,-19.5 293,-0.5 214,-0.5"/>
<text text-anchor="middle" x="253.5" y="-7.5" font-family="Helvetica,sans-Serif" font-size="10.00">TableView.cc</text>
</a>
</g>
</g>
<!-- Node25&#45;&gt;Node32 -->
<g id="edge36" class="edge">
<title>Node25&#45;&gt;Node32</title>
<path fill="none" stroke="midnightblue" d="M624.33,-56.46C623.05,-56.3 621.77,-56.15 620.5,-56 478.82,-39.15 442.6,-41.16 301.5,-20 298.73,-19.59 295.88,-19.13 293.01,-18.65"/>
<polygon fill="midnightblue" stroke="midnightblue" points="624,-59.94 634.35,-57.67 624.84,-52.99 624,-59.94"/>
</g>
<!-- Node33 -->
<g id="node33" class="node">
<title>Node33</title>
<g id="a_node33"><a xlink:href="ThreadingManager_8cc.html" target="_top" xlink:title=" ">
<polygon fill="none" stroke="black" points="311,-0.5 311,-19.5 432,-19.5 432,-0.5 311,-0.5"/>
<text text-anchor="middle" x="371.5" y="-7.5" font-family="Helvetica,sans-Serif" font-size="10.00">ThreadingManager.cc</text>
</a>
</g>
</g>
<!-- Node25&#45;&gt;Node33 -->
<g id="edge37" class="edge">
<title>Node25&#45;&gt;Node33</title>
<path fill="none" stroke="midnightblue" d="M631.44,-54.73C570.78,-44.52 478.85,-29.06 422.13,-19.52"/>
<polygon fill="midnightblue" stroke="midnightblue" points="631.19,-58.24 641.64,-56.44 632.36,-51.33 631.19,-58.24"/>
</g>
<!-- Node34&#45;&gt;Node21 -->
<g id="edge44" class="edge">
<title>Node34&#45;&gt;Node21</title>
<path fill="none" stroke="midnightblue" d="M906.92,-165.83C868.97,-155.63 813.69,-140.78 779.2,-131.52"/>
<polygon fill="midnightblue" stroke="midnightblue" points="906.09,-169.23 916.65,-168.44 907.9,-162.47 906.09,-169.23"/>
</g>
<!-- Node34&#45;&gt;Node24 -->
<g id="edge45" class="edge">
<title>Node34&#45;&gt;Node24</title>
<path fill="none" stroke="midnightblue" d="M947.36,-158.08C946.73,-133 948.69,-88.17 967.5,-56 976.98,-39.78 994.74,-27.2 1007.92,-19.51"/>
<polygon fill="midnightblue" stroke="midnightblue" points="943.88,-158.54 947.8,-168.38 950.87,-158.24 943.88,-158.54"/>
</g>
<!-- Node34&#45;&gt;Node29 -->
<g id="edge43" class="edge">
<title>Node34&#45;&gt;Node29</title>
<path fill="none" stroke="midnightblue" d="M1001.96,-165.6C1023.71,-158.79 1047.83,-148.2 1065.5,-132 1100.81,-99.62 1117.4,-41.51 1122.61,-19.64"/>
<polygon fill="midnightblue" stroke="midnightblue" points="1000.78,-162.3 992.17,-168.47 1002.75,-169.01 1000.78,-162.3"/>
</g>
<!-- Node35 -->
<g id="node35" class="node">
<title>Node35</title>
<g id="a_node35"><a xlink:href="HttpServer_8h.html" target="_top" xlink:title=" ">
<polygon fill="none" stroke="black" points="979,-112.5 979,-131.5 1056,-131.5 1056,-112.5 979,-112.5"/>
<text text-anchor="middle" x="1017.5" y="-119.5" font-family="Helvetica,sans-Serif" font-size="10.00">HttpServer.h</text>
</a>
</g>
</g>
<!-- Node34&#45;&gt;Node35 -->
<g id="edge40" class="edge">
<title>Node34&#45;&gt;Node35</title>
<path fill="none" stroke="midnightblue" d="M967.54,-162.1C979.96,-152.38 995.74,-140.03 1006.21,-131.83"/>
<polygon fill="midnightblue" stroke="midnightblue" points="965.3,-159.4 959.59,-168.32 969.62,-164.92 965.3,-159.4"/>
</g>
<!-- Node35&#45;&gt;Node29 -->
<g id="edge42" class="edge">
<title>Node35&#45;&gt;Node29</title>
<path fill="none" stroke="midnightblue" d="M1035.62,-105.61C1045.33,-97.14 1057.35,-86.28 1067.5,-76 1086.48,-56.77 1106.95,-32.45 1117.43,-19.7"/>
<polygon fill="midnightblue" stroke="midnightblue" points="1033.07,-103.19 1027.78,-112.37 1037.64,-108.49 1033.07,-103.19"/>
</g>
<!-- Node36 -->
<g id="node36" class="node">
<title>Node36</title>
<g id="a_node36"><a xlink:href="HttpServer_8cc.html" target="_top" xlink:title=" ">
<polygon fill="none" stroke="black" points="976.5,-56.5 976.5,-75.5 1058.5,-75.5 1058.5,-56.5 976.5,-56.5"/>
<text text-anchor="middle" x="1017.5" y="-63.5" font-family="Helvetica,sans-Serif" font-size="10.00">HttpServer.cc</text>
</a>
</g>
</g>
<!-- Node35&#45;&gt;Node36 -->
<g id="edge41" class="edge">
<title>Node35&#45;&gt;Node36</title>
<path fill="none" stroke="midnightblue" d="M1017.5,-101.8C1017.5,-92.91 1017.5,-82.78 1017.5,-75.75"/>
<polygon fill="midnightblue" stroke="midnightblue" points="1014,-102.08 1017.5,-112.08 1021,-102.08 1014,-102.08"/>
</g>
</g>
</svg>
        <g id="navigator" transform="translate(0 0)" fill="#404254">
                <rect fill="#f2f5e9" fill-opacity="0.5" stroke="#606060" stroke-width=".5" x="0" y="0" width="60" height="60"/>
                <use id="zoomplus" xlink:href="#zoomPlus" x="17" y="9" onmousedown="handleZoom(evt,'in')"/>
                <use id="zoomminus" xlink:href="#zoomMin" x="42" y="9" onmousedown="handleZoom(evt,'out')"/>
                <use id="reset" xlink:href="#resetDef" x="30" y="36" onmousedown="handleReset()"/>
                <g id="arrowUp" xlink:href="#dirArrow" transform="translate(30 24)" onmousedown="handlePan(0,-1)">
                  <use xlink:href="#rim" fill="#404040">
                        <set attributeName="fill" to="#808080" begin="arrowUp.mouseover" end="arrowUp.mouseout"/>
                  </use>
                  <path fill="none" stroke="white" stroke-width="1.5" d="M0,-3.0v7 M-2.5,-0.5L0,-3.0L2.5,-0.5"/>
                </g>
                <g id="arrowRight" xlink:href="#dirArrow" transform="rotate(90) translate(36 -43)" onmousedown="handlePan(1,0)">
                  <use xlink:href="#rim" fill="#404040">
                        <set attributeName="fill" to="#808080" begin="arrowRight.mouseover" end="arrowRight.mouseout"/>
                  </use>
                  <path fill="none" stroke="white" stroke-width="1.5" d="M0,-3.0v7 M-2.5,-0.5L0,-3.0L2.5,-0.5"/>
                </g>
                <g id="arrowDown" xlink:href="#dirArrow" transform="rotate(180) translate(-30 -48)" onmousedown="handlePan(0,1)">
                  <use xlink:href="#rim" fill="#404040">
                        <set attributeName="fill" to="#808080" begin="arrowDown.mouseover" end="arrowDown.mouseout"/>
                  </use>
                  <path fill="none" stroke="white" stroke-width="1.5" d="M0,-3.0v7 M-2.5,-0.5L0,-3.0L2.5,-0.5"/>
                </g>
                <g id="arrowLeft" xlink:href="#dirArrow" transform="rotate(270) translate(-36 17)" onmousedown="handlePan(-1,0)">
                  <use xlink:href="#rim" fill="#404040">
                        <set attributeName="fill" to="#808080" begin="arrowLeft.mouseover" end="arrowLeft.mouseout"/>
                  </use>
                  <path fill="none" stroke="white" stroke-width="1.5" d="M0,-3.0v7 M-2.5,-0.5L0,-3.0L2.5,-0.5"/>
                </g>
        </g>
        <svg viewBox="0 0 15 15" width="100%" height="30px" preserveAspectRatio="xMaxYMin meet">
         <g id="arrow_out" transform="scale(0.3 0.3)">
          <a xlink:href="TileCacheKey_8h__dep__incl_org.svg" target="_base">
           <rect id="button" ry="5" rx="5" y="6" x="6" height="38" width="38"
                fill="#f2f5e9" fill-opacity="0.5" stroke="#606060" stroke-width="1.0"/>
           <path id="arrow"
             d="M 11.500037,31.436501 C 11.940474,20.09759 22.043105,11.32322 32.158766,21.979434 L 37.068811,17.246167 C 37.068811,17.246167 37.088388,32 37.088388,32 L 22.160133,31.978069 C 22.160133,31.978069 26.997745,27.140456 26.997745,27.140456 C 18.528582,18.264221 13.291696,25.230495 11.500037,31.436501 z"
             style="fill:#404040;"/>
          </a>
         </g>
        </svg>
</svg>
